<svg width="450" height="545" viewBox="0 0 450 545" fill="none" xmlns="http://www.w3.org/2000/svg">
<path d="M1.48382 94.3738L1.48419 528.315C1.48419 536.603 8.21128 543.318 16.4996 543.303L433.288 542.535C441.555 542.52 448.249 535.814 448.249 527.547V94.3737C448.249 86.0962 441.538 79.386 433.261 79.386H16.4716C8.19407 79.386 1.48382 86.0962 1.48382 94.3738Z" fill="#FDFBF9" stroke="#959595" stroke-width="2.30581"/>
<path d="M79.3842 79.396L43.9073 79.396L61.6458 61.9908L79.3842 79.396Z" fill="#FDFBF9" stroke="#959595" stroke-width="2.30581"/>
<path d="M44.2676 80.5379L61.6461 63.4859L79.0246 80.5379H44.2676Z" fill="#FDFBF9"/>
<path d="M2.63672 196.238H447.094" stroke="#EFECE6" stroke-width="2.30581"/>
<path d="M2.63672 311.55H447.094" stroke="#EFECE6" stroke-width="2.30581"/>
<path d="M2.63672 426.863H447.094" stroke="#EFECE6" stroke-width="2.30581"/>
<path d="M58.487 148.997V151.825H45.3727V148.997H58.487ZM46.0573 125.596V151.825H42.5805V125.596H46.0573ZM61.0811 142.295V141.881C61.0811 140.476 61.2852 139.173 61.6935 137.972C62.1019 136.759 62.6903 135.708 63.4589 134.82C64.2275 133.919 65.1583 133.222 66.2511 132.73C67.344 132.226 68.5689 131.973 69.926 131.973C71.2951 131.973 72.526 132.226 73.6189 132.73C74.7238 133.222 75.6605 133.919 76.4291 134.82C77.2097 135.708 77.8042 136.759 78.2125 137.972C78.6208 139.173 78.825 140.476 78.825 141.881V142.295C78.825 143.701 78.6208 145.004 78.2125 146.205C77.8042 147.405 77.2097 148.456 76.4291 149.357C75.6605 150.246 74.7298 150.942 73.6369 151.447C72.5561 151.939 71.3311 152.185 69.962 152.185C68.593 152.185 67.362 151.939 66.2691 151.447C65.1763 150.942 64.2395 150.246 63.4589 149.357C62.6903 148.456 62.1019 147.405 61.6935 146.205C61.2852 145.004 61.0811 143.701 61.0811 142.295ZM64.4137 141.881V142.295C64.4137 143.268 64.5278 144.187 64.7559 145.052C64.9841 145.904 65.3264 146.661 65.7827 147.321C66.2511 147.982 66.8336 148.504 67.5301 148.889C68.2267 149.261 69.0373 149.447 69.962 149.447C70.8747 149.447 71.6734 149.261 72.3579 148.889C73.0545 148.504 73.6309 147.982 74.0873 147.321C74.5436 146.661 74.8859 145.904 75.1141 145.052C75.3543 144.187 75.4744 143.268 75.4744 142.295V141.881C75.4744 140.92 75.3543 140.014 75.1141 139.161C74.8859 138.296 74.5376 137.534 74.0693 136.873C73.6129 136.201 73.0364 135.672 72.3399 135.288C71.6554 134.904 70.8507 134.712 69.926 134.712C69.0133 134.712 68.2086 134.904 67.5121 135.288C66.8276 135.672 66.2511 136.201 65.7827 136.873C65.3264 137.534 64.9841 138.296 64.7559 139.161C64.5278 140.014 64.4137 140.92 64.4137 141.881ZM95.6322 132.334H98.6586V151.411C98.6586 153.128 98.3103 154.593 97.6137 155.806C96.9172 157.019 95.9444 157.938 94.6954 158.562C93.4585 159.199 92.0294 159.517 90.4081 159.517C89.7356 159.517 88.9429 159.409 88.0302 159.193C87.1295 158.989 86.2408 158.634 85.3641 158.13C84.4994 157.638 83.7729 156.971 83.1844 156.13L84.9318 154.149C85.7484 155.134 86.6011 155.818 87.4898 156.202C88.3905 156.587 89.2792 156.779 90.1559 156.779C91.2127 156.779 92.1254 156.581 92.894 156.184C93.6626 155.788 94.2571 155.2 94.6774 154.419C95.1098 153.65 95.3259 152.702 95.3259 151.573V136.621L95.6322 132.334ZM82.2116 142.295V141.917C82.2116 140.428 82.3858 139.077 82.7341 137.864C83.0943 136.639 83.6047 135.588 84.2653 134.712C84.9378 133.835 85.7484 133.162 86.6972 132.694C87.6459 132.214 88.7148 131.973 89.9037 131.973C91.1286 131.973 92.1975 132.19 93.1102 132.622C94.0349 133.042 94.8155 133.661 95.452 134.477C96.1006 135.282 96.611 136.255 96.9832 137.396C97.3555 138.537 97.6137 139.828 97.7579 141.269V142.926C97.6257 144.355 97.3675 145.64 96.9832 146.781C96.611 147.922 96.1006 148.895 95.452 149.699C94.8155 150.504 94.0349 151.122 93.1102 151.555C92.1855 151.975 91.1046 152.185 89.8677 152.185C88.7027 152.185 87.6459 151.939 86.6972 151.447C85.7604 150.954 84.9558 150.264 84.2833 149.375C83.6107 148.486 83.0943 147.442 82.7341 146.241C82.3858 145.028 82.2116 143.713 82.2116 142.295ZM85.5443 141.917V142.295C85.5443 143.268 85.6403 144.181 85.8325 145.034C86.0366 145.886 86.3429 146.637 86.7512 147.285C87.1715 147.934 87.706 148.444 88.3545 148.817C89.003 149.177 89.7776 149.357 90.6783 149.357C91.7832 149.357 92.6959 149.123 93.4164 148.654C94.137 148.186 94.7075 147.568 95.1278 146.799C95.5601 146.03 95.8964 145.196 96.1366 144.295V139.954C96.0045 139.293 95.8003 138.657 95.5241 138.044C95.2599 137.42 94.9116 136.867 94.4793 136.387C94.0589 135.894 93.5365 135.504 92.912 135.216C92.2876 134.928 91.555 134.784 90.7143 134.784C89.8016 134.784 89.015 134.976 88.3545 135.36C87.706 135.732 87.1715 136.249 86.7512 136.909C86.3429 137.558 86.0366 138.314 85.8325 139.179C85.6403 140.032 85.5443 140.944 85.5443 141.917ZM107.323 132.334V151.825H103.991V132.334H107.323ZM103.883 129.487L107.377 124.191H111.395L106.567 129.487H103.883ZM124.221 146.655C124.221 146.175 124.113 145.73 123.896 145.322C123.692 144.902 123.266 144.523 122.617 144.187C121.981 143.839 121.02 143.538 119.735 143.286C118.654 143.058 117.675 142.788 116.799 142.476C115.934 142.163 115.196 141.785 114.583 141.341C113.983 140.896 113.52 140.374 113.196 139.773C112.872 139.173 112.71 138.47 112.71 137.666C112.71 136.897 112.878 136.171 113.214 135.486C113.562 134.802 114.049 134.195 114.673 133.667C115.31 133.138 116.072 132.724 116.961 132.424C117.85 132.123 118.84 131.973 119.933 131.973C121.494 131.973 122.828 132.25 123.932 132.802C125.037 133.354 125.884 134.093 126.472 135.018C127.061 135.93 127.355 136.945 127.355 138.062H124.022C124.022 137.522 123.86 136.999 123.536 136.495C123.224 135.979 122.761 135.552 122.149 135.216C121.549 134.88 120.81 134.712 119.933 134.712C119.009 134.712 118.258 134.856 117.681 135.144C117.117 135.42 116.703 135.774 116.439 136.207C116.186 136.639 116.06 137.095 116.06 137.576C116.06 137.936 116.12 138.26 116.24 138.549C116.372 138.825 116.601 139.083 116.925 139.323C117.249 139.551 117.706 139.767 118.294 139.972C118.882 140.176 119.633 140.38 120.546 140.584C122.143 140.944 123.458 141.377 124.491 141.881C125.524 142.386 126.292 143.004 126.797 143.737C127.301 144.469 127.553 145.358 127.553 146.403C127.553 147.255 127.373 148.036 127.013 148.745C126.665 149.453 126.154 150.066 125.482 150.582C124.821 151.086 124.028 151.483 123.104 151.771C122.191 152.047 121.164 152.185 120.023 152.185C118.306 152.185 116.853 151.879 115.664 151.267C114.475 150.654 113.574 149.861 112.962 148.889C112.349 147.916 112.043 146.889 112.043 145.808H115.394C115.442 146.721 115.706 147.448 116.186 147.988C116.667 148.516 117.255 148.895 117.952 149.123C118.648 149.339 119.339 149.447 120.023 149.447C120.936 149.447 121.699 149.327 122.311 149.087C122.936 148.847 123.41 148.516 123.734 148.096C124.059 147.676 124.221 147.195 124.221 146.655ZM140.091 132.334V134.892H129.553V132.334H140.091ZM133.12 127.596H136.452V146.997C136.452 147.658 136.554 148.156 136.758 148.492C136.963 148.829 137.227 149.051 137.551 149.159C137.875 149.267 138.224 149.321 138.596 149.321C138.872 149.321 139.16 149.297 139.461 149.249C139.773 149.189 140.007 149.141 140.163 149.105L140.181 151.825C139.917 151.909 139.569 151.987 139.136 152.059C138.716 152.143 138.206 152.185 137.605 152.185C136.789 152.185 136.038 152.023 135.353 151.699C134.669 151.375 134.122 150.834 133.714 150.078C133.318 149.309 133.12 148.276 133.12 146.979V127.596ZM147.621 132.334V151.825H144.27V132.334H147.621ZM144.018 127.164C144.018 126.623 144.18 126.167 144.505 125.795C144.841 125.422 145.333 125.236 145.982 125.236C146.618 125.236 147.105 125.422 147.441 125.795C147.789 126.167 147.963 126.623 147.963 127.164C147.963 127.68 147.789 128.124 147.441 128.497C147.105 128.857 146.618 129.037 145.982 129.037C145.333 129.037 144.841 128.857 144.505 128.497C144.18 128.124 144.018 127.68 144.018 127.164ZM160.771 149.447C161.564 149.447 162.297 149.285 162.969 148.961C163.642 148.636 164.194 148.192 164.626 147.628C165.059 147.051 165.305 146.397 165.365 145.664H168.535C168.475 146.817 168.085 147.892 167.365 148.889C166.656 149.873 165.725 150.672 164.572 151.285C163.419 151.885 162.152 152.185 160.771 152.185C159.306 152.185 158.027 151.927 156.934 151.411C155.853 150.894 154.953 150.186 154.232 149.285C153.524 148.384 152.989 147.351 152.629 146.187C152.281 145.01 152.107 143.767 152.107 142.458V141.701C152.107 140.392 152.281 139.155 152.629 137.99C152.989 136.813 153.524 135.774 154.232 134.874C154.953 133.973 155.853 133.264 156.934 132.748C158.027 132.232 159.306 131.973 160.771 131.973C162.297 131.973 163.63 132.286 164.77 132.91C165.911 133.523 166.806 134.363 167.455 135.432C168.115 136.489 168.475 137.69 168.535 139.035H165.365C165.305 138.23 165.077 137.504 164.68 136.855C164.296 136.207 163.768 135.69 163.095 135.306C162.435 134.91 161.66 134.712 160.771 134.712C159.751 134.712 158.892 134.916 158.195 135.324C157.511 135.72 156.964 136.261 156.556 136.945C156.16 137.618 155.871 138.368 155.691 139.197C155.523 140.014 155.439 140.848 155.439 141.701V142.458C155.439 143.31 155.523 144.151 155.691 144.98C155.859 145.808 156.142 146.559 156.538 147.231C156.946 147.904 157.493 148.444 158.177 148.853C158.874 149.249 159.739 149.447 160.771 149.447ZM183.775 148.492V138.458C183.775 137.69 183.619 137.023 183.307 136.459C183.007 135.882 182.55 135.438 181.938 135.126C181.325 134.814 180.569 134.657 179.668 134.657C178.828 134.657 178.089 134.802 177.452 135.09C176.828 135.378 176.336 135.756 175.975 136.225C175.627 136.693 175.453 137.197 175.453 137.738H172.12C172.12 137.041 172.3 136.351 172.661 135.666C173.021 134.982 173.537 134.363 174.21 133.811C174.894 133.246 175.711 132.802 176.66 132.478C177.621 132.141 178.689 131.973 179.866 131.973C181.283 131.973 182.532 132.214 183.613 132.694C184.706 133.174 185.559 133.901 186.171 134.874C186.796 135.834 187.108 137.041 187.108 138.494V147.574C187.108 148.222 187.162 148.913 187.27 149.645C187.39 150.378 187.564 151.008 187.793 151.537V151.825H184.316C184.148 151.441 184.016 150.93 183.92 150.294C183.823 149.645 183.775 149.045 183.775 148.492ZM184.352 140.008L184.388 142.35H181.019C180.07 142.35 179.224 142.428 178.479 142.584C177.735 142.728 177.11 142.95 176.606 143.25C176.101 143.55 175.717 143.929 175.453 144.385C175.189 144.829 175.057 145.352 175.057 145.952C175.057 146.565 175.195 147.123 175.471 147.628C175.747 148.132 176.161 148.534 176.714 148.835C177.278 149.123 177.969 149.267 178.785 149.267C179.806 149.267 180.707 149.051 181.488 148.618C182.268 148.186 182.887 147.658 183.343 147.033C183.811 146.409 184.064 145.802 184.1 145.214L185.523 146.817C185.439 147.321 185.211 147.88 184.838 148.492C184.466 149.105 183.968 149.693 183.343 150.258C182.731 150.81 181.998 151.273 181.145 151.645C180.305 152.005 179.356 152.185 178.299 152.185C176.978 152.185 175.819 151.927 174.822 151.411C173.838 150.894 173.069 150.204 172.517 149.339C171.976 148.462 171.706 147.484 171.706 146.403C171.706 145.358 171.91 144.439 172.318 143.647C172.727 142.842 173.315 142.175 174.084 141.647C174.852 141.107 175.777 140.698 176.858 140.422C177.939 140.146 179.146 140.008 180.479 140.008H184.352Z" fill="#606060"/>
<path d="M58.415 258.797H61.8737C61.6935 260.454 61.2192 261.937 60.4506 263.247C59.682 264.556 58.5951 265.594 57.19 266.363C55.7849 267.12 54.0315 267.498 51.9299 267.498C50.3927 267.498 48.9936 267.21 47.7326 266.633C46.4836 266.057 45.4087 265.24 44.508 264.183C43.6073 263.114 42.9108 261.835 42.4184 260.346C41.938 258.845 41.6978 257.176 41.6978 255.338V252.726C41.6978 250.889 41.938 249.226 42.4184 247.736C42.9108 246.235 43.6133 244.95 44.5261 243.881C45.4508 242.812 46.5616 241.99 47.8587 241.413C49.1557 240.837 50.6148 240.549 52.2361 240.549C54.2177 240.549 55.893 240.921 57.2621 241.666C58.6311 242.41 59.694 243.443 60.4506 244.764C61.2192 246.073 61.6935 247.592 61.8737 249.322H58.415C58.2468 248.097 57.9346 247.046 57.4782 246.169C57.0219 245.28 56.3734 244.596 55.5327 244.115C54.692 243.635 53.5932 243.395 52.2361 243.395C51.0712 243.395 50.0444 243.617 49.1557 244.061C48.279 244.506 47.5404 245.136 46.9399 245.953C46.3515 246.77 45.9071 247.748 45.6069 248.889C45.3067 250.03 45.1565 251.297 45.1565 252.69V255.338C45.1565 256.623 45.2887 257.83 45.5529 258.959C45.8291 260.088 46.2434 261.079 46.7958 261.931C47.3483 262.784 48.0508 263.457 48.9035 263.949C49.7562 264.429 50.765 264.67 51.9299 264.67C53.407 264.67 54.5839 264.435 55.4606 263.967C56.3373 263.499 56.9978 262.826 57.4422 261.949C57.8986 261.073 58.2228 260.022 58.415 258.797ZM69.4396 239.468V267.138H66.107V239.468H69.4396ZM68.647 256.653L67.2599 256.599C67.2719 255.266 67.4701 254.035 67.8544 252.906C68.2387 251.766 68.7791 250.775 69.4756 249.934C70.1722 249.093 71.0008 248.445 71.9616 247.989C72.9344 247.52 74.0092 247.286 75.1861 247.286C76.1469 247.286 77.0116 247.418 77.7802 247.682C78.5488 247.934 79.2033 248.343 79.7437 248.907C80.2961 249.472 80.7165 250.204 81.0047 251.105C81.2929 251.994 81.437 253.081 81.437 254.366V267.138H78.0864V254.33C78.0864 253.309 77.9363 252.492 77.6361 251.88C77.3358 251.255 76.8975 250.805 76.321 250.529C75.7446 250.24 75.036 250.096 74.1953 250.096C73.3667 250.096 72.6101 250.27 71.9256 250.619C71.253 250.967 70.6706 251.447 70.1782 252.06C69.6978 252.672 69.3195 253.375 69.0433 254.167C68.7791 254.948 68.647 255.777 68.647 256.653ZM97.92 263.805V253.771C97.92 253.002 97.7639 252.336 97.4516 251.772C97.1514 251.195 96.695 250.751 96.0825 250.438C95.4701 250.126 94.7135 249.97 93.8128 249.97C92.9721 249.97 92.2335 250.114 91.597 250.402C90.9725 250.691 90.4801 251.069 90.1199 251.537C89.7716 252.006 89.5974 252.51 89.5974 253.051H86.2648C86.2648 252.354 86.445 251.663 86.8053 250.979C87.1655 250.294 87.6819 249.676 88.3545 249.123C89.039 248.559 89.8556 248.115 90.8044 247.79C91.7651 247.454 92.834 247.286 94.0109 247.286C95.428 247.286 96.677 247.526 97.7579 248.007C98.8507 248.487 99.7034 249.213 100.316 250.186C100.94 251.147 101.253 252.354 101.253 253.807V262.886C101.253 263.535 101.307 264.225 101.415 264.958C101.535 265.69 101.709 266.321 101.937 266.849V267.138H98.4604C98.2923 266.753 98.1602 266.243 98.0641 265.606C97.968 264.958 97.92 264.357 97.92 263.805ZM98.4964 255.32L98.5325 257.662H95.1638C94.2151 257.662 93.3684 257.74 92.6238 257.896C91.8792 258.04 91.2547 258.263 90.7503 258.563C90.246 258.863 89.8617 259.241 89.5974 259.698C89.3332 260.142 89.2011 260.664 89.2011 261.265C89.2011 261.877 89.3392 262.436 89.6155 262.94C89.8917 263.445 90.306 263.847 90.8584 264.147C91.4229 264.435 92.1134 264.58 92.9301 264.58C93.9509 264.58 94.8516 264.363 95.6322 263.931C96.4128 263.499 97.0313 262.97 97.4876 262.346C97.956 261.721 98.2082 261.115 98.2442 260.526L99.6674 262.13C99.5833 262.634 99.3551 263.192 98.9828 263.805C98.6105 264.417 98.1121 265.006 97.4876 265.57C96.8752 266.123 96.1426 266.585 95.2899 266.957C94.4493 267.318 93.5005 267.498 92.4437 267.498C91.1226 267.498 89.9637 267.24 88.9669 266.723C87.9822 266.207 87.2136 265.516 86.6611 264.652C86.1207 263.775 85.8505 262.796 85.8505 261.715C85.8505 260.67 86.0547 259.752 86.463 258.959C86.8713 258.155 87.4598 257.488 88.2284 256.96C88.997 256.419 89.9217 256.011 91.0025 255.735C92.0834 255.458 93.2903 255.32 94.6234 255.32H98.4964ZM114.655 247.646V250.204H104.117V247.646H114.655ZM107.684 242.909H111.016V262.31C111.016 262.97 111.118 263.469 111.323 263.805C111.527 264.141 111.791 264.363 112.115 264.471C112.439 264.58 112.788 264.634 113.16 264.634C113.436 264.634 113.724 264.61 114.025 264.562C114.337 264.502 114.571 264.453 114.727 264.417L114.745 267.138C114.481 267.222 114.133 267.3 113.7 267.372C113.28 267.456 112.77 267.498 112.169 267.498C111.353 267.498 110.602 267.336 109.917 267.011C109.233 266.687 108.686 266.147 108.278 265.39C107.882 264.622 107.684 263.589 107.684 262.292V242.909ZM118.546 239.468H121.897V263.355L121.609 267.138H118.546V239.468ZM135.065 257.23V257.608C135.065 259.025 134.897 260.34 134.561 261.553C134.224 262.754 133.732 263.799 133.084 264.688C132.435 265.576 131.642 266.267 130.706 266.759C129.769 267.252 128.694 267.498 127.481 267.498C126.244 267.498 125.157 267.288 124.221 266.867C123.296 266.435 122.515 265.817 121.879 265.012C121.242 264.207 120.732 263.235 120.348 262.094C119.975 260.953 119.717 259.668 119.573 258.239V256.581C119.717 255.14 119.975 253.849 120.348 252.708C120.732 251.567 121.242 250.595 121.879 249.79C122.515 248.973 123.296 248.355 124.221 247.934C125.145 247.502 126.22 247.286 127.445 247.286C128.67 247.286 129.757 247.526 130.706 248.007C131.654 248.475 132.447 249.147 133.084 250.024C133.732 250.901 134.224 251.952 134.561 253.177C134.897 254.39 135.065 255.741 135.065 257.23ZM131.715 257.608V257.23C131.715 256.257 131.624 255.344 131.444 254.492C131.264 253.627 130.976 252.87 130.58 252.222C130.183 251.561 129.661 251.045 129.012 250.673C128.364 250.288 127.565 250.096 126.617 250.096C125.776 250.096 125.043 250.24 124.419 250.529C123.806 250.817 123.284 251.207 122.852 251.699C122.419 252.18 122.065 252.732 121.789 253.357C121.525 253.969 121.326 254.606 121.194 255.266V259.608C121.386 260.448 121.699 261.259 122.131 262.04C122.575 262.808 123.164 263.439 123.896 263.931C124.641 264.423 125.56 264.67 126.653 264.67C127.553 264.67 128.322 264.489 128.958 264.129C129.607 263.757 130.129 263.247 130.526 262.598C130.934 261.949 131.234 261.199 131.426 260.346C131.618 259.494 131.715 258.581 131.715 257.608ZM138.398 257.608V257.194C138.398 255.789 138.602 254.486 139.01 253.285C139.419 252.072 140.007 251.021 140.776 250.132C141.544 249.232 142.475 248.535 143.568 248.043C144.661 247.538 145.886 247.286 147.243 247.286C148.612 247.286 149.843 247.538 150.936 248.043C152.04 248.535 152.977 249.232 153.746 250.132C154.526 251.021 155.121 252.072 155.529 253.285C155.938 254.486 156.142 255.789 156.142 257.194V257.608C156.142 259.013 155.938 260.316 155.529 261.517C155.121 262.718 154.526 263.769 153.746 264.67C152.977 265.558 152.046 266.255 150.954 266.759C149.873 267.252 148.648 267.498 147.279 267.498C145.91 267.498 144.679 267.252 143.586 266.759C142.493 266.255 141.556 265.558 140.776 264.67C140.007 263.769 139.419 262.718 139.01 261.517C138.602 260.316 138.398 259.013 138.398 257.608ZM141.73 257.194V257.608C141.73 258.581 141.844 259.5 142.073 260.364C142.301 261.217 142.643 261.974 143.099 262.634C143.568 263.295 144.15 263.817 144.847 264.201C145.543 264.574 146.354 264.76 147.279 264.76C148.191 264.76 148.99 264.574 149.675 264.201C150.371 263.817 150.948 263.295 151.404 262.634C151.86 261.974 152.203 261.217 152.431 260.364C152.671 259.5 152.791 258.581 152.791 257.608V257.194C152.791 256.233 152.671 255.326 152.431 254.474C152.203 253.609 151.854 252.846 151.386 252.186C150.93 251.513 150.353 250.985 149.657 250.601C148.972 250.216 148.167 250.024 147.243 250.024C146.33 250.024 145.525 250.216 144.829 250.601C144.144 250.985 143.568 251.513 143.099 252.186C142.643 252.846 142.301 253.609 142.073 254.474C141.844 255.326 141.73 256.233 141.73 257.194ZM168.481 247.646V250.204H157.943V247.646H168.481ZM161.51 242.909H164.843V262.31C164.843 262.97 164.945 263.469 165.149 263.805C165.353 264.141 165.617 264.363 165.941 264.471C166.266 264.58 166.614 264.634 166.986 264.634C167.262 264.634 167.551 264.61 167.851 264.562C168.163 264.502 168.397 264.453 168.553 264.417L168.571 267.138C168.307 267.222 167.959 267.3 167.527 267.372C167.106 267.456 166.596 267.498 165.995 267.498C165.179 267.498 164.428 267.336 163.744 267.011C163.059 266.687 162.513 266.147 162.104 265.39C161.708 264.622 161.51 263.589 161.51 262.292V242.909Z" fill="#606060"/>
<path d="M43.6794 356.222H47.048L55.6408 377.604L64.2155 356.222H67.6022L56.9378 382.45H54.3077L43.6794 356.222ZM42.5805 356.222H45.5529L46.0392 372.218V382.45H42.5805V356.222ZM65.7107 356.222H68.683V382.45H65.2243V372.218L65.7107 356.222ZM85.7784 379.118V369.084C85.7784 368.315 85.6223 367.649 85.3101 367.084C85.0098 366.508 84.5535 366.063 83.941 365.751C83.3285 365.439 82.5719 365.283 81.6712 365.283C80.8306 365.283 80.092 365.427 79.4555 365.715C78.831 366.003 78.3386 366.382 77.9783 366.85C77.63 367.318 77.4559 367.823 77.4559 368.363H74.1233C74.1233 367.667 74.3034 366.976 74.6637 366.292C75.024 365.607 75.5404 364.988 76.2129 364.436C76.8975 363.872 77.7141 363.427 78.6629 363.103C79.6236 362.767 80.6925 362.599 81.8694 362.599C83.2865 362.599 84.5355 362.839 85.6163 363.319C86.7092 363.8 87.5618 364.526 88.1743 365.499C88.7988 366.46 89.1111 367.667 89.1111 369.12V378.199C89.1111 378.847 89.1651 379.538 89.2732 380.27C89.3933 381.003 89.5674 381.634 89.7956 382.162V382.45H86.3189C86.1507 382.066 86.0186 381.555 85.9226 380.919C85.8265 380.27 85.7784 379.67 85.7784 379.118ZM86.3549 370.633L86.3909 372.975H83.0223C82.0735 372.975 81.2269 373.053 80.4823 373.209C79.7377 373.353 79.1132 373.575 78.6088 373.875C78.1044 374.176 77.7201 374.554 77.4559 375.01C77.1917 375.455 77.0596 375.977 77.0596 376.578C77.0596 377.19 77.1977 377.749 77.4739 378.253C77.7501 378.757 78.1645 379.16 78.7169 379.46C79.2813 379.748 79.9719 379.892 80.7885 379.892C81.8093 379.892 82.71 379.676 83.4906 379.244C84.2713 378.811 84.8897 378.283 85.3461 377.658C85.8145 377.034 86.0667 376.427 86.1027 375.839L87.5258 377.442C87.4418 377.947 87.2136 378.505 86.8413 379.118C86.469 379.73 85.9706 380.319 85.3461 380.883C84.7336 381.435 84.0011 381.898 83.1484 382.27C82.3077 382.63 81.359 382.81 80.3021 382.81C78.9811 382.81 77.8222 382.552 76.8254 382.036C75.8406 381.519 75.072 380.829 74.5196 379.964C73.9792 379.088 73.709 378.109 73.709 377.028C73.709 375.983 73.9131 375.064 74.3214 374.272C74.7298 373.467 75.3182 372.801 76.0868 372.272C76.8554 371.732 77.7802 371.323 78.861 371.047C79.9419 370.771 81.1488 370.633 82.4819 370.633H86.3549ZM97.6858 366.706V389.944H94.3352V362.959H97.3976L97.6858 366.706ZM110.818 372.542V372.921C110.818 374.338 110.65 375.653 110.314 376.866C109.977 378.067 109.485 379.112 108.837 380C108.2 380.889 107.413 381.58 106.477 382.072C105.54 382.564 104.465 382.81 103.252 382.81C102.015 382.81 100.922 382.606 99.9736 382.198C99.0248 381.79 98.2202 381.195 97.5597 380.415C96.8992 379.634 96.3708 378.697 95.9745 377.604C95.5902 376.512 95.3259 375.281 95.1818 373.911V371.894C95.3259 370.453 95.5962 369.162 95.9925 368.021C96.3888 366.88 96.9112 365.907 97.5597 365.103C98.2202 364.286 99.0188 363.667 99.9556 363.247C100.892 362.815 101.973 362.599 103.198 362.599C104.423 362.599 105.51 362.839 106.459 363.319C107.407 363.788 108.206 364.46 108.855 365.337C109.503 366.213 109.989 367.264 110.314 368.489C110.65 369.702 110.818 371.053 110.818 372.542ZM107.467 372.921V372.542C107.467 371.57 107.365 370.657 107.161 369.804C106.957 368.94 106.639 368.183 106.206 367.534C105.786 366.874 105.246 366.358 104.585 365.985C103.925 365.601 103.138 365.409 102.225 365.409C101.385 365.409 100.652 365.553 100.028 365.841C99.4152 366.129 98.8927 366.52 98.4604 367.012C98.0281 367.492 97.6738 368.045 97.3976 368.669C97.1334 369.282 96.9352 369.918 96.8031 370.579V375.245C97.0433 376.085 97.3796 376.878 97.8119 377.622C98.2442 378.355 98.8207 378.949 99.5413 379.406C100.262 379.85 101.169 380.072 102.261 380.072C103.162 380.072 103.937 379.886 104.585 379.514C105.246 379.13 105.786 378.607 106.206 377.947C106.639 377.286 106.957 376.53 107.161 375.677C107.365 374.812 107.467 373.893 107.467 372.921ZM126.562 379.118V369.084C126.562 368.315 126.406 367.649 126.094 367.084C125.794 366.508 125.338 366.063 124.725 365.751C124.113 365.439 123.356 365.283 122.455 365.283C121.615 365.283 120.876 365.427 120.24 365.715C119.615 366.003 119.123 366.382 118.762 366.85C118.414 367.318 118.24 367.823 118.24 368.363H114.907C114.907 367.667 115.087 366.976 115.448 366.292C115.808 365.607 116.324 364.988 116.997 364.436C117.681 363.872 118.498 363.427 119.447 363.103C120.408 362.767 121.476 362.599 122.653 362.599C124.071 362.599 125.319 362.839 126.4 363.319C127.493 363.8 128.346 364.526 128.958 365.499C129.583 366.46 129.895 367.667 129.895 369.12V378.199C129.895 378.847 129.949 379.538 130.057 380.27C130.177 381.003 130.351 381.634 130.58 382.162V382.45H127.103C126.935 382.066 126.803 381.555 126.707 380.919C126.611 380.27 126.562 379.67 126.562 379.118ZM127.139 370.633L127.175 372.975H123.806C122.858 372.975 122.011 373.053 121.266 373.209C120.522 373.353 119.897 373.575 119.393 373.875C118.888 374.176 118.504 374.554 118.24 375.01C117.976 375.455 117.844 375.977 117.844 376.578C117.844 377.19 117.982 377.749 118.258 378.253C118.534 378.757 118.948 379.16 119.501 379.46C120.065 379.748 120.756 379.892 121.573 379.892C122.593 379.892 123.494 379.676 124.275 379.244C125.055 378.811 125.674 378.283 126.13 377.658C126.598 377.034 126.851 376.427 126.887 375.839L128.31 377.442C128.226 377.947 127.998 378.505 127.625 379.118C127.253 379.73 126.755 380.319 126.13 380.883C125.518 381.435 124.785 381.898 123.932 382.27C123.092 382.63 122.143 382.81 121.086 382.81C119.765 382.81 118.606 382.552 117.609 382.036C116.625 381.519 115.856 380.829 115.304 379.964C114.763 379.088 114.493 378.109 114.493 377.028C114.493 375.983 114.697 375.064 115.105 374.272C115.514 373.467 116.102 372.801 116.871 372.272C117.639 371.732 118.564 371.323 119.645 371.047C120.726 370.771 121.933 370.633 123.266 370.633H127.139ZM138.758 354.78V382.45H135.407V354.78H138.758ZM149.585 380.433L155.007 362.959H158.574L150.755 385.459C150.575 385.939 150.335 386.455 150.035 387.008C149.747 387.572 149.374 388.107 148.918 388.611C148.462 389.115 147.909 389.524 147.261 389.836C146.624 390.16 145.862 390.322 144.973 390.322C144.709 390.322 144.372 390.286 143.964 390.214C143.556 390.142 143.268 390.082 143.099 390.034L143.081 387.332C143.178 387.344 143.328 387.356 143.532 387.368C143.748 387.392 143.898 387.404 143.982 387.404C144.739 387.404 145.381 387.302 145.91 387.098C146.438 386.906 146.882 386.575 147.243 386.107C147.615 385.651 147.933 385.02 148.197 384.216L149.585 380.433ZM145.603 362.959L150.665 378.091L151.53 381.604L149.134 382.828L141.965 362.959H145.603ZM169.742 362.959V365.517H159.204V362.959H169.742ZM162.771 358.221H166.104V377.622C166.104 378.283 166.206 378.781 166.41 379.118C166.614 379.454 166.878 379.676 167.202 379.784C167.527 379.892 167.875 379.946 168.247 379.946C168.523 379.946 168.812 379.922 169.112 379.874C169.424 379.814 169.658 379.766 169.814 379.73L169.832 382.45C169.568 382.534 169.22 382.612 168.788 382.684C168.367 382.768 167.857 382.81 167.256 382.81C166.44 382.81 165.689 382.648 165.005 382.324C164.32 382 163.774 381.459 163.365 380.703C162.969 379.934 162.771 378.901 162.771 377.604V358.221ZM177.272 362.959V382.45H173.922V362.959H177.272ZM173.669 357.789C173.669 357.248 173.832 356.792 174.156 356.42C174.492 356.047 174.984 355.861 175.633 355.861C176.27 355.861 176.756 356.047 177.092 356.42C177.44 356.792 177.615 357.248 177.615 357.789C177.615 358.305 177.44 358.75 177.092 359.122C176.756 359.482 176.27 359.662 175.633 359.662C174.984 359.662 174.492 359.482 174.156 359.122C173.832 358.75 173.669 358.305 173.669 357.789ZM190.423 380.072C191.215 380.072 191.948 379.91 192.62 379.586C193.293 379.262 193.845 378.817 194.278 378.253C194.71 377.676 194.956 377.022 195.016 376.289H198.187C198.127 377.442 197.736 378.517 197.016 379.514C196.307 380.499 195.377 381.297 194.224 381.91C193.071 382.51 191.804 382.81 190.423 382.81C188.957 382.81 187.678 382.552 186.586 382.036C185.505 381.519 184.604 380.811 183.883 379.91C183.175 379.009 182.641 377.977 182.28 376.812C181.932 375.635 181.758 374.392 181.758 373.083V372.326C181.758 371.017 181.932 369.78 182.28 368.615C182.641 367.438 183.175 366.4 183.883 365.499C184.604 364.598 185.505 363.89 186.586 363.373C187.678 362.857 188.957 362.599 190.423 362.599C191.948 362.599 193.281 362.911 194.422 363.535C195.563 364.148 196.457 364.988 197.106 366.057C197.766 367.114 198.127 368.315 198.187 369.66H195.016C194.956 368.856 194.728 368.129 194.332 367.48C193.947 366.832 193.419 366.316 192.746 365.931C192.086 365.535 191.311 365.337 190.423 365.337C189.402 365.337 188.543 365.541 187.847 365.949C187.162 366.346 186.616 366.886 186.207 367.571C185.811 368.243 185.523 368.994 185.343 369.822C185.175 370.639 185.09 371.474 185.09 372.326V373.083C185.09 373.936 185.175 374.776 185.343 375.605C185.511 376.433 185.793 377.184 186.189 377.857C186.598 378.529 187.144 379.07 187.829 379.478C188.525 379.874 189.39 380.072 190.423 380.072ZM213.283 377.28C213.283 376.8 213.174 376.355 212.958 375.947C212.754 375.527 212.328 375.148 211.679 374.812C211.043 374.464 210.082 374.164 208.797 373.911C207.716 373.683 206.737 373.413 205.861 373.101C204.996 372.789 204.257 372.41 203.645 371.966C203.045 371.522 202.582 370.999 202.258 370.399C201.934 369.798 201.772 369.096 201.772 368.291C201.772 367.522 201.94 366.796 202.276 366.111C202.624 365.427 203.111 364.82 203.735 364.292C204.372 363.764 205.134 363.349 206.023 363.049C206.912 362.749 207.902 362.599 208.995 362.599C210.556 362.599 211.889 362.875 212.994 363.427C214.099 363.98 214.946 364.718 215.534 365.643C216.123 366.556 216.417 367.571 216.417 368.687H213.084C213.084 368.147 212.922 367.625 212.598 367.12C212.286 366.604 211.823 366.177 211.211 365.841C210.61 365.505 209.872 365.337 208.995 365.337C208.07 365.337 207.32 365.481 206.743 365.769C206.179 366.045 205.765 366.4 205.5 366.832C205.248 367.264 205.122 367.721 205.122 368.201C205.122 368.561 205.182 368.886 205.302 369.174C205.434 369.45 205.663 369.708 205.987 369.948C206.311 370.177 206.767 370.393 207.356 370.597C207.944 370.801 208.695 371.005 209.608 371.209C211.205 371.57 212.52 372.002 213.553 372.506C214.586 373.011 215.354 373.629 215.859 374.362C216.363 375.094 216.615 375.983 216.615 377.028C216.615 377.881 216.435 378.661 216.075 379.37C215.726 380.078 215.216 380.691 214.544 381.207C213.883 381.712 213.09 382.108 212.166 382.396C211.253 382.672 210.226 382.81 209.085 382.81C207.368 382.81 205.915 382.504 204.726 381.892C203.537 381.279 202.636 380.487 202.024 379.514C201.411 378.541 201.105 377.514 201.105 376.433H204.456C204.504 377.346 204.768 378.073 205.248 378.613C205.729 379.142 206.317 379.52 207.014 379.748C207.71 379.964 208.401 380.072 209.085 380.072C209.998 380.072 210.761 379.952 211.373 379.712C211.998 379.472 212.472 379.142 212.796 378.721C213.12 378.301 213.283 377.821 213.283 377.28Z" fill="#606060"/>
<path d="M58.487 494.935V497.763H45.3727V494.935H58.487ZM46.0573 471.534V497.763H42.5805V471.534H46.0573ZM70.0521 498.123C68.695 498.123 67.4641 497.895 66.3592 497.439C65.2663 496.97 64.3236 496.316 63.531 495.475C62.7504 494.634 62.1499 493.638 61.7296 492.485C61.3092 491.332 61.0991 490.071 61.0991 488.702V487.945C61.0991 486.36 61.3332 484.949 61.8016 483.712C62.27 482.463 62.9065 481.406 63.7111 480.541C64.5157 479.677 65.4285 479.022 66.4493 478.578C67.4701 478.133 68.5269 477.911 69.6198 477.911C71.0129 477.911 72.2138 478.151 73.2226 478.632C74.2434 479.112 75.078 479.785 75.7266 480.649C76.3751 481.502 76.8554 482.511 77.1677 483.676C77.4799 484.829 77.6361 486.09 77.6361 487.459V488.954H63.0806V486.234H74.3034V485.982C74.2554 485.117 74.0753 484.276 73.763 483.46C73.4628 482.643 72.9824 481.97 72.3219 481.442C71.6614 480.914 70.7607 480.649 69.6198 480.649C68.8632 480.649 68.1666 480.811 67.5301 481.136C66.8936 481.448 66.3472 481.916 65.8908 482.541C65.4345 483.165 65.0802 483.928 64.828 484.829C64.5758 485.729 64.4497 486.768 64.4497 487.945V488.702C64.4497 489.626 64.5758 490.497 64.828 491.314C65.0922 492.118 65.4705 492.827 65.9629 493.439C66.4673 494.052 67.0738 494.532 67.7823 494.881C68.5029 495.229 69.3195 495.403 70.2322 495.403C71.4092 495.403 72.4059 495.163 73.2226 494.682C74.0392 494.202 74.7538 493.559 75.3663 492.755L77.3839 494.358C76.9635 494.995 76.4291 495.601 75.7806 496.178C75.1321 496.754 74.3335 497.222 73.3847 497.583C72.448 497.943 71.3371 498.123 70.0521 498.123ZM93.0201 494.43V484.396C93.0201 483.628 92.864 482.961 92.5518 482.397C92.2515 481.82 91.7952 481.376 91.1827 481.064C90.5702 480.751 89.8136 480.595 88.9129 480.595C88.0722 480.595 87.3337 480.739 86.6972 481.028C86.0727 481.316 85.5803 481.694 85.22 482.163C84.8717 482.631 84.6976 483.135 84.6976 483.676H81.365C81.365 482.979 81.5451 482.289 81.9054 481.604C82.2657 480.92 82.7821 480.301 83.4546 479.749C84.1392 479.184 84.9558 478.74 85.9045 478.416C86.8653 478.079 87.9341 477.911 89.1111 477.911C90.5282 477.911 91.7772 478.151 92.858 478.632C93.9509 479.112 94.8035 479.839 95.416 480.811C96.0405 481.772 96.3528 482.979 96.3528 484.432V493.511C96.3528 494.16 96.4068 494.85 96.5149 495.583C96.635 496.316 96.8091 496.946 97.0373 497.475V497.763H93.5606C93.3924 497.378 93.2603 496.868 93.1642 496.232C93.0682 495.583 93.0201 494.983 93.0201 494.43ZM93.5966 485.946L93.6326 488.287H90.264C89.3152 488.287 88.4686 488.365 87.724 488.522C86.9794 488.666 86.3549 488.888 85.8505 489.188C85.3461 489.488 84.9618 489.867 84.6976 490.323C84.4334 490.767 84.3013 491.29 84.3013 491.89C84.3013 492.503 84.4394 493.061 84.7156 493.565C84.9918 494.07 85.4062 494.472 85.9586 494.772C86.523 495.061 87.2136 495.205 88.0302 495.205C89.051 495.205 89.9517 494.989 90.7323 494.556C91.513 494.124 92.1314 493.596 92.5878 492.971C93.0562 492.347 93.3084 491.74 93.3444 491.152L94.7675 492.755C94.6834 493.259 94.4553 493.818 94.083 494.43C93.7107 495.043 93.2123 495.631 92.5878 496.196C91.9753 496.748 91.2427 497.21 90.3901 497.583C89.5494 497.943 88.6007 498.123 87.5438 498.123C86.2228 498.123 85.0639 497.865 84.0671 497.348C83.0823 496.832 82.3137 496.142 81.7613 495.277C81.2209 494.4 80.9507 493.421 80.9507 492.341C80.9507 491.296 81.1548 490.377 81.5631 489.584C81.9715 488.78 82.5599 488.113 83.3285 487.585C84.0971 487.044 85.0219 486.636 86.1027 486.36C87.1836 486.084 88.3905 485.946 89.7235 485.946H93.5966ZM113.881 493.98V470.093H117.231V497.763H114.169L113.881 493.98ZM100.766 488.233V487.855C100.766 486.366 100.946 485.015 101.307 483.802C101.679 482.577 102.201 481.526 102.874 480.649C103.558 479.773 104.369 479.1 105.306 478.632C106.255 478.151 107.311 477.911 108.476 477.911C109.701 477.911 110.77 478.127 111.683 478.56C112.608 478.98 113.388 479.599 114.025 480.415C114.673 481.22 115.184 482.193 115.556 483.333C115.928 484.474 116.186 485.765 116.33 487.206V488.864C116.198 490.293 115.94 491.578 115.556 492.719C115.184 493.86 114.673 494.832 114.025 495.637C113.388 496.442 112.608 497.06 111.683 497.493C110.758 497.913 109.677 498.123 108.44 498.123C107.299 498.123 106.255 497.877 105.306 497.384C104.369 496.892 103.558 496.202 102.874 495.313C102.201 494.424 101.679 493.379 101.307 492.178C100.946 490.965 100.766 489.65 100.766 488.233ZM104.117 487.855V488.233C104.117 489.206 104.213 490.119 104.405 490.971C104.609 491.824 104.921 492.575 105.342 493.223C105.762 493.872 106.297 494.382 106.945 494.754C107.594 495.115 108.368 495.295 109.269 495.295C110.374 495.295 111.28 495.061 111.989 494.592C112.71 494.124 113.286 493.505 113.718 492.737C114.151 491.968 114.487 491.134 114.727 490.233V485.891C114.583 485.231 114.373 484.594 114.097 483.982C113.832 483.357 113.484 482.805 113.052 482.325C112.632 481.832 112.109 481.442 111.485 481.154C110.872 480.866 110.146 480.721 109.305 480.721C108.392 480.721 107.606 480.914 106.945 481.298C106.297 481.67 105.762 482.187 105.342 482.847C104.921 483.496 104.609 484.252 104.405 485.117C104.213 485.97 104.117 486.882 104.117 487.855ZM133.768 492.593C133.768 492.112 133.66 491.668 133.444 491.26C133.24 490.839 132.813 490.461 132.165 490.125C131.528 489.777 130.568 489.476 129.283 489.224C128.202 488.996 127.223 488.726 126.346 488.413C125.482 488.101 124.743 487.723 124.131 487.279C123.53 486.834 123.068 486.312 122.743 485.711C122.419 485.111 122.257 484.408 122.257 483.604C122.257 482.835 122.425 482.108 122.761 481.424C123.11 480.739 123.596 480.133 124.221 479.605C124.857 479.076 125.62 478.662 126.508 478.362C127.397 478.061 128.388 477.911 129.481 477.911C131.042 477.911 132.375 478.187 133.48 478.74C134.585 479.292 135.431 480.031 136.02 480.956C136.608 481.868 136.903 482.883 136.903 484H133.57C133.57 483.46 133.408 482.937 133.084 482.433C132.771 481.916 132.309 481.49 131.697 481.154C131.096 480.817 130.357 480.649 129.481 480.649C128.556 480.649 127.805 480.793 127.229 481.082C126.665 481.358 126.25 481.712 125.986 482.145C125.734 482.577 125.608 483.033 125.608 483.514C125.608 483.874 125.668 484.198 125.788 484.486C125.92 484.763 126.148 485.021 126.472 485.261C126.797 485.489 127.253 485.705 127.841 485.909C128.43 486.114 129.181 486.318 130.093 486.522C131.691 486.882 133.006 487.315 134.038 487.819C135.071 488.323 135.84 488.942 136.344 489.674C136.849 490.407 137.101 491.296 137.101 492.341C137.101 493.193 136.921 493.974 136.56 494.682C136.212 495.391 135.702 496.003 135.029 496.52C134.369 497.024 133.576 497.421 132.651 497.709C131.739 497.985 130.712 498.123 129.571 498.123C127.853 498.123 126.4 497.817 125.211 497.204C124.022 496.592 123.122 495.799 122.509 494.826C121.897 493.854 121.591 492.827 121.591 491.746H124.941C124.989 492.659 125.253 493.385 125.734 493.926C126.214 494.454 126.803 494.832 127.499 495.061C128.196 495.277 128.886 495.385 129.571 495.385C130.484 495.385 131.246 495.265 131.859 495.025C132.483 494.784 132.957 494.454 133.282 494.034C133.606 493.614 133.768 493.133 133.768 492.593Z" fill="#606060"/>
<path d="M42.7307 8.61094C45.023 8.61094 46.8813 6.75265 46.8813 4.46035C46.8813 2.16804 45.023 0.309753 42.7307 0.309753C40.4384 0.309753 38.5801 2.16804 38.5801 4.46035C38.5801 6.75265 40.4384 8.61094 42.7307 8.61094Z" fill="#2C2C2C"/>
<path d="M42.7307 25.2104C45.023 25.2104 46.8813 23.3521 46.8813 21.0598C46.8813 18.7675 45.023 16.9092 42.7307 16.9092C40.4384 16.9092 38.5801 18.7675 38.5801 21.0598C38.5801 23.3521 40.4384 25.2104 42.7307 25.2104Z" fill="#2C2C2C"/>
<path d="M42.7307 41.818C45.023 41.818 46.8813 39.9597 46.8813 37.6674C46.8813 35.3751 45.023 33.5168 42.7307 33.5168C40.4384 33.5168 38.5801 35.3751 38.5801 37.6674C38.5801 39.9597 40.4384 41.818 42.7307 41.818Z" fill="#2C2C2C"/>
<path d="M80.5559 8.61094C82.8482 8.61094 84.7065 6.75265 84.7065 4.46035C84.7065 2.16804 82.8482 0.309753 80.5559 0.309753C78.2636 0.309753 76.4053 2.16804 76.4053 4.46035C76.4053 6.75265 78.2636 8.61094 80.5559 8.61094Z" fill="#2C2C2C"/>
<path d="M80.5559 25.2104C82.8482 25.2104 84.7065 23.3521 84.7065 21.0598C84.7065 18.7675 82.8482 16.9092 80.5559 16.9092C78.2636 16.9092 76.4053 18.7675 76.4053 21.0598C76.4053 23.3521 78.2636 25.2104 80.5559 25.2104Z" fill="#2C2C2C"/>
<path d="M80.5559 41.818C82.8482 41.818 84.7065 39.9597 84.7065 37.6674C84.7065 35.3751 82.8482 33.5168 80.5559 33.5168C78.2636 33.5168 76.4053 35.3751 76.4053 37.6674C76.4053 39.9597 78.2636 41.818 80.5559 41.818Z" fill="#2C2C2C"/>
<path d="M61.6359 8.61094C63.9283 8.61094 65.7865 6.75265 65.7865 4.46035C65.7865 2.16804 63.9283 0.309753 61.6359 0.309753C59.3436 0.309753 57.4854 2.16804 57.4854 4.46035C57.4854 6.75265 59.3436 8.61094 61.6359 8.61094Z" fill="#2C2C2C"/>
<path d="M61.6359 25.2104C63.9283 25.2104 65.7865 23.3521 65.7865 21.0598C65.7865 18.7675 63.9283 16.9092 61.6359 16.9092C59.3436 16.9092 57.4854 18.7675 57.4854 21.0598C57.4854 23.3521 59.3436 25.2104 61.6359 25.2104Z" fill="#2C2C2C"/>
<path d="M61.6359 41.818C63.9283 41.818 65.7865 39.9597 65.7865 37.6674C65.7865 35.3751 63.9283 33.5168 61.6359 33.5168C59.3436 33.5168 57.4854 35.3751 57.4854 37.6674C57.4854 39.9597 59.3436 41.818 61.6359 41.818Z" fill="#2C2C2C"/>
</svg>
