<svg width="168" height="19" viewBox="0 0 168 19" fill="none" xmlns="http://www.w3.org/2000/svg">
<path d="M10.7285 9.04688V9.58594C10.7285 10.4505 10.6113 11.2266 10.377 11.9141C10.1426 12.6016 9.81185 13.1875 9.38477 13.6719C8.95768 14.151 8.44727 14.5182 7.85352 14.7734C7.26497 15.0286 6.61133 15.1562 5.89258 15.1562C5.17904 15.1562 4.52539 15.0286 3.93164 14.7734C3.3431 14.5182 2.83268 14.151 2.40039 13.6719C1.9681 13.1875 1.63216 12.6016 1.39258 11.9141C1.1582 11.2266 1.04102 10.4505 1.04102 9.58594V9.04688C1.04102 8.17708 1.1582 7.40104 1.39258 6.71875C1.62695 6.03125 1.95768 5.44531 2.38477 4.96094C2.81706 4.47656 3.32747 4.10677 3.91602 3.85156C4.50977 3.59635 5.16341 3.46875 5.87695 3.46875C6.5957 3.46875 7.24935 3.59635 7.83789 3.85156C8.43164 4.10677 8.94206 4.47656 9.36914 4.96094C9.80143 5.44531 10.1348 6.03125 10.3691 6.71875C10.6087 7.40104 10.7285 8.17708 10.7285 9.04688ZM8.36133 9.58594V9.03125C8.36133 8.42708 8.30664 7.89583 8.19727 7.4375C8.08789 6.97917 7.92643 6.59375 7.71289 6.28125C7.49935 5.96875 7.23893 5.73438 6.93164 5.57812C6.62435 5.41667 6.27279 5.33594 5.87695 5.33594C5.48112 5.33594 5.12956 5.41667 4.82227 5.57812C4.52018 5.73438 4.26237 5.96875 4.04883 6.28125C3.84049 6.59375 3.68164 6.97917 3.57227 7.4375C3.46289 7.89583 3.4082 8.42708 3.4082 9.03125V9.58594C3.4082 10.1849 3.46289 10.7161 3.57227 11.1797C3.68164 11.638 3.8431 12.026 4.05664 12.3438C4.27018 12.6562 4.5306 12.8932 4.83789 13.0547C5.14518 13.2161 5.49674 13.2969 5.89258 13.2969C6.28841 13.2969 6.63997 13.2161 6.94727 13.0547C7.25456 12.8932 7.51237 12.6562 7.7207 12.3438C7.92904 12.026 8.08789 11.638 8.19727 11.1797C8.30664 10.7161 8.36133 10.1849 8.36133 9.58594ZM14.5254 8.17188V18.25H12.2754V6.54688H14.3613L14.5254 8.17188ZM19.877 10.6797V10.8438C19.877 11.4583 19.804 12.0286 19.6582 12.5547C19.5176 13.0807 19.3092 13.5391 19.0332 13.9297C18.7572 14.3151 18.4134 14.6172 18.002 14.8359C17.5957 15.0495 17.127 15.1562 16.5957 15.1562C16.0801 15.1562 15.6322 15.0521 15.252 14.8438C14.8717 14.6354 14.5514 14.3438 14.291 13.9688C14.0358 13.5885 13.8301 13.1484 13.6738 12.6484C13.5176 12.1484 13.3978 11.612 13.3145 11.0391V10.6094C13.3978 9.99479 13.5176 9.43229 13.6738 8.92188C13.8301 8.40625 14.0358 7.96094 14.291 7.58594C14.5514 7.20573 14.8691 6.91146 15.2441 6.70312C15.6243 6.49479 16.0697 6.39062 16.5801 6.39062C17.1165 6.39062 17.5879 6.49219 17.9941 6.69531C18.4056 6.89844 18.7493 7.1901 19.0254 7.57031C19.3066 7.95052 19.5176 8.40365 19.6582 8.92969C19.804 9.45573 19.877 10.0391 19.877 10.6797ZM17.6191 10.8438V10.6797C17.6191 10.3203 17.5879 9.98958 17.5254 9.6875C17.4681 9.38021 17.3743 9.11198 17.2441 8.88281C17.1191 8.65365 16.9525 8.47656 16.7441 8.35156C16.541 8.22135 16.2936 8.15625 16.002 8.15625C15.6947 8.15625 15.4316 8.20573 15.2129 8.30469C14.9993 8.40365 14.8249 8.54688 14.6895 8.73438C14.554 8.92188 14.4525 9.14583 14.3848 9.40625C14.3171 9.66667 14.2754 9.96094 14.2598 10.2891V11.375C14.2858 11.7604 14.3587 12.1068 14.4785 12.4141C14.5983 12.7161 14.7832 12.9557 15.0332 13.1328C15.2832 13.3099 15.6113 13.3984 16.0176 13.3984C16.3145 13.3984 16.5645 13.3333 16.7676 13.2031C16.9707 13.0677 17.1348 12.8828 17.2598 12.6484C17.39 12.4141 17.4811 12.1432 17.5332 11.8359C17.5905 11.5286 17.6191 11.1979 17.6191 10.8438ZM24.7676 13.3984C25.0436 13.3984 25.2884 13.3464 25.502 13.2422C25.7155 13.1328 25.8822 12.9818 26.002 12.7891C26.127 12.5911 26.1921 12.3594 26.1973 12.0938H28.3145C28.3092 12.6875 28.1504 13.2161 27.8379 13.6797C27.5254 14.138 27.1061 14.5 26.5801 14.7656C26.054 15.026 25.4655 15.1562 24.8145 15.1562C24.1582 15.1562 23.5853 15.0469 23.0957 14.8281C22.6113 14.6094 22.2077 14.3073 21.8848 13.9219C21.5618 13.5312 21.3197 13.0781 21.1582 12.5625C20.9967 12.0417 20.916 11.4844 20.916 10.8906V10.6641C20.916 10.0651 20.9967 9.50781 21.1582 8.99219C21.3197 8.47135 21.5618 8.01823 21.8848 7.63281C22.2077 7.24219 22.6113 6.9375 23.0957 6.71875C23.5801 6.5 24.1478 6.39062 24.7988 6.39062C25.4915 6.39062 26.0983 6.52344 26.6191 6.78906C27.1452 7.05469 27.5566 7.4349 27.8535 7.92969C28.1556 8.41927 28.3092 9 28.3145 9.67188H26.1973C26.1921 9.39062 26.1322 9.13542 26.0176 8.90625C25.9082 8.67708 25.7467 8.49479 25.5332 8.35938C25.3249 8.21875 25.0671 8.14844 24.7598 8.14844C24.4316 8.14844 24.1634 8.21875 23.9551 8.35938C23.7467 8.49479 23.5853 8.68229 23.4707 8.92188C23.3561 9.15625 23.2754 9.42448 23.2285 9.72656C23.1868 10.0234 23.166 10.3359 23.166 10.6641V10.8906C23.166 11.2188 23.1868 11.5339 23.2285 11.8359C23.2702 12.138 23.3483 12.4062 23.4629 12.6406C23.5827 12.875 23.7467 13.0599 23.9551 13.1953C24.1634 13.3307 24.4342 13.3984 24.7676 13.3984ZM23.9238 14.9688H25.6191L25.5332 15.4297C25.8301 15.4818 26.1009 15.6068 26.3457 15.8047C26.5905 16.0026 26.7129 16.3281 26.7129 16.7812C26.7129 17.0573 26.653 17.3073 26.5332 17.5312C26.4186 17.7552 26.2467 17.9479 26.0176 18.1094C25.7884 18.276 25.502 18.401 25.1582 18.4844C24.8145 18.5729 24.4186 18.6172 23.9707 18.6172L23.916 17.3672C24.0827 17.3672 24.2337 17.3438 24.3691 17.2969C24.5046 17.25 24.6113 17.1771 24.6895 17.0781C24.7676 16.9844 24.8066 16.8594 24.8066 16.7031C24.8066 16.5573 24.7676 16.4427 24.6895 16.3594C24.6113 16.276 24.4889 16.2135 24.3223 16.1719C24.1608 16.1302 23.9473 16.1016 23.6816 16.0859L23.9238 14.9688ZM34.1816 13.0938V9.32812C34.1816 9.05729 34.1374 8.82552 34.0488 8.63281C33.9603 8.4349 33.8223 8.28125 33.6348 8.17188C33.4525 8.0625 33.2155 8.00781 32.9238 8.00781C32.6738 8.00781 32.4577 8.05208 32.2754 8.14062C32.0931 8.22396 31.9525 8.34635 31.8535 8.50781C31.7546 8.66406 31.7051 8.84896 31.7051 9.0625H29.4551C29.4551 8.70312 29.5384 8.36198 29.7051 8.03906C29.8717 7.71615 30.1139 7.43229 30.4316 7.1875C30.7493 6.9375 31.127 6.74219 31.5645 6.60156C32.0072 6.46094 32.502 6.39062 33.0488 6.39062C33.7051 6.39062 34.2884 6.5 34.7988 6.71875C35.3092 6.9375 35.7103 7.26562 36.002 7.70312C36.2988 8.14062 36.4473 8.6875 36.4473 9.34375V12.9609C36.4473 13.4245 36.4759 13.8047 36.5332 14.1016C36.5905 14.3932 36.6738 14.6484 36.7832 14.8672V15H34.5098C34.4004 14.7708 34.3171 14.4844 34.2598 14.1406C34.2077 13.7917 34.1816 13.4427 34.1816 13.0938ZM34.4785 9.85156L34.4941 11.125H33.2363C32.9395 11.125 32.6816 11.1589 32.4629 11.2266C32.2441 11.2943 32.0645 11.3906 31.9238 11.5156C31.7832 11.6354 31.679 11.776 31.6113 11.9375C31.5488 12.099 31.5176 12.276 31.5176 12.4688C31.5176 12.6615 31.5618 12.8359 31.6504 12.9922C31.7389 13.1432 31.8665 13.263 32.0332 13.3516C32.1999 13.4349 32.3952 13.4766 32.6191 13.4766C32.9577 13.4766 33.252 13.4089 33.502 13.2734C33.752 13.138 33.9447 12.9714 34.0801 12.7734C34.2207 12.5755 34.2936 12.388 34.2988 12.2109L34.8926 13.1641C34.8092 13.3776 34.6947 13.599 34.5488 13.8281C34.4082 14.0573 34.2285 14.2734 34.0098 14.4766C33.791 14.6745 33.528 14.8385 33.2207 14.9688C32.9134 15.0938 32.5488 15.1562 32.127 15.1562C31.5905 15.1562 31.1035 15.0495 30.666 14.8359C30.2337 14.6172 29.89 14.3177 29.6348 13.9375C29.3848 13.5521 29.2598 13.1146 29.2598 12.625C29.2598 12.1823 29.3431 11.7891 29.5098 11.4453C29.6764 11.1016 29.9212 10.8125 30.2441 10.5781C30.5723 10.3385 30.9811 10.1589 31.4707 10.0391C31.9603 9.91406 32.528 9.85156 33.1738 9.85156H34.4785ZM34.6816 3.03906L35.9785 3.125C35.9785 3.50521 35.903 3.85156 35.752 4.16406C35.6009 4.47135 35.3926 4.71875 35.127 4.90625C34.8613 5.08854 34.5566 5.17969 34.2129 5.17969C33.9629 5.17969 33.7467 5.14583 33.5645 5.07812C33.3874 5.01042 33.2233 4.93229 33.0723 4.84375C32.9212 4.75 32.765 4.66927 32.6035 4.60156C32.4473 4.53385 32.2676 4.5 32.0645 4.5C31.8822 4.5 31.7259 4.5651 31.5957 4.69531C31.4707 4.82552 31.4082 5.01302 31.4082 5.25781L30.1035 5.1875C30.1035 4.8125 30.179 4.46875 30.3301 4.15625C30.4811 3.84375 30.6895 3.59375 30.9551 3.40625C31.2207 3.21354 31.5228 3.11719 31.8613 3.11719C32.0749 3.11719 32.2702 3.15365 32.4473 3.22656C32.6243 3.29427 32.7936 3.3724 32.9551 3.46094C33.1217 3.54948 33.291 3.6276 33.4629 3.69531C33.6348 3.76302 33.8171 3.79688 34.0098 3.79688C34.1921 3.79688 34.3483 3.73177 34.4785 3.60156C34.6139 3.46615 34.6816 3.27865 34.6816 3.03906ZM37.8223 10.8594V10.6953C37.8223 10.0755 37.9108 9.50521 38.0879 8.98438C38.265 8.45833 38.5228 8.0026 38.8613 7.61719C39.1999 7.23177 39.6165 6.93229 40.1113 6.71875C40.6061 6.5 41.1738 6.39062 41.8145 6.39062C42.4551 6.39062 43.0254 6.5 43.5254 6.71875C44.0254 6.93229 44.4447 7.23177 44.7832 7.61719C45.127 8.0026 45.3874 8.45833 45.5645 8.98438C45.7415 9.50521 45.8301 10.0755 45.8301 10.6953V10.8594C45.8301 11.474 45.7415 12.0443 45.5645 12.5703C45.3874 13.0911 45.127 13.5469 44.7832 13.9375C44.4447 14.3229 44.028 14.6224 43.5332 14.8359C43.0384 15.0495 42.4707 15.1562 41.8301 15.1562C41.1895 15.1562 40.6191 15.0495 40.1191 14.8359C39.6243 14.6224 39.2051 14.3229 38.8613 13.9375C38.5228 13.5469 38.265 13.0911 38.0879 12.5703C37.9108 12.0443 37.8223 11.474 37.8223 10.8594ZM40.0723 10.6953V10.8594C40.0723 11.2135 40.1035 11.5443 40.166 11.8516C40.2285 12.1589 40.3275 12.4297 40.4629 12.6641C40.6035 12.8932 40.7858 13.0729 41.0098 13.2031C41.2337 13.3333 41.5072 13.3984 41.8301 13.3984C42.1426 13.3984 42.4108 13.3333 42.6348 13.2031C42.8587 13.0729 43.0384 12.8932 43.1738 12.6641C43.3092 12.4297 43.4082 12.1589 43.4707 11.8516C43.5384 11.5443 43.5723 11.2135 43.5723 10.8594V10.6953C43.5723 10.3516 43.5384 10.0286 43.4707 9.72656C43.4082 9.41927 43.3066 9.14844 43.166 8.91406C43.0306 8.67448 42.8509 8.48698 42.627 8.35156C42.403 8.21615 42.1322 8.14844 41.8145 8.14844C41.4967 8.14844 41.2259 8.21615 41.002 8.35156C40.7832 8.48698 40.6035 8.67448 40.4629 8.91406C40.3275 9.14844 40.2285 9.41927 40.166 9.72656C40.1035 10.0286 40.0723 10.3516 40.0723 10.6953ZM57.2598 12.0234C57.2598 11.8203 57.2285 11.638 57.166 11.4766C57.1087 11.3099 56.9993 11.1589 56.8379 11.0234C56.6764 10.8828 56.4499 10.7448 56.1582 10.6094C55.8665 10.474 55.4889 10.3333 55.0254 10.1875C54.5098 10.0208 54.0202 9.83333 53.5566 9.625C53.0983 9.41667 52.6921 9.17448 52.3379 8.89844C51.9889 8.61719 51.7129 8.29167 51.5098 7.92188C51.3118 7.55208 51.2129 7.1224 51.2129 6.63281C51.2129 6.15885 51.3171 5.72917 51.5254 5.34375C51.7337 4.95312 52.0254 4.61979 52.4004 4.34375C52.7754 4.0625 53.2181 3.84635 53.7285 3.69531C54.2441 3.54427 54.8092 3.46875 55.4238 3.46875C56.2624 3.46875 56.9941 3.61979 57.6191 3.92188C58.2441 4.22396 58.7285 4.63802 59.0723 5.16406C59.4212 5.6901 59.5957 6.29167 59.5957 6.96875H57.2676C57.2676 6.63542 57.1973 6.34375 57.0566 6.09375C56.9212 5.83854 56.7129 5.63802 56.4316 5.49219C56.1556 5.34635 55.8066 5.27344 55.3848 5.27344C54.9785 5.27344 54.64 5.33594 54.3691 5.46094C54.0983 5.58073 53.8952 5.74479 53.7598 5.95312C53.6243 6.15625 53.5566 6.38542 53.5566 6.64062C53.5566 6.83333 53.6035 7.00781 53.6973 7.16406C53.7962 7.32031 53.9421 7.46615 54.1348 7.60156C54.3275 7.73698 54.5645 7.86458 54.8457 7.98438C55.127 8.10417 55.4525 8.22135 55.8223 8.33594C56.4421 8.52344 56.9863 8.73438 57.4551 8.96875C57.929 9.20312 58.3249 9.46615 58.6426 9.75781C58.9603 10.0495 59.1999 10.3802 59.3613 10.75C59.5228 11.1198 59.6035 11.5391 59.6035 12.0078C59.6035 12.5026 59.5072 12.9453 59.3145 13.3359C59.1217 13.7266 58.8431 14.0573 58.4785 14.3281C58.1139 14.599 57.679 14.8047 57.1738 14.9453C56.6686 15.0859 56.1035 15.1562 55.4785 15.1562C54.916 15.1562 54.3613 15.0833 53.8145 14.9375C53.2676 14.7865 52.7702 14.5599 52.3223 14.2578C51.8796 13.9557 51.5254 13.5703 51.2598 13.1016C50.9941 12.6328 50.8613 12.0781 50.8613 11.4375H53.2129C53.2129 11.7917 53.2676 12.0911 53.377 12.3359C53.4863 12.5807 53.64 12.7786 53.8379 12.9297C54.041 13.0807 54.2806 13.1901 54.5566 13.2578C54.8379 13.3255 55.1452 13.3594 55.4785 13.3594C55.8848 13.3594 56.2181 13.3021 56.4785 13.1875C56.7441 13.0729 56.9395 12.9141 57.0645 12.7109C57.1947 12.5078 57.2598 12.2786 57.2598 12.0234ZM64.9473 15.1562C64.291 15.1562 63.7025 15.0521 63.1816 14.8438C62.6608 14.6302 62.2181 14.3359 61.8535 13.9609C61.4941 13.5859 61.2181 13.151 61.0254 12.6562C60.8327 12.1562 60.7363 11.625 60.7363 11.0625V10.75C60.7363 10.1094 60.8275 9.52344 61.0098 8.99219C61.1921 8.46094 61.4525 8 61.791 7.60938C62.1348 7.21875 62.5514 6.91927 63.041 6.71094C63.5306 6.4974 64.0827 6.39062 64.6973 6.39062C65.2962 6.39062 65.8275 6.48958 66.291 6.6875C66.7546 6.88542 67.1426 7.16667 67.4551 7.53125C67.7728 7.89583 68.0124 8.33333 68.1738 8.84375C68.3353 9.34896 68.416 9.91146 68.416 10.5312V11.4688H61.6973V9.96875H66.2051V9.79688C66.2051 9.48438 66.1478 9.20573 66.0332 8.96094C65.9238 8.71094 65.7572 8.51302 65.5332 8.36719C65.3092 8.22135 65.0228 8.14844 64.6738 8.14844C64.377 8.14844 64.1217 8.21354 63.9082 8.34375C63.6947 8.47396 63.5202 8.65625 63.3848 8.89062C63.2546 9.125 63.1556 9.40104 63.0879 9.71875C63.0254 10.0312 62.9941 10.375 62.9941 10.75V11.0625C62.9941 11.401 63.041 11.7135 63.1348 12C63.2337 12.2865 63.3717 12.5339 63.5488 12.7422C63.7311 12.9505 63.9499 13.112 64.2051 13.2266C64.4655 13.3411 64.7598 13.3984 65.0879 13.3984C65.4941 13.3984 65.8717 13.3203 66.2207 13.1641C66.5749 13.0026 66.8796 12.7604 67.1348 12.4375L68.2285 13.625C68.0514 13.8802 67.8092 14.125 67.502 14.3594C67.1999 14.5938 66.8353 14.7865 66.4082 14.9375C65.9811 15.0833 65.4941 15.1562 64.9473 15.1562ZM72.0723 3V15H69.8145V3H72.0723ZM77.8223 15.1562C77.166 15.1562 76.5775 15.0521 76.0566 14.8438C75.5358 14.6302 75.0931 14.3359 74.7285 13.9609C74.3691 13.5859 74.0931 13.151 73.9004 12.6562C73.7077 12.1562 73.6113 11.625 73.6113 11.0625V10.75C73.6113 10.1094 73.7025 9.52344 73.8848 8.99219C74.0671 8.46094 74.3275 8 74.666 7.60938C75.0098 7.21875 75.4264 6.91927 75.916 6.71094C76.4056 6.4974 76.9577 6.39062 77.5723 6.39062C78.1712 6.39062 78.7025 6.48958 79.166 6.6875C79.6296 6.88542 80.0176 7.16667 80.3301 7.53125C80.6478 7.89583 80.8874 8.33333 81.0488 8.84375C81.2103 9.34896 81.291 9.91146 81.291 10.5312V11.4688H74.5723V9.96875H79.0801V9.79688C79.0801 9.48438 79.0228 9.20573 78.9082 8.96094C78.7988 8.71094 78.6322 8.51302 78.4082 8.36719C78.1842 8.22135 77.8978 8.14844 77.5488 8.14844C77.252 8.14844 76.9967 8.21354 76.7832 8.34375C76.5697 8.47396 76.3952 8.65625 76.2598 8.89062C76.1296 9.125 76.0306 9.40104 75.9629 9.71875C75.9004 10.0312 75.8691 10.375 75.8691 10.75V11.0625C75.8691 11.401 75.916 11.7135 76.0098 12C76.1087 12.2865 76.2467 12.5339 76.4238 12.7422C76.6061 12.9505 76.8249 13.112 77.0801 13.2266C77.3405 13.3411 77.6348 13.3984 77.9629 13.3984C78.3691 13.3984 78.7467 13.3203 79.0957 13.1641C79.4499 13.0026 79.7546 12.7604 80.0098 12.4375L81.1035 13.625C80.9264 13.8802 80.6842 14.125 80.377 14.3594C80.0749 14.5938 79.7103 14.7865 79.2832 14.9375C78.8561 15.0833 78.3691 15.1562 77.8223 15.1562ZM86.0645 13.3984C86.3405 13.3984 86.5853 13.3464 86.7988 13.2422C87.0124 13.1328 87.179 12.9818 87.2988 12.7891C87.4238 12.5911 87.4889 12.3594 87.4941 12.0938H89.6113C89.6061 12.6875 89.4473 13.2161 89.1348 13.6797C88.8223 14.138 88.403 14.5 87.877 14.7656C87.3509 15.026 86.7624 15.1562 86.1113 15.1562C85.4551 15.1562 84.8822 15.0469 84.3926 14.8281C83.9082 14.6094 83.5046 14.3073 83.1816 13.9219C82.8587 13.5312 82.6165 13.0781 82.4551 12.5625C82.2936 12.0417 82.2129 11.4844 82.2129 10.8906V10.6641C82.2129 10.0651 82.2936 9.50781 82.4551 8.99219C82.6165 8.47135 82.8587 8.01823 83.1816 7.63281C83.5046 7.24219 83.9082 6.9375 84.3926 6.71875C84.877 6.5 85.4447 6.39062 86.0957 6.39062C86.7884 6.39062 87.3952 6.52344 87.916 6.78906C88.4421 7.05469 88.8535 7.4349 89.1504 7.92969C89.4525 8.41927 89.6061 9 89.6113 9.67188H87.4941C87.4889 9.39062 87.429 9.13542 87.3145 8.90625C87.2051 8.67708 87.0436 8.49479 86.8301 8.35938C86.6217 8.21875 86.3639 8.14844 86.0566 8.14844C85.7285 8.14844 85.4603 8.21875 85.252 8.35938C85.0436 8.49479 84.8822 8.68229 84.7676 8.92188C84.653 9.15625 84.5723 9.42448 84.5254 9.72656C84.4837 10.0234 84.4629 10.3359 84.4629 10.6641V10.8906C84.4629 11.2188 84.4837 11.5339 84.5254 11.8359C84.5671 12.138 84.6452 12.4062 84.7598 12.6406C84.8796 12.875 85.0436 13.0599 85.252 13.1953C85.4603 13.3307 85.7311 13.3984 86.0645 13.3984ZM93.291 6.54688V15H91.0332V6.54688H93.291ZM90.8926 4.34375C90.8926 4.01562 91.0072 3.74479 91.2363 3.53125C91.4655 3.31771 91.7728 3.21094 92.1582 3.21094C92.5384 3.21094 92.8431 3.31771 93.0723 3.53125C93.3066 3.74479 93.4238 4.01562 93.4238 4.34375C93.4238 4.67188 93.3066 4.94271 93.0723 5.15625C92.8431 5.36979 92.5384 5.47656 92.1582 5.47656C91.7728 5.47656 91.4655 5.36979 91.2363 5.15625C91.0072 4.94271 90.8926 4.67188 90.8926 4.34375ZM94.791 10.8594V10.6953C94.791 10.0755 94.8796 9.50521 95.0566 8.98438C95.2337 8.45833 95.4915 8.0026 95.8301 7.61719C96.1686 7.23177 96.5853 6.93229 97.0801 6.71875C97.5749 6.5 98.1426 6.39062 98.7832 6.39062C99.4238 6.39062 99.9941 6.5 100.494 6.71875C100.994 6.93229 101.413 7.23177 101.752 7.61719C102.096 8.0026 102.356 8.45833 102.533 8.98438C102.71 9.50521 102.799 10.0755 102.799 10.6953V10.8594C102.799 11.474 102.71 12.0443 102.533 12.5703C102.356 13.0911 102.096 13.5469 101.752 13.9375C101.413 14.3229 100.997 14.6224 100.502 14.8359C100.007 15.0495 99.4395 15.1562 98.7988 15.1562C98.1582 15.1562 97.5879 15.0495 97.0879 14.8359C96.5931 14.6224 96.1738 14.3229 95.8301 13.9375C95.4915 13.5469 95.2337 13.0911 95.0566 12.5703C94.8796 12.0443 94.791 11.474 94.791 10.8594ZM97.041 10.6953V10.8594C97.041 11.2135 97.0723 11.5443 97.1348 11.8516C97.1973 12.1589 97.2962 12.4297 97.4316 12.6641C97.5723 12.8932 97.7546 13.0729 97.9785 13.2031C98.2025 13.3333 98.4759 13.3984 98.7988 13.3984C99.1113 13.3984 99.3796 13.3333 99.6035 13.2031C99.8275 13.0729 100.007 12.8932 100.143 12.6641C100.278 12.4297 100.377 12.1589 100.439 11.8516C100.507 11.5443 100.541 11.2135 100.541 10.8594V10.6953C100.541 10.3516 100.507 10.0286 100.439 9.72656C100.377 9.41927 100.275 9.14844 100.135 8.91406C99.9993 8.67448 99.8197 8.48698 99.5957 8.35156C99.3717 8.21615 99.1009 8.14844 98.7832 8.14844C98.4655 8.14844 98.1947 8.21615 97.9707 8.35156C97.752 8.48698 97.5723 8.67448 97.4316 8.91406C97.2962 9.14844 97.1973 9.41927 97.1348 9.72656C97.0723 10.0286 97.041 10.3516 97.041 10.6953ZM106.385 8.35156V15H104.135V6.54688H106.244L106.385 8.35156ZM106.057 10.4766H105.447C105.447 9.85156 105.528 9.28906 105.689 8.78906C105.851 8.28385 106.077 7.85417 106.369 7.5C106.661 7.14062 107.007 6.86719 107.408 6.67969C107.814 6.48698 108.268 6.39062 108.768 6.39062C109.163 6.39062 109.525 6.44792 109.854 6.5625C110.182 6.67708 110.463 6.85938 110.697 7.10938C110.937 7.35938 111.119 7.6901 111.244 8.10156C111.374 8.51302 111.439 9.01562 111.439 9.60938V15H109.174V9.60156C109.174 9.22656 109.122 8.9349 109.018 8.72656C108.913 8.51823 108.76 8.3724 108.557 8.28906C108.359 8.20052 108.114 8.15625 107.822 8.15625C107.52 8.15625 107.257 8.21615 107.033 8.33594C106.814 8.45573 106.632 8.6224 106.486 8.83594C106.346 9.04427 106.239 9.28906 106.166 9.57031C106.093 9.85156 106.057 10.1536 106.057 10.4766ZM117.713 13.0938V9.32812C117.713 9.05729 117.669 8.82552 117.58 8.63281C117.492 8.4349 117.354 8.28125 117.166 8.17188C116.984 8.0625 116.747 8.00781 116.455 8.00781C116.205 8.00781 115.989 8.05208 115.807 8.14062C115.624 8.22396 115.484 8.34635 115.385 8.50781C115.286 8.66406 115.236 8.84896 115.236 9.0625H112.986C112.986 8.70312 113.07 8.36198 113.236 8.03906C113.403 7.71615 113.645 7.43229 113.963 7.1875C114.281 6.9375 114.658 6.74219 115.096 6.60156C115.538 6.46094 116.033 6.39062 116.58 6.39062C117.236 6.39062 117.82 6.5 118.33 6.71875C118.84 6.9375 119.242 7.26562 119.533 7.70312C119.83 8.14062 119.979 8.6875 119.979 9.34375V12.9609C119.979 13.4245 120.007 13.8047 120.064 14.1016C120.122 14.3932 120.205 14.6484 120.314 14.8672V15H118.041C117.932 14.7708 117.848 14.4844 117.791 14.1406C117.739 13.7917 117.713 13.4427 117.713 13.0938ZM118.01 9.85156L118.025 11.125H116.768C116.471 11.125 116.213 11.1589 115.994 11.2266C115.775 11.2943 115.596 11.3906 115.455 11.5156C115.314 11.6354 115.21 11.776 115.143 11.9375C115.08 12.099 115.049 12.276 115.049 12.4688C115.049 12.6615 115.093 12.8359 115.182 12.9922C115.27 13.1432 115.398 13.263 115.564 13.3516C115.731 13.4349 115.926 13.4766 116.15 13.4766C116.489 13.4766 116.783 13.4089 117.033 13.2734C117.283 13.138 117.476 12.9714 117.611 12.7734C117.752 12.5755 117.825 12.388 117.83 12.2109L118.424 13.1641C118.34 13.3776 118.226 13.599 118.08 13.8281C117.939 14.0573 117.76 14.2734 117.541 14.4766C117.322 14.6745 117.059 14.8385 116.752 14.9688C116.445 15.0938 116.08 15.1562 115.658 15.1562C115.122 15.1562 114.635 15.0495 114.197 14.8359C113.765 14.6172 113.421 14.3177 113.166 13.9375C112.916 13.5521 112.791 13.1146 112.791 12.625C112.791 12.1823 112.874 11.7891 113.041 11.4453C113.208 11.1016 113.452 10.8125 113.775 10.5781C114.104 10.3385 114.512 10.1589 115.002 10.0391C115.492 9.91406 116.059 9.85156 116.705 9.85156H118.01ZM126.705 13.1562V3H128.971V15H126.932L126.705 13.1562ZM121.361 10.875V10.7109C121.361 10.0651 121.434 9.47917 121.58 8.95312C121.726 8.42188 121.939 7.96615 122.221 7.58594C122.502 7.20573 122.848 6.91146 123.26 6.70312C123.671 6.49479 124.14 6.39062 124.666 6.39062C125.161 6.39062 125.593 6.49479 125.963 6.70312C126.338 6.91146 126.656 7.20833 126.916 7.59375C127.182 7.97396 127.395 8.42448 127.557 8.94531C127.718 9.46094 127.835 10.026 127.908 10.6406V11C127.835 11.5885 127.718 12.1354 127.557 12.6406C127.395 13.1458 127.182 13.5885 126.916 13.9688C126.656 14.3438 126.338 14.6354 125.963 14.8438C125.588 15.0521 125.15 15.1562 124.65 15.1562C124.124 15.1562 123.656 15.0495 123.244 14.8359C122.838 14.6224 122.494 14.3229 122.213 13.9375C121.937 13.5521 121.726 13.099 121.58 12.5781C121.434 12.0573 121.361 11.4896 121.361 10.875ZM123.611 10.7109V10.875C123.611 11.224 123.637 11.5495 123.689 11.8516C123.747 12.1536 123.838 12.4219 123.963 12.6562C124.093 12.8854 124.26 13.0651 124.463 13.1953C124.671 13.3203 124.924 13.3828 125.221 13.3828C125.606 13.3828 125.924 13.2969 126.174 13.125C126.424 12.9479 126.614 12.7057 126.744 12.3984C126.88 12.0911 126.958 11.737 126.979 11.3359V10.3125C126.963 9.98438 126.916 9.6901 126.838 9.42969C126.765 9.16406 126.656 8.9375 126.51 8.75C126.369 8.5625 126.192 8.41667 125.979 8.3125C125.77 8.20833 125.523 8.15625 125.236 8.15625C124.945 8.15625 124.695 8.22396 124.486 8.35938C124.278 8.48958 124.109 8.66927 123.979 8.89844C123.854 9.1276 123.76 9.39844 123.697 9.71094C123.64 10.0182 123.611 10.3516 123.611 10.7109ZM135.291 13.0938V9.32812C135.291 9.05729 135.247 8.82552 135.158 8.63281C135.07 8.4349 134.932 8.28125 134.744 8.17188C134.562 8.0625 134.325 8.00781 134.033 8.00781C133.783 8.00781 133.567 8.05208 133.385 8.14062C133.202 8.22396 133.062 8.34635 132.963 8.50781C132.864 8.66406 132.814 8.84896 132.814 9.0625H130.564C130.564 8.70312 130.648 8.36198 130.814 8.03906C130.981 7.71615 131.223 7.43229 131.541 7.1875C131.859 6.9375 132.236 6.74219 132.674 6.60156C133.117 6.46094 133.611 6.39062 134.158 6.39062C134.814 6.39062 135.398 6.5 135.908 6.71875C136.419 6.9375 136.82 7.26562 137.111 7.70312C137.408 8.14062 137.557 8.6875 137.557 9.34375V12.9609C137.557 13.4245 137.585 13.8047 137.643 14.1016C137.7 14.3932 137.783 14.6484 137.893 14.8672V15H135.619C135.51 14.7708 135.426 14.4844 135.369 14.1406C135.317 13.7917 135.291 13.4427 135.291 13.0938ZM135.588 9.85156L135.604 11.125H134.346C134.049 11.125 133.791 11.1589 133.572 11.2266C133.354 11.2943 133.174 11.3906 133.033 11.5156C132.893 11.6354 132.788 11.776 132.721 11.9375C132.658 12.099 132.627 12.276 132.627 12.4688C132.627 12.6615 132.671 12.8359 132.76 12.9922C132.848 13.1432 132.976 13.263 133.143 13.3516C133.309 13.4349 133.505 13.4766 133.729 13.4766C134.067 13.4766 134.361 13.4089 134.611 13.2734C134.861 13.138 135.054 12.9714 135.189 12.7734C135.33 12.5755 135.403 12.388 135.408 12.2109L136.002 13.1641C135.919 13.3776 135.804 13.599 135.658 13.8281C135.518 14.0573 135.338 14.2734 135.119 14.4766C134.9 14.6745 134.637 14.8385 134.33 14.9688C134.023 15.0938 133.658 15.1562 133.236 15.1562C132.7 15.1562 132.213 15.0495 131.775 14.8359C131.343 14.6172 130.999 14.3177 130.744 13.9375C130.494 13.5521 130.369 13.1146 130.369 12.625C130.369 12.1823 130.452 11.7891 130.619 11.4453C130.786 11.1016 131.031 10.8125 131.354 10.5781C131.682 10.3385 132.09 10.1589 132.58 10.0391C133.07 9.91406 133.637 9.85156 134.283 9.85156H135.588Z" fill="#0567FF"/>
<path d="M154.369 6.5L160.369 12.5L166.369 6.5" stroke="#2C2C2C" stroke-width="2" stroke-linecap="round" stroke-linejoin="round"/>
</svg>
