<svg width="178" height="250" viewBox="0 0 178 250" fill="none" xmlns="http://www.w3.org/2000/svg">
<g filter="url(#filter0_f_2042_9836)">
<ellipse cx="88.9237" cy="216.857" rx="69.3436" ry="13.1145" fill="#2C2C2C" fill-opacity="0.35"/>
</g>
<path d="M171.155 87.3311C171.155 119.822 150.181 150.463 128.498 173.349C117.732 184.714 106.953 193.998 98.8611 200.441C94.8183 203.66 91.4537 206.165 89.107 207.859C88.4951 208.301 87.9526 208.688 87.4854 209.018C87.0182 208.688 86.4757 208.301 85.8638 207.859C83.5171 206.165 80.1525 203.66 76.1097 200.441C68.0182 193.998 57.2392 184.714 46.4725 173.349C24.7903 150.463 3.81555 119.822 3.81555 87.3311C3.81555 65.1405 12.6307 43.8587 28.3219 28.1676C44.013 12.4764 65.2948 3.66126 87.4854 3.66126C109.676 3.66126 130.958 12.4764 146.649 28.1676C162.34 43.8587 171.155 65.1405 171.155 87.3311Z" fill="#F45197"/>
<path d="M171.155 87.3311C171.155 119.822 150.181 150.463 128.498 173.349C117.732 184.714 106.953 193.998 98.8611 200.441C94.8183 203.66 91.4537 206.165 89.107 207.859C88.4951 208.301 87.9526 208.688 87.4854 209.018C87.0182 208.688 86.4757 208.301 85.8638 207.859C83.5171 206.165 80.1525 203.66 76.1097 200.441C68.0182 193.998 57.2392 184.714 46.4725 173.349C24.7903 150.463 3.81555 119.822 3.81555 87.3311C3.81555 65.1405 12.6307 43.8587 28.3219 28.1676C44.013 12.4764 65.2948 3.66126 87.4854 3.66126C109.676 3.66126 130.958 12.4764 146.649 28.1676C162.34 43.8587 171.155 65.1405 171.155 87.3311Z" stroke="#F45197" stroke-width="7.27564" stroke-linecap="round" stroke-linejoin="round"/>
<path d="M171.155 87.3311C171.155 119.822 150.181 150.463 128.498 173.349C117.732 184.714 106.953 193.998 98.8611 200.441C94.8183 203.66 91.4537 206.165 89.107 207.859C88.4951 208.301 87.9526 208.688 87.4854 209.018C87.0182 208.688 86.4757 208.301 85.8638 207.859C83.5171 206.165 80.1525 203.66 76.1097 200.441C68.0182 193.998 57.2392 184.714 46.4725 173.349C24.7903 150.463 3.81555 119.822 3.81555 87.3311C3.81555 65.1405 12.6307 43.8587 28.3219 28.1676C44.013 12.4764 65.2948 3.66126 87.4854 3.66126C109.676 3.66126 130.958 12.4764 146.649 28.1676C162.34 43.8587 171.155 65.1405 171.155 87.3311Z" stroke="#2C2C2C" stroke-opacity="0.5" stroke-width="7.27564" stroke-linecap="round" stroke-linejoin="round"/>
<circle cx="87.485" cy="87.3347" r="38.2104" fill="#FDFBF9" stroke="#959595" stroke-width="1.18597"/>
<defs>
<filter id="filter0_f_2042_9836" x="0.178375" y="184.34" width="177.491" height="65.03" filterUnits="userSpaceOnUse" color-interpolation-filters="sRGB">
<feFlood flood-opacity="0" result="BackgroundImageFix"/>
<feBlend mode="normal" in="SourceGraphic" in2="BackgroundImageFix" result="shape"/>
<feGaussianBlur stdDeviation="9.70085" result="effect1_foregroundBlur_2042_9836"/>
</filter>
</defs>
</svg>
