<svg width="209" height="250" viewBox="0 0 209 250" fill="none" xmlns="http://www.w3.org/2000/svg">
<g filter="url(#filter0_f_2042_9673)">
<ellipse cx="88.7674" cy="216.857" rx="69.3436" ry="13.1145" fill="#2C2C2C" fill-opacity="0.35"/>
</g>
<path d="M170.999 87.3311C170.999 119.822 150.024 150.463 128.342 173.349C117.575 184.714 106.796 193.998 98.7049 200.441C94.662 203.66 91.2975 206.165 88.9507 207.859C88.3389 208.301 87.7963 208.688 87.3291 209.018C86.862 208.688 86.3194 208.301 85.7076 207.859C83.3608 206.165 79.9963 203.66 75.9534 200.441C67.862 193.998 57.0829 184.714 46.3162 173.349C24.634 150.463 3.6593 119.822 3.6593 87.3311C3.6593 65.1405 12.4745 43.8587 28.1656 28.1676C43.8568 12.4764 65.1385 3.66126 87.3291 3.66126C109.52 3.66126 130.802 12.4764 146.493 28.1676C162.184 43.8587 170.999 65.1405 170.999 87.3311Z" fill="#F45197"/>
<path d="M170.999 87.3311C170.999 119.822 150.024 150.463 128.342 173.349C117.575 184.714 106.796 193.998 98.7049 200.441C94.662 203.66 91.2975 206.165 88.9507 207.859C88.3389 208.301 87.7963 208.688 87.3291 209.018C86.862 208.688 86.3194 208.301 85.7076 207.859C83.3608 206.165 79.9963 203.66 75.9534 200.441C67.862 193.998 57.0829 184.714 46.3162 173.349C24.634 150.463 3.6593 119.822 3.6593 87.3311C3.6593 65.1405 12.4745 43.8587 28.1656 28.1676C43.8568 12.4764 65.1385 3.66126 87.3291 3.66126C109.52 3.66126 130.802 12.4764 146.493 28.1676C162.184 43.8587 170.999 65.1405 170.999 87.3311Z" stroke="#F45197" stroke-width="7.27564" stroke-linecap="round" stroke-linejoin="round"/>
<path d="M170.999 87.3311C170.999 119.822 150.024 150.463 128.342 173.349C117.575 184.714 106.796 193.998 98.7049 200.441C94.662 203.66 91.2975 206.165 88.9507 207.859C88.3389 208.301 87.7963 208.688 87.3291 209.018C86.862 208.688 86.3194 208.301 85.7076 207.859C83.3608 206.165 79.9963 203.66 75.9534 200.441C67.862 193.998 57.0829 184.714 46.3162 173.349C24.634 150.463 3.6593 119.822 3.6593 87.3311C3.6593 65.1405 12.4745 43.8587 28.1656 28.1676C43.8568 12.4764 65.1385 3.66126 87.3291 3.66126C109.52 3.66126 130.802 12.4764 146.493 28.1676C162.184 43.8587 170.999 65.1405 170.999 87.3311Z" stroke="#2C2C2C" stroke-opacity="0.5" stroke-width="7.27564" stroke-linecap="round" stroke-linejoin="round"/>
<circle cx="87.3288" cy="87.3347" r="38.2104" fill="#FDFBF9" stroke="#959595" stroke-width="1.18597"/>
<rect x="138.259" y="2.44865" width="67.906" height="67.906" rx="33.953" fill="#3E9A00"/>
<path fill-rule="evenodd" clip-rule="evenodd" d="M172.209 16.0547L198.543 44.7825L190.337 52.3042L172.209 32.5277L154.08 52.3042L145.875 44.7825L172.209 16.0547Z" fill="#FDFBF9"/>
<rect x="138.259" y="2.44865" width="67.906" height="67.906" rx="33.953" stroke="#3E9A00" stroke-width="4.85043"/>
<rect x="138.259" y="2.44865" width="67.906" height="67.906" rx="33.953" stroke="black" stroke-opacity="0.25" stroke-width="4.85043"/>
<defs>
<filter id="filter0_f_2042_9673" x="0.0221252" y="184.34" width="177.491" height="65.03" filterUnits="userSpaceOnUse" color-interpolation-filters="sRGB">
<feFlood flood-opacity="0" result="BackgroundImageFix"/>
<feBlend mode="normal" in="SourceGraphic" in2="BackgroundImageFix" result="shape"/>
<feGaussianBlur stdDeviation="9.70085" result="effect1_foregroundBlur_2042_9673"/>
</filter>
</defs>
</svg>
