<svg width="210" height="250" viewBox="0 0 210 250" fill="none" xmlns="http://www.w3.org/2000/svg">
<g filter="url(#filter0_f_2042_9674)">
<ellipse cx="89.5897" cy="216.857" rx="69.3436" ry="13.1145" fill="#2C2C2C" fill-opacity="0.35"/>
</g>
<path d="M171.821 87.3311C171.821 119.822 150.847 150.463 129.164 173.349C118.398 184.714 107.619 193.998 99.5271 200.441C95.4843 203.66 92.1198 206.165 89.773 207.859C89.1611 208.301 88.6186 208.688 88.1514 209.018C87.6842 208.688 87.1417 208.301 86.5298 207.859C84.1831 206.165 80.8185 203.66 76.7757 200.441C68.6842 193.998 57.9052 184.714 47.1385 173.349C25.4563 150.463 4.48157 119.822 4.48157 87.3311C4.48157 65.1405 13.2968 43.8587 28.9879 28.1676C44.679 12.4764 65.9608 3.66126 88.1514 3.66126C110.342 3.66126 131.624 12.4764 147.315 28.1676C163.006 43.8587 171.821 65.1405 171.821 87.3311Z" fill="#F45197"/>
<path d="M171.821 87.3311C171.821 119.822 150.847 150.463 129.164 173.349C118.398 184.714 107.619 193.998 99.5271 200.441C95.4843 203.66 92.1198 206.165 89.773 207.859C89.1611 208.301 88.6186 208.688 88.1514 209.018C87.6842 208.688 87.1417 208.301 86.5298 207.859C84.1831 206.165 80.8185 203.66 76.7757 200.441C68.6842 193.998 57.9052 184.714 47.1385 173.349C25.4563 150.463 4.48157 119.822 4.48157 87.3311C4.48157 65.1405 13.2968 43.8587 28.9879 28.1676C44.679 12.4764 65.9608 3.66126 88.1514 3.66126C110.342 3.66126 131.624 12.4764 147.315 28.1676C163.006 43.8587 171.821 65.1405 171.821 87.3311Z" stroke="#F45197" stroke-width="7.27564" stroke-linecap="round" stroke-linejoin="round"/>
<path d="M171.821 87.3311C171.821 119.822 150.847 150.463 129.164 173.349C118.398 184.714 107.619 193.998 99.5271 200.441C95.4843 203.66 92.1198 206.165 89.773 207.859C89.1611 208.301 88.6186 208.688 88.1514 209.018C87.6842 208.688 87.1417 208.301 86.5298 207.859C84.1831 206.165 80.8185 203.66 76.7757 200.441C68.6842 193.998 57.9052 184.714 47.1385 173.349C25.4563 150.463 4.48157 119.822 4.48157 87.3311C4.48157 65.1405 13.2968 43.8587 28.9879 28.1676C44.679 12.4764 65.9608 3.66126 88.1514 3.66126C110.342 3.66126 131.624 12.4764 147.315 28.1676C163.006 43.8587 171.821 65.1405 171.821 87.3311Z" stroke="#2C2C2C" stroke-opacity="0.5" stroke-width="7.27564" stroke-linecap="round" stroke-linejoin="round"/>
<circle cx="88.1511" cy="87.3347" r="38.2104" fill="#FDFBF9" stroke="#959595" stroke-width="1.18597"/>
<rect x="139.081" y="2.44865" width="67.906" height="67.906" rx="33.953" fill="#F25900"/>
<path fill-rule="evenodd" clip-rule="evenodd" d="M173.037 56.75L146.703 28.0222L154.909 20.5005L173.037 40.277L191.166 20.5005L199.371 28.0222L173.037 56.75Z" fill="#FDFBF9"/>
<rect x="139.081" y="2.44865" width="67.906" height="67.906" rx="33.953" stroke="#F25900" stroke-width="4.85043"/>
<rect x="139.081" y="2.44865" width="67.906" height="67.906" rx="33.953" stroke="black" stroke-opacity="0.25" stroke-width="4.85043"/>
<defs>
<filter id="filter0_f_2042_9674" x="0.844391" y="184.34" width="177.491" height="65.03" filterUnits="userSpaceOnUse" color-interpolation-filters="sRGB">
<feFlood flood-opacity="0" result="BackgroundImageFix"/>
<feBlend mode="normal" in="SourceGraphic" in2="BackgroundImageFix" result="shape"/>
<feGaussianBlur stdDeviation="9.70085" result="effect1_foregroundBlur_2042_9674"/>
</filter>
</defs>
</svg>
