<svg width="209" height="250" viewBox="0 0 209 250" fill="none" xmlns="http://www.w3.org/2000/svg">
<g filter="url(#filter0_f_2042_9733)">
<ellipse cx="88.7674" cy="217.318" rx="69.3436" ry="13.1145" fill="#2C2C2C" fill-opacity="0.35"/>
</g>
<path d="M170.999 87.792C170.999 120.283 150.024 150.924 128.342 173.81C117.575 185.175 106.796 194.459 98.7049 200.902C94.662 204.121 91.2975 206.625 88.9507 208.32C88.3389 208.762 87.7963 209.149 87.3291 209.479C86.862 209.149 86.3194 208.762 85.7076 208.32C83.3608 206.625 79.9963 204.121 75.9534 200.902C67.862 194.459 57.0829 185.175 46.3162 173.81C24.634 150.924 3.6593 120.283 3.6593 87.792C3.6593 65.6014 12.4745 44.3197 28.1656 28.6285C43.8568 12.9374 65.1385 4.12219 87.3291 4.12219C109.52 4.12219 130.802 12.9374 146.493 28.6285C162.184 44.3197 170.999 65.6014 170.999 87.792Z" fill="#F45197"/>
<path d="M170.999 87.792C170.999 120.283 150.024 150.924 128.342 173.81C117.575 185.175 106.796 194.459 98.7049 200.902C94.662 204.121 91.2975 206.625 88.9507 208.32C88.3389 208.762 87.7963 209.149 87.3291 209.479C86.862 209.149 86.3194 208.762 85.7076 208.32C83.3608 206.625 79.9963 204.121 75.9534 200.902C67.862 194.459 57.0829 185.175 46.3162 173.81C24.634 150.924 3.6593 120.283 3.6593 87.792C3.6593 65.6014 12.4745 44.3197 28.1656 28.6285C43.8568 12.9374 65.1385 4.12219 87.3291 4.12219C109.52 4.12219 130.802 12.9374 146.493 28.6285C162.184 44.3197 170.999 65.6014 170.999 87.792Z" stroke="#F45197" stroke-width="7.27564" stroke-linecap="round" stroke-linejoin="round"/>
<path d="M170.999 87.792C170.999 120.283 150.024 150.924 128.342 173.81C117.575 185.175 106.796 194.459 98.7049 200.902C94.662 204.121 91.2975 206.625 88.9507 208.32C88.3389 208.762 87.7963 209.149 87.3291 209.479C86.862 209.149 86.3194 208.762 85.7076 208.32C83.3608 206.625 79.9963 204.121 75.9534 200.902C67.862 194.459 57.0829 185.175 46.3162 173.81C24.634 150.924 3.6593 120.283 3.6593 87.792C3.6593 65.6014 12.4745 44.3197 28.1656 28.6285C43.8568 12.9374 65.1385 4.12219 87.3291 4.12219C109.52 4.12219 130.802 12.9374 146.493 28.6285C162.184 44.3197 170.999 65.6014 170.999 87.792Z" stroke="#2C2C2C" stroke-opacity="0.5" stroke-width="7.27564" stroke-linecap="round" stroke-linejoin="round"/>
<path d="M93.2544 43.7285L101.959 63.2558C103.074 65.7578 105.438 67.4756 108.162 67.7631L129.424 70.0071C135.008 70.5964 137.257 77.5198 133.086 81.2788L117.204 95.5914C115.169 97.4252 114.266 100.205 114.835 102.884L119.271 123.798C120.436 129.291 114.546 133.57 109.682 130.765L91.1626 120.083C88.7897 118.714 85.8673 118.714 83.4944 120.083L64.9746 130.765C60.1106 133.57 54.2212 129.291 55.3863 123.798L59.8222 102.884C60.3906 100.205 59.4875 97.4252 57.4526 95.5914L41.5709 81.2788C37.3996 77.5198 39.6492 70.5964 45.2333 70.0071L66.4946 67.7631C69.2187 67.4756 71.583 65.7578 72.6983 63.2558L81.4026 43.7285C83.6887 38.5999 90.9683 38.5999 93.2544 43.7285Z" fill="#FDFBF9" stroke="#959595" stroke-width="1.18597"/>
<rect x="138.259" y="2.90959" width="67.906" height="67.906" rx="33.953" fill="#3E9A00"/>
<path fill-rule="evenodd" clip-rule="evenodd" d="M172.209 16.5156L198.543 45.2434L190.337 52.7651L172.209 32.9887L154.08 52.7651L145.875 45.2434L172.209 16.5156Z" fill="#FDFBF9"/>
<rect x="138.259" y="2.90959" width="67.906" height="67.906" rx="33.953" stroke="#3E9A00" stroke-width="4.85043"/>
<rect x="138.259" y="2.90959" width="67.906" height="67.906" rx="33.953" stroke="black" stroke-opacity="0.25" stroke-width="4.85043"/>
<defs>
<filter id="filter0_f_2042_9733" x="0.0221252" y="184.801" width="177.491" height="65.03" filterUnits="userSpaceOnUse" color-interpolation-filters="sRGB">
<feFlood flood-opacity="0" result="BackgroundImageFix"/>
<feBlend mode="normal" in="SourceGraphic" in2="BackgroundImageFix" result="shape"/>
<feGaussianBlur stdDeviation="9.70085" result="effect1_foregroundBlur_2042_9733"/>
</filter>
</defs>
</svg>
