<svg width="209" height="250" viewBox="0 0 209 250" fill="none" xmlns="http://www.w3.org/2000/svg">
<g filter="url(#filter0_f_2042_9672)">
<ellipse cx="88.7459" cy="216.857" rx="69.3436" ry="13.1145" fill="#2C2C2C" fill-opacity="0.35"/>
</g>
<path d="M170.978 87.3311C170.978 119.822 150.003 150.463 128.321 173.349C117.554 184.714 106.775 193.998 98.6834 200.441C94.6405 203.66 91.276 206.165 88.9293 207.859C88.3174 208.301 87.7748 208.688 87.3077 209.018C86.8405 208.688 86.298 208.301 85.6861 207.859C83.3393 206.165 79.9748 203.66 75.9319 200.441C67.8405 193.998 57.0614 184.714 46.2947 173.349C24.6125 150.463 3.63782 119.822 3.63782 87.3311C3.63782 65.1405 12.453 43.8587 28.1441 28.1676C43.8353 12.4764 65.117 3.66126 87.3077 3.66126C109.498 3.66126 130.78 12.4764 146.471 28.1676C162.162 43.8587 170.978 65.1405 170.978 87.3311Z" fill="#F45197"/>
<path d="M170.978 87.3311C170.978 119.822 150.003 150.463 128.321 173.349C117.554 184.714 106.775 193.998 98.6834 200.441C94.6405 203.66 91.276 206.165 88.9293 207.859C88.3174 208.301 87.7748 208.688 87.3077 209.018C86.8405 208.688 86.298 208.301 85.6861 207.859C83.3393 206.165 79.9748 203.66 75.9319 200.441C67.8405 193.998 57.0614 184.714 46.2947 173.349C24.6125 150.463 3.63782 119.822 3.63782 87.3311C3.63782 65.1405 12.453 43.8587 28.1441 28.1676C43.8353 12.4764 65.117 3.66126 87.3077 3.66126C109.498 3.66126 130.78 12.4764 146.471 28.1676C162.162 43.8587 170.978 65.1405 170.978 87.3311Z" stroke="#F45197" stroke-width="7.27564" stroke-linecap="round" stroke-linejoin="round"/>
<path d="M170.978 87.3311C170.978 119.822 150.003 150.463 128.321 173.349C117.554 184.714 106.775 193.998 98.6834 200.441C94.6405 203.66 91.276 206.165 88.9293 207.859C88.3174 208.301 87.7748 208.688 87.3077 209.018C86.8405 208.688 86.298 208.301 85.6861 207.859C83.3393 206.165 79.9748 203.66 75.9319 200.441C67.8405 193.998 57.0614 184.714 46.2947 173.349C24.6125 150.463 3.63782 119.822 3.63782 87.3311C3.63782 65.1405 12.453 43.8587 28.1441 28.1676C43.8353 12.4764 65.117 3.66126 87.3077 3.66126C109.498 3.66126 130.78 12.4764 146.471 28.1676C162.162 43.8587 170.978 65.1405 170.978 87.3311Z" stroke="#2C2C2C" stroke-opacity="0.5" stroke-width="7.27564" stroke-linecap="round" stroke-linejoin="round"/>
<circle cx="87.3073" cy="87.3347" r="38.2104" fill="#FDFBF9" stroke="#959595" stroke-width="1.18597"/>
<rect x="138.238" y="2.44865" width="67.906" height="67.906" rx="33.953" fill="#959595"/>
<path fill-rule="evenodd" clip-rule="evenodd" d="M193.998 31.1031L193.998 42.2344L149.536 42.2344L149.536 31.1031L193.998 31.1031Z" fill="#FDFBF9"/>
<rect x="138.238" y="2.44865" width="67.906" height="67.906" rx="33.953" stroke="#808080" stroke-width="4.85043"/>
<defs>
<filter id="filter0_f_2042_9672" x="0.000640869" y="184.34" width="177.491" height="65.03" filterUnits="userSpaceOnUse" color-interpolation-filters="sRGB">
<feFlood flood-opacity="0" result="BackgroundImageFix"/>
<feBlend mode="normal" in="SourceGraphic" in2="BackgroundImageFix" result="shape"/>
<feGaussianBlur stdDeviation="9.70085" result="effect1_foregroundBlur_2042_9672"/>
</filter>
</defs>
</svg>
