<svg width="209" height="250" viewBox="0 0 209 250" fill="none" xmlns="http://www.w3.org/2000/svg">
<g filter="url(#filter0_f_2054_9400)">
<ellipse cx="88.9764" cy="217.318" rx="69.3436" ry="13.1145" fill="#2C2C2C" fill-opacity="0.35"/>
</g>
<path d="M171.208 87.792C171.208 120.283 150.233 150.924 128.551 173.81C117.784 185.175 107.005 194.459 98.9139 200.902C94.871 204.121 91.5065 206.625 89.1597 208.32C88.5478 208.762 88.0053 209.149 87.5381 209.479C87.071 209.149 86.5284 208.762 85.9165 208.32C83.5698 206.625 80.2052 204.121 76.1624 200.902C68.071 194.459 57.2919 185.175 46.5252 173.81C24.843 150.924 3.86829 120.283 3.86829 87.792C3.86829 65.6014 12.6835 44.3197 28.3746 28.6285C44.0658 12.9374 65.3475 4.12219 87.5381 4.12219C109.729 4.12219 131.01 12.9374 146.702 28.6285C162.393 44.3197 171.208 65.6014 171.208 87.792Z" fill="#F45197"/>
<path d="M171.208 87.792C171.208 120.283 150.233 150.924 128.551 173.81C117.784 185.175 107.005 194.459 98.9139 200.902C94.871 204.121 91.5065 206.625 89.1597 208.32C88.5478 208.762 88.0053 209.149 87.5381 209.479C87.071 209.149 86.5284 208.762 85.9165 208.32C83.5698 206.625 80.2052 204.121 76.1624 200.902C68.071 194.459 57.2919 185.175 46.5252 173.81C24.843 150.924 3.86829 120.283 3.86829 87.792C3.86829 65.6014 12.6835 44.3197 28.3746 28.6285C44.0658 12.9374 65.3475 4.12219 87.5381 4.12219C109.729 4.12219 131.01 12.9374 146.702 28.6285C162.393 44.3197 171.208 65.6014 171.208 87.792Z" stroke="#F45197" stroke-width="7.27564" stroke-linecap="round" stroke-linejoin="round"/>
<path d="M171.208 87.792C171.208 120.283 150.233 150.924 128.551 173.81C117.784 185.175 107.005 194.459 98.9139 200.902C94.871 204.121 91.5065 206.625 89.1597 208.32C88.5478 208.762 88.0053 209.149 87.5381 209.479C87.071 209.149 86.5284 208.762 85.9165 208.32C83.5698 206.625 80.2052 204.121 76.1624 200.902C68.071 194.459 57.2919 185.175 46.5252 173.81C24.843 150.924 3.86829 120.283 3.86829 87.792C3.86829 65.6014 12.6835 44.3197 28.3746 28.6285C44.0658 12.9374 65.3475 4.12219 87.5381 4.12219C109.729 4.12219 131.01 12.9374 146.702 28.6285C162.393 44.3197 171.208 65.6014 171.208 87.792Z" stroke="#2C2C2C" stroke-opacity="0.5" stroke-width="7.27564" stroke-linecap="round" stroke-linejoin="round"/>
<path d="M47.0785 55.3932L47.0787 55.3934L65.3401 71.4615C66.0588 72.0939 67.1591 72.0017 67.7626 71.2587L84.0795 51.1682C84.5107 50.6381 85.0559 50.2121 85.6746 49.922C86.2933 49.6319 86.9695 49.485 87.6528 49.4925C88.3361 49.4999 89.0089 49.6614 89.6211 49.9649C90.2334 50.2684 90.7692 50.7061 91.1889 51.2454L91.1889 51.2455L106.735 71.2179C107.328 71.9796 108.438 72.089 109.168 71.4577L128.031 55.1495C128.031 55.1494 128.031 55.1494 128.032 55.1493C128.732 54.5448 129.601 54.1687 130.521 54.0714C131.442 53.9741 132.37 54.1602 133.181 54.6048C133.993 55.0494 134.65 55.7314 135.063 56.5594C135.477 57.3874 135.627 58.3219 135.495 59.2379L135.494 59.2467L135.493 59.2555L129.549 114.077C129.04 118.769 125.079 122.324 120.36 122.324H55.9872C51.3502 122.324 47.4308 118.889 46.8237 114.291L39.5841 59.4809L39.5842 59.4809L39.5829 59.4726C39.4455 58.5515 39.5945 57.6104 40.0097 56.7768C40.425 55.9432 41.0864 55.2573 41.9044 54.8121C42.7224 54.367 43.6575 54.1839 44.5829 54.2879C45.5084 54.3918 46.3796 54.7777 47.0785 55.3932Z" fill="#FDFBF9" stroke="#959595"/>
<rect x="138.468" y="2.90959" width="67.906" height="67.906" rx="33.953" fill="#3E9A00"/>
<path fill-rule="evenodd" clip-rule="evenodd" d="M172.418 16.5156L198.752 45.2434L190.546 52.7651L172.418 32.9887L154.289 52.7651L146.084 45.2434L172.418 16.5156Z" fill="#FDFBF9"/>
<rect x="138.468" y="2.90959" width="67.906" height="67.906" rx="33.953" stroke="#3E9A00" stroke-width="4.85043"/>
<rect x="138.468" y="2.90959" width="67.906" height="67.906" rx="33.953" stroke="black" stroke-opacity="0.25" stroke-width="4.85043"/>
<defs>
<filter id="filter0_f_2054_9400" x="0.23111" y="184.801" width="177.491" height="65.03" filterUnits="userSpaceOnUse" color-interpolation-filters="sRGB">
<feFlood flood-opacity="0" result="BackgroundImageFix"/>
<feBlend mode="normal" in="SourceGraphic" in2="BackgroundImageFix" result="shape"/>
<feGaussianBlur stdDeviation="9.70085" result="effect1_foregroundBlur_2054_9400"/>
</filter>
</defs>
</svg>
