<svg width="210" height="250" viewBox="0 0 210 250" fill="none" xmlns="http://www.w3.org/2000/svg">
<g filter="url(#filter0_f_2042_9734)">
<ellipse cx="89.5897" cy="217.318" rx="69.3436" ry="13.1145" fill="#2C2C2C" fill-opacity="0.35"/>
</g>
<path d="M171.821 87.792C171.821 120.283 150.847 150.924 129.164 173.81C118.398 185.175 107.619 194.459 99.5271 200.902C95.4843 204.121 92.1198 206.625 89.773 208.32C89.1611 208.762 88.6186 209.149 88.1514 209.479C87.6842 209.149 87.1417 208.762 86.5298 208.32C84.1831 206.625 80.8185 204.121 76.7757 200.902C68.6842 194.459 57.9052 185.175 47.1385 173.81C25.4563 150.924 4.48157 120.283 4.48157 87.792C4.48157 65.6014 13.2968 44.3197 28.9879 28.6285C44.679 12.9374 65.9608 4.12219 88.1514 4.12219C110.342 4.12219 131.624 12.9374 147.315 28.6285C163.006 44.3197 171.821 65.6014 171.821 87.792Z" fill="#F45197"/>
<path d="M171.821 87.792C171.821 120.283 150.847 150.924 129.164 173.81C118.398 185.175 107.619 194.459 99.5271 200.902C95.4843 204.121 92.1198 206.625 89.773 208.32C89.1611 208.762 88.6186 209.149 88.1514 209.479C87.6842 209.149 87.1417 208.762 86.5298 208.32C84.1831 206.625 80.8185 204.121 76.7757 200.902C68.6842 194.459 57.9052 185.175 47.1385 173.81C25.4563 150.924 4.48157 120.283 4.48157 87.792C4.48157 65.6014 13.2968 44.3197 28.9879 28.6285C44.679 12.9374 65.9608 4.12219 88.1514 4.12219C110.342 4.12219 131.624 12.9374 147.315 28.6285C163.006 44.3197 171.821 65.6014 171.821 87.792Z" stroke="#F45197" stroke-width="7.27564" stroke-linecap="round" stroke-linejoin="round"/>
<path d="M171.821 87.792C171.821 120.283 150.847 150.924 129.164 173.81C118.398 185.175 107.619 194.459 99.5271 200.902C95.4843 204.121 92.1198 206.625 89.773 208.32C89.1611 208.762 88.6186 209.149 88.1514 209.479C87.6842 209.149 87.1417 208.762 86.5298 208.32C84.1831 206.625 80.8185 204.121 76.7757 200.902C68.6842 194.459 57.9052 185.175 47.1385 173.81C25.4563 150.924 4.48157 120.283 4.48157 87.792C4.48157 65.6014 13.2968 44.3197 28.9879 28.6285C44.679 12.9374 65.9608 4.12219 88.1514 4.12219C110.342 4.12219 131.624 12.9374 147.315 28.6285C163.006 44.3197 171.821 65.6014 171.821 87.792Z" stroke="#2C2C2C" stroke-opacity="0.5" stroke-width="7.27564" stroke-linecap="round" stroke-linejoin="round"/>
<path d="M94.0766 43.7285L102.781 63.2558C103.896 65.7578 106.26 67.4756 108.985 67.7631L130.246 70.0071C135.83 70.5964 138.08 77.5198 133.908 81.2788L118.027 95.5914C115.992 97.4252 115.089 100.205 115.657 102.884L120.093 123.798C121.258 129.291 115.369 133.57 110.505 130.765L91.9848 120.083C89.612 118.714 86.6895 118.714 84.3167 120.083L65.7969 130.765C60.9328 133.57 55.0435 129.291 56.2086 123.798L60.6445 102.884C61.2128 100.205 60.3098 97.4252 58.2749 95.5914L42.3931 81.2788C38.2219 77.5198 40.4714 70.5964 46.0555 70.0071L67.3169 67.7631C70.041 67.4756 72.4053 65.7578 73.5205 63.2558L82.2248 43.7285C84.5109 38.5999 91.7905 38.5999 94.0766 43.7285Z" fill="#FDFBF9" stroke="#959595" stroke-width="1.18597"/>
<rect x="139.081" y="2.90959" width="67.906" height="67.906" rx="33.953" fill="#F25900"/>
<path fill-rule="evenodd" clip-rule="evenodd" d="M173.037 57.2109L146.703 28.4831L154.909 20.9615L173.037 40.7379L191.166 20.9615L199.371 28.4831L173.037 57.2109Z" fill="#FDFBF9"/>
<rect x="139.081" y="2.90959" width="67.906" height="67.906" rx="33.953" stroke="#F25900" stroke-width="4.85043"/>
<rect x="139.081" y="2.90959" width="67.906" height="67.906" rx="33.953" stroke="black" stroke-opacity="0.25" stroke-width="4.85043"/>
<defs>
<filter id="filter0_f_2042_9734" x="0.844391" y="184.801" width="177.491" height="65.03" filterUnits="userSpaceOnUse" color-interpolation-filters="sRGB">
<feFlood flood-opacity="0" result="BackgroundImageFix"/>
<feBlend mode="normal" in="SourceGraphic" in2="BackgroundImageFix" result="shape"/>
<feGaussianBlur stdDeviation="9.70085" result="effect1_foregroundBlur_2042_9734"/>
</filter>
</defs>
</svg>
