<svg width="178" height="250" viewBox="0 0 178 250" fill="none" xmlns="http://www.w3.org/2000/svg">
<g filter="url(#filter0_f_2044_10159)">
<ellipse cx="88.7459" cy="217.318" rx="69.3436" ry="13.1145" fill="#2C2C2C" fill-opacity="0.35"/>
</g>
<path d="M170.978 87.792C170.978 120.283 150.003 150.924 128.321 173.81C117.554 185.175 106.775 194.459 98.6834 200.902C94.6405 204.121 91.276 206.625 88.9293 208.32C88.3174 208.762 87.7748 209.149 87.3077 209.479C86.8405 209.149 86.298 208.762 85.6861 208.32C83.3393 206.625 79.9748 204.121 75.9319 200.902C67.8405 194.459 57.0614 185.175 46.2947 173.81C24.6125 150.924 3.63782 120.283 3.63782 87.792C3.63782 65.6014 12.453 44.3197 28.1441 28.6285C43.8353 12.9374 65.117 4.12219 87.3077 4.12219C109.498 4.12219 130.78 12.9374 146.471 28.6285C162.162 44.3197 170.978 65.6014 170.978 87.792Z" fill="#F45197"/>
<path d="M170.978 87.792C170.978 120.283 150.003 150.924 128.321 173.81C117.554 185.175 106.775 194.459 98.6834 200.902C94.6405 204.121 91.276 206.625 88.9293 208.32C88.3174 208.762 87.7748 209.149 87.3077 209.479C86.8405 209.149 86.298 208.762 85.6861 208.32C83.3393 206.625 79.9748 204.121 75.9319 200.902C67.8405 194.459 57.0614 185.175 46.2947 173.81C24.6125 150.924 3.63782 120.283 3.63782 87.792C3.63782 65.6014 12.453 44.3197 28.1441 28.6285C43.8353 12.9374 65.117 4.12219 87.3077 4.12219C109.498 4.12219 130.78 12.9374 146.471 28.6285C162.162 44.3197 170.978 65.6014 170.978 87.792Z" stroke="#F45197" stroke-width="7.27564" stroke-linecap="round" stroke-linejoin="round"/>
<path d="M170.978 87.792C170.978 120.283 150.003 150.924 128.321 173.81C117.554 185.175 106.775 194.459 98.6834 200.902C94.6405 204.121 91.276 206.625 88.9293 208.32C88.3174 208.762 87.7748 209.149 87.3077 209.479C86.8405 209.149 86.298 208.762 85.6861 208.32C83.3393 206.625 79.9748 204.121 75.9319 200.902C67.8405 194.459 57.0614 185.175 46.2947 173.81C24.6125 150.924 3.63782 120.283 3.63782 87.792C3.63782 65.6014 12.453 44.3197 28.1441 28.6285C43.8353 12.9374 65.117 4.12219 87.3077 4.12219C109.498 4.12219 130.78 12.9374 146.471 28.6285C162.162 44.3197 170.978 65.6014 170.978 87.792Z" stroke="#2C2C2C" stroke-opacity="0.5" stroke-width="7.27564" stroke-linecap="round" stroke-linejoin="round"/>
<path d="M46.848 55.3932L46.8482 55.3934L65.1096 71.4615C65.8283 72.0939 66.9286 72.0017 67.5321 71.2587L83.849 51.1682C84.2802 50.6381 84.8255 50.2121 85.4441 49.922C86.0628 49.6319 86.739 49.485 87.4223 49.4925C88.1056 49.4999 88.7784 49.6614 89.3907 49.9649C90.0029 50.2684 90.5388 50.7061 90.9584 51.2454L90.9585 51.2455L106.505 71.2179C107.098 71.9796 108.208 72.089 108.938 71.4577L127.801 55.1495C127.801 55.1494 127.801 55.1494 127.801 55.1493C128.502 54.5448 129.37 54.1687 130.291 54.0714C131.211 53.9741 132.139 54.1602 132.951 54.6048C133.763 55.0494 134.419 55.7314 134.833 56.5594C135.246 57.3874 135.397 58.3219 135.265 59.2379L135.263 59.2467L135.262 59.2555L129.319 114.077C128.81 118.769 124.849 122.324 120.129 122.324H55.7567C51.1197 122.324 47.2004 118.889 46.5932 114.291L39.3536 59.4809L39.3537 59.4809L39.3525 59.4726C39.215 58.5515 39.364 57.6104 39.7793 56.7768C40.1945 55.9432 40.8559 55.2573 41.6739 54.8121C42.4919 54.367 43.427 54.1839 44.3525 54.2879C45.278 54.3918 46.1491 54.7777 46.848 55.3932Z" fill="#FDFBF9" stroke="#959595"/>
<defs>
<filter id="filter0_f_2044_10159" x="0.000640869" y="184.801" width="177.491" height="65.03" filterUnits="userSpaceOnUse" color-interpolation-filters="sRGB">
<feFlood flood-opacity="0" result="BackgroundImageFix"/>
<feBlend mode="normal" in="SourceGraphic" in2="BackgroundImageFix" result="shape"/>
<feGaussianBlur stdDeviation="9.70085" result="effect1_foregroundBlur_2044_10159"/>
</filter>
</defs>
</svg>
