<svg width="210" height="251" viewBox="0 0 210 251" fill="none" xmlns="http://www.w3.org/2000/svg">
<g filter="url(#filter0_f_2042_9671)">
<ellipse cx="89.5897" cy="217.497" rx="69.3436" ry="13.1145" fill="#2C2C2C" fill-opacity="0.35"/>
</g>
<path d="M171.821 87.9717C171.821 120.463 150.847 151.103 129.164 173.99C118.398 185.355 107.619 194.638 99.5271 201.081C95.4843 204.301 92.1198 206.805 89.773 208.5C89.1611 208.942 88.6186 209.329 88.1514 209.659C87.6842 209.329 87.1417 208.942 86.5298 208.5C84.1831 206.805 80.8185 204.301 76.7757 201.081C68.6842 194.638 57.9052 185.355 47.1385 173.99C25.4563 151.103 4.48157 120.463 4.48157 87.9717C4.48157 65.7811 13.2968 44.4993 28.9879 28.8082C44.679 13.1171 65.9608 4.30188 88.1514 4.30188C110.342 4.30188 131.624 13.1171 147.315 28.8082C163.006 44.4993 171.821 65.7811 171.821 87.9717Z" fill="#0567FF"/>
<path d="M171.821 87.9717C171.821 120.463 150.847 151.103 129.164 173.99C118.398 185.355 107.619 194.638 99.5271 201.081C95.4843 204.301 92.1198 206.805 89.773 208.5C89.1611 208.942 88.6186 209.329 88.1514 209.659C87.6842 209.329 87.1417 208.942 86.5298 208.5C84.1831 206.805 80.8185 204.301 76.7757 201.081C68.6842 194.638 57.9052 185.355 47.1385 173.99C25.4563 151.103 4.48157 120.463 4.48157 87.9717C4.48157 65.7811 13.2968 44.4993 28.9879 28.8082C44.679 13.1171 65.9608 4.30188 88.1514 4.30188C110.342 4.30188 131.624 13.1171 147.315 28.8082C163.006 44.4993 171.821 65.7811 171.821 87.9717Z" stroke="#0567FF" stroke-width="7.27564" stroke-linecap="round" stroke-linejoin="round"/>
<path d="M171.821 87.9717C171.821 120.463 150.847 151.103 129.164 173.99C118.398 185.355 107.619 194.638 99.5271 201.081C95.4843 204.301 92.1198 206.805 89.773 208.5C89.1611 208.942 88.6186 209.329 88.1514 209.659C87.6842 209.329 87.1417 208.942 86.5298 208.5C84.1831 206.805 80.8185 204.301 76.7757 201.081C68.6842 194.638 57.9052 185.355 47.1385 173.99C25.4563 151.103 4.48157 120.463 4.48157 87.9717C4.48157 65.7811 13.2968 44.4993 28.9879 28.8082C44.679 13.1171 65.9608 4.30188 88.1514 4.30188C110.342 4.30188 131.624 13.1171 147.315 28.8082C163.006 44.4993 171.821 65.7811 171.821 87.9717Z" stroke="#2C2C2C" stroke-opacity="0.5" stroke-width="7.27564" stroke-linecap="round" stroke-linejoin="round"/>
<circle cx="88.1511" cy="87.9753" r="38.2104" fill="#FDFBF9" stroke="#959595" stroke-width="1.18597"/>
<rect x="139.081" y="3.08928" width="67.906" height="67.906" rx="33.953" fill="#F25900"/>
<path fill-rule="evenodd" clip-rule="evenodd" d="M173.037 57.3906L146.703 28.6628L154.909 21.1412L173.037 40.9176L191.166 21.1412L199.371 28.6628L173.037 57.3906Z" fill="#FDFBF9"/>
<rect x="139.081" y="3.08928" width="67.906" height="67.906" rx="33.953" stroke="#F25900" stroke-width="4.85043"/>
<rect x="139.081" y="3.08928" width="67.906" height="67.906" rx="33.953" stroke="black" stroke-opacity="0.25" stroke-width="4.85043"/>
<defs>
<filter id="filter0_f_2042_9671" x="0.844391" y="184.981" width="177.491" height="65.03" filterUnits="userSpaceOnUse" color-interpolation-filters="sRGB">
<feFlood flood-opacity="0" result="BackgroundImageFix"/>
<feBlend mode="normal" in="SourceGraphic" in2="BackgroundImageFix" result="shape"/>
<feGaussianBlur stdDeviation="9.70085" result="effect1_foregroundBlur_2042_9671"/>
</filter>
</defs>
</svg>
