<svg width="209" height="251" viewBox="0 0 209 251" fill="none" xmlns="http://www.w3.org/2000/svg">
<g filter="url(#filter0_f_2042_9670)">
<ellipse cx="88.7674" cy="217.497" rx="69.3436" ry="13.1145" fill="#2C2C2C" fill-opacity="0.35"/>
</g>
<path d="M170.999 87.9717C170.999 120.463 150.024 151.103 128.342 173.99C117.575 185.355 106.796 194.638 98.7049 201.081C94.662 204.301 91.2975 206.805 88.9507 208.5C88.3389 208.942 87.7963 209.329 87.3291 209.659C86.862 209.329 86.3194 208.942 85.7076 208.5C83.3608 206.805 79.9963 204.301 75.9534 201.081C67.862 194.638 57.0829 185.355 46.3162 173.99C24.634 151.103 3.6593 120.463 3.6593 87.9717C3.6593 65.7811 12.4745 44.4993 28.1656 28.8082C43.8568 13.1171 65.1385 4.30188 87.3291 4.30188C109.52 4.30188 130.802 13.1171 146.493 28.8082C162.184 44.4993 170.999 65.7811 170.999 87.9717Z" fill="#0567FF"/>
<path d="M170.999 87.9717C170.999 120.463 150.024 151.103 128.342 173.99C117.575 185.355 106.796 194.638 98.7049 201.081C94.662 204.301 91.2975 206.805 88.9507 208.5C88.3389 208.942 87.7963 209.329 87.3291 209.659C86.862 209.329 86.3194 208.942 85.7076 208.5C83.3608 206.805 79.9963 204.301 75.9534 201.081C67.862 194.638 57.0829 185.355 46.3162 173.99C24.634 151.103 3.6593 120.463 3.6593 87.9717C3.6593 65.7811 12.4745 44.4993 28.1656 28.8082C43.8568 13.1171 65.1385 4.30188 87.3291 4.30188C109.52 4.30188 130.802 13.1171 146.493 28.8082C162.184 44.4993 170.999 65.7811 170.999 87.9717Z" stroke="#0567FF" stroke-width="7.27564" stroke-linecap="round" stroke-linejoin="round"/>
<path d="M170.999 87.9717C170.999 120.463 150.024 151.103 128.342 173.99C117.575 185.355 106.796 194.638 98.7049 201.081C94.662 204.301 91.2975 206.805 88.9507 208.5C88.3389 208.942 87.7963 209.329 87.3291 209.659C86.862 209.329 86.3194 208.942 85.7076 208.5C83.3608 206.805 79.9963 204.301 75.9534 201.081C67.862 194.638 57.0829 185.355 46.3162 173.99C24.634 151.103 3.6593 120.463 3.6593 87.9717C3.6593 65.7811 12.4745 44.4993 28.1656 28.8082C43.8568 13.1171 65.1385 4.30188 87.3291 4.30188C109.52 4.30188 130.802 13.1171 146.493 28.8082C162.184 44.4993 170.999 65.7811 170.999 87.9717Z" stroke="#2C2C2C" stroke-opacity="0.5" stroke-width="7.27564" stroke-linecap="round" stroke-linejoin="round"/>
<circle cx="87.3288" cy="87.9753" r="38.2104" fill="#FDFBF9" stroke="#959595" stroke-width="1.18597"/>
<rect x="138.259" y="3.08928" width="67.906" height="67.906" rx="33.953" fill="#3E9A00"/>
<path fill-rule="evenodd" clip-rule="evenodd" d="M172.209 16.6953L198.543 45.4231L190.337 52.9448L172.209 33.1683L154.08 52.9448L145.875 45.4231L172.209 16.6953Z" fill="#FDFBF9"/>
<rect x="138.259" y="3.08928" width="67.906" height="67.906" rx="33.953" stroke="#3E9A00" stroke-width="4.85043"/>
<rect x="138.259" y="3.08928" width="67.906" height="67.906" rx="33.953" stroke="black" stroke-opacity="0.25" stroke-width="4.85043"/>
<defs>
<filter id="filter0_f_2042_9670" x="0.0221252" y="184.981" width="177.491" height="65.03" filterUnits="userSpaceOnUse" color-interpolation-filters="sRGB">
<feFlood flood-opacity="0" result="BackgroundImageFix"/>
<feBlend mode="normal" in="SourceGraphic" in2="BackgroundImageFix" result="shape"/>
<feGaussianBlur stdDeviation="9.70085" result="effect1_foregroundBlur_2042_9670"/>
</filter>
</defs>
</svg>
