<svg width="179" height="250" viewBox="0 0 179 250" fill="none" xmlns="http://www.w3.org/2000/svg">
<g filter="url(#filter0_f_2042_10027)">
<ellipse cx="89.7245" cy="216.833" rx="69.3436" ry="13.1145" fill="#2C2C2C" fill-opacity="0.35"/>
</g>
<path d="M171.956 87.3077C171.956 119.798 150.981 150.439 129.299 173.326C118.532 184.691 107.753 193.974 99.6619 200.417C95.6191 203.637 92.2545 206.141 89.9078 207.836C89.2959 208.278 88.7533 208.665 88.2862 208.995C87.819 208.665 87.2765 208.278 86.6646 207.836C84.3178 206.141 80.9533 203.637 76.9104 200.417C68.819 193.974 58.0399 184.691 47.2732 173.326C25.591 150.439 4.61633 119.798 4.61633 87.3077C4.61634 65.117 13.4315 43.8353 29.1227 28.1441C44.8138 12.453 66.0956 3.63782 88.2862 3.63782C110.477 3.63782 131.759 12.453 147.45 28.1441C163.141 43.8353 171.956 65.117 171.956 87.3077Z" fill="#FFA400"/>
<path d="M171.956 87.3077C171.956 119.798 150.981 150.439 129.299 173.326C118.532 184.691 107.753 193.974 99.6619 200.417C95.6191 203.637 92.2545 206.141 89.9078 207.836C89.2959 208.278 88.7533 208.665 88.2862 208.995C87.819 208.665 87.2765 208.278 86.6646 207.836C84.3178 206.141 80.9533 203.637 76.9104 200.417C68.819 193.974 58.0399 184.691 47.2732 173.326C25.591 150.439 4.61633 119.798 4.61633 87.3077C4.61634 65.117 13.4315 43.8353 29.1227 28.1441C44.8138 12.453 66.0956 3.63782 88.2862 3.63782C110.477 3.63782 131.759 12.453 147.45 28.1441C163.141 43.8353 171.956 65.117 171.956 87.3077Z" stroke="#FFA400" stroke-width="7.27564" stroke-linecap="round" stroke-linejoin="round"/>
<path d="M171.956 87.3077C171.956 119.798 150.981 150.439 129.299 173.326C118.532 184.691 107.753 193.974 99.6619 200.417C95.6191 203.637 92.2545 206.141 89.9078 207.836C89.2959 208.278 88.7533 208.665 88.2862 208.995C87.819 208.665 87.2765 208.278 86.6646 207.836C84.3178 206.141 80.9533 203.637 76.9104 200.417C68.819 193.974 58.0399 184.691 47.2732 173.326C25.591 150.439 4.61633 119.798 4.61633 87.3077C4.61634 65.117 13.4315 43.8353 29.1227 28.1441C44.8138 12.453 66.0956 3.63782 88.2862 3.63782C110.477 3.63782 131.759 12.453 147.45 28.1441C163.141 43.8353 171.956 65.117 171.956 87.3077Z" stroke="#2C2C2C" stroke-opacity="0.5" stroke-width="7.27564" stroke-linecap="round" stroke-linejoin="round"/>
<path d="M94.2114 43.2442L102.916 62.7715C104.031 65.2734 106.395 66.9912 109.119 67.2787L130.381 69.5227C135.965 70.1121 138.214 77.0354 134.043 80.7944L118.161 95.107C116.126 96.9408 115.223 99.7202 115.792 102.4L120.228 123.314C121.393 128.807 115.503 133.086 110.639 130.28L92.1196 119.599C89.7467 118.23 86.8243 118.23 84.4514 119.599L65.9317 130.28C61.0676 133.086 55.1783 128.807 56.3433 123.314L60.7793 102.4C61.3476 99.7202 60.4445 96.9408 58.4097 95.107L42.5279 80.7945C38.3567 77.0354 40.6062 70.1121 46.1903 69.5227L67.4516 67.2787C70.1757 66.9912 72.5401 65.2734 73.6553 62.7715L82.3596 43.2442C84.6457 38.1155 91.9253 38.1155 94.2114 43.2442Z" fill="#FDFBF9" stroke="#959595" stroke-width="1.18597"/>
<defs>
<filter id="filter0_f_2042_10027" x="0.979156" y="184.317" width="177.491" height="65.03" filterUnits="userSpaceOnUse" color-interpolation-filters="sRGB">
<feFlood flood-opacity="0" result="BackgroundImageFix"/>
<feBlend mode="normal" in="SourceGraphic" in2="BackgroundImageFix" result="shape"/>
<feGaussianBlur stdDeviation="9.70085" result="effect1_foregroundBlur_2042_10027"/>
</filter>
</defs>
</svg>
