<svg width="209" height="250" viewBox="0 0 209 250" fill="none" xmlns="http://www.w3.org/2000/svg">
<g filter="url(#filter0_f_2042_10026)">
<ellipse cx="88.7459" cy="216.833" rx="69.3436" ry="13.1145" fill="#2C2C2C" fill-opacity="0.35"/>
</g>
<path d="M170.978 87.3077C170.978 119.798 150.003 150.439 128.321 173.326C117.554 184.691 106.775 193.974 98.6834 200.417C94.6405 203.637 91.276 206.141 88.9293 207.836C88.3174 208.278 87.7748 208.665 87.3077 208.995C86.8405 208.665 86.298 208.278 85.6861 207.836C83.3393 206.141 79.9748 203.637 75.9319 200.417C67.8405 193.974 57.0614 184.691 46.2947 173.326C24.6125 150.439 3.63782 119.798 3.63782 87.3077C3.63782 65.117 12.453 43.8353 28.1441 28.1441C43.8353 12.453 65.117 3.63782 87.3077 3.63782C109.498 3.63782 130.78 12.453 146.471 28.1441C162.162 43.8353 170.978 65.117 170.978 87.3077Z" fill="#FFA400"/>
<path d="M170.978 87.3077C170.978 119.798 150.003 150.439 128.321 173.326C117.554 184.691 106.775 193.974 98.6834 200.417C94.6405 203.637 91.276 206.141 88.9293 207.836C88.3174 208.278 87.7748 208.665 87.3077 208.995C86.8405 208.665 86.298 208.278 85.6861 207.836C83.3393 206.141 79.9748 203.637 75.9319 200.417C67.8405 193.974 57.0614 184.691 46.2947 173.326C24.6125 150.439 3.63782 119.798 3.63782 87.3077C3.63782 65.117 12.453 43.8353 28.1441 28.1441C43.8353 12.453 65.117 3.63782 87.3077 3.63782C109.498 3.63782 130.78 12.453 146.471 28.1441C162.162 43.8353 170.978 65.117 170.978 87.3077Z" stroke="#FFA400" stroke-width="7.27564" stroke-linecap="round" stroke-linejoin="round"/>
<path d="M170.978 87.3077C170.978 119.798 150.003 150.439 128.321 173.326C117.554 184.691 106.775 193.974 98.6834 200.417C94.6405 203.637 91.276 206.141 88.9293 207.836C88.3174 208.278 87.7748 208.665 87.3077 208.995C86.8405 208.665 86.298 208.278 85.6861 207.836C83.3393 206.141 79.9748 203.637 75.9319 200.417C67.8405 193.974 57.0614 184.691 46.2947 173.326C24.6125 150.439 3.63782 119.798 3.63782 87.3077C3.63782 65.117 12.453 43.8353 28.1441 28.1441C43.8353 12.453 65.117 3.63782 87.3077 3.63782C109.498 3.63782 130.78 12.453 146.471 28.1441C162.162 43.8353 170.978 65.117 170.978 87.3077Z" stroke="#2C2C2C" stroke-opacity="0.5" stroke-width="7.27564" stroke-linecap="round" stroke-linejoin="round"/>
<path d="M93.2329 43.2442L101.937 62.7715C103.052 65.2734 105.417 66.9912 108.141 67.2787L129.402 69.5227C134.986 70.1121 137.236 77.0354 133.065 80.7944L117.183 95.107C115.148 96.9408 114.245 99.7202 114.813 102.4L119.249 123.314C120.414 128.807 114.525 133.086 109.661 130.28L91.1411 119.599C88.7682 118.23 85.8458 118.23 83.4729 119.599L64.9531 130.28C60.0891 133.086 54.1998 128.807 55.3648 123.314L59.8007 102.4C60.3691 99.7202 59.466 96.9408 57.4312 95.107L41.5494 80.7945C37.3782 77.0354 39.6277 70.1121 45.2118 69.5227L66.4731 67.2787C69.1972 66.9912 71.5615 65.2734 72.6768 62.7715L81.3811 43.2442C83.6672 38.1155 90.9468 38.1155 93.2329 43.2442Z" fill="#FDFBF9" stroke="#959595" stroke-width="1.18597"/>
<rect x="138.238" y="2.42521" width="67.906" height="67.906" rx="33.953" fill="#959595"/>
<path fill-rule="evenodd" clip-rule="evenodd" d="M193.998 31.0797L193.998 42.2109L149.536 42.2109L149.536 31.0797L193.998 31.0797Z" fill="#FDFBF9"/>
<rect x="138.238" y="2.42521" width="67.906" height="67.906" rx="33.953" stroke="#808080" stroke-width="4.85043"/>
<defs>
<filter id="filter0_f_2042_10026" x="0.000640869" y="184.317" width="177.491" height="65.03" filterUnits="userSpaceOnUse" color-interpolation-filters="sRGB">
<feFlood flood-opacity="0" result="BackgroundImageFix"/>
<feBlend mode="normal" in="SourceGraphic" in2="BackgroundImageFix" result="shape"/>
<feGaussianBlur stdDeviation="9.70085" result="effect1_foregroundBlur_2042_10026"/>
</filter>
</defs>
</svg>
