<svg width="210" height="250" viewBox="0 0 210 250" fill="none" xmlns="http://www.w3.org/2000/svg">
<g filter="url(#filter0_f_2061_9471)">
<ellipse cx="89.5917" cy="216.833" rx="69.3436" ry="13.1145" fill="#2C2C2C" fill-opacity="0.35"/>
</g>
<path d="M171.823 87.3077C171.823 119.798 150.848 150.439 129.166 173.326C118.4 184.691 107.621 193.974 99.5291 200.417C95.4862 203.637 92.1217 206.141 89.775 207.836C89.1631 208.278 88.6205 208.665 88.1534 208.995C87.6862 208.665 87.1437 208.278 86.5318 207.836C84.185 206.141 80.8205 203.637 76.7776 200.417C68.6862 193.974 57.9071 184.691 47.1404 173.326C25.4582 150.439 4.48352 119.798 4.48352 87.3077C4.48352 65.117 13.2987 43.8353 28.9898 28.1441C44.681 12.453 65.9627 3.63782 88.1534 3.63782C110.344 3.63782 131.626 12.453 147.317 28.1441C163.008 43.8353 171.823 65.117 171.823 87.3077Z" fill="#FFA400"/>
<path d="M171.823 87.3077C171.823 119.798 150.848 150.439 129.166 173.326C118.4 184.691 107.621 193.974 99.5291 200.417C95.4862 203.637 92.1217 206.141 89.775 207.836C89.1631 208.278 88.6205 208.665 88.1534 208.995C87.6862 208.665 87.1437 208.278 86.5318 207.836C84.185 206.141 80.8205 203.637 76.7776 200.417C68.6862 193.974 57.9071 184.691 47.1404 173.326C25.4582 150.439 4.48352 119.798 4.48352 87.3077C4.48352 65.117 13.2987 43.8353 28.9898 28.1441C44.681 12.453 65.9627 3.63782 88.1534 3.63782C110.344 3.63782 131.626 12.453 147.317 28.1441C163.008 43.8353 171.823 65.117 171.823 87.3077Z" stroke="#FFA400" stroke-width="7.27564" stroke-linecap="round" stroke-linejoin="round"/>
<path d="M171.823 87.3077C171.823 119.798 150.848 150.439 129.166 173.326C118.4 184.691 107.621 193.974 99.5291 200.417C95.4862 203.637 92.1217 206.141 89.775 207.836C89.1631 208.278 88.6205 208.665 88.1534 208.995C87.6862 208.665 87.1437 208.278 86.5318 207.836C84.185 206.141 80.8205 203.637 76.7776 200.417C68.6862 193.974 57.9071 184.691 47.1404 173.326C25.4582 150.439 4.48352 119.798 4.48352 87.3077C4.48352 65.117 13.2987 43.8353 28.9898 28.1441C44.681 12.453 65.9627 3.63782 88.1534 3.63782C110.344 3.63782 131.626 12.453 147.317 28.1441C163.008 43.8353 171.823 65.117 171.823 87.3077Z" stroke="#2C2C2C" stroke-opacity="0.5" stroke-width="7.27564" stroke-linecap="round" stroke-linejoin="round"/>
<path d="M47.6937 54.9088L47.6939 54.909L65.9554 70.9772C66.674 71.6095 67.7743 71.5174 68.3778 70.7743L84.6947 50.6838C85.1259 50.1537 85.6712 49.7278 86.2899 49.4376C86.9085 49.1475 87.5847 49.0007 88.268 49.0081C88.9513 49.0155 89.6241 49.177 90.2364 49.4805C90.8486 49.784 91.3845 50.2217 91.8041 50.7611L91.8042 50.7612L107.351 70.7335C107.943 71.4952 109.053 71.6046 109.784 70.9733L128.647 54.6651C128.647 54.665 128.647 54.665 128.647 54.6649C129.347 54.0604 130.216 53.6844 131.136 53.587C132.057 53.4897 132.985 53.6758 133.797 54.1204C134.608 54.565 135.265 55.247 135.678 56.075C136.092 56.903 136.243 57.8376 136.11 58.7536L136.109 58.7623L136.108 58.7711L130.164 113.593C129.656 118.285 125.694 121.84 120.975 121.84H56.6024C51.9654 121.84 48.0461 118.404 47.4389 113.807L40.1993 58.9965L40.1994 58.9965L40.1982 58.9882C40.0607 58.0671 40.2097 57.126 40.625 56.2924C41.0402 55.4588 41.7016 54.773 42.5196 54.3278C43.3376 53.8826 44.2727 53.6996 45.1982 53.8035C46.1237 53.9074 46.9948 54.2933 47.6937 54.9088Z" fill="#FDFBF9" stroke="#959595"/>
<rect x="139.083" y="2.42521" width="67.906" height="67.906" rx="33.953" fill="#959595"/>
<path fill-rule="evenodd" clip-rule="evenodd" d="M194.844 31.0797L194.844 42.2109L150.381 42.2109L150.382 31.0797L194.844 31.0797Z" fill="#FDFBF9"/>
<rect x="139.083" y="2.42521" width="67.906" height="67.906" rx="33.953" stroke="#808080" stroke-width="4.85043"/>
<defs>
<filter id="filter0_f_2061_9471" x="0.846344" y="184.317" width="177.491" height="65.03" filterUnits="userSpaceOnUse" color-interpolation-filters="sRGB">
<feFlood flood-opacity="0" result="BackgroundImageFix"/>
<feBlend mode="normal" in="SourceGraphic" in2="BackgroundImageFix" result="shape"/>
<feGaussianBlur stdDeviation="9.70085" result="effect1_foregroundBlur_2061_9471"/>
</filter>
</defs>
</svg>
