<svg width="209" height="250" viewBox="0 0 209 250" fill="none" xmlns="http://www.w3.org/2000/svg">
<g filter="url(#filter0_f_2061_9504)">
<ellipse cx="88.7459" cy="216.833" rx="69.3436" ry="13.1145" fill="#2C2C2C" fill-opacity="0.35"/>
</g>
<path d="M170.978 87.3077C170.978 119.798 150.003 150.439 128.321 173.326C117.554 184.691 106.775 193.974 98.6834 200.417C94.6405 203.637 91.276 206.141 88.9293 207.836C88.3174 208.278 87.7748 208.665 87.3077 208.995C86.8405 208.665 86.298 208.278 85.6861 207.836C83.3393 206.141 79.9748 203.637 75.9319 200.417C67.8405 193.974 57.0614 184.691 46.2947 173.326C24.6125 150.439 3.63782 119.798 3.63782 87.3077C3.63782 65.117 12.453 43.8353 28.1441 28.1441C43.8353 12.453 65.117 3.63782 87.3077 3.63782C109.498 3.63782 130.78 12.453 146.471 28.1441C162.162 43.8353 170.978 65.117 170.978 87.3077Z" fill="#FFA400"/>
<path d="M170.978 87.3077C170.978 119.798 150.003 150.439 128.321 173.326C117.554 184.691 106.775 193.974 98.6834 200.417C94.6405 203.637 91.276 206.141 88.9293 207.836C88.3174 208.278 87.7748 208.665 87.3077 208.995C86.8405 208.665 86.298 208.278 85.6861 207.836C83.3393 206.141 79.9748 203.637 75.9319 200.417C67.8405 193.974 57.0614 184.691 46.2947 173.326C24.6125 150.439 3.63782 119.798 3.63782 87.3077C3.63782 65.117 12.453 43.8353 28.1441 28.1441C43.8353 12.453 65.117 3.63782 87.3077 3.63782C109.498 3.63782 130.78 12.453 146.471 28.1441C162.162 43.8353 170.978 65.117 170.978 87.3077Z" stroke="#FFA400" stroke-width="7.27564" stroke-linecap="round" stroke-linejoin="round"/>
<path d="M170.978 87.3077C170.978 119.798 150.003 150.439 128.321 173.326C117.554 184.691 106.775 193.974 98.6834 200.417C94.6405 203.637 91.276 206.141 88.9293 207.836C88.3174 208.278 87.7748 208.665 87.3077 208.995C86.8405 208.665 86.298 208.278 85.6861 207.836C83.3393 206.141 79.9748 203.637 75.9319 200.417C67.8405 193.974 57.0614 184.691 46.2947 173.326C24.6125 150.439 3.63782 119.798 3.63782 87.3077C3.63782 65.117 12.453 43.8353 28.1441 28.1441C43.8353 12.453 65.117 3.63782 87.3077 3.63782C109.498 3.63782 130.78 12.453 146.471 28.1441C162.162 43.8353 170.978 65.117 170.978 87.3077Z" stroke="#2C2C2C" stroke-opacity="0.5" stroke-width="7.27564" stroke-linecap="round" stroke-linejoin="round"/>
<circle cx="87.3073" cy="87.3112" r="38.2104" fill="#FDFBF9" stroke="#959595" stroke-width="1.18597"/>
<rect x="138.238" y="2.42521" width="67.906" height="67.906" rx="33.953" fill="#959595"/>
<path fill-rule="evenodd" clip-rule="evenodd" d="M193.998 31.0797L193.998 42.2109L149.536 42.2109L149.536 31.0797L193.998 31.0797Z" fill="#FDFBF9"/>
<rect x="138.238" y="2.42521" width="67.906" height="67.906" rx="33.953" stroke="#808080" stroke-width="4.85043"/>
<defs>
<filter id="filter0_f_2061_9504" x="0.000640869" y="184.317" width="177.491" height="65.03" filterUnits="userSpaceOnUse" color-interpolation-filters="sRGB">
<feFlood flood-opacity="0" result="BackgroundImageFix"/>
<feBlend mode="normal" in="SourceGraphic" in2="BackgroundImageFix" result="shape"/>
<feGaussianBlur stdDeviation="9.70085" result="effect1_foregroundBlur_2061_9504"/>
</filter>
</defs>
</svg>
