<svg width="20" height="21" viewBox="0 0 20 21" fill="none" xmlns="http://www.w3.org/2000/svg">
<path d="M2.1001 16.597L9.3001 3.69697C9.5001 3.29697 10.2001 3.29697 10.4001 3.69697L17.8001 16.497C18.0001 16.897 17.7001 17.497 17.3001 17.497H2.6001C2.2001 17.497 1.8001 16.997 2.1001 16.597Z" stroke="#FDFBF9" stroke-width="2" stroke-miterlimit="10" stroke-linecap="round" stroke-linejoin="round"/>
<path d="M9.00012 14.7969C9.00012 14.4969 9.10012 14.2969 9.30012 14.0969C9.50012 13.8969 9.70012 13.7969 10.0001 13.7969C10.3001 13.7969 10.5001 13.8969 10.7001 14.0969C10.9001 14.2969 11.0001 14.4969 11.0001 14.7969C11.0001 15.0969 10.9001 15.2969 10.7001 15.4969C10.5001 15.6969 10.3001 15.7969 10.0001 15.7969C9.70012 15.7969 9.40012 15.5969 9.20012 15.4969C9.10012 15.2969 9.00012 15.0969 9.00012 14.7969ZM10.7001 13.0969H9.20012L9.00012 7.79688H10.9001L10.7001 13.0969Z" fill="#FDFBF9"/>
</svg>
