<svg width="20" height="20" viewBox="0 0 20 20" fill="none" xmlns="http://www.w3.org/2000/svg">
<path d="M13.3 15.1001C13.3 16.7001 12 18.0001 10.4 18.0001C8.8 18.0001 7.5 16.7001 7.5 15.1001" fill="#FDFBF9"/>
<path d="M13.3 15.1001C13.3 16.7001 12 18.0001 10.4 18.0001C8.8 18.0001 7.5 16.7001 7.5 15.1001" stroke="#FDFBF9" stroke-width="2" stroke-miterlimit="10"/>
<path d="M15.2 15.1H5.20002C4.20002 15.1 3.40002 14.3 3.40002 13.3L4.20002 8.2C4.20002 8 4.20002 7.8 4.30002 7.6C4.40002 4.5 7.00002 2 10.2 2C13.4 2 16.1 4.6 16.1 7.8C16.1 7.9 16.1 7.9 16.1 8L16.9 13.3C17 14.3 16.2 15.1 15.2 15.1Z" stroke="#FDFBF9" stroke-width="2" stroke-miterlimit="10"/>
</svg>
