<svg width="20" height="21" viewBox="0 0 20 21" fill="none" xmlns="http://www.w3.org/2000/svg">
<path d="M15.5 15.028H15.4C15.1 15.028 14.9 15.228 14.9 15.528V18.028C14.9 18.128 14.8 18.128 14.8 18.028L11.5 15.228C11.3 15.028 11.1 15.028 10.9 15.028H4.5C3.1 15.028 2 13.928 2 12.528V4.72803C2 3.32803 3.1 2.22803 4.5 2.22803H15.4C16.9 2.22803 18 3.32803 18 4.72803V12.428C18 13.828 16.9 15.028 15.5 15.028Z" stroke="#FDFBF9" stroke-width="2" stroke-miterlimit="10"/>
<path d="M6.3999 7.02783H13.4999" stroke="#FDFBF9" stroke-width="2" stroke-miterlimit="10" stroke-linecap="round" stroke-linejoin="round"/>
<path d="M6.3999 10.228H10.9999" stroke="#FDFBF9" stroke-width="2" stroke-miterlimit="10" stroke-linecap="round" stroke-linejoin="round"/>
</svg>
