<svg width="20" height="20" viewBox="0 0 20 20" fill="none" xmlns="http://www.w3.org/2000/svg">
<path d="M18.2001 10.1C18.2001 13.4 13.3 15.9 10 15.9C6.70005 15.9 1.80005 13.4 1.80005 10.1C1.80005 6.8 6.70005 4 10 4C13.3 4 18.2001 6.8 18.2001 10.1Z" stroke="#FDFBF9" stroke-width="2" stroke-miterlimit="10"/>
<path d="M12.9 11.6001C12.3 12.5001 11.3 13.1001 10.1 13.1001C8.30005 13.1001 6.80005 11.6001 6.80005 9.8001C6.80005 9.0001 7.10005 8.2001 7.60005 7.6001" stroke="#FDFBF9" stroke-width="2" stroke-miterlimit="10"/>
<path d="M7.09998 8.2998C7.69998 7.3998 8.69998 6.7998 9.89998 6.7998C11.7 6.7998 13.2 8.2998 13.2 10.0998C13.2 10.8998 12.9 11.6998 12.4 12.2998" stroke="#FDFBF9" stroke-width="2" stroke-miterlimit="10"/>
<path d="M3.30005 3.2002L17.1 17.0002" stroke="#FDFBF9" stroke-width="2" stroke-miterlimit="10" stroke-linecap="round" stroke-linejoin="round"/>
</svg>
