<svg width="20" height="21" viewBox="0 0 20 21" fill="none" xmlns="http://www.w3.org/2000/svg">
<path d="M14.2 10.1973C14.8 9.29727 15.2 8.29727 15.1 7.09727C15.1 4.39727 12.8 2.19727 10.1 2.19727C7.3 2.29727 5 4.49727 5 7.29727C5 8.39727 5.3 9.29727 5.9 10.0973C6.5 11.1973 7.2 12.2973 7.5 13.4973V13.6973C7.6 14.0973 8 14.4973 8.5 14.4973H11.5C11.9 14.4973 12.3 14.2973 12.4 13.8973L12.5 13.4973C12.9 12.2973 13.5 11.1973 14.2 10.1973Z" stroke="#FDFBF9" stroke-width="2.1556" stroke-miterlimit="10" stroke-linecap="round" stroke-linejoin="round"/>
<path d="M9.99995 5.09717C8.69995 5.09717 7.69995 6.09717 7.69995 7.39717" stroke="#FDFBF9" stroke-width="2" stroke-miterlimit="10" stroke-linecap="round" stroke-linejoin="round"/>
<path d="M11.9 17.5972H8.19995C9.29995 18.1972 10.7 18.1972 11.9 17.5972Z" fill="#FDFBF9" stroke="#FDFBF9" stroke-width="2.1556" stroke-miterlimit="10" stroke-linecap="round" stroke-linejoin="round"/>
</svg>
