<svg width="20" height="21" viewBox="0 0 20 21" fill="none" xmlns="http://www.w3.org/2000/svg">
<path d="M8.50001 11.8001C7.10001 10.9001 6.80001 9.10008 7.70001 7.80008L10.6 3.50008C11.5 2.20008 13.2 1.90008 14.5 2.70008H14.6C15.9 3.60008 16.2 5.30008 15.4 6.60008L12.5 10.9001C11.5 12.4001 9.70001 12.7001 8.50001 11.8001Z" stroke="#FDFBF9" stroke-width="2" stroke-miterlimit="10"/>
<path d="M14.1 8.70005C15.2 9.60005 15.4 11.2001 14.5 12.5001L11.7 16.6001C10.8 17.9001 9.10001 18.3001 7.80001 17.5001L7.50001 17.3001C6.30001 16.5001 6.00001 14.7001 6.90001 13.4001L7.90001 11.9001L8.20001 11.5001L8.50001 11.2001L9.80001 9.20005C10.7 7.90005 12.4 7.50005 13.7 8.30005L13.9 8.40005" stroke="#FDFBF9" stroke-width="2" stroke-miterlimit="10"/>
</svg>
