<svg width="20" height="21" viewBox="0 0 20 21" fill="none" xmlns="http://www.w3.org/2000/svg">
<path d="M16.0999 9.02871C16.0999 11.8287 13.4999 15.2287 11.6999 17.8287C11.2999 18.4287 10.4999 18.9287 9.9999 18.9287C9.3999 18.9287 8.6999 18.4287 8.1999 17.8287C6.5999 15.3287 3.8999 11.8287 3.8999 9.12871C3.8999 5.62871 6.5999 2.92871 9.9999 2.92871C13.3999 2.92871 16.0999 5.62871 16.0999 9.02871Z" stroke="#FDFBF9" stroke-width="2" stroke-miterlimit="10"/>
<path d="M10 12.2285C11.6569 12.2285 13 10.8854 13 9.22852C13 7.57166 11.6569 6.22852 10 6.22852C8.34315 6.22852 7 7.57166 7 9.22852C7 10.8854 8.34315 12.2285 10 12.2285Z" stroke="#FDFBF9" stroke-width="2" stroke-miterlimit="10"/>
</svg>
