<svg width="26" height="26" viewBox="0 0 26 26" fill="none" xmlns="http://www.w3.org/2000/svg">
<path d="M17.582 19.127C17.582 21.127 15.957 22.752 13.957 22.752C11.957 22.752 10.332 21.127 10.332 19.127" fill="#FDFBF9"/>
<path d="M17.582 19.127C17.582 21.127 15.957 22.752 13.957 22.752C11.957 22.752 10.332 21.127 10.332 19.127" stroke="#FDFBF9" stroke-width="2.50038" stroke-miterlimit="10"/>
<path d="M19.957 19.125H7.45703C6.20703 19.125 5.20703 18.125 5.20703 16.875L6.20703 10.5C6.20703 10.25 6.20703 10 6.33203 9.75C6.45703 5.875 9.70703 2.75 13.707 2.75C17.707 2.75 21.082 6 21.082 10C21.082 10.125 21.082 10.125 21.082 10.25L22.082 16.875C22.207 18.125 21.207 19.125 19.957 19.125Z" stroke="#FDFBF9" stroke-width="2.50038" stroke-miterlimit="10"/>
</svg>
