<svg width="20" height="21" viewBox="0 0 20 21" fill="none" xmlns="http://www.w3.org/2000/svg">
<path d="M9.8 5.29824C10.7941 5.29824 11.6 4.49235 11.6 3.49824C11.6 2.50413 10.7941 1.69824 9.8 1.69824C8.80589 1.69824 8 2.50413 8 3.49824C8 4.49235 8.80589 5.29824 9.8 5.29824Z" fill="#FDFBF9"/>
<path d="M9.8 12.4984C10.7941 12.4984 11.6 11.6926 11.6 10.6984C11.6 9.70433 10.7941 8.89844 9.8 8.89844C8.80589 8.89844 8 9.70433 8 10.6984C8 11.6926 8.80589 12.4984 9.8 12.4984Z" fill="#FDFBF9"/>
<path d="M9.8 19.6981C10.7941 19.6981 11.6 18.8923 11.6 17.8981C11.6 16.904 10.7941 16.0981 9.8 16.0981C8.80589 16.0981 8 16.904 8 17.8981C8 18.8923 8.80589 19.6981 9.8 19.6981Z" fill="#FDFBF9"/>
</svg>
