<svg width="24" height="23" viewBox="0 0 24 23" fill="none" xmlns="http://www.w3.org/2000/svg">
<path d="M12.2129 11.8262C14.9053 11.8262 17.0879 9.64356 17.0879 6.95117C17.0879 4.25878 14.9053 2.07617 12.2129 2.07617C9.5205 2.07617 7.33789 4.25878 7.33789 6.95117C7.33789 9.64356 9.5205 11.8262 12.2129 11.8262Z" stroke="#FDFBF9" stroke-width="2.50038" stroke-miterlimit="10"/>
<path d="M16.3359 14.2031C15.4609 15.5781 13.9609 16.4531 12.2109 16.4531C10.4609 16.4531 8.96094 15.5781 8.08594 14.2031H7.33594C4.46094 14.2031 2.21094 16.4531 2.21094 19.3281V20.4531C2.21094 21.0781 2.71094 21.7031 3.33594 21.7031H20.9609C21.5859 21.7031 22.0859 21.2031 22.0859 20.5781V19.4531C22.0859 16.5781 19.8359 14.3281 16.9609 14.3281L16.3359 14.2031Z" stroke="#FDFBF9" stroke-width="2.50038" stroke-miterlimit="10"/>
</svg>
