<svg width="20" height="21" viewBox="0 0 20 21" fill="none" xmlns="http://www.w3.org/2000/svg">
<path d="M8.79995 6.52778L8.19995 7.32778C7.99995 7.62778 7.89995 8.02778 8.09995 8.32778C8.79995 10.1278 10.4 11.9278 11.1 12.7278C11.4 13.0278 11.8 13.1278 12.2 13.0278L13 12.7278C13.4 12.6278 13.8 12.6278 14.1 12.9278L16.3 14.6278C16.9 15.1278 16.9 16.0278 16.3 16.5278L14.6 17.8278C14.3 18.1278 13.8 18.1278 13.4 17.9278C5.59995 14.0278 4.29995 6.12778 4.19995 4.02778C4.19995 3.72778 4.29995 3.42778 4.59995 3.22778L6.79995 2.12778C7.19995 1.92778 7.79995 2.12778 7.89995 2.52778L8.99995 5.52778C9.09995 5.92778 8.99995 6.22778 8.79995 6.52778Z" stroke="#FDFBF9" stroke-width="2" stroke-miterlimit="10"/>
</svg>
