<svg width="20" height="21" viewBox="0 0 20 21" fill="none" xmlns="http://www.w3.org/2000/svg">
<path d="M9.9999 6.43096C10.8407 6.43096 11.5223 5.74937 11.5223 4.90859C11.5223 4.06782 10.8407 3.38623 9.9999 3.38623C9.15912 3.38623 8.47754 4.06782 8.47754 4.90859C8.47754 5.74937 9.15912 6.43096 9.9999 6.43096Z" fill="#FDFBF9"/>
<path d="M9.9999 12.5208C10.8407 12.5208 11.5223 11.8392 11.5223 10.9984C11.5223 10.1577 10.8407 9.47607 9.9999 9.47607C9.15912 9.47607 8.47754 10.1577 8.47754 10.9984C8.47754 11.8392 9.15912 12.5208 9.9999 12.5208Z" fill="#FDFBF9"/>
<path d="M9.9999 18.6097C10.8407 18.6097 11.5223 17.9281 11.5223 17.0873C11.5223 16.2465 10.8407 15.5649 9.9999 15.5649C9.15912 15.5649 8.47754 16.2465 8.47754 17.0873C8.47754 17.9281 9.15912 18.6097 9.9999 18.6097Z" fill="#FDFBF9"/>
<path d="M3.57217 6.43096C4.41295 6.43096 5.09453 5.74937 5.09453 4.90859C5.09453 4.06782 4.41295 3.38623 3.57217 3.38623C2.73139 3.38623 2.0498 4.06782 2.0498 4.90859C2.0498 5.74937 2.73139 6.43096 3.57217 6.43096Z" fill="#FDFBF9"/>
<path d="M3.57217 12.5208C4.41295 12.5208 5.09453 11.8392 5.09453 10.9984C5.09453 10.1577 4.41295 9.47607 3.57217 9.47607C2.73139 9.47607 2.0498 10.1577 2.0498 10.9984C2.0498 11.8392 2.73139 12.5208 3.57217 12.5208Z" fill="#FDFBF9"/>
<path d="M3.57217 18.6097C4.41295 18.6097 5.09453 17.9281 5.09453 17.0873C5.09453 16.2465 4.41295 15.5649 3.57217 15.5649C2.73139 15.5649 2.0498 16.2465 2.0498 17.0873C2.0498 17.9281 2.73139 18.6097 3.57217 18.6097Z" fill="#FDFBF9"/>
<path d="M16.4279 6.43096C17.2687 6.43096 17.9502 5.74937 17.9502 4.90859C17.9502 4.06782 17.2687 3.38623 16.4279 3.38623C15.5871 3.38623 14.9055 4.06782 14.9055 4.90859C14.9055 5.74937 15.5871 6.43096 16.4279 6.43096Z" fill="#FDFBF9"/>
<path d="M16.4279 12.5208C17.2687 12.5208 17.9502 11.8392 17.9502 10.9984C17.9502 10.1577 17.2687 9.47607 16.4279 9.47607C15.5871 9.47607 14.9055 10.1577 14.9055 10.9984C14.9055 11.8392 15.5871 12.5208 16.4279 12.5208Z" fill="#FDFBF9"/>
<path d="M16.4279 18.6097C17.2687 18.6097 17.9502 17.9281 17.9502 17.0873C17.9502 16.2465 17.2687 15.5649 16.4279 15.5649C15.5871 15.5649 14.9055 16.2465 14.9055 17.0873C14.9055 17.9281 15.5871 18.6097 16.4279 18.6097Z" fill="#FDFBF9"/>
</svg>
