<svg width="26" height="26" viewBox="0 0 26 26" fill="none" xmlns="http://www.w3.org/2000/svg">
<path d="M17.3359 19.0781C17.3359 21.0781 15.7109 22.7031 13.7109 22.7031C11.7109 22.7031 10.0859 21.0781 10.0859 19.0781" fill="#FDFBF9"/>
<path d="M17.3359 19.0781C17.3359 21.0781 15.7109 22.7031 13.7109 22.7031C11.7109 22.7031 10.0859 21.0781 10.0859 19.0781" stroke="#FDFBF9" stroke-width="2.50038" stroke-miterlimit="10"/>
<path d="M19.7109 19.0762H7.21094C5.96094 19.0762 4.96094 18.0762 4.96094 16.8262L5.96094 10.4512C5.96094 10.2012 5.96094 9.95117 6.08594 9.70117C6.21094 5.82617 9.46094 2.70117 13.4609 2.70117C17.4609 2.70117 20.8359 5.95117 20.8359 9.95117C20.8359 10.0762 20.8359 10.0762 20.8359 10.2012L21.8359 16.8262C21.9609 18.0762 20.9609 19.0762 19.7109 19.0762Z" stroke="#FDFBF9" stroke-width="2.50038" stroke-miterlimit="10"/>
</svg>
