<svg width="20" height="20" viewBox="0 0 20 20" fill="none" xmlns="http://www.w3.org/2000/svg">
<path d="M9.99998 10.0998C12.1539 10.0998 13.9 8.35371 13.9 6.1998C13.9 4.04589 12.1539 2.2998 9.99998 2.2998C7.84607 2.2998 6.09998 4.04589 6.09998 6.1998C6.09998 8.35371 7.84607 10.0998 9.99998 10.0998Z" stroke="#FDFBF9" stroke-width="2" stroke-miterlimit="10"/>
<path d="M13.3 12C12.6 13.1 11.4 13.8 10 13.8C8.6 13.8 7.4 13.1 6.7 12H6.1C3.8 12 2 13.8 2 16.1V17C2 17.5 2.4 18 2.9 18H17C17.5 18 17.9 17.6 17.9 17.1V16.2C17.9 13.9 16.1 12.1 13.8 12.1L13.3 12Z" stroke="#FDFBF9" stroke-width="2" stroke-miterlimit="10"/>
</svg>
