<svg width="20" height="20" viewBox="0 0 20 20" fill="none" xmlns="http://www.w3.org/2000/svg">
<path d="M10 2C5.58172 2 2 5.58172 2 10C2 14.4183 5.58172 18 10 18C14.4183 18 18 14.4183 18 10C18 5.58172 14.4183 2 10 2Z" stroke="#FDFBF9" stroke-width="2" stroke-miterlimit="10"/>
<path d="M11.2 6.2001C11.2 6.5001 11.1 6.8001 10.9 7.0001C10.7 7.2001 10.4 7.3001 9.99995 7.3001C9.59995 7.3001 9.39995 7.2001 9.09995 7.0001C8.89995 6.8001 8.79995 6.5001 8.79995 6.2001C8.79995 5.9001 8.89995 5.6001 9.09995 5.4001C9.29995 5.2001 9.59995 5.1001 9.99995 5.1001C10.4 5.1001 10.6 5.2001 10.9 5.4001C11.1 5.6001 11.2 5.9001 11.2 6.2001ZM9.09995 8.2001L10.9 8.2001L11.1 14.6001L8.79995 14.6001L9.09995 8.2001Z" fill="#FDFBF9"/>
</svg>
