<svg width="266" height="54" viewBox="0 0 266 54" fill="none" xmlns="http://www.w3.org/2000/svg">
<g filter="url(#filter0_d_598_5417)">
<rect x="6.36865" y="3" width="253" height="42" rx="6" fill="#0567FF" shape-rendering="crispEdges"/>
<path d="M118.22 28.5566V30.5H111.082V28.5566H118.22ZM111.765 16.2812V30.5H109.314V16.2812H111.765ZM119.431 25.334V25.1094C119.431 24.3477 119.542 23.6413 119.763 22.9902C119.985 22.3327 120.304 21.763 120.72 21.2812C121.143 20.793 121.658 20.4154 122.263 20.1484C122.875 19.875 123.565 19.7383 124.333 19.7383C125.108 19.7383 125.798 19.875 126.404 20.1484C127.016 20.4154 127.533 20.793 127.957 21.2812C128.38 21.763 128.702 22.3327 128.923 22.9902C129.145 23.6413 129.255 24.3477 129.255 25.1094V25.334C129.255 26.0957 129.145 26.8021 128.923 27.4531C128.702 28.1042 128.38 28.6738 127.957 29.1621C127.533 29.6439 127.019 30.0215 126.414 30.2949C125.808 30.5618 125.121 30.6953 124.353 30.6953C123.578 30.6953 122.885 30.5618 122.273 30.2949C121.667 30.0215 121.153 29.6439 120.73 29.1621C120.307 28.6738 119.985 28.1042 119.763 27.4531C119.542 26.8021 119.431 26.0957 119.431 25.334ZM121.785 25.1094V25.334C121.785 25.8092 121.833 26.2585 121.931 26.6816C122.029 27.1048 122.182 27.4759 122.39 27.7949C122.598 28.1139 122.865 28.3646 123.191 28.5469C123.516 28.7292 123.904 28.8203 124.353 28.8203C124.789 28.8203 125.167 28.7292 125.486 28.5469C125.811 28.3646 126.078 28.1139 126.287 27.7949C126.495 27.4759 126.648 27.1048 126.746 26.6816C126.85 26.2585 126.902 25.8092 126.902 25.334V25.1094C126.902 24.6406 126.85 24.1979 126.746 23.7812C126.648 23.3581 126.492 22.9837 126.277 22.6582C126.069 22.3327 125.802 22.0788 125.476 21.8965C125.157 21.7077 124.776 21.6133 124.333 21.6133C123.891 21.6133 123.507 21.7077 123.181 21.8965C122.862 22.0788 122.598 22.3327 122.39 22.6582C122.182 22.9837 122.029 23.3581 121.931 23.7812C121.833 24.1979 121.785 24.6406 121.785 25.1094ZM137.996 19.9336H140.134V30.207C140.134 31.1576 139.932 31.9648 139.529 32.6289C139.125 33.293 138.562 33.7975 137.839 34.1426C137.117 34.4941 136.28 34.6699 135.33 34.6699C134.926 34.6699 134.477 34.6113 133.982 34.4941C133.494 34.377 133.018 34.1882 132.556 33.9277C132.1 33.6738 131.72 33.3385 131.414 32.9219L132.517 31.5352C132.895 31.9844 133.311 32.3132 133.767 32.5215C134.223 32.7298 134.701 32.834 135.203 32.834C135.743 32.834 136.202 32.7331 136.58 32.5312C136.964 32.3359 137.26 32.0462 137.468 31.6621C137.677 31.278 137.781 30.8092 137.781 30.2559V22.3262L137.996 19.9336ZM130.818 25.334V25.1289C130.818 24.3281 130.916 23.599 131.111 22.9414C131.306 22.2773 131.586 21.7077 131.951 21.2324C132.315 20.7507 132.758 20.3828 133.279 20.1289C133.8 19.8685 134.389 19.7383 135.046 19.7383C135.73 19.7383 136.313 19.862 136.794 20.1094C137.283 20.3568 137.69 20.7116 138.015 21.1738C138.341 21.6296 138.595 22.1764 138.777 22.8145C138.966 23.446 139.106 24.1491 139.197 24.9238V25.5781C139.112 26.3333 138.969 27.0234 138.767 27.6484C138.565 28.2734 138.298 28.8138 137.966 29.2695C137.634 29.7253 137.224 30.0768 136.736 30.3242C136.254 30.5716 135.684 30.6953 135.027 30.6953C134.382 30.6953 133.8 30.5618 133.279 30.2949C132.764 30.028 132.322 29.6536 131.951 29.1719C131.586 28.6901 131.306 28.1237 131.111 27.4727C130.916 26.8151 130.818 26.1022 130.818 25.334ZM133.171 25.1289V25.334C133.171 25.8158 133.217 26.265 133.308 26.6816C133.406 27.0983 133.552 27.4661 133.748 27.7852C133.949 28.0977 134.203 28.3451 134.509 28.5273C134.822 28.7031 135.19 28.791 135.613 28.791C136.166 28.791 136.619 28.6738 136.97 28.4395C137.328 28.2051 137.602 27.8893 137.791 27.4922C137.986 27.0885 138.123 26.6393 138.201 26.1445V24.377C138.162 23.9928 138.08 23.6348 137.957 23.3027C137.839 22.9707 137.68 22.681 137.478 22.4336C137.276 22.1797 137.022 21.9844 136.716 21.8477C136.41 21.7044 136.049 21.6328 135.632 21.6328C135.209 21.6328 134.841 21.724 134.529 21.9062C134.216 22.0885 133.959 22.3392 133.757 22.6582C133.562 22.9772 133.416 23.3483 133.318 23.7715C133.22 24.1947 133.171 24.6471 133.171 25.1289ZM145.095 19.9336V30.5H142.732V19.9336H145.095ZM142.576 17.1602C142.576 16.8021 142.693 16.5059 142.927 16.2715C143.168 16.0306 143.5 15.9102 143.923 15.9102C144.34 15.9102 144.669 16.0306 144.91 16.2715C145.151 16.5059 145.271 16.8021 145.271 17.1602C145.271 17.5117 145.151 17.8047 144.91 18.0391C144.669 18.2734 144.34 18.3906 143.923 18.3906C143.5 18.3906 143.168 18.2734 142.927 18.0391C142.693 17.8047 142.576 17.5117 142.576 17.1602ZM150.007 22.1895V30.5H147.654V19.9336H149.871L150.007 22.1895ZM149.587 24.8262L148.826 24.8164C148.832 24.0677 148.936 23.3809 149.138 22.7559C149.347 22.1309 149.633 21.5938 149.998 21.1445C150.369 20.6953 150.811 20.3503 151.326 20.1094C151.84 19.862 152.413 19.7383 153.044 19.7383C153.552 19.7383 154.011 19.8099 154.421 19.9531C154.838 20.0898 155.193 20.3145 155.486 20.627C155.785 20.9395 156.013 21.3464 156.169 21.8477C156.326 22.3424 156.404 22.9512 156.404 23.6738V30.5H154.041V23.6641C154.041 23.1562 153.966 22.7559 153.816 22.4629C153.673 22.1634 153.461 21.9518 153.181 21.8281C152.908 21.6979 152.566 21.6328 152.156 21.6328C151.752 21.6328 151.391 21.7174 151.072 21.8867C150.753 22.056 150.483 22.2871 150.261 22.5801C150.046 22.873 149.88 23.2116 149.763 23.5957C149.646 23.9798 149.587 24.39 149.587 24.8262Z" fill="#FDFBF9"/>
</g>
<defs>
<filter id="filter0_d_598_5417" x="0.368652" y="0" width="265" height="54" filterUnits="userSpaceOnUse" color-interpolation-filters="sRGB">
<feFlood flood-opacity="0" result="BackgroundImageFix"/>
<feColorMatrix in="SourceAlpha" type="matrix" values="0 0 0 0 0 0 0 0 0 0 0 0 0 0 0 0 0 0 127 0" result="hardAlpha"/>
<feOffset dy="3"/>
<feGaussianBlur stdDeviation="3"/>
<feComposite in2="hardAlpha" operator="out"/>
<feColorMatrix type="matrix" values="0 0 0 0 0.172549 0 0 0 0 0.172549 0 0 0 0 0.172549 0 0 0 0.25 0"/>
<feBlend mode="normal" in2="BackgroundImageFix" result="effect1_dropShadow_598_5417"/>
<feBlend mode="normal" in="SourceGraphic" in2="effect1_dropShadow_598_5417" result="shape"/>
</filter>
</defs>
</svg>
