<svg width="189" height="49" viewBox="0 0 189 49" fill="none" xmlns="http://www.w3.org/2000/svg">
<g filter="url(#filter0_d_598_5423)">
<rect x="6.36865" y="3" width="176" height="37" rx="6" fill="#FDFBF9"/>
<rect x="7.36865" y="4" width="174" height="35" rx="5" stroke="#0567FF" stroke-width="2"/>
</g>
<path d="M55.6499 25.4453V27H49.939V25.4453H55.6499ZM50.4858 15.625V27H48.5249V15.625H50.4858ZM56.6187 22.8672V22.6875C56.6187 22.0781 56.7072 21.513 56.8843 20.9922C57.0614 20.4661 57.3166 20.0104 57.6499 19.625C57.9884 19.2344 58.3999 18.9323 58.8843 18.7188C59.3739 18.5 59.9259 18.3906 60.5405 18.3906C61.1603 18.3906 61.7124 18.5 62.1968 18.7188C62.6864 18.9323 63.1004 19.2344 63.439 19.625C63.7775 20.0104 64.0353 20.4661 64.2124 20.9922C64.3895 21.513 64.478 22.0781 64.478 22.6875V22.8672C64.478 23.4766 64.3895 24.0417 64.2124 24.5625C64.0353 25.0833 63.7775 25.5391 63.439 25.9297C63.1004 26.3151 62.689 26.6172 62.2046 26.8359C61.7202 27.0495 61.1707 27.1562 60.5562 27.1562C59.9364 27.1562 59.3817 27.0495 58.8921 26.8359C58.4077 26.6172 57.9963 26.3151 57.6577 25.9297C57.3192 25.5391 57.0614 25.0833 56.8843 24.5625C56.7072 24.0417 56.6187 23.4766 56.6187 22.8672ZM58.5015 22.6875V22.8672C58.5015 23.2474 58.5405 23.6068 58.6187 23.9453C58.6968 24.2839 58.8192 24.5807 58.9858 24.8359C59.1525 25.0911 59.366 25.2917 59.6265 25.4375C59.8869 25.5833 60.1968 25.6562 60.5562 25.6562C60.9051 25.6562 61.2072 25.5833 61.4624 25.4375C61.7228 25.2917 61.9364 25.0911 62.103 24.8359C62.2697 24.5807 62.3921 24.2839 62.4702 23.9453C62.5535 23.6068 62.5952 23.2474 62.5952 22.8672V22.6875C62.5952 22.3125 62.5535 21.9583 62.4702 21.625C62.3921 21.2865 62.2671 20.987 62.0952 20.7266C61.9285 20.4661 61.715 20.263 61.4546 20.1172C61.1994 19.9661 60.8947 19.8906 60.5405 19.8906C60.1864 19.8906 59.8791 19.9661 59.6187 20.1172C59.3634 20.263 59.1525 20.4661 58.9858 20.7266C58.8192 20.987 58.6968 21.2865 58.6187 21.625C58.5405 21.9583 58.5015 22.3125 58.5015 22.6875ZM67.9468 20.1562V27H66.064V18.5469H67.8608L67.9468 20.1562ZM70.5327 18.4922L70.5171 20.2422C70.4025 20.2214 70.2775 20.2057 70.1421 20.1953C70.0119 20.1849 69.8817 20.1797 69.7515 20.1797C69.4285 20.1797 69.1447 20.2266 68.8999 20.3203C68.6551 20.4089 68.4494 20.5391 68.2827 20.7109C68.1213 20.8776 67.9963 21.0807 67.9077 21.3203C67.8192 21.5599 67.7671 21.8281 67.7515 22.125L67.3218 22.1562C67.3218 21.625 67.3739 21.1328 67.478 20.6797C67.5822 20.2266 67.7384 19.8281 67.9468 19.4844C68.1603 19.1406 68.4259 18.8724 68.7437 18.6797C69.0666 18.487 69.439 18.3906 69.8608 18.3906C69.9754 18.3906 70.0978 18.401 70.228 18.4219C70.3634 18.4427 70.465 18.4661 70.5327 18.4922ZM75.2827 27.1562C74.6577 27.1562 74.0926 27.0547 73.5874 26.8516C73.0874 26.6432 72.6603 26.3542 72.3062 25.9844C71.9572 25.6146 71.689 25.1797 71.5015 24.6797C71.314 24.1797 71.2202 23.6406 71.2202 23.0625V22.75C71.2202 22.0885 71.3166 21.4896 71.5093 20.9531C71.702 20.4167 71.9702 19.9583 72.314 19.5781C72.6577 19.1927 73.064 18.8984 73.5327 18.6953C74.0015 18.4922 74.5093 18.3906 75.0562 18.3906C75.6603 18.3906 76.189 18.4922 76.6421 18.6953C77.0952 18.8984 77.4702 19.1849 77.7671 19.5547C78.0692 19.9193 78.2931 20.3542 78.439 20.8594C78.59 21.3646 78.6655 21.9219 78.6655 22.5312V23.3359H72.1343V21.9844H76.8062V21.8359C76.7957 21.4974 76.728 21.1797 76.603 20.8828C76.4832 20.5859 76.2983 20.3464 76.0483 20.1641C75.7983 19.9818 75.465 19.8906 75.0483 19.8906C74.7358 19.8906 74.4572 19.9583 74.2124 20.0938C73.9728 20.224 73.7723 20.4141 73.6108 20.6641C73.4494 20.9141 73.3244 21.2161 73.2358 21.5703C73.1525 21.9193 73.1108 22.3125 73.1108 22.75V23.0625C73.1108 23.4323 73.1603 23.776 73.2593 24.0938C73.3634 24.4062 73.5145 24.6797 73.7124 24.9141C73.9103 25.1484 74.1499 25.3333 74.4312 25.4688C74.7124 25.599 75.0327 25.6641 75.3921 25.6641C75.8452 25.6641 76.2489 25.5729 76.603 25.3906C76.9572 25.2083 77.2645 24.9505 77.5249 24.6172L78.5171 25.5781C78.3348 25.8438 78.0978 26.099 77.8062 26.3438C77.5145 26.5833 77.1577 26.7786 76.7358 26.9297C76.3192 27.0807 75.8348 27.1562 75.2827 27.1562ZM82.0171 20.2656V27H80.1343V18.5469H81.9077L82.0171 20.2656ZM81.7124 22.4609L81.0718 22.4531C81.0718 21.8698 81.1447 21.3307 81.2905 20.8359C81.4364 20.3411 81.6499 19.9115 81.9312 19.5469C82.2124 19.1771 82.5614 18.8932 82.978 18.6953C83.3999 18.4922 83.8869 18.3906 84.439 18.3906C84.8244 18.3906 85.1759 18.4479 85.4937 18.5625C85.8166 18.6719 86.0952 18.8464 86.3296 19.0859C86.5692 19.3255 86.7515 19.6328 86.8765 20.0078C87.0067 20.3828 87.0718 20.8359 87.0718 21.3672V27H85.189V21.5312C85.189 21.1198 85.1265 20.7969 85.0015 20.5625C84.8817 20.3281 84.7072 20.1615 84.478 20.0625C84.2541 19.9583 83.9858 19.9062 83.6733 19.9062C83.3192 19.9062 83.0171 19.974 82.7671 20.1094C82.5223 20.2448 82.3218 20.4297 82.1655 20.6641C82.0093 20.8984 81.8947 21.1693 81.8218 21.4766C81.7489 21.7839 81.7124 22.112 81.7124 22.4609ZM86.9546 21.9609L86.0718 22.1562C86.0718 21.6458 86.1421 21.1641 86.2827 20.7109C86.4285 20.2526 86.6395 19.8516 86.9155 19.5078C87.1968 19.1589 87.5431 18.8854 87.9546 18.6875C88.366 18.4896 88.8374 18.3906 89.3687 18.3906C89.8009 18.3906 90.1864 18.4505 90.5249 18.5703C90.8687 18.6849 91.1603 18.8672 91.3999 19.1172C91.6395 19.3672 91.8218 19.6927 91.9468 20.0938C92.0718 20.4896 92.1343 20.9688 92.1343 21.5312V27H90.2437V21.5234C90.2437 21.0964 90.1812 20.7656 90.0562 20.5312C89.9364 20.2969 89.7645 20.1354 89.5405 20.0469C89.3166 19.9531 89.0483 19.9062 88.7358 19.9062C88.4442 19.9062 88.1864 19.9609 87.9624 20.0703C87.7437 20.1745 87.5588 20.3229 87.4077 20.5156C87.2567 20.7031 87.1421 20.9193 87.064 21.1641C86.991 21.4089 86.9546 21.6745 86.9546 21.9609ZM100.072 18.5469V27H98.1812V18.5469H100.072ZM98.0562 16.3281C98.0562 16.0417 98.1499 15.8047 98.3374 15.6172C98.5301 15.4245 98.7957 15.3281 99.1343 15.3281C99.4676 15.3281 99.7306 15.4245 99.9233 15.6172C100.116 15.8047 100.212 16.0417 100.212 16.3281C100.212 16.6094 100.116 16.8438 99.9233 17.0312C99.7306 17.2188 99.4676 17.3125 99.1343 17.3125C98.7957 17.3125 98.5301 17.2188 98.3374 17.0312C98.1499 16.8438 98.0562 16.6094 98.0562 16.3281ZM104.025 20.1719V30.25H102.142V18.5469H103.876L104.025 20.1719ZM109.533 22.6953V22.8594C109.533 23.474 109.46 24.0443 109.314 24.5703C109.173 25.0911 108.962 25.5469 108.681 25.9375C108.405 26.3229 108.064 26.6224 107.658 26.8359C107.251 27.0495 106.783 27.1562 106.251 27.1562C105.725 27.1562 105.264 27.0599 104.869 26.8672C104.478 26.6693 104.147 26.3906 103.876 26.0312C103.606 25.6719 103.387 25.25 103.22 24.7656C103.059 24.276 102.944 23.7396 102.876 23.1562V22.5234C102.944 21.9036 103.059 21.3411 103.22 20.8359C103.387 20.3307 103.606 19.8958 103.876 19.5312C104.147 19.1667 104.478 18.8854 104.869 18.6875C105.259 18.4896 105.715 18.3906 106.236 18.3906C106.767 18.3906 107.238 18.4948 107.65 18.7031C108.061 18.9062 108.408 19.1979 108.689 19.5781C108.97 19.9531 109.181 20.4062 109.322 20.9375C109.462 21.4635 109.533 22.0495 109.533 22.6953ZM107.65 22.8594V22.6953C107.65 22.3047 107.613 21.9427 107.541 21.6094C107.468 21.2708 107.353 20.974 107.197 20.7188C107.041 20.4635 106.84 20.2656 106.595 20.125C106.356 19.9792 106.067 19.9062 105.728 19.9062C105.395 19.9062 105.108 19.9635 104.869 20.0781C104.629 20.1875 104.429 20.3411 104.267 20.5391C104.106 20.737 103.981 20.9688 103.892 21.2344C103.804 21.4948 103.741 21.7786 103.705 22.0859V23.6016C103.767 23.9766 103.874 24.3203 104.025 24.6328C104.176 24.9453 104.389 25.1953 104.666 25.3828C104.947 25.5651 105.306 25.6562 105.744 25.6562C106.082 25.6562 106.371 25.5833 106.611 25.4375C106.85 25.2917 107.046 25.0911 107.197 24.8359C107.353 24.5755 107.468 24.276 107.541 23.9375C107.613 23.599 107.65 23.2396 107.65 22.8594ZM115.876 24.7109C115.876 24.5234 115.83 24.3542 115.736 24.2031C115.642 24.0469 115.462 23.9062 115.197 23.7812C114.936 23.6562 114.551 23.5417 114.041 23.4375C113.593 23.3385 113.181 23.2214 112.806 23.0859C112.436 22.9453 112.119 22.776 111.853 22.5781C111.587 22.3802 111.382 22.1458 111.236 21.875C111.09 21.6042 111.017 21.2917 111.017 20.9375C111.017 20.5938 111.093 20.2682 111.244 19.9609C111.395 19.6536 111.611 19.3828 111.892 19.1484C112.173 18.9141 112.514 18.7292 112.916 18.5938C113.322 18.4583 113.775 18.3906 114.275 18.3906C114.983 18.3906 115.59 18.5104 116.095 18.75C116.606 18.9844 116.996 19.3047 117.267 19.7109C117.538 20.112 117.673 20.5651 117.673 21.0703H115.791C115.791 20.8464 115.733 20.638 115.619 20.4453C115.509 20.2474 115.343 20.0885 115.119 19.9688C114.895 19.8438 114.613 19.7812 114.275 19.7812C113.952 19.7812 113.684 19.8333 113.47 19.9375C113.262 20.0365 113.106 20.1667 113.001 20.3281C112.903 20.4896 112.853 20.6667 112.853 20.8594C112.853 21 112.879 21.1276 112.931 21.2422C112.988 21.3516 113.082 21.4531 113.212 21.5469C113.343 21.6354 113.52 21.7188 113.744 21.7969C113.973 21.875 114.259 21.9505 114.603 22.0234C115.249 22.1589 115.804 22.3333 116.267 22.5469C116.736 22.7552 117.095 23.026 117.345 23.3594C117.595 23.6875 117.72 24.1042 117.72 24.6094C117.72 24.9844 117.639 25.3281 117.478 25.6406C117.322 25.9479 117.093 26.2161 116.791 26.4453C116.488 26.6693 116.126 26.8438 115.705 26.9688C115.288 27.0938 114.819 27.1562 114.298 27.1562C113.533 27.1562 112.884 27.0208 112.353 26.75C111.822 26.474 111.418 26.1224 111.142 25.6953C110.871 25.263 110.736 24.8151 110.736 24.3516H112.556C112.577 24.7005 112.673 24.9792 112.845 25.1875C113.022 25.3906 113.241 25.5391 113.501 25.6328C113.767 25.7214 114.041 25.7656 114.322 25.7656C114.66 25.7656 114.944 25.7214 115.173 25.6328C115.403 25.5391 115.577 25.4141 115.697 25.2578C115.817 25.0964 115.876 24.9141 115.876 24.7109ZM124.455 25.0078V18.5469H126.345V27H124.564L124.455 25.0078ZM124.72 23.25L125.353 23.2344C125.353 23.8021 125.291 24.3255 125.166 24.8047C125.041 25.2786 124.848 25.6927 124.587 26.0469C124.327 26.3958 123.994 26.6693 123.587 26.8672C123.181 27.0599 122.694 27.1562 122.126 27.1562C121.715 27.1562 121.337 27.0964 120.994 26.9766C120.65 26.8568 120.353 26.6719 120.103 26.4219C119.858 26.1719 119.668 25.8464 119.533 25.4453C119.397 25.0443 119.33 24.5651 119.33 24.0078V18.5469H121.212V24.0234C121.212 24.3307 121.249 24.5885 121.322 24.7969C121.395 25 121.494 25.1641 121.619 25.2891C121.744 25.4141 121.889 25.5026 122.056 25.5547C122.223 25.6068 122.4 25.6328 122.587 25.6328C123.124 25.6328 123.546 25.5286 123.853 25.3203C124.166 25.1068 124.387 24.8203 124.517 24.4609C124.653 24.1016 124.72 23.6979 124.72 23.25ZM130.158 20.2656V27H128.275V18.5469H130.048L130.158 20.2656ZM129.853 22.4609L129.212 22.4531C129.212 21.8698 129.285 21.3307 129.431 20.8359C129.577 20.3411 129.791 19.9115 130.072 19.5469C130.353 19.1771 130.702 18.8932 131.119 18.6953C131.541 18.4922 132.028 18.3906 132.58 18.3906C132.965 18.3906 133.317 18.4479 133.634 18.5625C133.957 18.6719 134.236 18.8464 134.47 19.0859C134.71 19.3255 134.892 19.6328 135.017 20.0078C135.147 20.3828 135.212 20.8359 135.212 21.3672V27H133.33V21.5312C133.33 21.1198 133.267 20.7969 133.142 20.5625C133.022 20.3281 132.848 20.1615 132.619 20.0625C132.395 19.9583 132.126 19.9062 131.814 19.9062C131.46 19.9062 131.158 19.974 130.908 20.1094C130.663 20.2448 130.462 20.4297 130.306 20.6641C130.15 20.8984 130.035 21.1693 129.962 21.4766C129.889 21.7839 129.853 22.112 129.853 22.4609ZM135.095 21.9609L134.212 22.1562C134.212 21.6458 134.283 21.1641 134.423 20.7109C134.569 20.2526 134.78 19.8516 135.056 19.5078C135.337 19.1589 135.684 18.8854 136.095 18.6875C136.507 18.4896 136.978 18.3906 137.509 18.3906C137.942 18.3906 138.327 18.4505 138.666 18.5703C139.009 18.6849 139.301 18.8672 139.541 19.1172C139.78 19.3672 139.962 19.6927 140.087 20.0938C140.212 20.4896 140.275 20.9688 140.275 21.5312V27H138.384V21.5234C138.384 21.0964 138.322 20.7656 138.197 20.5312C138.077 20.2969 137.905 20.1354 137.681 20.0469C137.457 19.9531 137.189 19.9062 136.876 19.9062C136.585 19.9062 136.327 19.9609 136.103 20.0703C135.884 20.1745 135.699 20.3229 135.548 20.5156C135.397 20.7031 135.283 20.9193 135.205 21.1641C135.132 21.4089 135.095 21.6745 135.095 21.9609Z" fill="#0567FF"/>
<defs>
<filter id="filter0_d_598_5423" x="0.368652" y="0" width="188" height="49" filterUnits="userSpaceOnUse" color-interpolation-filters="sRGB">
<feFlood flood-opacity="0" result="BackgroundImageFix"/>
<feColorMatrix in="SourceAlpha" type="matrix" values="0 0 0 0 0 0 0 0 0 0 0 0 0 0 0 0 0 0 127 0" result="hardAlpha"/>
<feOffset dy="3"/>
<feGaussianBlur stdDeviation="3"/>
<feComposite in2="hardAlpha" operator="out"/>
<feColorMatrix type="matrix" values="0 0 0 0 0 0 0 0 0 0 0 0 0 0 0 0 0 0 0.25 0"/>
<feBlend mode="normal" in2="BackgroundImageFix" result="effect1_dropShadow_598_5423"/>
<feBlend mode="normal" in="SourceGraphic" in2="effect1_dropShadow_598_5423" result="shape"/>
</filter>
</defs>
</svg>
