<svg width="140" height="19" viewBox="0 0 140 19" fill="none" xmlns="http://www.w3.org/2000/svg">
<path d="M9.97021 13.4453V15H3.93115V13.4453H9.97021ZM4.48584 3.625V15H2.5249V3.625H4.48584ZM9.18115 8.375V9.90625H3.93115V8.375H9.18115ZM9.93115 3.625V5.1875H3.93115V3.625H9.93115ZM16.1265 12.7109C16.1265 12.5234 16.0796 12.3542 15.9858 12.2031C15.8921 12.0469 15.7124 11.9062 15.4468 11.7812C15.1864 11.6562 14.8009 11.5417 14.2905 11.4375C13.8426 11.3385 13.4312 11.2214 13.0562 11.0859C12.6864 10.9453 12.3687 10.776 12.103 10.5781C11.8374 10.3802 11.6317 10.1458 11.4858 9.875C11.34 9.60417 11.2671 9.29167 11.2671 8.9375C11.2671 8.59375 11.3426 8.26823 11.4937 7.96094C11.6447 7.65365 11.8608 7.38281 12.1421 7.14844C12.4233 6.91406 12.7645 6.72917 13.1655 6.59375C13.5718 6.45833 14.0249 6.39062 14.5249 6.39062C15.2332 6.39062 15.84 6.51042 16.3452 6.75C16.8556 6.98438 17.2463 7.30469 17.5171 7.71094C17.7879 8.11198 17.9233 8.5651 17.9233 9.07031H16.0405C16.0405 8.84635 15.9832 8.63802 15.8687 8.44531C15.7593 8.2474 15.5926 8.08854 15.3687 7.96875C15.1447 7.84375 14.8634 7.78125 14.5249 7.78125C14.202 7.78125 13.9338 7.83333 13.7202 7.9375C13.5119 8.03646 13.3556 8.16667 13.2515 8.32812C13.1525 8.48958 13.103 8.66667 13.103 8.85938C13.103 9 13.1291 9.1276 13.1812 9.24219C13.2384 9.35156 13.3322 9.45312 13.4624 9.54688C13.5926 9.63542 13.7697 9.71875 13.9937 9.79688C14.2228 9.875 14.5093 9.95052 14.853 10.0234C15.4989 10.1589 16.0535 10.3333 16.5171 10.5469C16.9858 10.7552 17.3452 11.026 17.5952 11.3594C17.8452 11.6875 17.9702 12.1042 17.9702 12.6094C17.9702 12.9844 17.8895 13.3281 17.728 13.6406C17.5718 13.9479 17.3426 14.2161 17.0405 14.4453C16.7384 14.6693 16.3765 14.8438 15.9546 14.9688C15.5379 15.0938 15.0692 15.1562 14.5483 15.1562C13.7827 15.1562 13.1343 15.0208 12.603 14.75C12.0718 14.474 11.6681 14.1224 11.3921 13.6953C11.1213 13.263 10.9858 12.8151 10.9858 12.3516H12.8062C12.827 12.7005 12.9233 12.9792 13.0952 13.1875C13.2723 13.3906 13.491 13.5391 13.7515 13.6328C14.0171 13.7214 14.2905 13.7656 14.5718 13.7656C14.9103 13.7656 15.1942 13.7214 15.4233 13.6328C15.6525 13.5391 15.827 13.4141 15.9468 13.2578C16.0666 13.0964 16.1265 12.9141 16.1265 12.7109ZM24.7671 18.25V8.22656L24.9858 6.54688H26.6655V18.25H24.7671ZM19.2749 10.8594V10.6953C19.2749 10.0547 19.3478 9.47135 19.4937 8.94531C19.6395 8.41406 19.8556 7.95833 20.1421 7.57812C20.4285 7.19792 20.7775 6.90625 21.189 6.70312C21.6004 6.49479 22.0744 6.39062 22.6108 6.39062C23.1317 6.39062 23.5848 6.48958 23.9702 6.6875C24.3608 6.88542 24.689 7.16927 24.9546 7.53906C25.2254 7.90365 25.4416 8.33854 25.603 8.84375C25.7645 9.34896 25.8817 9.91146 25.9546 10.5312V11.0547C25.8869 11.6589 25.7723 12.2109 25.6108 12.7109C25.4494 13.2109 25.2332 13.6432 24.9624 14.0078C24.6916 14.3724 24.3608 14.6562 23.9702 14.8594C23.5796 15.0573 23.1213 15.1562 22.5952 15.1562C22.0692 15.1562 21.6004 15.0495 21.189 14.8359C20.7775 14.6224 20.4285 14.3229 20.1421 13.9375C19.8608 13.5469 19.6447 13.0911 19.4937 12.5703C19.3478 12.0443 19.2749 11.474 19.2749 10.8594ZM21.1577 10.6953V10.8594C21.1577 11.2448 21.1916 11.6068 21.2593 11.9453C21.3322 12.2786 21.4468 12.5755 21.603 12.8359C21.7593 13.0911 21.9572 13.2917 22.1968 13.4375C22.4364 13.5833 22.7254 13.6562 23.064 13.6562C23.5067 13.6562 23.8687 13.5599 24.1499 13.3672C24.4364 13.1745 24.6551 12.9167 24.8062 12.5938C24.9624 12.2656 25.0718 11.9036 25.1343 11.5078V10.0938C25.0978 9.78646 25.0327 9.5 24.939 9.23438C24.8452 8.96354 24.715 8.72917 24.5483 8.53125C24.3869 8.32812 24.1838 8.17188 23.939 8.0625C23.6994 7.94792 23.4129 7.89062 23.0796 7.89062C22.741 7.89062 22.4494 7.96354 22.2046 8.10938C21.9598 8.25521 21.7593 8.45833 21.603 8.71875C21.452 8.97396 21.34 9.27083 21.2671 9.60938C21.1942 9.94792 21.1577 10.3099 21.1577 10.6953ZM33.7671 13.0078V6.54688H35.6577V15H33.8765L33.7671 13.0078ZM34.0327 11.25L34.6655 11.2344C34.6655 11.8021 34.603 12.3255 34.478 12.8047C34.353 13.2786 34.1603 13.6927 33.8999 14.0469C33.6395 14.3958 33.3062 14.6693 32.8999 14.8672C32.4937 15.0599 32.0067 15.1562 31.439 15.1562C31.0275 15.1562 30.6499 15.0964 30.3062 14.9766C29.9624 14.8568 29.6655 14.6719 29.4155 14.4219C29.1707 14.1719 28.9806 13.8464 28.8452 13.4453C28.7098 13.0443 28.6421 12.5651 28.6421 12.0078V6.54688H30.5249V12.0234C30.5249 12.3307 30.5614 12.5885 30.6343 12.7969C30.7072 13 30.8062 13.1641 30.9312 13.2891C31.0562 13.4141 31.202 13.5026 31.3687 13.5547C31.5353 13.6068 31.7124 13.6328 31.8999 13.6328C32.4364 13.6328 32.8582 13.5286 33.1655 13.3203C33.478 13.1068 33.6994 12.8203 33.8296 12.4609C33.965 12.1016 34.0327 11.6979 34.0327 11.25ZM41.314 15.1562C40.689 15.1562 40.1239 15.0547 39.6187 14.8516C39.1187 14.6432 38.6916 14.3542 38.3374 13.9844C37.9884 13.6146 37.7202 13.1797 37.5327 12.6797C37.3452 12.1797 37.2515 11.6406 37.2515 11.0625V10.75C37.2515 10.0885 37.3478 9.48958 37.5405 8.95312C37.7332 8.41667 38.0015 7.95833 38.3452 7.57812C38.689 7.19271 39.0952 6.89844 39.564 6.69531C40.0327 6.49219 40.5405 6.39062 41.0874 6.39062C41.6916 6.39062 42.2202 6.49219 42.6733 6.69531C43.1265 6.89844 43.5015 7.1849 43.7983 7.55469C44.1004 7.91927 44.3244 8.35417 44.4702 8.85938C44.6213 9.36458 44.6968 9.92188 44.6968 10.5312V11.3359H38.1655V9.98438H42.8374V9.83594C42.827 9.4974 42.7593 9.17969 42.6343 8.88281C42.5145 8.58594 42.3296 8.34635 42.0796 8.16406C41.8296 7.98177 41.4963 7.89062 41.0796 7.89062C40.7671 7.89062 40.4884 7.95833 40.2437 8.09375C40.0041 8.22396 39.8035 8.41406 39.6421 8.66406C39.4806 8.91406 39.3556 9.21615 39.2671 9.57031C39.1838 9.91927 39.1421 10.3125 39.1421 10.75V11.0625C39.1421 11.4323 39.1916 11.776 39.2905 12.0938C39.3947 12.4062 39.5457 12.6797 39.7437 12.9141C39.9416 13.1484 40.1812 13.3333 40.4624 13.4688C40.7437 13.599 41.064 13.6641 41.4233 13.6641C41.8765 13.6641 42.2801 13.5729 42.6343 13.3906C42.9884 13.2083 43.2957 12.9505 43.5562 12.6172L44.5483 13.5781C44.366 13.8438 44.1291 14.099 43.8374 14.3438C43.5457 14.5833 43.189 14.7786 42.7671 14.9297C42.3504 15.0807 41.866 15.1562 41.314 15.1562ZM49.6187 13.6562C49.9259 13.6562 50.202 13.5964 50.4468 13.4766C50.6968 13.3516 50.8973 13.1797 51.0483 12.9609C51.2046 12.7422 51.2905 12.4896 51.3062 12.2031H53.0796C53.0692 12.75 52.9077 13.2474 52.5952 13.6953C52.2827 14.1432 51.8687 14.5 51.353 14.7656C50.8374 15.026 50.2671 15.1562 49.6421 15.1562C48.9963 15.1562 48.4338 15.0469 47.9546 14.8281C47.4754 14.6042 47.077 14.2969 46.7593 13.9062C46.4416 13.5156 46.202 13.0651 46.0405 12.5547C45.8843 12.0443 45.8062 11.4974 45.8062 10.9141V10.6406C45.8062 10.0573 45.8843 9.51042 46.0405 9C46.202 8.48438 46.4416 8.03125 46.7593 7.64062C47.077 7.25 47.4754 6.94531 47.9546 6.72656C48.4338 6.5026 48.9937 6.39062 49.6343 6.39062C50.3114 6.39062 50.9051 6.52604 51.4155 6.79688C51.9259 7.0625 52.327 7.4349 52.6187 7.91406C52.9155 8.38802 53.0692 8.9401 53.0796 9.57031H51.3062C51.2905 9.25781 51.2124 8.97656 51.0718 8.72656C50.9364 8.47135 50.7437 8.26823 50.4937 8.11719C50.2489 7.96615 49.9546 7.89062 49.6108 7.89062C49.2306 7.89062 48.9155 7.96875 48.6655 8.125C48.4155 8.27604 48.2202 8.48438 48.0796 8.75C47.939 9.01042 47.8374 9.30469 47.7749 9.63281C47.7176 9.95573 47.689 10.2917 47.689 10.6406V10.9141C47.689 11.263 47.7176 11.6016 47.7749 11.9297C47.8322 12.2578 47.9312 12.5521 48.0718 12.8125C48.2176 13.0677 48.4155 13.2734 48.6655 13.4297C48.9155 13.5807 49.2332 13.6562 49.6187 13.6562ZM58.2515 15.1562C57.6265 15.1562 57.0614 15.0547 56.5562 14.8516C56.0562 14.6432 55.6291 14.3542 55.2749 13.9844C54.9259 13.6146 54.6577 13.1797 54.4702 12.6797C54.2827 12.1797 54.189 11.6406 54.189 11.0625V10.75C54.189 10.0885 54.2853 9.48958 54.478 8.95312C54.6707 8.41667 54.939 7.95833 55.2827 7.57812C55.6265 7.19271 56.0327 6.89844 56.5015 6.69531C56.9702 6.49219 57.478 6.39062 58.0249 6.39062C58.6291 6.39062 59.1577 6.49219 59.6108 6.69531C60.064 6.89844 60.439 7.1849 60.7358 7.55469C61.0379 7.91927 61.2619 8.35417 61.4077 8.85938C61.5588 9.36458 61.6343 9.92188 61.6343 10.5312V11.3359H55.103V9.98438H59.7749V9.83594C59.7645 9.4974 59.6968 9.17969 59.5718 8.88281C59.452 8.58594 59.2671 8.34635 59.0171 8.16406C58.7671 7.98177 58.4338 7.89062 58.0171 7.89062C57.7046 7.89062 57.4259 7.95833 57.1812 8.09375C56.9416 8.22396 56.741 8.41406 56.5796 8.66406C56.4181 8.91406 56.2931 9.21615 56.2046 9.57031C56.1213 9.91927 56.0796 10.3125 56.0796 10.75V11.0625C56.0796 11.4323 56.1291 11.776 56.228 12.0938C56.3322 12.4062 56.4832 12.6797 56.6812 12.9141C56.8791 13.1484 57.1187 13.3333 57.3999 13.4688C57.6812 13.599 58.0015 13.6641 58.3608 13.6641C58.814 13.6641 59.2176 13.5729 59.5718 13.3906C59.9259 13.2083 60.2332 12.9505 60.4937 12.6172L61.4858 13.5781C61.3035 13.8438 61.0666 14.099 60.7749 14.3438C60.4832 14.5833 60.1265 14.7786 59.7046 14.9297C59.2879 15.0807 58.8035 15.1562 58.2515 15.1562ZM68.189 13.0078V6.54688H70.0796V15H68.2983L68.189 13.0078ZM68.4546 11.25L69.0874 11.2344C69.0874 11.8021 69.0249 12.3255 68.8999 12.8047C68.7749 13.2786 68.5822 13.6927 68.3218 14.0469C68.0614 14.3958 67.728 14.6693 67.3218 14.8672C66.9155 15.0599 66.4285 15.1562 65.8608 15.1562C65.4494 15.1562 65.0718 15.0964 64.728 14.9766C64.3843 14.8568 64.0874 14.6719 63.8374 14.4219C63.5926 14.1719 63.4025 13.8464 63.2671 13.4453C63.1317 13.0443 63.064 12.5651 63.064 12.0078V6.54688H64.9468V12.0234C64.9468 12.3307 64.9832 12.5885 65.0562 12.7969C65.1291 13 65.228 13.1641 65.353 13.2891C65.478 13.4141 65.6239 13.5026 65.7905 13.5547C65.9572 13.6068 66.1343 13.6328 66.3218 13.6328C66.8582 13.6328 67.2801 13.5286 67.5874 13.3203C67.8999 13.1068 68.1213 12.8203 68.2515 12.4609C68.3869 12.1016 68.4546 11.6979 68.4546 11.25ZM80.7593 13.3047V9.27344C80.7593 8.97135 80.7046 8.71094 80.5952 8.49219C80.4858 8.27344 80.3192 8.10417 80.0952 7.98438C79.8765 7.86458 79.6004 7.80469 79.2671 7.80469C78.9598 7.80469 78.6942 7.85677 78.4702 7.96094C78.2463 8.0651 78.0718 8.20573 77.9468 8.38281C77.8218 8.5599 77.7593 8.76042 77.7593 8.98438H75.8843C75.8843 8.65104 75.965 8.32812 76.1265 8.01562C76.2879 7.70312 76.5223 7.42448 76.8296 7.17969C77.1369 6.9349 77.5041 6.74219 77.9312 6.60156C78.3582 6.46094 78.8374 6.39062 79.3687 6.39062C80.0041 6.39062 80.5666 6.4974 81.0562 6.71094C81.5509 6.92448 81.939 7.2474 82.2202 7.67969C82.5067 8.10677 82.6499 8.64323 82.6499 9.28906V13.0469C82.6499 13.4323 82.6759 13.7786 82.728 14.0859C82.7853 14.388 82.866 14.651 82.9702 14.875V15H81.0405C80.952 14.7969 80.8817 14.5391 80.8296 14.2266C80.7827 13.9089 80.7593 13.6016 80.7593 13.3047ZM81.0327 9.85938L81.0483 11.0234H79.6968C79.3478 11.0234 79.0405 11.0573 78.7749 11.125C78.5093 11.1875 78.2879 11.2812 78.1108 11.4062C77.9338 11.5312 77.8009 11.6823 77.7124 11.8594C77.6239 12.0365 77.5796 12.237 77.5796 12.4609C77.5796 12.6849 77.6317 12.8906 77.7358 13.0781C77.84 13.2604 77.991 13.4036 78.189 13.5078C78.3921 13.612 78.6369 13.6641 78.9233 13.6641C79.3088 13.6641 79.6447 13.5859 79.9312 13.4297C80.2228 13.2682 80.452 13.0729 80.6187 12.8438C80.7853 12.6094 80.8739 12.388 80.8843 12.1797L81.4937 13.0156C81.4312 13.2292 81.3244 13.4583 81.1733 13.7031C81.0223 13.9479 80.8244 14.1823 80.5796 14.4062C80.34 14.625 80.0509 14.8047 79.7124 14.9453C79.3791 15.0859 78.9937 15.1562 78.5562 15.1562C78.0041 15.1562 77.5119 15.0469 77.0796 14.8281C76.6473 14.6042 76.3088 14.3047 76.064 13.9297C75.8192 13.5495 75.6968 13.1198 75.6968 12.6406C75.6968 12.1927 75.7801 11.7969 75.9468 11.4531C76.1187 11.1042 76.3687 10.8125 76.6968 10.5781C77.0301 10.3438 77.4364 10.1667 77.9155 10.0469C78.3947 9.92188 78.9416 9.85938 79.5562 9.85938H81.0327ZM93.3452 12.7109C93.3452 12.5234 93.2983 12.3542 93.2046 12.2031C93.1108 12.0469 92.9312 11.9062 92.6655 11.7812C92.4051 11.6562 92.0197 11.5417 91.5093 11.4375C91.0614 11.3385 90.6499 11.2214 90.2749 11.0859C89.9051 10.9453 89.5874 10.776 89.3218 10.5781C89.0562 10.3802 88.8504 10.1458 88.7046 9.875C88.5588 9.60417 88.4858 9.29167 88.4858 8.9375C88.4858 8.59375 88.5614 8.26823 88.7124 7.96094C88.8634 7.65365 89.0796 7.38281 89.3608 7.14844C89.6421 6.91406 89.9832 6.72917 90.3843 6.59375C90.7905 6.45833 91.2437 6.39062 91.7437 6.39062C92.452 6.39062 93.0588 6.51042 93.564 6.75C94.0744 6.98438 94.465 7.30469 94.7358 7.71094C95.0067 8.11198 95.1421 8.5651 95.1421 9.07031H93.2593C93.2593 8.84635 93.202 8.63802 93.0874 8.44531C92.978 8.2474 92.8114 8.08854 92.5874 7.96875C92.3634 7.84375 92.0822 7.78125 91.7437 7.78125C91.4207 7.78125 91.1525 7.83333 90.939 7.9375C90.7306 8.03646 90.5744 8.16667 90.4702 8.32812C90.3713 8.48958 90.3218 8.66667 90.3218 8.85938C90.3218 9 90.3478 9.1276 90.3999 9.24219C90.4572 9.35156 90.5509 9.45312 90.6812 9.54688C90.8114 9.63542 90.9884 9.71875 91.2124 9.79688C91.4416 9.875 91.728 9.95052 92.0718 10.0234C92.7176 10.1589 93.2723 10.3333 93.7358 10.5469C94.2046 10.7552 94.564 11.026 94.814 11.3594C95.064 11.6875 95.189 12.1042 95.189 12.6094C95.189 12.9844 95.1082 13.3281 94.9468 13.6406C94.7905 13.9479 94.5614 14.2161 94.2593 14.4453C93.9572 14.6693 93.5952 14.8438 93.1733 14.9688C92.7567 15.0938 92.2879 15.1562 91.7671 15.1562C91.0015 15.1562 90.353 15.0208 89.8218 14.75C89.2905 14.474 88.8869 14.1224 88.6108 13.6953C88.34 13.263 88.2046 12.8151 88.2046 12.3516H90.0249C90.0457 12.7005 90.1421 12.9792 90.314 13.1875C90.491 13.3906 90.7098 13.5391 90.9702 13.6328C91.2358 13.7214 91.5093 13.7656 91.7905 13.7656C92.1291 13.7656 92.4129 13.7214 92.6421 13.6328C92.8713 13.5391 93.0457 13.4141 93.1655 13.2578C93.2853 13.0964 93.3452 12.9141 93.3452 12.7109ZM100.564 15.1562C99.939 15.1562 99.3739 15.0547 98.8687 14.8516C98.3687 14.6432 97.9416 14.3542 97.5874 13.9844C97.2384 13.6146 96.9702 13.1797 96.7827 12.6797C96.5952 12.1797 96.5015 11.6406 96.5015 11.0625V10.75C96.5015 10.0885 96.5978 9.48958 96.7905 8.95312C96.9832 8.41667 97.2515 7.95833 97.5952 7.57812C97.939 7.19271 98.3452 6.89844 98.814 6.69531C99.2827 6.49219 99.7905 6.39062 100.337 6.39062C100.942 6.39062 101.47 6.49219 101.923 6.69531C102.376 6.89844 102.751 7.1849 103.048 7.55469C103.35 7.91927 103.574 8.35417 103.72 8.85938C103.871 9.36458 103.947 9.92188 103.947 10.5312V11.3359H97.4155V9.98438H102.087V9.83594C102.077 9.4974 102.009 9.17969 101.884 8.88281C101.764 8.58594 101.58 8.34635 101.33 8.16406C101.08 7.98177 100.746 7.89062 100.33 7.89062C100.017 7.89062 99.7384 7.95833 99.4937 8.09375C99.2541 8.22396 99.0535 8.41406 98.8921 8.66406C98.7306 8.91406 98.6056 9.21615 98.5171 9.57031C98.4338 9.91927 98.3921 10.3125 98.3921 10.75V11.0625C98.3921 11.4323 98.4416 11.776 98.5405 12.0938C98.6447 12.4062 98.7957 12.6797 98.9937 12.9141C99.1916 13.1484 99.4312 13.3333 99.7124 13.4688C99.9937 13.599 100.314 13.6641 100.673 13.6641C101.126 13.6641 101.53 13.5729 101.884 13.3906C102.238 13.2083 102.546 12.9505 102.806 12.6172L103.798 13.5781C103.616 13.8438 103.379 14.099 103.087 14.3438C102.796 14.5833 102.439 14.7786 102.017 14.9297C101.6 15.0807 101.116 15.1562 100.564 15.1562ZM107.283 8.35156V15H105.4V6.54688H107.173L107.283 8.35156ZM106.947 10.4609L106.337 10.4531C106.343 9.85417 106.426 9.30469 106.587 8.80469C106.754 8.30469 106.983 7.875 107.275 7.51562C107.572 7.15625 107.926 6.88021 108.337 6.6875C108.749 6.48958 109.207 6.39062 109.712 6.39062C110.119 6.39062 110.486 6.44792 110.814 6.5625C111.147 6.67188 111.431 6.85156 111.666 7.10156C111.905 7.35156 112.087 7.67708 112.212 8.07812C112.337 8.47396 112.4 8.96094 112.4 9.53906V15H110.509V9.53125C110.509 9.125 110.449 8.80469 110.33 8.57031C110.215 8.33073 110.046 8.16146 109.822 8.0625C109.603 7.95833 109.33 7.90625 109.001 7.90625C108.679 7.90625 108.389 7.97396 108.134 8.10938C107.879 8.24479 107.663 8.42969 107.486 8.66406C107.314 8.89844 107.181 9.16927 107.087 9.47656C106.994 9.78385 106.947 10.112 106.947 10.4609ZM116.181 3V15H114.306V3H116.181ZM115.853 10.4609L115.244 10.4531C115.249 9.86979 115.33 9.33073 115.486 8.83594C115.647 8.34115 115.871 7.91146 116.158 7.54688C116.449 7.17708 116.798 6.89323 117.205 6.69531C117.611 6.49219 118.061 6.39062 118.556 6.39062C118.973 6.39062 119.348 6.44792 119.681 6.5625C120.02 6.67708 120.311 6.86198 120.556 7.11719C120.801 7.36719 120.986 7.69531 121.111 8.10156C121.241 8.5026 121.306 8.99219 121.306 9.57031V15H119.416V9.55469C119.416 9.14844 119.356 8.82552 119.236 8.58594C119.121 8.34635 118.952 8.17448 118.728 8.07031C118.504 7.96094 118.231 7.90625 117.908 7.90625C117.569 7.90625 117.27 7.97396 117.009 8.10938C116.754 8.24479 116.541 8.42969 116.369 8.66406C116.197 8.89844 116.067 9.16927 115.978 9.47656C115.895 9.78385 115.853 10.112 115.853 10.4609ZM127.978 13.3047V9.27344C127.978 8.97135 127.923 8.71094 127.814 8.49219C127.705 8.27344 127.538 8.10417 127.314 7.98438C127.095 7.86458 126.819 7.80469 126.486 7.80469C126.179 7.80469 125.913 7.85677 125.689 7.96094C125.465 8.0651 125.291 8.20573 125.166 8.38281C125.041 8.5599 124.978 8.76042 124.978 8.98438H123.103C123.103 8.65104 123.184 8.32812 123.345 8.01562C123.507 7.70312 123.741 7.42448 124.048 7.17969C124.356 6.9349 124.723 6.74219 125.15 6.60156C125.577 6.46094 126.056 6.39062 126.587 6.39062C127.223 6.39062 127.785 6.4974 128.275 6.71094C128.77 6.92448 129.158 7.2474 129.439 7.67969C129.725 8.10677 129.869 8.64323 129.869 9.28906V13.0469C129.869 13.4323 129.895 13.7786 129.947 14.0859C130.004 14.388 130.085 14.651 130.189 14.875V15H128.259C128.171 14.7969 128.1 14.5391 128.048 14.2266C128.001 13.9089 127.978 13.6016 127.978 13.3047ZM128.251 9.85938L128.267 11.0234H126.916C126.567 11.0234 126.259 11.0573 125.994 11.125C125.728 11.1875 125.507 11.2812 125.33 11.4062C125.153 11.5312 125.02 11.6823 124.931 11.8594C124.843 12.0365 124.798 12.237 124.798 12.4609C124.798 12.6849 124.85 12.8906 124.955 13.0781C125.059 13.2604 125.21 13.4036 125.408 13.5078C125.611 13.612 125.856 13.6641 126.142 13.6641C126.528 13.6641 126.863 13.5859 127.15 13.4297C127.442 13.2682 127.671 13.0729 127.837 12.8438C128.004 12.6094 128.093 12.388 128.103 12.1797L128.712 13.0156C128.65 13.2292 128.543 13.4583 128.392 13.7031C128.241 13.9479 128.043 14.1823 127.798 14.4062C127.559 14.625 127.27 14.8047 126.931 14.9453C126.598 15.0859 126.212 15.1562 125.775 15.1562C125.223 15.1562 124.731 15.0469 124.298 14.8281C123.866 14.6042 123.528 14.3047 123.283 13.9297C123.038 13.5495 122.916 13.1198 122.916 12.6406C122.916 12.1927 122.999 11.7969 123.166 11.4531C123.337 11.1042 123.587 10.8125 123.916 10.5781C124.249 10.3438 124.655 10.1667 125.134 10.0469C125.613 9.92188 126.16 9.85938 126.775 9.85938H128.251ZM135.361 11.6484H133.619C133.624 11.1641 133.666 10.7578 133.744 10.4297C133.822 10.0964 133.952 9.79427 134.134 9.52344C134.322 9.2526 134.569 8.96615 134.876 8.66406C135.116 8.4349 135.332 8.21875 135.525 8.01562C135.718 7.80729 135.871 7.58854 135.986 7.35938C136.1 7.125 136.158 6.85677 136.158 6.55469C136.158 6.22656 136.103 5.94792 135.994 5.71875C135.884 5.48958 135.723 5.3151 135.509 5.19531C135.301 5.07552 135.041 5.01562 134.728 5.01562C134.468 5.01562 134.223 5.06771 133.994 5.17188C133.764 5.27083 133.58 5.42708 133.439 5.64062C133.298 5.84896 133.223 6.125 133.212 6.46875H131.33C131.34 5.8125 131.496 5.26042 131.798 4.8125C132.1 4.36458 132.507 4.02865 133.017 3.80469C133.528 3.58073 134.098 3.46875 134.728 3.46875C135.426 3.46875 136.022 3.58854 136.517 3.82812C137.012 4.0625 137.389 4.40625 137.65 4.85938C137.916 5.30729 138.048 5.84896 138.048 6.48438C138.048 6.94271 137.957 7.35938 137.775 7.73438C137.593 8.10417 137.356 8.45052 137.064 8.77344C136.772 9.09115 136.457 9.40885 136.119 9.72656C135.827 9.99219 135.629 10.2812 135.525 10.5938C135.421 10.901 135.366 11.2526 135.361 11.6484ZM133.462 14.0859C133.462 13.8047 133.559 13.5677 133.751 13.375C133.944 13.1771 134.207 13.0781 134.541 13.0781C134.874 13.0781 135.137 13.1771 135.33 13.375C135.522 13.5677 135.619 13.8047 135.619 14.0859C135.619 14.3672 135.522 14.6068 135.33 14.8047C135.137 14.9974 134.874 15.0938 134.541 15.0938C134.207 15.0938 133.944 14.9974 133.751 14.8047C133.559 14.6068 133.462 14.3672 133.462 14.0859Z" fill="#0567FF"/>
<line x1="0.368652" y1="18" x2="139.369" y2="18" stroke="#0567FF" stroke-width="2"/>
</svg>
