<svg width="220" height="83" viewBox="0 0 220 83" fill="none" xmlns="http://www.w3.org/2000/svg">
<path d="M11.3687 12.1016V21.8016C11.3687 22.4016 11.8687 22.9016 12.4687 22.9016H26.3687C26.9687 22.9016 27.4687 22.4016 27.4687 21.8016V11.2016C27.4687 10.6016 26.9687 10.1016 26.3687 10.1016H13.3687H12.4687C11.8687 10.1016 11.3687 10.6016 11.3687 11.2016V12.1016Z" stroke="#2C2C2C" stroke-width="2" stroke-miterlimit="10"/>
<path d="M11.9687 10.7031L19.3687 16.6031L26.7687 10.7031" stroke="#2C2C2C" stroke-width="2" stroke-miterlimit="10" stroke-linecap="round" stroke-linejoin="round"/>
<path d="M44.0171 19.6719V21.5H37.9624V19.6719H44.0171ZM38.728 10.125V21.5H36.3843V10.125H38.728ZM43.228 14.7578V16.5391H37.9624V14.7578H43.228ZM44.0093 10.125V11.9609H37.9624V10.125H44.0093ZM47.4937 14.7969V21.5H45.2358V13.0469H47.353L47.4937 14.7969ZM47.1812 16.9766H46.5562C46.5562 16.388 46.6265 15.8464 46.7671 15.3516C46.9129 14.8516 47.1239 14.4193 47.3999 14.0547C47.6812 13.6849 48.0275 13.3984 48.439 13.1953C48.8504 12.9922 49.327 12.8906 49.8687 12.8906C50.2437 12.8906 50.5874 12.9479 50.8999 13.0625C51.2124 13.1719 51.4806 13.3464 51.7046 13.5859C51.9338 13.8203 52.1108 14.1276 52.2358 14.5078C52.3608 14.8828 52.4233 15.3333 52.4233 15.8594V21.5H50.1733V16.1094C50.1733 15.724 50.1213 15.4271 50.0171 15.2188C49.9129 15.0104 49.7645 14.8646 49.5718 14.7812C49.3843 14.6979 49.1577 14.6562 48.8921 14.6562C48.6004 14.6562 48.3452 14.7161 48.1265 14.8359C47.9129 14.9557 47.7358 15.1224 47.5952 15.3359C47.4546 15.5443 47.3504 15.7891 47.2827 16.0703C47.215 16.3516 47.1812 16.6536 47.1812 16.9766ZM52.2124 16.7188L51.4077 16.8203C51.4077 16.2682 51.4754 15.7552 51.6108 15.2812C51.7515 14.8073 51.9572 14.3906 52.228 14.0312C52.5041 13.6719 52.8452 13.3932 53.2515 13.1953C53.6577 12.9922 54.1265 12.8906 54.6577 12.8906C55.064 12.8906 55.4338 12.9505 55.7671 13.0703C56.1004 13.1849 56.3843 13.3698 56.6187 13.625C56.8582 13.875 57.0405 14.2031 57.1655 14.6094C57.2957 15.0156 57.3608 15.513 57.3608 16.1016V21.5H55.103V16.1016C55.103 15.7109 55.0509 15.4141 54.9468 15.2109C54.8478 15.0026 54.702 14.8594 54.5093 14.7812C54.3218 14.6979 54.0978 14.6562 53.8374 14.6562C53.5666 14.6562 53.3296 14.7109 53.1265 14.8203C52.9233 14.9245 52.7541 15.0703 52.6187 15.2578C52.4832 15.4453 52.3817 15.6641 52.314 15.9141C52.2463 16.1589 52.2124 16.4271 52.2124 16.7188ZM63.6655 19.5938V15.8281C63.6655 15.5573 63.6213 15.3255 63.5327 15.1328C63.4442 14.9349 63.3062 14.7812 63.1187 14.6719C62.9364 14.5625 62.6994 14.5078 62.4077 14.5078C62.1577 14.5078 61.9416 14.5521 61.7593 14.6406C61.577 14.724 61.4364 14.8464 61.3374 15.0078C61.2384 15.1641 61.189 15.349 61.189 15.5625H58.939C58.939 15.2031 59.0223 14.862 59.189 14.5391C59.3556 14.2161 59.5978 13.9323 59.9155 13.6875C60.2332 13.4375 60.6108 13.2422 61.0483 13.1016C61.491 12.9609 61.9858 12.8906 62.5327 12.8906C63.189 12.8906 63.7723 13 64.2827 13.2188C64.7931 13.4375 65.1942 13.7656 65.4858 14.2031C65.7827 14.6406 65.9312 15.1875 65.9312 15.8438V19.4609C65.9312 19.9245 65.9598 20.3047 66.0171 20.6016C66.0744 20.8932 66.1577 21.1484 66.2671 21.3672V21.5H63.9937C63.8843 21.2708 63.8009 20.9844 63.7437 20.6406C63.6916 20.2917 63.6655 19.9427 63.6655 19.5938ZM63.9624 16.3516L63.978 17.625H62.7202C62.4233 17.625 62.1655 17.6589 61.9468 17.7266C61.728 17.7943 61.5483 17.8906 61.4077 18.0156C61.2671 18.1354 61.1629 18.276 61.0952 18.4375C61.0327 18.599 61.0015 18.776 61.0015 18.9688C61.0015 19.1615 61.0457 19.3359 61.1343 19.4922C61.2228 19.6432 61.3504 19.763 61.5171 19.8516C61.6838 19.9349 61.8791 19.9766 62.103 19.9766C62.4416 19.9766 62.7358 19.9089 62.9858 19.7734C63.2358 19.638 63.4285 19.4714 63.564 19.2734C63.7046 19.0755 63.7775 18.888 63.7827 18.7109L64.3765 19.6641C64.2931 19.8776 64.1785 20.099 64.0327 20.3281C63.8921 20.5573 63.7124 20.7734 63.4937 20.9766C63.2749 21.1745 63.0119 21.3385 62.7046 21.4688C62.3973 21.5938 62.0327 21.6562 61.6108 21.6562C61.0744 21.6562 60.5874 21.5495 60.1499 21.3359C59.7176 21.1172 59.3739 20.8177 59.1187 20.4375C58.8687 20.0521 58.7437 19.6146 58.7437 19.125C58.7437 18.6823 58.827 18.2891 58.9937 17.9453C59.1603 17.6016 59.4051 17.3125 59.728 17.0781C60.0562 16.8385 60.465 16.6589 60.9546 16.5391C61.4442 16.4141 62.0119 16.3516 62.6577 16.3516H63.9624ZM70.0405 13.0469V21.5H67.7827V13.0469H70.0405ZM67.6421 10.8438C67.6421 10.5156 67.7567 10.2448 67.9858 10.0312C68.215 9.81771 68.5223 9.71094 68.9077 9.71094C69.2879 9.71094 69.5926 9.81771 69.8218 10.0312C70.0562 10.2448 70.1733 10.5156 70.1733 10.8438C70.1733 11.1719 70.0562 11.4427 69.8218 11.6562C69.5926 11.8698 69.2879 11.9766 68.9077 11.9766C68.5223 11.9766 68.215 11.8698 67.9858 11.6562C67.7567 11.4427 67.6421 11.1719 67.6421 10.8438ZM74.2749 9.5V21.5H72.0171V9.5H74.2749Z" fill="#2C2C2C"/>
<path d="M81.9593 13.275L82.9999 11.9953L81.4952 11.5734L81.7858 10.7203L83.2671 11.3203L83.164 9.675H84.1155L84.0077 11.3484L85.4562 10.7625L85.7421 11.6297L84.214 12.0516L85.2218 13.2984L84.453 13.8328L83.5905 12.4594L82.728 13.7906L81.9593 13.275Z" fill="#2C2C2C"/>
<rect x="9.86865" y="31.5" width="204" height="33" rx="5.5" fill="#FDFBF9"/>
<path d="M27.6421 51.5469V45.0469H29.0952V53.5H27.7124L27.6421 51.5469ZM27.9155 49.7656L28.5171 49.75C28.5171 50.3125 28.4572 50.8333 28.3374 51.3125C28.2228 51.7865 28.0353 52.1979 27.7749 52.5469C27.5145 52.8958 27.1733 53.1693 26.7515 53.3672C26.3296 53.5599 25.8166 53.6562 25.2124 53.6562C24.8009 53.6562 24.4233 53.5964 24.0796 53.4766C23.741 53.3568 23.4494 53.1719 23.2046 52.9219C22.9598 52.6719 22.7697 52.3464 22.6343 51.9453C22.5041 51.5443 22.439 51.0625 22.439 50.5V45.0469H23.8843V50.5156C23.8843 50.8958 23.9259 51.2109 24.0093 51.4609C24.0978 51.7057 24.215 51.901 24.3608 52.0469C24.5119 52.1875 24.6785 52.2865 24.8608 52.3438C25.0483 52.401 25.241 52.4297 25.439 52.4297C26.0535 52.4297 26.5405 52.3125 26.8999 52.0781C27.2593 51.8385 27.5171 51.5182 27.6733 51.1172C27.8348 50.7109 27.9155 50.2604 27.9155 49.7656ZM32.7358 46.7266V53.5H31.2827V45.0469H32.6577L32.7358 46.7266ZM32.439 48.9531L31.7671 48.9297C31.7723 48.3516 31.8478 47.8177 31.9937 47.3281C32.1395 46.8333 32.3556 46.4036 32.6421 46.0391C32.9285 45.6745 33.2853 45.3932 33.7124 45.1953C34.1395 44.9922 34.6343 44.8906 35.1968 44.8906C35.5926 44.8906 35.9572 44.9479 36.2905 45.0625C36.6239 45.1719 36.9129 45.3464 37.1577 45.5859C37.4025 45.8255 37.5926 46.1328 37.728 46.5078C37.8634 46.8828 37.9312 47.3359 37.9312 47.8672V53.5H36.4858V47.9375C36.4858 47.4948 36.4103 47.1406 36.2593 46.875C36.1134 46.6094 35.9051 46.4167 35.6343 46.2969C35.3634 46.1719 35.0457 46.1094 34.6812 46.1094C34.2541 46.1094 33.8973 46.1849 33.6108 46.3359C33.3244 46.487 33.0952 46.6953 32.9233 46.9609C32.7515 47.2266 32.6265 47.5312 32.5483 47.875C32.4754 48.2135 32.439 48.5729 32.439 48.9531ZM37.9155 48.1562L36.9468 48.4531C36.952 47.9896 37.0275 47.5443 37.1733 47.1172C37.3244 46.6901 37.5405 46.3099 37.8218 45.9766C38.1082 45.6432 38.4598 45.3802 38.8765 45.1875C39.2931 44.9896 39.7697 44.8906 40.3062 44.8906C40.7593 44.8906 41.1603 44.9505 41.5093 45.0703C41.8634 45.1901 42.1603 45.375 42.3999 45.625C42.6447 45.8698 42.8296 46.1849 42.9546 46.5703C43.0796 46.9557 43.1421 47.4141 43.1421 47.9453V53.5H41.689V47.9297C41.689 47.4557 41.6134 47.0885 41.4624 46.8281C41.3166 46.5625 41.1082 46.3776 40.8374 46.2734C40.5718 46.1641 40.2541 46.1094 39.8843 46.1094C39.5666 46.1094 39.2853 46.1641 39.0405 46.2734C38.7957 46.3828 38.59 46.5339 38.4233 46.7266C38.2567 46.9141 38.1291 47.1302 38.0405 47.375C37.9572 47.6198 37.9155 47.8802 37.9155 48.1562ZM48.8374 53.6562C48.2489 53.6562 47.715 53.5573 47.2358 53.3594C46.7619 53.1562 46.353 52.8724 46.0093 52.5078C45.6707 52.1432 45.4103 51.7109 45.228 51.2109C45.0457 50.7109 44.9546 50.1641 44.9546 49.5703V49.2422C44.9546 48.5547 45.0562 47.9427 45.2593 47.4062C45.4624 46.8646 45.7384 46.4062 46.0874 46.0312C46.4364 45.6562 46.8322 45.3724 47.2749 45.1797C47.7176 44.987 48.1759 44.8906 48.6499 44.8906C49.2541 44.8906 49.7749 44.9948 50.2124 45.2031C50.6551 45.4115 51.0171 45.7031 51.2983 46.0781C51.5796 46.4479 51.7879 46.8854 51.9233 47.3906C52.0588 47.8906 52.1265 48.4375 52.1265 49.0312V49.6797H45.814V48.5H50.6812V48.3906C50.6603 48.0156 50.5822 47.651 50.4468 47.2969C50.3166 46.9427 50.1082 46.651 49.8218 46.4219C49.5353 46.1927 49.1447 46.0781 48.6499 46.0781C48.3218 46.0781 48.0197 46.1484 47.7437 46.2891C47.4676 46.4245 47.2306 46.6276 47.0327 46.8984C46.8348 47.1693 46.6812 47.5 46.5718 47.8906C46.4624 48.2812 46.4077 48.7318 46.4077 49.2422V49.5703C46.4077 49.9714 46.4624 50.349 46.5718 50.7031C46.6864 51.0521 46.8504 51.3594 47.064 51.625C47.2827 51.8906 47.5457 52.099 47.853 52.25C48.1655 52.401 48.5197 52.4766 48.9155 52.4766C49.4259 52.4766 49.8582 52.3724 50.2124 52.1641C50.5666 51.9557 50.8765 51.6771 51.1421 51.3281L52.0171 52.0234C51.8348 52.2995 51.603 52.5625 51.3218 52.8125C51.0405 53.0625 50.6942 53.2656 50.2827 53.4219C49.8765 53.5781 49.3947 53.6562 48.8374 53.6562ZM55.2515 46.7266V53.5H53.7983V45.0469H55.1733L55.2515 46.7266ZM54.9546 48.9531L54.2827 48.9297C54.2879 48.3516 54.3634 47.8177 54.5093 47.3281C54.6551 46.8333 54.8713 46.4036 55.1577 46.0391C55.4442 45.6745 55.8009 45.3932 56.228 45.1953C56.6551 44.9922 57.1499 44.8906 57.7124 44.8906C58.1082 44.8906 58.4728 44.9479 58.8062 45.0625C59.1395 45.1719 59.4285 45.3464 59.6733 45.5859C59.9181 45.8255 60.1082 46.1328 60.2437 46.5078C60.3791 46.8828 60.4468 47.3359 60.4468 47.8672V53.5H59.0015V47.9375C59.0015 47.4948 58.9259 47.1406 58.7749 46.875C58.6291 46.6094 58.4207 46.4167 58.1499 46.2969C57.8791 46.1719 57.5614 46.1094 57.1968 46.1094C56.7697 46.1094 56.4129 46.1849 56.1265 46.3359C55.84 46.487 55.6108 46.6953 55.439 46.9609C55.2671 47.2266 55.1421 47.5312 55.064 47.875C54.991 48.2135 54.9546 48.5729 54.9546 48.9531ZM60.4312 48.1562L59.4624 48.4531C59.4676 47.9896 59.5431 47.5443 59.689 47.1172C59.84 46.6901 60.0562 46.3099 60.3374 45.9766C60.6239 45.6432 60.9754 45.3802 61.3921 45.1875C61.8088 44.9896 62.2853 44.8906 62.8218 44.8906C63.2749 44.8906 63.6759 44.9505 64.0249 45.0703C64.3791 45.1901 64.6759 45.375 64.9155 45.625C65.1603 45.8698 65.3452 46.1849 65.4702 46.5703C65.5952 46.9557 65.6577 47.4141 65.6577 47.9453V53.5H64.2046V47.9297C64.2046 47.4557 64.1291 47.0885 63.978 46.8281C63.8322 46.5625 63.6239 46.3776 63.353 46.2734C63.0874 46.1641 62.7697 46.1094 62.3999 46.1094C62.0822 46.1094 61.8009 46.1641 61.5562 46.2734C61.3114 46.3828 61.1056 46.5339 60.939 46.7266C60.7723 46.9141 60.6447 47.1302 60.5562 47.375C60.4728 47.6198 60.4312 47.8802 60.4312 48.1562ZM72.8296 52.0547V47.7031C72.8296 47.3698 72.7619 47.0807 72.6265 46.8359C72.4963 46.5859 72.2983 46.3932 72.0327 46.2578C71.7671 46.1224 71.439 46.0547 71.0483 46.0547C70.6838 46.0547 70.3634 46.1172 70.0874 46.2422C69.8166 46.3672 69.603 46.5312 69.4468 46.7344C69.2957 46.9375 69.2202 47.1562 69.2202 47.3906H67.7749C67.7749 47.0885 67.853 46.7891 68.0093 46.4922C68.1655 46.1953 68.3895 45.9271 68.6812 45.6875C68.978 45.4427 69.3322 45.25 69.7437 45.1094C70.1603 44.9635 70.6239 44.8906 71.1343 44.8906C71.7489 44.8906 72.2905 44.9948 72.7593 45.2031C73.2332 45.4115 73.603 45.7266 73.8687 46.1484C74.1395 46.5651 74.2749 47.0885 74.2749 47.7188V51.6562C74.2749 51.9375 74.2983 52.237 74.3452 52.5547C74.3973 52.8724 74.4728 53.1458 74.5718 53.375V53.5H73.064C72.991 53.3333 72.9338 53.112 72.8921 52.8359C72.8504 52.5547 72.8296 52.2943 72.8296 52.0547ZM73.0796 48.375L73.0952 49.3906H71.6343C71.2228 49.3906 70.8556 49.4245 70.5327 49.4922C70.2098 49.5547 69.939 49.651 69.7202 49.7812C69.5015 49.9115 69.3348 50.0755 69.2202 50.2734C69.1056 50.4661 69.0483 50.6927 69.0483 50.9531C69.0483 51.2188 69.1082 51.4609 69.228 51.6797C69.3478 51.8984 69.5275 52.0729 69.7671 52.2031C70.0119 52.3281 70.3114 52.3906 70.6655 52.3906C71.1082 52.3906 71.4989 52.2969 71.8374 52.1094C72.1759 51.9219 72.4442 51.6927 72.6421 51.4219C72.8452 51.151 72.9546 50.888 72.9702 50.6328L73.5874 51.3281C73.5509 51.5469 73.452 51.7891 73.2905 52.0547C73.1291 52.3203 72.9129 52.5755 72.6421 52.8203C72.3765 53.0599 72.0588 53.2604 71.689 53.4219C71.3244 53.5781 70.9129 53.6562 70.4546 53.6562C69.8817 53.6562 69.3791 53.5443 68.9468 53.3203C68.5197 53.0964 68.1864 52.7969 67.9468 52.4219C67.7124 52.0417 67.5952 51.6172 67.5952 51.1484C67.5952 50.6953 67.6838 50.2969 67.8608 49.9531C68.0379 49.6042 68.2931 49.3151 68.6265 49.0859C68.9598 48.8516 69.3608 48.6745 69.8296 48.5547C70.2983 48.4349 70.8218 48.375 71.3999 48.375H73.0796ZM78.1187 45.0469V53.5H76.6655V45.0469H78.1187ZM76.5562 42.8047C76.5562 42.5703 76.6265 42.3724 76.7671 42.2109C76.9129 42.0495 77.1265 41.9688 77.4077 41.9688C77.6838 41.9688 77.8947 42.0495 78.0405 42.2109C78.1916 42.3724 78.2671 42.5703 78.2671 42.8047C78.2671 43.0286 78.1916 43.2214 78.0405 43.3828C77.8947 43.5391 77.6838 43.6172 77.4077 43.6172C77.1265 43.6172 76.9129 43.5391 76.7671 43.3828C76.6265 43.2214 76.5562 43.0286 76.5562 42.8047ZM82.0093 41.5V53.5H80.5562V41.5H82.0093ZM96.7905 49.5703C96.7697 50.0495 96.6968 50.5312 96.5718 51.0156C96.4468 51.4948 96.2593 51.9349 96.0093 52.3359C95.7593 52.737 95.4338 53.0599 95.0327 53.3047C94.6369 53.5443 94.1577 53.6641 93.5952 53.6641C93.2358 53.6641 92.9207 53.6016 92.6499 53.4766C92.3843 53.3464 92.1655 53.1615 91.9937 52.9219C91.827 52.6823 91.7098 52.3932 91.6421 52.0547C91.5796 51.7161 91.5692 51.3385 91.6108 50.9219L92.0093 46.5938H93.1577L92.7593 50.9219C92.728 51.3021 92.7358 51.612 92.7827 51.8516C92.8348 52.0911 92.9129 52.276 93.0171 52.4062C93.1213 52.5312 93.2384 52.6172 93.3687 52.6641C93.5041 52.7109 93.6343 52.7344 93.7593 52.7344C94.0718 52.7344 94.3504 52.6536 94.5952 52.4922C94.84 52.3255 95.0457 52.099 95.2124 51.8125C95.3843 51.5208 95.5171 51.1849 95.6108 50.8047C95.7046 50.4193 95.7619 50.0078 95.7827 49.5703C95.8192 48.7943 95.7827 48.0807 95.6733 47.4297C95.5692 46.7786 95.3895 46.2005 95.1343 45.6953C94.8843 45.1901 94.5562 44.763 94.1499 44.4141C93.7437 44.0651 93.2593 43.7995 92.6968 43.6172C92.1343 43.4349 91.491 43.3438 90.7671 43.3438C90.1108 43.3438 89.5041 43.4453 88.9468 43.6484C88.3947 43.8464 87.8973 44.1328 87.4546 44.5078C87.0171 44.8828 86.6395 45.3333 86.3218 45.8594C86.0093 46.3854 85.7619 46.9792 85.5796 47.6406C85.4025 48.2969 85.2983 49.0052 85.2671 49.7656C85.2306 50.5469 85.2723 51.2656 85.3921 51.9219C85.5119 52.5729 85.7046 53.1536 85.9702 53.6641C86.241 54.1797 86.5822 54.6146 86.9937 54.9688C87.4051 55.3281 87.8817 55.599 88.4233 55.7812C88.965 55.9688 89.5692 56.0625 90.2358 56.0625C90.6942 56.0625 91.1577 56.0078 91.6265 55.8984C92.1004 55.7891 92.4963 55.6406 92.814 55.4531L93.1108 56.3438C92.7463 56.5781 92.2905 56.7526 91.7437 56.8672C91.202 56.9818 90.689 57.0391 90.2046 57.0391C89.4129 57.0391 88.689 56.9297 88.0327 56.7109C87.3817 56.4974 86.8035 56.1823 86.2983 55.7656C85.7983 55.3542 85.3817 54.8516 85.0483 54.2578C84.715 53.6693 84.4702 52.9974 84.314 52.2422C84.1577 51.487 84.0978 50.6615 84.1343 49.7656C84.1707 48.9115 84.2983 48.1068 84.5171 47.3516C84.741 46.5964 85.0457 45.9115 85.4312 45.2969C85.8166 44.6823 86.2749 44.1536 86.8062 43.7109C87.3426 43.263 87.9442 42.9193 88.6108 42.6797C89.2827 42.4401 90.0119 42.3203 90.7983 42.3203C91.6004 42.3203 92.327 42.4297 92.978 42.6484C93.6291 42.8672 94.1994 43.1823 94.689 43.5938C95.1838 44.0052 95.5926 44.5078 95.9155 45.1016C96.2384 45.6953 96.4728 46.3672 96.6187 47.1172C96.7697 47.8672 96.827 48.6849 96.7905 49.5703ZM88.7671 50.2344C88.7306 50.599 88.7306 50.9245 88.7671 51.2109C88.8035 51.4974 88.8739 51.7396 88.978 51.9375C89.0822 52.1354 89.2176 52.2865 89.3843 52.3906C89.5562 52.4896 89.7567 52.5391 89.9858 52.5391C90.1369 52.5391 90.2957 52.5026 90.4624 52.4297C90.6291 52.3516 90.7931 52.2318 90.9546 52.0703C91.116 51.9089 91.2671 51.6979 91.4077 51.4375C91.5483 51.1771 91.6655 50.8646 91.7593 50.5L92.2749 51.0625C92.1551 51.4896 91.9989 51.8646 91.8062 52.1875C91.6187 52.5104 91.4077 52.7812 91.1733 53C90.939 53.2188 90.689 53.3854 90.4233 53.5C90.1629 53.6094 89.8973 53.6641 89.6265 53.6641C89.2463 53.6641 88.9129 53.5833 88.6265 53.4219C88.34 53.2552 88.1082 53.0208 87.9312 52.7188C87.7541 52.4167 87.6291 52.0573 87.5562 51.6406C87.4884 51.2188 87.478 50.75 87.5249 50.2344C87.5718 49.6875 87.6681 49.1823 87.814 48.7188C87.9598 48.2552 88.1395 47.8411 88.353 47.4766C88.5718 47.112 88.8166 46.8021 89.0874 46.5469C89.3634 46.2917 89.6551 46.099 89.9624 45.9688C90.2697 45.8333 90.5848 45.7656 90.9077 45.7656C91.4702 45.7656 91.9129 45.849 92.2358 46.0156C92.5588 46.1771 92.866 46.3698 93.1577 46.5938L92.4937 47.3672C92.3426 47.2214 92.1447 47.0859 91.8999 46.9609C91.6551 46.8359 91.366 46.7734 91.0327 46.7734C90.7463 46.7734 90.478 46.8464 90.228 46.9922C89.978 47.138 89.7515 47.3568 89.5483 47.6484C89.3504 47.9401 89.1838 48.3021 89.0483 48.7344C88.9129 49.1615 88.8192 49.6615 88.7671 50.2344ZM104.033 51.8594V41.5H105.486V53.5H104.158L104.033 51.8594ZM98.3452 49.3672V49.2031C98.3452 48.5573 98.4233 47.9714 98.5796 47.4453C98.741 46.9141 98.9676 46.4583 99.2593 46.0781C99.5562 45.6979 99.9077 45.4062 100.314 45.2031C100.725 44.9948 101.184 44.8906 101.689 44.8906C102.22 44.8906 102.684 44.9844 103.08 45.1719C103.481 45.3542 103.819 45.6224 104.095 45.9766C104.376 46.3255 104.598 46.7474 104.759 47.2422C104.921 47.737 105.033 48.2969 105.095 48.9219V49.6406C105.038 50.2604 104.926 50.8177 104.759 51.3125C104.598 51.8073 104.376 52.2292 104.095 52.5781C103.819 52.9271 103.481 53.1953 103.08 53.3828C102.679 53.5651 102.21 53.6562 101.673 53.6562C101.179 53.6562 100.725 53.5495 100.314 53.3359C99.9077 53.1224 99.5562 52.8229 99.2593 52.4375C98.9676 52.0521 98.741 51.599 98.5796 51.0781C98.4233 50.5521 98.3452 49.9818 98.3452 49.3672ZM99.7983 49.2031V49.3672C99.7983 49.7891 99.84 50.1849 99.9233 50.5547C100.012 50.9245 100.147 51.25 100.33 51.5312C100.512 51.8125 100.744 52.0339 101.025 52.1953C101.306 52.3516 101.642 52.4297 102.033 52.4297C102.512 52.4297 102.905 52.3281 103.212 52.125C103.525 51.9219 103.775 51.6536 103.962 51.3203C104.15 50.987 104.296 50.625 104.4 50.2344V48.3516C104.337 48.0651 104.246 47.7891 104.126 47.5234C104.012 47.2526 103.861 47.013 103.673 46.8047C103.491 46.5911 103.264 46.4219 102.994 46.2969C102.728 46.1719 102.413 46.1094 102.048 46.1094C101.653 46.1094 101.311 46.1927 101.025 46.3594C100.744 46.5208 100.512 46.7448 100.33 47.0312C100.147 47.3125 100.012 47.6406 99.9233 48.0156C99.84 48.3854 99.7983 48.7812 99.7983 49.2031ZM107.353 49.3672V49.1875C107.353 48.5781 107.442 48.013 107.619 47.4922C107.796 46.9661 108.051 46.5104 108.384 46.125C108.718 45.7344 109.121 45.4323 109.595 45.2188C110.069 45 110.6 44.8906 111.189 44.8906C111.783 44.8906 112.317 45 112.791 45.2188C113.27 45.4323 113.676 45.7344 114.009 46.125C114.348 46.5104 114.606 46.9661 114.783 47.4922C114.96 48.013 115.048 48.5781 115.048 49.1875V49.3672C115.048 49.9766 114.96 50.5417 114.783 51.0625C114.606 51.5833 114.348 52.0391 114.009 52.4297C113.676 52.8151 113.272 53.1172 112.798 53.3359C112.33 53.5495 111.798 53.6562 111.205 53.6562C110.611 53.6562 110.077 53.5495 109.603 53.3359C109.129 53.1172 108.723 52.8151 108.384 52.4297C108.051 52.0391 107.796 51.5833 107.619 51.0625C107.442 50.5417 107.353 49.9766 107.353 49.3672ZM108.798 49.1875V49.3672C108.798 49.7891 108.848 50.1875 108.947 50.5625C109.046 50.9323 109.194 51.2604 109.392 51.5469C109.595 51.8333 109.848 52.0599 110.15 52.2266C110.452 52.388 110.804 52.4688 111.205 52.4688C111.6 52.4688 111.947 52.388 112.244 52.2266C112.546 52.0599 112.796 51.8333 112.994 51.5469C113.192 51.2604 113.34 50.9323 113.439 50.5625C113.543 50.1875 113.595 49.7891 113.595 49.3672V49.1875C113.595 48.7708 113.543 48.3776 113.439 48.0078C113.34 47.6328 113.189 47.3021 112.986 47.0156C112.788 46.724 112.538 46.4948 112.236 46.3281C111.939 46.1615 111.59 46.0781 111.189 46.0781C110.793 46.0781 110.444 46.1615 110.142 46.3281C109.845 46.4948 109.595 46.724 109.392 47.0156C109.194 47.3021 109.046 47.6328 108.947 48.0078C108.848 48.3776 108.798 48.7708 108.798 49.1875ZM118.298 46.7266V53.5H116.845V45.0469H118.22L118.298 46.7266ZM118.001 48.9531L117.33 48.9297C117.335 48.3516 117.41 47.8177 117.556 47.3281C117.702 46.8333 117.918 46.4036 118.205 46.0391C118.491 45.6745 118.848 45.3932 119.275 45.1953C119.702 44.9922 120.197 44.8906 120.759 44.8906C121.155 44.8906 121.52 44.9479 121.853 45.0625C122.186 45.1719 122.475 45.3464 122.72 45.5859C122.965 45.8255 123.155 46.1328 123.291 46.5078C123.426 46.8828 123.494 47.3359 123.494 47.8672V53.5H122.048V47.9375C122.048 47.4948 121.973 47.1406 121.822 46.875C121.676 46.6094 121.468 46.4167 121.197 46.2969C120.926 46.1719 120.608 46.1094 120.244 46.1094C119.817 46.1094 119.46 46.1849 119.173 46.3359C118.887 46.487 118.658 46.6953 118.486 46.9609C118.314 47.2266 118.189 47.5312 118.111 47.875C118.038 48.2135 118.001 48.5729 118.001 48.9531ZM123.478 48.1562L122.509 48.4531C122.514 47.9896 122.59 47.5443 122.736 47.1172C122.887 46.6901 123.103 46.3099 123.384 45.9766C123.671 45.6432 124.022 45.3802 124.439 45.1875C124.856 44.9896 125.332 44.8906 125.869 44.8906C126.322 44.8906 126.723 44.9505 127.072 45.0703C127.426 45.1901 127.723 45.375 127.962 45.625C128.207 45.8698 128.392 46.1849 128.517 46.5703C128.642 46.9557 128.705 47.4141 128.705 47.9453V53.5H127.251V47.9297C127.251 47.4557 127.176 47.0885 127.025 46.8281C126.879 46.5625 126.671 46.3776 126.4 46.2734C126.134 46.1641 125.817 46.1094 125.447 46.1094C125.129 46.1094 124.848 46.1641 124.603 46.2734C124.358 46.3828 124.153 46.5339 123.986 46.7266C123.819 46.9141 123.692 47.1302 123.603 47.375C123.52 47.6198 123.478 47.8802 123.478 48.1562ZM132.462 45.0469V53.5H131.009V45.0469H132.462ZM130.9 42.8047C130.9 42.5703 130.97 42.3724 131.111 42.2109C131.257 42.0495 131.47 41.9688 131.751 41.9688C132.028 41.9688 132.238 42.0495 132.384 42.2109C132.535 42.3724 132.611 42.5703 132.611 42.8047C132.611 43.0286 132.535 43.2214 132.384 43.3828C132.238 43.5391 132.028 43.6172 131.751 43.6172C131.47 43.6172 131.257 43.5391 131.111 43.3828C130.97 43.2214 130.9 43.0286 130.9 42.8047ZM136.228 46.8516V53.5H134.783V45.0469H136.15L136.228 46.8516ZM135.884 48.9531L135.283 48.9297C135.288 48.3516 135.374 47.8177 135.541 47.3281C135.707 46.8333 135.942 46.4036 136.244 46.0391C136.546 45.6745 136.905 45.3932 137.322 45.1953C137.744 44.9922 138.21 44.8906 138.72 44.8906C139.137 44.8906 139.512 44.9479 139.845 45.0625C140.179 45.1719 140.462 45.349 140.697 45.5938C140.936 45.8385 141.119 46.1562 141.244 46.5469C141.369 46.9323 141.431 47.4036 141.431 47.9609V53.5H139.978V47.9453C139.978 47.5026 139.913 47.1484 139.783 46.8828C139.653 46.612 139.462 46.4167 139.212 46.2969C138.962 46.1719 138.655 46.1094 138.291 46.1094C137.931 46.1094 137.603 46.1849 137.306 46.3359C137.014 46.487 136.762 46.6953 136.548 46.9609C136.34 47.2266 136.176 47.5312 136.056 47.875C135.942 48.2135 135.884 48.5729 135.884 48.9531ZM143.65 52.7344C143.65 52.4896 143.725 52.2839 143.876 52.1172C144.033 51.9453 144.257 51.8594 144.548 51.8594C144.84 51.8594 145.061 51.9453 145.212 52.1172C145.369 52.2839 145.447 52.4896 145.447 52.7344C145.447 52.974 145.369 53.1771 145.212 53.3438C145.061 53.5104 144.84 53.5938 144.548 53.5938C144.257 53.5938 144.033 53.5104 143.876 53.3438C143.725 53.1771 143.65 52.974 143.65 52.7344ZM149.416 45.0469V53.5H147.962V45.0469H149.416ZM147.853 42.8047C147.853 42.5703 147.923 42.3724 148.064 42.2109C148.21 42.0495 148.423 41.9688 148.705 41.9688C148.981 41.9688 149.192 42.0495 149.337 42.2109C149.488 42.3724 149.564 42.5703 149.564 42.8047C149.564 43.0286 149.488 43.2214 149.337 43.3828C149.192 43.5391 148.981 43.6172 148.705 43.6172C148.423 43.6172 148.21 43.5391 148.064 43.3828C147.923 43.2214 147.853 43.0286 147.853 42.8047ZM151.353 49.3672V49.1875C151.353 48.5781 151.442 48.013 151.619 47.4922C151.796 46.9661 152.051 46.5104 152.384 46.125C152.718 45.7344 153.121 45.4323 153.595 45.2188C154.069 45 154.6 44.8906 155.189 44.8906C155.783 44.8906 156.317 45 156.791 45.2188C157.27 45.4323 157.676 45.7344 158.009 46.125C158.348 46.5104 158.606 46.9661 158.783 47.4922C158.96 48.013 159.048 48.5781 159.048 49.1875V49.3672C159.048 49.9766 158.96 50.5417 158.783 51.0625C158.606 51.5833 158.348 52.0391 158.009 52.4297C157.676 52.8151 157.272 53.1172 156.798 53.3359C156.33 53.5495 155.798 53.6562 155.205 53.6562C154.611 53.6562 154.077 53.5495 153.603 53.3359C153.129 53.1172 152.723 52.8151 152.384 52.4297C152.051 52.0391 151.796 51.5833 151.619 51.0625C151.442 50.5417 151.353 49.9766 151.353 49.3672ZM152.798 49.1875V49.3672C152.798 49.7891 152.848 50.1875 152.947 50.5625C153.046 50.9323 153.194 51.2604 153.392 51.5469C153.595 51.8333 153.848 52.0599 154.15 52.2266C154.452 52.388 154.804 52.4688 155.205 52.4688C155.6 52.4688 155.947 52.388 156.244 52.2266C156.546 52.0599 156.796 51.8333 156.994 51.5469C157.192 51.2604 157.34 50.9323 157.439 50.5625C157.543 50.1875 157.595 49.7891 157.595 49.3672V49.1875C157.595 48.7708 157.543 48.3776 157.439 48.0078C157.34 47.6328 157.189 47.3021 156.986 47.0156C156.788 46.724 156.538 46.4948 156.236 46.3281C155.939 46.1615 155.59 46.0781 155.189 46.0781C154.793 46.0781 154.444 46.1615 154.142 46.3281C153.845 46.4948 153.595 46.724 153.392 47.0156C153.194 47.3021 153.046 47.6328 152.947 48.0078C152.848 48.3776 152.798 48.7708 152.798 49.1875Z" fill="#2C2C2C"/>
<path d="M197.169 50.7016L201.769 45.6016" stroke="#E2381B" stroke-width="2" stroke-miterlimit="10" stroke-linecap="round" stroke-linejoin="round"/>
<path d="M199.369 56C203.787 56 207.369 52.4183 207.369 48C207.369 43.5817 203.787 40 199.369 40C194.95 40 191.369 43.5817 191.369 48C191.369 52.4183 194.95 56 199.369 56Z" stroke="#E2381B" stroke-width="2" stroke-miterlimit="10"/>
<path d="M201.969 50.6L196.869 46" stroke="#E2381B" stroke-width="2" stroke-miterlimit="10" stroke-linecap="round" stroke-linejoin="round"/>
<rect x="9.86865" y="31.5" width="204" height="33" rx="5.5" stroke="#E2381B"/>
<path d="M13.354 80H11.0981L11.1118 79.2822H13.354C14.0695 79.2822 14.6847 79.1227 15.1997 78.8037C15.7192 78.4801 16.1203 78.0335 16.4028 77.4639C16.6854 76.8942 16.8267 76.2334 16.8267 75.4814V74.5518C16.8267 73.9775 16.7446 73.458 16.5806 72.9932C16.4211 72.5283 16.1909 72.1318 15.8901 71.8037C15.5894 71.471 15.2293 71.2158 14.8101 71.0381C14.3953 70.8604 13.9305 70.7715 13.4155 70.7715H11.0571V70.0469H13.4155C14.0353 70.0469 14.6027 70.154 15.1177 70.3682C15.6372 70.5778 16.0861 70.8831 16.4644 71.2842C16.8472 71.6807 17.1411 72.1569 17.3462 72.7129C17.5558 73.2689 17.6606 73.8887 17.6606 74.5723V75.4814C17.6606 76.165 17.5558 76.7848 17.3462 77.3408C17.1411 77.8968 16.8472 78.373 16.4644 78.7695C16.0815 79.166 15.6281 79.4714 15.104 79.6855C14.5799 79.8952 13.9966 80 13.354 80ZM11.4741 70.0469V80H10.6333V70.0469H11.4741ZM20.5249 72.6035V80H19.7114V72.6035H20.5249ZM19.5679 70.4639C19.5679 70.3089 19.6157 70.179 19.7114 70.0742C19.8117 69.9648 19.9484 69.9102 20.1216 69.9102C20.2948 69.9102 20.4315 69.9648 20.5317 70.0742C20.6366 70.179 20.689 70.3089 20.689 70.4639C20.689 70.6143 20.6366 70.7441 20.5317 70.8535C20.4315 70.9583 20.2948 71.0107 20.1216 71.0107C19.9484 71.0107 19.8117 70.9583 19.7114 70.8535C19.6157 70.7441 19.5679 70.6143 19.5679 70.4639ZM27.6274 72.6035H28.3862V79.8701C28.3862 80.5127 28.2632 81.0641 28.0171 81.5244C27.7756 81.9847 27.4315 82.3379 26.9849 82.584C26.5428 82.8301 26.021 82.9531 25.4194 82.9531C25.1141 82.9531 24.7996 82.9053 24.4761 82.8096C24.1571 82.7184 23.854 82.5771 23.5669 82.3857C23.2843 82.1989 23.0428 81.9665 22.8423 81.6885L23.3003 81.1895C23.6011 81.554 23.9224 81.8206 24.2642 81.9893C24.606 82.1624 24.9751 82.249 25.3716 82.249C25.841 82.249 26.2375 82.1556 26.561 81.9688C26.8892 81.7819 27.1375 81.513 27.3062 81.1621C27.4793 80.8112 27.5659 80.3896 27.5659 79.8975V74.2305L27.6274 72.6035ZM22.4321 76.377V76.2334C22.4321 75.6592 22.4959 75.1419 22.6235 74.6816C22.7557 74.2168 22.9448 73.8203 23.1909 73.4922C23.437 73.1595 23.7355 72.9066 24.0864 72.7334C24.4419 72.5557 24.8429 72.4668 25.2896 72.4668C25.7179 72.4668 26.0985 72.5374 26.4312 72.6787C26.7638 72.82 27.0509 73.0228 27.2925 73.2871C27.534 73.5514 27.7277 73.8659 27.8735 74.2305C28.0239 74.5951 28.1333 75.0007 28.2017 75.4473V77.2725C28.147 77.6917 28.0467 78.0768 27.9009 78.4277C27.755 78.7741 27.5614 79.0771 27.3198 79.3369C27.0783 79.5921 26.7866 79.7904 26.4448 79.9316C26.1076 80.0684 25.7179 80.1367 25.2759 80.1367C24.8338 80.1367 24.4373 80.0456 24.0864 79.8633C23.7355 79.681 23.437 79.4235 23.1909 79.0908C22.9448 78.7536 22.7557 78.3548 22.6235 77.8945C22.4959 77.4342 22.4321 76.9284 22.4321 76.377ZM23.2524 76.2334V76.377C23.2524 76.8099 23.2957 77.2109 23.3823 77.5801C23.4689 77.9492 23.6011 78.2705 23.7788 78.5439C23.9565 78.8174 24.1821 79.0316 24.4556 79.1865C24.729 79.3415 25.0503 79.4189 25.4194 79.4189C25.8888 79.4189 26.283 79.3301 26.6021 79.1523C26.9211 78.9701 27.174 78.7308 27.3608 78.4346C27.5477 78.1338 27.6844 77.8057 27.771 77.4502V75.3242C27.7209 75.0827 27.6434 74.8366 27.5386 74.5859C27.4383 74.3353 27.297 74.1051 27.1147 73.8955C26.937 73.6813 26.7091 73.5104 26.4312 73.3828C26.1577 73.2507 25.825 73.1846 25.4331 73.1846C25.0594 73.1846 24.7336 73.262 24.4556 73.417C24.1821 73.5719 23.9565 73.7884 23.7788 74.0664C23.6011 74.3398 23.4689 74.6611 23.3823 75.0303C23.2957 75.3994 23.2524 75.8005 23.2524 76.2334ZM31.4351 72.6035V80H30.6216V72.6035H31.4351ZM30.478 70.4639C30.478 70.3089 30.5259 70.179 30.6216 70.0742C30.7218 69.9648 30.8586 69.9102 31.0317 69.9102C31.2049 69.9102 31.3416 69.9648 31.4419 70.0742C31.5467 70.179 31.5991 70.3089 31.5991 70.4639C31.5991 70.6143 31.5467 70.7441 31.4419 70.8535C31.3416 70.9583 31.2049 71.0107 31.0317 71.0107C30.8586 71.0107 30.7218 70.9583 30.6216 70.8535C30.5259 70.7441 30.478 70.6143 30.478 70.4639ZM36.4663 72.6035V73.2734H32.7612V72.6035H36.4663ZM34.1216 70.7031H34.9351V78.2021C34.9351 78.5439 34.9806 78.8014 35.0718 78.9746C35.1629 79.1478 35.2814 79.264 35.4272 79.3232C35.5731 79.3825 35.7303 79.4121 35.8989 79.4121C36.022 79.4121 36.1405 79.4053 36.2544 79.3916C36.3683 79.3734 36.4709 79.3551 36.562 79.3369L36.5962 80.0273C36.4959 80.0592 36.366 80.0843 36.2065 80.1025C36.047 80.1253 35.8875 80.1367 35.728 80.1367C35.4136 80.1367 35.1356 80.0798 34.894 79.9658C34.6525 79.8473 34.4634 79.6468 34.3267 79.3643C34.1899 79.0771 34.1216 78.6875 34.1216 78.1953V70.7031ZM41.0396 80.1367C40.5565 80.1367 40.1121 80.0479 39.7065 79.8701C39.3055 79.6924 38.9546 79.4417 38.6538 79.1182C38.3576 78.7946 38.1274 78.4118 37.9634 77.9697C37.8039 77.5231 37.7241 77.0355 37.7241 76.5068V76.2129C37.7241 75.6432 37.8084 75.1283 37.9771 74.668C38.1457 74.2077 38.3781 73.8135 38.6743 73.4854C38.9705 73.1572 39.3078 72.9066 39.686 72.7334C40.0688 72.5557 40.4699 72.4668 40.8892 72.4668C41.3586 72.4668 41.7756 72.5511 42.1401 72.7197C42.5047 72.8838 42.8101 73.1185 43.0562 73.4238C43.3068 73.7246 43.4959 74.0824 43.6235 74.4971C43.7511 74.9072 43.8149 75.3607 43.8149 75.8574V76.3564H38.2163V75.6592H43.0015V75.5635C42.9924 75.1488 42.908 74.7614 42.7485 74.4014C42.5936 74.0368 42.3612 73.7406 42.0513 73.5127C41.7414 73.2848 41.354 73.1709 40.8892 73.1709C40.5428 73.1709 40.2238 73.2438 39.9321 73.3896C39.645 73.5355 39.3966 73.7451 39.187 74.0186C38.9819 74.2874 38.8224 74.6087 38.7085 74.9824C38.5991 75.3516 38.5444 75.7617 38.5444 76.2129V76.5068C38.5444 76.917 38.6037 77.2998 38.7222 77.6553C38.8452 78.0062 39.0184 78.3161 39.2417 78.585C39.4696 78.8538 39.7384 79.0635 40.0483 79.2139C40.3582 79.3643 40.7 79.4395 41.0737 79.4395C41.5112 79.4395 41.8986 79.3597 42.2358 79.2002C42.5731 79.0361 42.8761 78.7786 43.145 78.4277L43.6577 78.8242C43.4982 79.0612 43.2977 79.2799 43.0562 79.4805C42.8192 79.681 42.5343 79.8405 42.2017 79.959C41.869 80.0775 41.4816 80.1367 41.0396 80.1367ZM53.5835 78.291V72.6035H54.4038V80H53.6177L53.5835 78.291ZM53.7339 76.9238L54.1577 76.9102C54.1577 77.375 54.103 77.8034 53.9937 78.1953C53.8843 78.5872 53.7134 78.929 53.481 79.2207C53.2485 79.5124 52.9478 79.738 52.5786 79.8975C52.2095 80.057 51.7651 80.1367 51.2456 80.1367C50.8856 80.1367 50.5552 80.0866 50.2544 79.9863C49.9582 79.8815 49.703 79.7174 49.4888 79.4941C49.2746 79.2708 49.1082 78.9814 48.9897 78.626C48.8758 78.2705 48.8188 77.8398 48.8188 77.334V72.6035H49.6323V77.3477C49.6323 77.7441 49.6756 78.0745 49.7622 78.3389C49.8534 78.6032 49.9764 78.8151 50.1313 78.9746C50.2909 79.1341 50.4731 79.248 50.6782 79.3164C50.8833 79.3848 51.1043 79.4189 51.3413 79.4189C51.9429 79.4189 52.4168 79.3027 52.7632 79.0703C53.1141 78.8379 53.3625 78.5326 53.5083 78.1543C53.6587 77.7715 53.7339 77.3613 53.7339 76.9238ZM57.3159 74.1348V80H56.4956V72.6035H57.2817L57.3159 74.1348ZM57.1655 75.8438L56.769 75.6387C56.7964 75.2012 56.8784 74.791 57.0151 74.4082C57.1564 74.0254 57.3524 73.6882 57.603 73.3965C57.8537 73.1048 58.1545 72.877 58.5054 72.7129C58.8563 72.5488 59.255 72.4668 59.7017 72.4668C60.0617 72.4668 60.3875 72.5169 60.6792 72.6172C60.9754 72.7129 61.2261 72.8656 61.4312 73.0752C61.6408 73.2803 61.8026 73.5492 61.9165 73.8818C62.0304 74.2145 62.0874 74.6133 62.0874 75.0781V80H61.2739V75.1055C61.2739 74.6133 61.1965 74.2282 61.0415 73.9502C60.8911 73.6722 60.6792 73.474 60.4058 73.3555C60.1369 73.237 59.8247 73.1777 59.4692 73.1777C59.05 73.1777 58.6945 73.2643 58.4028 73.4375C58.1157 73.6061 57.881 73.8271 57.6987 74.1006C57.521 74.3695 57.3888 74.6589 57.3022 74.9688C57.2157 75.2741 57.1701 75.5658 57.1655 75.8438ZM62.0806 75.2012L61.5337 75.2148C61.5565 74.8548 61.6385 74.5107 61.7798 74.1826C61.9256 73.8545 62.1239 73.5628 62.3745 73.3076C62.6252 73.0479 62.9237 72.8428 63.27 72.6924C63.6209 72.542 64.0151 72.4668 64.4526 72.4668C64.8354 72.4668 65.1772 72.5192 65.478 72.624C65.7788 72.7243 66.0317 72.8861 66.2368 73.1094C66.4465 73.3281 66.606 73.6084 66.7153 73.9502C66.8247 74.292 66.8794 74.7021 66.8794 75.1807V80H66.0591V75.1738C66.0591 74.6497 65.9816 74.2441 65.8267 73.957C65.6763 73.6654 65.4666 73.4626 65.1978 73.3486C64.9289 73.2347 64.6144 73.1777 64.2544 73.1777C63.8989 73.1823 63.5868 73.2484 63.3179 73.376C63.049 73.499 62.8234 73.6631 62.6411 73.8682C62.4634 74.0687 62.3267 74.2852 62.231 74.5176C62.1398 74.75 62.0897 74.9779 62.0806 75.2012ZM75.2329 80.1367C74.7498 80.1367 74.3055 80.0479 73.8999 79.8701C73.4989 79.6924 73.1479 79.4417 72.8472 79.1182C72.5509 78.7946 72.3208 78.4118 72.1567 77.9697C71.9972 77.5231 71.9175 77.0355 71.9175 76.5068V76.2129C71.9175 75.6432 72.0018 75.1283 72.1704 74.668C72.339 74.2077 72.5715 73.8135 72.8677 73.4854C73.1639 73.1572 73.5011 72.9066 73.8794 72.7334C74.2622 72.5557 74.6632 72.4668 75.0825 72.4668C75.5519 72.4668 75.9689 72.5511 76.3335 72.7197C76.6981 72.8838 77.0034 73.1185 77.2495 73.4238C77.5002 73.7246 77.6893 74.0824 77.8169 74.4971C77.9445 74.9072 78.0083 75.3607 78.0083 75.8574V76.3564H72.4097V75.6592H77.1948V75.5635C77.1857 75.1488 77.1014 74.7614 76.9419 74.4014C76.7869 74.0368 76.5545 73.7406 76.2446 73.5127C75.9347 73.2848 75.5474 73.1709 75.0825 73.1709C74.7362 73.1709 74.4172 73.2438 74.1255 73.3896C73.8384 73.5355 73.59 73.7451 73.3804 74.0186C73.1753 74.2874 73.0158 74.6087 72.9019 74.9824C72.7925 75.3516 72.7378 75.7617 72.7378 76.2129V76.5068C72.7378 76.917 72.797 77.2998 72.9155 77.6553C73.0386 78.0062 73.2118 78.3161 73.4351 78.585C73.6629 78.8538 73.9318 79.0635 74.2417 79.2139C74.5516 79.3643 74.8934 79.4395 75.2671 79.4395C75.7046 79.4395 76.092 79.3597 76.4292 79.2002C76.7664 79.0361 77.0695 78.7786 77.3384 78.4277L77.8511 78.8242C77.6916 79.0612 77.491 79.2799 77.2495 79.4805C77.0125 79.681 76.7277 79.8405 76.395 79.959C76.0623 80.0775 75.675 80.1367 75.2329 80.1367ZM80.394 74.1348V80H79.5737V72.6035H80.3599L80.394 74.1348ZM80.2437 75.8438L79.8472 75.6387C79.8745 75.2012 79.9565 74.791 80.0933 74.4082C80.2345 74.0254 80.4305 73.6882 80.6812 73.3965C80.9318 73.1048 81.2326 72.877 81.5835 72.7129C81.9344 72.5488 82.3332 72.4668 82.7798 72.4668C83.1398 72.4668 83.4657 72.5169 83.7573 72.6172C84.0535 72.7129 84.3042 72.8656 84.5093 73.0752C84.7189 73.2803 84.8807 73.5492 84.9946 73.8818C85.1086 74.2145 85.1655 74.6133 85.1655 75.0781V80H84.3521V75.1055C84.3521 74.6133 84.2746 74.2282 84.1196 73.9502C83.9692 73.6722 83.7573 73.474 83.4839 73.3555C83.215 73.237 82.9028 73.1777 82.5474 73.1777C82.1281 73.1777 81.7726 73.2643 81.481 73.4375C81.1938 73.6061 80.9591 73.8271 80.7769 74.1006C80.5991 74.3695 80.467 74.6589 80.3804 74.9688C80.2938 75.2741 80.2482 75.5658 80.2437 75.8438ZM85.1587 75.2012L84.6118 75.2148C84.6346 74.8548 84.7166 74.5107 84.8579 74.1826C85.0037 73.8545 85.202 73.5628 85.4526 73.3076C85.7033 73.0479 86.0018 72.8428 86.3481 72.6924C86.6991 72.542 87.0933 72.4668 87.5308 72.4668C87.9136 72.4668 88.2554 72.5192 88.5562 72.624C88.8569 72.7243 89.1099 72.8861 89.3149 73.1094C89.5246 73.3281 89.6841 73.6084 89.7935 73.9502C89.9028 74.292 89.9575 74.7021 89.9575 75.1807V80H89.1372V75.1738C89.1372 74.6497 89.0597 74.2441 88.9048 73.957C88.7544 73.6654 88.5448 73.4626 88.2759 73.3486C88.007 73.2347 87.6925 73.1777 87.3325 73.1777C86.9771 73.1823 86.6649 73.2484 86.396 73.376C86.1271 73.499 85.9015 73.6631 85.7192 73.8682C85.5415 74.0687 85.4048 74.2852 85.3091 74.5176C85.2179 74.75 85.1678 74.9779 85.1587 75.2012ZM96.5337 78.6738V74.8594C96.5337 74.5085 96.4608 74.2054 96.3149 73.9502C96.1691 73.695 95.9549 73.499 95.6724 73.3623C95.3898 73.2256 95.0412 73.1572 94.6265 73.1572C94.2437 73.1572 93.9019 73.2256 93.6011 73.3623C93.3049 73.4945 93.0701 73.6745 92.897 73.9023C92.7284 74.1257 92.644 74.374 92.644 74.6475L91.8237 74.6406C91.8237 74.3626 91.8921 74.0938 92.0288 73.834C92.1655 73.5742 92.3592 73.3418 92.6099 73.1367C92.8605 72.9316 93.159 72.7699 93.5054 72.6514C93.8563 72.5283 94.2414 72.4668 94.6606 72.4668C95.1893 72.4668 95.6541 72.5557 96.0552 72.7334C96.4608 72.9111 96.7775 73.1777 97.0054 73.5332C97.2332 73.8887 97.3472 74.3353 97.3472 74.873V78.4482C97.3472 78.7035 97.3654 78.9678 97.4019 79.2412C97.4429 79.5146 97.4998 79.7402 97.5728 79.918V80H96.7046C96.6499 79.8359 96.6066 79.6309 96.5747 79.3848C96.5474 79.1341 96.5337 78.8971 96.5337 78.6738ZM96.7251 75.6934L96.7388 76.3223H95.1323C94.7131 76.3223 94.3371 76.361 94.0044 76.4385C93.6763 76.5114 93.3983 76.6208 93.1704 76.7666C92.9425 76.9079 92.7671 77.0788 92.644 77.2793C92.5256 77.4798 92.4663 77.7077 92.4663 77.9629C92.4663 78.2272 92.5324 78.4688 92.6646 78.6875C92.8013 78.9062 92.9927 79.0817 93.2388 79.2139C93.4894 79.3415 93.7856 79.4053 94.1274 79.4053C94.5832 79.4053 94.9842 79.321 95.3306 79.1523C95.6815 78.9837 95.9709 78.7627 96.1987 78.4893C96.4266 78.2158 96.5793 77.9173 96.6567 77.5938L97.0122 78.0654C96.953 78.2933 96.8436 78.528 96.6841 78.7695C96.5291 79.0065 96.3263 79.2298 96.0757 79.4395C95.825 79.6445 95.5288 79.8132 95.187 79.9453C94.8498 80.0729 94.467 80.1367 94.0386 80.1367C93.5555 80.1367 93.134 80.0456 92.7739 79.8633C92.4185 79.681 92.1405 79.4326 91.9399 79.1182C91.744 78.7992 91.646 78.4391 91.646 78.0381C91.646 77.6735 91.7235 77.3477 91.8784 77.0605C92.0334 76.7689 92.2567 76.5228 92.5483 76.3223C92.8446 76.1172 93.2 75.9622 93.6147 75.8574C94.034 75.748 94.5034 75.6934 95.0229 75.6934H96.7251ZM100.451 72.6035V80H99.6372V72.6035H100.451ZM99.4937 70.4639C99.4937 70.3089 99.5415 70.179 99.6372 70.0742C99.7375 69.9648 99.8742 69.9102 100.047 69.9102C100.221 69.9102 100.357 69.9648 100.458 70.0742C100.562 70.179 100.615 70.3089 100.615 70.4639C100.615 70.6143 100.562 70.7441 100.458 70.8535C100.357 70.9583 100.221 71.0107 100.047 71.0107C99.8742 71.0107 99.7375 70.9583 99.6372 70.8535C99.5415 70.7441 99.4937 70.6143 99.4937 70.4639ZM103.595 69.5V80H102.782V69.5H103.595ZM111.429 79.2139L113.801 72.6035H114.642L111.874 80H111.279L111.429 79.2139ZM109.283 72.6035L111.682 79.2344L111.812 80H111.21L108.435 72.6035H109.283ZM120.377 78.6738V74.8594C120.377 74.5085 120.305 74.2054 120.159 73.9502C120.013 73.695 119.799 73.499 119.516 73.3623C119.234 73.2256 118.885 73.1572 118.47 73.1572C118.087 73.1572 117.746 73.2256 117.445 73.3623C117.149 73.4945 116.914 73.6745 116.741 73.9023C116.572 74.1257 116.488 74.374 116.488 74.6475L115.667 74.6406C115.667 74.3626 115.736 74.0938 115.873 73.834C116.009 73.5742 116.203 73.3418 116.454 73.1367C116.704 72.9316 117.003 72.7699 117.349 72.6514C117.7 72.5283 118.085 72.4668 118.504 72.4668C119.033 72.4668 119.498 72.5557 119.899 72.7334C120.305 72.9111 120.621 73.1777 120.849 73.5332C121.077 73.8887 121.191 74.3353 121.191 74.873V78.4482C121.191 78.7035 121.209 78.9678 121.246 79.2412C121.287 79.5146 121.344 79.7402 121.417 79.918V80H120.548C120.494 79.8359 120.45 79.6309 120.418 79.3848C120.391 79.1341 120.377 78.8971 120.377 78.6738ZM120.569 75.6934L120.583 76.3223H118.976C118.557 76.3223 118.181 76.361 117.848 76.4385C117.52 76.5114 117.242 76.6208 117.014 76.7666C116.786 76.9079 116.611 77.0788 116.488 77.2793C116.369 77.4798 116.31 77.7077 116.31 77.9629C116.31 78.2272 116.376 78.4688 116.508 78.6875C116.645 78.9062 116.836 79.0817 117.083 79.2139C117.333 79.3415 117.629 79.4053 117.971 79.4053C118.427 79.4053 118.828 79.321 119.174 79.1523C119.525 78.9837 119.815 78.7627 120.042 78.4893C120.27 78.2158 120.423 77.9173 120.5 77.5938L120.856 78.0654C120.797 78.2933 120.687 78.528 120.528 78.7695C120.373 79.0065 120.17 79.2298 119.919 79.4395C119.669 79.6445 119.373 79.8132 119.031 79.9453C118.694 80.0729 118.311 80.1367 117.882 80.1367C117.399 80.1367 116.978 80.0456 116.618 79.8633C116.262 79.681 115.984 79.4326 115.784 79.1182C115.588 78.7992 115.49 78.4391 115.49 78.0381C115.49 77.6735 115.567 77.3477 115.722 77.0605C115.877 76.7689 116.1 76.5228 116.392 76.3223C116.688 76.1172 117.044 75.9622 117.458 75.8574C117.878 75.748 118.347 75.6934 118.867 75.6934H120.569ZM118.286 71.4209L119.591 69.5068H120.576L118.997 71.4209H118.286ZM124.294 69.5V80H123.481V69.5H124.294ZM127.439 72.6035V80H126.625V72.6035H127.439ZM126.482 70.4639C126.482 70.3089 126.53 70.179 126.625 70.0742C126.726 69.9648 126.862 69.9102 127.036 69.9102C127.209 69.9102 127.346 69.9648 127.446 70.0742C127.551 70.179 127.603 70.3089 127.603 70.4639C127.603 70.6143 127.551 70.7441 127.446 70.8535C127.346 70.9583 127.209 71.0107 127.036 71.0107C126.862 71.0107 126.726 70.9583 126.625 70.8535C126.53 70.7441 126.482 70.6143 126.482 70.4639ZM134.48 78.5645V69.5H135.3V80H134.535L134.48 78.5645ZM129.346 76.377V76.2334C129.346 75.6592 129.412 75.1419 129.544 74.6816C129.677 74.2168 129.866 73.8203 130.112 73.4922C130.362 73.1595 130.663 72.9066 131.014 72.7334C131.365 72.5557 131.762 72.4668 132.204 72.4668C132.637 72.4668 133.019 72.5374 133.352 72.6787C133.685 72.82 133.97 73.0228 134.207 73.2871C134.448 73.5514 134.642 73.8659 134.788 74.2305C134.938 74.5951 135.047 75.0007 135.116 75.4473V77.2725C135.061 77.6917 134.961 78.0768 134.815 78.4277C134.669 78.7741 134.475 79.0771 134.234 79.3369C133.992 79.5921 133.701 79.7904 133.359 79.9316C133.022 80.0684 132.632 80.1367 132.19 80.1367C131.752 80.1367 131.358 80.0456 131.007 79.8633C130.656 79.681 130.358 79.4235 130.112 79.0908C129.866 78.7536 129.677 78.3548 129.544 77.8945C129.412 77.4342 129.346 76.9284 129.346 76.377ZM130.167 76.2334V76.377C130.167 76.8099 130.21 77.2109 130.296 77.5801C130.383 77.9492 130.515 78.2705 130.693 78.5439C130.871 78.8174 131.096 79.0316 131.37 79.1865C131.643 79.3415 131.967 79.4189 132.34 79.4189C132.81 79.4189 133.204 79.3301 133.523 79.1523C133.842 78.9701 134.097 78.7308 134.289 78.4346C134.48 78.1338 134.619 77.8057 134.706 77.4502V75.3242C134.651 75.0827 134.571 74.8366 134.466 74.5859C134.361 74.3353 134.218 74.1051 134.036 73.8955C133.858 73.6813 133.63 73.5104 133.352 73.3828C133.079 73.2507 132.746 73.1846 132.354 73.1846C131.976 73.1846 131.65 73.262 131.376 73.417C131.103 73.5719 130.875 73.7884 130.693 74.0664C130.515 74.3398 130.383 74.6611 130.296 75.0303C130.21 75.3994 130.167 75.8005 130.167 76.2334ZM137.002 76.418V76.1924C137.002 75.6546 137.08 75.1579 137.235 74.7021C137.39 74.2464 137.611 73.8522 137.898 73.5195C138.19 73.1868 138.538 72.9294 138.944 72.7471C139.349 72.5602 139.801 72.4668 140.297 72.4668C140.799 72.4668 141.252 72.5602 141.658 72.7471C142.063 72.9294 142.412 73.1868 142.704 73.5195C142.995 73.8522 143.219 74.2464 143.374 74.7021C143.528 75.1579 143.606 75.6546 143.606 76.1924V76.418C143.606 76.9557 143.528 77.4525 143.374 77.9082C143.219 78.3594 142.995 78.7513 142.704 79.084C142.417 79.4167 142.07 79.6764 141.665 79.8633C141.259 80.0456 140.808 80.1367 140.311 80.1367C139.81 80.1367 139.356 80.0456 138.951 79.8633C138.545 79.6764 138.196 79.4167 137.905 79.084C137.613 78.7513 137.39 78.3594 137.235 77.9082C137.08 77.4525 137.002 76.9557 137.002 76.418ZM137.816 76.1924V76.418C137.816 76.8236 137.871 77.2087 137.98 77.5732C138.089 77.9333 138.249 78.2546 138.458 78.5371C138.668 78.8151 138.928 79.0339 139.238 79.1934C139.548 79.3529 139.905 79.4326 140.311 79.4326C140.712 79.4326 141.065 79.3529 141.371 79.1934C141.681 79.0339 141.94 78.8151 142.15 78.5371C142.36 78.2546 142.517 77.9333 142.622 77.5732C142.731 77.2087 142.786 76.8236 142.786 76.418V76.1924C142.786 75.7913 142.731 75.4108 142.622 75.0508C142.517 74.6908 142.357 74.3695 142.143 74.0869C141.933 73.8044 141.674 73.5811 141.364 73.417C141.054 73.2529 140.698 73.1709 140.297 73.1709C139.896 73.1709 139.541 73.2529 139.231 73.417C138.926 73.5811 138.666 73.8044 138.452 74.0869C138.242 74.3695 138.083 74.6908 137.973 75.0508C137.868 75.4108 137.816 75.7913 137.816 76.1924Z" fill="#E2381B"/>
<rect x="0.368652" width="219" height="67" fill="#82827E" fill-opacity="0.9"/>
</svg>
