<svg width="275" height="61" viewBox="0 0 275 61" fill="none" xmlns="http://www.w3.org/2000/svg">
<g filter="url(#filter0_d_2085_9440)">
<rect x="4.36865" y="2" width="260" height="30" rx="6" fill="#FDFBF9"/>
</g>
<path d="M22.1187 19.9395L24.8081 12.4688H25.5933L22.4175 21H21.8374L22.1187 19.9395ZM19.3413 12.4688L22.019 19.9395L22.312 21H21.7261L18.5562 12.4688H19.3413ZM30.2808 19.8633V16.5938C30.2808 16.293 30.2183 16.0332 30.0933 15.8145C29.9683 15.5957 29.7847 15.4277 29.5425 15.3105C29.3003 15.1934 29.0015 15.1348 28.646 15.1348C28.3179 15.1348 28.0249 15.1934 27.7671 15.3105C27.5132 15.4238 27.312 15.5781 27.1636 15.7734C27.019 15.9648 26.9468 16.1777 26.9468 16.4121L26.2437 16.4062C26.2437 16.168 26.3022 15.9375 26.4194 15.7148C26.5366 15.4922 26.7026 15.293 26.9175 15.1172C27.1323 14.9414 27.3882 14.8027 27.6851 14.7012C27.9858 14.5957 28.3159 14.543 28.6753 14.543C29.1284 14.543 29.5269 14.6191 29.8706 14.7715C30.2183 14.9238 30.4897 15.1523 30.6851 15.457C30.8804 15.7617 30.978 16.1445 30.978 16.6055V19.6699C30.978 19.8887 30.9937 20.1152 31.0249 20.3496C31.0601 20.584 31.1089 20.7773 31.1714 20.9297V21H30.4272C30.3804 20.8594 30.3433 20.6836 30.3159 20.4727C30.2925 20.2578 30.2808 20.0547 30.2808 19.8633ZM30.4448 17.3086L30.4565 17.8477H29.0796C28.7202 17.8477 28.3979 17.8809 28.1128 17.9473C27.8315 18.0098 27.5933 18.1035 27.3979 18.2285C27.2026 18.3496 27.0522 18.4961 26.9468 18.668C26.8452 18.8398 26.7944 19.0352 26.7944 19.2539C26.7944 19.4805 26.8511 19.6875 26.9644 19.875C27.0815 20.0625 27.2456 20.2129 27.4565 20.3262C27.6714 20.4355 27.9253 20.4902 28.2183 20.4902C28.6089 20.4902 28.9526 20.418 29.2495 20.2734C29.5503 20.1289 29.7983 19.9395 29.9937 19.7051C30.189 19.4707 30.3198 19.2148 30.3862 18.9375L30.6909 19.3418C30.6401 19.5371 30.5464 19.7383 30.4097 19.9453C30.2769 20.1484 30.103 20.3398 29.8882 20.5195C29.6733 20.6953 29.4194 20.8398 29.1265 20.9531C28.8374 21.0625 28.5093 21.1172 28.1421 21.1172C27.728 21.1172 27.3667 21.0391 27.0581 20.8828C26.7534 20.7266 26.5151 20.5137 26.3433 20.2441C26.1753 19.9707 26.0913 19.6621 26.0913 19.3184C26.0913 19.0059 26.1577 18.7266 26.2905 18.4805C26.4233 18.2305 26.6147 18.0195 26.8647 17.8477C27.1187 17.6719 27.4233 17.5391 27.7788 17.4492C28.1382 17.3555 28.5405 17.3086 28.9858 17.3086H30.4448ZM33.6382 12V21H32.9409V12H33.6382ZM35.1675 17.9297V17.7363C35.1675 17.2754 35.2339 16.8496 35.3667 16.459C35.4995 16.0684 35.689 15.7305 35.9351 15.4453C36.1851 15.1602 36.4839 14.9395 36.8315 14.7832C37.1792 14.623 37.5659 14.543 37.9917 14.543C38.4214 14.543 38.8101 14.623 39.1577 14.7832C39.5054 14.9395 39.8042 15.1602 40.0542 15.4453C40.3042 15.7305 40.4956 16.0684 40.6284 16.459C40.7612 16.8496 40.8276 17.2754 40.8276 17.7363V17.9297C40.8276 18.3906 40.7612 18.8164 40.6284 19.207C40.4956 19.5938 40.3042 19.9297 40.0542 20.2148C39.8081 20.5 39.5112 20.7227 39.1636 20.8828C38.8159 21.0391 38.4292 21.1172 38.0034 21.1172C37.5737 21.1172 37.1851 21.0391 36.8374 20.8828C36.4897 20.7227 36.1909 20.5 35.9409 20.2148C35.6909 19.9297 35.4995 19.5938 35.3667 19.207C35.2339 18.8164 35.1675 18.3906 35.1675 17.9297ZM35.8647 17.7363V17.9297C35.8647 18.2773 35.9116 18.6074 36.0054 18.9199C36.0991 19.2285 36.2358 19.5039 36.4155 19.7461C36.5952 19.9844 36.8179 20.1719 37.0835 20.3086C37.3491 20.4453 37.6558 20.5137 38.0034 20.5137C38.3472 20.5137 38.6499 20.4453 38.9116 20.3086C39.1772 20.1719 39.3999 19.9844 39.5796 19.7461C39.7593 19.5039 39.894 19.2285 39.9839 18.9199C40.0776 18.6074 40.1245 18.2773 40.1245 17.9297V17.7363C40.1245 17.3926 40.0776 17.0664 39.9839 16.7578C39.894 16.4492 39.7573 16.1738 39.5737 15.9316C39.394 15.6895 39.1714 15.498 38.9058 15.3574C38.6401 15.2168 38.3354 15.1465 37.9917 15.1465C37.6479 15.1465 37.3433 15.2168 37.0776 15.3574C36.8159 15.498 36.5933 15.6895 36.4097 15.9316C36.23 16.1738 36.0933 16.4492 35.9995 16.7578C35.9097 17.0664 35.8647 17.3926 35.8647 17.7363ZM42.978 15.709V21H42.2808V14.6602H42.9604L42.978 15.709ZM45.2222 14.6133L45.2046 15.2578C45.1265 15.2461 45.0503 15.2363 44.9761 15.2285C44.9019 15.2207 44.8218 15.2168 44.7358 15.2168C44.4312 15.2168 44.1636 15.2734 43.9331 15.3867C43.7065 15.4961 43.5151 15.6504 43.3589 15.8496C43.2026 16.0449 43.0835 16.2754 43.0015 16.541C42.9194 16.8027 42.8726 17.084 42.8608 17.3848L42.603 17.4844C42.603 17.0703 42.646 16.6855 42.7319 16.3301C42.8179 15.9746 42.9487 15.6641 43.1245 15.3984C43.3042 15.1289 43.5288 14.9199 43.7983 14.7715C44.0718 14.6191 44.3921 14.543 44.7593 14.543C44.8491 14.543 44.937 14.5508 45.0229 14.5664C45.1128 14.5781 45.1792 14.5938 45.2222 14.6133ZM48.6558 21.1172C48.2417 21.1172 47.8608 21.041 47.5132 20.8887C47.1694 20.7363 46.8687 20.5215 46.6108 20.2441C46.3569 19.9668 46.1597 19.6387 46.019 19.2598C45.8823 18.877 45.814 18.459 45.814 18.0059V17.7539C45.814 17.2656 45.8862 16.8242 46.0308 16.4297C46.1753 16.0352 46.3745 15.6973 46.6284 15.416C46.8823 15.1348 47.1714 14.9199 47.4956 14.7715C47.8237 14.6191 48.1675 14.543 48.5269 14.543C48.9292 14.543 49.2866 14.6152 49.5991 14.7598C49.9116 14.9004 50.1733 15.1016 50.3843 15.3633C50.5991 15.6211 50.7612 15.9277 50.8706 16.2832C50.98 16.6348 51.0347 17.0234 51.0347 17.4492V17.877H46.2358V17.2793H50.3374V17.1973C50.3296 16.8418 50.2573 16.5098 50.1206 16.2012C49.9878 15.8887 49.7886 15.6348 49.5229 15.4395C49.2573 15.2441 48.9253 15.1465 48.5269 15.1465C48.23 15.1465 47.9565 15.209 47.7065 15.334C47.4604 15.459 47.2476 15.6387 47.0679 15.873C46.8921 16.1035 46.7554 16.3789 46.6577 16.6992C46.564 17.0156 46.5171 17.3672 46.5171 17.7539V18.0059C46.5171 18.3574 46.5679 18.6855 46.6694 18.9902C46.7749 19.291 46.9233 19.5566 47.1147 19.7871C47.3101 20.0176 47.5405 20.1973 47.8062 20.3262C48.0718 20.4551 48.3647 20.5195 48.6851 20.5195C49.0601 20.5195 49.3921 20.4512 49.6812 20.3145C49.9702 20.1738 50.23 19.9531 50.4604 19.6523L50.8999 19.9922C50.7632 20.1953 50.5913 20.3828 50.3843 20.5547C50.1812 20.7266 49.937 20.8633 49.6519 20.9648C49.3667 21.0664 49.0347 21.1172 48.6558 21.1172ZM56.2144 19.3828C56.2144 19.2109 56.1714 19.041 56.0854 18.873C55.9995 18.7051 55.8335 18.5508 55.5874 18.4102C55.3452 18.2695 54.9878 18.1504 54.5151 18.0527C54.1636 17.9746 53.8491 17.8867 53.5718 17.7891C53.2983 17.6914 53.0679 17.5742 52.8804 17.4375C52.6929 17.3008 52.5503 17.1367 52.4526 16.9453C52.355 16.7539 52.3062 16.5273 52.3062 16.2656C52.3062 16.0312 52.3569 15.8105 52.4585 15.6035C52.564 15.3926 52.7124 15.209 52.9038 15.0527C53.0991 14.8926 53.3335 14.7676 53.6069 14.6777C53.8843 14.5879 54.1948 14.543 54.5386 14.543C55.0269 14.543 55.4448 14.627 55.7925 14.7949C56.144 14.959 56.4116 15.1836 56.5952 15.4688C56.7827 15.7539 56.8765 16.0762 56.8765 16.4355H56.1792C56.1792 16.2168 56.1147 16.0098 55.9858 15.8145C55.8608 15.6191 55.6753 15.459 55.4292 15.334C55.187 15.209 54.8901 15.1465 54.5386 15.1465C54.1753 15.1465 53.8804 15.2012 53.6538 15.3105C53.4272 15.4199 53.2612 15.5586 53.1558 15.7266C53.0542 15.8945 53.0034 16.0684 53.0034 16.248C53.0034 16.3887 53.0249 16.5176 53.0679 16.6348C53.1147 16.748 53.1968 16.8535 53.314 16.9512C53.4351 17.0488 53.6069 17.1406 53.8296 17.2266C54.0522 17.3125 54.3413 17.3965 54.6968 17.4785C55.2085 17.5918 55.6265 17.7305 55.9507 17.8945C56.2788 18.0547 56.521 18.2539 56.6772 18.4922C56.8335 18.7266 56.9116 19.0117 56.9116 19.3477C56.9116 19.6094 56.8569 19.8496 56.7476 20.0684C56.6382 20.2832 56.48 20.4688 56.2729 20.625C56.0698 20.7812 55.8237 20.9023 55.5347 20.9883C55.2495 21.0742 54.9292 21.1172 54.5737 21.1172C54.0386 21.1172 53.5854 21.0293 53.2144 20.8535C52.8472 20.6738 52.5679 20.4395 52.3765 20.1504C52.189 19.8574 52.0952 19.5469 52.0952 19.2188H52.7925C52.8159 19.5469 52.9194 19.8066 53.103 19.998C53.2866 20.1855 53.5112 20.3184 53.7769 20.3965C54.0464 20.4746 54.312 20.5137 54.5737 20.5137C54.9331 20.5137 55.2339 20.4609 55.4761 20.3555C55.7183 20.25 55.9019 20.1113 56.0269 19.9395C56.1519 19.7676 56.2144 19.582 56.2144 19.3828ZM61.4175 12H62.1206V19.7695L62.0737 21H61.4175V12ZM66.5327 17.7715V17.8945C66.5327 18.3672 66.478 18.8008 66.3687 19.1953C66.2593 19.5898 66.1011 19.9316 65.894 20.2207C65.687 20.5059 65.4331 20.7266 65.1323 20.8828C64.8354 21.0391 64.4937 21.1172 64.1069 21.1172C63.728 21.1172 63.3921 21.0586 63.0991 20.9414C62.8062 20.8203 62.5562 20.6504 62.3491 20.4316C62.1421 20.209 61.9761 19.9492 61.8511 19.6523C61.7261 19.3516 61.6382 19.0215 61.5874 18.6621V17.0977C61.646 16.7148 61.7397 16.3672 61.8687 16.0547C61.9976 15.7422 62.1636 15.4727 62.3667 15.2461C62.5737 15.0195 62.8198 14.8457 63.105 14.7246C63.394 14.6035 63.7241 14.543 64.0952 14.543C64.4819 14.543 64.8257 14.6191 65.1265 14.7715C65.4312 14.9199 65.687 15.1367 65.894 15.4219C66.1011 15.7031 66.2593 16.043 66.3687 16.4414C66.478 16.8359 66.5327 17.2793 66.5327 17.7715ZM65.8237 17.8945V17.7715C65.8237 17.4004 65.7886 17.0566 65.7183 16.7402C65.6479 16.4238 65.5366 16.1484 65.3843 15.9141C65.2358 15.6758 65.0444 15.4902 64.8101 15.3574C64.5757 15.2246 64.2944 15.1582 63.9663 15.1582C63.6304 15.1582 63.3433 15.2148 63.105 15.3281C62.8706 15.4375 62.6753 15.584 62.519 15.7676C62.3667 15.9473 62.2456 16.1445 62.1558 16.3594C62.0659 16.5742 61.9995 16.7852 61.9565 16.9922V18.8145C62.0229 19.1074 62.1382 19.3828 62.3022 19.6406C62.4663 19.8984 62.687 20.1074 62.9644 20.2676C63.2417 20.4238 63.5796 20.502 63.978 20.502C64.2983 20.502 64.5737 20.4355 64.8042 20.3027C65.0386 20.1699 65.23 19.9863 65.3784 19.752C65.5308 19.5176 65.6421 19.2422 65.7124 18.9258C65.7866 18.6094 65.8237 18.2656 65.8237 17.8945ZM71.9409 19.8633V16.5938C71.9409 16.293 71.8784 16.0332 71.7534 15.8145C71.6284 15.5957 71.4448 15.4277 71.2026 15.3105C70.9604 15.1934 70.6616 15.1348 70.3062 15.1348C69.978 15.1348 69.6851 15.1934 69.4272 15.3105C69.1733 15.4238 68.9722 15.5781 68.8237 15.7734C68.6792 15.9648 68.6069 16.1777 68.6069 16.4121L67.9038 16.4062C67.9038 16.168 67.9624 15.9375 68.0796 15.7148C68.1968 15.4922 68.3628 15.293 68.5776 15.1172C68.7925 14.9414 69.0483 14.8027 69.3452 14.7012C69.646 14.5957 69.9761 14.543 70.3354 14.543C70.7886 14.543 71.187 14.6191 71.5308 14.7715C71.8784 14.9238 72.1499 15.1523 72.3452 15.457C72.5405 15.7617 72.6382 16.1445 72.6382 16.6055V19.6699C72.6382 19.8887 72.6538 20.1152 72.6851 20.3496C72.7202 20.584 72.769 20.7773 72.8315 20.9297V21H72.0874C72.0405 20.8594 72.0034 20.6836 71.9761 20.4727C71.9526 20.2578 71.9409 20.0547 71.9409 19.8633ZM72.105 17.3086L72.1167 17.8477H70.7397C70.3804 17.8477 70.0581 17.8809 69.7729 17.9473C69.4917 18.0098 69.2534 18.1035 69.0581 18.2285C68.8628 18.3496 68.7124 18.4961 68.6069 18.668C68.5054 18.8398 68.4546 19.0352 68.4546 19.2539C68.4546 19.4805 68.5112 19.6875 68.6245 19.875C68.7417 20.0625 68.9058 20.2129 69.1167 20.3262C69.3315 20.4355 69.5854 20.4902 69.8784 20.4902C70.269 20.4902 70.6128 20.418 70.9097 20.2734C71.2104 20.1289 71.4585 19.9395 71.6538 19.7051C71.8491 19.4707 71.98 19.2148 72.0464 18.9375L72.3511 19.3418C72.3003 19.5371 72.2065 19.7383 72.0698 19.9453C71.937 20.1484 71.7632 20.3398 71.5483 20.5195C71.3335 20.6953 71.0796 20.8398 70.7866 20.9531C70.4976 21.0625 70.1694 21.1172 69.8022 21.1172C69.3882 21.1172 69.0269 21.0391 68.7183 20.8828C68.4136 20.7266 68.1753 20.5137 68.0034 20.2441C67.8354 19.9707 67.7515 19.6621 67.7515 19.3184C67.7515 19.0059 67.8179 18.7266 67.9507 18.4805C68.0835 18.2305 68.2749 18.0195 68.5249 17.8477C68.7788 17.6719 69.0835 17.5391 69.439 17.4492C69.7983 17.3555 70.2007 17.3086 70.646 17.3086H72.105ZM78.3159 19.3828C78.3159 19.2109 78.2729 19.041 78.187 18.873C78.1011 18.7051 77.9351 18.5508 77.689 18.4102C77.4468 18.2695 77.0894 18.1504 76.6167 18.0527C76.2651 17.9746 75.9507 17.8867 75.6733 17.7891C75.3999 17.6914 75.1694 17.5742 74.9819 17.4375C74.7944 17.3008 74.6519 17.1367 74.5542 16.9453C74.4565 16.7539 74.4077 16.5273 74.4077 16.2656C74.4077 16.0312 74.4585 15.8105 74.5601 15.6035C74.6655 15.3926 74.814 15.209 75.0054 15.0527C75.2007 14.8926 75.4351 14.7676 75.7085 14.6777C75.9858 14.5879 76.2964 14.543 76.6401 14.543C77.1284 14.543 77.5464 14.627 77.894 14.7949C78.2456 14.959 78.5132 15.1836 78.6968 15.4688C78.8843 15.7539 78.978 16.0762 78.978 16.4355H78.2808C78.2808 16.2168 78.2163 16.0098 78.0874 15.8145C77.9624 15.6191 77.7769 15.459 77.5308 15.334C77.2886 15.209 76.9917 15.1465 76.6401 15.1465C76.2769 15.1465 75.9819 15.2012 75.7554 15.3105C75.5288 15.4199 75.3628 15.5586 75.2573 15.7266C75.1558 15.8945 75.105 16.0684 75.105 16.248C75.105 16.3887 75.1265 16.5176 75.1694 16.6348C75.2163 16.748 75.2983 16.8535 75.4155 16.9512C75.5366 17.0488 75.7085 17.1406 75.9312 17.2266C76.1538 17.3125 76.4429 17.3965 76.7983 17.4785C77.3101 17.5918 77.728 17.7305 78.0522 17.8945C78.3804 18.0547 78.6226 18.2539 78.7788 18.4922C78.9351 18.7266 79.0132 19.0117 79.0132 19.3477C79.0132 19.6094 78.9585 19.8496 78.8491 20.0684C78.7397 20.2832 78.5815 20.4688 78.3745 20.625C78.1714 20.7812 77.9253 20.9023 77.6362 20.9883C77.3511 21.0742 77.0308 21.1172 76.6753 21.1172C76.1401 21.1172 75.687 21.0293 75.3159 20.8535C74.9487 20.6738 74.6694 20.4395 74.478 20.1504C74.2905 19.8574 74.1968 19.5469 74.1968 19.2188H74.894C74.9175 19.5469 75.021 19.8066 75.2046 19.998C75.3882 20.1855 75.6128 20.3184 75.8784 20.3965C76.1479 20.4746 76.4136 20.5137 76.6753 20.5137C77.0347 20.5137 77.3354 20.4609 77.5776 20.3555C77.8198 20.25 78.0034 20.1113 78.1284 19.9395C78.2534 19.7676 78.3159 19.582 78.3159 19.3828ZM83.0503 21.1172C82.6362 21.1172 82.2554 21.041 81.9077 20.8887C81.564 20.7363 81.2632 20.5215 81.0054 20.2441C80.7515 19.9668 80.5542 19.6387 80.4136 19.2598C80.2769 18.877 80.2085 18.459 80.2085 18.0059V17.7539C80.2085 17.2656 80.2808 16.8242 80.4253 16.4297C80.5698 16.0352 80.769 15.6973 81.0229 15.416C81.2769 15.1348 81.5659 14.9199 81.8901 14.7715C82.2183 14.6191 82.562 14.543 82.9214 14.543C83.3237 14.543 83.6812 14.6152 83.9937 14.7598C84.3062 14.9004 84.5679 15.1016 84.7788 15.3633C84.9937 15.6211 85.1558 15.9277 85.2651 16.2832C85.3745 16.6348 85.4292 17.0234 85.4292 17.4492V17.877H80.6304V17.2793H84.7319V17.1973C84.7241 16.8418 84.6519 16.5098 84.5151 16.2012C84.3823 15.8887 84.1831 15.6348 83.9175 15.4395C83.6519 15.2441 83.3198 15.1465 82.9214 15.1465C82.6245 15.1465 82.3511 15.209 82.1011 15.334C81.855 15.459 81.6421 15.6387 81.4624 15.873C81.2866 16.1035 81.1499 16.3789 81.0522 16.6992C80.9585 17.0156 80.9116 17.3672 80.9116 17.7539V18.0059C80.9116 18.3574 80.9624 18.6855 81.064 18.9902C81.1694 19.291 81.3179 19.5566 81.5093 19.7871C81.7046 20.0176 81.9351 20.1973 82.2007 20.3262C82.4663 20.4551 82.7593 20.5195 83.0796 20.5195C83.4546 20.5195 83.7866 20.4512 84.0757 20.3145C84.3647 20.1738 84.6245 19.9531 84.855 19.6523L85.2944 19.9922C85.1577 20.1953 84.9858 20.3828 84.7788 20.5547C84.5757 20.7266 84.3315 20.8633 84.0464 20.9648C83.7612 21.0664 83.4292 21.1172 83.0503 21.1172ZM90.6675 19.8633V16.5938C90.6675 16.293 90.605 16.0332 90.48 15.8145C90.355 15.5957 90.1714 15.4277 89.9292 15.3105C89.687 15.1934 89.3882 15.1348 89.0327 15.1348C88.7046 15.1348 88.4116 15.1934 88.1538 15.3105C87.8999 15.4238 87.6987 15.5781 87.5503 15.7734C87.4058 15.9648 87.3335 16.1777 87.3335 16.4121L86.6304 16.4062C86.6304 16.168 86.689 15.9375 86.8062 15.7148C86.9233 15.4922 87.0894 15.293 87.3042 15.1172C87.519 14.9414 87.7749 14.8027 88.0718 14.7012C88.3726 14.5957 88.7026 14.543 89.062 14.543C89.5151 14.543 89.9136 14.6191 90.2573 14.7715C90.605 14.9238 90.8765 15.1523 91.0718 15.457C91.2671 15.7617 91.3647 16.1445 91.3647 16.6055V19.6699C91.3647 19.8887 91.3804 20.1152 91.4116 20.3496C91.4468 20.584 91.4956 20.7773 91.5581 20.9297V21H90.814C90.7671 20.8594 90.73 20.6836 90.7026 20.4727C90.6792 20.2578 90.6675 20.0547 90.6675 19.8633ZM90.8315 17.3086L90.8433 17.8477H89.4663C89.1069 17.8477 88.7847 17.8809 88.4995 17.9473C88.2183 18.0098 87.98 18.1035 87.7847 18.2285C87.5894 18.3496 87.439 18.4961 87.3335 18.668C87.2319 18.8398 87.1812 19.0352 87.1812 19.2539C87.1812 19.4805 87.2378 19.6875 87.3511 19.875C87.4683 20.0625 87.6323 20.2129 87.8433 20.3262C88.0581 20.4355 88.312 20.4902 88.605 20.4902C88.9956 20.4902 89.3394 20.418 89.6362 20.2734C89.937 20.1289 90.1851 19.9395 90.3804 19.7051C90.5757 19.4707 90.7065 19.2148 90.7729 18.9375L91.0776 19.3418C91.0269 19.5371 90.9331 19.7383 90.7964 19.9453C90.6636 20.1484 90.4897 20.3398 90.2749 20.5195C90.0601 20.6953 89.8062 20.8398 89.5132 20.9531C89.2241 21.0625 88.896 21.1172 88.5288 21.1172C88.1147 21.1172 87.7534 21.0391 87.4448 20.8828C87.1401 20.7266 86.9019 20.5137 86.73 20.2441C86.562 19.9707 86.478 19.6621 86.478 19.3184C86.478 19.0059 86.5444 18.7266 86.6772 18.4805C86.8101 18.2305 87.0015 18.0195 87.2515 17.8477C87.5054 17.6719 87.8101 17.5391 88.1655 17.4492C88.5249 17.3555 88.9272 17.3086 89.3726 17.3086H90.8315ZM97.3647 19.7695V12H98.0679V21H97.4116L97.3647 19.7695ZM92.9644 17.8945V17.7715C92.9644 17.2793 93.021 16.8359 93.1343 16.4414C93.2476 16.043 93.4097 15.7031 93.6206 15.4219C93.8354 15.1367 94.0933 14.9199 94.394 14.7715C94.6948 14.6191 95.0347 14.543 95.4136 14.543C95.7847 14.543 96.1128 14.6035 96.3979 14.7246C96.6831 14.8457 96.9272 15.0195 97.1304 15.2461C97.3374 15.4727 97.5034 15.7422 97.6284 16.0547C97.7573 16.3672 97.8511 16.7148 97.9097 17.0977V18.6621C97.8628 19.0215 97.7769 19.3516 97.6519 19.6523C97.5269 19.9492 97.3608 20.209 97.1538 20.4316C96.9468 20.6504 96.6968 20.8203 96.4038 20.9414C96.1147 21.0586 95.7808 21.1172 95.4019 21.1172C95.0269 21.1172 94.689 21.0391 94.3882 20.8828C94.0874 20.7266 93.8315 20.5059 93.6206 20.2207C93.4097 19.9316 93.2476 19.5898 93.1343 19.1953C93.021 18.8008 92.9644 18.3672 92.9644 17.8945ZM93.6675 17.7715V17.8945C93.6675 18.2656 93.7046 18.6094 93.7788 18.9258C93.853 19.2422 93.9663 19.5176 94.1187 19.752C94.271 19.9863 94.4644 20.1699 94.6987 20.3027C94.9331 20.4355 95.2104 20.502 95.5308 20.502C95.9331 20.502 96.271 20.4258 96.5444 20.2734C96.8179 20.1172 97.0366 19.9121 97.2007 19.6582C97.3647 19.4004 97.4839 19.1191 97.5581 18.8145V16.9922C97.5112 16.7852 97.4429 16.5742 97.353 16.3594C97.2632 16.1445 97.1401 15.9473 96.9839 15.7676C96.8315 15.584 96.6362 15.4375 96.3979 15.3281C96.1636 15.2148 95.8784 15.1582 95.5425 15.1582C95.2183 15.1582 94.939 15.2246 94.7046 15.3574C94.4702 15.4902 94.2749 15.6758 94.1187 15.9141C93.9663 16.1484 93.853 16.4238 93.7788 16.7402C93.7046 17.0566 93.6675 17.4004 93.6675 17.7715ZM99.5269 17.9297V17.7363C99.5269 17.2754 99.5933 16.8496 99.7261 16.459C99.8589 16.0684 100.048 15.7305 100.294 15.4453C100.544 15.1602 100.843 14.9395 101.191 14.7832C101.539 14.623 101.925 14.543 102.351 14.543C102.781 14.543 103.169 14.623 103.517 14.7832C103.865 14.9395 104.164 15.1602 104.414 15.4453C104.664 15.7305 104.855 16.0684 104.988 16.459C105.121 16.8496 105.187 17.2754 105.187 17.7363V17.9297C105.187 18.3906 105.121 18.8164 104.988 19.207C104.855 19.5938 104.664 19.9297 104.414 20.2148C104.167 20.5 103.871 20.7227 103.523 20.8828C103.175 21.0391 102.789 21.1172 102.363 21.1172C101.933 21.1172 101.544 21.0391 101.197 20.8828C100.849 20.7227 100.55 20.5 100.3 20.2148C100.05 19.9297 99.8589 19.5938 99.7261 19.207C99.5933 18.8164 99.5269 18.3906 99.5269 17.9297ZM100.224 17.7363V17.9297C100.224 18.2773 100.271 18.6074 100.365 18.9199C100.458 19.2285 100.595 19.5039 100.775 19.7461C100.955 19.9844 101.177 20.1719 101.443 20.3086C101.708 20.4453 102.015 20.5137 102.363 20.5137C102.707 20.5137 103.009 20.4453 103.271 20.3086C103.537 20.1719 103.759 19.9844 103.939 19.7461C104.119 19.5039 104.253 19.2285 104.343 18.9199C104.437 18.6074 104.484 18.2773 104.484 17.9297V17.7363C104.484 17.3926 104.437 17.0664 104.343 16.7578C104.253 16.4492 104.117 16.1738 103.933 15.9316C103.753 15.6895 103.531 15.498 103.265 15.3574C103 15.2168 102.695 15.1465 102.351 15.1465C102.007 15.1465 101.703 15.2168 101.437 15.3574C101.175 15.498 100.953 15.6895 100.769 15.9316C100.589 16.1738 100.453 16.4492 100.359 16.7578C100.269 17.0664 100.224 17.3926 100.224 17.7363ZM110.437 19.3828C110.437 19.2109 110.394 19.041 110.308 18.873C110.222 18.7051 110.056 18.5508 109.81 18.4102C109.568 18.2695 109.21 18.1504 108.738 18.0527C108.386 17.9746 108.072 17.8867 107.794 17.7891C107.521 17.6914 107.291 17.5742 107.103 17.4375C106.916 17.3008 106.773 17.1367 106.675 16.9453C106.578 16.7539 106.529 16.5273 106.529 16.2656C106.529 16.0312 106.58 15.8105 106.681 15.6035C106.787 15.3926 106.935 15.209 107.126 15.0527C107.322 14.8926 107.556 14.7676 107.83 14.6777C108.107 14.5879 108.417 14.543 108.761 14.543C109.25 14.543 109.667 14.627 110.015 14.7949C110.367 14.959 110.634 15.1836 110.818 15.4688C111.005 15.7539 111.099 16.0762 111.099 16.4355H110.402C110.402 16.2168 110.337 16.0098 110.208 15.8145C110.083 15.6191 109.898 15.459 109.652 15.334C109.41 15.209 109.113 15.1465 108.761 15.1465C108.398 15.1465 108.103 15.2012 107.876 15.3105C107.65 15.4199 107.484 15.5586 107.378 15.7266C107.277 15.8945 107.226 16.0684 107.226 16.248C107.226 16.3887 107.248 16.5176 107.291 16.6348C107.337 16.748 107.419 16.8535 107.537 16.9512C107.658 17.0488 107.83 17.1406 108.052 17.2266C108.275 17.3125 108.564 17.3965 108.919 17.4785C109.431 17.5918 109.849 17.7305 110.173 17.8945C110.501 18.0547 110.744 18.2539 110.9 18.4922C111.056 18.7266 111.134 19.0117 111.134 19.3477C111.134 19.6094 111.08 19.8496 110.97 20.0684C110.861 20.2832 110.703 20.4688 110.496 20.625C110.292 20.7812 110.046 20.9023 109.757 20.9883C109.472 21.0742 109.152 21.1172 108.796 21.1172C108.261 21.1172 107.808 21.0293 107.437 20.8535C107.07 20.6738 106.791 20.4395 106.599 20.1504C106.412 19.8574 106.318 19.5469 106.318 19.2188H107.015C107.039 19.5469 107.142 19.8066 107.326 19.998C107.509 20.1855 107.734 20.3184 108 20.3965C108.269 20.4746 108.535 20.5137 108.796 20.5137C109.156 20.5137 109.457 20.4609 109.699 20.3555C109.941 20.25 110.125 20.1113 110.25 19.9395C110.375 19.7676 110.437 19.582 110.437 19.3828ZM116.349 16.0137V21H115.652V14.6602H116.32L116.349 16.0137ZM116.191 17.4375L115.88 17.2617C115.904 16.8867 115.98 16.5352 116.109 16.207C116.238 15.8789 116.412 15.5898 116.63 15.3398C116.853 15.0898 117.113 14.8945 117.41 14.7539C117.71 14.6133 118.042 14.543 118.406 14.543C118.722 14.543 119.005 14.5859 119.255 14.6719C119.505 14.7578 119.718 14.8945 119.894 15.082C120.07 15.2695 120.203 15.5098 120.292 15.8027C120.386 16.0957 120.433 16.4531 120.433 16.875V21H119.73V16.8691C119.73 16.4316 119.669 16.0898 119.548 15.8438C119.427 15.5938 119.255 15.416 119.033 15.3105C118.81 15.2051 118.546 15.1523 118.242 15.1523C117.906 15.1523 117.611 15.2266 117.357 15.375C117.107 15.5195 116.896 15.709 116.724 15.9434C116.556 16.1738 116.427 16.4219 116.337 16.6875C116.248 16.9492 116.199 17.1992 116.191 17.4375ZM121.863 17.9297V17.7363C121.863 17.2754 121.929 16.8496 122.062 16.459C122.195 16.0684 122.384 15.7305 122.63 15.4453C122.88 15.1602 123.179 14.9395 123.527 14.7832C123.875 14.623 124.261 14.543 124.687 14.543C125.117 14.543 125.505 14.623 125.853 14.7832C126.201 14.9395 126.5 15.1602 126.75 15.4453C127 15.7305 127.191 16.0684 127.324 16.459C127.457 16.8496 127.523 17.2754 127.523 17.7363V17.9297C127.523 18.3906 127.457 18.8164 127.324 19.207C127.191 19.5938 127 19.9297 126.75 20.2148C126.503 20.5 126.207 20.7227 125.859 20.8828C125.511 21.0391 125.125 21.1172 124.699 21.1172C124.269 21.1172 123.88 21.0391 123.533 20.8828C123.185 20.7227 122.886 20.5 122.636 20.2148C122.386 19.9297 122.195 19.5938 122.062 19.207C121.929 18.8164 121.863 18.3906 121.863 17.9297ZM122.56 17.7363V17.9297C122.56 18.2773 122.607 18.6074 122.701 18.9199C122.794 19.2285 122.931 19.5039 123.111 19.7461C123.291 19.9844 123.513 20.1719 123.779 20.3086C124.044 20.4453 124.351 20.5137 124.699 20.5137C125.042 20.5137 125.345 20.4453 125.607 20.3086C125.873 20.1719 126.095 19.9844 126.275 19.7461C126.455 19.5039 126.589 19.2285 126.679 18.9199C126.773 18.6074 126.82 18.2773 126.82 17.9297V17.7363C126.82 17.3926 126.773 17.0664 126.679 16.7578C126.589 16.4492 126.453 16.1738 126.269 15.9316C126.089 15.6895 125.867 15.498 125.601 15.3574C125.335 15.2168 125.031 15.1465 124.687 15.1465C124.343 15.1465 124.039 15.2168 123.773 15.3574C123.511 15.498 123.289 15.6895 123.105 15.9316C122.925 16.1738 122.789 16.4492 122.695 16.7578C122.605 17.0664 122.56 17.3926 122.56 17.7363ZM134.244 20.5137C134.541 20.5137 134.818 20.459 135.076 20.3496C135.337 20.2363 135.552 20.0703 135.72 19.8516C135.892 19.6289 135.99 19.3574 136.013 19.0371H136.681C136.662 19.4395 136.539 19.7988 136.312 20.1152C136.089 20.4277 135.796 20.6738 135.433 20.8535C135.074 21.0293 134.677 21.1172 134.244 21.1172C133.802 21.1172 133.412 21.0371 133.072 20.877C132.736 20.7168 132.455 20.4941 132.228 20.209C132.001 19.9199 131.83 19.584 131.712 19.2012C131.599 18.8145 131.542 18.3984 131.542 17.9531V17.707C131.542 17.2617 131.599 16.8477 131.712 16.4648C131.83 16.0781 132.001 15.7422 132.228 15.457C132.455 15.168 132.736 14.9434 133.072 14.7832C133.408 14.623 133.796 14.543 134.238 14.543C134.691 14.543 135.097 14.6348 135.457 14.8184C135.82 15.002 136.109 15.2617 136.324 15.5977C136.542 15.9336 136.662 16.332 136.681 16.793H136.013C135.994 16.4531 135.904 16.1602 135.744 15.9141C135.583 15.668 135.373 15.4785 135.111 15.3457C134.849 15.2129 134.558 15.1465 134.238 15.1465C133.878 15.1465 133.572 15.2168 133.318 15.3574C133.064 15.4941 132.857 15.6836 132.697 15.9258C132.541 16.1641 132.425 16.4375 132.351 16.7461C132.277 17.0508 132.24 17.3711 132.24 17.707V17.9531C132.24 18.293 132.275 18.6172 132.345 18.9258C132.419 19.2305 132.535 19.502 132.691 19.7402C132.851 19.9785 133.058 20.168 133.312 20.3086C133.57 20.4453 133.88 20.5137 134.244 20.5137ZM140.542 21.1172C140.128 21.1172 139.748 21.041 139.4 20.8887C139.056 20.7363 138.755 20.5215 138.498 20.2441C138.244 19.9668 138.046 19.6387 137.906 19.2598C137.769 18.877 137.701 18.459 137.701 18.0059V17.7539C137.701 17.2656 137.773 16.8242 137.917 16.4297C138.062 16.0352 138.261 15.6973 138.515 15.416C138.769 15.1348 139.058 14.9199 139.382 14.7715C139.71 14.6191 140.054 14.543 140.414 14.543C140.816 14.543 141.173 14.6152 141.486 14.7598C141.798 14.9004 142.06 15.1016 142.271 15.3633C142.486 15.6211 142.648 15.9277 142.757 16.2832C142.867 16.6348 142.921 17.0234 142.921 17.4492V17.877H138.123V17.2793H142.224V17.1973C142.216 16.8418 142.144 16.5098 142.007 16.2012C141.875 15.8887 141.675 15.6348 141.41 15.4395C141.144 15.2441 140.812 15.1465 140.414 15.1465C140.117 15.1465 139.843 15.209 139.593 15.334C139.347 15.459 139.134 15.6387 138.955 15.873C138.779 16.1035 138.642 16.3789 138.544 16.6992C138.451 17.0156 138.404 17.3672 138.404 17.7539V18.0059C138.404 18.3574 138.455 18.6855 138.556 18.9902C138.662 19.291 138.81 19.5566 139.001 19.7871C139.197 20.0176 139.427 20.1973 139.693 20.3262C139.958 20.4551 140.251 20.5195 140.572 20.5195C140.947 20.5195 141.279 20.4512 141.568 20.3145C141.857 20.1738 142.117 19.9531 142.347 19.6523L142.787 19.9922C142.65 20.1953 142.478 20.3828 142.271 20.5547C142.068 20.7266 141.824 20.8633 141.539 20.9648C141.253 21.0664 140.921 21.1172 140.542 21.1172ZM145.001 16.0137V21H144.304V14.6602H144.972L145.001 16.0137ZM144.843 17.4375L144.533 17.2617C144.556 16.8867 144.632 16.5352 144.761 16.207C144.89 15.8789 145.064 15.5898 145.283 15.3398C145.505 15.0898 145.765 14.8945 146.062 14.7539C146.363 14.6133 146.695 14.543 147.058 14.543C147.375 14.543 147.658 14.5859 147.908 14.6719C148.158 14.7578 148.371 14.8945 148.546 15.082C148.722 15.2695 148.855 15.5098 148.945 15.8027C149.039 16.0957 149.085 16.4531 149.085 16.875V21H148.382V16.8691C148.382 16.4316 148.322 16.0898 148.201 15.8438C148.08 15.5938 147.908 15.416 147.685 15.3105C147.462 15.2051 147.199 15.1523 146.894 15.1523C146.558 15.1523 146.263 15.2266 146.009 15.375C145.759 15.5195 145.548 15.709 145.376 15.9434C145.208 16.1738 145.08 16.4219 144.99 16.6875C144.9 16.9492 144.851 17.1992 144.843 17.4375ZM154.699 19.3828C154.699 19.2109 154.656 19.041 154.57 18.873C154.484 18.7051 154.318 18.5508 154.072 18.4102C153.83 18.2695 153.472 18.1504 153 18.0527C152.648 17.9746 152.333 17.8867 152.056 17.7891C151.783 17.6914 151.552 17.5742 151.365 17.4375C151.177 17.3008 151.035 17.1367 150.937 16.9453C150.839 16.7539 150.791 16.5273 150.791 16.2656C150.791 16.0312 150.841 15.8105 150.943 15.6035C151.048 15.3926 151.197 15.209 151.388 15.0527C151.583 14.8926 151.818 14.7676 152.091 14.6777C152.369 14.5879 152.679 14.543 153.023 14.543C153.511 14.543 153.929 14.627 154.277 14.7949C154.628 14.959 154.896 15.1836 155.08 15.4688C155.267 15.7539 155.361 16.0762 155.361 16.4355H154.664C154.664 16.2168 154.599 16.0098 154.47 15.8145C154.345 15.6191 154.16 15.459 153.914 15.334C153.671 15.209 153.375 15.1465 153.023 15.1465C152.66 15.1465 152.365 15.2012 152.138 15.3105C151.912 15.4199 151.746 15.5586 151.64 15.7266C151.539 15.8945 151.488 16.0684 151.488 16.248C151.488 16.3887 151.509 16.5176 151.552 16.6348C151.599 16.748 151.681 16.8535 151.798 16.9512C151.919 17.0488 152.091 17.1406 152.314 17.2266C152.537 17.3125 152.826 17.3965 153.181 17.4785C153.693 17.5918 154.111 17.7305 154.435 17.8945C154.763 18.0547 155.005 18.2539 155.162 18.4922C155.318 18.7266 155.396 19.0117 155.396 19.3477C155.396 19.6094 155.341 19.8496 155.232 20.0684C155.123 20.2832 154.964 20.4688 154.757 20.625C154.554 20.7812 154.308 20.9023 154.019 20.9883C153.734 21.0742 153.414 21.1172 153.058 21.1172C152.523 21.1172 152.07 21.0293 151.699 20.8535C151.332 20.6738 151.052 20.4395 150.861 20.1504C150.673 19.8574 150.58 19.5469 150.58 19.2188H151.277C151.3 19.5469 151.404 19.8066 151.587 19.998C151.771 20.1855 151.996 20.3184 152.261 20.3965C152.531 20.4746 152.796 20.5137 153.058 20.5137C153.417 20.5137 153.718 20.4609 153.96 20.3555C154.203 20.25 154.386 20.1113 154.511 19.9395C154.636 19.7676 154.699 19.582 154.699 19.3828ZM156.597 17.9297V17.7363C156.597 17.2754 156.664 16.8496 156.796 16.459C156.929 16.0684 157.119 15.7305 157.365 15.4453C157.615 15.1602 157.914 14.9395 158.261 14.7832C158.609 14.623 158.996 14.543 159.421 14.543C159.851 14.543 160.24 14.623 160.587 14.7832C160.935 14.9395 161.234 15.1602 161.484 15.4453C161.734 15.7305 161.925 16.0684 162.058 16.459C162.191 16.8496 162.257 17.2754 162.257 17.7363V17.9297C162.257 18.3906 162.191 18.8164 162.058 19.207C161.925 19.5938 161.734 19.9297 161.484 20.2148C161.238 20.5 160.941 20.7227 160.593 20.8828C160.246 21.0391 159.859 21.1172 159.433 21.1172C159.003 21.1172 158.615 21.0391 158.267 20.8828C157.919 20.7227 157.621 20.5 157.371 20.2148C157.121 19.9297 156.929 19.5938 156.796 19.207C156.664 18.8164 156.597 18.3906 156.597 17.9297ZM157.294 17.7363V17.9297C157.294 18.2773 157.341 18.6074 157.435 18.9199C157.529 19.2285 157.666 19.5039 157.845 19.7461C158.025 19.9844 158.248 20.1719 158.513 20.3086C158.779 20.4453 159.085 20.5137 159.433 20.5137C159.777 20.5137 160.08 20.4453 160.341 20.3086C160.607 20.1719 160.83 19.9844 161.009 19.7461C161.189 19.5039 161.324 19.2285 161.414 18.9199C161.507 18.6074 161.554 18.2773 161.554 17.9297V17.7363C161.554 17.3926 161.507 17.0664 161.414 16.7578C161.324 16.4492 161.187 16.1738 161.003 15.9316C160.824 15.6895 160.601 15.498 160.335 15.3574C160.07 15.2168 159.765 15.1465 159.421 15.1465C159.078 15.1465 158.773 15.2168 158.507 15.3574C158.246 15.498 158.023 15.6895 157.839 15.9316C157.66 16.1738 157.523 16.4492 157.429 16.7578C157.339 17.0664 157.294 17.3926 157.294 17.7363ZM167.683 12.4688V21H166.962V12.4688H167.683ZM172.939 16.8984H170.537L170.525 16.2891H172.593C173.015 16.2891 173.375 16.2285 173.671 16.1074C173.968 15.9863 174.193 15.8066 174.345 15.5684C174.501 15.3262 174.58 15.0293 174.58 14.6777C174.58 14.3184 174.503 14.0215 174.351 13.7871C174.199 13.5488 173.97 13.373 173.666 13.2598C173.361 13.1465 172.978 13.0898 172.517 13.0898H170.724V21H170.003V12.4688H172.517C172.951 12.4688 173.339 12.5117 173.683 12.5977C174.027 12.6836 174.32 12.8184 174.562 13.002C174.804 13.1855 174.988 13.418 175.113 13.6992C175.242 13.9766 175.306 14.3086 175.306 14.6953C175.306 15.0469 175.228 15.3652 175.072 15.6504C174.916 15.9316 174.695 16.1621 174.41 16.3418C174.128 16.5176 173.791 16.627 173.396 16.6699L172.939 16.8984ZM172.886 21H170.308L170.677 20.3848H172.886C173.308 20.3848 173.667 20.3145 173.964 20.1738C174.265 20.0293 174.496 19.8242 174.656 19.5586C174.816 19.293 174.896 18.9766 174.896 18.6094C174.896 18.2852 174.826 17.9941 174.685 17.7363C174.544 17.4785 174.33 17.2754 174.041 17.127C173.751 16.9746 173.384 16.8984 172.939 16.8984H171.445L171.457 16.2891H173.572L173.701 16.5059C174.083 16.5449 174.417 16.6641 174.703 16.8633C174.992 17.0586 175.214 17.3066 175.371 17.6074C175.531 17.9082 175.611 18.2383 175.611 18.5977C175.611 19.1133 175.496 19.5508 175.265 19.9102C175.039 20.2656 174.72 20.5371 174.31 20.7246C173.904 20.9082 173.429 21 172.886 21ZM183.515 16.9453V19.9805C183.417 20.125 183.25 20.2852 183.011 20.4609C182.773 20.6367 182.453 20.791 182.05 20.9238C181.648 21.0527 181.148 21.1172 180.55 21.1172C180.05 21.1172 179.591 21.0273 179.173 20.8477C178.755 20.668 178.392 20.4082 178.083 20.0684C177.779 19.7246 177.542 19.3125 177.375 18.832C177.21 18.3516 177.128 17.8125 177.128 17.2148V16.1836C177.128 15.5977 177.205 15.0703 177.357 14.6016C177.509 14.1289 177.73 13.7246 178.019 13.3887C178.308 13.0527 178.656 12.7969 179.062 12.6211C179.472 12.4414 179.931 12.3516 180.439 12.3516C181.072 12.3516 181.605 12.4609 182.039 12.6797C182.472 12.8984 182.81 13.1992 183.052 13.582C183.298 13.9609 183.451 14.3906 183.509 14.8711H182.789C182.734 14.5312 182.621 14.2188 182.449 13.9336C182.277 13.6445 182.027 13.4121 181.699 13.2363C181.375 13.0605 180.955 12.9727 180.439 12.9727C180.025 12.9727 179.656 13.0488 179.332 13.2012C179.011 13.3535 178.742 13.5703 178.523 13.8516C178.304 14.1328 178.138 14.4707 178.025 14.8652C177.912 15.2559 177.855 15.6914 177.855 16.1719V17.2148C177.855 17.7148 177.917 18.166 178.042 18.5684C178.171 18.9707 178.355 19.3164 178.593 19.6055C178.832 19.8945 179.117 20.1172 179.449 20.2734C179.781 20.4258 180.15 20.502 180.556 20.502C180.99 20.502 181.359 20.4609 181.664 20.3789C181.968 20.2969 182.212 20.1992 182.396 20.0859C182.583 19.9688 182.718 19.8594 182.8 19.7578V17.5605H180.509V16.9453H183.515ZM190.88 20.3848V21H186.082V20.3848H190.88ZM186.298 12.4688V21H185.578V12.4688H186.298ZM190.283 16.2949V16.9102H186.082V16.2949H190.283ZM190.851 12.4688V13.0898H186.082V12.4688H190.851ZM200.402 20.3965V21H195.064V20.4551L197.859 17.2852C198.207 16.8906 198.484 16.5449 198.691 16.248C198.898 15.9473 199.046 15.6738 199.136 15.4277C199.23 15.1777 199.277 14.9355 199.277 14.7012C199.277 14.3574 199.208 14.0547 199.072 13.793C198.939 13.5312 198.74 13.3262 198.474 13.1777C198.208 13.0293 197.88 12.9551 197.49 12.9551C197.099 12.9551 196.759 13.0391 196.47 13.207C196.181 13.375 195.958 13.6094 195.802 13.9102C195.65 14.207 195.574 14.5449 195.574 14.9238H194.876C194.876 14.4551 194.98 14.0254 195.187 13.6348C195.398 13.2441 195.699 12.9336 196.089 12.7031C196.48 12.4688 196.947 12.3516 197.49 12.3516C198.005 12.3516 198.449 12.4434 198.82 12.627C199.191 12.8066 199.476 13.0664 199.675 13.4062C199.878 13.7461 199.98 14.1562 199.98 14.6367C199.98 14.8945 199.933 15.1543 199.839 15.416C199.75 15.6777 199.625 15.9395 199.464 16.2012C199.308 16.459 199.128 16.7148 198.925 16.9688C198.726 17.2227 198.517 17.4727 198.298 17.7188L195.919 20.3965H200.402ZM206.859 16.002V17.4375C206.859 18.0625 206.8 18.6074 206.683 19.0723C206.566 19.5332 206.394 19.916 206.167 20.2207C205.945 20.5215 205.671 20.7461 205.347 20.8945C205.027 21.043 204.66 21.1172 204.246 21.1172C203.917 21.1172 203.617 21.0703 203.343 20.9766C203.07 20.8828 202.826 20.7402 202.611 20.5488C202.4 20.3535 202.22 20.1094 202.072 19.8164C201.923 19.5234 201.81 19.1797 201.732 18.7852C201.654 18.3867 201.615 17.9375 201.615 17.4375V16.002C201.615 15.373 201.673 14.8301 201.791 14.373C201.912 13.916 202.083 13.5371 202.306 13.2363C202.533 12.9355 202.808 12.7129 203.132 12.5684C203.457 12.4199 203.824 12.3457 204.234 12.3457C204.562 12.3457 204.863 12.3945 205.136 12.4922C205.414 12.5859 205.658 12.7266 205.869 12.9141C206.083 13.1016 206.263 13.3418 206.408 13.6348C206.556 13.9238 206.667 14.2656 206.742 14.6602C206.82 15.0547 206.859 15.502 206.859 16.002ZM206.162 17.5195V15.9141C206.162 15.5273 206.134 15.1758 206.08 14.8594C206.029 14.543 205.953 14.2656 205.851 14.0273C205.75 13.7891 205.621 13.5898 205.464 13.4297C205.312 13.2695 205.132 13.1504 204.925 13.0723C204.722 12.9902 204.492 12.9492 204.234 12.9492C203.917 12.9492 203.638 13.0137 203.396 13.1426C203.158 13.2676 202.958 13.4551 202.798 13.7051C202.638 13.9512 202.517 14.2598 202.435 14.6309C202.357 15.002 202.318 15.4297 202.318 15.9141V17.5195C202.318 17.9023 202.343 18.252 202.394 18.5684C202.445 18.8809 202.523 19.1582 202.628 19.4004C202.734 19.6426 202.863 19.8477 203.015 20.0156C203.171 20.1797 203.351 20.3047 203.554 20.3906C203.761 20.4727 203.992 20.5137 204.246 20.5137C204.57 20.5137 204.851 20.4492 205.089 20.3203C205.328 20.1875 205.527 19.9941 205.687 19.7402C205.847 19.4824 205.966 19.168 206.044 18.7969C206.123 18.4219 206.162 17.9961 206.162 17.5195ZM211.634 12.4336V21H210.937V13.3184L208.617 14.1797V13.5176L211.517 12.4336H211.634ZM220.171 16.002V17.4375C220.171 18.0625 220.113 18.6074 219.996 19.0723C219.878 19.5332 219.707 19.916 219.48 20.2207C219.257 20.5215 218.984 20.7461 218.66 20.8945C218.339 21.043 217.972 21.1172 217.558 21.1172C217.23 21.1172 216.929 21.0703 216.656 20.9766C216.382 20.8828 216.138 20.7402 215.923 20.5488C215.712 20.3535 215.533 20.1094 215.384 19.8164C215.236 19.5234 215.123 19.1797 215.044 18.7852C214.966 18.3867 214.927 17.9375 214.927 17.4375V16.002C214.927 15.373 214.986 14.8301 215.103 14.373C215.224 13.916 215.396 13.5371 215.619 13.2363C215.845 12.9355 216.121 12.7129 216.445 12.5684C216.769 12.4199 217.136 12.3457 217.546 12.3457C217.875 12.3457 218.175 12.3945 218.449 12.4922C218.726 12.5859 218.97 12.7266 219.181 12.9141C219.396 13.1016 219.576 13.3418 219.72 13.6348C219.869 13.9238 219.98 14.2656 220.054 14.6602C220.132 15.0547 220.171 15.502 220.171 16.002ZM219.474 17.5195V15.9141C219.474 15.5273 219.447 15.1758 219.392 14.8594C219.341 14.543 219.265 14.2656 219.164 14.0273C219.062 13.7891 218.933 13.5898 218.777 13.4297C218.625 13.2695 218.445 13.1504 218.238 13.0723C218.035 12.9902 217.804 12.9492 217.546 12.9492C217.23 12.9492 216.951 13.0137 216.708 13.1426C216.47 13.2676 216.271 13.4551 216.111 13.7051C215.951 13.9512 215.83 14.2598 215.748 14.6309C215.669 15.002 215.63 15.4297 215.63 15.9141V17.5195C215.63 17.9023 215.656 18.252 215.707 18.5684C215.757 18.8809 215.835 19.1582 215.941 19.4004C216.046 19.6426 216.175 19.8477 216.328 20.0156C216.484 20.1797 216.664 20.3047 216.867 20.3906C217.074 20.4727 217.304 20.5137 217.558 20.5137C217.882 20.5137 218.164 20.4492 218.402 20.3203C218.64 20.1875 218.839 19.9941 219 19.7402C219.16 19.4824 219.279 19.168 219.357 18.7969C219.435 18.4219 219.474 17.9961 219.474 17.5195ZM221.736 20.5723C221.736 20.4355 221.779 20.3203 221.865 20.2266C221.955 20.1289 222.076 20.0801 222.228 20.0801C222.384 20.0801 222.507 20.127 222.597 20.2207C222.687 20.3145 222.732 20.4316 222.732 20.5723C222.732 20.7051 222.687 20.8184 222.597 20.9121C222.507 21.0059 222.384 21.0527 222.228 21.0527C222.076 21.0527 221.955 21.0059 221.865 20.9121C221.779 20.8184 221.736 20.7051 221.736 20.5723Z" fill="black"/>
<path d="M14.3687 59C18.7869 59 22.3687 55.4183 22.3687 51C22.3687 46.5817 18.7869 43 14.3687 43C9.95037 43 6.36865 46.5817 6.36865 51C6.36865 55.4183 9.95037 59 14.3687 59Z" stroke="#2C2C2C" stroke-width="2" stroke-miterlimit="10"/>
<path d="M13.2687 53.2984C13.2687 52.5984 13.3687 52.0984 13.4687 51.6984C13.5687 51.2984 13.9687 50.8984 14.3687 50.4984C14.7687 50.0984 15.0687 49.7984 15.2687 49.5984C15.3687 49.3984 15.4687 49.0984 15.4687 48.7984C15.4687 47.9984 15.0687 47.5984 14.3687 47.5984C13.9687 47.5984 13.7687 47.6984 13.4687 47.8984C13.3687 48.0984 13.2687 48.3984 13.1687 48.7984H11.1687C11.1687 47.8984 11.4687 47.1984 12.0687 46.5984C12.5687 46.0984 13.3687 45.8984 14.3687 45.8984C15.3687 45.8984 16.1687 46.0984 16.7687 46.5984C17.3687 47.0984 17.5687 47.7984 17.5687 48.6984C17.5687 49.0984 17.4687 49.4984 17.2687 49.8984C17.0687 50.2984 16.7687 50.6984 16.2687 51.0984L15.6687 51.6984C15.2687 52.0984 15.0687 52.4984 15.0687 52.8984V53.2984H13.2687ZM13.0687 55.4984C13.0687 55.1984 13.1687 54.8984 13.3687 54.6984C13.5687 54.4984 13.8687 54.3984 14.1687 54.3984C14.4687 54.3984 14.7687 54.4984 14.9687 54.6984C15.1687 54.8984 15.2687 55.1984 15.2687 55.4984C15.2687 55.7984 15.1687 56.0984 14.9687 56.2984C14.7687 56.4984 14.4687 56.5984 14.1687 56.5984C13.8687 56.5984 13.6687 56.4984 13.3687 56.2984C13.0687 56.0984 13.0687 55.7984 13.0687 55.4984Z" fill="#2C2C2C"/>
<defs>
<filter id="filter0_d_2085_9440" x="0.368652" y="0" width="272" height="42" filterUnits="userSpaceOnUse" color-interpolation-filters="sRGB">
<feFlood flood-opacity="0" result="BackgroundImageFix"/>
<feColorMatrix in="SourceAlpha" type="matrix" values="0 0 0 0 0 0 0 0 0 0 0 0 0 0 0 0 0 0 127 0" result="hardAlpha"/>
<feOffset dx="2" dy="4"/>
<feGaussianBlur stdDeviation="3"/>
<feComposite in2="hardAlpha" operator="out"/>
<feColorMatrix type="matrix" values="0 0 0 0 0 0 0 0 0 0 0 0 0 0 0 0 0 0 0.25 0"/>
<feBlend mode="normal" in2="BackgroundImageFix" result="effect1_dropShadow_2085_9440"/>
<feBlend mode="normal" in="SourceGraphic" in2="effect1_dropShadow_2085_9440" result="shape"/>
</filter>
</defs>
</svg>
