<svg width="21" height="20" viewBox="0 0 21 20" fill="none" xmlns="http://www.w3.org/2000/svg">
<path d="M8.86854 11.6038C7.46854 10.7038 7.16854 8.9038 8.06854 7.6038L10.9685 3.3038C11.8685 2.0038 13.5685 1.7038 14.8685 2.5038H14.9685C16.2685 3.4038 16.5685 5.1038 15.7685 6.4038L12.8685 10.7038C11.8685 12.2038 10.0685 12.5038 8.86854 11.6038Z" stroke="#2C2C2C" stroke-width="2" stroke-miterlimit="10"/>
<path d="M14.4687 8.49937C15.5687 9.39937 15.7687 10.9994 14.8687 12.2994L12.0687 16.3994C11.1687 17.6994 9.46866 18.0994 8.16866 17.2994L7.86866 17.0994C6.66866 16.2994 6.36866 14.4994 7.26866 13.1994L8.26866 11.6994L8.56866 11.2994L8.86866 10.9994L10.1687 8.99937C11.0687 7.69937 12.7687 7.29937 14.0687 8.09937L14.2687 8.19937" stroke="#2C2C2C" stroke-width="2" stroke-miterlimit="10"/>
</svg>
