<svg width="21" height="20" viewBox="0 0 21 20" fill="none" xmlns="http://www.w3.org/2000/svg">
<path d="M17.1687 15.8969H3.56865C2.86865 15.8969 2.36865 15.3969 2.36865 14.6969V4.49688C2.36865 3.79688 2.86865 3.29688 3.56865 3.29688H17.1687C17.8687 3.29688 18.3687 3.79688 18.3687 4.49688V14.6969C18.3687 15.3969 17.8687 15.8969 17.1687 15.8969Z" stroke="#2C2C2C" stroke-width="2" stroke-miterlimit="10" stroke-linecap="round" stroke-linejoin="round"/>
<path d="M6.46875 8.39844C7.29718 8.39844 7.96875 7.72686 7.96875 6.89844C7.96875 6.07001 7.29718 5.39844 6.46875 5.39844C5.64032 5.39844 4.96875 6.07001 4.96875 6.89844C4.96875 7.72686 5.64032 8.39844 6.46875 8.39844Z" fill="#2C2C2C"/>
<path d="M5.0686 11.8016V13.3016H15.8686V9.90156L12.5686 6.60156L8.6686 10.6016L7.4686 9.40156L5.0686 11.8016Z" fill="#2C2C2C"/>
</svg>
