<svg width="21" height="20" viewBox="0 0 21 20" fill="none" xmlns="http://www.w3.org/2000/svg">
<path d="M18.5687 10.1C18.5687 13.4 13.6687 15.9 10.3687 15.9C7.0687 15.9 2.1687 13.4 2.1687 10.1C2.1687 6.8 7.0687 4 10.3687 4C13.6687 4 18.5687 6.8 18.5687 10.1Z" stroke="#2C2C2C" stroke-width="2" stroke-miterlimit="10"/>
<path d="M13.2687 11.6016C12.6687 12.5016 11.6687 13.1016 10.4687 13.1016C8.6687 13.1016 7.1687 11.6016 7.1687 9.80156C7.1687 9.00156 7.4687 8.20156 7.9687 7.60156" stroke="#2C2C2C" stroke-width="2" stroke-miterlimit="10"/>
<path d="M7.46863 8.29688C8.06863 7.39688 9.06863 6.79688 10.2686 6.79688C12.0686 6.79688 13.5686 8.29688 13.5686 10.0969C13.5686 10.8969 13.2686 11.6969 12.7686 12.2969" stroke="#2C2C2C" stroke-width="2" stroke-miterlimit="10"/>
<path d="M3.6687 3.20312L17.4687 17.0031" stroke="#2C2C2C" stroke-width="2" stroke-miterlimit="10" stroke-linecap="round" stroke-linejoin="round"/>
</svg>
