<svg width="21" height="20" viewBox="0 0 21 20" fill="none" xmlns="http://www.w3.org/2000/svg">
<path d="M15.3687 5H17.1687C17.2687 5 17.2687 5 17.3687 5" stroke="#2C2C2C" stroke-width="2" stroke-linecap="round" stroke-linejoin="round"/>
<path d="M18.3687 8.29688V16.7969C18.3687 17.4969 17.8687 17.9969 17.1687 17.9969H6.76868" stroke="#2C2C2C" stroke-width="2" stroke-linecap="round" stroke-linejoin="round" stroke-dasharray="3.77 3.77"/>
<path d="M5.36865 17C5.36865 16.9 5.36865 16.9 5.36865 16.8V15" stroke="#2C2C2C" stroke-width="2" stroke-linecap="round" stroke-linejoin="round"/>
<path d="M14.1687 15H3.56865C2.86865 15 2.36865 14.5 2.36865 13.8V3.2C2.36865 2.5 2.86865 2 3.56865 2H14.1687C14.8687 2 15.3687 2.5 15.3687 3.2V13.8C15.3687 14.5 14.8687 15 14.1687 15Z" stroke="#2C2C2C" stroke-width="2" stroke-miterlimit="10" stroke-linecap="round" stroke-linejoin="round"/>
</svg>
