<svg width="21" height="20" viewBox="0 0 21 20" fill="none" xmlns="http://www.w3.org/2000/svg">
<path d="M15.8687 14.8H15.7687C15.4687 14.8 15.2687 15 15.2687 15.3V17.8C15.2687 17.9 15.1687 17.9 15.1687 17.8L11.8687 15C11.6687 14.8 11.4687 14.8 11.2687 14.8H4.86865C3.46865 14.8 2.36865 13.7 2.36865 12.3V4.5C2.36865 3.1 3.46865 2 4.86865 2H15.7687C17.2687 2 18.3687 3.1 18.3687 4.5V12.2C18.3687 13.6 17.2687 14.8 15.8687 14.8Z" stroke="#2C2C2C" stroke-width="2" stroke-miterlimit="10"/>
<path d="M6.76868 6.79688H13.8687" stroke="#2C2C2C" stroke-width="2" stroke-miterlimit="10" stroke-linecap="round" stroke-linejoin="round"/>
<path d="M6.76868 10H11.3687" stroke="#2C2C2C" stroke-width="2" stroke-miterlimit="10" stroke-linecap="round" stroke-linejoin="round"/>
</svg>
