<svg width="501" height="241" viewBox="0 0 501 241" fill="none" xmlns="http://www.w3.org/2000/svg">
<path d="M484.272 78.4294C473.697 68.5085 458.127 63.5108 437.555 63.5108C425.679 63.5108 414.96 65.755 405.472 70.0992C395.985 74.4457 388.812 80.6015 383.958 88.5667H379.579C369.908 71.9085 351.513 63.5108 324.314 63.5108C312.399 63.5108 301.898 65.8271 292.627 70.1736C283.465 74.5899 276.444 80.7457 271.55 88.569H268.799L263.696 66.7713H263.551L263.696 66.4806H224.258L171.676 171.632V0.796875H119.167V54.6759C119.167 64.5969 120.4 75.8946 122.935 88.6388H121.342C109.175 71.9806 94.5807 63.6527 71.5129 63.6527C49.5661 63.6527 32.2921 71.4015 19.7278 87.0434C7.19846 102.613 0.932617 124.411 0.932617 152.364C0.932617 179.883 7.08914 201.462 19.3999 217.034C31.7129 232.602 48.6963 240.35 70.2081 240.35C93.5294 240.35 109.101 231.953 120.47 215.222H122.642L132.276 237.236H171.676H178.269L224.258 145.267V237.236H273.799V156.997C273.799 137.008 276.697 122.599 282.416 113.911C288.138 105.076 297.374 100.732 310.01 100.732C319.497 100.732 326.38 103.846 330.761 110.001C335.143 116.157 337.313 125.355 337.313 137.667V237.239H386.854V151.715C386.854 134.046 389.899 121.083 395.909 112.971C401.921 104.785 410.975 100.732 423.105 100.732C432.557 100.732 439.439 103.846 443.784 110.001C448.201 116.157 450.373 125.355 450.373 137.667V237.239H500.13V126.078C500.132 104.211 494.846 88.3504 484.272 78.4294ZM125.687 158.885C125.18 175.402 121.956 187.129 116.125 194.081C110.334 200.964 101.172 204.436 88.6753 204.436C77.4159 204.436 68.6846 200.239 62.6049 191.836C56.5181 183.509 53.4759 170.909 53.4759 154.106C53.4759 137.378 56.5181 124.632 62.5304 115.871C68.5404 107.036 77.0182 102.618 87.8799 102.618C101.205 102.618 110.876 106.599 116.779 114.492C122.719 122.388 125.687 135.567 125.687 153.815V158.885V158.885Z" fill="#FDFBF9"/>
</svg>
