<svg width="26" height="26" viewBox="0 0 26 26" fill="none" xmlns="http://www.w3.org/2000/svg">
<path d="M13.1357 22.75C18.6586 22.75 23.1357 18.2728 23.1357 12.75C23.1357 7.22715 18.6586 2.75 13.1357 2.75C7.61289 2.75 3.13574 7.22715 3.13574 12.75C3.13574 18.2728 7.61289 22.75 13.1357 22.75Z" stroke="#FDFBF9" stroke-width="2.50038" stroke-miterlimit="10"/>
<path d="M11.7646 15.624C11.7646 14.749 11.8896 14.124 12.0146 13.624C12.1396 13.124 12.6396 12.624 13.1396 12.124C13.6396 11.624 14.0146 11.249 14.2646 10.999C14.3896 10.749 14.5146 10.374 14.5146 9.99902C14.5146 8.99902 14.0146 8.49902 13.1396 8.49902C12.6396 8.49902 12.3896 8.62402 12.0146 8.87402C11.8896 9.12402 11.7646 9.49902 11.6396 9.99902H9.13965C9.13965 8.87402 9.51465 7.99902 10.2646 7.24902C10.8896 6.62402 11.8896 6.37402 13.1396 6.37402C14.3896 6.37402 15.3896 6.62402 16.1396 7.24902C16.8896 7.87402 17.1396 8.74902 17.1396 9.87402C17.1396 10.374 17.0146 10.874 16.7646 11.374C16.5146 11.874 16.1396 12.374 15.5146 12.874L14.7646 13.624C14.2646 14.124 14.0146 14.624 14.0146 15.124V15.624H11.7646V15.624ZM11.5146 18.374C11.5146 17.999 11.6396 17.624 11.8896 17.374C12.1396 17.124 12.5146 16.999 12.8896 16.999C13.2646 16.999 13.6396 17.124 13.8896 17.374C14.1396 17.624 14.2646 17.999 14.2646 18.374C14.2646 18.749 14.1396 19.124 13.8896 19.374C13.6396 19.624 13.2646 19.749 12.8896 19.749C12.5146 19.749 12.2646 19.624 11.8896 19.374C11.5146 19.124 11.5146 18.749 11.5146 18.374Z" fill="#FDFBF9"/>
</svg>
