<svg width="21" height="20" viewBox="0 0 21 20" fill="none" xmlns="http://www.w3.org/2000/svg">
<path d="M10.2687 17.8C14.6317 17.8 18.1687 14.2631 18.1687 9.9C18.1687 5.53695 14.6317 2 10.2687 2C5.9056 2 2.36865 5.53695 2.36865 9.9C2.36865 14.2631 5.9056 17.8 10.2687 17.8Z" stroke="#2C2C2C" stroke-width="2" stroke-miterlimit="10"/>
<path d="M13.7687 10.8984C13.8687 12.8984 12.2687 14.4984 10.2687 14.4984C8.2687 14.4984 6.6687 12.8984 6.6687 10.8984" stroke="#2C2C2C" stroke-width="2" stroke-miterlimit="10" stroke-linecap="round" stroke-linejoin="round"/>
<path d="M7.7686 8.79844C8.70749 8.79844 9.4686 8.03732 9.4686 7.09844C9.4686 6.15955 8.70749 5.39844 7.7686 5.39844C6.82972 5.39844 6.0686 6.15955 6.0686 7.09844C6.0686 8.03732 6.82972 8.79844 7.7686 8.79844Z" fill="#2C2C2C"/>
<path d="M12.7686 8.79844C13.7075 8.79844 14.4686 8.03732 14.4686 7.09844C14.4686 6.15955 13.7075 5.39844 12.7686 5.39844C11.8297 5.39844 11.0686 6.15955 11.0686 7.09844C11.0686 8.03732 11.8297 8.79844 12.7686 8.79844Z" fill="#2C2C2C"/>
</svg>
