<svg width="21" height="20" viewBox="0 0 21 20" fill="none" xmlns="http://www.w3.org/2000/svg">
<path d="M16.4687 8.1C16.4687 10.9 13.8687 14.3 12.0687 16.9C11.6687 17.5 10.8687 18 10.3687 18C9.76868 18 9.06868 17.5 8.56868 16.9C6.96868 14.4 4.26868 10.9 4.26868 8.2C4.26868 4.7 6.96868 2 10.3687 2C13.7687 2 16.4687 4.7 16.4687 8.1Z" stroke="#2C2C2C" stroke-width="2" stroke-miterlimit="10"/>
<path d="M10.3687 11.2969C12.0255 11.2969 13.3687 9.95373 13.3687 8.29688C13.3687 6.64002 12.0255 5.29688 10.3687 5.29688C8.7118 5.29688 7.36865 6.64002 7.36865 8.29688C7.36865 9.95373 8.7118 11.2969 10.3687 11.2969Z" stroke="#2C2C2C" stroke-width="2" stroke-miterlimit="10"/>
</svg>
