<svg width="36" height="17" viewBox="0 0 36 17" fill="none" xmlns="http://www.w3.org/2000/svg">
<path d="M34.5991 5.49575C33.8576 4.80017 32.766 4.44977 31.3237 4.44977C30.491 4.44977 29.7394 4.60712 29.0743 4.9117C28.4091 5.21644 27.9062 5.64804 27.5659 6.2065H27.2588C26.5807 5.03855 25.291 4.44977 23.3841 4.44977C22.5486 4.44977 21.8124 4.61217 21.1624 4.91691C20.52 5.22655 20.0277 5.65815 19.6846 6.20666H19.4917L19.1339 4.67837H19.1238L19.1339 4.65799H16.3689L12.6822 12.0304V0.0527344H9.00067V3.83033C9.00067 4.52591 9.0871 5.31803 9.26484 6.21155H9.15314C8.30011 5.04361 7.27684 4.45972 5.6595 4.45972C4.12076 4.45972 2.90963 5.00301 2.02872 6.0997C1.15025 7.19134 0.710938 8.71962 0.710938 10.6795C0.710938 12.6089 1.14259 14.1219 2.00572 15.2137C2.86902 16.3052 4.05977 16.8484 5.56802 16.8484C7.20313 16.8484 8.2949 16.2597 9.09199 15.0867H9.2443L9.91974 16.6301H12.6822H13.1445L16.3689 10.1819V16.6301H19.8423V11.0043C19.8423 9.60288 20.0455 8.5926 20.4465 7.98344C20.8476 7.364 21.4952 7.05942 22.3812 7.05942C23.0463 7.05942 23.5289 7.27775 23.8361 7.70935C24.1433 8.14095 24.2955 8.78583 24.2955 9.64903V16.6303H27.7689V10.634C27.7689 9.39515 27.9823 8.4863 28.4037 7.91757C28.8253 7.34362 29.4601 7.05942 30.3105 7.05942C30.9732 7.05942 31.4558 7.27775 31.7604 7.70935C32.07 8.14095 32.2224 8.78583 32.2224 9.64903V16.6303H35.7109V8.83653C35.7111 7.30335 35.3404 6.19133 34.5991 5.49575ZM9.45776 11.1367C9.42221 12.2947 9.19619 13.117 8.78737 13.6044C8.38132 14.087 7.73899 14.3304 6.8628 14.3304C6.07338 14.3304 5.46121 14.0361 5.03494 13.447C4.60818 12.8631 4.39488 11.9797 4.39488 10.8016C4.39488 9.62881 4.60818 8.73511 5.02972 8.1209C5.45109 7.50146 6.04549 7.19166 6.80703 7.19166C7.74127 7.19166 8.41932 7.4708 8.8332 8.0242C9.24968 8.57777 9.45776 9.50179 9.45776 10.7813V11.1367V11.1367Z" fill="#FDFBF9"/>
</svg>
