<svg width="21" height="20" viewBox="0 0 21 20" fill="none" xmlns="http://www.w3.org/2000/svg">
<path d="M10.3687 2C5.95038 2 2.36865 5.58172 2.36865 10C2.36865 14.4183 5.95037 18 10.3687 18C14.7869 18 18.3687 14.4183 18.3687 10C18.3687 5.58172 14.7869 2 10.3687 2Z" stroke="#2C2C2C" stroke-width="2" stroke-miterlimit="10"/>
<path d="M11.5686 6.20156C11.5686 6.50156 11.4686 6.80156 11.2686 7.00156C11.0686 7.20156 10.7686 7.30156 10.3686 7.30156C9.9686 7.30156 9.7686 7.20156 9.4686 7.00156C9.2686 6.80156 9.1686 6.50156 9.1686 6.20156C9.1686 5.90156 9.2686 5.60156 9.4686 5.40156C9.6686 5.20156 9.9686 5.10156 10.3686 5.10156C10.7686 5.10156 10.9686 5.20156 11.2686 5.40156C11.4686 5.60156 11.5686 5.90156 11.5686 6.20156ZM9.4686 8.20156L11.2686 8.20156L11.4686 14.6016L9.1686 14.6016L9.4686 8.20156Z" fill="#2C2C2C"/>
</svg>
