<svg width="26" height="26" viewBox="0 0 26 26" fill="none" xmlns="http://www.w3.org/2000/svg">
<path d="M17.2607 19.126C17.2607 21.126 15.6357 22.751 13.6357 22.751C11.6357 22.751 10.0107 21.126 10.0107 19.126" fill="#FDFBF9"/>
<path d="M17.2607 19.126C17.2607 21.126 15.6357 22.751 13.6357 22.751C11.6357 22.751 10.0107 21.126 10.0107 19.126" stroke="#FDFBF9" stroke-width="2.50038" stroke-miterlimit="10"/>
<path d="M19.6357 19.125H7.13574C5.88574 19.125 4.88574 18.125 4.88574 16.875L5.88574 10.5C5.88574 10.25 5.88574 10 6.01074 9.75C6.13574 5.875 9.38574 2.75 13.3857 2.75C17.3857 2.75 20.7607 6 20.7607 10C20.7607 10.125 20.7607 10.125 20.7607 10.25L21.7607 16.875C21.8857 18.125 20.8857 19.125 19.6357 19.125Z" stroke="#FDFBF9" stroke-width="2.50038" stroke-miterlimit="10"/>
</svg>
