<svg width="26" height="26" viewBox="0 0 26 26" fill="none" xmlns="http://www.w3.org/2000/svg">
<path d="M13.1377 12.875C15.8301 12.875 18.0127 10.6924 18.0127 8C18.0127 5.30761 15.8301 3.125 13.1377 3.125C10.4453 3.125 8.2627 5.30761 8.2627 8C8.2627 10.6924 10.4453 12.875 13.1377 12.875Z" stroke="#FDFBF9" stroke-width="2.50038" stroke-miterlimit="10"/>
<path d="M17.2607 15.252C16.3857 16.627 14.8857 17.502 13.1357 17.502C11.3857 17.502 9.88574 16.627 9.01074 15.252H8.26074C5.38574 15.252 3.13574 17.502 3.13574 20.377V21.502C3.13574 22.127 3.63574 22.752 4.26074 22.752H21.8857C22.5107 22.752 23.0107 22.252 23.0107 21.627V20.502C23.0107 17.627 20.7607 15.377 17.8857 15.377L17.2607 15.252Z" stroke="#FDFBF9" stroke-width="2.50038" stroke-miterlimit="10"/>
</svg>
