<svg width="21" height="20" viewBox="0 0 21 20" fill="none" xmlns="http://www.w3.org/2000/svg">
<path d="M10.3688 10.0969C12.5227 10.0969 14.2687 8.35079 14.2687 6.19687C14.2687 4.04296 12.5227 2.29688 10.3688 2.29688C8.21484 2.29688 6.46875 4.04296 6.46875 6.19687C6.46875 8.35079 8.21484 10.0969 10.3688 10.0969Z" stroke="#2C2C2C" stroke-width="2" stroke-miterlimit="10"/>
<path d="M13.6687 12C12.9687 13.1 11.7687 13.8 10.3687 13.8C8.96865 13.8 7.76865 13.1 7.06865 12H6.46865C4.16865 12 2.36865 13.8 2.36865 16.1V17C2.36865 17.5 2.76865 18 3.26865 18H17.3687C17.8687 18 18.2687 17.6 18.2687 17.1V16.2C18.2687 13.9 16.4687 12.1 14.1687 12.1L13.6687 12Z" stroke="#2C2C2C" stroke-width="2" stroke-miterlimit="10"/>
</svg>
