<svg width="25" height="25" viewBox="0 0 25 25" fill="none" xmlns="http://www.w3.org/2000/svg">
<g clip-path="url(#clip0_1050_12188)">
<path d="M4.43574 7.10012C5.42985 7.10012 6.23574 6.29423 6.23574 5.30012C6.23574 4.30601 5.42985 3.50012 4.43574 3.50012C3.44163 3.50012 2.63574 4.30601 2.63574 5.30012C2.63574 6.29423 3.44163 7.10012 4.43574 7.10012Z" fill="#FDFBF9"/>
<path d="M4.43574 14.2978C5.42985 14.2978 6.23574 13.4919 6.23574 12.4978C6.23574 11.5036 5.42985 10.6978 4.43574 10.6978C3.44163 10.6978 2.63574 11.5036 2.63574 12.4978C2.63574 13.4919 3.44163 14.2978 4.43574 14.2978Z" fill="#FDFBF9"/>
<path d="M4.43574 21.4984C5.42985 21.4984 6.23574 20.6926 6.23574 19.6984C6.23574 18.7043 5.42985 17.8984 4.43574 17.8984C3.44163 17.8984 2.63574 18.7043 2.63574 19.6984C2.63574 20.6926 3.44163 21.4984 4.43574 21.4984Z" fill="#FDFBF9"/>
<path d="M20.8343 7.10012C21.8284 7.10012 22.6343 6.29423 22.6343 5.30012C22.6343 4.30601 21.8284 3.50012 20.8343 3.50012C19.8402 3.50012 19.0343 4.30601 19.0343 5.30012C19.0343 6.29423 19.8402 7.10012 20.8343 7.10012Z" fill="#FDFBF9"/>
<path d="M20.8343 14.2978C21.8284 14.2978 22.6343 13.4919 22.6343 12.4978C22.6343 11.5036 21.8284 10.6978 20.8343 10.6978C19.8402 10.6978 19.0343 11.5036 19.0343 12.4978C19.0343 13.4919 19.8402 14.2978 20.8343 14.2978Z" fill="#FDFBF9"/>
<path d="M20.8343 21.4984C21.8284 21.4984 22.6343 20.6926 22.6343 19.6984C22.6343 18.7043 21.8284 17.8984 20.8343 17.8984C19.8402 17.8984 19.0343 18.7043 19.0343 19.6984C19.0343 20.6926 19.8402 21.4984 20.8343 21.4984Z" fill="#FDFBF9"/>
<path d="M12.635 7.10012C13.6291 7.10012 14.435 6.29423 14.435 5.30012C14.435 4.30601 13.6291 3.50012 12.635 3.50012C11.6408 3.50012 10.835 4.30601 10.835 5.30012C10.835 6.29423 11.6408 7.10012 12.635 7.10012Z" fill="#FDFBF9"/>
<path d="M12.635 14.2978C13.6291 14.2978 14.435 13.4919 14.435 12.4978C14.435 11.5036 13.6291 10.6978 12.635 10.6978C11.6408 10.6978 10.835 11.5036 10.835 12.4978C10.835 13.4919 11.6408 14.2978 12.635 14.2978Z" fill="#FDFBF9"/>
<path d="M12.635 21.4984C13.6291 21.4984 14.435 20.6926 14.435 19.6984C14.435 18.7043 13.6291 17.8984 12.635 17.8984C11.6408 17.8984 10.835 18.7043 10.835 19.6984C10.835 20.6926 11.6408 21.4984 12.635 21.4984Z" fill="#FDFBF9"/>
</g>
<defs>
<clipPath id="clip0_1050_12188">
<rect width="20" height="20" fill="white" transform="translate(2.63574 2.5)"/>
</clipPath>
</defs>
</svg>
