<svg width="21" height="20" viewBox="0 0 21 20" fill="none" xmlns="http://www.w3.org/2000/svg">
<g clip-path="url(#clip0_1761_11457)">
<path d="M2.38203 4.6C3.37614 4.6 4.18203 3.79411 4.18203 2.8C4.18203 1.80589 3.37614 1 2.38203 1C1.38792 1 0.582031 1.80589 0.582031 2.8C0.582031 3.79411 1.38792 4.6 2.38203 4.6Z" fill="#2C2C2C"/>
<path d="M2.38203 11.7973C3.37614 11.7973 4.18203 10.9914 4.18203 9.99727C4.18203 9.00315 3.37614 8.19727 2.38203 8.19727C1.38792 8.19727 0.582031 9.00315 0.582031 9.99727C0.582031 10.9914 1.38792 11.7973 2.38203 11.7973Z" fill="#2C2C2C"/>
<path d="M2.38203 18.9984C3.37614 18.9984 4.18203 18.1926 4.18203 17.1984C4.18203 16.2043 3.37614 15.3984 2.38203 15.3984C1.38792 15.3984 0.582031 16.2043 0.582031 17.1984C0.582031 18.1926 1.38792 18.9984 2.38203 18.9984Z" fill="#2C2C2C"/>
<path d="M18.7805 4.6C19.7746 4.6 20.5805 3.79411 20.5805 2.8C20.5805 1.80589 19.7746 1 18.7805 1C17.7864 1 16.9805 1.80589 16.9805 2.8C16.9805 3.79411 17.7864 4.6 18.7805 4.6Z" fill="#2C2C2C"/>
<path d="M18.7805 11.7973C19.7746 11.7973 20.5805 10.9914 20.5805 9.99727C20.5805 9.00315 19.7746 8.19727 18.7805 8.19727C17.7864 8.19727 16.9805 9.00315 16.9805 9.99727C16.9805 10.9914 17.7864 11.7973 18.7805 11.7973Z" fill="#2C2C2C"/>
<path d="M18.7805 18.9984C19.7746 18.9984 20.5805 18.1926 20.5805 17.1984C20.5805 16.2043 19.7746 15.3984 18.7805 15.3984C17.7864 15.3984 16.9805 16.2043 16.9805 17.1984C16.9805 18.1926 17.7864 18.9984 18.7805 18.9984Z" fill="#2C2C2C"/>
<path d="M10.5813 4.6C11.5754 4.6 12.3813 3.79411 12.3813 2.8C12.3813 1.80589 11.5754 1 10.5813 1C9.58714 1 8.78125 1.80589 8.78125 2.8C8.78125 3.79411 9.58714 4.6 10.5813 4.6Z" fill="#2C2C2C"/>
<path d="M10.5813 11.7973C11.5754 11.7973 12.3813 10.9914 12.3813 9.99727C12.3813 9.00315 11.5754 8.19727 10.5813 8.19727C9.58714 8.19727 8.78125 9.00315 8.78125 9.99727C8.78125 10.9914 9.58714 11.7973 10.5813 11.7973Z" fill="#2C2C2C"/>
<path d="M10.5813 18.9984C11.5754 18.9984 12.3813 18.1926 12.3813 17.1984C12.3813 16.2043 11.5754 15.3984 10.5813 15.3984C9.58714 15.3984 8.78125 16.2043 8.78125 17.1984C8.78125 18.1926 9.58714 18.9984 10.5813 18.9984Z" fill="#2C2C2C"/>
</g>
<defs>
<clipPath id="clip0_1761_11457">
<rect width="20" height="20" fill="white" transform="translate(0.582031)"/>
</clipPath>
</defs>
</svg>
