<svg width="21" height="20" viewBox="0 0 21 20" fill="none" xmlns="http://www.w3.org/2000/svg">
<path d="M9.1686 6.5019L8.5686 7.3019C8.3686 7.6019 8.2686 8.0019 8.4686 8.3019C9.1686 10.1019 10.7686 11.9019 11.4686 12.7019C11.7686 13.0019 12.1686 13.1019 12.5686 13.0019L13.3686 12.7019C13.7686 12.6019 14.1686 12.6019 14.4686 12.9019L16.6686 14.6019C17.2686 15.1019 17.2686 16.0019 16.6686 16.5019L14.9686 17.8019C14.6686 18.1019 14.1686 18.1019 13.7686 17.9019C5.9686 14.0019 4.6686 6.1019 4.5686 4.0019C4.5686 3.7019 4.6686 3.4019 4.9686 3.2019L7.1686 2.1019C7.5686 1.9019 8.1686 2.1019 8.2686 2.5019L9.3686 5.5019C9.4686 5.9019 9.3686 6.2019 9.1686 6.5019Z" stroke="#2C2C2C" stroke-width="2" stroke-miterlimit="10"/>
</svg>
