<svg width="209" height="250" viewBox="0 0 209 250" fill="none" xmlns="http://www.w3.org/2000/svg">
<g filter="url(#filter0_f_2042_9729)">
<ellipse cx="88.7459" cy="216.958" rx="69.3436" ry="13.1145" fill="#2C2C2C" fill-opacity="0.35"/>
</g>
<path d="M170.978 87.4327C170.978 119.923 150.003 150.564 128.321 173.451C117.554 184.816 106.775 194.099 98.6834 200.542C94.6405 203.762 91.276 206.266 88.9293 207.961C88.3174 208.403 87.7748 208.79 87.3077 209.12C86.8405 208.79 86.298 208.403 85.6861 207.961C83.3393 206.266 79.9748 203.762 75.9319 200.542C67.8405 194.099 57.0614 184.816 46.2947 173.451C24.6125 150.564 3.63782 119.923 3.63782 87.4327C3.63782 65.242 12.453 43.9603 28.1441 28.2691C43.8353 12.578 65.117 3.76282 87.3077 3.76282C109.498 3.76282 130.78 12.578 146.471 28.2691C162.162 43.9603 170.978 65.242 170.978 87.4327Z" fill="#0567FF"/>
<path d="M170.978 87.4327C170.978 119.923 150.003 150.564 128.321 173.451C117.554 184.816 106.775 194.099 98.6834 200.542C94.6405 203.762 91.276 206.266 88.9293 207.961C88.3174 208.403 87.7748 208.79 87.3077 209.12C86.8405 208.79 86.298 208.403 85.6861 207.961C83.3393 206.266 79.9748 203.762 75.9319 200.542C67.8405 194.099 57.0614 184.816 46.2947 173.451C24.6125 150.564 3.63782 119.923 3.63782 87.4327C3.63782 65.242 12.453 43.9603 28.1441 28.2691C43.8353 12.578 65.117 3.76282 87.3077 3.76282C109.498 3.76282 130.78 12.578 146.471 28.2691C162.162 43.9603 170.978 65.242 170.978 87.4327Z" stroke="#0567FF" stroke-width="7.27564" stroke-linecap="round" stroke-linejoin="round"/>
<path d="M170.978 87.4327C170.978 119.923 150.003 150.564 128.321 173.451C117.554 184.816 106.775 194.099 98.6834 200.542C94.6405 203.762 91.276 206.266 88.9293 207.961C88.3174 208.403 87.7748 208.79 87.3077 209.12C86.8405 208.79 86.298 208.403 85.6861 207.961C83.3393 206.266 79.9748 203.762 75.9319 200.542C67.8405 194.099 57.0614 184.816 46.2947 173.451C24.6125 150.564 3.63782 119.923 3.63782 87.4327C3.63782 65.242 12.453 43.9603 28.1441 28.2691C43.8353 12.578 65.117 3.76282 87.3077 3.76282C109.498 3.76282 130.78 12.578 146.471 28.2691C162.162 43.9603 170.978 65.242 170.978 87.4327Z" stroke="#2C2C2C" stroke-opacity="0.5" stroke-width="7.27564" stroke-linecap="round" stroke-linejoin="round"/>
<path d="M93.2329 43.3692L101.937 62.8965C103.052 65.3984 105.417 67.1162 108.141 67.4037L129.402 69.6477C134.986 70.2371 137.236 77.1604 133.065 80.9194L117.183 95.232C115.148 97.0658 114.245 99.8452 114.813 102.525L119.249 123.439C120.414 128.932 114.525 133.211 109.661 130.405L91.1411 119.724C88.7682 118.355 85.8458 118.355 83.4729 119.724L64.9531 130.405C60.0891 133.211 54.1998 128.932 55.3648 123.439L59.8007 102.525C60.3691 99.8452 59.466 97.0658 57.4312 95.232L41.5494 80.9195C37.3782 77.1604 39.6277 70.2371 45.2118 69.6477L66.4731 67.4037C69.1972 67.1162 71.5615 65.3984 72.6768 62.8965L81.3811 43.3692C83.6672 38.2405 90.9468 38.2405 93.2329 43.3692Z" fill="#FDFBF9" stroke="#959595" stroke-width="1.18597"/>
<rect x="138.238" y="2.55021" width="67.906" height="67.906" rx="33.953" fill="#959595"/>
<path fill-rule="evenodd" clip-rule="evenodd" d="M193.998 31.2047L193.998 42.3359L149.536 42.3359L149.536 31.2047L193.998 31.2047Z" fill="#FDFBF9"/>
<rect x="138.238" y="2.55021" width="67.906" height="67.906" rx="33.953" stroke="#808080" stroke-width="4.85043"/>
<defs>
<filter id="filter0_f_2042_9729" x="0.000640869" y="184.442" width="177.491" height="65.03" filterUnits="userSpaceOnUse" color-interpolation-filters="sRGB">
<feFlood flood-opacity="0" result="BackgroundImageFix"/>
<feBlend mode="normal" in="SourceGraphic" in2="BackgroundImageFix" result="shape"/>
<feGaussianBlur stdDeviation="9.70085" result="effect1_foregroundBlur_2042_9729"/>
</filter>
</defs>
</svg>
