<svg width="210" height="250" viewBox="0 0 210 250" fill="none" xmlns="http://www.w3.org/2000/svg">
<g filter="url(#filter0_f_2042_9731)">
<ellipse cx="89.5897" cy="216.958" rx="69.3436" ry="13.1145" fill="#2C2C2C" fill-opacity="0.35"/>
</g>
<path d="M171.821 87.4327C171.821 119.923 150.847 150.564 129.164 173.451C118.398 184.816 107.619 194.099 99.5271 200.542C95.4843 203.762 92.1198 206.266 89.773 207.961C89.1611 208.403 88.6186 208.79 88.1514 209.12C87.6842 208.79 87.1417 208.403 86.5298 207.961C84.1831 206.266 80.8185 203.762 76.7757 200.542C68.6842 194.099 57.9052 184.816 47.1385 173.451C25.4563 150.564 4.48157 119.923 4.48157 87.4327C4.48157 65.242 13.2968 43.9603 28.9879 28.2691C44.679 12.578 65.9608 3.76282 88.1514 3.76282C110.342 3.76282 131.624 12.578 147.315 28.2691C163.006 43.9603 171.821 65.242 171.821 87.4327Z" fill="#0567FF"/>
<path d="M171.821 87.4327C171.821 119.923 150.847 150.564 129.164 173.451C118.398 184.816 107.619 194.099 99.5271 200.542C95.4843 203.762 92.1198 206.266 89.773 207.961C89.1611 208.403 88.6186 208.79 88.1514 209.12C87.6842 208.79 87.1417 208.403 86.5298 207.961C84.1831 206.266 80.8185 203.762 76.7757 200.542C68.6842 194.099 57.9052 184.816 47.1385 173.451C25.4563 150.564 4.48157 119.923 4.48157 87.4327C4.48157 65.242 13.2968 43.9603 28.9879 28.2691C44.679 12.578 65.9608 3.76282 88.1514 3.76282C110.342 3.76282 131.624 12.578 147.315 28.2691C163.006 43.9603 171.821 65.242 171.821 87.4327Z" stroke="#0567FF" stroke-width="7.27564" stroke-linecap="round" stroke-linejoin="round"/>
<path d="M171.821 87.4327C171.821 119.923 150.847 150.564 129.164 173.451C118.398 184.816 107.619 194.099 99.5271 200.542C95.4843 203.762 92.1198 206.266 89.773 207.961C89.1611 208.403 88.6186 208.79 88.1514 209.12C87.6842 208.79 87.1417 208.403 86.5298 207.961C84.1831 206.266 80.8185 203.762 76.7757 200.542C68.6842 194.099 57.9052 184.816 47.1385 173.451C25.4563 150.564 4.48157 119.923 4.48157 87.4327C4.48157 65.242 13.2968 43.9603 28.9879 28.2691C44.679 12.578 65.9608 3.76282 88.1514 3.76282C110.342 3.76282 131.624 12.578 147.315 28.2691C163.006 43.9603 171.821 65.242 171.821 87.4327Z" stroke="#2C2C2C" stroke-opacity="0.5" stroke-width="7.27564" stroke-linecap="round" stroke-linejoin="round"/>
<path d="M94.0766 43.3692L102.781 62.8965C103.896 65.3984 106.26 67.1162 108.985 67.4037L130.246 69.6477C135.83 70.2371 138.08 77.1604 133.908 80.9194L118.027 95.232C115.992 97.0658 115.089 99.8452 115.657 102.525L120.093 123.439C121.258 128.932 115.369 133.211 110.505 130.405L91.9848 119.724C89.612 118.355 86.6895 118.355 84.3167 119.724L65.7969 130.405C60.9328 133.211 55.0435 128.932 56.2086 123.439L60.6445 102.525C61.2128 99.8452 60.3098 97.0658 58.2749 95.232L42.3931 80.9195C38.2219 77.1604 40.4714 70.2371 46.0555 69.6477L67.3169 67.4037C70.041 67.1162 72.4053 65.3984 73.5205 62.8965L82.2248 43.3692C84.5109 38.2405 91.7905 38.2405 94.0766 43.3692Z" fill="#FDFBF9" stroke="#959595" stroke-width="1.18597"/>
<rect x="139.081" y="2.55021" width="67.906" height="67.906" rx="33.953" fill="#F25900"/>
<path fill-rule="evenodd" clip-rule="evenodd" d="M173.037 56.8516L146.703 28.1237L154.909 20.6021L173.037 40.3785L191.166 20.6021L199.371 28.1237L173.037 56.8516Z" fill="#FDFBF9"/>
<rect x="139.081" y="2.55021" width="67.906" height="67.906" rx="33.953" stroke="#F25900" stroke-width="4.85043"/>
<rect x="139.081" y="2.55021" width="67.906" height="67.906" rx="33.953" stroke="black" stroke-opacity="0.25" stroke-width="4.85043"/>
<defs>
<filter id="filter0_f_2042_9731" x="0.844391" y="184.442" width="177.491" height="65.03" filterUnits="userSpaceOnUse" color-interpolation-filters="sRGB">
<feFlood flood-opacity="0" result="BackgroundImageFix"/>
<feBlend mode="normal" in="SourceGraphic" in2="BackgroundImageFix" result="shape"/>
<feGaussianBlur stdDeviation="9.70085" result="effect1_foregroundBlur_2042_9731"/>
</filter>
</defs>
</svg>
