<svg width="210" height="250" viewBox="0 0 210 250" fill="none" xmlns="http://www.w3.org/2000/svg">
<g filter="url(#filter0_f_2054_9427)">
<ellipse cx="89.2069" cy="216.958" rx="69.3436" ry="13.1145" fill="#2C2C2C" fill-opacity="0.35"/>
</g>
<path d="M171.438 87.4327C171.438 119.923 150.464 150.564 128.782 173.451C118.015 184.816 107.236 194.099 99.1443 200.542C95.1015 203.762 91.7369 206.266 89.3902 207.961C88.7783 208.403 88.2358 208.79 87.7686 209.12C87.3014 208.79 86.7589 208.403 86.147 207.961C83.8003 206.266 80.4357 203.762 76.3929 200.542C68.3014 194.099 57.5224 184.816 46.7557 173.451C25.0735 150.564 4.09876 119.923 4.09876 87.4327C4.09876 65.242 12.9139 43.9603 28.6051 28.2691C44.2962 12.578 65.578 3.76282 87.7686 3.76282C109.959 3.76282 131.241 12.578 146.932 28.2691C162.623 43.9603 171.438 65.242 171.438 87.4327Z" fill="#0567FF"/>
<path d="M171.438 87.4327C171.438 119.923 150.464 150.564 128.782 173.451C118.015 184.816 107.236 194.099 99.1443 200.542C95.1015 203.762 91.7369 206.266 89.3902 207.961C88.7783 208.403 88.2358 208.79 87.7686 209.12C87.3014 208.79 86.7589 208.403 86.147 207.961C83.8003 206.266 80.4357 203.762 76.3929 200.542C68.3014 194.099 57.5224 184.816 46.7557 173.451C25.0735 150.564 4.09876 119.923 4.09876 87.4327C4.09876 65.242 12.9139 43.9603 28.6051 28.2691C44.2962 12.578 65.578 3.76282 87.7686 3.76282C109.959 3.76282 131.241 12.578 146.932 28.2691C162.623 43.9603 171.438 65.242 171.438 87.4327Z" stroke="#0567FF" stroke-width="7.27564" stroke-linecap="round" stroke-linejoin="round"/>
<path d="M171.438 87.4327C171.438 119.923 150.464 150.564 128.782 173.451C118.015 184.816 107.236 194.099 99.1443 200.542C95.1015 203.762 91.7369 206.266 89.3902 207.961C88.7783 208.403 88.2358 208.79 87.7686 209.12C87.3014 208.79 86.7589 208.403 86.147 207.961C83.8003 206.266 80.4357 203.762 76.3929 200.542C68.3014 194.099 57.5224 184.816 46.7557 173.451C25.0735 150.564 4.09876 119.923 4.09876 87.4327C4.09876 65.242 12.9139 43.9603 28.6051 28.2691C44.2962 12.578 65.578 3.76282 87.7686 3.76282C109.959 3.76282 131.241 12.578 146.932 28.2691C162.623 43.9603 171.438 65.242 171.438 87.4327Z" stroke="#2C2C2C" stroke-opacity="0.5" stroke-width="7.27564" stroke-linecap="round" stroke-linejoin="round"/>
<path d="M47.309 55.0338L47.3091 55.034L65.5706 71.1022C66.2892 71.7345 67.3895 71.6424 67.993 70.8993L84.3099 50.8088C84.7411 50.2787 85.2864 49.8528 85.9051 49.5626C86.5238 49.2725 87.1999 49.1257 87.8832 49.1331C88.5665 49.1405 89.2394 49.302 89.8516 49.6055C90.4638 49.909 90.9997 50.3467 91.4193 50.8861L91.4194 50.8862L106.966 70.8585C107.559 71.6202 108.669 71.7296 109.399 71.0983L128.262 54.7901C128.262 54.79 128.262 54.79 128.262 54.7899C128.963 54.1854 129.831 53.8094 130.752 53.712C131.672 53.6147 132.6 53.8008 133.412 54.2454C134.224 54.69 134.88 55.372 135.294 56.2C135.707 57.028 135.858 57.9626 135.726 58.8786L135.724 58.8873L135.723 58.8961L129.78 113.718C129.271 118.41 125.309 121.965 120.59 121.965H56.2176C51.5806 121.965 47.6613 118.529 47.0541 113.932L39.8146 59.1215L39.8146 59.1215L39.8134 59.1132C39.676 58.1921 39.825 57.251 40.2402 56.4174C40.6554 55.5838 41.3168 54.898 42.1349 54.4528C42.9529 54.0076 43.8879 53.8246 44.8134 53.9285C45.7389 54.0324 46.6101 54.4183 47.309 55.0338Z" fill="#FDFBF9" stroke="#959595"/>
<rect x="138.699" y="2.55021" width="67.906" height="67.906" rx="33.953" fill="#F25900"/>
<path fill-rule="evenodd" clip-rule="evenodd" d="M172.654 56.8516L146.321 28.1237L154.526 20.6021L172.654 40.3785L190.783 20.6021L198.988 28.1237L172.654 56.8516Z" fill="#FDFBF9"/>
<rect x="138.699" y="2.55021" width="67.906" height="67.906" rx="33.953" stroke="#F25900" stroke-width="4.85043"/>
<rect x="138.699" y="2.55021" width="67.906" height="67.906" rx="33.953" stroke="black" stroke-opacity="0.25" stroke-width="4.85043"/>
<defs>
<filter id="filter0_f_2054_9427" x="0.461578" y="184.442" width="177.491" height="65.03" filterUnits="userSpaceOnUse" color-interpolation-filters="sRGB">
<feFlood flood-opacity="0" result="BackgroundImageFix"/>
<feBlend mode="normal" in="SourceGraphic" in2="BackgroundImageFix" result="shape"/>
<feGaussianBlur stdDeviation="9.70085" result="effect1_foregroundBlur_2054_9427"/>
</filter>
</defs>
</svg>
