<svg width="209" height="250" viewBox="0 0 209 250" fill="none" xmlns="http://www.w3.org/2000/svg">
<g filter="url(#filter0_f_2042_9730)">
<ellipse cx="88.7674" cy="216.958" rx="69.3436" ry="13.1145" fill="#2C2C2C" fill-opacity="0.35"/>
</g>
<path d="M170.999 87.4327C170.999 119.923 150.024 150.564 128.342 173.451C117.575 184.816 106.796 194.099 98.7049 200.542C94.662 203.762 91.2975 206.266 88.9507 207.961C88.3389 208.403 87.7963 208.79 87.3291 209.12C86.862 208.79 86.3194 208.403 85.7076 207.961C83.3608 206.266 79.9963 203.762 75.9534 200.542C67.862 194.099 57.0829 184.816 46.3162 173.451C24.634 150.564 3.6593 119.923 3.6593 87.4327C3.6593 65.242 12.4745 43.9603 28.1656 28.2691C43.8568 12.578 65.1385 3.76282 87.3291 3.76282C109.52 3.76282 130.802 12.578 146.493 28.2691C162.184 43.9603 170.999 65.242 170.999 87.4327Z" fill="#0567FF"/>
<path d="M170.999 87.4327C170.999 119.923 150.024 150.564 128.342 173.451C117.575 184.816 106.796 194.099 98.7049 200.542C94.662 203.762 91.2975 206.266 88.9507 207.961C88.3389 208.403 87.7963 208.79 87.3291 209.12C86.862 208.79 86.3194 208.403 85.7076 207.961C83.3608 206.266 79.9963 203.762 75.9534 200.542C67.862 194.099 57.0829 184.816 46.3162 173.451C24.634 150.564 3.6593 119.923 3.6593 87.4327C3.6593 65.242 12.4745 43.9603 28.1656 28.2691C43.8568 12.578 65.1385 3.76282 87.3291 3.76282C109.52 3.76282 130.802 12.578 146.493 28.2691C162.184 43.9603 170.999 65.242 170.999 87.4327Z" stroke="#0567FF" stroke-width="7.27564" stroke-linecap="round" stroke-linejoin="round"/>
<path d="M170.999 87.4327C170.999 119.923 150.024 150.564 128.342 173.451C117.575 184.816 106.796 194.099 98.7049 200.542C94.662 203.762 91.2975 206.266 88.9507 207.961C88.3389 208.403 87.7963 208.79 87.3291 209.12C86.862 208.79 86.3194 208.403 85.7076 207.961C83.3608 206.266 79.9963 203.762 75.9534 200.542C67.862 194.099 57.0829 184.816 46.3162 173.451C24.634 150.564 3.6593 119.923 3.6593 87.4327C3.6593 65.242 12.4745 43.9603 28.1656 28.2691C43.8568 12.578 65.1385 3.76282 87.3291 3.76282C109.52 3.76282 130.802 12.578 146.493 28.2691C162.184 43.9603 170.999 65.242 170.999 87.4327Z" stroke="#2C2C2C" stroke-opacity="0.5" stroke-width="7.27564" stroke-linecap="round" stroke-linejoin="round"/>
<path d="M93.2544 43.3692L101.959 62.8965C103.074 65.3984 105.438 67.1162 108.162 67.4037L129.424 69.6477C135.008 70.2371 137.257 77.1604 133.086 80.9194L117.204 95.232C115.169 97.0658 114.266 99.8452 114.835 102.525L119.271 123.439C120.436 128.932 114.546 133.211 109.682 130.405L91.1626 119.724C88.7897 118.355 85.8673 118.355 83.4944 119.724L64.9746 130.405C60.1106 133.211 54.2212 128.932 55.3863 123.439L59.8222 102.525C60.3906 99.8452 59.4875 97.0658 57.4526 95.232L41.5709 80.9195C37.3996 77.1604 39.6492 70.2371 45.2333 69.6477L66.4946 67.4037C69.2187 67.1162 71.583 65.3984 72.6983 62.8965L81.4026 43.3692C83.6887 38.2405 90.9683 38.2405 93.2544 43.3692Z" fill="#FDFBF9" stroke="#959595" stroke-width="1.18597"/>
<rect x="138.259" y="2.55021" width="67.906" height="67.906" rx="33.953" fill="#3E9A00"/>
<path fill-rule="evenodd" clip-rule="evenodd" d="M172.209 16.1562L198.543 44.8841L190.337 52.4057L172.209 32.6293L154.08 52.4057L145.875 44.8841L172.209 16.1562Z" fill="#FDFBF9"/>
<rect x="138.259" y="2.55021" width="67.906" height="67.906" rx="33.953" stroke="#3E9A00" stroke-width="4.85043"/>
<rect x="138.259" y="2.55021" width="67.906" height="67.906" rx="33.953" stroke="black" stroke-opacity="0.25" stroke-width="4.85043"/>
<defs>
<filter id="filter0_f_2042_9730" x="0.0221252" y="184.442" width="177.491" height="65.03" filterUnits="userSpaceOnUse" color-interpolation-filters="sRGB">
<feFlood flood-opacity="0" result="BackgroundImageFix"/>
<feBlend mode="normal" in="SourceGraphic" in2="BackgroundImageFix" result="shape"/>
<feGaussianBlur stdDeviation="9.70085" result="effect1_foregroundBlur_2042_9730"/>
</filter>
</defs>
</svg>
