<svg width="210" height="250" viewBox="0 0 210 250" fill="none" xmlns="http://www.w3.org/2000/svg">
<g filter="url(#filter0_f_2054_9413)">
<ellipse cx="89.5917" cy="216.958" rx="69.3436" ry="13.1145" fill="#2C2C2C" fill-opacity="0.35"/>
</g>
<path d="M171.823 87.4327C171.823 119.923 150.848 150.564 129.166 173.451C118.4 184.816 107.621 194.099 99.5291 200.542C95.4862 203.762 92.1217 206.266 89.775 207.961C89.1631 208.403 88.6205 208.79 88.1534 209.12C87.6862 208.79 87.1437 208.403 86.5318 207.961C84.185 206.266 80.8205 203.762 76.7776 200.542C68.6862 194.099 57.9071 184.816 47.1404 173.451C25.4582 150.564 4.48352 119.923 4.48352 87.4327C4.48352 65.242 13.2987 43.9603 28.9898 28.2691C44.681 12.578 65.9627 3.76282 88.1534 3.76282C110.344 3.76282 131.626 12.578 147.317 28.2691C163.008 43.9603 171.823 65.242 171.823 87.4327Z" fill="#0567FF"/>
<path d="M171.823 87.4327C171.823 119.923 150.848 150.564 129.166 173.451C118.4 184.816 107.621 194.099 99.5291 200.542C95.4862 203.762 92.1217 206.266 89.775 207.961C89.1631 208.403 88.6205 208.79 88.1534 209.12C87.6862 208.79 87.1437 208.403 86.5318 207.961C84.185 206.266 80.8205 203.762 76.7776 200.542C68.6862 194.099 57.9071 184.816 47.1404 173.451C25.4582 150.564 4.48352 119.923 4.48352 87.4327C4.48352 65.242 13.2987 43.9603 28.9898 28.2691C44.681 12.578 65.9627 3.76282 88.1534 3.76282C110.344 3.76282 131.626 12.578 147.317 28.2691C163.008 43.9603 171.823 65.242 171.823 87.4327Z" stroke="#0567FF" stroke-width="7.27564" stroke-linecap="round" stroke-linejoin="round"/>
<path d="M171.823 87.4327C171.823 119.923 150.848 150.564 129.166 173.451C118.4 184.816 107.621 194.099 99.5291 200.542C95.4862 203.762 92.1217 206.266 89.775 207.961C89.1631 208.403 88.6205 208.79 88.1534 209.12C87.6862 208.79 87.1437 208.403 86.5318 207.961C84.185 206.266 80.8205 203.762 76.7776 200.542C68.6862 194.099 57.9071 184.816 47.1404 173.451C25.4582 150.564 4.48352 119.923 4.48352 87.4327C4.48352 65.242 13.2987 43.9603 28.9898 28.2691C44.681 12.578 65.9627 3.76282 88.1534 3.76282C110.344 3.76282 131.626 12.578 147.317 28.2691C163.008 43.9603 171.823 65.242 171.823 87.4327Z" stroke="#2C2C2C" stroke-opacity="0.5" stroke-width="7.27564" stroke-linecap="round" stroke-linejoin="round"/>
<path d="M47.6937 55.0338L47.6939 55.034L65.9554 71.1022C66.674 71.7345 67.7743 71.6424 68.3778 70.8993L84.6947 50.8088C85.1259 50.2787 85.6712 49.8528 86.2899 49.5626C86.9085 49.2725 87.5847 49.1257 88.268 49.1331C88.9513 49.1405 89.6241 49.302 90.2364 49.6055C90.8486 49.909 91.3845 50.3467 91.8041 50.8861L91.8042 50.8862L107.351 70.8585C107.943 71.6202 109.053 71.7296 109.784 71.0983L128.647 54.7901C128.647 54.79 128.647 54.79 128.647 54.7899C129.347 54.1854 130.216 53.8094 131.136 53.712C132.057 53.6147 132.985 53.8008 133.797 54.2454C134.608 54.69 135.265 55.372 135.678 56.2C136.092 57.028 136.243 57.9626 136.11 58.8786L136.109 58.8873L136.108 58.8961L130.164 113.718C129.656 118.41 125.694 121.965 120.975 121.965H56.6024C51.9654 121.965 48.0461 118.529 47.4389 113.932L40.1993 59.1215L40.1994 59.1215L40.1982 59.1132C40.0607 58.1921 40.2097 57.251 40.625 56.4174C41.0402 55.5838 41.7016 54.898 42.5196 54.4528C43.3376 54.0076 44.2727 53.8246 45.1982 53.9285C46.1237 54.0324 46.9948 54.4183 47.6937 55.0338Z" fill="#FDFBF9" stroke="#959595"/>
<rect x="139.083" y="2.55021" width="67.906" height="67.906" rx="33.953" fill="#959595"/>
<path fill-rule="evenodd" clip-rule="evenodd" d="M194.844 31.2047L194.844 42.3359L150.381 42.3359L150.382 31.2047L194.844 31.2047Z" fill="#FDFBF9"/>
<rect x="139.083" y="2.55021" width="67.906" height="67.906" rx="33.953" stroke="#808080" stroke-width="4.85043"/>
<defs>
<filter id="filter0_f_2054_9413" x="0.846344" y="184.442" width="177.491" height="65.03" filterUnits="userSpaceOnUse" color-interpolation-filters="sRGB">
<feFlood flood-opacity="0" result="BackgroundImageFix"/>
<feBlend mode="normal" in="SourceGraphic" in2="BackgroundImageFix" result="shape"/>
<feGaussianBlur stdDeviation="9.70085" result="effect1_foregroundBlur_2054_9413"/>
</filter>
</defs>
</svg>
