<svg width="179" height="250" viewBox="0 0 179 250" fill="none" xmlns="http://www.w3.org/2000/svg">
<g filter="url(#filter0_f_2042_9844)">
<ellipse cx="89.7245" cy="216.958" rx="69.3436" ry="13.1145" fill="#2C2C2C" fill-opacity="0.35"/>
</g>
<path d="M171.956 87.4327C171.956 119.923 150.981 150.564 129.299 173.451C118.532 184.816 107.753 194.099 99.6619 200.542C95.6191 203.762 92.2545 206.266 89.9078 207.961C89.2959 208.403 88.7533 208.79 88.2862 209.12C87.819 208.79 87.2765 208.403 86.6646 207.961C84.3178 206.266 80.9533 203.762 76.9104 200.542C68.819 194.099 58.0399 184.816 47.2732 173.451C25.591 150.564 4.61633 119.923 4.61633 87.4327C4.61634 65.242 13.4315 43.9603 29.1227 28.2691C44.8138 12.578 66.0956 3.76282 88.2862 3.76282C110.477 3.76282 131.759 12.578 147.45 28.2691C163.141 43.9603 171.956 65.242 171.956 87.4327Z" fill="#0567FF"/>
<path d="M171.956 87.4327C171.956 119.923 150.981 150.564 129.299 173.451C118.532 184.816 107.753 194.099 99.6619 200.542C95.6191 203.762 92.2545 206.266 89.9078 207.961C89.2959 208.403 88.7533 208.79 88.2862 209.12C87.819 208.79 87.2765 208.403 86.6646 207.961C84.3178 206.266 80.9533 203.762 76.9104 200.542C68.819 194.099 58.0399 184.816 47.2732 173.451C25.591 150.564 4.61633 119.923 4.61633 87.4327C4.61634 65.242 13.4315 43.9603 29.1227 28.2691C44.8138 12.578 66.0956 3.76282 88.2862 3.76282C110.477 3.76282 131.759 12.578 147.45 28.2691C163.141 43.9603 171.956 65.242 171.956 87.4327Z" stroke="#0567FF" stroke-width="7.27564" stroke-linecap="round" stroke-linejoin="round"/>
<path d="M171.956 87.4327C171.956 119.923 150.981 150.564 129.299 173.451C118.532 184.816 107.753 194.099 99.6619 200.542C95.6191 203.762 92.2545 206.266 89.9078 207.961C89.2959 208.403 88.7533 208.79 88.2862 209.12C87.819 208.79 87.2765 208.403 86.6646 207.961C84.3178 206.266 80.9533 203.762 76.9104 200.542C68.819 194.099 58.0399 184.816 47.2732 173.451C25.591 150.564 4.61633 119.923 4.61633 87.4327C4.61634 65.242 13.4315 43.9603 29.1227 28.2691C44.8138 12.578 66.0956 3.76282 88.2862 3.76282C110.477 3.76282 131.759 12.578 147.45 28.2691C163.141 43.9603 171.956 65.242 171.956 87.4327Z" stroke="#2C2C2C" stroke-opacity="0.5" stroke-width="7.27564" stroke-linecap="round" stroke-linejoin="round"/>
<path d="M94.2114 43.3692L102.916 62.8965C104.031 65.3984 106.395 67.1162 109.119 67.4037L130.381 69.6477C135.965 70.2371 138.214 77.1604 134.043 80.9194L118.161 95.232C116.126 97.0658 115.223 99.8452 115.792 102.525L120.228 123.439C121.393 128.932 115.503 133.211 110.639 130.405L92.1196 119.724C89.7467 118.355 86.8243 118.355 84.4514 119.724L65.9317 130.405C61.0676 133.211 55.1783 128.932 56.3433 123.439L60.7793 102.525C61.3476 99.8452 60.4445 97.0658 58.4097 95.232L42.5279 80.9195C38.3567 77.1604 40.6062 70.2371 46.1903 69.6477L67.4516 67.4037C70.1757 67.1162 72.5401 65.3984 73.6553 62.8965L82.3596 43.3692C84.6457 38.2405 91.9253 38.2405 94.2114 43.3692Z" fill="#FDFBF9" stroke="#959595" stroke-width="1.18597"/>
<defs>
<filter id="filter0_f_2042_9844" x="0.979156" y="184.442" width="177.491" height="65.03" filterUnits="userSpaceOnUse" color-interpolation-filters="sRGB">
<feFlood flood-opacity="0" result="BackgroundImageFix"/>
<feBlend mode="normal" in="SourceGraphic" in2="BackgroundImageFix" result="shape"/>
<feGaussianBlur stdDeviation="9.70085" result="effect1_foregroundBlur_2042_9844"/>
</filter>
</defs>
</svg>
