<svg width="209" height="251" viewBox="0 0 209 251" fill="none" xmlns="http://www.w3.org/2000/svg">
<g filter="url(#filter0_f_2042_9669)">
<ellipse cx="88.7459" cy="217.497" rx="69.3436" ry="13.1145" fill="#2C2C2C" fill-opacity="0.35"/>
</g>
<path d="M170.978 87.9717C170.978 120.463 150.003 151.103 128.321 173.99C117.554 185.355 106.775 194.638 98.6834 201.081C94.6405 204.301 91.276 206.805 88.9293 208.5C88.3174 208.942 87.7748 209.329 87.3077 209.659C86.8405 209.329 86.298 208.942 85.6861 208.5C83.3393 206.805 79.9748 204.301 75.9319 201.081C67.8405 194.638 57.0614 185.355 46.2947 173.99C24.6125 151.103 3.63782 120.463 3.63782 87.9717C3.63782 65.7811 12.453 44.4993 28.1441 28.8082C43.8353 13.1171 65.117 4.30188 87.3077 4.30188C109.498 4.30188 130.78 13.1171 146.471 28.8082C162.162 44.4993 170.978 65.7811 170.978 87.9717Z" fill="#0567FF"/>
<path d="M170.978 87.9717C170.978 120.463 150.003 151.103 128.321 173.99C117.554 185.355 106.775 194.638 98.6834 201.081C94.6405 204.301 91.276 206.805 88.9293 208.5C88.3174 208.942 87.7748 209.329 87.3077 209.659C86.8405 209.329 86.298 208.942 85.6861 208.5C83.3393 206.805 79.9748 204.301 75.9319 201.081C67.8405 194.638 57.0614 185.355 46.2947 173.99C24.6125 151.103 3.63782 120.463 3.63782 87.9717C3.63782 65.7811 12.453 44.4993 28.1441 28.8082C43.8353 13.1171 65.117 4.30188 87.3077 4.30188C109.498 4.30188 130.78 13.1171 146.471 28.8082C162.162 44.4993 170.978 65.7811 170.978 87.9717Z" stroke="#0567FF" stroke-width="7.27564" stroke-linecap="round" stroke-linejoin="round"/>
<path d="M170.978 87.9717C170.978 120.463 150.003 151.103 128.321 173.99C117.554 185.355 106.775 194.638 98.6834 201.081C94.6405 204.301 91.276 206.805 88.9293 208.5C88.3174 208.942 87.7748 209.329 87.3077 209.659C86.8405 209.329 86.298 208.942 85.6861 208.5C83.3393 206.805 79.9748 204.301 75.9319 201.081C67.8405 194.638 57.0614 185.355 46.2947 173.99C24.6125 151.103 3.63782 120.463 3.63782 87.9717C3.63782 65.7811 12.453 44.4993 28.1441 28.8082C43.8353 13.1171 65.117 4.30188 87.3077 4.30188C109.498 4.30188 130.78 13.1171 146.471 28.8082C162.162 44.4993 170.978 65.7811 170.978 87.9717Z" stroke="#2C2C2C" stroke-opacity="0.5" stroke-width="7.27564" stroke-linecap="round" stroke-linejoin="round"/>
<circle cx="87.3073" cy="87.9753" r="38.2104" fill="#FDFBF9" stroke="#959595" stroke-width="1.18597"/>
<rect x="138.238" y="3.08928" width="67.906" height="67.906" rx="33.953" fill="#959595"/>
<path fill-rule="evenodd" clip-rule="evenodd" d="M193.998 31.7438L193.998 42.875L149.536 42.875L149.536 31.7438L193.998 31.7438Z" fill="#FDFBF9"/>
<rect x="138.238" y="3.08928" width="67.906" height="67.906" rx="33.953" stroke="#808080" stroke-width="4.85043"/>
<defs>
<filter id="filter0_f_2042_9669" x="0.000640869" y="184.981" width="177.491" height="65.03" filterUnits="userSpaceOnUse" color-interpolation-filters="sRGB">
<feFlood flood-opacity="0" result="BackgroundImageFix"/>
<feBlend mode="normal" in="SourceGraphic" in2="BackgroundImageFix" result="shape"/>
<feGaussianBlur stdDeviation="9.70085" result="effect1_foregroundBlur_2042_9669"/>
</filter>
</defs>
</svg>
