<svg width="228" height="227" viewBox="0 0 228 227" fill="none" xmlns="http://www.w3.org/2000/svg">
<path d="M6.8687 160.6C6.8687 160.6 6.6687 160.1 6.2687 159.3L4.9687 156.4L2.9687 152.2H0.368701V160.3H1.1687L6.8687 160.6ZM9.8687 176.8L0.368701 176.3V184.2L13.3687 185L9.8687 176.8ZM23.7687 208.4C23.7687 208.4 22.8687 206.5 21.9687 204.6C21.4687 203.6 21.0687 202.7 20.7687 202L20.2687 200.8C20.2687 200.8 11.1687 200.5 2.0687 200L0.368701 199.8V207.7C2.0687 207.8 3.7687 207.9 5.5687 207.9C14.7687 208.4 23.7687 208.4 23.7687 208.4ZM29.4687 226.1C30.4687 226 30.9687 225.9 30.9687 225.9C30.7687 225.6 30.4687 225.2 30.2687 224.8C29.8687 224.1 29.3687 223.3 28.8687 222.4L26.8687 218.9C26.8687 218.9 24.5687 219.1 21.1687 219.3C17.7687 219.5 13.2687 219.5 8.6687 219.6C5.7687 219.6 2.8687 219.6 0.168701 219.5V226.8H21.9687C23.1687 226.7 24.2687 226.6 25.1687 226.5L29.4687 226.1ZM9.8687 67.6L8.8687 66.3C8.2687 65.5 7.4687 64.5 6.5687 63.5C4.6687 61.6 2.8687 59.7 2.8687 59.7C2.8687 59.7 1.8687 59.9 0.368701 60.3V69.5C1.6687 69.2 2.7687 68.9 3.8687 68.7C7.3687 68 9.8687 67.6 9.8687 67.6ZM27.0687 92.5L24.4687 88.2C23.8687 87.1 23.1687 86 22.6687 85.2C22.1687 84.4 21.8687 83.9 21.8687 83.9C21.8687 83.9 11.8687 84.6 2.5687 86.1C1.8687 86.2 1.1687 86.3 0.368701 86.5V94.7C2.6687 94.4 5.1687 94 7.7687 93.8C17.1687 92.7 27.0687 92.5 27.0687 92.5ZM7.7687 117.7C11.3687 117.6 16.0687 117.6 20.8687 117.6C25.6687 117.6 30.4687 117.8 34.0687 117.9L40.0687 118.2C40.0687 118.2 39.7687 117.7 39.4687 116.8L38.0687 113.8C37.0687 111.6 35.9687 109.4 35.9687 109.4L29.9687 109.3C26.3687 109.2 21.4687 109.2 16.6687 109.3C11.8687 109.4 7.1687 109.6 3.5687 109.8C2.4687 110 1.3687 110.1 0.368701 110.2V115.2L1.8687 118L7.7687 117.7ZM51.3687 143.7L47.6687 135.2L28.4687 134.1C18.8687 133.6 9.3687 133.4 9.3687 133.4L13.0687 141.6L19.0687 141.9L32.2687 142.6L51.3687 143.7ZM62.1687 168.2C62.1687 168.2 61.2687 166.2 60.2687 164.2L58.9687 161.4C58.6687 160.6 58.3687 160.1 58.3687 160.1C58.3687 160.1 48.8687 159.8 39.2687 159.3C29.6687 158.8 20.0687 158.2 20.0687 158.2L23.7687 166.7C23.7687 166.7 33.3687 167.3 42.9687 167.7C52.6687 168.1 62.1687 168.2 62.1687 168.2ZM55.1687 192.3C59.9687 192.1 64.6687 191.8 68.2687 191.4L72.4687 191C73.4687 190.9 74.0687 190.8 74.0687 190.8C73.7687 190.4 73.5687 190.1 73.3687 189.7L71.9687 187.2C70.9687 185.3 69.8687 183.5 69.8687 183.5C69.8687 183.5 67.4687 183.7 63.9687 183.9C60.3687 184.1 55.6687 184.2 50.8687 184.2C46.0687 184.2 41.1687 184.1 37.5687 184C33.9687 183.9 31.5687 183.8 31.5687 183.8C31.5687 183.8 31.8687 184.4 32.1687 185.2C32.5687 186 33.0687 187.1 33.5687 188.2L35.7687 192.6L41.7687 192.7H47.8687C50.3687 192.5 52.7687 192.4 55.1687 192.3ZM83.9687 205L83.1687 204C83.1687 204 80.9687 204.6 77.4687 205.4C73.9687 206.2 69.2687 207.2 64.5687 207.8C55.1687 209.1 45.2687 209.6 45.2687 209.6L50.8687 218.2L52.5687 218L57.0687 217.5C60.7687 217 65.5687 216.2 70.1687 215.2C72.4687 214.7 74.7687 214.2 76.9687 213.6C79.1687 213 81.1687 212.4 82.7687 211.8C86.1687 210.7 88.2687 209.8 88.2687 209.8L85.6687 207C84.9687 206.4 84.4687 205.7 83.9687 205ZM103.669 224.4L100.369 221.4C100.369 221.4 94.2687 223.9 86.9687 226.7H106.169L105.769 226.4C105.269 225.9 104.469 225.2 103.669 224.4ZM19.8687 0H0.468701V9.7C2.8687 8.5 5.5687 7.1 8.2687 5.8C12.3687 3.7 16.5687 1.6 19.8687 0ZM30.4687 27.9C34.8687 26.5 39.4687 25.3 43.9687 24.3C47.6687 23.5 50.2687 23.1 50.2687 23.1L49.1687 21.8C48.4687 21 47.6687 19.9 46.7687 18.9L42.8687 14.9C42.8687 14.9 40.3687 15.5 36.6687 16.6C34.8687 17.2 32.7687 17.8 30.3687 18.4C29.1687 18.8 27.9687 19.2 26.8687 19.7C25.7687 20.2 24.5687 20.8 23.4687 21.3C14.3687 25.7 5.3687 30.2 5.3687 30.2L12.9687 35.9L14.4687 35.1C15.4687 34.7 16.3687 33.5 17.9687 32.7C19.3687 31.8 21.4687 31.1 23.5687 30.2C25.6687 29.3 28.0687 28.6 30.4687 27.9ZM68.1687 49L65.4687 44.5L63.5687 41.4C63.0687 40.6 62.6687 40 62.6687 40C62.6687 40 52.2687 40.7 42.4687 42.3C37.6687 43 32.5687 44.2 29.0687 45.1C25.5687 46 23.1687 46.7 23.1687 46.7L25.7687 49.9C26.3687 50.6 26.9687 51.4 27.5687 52.2L28.3687 53.3C28.3687 53.3 37.8687 51.3 47.9687 50.2C57.8687 49.3 68.1687 49 68.1687 49ZM47.9687 75.4C51.7687 75.3 56.6687 75.3 61.6687 75.3C66.6687 75.3 71.6687 75.5 75.4687 75.6L81.7687 75.9C81.7687 75.9 81.4687 75.3 81.1687 74.5C80.8687 73.7 80.1687 72.5 79.6687 71.4C78.5687 69.1 77.4687 66.8 77.4687 66.8L71.1687 66.7C67.3687 66.6 62.2687 66.6 57.2687 66.7C52.2687 66.8 47.3687 67 43.6687 67.2C39.9687 67.4 37.4687 67.7 37.4687 67.7C37.4687 67.7 38.6687 69.5 39.6687 71.6C40.6687 73.7 41.7687 75.6 41.7687 75.6L47.9687 75.4ZM69.5687 92.5C59.5687 92 49.5687 91.8 49.5687 91.8L53.3687 100.3L59.5687 100.6L73.2687 101.3L93.2687 102.5L89.4687 93.6L69.5687 92.5ZM84.7687 127.5C94.8687 127.9 104.769 128 104.769 128L102.869 123.8L101.569 120.9C101.269 120.1 100.969 119.6 100.969 119.6C100.969 119.6 91.0687 119.3 80.9687 118.7L60.9687 117.5L64.8687 126.4C64.7687 126.4 74.8687 127.1 84.7687 127.5ZM74.8687 148.7L77.1687 153.3L83.4687 153.4H89.8687C92.2687 153.4 94.7687 153.3 97.2687 153.2C102.269 153 107.269 152.6 110.969 152.3C112.769 152.1 114.269 152 115.369 151.9L117.069 151.7C116.769 151.3 116.569 150.9 116.369 150.5C115.969 149.8 115.469 148.8 114.869 147.9C113.769 146 112.669 144.1 112.669 144.1C112.669 144.1 110.169 144.3 106.469 144.5C102.769 144.7 97.7687 144.8 92.7687 144.8C87.7687 144.8 82.6687 144.7 78.8687 144.6L72.5687 144.4C72.5687 144.4 72.8687 145 73.2687 145.8C73.6687 146.6 74.3687 147.6 74.8687 148.7ZM120.069 175.2C122.369 174.6 124.369 173.9 126.169 173.3C129.669 172.1 131.969 171.3 131.969 171.3C131.969 171.3 130.569 169.8 129.269 168.4C128.569 167.7 127.969 167 127.469 166.2C126.969 165.6 126.669 165.2 126.669 165.2C126.669 165.2 124.369 165.8 120.769 166.7C117.169 167.6 112.169 168.6 107.269 169.2C97.4687 170.6 87.0687 171 87.0687 171L92.8687 180L94.5687 179.8C95.6687 179.7 97.2687 179.5 99.2687 179.2C103.069 178.7 108.169 177.9 112.969 176.8C115.469 176.4 117.769 175.9 120.069 175.2ZM145.669 192L151.369 189.5L150.269 188.6L147.969 186.5C146.269 185 144.569 183.4 144.569 183.4C144.569 183.4 135.469 187.2 125.969 190.7C121.269 192.4 116.469 194.3 112.769 195.2C109.069 196.2 106.569 196.8 106.569 196.8L107.769 198.1C108.469 198.9 109.469 200 110.469 200.9L114.169 204.3C114.169 204.3 123.769 200.9 133.069 197.3C137.769 195.4 142.269 193.5 145.669 192ZM165.569 201.2C165.569 201.2 156.669 205.5 147.469 209.5C138.269 213.5 128.869 217.4 128.869 217.4L136.569 223.8C136.569 223.8 145.869 219.8 154.869 215.7C159.369 213.6 163.969 211.4 167.369 209.8L172.969 207.1L169.269 204.2C167.269 202.8 165.569 201.3 165.569 201.2ZM187.669 218.3C187.669 218.3 179.469 222.5 170.869 226.7H190.069L195.469 224L187.669 218.3ZM62.3687 3.2C62.3687 3.2 63.7687 4.9 65.0687 6.6C65.7687 7.3 66.3687 8.1 66.9687 9C67.4687 9.7 67.7687 10.2 67.7687 10.2C67.7687 10.2 77.6687 8 88.1687 6.9C98.4687 5.9 109.169 5.6 109.169 5.6C109.169 5.6 107.769 3.2 106.369 0.9L105.869 0H74.9687C72.5687 0.5 70.3687 1.1 68.4687 1.5C64.7687 2.5 62.3687 3.2 62.3687 3.2ZM81.6687 33.3L88.1687 33C92.0687 32.9 97.2687 32.9 102.469 32.9C107.669 32.9 112.969 33.1 116.869 33.3L123.469 33.6L122.769 32.1C122.369 31.2 121.769 30 121.169 28.8C120.069 26.4 118.869 24 118.869 24L112.269 23.9C108.369 23.8 102.969 23.8 97.7687 23.9C92.5687 24 87.3687 24.2 83.5687 24.5C79.7687 24.8 77.0687 25 77.0687 25C77.0687 25 78.2687 26.9 79.3687 29L81.6687 33.3ZM110.669 50.8C100.169 50.3 89.8687 50.1 89.8687 50.1L93.8687 59L100.369 59.3L114.769 60L135.669 61.2L131.669 51.9L110.669 50.8ZM105.569 86.2C105.569 86.2 116.069 86.9 126.469 87.3C136.869 87.7 147.269 87.8 147.269 87.8L145.269 83.4L143.869 80.4C143.469 79.6 143.269 79 143.269 79C143.269 79 132.869 78.6 122.469 78.1L101.569 76.9L105.569 86.2ZM125.169 114.2H131.869C134.369 114.2 136.969 114.1 139.669 114C144.969 113.8 150.069 113.4 153.869 113.1L158.469 112.6C159.569 112.5 160.269 112.4 160.269 112.4C159.969 112 159.769 111.6 159.569 111.2L157.969 108.4L155.669 104.4C155.669 104.4 153.069 104.6 149.169 104.8C145.269 105 140.169 105.1 134.869 105.1C129.569 105.1 124.269 105 120.369 104.9L113.769 104.7L114.469 106.2C114.869 107.1 115.369 108.3 116.069 109.5L118.469 114.3L125.169 114.2ZM136.669 141.8C137.869 141.7 139.569 141.5 141.569 141.2C145.569 140.7 150.869 139.8 155.869 138.7C158.469 138.1 160.869 137.6 163.269 136.9C165.669 136.2 167.769 135.6 169.669 135C173.369 133.8 175.669 132.9 175.669 132.9L172.769 129.8C172.069 129.1 171.469 128.3 170.869 127.5L170.069 126.4C170.069 126.4 167.669 127.1 163.869 128C160.069 128.9 154.869 130 149.769 130.6C139.569 132 128.669 132.5 128.669 132.5L134.769 141.9L136.669 141.8ZM169.269 153C164.369 154.8 159.369 156.7 155.569 157.7C151.769 158.7 149.069 159.3 149.069 159.3L150.369 160.7C151.169 161.5 152.169 162.6 153.169 163.6C155.069 165.4 157.069 167.2 157.069 167.2C157.069 167.2 167.169 163.7 176.769 159.9C181.669 158 186.369 156 189.969 154.5L195.969 151.9L194.769 150.9C194.069 150.3 193.269 149.5 192.369 148.7L188.869 145.5C188.769 145.4 179.169 149.4 169.269 153ZM212.369 172.9L218.269 170L214.369 167C212.369 165.5 210.569 163.9 210.569 163.9C210.569 163.9 201.269 168.3 191.669 172.6C182.069 176.9 172.269 180.9 172.269 180.9L180.269 187.5C180.269 187.5 189.969 183.4 199.369 179C204.069 176.9 208.869 174.6 212.369 172.9ZM195.969 200.1L204.069 206.4C204.069 206.4 213.469 201.9 222.869 197.2L227.069 195.1V185.1C223.669 186.8 219.269 189 214.869 191.2C205.569 195.7 195.969 200.1 195.969 200.1ZM227.169 223.6V214.7L220.069 218.3L227.169 223.6ZM141.069 17.9L155.969 18.7L177.769 20L173.569 10.3L151.769 9.1C140.869 8.6 130.069 8.3 130.069 8.3L134.269 17.6C134.269 17.6 136.969 17.8 141.069 17.9ZM142.269 36.2L146.469 45.9C146.469 45.9 157.369 46.6 168.269 47C179.169 47.5 189.969 47.5 189.969 47.5L187.869 42.9C187.369 41.8 186.769 40.6 186.369 39.8C185.969 39 185.769 38.3 185.769 38.3C185.769 38.3 174.969 37.9 164.069 37.3L142.269 36.2ZM161.869 65.2L155.069 65C155.069 65 155.369 65.6 155.769 66.6C156.169 67.6 156.769 68.8 157.369 70C158.669 72.5 159.869 75 159.869 75L166.769 75.1H173.769C176.369 75.1 179.069 75 181.869 74.8C187.369 74.6 192.669 74.2 196.669 73.8L201.469 73.3L203.369 73C203.069 72.6 202.869 72.2 202.569 71.7C202.169 70.9 201.569 69.9 200.969 68.8L198.569 64.6C198.569 64.6 195.869 64.8 191.769 65C187.669 65.2 182.369 65.3 176.869 65.3C171.369 65.3 165.969 65.4 161.869 65.2ZM170.469 94.1L176.869 103.9L178.769 103.7L183.869 103.1C188.069 102.5 193.469 101.7 198.769 100.5C201.469 99.9 203.969 99.4 206.469 98.7C208.969 98 211.169 97.3 213.069 96.7C216.869 95.4 219.369 94.5 219.369 94.5L216.369 91.3C215.669 90.6 214.969 89.8 214.469 89C213.969 88.3 213.569 87.9 213.569 87.9C213.569 87.9 211.069 88.6 207.169 89.5C203.269 90.4 197.869 91.5 192.569 92.2C181.769 93.6 170.469 94.1 170.469 94.1ZM198.369 120.2C194.369 121.3 191.669 121.9 191.669 121.9L192.969 123.3C193.769 124.1 194.769 125.3 195.869 126.3L199.969 130C199.969 130 210.469 126.4 220.569 122.4C222.869 121.5 225.169 120.6 227.269 119.7V109.8C223.469 111.3 218.169 113.4 212.769 115.4C207.469 117.2 202.269 119.2 198.369 120.2ZM224.069 151.2L227.169 149.8V139.4C220.669 142.2 215.669 144.2 215.669 144.2L224.069 151.2ZM209.969 6.8C216.469 7.1 222.869 7.2 227.169 7.3V0H184.869L187.269 5.6C187.269 5.6 198.669 6.3 209.969 6.8ZM203.269 25.7L196.169 25.4C196.169 25.4 196.469 26 196.969 27C197.469 28 197.969 29.2 198.669 30.5C199.969 33.1 201.269 35.7 201.269 35.7L208.369 35.8H215.669C218.369 35.8 221.269 35.7 224.069 35.5C225.069 35.5 226.169 35.4 227.169 35.4V25.8C224.569 25.9 221.769 25.9 218.969 25.9C213.369 25.9 207.569 25.8 203.269 25.7ZM218.869 65.8C218.869 65.8 219.569 65.7 220.869 65.6L226.169 65L227.269 64.9V54.5C219.169 55.3 212.369 55.6 212.369 55.6L218.869 65.8ZM227.069 85.9L227.169 84.1C226.269 84.3 225.769 84.4 225.769 84.4L227.069 85.9Z" fill="#2C2C2C"/>
</svg>
