<svg width="228" height="228" viewBox="0 0 228 228" fill="none" xmlns="http://www.w3.org/2000/svg">
<path d="M25.3687 223.098L24.1687 227.698H21.6687L19.8687 227.098C18.8687 226.798 17.7687 226.498 17.0687 226.198L15.8687 225.698C15.8687 225.698 16.1687 226.598 16.5687 227.698H10.0687C10.0687 227.598 9.96865 227.498 9.96865 227.498L9.86865 227.698H2.46865L4.16865 224.598C4.16865 224.598 2.36865 225.198 0.468652 225.798V219.498L2.16865 218.898L0.368652 217.998V211.598L1.26865 212.198L4.76865 214.298C4.76865 214.298 4.46865 212.098 4.06865 209.898C3.66865 207.698 3.46865 205.498 3.46865 205.498L6.26865 204.998L8.96865 204.298C8.96865 204.298 9.26865 206.498 9.66865 208.598C10.0687 210.698 10.4687 212.898 10.4687 212.998L14.9687 204.498L17.2687 205.698L18.8687 206.498C19.0687 206.598 19.3687 206.698 19.5687 206.798L15.5687 215.498C15.5687 215.498 17.5687 214.498 19.3687 213.398C21.1687 212.298 22.9687 211.198 22.9687 211.198L23.9687 213.598C24.5687 214.798 25.0687 215.998 25.0687 215.998C25.0687 215.998 23.3687 217.298 21.5687 218.498C20.3687 219.298 19.0687 220.098 17.7687 220.798L18.8687 221.298C19.5687 221.598 20.4687 221.798 21.4687 222.098L25.3687 223.098ZM72.4687 221.698L64.2687 225.798L67.7687 216.798L64.7687 215.598L61.6687 214.498L58.3687 223.498C58.3687 223.498 57.4687 221.398 56.5687 219.298L54.7687 214.998L51.9687 216.098L49.1687 217.198C49.1687 217.198 50.0687 219.298 50.9687 221.398C51.8687 223.498 52.6687 225.598 52.6687 225.598L48.6687 224.198C47.6687 223.798 46.6687 223.498 45.8687 223.298L44.5687 222.898L43.1687 227.498H73.3687L74.9687 226.698L72.4687 221.698ZM9.86865 172.298L5.06865 181.298L8.36865 182.998L10.6687 184.198C11.0687 184.398 11.3687 184.598 11.7687 184.698L16.0687 175.398C16.0687 175.398 16.8687 177.698 17.8687 179.998C18.8687 182.298 19.8687 184.698 19.8687 184.698L23.2687 183.598L26.4687 182.498C26.4687 182.498 25.2687 180.198 24.1687 177.998C23.4687 176.498 22.7687 174.998 22.2687 173.398L23.5687 173.898C24.3687 174.198 25.4687 174.498 26.5687 174.898L30.9687 176.298L32.4687 170.598L28.3687 169.298C27.3687 168.998 26.3687 168.698 25.6687 168.398L24.4687 167.898C25.8687 167.198 27.1687 166.398 28.4687 165.498C30.3687 164.198 32.1687 162.898 32.1687 162.898C32.1687 162.898 31.5687 161.598 30.9687 160.298L29.8687 157.798C29.8687 157.798 28.0687 158.998 26.0687 160.098C24.0687 161.198 21.9687 162.298 21.9687 162.298L26.2687 152.998C25.9687 152.898 25.7687 152.798 25.4687 152.698L23.7687 151.798L21.3687 150.498L16.5687 159.498C16.5687 159.498 16.0687 157.198 15.7687 154.898C15.4687 152.598 15.0687 150.298 15.0687 150.298L12.1687 150.998L9.26865 151.598L9.86865 156.298L10.6687 160.898L6.86865 158.998L3.16865 156.598L0.368652 160.998V161.798L3.76865 163.998L7.66865 166.298C7.66865 166.298 5.36865 166.998 3.06865 167.798L0.368652 168.598V175.198L5.16865 173.798C7.46865 173.198 9.86865 172.298 9.86865 172.298ZM71.8687 174.698L63.0687 178.998L66.7687 169.498L63.5687 168.198L60.2687 167.098L56.7687 176.698L54.8687 172.198L52.8687 167.698L49.9687 168.898L47.0687 170.098C47.0687 170.098 48.0687 172.298 48.9687 174.598C49.8687 176.898 50.8687 179.098 50.8687 179.098L46.6687 177.598C45.6687 177.198 44.5687 176.898 43.7687 176.698L42.4687 176.298L40.7687 181.898L42.0687 182.298C42.8687 182.498 43.8687 182.798 44.9687 183.198C47.0687 183.898 49.1687 184.698 49.1687 184.698C49.1687 184.698 47.1687 185.898 45.1687 187.098C43.1687 188.298 41.1687 189.498 41.1687 189.498L43.8687 194.898L47.8687 192.498L51.9687 190.098L48.4687 199.598L51.3687 200.598L54.2687 201.798L57.9687 192.298L60.9687 201.198L66.7687 199.098L63.7687 190.098L67.7687 191.698C69.7687 192.498 71.7687 193.398 71.7687 193.398L74.0686 187.998C74.0686 187.998 72.0687 187.098 69.9687 186.298L65.8687 184.698L74.5686 180.398L71.8687 174.698ZM114.169 194.698L105.369 198.598L109.669 189.298L103.769 186.598L99.4687 195.898L96.6687 186.598L90.6687 188.398L93.3687 197.598L85.2687 193.898L82.8687 199.298L90.9687 202.998L82.3687 206.998L84.6687 212.698L93.4687 208.698L89.1687 217.898L95.0686 220.698L99.3687 211.398L102.069 220.598L108.069 218.898L105.369 209.698L113.369 213.398L115.869 207.998L107.869 204.298L116.569 200.298L114.169 194.698ZM150.869 221.898L159.569 217.798L156.969 212.098L148.269 216.098L152.269 206.698L146.269 203.998L142.269 213.398L139.369 204.198L133.569 206.198L136.369 215.298L128.269 211.798L125.869 217.198L134.069 220.798L125.469 224.898L126.769 227.798H134.069L136.769 226.498L136.269 227.798H148.769L148.669 227.298L149.769 227.798H157.969L158.969 225.498L150.869 221.898ZM190.669 220.398L187.169 227.798H194.469L196.669 223.098L190.669 220.398ZM177.469 222.298L179.069 227.798H185.669L183.469 220.498L177.469 222.298ZM5.86865 116.998L0.768652 126.498C0.768652 126.498 2.56865 127.398 4.26865 128.298C5.16865 128.698 6.06865 129.198 6.66865 129.598C7.06865 129.798 7.46865 129.998 7.86865 130.098L12.3687 120.298C12.3687 120.298 13.2687 122.698 14.2687 125.198C15.2687 127.698 16.4687 130.198 16.4687 130.198L20.0687 129.098L23.4687 127.898C23.4687 127.898 22.1687 125.498 21.0687 123.098C20.2687 121.498 19.6687 119.898 19.0687 118.298C19.0687 118.298 19.6687 118.498 20.4687 118.898C21.2687 119.298 22.4687 119.598 23.6687 119.898L28.2687 121.298L29.8687 115.298C29.8687 115.298 27.7687 114.598 25.5687 113.998C24.4687 113.698 23.4687 113.398 22.6687 113.098L21.3687 112.598C22.8687 111.898 24.2687 110.998 25.5687 110.098C27.6687 108.698 29.4687 107.298 29.4687 107.298C29.4687 107.298 28.8687 105.898 28.1687 104.598L27.0687 101.998C27.0687 101.998 25.1687 103.298 23.0687 104.498C20.9687 105.698 18.7687 106.898 18.7687 106.898L23.2687 97.0984C23.2687 97.0984 22.9687 96.9984 22.4687 96.6984L20.6687 95.7984L18.0687 94.4984L12.9687 103.998C12.9687 103.998 12.4687 101.598 12.0687 99.0984L11.3687 93.9984C11.3687 93.9984 9.86865 94.3984 8.26865 94.7984C6.66865 95.1984 5.16865 95.3984 5.16865 95.3984L5.86865 100.398C6.26865 102.898 6.66865 105.298 6.66865 105.298C6.66865 105.298 4.66865 104.098 2.66865 102.998L0.368652 101.398V108.698L3.56865 110.598L0.368652 111.598V118.698L0.868652 118.498C3.36865 117.898 5.86865 116.998 5.86865 116.998ZM79.0686 120.798L69.7687 125.398L73.6687 115.298L70.3687 113.998L66.9687 112.798L63.2687 122.998L61.2687 118.198L59.1687 113.398C59.1687 113.398 57.5687 113.998 56.0687 114.598L52.9687 115.898C52.9687 115.898 54.0687 118.298 55.0687 120.698C56.0687 123.098 57.0687 125.498 57.0687 125.498L52.5687 123.898C51.4687 123.498 50.3687 123.098 49.4687 122.898L48.0687 122.498L46.2687 128.398L47.6687 128.798C48.4687 128.998 49.6687 129.398 50.7687 129.798L55.1687 131.298L50.8687 133.798C48.7687 135.098 46.6687 136.398 46.6687 136.398L49.5687 142.098L53.8687 139.498L58.2687 136.998L54.5687 147.098L57.5687 148.198L60.5687 149.498L64.4687 139.398L67.6687 148.898L73.7687 146.698L70.5686 137.198L74.8687 138.898C77.0687 139.698 79.1687 140.698 79.1687 140.698L81.5686 134.998C81.5686 134.998 79.4687 133.998 77.2687 133.198L72.9687 131.498L82.1687 126.898L79.0686 120.798ZM122.869 140.398L113.569 144.498L118.169 134.698L111.969 131.798L107.369 141.598L104.369 131.798L98.0686 133.698L100.969 143.498L92.4687 139.598L89.9687 145.298L98.5686 149.198L89.4687 153.398L91.8687 159.398L101.169 155.198L96.5686 164.998L102.769 167.998L107.369 158.198L110.169 167.898L116.569 165.998L113.769 156.198L122.269 160.098L124.869 154.498L116.469 150.598L125.769 146.398L122.869 140.398ZM165.569 159.598L156.369 163.898L160.669 153.998L154.269 151.098L150.069 161.098L146.969 151.298L140.869 153.398L143.869 163.098L135.369 159.398L132.869 165.098L141.569 168.898L132.469 173.198L135.169 179.198L144.369 174.898L140.169 184.798L146.269 187.598L150.569 177.598L153.569 187.298L159.769 185.398L156.769 175.698L165.269 179.498L167.769 173.798L159.269 169.998L168.469 165.698L165.569 159.598ZM209.069 179.498L204.369 181.398C202.069 182.298 199.669 183.398 199.669 183.298L204.369 173.498L197.969 170.598L193.369 180.398L190.469 170.698L184.069 172.698L186.969 182.398L178.369 178.598L175.769 184.198L184.369 188.098L175.169 192.298L177.569 198.298L186.869 194.098L182.269 203.798L188.369 206.598L193.069 196.798C193.069 196.798 193.769 199.198 194.369 201.698L195.669 206.598L201.969 204.998L199.469 195.098L207.669 199.298L210.469 193.698L202.169 189.398L211.469 185.598L209.069 179.498ZM218.169 204.698L226.569 208.998L217.269 212.798L219.369 218.898L227.069 215.798V202.298L220.969 199.098L218.169 204.698ZM227.169 226.398V218.498L223.869 224.698L227.169 226.398ZM30.8687 63.5984L29.5687 62.9984C31.1687 62.1984 32.6687 61.2984 34.0687 60.2984C36.2687 58.8984 38.1687 57.3984 38.1687 57.3984C38.1687 57.3984 37.4687 55.9984 36.7687 54.4984C36.1687 53.0984 35.5687 51.6984 35.5687 51.6984C35.5687 51.6984 33.5687 52.9984 31.2687 54.2984C28.9687 55.5984 26.7687 56.7984 26.7687 56.7984L31.5687 46.3984C31.5687 46.3984 31.2687 46.2984 30.7687 45.9984L28.8687 44.9984L26.1687 43.5984L20.7687 53.6984C20.7687 53.6984 20.2687 51.1984 19.8687 48.4984C19.4687 45.7984 19.0687 43.2984 19.0687 43.2984L15.8687 44.0984C14.2687 44.3984 12.5687 44.6984 12.5687 44.6984C12.5687 44.6984 12.9687 47.2984 13.2687 49.8984C13.6687 52.4984 14.1687 55.0984 14.1687 55.0984C14.1687 55.0984 12.0687 53.8984 9.96865 52.5984C7.86865 51.2984 5.86865 49.9984 5.86865 49.9984L2.26865 55.4984L6.56865 58.1984L10.9687 60.7984L5.86865 62.4984L0.668652 63.9984L1.66865 67.3984L2.76865 70.7984L8.06865 69.1984C10.6687 68.3984 13.3687 67.4984 13.3687 67.4984L7.96865 77.4984L11.6687 79.3984L14.2687 80.6984C14.6687 80.8984 15.0687 81.0984 15.4687 81.2984L20.2687 70.8984C20.2687 70.8984 21.1687 73.4984 22.2687 76.0984C23.3687 78.6984 24.5687 81.3984 24.5687 81.3984L28.3687 80.1984L31.9687 78.8984C31.9687 78.8984 30.5687 76.2984 29.3687 73.7984C28.5687 72.0984 27.8687 70.3984 27.2687 68.6984L28.7687 69.2984C29.6687 69.5984 30.8687 69.9984 32.1687 70.3984L37.0687 71.8984L38.6687 65.5984C38.6687 65.5984 36.3687 64.8984 34.1687 64.1984C32.8687 64.1984 31.7687 63.8984 30.8687 63.5984ZM55.3687 78.6984C57.6687 79.4984 60.0687 80.2984 60.0687 80.2984L55.5687 82.9984C53.3687 84.2984 51.1687 85.6984 51.1687 85.6984L54.2687 91.6984L58.7687 88.9984L63.3687 86.2984L59.4687 96.9984C59.4687 96.9984 61.0687 97.5984 62.6687 98.1984L65.8687 99.4984L69.9687 88.7984L73.3687 98.7984L79.8687 96.4984L76.5686 86.3984C76.5686 86.3984 78.8686 87.2984 81.0686 88.1984C83.2686 89.0984 85.5686 90.0984 85.5686 90.0984L88.1687 84.0984C88.1687 84.0984 85.9687 83.0984 83.6687 82.1984C81.3687 81.2984 79.0686 80.3984 79.0686 80.3984L88.7687 75.5984L85.5686 69.2984L75.7687 74.0984L79.8687 63.3984L76.2687 61.9984L72.6687 60.6984L68.7687 71.4984L66.6687 66.4984C65.5687 63.9984 64.4687 61.3984 64.4687 61.3984C64.4687 61.3984 62.8687 62.0984 61.1687 62.6984C59.4687 63.2984 57.8687 63.9984 57.8687 63.9984C57.8687 63.9984 58.9687 66.4984 60.0687 68.9984C61.1687 71.4984 62.1687 73.9984 62.1687 73.9984L57.4687 72.3984C56.2687 71.9984 55.0687 71.5984 54.1687 71.3984L52.6687 70.9984L50.7687 77.2984L52.2687 77.6984C53.0687 77.8984 54.2687 78.2984 55.3687 78.6984ZM124.469 100.598L134.269 96.1984L131.569 89.8984L121.669 94.2984L126.469 83.8984L119.869 80.7984L115.069 91.1984L111.969 80.8984L105.269 82.8984L108.369 93.1984L99.3687 88.9984L96.6687 94.9984L105.669 99.0984L96.0686 103.498L98.6687 109.798L108.469 105.298L103.669 115.598L110.169 118.698L114.969 108.298L117.969 118.598L124.669 116.698L121.669 106.398L130.569 110.498L133.269 104.498L124.469 100.598ZM176.069 130.998L178.769 124.998L169.769 120.998L179.469 116.498L176.569 110.098L166.769 114.598L171.269 104.098L164.569 101.098L160.169 111.598L156.869 101.298L150.369 103.598L153.569 113.798L144.569 109.898L141.869 115.898L151.069 119.898L141.469 124.498L144.269 130.898L153.969 126.298L149.569 136.798L156.069 139.798L160.569 129.298L163.669 139.498L170.269 137.398L167.169 127.098L176.069 130.998ZM220.969 151.998L223.869 146.098L215.069 141.598L224.969 137.598L222.369 130.998L217.369 132.998C214.869 133.998 212.369 135.098 212.369 135.098L217.269 124.798L210.569 121.798L205.669 132.098L202.569 121.798L195.869 123.898L198.869 134.198L189.869 130.098L187.169 136.098L196.269 140.198L186.569 144.698L189.069 150.998L198.969 146.498L194.169 156.798L200.669 159.798L205.569 149.498C205.569 149.498 206.269 151.998 206.969 154.698L208.269 159.898L214.869 158.198L212.269 147.698L220.969 151.998ZM10.8687 16.9984L5.16865 27.5984C5.16865 27.5984 7.16865 28.5984 9.06865 29.5984L11.7687 30.9984C12.1687 31.1984 12.5687 31.3984 13.0687 31.5984L18.0687 20.6984C18.0687 20.6984 19.0687 23.3984 20.1687 26.1984C21.2687 28.9984 22.5687 31.7984 22.5687 31.7984L26.5687 30.4984L30.3687 29.1984C30.3687 29.1984 28.8687 26.4984 27.6687 23.8984C26.8687 22.1984 26.0687 20.3984 25.4687 18.4984L26.9687 19.0984C27.8687 19.3984 29.1687 19.7984 30.4687 20.1984L35.5687 21.7984L37.3687 15.0984C37.3687 15.0984 34.9687 14.3984 32.6687 13.5984C31.4687 13.1984 30.2687 12.8984 29.4687 12.5984L27.9687 11.9984C29.5687 11.1984 31.1687 10.1984 32.6687 9.19844C34.9687 7.69844 37.0687 6.09844 37.0687 6.09844L35.6687 3.09844L34.6687 0.998438H32.9687C32.1687 1.49844 30.9687 2.19844 29.8687 2.89844C27.5687 4.29844 25.0687 5.49844 25.0687 5.49844L27.1687 0.998438H19.3687L18.6687 2.29844C18.6687 2.29844 18.5687 1.79844 18.3687 0.998438H11.1687C11.4687 2.69844 11.6687 3.99844 11.6687 3.99844L7.26865 1.39844L6.66865 0.998438H1.36865L0.368652 2.59844V5.09844L3.66865 7.19844C5.96865 8.59844 8.26865 9.99844 8.26865 9.99844L2.86865 11.6984L0.368652 12.3984V20.1984L5.26865 18.7984C8.06865 17.9984 10.8687 16.9984 10.8687 16.9984ZM59.4687 23.7984C61.9687 24.6984 64.3687 25.4984 64.3687 25.4984L59.6687 28.2984C57.2687 29.6984 54.9687 31.1984 54.9687 31.1984L58.1687 37.5984C58.1687 37.5984 60.5687 36.1984 62.9687 34.6984L67.8687 31.8984L63.7687 43.0984C63.7687 43.0984 65.4687 43.6984 67.1687 44.2984L70.5686 45.6984L74.8687 34.4984L78.3687 44.9984L85.1687 42.5984L81.6687 31.9984L86.4687 33.8984C88.8687 34.7984 91.1687 35.8984 91.1687 35.8984L93.8687 29.5984C93.8687 29.5984 91.5686 28.4984 89.0686 27.5984L84.2687 25.6984L94.4687 20.5984L91.1687 13.9984L80.7687 18.9984L85.0686 7.79844L81.3687 6.29844L77.5686 4.99844L73.4687 16.2984L71.2687 10.9984C70.0687 8.29844 68.9687 5.69844 68.9687 5.69844L65.5686 6.99844L62.1687 8.39844C62.1687 8.39844 63.3687 10.9984 64.4687 13.6984L66.6687 18.9984L61.6687 17.2984C60.4687 16.7984 59.1687 16.4984 58.1687 16.1984L56.5687 15.6984L54.5687 22.2984L56.1687 22.6984C57.0687 22.9984 58.2687 23.3984 59.4687 23.7984ZM115.969 55.7984L110.969 66.6984L117.869 69.9984L122.969 59.0984L126.069 69.8984L133.169 67.8984L129.969 56.9984L139.369 61.2984L142.269 54.9984L132.969 50.6984L143.269 45.9984L140.369 39.2984L129.969 43.8984L135.069 32.9984L128.169 29.7984L123.069 40.6984L119.769 29.7984L112.769 31.8984L115.969 42.7984L106.469 38.4984L103.669 44.7984L113.169 49.1984L103.069 53.8984L105.769 60.5984L115.969 55.7984ZM153.569 82.2984L163.769 77.4984L159.069 88.4984L165.869 91.6984L170.669 80.5984L173.969 91.3984L180.869 89.1984L177.569 78.3984L186.969 82.5984L189.769 76.2984L180.369 72.0984L190.569 67.2984L187.469 60.5984L177.169 65.2984L181.969 54.1984L174.869 50.9984L170.169 62.0984L166.669 51.2984L159.869 53.5984L163.169 64.3984L153.669 60.2984L150.869 66.5984L160.569 70.7984L150.469 75.5984L153.569 82.2984ZM219.269 73.8984L212.169 76.0984L215.369 86.8984L205.869 82.5984L202.969 88.8984L212.469 93.1984L202.369 97.8984L205.069 104.498L215.469 99.7984L210.369 110.598L217.169 113.698L222.369 102.798C222.369 102.798 223.169 105.498 223.769 108.198C224.369 110.898 225.169 113.698 225.169 113.698L227.069 113.198V74.9984L222.469 84.7984L219.269 73.8984ZM105.869 8.59844L116.669 3.69844L111.369 15.0984L118.569 18.5984L123.869 7.09844L127.169 18.3984L134.569 16.2984L131.369 4.89844L141.269 9.39844L144.269 2.79844L140.269 0.898438H104.369L103.069 1.49844L105.869 8.59844ZM161.969 5.89844L159.069 12.4984L169.169 16.8984L158.569 21.8984L161.669 28.8984L172.369 23.8984L167.469 35.4984L174.669 38.7984L179.669 27.1984L183.169 38.4984L190.469 36.1984L187.069 24.7984L196.969 29.1984L199.869 22.5984L189.969 18.0984L200.669 13.0984L197.369 6.19844L186.569 11.1984L190.969 0.998438H182.169L179.269 7.89844L176.969 0.998438H168.969L171.869 10.1984L161.969 5.89844ZM223.069 37.4984L213.069 32.9984L210.069 39.5984L220.069 44.0984L209.369 48.9984L212.169 55.9984L223.069 51.0984L217.669 62.3984L224.869 65.6984L227.069 61.0984V23.8984L219.669 26.1984L223.069 37.4984ZM223.769 8.59844L227.169 7.09844V0.998438H221.369L220.769 1.29844L223.769 8.59844Z" fill="#2C2C2C"/>
</svg>
