<svg width="228" height="227" viewBox="0 0 228 227" fill="none" xmlns="http://www.w3.org/2000/svg">
<path d="M212.469 0H227.169V13C221.869 9.1 216.869 4.8 212.469 0ZM186.769 12.4C191.469 17.9 196.369 23.6 201.569 28.9C205.969 33.3 213.169 33.3 217.569 28.9C221.969 24.5 221.969 17.3 217.569 12.9C213.669 9 209.769 4.5 205.969 0.1H178.769C178.969 2.4 179.969 4.6 181.469 6.4C183.269 8.3 184.969 10.3 186.769 12.4ZM223.369 32.8C222.769 34.2 222.569 35.6 222.569 37.1C222.569 40.7 224.269 44.1 227.169 46.2V27.9C225.469 29.1 224.169 30.8 223.369 32.8ZM148.569 3C149.169 2.1 149.669 1.1 149.969 0H123.969C126.969 2.2 129.969 4.2 132.869 6.1C138.069 9.6 145.069 8.2 148.569 3ZM151.369 10C151.369 13.1 152.569 16 154.769 18.1C157.769 21 160.869 24.4 164.969 28.9C167.469 31.7 169.969 34.7 172.569 37.7L173.769 39.1C177.869 43.8 185.069 44.3 189.769 40.2C194.469 36.2 194.969 29.1 191.069 24.4L189.869 23C187.269 19.9 184.569 16.8 181.969 13.8C177.569 8.8 174.069 5.1 170.669 1.8C169.869 1.1 169.069 0.5 168.069 0H157.269C156.269 0.5 155.369 1.2 154.569 2.1C152.469 4.2 151.269 7 151.369 10ZM209.869 44.3C204.969 40.4 197.869 41.1 193.969 46C190.169 50.8 190.769 57.7 195.369 61.7C201.869 67.1 208.269 71 214.969 73.5C217.469 74.4 220.269 75.6 223.469 77.2C224.669 77.7 225.869 78.1 227.169 78.2V54C225.769 53.4 224.369 52.8 222.969 52.3C218.669 50.7 214.469 48.1 209.869 44.3ZM118.669 13.5C121.569 9.5 121.569 4 118.669 0H82.4687C90.0687 6.2 96.5687 11.3 102.869 15.9C107.869 19.6 114.969 18.5 118.669 13.5ZM127.669 32.6C135.069 37.4 141.969 44.6 147.269 50.4C151.469 55 158.669 55.3 163.269 51.1C167.869 46.9 168.169 39.7 163.969 35.1C157.769 28.4 149.569 19.9 140.069 13.7C134.769 10.3 127.769 11.9 124.369 17.2C121.169 22.3 122.569 29.2 127.669 32.6ZM163.569 64.9C163.569 67.7 164.569 70.3 166.369 72.4C172.469 79.2 180.569 87.9 190.269 94.2C195.469 97.6 202.569 96.2 205.969 91C209.369 85.8 207.969 78.7 202.769 75.3C202.669 75.3 202.669 75.2 202.569 75.2C195.169 70.4 188.369 63.2 183.369 57.5C179.269 52.8 172.069 52.4 167.369 56.5C164.969 58.6 163.569 61.7 163.569 64.9ZM212.869 92.2C212.069 93.8 211.669 95.5 211.669 97.3C211.669 101.6 214.069 105.5 217.869 107.4L221.369 109.2C223.269 110.2 225.169 111.2 227.169 112.1V86.8C221.669 84.6 215.469 86.9 212.869 92.2ZM48.4687 8.6C55.3687 14.3 63.3687 21 71.4687 27.3C76.3687 31.2 83.5687 30.3 87.3687 25.4C91.2687 20.5 90.3687 13.3 85.4687 9.5C81.4687 6.3 77.5687 3.2 73.6687 0H44.4687C44.4687 3.3 45.9687 6.4 48.4687 8.6ZM97.8687 47.5C102.169 50.5 106.569 53.3 110.769 55.9C114.269 58.1 117.569 60.6 120.669 63.4C125.369 67.6 132.569 67.1 136.669 62.4C140.769 57.7 140.369 50.5 135.669 46.4C131.569 42.7 127.169 39.4 122.569 36.5C118.669 34.1 114.669 31.5 110.569 28.7C105.569 24.9 98.4687 25.9 94.6687 31C90.8687 36 91.8687 43.1 96.9687 46.9C97.3687 47.1 97.5687 47.3 97.8687 47.5ZM144.269 88.6C149.169 94.4 154.269 100.5 159.769 106C164.169 110.5 171.369 110.6 175.769 106.2C180.269 101.8 180.369 94.6 175.969 90.2C171.069 85.2 166.269 79.5 161.569 74C160.069 72.2 158.569 70.5 157.069 68.7C152.969 63.9 145.869 63.4 141.069 67.5C136.269 71.6 135.769 78.7 139.869 83.5C141.369 85.1 142.769 86.8 144.269 88.6ZM222.869 117.7L219.869 116.1C212.669 112.4 205.169 108.6 197.769 105.8C197.169 105.6 196.469 105.3 195.869 105C190.169 102.4 183.469 105 180.869 110.7C178.269 116.4 180.869 123.1 186.569 125.7C187.569 126.2 188.669 126.6 189.769 127C196.069 129.4 202.569 132.7 209.569 136.3L212.669 137.9C217.769 140.5 223.969 138.9 227.169 134.1V121.4C226.069 119.9 224.569 118.6 222.869 117.7ZM17.4687 6.7C19.1687 4.8 20.1687 2.5 20.3687 0H0.368652V6.5L1.46865 7.5C6.06865 11.7 13.2687 11.3 17.4687 6.7ZM61.1687 41.7C65.1687 36.9 64.4687 29.7 59.5687 25.7C54.2687 21.4 49.0687 17 43.8687 12.7L37.1687 7.1C32.3687 3.1 25.1687 3.8 21.1687 8.6C17.1687 13.4 17.8687 20.5 22.5687 24.5L29.2687 30.1C34.4687 34.5 39.7687 38.9 45.1687 43.3C49.9687 47.2 57.1687 46.5 61.1687 41.7ZM68.5686 61.7C77.2686 68.2 85.4687 73.8 93.4687 78.8C98.7687 82.1 105.769 80.5 109.069 75.2C112.369 69.9 110.769 62.9 105.469 59.6C105.469 59.6 105.369 59.6 105.369 59.5C97.8687 54.8 90.1687 49.6 81.9687 43.5C76.8687 39.8 69.7687 41 66.1687 46.1C62.6687 51.1 63.7686 58 68.5686 61.7ZM114.069 79.5C109.569 83.8 109.469 91 113.769 95.5C116.369 98.2 118.969 101.1 121.569 104C124.469 107.2 127.269 110.6 130.169 114L132.669 117C136.769 121.7 143.969 122.2 148.669 118.1C153.269 114.1 153.869 107.1 149.969 102.4L147.469 99.5C144.469 96 141.569 92.5 138.569 89.1C135.769 86 132.969 82.9 130.169 79.9C125.769 75.3 118.669 75.2 114.069 79.5ZM152.869 123.5C148.769 128.2 149.269 135.4 153.969 139.5C161.669 146.2 169.269 150.9 177.169 153.9C178.769 154.5 180.469 155.2 182.069 155.9C187.769 158.4 194.469 155.8 196.969 150C199.469 144.2 196.869 137.6 191.069 135.1C189.069 134.2 187.069 133.4 185.069 132.7C179.769 130.7 174.469 127.3 168.769 122.4C164.069 118.3 156.969 118.8 152.869 123.5ZM202.569 153.5C199.869 159.1 202.169 165.9 207.869 168.6C213.469 171.4 219.169 173.8 225.069 175.8C225.769 176 226.469 176.3 227.169 176.5V152.4C224.369 151.3 221.269 149.9 217.769 148.2C212.069 145.5 205.269 147.9 202.569 153.5ZM17.0687 57.1C21.8687 61.1 29.0687 60.5 33.0687 55.7C37.0687 50.9 36.4687 43.7 31.6687 39.7L25.9687 34.9C20.4687 30.3 14.9687 25.7 9.56865 21.3L9.06865 20.9C6.66865 18.9 3.46865 18.1 0.368652 18.6V43.1C4.06865 46.1 7.66865 49.2 11.3687 52.3L17.0687 57.1ZM39.9687 75.8C48.5687 82.6 56.4687 88.4 63.9687 93.7C69.1687 97.3 76.1687 96 79.7687 90.8C83.3687 85.6 82.0687 78.6 76.8687 75C69.6687 70 62.1687 64.5 53.9687 58C49.0687 54 41.9687 54.8 37.9687 59.6C33.9687 64.4 34.7687 71.6 39.5687 75.6C39.7687 75.6 39.8687 75.7 39.9687 75.8ZM122.869 129.7C127.569 125.5 127.969 118.4 123.869 113.7C117.569 106.6 110.069 98.5 101.869 91.8C96.9687 87.9 89.8687 88.8 85.9687 93.7C82.1687 98.5 82.8686 105.5 87.5686 109.4C94.5686 115.1 101.269 122.4 106.969 128.7C110.969 133.5 118.169 133.9 122.869 129.7C122.869 129.7 122.869 129.8 122.869 129.7ZM149.269 172.6C154.469 176.2 161.469 174.9 165.069 169.7C168.669 164.5 167.369 157.5 162.169 153.9C156.269 149.8 150.269 144.3 142.869 135.9C138.669 131.2 131.569 130.8 126.869 135C122.169 139.2 121.769 146.3 125.969 151C134.669 160.8 141.869 167.5 149.269 172.6ZM212.769 178.5C207.369 176.1 201.669 173.3 196.269 170.5C193.169 168.9 190.069 167.3 186.969 165.8C181.369 163 174.569 165.4 171.769 171C170.969 172.5 170.569 174.2 170.569 176C170.569 180.3 173.069 184.3 176.969 186.2C179.969 187.6 182.869 189.2 185.869 190.7C191.669 193.6 197.669 196.7 203.669 199.3C209.369 201.8 216.069 199.2 218.569 193.4C221.069 187.6 218.469 181 212.769 178.5ZM220.869 194.9C218.169 200.5 220.469 207.3 226.069 210L227.069 210.5V189.2C224.369 190.2 222.169 192.2 220.869 194.9ZM5.46865 69.7C9.46865 64.9 8.86865 57.7 4.06865 53.7L0.468652 50.7V73.1C2.36865 72.5 4.06865 71.3 5.46865 69.7ZM51.1687 105.9C54.8687 100.9 53.8687 93.8 48.8687 90C41.9687 84.9 34.8687 79.2 26.3687 72.3C21.5687 68.3 14.3687 69.1 10.3687 73.9C6.36865 78.7 7.16865 85.9 11.9687 89.9C20.7687 97.1 28.1687 102.9 35.2687 108.2C40.3687 112 47.4687 111 51.1687 105.9ZM72.1687 106.2C66.9687 102.8 59.8687 104.3 56.4687 109.5C53.0687 114.7 54.5687 121.8 59.7687 125.2C59.8687 125.3 59.9687 125.3 60.0687 125.4C61.4687 126.3 62.9687 127.2 64.3687 128.1C69.5687 131.3 74.9686 135.7 81.0686 141.7C85.4686 146.1 92.6686 146.1 97.0686 141.7C101.469 137.3 101.469 130.1 97.0686 125.7C89.7686 118.4 82.9687 112.9 76.2687 108.8C74.8687 107.9 73.4687 107 72.1687 106.2ZM119.269 150.3L117.269 148C113.269 143.2 106.069 142.6 101.269 146.6C96.4687 150.6 95.8687 157.8 99.8687 162.6L101.869 164.9C107.569 171.7 113.469 178.7 119.769 185.1C124.169 189.6 131.369 189.6 135.769 185.2C140.269 180.8 140.269 173.6 135.869 169.2C130.269 163.4 124.669 156.8 119.269 150.3ZM182.669 196.8C174.969 192.9 167.369 189.1 159.869 186.3C158.569 185.8 157.269 185.2 155.969 184.6C150.369 181.8 143.569 184.2 140.769 189.8C139.969 191.4 139.569 193.1 139.569 194.8C139.569 199.1 142.069 203.1 145.969 205C147.869 205.9 149.869 206.8 151.869 207.5C158.269 209.9 165.269 213.4 172.369 217C177.969 219.8 184.769 217.6 187.569 212C190.369 206.4 188.269 199.6 182.669 196.8ZM207.869 208.5C201.969 206.3 195.469 209.3 193.269 215.2C191.769 219.2 192.669 223.6 195.469 226.7H227.069V216.1C221.669 213.5 216.069 211.3 210.369 209.4C209.569 209.1 208.669 208.8 207.869 208.5ZM23.1687 120.9C27.0687 116 26.1687 108.9 21.2687 105C13.7687 99 6.56865 93.1 0.368652 88V117.3C2.66865 119.1 4.96865 121 7.26865 122.8C12.1687 126.7 19.3687 125.8 23.1687 120.9ZM55.0687 156.4C60.0687 160.2 67.1687 159.3 70.9687 154.3C74.7687 149.3 73.8687 142.2 68.8687 138.4C66.2687 136.4 63.5687 134.5 60.7687 132.8C55.3687 129.5 49.7687 125.8 44.2687 122C39.1687 118.4 32.0687 119.7 28.4687 124.8C24.8687 129.9 26.1687 137 31.2687 140.6C37.1687 144.7 43.1687 148.6 48.9687 152.2C50.9687 153.4 53.0687 154.8 55.0687 156.4ZM105.069 175.7C101.769 171.8 98.5687 167.9 95.2687 164.2C93.9687 162.8 92.6687 161.3 91.4687 159.9C87.2687 155.3 80.0687 154.9 75.4687 159.1C70.8687 163.3 70.4687 170.5 74.6687 175.1C75.8687 176.5 77.0687 177.8 78.3687 179.2C81.5687 182.8 84.6687 186.5 87.8687 190.3C89.7687 192.5 91.5687 194.7 93.4687 197C97.5687 201.7 104.769 202.1 109.469 198C114.069 194 114.569 187 110.669 182.3C108.669 180.1 106.869 177.9 105.069 175.7ZM157.169 216.4C155.769 215.9 154.269 215.5 152.869 215.1C146.869 213.4 140.769 210.2 134.269 205.4C129.169 201.7 122.169 202.8 118.369 207.8C114.669 212.9 115.769 219.9 120.869 223.7C122.369 224.8 123.769 225.8 125.269 226.7H164.869C164.769 222 161.669 217.9 157.169 216.4ZM3.06865 155.6C11.6687 162 19.6687 167.5 27.6687 172.6C32.9687 176 39.9687 174.4 43.3687 169.2C46.7687 163.9 45.1687 156.9 39.9687 153.5C32.4687 148.7 24.8687 143.4 16.7687 137.4C11.7687 133.7 4.66865 134.7 0.868652 139.7C0.768652 139.9 0.568652 140.1 0.468652 140.3V152.7C1.06865 153.8 1.96865 154.8 3.06865 155.6ZM79.7687 191.2C73.4687 184 68.5687 178.8 63.7687 174.3C59.2687 170 52.0687 170.1 47.7687 174.6C43.4687 179.1 43.5687 186.3 48.0687 190.6C52.3687 194.7 56.8687 199.5 62.7687 206.2C64.1687 207.8 65.6686 209.5 67.0686 211.2C70.9686 216.1 78.0687 217 82.9687 213.1C87.8687 209.2 88.7687 202.1 84.8687 197.2C84.6687 197 84.4687 196.7 84.2687 196.5C82.7687 194.7 81.2687 192.9 79.7687 191.2ZM103.969 216.3C99.7687 211.7 92.5687 211.3 87.9687 215.5C84.8687 218.3 83.5687 222.7 84.6687 226.8H114.469C111.169 223.8 107.669 220.4 103.969 216.3ZM15.1687 185.3C18.7687 180.2 17.4687 173.1 12.3687 169.5C8.46865 166.8 4.46865 163.9 0.368652 160.9V188.7C5.46865 191.6 11.8687 190.1 15.1687 185.3ZM60.8687 212.1C52.3687 202.9 45.1687 196.2 38.0687 190.9C32.9687 187.3 25.8687 188.6 22.2687 193.8C18.8687 198.7 19.8687 205.4 24.5687 209.1C30.2687 213.4 36.3687 219 43.5687 226.7H61.4687C64.9687 222.4 64.6687 216.2 60.8687 212.1ZM9.26865 207C7.36865 205.8 5.46865 204.6 3.56865 203.4C2.56865 202.8 1.46865 202.3 0.368652 202V226.8H31.4687C30.8687 225 29.8687 223.3 28.4687 222C21.8687 215.7 15.5687 210.8 9.26865 207Z" fill="#2C2C2C"/>
</svg>
