<svg width="228" height="228" viewBox="0 0 228 228" fill="none" xmlns="http://www.w3.org/2000/svg">
<path d="M4.06865 182.998C5.16865 179.998 6.26865 176.898 6.26865 176.898L9.96865 181.598C11.7687 183.998 13.5687 186.398 13.5687 186.398L20.3687 180.698L15.1687 176.098C12.5687 173.798 9.96865 171.598 9.96865 171.598L21.4687 165.498C21.4687 165.498 20.1687 163.498 18.6687 161.498C17.9687 160.498 17.1687 159.498 16.6687 158.698L15.7687 157.398L11.0687 161.898L6.26865 166.298C6.26865 166.298 5.96865 165.498 5.46865 164.298C4.96865 163.098 4.36865 161.598 3.66865 159.998C2.96865 158.398 2.26865 156.798 1.66865 155.598L0.768652 153.598L0.368652 153.898V188.198C1.26865 188.698 1.86865 188.998 1.86865 188.998L4.06865 182.998ZM31.8687 216.898L35.5687 221.598C37.4687 223.898 39.4687 226.198 39.4687 226.198L45.8687 219.998C45.8687 219.998 45.1687 219.498 44.2687 218.698L40.7687 215.898C38.1687 213.798 35.6687 211.598 35.6687 211.598L47.1687 205.598L44.7687 201.898L42.3687 198.198L32.2687 206.298L28.5687 193.598L20.4687 197.098L25.9687 207.598L12.9687 206.498C12.9687 206.498 13.1687 208.798 13.3687 211.098C13.5687 213.398 13.8687 215.798 13.8687 215.798L25.6687 213.998L22.5687 219.298L19.5687 224.698L23.6687 226.998L24.6687 227.598H28.3687C28.7687 226.398 29.2687 224.698 29.7687 222.898C30.8687 219.998 31.8687 216.898 31.8687 216.898ZM4.06865 118.398C4.06865 118.398 4.46865 115.198 4.56865 111.898C4.66865 109.698 4.56865 107.498 4.36865 105.298C4.36865 105.298 5.06865 105.698 6.06865 106.198L9.66865 108.298C10.9687 109.198 12.1687 109.998 13.1687 110.698L14.6687 111.898L17.2687 107.998L19.7687 104.098C19.7687 104.098 18.8687 103.698 17.5687 103.098C16.2687 102.498 14.4687 101.698 12.6687 100.998L10.0687 99.9984L7.66865 99.2984L5.36865 98.4984C5.36865 98.4984 7.36865 95.6984 9.36865 92.9984C11.3687 90.2984 13.5687 87.5984 13.5687 87.5984L11.8687 86.5984C10.8687 85.9984 9.36865 85.2984 7.96865 84.5984C6.36865 83.7984 5.56865 83.3984 4.66865 82.9984C3.76865 82.5984 3.36865 82.3984 3.36865 82.3984L0.368652 91.9984V118.198C1.56865 118.198 2.86865 118.198 4.06865 118.398ZM52.2687 144.198L46.8687 139.398C44.1687 136.998 41.3687 134.698 41.3687 134.698L53.3687 128.298C53.3687 128.298 51.9687 126.198 50.4687 124.098C49.6687 122.998 48.9687 121.998 48.3687 121.198L47.3687 119.898L42.4687 124.598L37.4687 129.198L36.6687 127.098C36.1687 125.898 35.5687 124.198 34.7687 122.498C33.9687 120.798 33.3687 119.198 32.7687 117.898L31.7687 115.798L27.8687 118.298L23.9687 120.798C23.9687 120.798 24.4687 121.398 25.1687 122.298C25.8687 123.198 26.7687 124.498 27.6687 125.698C28.5687 126.898 29.3687 128.198 30.0687 129.198L31.0687 130.798C31.0687 130.798 27.6687 130.798 24.3687 130.998C22.7687 131.098 21.0687 131.198 19.8687 131.298L17.7687 131.498C17.7687 131.498 17.8687 132.098 18.0687 132.898C18.2687 133.698 18.3687 134.798 18.5687 135.998C18.7687 137.198 18.9687 138.198 19.0687 138.998C19.1687 139.798 19.2687 140.398 19.2687 140.398C19.2687 140.398 22.2687 139.598 25.2687 138.898L31.2687 137.498C31.2687 137.498 29.7687 140.298 28.1687 143.098L24.9687 148.598C24.9687 148.598 26.9687 149.598 28.9687 150.598C30.9687 151.598 33.0687 152.798 33.0687 152.798L35.4687 146.498C36.6687 143.298 37.7687 140.098 37.7687 140.098C37.7687 140.098 39.6687 142.598 41.5687 144.998L45.2687 149.998L52.2687 144.198ZM77.7687 166.398L75.2687 162.498L64.6687 170.998L60.7687 157.698L52.2687 161.298L58.0687 172.298L44.3687 171.198C44.3687 171.198 44.5687 173.598 44.8687 176.098C45.1687 178.598 45.3687 180.998 45.3687 180.998L57.7687 179.198C57.7687 179.198 56.1687 181.998 54.5687 184.798C52.9687 187.598 51.3687 190.498 51.3687 190.498L55.6687 192.898L60.0687 195.198C60.0687 195.198 60.9687 191.798 62.0687 188.598C63.1687 185.398 64.2687 182.098 64.2687 182.098C64.2687 182.098 66.2687 184.598 68.1687 186.998C70.0687 189.398 72.1687 191.798 72.1687 191.798L78.8687 185.298C78.8687 185.298 78.1687 184.798 77.1687 183.998L73.4687 180.998C70.7687 178.798 68.1687 176.498 68.1687 176.498L80.2687 170.198C80.2687 170.198 78.9687 168.298 77.7687 166.398ZM98.3687 221.098C98.1687 219.798 98.1687 218.998 98.1687 218.998L99.9687 219.898C101.069 220.498 102.469 221.098 103.969 221.798C105.469 222.498 106.869 223.098 107.969 223.498L109.769 224.198C109.769 224.198 110.469 221.998 111.169 219.698C111.869 217.398 112.569 215.298 112.569 215.298L110.469 214.998C109.269 214.798 107.569 214.398 105.969 214.098C104.369 213.798 102.769 213.298 101.569 212.998C100.969 212.898 100.469 212.698 100.169 212.498L99.6687 212.298C99.6687 212.298 101.869 209.698 104.069 207.098C106.269 204.498 108.369 201.798 108.369 201.798L107.469 201.198C106.969 200.798 106.169 200.298 105.469 199.798C104.769 199.298 104.069 198.698 103.469 198.198C103.169 197.998 102.869 197.698 102.569 197.398L98.5686 202.898C96.6686 205.698 94.6687 208.498 94.6687 208.498L94.3687 207.998C94.1687 207.698 93.8686 207.198 93.5686 206.698C92.9686 205.598 92.0687 204.298 91.2687 202.798C90.4687 201.298 89.7687 199.898 89.1687 198.798C88.5687 197.698 88.2687 196.998 88.2687 196.998L84.3687 199.498L80.4687 201.998C80.4687 201.998 80.9687 202.598 81.6687 203.598C82.3687 204.598 83.3687 205.798 84.3687 206.998C85.3687 208.198 86.3687 209.398 87.2687 210.298C88.1687 211.198 88.6687 211.698 88.6687 211.698L86.5686 212.098C85.2686 212.298 83.5687 212.598 81.8687 212.798C80.1687 212.998 78.3686 213.198 77.0686 213.298L74.8687 213.398C74.8687 213.398 75.0687 213.998 75.3687 214.998L76.7687 218.498C77.2687 219.798 77.8687 220.998 78.2687 221.998L79.0686 223.598C79.0686 223.598 82.0686 222.498 85.0686 221.198C88.0686 219.898 90.8687 218.498 90.8687 218.498L90.5686 220.498C90.3686 221.698 90.2686 223.298 90.0686 224.998C89.9686 225.898 89.9687 226.798 89.8687 227.698H99.4687C99.3687 227.098 99.2687 226.498 99.1687 225.898C98.7687 224.198 98.5687 222.398 98.3687 221.098ZM144.369 216.098L140.069 214.998L137.969 227.798H144.969L148.769 217.298L144.369 216.098ZM128.269 222.098L126.569 220.898L124.369 224.998L122.869 227.798H136.869C135.769 227.098 133.969 225.998 132.069 224.798C130.669 223.798 129.269 222.798 128.269 222.098ZM186.869 224.698L186.669 227.798H195.969L196.369 226.398L186.869 224.698ZM0.368652 39.6984V48.6984L3.26865 40.1984L0.368652 39.6984ZM25.8687 69.3984L27.2687 67.9984C27.2687 67.9984 27.1687 71.2984 26.7687 74.4984C26.5687 76.0984 26.2687 77.6984 26.0687 78.8984C25.8687 80.0984 25.6687 80.8984 25.6687 80.8984C26.9687 80.6984 28.2687 80.6984 29.6687 80.6984C31.0687 80.6984 32.4687 80.6984 33.8687 80.8984C33.8687 80.8984 34.2687 77.4984 34.3687 74.0984C34.4687 71.7984 34.3687 69.4984 34.1687 67.1984L35.9687 68.0984L39.7687 70.2984C41.0687 71.1984 42.3687 72.0984 43.3687 72.7984L44.9687 73.9984L47.6687 69.8984L50.3687 65.7984C50.3687 65.7984 49.4687 65.2984 48.0687 64.6984C46.6687 64.0984 44.8687 63.1984 42.9687 62.4984C42.0687 62.0984 41.0687 61.7984 40.1687 61.4984L37.6687 60.7984L35.3687 60.1984C35.3687 60.1984 37.4687 57.2984 39.5687 54.4984C41.6687 51.6984 43.9687 48.8984 43.9687 48.8984L42.1687 47.8984C41.0687 47.2984 39.5687 46.5984 38.0687 45.7984C36.3687 44.9984 35.5687 44.5984 34.6687 44.1984L33.2687 43.5984L28.8687 56.9984L17.9687 47.4984L12.4687 55.4984L23.8687 61.8984L11.2687 68.5984L17.7687 76.6984L22.6687 72.3984C23.7687 71.2984 25.0687 70.1984 25.8687 69.3984ZM82.2687 86.6984L80.0686 83.6984C79.4686 82.8984 79.0686 82.2984 79.0686 82.2984L73.8687 87.1984L68.6687 92.0984L67.8687 89.8984C67.3687 88.5984 66.6687 86.8984 65.8687 85.0984C65.0687 83.2984 64.3687 81.5984 63.7687 80.2984L62.7687 78.0984L58.6687 80.6984L54.5687 83.2984C54.5687 83.2984 55.0687 83.8984 55.7687 84.8984C56.4687 85.8984 57.4687 87.1984 58.3687 88.4984C59.2687 89.7984 60.1687 91.1984 60.8687 92.1984L61.9687 93.8984C61.9687 93.8984 58.4687 93.8984 54.9687 94.0984L50.1687 94.3984L47.9687 94.5984C47.9687 94.5984 48.0687 95.1984 48.2687 95.9984C48.4687 96.7984 48.5687 97.9984 48.7687 99.1984C48.9687 100.398 49.1687 101.498 49.2687 102.398C49.3687 103.298 49.4687 103.898 49.4687 103.898C49.4687 103.898 52.5687 103.098 55.7687 102.298C58.9687 101.498 62.0687 100.898 62.0687 100.898C62.0687 100.898 60.4687 103.798 58.8687 106.698L55.5687 112.498C55.5687 112.498 57.6687 113.498 59.7687 114.598C61.8687 115.698 64.0687 116.798 64.0687 116.798C64.0687 116.798 65.2686 113.498 66.5686 110.198C67.8686 106.898 68.9687 103.498 68.9687 103.498C68.9687 103.498 70.9687 106.098 72.9687 108.598C74.9687 111.098 76.8687 113.798 76.8687 113.798L84.3687 107.498C84.3687 107.498 81.5687 104.998 78.7687 102.498C75.9687 99.9984 73.0686 97.5984 73.0686 97.5984L85.3687 91.0984C85.3687 91.0984 83.8687 88.8984 82.2687 86.6984ZM110.169 149.198C109.069 148.398 107.669 147.198 106.269 146.098C103.469 143.798 100.669 141.398 100.669 141.398L113.269 134.898C113.269 134.898 111.969 132.898 110.669 130.898C109.369 128.898 108.069 126.798 108.069 126.798L96.9687 135.698L92.9687 121.798L84.0686 125.598L90.0686 137.198L75.8687 135.998C75.8687 135.998 76.0687 138.498 76.3687 141.098C76.6687 143.698 76.8687 146.198 76.8687 146.198L89.8687 144.298L86.4687 150.098L83.1687 155.998L87.6687 158.498L92.2687 160.898C92.2687 160.898 93.2687 157.398 94.3687 153.998L96.6687 147.198C96.6687 147.198 98.7687 149.798 100.769 152.398C102.769 154.998 104.969 157.498 104.969 157.498L111.969 150.698C111.969 150.598 111.269 150.098 110.169 149.198ZM140.169 180.598C138.469 180.298 136.869 179.798 135.569 179.498C134.969 179.398 134.469 179.098 134.069 178.998L133.469 178.798C133.469 178.798 135.769 176.098 138.069 173.398C140.369 170.698 142.469 167.898 142.469 167.898L141.569 167.198C140.969 166.798 140.269 166.298 139.469 165.698L137.369 163.998C137.069 163.698 136.769 163.498 136.469 163.198C136.469 163.198 134.369 166.098 132.269 168.998L128.269 174.798L127.969 174.298C127.769 173.998 127.469 173.498 127.169 172.898C126.469 171.798 125.569 170.298 124.769 168.798C123.969 167.298 123.169 165.798 122.569 164.598C121.969 163.398 121.669 162.698 121.669 162.698L117.569 165.398L113.469 167.998C113.469 167.998 113.969 168.698 114.669 169.598C115.369 170.498 116.469 171.898 117.469 173.198C118.469 174.498 119.569 175.698 120.469 176.598C121.369 177.498 121.869 178.098 121.869 178.098L119.669 178.498C118.269 178.698 116.469 178.998 114.769 179.198C113.069 179.398 111.069 179.598 109.669 179.698C108.269 179.798 107.369 179.798 107.369 179.798C107.369 179.798 107.569 180.498 107.969 181.498C108.369 182.498 108.869 183.798 109.369 185.098C109.869 186.398 110.469 187.798 110.969 188.798L111.769 190.498C111.769 190.498 114.869 189.398 118.069 187.998C121.269 186.598 124.069 185.198 124.069 185.198C124.069 185.198 123.969 186.098 123.769 187.298C123.569 188.498 123.369 190.298 123.269 191.998C123.169 193.698 122.969 195.498 122.969 196.798C122.969 198.098 122.969 198.998 122.969 198.998L124.869 199.298C125.969 199.398 127.569 199.798 128.869 199.798L134.369 199.998C134.369 199.998 133.469 196.298 132.869 192.798C132.569 190.998 132.269 189.098 132.069 187.798C131.869 186.498 131.769 185.598 131.769 185.598C131.769 185.598 132.569 185.998 133.669 186.598C134.769 187.198 136.269 187.898 137.869 188.598C139.469 189.298 140.869 189.898 142.069 190.398L143.969 191.098C143.969 191.098 144.669 188.798 145.369 186.398C146.069 183.998 146.869 181.798 146.869 181.798L144.669 181.498C143.569 181.298 141.869 180.898 140.169 180.598ZM182.169 197.098C180.769 197.198 179.869 197.198 179.869 197.198L184.669 183.798L180.069 182.698L175.569 181.498L173.269 195.498C173.269 195.498 170.169 193.598 167.269 191.698C165.769 190.798 164.369 189.698 163.269 188.998C162.169 188.298 161.469 187.698 161.469 187.698C161.469 187.698 160.369 189.798 159.169 191.998C157.969 194.198 156.869 196.298 156.869 196.298C156.869 196.298 157.569 196.698 158.769 197.098L162.969 198.898L167.169 200.498C168.269 200.998 169.069 201.198 169.069 201.198C169.069 201.198 166.269 203.298 163.269 205.398C160.269 207.498 157.269 209.498 157.269 209.498C157.269 209.498 159.169 211.398 161.169 213.198C162.169 214.098 163.169 214.998 163.969 215.698C164.769 216.398 165.269 216.798 165.269 216.798L169.569 211.798C171.669 209.298 173.769 206.698 173.769 206.698L175.269 213.298C176.069 216.598 176.869 219.898 176.869 219.898L181.869 218.698L186.769 217.398C186.769 217.398 185.269 214.098 183.669 210.898L180.669 204.398L187.169 205.398C190.469 205.898 193.669 206.298 193.669 206.298L194.369 196.598L187.069 197.098C185.369 196.898 183.569 196.998 182.169 197.098ZM223.469 205.698L210.369 199.298L207.169 208.498L219.769 211.798L209.369 221.498L217.569 227.598L224.769 216.698L227.069 224.598V191.998L224.269 191.498L223.469 205.698ZM8.16865 20.2984L18.6687 20.1984L15.9687 5.39844L28.5687 10.6984L31.8687 1.09844L31.4687 0.998438H0.368652V12.3984L8.36865 6.19844L8.16865 20.2984ZM46.7687 38.9984L51.8687 34.4984C53.1687 33.3984 54.4687 32.2984 55.3687 31.3984L56.8687 29.9984C56.8687 29.9984 56.7687 33.4984 56.3687 36.7984C56.1687 38.3984 55.8687 40.1984 55.6687 41.3984C55.4687 42.5984 55.2687 43.3984 55.2687 43.3984C56.6687 43.1984 57.9687 43.1984 59.3687 43.1984C60.8687 43.1984 62.2687 43.1984 63.6687 43.3984C63.6687 43.3984 64.1687 39.8984 64.1687 36.3984C64.2687 33.9984 64.1687 31.5984 63.9687 29.1984C63.9687 29.1984 64.6687 29.5984 65.7687 30.0984L69.6687 32.3984L73.4687 34.9984C74.4687 35.7984 75.1687 36.2984 75.1687 36.2984C75.1687 36.2984 76.5687 34.1984 77.9687 32.0984C79.3687 29.9984 80.7687 27.7984 80.7687 27.7984C80.7687 27.7984 79.8687 27.2984 78.3687 26.6984C76.8687 26.0984 75.0686 25.0984 73.0686 24.3984L70.1687 23.2984C69.2687 22.9984 68.3686 22.7984 67.5686 22.4984L65.0686 21.7984C65.0686 21.7984 67.2687 18.7984 69.4687 15.7984C71.6687 12.7984 74.0686 9.89844 74.0686 9.89844C74.0686 9.89844 73.3687 9.49844 72.3687 8.79844C71.3687 8.09844 69.6686 7.39844 68.0686 6.59844C66.3686 5.79844 65.4686 5.39844 64.5686 4.99844C63.6686 4.59844 63.1687 4.29844 63.1687 4.29844L58.4687 18.3984L47.0687 8.39844L41.3687 16.7984L53.2687 23.4984L40.1687 30.4984L46.7687 38.9984ZM80.4687 57.4984L78.1687 57.6984L78.4687 59.1984C78.6687 60.0984 78.8686 61.2984 79.0686 62.4984C79.2686 63.6984 79.4686 64.8984 79.5686 65.7984C79.6686 66.6984 79.7687 67.2984 79.7687 67.2984C79.7687 67.2984 82.9687 66.3984 86.2687 65.5984L92.8687 64.0984L89.4687 70.1984L85.9687 76.1984C85.9687 76.1984 88.1687 77.2984 90.3687 78.3984C92.5687 79.4984 94.7687 80.6984 94.7687 80.6984L97.3687 73.7984C98.6687 70.2984 99.8687 66.7984 99.8687 66.7984C99.8687 66.7984 101.969 69.4984 104.069 72.1984L108.169 77.5984L115.969 70.9984L110.069 65.7984C107.169 63.1984 104.069 60.6984 104.069 60.6984L117.169 53.6984C117.169 53.6984 115.669 51.3984 113.969 49.0984C113.169 47.8984 112.269 46.7984 111.669 45.8984L110.569 44.4984L105.169 49.5984L99.7687 54.6984L98.8687 52.3984C98.3687 50.9984 97.6687 49.1984 96.8687 47.3984C96.0687 45.5984 95.2687 43.7984 94.6687 42.3984C94.0687 40.9984 93.5686 40.0984 93.5686 40.0984L89.2687 42.7984L84.9687 45.5984C84.9687 45.5984 85.4687 46.2984 86.2687 47.2984C87.0687 48.2984 88.0687 49.5984 88.9687 51.0984C89.8687 52.5984 90.8686 53.8984 91.5686 54.8984C92.2686 55.8984 92.6687 56.6984 92.6687 56.6984C92.6687 56.6984 88.9687 56.6984 85.3687 56.8984L80.4687 57.4984ZM143.669 95.1984L140.969 90.8984L129.369 100.198L125.169 85.6984L115.869 89.6984L122.169 101.798L107.369 100.598L107.869 105.898L108.469 111.198L121.969 109.198L118.469 115.298C116.769 118.398 115.069 121.498 115.069 121.498L119.769 124.098L124.569 126.598C124.569 126.598 125.569 122.898 126.769 119.398L129.169 112.298L133.469 117.698C135.669 120.398 137.869 122.998 137.869 122.998L145.169 115.898C145.169 115.898 144.369 115.298 143.269 114.498C142.169 113.698 140.669 112.398 139.169 111.198C136.269 108.798 133.369 106.298 133.369 106.298L146.569 99.4984L143.669 95.1984ZM162.669 167.198L168.369 167.498C168.369 167.498 167.469 163.698 166.769 159.898C166.369 157.998 166.069 156.098 165.969 154.698C165.869 153.298 165.669 152.298 165.669 152.298L167.669 153.298C168.869 153.998 170.469 154.698 171.969 155.298C173.469 155.898 175.169 156.698 176.369 157.098C177.569 157.498 178.369 157.898 178.369 157.898L179.869 152.998C180.669 150.598 181.469 148.098 181.469 148.098C181.469 148.098 180.569 147.998 179.169 147.798C177.769 147.598 176.069 147.198 174.269 146.798C172.469 146.398 170.869 145.998 169.469 145.598C168.769 145.398 168.269 145.198 167.869 145.098L167.269 144.898C167.269 144.898 169.669 142.098 172.069 139.198C174.469 136.298 176.669 133.498 176.669 133.498C176.669 133.498 176.269 133.198 175.669 132.798C175.069 132.398 174.269 131.898 173.469 131.198C172.669 130.498 171.869 129.898 171.369 129.498C171.069 129.198 170.669 128.998 170.369 128.698L166.069 134.698L161.869 140.798C161.869 140.798 161.769 140.598 161.569 140.298C161.369 139.998 161.069 139.498 160.669 138.898C159.969 137.698 159.069 136.198 158.169 134.598C157.269 132.998 156.469 131.498 155.969 130.198C155.469 128.898 154.969 128.198 154.969 128.198C154.969 128.198 152.869 129.598 150.669 130.998L146.369 133.698C146.369 133.698 146.869 134.398 147.669 135.398C148.469 136.398 149.469 137.798 150.669 139.098C151.869 140.398 152.869 141.698 153.769 142.698C154.669 143.698 155.269 144.298 155.269 144.298L152.969 144.698C151.569 144.998 149.669 145.198 147.769 145.398C145.869 145.598 143.969 145.798 142.469 145.898L140.069 146.098C140.069 146.098 140.269 146.798 140.669 147.798C141.069 148.798 141.569 150.198 142.169 151.598C142.769 152.998 143.369 154.398 143.869 155.398C144.369 156.398 144.669 157.198 144.669 157.198C144.669 157.198 147.969 155.998 151.169 154.598C154.369 153.198 157.469 151.698 157.469 151.698C157.469 151.698 157.369 152.598 157.069 153.898C156.769 155.198 156.669 156.998 156.569 158.798C156.469 160.598 156.269 162.498 156.269 163.898C156.269 165.298 156.269 166.198 156.269 166.198L158.269 166.498C159.669 166.798 161.269 167.098 162.669 167.198ZM217.969 164.198L215.569 164.298L220.569 150.298L215.869 149.098L211.169 147.798L208.769 162.398C208.769 162.398 205.569 160.498 202.469 158.398C200.869 157.398 199.369 156.298 198.269 155.498L196.369 154.198L193.969 158.698L191.569 163.098C191.569 163.098 192.369 163.498 193.569 163.998L197.869 165.798L202.269 167.498C203.469 167.998 204.269 168.298 204.269 168.298C204.269 168.298 201.269 170.498 198.269 172.698C195.269 174.898 191.969 176.898 191.969 176.898C191.969 176.898 193.969 178.898 196.069 180.698C197.169 181.598 198.169 182.598 198.969 183.298L200.269 184.398C200.269 184.398 202.469 181.798 204.769 179.198C207.069 176.598 209.069 173.898 209.069 173.898L210.669 180.798C211.569 184.198 212.369 187.698 212.369 187.698L217.569 186.398L222.669 184.998L219.469 178.198C217.969 174.798 216.369 171.398 216.369 171.398L223.169 172.398L226.969 172.898V163.398L223.069 163.698L217.969 164.198ZM84.7687 5.79844C86.1687 5.59844 87.6686 5.59844 89.0686 5.59844C90.5686 5.59844 92.0686 5.59844 93.5686 5.79844C93.5686 5.79844 93.8687 3.59844 93.9687 0.998438H85.5686C85.4686 1.99844 85.2687 2.89844 85.1687 3.69844C84.9687 4.99844 84.7687 5.79844 84.7687 5.79844ZM76.1687 0.998438H75.6687L75.8687 1.19844L76.1687 0.998438ZM109.469 25.7984C109.669 26.9984 109.869 28.2984 109.969 29.2984C110.069 30.2984 110.169 30.8984 110.169 30.8984C110.169 30.8984 113.569 29.9984 116.969 29.0984C120.369 28.1984 123.869 27.5984 123.869 27.5984C123.869 27.5984 122.069 30.7984 120.369 33.8984L116.769 40.0984C116.769 40.0984 119.069 41.1984 121.369 42.3984C123.669 43.5984 125.969 44.7984 125.969 44.7984C125.969 44.7984 127.269 41.1984 128.669 37.5984C130.069 33.9984 131.269 30.2984 131.269 30.2984L135.569 35.8984C137.669 38.6984 139.869 41.5984 139.869 41.5984L147.969 34.7984L141.869 29.3984C138.769 26.6984 135.669 23.9984 135.669 23.9984L149.369 16.7984C149.369 16.7984 147.769 14.3984 145.969 11.9984C145.069 10.7984 144.269 9.59844 143.569 8.69844C142.869 7.79844 142.369 7.19844 142.369 7.19844L136.769 12.4984L131.169 17.7984C131.169 17.7984 130.769 16.8984 130.269 15.3984C129.769 13.8984 128.969 12.0984 128.169 10.1984C127.369 8.29844 126.569 6.39844 125.869 4.99844C125.169 3.59844 124.769 2.59844 124.769 2.59844L120.269 5.39844L115.869 8.29844C115.869 8.29844 116.369 8.99844 117.169 10.0984C117.969 11.1984 118.969 12.5984 119.969 13.9984C120.969 15.3984 121.869 16.8984 122.669 17.9984L123.869 19.7984C123.869 19.7984 120.069 19.7984 116.269 20.0984L111.069 20.3984L108.769 20.5984C108.769 20.5984 108.869 21.1984 109.069 22.1984C109.269 23.1984 109.269 24.4984 109.469 25.7984ZM154.169 66.3984L138.769 65.0984C138.769 65.0984 139.069 67.8984 139.269 70.5984L139.869 76.1984L153.969 74.0984L150.269 80.3984C148.469 83.5984 146.669 86.7984 146.669 86.7984L151.569 89.4984L156.469 92.1984C156.469 92.1984 157.569 88.3984 158.769 84.6984C159.969 80.9984 161.169 77.2984 161.169 77.2984C161.169 77.2984 163.369 80.0984 165.669 82.8984C167.969 85.6984 170.269 88.3984 170.269 88.3984L177.869 80.9984C177.869 80.9984 177.069 80.3984 175.969 79.4984C174.869 78.5984 173.269 77.2984 171.769 76.0984C168.769 73.5984 165.669 70.9984 165.669 70.9984L179.369 63.8984C179.369 63.8984 177.969 61.6984 176.469 59.4984L173.569 55.0984L161.469 64.7984L157.369 49.6984L147.669 53.7984L154.169 66.3984ZM204.569 94.5984L200.069 100.898C197.869 104.098 195.669 107.198 195.669 107.198L195.269 106.698C195.069 106.398 194.769 105.798 194.369 105.198C193.669 103.998 192.669 102.398 191.769 100.698C190.869 98.9984 189.969 97.3984 189.469 96.0984L188.469 93.9984L184.069 96.8984L179.669 99.6984C179.669 99.6984 180.169 100.398 181.069 101.498C181.969 102.598 182.969 103.998 184.169 105.398C185.369 106.798 186.469 108.198 187.469 109.198C188.469 110.198 189.069 110.798 189.069 110.798L186.669 111.198C185.169 111.498 183.269 111.698 181.269 111.998C179.269 112.298 177.269 112.398 175.769 112.498L173.269 112.698C173.269 112.698 173.469 113.398 173.869 114.498C174.269 115.598 174.869 116.998 175.369 118.498C175.869 119.998 176.569 121.398 177.069 122.498C177.569 123.598 177.969 124.298 177.969 124.298C177.969 124.298 181.369 123.098 184.769 121.598C188.169 120.098 191.369 118.498 191.369 118.498L190.969 120.798C190.769 122.198 190.569 123.998 190.369 125.898C190.169 127.798 190.069 129.698 190.069 131.198C190.069 132.698 190.069 133.598 190.069 133.598L192.169 133.898C193.369 134.098 195.069 134.398 196.569 134.498L202.469 134.798C202.469 134.798 201.569 130.798 200.869 126.898C200.469 124.998 200.169 122.898 199.969 121.398C199.769 119.898 199.669 118.998 199.669 118.998L201.669 120.098C202.869 120.798 204.569 121.498 206.169 122.198C207.769 122.898 209.469 123.598 210.769 124.098L212.869 124.898C212.869 124.898 213.669 122.398 214.469 119.798C215.269 117.198 216.069 114.798 216.069 114.798L213.669 114.498C212.269 114.298 210.469 113.898 208.569 113.498C206.669 113.098 204.969 112.598 203.569 112.298C202.869 112.098 202.369 111.898 201.969 111.798L201.369 111.598C201.369 111.598 203.869 108.698 206.369 105.698C208.869 102.698 211.169 99.6984 211.169 99.6984C211.169 99.6984 210.769 99.3984 210.169 98.9984C209.569 98.5984 208.769 97.9984 207.969 97.3984L205.769 95.5984C205.169 95.1984 204.869 94.8984 204.569 94.5984ZM227.169 145.098V144.498L226.869 144.698L227.169 145.098ZM227.169 130.698V128.898L226.369 130.298L227.169 130.698ZM176.669 0.998438H168.069L171.369 5.39844L176.669 0.998438ZM152.169 6.19844C154.569 7.39844 156.969 8.69844 156.969 8.69844L159.769 1.19844L159.869 0.898438H148.969L147.369 3.79844C147.369 3.79844 149.769 4.99844 152.169 6.19844ZM171.369 41.2984L185.969 39.0984L182.169 45.6984C180.269 48.9984 178.469 52.3984 178.469 52.3984L183.569 55.1984C186.169 56.5984 188.769 57.9984 188.769 57.9984C188.769 57.9984 189.869 53.9984 191.169 50.1984C192.469 46.3984 193.769 42.4984 193.769 42.4984C193.769 42.4984 196.069 45.3984 198.369 48.2984C200.669 51.1984 203.169 53.9984 203.169 53.9984L211.069 46.2984C211.069 46.2984 210.269 45.6984 209.069 44.7984C207.869 43.8984 206.269 42.5984 204.669 41.2984C201.469 38.6984 198.369 35.9984 198.369 35.9984L212.669 28.5984L209.669 24.0984L206.669 19.4984L194.169 29.5984L189.569 13.7984L179.469 17.9984L186.269 31.0984L170.169 29.7984C170.169 29.7984 170.469 32.6984 170.769 35.5984C171.069 38.4984 171.369 41.2984 171.369 41.2984ZM222.869 61.9984C222.269 60.6984 221.869 59.7984 221.869 59.7984L217.269 62.7984L212.669 65.6984C212.669 65.6984 213.169 66.4984 214.069 67.4984C214.969 68.4984 216.069 70.0984 217.269 71.4984C218.469 72.8984 219.669 74.3984 220.669 75.3984C221.669 76.3984 222.269 77.0984 222.269 77.0984L219.769 77.4984C218.269 77.7984 216.169 78.0984 214.169 78.2984C212.169 78.4984 210.069 78.6984 208.469 78.8984L205.869 79.0984C205.869 79.0984 206.069 79.8984 206.469 80.9984C206.869 82.0984 207.469 83.5984 208.069 85.0984C208.669 86.5984 209.369 88.0984 209.869 89.1984L210.769 91.0984C210.769 91.0984 214.269 89.7984 217.869 88.2984C221.469 86.7984 224.669 85.0984 224.669 85.0984C224.669 85.0984 224.569 86.0984 224.269 87.4984C223.969 88.8984 223.869 90.7984 223.669 92.7984C223.469 94.7984 223.369 96.7984 223.369 98.2984C223.369 99.7984 223.369 100.798 223.369 100.798C223.369 100.798 224.269 100.898 225.469 101.098C225.969 101.198 226.569 101.298 227.169 101.398V69.9984C226.569 68.9984 225.969 67.8984 225.369 66.7984C224.369 64.9984 223.469 63.2984 222.869 61.9984ZM218.069 4.09844C218.069 4.09844 216.069 7.49844 214.169 10.9984L210.269 17.9984L215.569 20.8984L220.969 23.7984C220.969 23.7984 222.069 19.6984 223.469 15.6984C224.869 11.6984 226.169 7.69844 226.169 7.69844L227.269 9.09844V0.998438H202.469C202.769 3.79844 203.069 6.39844 203.069 6.39844L218.069 4.09844Z" fill="#2C2C2C"/>
</svg>
