<svg width="228" height="227" viewBox="0 0 228 227" fill="none" xmlns="http://www.w3.org/2000/svg">
<path d="M226.669 210.4C226.869 211.7 226.969 213 227.169 214.4V226.8H211.269C210.969 222.3 210.469 217.5 209.869 212.5C209.169 207.1 208.569 201.4 208.269 195.9L225.269 195.1C225.369 200 225.969 205 226.669 210.4ZM212.069 170.2C210.169 174.4 208.969 178.9 208.469 183.5L225.369 185.5C225.669 183 226.269 180.6 227.169 178.3V152.7L222.769 150.2C219.469 155.9 215.669 162.7 212.069 170.2ZM197.069 192.9L180.069 194C180.369 199.2 181.069 204.5 181.669 209.6C182.269 214.4 182.769 221.4 183.169 226.8H200.169C199.869 220.7 199.169 212.7 198.569 207.5C197.969 202.4 197.369 197.6 197.069 192.9ZM182.569 162.8C180.269 167.7 178.969 173.2 178.469 179.6L195.469 180.8C195.769 176.5 196.569 172.9 197.969 170C200.269 165.1 202.969 160 206.469 153.9L191.669 145.5C187.969 152 185.069 157.5 182.569 162.8ZM202.169 127.4L197.169 135.9L211.869 144.5L216.869 135.9C220.469 129.8 224.069 123.5 227.069 116.7V114L212.369 107.9C209.669 114.4 206.069 120.7 202.169 127.4ZM216.269 97.5L227.069 102V74.8C225.669 78 223.969 81.4 222.169 84.9C220.169 89.1 218.069 93.3 216.269 97.5ZM166.669 186.7L149.669 188C150.069 193 150.669 198.1 151.269 203C152.069 209.2 152.769 215.1 152.969 220.6L169.969 219.9C169.669 213.6 168.869 207.2 168.069 200.9C167.569 196.2 166.969 191.3 166.669 186.7ZM153.069 155.4C150.369 161 148.969 167.5 148.669 175.3L165.669 176C165.869 170.6 166.769 166.2 168.469 162.7C170.469 158.5 172.869 154 175.569 148.9L160.669 140.6C157.769 145.9 155.269 150.8 153.069 155.4ZM173.769 118.2L172.869 119.8C171.569 122 170.269 124.3 168.969 126.5L166.369 130.9L181.069 139.5L183.669 135.1C184.969 132.8 186.369 130.6 187.669 128.3L188.569 126.7C191.669 121.4 194.869 115.8 197.669 110.1L182.369 102.6C179.769 107.8 176.869 112.8 173.769 118.2ZM195.069 73.2C192.069 79.2 188.869 85.4 186.769 91.7C186.569 92.3 186.369 92.8 186.169 93.4L202.169 99.2C202.369 98.5 202.669 97.8 202.869 97.1C204.569 92 207.269 86.6 210.169 80.9C212.069 77.2 213.969 73.4 215.669 69.5L200.069 62.7C198.669 66 196.969 69.5 195.069 73.2ZM205.369 51.7L219.869 60.5C221.969 57.2 224.369 54.2 227.169 51.4V28.3C219.069 35.3 210.869 42.5 205.369 51.7ZM122.669 224.9C122.569 225.5 122.569 226.1 122.469 226.7H139.569C139.569 226.6 139.569 226.4 139.569 226.3L122.669 224.9ZM152.069 224.9C151.969 225.5 151.969 226.1 151.869 226.7H168.969C168.969 226.6 168.969 226.4 168.969 226.3L152.069 224.9ZM136.969 182.4L120.069 183.8C120.469 188.7 121.069 193.8 121.669 198.7C122.469 205 123.169 210.9 123.469 216.6L140.469 215.7C140.169 209.4 139.369 202.9 138.569 196.6C137.969 191.9 137.369 187 136.969 182.4ZM123.569 147.9C120.569 154.2 119.069 161.5 118.869 170.4L135.869 170.7C135.969 164.3 136.969 159.2 138.869 155.2C140.669 151.5 142.569 147.7 144.869 143.5L129.969 135.3C127.569 139.9 125.469 144 123.569 147.9ZM155.069 125.9L160.069 117.5C162.469 113.4 164.769 109.4 167.069 105.2L152.069 97.2C149.969 101.2 147.669 105 145.369 108.9L140.469 117.3C138.869 120.1 137.169 122.8 135.569 125.6L150.269 134.1C151.869 131.4 153.469 128.6 155.069 125.9ZM175.369 86.1C177.169 80.7 179.969 75 183.069 69.1L185.269 64.7L170.069 57.1L167.969 61.4C164.769 67.7 161.469 74.2 159.369 80.8C158.569 83.1 157.769 85.4 156.669 87.8L172.269 94.6C173.369 91.7 174.469 88.9 175.369 86.1ZM174.369 47.7L190.169 54L190.669 52.8C193.769 44.7 200.769 37.7 208.069 31.3L196.769 18.6C187.969 26.4 179.169 35.3 174.769 46.9L174.369 47.7ZM209.869 7.1C208.369 8.5 206.769 9.8 205.169 11.2L216.269 24.1C217.969 22.6 219.669 21.2 221.269 19.7C223.269 17.9 225.269 16.1 227.169 14.2V0H217.369C214.969 2.4 212.369 4.8 209.869 7.1ZM93.2687 219.9C93.1687 222.2 92.8687 224.5 92.3687 226.8H109.669C109.969 224.9 110.169 223 110.269 220.9L93.2687 219.9ZM105.869 177.1L88.8687 178.5C89.2687 183.5 89.9686 188.6 90.5686 193.5C91.3686 199.7 92.0687 205.6 92.4687 211.3L109.469 210.3C109.069 204 108.269 197.6 107.469 191.4C106.869 186.7 106.169 181.8 105.869 177.1ZM94.0686 140.5C90.8686 147.3 89.2687 155.4 89.1687 165.2L106.169 165.3C106.269 158 107.269 152.3 109.469 147.8C111.069 144.4 112.769 141.1 114.569 137.9L99.5686 129.9C97.5686 133.4 95.7686 136.9 94.0686 140.5ZM126.069 117.5C127.569 114.9 129.169 112.3 130.669 109.7L131.569 108.2C133.169 105.4 134.869 102.6 136.469 99.7L121.669 91.4C120.069 94.2 118.469 96.9 116.869 99.6L115.969 101.1C114.469 103.7 112.969 106.2 111.469 108.8C109.269 112.5 107.069 116.2 104.969 119.9L119.669 128.4C121.869 124.8 123.969 121.2 126.069 117.5ZM147.869 75.2C149.569 70 152.369 64.4 154.969 59.2L139.769 51.5C136.769 57.3 133.769 63.6 131.669 69.9C130.269 74.1 128.569 78.1 126.669 82.1L141.969 89.6C144.169 84.9 146.169 80.1 147.869 75.2ZM163.869 40.2C165.869 34.9 169.669 29.6 175.669 23.6L163.669 11.6C155.869 19.4 150.869 26.6 147.969 34.3C147.169 36.5 146.069 39 144.669 41.9L159.969 49.2C161.569 45.7 162.869 42.9 163.869 40.2ZM183.369 16.4C185.069 14.9 186.769 13.4 188.469 12C191.069 9.8 193.669 7.6 196.169 5.3C197.969 3.8 199.869 2 201.969 0H176.369C174.969 1.2 173.569 2.4 172.169 3.6L183.369 16.4ZM63.7687 214.5C63.6687 218.7 63.0687 222.8 61.9687 226.8H79.4687C80.2687 222.9 80.6687 219 80.7687 215L63.7687 214.5ZM77.6687 171.4L60.6687 172.9C61.1687 178.1 61.7687 183.3 62.4687 188.4C63.2687 194.5 63.9687 200.2 64.3687 205.8L81.3687 204.6C80.9687 198.5 80.1687 192.3 79.3687 186.3C78.6687 181.4 78.0687 176.3 77.6687 171.4ZM66.5686 133.2C63.0686 140.4 63.4687 149.1 63.4687 159.6V159.7L78.5686 159.6C78.5686 151.6 77.7686 145.4 80.0686 140.5C81.4686 137.6 83.1686 134.8 84.5686 132L70.0686 124.1C68.5686 127 68.0686 130 66.5686 133.2ZM87.5686 91.9C85.9686 94.6 84.3687 97.3 82.7687 100C79.9687 104.7 77.2687 109.3 74.4687 114.1L89.2687 122.5C91.9687 117.8 94.6687 113.2 97.3687 108.6C98.9687 105.9 100.569 103.1 102.169 100.4L105.969 93.8L91.3687 85.4L87.5686 91.9ZM120.269 64.4C121.569 60.6 123.169 56.8 124.969 53.2L109.669 45.8C107.569 50.1 105.669 54.5 104.169 59C102.169 64.9 99.6687 70.6 96.7687 76L111.769 83.9C115.069 77.7 117.969 71.1 120.269 64.4ZM137.069 27.6C138.569 23.7 140.869 19.9 144.269 15.8L131.169 4.9C126.569 10.4 123.369 15.9 121.169 21.5C119.469 26.1 116.969 31 114.669 35.7L129.869 43.4C132.369 38.4 134.969 33 137.069 27.6ZM160.569 0H143.069L151.169 8.4C154.069 5.6 157.369 2.8 160.569 0ZM34.3687 208.8C34.3687 215.7 33.3687 221.3 31.5687 225.9C31.4687 226.2 31.2687 226.5 31.1687 226.8H49.0687C50.5687 221 51.2687 214.9 51.2687 208.9L34.3687 208.8ZM47.9687 165.5L30.9687 167C31.4687 172.4 32.1687 178 32.7687 183.4C33.4687 188.9 34.1687 194.7 34.6687 200.1L51.6687 198.7C51.1687 192.9 50.4687 187 49.7687 181.3C49.0687 176 48.3687 170.6 47.9687 165.5ZM34.8687 125.9C31.2687 133.4 29.4687 142.6 29.4687 153.5H48.3687C48.3687 145.6 48.6687 138.4 51.1687 133.3C52.3687 130.8 52.6687 128.3 53.9687 125.9L38.8687 118C37.4687 120.6 36.1687 123.2 34.8687 125.9ZM73.8687 91.2L75.8687 87.8L61.1687 79.2L59.1687 82.6C57.5687 85.3 55.9687 88 54.3687 90.7C50.9687 96.4 47.5687 102.1 44.2687 107.9L59.0687 116.2C62.2687 110.5 65.6687 104.9 68.9687 99.3C70.6687 96.7 72.2687 94 73.8687 91.2ZM92.6687 53.5C93.3687 51.5 94.1687 49.3 95.2687 46.9L79.6687 40.1C78.3687 43 77.3686 45.6 76.5686 48.1C74.4686 54.6 71.3687 61.3 66.6687 69.7L81.4687 78C86.7687 68.6 90.1687 61 92.6687 53.5ZM86.4687 25.9L84.5686 29.7L99.7687 37.3L101.669 33.6C104.769 27.5 107.969 21.2 110.269 15C111.169 12.6 112.369 10.3 113.769 8.1L101.069 0H98.7687C97.0687 2.8 95.5687 5.8 94.3687 8.9C92.3687 14.3 89.4687 19.9 86.4687 25.9ZM124.069 0H114.469L119.569 4.6C121.069 3 122.569 1.5 124.069 0ZM21.8687 202.4L4.86865 202.6V204.2C4.86865 211.8 3.86865 217.9 1.96865 222.9C1.46865 224.1 0.968652 225.3 0.368652 226.5V226.8H18.5687C20.7687 220.4 21.8687 213 21.8687 204.3V202.4ZM17.4687 159.2L0.468652 160.6C0.968652 166.4 1.66865 172.4 2.46865 178.2C3.16865 183.4 3.76865 188.7 4.26865 193.8L21.1687 192.3C20.6687 186.9 19.9687 181.4 19.2687 176.1C18.6687 170.4 17.8687 164.7 17.4687 159.2ZM14.9687 146.8C14.9687 139.5 16.5687 132.3 19.7687 125.7C20.7687 123.6 22.7687 121.4 23.8687 119.4L8.66865 111.6C7.46865 113.8 6.16865 116.1 5.06865 118.4C2.86865 123.1 1.26865 128.1 0.368652 133.2V146.7H14.9687V146.8ZM45.5687 81.9L45.9687 81.3L31.3687 72.7L30.9687 73.4C29.2687 76.3 27.4687 79.3 25.7687 82.2C22.0687 88.5 18.1687 94.9 14.4687 101.6L29.2687 109.9C32.8687 103.5 36.6687 97.1 40.3687 91C41.9687 87.9 43.6687 84.9 45.5687 81.9ZM51.5687 71.6C56.2687 63.4 61.5687 53.5 65.1687 42.6C65.4687 41.8 65.7687 41 65.9687 40.2L49.9687 34.3C49.5687 35.3 49.2687 36.3 48.8687 37.3C45.7687 46.8 40.9687 55.7 36.6687 63.2L51.5687 71.6ZM54.7687 23.3L70.0686 30.6C71.4686 27.6 72.9687 24.6 74.4687 21.7C77.6687 15.3 81.0687 8.8 83.4687 2.3C83.6687 1.6 83.9687 1 84.2687 0.3L83.4687 0H66.0686C64.1686 4.5 61.7687 9.1 59.2687 14C57.7687 17.1 56.1687 20.2 54.7687 23.3ZM15.9687 74.5L1.36865 65.8L0.368652 67.4V101C3.96865 94.5 7.76865 88.2 11.4687 82L15.9687 74.5ZM36.8687 33.5L20.7687 27.9C17.4687 37.3 12.8687 46.1 6.86865 56.3L21.5687 64.8C27.2687 55.3 32.9687 44.8 36.8687 33.5ZM25.0687 16.9L40.6687 23.8C42.6687 19.3 45.0687 14.5 47.3687 10C49.0687 6.7 50.6687 3.4 52.2687 0.1H33.2687L32.1687 2.3C29.7687 7 27.1687 11.9 25.0687 16.9ZM0.368652 24.1V42.8C3.06865 37.6 5.56865 32.3 7.66865 26.9L0.368652 24.1ZM19.1687 0H0.368652V12.1L11.4687 16.5C13.5687 11.2 16.3687 5.5 19.1687 0Z" fill="#2C2C2C"/>
</svg>
