<svg width="228" height="228" viewBox="0 0 228 228" fill="none" xmlns="http://www.w3.org/2000/svg">
<path d="M4.16865 218.897C3.06865 219.997 1.76865 220.897 0.368652 221.597V202.697C1.96865 203.197 3.46865 204.097 4.66865 205.397C6.86865 207.497 7.86865 209.697 7.66865 211.997C7.46865 214.297 6.46865 216.597 4.16865 218.897ZM21.9687 222.197C21.0687 221.397 20.0687 220.797 18.9687 220.397C17.9687 219.997 16.7687 219.897 15.6687 219.997C13.3687 220.197 11.1687 221.397 8.86865 223.697C7.66865 224.797 6.76865 226.197 6.06865 227.697H24.8687C24.6687 225.397 23.7687 223.797 21.9687 222.197ZM10.7687 160.597C10.8687 158.097 9.76865 155.597 7.46865 153.297C5.26865 151.097 2.76865 149.997 0.368652 150.097V171.797C2.56865 171.397 4.66865 170.197 6.86865 168.097C9.26865 165.597 10.6687 163.097 10.7687 160.597ZM14.1687 189.597C16.7687 191.897 19.6687 192.797 22.3687 192.397C25.1687 191.897 27.2687 190.197 29.1687 187.197C31.0687 184.197 31.7687 181.497 31.6687 179.197C31.5687 176.797 30.5687 174.897 28.4687 173.097C27.4687 172.197 26.3687 171.597 25.1687 171.097C24.0687 170.697 22.8687 170.497 21.6687 170.597C19.1687 170.797 16.7687 172.097 14.2687 174.597C11.7687 177.097 10.5687 179.597 10.4687 182.197C10.4687 183.497 10.7687 184.797 11.3687 185.997C11.9687 187.397 12.9687 188.597 14.1687 189.597ZM51.6687 187.197C48.7687 185.497 45.8687 185.297 43.4687 186.097C41.0687 186.897 39.1687 188.997 37.6687 192.197C36.1687 195.397 35.7687 198.097 36.3687 200.597C36.9687 203.097 38.5687 204.697 41.1687 206.297C43.3687 207.697 46.0687 207.997 48.5687 207.297C50.9687 206.597 53.0687 204.697 54.9687 201.797C56.8687 198.897 57.4687 196.097 56.9687 193.597C56.4687 191.097 54.5687 188.797 51.6687 187.197ZM77.4687 205.097C74.8687 203.197 72.1687 202.597 69.7687 203.197C67.3687 203.797 65.0687 205.497 63.1687 208.497C61.2687 211.497 60.4687 214.097 60.7687 216.597C61.0687 219.097 62.4686 221.197 65.0686 222.997C67.6686 224.797 70.0686 225.297 72.5686 224.797C75.0686 224.297 77.3687 222.597 79.3687 219.697C81.3687 216.797 82.2687 214.197 81.8687 211.597C81.4687 208.997 80.0687 206.897 77.4687 205.097ZM99.2687 220.297C96.7687 218.597 94.2687 217.997 91.7687 218.597C89.2687 219.197 87.0686 220.897 85.0686 223.797C84.2686 224.997 83.5686 226.197 83.0686 227.597H103.669C103.669 227.297 103.669 226.997 103.569 226.697C103.269 224.097 101.769 221.997 99.2687 220.297ZM3.76865 103.097C3.36865 101.597 2.66865 100.197 1.56865 99.0969C1.16865 98.6969 0.768652 98.2969 0.368652 97.9969V113.297C0.668652 112.897 1.06865 112.497 1.36865 111.997C3.56865 108.997 4.46865 105.997 3.76865 103.097ZM23.1687 129.397C25.8687 126.697 27.2687 123.997 27.3687 121.297C27.4687 118.597 26.2687 115.897 23.7687 113.397C21.2687 110.897 18.3687 109.697 15.5687 109.897C12.7687 110.097 10.1687 111.797 7.76865 114.697C5.36865 117.597 4.26865 120.297 4.16865 123.097C4.06865 125.897 5.16865 128.097 7.46865 130.397C9.76865 132.697 12.2687 133.697 15.0687 133.597C17.8687 133.497 20.4687 132.097 23.1687 129.397ZM24.3687 142.997C24.3687 144.397 24.6687 145.897 25.3687 147.097C26.1687 148.597 27.2687 149.897 28.5687 150.997C31.3687 153.497 34.5687 154.497 37.4687 154.097C40.4687 153.597 42.8687 151.697 44.7687 148.497C46.6687 145.297 47.5687 142.297 47.4687 139.797C47.3687 137.197 46.2687 135.197 43.9687 133.197C42.8687 132.297 41.6687 131.497 40.3687 130.997C39.1687 130.597 37.8687 130.397 36.5687 130.497C33.8687 130.697 31.1687 132.197 28.5687 134.897C25.9687 137.597 24.4687 140.197 24.3687 142.997ZM70.0686 162.297C72.0686 159.097 72.7687 156.097 72.2687 153.397C71.7687 150.697 69.7686 148.397 66.5686 146.597C63.4686 144.697 60.2687 144.497 57.7687 145.397C55.2687 146.297 53.0687 148.597 51.4687 151.997C49.8687 155.397 49.4687 158.397 50.0687 161.097C50.6687 163.797 52.4687 165.597 55.1687 167.197C57.5687 168.697 60.4687 169.097 63.1687 168.197C65.7687 167.497 68.0686 165.497 70.0686 162.297ZM91.9687 162.697C89.1687 160.697 86.2686 159.997 83.5686 160.597C80.8686 161.197 78.5687 163.197 76.4687 166.297C74.3687 169.397 73.5687 172.397 73.8687 175.097C74.1687 177.797 75.7687 179.997 78.4687 181.997C81.1687 183.997 83.8686 184.497 86.5686 183.897C89.2686 183.297 91.6687 181.497 93.8687 178.397C96.0687 175.297 96.9687 172.397 96.6687 169.697C96.3687 166.997 94.7687 164.697 91.9687 162.697ZM115.469 179.097C112.669 177.297 109.969 176.597 107.369 177.197C104.769 177.797 102.369 179.697 100.169 182.797C97.9687 185.897 97.0687 188.797 97.4687 191.497C97.8687 194.197 99.4687 196.597 102.369 198.597C105.269 200.597 108.069 201.197 110.669 200.497C113.269 199.797 115.669 197.897 117.769 194.797C119.869 191.697 120.669 188.697 120.269 185.897C119.869 183.097 118.169 180.897 115.469 179.097ZM140.969 197.797C138.069 195.797 135.269 195.097 132.669 195.697C129.969 196.297 127.569 198.197 125.469 201.397C123.369 204.597 122.469 207.397 122.869 210.197C123.269 212.997 124.769 215.197 127.569 217.097C130.369 218.997 132.969 219.597 135.769 218.997C138.569 218.397 140.969 216.597 143.169 213.497C145.369 210.397 146.269 207.597 145.969 204.797C145.669 201.997 143.769 199.697 140.969 197.797ZM172.069 225.397C171.869 222.697 170.369 220.197 167.569 218.097C164.769 215.997 162.069 215.097 159.369 215.597C156.669 216.097 154.269 217.897 151.969 220.897C150.269 223.197 149.369 225.397 149.069 227.497H171.969C172.169 226.797 172.169 226.097 172.069 225.397ZM9.66865 64.0969C11.9687 60.7969 13.0687 57.5969 12.2687 54.4969C11.8687 52.8969 11.0687 51.3969 9.96865 50.1969C8.76865 48.8969 7.06865 47.7969 5.06865 46.7969C3.56865 46.0969 2.06865 45.6969 0.368652 45.3969V70.6969C0.968652 70.5969 1.56865 70.3969 2.16865 70.1969C4.76865 69.2969 7.36865 67.3969 9.66865 64.0969ZM23.8687 89.1969C26.8687 89.0969 29.7687 87.5969 32.6687 84.6969C35.5687 81.7969 37.0687 78.9969 37.2687 75.9969C37.4687 73.0969 36.1687 70.1969 33.3687 67.4969C30.5687 64.7969 27.4687 63.4969 24.4687 63.6969C21.4687 63.8969 18.6687 65.6969 16.0687 68.8969C13.4687 72.0969 12.2687 74.9969 12.1687 77.8969C12.0687 80.7969 13.2687 83.2969 15.7687 85.6969C18.2687 88.0969 20.8687 89.2969 23.8687 89.1969ZM38.3687 107.797C41.3687 110.497 44.8687 111.597 47.8687 111.097C51.0687 110.597 53.6687 108.497 55.7687 105.097C57.8687 101.697 58.7687 98.4969 58.6687 95.7969C58.4687 92.9969 57.3687 90.7969 54.8687 88.6969C53.7687 87.6969 52.4687 86.8969 51.0687 86.3969C49.7687 85.8969 48.3687 85.6969 46.9687 85.7969C44.0687 85.9969 41.1687 87.5969 38.3687 90.4969C35.5687 93.3969 34.0687 96.2969 33.9687 99.2969C33.9687 100.797 34.2687 102.397 35.0687 103.697C35.7687 105.197 36.9687 106.697 38.3687 107.797ZM62.8687 108.897C61.1687 112.597 60.6687 115.797 61.3687 118.597C62.0687 121.497 63.9687 123.397 66.8687 125.197C69.4687 126.797 72.5687 127.197 75.4687 126.297C78.2687 125.397 80.7687 123.297 82.8687 119.897C84.9687 116.497 85.7687 113.197 85.1687 110.297C84.5687 107.397 82.4686 104.997 79.0686 102.997C75.6686 100.997 72.3687 100.797 69.6687 101.797C66.9687 102.797 64.5687 105.197 62.8687 108.897ZM91.8687 141.097C94.7687 143.097 97.6686 143.797 100.569 143.197C103.469 142.597 106.069 140.597 108.469 137.297C110.869 133.997 111.769 130.797 111.469 127.897C111.169 124.997 109.369 122.397 106.369 120.297C103.369 118.197 100.169 117.397 97.3687 118.097C94.5687 118.797 91.9687 120.797 89.6687 124.297C87.3687 127.797 86.5687 130.797 86.9687 133.797C87.3687 136.797 88.9687 138.997 91.8687 141.097ZM122.869 135.897C120.069 136.597 117.469 138.597 115.069 141.897C112.769 145.197 111.769 148.297 112.169 151.297C112.569 154.297 114.269 156.797 117.469 158.897C120.669 160.997 123.569 161.697 126.369 160.897C129.169 160.197 131.769 158.097 133.969 154.797C136.169 151.497 137.169 148.197 136.669 145.297C136.169 142.397 134.469 139.797 131.569 137.897C128.669 135.997 125.669 135.197 122.869 135.897ZM157.269 155.497C154.169 153.397 151.169 152.597 148.269 153.297C145.369 153.997 142.869 155.997 140.569 159.397C138.269 162.797 137.369 165.897 137.769 168.797C138.169 171.697 139.769 174.197 142.769 176.297C145.769 178.397 148.669 178.997 151.569 178.297C154.469 177.597 157.169 175.697 159.469 172.397C161.769 169.097 162.869 165.997 162.469 163.097C162.069 160.197 160.369 157.597 157.269 155.497ZM187.469 181.897C187.169 178.897 185.569 176.297 182.669 174.097C179.769 171.897 176.769 170.897 173.869 171.397C170.969 171.897 168.369 173.797 165.869 177.197C163.369 180.597 162.369 183.597 162.669 186.597C162.969 189.597 164.469 192.097 167.269 194.297C170.069 196.497 172.969 197.297 175.869 196.697C178.769 196.097 181.569 194.297 184.069 191.097C186.569 187.897 187.769 184.797 187.469 181.897ZM198.669 190.497C195.669 190.997 192.969 192.797 190.369 195.997C187.769 199.197 186.669 202.197 186.869 205.097C187.069 207.997 188.369 210.697 191.169 213.097C193.969 215.497 196.669 216.397 199.569 215.997C202.469 215.597 205.269 213.897 207.969 210.797C210.669 207.697 211.869 204.697 211.769 201.697C211.669 198.697 210.169 195.997 207.369 193.597C204.569 191.197 201.669 189.897 198.669 190.497ZM222.469 210.897C219.569 211.197 216.669 212.897 214.069 215.997C211.469 219.097 210.069 222.097 210.169 224.997C210.169 225.897 210.269 226.697 210.569 227.597H227.269V211.597C225.669 210.997 224.069 210.697 222.469 210.897ZM5.36865 25.1969C6.76865 25.2969 8.16865 25.0969 9.46865 24.5969C12.3687 23.5969 15.0687 21.4969 17.5687 17.9969C20.0687 14.4969 21.1687 10.9969 20.3687 7.69688C19.8687 5.99688 19.0687 4.39687 17.8687 3.09687C17.0687 2.19687 16.0687 1.39688 15.0687 0.796875H0.368652V23.5969L1.36865 24.1969C2.66865 24.7969 4.06865 25.0969 5.36865 25.1969ZM32.7687 44.7969C35.9687 44.6969 39.0687 43.0969 42.1687 39.9969C45.2687 36.9969 46.8687 33.7969 47.0687 30.5969C47.2687 27.3969 45.8687 24.3969 42.9687 21.4969C40.0687 18.5969 36.6687 17.1969 33.4687 17.4969C30.2687 17.7969 27.1687 19.5969 24.4687 22.9969C21.7687 26.3969 20.3687 29.4969 20.2687 32.5969C20.1687 35.6969 21.4687 38.3969 24.0687 40.9969C26.6687 43.5969 29.5687 44.8969 32.7687 44.7969ZM44.5687 60.1969C45.4687 61.8969 46.7687 63.4969 48.2687 64.6969C51.4687 67.4969 55.1687 68.6969 58.4687 68.1969C61.9687 67.5969 64.6687 65.3969 66.9687 61.6969C69.2687 57.9969 70.1686 54.5969 70.0686 51.6969C69.8686 48.6969 68.6686 46.3969 66.0686 44.0969C64.8686 42.9969 63.4687 42.1969 61.9687 41.5969C60.3687 40.9969 58.8687 40.7969 57.3687 40.8969C54.2687 41.0969 51.1687 42.7969 48.0687 45.8969C44.9687 48.9969 43.4687 52.0969 43.3687 55.3969C43.3687 57.0969 43.7687 58.6969 44.5687 60.1969ZM78.6687 83.2969C81.7687 85.0969 84.8687 85.3969 87.8687 84.4969C90.8687 83.5969 93.5687 81.2969 95.7687 77.5969C97.9687 73.8969 98.9687 70.4969 98.2687 67.2969C97.5687 64.0969 95.3687 61.5969 91.7687 59.4969C88.1687 57.2969 84.5686 57.0969 81.5686 58.0969C78.5686 59.0969 76.1687 61.7969 74.3687 65.7969C72.5687 69.7969 72.0687 73.1969 72.7687 76.1969C73.4687 79.1969 75.4687 81.3969 78.6687 83.2969ZM99.9687 92.2969C100.369 95.3969 102.169 97.9969 105.269 100.197C108.369 102.397 111.469 103.097 114.669 102.397C117.869 101.697 120.569 99.5969 123.069 96.0969C125.569 92.5969 126.669 89.1969 126.269 85.9969C125.869 82.7969 124.069 80.0969 120.769 77.8969C117.469 75.6969 114.169 74.7969 111.069 75.4969C107.969 76.1969 105.269 78.3969 102.869 82.0969C100.469 85.7969 99.5687 89.0969 99.9687 92.2969ZM132.569 119.197C135.969 121.497 139.069 122.197 142.169 121.397C145.269 120.597 147.969 118.397 150.369 114.797C152.769 111.197 153.769 107.797 153.269 104.597C152.769 101.397 150.869 98.6969 147.769 96.6969C144.669 94.6969 141.469 93.7969 138.469 94.4969C135.469 95.1969 132.669 97.3969 130.069 100.997C127.469 104.597 126.569 107.897 126.969 111.097C127.369 114.297 129.169 116.897 132.569 119.197ZM159.569 137.697C162.669 139.897 165.869 140.597 168.969 139.797C172.069 138.997 174.969 136.997 177.469 133.397C179.969 129.797 181.069 126.497 180.669 123.397C180.269 120.297 178.369 117.597 175.069 115.297C171.769 112.997 168.569 112.197 165.469 112.897C162.369 113.597 159.669 115.797 157.169 119.397C154.669 122.997 153.769 126.397 154.169 129.497C154.569 132.597 156.369 135.497 159.569 137.697ZM192.769 132.397C189.669 132.997 186.869 134.997 184.269 138.597C181.669 142.197 180.569 145.397 180.769 148.597C180.969 151.797 182.669 154.497 185.769 156.897C188.869 159.297 191.869 160.097 194.969 159.497C198.069 158.897 201.069 156.897 203.669 153.497C206.269 150.097 207.569 146.797 207.269 143.597C206.969 140.397 205.269 137.597 202.069 135.197C198.869 132.797 195.869 131.797 192.769 132.397ZM219.269 152.797C216.069 153.297 213.169 155.297 210.369 158.697C207.569 162.097 206.369 165.297 206.569 168.497C206.769 171.697 208.169 174.497 211.169 176.997C214.069 179.497 217.069 180.497 220.169 180.097C222.569 179.797 224.869 178.597 227.069 176.697V154.997C224.569 153.097 221.969 152.297 219.269 152.797ZM45.0687 12.8969C46.0687 14.6969 47.3687 16.3969 48.9687 17.6969C52.3687 20.6969 56.3687 21.9969 59.8687 21.4969C63.5687 20.8969 66.4687 18.4969 68.8687 14.5969C71.2687 10.6969 72.3687 6.99687 72.1687 3.89687C72.0687 2.79687 71.8686 1.79688 71.5686 0.796875H46.2687C44.7687 2.89687 43.8687 5.29688 43.7687 7.89687C43.7687 9.59687 44.1687 11.3969 45.0687 12.8969ZM82.8687 36.7969C86.2687 38.6969 89.4687 38.9969 92.6687 38.0969C95.8687 37.1969 98.6687 34.6969 101.169 30.6969C103.669 26.6969 104.569 23.0969 103.869 19.6969C103.169 16.2969 100.769 13.5969 96.8687 11.3969C92.9687 9.09688 89.0687 8.79688 85.9687 9.89688C82.8687 10.9969 80.1687 13.7969 78.1687 18.0969C76.1687 22.3969 75.6687 25.9969 76.4687 29.1969C77.2687 32.3969 79.4687 34.6969 82.8687 36.7969ZM111.969 54.7969C115.269 57.0969 118.569 57.8969 121.969 57.1969C125.369 56.4969 128.269 54.1969 130.969 50.3969C133.669 46.5969 134.769 42.9969 134.369 39.6969C133.969 36.3969 131.969 33.3969 128.469 30.9969C124.969 28.5969 121.469 27.6969 118.169 28.4969C114.869 29.2969 111.969 31.5969 109.369 35.4969C106.769 39.3969 105.769 42.9969 106.269 46.2969C106.769 49.5969 108.569 52.2969 111.969 54.7969ZM143.169 77.1969C146.769 79.5969 150.169 80.3969 153.369 79.4969C156.669 78.6969 159.569 76.2969 162.069 72.4969C164.569 68.6969 165.669 64.9969 165.169 61.5969C164.669 58.1969 162.669 55.2969 159.369 53.0969C155.969 50.8969 152.669 50.0969 149.469 50.7969C146.269 51.4969 143.269 53.8969 140.569 57.6969C137.869 61.4969 136.769 65.0969 137.269 68.4969C137.769 71.8969 139.569 74.7969 143.169 77.1969ZM180.569 72.0969C177.269 72.8969 174.369 75.1969 171.769 79.0969C169.169 82.9969 168.069 86.4969 168.569 89.8969C169.069 93.2969 170.869 96.0969 174.269 98.3969C177.669 100.697 180.969 101.497 184.269 100.697C187.569 99.8969 190.669 97.6969 193.369 93.8969C196.069 90.0969 197.269 86.5969 196.769 83.1969C196.269 79.7969 194.369 76.9969 190.869 74.5969C187.369 72.1969 183.769 71.2969 180.569 72.0969ZM221.869 96.3969C218.469 93.7969 215.069 92.7969 211.769 93.3969C208.469 93.9969 205.469 96.1969 202.669 99.9969C199.869 103.797 198.669 107.297 198.969 110.697C199.269 114.097 200.969 116.997 204.269 119.597C207.569 122.197 210.769 122.997 214.169 122.397C217.569 121.797 220.669 119.697 223.469 115.997C225.469 113.397 226.669 110.997 227.169 108.597V104.297C226.569 101.297 224.769 98.6969 221.869 96.3969ZM222.269 131.797C222.469 135.097 223.969 138.197 227.169 140.897V120.297C226.869 120.597 226.569 120.997 226.269 121.297C223.369 124.997 222.069 128.397 222.269 131.797ZM97.9687 3.49688C101.569 5.59687 104.969 5.89687 108.369 4.89687C110.769 4.09687 112.869 2.69687 114.569 0.796875H94.2687C95.3687 1.79688 96.6687 2.69688 97.9687 3.49688ZM126.069 9.39688C126.569 12.9969 128.469 15.7969 132.169 18.3969C135.669 20.8969 139.269 21.6969 142.769 20.8969C146.269 20.0969 149.469 17.6969 152.369 13.6969C155.269 9.69687 156.369 5.79688 155.969 2.29688C155.869 1.79688 155.769 1.29688 155.669 0.796875H127.769C126.269 3.79688 125.769 6.69688 126.069 9.39688ZM162.869 39.7969C166.669 42.2969 170.269 43.1969 173.669 42.2969C177.169 41.3969 180.269 38.9969 182.969 34.7969C185.669 30.5969 186.769 26.7969 186.269 23.1969C185.769 19.5969 183.569 16.5969 180.069 14.1969C176.469 11.7969 172.969 10.9969 169.469 11.6969C165.969 12.3969 162.869 14.8969 159.969 18.9969C157.069 23.0969 155.969 26.7969 156.469 30.3969C156.969 33.9969 158.969 37.1969 162.869 39.7969ZM193.269 60.5969C196.869 63.0969 200.369 63.8969 203.969 62.9969C207.569 62.0969 210.769 59.7969 213.669 55.7969C216.569 51.7969 217.769 47.9969 217.269 44.4969C216.769 40.9969 214.669 37.8969 210.969 35.2969C207.269 32.6969 203.569 31.7969 200.069 32.5969C196.569 33.3969 193.469 35.8969 190.669 39.9969C187.869 44.0969 186.769 47.8969 187.269 51.4969C187.769 55.0969 189.669 58.0969 193.269 60.5969ZM221.069 61.3969C218.169 65.3969 216.869 69.0969 217.169 72.7969C217.469 76.4969 219.369 79.4969 222.769 82.1969C224.069 83.1969 225.569 84.0969 227.169 84.5969V55.6969C224.969 56.8969 222.969 58.7969 221.069 61.3969ZM177.969 4.19688C181.969 6.89688 185.769 7.79688 189.469 6.79688C192.569 5.99687 195.369 3.99688 197.969 0.796875H174.069C175.169 2.09687 176.469 3.29688 177.969 4.19688ZM203.669 12.3969C204.169 16.1969 206.269 19.3969 210.069 21.9969C213.869 24.5969 217.569 25.3969 221.369 24.5969C223.469 24.0969 225.469 23.0969 227.169 21.6969V0.796875H206.969C204.269 4.89687 203.169 8.79688 203.669 12.3969Z" fill="#2C2C2C"/>
</svg>
