<svg width="46" height="46" viewBox="0 0 46 46" fill="none" xmlns="http://www.w3.org/2000/svg">
<g clip-path="url(#clip0_777_9942)">
<rect width="46" height="46" fill="white"/>
<path d="M46.4502 -0.549805H-0.549805V46.4502H46.4502V-0.549805Z" fill="#2C2C2C"/>
<path d="M0.849804 32.7502C0.849804 32.7502 0.849805 32.6502 0.749805 32.4502C0.649805 32.2502 0.549806 32.0502 0.449806 31.8502C0.249806 31.4502 0.0498047 30.9502 0.0498047 30.9502C0.0498047 30.9502 -0.150195 30.9502 -0.450195 30.9502V32.6502C-0.350195 32.6502 -0.350195 32.6502 -0.250195 32.6502C0.349805 32.7502 0.849804 32.7502 0.849804 32.7502Z" fill="#FDFBF9"/>
<path d="M1.4502 36.0502C1.4502 36.0502 0.650195 36.0502 -0.549805 35.9502V37.5502C0.950195 37.6502 2.15019 37.7502 2.15019 37.7502L1.4502 36.0502Z" fill="#FDFBF9"/>
<path d="M4.35019 42.6501C4.35019 42.6501 4.1502 42.2501 3.9502 41.8501C3.8502 41.6501 3.75019 41.4501 3.65019 41.3501C3.55019 41.1501 3.55019 41.05 3.55019 41.05C3.55019 41.05 1.65019 40.9501 -0.249805 40.8501C-0.349805 40.8501 -0.449805 40.8501 -0.549805 40.8501V42.4501C-0.249805 42.4501 0.150194 42.4501 0.550194 42.4501C2.45019 42.6501 4.35019 42.6501 4.35019 42.6501Z" fill="#FDFBF9"/>
<path d="M5.55019 46.3502C5.75019 46.3502 5.85019 46.3502 5.85019 46.3502C5.85019 46.3502 5.75019 46.2502 5.75019 46.1502C5.65019 46.0502 5.5502 45.8502 5.4502 45.6502C5.2502 45.2502 5.05019 44.9502 5.05019 44.9502C5.05019 44.9502 4.55019 44.9502 3.85019 45.0502C3.15019 45.0502 2.25019 45.1502 1.25019 45.1502C0.650195 45.1502 0.0501953 45.1502 -0.549805 45.1502V46.6502H3.9502C4.1502 46.6502 4.45019 46.6502 4.65019 46.5502C5.05019 46.3502 5.35019 46.3502 5.55019 46.3502Z" fill="#FDFBF9"/>
<path d="M1.4502 13.45C1.4502 13.45 1.35019 13.35 1.25019 13.15C1.15019 12.95 0.950195 12.75 0.750195 12.55C0.350195 12.15 -0.0498047 11.75 -0.0498047 11.75C-0.0498047 11.75 -0.249805 11.75 -0.549805 11.85V13.75C-0.249805 13.65 -0.0498077 13.65 0.150192 13.55C0.950192 13.55 1.4502 13.45 1.4502 13.45Z" fill="#FDFBF9"/>
<path d="M5.0498 18.6501C5.0498 18.6501 4.7498 18.2501 4.5498 17.7501C4.4498 17.5501 4.2498 17.3501 4.1498 17.1501C4.0498 16.9501 3.94981 16.8501 3.94981 16.8501C3.94981 16.8501 1.84981 16.9501 -0.0501938 17.3501C-0.150194 17.3501 -0.350195 17.3501 -0.450195 17.4501V19.1501C0.0498047 19.0501 0.549805 19.0501 1.0498 18.9501C2.9498 18.6501 5.0498 18.6501 5.0498 18.6501Z" fill="#FDFBF9"/>
<path d="M1.0498 23.85C1.7498 23.85 2.74981 23.85 3.74981 23.85C4.74981 23.85 5.74981 23.85 6.44981 23.95C7.24981 23.95 7.74981 24.05 7.74981 24.05C7.74981 24.05 7.6498 23.95 7.6498 23.75C7.5498 23.55 7.4498 23.35 7.3498 23.15C7.1498 22.65 6.94981 22.25 6.94981 22.25C6.94981 22.25 6.44981 22.25 5.74981 22.25C5.04981 22.25 3.94981 22.25 2.94981 22.25C1.94981 22.25 0.949805 22.35 0.249805 22.35C-0.0501946 22.35 -0.250195 22.35 -0.450195 22.45V23.45C-0.250195 23.75 -0.150196 24.05 -0.150196 24.05C-0.150196 24.05 0.249805 23.85 1.0498 23.85Z" fill="#FDFBF9"/>
<path d="M10.051 29.2501L9.25098 27.4501C9.25098 27.4501 7.25098 27.3501 5.25098 27.2501C3.25098 27.1501 1.25098 27.1501 1.25098 27.1501L2.05098 28.8502C2.05098 28.8502 2.55098 28.8501 3.25098 28.9501C3.95098 28.9501 4.95098 29.0501 5.95098 29.0501C8.05098 29.1501 10.051 29.2501 10.051 29.2501Z" fill="#FDFBF9"/>
<path d="M12.2502 34.35C12.2502 34.35 12.0502 33.95 11.8502 33.55C11.7502 33.35 11.6502 33.15 11.5502 32.95C11.4502 32.75 11.4502 32.65 11.4502 32.65C11.4502 32.65 9.4502 32.55 7.4502 32.45C5.4502 32.35 3.4502 32.25 3.4502 32.25L4.25019 34.05C4.25019 34.05 6.25019 34.15 8.25019 34.25C10.3502 34.35 12.2502 34.35 12.2502 34.35Z" fill="#FDFBF9"/>
<path d="M10.8494 39.3501C11.8494 39.3501 12.8494 39.2501 13.5494 39.1501C13.9494 39.1501 14.2494 39.05 14.4494 39.05C14.6494 39.05 14.7494 39.05 14.7494 39.05C14.7494 39.05 14.6494 38.9501 14.6494 38.8501C14.5494 38.7501 14.4494 38.5501 14.3494 38.3501C14.1494 37.9501 13.9494 37.55 13.9494 37.55C13.9494 37.55 13.4494 37.5501 12.7494 37.6501C12.0494 37.6501 11.0494 37.7501 10.0494 37.7501C9.04942 37.7501 8.04941 37.7501 7.34941 37.7501C6.64941 37.7501 6.14941 37.7501 6.14941 37.7501C6.14941 37.7501 6.24942 37.85 6.24942 38.05C6.34942 38.25 6.44942 38.4501 6.54942 38.6501C6.74942 39.1501 7.04942 39.55 7.04942 39.55C7.04942 39.55 7.54942 39.55 8.24942 39.55C8.64942 39.55 9.04942 39.55 9.54942 39.55C9.84942 39.35 10.3494 39.3501 10.8494 39.3501Z" fill="#FDFBF9"/>
<path d="M16.7494 41.95C16.6494 41.85 16.5494 41.75 16.5494 41.75C16.5494 41.75 16.0494 41.85 15.3494 42.05C14.6494 42.25 13.6494 42.45 12.6494 42.55C10.7494 42.85 8.64941 42.95 8.64941 42.95L9.84941 44.75C9.84941 44.75 9.94941 44.75 10.1494 44.75C10.3494 44.75 10.6494 44.65 11.0494 44.65C11.8494 44.55 12.8494 44.35 13.7494 44.15C14.2494 44.05 14.6494 43.95 15.1494 43.85C15.6494 43.75 16.0494 43.55 16.3494 43.45C17.0494 43.25 17.4494 43.05 17.4494 43.05C17.4494 43.05 17.1494 42.75 16.9494 42.45C17.0494 42.25 16.8494 42.05 16.7494 41.95Z" fill="#FDFBF9"/>
<path d="M20.8506 45.9501C20.5506 45.6501 20.1506 45.3501 20.1506 45.3501C20.1506 45.3501 18.8506 45.8501 17.3506 46.4501H21.3506C21.3506 46.4501 21.3506 46.4501 21.2506 46.3501C21.2506 46.2501 21.0506 46.1501 20.8506 45.9501Z" fill="#FDFBF9"/>
<path d="M3.5498 -0.549805H-0.450195V1.4502C0.0498047 1.1502 0.649803 0.950208 1.1498 0.650208C1.9498 0.250208 2.8498 -0.249805 3.5498 -0.549805Z" fill="#FDFBF9"/>
<path d="M5.74942 5.25012C6.74942 4.95012 7.84942 4.65011 8.54942 4.55011C9.34942 4.35011 9.84941 4.35016 9.84941 4.35016C9.84941 4.35016 9.74941 4.25011 9.64941 4.05011C9.54941 3.85011 9.34941 3.65013 9.14941 3.45013C8.74941 3.05013 8.34941 2.65015 8.34941 2.65015C8.34941 2.65015 7.84942 2.75011 7.04942 3.05011C6.64942 3.15011 6.24942 3.35013 5.74942 3.45013C5.54942 3.55013 5.24942 3.65012 5.04942 3.75012C4.84942 3.85012 4.54941 3.95011 4.34941 4.05011C2.44941 4.95011 0.649414 5.85016 0.649414 5.85016L2.24942 7.05011C2.24942 7.05011 2.34942 6.95016 2.54942 6.85016C2.74942 6.75016 2.94942 6.55016 3.24942 6.35016C3.54942 6.15016 3.94942 6.05016 4.44942 5.85016C4.74942 5.55016 5.24942 5.35012 5.74942 5.25012Z" fill="#FDFBF9"/>
<path d="M13.5494 9.65009C13.5494 9.65009 13.2494 9.15006 12.9494 8.75006C12.8494 8.55006 12.6494 8.25009 12.5494 8.15009C12.4494 7.95009 12.3494 7.8501 12.3494 7.8501C12.3494 7.8501 10.1494 7.9501 8.14941 8.3501C7.14941 8.5501 6.14941 8.75007 5.34941 8.95007C4.64941 9.15007 4.14941 9.25006 4.14941 9.25006C4.14941 9.25006 4.44941 9.55007 4.64941 9.95007C4.74941 10.1501 4.94942 10.2501 5.04942 10.4501C5.14942 10.5501 5.24942 10.6501 5.24942 10.6501C5.24942 10.6501 7.24941 10.25 9.34941 10.05C11.3494 9.65005 13.5494 9.65009 13.5494 9.65009Z" fill="#FDFBF9"/>
<path d="M9.34941 15.0502C10.1494 15.0502 11.1494 15.0502 12.1494 15.0502C13.1494 15.0502 14.2494 15.0502 15.0494 15.1502C15.8494 15.1502 16.3494 15.2502 16.3494 15.2502C16.3494 15.2502 16.2494 15.1502 16.2494 14.9502C16.1494 14.7502 16.0494 14.5502 15.9494 14.3502C15.7494 13.8502 15.4494 13.4502 15.4494 13.4502C15.4494 13.4502 14.9494 13.4502 14.1494 13.4502C13.3494 13.4502 12.3494 13.4502 11.2494 13.4502C10.2494 13.4502 9.14942 13.5502 8.44942 13.5502C7.64942 13.6502 7.14941 13.6502 7.14941 13.6502C7.14941 13.6502 7.34941 14.0502 7.64941 14.4502C7.84941 14.8502 8.04942 15.2502 8.04942 15.2502C8.04942 15.2502 8.54941 15.1502 9.34941 15.0502Z" fill="#FDFBF9"/>
<path d="M13.851 18.6501C11.751 18.5501 9.75098 18.55 9.75098 18.55L10.551 20.3501C10.551 20.3501 11.051 20.3501 11.851 20.4501C12.651 20.4501 13.651 20.55 14.651 20.55C16.751 20.65 18.751 20.7501 18.751 20.7501L17.951 18.9501C17.951 18.8501 15.951 18.7501 13.851 18.6501Z" fill="#FDFBF9"/>
<path d="M16.9498 25.85C19.0498 25.95 21.0498 25.95 21.0498 25.95C21.0498 25.95 20.8498 25.55 20.6498 25.05C20.5498 24.85 20.4498 24.65 20.3498 24.45C20.2498 24.25 20.2498 24.15 20.2498 24.15C20.2498 24.15 18.1498 24.05 16.1498 23.95C14.0498 23.85 12.0498 23.75 12.0498 23.75L12.8498 25.65C12.8498 25.65 14.9498 25.75 16.9498 25.85Z" fill="#FDFBF9"/>
<path d="M14.9502 30.2501C15.1502 30.7501 15.4502 31.1501 15.4502 31.1501C15.4502 31.1501 15.9502 31.1501 16.7502 31.1501C17.1502 31.1501 17.5502 31.1501 18.0502 31.1501C18.5502 31.1501 19.0502 31.1501 19.5502 31.1501C20.5502 31.1501 21.6502 31.0501 22.3502 30.9501C22.7502 30.9501 23.0502 30.8501 23.2502 30.8501C23.4502 30.8501 23.6502 30.8501 23.6502 30.8501C23.6502 30.8501 23.5502 30.7501 23.5502 30.6501C23.4502 30.5501 23.3502 30.3501 23.2502 30.1501C23.0502 29.7501 22.7502 29.3501 22.7502 29.3501C22.7502 29.3501 22.2502 29.3501 21.4502 29.4501C20.6502 29.4501 19.6502 29.55 18.6502 29.55C17.6502 29.55 16.5502 29.55 15.7502 29.55C14.9502 29.55 14.4502 29.55 14.4502 29.55C14.4502 29.55 14.5502 29.6501 14.5502 29.8501C14.7502 29.8501 14.8502 30.0501 14.9502 30.2501Z" fill="#FDFBF9"/>
<path d="M24.2506 35.75C24.7506 35.65 25.1506 35.45 25.5506 35.35C26.2506 35.15 26.7506 34.95 26.7506 34.95C26.7506 34.95 26.4506 34.65 26.1506 34.35C26.0506 34.25 25.8506 34.05 25.7506 33.95C25.6506 33.85 25.5506 33.75 25.5506 33.75C25.5506 33.75 25.0506 33.85 24.3506 34.05C23.6506 34.25 22.5506 34.45 21.5506 34.55C19.5506 34.85 17.3506 34.95 17.3506 34.95L18.5506 36.85C18.5506 36.85 18.6506 36.85 18.9506 36.85C19.1506 36.85 19.5506 36.75 19.9506 36.75C20.7506 36.65 21.7506 36.45 22.7506 36.25C23.3506 36.05 23.8506 35.95 24.2506 35.75Z" fill="#FDFBF9"/>
<path d="M29.5502 39.2501C30.2502 38.9501 30.7502 38.7501 30.7502 38.7501C30.7502 38.7501 30.6502 38.65 30.5502 38.55C30.4502 38.45 30.2502 38.2501 30.0502 38.1501C29.7502 37.8501 29.3502 37.55 29.3502 37.55C29.3502 37.55 27.4502 38.35 25.4502 39.05C24.4502 39.45 23.4502 39.7501 22.7502 39.9501C21.9502 40.1501 21.4502 40.2501 21.4502 40.2501C21.4502 40.2501 21.5502 40.35 21.6502 40.55C21.7502 40.75 22.0502 40.9501 22.1502 41.1501C22.5502 41.5501 22.9502 41.8501 22.9502 41.8501C22.9502 41.8501 24.9502 41.1501 26.8502 40.3501C27.9502 39.9501 28.8502 39.5501 29.5502 39.2501Z" fill="#FDFBF9"/>
<path d="M33.6502 41.1501C33.6502 41.1501 31.8502 42.0502 29.8502 42.8502C27.9502 43.6502 25.9502 44.4501 25.9502 44.4501L27.5502 45.7501C27.5502 45.7501 29.4502 44.9501 31.3502 44.0501C32.2502 43.6501 33.2502 43.1502 33.9502 42.8502C34.6502 42.5502 35.1502 42.2501 35.1502 42.2501C35.1502 42.2501 34.7502 41.9501 34.3502 41.6501C34.0502 41.4501 33.6502 41.1501 33.6502 41.1501Z" fill="#FDFBF9"/>
<path d="M38.251 44.75C38.251 44.75 36.551 45.65 34.751 46.45H38.751C39.451 46.15 39.851 45.85 39.851 45.85L38.251 44.75Z" fill="#FDFBF9"/>
<path d="M12.3506 0.150085C12.3506 0.150085 12.6506 0.450098 12.9506 0.850098C13.0506 1.0501 13.2506 1.1501 13.3506 1.3501C13.4506 1.4501 13.5506 1.55005 13.5506 1.55005C13.5506 1.55005 15.6506 1.1501 17.7506 0.850098C19.8506 0.650098 22.1506 0.550049 22.1506 0.550049C22.1506 0.550049 21.8506 0.0500488 21.5506 -0.449951C21.5506 -0.549951 21.4506 -0.549902 21.4506 -0.649902H15.0506C14.5506 -0.549902 14.0506 -0.449915 13.7506 -0.349915C12.8506 -0.0499145 12.3506 0.150085 12.3506 0.150085Z" fill="#FDFBF9"/>
<path d="M16.3498 6.35022C16.3498 6.35022 16.8498 6.35018 17.6498 6.25018C18.4498 6.25018 19.5498 6.25018 20.6498 6.25018C21.7498 6.25018 22.8498 6.25022 23.6498 6.35022C24.4498 6.35022 25.0498 6.4502 25.0498 6.4502C25.0498 6.4502 24.9498 6.35021 24.9498 6.15021C24.8498 5.95021 24.7498 5.7502 24.6498 5.4502C24.4498 4.9502 24.1498 4.4502 24.1498 4.4502C24.1498 4.4502 23.6498 4.4502 22.7498 4.4502C21.9498 4.4502 20.8498 4.4502 19.7498 4.4502C18.6498 4.4502 17.5498 4.55017 16.8498 4.55017C16.0498 4.65017 15.5498 4.65021 15.5498 4.65021C15.5498 4.65021 15.8498 5.0502 16.0498 5.4502C16.1498 5.9502 16.3498 6.35022 16.3498 6.35022Z" fill="#FDFBF9"/>
<path d="M22.3498 9.95001C20.1498 9.85001 18.0498 9.75 18.0498 9.75L18.8498 11.55C18.8498 11.55 19.3498 11.55 20.1498 11.65C20.9498 11.65 22.0498 11.75 23.1498 11.85C25.3498 11.95 27.4498 12.05 27.4498 12.05L26.6498 10.15C26.6498 10.25 24.5498 10.05 22.3498 9.95001Z" fill="#FDFBF9"/>
<path d="M21.2502 17.3502C21.2502 17.3502 23.4502 17.4502 25.5502 17.5502C27.7502 17.6502 29.8502 17.6502 29.8502 17.6502C29.8502 17.6502 29.6502 17.1502 29.4502 16.7502C29.3502 16.5502 29.2502 16.2502 29.1502 16.1502C29.0502 15.9502 29.0502 15.8502 29.0502 15.8502C29.0502 15.8502 26.9502 15.7502 24.7502 15.6502C22.5502 15.5502 20.4502 15.4502 20.4502 15.4502L21.2502 17.3502Z" fill="#FDFBF9"/>
<path d="M25.3502 23.1501C25.7502 23.1501 26.2502 23.1501 26.7502 23.1501C27.2502 23.1501 27.8502 23.15 28.3502 23.05C29.4502 23.05 30.5502 22.9501 31.2502 22.8501C31.6502 22.8501 31.9502 22.7501 32.2502 22.7501C32.4502 22.7501 32.6502 22.7501 32.6502 22.7501C32.6502 22.7501 32.5502 22.6501 32.4502 22.4501C32.3502 22.2501 32.2502 22.0501 32.1502 21.8501C31.9502 21.4501 31.6502 21.05 31.6502 21.05C31.6502 21.05 31.1502 21.0501 30.3502 21.1501C29.5502 21.1501 28.4502 21.2501 27.3502 21.2501C26.2502 21.2501 25.1502 21.2501 24.3502 21.2501C23.5502 21.2501 22.9502 21.2501 22.9502 21.2501C22.9502 21.2501 23.0502 21.35 23.0502 21.55C23.1502 21.75 23.2502 21.9501 23.3502 22.2501C23.5502 22.7501 23.8502 23.2501 23.8502 23.2501C23.8502 23.2501 24.5502 23.1501 25.3502 23.1501Z" fill="#FDFBF9"/>
<path d="M27.7502 28.85C27.9502 28.85 28.3502 28.75 28.7502 28.75C29.5502 28.65 30.6502 28.45 31.7502 28.25C32.2502 28.15 32.7502 28.05 33.2502 27.85C33.7502 27.75 34.1502 27.55 34.5502 27.45C35.3502 27.25 35.7502 27.05 35.7502 27.05C35.7502 27.05 35.4502 26.75 35.1502 26.45C34.9502 26.35 34.8502 26.15 34.7502 25.95C34.6502 25.85 34.5502 25.75 34.5502 25.75C34.5502 25.75 34.0502 25.85 33.2502 26.05C32.4502 26.25 31.3502 26.45 30.3502 26.55C28.2502 26.85 25.9502 26.95 25.9502 26.95L27.2502 28.85C27.3502 28.85 27.4502 28.85 27.7502 28.85Z" fill="#FDFBF9"/>
<path d="M34.4506 31.1501C33.4506 31.5501 32.3506 31.9501 31.6506 32.1501C30.8506 32.3501 30.3506 32.4501 30.3506 32.4501C30.3506 32.4501 30.4506 32.5501 30.6506 32.7501C30.8506 32.9501 31.0506 33.1501 31.2506 33.3501C31.6506 33.7501 32.0506 34.05 32.0506 34.05C32.0506 34.05 34.1506 33.35 36.1506 32.55C37.1506 32.15 38.1506 31.7501 38.8506 31.4501C39.5506 31.1501 40.0506 30.9501 40.0506 30.9501C40.0506 30.9501 39.9506 30.8501 39.8506 30.7501C39.7506 30.6501 39.5506 30.4501 39.3506 30.2501C38.9506 29.9501 38.6506 29.55 38.6506 29.55C38.6506 29.55 36.5506 30.4501 34.4506 31.1501Z" fill="#FDFBF9"/>
<path d="M43.4494 35.2502C44.1494 34.8502 44.6494 34.6502 44.6494 34.6502C44.6494 34.6502 44.2494 34.3502 43.8494 34.0502C43.4494 33.7502 43.0494 33.4502 43.0494 33.4502C43.0494 33.4502 41.1494 34.3502 39.1494 35.2502C37.1494 36.1502 35.1494 36.9502 35.1494 36.9502L36.8494 38.3502C36.8494 38.3502 38.8494 37.4502 40.8494 36.5502C41.6494 36.1502 42.6494 35.6502 43.4494 35.2502Z" fill="#FDFBF9"/>
<path d="M40.0498 40.9501L41.7498 42.2501C41.7498 42.2501 43.7498 41.3501 45.6498 40.3501C45.9498 40.2501 46.2498 40.0501 46.5498 39.9501V37.8501C45.8498 38.2501 44.9498 38.6501 44.0498 39.1501C41.9498 40.0501 40.0498 40.9501 40.0498 40.9501Z" fill="#FDFBF9"/>
<path d="M46.4502 45.7502V43.9502L44.9502 44.6502L46.4502 45.7502Z" fill="#FDFBF9"/>
<path d="M28.6506 3.15002C29.4506 3.15002 30.6506 3.25004 31.7506 3.35004C34.0506 3.45004 36.2506 3.65002 36.2506 3.65002L35.3506 1.65002C35.3506 1.65002 33.0506 1.55001 30.8506 1.45001C28.5506 1.35001 26.3506 1.25 26.3506 1.25L27.2506 3.15002C27.2506 3.15002 27.7506 3.15002 28.6506 3.15002Z" fill="#FDFBF9"/>
<path d="M28.8506 6.9502L29.7506 8.9502C29.7506 8.9502 32.0506 9.05021 34.2506 9.15021C36.5506 9.25021 38.7506 9.25018 38.7506 9.25018C38.7506 9.25018 38.5506 8.75022 38.3506 8.35022C38.2506 8.15022 38.1506 7.85021 38.0506 7.65021C37.9506 7.45021 37.9506 7.35022 37.9506 7.35022C37.9506 7.35022 35.7506 7.25021 33.4506 7.15021C31.1506 7.05021 28.8506 6.9502 28.8506 6.9502Z" fill="#FDFBF9"/>
<path d="M32.9498 12.9501C32.1498 12.9501 31.5498 12.9501 31.5498 12.9501C31.5498 12.9501 31.6498 13.0501 31.6498 13.2501C31.7498 13.4501 31.8498 13.6501 31.9498 13.9501C32.2498 14.4501 32.4498 14.9501 32.4498 14.9501C32.4498 14.9501 33.0498 14.9501 33.8498 14.9501C34.2498 14.9501 34.7498 14.9501 35.2498 14.9501C35.7498 14.9501 36.3498 14.9502 36.9498 14.8502C38.0498 14.8502 39.1498 14.7501 40.0498 14.6501C40.4498 14.6501 40.8498 14.5501 41.0498 14.5501C41.2498 14.5501 41.4498 14.4501 41.4498 14.4501C41.4498 14.4501 41.3498 14.3501 41.2498 14.1501C41.1498 13.9501 41.0498 13.7501 40.9498 13.5501C40.7498 13.1501 40.4498 12.6501 40.4498 12.6501C40.4498 12.6501 39.8498 12.6501 39.0498 12.7501C38.2498 12.7501 37.1498 12.8502 35.9498 12.8502C34.9498 13.0502 33.7498 12.9501 32.9498 12.9501Z" fill="#FDFBF9"/>
<path d="M34.751 18.9501L36.051 20.9501C36.051 20.9501 36.151 20.9501 36.451 20.9501C36.751 20.9501 37.051 20.8502 37.551 20.8502C38.451 20.7502 39.551 20.5502 40.651 20.3502C41.251 20.2502 41.751 20.1501 42.251 19.9501C42.751 19.8501 43.251 19.6501 43.651 19.5501C44.451 19.2501 44.951 19.0501 44.951 19.0501C44.951 19.0501 44.651 18.7502 44.351 18.3502C44.151 18.1502 44.051 18.0502 43.951 17.8502C43.851 17.7502 43.751 17.6501 43.751 17.6501C43.751 17.6501 43.251 17.7501 42.451 17.9501C41.651 18.1501 40.551 18.3501 39.451 18.5501C37.051 18.8501 34.751 18.9501 34.751 18.9501Z" fill="#FDFBF9"/>
<path d="M40.4498 24.3502C39.6498 24.5502 39.0498 24.7501 39.0498 24.7501C39.0498 24.7501 39.1498 24.8501 39.3498 25.0501C39.5498 25.2501 39.7498 25.4501 39.9498 25.6501C40.3498 26.0501 40.7498 26.4501 40.7498 26.4501C40.7498 26.4501 42.9498 25.6502 45.0498 24.8502C45.5498 24.6502 46.0498 24.4501 46.4498 24.2501V22.1501C45.6498 22.4501 44.5498 22.8502 43.4498 23.3502C42.3498 23.7502 41.3498 24.1502 40.4498 24.3502Z" fill="#FDFBF9"/>
<path d="M45.8498 30.75C45.8498 30.75 46.0498 30.65 46.4498 30.45V28.25C45.1498 28.85 44.0498 29.25 44.0498 29.25L45.8498 30.75Z" fill="#FDFBF9"/>
<path d="M42.8494 0.85022C44.1494 0.95022 45.5494 0.950195 46.4494 0.950195V-0.549805H37.6494L38.1494 0.650208C38.1494 0.650208 40.5494 0.75022 42.8494 0.85022Z" fill="#FDFBF9"/>
<path d="M41.5498 4.75012C40.6498 4.75012 40.0498 4.65015 40.0498 4.65015C40.0498 4.65015 40.1498 4.75013 40.2498 4.95013C40.3498 5.15013 40.4498 5.45015 40.6498 5.65015C40.9498 6.15015 41.1498 6.75012 41.1498 6.75012C41.1498 6.75012 41.7498 6.75012 42.6498 6.75012C43.0498 6.75012 43.6498 6.75012 44.1498 6.75012C44.7498 6.75012 45.3498 6.75015 45.8498 6.65015C46.0498 6.65015 46.2498 6.65015 46.4498 6.65015V4.65015C45.9498 4.65015 45.3498 4.65015 44.7498 4.65015C43.5498 4.85015 42.3498 4.75012 41.5498 4.75012Z" fill="#FDFBF9"/>
<path d="M44.7506 13.05C44.7506 13.05 44.8506 13.05 45.1506 13.05C45.4506 13.05 45.7506 12.9501 46.2506 12.9501C46.3506 12.9501 46.3506 12.9501 46.4506 12.9501V10.8501C44.7506 11.0501 43.3506 11.05 43.3506 11.05L44.7506 13.05Z" fill="#FDFBF9"/>
</g>
<defs>
<clipPath id="clip0_777_9942">
<rect width="46" height="46" fill="white"/>
</clipPath>
</defs>
</svg>
