<svg width="46" height="46" viewBox="0 0 46 46" fill="none" xmlns="http://www.w3.org/2000/svg">
<g clip-path="url(#clip0_777_9896)">
<rect width="46" height="46" fill="white"/>
<path d="M46.5488 -0.549805H-0.451172V46.4502H46.5488V-0.549805Z" fill="#FDFBF9"/>
<path d="M0.948437 32.7502C0.948437 32.7502 0.948437 32.6502 0.848437 32.4502C0.748437 32.2502 0.648437 32.0502 0.548437 31.8502C0.348437 31.4502 0.148438 30.9502 0.148438 30.9502C0.148438 30.9502 -0.0515625 30.9502 -0.351562 30.9502V32.6502C-0.251562 32.6502 -0.251562 32.6502 -0.151562 32.6502C0.448438 32.7502 0.948437 32.7502 0.948437 32.7502Z" fill="#2C2C2C"/>
<path d="M1.54883 36.0502C1.54883 36.0502 0.748828 36.0502 -0.451172 35.9502V37.5502C1.04883 37.6502 2.24883 37.7502 2.24883 37.7502L1.54883 36.0502Z" fill="#2C2C2C"/>
<path d="M4.34922 42.6501C4.34922 42.6501 4.14922 42.2501 3.94922 41.8501C3.84922 41.6501 3.74922 41.4501 3.64922 41.3501C3.54922 41.1501 3.54922 41.05 3.54922 41.05C3.54922 41.05 1.64922 40.9501 -0.250781 40.8501C-0.350781 40.8501 -0.450781 40.8501 -0.550781 40.8501V42.4501C-0.250781 42.4501 0.149219 42.4501 0.549219 42.4501C2.54922 42.6501 4.34922 42.6501 4.34922 42.6501Z" fill="#2C2C2C"/>
<path d="M5.54922 46.3502C5.74922 46.3502 5.84922 46.3502 5.84922 46.3502C5.84922 46.3502 5.74922 46.2502 5.74922 46.1502C5.64922 46.0502 5.54922 45.8502 5.44922 45.6502C5.24922 45.2502 5.04922 44.9502 5.04922 44.9502C5.04922 44.9502 4.54922 44.9502 3.84922 45.0502C3.14922 45.0502 2.24922 45.1502 1.24922 45.1502C0.649219 45.1502 0.0492188 45.1502 -0.550781 45.1502V46.6502H3.94922C4.14922 46.6502 4.44922 46.6502 4.64922 46.5502C5.04922 46.3502 5.34922 46.3502 5.54922 46.3502Z" fill="#2C2C2C"/>
<path d="M1.54883 13.4505C1.54883 13.4505 1.44883 13.3505 1.34883 13.1505C1.24883 12.9505 1.04883 12.7505 0.848828 12.5505C0.448828 12.1505 0.0488281 11.7505 0.0488281 11.7505C0.0488281 11.7505 -0.151172 11.7505 -0.451172 11.8505V13.7505C-0.151172 13.6505 0.0488281 13.6505 0.248828 13.5505C1.04883 13.5505 1.54883 13.4505 1.54883 13.4505Z" fill="#2C2C2C"/>
<path d="M5.04883 18.6501C5.04883 18.6501 4.74883 18.2501 4.54883 17.7501C4.44883 17.5501 4.24883 17.3501 4.14883 17.1501C4.04883 16.9501 3.94883 16.8501 3.94883 16.8501C3.94883 16.8501 1.84883 16.9501 -0.0511719 17.3501C-0.151172 17.3501 -0.351172 17.3501 -0.451172 17.4501V19.1501C0.0488281 19.0501 0.548828 19.0501 1.04883 18.9501C3.04883 18.6501 5.04883 18.6501 5.04883 18.6501Z" fill="#2C2C2C"/>
<path d="M1.04883 23.8505C1.74883 23.8505 2.74883 23.8505 3.74883 23.8505C4.74883 23.8505 5.74883 23.8505 6.44883 23.9505C7.14883 23.9505 7.64883 24.0505 7.64883 24.0505C7.64883 24.0505 7.54883 23.9505 7.54883 23.7505C7.44883 23.5505 7.34883 23.3505 7.24883 23.1505C7.04883 22.6505 6.84883 22.2505 6.84883 22.2505C6.84883 22.2505 6.34883 22.2505 5.64883 22.2505C4.94883 22.2505 3.84883 22.2505 2.94883 22.2505C1.94883 22.2505 0.948828 22.3505 0.248828 22.3505C-0.0511719 22.3505 -0.251172 22.3505 -0.451172 22.4505V23.4505C-0.251172 23.7505 -0.151172 24.0505 -0.151172 24.0505C-0.151172 24.0505 0.348828 23.8505 1.04883 23.8505Z" fill="#2C2C2C"/>
<path d="M10.1496 29.2504L9.34961 27.4504C9.34961 27.4504 7.34961 27.3504 5.34961 27.2504C3.34961 27.1504 1.34961 27.1504 1.34961 27.1504L2.14961 28.8504C2.14961 28.8504 2.64961 28.8504 3.34961 28.9504C4.04961 28.9504 5.04961 29.0504 6.04961 29.0504C8.14961 29.1504 10.1496 29.2504 10.1496 29.2504Z" fill="#2C2C2C"/>
<path d="M12.3488 34.3505C12.3488 34.3505 12.1488 33.9505 11.9488 33.5505C11.8488 33.3505 11.7488 33.1505 11.6488 32.9505C11.5488 32.7505 11.5488 32.6505 11.5488 32.6505C11.5488 32.6505 9.54883 32.5505 7.54883 32.4505C5.54883 32.3505 3.54883 32.2505 3.54883 32.2505L4.34883 34.0505C4.34883 34.0505 6.34883 34.1505 8.34883 34.2505C10.3488 34.3505 12.3488 34.3505 12.3488 34.3505Z" fill="#2C2C2C"/>
<path d="M10.8484 39.3503C11.8484 39.3503 12.8484 39.2503 13.5484 39.1503C13.9484 39.1503 14.2484 39.0503 14.4484 39.0503C14.6484 39.0503 14.7484 39.0503 14.7484 39.0503C14.7484 39.0503 14.6484 38.9503 14.6484 38.8503C14.5484 38.7503 14.4484 38.5503 14.3484 38.3503C14.1484 37.9503 13.9484 37.5503 13.9484 37.5503C13.9484 37.5503 13.4484 37.5503 12.7484 37.6503C12.0484 37.6503 11.0484 37.7503 10.0484 37.7503C9.04844 37.7503 8.04844 37.7503 7.34844 37.7503C6.64844 37.7503 6.14844 37.7503 6.14844 37.7503C6.14844 37.7503 6.24844 37.8503 6.24844 38.0503C6.34844 38.2503 6.44844 38.4503 6.54844 38.6503C6.74844 39.1503 7.04844 39.5503 7.04844 39.5503C7.04844 39.5503 7.54844 39.5503 8.34844 39.5503C8.74844 39.5503 9.14844 39.5503 9.64844 39.5503C9.84844 39.3503 10.3484 39.3503 10.8484 39.3503Z" fill="#2C2C2C"/>
<path d="M16.85 41.9505C16.75 41.8505 16.65 41.7505 16.65 41.7505C16.65 41.7505 16.15 41.8505 15.45 42.0505C14.75 42.2505 13.75 42.4505 12.75 42.5505C10.85 42.8505 8.75 42.9505 8.75 42.9505L9.95 44.7505C9.95 44.7505 10.05 44.7505 10.25 44.7505C10.45 44.7505 10.75 44.6505 11.15 44.6505C11.95 44.5505 12.95 44.3505 13.85 44.1505C14.35 44.0505 14.75 43.9505 15.25 43.8505C15.75 43.7505 16.15 43.5505 16.45 43.4505C17.15 43.2505 17.55 43.0505 17.55 43.0505C17.55 43.0505 17.25 42.7505 17.05 42.4505C17.05 42.2505 16.95 42.0505 16.85 41.9505Z" fill="#2C2C2C"/>
<path d="M20.9492 45.9501C20.6492 45.6501 20.2492 45.3501 20.2492 45.3501C20.2492 45.3501 18.9492 45.8501 17.4492 46.4501H21.4492C21.4492 46.4501 21.3492 46.4501 21.3492 46.3501C21.2492 46.2501 21.1492 46.1501 20.9492 45.9501Z" fill="#2C2C2C"/>
<path d="M3.54883 -0.549805H-0.451172V1.4502C0.0488281 1.1502 0.648828 0.950208 1.14883 0.650208C2.04883 0.250208 2.94883 -0.249805 3.54883 -0.549805Z" fill="#2C2C2C"/>
<path d="M5.74844 5.25037C6.74844 4.95037 7.74844 4.65035 8.54844 4.55035C9.34844 4.35035 9.84844 4.3504 9.84844 4.3504C9.84844 4.3504 9.74844 4.25035 9.64844 4.05035C9.54844 3.85035 9.34844 3.65038 9.14844 3.45038C8.74844 3.05038 8.34844 2.65039 8.34844 2.65039C8.34844 2.65039 7.84844 2.75035 7.04844 3.05035C6.64844 3.15035 6.24844 3.35038 5.74844 3.45038C5.54844 3.55038 5.24844 3.65037 5.04844 3.75037C4.84844 3.85037 4.54844 3.95035 4.34844 4.05035C2.44844 4.95035 0.648438 5.8504 0.648438 5.8504L2.24844 7.05035C2.24844 7.05035 2.34844 6.9504 2.54844 6.8504C2.74844 6.7504 2.94844 6.5504 3.24844 6.3504C3.54844 6.1504 3.94844 6.0504 4.44844 5.8504C4.74844 5.5504 5.24844 5.35037 5.74844 5.25037Z" fill="#2C2C2C"/>
<path d="M13.5484 9.65009C13.5484 9.65009 13.2484 9.15006 12.9484 8.75006C12.8484 8.55006 12.6484 8.25009 12.5484 8.15009C12.4484 7.95009 12.3484 7.8501 12.3484 7.8501C12.3484 7.8501 10.1484 7.9501 8.14844 8.3501C7.14844 8.5501 6.14844 8.75007 5.34844 8.95007C4.64844 9.15007 4.14844 9.25006 4.14844 9.25006C4.14844 9.25006 4.44844 9.55007 4.64844 9.95007C4.74844 10.1501 4.94844 10.2501 5.04844 10.4501C5.14844 10.5501 5.24844 10.6501 5.24844 10.6501C5.24844 10.6501 7.24844 10.25 9.34844 10.05C11.4484 9.65005 13.5484 9.65009 13.5484 9.65009Z" fill="#2C2C2C"/>
<path d="M9.45 15.0502C10.25 15.0502 11.25 15.0502 12.25 15.0502C13.25 15.0502 14.35 15.0502 15.15 15.1502C15.95 15.1502 16.45 15.2502 16.45 15.2502C16.45 15.2502 16.35 15.1502 16.35 14.9502C16.25 14.7502 16.15 14.5502 16.05 14.3502C15.85 13.8502 15.55 13.4502 15.55 13.4502C15.55 13.4502 15.05 13.4502 14.25 13.4502C13.45 13.4502 12.45 13.4502 11.35 13.4502C10.35 13.4502 9.25 13.5502 8.55 13.5502C7.75 13.4502 7.25 13.4502 7.25 13.4502C7.25 13.4502 7.45 13.8502 7.65 14.2502C7.85 14.6502 8.05 15.0502 8.05 15.0502C8.05 15.0502 8.65 15.1502 9.45 15.0502Z" fill="#2C2C2C"/>
<path d="M13.85 18.6503C11.75 18.5503 9.75 18.5503 9.75 18.5503L10.55 20.3503C10.55 20.3503 11.05 20.3503 11.85 20.4503C12.65 20.4503 13.65 20.5503 14.65 20.5503C16.75 20.6503 18.75 20.7503 18.75 20.7503L17.95 18.9503C18.05 18.8503 15.95 18.7503 13.85 18.6503Z" fill="#2C2C2C"/>
<path d="M17.0484 25.8505C19.1484 25.9505 21.1484 25.9505 21.1484 25.9505C21.1484 25.9505 20.9484 25.5505 20.7484 25.0505C20.6484 24.8505 20.5484 24.6505 20.4484 24.4505C20.3484 24.2505 20.3484 24.1505 20.3484 24.1505C20.3484 24.1505 18.2484 24.0505 16.2484 23.9505C14.1484 23.8505 12.1484 23.7505 12.1484 23.7505L12.9484 25.6505C12.8484 25.6505 14.9484 25.7505 17.0484 25.8505Z" fill="#2C2C2C"/>
<path d="M14.9496 30.2501C15.1496 30.7501 15.4496 31.1501 15.4496 31.1501C15.4496 31.1501 15.9496 31.1501 16.7496 31.1501C17.1496 31.1501 17.5496 31.1501 18.0496 31.1501C18.5496 31.1501 19.0496 31.1501 19.5496 31.1501C20.5496 31.1501 21.6496 31.0501 22.3496 30.9501C22.7496 30.9501 23.0496 30.8501 23.2496 30.8501C23.4496 30.8501 23.5496 30.8501 23.5496 30.8501C23.5496 30.8501 23.4496 30.7501 23.4496 30.6501C23.3496 30.5501 23.2496 30.3501 23.1496 30.1501C22.9496 29.7501 22.6496 29.3501 22.6496 29.3501C22.6496 29.3501 22.1496 29.3501 21.3496 29.4501C20.5496 29.4501 19.5496 29.55 18.5496 29.55C17.5496 29.55 16.4496 29.55 15.6496 29.55C14.8496 29.55 14.3496 29.55 14.3496 29.55C14.3496 29.55 14.4496 29.6501 14.4496 29.8501C14.7496 29.8501 14.8496 30.0501 14.9496 30.2501Z" fill="#2C2C2C"/>
<path d="M24.3492 35.7505C24.8492 35.6505 25.2492 35.4505 25.6492 35.3505C26.3492 35.1505 26.8492 34.9505 26.8492 34.9505C26.8492 34.9505 26.5492 34.6505 26.2492 34.3505C26.1492 34.2505 25.9492 34.0505 25.8492 33.9505C25.7492 33.8505 25.6492 33.7505 25.6492 33.7505C25.6492 33.7505 25.1492 33.8505 24.4492 34.0505C23.7492 34.2505 22.6492 34.4505 21.6492 34.5505C19.6492 34.8505 17.4492 34.9505 17.4492 34.9505L18.6492 36.8505C18.6492 36.8505 18.7492 36.8505 19.0492 36.8505C19.2492 36.8505 19.6492 36.7505 20.0492 36.7505C20.8492 36.6505 21.8492 36.4505 22.8492 36.2505C23.3492 36.0505 23.8492 35.9505 24.3492 35.7505Z" fill="#2C2C2C"/>
<path d="M29.6488 39.2503C30.3488 38.9503 30.8488 38.7503 30.8488 38.7503C30.8488 38.7503 30.7488 38.6503 30.6488 38.5503C30.5488 38.4503 30.3488 38.2503 30.1488 38.1503C29.7488 37.8503 29.4488 37.5503 29.4488 37.5503C29.4488 37.5503 27.5488 38.3503 25.5488 39.0503C24.5488 39.4503 23.5488 39.7503 22.8488 39.9503C22.0488 40.1503 21.5488 40.2503 21.5488 40.2503C21.5488 40.2503 21.6488 40.3503 21.7488 40.5503C21.8488 40.7503 22.0488 40.9503 22.2488 41.1503C22.6488 41.5503 23.0488 41.8503 23.0488 41.8503C23.0488 41.8503 25.0488 41.1503 26.9488 40.3503C27.9488 39.9503 28.9488 39.5503 29.6488 39.2503Z" fill="#2C2C2C"/>
<path d="M33.75 41.1504C33.75 41.1504 31.95 42.0504 30.05 42.8504C28.15 43.6504 26.25 44.4504 26.25 44.4504L27.85 45.7504C27.85 45.7504 29.75 44.9504 31.65 44.0504C32.55 43.6504 33.55 43.1504 34.25 42.8504C34.95 42.5504 35.45 42.2504 35.45 42.2504C35.45 42.2504 35.05 41.9504 34.65 41.6504C34.15 41.4504 33.75 41.1504 33.75 41.1504Z" fill="#2C2C2C"/>
<path d="M38.3496 44.7505C38.3496 44.7505 36.6496 45.6505 34.8496 46.4505H38.8496C39.5496 46.1505 39.9496 45.8505 39.9496 45.8505L38.3496 44.7505Z" fill="#2C2C2C"/>
<path d="M12.3496 0.150085C12.3496 0.150085 12.6496 0.450098 12.9496 0.850098C13.0496 1.0501 13.2496 1.1501 13.3496 1.3501C13.4496 1.4501 13.5496 1.55005 13.5496 1.55005C13.5496 1.55005 15.6496 1.1501 17.7496 0.850098C19.8496 0.650098 22.1496 0.550049 22.1496 0.550049C22.1496 0.550049 21.8496 0.0500488 21.5496 -0.449951C21.5496 -0.549951 21.4496 -0.549902 21.4496 -0.649902H15.0496C14.5496 -0.549902 14.0496 -0.449915 13.7496 -0.349915C12.8496 -0.0499145 12.3496 0.150085 12.3496 0.150085Z" fill="#2C2C2C"/>
<path d="M16.3488 6.35022C16.3488 6.35022 16.8488 6.35018 17.6488 6.25018C18.4488 6.25018 19.5488 6.25018 20.6488 6.25018C21.7488 6.25018 22.8488 6.25022 23.6488 6.35022C24.4488 6.35022 25.0488 6.4502 25.0488 6.4502C25.0488 6.4502 24.9488 6.35021 24.9488 6.15021C24.8488 5.95021 24.7488 5.7502 24.6488 5.4502C24.4488 4.9502 24.1488 4.4502 24.1488 4.4502C24.1488 4.4502 23.6488 4.4502 22.7488 4.4502C21.9488 4.4502 20.8488 4.4502 19.7488 4.4502C18.6488 4.4502 17.5488 4.55017 16.8488 4.55017C16.0488 4.65017 15.5488 4.65021 15.5488 4.65021C15.5488 4.65021 15.8488 5.0502 16.0488 5.4502C16.1488 5.9502 16.3488 6.35022 16.3488 6.35022Z" fill="#2C2C2C"/>
<path d="M22.3488 9.9505C20.1488 9.8505 18.0488 9.75049 18.0488 9.75049L18.8488 11.5505C18.8488 11.5505 19.3488 11.5505 20.1488 11.6505C20.9488 11.6505 22.0488 11.7505 23.1488 11.8505C25.3488 11.9505 27.4488 12.0505 27.4488 12.0505L26.6488 10.1505C26.7488 10.2505 24.5488 10.0505 22.3488 9.9505Z" fill="#2C2C2C"/>
<path d="M21.3488 17.3502C21.3488 17.3502 23.5488 17.4502 25.6488 17.5502C27.8488 17.6502 29.9488 17.6502 29.9488 17.6502C29.9488 17.6502 29.7488 17.1502 29.5488 16.7502C29.4488 16.5502 29.3488 16.2502 29.2488 16.1502C29.1488 15.9502 29.1488 15.8502 29.1488 15.8502C29.1488 15.8502 27.0488 15.7502 24.8488 15.6502C22.6488 15.5502 20.5488 15.4502 20.5488 15.4502L21.3488 17.3502Z" fill="#2C2C2C"/>
<path d="M25.3492 23.1503C25.7492 23.1503 26.2492 23.1503 26.7492 23.1503C27.2492 23.1503 27.8492 23.1503 28.3492 23.0503C29.4492 23.0503 30.5492 22.9503 31.2492 22.8503C31.6492 22.8503 31.9492 22.7503 32.2492 22.7503C32.4492 22.7503 32.6492 22.7503 32.6492 22.7503C32.6492 22.7503 32.5492 22.6503 32.4492 22.4503C32.3492 22.2503 32.2492 22.0503 32.1492 21.8503C31.9492 21.4503 31.6492 21.0503 31.6492 21.0503C31.6492 21.0503 31.1492 21.0503 30.3492 21.1503C29.5492 21.1503 28.4492 21.2503 27.3492 21.2503C26.2492 21.2503 25.1492 21.2503 24.3492 21.2503C23.5492 21.2503 22.9492 21.2503 22.9492 21.2503C22.9492 21.2503 23.0492 21.3503 23.0492 21.5503C23.1492 21.7503 23.2492 21.9503 23.3492 22.2503C23.5492 22.7503 23.8492 23.2503 23.8492 23.2503C23.8492 23.2503 24.5492 23.1503 25.3492 23.1503Z" fill="#2C2C2C"/>
<path d="M27.7492 28.8505C27.9492 28.8505 28.3492 28.7505 28.7492 28.7505C29.5492 28.6505 30.6492 28.4505 31.7492 28.2505C32.2492 28.1505 32.7492 28.0505 33.2492 27.8505C33.7492 27.7505 34.1492 27.5505 34.5492 27.4505C35.3492 27.2505 35.7492 27.0505 35.7492 27.0505C35.7492 27.0505 35.4492 26.7505 35.1492 26.4505C34.9492 26.3505 34.8492 26.1505 34.7492 25.9505C34.6492 25.8505 34.5492 25.7505 34.5492 25.7505C34.5492 25.7505 34.0492 25.8505 33.2492 26.0505C32.4492 26.2505 31.3492 26.4505 30.3492 26.5505C28.2492 26.8505 25.9492 26.9505 25.9492 26.9505L27.2492 28.8505C27.3492 28.8505 27.5492 28.8505 27.7492 28.8505Z" fill="#2C2C2C"/>
<path d="M34.5492 31.1503C33.5492 31.5503 32.4492 31.9503 31.7492 32.1503C30.9492 32.3503 30.4492 32.4503 30.4492 32.4503C30.4492 32.4503 30.5492 32.5503 30.7492 32.7503C30.9492 32.9503 31.1492 33.1503 31.3492 33.3503C31.7492 33.7503 32.1492 34.0503 32.1492 34.0503C32.1492 34.0503 34.2492 33.3503 36.2492 32.5503C37.2492 32.1503 38.2492 31.7503 38.9492 31.4503C39.6492 31.1503 40.1492 30.9503 40.1492 30.9503C40.1492 30.9503 40.0492 30.8503 39.9492 30.7503C39.8492 30.6503 39.6492 30.4503 39.4492 30.2503C39.0492 29.9503 38.7492 29.5503 38.7492 29.5503C38.7492 29.5503 36.5492 30.4503 34.5492 31.1503Z" fill="#2C2C2C"/>
<path d="M43.4484 35.2502C44.1484 34.8502 44.6484 34.6502 44.6484 34.6502C44.6484 34.6502 44.2484 34.3502 43.8484 34.0502C43.4484 33.7502 43.0484 33.4502 43.0484 33.4502C43.0484 33.4502 41.1484 34.3502 39.1484 35.2502C37.1484 36.1502 35.1484 36.9502 35.1484 36.9502L36.8484 38.3502C36.8484 38.3502 38.8484 37.4502 40.8484 36.5502C41.7484 36.1502 42.7484 35.6502 43.4484 35.2502Z" fill="#2C2C2C"/>
<path d="M40.0488 40.9501L41.7488 42.2501C41.7488 42.2501 43.7488 41.3501 45.6488 40.3501C45.9488 40.2501 46.2488 40.0501 46.5488 39.9501V37.8501C45.8488 38.2501 44.9488 38.6501 44.0488 39.1501C42.0488 40.0501 40.0488 40.9501 40.0488 40.9501Z" fill="#2C2C2C"/>
<path d="M46.5488 45.7502V43.9502L45.0488 44.6502L46.5488 45.7502Z" fill="#2C2C2C"/>
<path d="M28.6496 3.15051C29.4496 3.15051 30.6496 3.25052 31.7496 3.35052C34.0496 3.45052 36.2496 3.65051 36.2496 3.65051L35.3496 1.65051C35.3496 1.65051 33.0496 1.5505 30.8496 1.4505C28.5496 1.3505 26.3496 1.25049 26.3496 1.25049L27.2496 3.15051C27.2496 3.15051 27.8496 3.15051 28.6496 3.15051Z" fill="#2C2C2C"/>
<path d="M28.9492 6.9502L29.8492 8.9502C29.8492 8.9502 32.1492 9.05021 34.3492 9.15021C36.6492 9.25021 38.8492 9.25018 38.8492 9.25018C38.8492 9.25018 38.6492 8.75022 38.4492 8.35022C38.3492 8.15022 38.2492 7.85021 38.1492 7.65021C38.0492 7.45021 38.0492 7.35022 38.0492 7.35022C38.0492 7.35022 35.8492 7.25021 33.5492 7.15021C31.1492 7.05021 28.9492 6.9502 28.9492 6.9502Z" fill="#2C2C2C"/>
<path d="M32.9488 12.9504C32.1488 12.9504 31.5488 12.9504 31.5488 12.9504C31.5488 12.9504 31.6488 13.0504 31.6488 13.2504C31.7488 13.4504 31.8488 13.6504 31.9488 13.9504C32.2488 14.4504 32.4488 14.9504 32.4488 14.9504C32.4488 14.9504 33.0488 14.9504 33.8488 14.9504C34.2488 14.9504 34.7488 14.9504 35.2488 14.9504C35.7488 14.9504 36.3488 14.9504 36.9488 14.8504C38.0488 14.8504 39.1488 14.7504 40.0488 14.6504C40.4488 14.6504 40.8488 14.5504 41.0488 14.5504C41.2488 14.5504 41.4488 14.4504 41.4488 14.4504C41.4488 14.4504 41.3488 14.3504 41.2488 14.1504C41.1488 13.9504 41.0488 13.7504 40.9488 13.5504C40.7488 13.1504 40.4488 12.6504 40.4488 12.6504C40.4488 12.6504 39.8488 12.6504 39.0488 12.7504C38.2488 12.7504 37.1488 12.8504 35.9488 12.8504C34.9488 13.0504 33.8488 12.9504 32.9488 12.9504Z" fill="#2C2C2C"/>
<path d="M34.75 18.9504L36.05 20.9504C36.05 20.9504 36.15 20.9504 36.45 20.9504C36.75 20.9504 37.05 20.8504 37.55 20.8504C38.45 20.7504 39.55 20.5504 40.65 20.3504C41.25 20.2504 41.75 20.1504 42.25 19.9504C42.75 19.8504 43.25 19.6504 43.65 19.5504C44.45 19.2504 44.95 19.0504 44.95 19.0504C44.95 19.0504 44.65 18.7504 44.35 18.3504C44.15 18.1504 44.05 18.0504 43.95 17.8504C43.85 17.7504 43.75 17.6504 43.75 17.6504C43.75 17.6504 43.25 17.7504 42.45 17.9504C41.65 18.1504 40.55 18.3504 39.45 18.5504C37.15 18.8504 34.75 18.9504 34.75 18.9504Z" fill="#2C2C2C"/>
<path d="M40.5484 24.3504C39.7484 24.5504 39.1484 24.7504 39.1484 24.7504C39.1484 24.7504 39.2484 24.8504 39.4484 25.0504C39.6484 25.2504 39.8484 25.4504 40.0484 25.6504C40.4484 26.0504 40.8484 26.4504 40.8484 26.4504C40.8484 26.4504 43.0484 25.6504 45.1484 24.8504C45.6484 24.6504 46.0484 24.4504 46.5484 24.2504V22.1504C45.7484 22.4504 44.6484 22.8504 43.5484 23.3504C42.4484 23.7504 41.3484 24.1504 40.5484 24.3504Z" fill="#2C2C2C"/>
<path d="M45.8484 30.7505C45.8484 30.7505 46.0484 30.6505 46.5484 30.4505V28.2505C45.2484 28.8505 44.1484 29.2505 44.1484 29.2505L45.8484 30.7505Z" fill="#2C2C2C"/>
<path d="M42.95 0.85022C44.25 0.95022 45.65 0.950195 46.55 0.950195V-0.549805H37.75L38.25 0.650208C38.25 0.650208 40.65 0.75022 42.95 0.85022Z" fill="#2C2C2C"/>
<path d="M41.5488 4.75037C40.6488 4.75037 40.0488 4.65039 40.0488 4.65039C40.0488 4.65039 40.1488 4.75038 40.2488 4.95038C40.3488 5.15038 40.4488 5.45039 40.5488 5.65039C40.8488 6.15039 41.0488 6.75037 41.0488 6.75037C41.0488 6.75037 41.6488 6.75037 42.5488 6.75037C42.9488 6.75037 43.5488 6.75037 44.0488 6.75037C44.6488 6.75037 45.2488 6.75039 45.7488 6.65039C45.9488 6.65039 46.1488 6.65039 46.3488 6.65039V4.65039C45.8488 4.65039 45.2488 4.65039 44.6488 4.65039C43.6488 4.85039 42.4488 4.75037 41.5488 4.75037Z" fill="#2C2C2C"/>
<path d="M44.7496 13.05C44.7496 13.05 44.8496 13.05 45.1496 13.05C45.4496 13.05 45.7496 12.9501 46.2496 12.9501C46.3496 12.9501 46.3496 12.9501 46.4496 12.9501V10.8501C44.7496 11.0501 43.3496 11.05 43.3496 11.05L44.7496 13.05Z" fill="#2C2C2C"/>
</g>
<defs>
<clipPath id="clip0_777_9896">
<rect width="46" height="46" fill="white"/>
</clipPath>
</defs>
</svg>
