<svg width="228" height="228" viewBox="0 0 228 228" fill="none" xmlns="http://www.w3.org/2000/svg">
<path d="M10.1687 226.998V227.698H0.368652V215.798L3.96865 219.798C7.06865 223.498 10.1687 226.998 10.1687 226.998ZM35.6687 225.498L36.2687 224.998L36.3687 224.198L35.8687 223.498L34.6687 221.698C33.6687 220.298 32.2687 218.298 30.8687 216.398C29.4687 214.498 27.9687 212.498 26.7687 211.098L24.8687 208.798L17.3687 212.498C17.3687 212.498 19.6687 215.298 21.8687 218.198L24.8687 222.098C25.6687 223.198 26.1687 223.898 26.1687 223.898L24.6687 225.598C24.1687 226.298 23.4687 227.098 22.7687 227.898H33.3687L33.9687 227.198L35.6687 225.498ZM56.4687 216.598L55.1687 213.698L53.6687 213.798C52.5687 213.898 51.5687 213.998 50.4687 214.098C48.1687 214.498 45.8687 214.798 45.8687 214.798C45.8687 214.798 47.7687 218.198 49.2687 221.498C50.2687 223.998 51.1687 226.498 51.4687 227.698H59.9687C59.6687 226.298 59.1687 224.698 58.6687 222.998C58.1687 220.898 57.3687 218.798 56.4687 216.598ZM4.56865 177.598L0.368652 172.698V183.998L4.56865 178.498V177.598ZM27.5687 172.998C26.4687 171.498 25.0687 169.398 23.5687 167.298C22.0687 165.198 20.4687 163.198 19.2687 161.598L17.2687 159.098L9.16865 162.998L14.0687 168.998L17.2687 173.098L18.6687 174.998C18.6687 174.998 18.0687 175.698 17.0687 176.798C16.0687 177.898 14.9687 179.398 13.6687 180.898L8.96865 186.798L15.8687 190.998L17.7687 188.598C18.9687 187.198 20.4687 185.398 22.1687 183.598C23.8687 181.798 25.5687 179.998 26.8687 178.598C27.5687 177.898 28.0687 177.398 28.4687 176.998L29.0687 176.498L29.1687 175.598L28.6687 174.798C28.5687 174.398 28.0687 173.798 27.5687 172.998ZM53.2687 185.898C52.6687 182.498 51.8687 179.198 50.8687 175.998C50.1687 173.698 49.3687 171.398 48.4687 169.098L47.0687 165.998L45.5687 166.098C44.4687 166.198 43.2687 166.298 42.1687 166.498L37.2687 167.298C37.2687 167.298 39.3687 170.998 40.8687 174.498C42.3687 178.198 43.4687 181.798 43.4687 181.798C43.4687 181.798 40.1687 183.698 37.1687 185.798C35.2687 187.298 33.3687 188.798 31.6687 190.398C31.6687 190.398 32.8687 191.798 33.9687 193.198C34.4687 193.798 34.9687 194.498 35.4687 195.098L36.0687 195.998C36.0687 195.998 36.9687 195.298 38.3687 194.298C40.1687 192.998 41.9687 191.898 43.9687 190.898C46.8687 189.298 49.7687 187.898 52.8687 186.698L53.2687 185.898ZM75.9687 200.398C75.9687 200.398 75.6687 195.398 75.1687 190.398L74.4687 183.398C74.1687 181.498 74.0686 180.198 74.0686 180.198L69.5686 179.698C67.2686 179.498 65.0686 179.298 65.0686 179.298C65.0686 179.298 65.7687 183.098 66.1687 186.998C66.5687 190.898 66.9687 194.598 66.9687 194.598C66.9687 194.598 63.2687 195.798 59.7687 196.998C57.9687 197.598 56.2687 198.298 54.9687 198.798L52.7687 199.698L54.6687 203.198L56.4687 206.798L59.3687 205.798L65.8687 203.798C70.6687 202.398 75.4687 200.998 75.4687 200.998L75.9687 200.398ZM97.1687 205.198C96.8687 202.698 96.6686 200.298 96.5686 198.498C96.4686 196.698 96.3687 195.498 96.3687 195.498L92.2687 195.198C90.2687 195.098 88.0686 194.798 88.0686 194.798L88.5686 202.298C88.8686 206.098 89.2687 209.898 89.2687 209.898C89.2687 209.898 85.6687 211.098 81.9687 212.198L74.5686 214.398C74.5686 214.398 75.5686 216.298 76.5686 218.298L78.6687 222.198L81.7687 221.298C83.6687 220.798 86.0687 219.998 88.4687 219.298C90.8687 218.598 93.3686 217.598 95.0686 216.998C96.7686 216.398 97.9687 215.898 97.9687 215.898L98.3687 215.098C98.3687 215.098 98.1687 213.898 97.8687 211.998C97.5687 210.098 97.3687 207.598 97.1687 205.198ZM123.769 224.198C123.769 224.198 121.869 219.598 119.669 214.898L118.069 211.498C117.569 210.398 116.969 209.398 116.769 208.498C116.269 206.798 116.069 205.698 116.069 205.698L115.069 206.098C114.369 206.398 113.569 206.598 112.769 206.798L109.169 207.498C109.169 207.498 109.769 210.998 110.769 214.598C111.469 216.998 112.269 219.298 113.269 221.598C111.169 223.098 108.969 224.498 106.669 225.798C105.369 226.498 103.869 227.198 102.669 227.798H119.369C121.669 226.198 123.369 224.998 123.369 224.998L123.769 224.198ZM142.769 214.198L141.369 214.298L138.269 214.698L133.869 215.298L136.569 222.498C137.169 224.298 137.869 226.098 138.269 227.498V227.598H147.269C146.869 226.398 146.469 224.998 145.969 223.698C144.569 219.098 142.769 214.198 142.769 214.198ZM160.169 221.498C160.169 221.498 161.069 224.498 161.869 227.798H170.669L168.869 220.898L160.169 221.498ZM5.46865 130.598C5.46865 130.598 3.16865 127.898 0.368652 124.698V138.198L5.46865 131.498V130.598ZM14.7687 134.998L9.86865 141.198L17.2687 145.698L19.3687 143.198C20.5687 141.798 22.2687 139.798 24.0687 137.898C25.8687 135.998 27.6687 133.998 29.0687 132.598L30.7687 130.898C31.1687 130.498 31.3687 130.298 31.3687 130.298L31.4687 129.398C31.4687 129.398 31.2687 129.098 30.9687 128.598C30.6687 128.098 30.1687 127.398 29.6687 126.598C28.5687 124.998 26.9687 122.798 25.3687 120.598C23.7687 118.398 22.0687 116.198 20.7687 114.498C19.4687 112.798 18.6687 111.798 18.6687 111.798L10.1687 115.998C10.1687 115.998 12.7687 119.198 15.3687 122.398L18.7687 126.798C19.6687 127.998 20.2687 128.798 20.2687 128.798L18.5687 130.698L14.7687 134.998ZM34.0687 149.098L34.7687 150.098L37.2687 148.298C39.1687 146.998 41.1687 145.798 43.1687 144.698C46.2687 142.998 49.3687 141.498 52.6687 140.198L53.0687 139.398C52.3687 135.798 51.5687 132.298 50.4687 128.898C49.7687 126.398 48.8687 123.998 47.8687 121.598C46.9687 119.598 46.4687 118.298 46.4687 118.298L44.8687 118.398C43.6687 118.498 42.4687 118.598 41.2687 118.798L36.0687 119.598C36.0687 119.598 38.2687 123.498 39.9687 127.198C41.5687 131.098 42.7687 134.998 42.7687 134.998C42.7687 134.998 39.1687 136.998 36.0687 139.298C34.0687 140.798 32.0687 142.498 30.1687 144.198L32.6687 147.098C33.0687 147.698 33.5687 148.298 34.0687 149.098ZM54.4687 157.798L56.3687 161.698L59.4687 160.598L66.3687 158.498C71.4687 156.998 76.5686 155.498 76.5686 155.498L77.0686 154.698C77.0686 154.698 76.6687 149.398 76.1687 143.998C75.8687 141.298 75.6687 138.598 75.4687 136.598L75.0686 133.198L70.3687 132.698L65.5686 132.298C65.5686 132.298 66.3687 136.398 66.7687 140.498C67.1687 144.598 67.5686 148.598 67.5686 148.598C67.5686 148.598 63.6687 149.798 59.8687 151.198C57.9687 151.798 56.0687 152.598 54.7687 153.098L52.4687 153.998C52.4687 154.098 53.4687 155.898 54.4687 157.798ZM99.5686 159.798C99.2686 157.198 99.0687 154.598 98.8687 152.598C98.6687 150.598 98.6687 149.398 98.6687 149.398L94.3687 149.098C92.1687 148.998 89.9687 148.698 89.9687 148.698L90.4687 156.698C90.7687 160.698 91.1687 164.698 91.1687 164.698C91.1687 164.698 87.2687 165.998 83.3687 167.198L75.5686 169.498C75.5686 169.498 76.5687 171.498 77.7687 173.598L80.0686 177.698L83.3687 176.798C85.3687 176.198 87.9686 175.398 90.5686 174.598C93.1686 173.798 95.7687 172.798 97.6687 172.098C99.5687 171.398 100.769 170.898 100.769 170.898L101.169 170.098C101.169 170.098 100.869 168.798 100.569 166.798C100.269 164.798 99.7686 162.298 99.5686 159.798ZM121.769 166.398C121.269 165.198 120.569 164.098 120.469 163.198C119.969 161.398 119.769 160.198 119.769 160.198L118.669 160.598C117.869 160.898 117.069 161.198 116.269 161.298L112.469 162.098C112.469 162.098 113.069 165.798 114.169 169.598C114.969 172.098 115.769 174.598 116.869 176.998C114.569 178.598 112.269 180.098 109.869 181.398C106.269 183.398 102.169 185.098 102.169 185.098C102.169 185.098 103.969 186.998 105.769 188.898C106.669 189.798 107.569 190.598 108.469 191.398L109.769 192.498C109.769 192.498 111.169 191.798 113.069 190.798C114.169 190.298 114.869 189.598 115.869 188.898C116.869 188.198 117.869 187.398 118.869 186.598C123.069 183.498 127.569 180.498 127.569 180.498L127.869 179.598C127.869 179.598 125.869 174.698 123.569 169.798C122.869 168.798 122.269 167.498 121.769 166.398ZM147.869 169.298L146.369 169.498C145.469 169.598 144.269 169.798 143.069 169.898L138.369 170.598L141.269 178.298C141.969 180.198 142.569 182.098 143.069 183.598C143.569 185.098 143.869 185.998 143.869 185.998L141.669 187.298C140.369 188.098 138.669 189.098 136.969 190.198L130.269 194.598L133.069 197.898L134.969 200.098L135.869 201.198C135.869 201.198 140.269 198.498 144.869 195.898C149.469 193.298 154.169 190.798 154.169 190.798L154.569 189.898C154.569 189.898 153.069 184.698 151.369 179.698C149.669 174.698 147.869 169.298 147.869 169.298ZM175.169 180.798L165.969 181.398C165.969 181.398 167.069 185.298 168.069 189.298L170.069 197.198L162.869 200.898C159.269 202.698 155.769 204.698 155.769 204.698L161.169 211.798C161.169 211.798 165.869 209.398 170.669 207.098C175.469 204.798 180.269 202.498 180.269 202.498L180.669 201.598C180.669 201.598 179.369 196.398 177.969 191.198L175.169 180.798ZM203.769 202.898L201.069 192.698L192.169 193.398L196.069 209.098L181.569 216.398L187.169 223.698C187.169 223.698 191.969 221.298 196.769 218.898C201.469 216.498 206.269 213.998 206.269 213.998L206.669 213.098C206.669 213.098 205.269 207.998 203.769 202.898ZM217.969 204.798L222.269 220.598L208.669 227.798H227.169V204.398C227.069 204.198 227.069 204.098 227.069 204.098L217.969 204.798ZM7.36865 97.4984C8.66865 95.9984 10.4687 93.8984 12.2687 91.8984C14.0687 89.8984 16.0687 87.7984 17.5687 86.2984L19.3687 84.4984L20.0687 83.8984L20.1687 82.8984L19.6687 81.9984L18.2687 79.8984C17.0687 78.1984 15.4687 75.7984 13.7687 73.4984C12.0687 71.1984 10.2687 68.7984 8.86865 66.9984L6.56865 64.1984L0.368652 67.1984V72.0984L2.96865 75.3984C4.26865 77.0984 5.56865 78.7984 6.56865 80.0984C7.56865 81.3984 8.16865 82.2984 8.16865 82.2984L6.36865 84.2984L2.56865 88.7984L0.368652 91.6984V97.2984L5.16865 100.198L7.36865 97.4984ZM28.4687 97.7984L31.0687 100.898C31.6687 101.598 32.1687 102.298 32.7687 103.098L33.4687 104.098L36.0687 102.198C38.0687 100.798 40.1687 99.4984 42.3687 98.3984C45.5687 96.5984 48.9687 94.9984 52.3687 93.6984L52.8687 92.7984C52.1687 88.9984 51.2687 85.2984 50.1687 81.5984C49.3687 78.9984 48.4687 76.3984 47.3687 73.8984C46.4687 71.7984 45.8687 70.3984 45.8687 70.3984L44.1687 70.4984C42.8687 70.5984 41.5687 70.6984 40.2687 70.8984L34.7687 71.6984C34.7687 71.6984 37.0687 75.7984 38.8687 79.7984C40.5687 83.9984 41.8687 87.9984 41.8687 87.9984C41.8687 87.9984 38.0687 90.0984 34.7687 92.4984C32.5687 94.1984 30.4687 95.8984 28.4687 97.7984ZM56.2687 116.398L59.5687 115.298C61.5687 114.698 64.2687 113.898 66.8687 112.998C72.2687 111.398 77.6687 109.898 77.6687 109.898L78.2687 109.098C78.2687 109.098 77.8687 103.498 77.3687 97.7984C77.0687 94.9984 76.7686 92.0984 76.5686 89.9984L76.0686 86.3984C76.0686 86.3984 73.5686 86.0984 71.0686 85.8984L65.9687 85.4984C65.9687 85.4984 66.7687 89.7984 67.1687 94.1984C67.5687 98.5984 68.0686 102.798 68.0686 102.798C68.0686 102.798 63.9687 104.098 59.9687 105.498C57.9687 106.198 55.9687 106.898 54.5687 107.498L52.1687 108.498L54.2687 112.498C55.2687 114.298 56.2687 116.398 56.2687 116.398ZM81.1687 133.398C81.1687 133.398 82.5687 132.998 84.6687 132.398C86.7687 131.798 89.5687 130.998 92.2687 130.098C94.9687 129.198 97.7687 128.198 99.7687 127.498C101.769 126.798 103.069 126.198 103.069 126.198L103.569 125.298C103.569 125.298 103.269 123.898 102.969 121.798C102.669 119.698 102.269 116.998 101.969 114.198C101.669 111.398 101.469 108.698 101.269 106.598C101.069 104.498 101.069 103.198 101.069 103.198L96.3687 102.998C94.0687 102.798 91.6687 102.598 91.6687 102.598C91.6687 102.598 91.9687 106.798 92.2687 111.098C92.5687 115.398 92.9687 119.598 92.9687 119.598C92.9687 119.598 88.8687 120.998 84.7687 122.198L76.4687 124.698C76.4687 124.698 77.5687 126.898 78.7687 128.998C79.9687 131.098 81.1687 133.398 81.1687 133.398ZM111.169 147.998C111.969 148.698 112.569 149.198 112.569 149.198C112.569 149.198 113.969 148.498 116.069 147.398C117.169 146.898 117.969 146.098 119.069 145.398L122.269 142.998C126.669 139.698 131.469 136.598 131.469 136.598L131.769 135.598C131.769 135.598 129.669 130.398 127.169 125.198L125.369 121.298C124.769 120.098 124.069 118.898 123.969 117.998C123.469 116.098 123.169 114.898 123.169 114.898L122.069 115.298C121.269 115.598 120.369 115.898 119.469 116.098L115.469 116.898C115.469 116.898 116.069 120.798 117.269 124.898C118.069 127.598 118.969 130.198 120.069 132.798C117.669 134.498 115.169 136.098 112.669 137.498C108.869 139.598 104.569 141.398 104.569 141.398C104.569 141.398 106.469 143.398 108.369 145.398C109.269 146.298 110.169 147.198 111.169 147.998ZM139.369 156.798L140.269 157.898C140.269 157.898 144.969 155.098 149.769 152.298C154.569 149.498 159.569 146.898 159.569 146.898L159.969 145.998C159.969 145.998 158.469 140.498 156.569 135.198C154.669 129.898 152.869 124.298 152.869 124.298L151.269 124.498L147.769 124.998L142.769 125.698C142.769 125.698 144.269 129.798 145.769 133.798C146.469 135.798 147.169 137.898 147.669 139.398C148.169 140.898 148.469 141.998 148.469 141.998L146.169 143.298C144.769 144.098 142.969 145.198 141.169 146.398L134.069 150.998C134.069 150.998 135.569 152.698 137.069 154.498C138.069 155.398 138.769 156.198 139.369 156.798ZM176.969 164.298L187.069 159.398L187.469 158.498L184.669 147.498L181.769 136.598L172.069 137.298C172.069 137.298 173.269 141.398 174.269 145.598C175.269 149.798 176.369 153.898 176.369 153.898L168.769 157.798C164.969 159.698 161.269 161.798 161.269 161.798L166.969 169.398L176.969 164.298ZM209.069 148.998L199.669 149.698L203.869 166.298L188.569 174.098L194.469 181.798L204.669 176.698L214.669 171.498L215.069 170.598L211.969 159.698L209.069 148.998ZM227.169 169.498V160.098L224.669 160.298L227.169 169.498ZM219.969 192.498C219.969 192.498 223.269 190.798 227.169 188.798V177.998L214.169 184.898L219.969 192.498ZM9.16865 51.3984C10.5687 49.7984 12.3687 47.5984 14.3687 45.3984C16.3687 43.1984 18.3687 41.0984 19.9687 39.4984L21.8687 37.4984L22.5687 36.7984L22.6687 35.7984L22.1687 34.9984L20.6687 32.7984C19.3687 30.9984 17.6687 28.4984 15.8687 26.0984C14.0687 23.6984 12.1687 21.1984 10.7687 19.2984L8.36865 16.2984L0.368652 20.0984V22.9984C1.46865 24.3984 2.96865 26.2984 4.46865 28.1984L8.26865 32.9984L9.96865 35.2984L8.16865 37.3984L4.16865 42.1984L0.368652 46.9984V50.2984L6.86865 54.1984C6.86865 54.1984 7.76865 53.0984 9.16865 51.3984ZM31.3687 57.0984L32.1687 58.1984L34.9687 56.1984C37.0687 54.6984 39.2687 53.3984 41.5687 52.1984C44.9687 50.2984 48.4687 48.6984 52.1687 47.1984L52.6687 46.2984C51.9687 42.2984 50.9687 38.3984 49.7687 34.4984C48.9687 31.6984 47.9687 28.9984 46.8687 26.2984L45.2687 22.5984L43.3687 22.6984C41.9687 22.7984 40.6687 22.8984 39.2687 23.0984L33.5687 23.9984C33.5687 23.9984 36.0687 28.2984 37.8687 32.4984C39.6687 36.8984 40.9687 41.1984 40.9687 41.1984C40.9687 41.1984 36.9687 43.4984 33.4687 45.9984C29.8687 48.6984 26.8687 51.4984 26.8687 51.4984C26.8687 51.4984 28.2687 53.0984 29.6687 54.7984C30.2687 55.4984 30.8687 56.2984 31.3687 57.0984ZM54.0687 66.7984L56.2687 71.0984L59.6687 69.8984L67.3687 67.4984C73.0687 65.7984 78.7687 64.1984 78.7687 64.1984L79.3687 63.2984C79.3687 63.2984 78.9687 57.3984 78.3687 51.3984C78.0687 48.3984 77.7686 45.3984 77.5686 43.0984L77.0686 39.2984L71.7687 38.6984C69.0687 38.4984 66.3687 38.1984 66.3687 38.1984C66.3687 38.1984 67.1687 42.7984 67.6687 47.2984C68.1687 51.7984 68.5686 56.2984 68.5686 56.2984C68.5686 56.2984 64.2687 57.6984 60.0687 59.1984C57.9687 59.8984 55.8687 60.6984 54.3687 61.2984L51.7687 62.2984L54.0687 66.7984ZM105.969 80.4984C105.969 80.4984 105.669 78.9984 105.369 76.7984C105.069 74.5984 104.569 71.6984 104.269 68.7984C103.969 65.8984 103.669 62.9984 103.569 60.7984C103.469 58.5984 103.269 57.1984 103.269 57.1984L98.3687 56.7984C95.9687 56.5984 93.4687 56.3984 93.4687 56.3984L94.0686 65.3984C94.3686 69.8984 94.8687 74.3984 94.8687 74.3984C94.8687 74.3984 90.5687 75.8984 86.1687 77.1984L77.3687 79.7984C77.3687 79.7984 78.4687 82.0984 79.7687 84.3984C81.0687 86.6984 82.2687 88.9984 82.2687 88.9984L85.9687 87.9984C88.1687 87.3984 91.0687 86.4984 93.9687 85.5984C96.8687 84.6984 99.7687 83.5984 101.869 82.7984C103.969 81.9984 105.369 81.4984 105.369 81.4984L105.969 80.4984ZM135.669 91.2984C135.669 91.2984 133.369 85.7984 130.869 80.2984C130.269 78.8984 129.569 77.4984 128.969 76.1984C128.369 74.8984 127.669 73.6984 127.469 72.6984C126.869 70.6984 126.669 69.3984 126.669 69.3984L125.469 69.7984C124.569 70.1984 123.669 70.3984 122.769 70.5984L118.569 71.4984C118.569 71.4984 119.269 75.5984 120.469 79.8984C121.369 82.6984 122.369 85.4984 123.469 88.1984C120.969 89.9984 118.369 91.6984 115.669 93.1984C111.669 95.3984 107.069 97.2984 107.069 97.2984L111.069 101.598C112.069 102.598 113.069 103.598 114.169 104.398L115.669 105.698C115.669 105.698 117.169 104.998 119.369 103.798C120.569 103.298 121.369 102.498 122.469 101.598L125.869 99.0984C130.469 95.5984 135.469 92.2984 135.469 92.2984L135.669 91.2984ZM165.469 102.298C165.469 102.298 163.869 96.4984 161.969 90.8984C160.069 85.2984 158.069 79.3984 158.069 79.3984L156.469 79.5984L152.869 80.0984L147.669 80.7984L150.869 89.3984C151.669 91.4984 152.369 93.6984 152.869 95.2984L153.769 97.9984L151.369 99.3984C149.969 100.198 147.969 101.398 146.069 102.598L138.569 107.498L141.769 111.198C142.569 112.098 143.369 112.998 143.869 113.698C144.369 114.398 144.869 114.898 144.869 114.898C144.869 114.898 149.769 111.898 154.969 108.998C160.169 106.098 165.369 103.298 165.369 103.298L165.469 102.298ZM194.469 115.298C194.469 115.298 192.969 109.498 191.469 103.698L188.369 92.1984L178.069 92.8984C178.069 92.8984 179.269 97.2984 180.469 101.698C181.669 106.098 182.669 110.498 182.669 110.498L174.669 114.598C170.669 116.598 166.669 118.798 166.669 118.798L172.669 126.798L183.269 121.498L193.969 116.298L194.469 115.298ZM201.669 139.998L212.469 134.698L223.069 129.198L223.469 128.198C223.469 128.198 221.869 122.498 220.269 116.698L217.269 105.298L207.269 106.098L211.669 123.598L195.469 131.798L201.669 139.998ZM225.169 149.698L227.169 148.698V137.398L219.069 141.698L225.169 149.698ZM6.76865 5.09844C7.76865 3.99844 8.96865 2.49844 10.3687 0.998438H0.368652V5.69844L4.36865 8.09844L6.76865 5.09844ZM28.2687 8.69844C28.9687 9.49844 29.5687 10.2984 30.0687 11.0984L30.8687 12.2984L33.7687 10.1984C35.9687 8.59844 38.3687 7.19844 40.7687 5.99844C44.0687 4.19844 47.4687 2.49844 50.9687 1.09844H30.2687C27.4687 3.29844 25.3687 5.19844 25.3687 5.19844L28.2687 8.69844ZM63.2687 11.2984C61.0687 12.0984 58.8687 12.8984 57.2687 13.5984C55.6687 14.2984 54.5687 14.6984 54.5687 14.6984L56.8687 19.0984L59.1687 23.5984L62.7687 22.2984L70.8687 19.7984C76.8687 17.9984 82.8687 16.2984 82.8687 16.2984L83.4687 15.3984C83.4687 15.3984 83.0687 9.09844 82.4687 2.79844C82.4687 2.19844 82.4687 1.59844 82.3687 0.998438H71.5686C71.9686 4.89844 72.2687 8.19844 72.2687 8.19844C72.2687 8.19844 67.6687 9.69844 63.2687 11.2984ZM85.9687 39.2984C85.9687 39.2984 87.5687 38.8984 89.8687 38.1984C92.1687 37.4984 95.2687 36.5984 98.2687 35.6984C101.269 34.7984 104.369 33.5984 106.569 32.7984C108.769 31.9984 110.269 31.3984 110.269 31.3984L110.769 30.3984C110.769 30.3984 110.469 28.8984 110.069 26.4984C109.669 24.0984 109.269 21.0984 108.969 18.0984C108.669 14.9984 108.369 11.8984 108.169 9.69844C107.969 7.49844 107.869 5.89844 107.869 5.89844L102.769 5.49844C100.169 5.29844 97.5686 4.99844 97.5686 4.99844C97.5686 4.99844 97.8687 9.69844 98.1687 14.3984C98.4687 19.0984 98.9687 23.8984 98.9687 23.8984C98.9687 23.8984 94.4687 25.3984 89.8687 26.7984L80.6687 29.4984C80.6687 29.4984 81.8687 31.8984 83.2687 34.2984L85.9687 39.2984ZM113.569 57.7984C114.569 58.8984 115.669 59.8984 116.769 60.7984L118.369 62.0984C118.369 62.0984 119.969 61.2984 122.269 60.0984C123.469 59.4984 124.369 58.6984 125.569 57.7984L129.169 55.0984C134.069 51.4984 139.369 47.8984 139.369 47.8984L139.669 46.7984C139.669 46.7984 137.269 41.0984 134.569 35.1984C133.869 33.6984 133.169 32.2984 132.569 30.8984C131.969 29.4984 131.169 28.1984 130.969 27.1984C130.369 25.0984 130.069 23.6984 130.069 23.6984L128.869 24.1984C127.969 24.5984 126.969 24.8984 126.069 25.0984L121.569 25.9984C121.569 25.9984 122.269 30.2984 123.469 34.8984C124.369 37.8984 125.369 40.7984 126.569 43.6984C123.969 45.5984 121.169 47.2984 118.369 48.8984C114.069 51.1984 109.369 53.1984 109.369 53.1984C109.369 53.1984 111.469 55.5984 113.569 57.7984ZM147.969 70.5984L148.969 71.8984C148.969 71.8984 154.169 68.6984 159.569 65.6984C164.969 62.5984 170.469 59.6984 170.469 59.6984L170.869 58.6984C170.869 58.6984 169.169 52.5984 167.169 46.6984C165.169 40.7984 163.069 34.5984 163.069 34.5984L161.369 34.7984L157.569 35.2984L152.069 36.0984C152.069 36.0984 153.769 40.5984 155.469 45.0984C156.269 47.2984 157.069 49.5984 157.569 51.2984C158.069 52.9984 158.469 54.1984 158.469 54.1984L155.869 55.6984C154.369 56.5984 152.269 57.7984 150.269 59.0984L142.369 64.2984L145.669 68.0984L147.969 70.5984ZM189.569 78.7984L200.869 73.2984L201.369 72.2984L198.269 60.0984C196.669 53.9984 194.969 47.8984 194.969 47.8984L184.169 48.5984C184.169 48.5984 185.469 53.1984 186.669 57.8984L189.069 67.0984C189.069 67.0984 184.869 69.2984 180.569 71.3984C176.269 73.4984 172.169 75.7984 172.169 75.7984L178.469 84.1984C178.469 84.2984 184.069 81.4984 189.569 78.7984ZM214.669 62.5984L219.269 81.0984L202.269 89.6984L208.869 98.2984L220.269 92.6984L227.169 89.0984V69.1984L225.169 61.6984L214.669 62.5984ZM111.869 9.29844L116.269 13.9984C117.369 15.0984 118.469 16.1984 119.669 17.0984L121.369 18.4984C121.369 18.4984 123.069 17.6984 125.469 16.3984C126.769 15.7984 127.669 14.8984 128.969 13.9984L132.769 11.1984C137.969 7.39844 143.469 3.69844 143.469 3.69844L143.869 2.59844C143.869 2.59844 143.569 1.99844 143.169 0.898438H127.769C126.169 1.99844 123.969 3.39844 121.569 4.69844C116.869 7.19844 111.869 9.29844 111.869 9.29844ZM163.169 10.0984L160.469 11.6984C158.869 12.5984 156.769 13.8984 154.669 15.2984L146.369 20.6984L149.869 24.6984L152.269 27.4984L153.369 28.7984C153.369 28.7984 158.869 25.4984 164.469 22.2984C170.069 19.0984 175.969 15.9984 175.969 15.9984L176.469 14.8984C176.469 14.8984 174.669 8.49844 172.569 2.29844C172.469 1.89844 172.269 1.49844 172.169 1.09844H160.269C161.069 3.29844 161.769 5.49844 162.269 7.19844L163.169 10.0984ZM195.969 35.9984L207.769 30.2984L208.269 29.1984C208.269 29.1984 206.669 22.7984 204.969 16.3984C203.269 9.99844 201.469 3.59844 201.469 3.59844L190.169 4.39844C190.169 4.39844 191.569 9.19844 192.769 14.0984L195.269 23.7984L186.369 28.3984C181.969 30.6984 177.569 32.9984 177.569 32.9984L184.169 41.7984L195.969 35.9984ZM227.069 38.2984L209.169 47.3984L216.069 56.3984L227.169 50.8984V18.5984L222.169 18.9984L227.069 38.2984ZM223.269 14.5984L227.169 12.6984V0.998438H224.269L216.069 5.09844L223.269 14.5984Z" fill="#2C2C2C"/>
</svg>
