<svg width="20" height="21" viewBox="0 0 20 21" fill="none" xmlns="http://www.w3.org/2000/svg">
<path d="M15.6 9.3291V10.3291V16.6291C15.6 17.5291 14.8 18.3291 13.9 18.3291H4.7C3.7 18.3291 3 17.5291 3 16.6291V4.0291C3 3.1291 3.7 2.3291 4.7 2.3291H9H11" stroke="#FDFBF9" stroke-width="2" stroke-miterlimit="10" stroke-linecap="round" stroke-linejoin="round"/>
<path d="M8.4001 9.32896L7.6001 11.729C7.6001 11.829 7.6001 11.829 7.7001 11.829L10.1001 11.029C10.2001 11.029 10.4001 10.929 10.5001 10.829L17.0001 4.42896C17.4001 4.02896 17.4001 3.42896 17.0001 3.02896L16.5001 2.52896C16.1001 2.12896 15.5001 2.22896 15.2001 2.52896L8.7001 8.92896C8.6001 9.12896 8.5001 9.22896 8.4001 9.32896Z" stroke="#FDFBF9" stroke-width="1.5" stroke-miterlimit="10"/>
<path d="M13.3 3.5293L15.1 5.3293" stroke="#FDFBF9" stroke-width="1.5" stroke-miterlimit="10"/>
</svg>
