<svg width="20" height="21" viewBox="0 0 20 21" fill="none" xmlns="http://www.w3.org/2000/svg">
<path d="M9.9 18.3293C14.2631 18.3293 17.8 14.7923 17.8 10.4293C17.8 6.06625 14.2631 2.5293 9.9 2.5293C5.53695 2.5293 2 6.06625 2 10.4293C2 14.7923 5.53695 18.3293 9.9 18.3293Z" stroke="#FDFBF9" stroke-width="2" stroke-miterlimit="10"/>
<path d="M13.4 11.4292C13.5 13.4292 11.9 15.0292 9.90005 15.0292C7.90005 15.0292 6.30005 13.4292 6.30005 11.4292" stroke="#FDFBF9" stroke-width="2" stroke-miterlimit="10" stroke-linecap="round" stroke-linejoin="round"/>
<path d="M7.39995 9.3292C8.33884 9.3292 9.09995 8.56808 9.09995 7.6292C9.09995 6.69031 8.33884 5.9292 7.39995 5.9292C6.46107 5.9292 5.69995 6.69031 5.69995 7.6292C5.69995 8.56808 6.46107 9.3292 7.39995 9.3292Z" fill="#FDFBF9"/>
<path d="M12.4 9.3292C13.3388 9.3292 14.1 8.56808 14.1 7.6292C14.1 6.69031 13.3388 5.9292 12.4 5.9292C11.4611 5.9292 10.7 6.69031 10.7 7.6292C10.7 8.56808 11.4611 9.3292 12.4 9.3292Z" fill="#FDFBF9"/>
</svg>
