<svg width="20" height="21" viewBox="0 0 20 21" fill="none" xmlns="http://www.w3.org/2000/svg">
<path d="M10 18.7969C14.4183 18.7969 18 15.2152 18 10.7969C18 6.3786 14.4183 2.79688 10 2.79688C5.58172 2.79688 2 6.3786 2 10.7969C2 15.2152 5.58172 18.7969 10 18.7969Z" stroke="#FDFBF9" stroke-width="2" stroke-miterlimit="10"/>
<path d="M8.90005 13.0968C8.90005 12.3968 9.00005 11.8968 9.10005 11.4968C9.20005 11.0968 9.60005 10.6968 10 10.2968C10.4 9.89678 10.7 9.59678 10.9 9.39678C11 9.19678 11.1 8.89678 11.1 8.59678C11.1 7.79678 10.7 7.39678 10 7.39678C9.60005 7.39678 9.40005 7.49678 9.10005 7.69678C9.00005 7.89678 8.90005 8.19678 8.80005 8.59678H6.80005C6.80005 7.69678 7.10005 6.99678 7.70005 6.39678C8.20005 5.89678 9.00005 5.69678 10 5.69678C11 5.69678 11.8 5.89678 12.4 6.39678C13 6.89678 13.2 7.59678 13.2 8.49678C13.2 8.89678 13.1 9.29678 12.9 9.69678C12.7 10.0968 12.4 10.4968 11.9 10.8968L11.3 11.4968C10.9 11.8968 10.7 12.2968 10.7 12.6968V13.0968H8.90005V13.0968ZM8.70005 15.2968C8.70005 14.9968 8.80005 14.6968 9.00005 14.4968C9.20005 14.2968 9.50005 14.1968 9.80005 14.1968C10.1 14.1968 10.4 14.2968 10.6 14.4968C10.8 14.6968 10.9 14.9968 10.9 15.2968C10.9 15.5968 10.8 15.8968 10.6 16.0968C10.4 16.2968 10.1 16.3968 9.80005 16.3968C9.50005 16.3968 9.30005 16.2968 9.00005 16.0968C8.70005 15.8968 8.70005 15.5968 8.70005 15.2968Z" fill="#FDFBF9"/>
</svg>
