<svg width="20" height="21" viewBox="0 0 20 21" fill="none" xmlns="http://www.w3.org/2000/svg">
<path d="M16.8 16.1H3.2C2.5 16.1 2 15.6 2 14.9V4.7C2 4 2.5 3.5 3.2 3.5H16.8C17.5 3.5 18 4 18 4.7V14.9C18 15.6 17.5 16.1 16.8 16.1Z" stroke="#FDFBF9" stroke-width="2" stroke-miterlimit="10" stroke-linecap="round" stroke-linejoin="round"/>
<path d="M6.09998 8.6001C6.9284 8.6001 7.59998 7.92852 7.59998 7.1001C7.59998 6.27167 6.9284 5.6001 6.09998 5.6001C5.27155 5.6001 4.59998 6.27167 4.59998 7.1001C4.59998 7.92852 5.27155 8.6001 6.09998 8.6001Z" fill="#FDFBF9"/>
<path d="M4.69995 12.0003V13.5003H15.5V10.1003L12.2 6.80029L8.29995 10.8003L7.09995 9.60029L4.69995 12.0003Z" fill="#FDFBF9"/>
</svg>
