<svg width="20" height="20" viewBox="0 0 20 20" fill="none" xmlns="http://www.w3.org/2000/svg">
<path d="M15 5H16.8C16.9 5 16.9 5 17 5" stroke="#FDFBF9" stroke-width="2" stroke-linecap="round" stroke-linejoin="round"/>
<path d="M18 8.2998V16.7998C18 17.4998 17.5 17.9998 16.8 17.9998H6.40002" stroke="#FDFBF9" stroke-width="2" stroke-linecap="round" stroke-linejoin="round" stroke-dasharray="3.77 3.77"/>
<path d="M5 17C5 16.9 5 16.9 5 16.8V15" stroke="#FDFBF9" stroke-width="2" stroke-linecap="round" stroke-linejoin="round"/>
<path d="M13.8 15H3.2C2.5 15 2 14.5 2 13.8V3.2C2 2.5 2.5 2 3.2 2H13.8C14.5 2 15 2.5 15 3.2V13.8C15 14.5 14.5 15 13.8 15Z" stroke="#FDFBF9" stroke-width="2" stroke-miterlimit="10" stroke-linecap="round" stroke-linejoin="round"/>
</svg>
