<svg width="20" height="20" viewBox="0 0 20 20" fill="none" xmlns="http://www.w3.org/2000/svg">
<path d="M7.391 11.5999C5.991 10.6999 5.691 8.89989 6.591 7.59989L9.491 3.29989C10.391 1.99989 12.091 1.69989 13.391 2.49989H13.491C14.791 3.39989 15.091 5.09989 14.291 6.39989L11.391 10.6999C10.391 12.1999 8.591 12.4999 7.391 11.5999Z" stroke="#FDFBF9" stroke-width="2" stroke-miterlimit="10"/>
<path d="M12.9911 8.49986C14.0911 9.39986 14.2911 10.9999 13.3911 12.2999L10.5911 16.3999C9.69112 17.6999 7.99112 18.0999 6.69112 17.2999L6.39112 17.0999C5.19112 16.2999 4.89112 14.4999 5.79112 13.1999L6.79112 11.6999L7.09112 11.2999L7.39112 10.9999L8.69112 8.99986C9.59112 7.69986 11.2911 7.29986 12.5911 8.09986L12.7911 8.19986" stroke="#FDFBF9" stroke-width="2" stroke-miterlimit="10"/>
</svg>
