<svg width="20" height="21" viewBox="0 0 20 21" fill="none" xmlns="http://www.w3.org/2000/svg">
<path d="M10 18.8286C14.4183 18.8286 18 15.2469 18 10.8286C18 6.41034 14.4183 2.82861 10 2.82861C5.58172 2.82861 2 6.41034 2 10.8286C2 15.2469 5.58172 18.8286 10 18.8286Z" stroke="#FDFBF9" stroke-width="1.5" stroke-miterlimit="10"/>
<path d="M10 2.92871V18.8287" stroke="#FDFBF9" stroke-miterlimit="10"/>
<path d="M2.1001 10.9287H18.0001" stroke="#FDFBF9" stroke-miterlimit="10"/>
<path d="M4 5.42852C4 5.42852 10.2 9.32852 15.8 5.22852" stroke="#FDFBF9" stroke-miterlimit="10"/>
<path d="M15.8 16.2288C15.8 16.2288 9.6 12.3288 4 16.4288" stroke="#FDFBF9" stroke-miterlimit="10"/>
<path d="M8.49997 3.12842C8.49997 3.12842 1.99997 9.82842 8.49997 18.8284" stroke="#FDFBF9" stroke-miterlimit="10"/>
<path d="M11.6001 18.8284C11.6001 18.8284 18.1001 12.1284 11.6001 3.12842" stroke="#FDFBF9" stroke-miterlimit="10"/>
</svg>
