<svg width="76" height="98" viewBox="0 0 76 98" fill="none" xmlns="http://www.w3.org/2000/svg">
<g filter="url(#filter0_d_1995_9154)">
<g filter="url(#filter1_f_1995_9154)">
<ellipse cx="38.3311" cy="84.0602" rx="26.6319" ry="5.03672" fill="#2C2C2C" fill-opacity="0.35"/>
</g>
<path d="M69.9132 34.3124C69.9132 46.7907 61.8577 58.5586 53.5305 67.3484C49.3955 71.7131 45.2557 75.2785 42.1481 77.753C40.5954 78.9894 39.3033 79.9513 38.402 80.6022C38.167 80.7719 37.9586 80.9204 37.7792 81.0472C37.5998 80.9204 37.3914 80.7719 37.1564 80.6022C36.2551 79.9513 34.9629 78.9894 33.4103 77.753C30.3027 75.2785 26.1629 71.7131 22.0279 67.3484C13.7007 58.5586 5.64518 46.7907 5.64518 34.3124C5.64518 25.7899 9.03072 17.6165 15.057 11.5902C21.0833 5.56392 29.2567 2.17838 37.7792 2.17838C46.3017 2.17838 54.4751 5.56392 60.5014 11.5902C66.5277 17.6165 69.9132 25.7899 69.9132 34.3124Z" fill="#0567FF"/>
<path d="M69.9132 34.3124C69.9132 46.7907 61.8577 58.5586 53.5305 67.3484C49.3955 71.7131 45.2557 75.2785 42.1481 77.753C40.5954 78.9894 39.3033 79.9513 38.402 80.6022C38.167 80.7719 37.9586 80.9204 37.7792 81.0472C37.5998 80.9204 37.3914 80.7719 37.1564 80.6022C36.2551 79.9513 34.9629 78.9894 33.4103 77.753C30.3027 75.2785 26.1629 71.7131 22.0279 67.3484C13.7007 58.5586 5.64518 46.7907 5.64518 34.3124C5.64518 25.7899 9.03072 17.6165 15.057 11.5902C21.0833 5.56392 29.2567 2.17838 37.7792 2.17838C46.3017 2.17838 54.4751 5.56392 60.5014 11.5902C66.5277 17.6165 69.9132 25.7899 69.9132 34.3124Z" stroke="#0567FF" stroke-width="2.79426" stroke-linecap="round" stroke-linejoin="round"/>
<path d="M69.9132 34.3124C69.9132 46.7907 61.8577 58.5586 53.5305 67.3484C49.3955 71.7131 45.2557 75.2785 42.1481 77.753C40.5954 78.9894 39.3033 79.9513 38.402 80.6022C38.167 80.7719 37.9586 80.9204 37.7792 81.0472C37.5998 80.9204 37.3914 80.7719 37.1564 80.6022C36.2551 79.9513 34.9629 78.9894 33.4103 77.753C30.3027 75.2785 26.1629 71.7131 22.0279 67.3484C13.7007 58.5586 5.64518 46.7907 5.64518 34.3124C5.64518 25.7899 9.03072 17.6165 15.057 11.5902C21.0833 5.56392 29.2567 2.17838 37.7792 2.17838C46.3017 2.17838 54.4751 5.56392 60.5014 11.5902C66.5277 17.6165 69.9132 25.7899 69.9132 34.3124Z" stroke="#2C2C2C" stroke-opacity="0.5" stroke-width="2.79426" stroke-linecap="round" stroke-linejoin="round"/>
<circle cx="37.7797" cy="34.309" r="14.675" fill="#FDFBF9" stroke="#959595" stroke-width="0.455481"/>
</g>
<defs>
<filter id="filter0_d_1995_9154" x="0.248047" y="0.78125" width="75.0625" height="96.3125" filterUnits="userSpaceOnUse" color-interpolation-filters="sRGB">
<feFlood flood-opacity="0" result="BackgroundImageFix"/>
<feColorMatrix in="SourceAlpha" type="matrix" values="0 0 0 0 0 0 0 0 0 0 0 0 0 0 0 0 0 0 127 0" result="hardAlpha"/>
<feOffset dy="4"/>
<feGaussianBlur stdDeviation="2"/>
<feComposite in2="hardAlpha" operator="out"/>
<feColorMatrix type="matrix" values="0 0 0 0 0 0 0 0 0 0 0 0 0 0 0 0 0 0 0.25 0"/>
<feBlend mode="normal" in2="BackgroundImageFix" result="effect1_dropShadow_1995_9154"/>
<feBlend mode="normal" in="SourceGraphic" in2="effect1_dropShadow_1995_9154" result="shape"/>
</filter>
<filter id="filter1_f_1995_9154" x="4.24785" y="71.5721" width="68.1664" height="24.973" filterUnits="userSpaceOnUse" color-interpolation-filters="sRGB">
<feFlood flood-opacity="0" result="BackgroundImageFix"/>
<feBlend mode="normal" in="SourceGraphic" in2="BackgroundImageFix" result="shape"/>
<feGaussianBlur stdDeviation="3.72568" result="effect1_foregroundBlur_1995_9154"/>
</filter>
</defs>
</svg>
