<svg width="86" height="121" viewBox="0 0 86 121" fill="none" xmlns="http://www.w3.org/2000/svg">
<g filter="url(#filter0_f_2036_9178)">
<ellipse cx="42.5074" cy="104.453" rx="33.2144" ry="6.28163" fill="#2C2C2C" fill-opacity="0.35"/>
</g>
<path d="M81.8953 42.4126C81.8953 57.9752 71.8488 72.6516 61.4634 83.614C56.3063 89.0575 51.1433 93.5041 47.2677 96.5902C45.3312 98.1322 43.7196 99.3318 42.5956 100.144C42.3025 100.355 42.0426 100.541 41.8189 100.699C41.5951 100.541 41.3352 100.355 41.0422 100.144C39.9181 99.3318 38.3065 98.1322 36.3701 96.5902C32.4944 93.5041 27.3314 89.0575 22.1744 83.614C11.789 72.6516 1.74245 57.9752 1.74245 42.4126C1.74245 31.7837 5.96478 21.5901 13.4806 14.0743C20.9964 6.55853 31.1899 2.3362 41.8189 2.3362C52.4478 2.3362 62.6414 6.55853 70.1572 14.0743C77.673 21.5901 81.8953 31.7837 81.8953 42.4126Z" fill="#3E9A00"/>
<path d="M81.8953 42.4126C81.8953 57.9752 71.8488 72.6516 61.4634 83.614C56.3063 89.0575 51.1433 93.5041 47.2677 96.5902C45.3312 98.1322 43.7196 99.3318 42.5956 100.144C42.3025 100.355 42.0426 100.541 41.8189 100.699C41.5951 100.541 41.3352 100.355 41.0422 100.144C39.9181 99.3318 38.3065 98.1322 36.3701 96.5902C32.4944 93.5041 27.3314 89.0575 22.1744 83.614C11.789 72.6516 1.74245 57.9752 1.74245 42.4126C1.74245 31.7837 5.96478 21.5901 13.4806 14.0743C20.9964 6.55853 31.1899 2.3362 41.8189 2.3362C52.4478 2.3362 62.6414 6.55853 70.1572 14.0743C77.673 21.5901 81.8953 31.7837 81.8953 42.4126Z" stroke="#3E9A00" stroke-width="3.48491" stroke-linecap="round" stroke-linejoin="round"/>
<path d="M81.8953 42.4126C81.8953 57.9752 71.8488 72.6516 61.4634 83.614C56.3063 89.0575 51.1433 93.5041 47.2677 96.5902C45.3312 98.1322 43.7196 99.3318 42.5956 100.144C42.3025 100.355 42.0426 100.541 41.8189 100.699C41.5951 100.541 41.3352 100.355 41.0422 100.144C39.9181 99.3318 38.3065 98.1322 36.3701 96.5902C32.4944 93.5041 27.3314 89.0575 22.1744 83.614C11.789 72.6516 1.74245 57.9752 1.74245 42.4126C1.74245 31.7837 5.96478 21.5901 13.4806 14.0743C20.9964 6.55853 31.1899 2.3362 41.8189 2.3362C52.4478 2.3362 62.6414 6.55853 70.1572 14.0743C77.673 21.5901 81.8953 31.7837 81.8953 42.4126Z" stroke="#2C2C2C" stroke-opacity="0.5" stroke-width="3.48491" stroke-linecap="round" stroke-linejoin="round"/>
<circle cx="41.8186" cy="42.4143" r="18.3538" fill="#FDFBF9" stroke="#959595" stroke-width="0.464654"/>
<defs>
<filter id="filter0_f_2036_9178" x="-0.000114441" y="88.8788" width="85.0159" height="31.1487" filterUnits="userSpaceOnUse" color-interpolation-filters="sRGB">
<feFlood flood-opacity="0" result="BackgroundImageFix"/>
<feBlend mode="normal" in="SourceGraphic" in2="BackgroundImageFix" result="shape"/>
<feGaussianBlur stdDeviation="4.64654" result="effect1_foregroundBlur_2036_9178"/>
</filter>
</defs>
</svg>
