<svg width="86" height="120" viewBox="0 0 86 120" fill="none" xmlns="http://www.w3.org/2000/svg">
<g filter="url(#filter0_f_2036_9185)">
<ellipse cx="42.5074" cy="103.977" rx="33.2144" ry="6.28163" fill="#2C2C2C" fill-opacity="0.35"/>
</g>
<path d="M81.8953 41.9361C81.8953 57.4986 71.8488 72.175 61.4634 83.1374C56.3063 88.581 51.1433 93.0275 47.2677 96.1137C45.3312 97.6557 43.7196 98.8553 42.5956 99.6671C42.3025 99.8787 42.0426 100.064 41.8189 100.222C41.5951 100.064 41.3352 99.8787 41.0422 99.6671C39.9181 98.8553 38.3065 97.6557 36.3701 96.1137C32.4944 93.0275 27.3314 88.581 22.1744 83.1374C11.789 72.175 1.74245 57.4986 1.74245 41.9361C1.74245 31.3071 5.96478 21.1135 13.4806 13.5978C20.9964 6.08196 31.1899 1.85964 41.8189 1.85964C52.4478 1.85964 62.6414 6.08196 70.1572 13.5978C77.673 21.1135 81.8953 31.3071 81.8953 41.9361Z" fill="#F25900"/>
<path d="M81.8953 41.9361C81.8953 57.4986 71.8488 72.175 61.4634 83.1374C56.3063 88.581 51.1433 93.0275 47.2677 96.1137C45.3312 97.6557 43.7196 98.8553 42.5956 99.6671C42.3025 99.8787 42.0426 100.064 41.8189 100.222C41.5951 100.064 41.3352 99.8787 41.0422 99.6671C39.9181 98.8553 38.3065 97.6557 36.3701 96.1137C32.4944 93.0275 27.3314 88.581 22.1744 83.1374C11.789 72.175 1.74245 57.4986 1.74245 41.9361C1.74245 31.3071 5.96478 21.1135 13.4806 13.5978C20.9964 6.08196 31.1899 1.85964 41.8189 1.85964C52.4478 1.85964 62.6414 6.08196 70.1572 13.5978C77.673 21.1135 81.8953 31.3071 81.8953 41.9361Z" stroke="#F25900" stroke-width="3.48491" stroke-linecap="round" stroke-linejoin="round"/>
<path d="M81.8953 41.9361C81.8953 57.4986 71.8488 72.175 61.4634 83.1374C56.3063 88.581 51.1433 93.0275 47.2677 96.1137C45.3312 97.6557 43.7196 98.8553 42.5956 99.6671C42.3025 99.8787 42.0426 100.064 41.8189 100.222C41.5951 100.064 41.3352 99.8787 41.0422 99.6671C39.9181 98.8553 38.3065 97.6557 36.3701 96.1137C32.4944 93.0275 27.3314 88.581 22.1744 83.1374C11.789 72.175 1.74245 57.4986 1.74245 41.9361C1.74245 31.3071 5.96478 21.1135 13.4806 13.5978C20.9964 6.08196 31.1899 1.85964 41.8189 1.85964C52.4478 1.85964 62.6414 6.08196 70.1572 13.5978C77.673 21.1135 81.8953 31.3071 81.8953 41.9361Z" stroke="#2C2C2C" stroke-opacity="0.5" stroke-width="3.48491" stroke-linecap="round" stroke-linejoin="round"/>
<circle cx="41.8186" cy="41.9377" r="18.3538" fill="#FDFBF9" stroke="#959595" stroke-width="0.464654"/>
<defs>
<filter id="filter0_f_2036_9185" x="-0.000114441" y="88.4022" width="85.0159" height="31.1487" filterUnits="userSpaceOnUse" color-interpolation-filters="sRGB">
<feFlood flood-opacity="0" result="BackgroundImageFix"/>
<feBlend mode="normal" in="SourceGraphic" in2="BackgroundImageFix" result="shape"/>
<feGaussianBlur stdDeviation="4.64654" result="effect1_foregroundBlur_2036_9185"/>
</filter>
</defs>
</svg>
