<svg width="86" height="121" viewBox="0 0 86 121" fill="none" xmlns="http://www.w3.org/2000/svg">
<g filter="url(#filter0_f_2036_9192)">
<ellipse cx="42.5074" cy="104.641" rx="33.2144" ry="6.28163" fill="#2C2C2C" fill-opacity="0.35"/>
</g>
<path d="M81.8953 42.6001C81.8953 58.1627 71.8488 72.8391 61.4634 83.8015C56.3063 89.245 51.1433 93.6916 47.2677 96.7777C45.3312 98.3197 43.7196 99.5193 42.5956 100.331C42.3025 100.543 42.0426 100.728 41.8189 100.886C41.5951 100.728 41.3352 100.543 41.0422 100.331C39.9181 99.5193 38.3065 98.3197 36.3701 96.7777C32.4944 93.6916 27.3314 89.245 22.1744 83.8015C11.789 72.8391 1.74245 58.1627 1.74245 42.6001C1.74245 31.9712 5.96478 21.7776 13.4806 14.2618C20.9964 6.74603 31.1899 2.5237 41.8189 2.5237C52.4478 2.5237 62.6414 6.74603 70.1572 14.2618C77.673 21.7776 81.8953 31.9712 81.8953 42.6001Z" fill="#FFA400"/>
<path d="M81.8953 42.6001C81.8953 58.1627 71.8488 72.8391 61.4634 83.8015C56.3063 89.245 51.1433 93.6916 47.2677 96.7777C45.3312 98.3197 43.7196 99.5193 42.5956 100.331C42.3025 100.543 42.0426 100.728 41.8189 100.886C41.5951 100.728 41.3352 100.543 41.0422 100.331C39.9181 99.5193 38.3065 98.3197 36.3701 96.7777C32.4944 93.6916 27.3314 89.245 22.1744 83.8015C11.789 72.8391 1.74245 58.1627 1.74245 42.6001C1.74245 31.9712 5.96478 21.7776 13.4806 14.2618C20.9964 6.74603 31.1899 2.5237 41.8189 2.5237C52.4478 2.5237 62.6414 6.74603 70.1572 14.2618C77.673 21.7776 81.8953 31.9712 81.8953 42.6001Z" stroke="#FFA400" stroke-width="3.48491" stroke-linecap="round" stroke-linejoin="round"/>
<path d="M81.8953 42.6001C81.8953 58.1627 71.8488 72.8391 61.4634 83.8015C56.3063 89.245 51.1433 93.6916 47.2677 96.7777C45.3312 98.3197 43.7196 99.5193 42.5956 100.331C42.3025 100.543 42.0426 100.728 41.8189 100.886C41.5951 100.728 41.3352 100.543 41.0422 100.331C39.9181 99.5193 38.3065 98.3197 36.3701 96.7777C32.4944 93.6916 27.3314 89.245 22.1744 83.8015C11.789 72.8391 1.74245 58.1627 1.74245 42.6001C1.74245 31.9712 5.96478 21.7776 13.4806 14.2618C20.9964 6.74603 31.1899 2.5237 41.8189 2.5237C52.4478 2.5237 62.6414 6.74603 70.1572 14.2618C77.673 21.7776 81.8953 31.9712 81.8953 42.6001Z" stroke="#2C2C2C" stroke-opacity="0.5" stroke-width="3.48491" stroke-linecap="round" stroke-linejoin="round"/>
<circle cx="41.8186" cy="42.6018" r="18.3538" fill="#FDFBF9" stroke="#959595" stroke-width="0.464654"/>
<defs>
<filter id="filter0_f_2036_9192" x="-0.000114441" y="89.0663" width="85.0159" height="31.1487" filterUnits="userSpaceOnUse" color-interpolation-filters="sRGB">
<feFlood flood-opacity="0" result="BackgroundImageFix"/>
<feBlend mode="normal" in="SourceGraphic" in2="BackgroundImageFix" result="shape"/>
<feGaussianBlur stdDeviation="4.64654" result="effect1_foregroundBlur_2036_9192"/>
</filter>
</defs>
</svg>
