<svg width="99" height="139" viewBox="0 0 99 139" fill="none" xmlns="http://www.w3.org/2000/svg">
<g filter="url(#filter0_f_601_47107)">
<ellipse cx="49.6673" cy="120.449" rx="38.5208" ry="7.2852" fill="#2C2C2C" fill-opacity="0.35"/>
</g>
<path d="M95.3483 48.5C95.3483 66.5489 83.6967 83.5701 71.6521 96.2838C65.6711 102.597 59.6833 107.754 55.1884 111.333C52.9426 113.122 51.0736 114.513 49.7699 115.454C49.43 115.7 49.1287 115.915 48.8691 116.098C48.6096 115.915 48.3082 115.7 47.9683 115.454C46.6647 114.513 44.7957 113.122 42.5498 111.333C38.055 107.754 32.0671 102.597 26.0862 96.2838C14.0416 83.5701 2.38997 66.5489 2.38997 48.5C2.38997 36.173 7.28687 24.3508 16.0034 15.6343C24.7199 6.91773 36.5421 2.02083 48.8691 2.02083C61.1962 2.02083 73.0183 6.91773 81.7349 15.6343C90.4514 24.3508 95.3483 36.173 95.3483 48.5Z" fill="#0567FF"/>
<path d="M95.3483 48.5C95.3483 66.5489 83.6967 83.5701 71.6521 96.2838C65.6711 102.597 59.6833 107.754 55.1884 111.333C52.9426 113.122 51.0736 114.513 49.7699 115.454C49.43 115.7 49.1287 115.915 48.8691 116.098C48.6096 115.915 48.3082 115.7 47.9683 115.454C46.6647 114.513 44.7957 113.122 42.5498 111.333C38.055 107.754 32.0671 102.597 26.0862 96.2838C14.0416 83.5701 2.38997 66.5489 2.38997 48.5C2.38997 36.173 7.28687 24.3508 16.0034 15.6343C24.7199 6.91773 36.5421 2.02083 48.8691 2.02083C61.1962 2.02083 73.0183 6.91773 81.7349 15.6343C90.4514 24.3508 95.3483 36.173 95.3483 48.5Z" stroke="#0567FF" stroke-width="4.04167" stroke-linecap="round" stroke-linejoin="round"/>
<path d="M95.3483 48.5C95.3483 66.5489 83.6967 83.5701 71.6521 96.2838C65.6711 102.597 59.6833 107.754 55.1884 111.333C52.9426 113.122 51.0736 114.513 49.7699 115.454C49.43 115.7 49.1287 115.915 48.8691 116.098C48.6096 115.915 48.3082 115.7 47.9683 115.454C46.6647 114.513 44.7957 113.122 42.5498 111.333C38.055 107.754 32.0671 102.597 26.0862 96.2838C14.0416 83.5701 2.38997 66.5489 2.38997 48.5C2.38997 36.173 7.28687 24.3508 16.0034 15.6343C24.7199 6.91773 36.5421 2.02083 48.8691 2.02083C61.1962 2.02083 73.0183 6.91773 81.7349 15.6343C90.4514 24.3508 95.3483 36.173 95.3483 48.5Z" stroke="#2C2C2C" stroke-opacity="0.5" stroke-width="4.04167" stroke-linecap="round" stroke-linejoin="round"/>
<circle cx="48.87" cy="48.5009" r="21.2861" fill="#FDFBF9" stroke="#959595" stroke-width="0.538889"/>
<defs>
<filter id="filter0_f_601_47107" x="0.368707" y="102.386" width="98.5966" height="36.1259" filterUnits="userSpaceOnUse" color-interpolation-filters="sRGB">
<feFlood flood-opacity="0" result="BackgroundImageFix"/>
<feBlend mode="normal" in="SourceGraphic" in2="BackgroundImageFix" result="shape"/>
<feGaussianBlur stdDeviation="5.38889" result="effect1_foregroundBlur_601_47107"/>
</filter>
</defs>
</svg>
