<svg width="215" height="301" viewBox="0 0 215 301" fill="none" xmlns="http://www.w3.org/2000/svg">
<g filter="url(#filter0_f_1995_9256)">
<ellipse cx="107.583" cy="261.291" rx="83.4149" ry="15.7757" fill="#2C2C2C" fill-opacity="0.35"/>
</g>
<path d="M206.503 105.485C206.503 144.569 181.272 181.428 155.19 208.959C142.238 222.63 129.272 233.797 119.538 241.547C114.675 245.42 110.628 248.432 107.805 250.471C107.069 251.003 106.416 251.468 105.854 251.865C105.292 251.468 104.64 251.003 103.904 250.471C101.081 248.432 97.0335 245.42 92.1702 241.547C82.4369 233.797 69.4705 222.63 56.519 208.959C30.437 181.428 5.20609 144.569 5.20609 105.485C5.20609 78.7916 15.8101 53.1913 34.6853 34.3161C53.5605 15.4409 79.1608 4.83695 105.854 4.83695C132.548 4.83695 158.148 15.4409 177.023 34.3161C195.899 53.1913 206.503 78.7916 206.503 105.485Z" fill="#F45197" stroke="#DC005E" stroke-width="8.75202" stroke-linecap="round" stroke-linejoin="round"/>
<circle cx="105.855" cy="105.482" r="45.9641" fill="#FDFBF9" stroke="#959595" stroke-width="1.42663"/>
<defs>
<filter id="filter0_f_1995_9256" x="0.829245" y="222.177" width="213.508" height="78.2321" filterUnits="userSpaceOnUse" color-interpolation-filters="sRGB">
<feFlood flood-opacity="0" result="BackgroundImageFix"/>
<feBlend mode="normal" in="SourceGraphic" in2="BackgroundImageFix" result="shape"/>
<feGaussianBlur stdDeviation="11.6694" result="effect1_foregroundBlur_1995_9256"/>
</filter>
</defs>
</svg>
