<svg width="86" height="120" viewBox="0 0 86 120" fill="none" xmlns="http://www.w3.org/2000/svg">
<g filter="url(#filter0_f_2036_9171)">
<ellipse cx="42.5074" cy="104.016" rx="33.2144" ry="6.28163" fill="#2C2C2C" fill-opacity="0.35"/>
</g>
<path d="M81.8953 41.9751C81.8953 57.5377 71.8488 72.2141 61.4634 83.1765C56.3063 88.62 51.1433 93.0666 47.2677 96.1527C45.3312 97.6947 43.7196 98.8943 42.5956 99.7061C42.3025 99.9178 42.0426 100.103 41.8189 100.261C41.5951 100.103 41.3352 99.9178 41.0422 99.7061C39.9181 98.8943 38.3065 97.6947 36.3701 96.1527C32.4944 93.0666 27.3314 88.62 22.1744 83.1765C11.789 72.2141 1.74245 57.5377 1.74245 41.9751C1.74245 31.3462 5.96478 21.1526 13.4806 13.6368C20.9964 6.12103 31.1899 1.8987 41.8189 1.8987C52.4478 1.8987 62.6414 6.12103 70.1572 13.6368C77.673 21.1526 81.8953 31.3462 81.8953 41.9751Z" fill="#9E6CFF"/>
<path d="M81.8953 41.9751C81.8953 57.5377 71.8488 72.2141 61.4634 83.1765C56.3063 88.62 51.1433 93.0666 47.2677 96.1527C45.3312 97.6947 43.7196 98.8943 42.5956 99.7061C42.3025 99.9178 42.0426 100.103 41.8189 100.261C41.5951 100.103 41.3352 99.9178 41.0422 99.7061C39.9181 98.8943 38.3065 97.6947 36.3701 96.1527C32.4944 93.0666 27.3314 88.62 22.1744 83.1765C11.789 72.2141 1.74245 57.5377 1.74245 41.9751C1.74245 31.3462 5.96478 21.1526 13.4806 13.6368C20.9964 6.12103 31.1899 1.8987 41.8189 1.8987C52.4478 1.8987 62.6414 6.12103 70.1572 13.6368C77.673 21.1526 81.8953 31.3462 81.8953 41.9751Z" stroke="#9E6CFF" stroke-width="3.48491" stroke-linecap="round" stroke-linejoin="round"/>
<path d="M81.8953 41.9751C81.8953 57.5377 71.8488 72.2141 61.4634 83.1765C56.3063 88.62 51.1433 93.0666 47.2677 96.1527C45.3312 97.6947 43.7196 98.8943 42.5956 99.7061C42.3025 99.9178 42.0426 100.103 41.8189 100.261C41.5951 100.103 41.3352 99.9178 41.0422 99.7061C39.9181 98.8943 38.3065 97.6947 36.3701 96.1527C32.4944 93.0666 27.3314 88.62 22.1744 83.1765C11.789 72.2141 1.74245 57.5377 1.74245 41.9751C1.74245 31.3462 5.96478 21.1526 13.4806 13.6368C20.9964 6.12103 31.1899 1.8987 41.8189 1.8987C52.4478 1.8987 62.6414 6.12103 70.1572 13.6368C77.673 21.1526 81.8953 31.3462 81.8953 41.9751Z" stroke="#2C2C2C" stroke-opacity="0.5" stroke-width="3.48491" stroke-linecap="round" stroke-linejoin="round"/>
<circle cx="41.8186" cy="41.9768" r="18.3538" fill="#FDFBF9" stroke="#959595" stroke-width="0.464654"/>
<defs>
<filter id="filter0_f_2036_9171" x="-0.000114441" y="88.4413" width="85.0159" height="31.1487" filterUnits="userSpaceOnUse" color-interpolation-filters="sRGB">
<feFlood flood-opacity="0" result="BackgroundImageFix"/>
<feBlend mode="normal" in="SourceGraphic" in2="BackgroundImageFix" result="shape"/>
<feGaussianBlur stdDeviation="4.64654" result="effect1_foregroundBlur_2036_9171"/>
</filter>
</defs>
</svg>
