<svg width="85" height="103" viewBox="0 0 85 103" fill="none" xmlns="http://www.w3.org/2000/svg">
<path d="M43.0558 99.8381C42.8739 99.9695 42.7049 100.091 42.5495 100.201C42.394 100.091 42.225 99.9695 42.0431 99.8381C40.9223 99.0286 39.3138 97.8314 37.3804 96.2918C33.5099 93.2097 28.3552 88.7701 23.2079 83.3369C12.823 72.375 2.86778 57.7864 2.86778 42.3834C2.86778 31.8592 7.04852 21.766 14.4903 14.3243C21.932 6.8825 32.0252 2.70177 42.5495 2.70177C53.0737 2.70177 63.1669 6.8825 70.6086 14.3243C78.0504 21.766 82.2311 31.8592 82.2311 42.3834C82.2311 57.7864 72.2759 72.375 61.891 83.3369C56.7438 88.7701 51.589 93.2097 47.7186 96.2918C45.7851 97.8314 44.1766 99.0286 43.0558 99.8381ZM42.5621 61.3604C53.0479 61.3604 61.5484 52.8599 61.5484 42.3741C61.5484 31.8883 53.0479 23.3879 42.5621 23.3879C32.0763 23.3879 23.5758 31.8883 23.5758 42.3741C23.5758 52.8599 32.0763 61.3604 42.5621 61.3604Z" fill="#0567FF" stroke="#0050CC" stroke-width="4.41916" stroke-linecap="round" stroke-linejoin="round"/>
</svg>
