<svg width="85" height="104" viewBox="0 0 85 104" fill="none" xmlns="http://www.w3.org/2000/svg">
<path d="M43.0558 99.9944C42.8739 100.126 42.7049 100.247 42.5495 100.358C42.394 100.247 42.225 100.126 42.0431 99.9944C40.9223 99.1849 39.3138 97.9876 37.3804 96.448C33.5099 93.366 28.3552 88.9264 23.2079 83.4931C12.823 72.5313 2.86778 57.9426 2.86778 42.5397C2.86778 32.0155 7.04852 21.9223 14.4903 14.4805C21.932 7.03875 32.0252 2.85802 42.5495 2.85802C53.0737 2.85802 63.1669 7.03875 70.6086 14.4805C78.0504 21.9223 82.2311 32.0155 82.2311 42.5397C82.2311 57.9426 72.2759 72.5313 61.891 83.4931C56.7438 88.9264 51.589 93.366 47.7186 96.448C45.7851 97.9876 44.1766 99.1849 43.0558 99.9944ZM42.5621 61.5166C53.0479 61.5166 61.5484 53.0162 61.5484 42.5304C61.5484 32.0445 53.0479 23.5441 42.5621 23.5441C32.0763 23.5441 23.5758 32.0445 23.5758 42.5304C23.5758 53.0162 32.0763 61.5166 42.5621 61.5166Z" fill="#FFA400"/>
<path d="M43.0558 99.9944C42.8739 100.126 42.7049 100.247 42.5495 100.358C42.394 100.247 42.225 100.126 42.0431 99.9944C40.9223 99.1849 39.3138 97.9876 37.3804 96.448C33.5099 93.366 28.3552 88.9264 23.2079 83.4931C12.823 72.5313 2.86778 57.9426 2.86778 42.5397C2.86778 32.0155 7.04852 21.9223 14.4903 14.4805C21.932 7.03875 32.0252 2.85802 42.5495 2.85802C53.0737 2.85802 63.1669 7.03875 70.6086 14.4805C78.0504 21.9223 82.2311 32.0155 82.2311 42.5397C82.2311 57.9426 72.2759 72.5313 61.891 83.4931C56.7438 88.9264 51.589 93.366 47.7186 96.448C45.7851 97.9876 44.1766 99.1849 43.0558 99.9944ZM42.5621 61.5166C53.0479 61.5166 61.5484 53.0162 61.5484 42.5304C61.5484 32.0445 53.0479 23.5441 42.5621 23.5441C32.0763 23.5441 23.5758 32.0445 23.5758 42.5304C23.5758 53.0162 32.0763 61.5166 42.5621 61.5166Z" stroke="#FFA400" stroke-width="4.41916" stroke-linecap="round" stroke-linejoin="round"/>
<path d="M43.0558 99.9944C42.8739 100.126 42.7049 100.247 42.5495 100.358C42.394 100.247 42.225 100.126 42.0431 99.9944C40.9223 99.1849 39.3138 97.9876 37.3804 96.448C33.5099 93.366 28.3552 88.9264 23.2079 83.4931C12.823 72.5313 2.86778 57.9426 2.86778 42.5397C2.86778 32.0155 7.04852 21.9223 14.4903 14.4805C21.932 7.03875 32.0252 2.85802 42.5495 2.85802C53.0737 2.85802 63.1669 7.03875 70.6086 14.4805C78.0504 21.9223 82.2311 32.0155 82.2311 42.5397C82.2311 57.9426 72.2759 72.5313 61.891 83.4931C56.7438 88.9264 51.589 93.366 47.7186 96.448C45.7851 97.9876 44.1766 99.1849 43.0558 99.9944ZM42.5621 61.5166C53.0479 61.5166 61.5484 53.0162 61.5484 42.5304C61.5484 32.0445 53.0479 23.5441 42.5621 23.5441C32.0763 23.5441 23.5758 32.0445 23.5758 42.5304C23.5758 53.0162 32.0763 61.5166 42.5621 61.5166Z" stroke="#2C2C2C" stroke-opacity="0.5" stroke-width="4.41916" stroke-linecap="round" stroke-linejoin="round"/>
</svg>
