<svg width="37" height="52" viewBox="0 0 37 52" fill="none" xmlns="http://www.w3.org/2000/svg">
<g filter="url(#filter0_f_1432_8996)">
<ellipse cx="18.2964" cy="44.7038" rx="14.2964" ry="2.70379" fill="#2C2C2C" fill-opacity="0.35"/>
</g>
<path d="M35.25 18C35.25 24.6985 30.9257 31.0157 26.4555 35.7342C24.2358 38.0773 22.0135 39.9912 20.3453 41.3195C19.5118 41.9833 18.8181 42.4996 18.3343 42.849C18.2082 42.9401 18.0963 43.0199 18 43.0879C17.9037 43.0199 17.7918 42.9401 17.6657 42.849C17.1819 42.4996 16.4882 41.9833 15.6547 41.3195C13.9865 39.9912 11.7642 38.0773 9.54447 35.7342C5.0743 31.0157 0.75 24.6985 0.75 18C0.75 13.425 2.56741 9.03741 5.80241 5.80241C9.03741 2.56741 13.425 0.75 18 0.75C22.575 0.75 26.9626 2.56741 30.1976 5.80241C33.4326 9.03741 35.25 13.425 35.25 18Z" fill="#0567FF"/>
<path d="M35.25 18C35.25 24.6985 30.9257 31.0157 26.4555 35.7342C24.2358 38.0773 22.0135 39.9912 20.3453 41.3195C19.5118 41.9833 18.8181 42.4996 18.3343 42.849C18.2082 42.9401 18.0963 43.0199 18 43.0879C17.9037 43.0199 17.7918 42.9401 17.6657 42.849C17.1819 42.4996 16.4882 41.9833 15.6547 41.3195C13.9865 39.9912 11.7642 38.0773 9.54447 35.7342C5.0743 31.0157 0.75 24.6985 0.75 18C0.75 13.425 2.56741 9.03741 5.80241 5.80241C9.03741 2.56741 13.425 0.75 18 0.75C22.575 0.75 26.9626 2.56741 30.1976 5.80241C33.4326 9.03741 35.25 13.425 35.25 18Z" stroke="#0567FF" stroke-width="1.5" stroke-linecap="round" stroke-linejoin="round"/>
<path d="M35.25 18C35.25 24.6985 30.9257 31.0157 26.4555 35.7342C24.2358 38.0773 22.0135 39.9912 20.3453 41.3195C19.5118 41.9833 18.8181 42.4996 18.3343 42.849C18.2082 42.9401 18.0963 43.0199 18 43.0879C17.9037 43.0199 17.7918 42.9401 17.6657 42.849C17.1819 42.4996 16.4882 41.9833 15.6547 41.3195C13.9865 39.9912 11.7642 38.0773 9.54447 35.7342C5.0743 31.0157 0.75 24.6985 0.75 18C0.75 13.425 2.56741 9.03741 5.80241 5.80241C9.03741 2.56741 13.425 0.75 18 0.75C22.575 0.75 26.9626 2.56741 30.1976 5.80241C33.4326 9.03741 35.25 13.425 35.25 18Z" stroke="#2C2C2C" stroke-opacity="0.5" stroke-width="1.5" stroke-linecap="round" stroke-linejoin="round"/>
<path d="M9.64601 11.3341L9.64605 11.3341L13.411 14.6468C13.5673 14.7844 13.8067 14.7644 13.9379 14.6027L17.3019 10.4607C17.389 10.3537 17.4991 10.2676 17.6241 10.2091C17.749 10.1505 17.8856 10.1208 18.0236 10.1223C18.1616 10.1238 18.2974 10.1564 18.4211 10.2177C18.5447 10.279 18.6529 10.3674 18.7377 10.4763L18.7377 10.4763L21.9428 14.594C22.0718 14.7597 22.3133 14.7835 22.4721 14.6462L26.3611 11.2839C26.5026 11.1618 26.678 11.0859 26.8639 11.0662C27.0497 11.0466 27.2372 11.0842 27.4011 11.1739C27.565 11.2637 27.6976 11.4015 27.7811 11.5687C27.8646 11.7359 27.895 11.9246 27.8683 12.1096L27.8683 12.1096L27.8678 12.1139L26.6424 23.4164C26.5385 24.3739 25.7301 25.0995 24.7669 25.0995H11.4954C10.549 25.0995 9.74907 24.3983 9.62514 23.4601L8.13258 12.1599L8.1326 12.1599L8.1323 12.1579C8.10455 11.9719 8.13463 11.7818 8.21849 11.6135C8.30234 11.4451 8.43591 11.3066 8.60111 11.2167C8.7663 11.1268 8.95514 11.0899 9.14204 11.1108C9.32894 11.1318 9.50487 11.2098 9.64601 11.3341Z" fill="#FDFBF9" stroke="#959595" stroke-width="0.244509"/>
<defs>
<filter id="filter0_f_1432_8996" x="0" y="38" width="36.5938" height="13.4062" filterUnits="userSpaceOnUse" color-interpolation-filters="sRGB">
<feFlood flood-opacity="0" result="BackgroundImageFix"/>
<feBlend mode="normal" in="SourceGraphic" in2="BackgroundImageFix" result="shape"/>
<feGaussianBlur stdDeviation="2" result="effect1_foregroundBlur_1432_8996"/>
</filter>
</defs>
</svg>
