<svg width="85" height="103" viewBox="0 0 85 103" fill="none" xmlns="http://www.w3.org/2000/svg">
<path d="M43.0558 99.3694C42.8739 99.5007 42.7049 99.6219 42.5495 99.7326C42.394 99.6219 42.225 99.5007 42.0431 99.3694C40.9223 98.5599 39.3138 97.3626 37.3804 95.823C33.5099 92.741 28.3552 88.3014 23.2079 82.8681C12.823 71.9063 2.86778 57.3176 2.86778 41.9147C2.86778 31.3905 7.04852 21.2973 14.4903 13.8555C21.932 6.41375 32.0252 2.23302 42.5495 2.23302C53.0737 2.23302 63.1669 6.41375 70.6086 13.8555C78.0504 21.2973 82.2311 31.3905 82.2311 41.9147C82.2311 57.3176 72.2759 71.9063 61.891 82.8681C56.7438 88.3014 51.589 92.741 47.7186 95.823C45.7851 97.3626 44.1766 98.5599 43.0558 99.3694ZM42.5621 60.8916C53.0479 60.8916 61.5484 52.3912 61.5484 41.9054C61.5484 31.4195 53.0479 22.9191 42.5621 22.9191C32.0763 22.9191 23.5758 31.4195 23.5758 41.9054C23.5758 52.3912 32.0763 60.8916 42.5621 60.8916Z" fill="#9E6CFF" stroke="#654C95" stroke-width="4.41916" stroke-linecap="round" stroke-linejoin="round"/>
</svg>
