<svg width="85" height="103" viewBox="0 0 85 103" fill="none" xmlns="http://www.w3.org/2000/svg">
<path d="M43.0558 99.4631C42.8739 99.5945 42.7049 99.7156 42.5495 99.8263C42.394 99.7156 42.225 99.5945 42.0431 99.4631C40.9223 98.6536 39.3138 97.4564 37.3804 95.9168C33.5099 92.8347 28.3552 88.3951 23.2079 82.9619C12.823 72 2.86778 57.4114 2.86778 42.0084C2.86778 31.4842 7.04852 21.391 14.4903 13.9493C21.932 6.5075 32.0252 2.32677 42.5495 2.32677C53.0737 2.32677 63.1669 6.5075 70.6086 13.9493C78.0504 21.391 82.2311 31.4842 82.2311 42.0084C82.2311 57.4114 72.2759 72 61.891 82.9619C56.7438 88.3951 51.589 92.8347 47.7186 95.9168C45.7851 97.4564 44.1766 98.6536 43.0558 99.4631ZM42.5621 60.9854C53.0479 60.9854 61.5484 52.4849 61.5484 41.9991C61.5484 31.5133 53.0479 23.0129 42.5621 23.0129C32.0763 23.0129 23.5758 31.5133 23.5758 41.9991C23.5758 52.4849 32.0763 60.9854 42.5621 60.9854Z" fill="#F25900"/>
<path d="M43.0558 99.4631C42.8739 99.5945 42.7049 99.7156 42.5495 99.8263C42.394 99.7156 42.225 99.5945 42.0431 99.4631C40.9223 98.6536 39.3138 97.4564 37.3804 95.9168C33.5099 92.8347 28.3552 88.3951 23.2079 82.9619C12.823 72 2.86778 57.4114 2.86778 42.0084C2.86778 31.4842 7.04852 21.391 14.4903 13.9493C21.932 6.5075 32.0252 2.32677 42.5495 2.32677C53.0737 2.32677 63.1669 6.5075 70.6086 13.9493C78.0504 21.391 82.2311 31.4842 82.2311 42.0084C82.2311 57.4114 72.2759 72 61.891 82.9619C56.7438 88.3951 51.589 92.8347 47.7186 95.9168C45.7851 97.4564 44.1766 98.6536 43.0558 99.4631ZM42.5621 60.9854C53.0479 60.9854 61.5484 52.4849 61.5484 41.9991C61.5484 31.5133 53.0479 23.0129 42.5621 23.0129C32.0763 23.0129 23.5758 31.5133 23.5758 41.9991C23.5758 52.4849 32.0763 60.9854 42.5621 60.9854Z" stroke="#F25900" stroke-width="4.41916" stroke-linecap="round" stroke-linejoin="round"/>
<path d="M43.0558 99.4631C42.8739 99.5945 42.7049 99.7156 42.5495 99.8263C42.394 99.7156 42.225 99.5945 42.0431 99.4631C40.9223 98.6536 39.3138 97.4564 37.3804 95.9168C33.5099 92.8347 28.3552 88.3951 23.2079 82.9619C12.823 72 2.86778 57.4114 2.86778 42.0084C2.86778 31.4842 7.04852 21.391 14.4903 13.9493C21.932 6.5075 32.0252 2.32677 42.5495 2.32677C53.0737 2.32677 63.1669 6.5075 70.6086 13.9493C78.0504 21.391 82.2311 31.4842 82.2311 42.0084C82.2311 57.4114 72.2759 72 61.891 82.9619C56.7438 88.3951 51.589 92.8347 47.7186 95.9168C45.7851 97.4564 44.1766 98.6536 43.0558 99.4631ZM42.5621 60.9854C53.0479 60.9854 61.5484 52.4849 61.5484 41.9991C61.5484 31.5133 53.0479 23.0129 42.5621 23.0129C32.0763 23.0129 23.5758 31.5133 23.5758 41.9991C23.5758 52.4849 32.0763 60.9854 42.5621 60.9854Z" stroke="#2C2C2C" stroke-opacity="0.5" stroke-width="4.41916" stroke-linecap="round" stroke-linejoin="round"/>
</svg>
