<svg width="85" height="104" viewBox="0 0 85 104" fill="none" xmlns="http://www.w3.org/2000/svg">
<path d="M82.231 42.86C82.231 58.2629 72.2758 72.8515 61.8909 83.8133C56.7436 89.2466 51.5889 93.6862 47.7184 96.7682C45.785 98.3078 44.1765 99.5051 43.0557 100.315C42.8738 100.446 42.7049 100.567 42.5495 100.678C42.3941 100.567 42.2251 100.446 42.0432 100.315C40.9224 99.5051 39.3139 98.3078 37.3805 96.7682C33.51 93.6862 28.3553 89.2466 23.208 83.8133C12.8231 72.8515 2.86797 58.2629 2.86797 42.86C2.86797 32.3358 7.04868 22.2427 14.4904 14.801C21.9321 7.35923 32.0253 3.17851 42.5495 3.17851C53.0736 3.17851 63.1668 7.35923 70.6085 14.801C78.0502 22.2427 82.231 32.3358 82.231 42.86ZM42.5485 61.8445C53.0344 61.8445 61.5349 53.344 61.5349 42.8581C61.5349 32.3722 53.0344 23.8717 42.5485 23.8717C32.0626 23.8717 23.562 32.3722 23.562 42.8581C23.562 53.344 32.0626 61.8445 42.5485 61.8445Z" fill="#F45197" stroke="#DE347D" stroke-width="4.41953" stroke-linecap="round" stroke-linejoin="round"/>
</svg>
