<svg width="612" height="160" viewBox="0 0 612 160" fill="none" xmlns="http://www.w3.org/2000/svg">
<g filter="url(#filter0_d_1995_9155)">
<path d="M4 12.0911C4 5.91821 9.00414 0.914062 15.177 0.914062H596.384C602.557 0.914062 607.561 5.9182 607.561 12.0911V125.897H4V12.0911Z" fill="#FAF6F0"/>
<path d="M27.5542 54.8203V52.0188L30.4467 51.473V31.6985L27.5542 31.1528V28.333H37.9053V31.1528L35.031 31.6985V51.473L37.9053 52.0188V54.8203H27.5542ZM40.2339 54.8203V52.0188L42.9626 51.473V38.5023L40.0883 37.9565V35.1368H47.1831L47.4196 37.9929C48.0745 36.9741 48.8871 36.1858 49.8573 35.628C50.8397 35.0579 51.9494 34.7729 53.1864 34.7729C55.2118 34.7729 56.7884 35.3975 57.9163 36.6467C59.0442 37.8837 59.6081 39.8242 59.6081 42.4681V51.473L62.3369 52.0188V54.8203H52.4588V52.0188L55.0238 51.473V42.5045C55.0238 41.0127 54.7267 39.9576 54.1324 39.3391C53.5381 38.7084 52.6528 38.3931 51.4764 38.3931C50.5911 38.3931 49.8149 38.5932 49.1479 38.9934C48.4929 39.3815 47.9593 39.9273 47.547 40.6307V51.473L50.0393 52.0188V54.8203H40.2339ZM64.5381 54.8203V52.0188L67.2851 51.473V38.4113H64.2834V35.1368H67.2851V32.8264C67.2851 30.6677 67.8794 29.0001 69.0679 27.8237C70.2685 26.6473 71.9422 26.0591 74.0888 26.0591C74.5861 26.0591 75.1197 26.1015 75.6897 26.1864C76.2597 26.2592 76.7812 26.3562 77.2542 26.4775L76.7994 29.9157C76.5447 29.8551 76.2294 29.8066 75.8534 29.7702C75.4775 29.7217 75.1076 29.6974 74.7437 29.6974C73.7735 29.6974 73.0458 29.9642 72.5607 30.4979C72.0877 31.0315 71.8512 31.8077 71.8512 32.8264V35.1368H76.2537V38.4113H71.8512V51.473L75.2895 52.0188V54.8203H64.5381ZM87.478 55.2023C85.5861 55.2023 83.9609 54.7779 82.6026 53.9289C81.2443 53.08 80.2013 51.9036 79.4736 50.3997C78.7459 48.8837 78.3821 47.1434 78.3821 45.1787V44.7966C78.3821 42.844 78.7459 41.1158 79.4736 39.612C80.2013 38.1081 81.2443 36.9256 82.6026 36.0646C83.9609 35.2035 85.5739 34.7729 87.4416 34.7729C89.3336 34.7729 90.9587 35.2035 92.317 36.0646C93.6753 36.9135 94.7183 38.0899 95.446 39.5938C96.1737 41.0976 96.5375 42.8319 96.5375 44.7966V45.1787C96.5375 47.1434 96.1737 48.8837 95.446 50.3997C94.7183 51.9036 93.6753 53.08 92.317 53.9289C90.9708 54.7779 89.3578 55.2023 87.478 55.2023ZM87.478 51.6731C88.4967 51.6731 89.3336 51.4003 89.9885 50.8545C90.6555 50.2966 91.1527 49.5326 91.4802 48.5623C91.8077 47.58 91.9714 46.4521 91.9714 45.1787V44.7966C91.9714 43.5353 91.8077 42.4196 91.4802 41.4493C91.1527 40.4791 90.6555 39.715 89.9885 39.1572C89.3214 38.5993 88.4725 38.3203 87.4416 38.3203C86.435 38.3203 85.5982 38.5993 84.9311 39.1572C84.2641 39.715 83.7669 40.4791 83.4394 41.4493C83.1241 42.4196 82.9664 43.5353 82.9664 44.7966V45.1787C82.9664 46.4521 83.1241 47.58 83.4394 48.5623C83.7669 49.5326 84.2641 50.2966 84.9311 50.8545C85.6103 51.4003 86.4593 51.6731 87.478 51.6731ZM99.2845 54.8203V52.0188L102.013 51.473V38.5023L99.1389 37.9565V35.1368H106.234L106.47 37.6109L106.507 38.0111C107.028 36.9681 107.665 36.1676 108.417 35.6098C109.181 35.0519 110.072 34.7729 111.091 34.7729C111.431 34.7729 111.788 34.8033 112.164 34.8639C112.552 34.9245 112.868 34.9912 113.11 35.064L112.583 39.3027L110.018 39.1572C109.181 39.1087 108.49 39.2724 107.944 39.6483C107.41 40.0243 106.961 40.5458 106.598 41.2128V51.473L109.326 52.0188V54.8203H99.2845ZM114.929 54.8203V52.0188L117.676 51.473V38.5023L114.784 37.9565V35.1368H121.879L122.097 37.72C122.74 36.7862 123.54 36.0646 124.498 35.5552C125.469 35.0337 126.59 34.7729 127.864 34.7729C129.149 34.7729 130.247 35.064 131.157 35.6461C132.078 36.2162 132.776 37.0833 133.249 38.2476C133.855 37.1682 134.649 36.3192 135.632 35.7007C136.626 35.0822 137.79 34.7729 139.125 34.7729C141.101 34.7729 142.654 35.446 143.782 36.7922C144.922 38.1384 145.492 40.1759 145.492 42.9047V51.473L148.239 52.0188V54.8203H138.324V52.0188L140.907 51.473V42.8865C140.907 41.225 140.628 40.0607 140.071 39.3937C139.513 38.7266 138.694 38.3931 137.615 38.3931C136.608 38.3931 135.777 38.7145 135.122 39.3573C134.48 40.0001 134.061 40.8187 133.867 41.8132V51.473L136.359 52.0188V54.8203H126.809V52.0188L129.301 51.473V42.8865C129.301 41.2856 129.016 40.1395 128.446 39.4482C127.876 38.7448 127.051 38.3931 125.972 38.3931C125.074 38.3931 124.316 38.575 123.698 38.9389C123.091 39.3027 122.606 39.8181 122.243 40.4852V51.473L124.808 52.0188V54.8203H114.929ZM156.88 55.2023C154.879 55.2023 153.32 54.6869 152.204 53.656C151.089 52.6252 150.531 51.2062 150.531 49.3992C150.531 48.1621 150.87 47.0767 151.55 46.1428C152.229 45.209 153.223 44.4813 154.533 43.9598C155.843 43.4262 157.432 43.1594 159.299 43.1594H162.301V41.5039C162.301 40.4609 161.986 39.6302 161.355 39.0116C160.736 38.3931 159.833 38.0838 158.644 38.0838C157.965 38.0838 157.365 38.1687 156.843 38.3385C156.322 38.4962 155.855 38.7266 155.443 39.0298L155.024 41.6858H151.659L151.622 36.8286C152.593 36.198 153.672 35.7007 154.86 35.3369C156.049 34.9609 157.371 34.7729 158.826 34.7729C161.325 34.7729 163.289 35.3611 164.72 36.5375C166.164 37.7018 166.885 39.3755 166.885 41.5585V50.236C166.885 50.5028 166.885 50.7635 166.885 51.0182C166.897 51.2729 166.916 51.5215 166.94 51.7641L168.941 52.0188V54.8203H162.956C162.835 54.3958 162.719 53.9835 162.61 53.5833C162.513 53.183 162.44 52.7828 162.392 52.3826C161.737 53.2073 160.943 53.8865 160.009 54.4201C159.087 54.9416 158.044 55.2023 156.88 55.2023ZM157.917 51.6549C158.838 51.6549 159.699 51.4427 160.5 51.0182C161.3 50.5816 161.901 50.0359 162.301 49.381V46.0882H159.245C157.874 46.0882 156.837 46.4096 156.134 47.0524C155.443 47.6831 155.097 48.4229 155.097 49.2718C155.097 50.0359 155.34 50.6241 155.825 51.0364C156.31 51.4488 157.007 51.6549 157.917 51.6549ZM180.293 55.2023C178.449 55.2023 176.848 54.7839 175.49 53.9471C174.144 53.0982 173.101 51.9339 172.361 50.4543C171.633 48.9625 171.269 47.2465 171.269 45.306V44.6693C171.269 42.7652 171.633 41.0673 172.361 39.5756C173.089 38.0838 174.126 36.9135 175.472 36.0646C176.83 35.2035 178.431 34.7729 180.274 34.7729C181.96 34.7729 183.428 35.0458 184.677 35.5916C185.926 36.1252 186.951 36.7922 187.751 37.5927L187.769 42.8501H184.277L183.604 39.3755C183.264 39.0238 182.833 38.7448 182.312 38.5386C181.79 38.3203 181.22 38.2112 180.602 38.2112C179.595 38.2112 178.734 38.4841 178.019 39.0298C177.315 39.5756 176.776 40.3336 176.4 41.3038C176.036 42.2619 175.854 43.3837 175.854 44.6693V45.306C175.854 46.6886 176.042 47.8528 176.418 48.7988C176.794 49.7448 177.315 50.4603 177.982 50.9455C178.661 51.4306 179.438 51.6731 180.311 51.6731C181.366 51.6731 182.221 51.3881 182.876 50.8181C183.543 50.2481 183.979 49.4598 184.186 48.4532H188.151L188.206 48.5623C188.061 49.8479 187.678 50.994 187.06 52.0006C186.454 52.9951 185.593 53.7773 184.477 54.3473C183.373 54.9173 181.978 55.2023 180.293 55.2023ZM178.091 62.9884L177.964 60.478C178.752 60.478 179.383 60.3446 179.856 60.0777C180.329 59.8231 180.565 59.435 180.565 58.9135C180.565 58.3677 180.347 57.9918 179.911 57.7856C179.486 57.5794 178.783 57.4399 177.8 57.3672L178.455 54.3837H181.821L181.511 55.8572C182.324 55.9907 182.997 56.2938 183.531 56.7668C184.064 57.252 184.331 57.9736 184.331 58.9317C184.331 60.1566 183.792 61.1389 182.712 61.8787C181.633 62.6185 180.093 62.9884 178.091 62.9884ZM197.411 55.2023C195.41 55.2023 193.852 54.6869 192.736 53.656C191.62 52.6252 191.062 51.2062 191.062 49.3992C191.062 48.1621 191.402 47.0767 192.081 46.1428C192.76 45.209 193.755 44.4813 195.064 43.9598C196.374 43.4262 197.963 43.1594 199.831 43.1594H202.832V41.5039C202.832 40.4609 202.517 39.6302 201.886 39.0116C201.268 38.3931 200.364 38.0838 199.176 38.0838C198.497 38.0838 197.896 38.1687 197.375 38.3385C196.853 38.4962 196.386 38.7266 195.974 39.0298L195.556 41.6858H192.19L192.154 36.8286C193.124 36.198 194.203 35.7007 195.392 35.3369C196.58 34.9609 197.902 34.7729 199.358 34.7729C201.856 34.7729 203.821 35.3611 205.252 36.5375C206.695 37.7018 207.417 39.3755 207.417 41.5585V50.236C207.417 50.5028 207.417 50.7635 207.417 51.0182C207.429 51.2729 207.447 51.5215 207.471 51.7641L209.472 52.0188V54.8203H203.487C203.366 54.3958 203.251 53.9835 203.142 53.5833C203.045 53.183 202.972 52.7828 202.923 52.3826C202.268 53.2073 201.474 53.8865 200.54 54.4201C199.618 54.9416 198.575 55.2023 197.411 55.2023ZM198.448 51.6549C199.37 51.6549 200.231 51.4427 201.031 51.0182C201.832 50.5816 202.432 50.0359 202.832 49.381V46.0882H199.776C198.406 46.0882 197.369 46.4096 196.665 47.0524C195.974 47.6831 195.628 48.4229 195.628 49.2718C195.628 50.0359 195.871 50.6241 196.356 51.0364C196.841 51.4488 197.538 51.6549 198.448 51.6549ZM195.337 31.2983L192.918 30.7162C192.918 29.9157 193.1 29.182 193.463 28.515C193.827 27.8479 194.312 27.3082 194.919 26.8959C195.525 26.4835 196.186 26.2774 196.902 26.2774C197.484 26.2774 198.084 26.429 198.703 26.7322C199.333 27.0232 199.934 27.3204 200.504 27.6236C201.074 27.9146 201.565 28.0602 201.977 28.0602C202.475 28.0602 202.881 27.8722 203.196 27.4962C203.524 27.1081 203.687 26.6291 203.687 26.0591L206.107 26.714C206.107 27.5265 205.925 28.2663 205.561 28.9334C205.209 29.5883 204.724 30.1158 204.106 30.5161C203.499 30.9041 202.832 31.0982 202.105 31.0982C201.486 31.0982 200.861 30.9527 200.231 30.6616C199.612 30.3584 199.03 30.0613 198.484 29.7702C197.939 29.467 197.46 29.3154 197.047 29.3154C196.538 29.3154 196.126 29.5094 195.81 29.8975C195.495 30.2856 195.337 30.7525 195.337 31.2983ZM220.897 55.2023C219.005 55.2023 217.38 54.7779 216.021 53.9289C214.663 53.08 213.62 51.9036 212.892 50.3997C212.165 48.8837 211.801 47.1434 211.801 45.1787V44.7966C211.801 42.844 212.165 41.1158 212.892 39.612C213.62 38.1081 214.663 36.9256 216.021 36.0646C217.38 35.2035 218.993 34.7729 220.86 34.7729C222.752 34.7729 224.377 35.2035 225.736 36.0646C227.094 36.9135 228.137 38.0899 228.865 39.5938C229.592 41.0976 229.956 42.8319 229.956 44.7966V45.1787C229.956 47.1434 229.592 48.8837 228.865 50.3997C228.137 51.9036 227.094 53.08 225.736 53.9289C224.39 54.7779 222.777 55.2023 220.897 55.2023ZM220.897 51.6731C221.915 51.6731 222.752 51.4003 223.407 50.8545C224.074 50.2966 224.571 49.5326 224.899 48.5623C225.226 47.58 225.39 46.4521 225.39 45.1787V44.7966C225.39 43.5353 225.226 42.4196 224.899 41.4493C224.571 40.4791 224.074 39.715 223.407 39.1572C222.74 38.5993 221.891 38.3203 220.86 38.3203C219.854 38.3203 219.017 38.5993 218.35 39.1572C217.683 39.715 217.186 40.4791 216.858 41.4493C216.543 42.4196 216.385 43.5353 216.385 44.7966V45.1787C216.385 46.4521 216.543 47.58 216.858 48.5623C217.186 49.5326 217.683 50.2966 218.35 50.8545C219.029 51.4003 219.878 51.6731 220.897 51.6731ZM241.399 62.3881V59.5684L244.055 59.0226V38.5023L241.162 37.9565V35.1368H248.166L248.457 37.4653C249.064 36.6042 249.804 35.9433 250.677 35.4824C251.55 35.0094 252.581 34.7729 253.769 34.7729C255.37 34.7729 256.741 35.2095 257.881 36.0827C259.021 36.956 259.888 38.1748 260.482 39.7393C261.089 41.3038 261.392 43.1351 261.392 45.2332V45.6153C261.392 47.5315 261.089 49.2112 260.482 50.6544C259.876 52.0855 259.003 53.2012 257.863 54.0017C256.735 54.8021 255.37 55.2023 253.769 55.2023C252.641 55.2023 251.653 55.0083 250.804 54.6202C249.955 54.22 249.227 53.6378 248.621 52.8738V59.0226L251.423 59.5684V62.3881H241.399ZM252.387 51.6731C253.891 51.6731 255 51.1213 255.716 50.0177C256.444 48.9019 256.807 47.4344 256.807 45.6153V45.2332C256.807 43.8749 256.644 42.6864 256.316 41.6676C256.001 40.6368 255.51 39.8363 254.843 39.2663C254.188 38.6842 253.357 38.3931 252.35 38.3931C251.501 38.3931 250.762 38.5872 250.131 38.9752C249.512 39.3512 249.009 39.8848 248.621 40.5761V49.5993C249.009 50.2663 249.512 50.7817 250.131 51.1456C250.75 51.4973 251.501 51.6731 252.387 51.6731ZM264.139 54.8203V52.0188L266.867 51.473V38.5023L263.993 37.9565V35.1368H271.088L271.324 37.6109L271.361 38.0111C271.882 36.9681 272.519 36.1676 273.271 35.6098C274.035 35.0519 274.926 34.7729 275.945 34.7729C276.285 34.7729 276.643 34.8033 277.018 34.8639C277.407 34.9245 277.722 34.9912 277.964 35.064L277.437 39.3027L274.872 39.1572C274.035 39.1087 273.344 39.2724 272.798 39.6483C272.264 40.0243 271.816 40.5458 271.452 41.2128V51.473L274.181 52.0188V54.8203H264.139ZM279.838 54.8203V52.0188L282.567 51.473V38.5023L279.674 37.9565V35.1368H287.151V51.473L289.862 52.0188V54.8203H279.838ZM282.385 30.6798V26.4411H287.151V30.6798H282.385ZM291.827 54.8203V52.0188L294.574 51.473V38.5023L291.681 37.9565V35.1368H298.776L298.994 37.72C299.637 36.7862 300.437 36.0646 301.396 35.5552C302.366 35.0337 303.488 34.7729 304.761 34.7729C306.047 34.7729 307.144 35.064 308.054 35.6461C308.975 36.2162 309.673 37.0833 310.146 38.2476C310.752 37.1682 311.547 36.3192 312.529 35.7007C313.523 35.0822 314.688 34.7729 316.022 34.7729C317.999 34.7729 319.551 35.446 320.679 36.7922C321.819 38.1384 322.389 40.1759 322.389 42.9047V51.473L325.136 52.0188V54.8203H315.221V52.0188L317.805 51.473V42.8865C317.805 41.225 317.526 40.0607 316.968 39.3937C316.41 38.7266 315.591 38.3931 314.512 38.3931C313.505 38.3931 312.674 38.7145 312.02 39.3573C311.377 40.0001 310.958 40.8187 310.764 41.8132V51.473L313.257 52.0188V54.8203H303.706V52.0188L306.198 51.473V42.8865C306.198 41.2856 305.913 40.1395 305.343 39.4482C304.773 38.7448 303.948 38.3931 302.869 38.3931C301.972 38.3931 301.214 38.575 300.595 38.9389C299.989 39.3027 299.504 39.8181 299.14 40.4852V51.473L301.705 52.0188V54.8203H291.827ZM333.777 55.2023C331.776 55.2023 330.217 54.6869 329.102 53.656C327.986 52.6252 327.428 51.2062 327.428 49.3992C327.428 48.1621 327.768 47.0767 328.447 46.1428C329.126 45.209 330.12 44.4813 331.43 43.9598C332.74 43.4262 334.329 43.1594 336.196 43.1594H339.198V41.5039C339.198 40.4609 338.883 39.6302 338.252 39.0116C337.634 38.3931 336.73 38.0838 335.542 38.0838C334.862 38.0838 334.262 38.1687 333.741 38.3385C333.219 38.4962 332.752 38.7266 332.34 39.0298L331.921 41.6858H328.556L328.519 36.8286C329.49 36.198 330.569 35.7007 331.758 35.3369C332.946 34.9609 334.268 34.7729 335.723 34.7729C338.222 34.7729 340.187 35.3611 341.618 36.5375C343.061 37.7018 343.782 39.3755 343.782 41.5585V50.236C343.782 50.5028 343.782 50.7635 343.782 51.0182C343.795 51.2729 343.813 51.5215 343.837 51.7641L345.838 52.0188V54.8203H339.853C339.732 54.3958 339.617 53.9835 339.507 53.5833C339.41 53.183 339.338 52.7828 339.289 52.3826C338.634 53.2073 337.84 53.8865 336.906 54.4201C335.984 54.9416 334.941 55.2023 333.777 55.2023ZM334.814 51.6549C335.736 51.6549 336.597 51.4427 337.397 51.0182C338.198 50.5816 338.798 50.0359 339.198 49.381V46.0882H336.142C334.771 46.0882 333.734 46.4096 333.031 47.0524C332.34 47.6831 331.994 48.4229 331.994 49.2718C331.994 50.0359 332.237 50.6241 332.722 51.0364C333.207 51.4488 333.904 51.6549 334.814 51.6549ZM333.122 31.3893L336.633 26.4411H341.636L341.672 26.5502L336.706 31.3893H333.268H333.122ZM348.294 54.8203V52.0188L351.023 51.473V38.5023L348.148 37.9565V35.1368H355.243L355.48 37.6109L355.516 38.0111C356.038 36.9681 356.674 36.1676 357.426 35.6098C358.19 35.0519 359.082 34.7729 360.1 34.7729C360.44 34.7729 360.798 34.8033 361.174 34.8639C361.562 34.9245 361.877 34.9912 362.12 35.064L361.592 39.3027L359.027 39.1572C358.19 39.1087 357.499 39.2724 356.953 39.6483C356.42 40.0243 355.971 40.5458 355.607 41.2128V51.473L358.336 52.0188V54.8203H348.294ZM363.994 54.8203V52.0188L366.722 51.473V38.5023L363.83 37.9565V35.1368H371.307V51.473L374.017 52.0188V54.8203H363.994ZM366.54 30.6798V26.4411H371.307V30.6798H366.54ZM382.604 55.2023C380.603 55.2023 379.044 54.6869 377.928 53.656C376.813 52.6252 376.255 51.2062 376.255 49.3992C376.255 48.1621 376.594 47.0767 377.274 46.1428C377.953 45.209 378.947 44.4813 380.257 43.9598C381.567 43.4262 383.156 43.1594 385.023 43.1594H388.025V41.5039C388.025 40.4609 387.71 39.6302 387.079 39.0116C386.46 38.3931 385.557 38.0838 384.368 38.0838C383.689 38.0838 383.089 38.1687 382.567 38.3385C382.046 38.4962 381.579 38.7266 381.167 39.0298L380.748 41.6858H377.383L377.346 36.8286C378.317 36.198 379.396 35.7007 380.584 35.3369C381.773 34.9609 383.095 34.7729 384.55 34.7729C387.049 34.7729 389.013 35.3611 390.444 36.5375C391.888 37.7018 392.609 39.3755 392.609 41.5585V50.236C392.609 50.5028 392.609 50.7635 392.609 51.0182C392.621 51.2729 392.64 51.5215 392.664 51.7641L394.665 52.0188V54.8203H388.68C388.559 54.3958 388.443 53.9835 388.334 53.5833C388.237 53.183 388.164 52.7828 388.116 52.3826C387.461 53.2073 386.667 53.8865 385.733 54.4201C384.811 54.9416 383.768 55.2023 382.604 55.2023ZM383.641 51.6549C384.562 51.6549 385.423 51.4427 386.224 51.0182C387.024 50.5816 387.625 50.0359 388.025 49.381V46.0882H384.969C383.598 46.0882 382.561 46.4096 381.858 47.0524C381.167 47.6831 380.821 48.4229 380.821 49.2718C380.821 50.0359 381.064 50.6241 381.549 51.0364C382.034 51.4488 382.731 51.6549 383.641 51.6549Z" fill="#2C2C2C"/>
<path d="M31.8256 82.8024V103.992H29.0168V82.8024H31.8256ZM39.2188 91.6072V103.992H36.5264V88.2454H39.0732L39.2188 91.6072ZM38.5784 95.5221L37.4578 95.4784C37.4675 94.4015 37.6276 93.407 37.9381 92.495C38.2485 91.5732 38.6851 90.7728 39.2479 90.0936C39.8106 89.4145 40.4801 88.8906 41.2562 88.5219C42.0421 88.1435 42.9105 87.9543 43.8613 87.9543C44.6375 87.9543 45.3361 88.061 45.957 88.2745C46.578 88.4782 47.1067 88.8081 47.5433 89.2641C47.9896 89.7201 48.3292 90.3119 48.5621 91.0396C48.7949 91.7576 48.9114 92.6356 48.9114 93.6738V103.992H46.2044V93.6447C46.2044 92.82 46.0831 92.1602 45.8406 91.6654C45.598 91.1609 45.2439 90.7971 44.7782 90.5739C44.3125 90.3411 43.74 90.2246 43.0609 90.2246C42.3914 90.2246 41.7802 90.3653 41.2271 90.6467C40.6838 90.928 40.2133 91.3161 39.8155 91.811C39.4274 92.3058 39.1217 92.8734 38.8986 93.5137C38.6851 94.1444 38.5784 94.8138 38.5784 95.5221ZM57.0176 103.992H54.3252V86.5863C54.3252 85.4511 54.529 84.4954 54.9365 83.7192C55.3537 82.9333 55.9504 82.3415 56.7266 81.9437C57.5027 81.5362 58.4245 81.3325 59.4917 81.3325C59.8022 81.3325 60.1127 81.3519 60.4231 81.3907C60.7433 81.4295 61.0538 81.4877 61.3546 81.5653L61.209 83.7629C61.0053 83.7144 60.7724 83.6804 60.5105 83.661C60.2582 83.6416 60.0059 83.6319 59.7537 83.6319C59.1812 83.6319 58.6864 83.7483 58.2692 83.9812C57.8617 84.2043 57.5513 84.5342 57.3378 84.9708C57.1244 85.4074 57.0176 85.9459 57.0176 86.5863V103.992ZM60.3649 88.2454V90.3119H51.8366V88.2454H60.3649ZM62.6498 96.2934V95.9587C62.6498 94.8235 62.8148 93.7708 63.1446 92.8006C63.4745 91.8207 63.9499 90.9717 64.5709 90.2537C65.1918 89.5261 65.9437 88.9633 66.8267 88.5655C67.7096 88.158 68.6992 87.9543 69.7956 87.9543C70.9016 87.9543 71.8961 88.158 72.779 88.5655C73.6716 88.9633 74.4284 89.5261 75.0494 90.2537C75.68 90.9717 76.1603 91.8207 76.4901 92.8006C76.82 93.7708 76.985 94.8235 76.985 95.9587V96.2934C76.985 97.4286 76.82 98.4813 76.4901 99.4515C76.1603 100.422 75.68 101.271 75.0494 101.998C74.4284 102.716 73.6765 103.279 72.7936 103.687C71.9204 104.084 70.9307 104.283 69.8247 104.283C68.7186 104.283 67.7241 104.084 66.8412 103.687C65.9583 103.279 65.2015 102.716 64.5709 101.998C63.9499 101.271 63.4745 100.422 63.1446 99.4515C62.8148 98.4813 62.6498 97.4286 62.6498 96.2934ZM65.3422 95.9587V96.2934C65.3422 97.0793 65.4344 97.8215 65.6187 98.5201C65.8031 99.209 66.0796 99.8202 66.4483 100.354C66.8267 100.887 67.2972 101.31 67.86 101.62C68.4227 101.921 69.0776 102.071 69.8247 102.071C70.562 102.071 71.2072 101.921 71.7603 101.62C72.323 101.31 72.7887 100.887 73.1574 100.354C73.5261 99.8202 73.8026 99.209 73.987 98.5201C74.181 97.8215 74.278 97.0793 74.278 96.2934V95.9587C74.278 95.1825 74.181 94.45 73.987 93.7611C73.8026 93.0625 73.5212 92.4465 73.1429 91.9128C72.7742 91.3695 72.3085 90.9426 71.7457 90.6321C71.1927 90.3216 70.5426 90.1664 69.7956 90.1664C69.0582 90.1664 68.4081 90.3216 67.8454 90.6321C67.2924 90.9426 66.8267 91.3695 66.4483 91.9128C66.0796 92.4465 65.8031 93.0625 65.6187 93.7611C65.4344 94.45 65.3422 95.1825 65.3422 95.9587ZM83.0538 90.7194V103.992H80.3614V88.2454H82.981L83.0538 90.7194ZM87.9728 88.158L87.9583 90.6612C87.7351 90.6127 87.5217 90.5836 87.3179 90.5739C87.1239 90.5545 86.9007 90.5448 86.6485 90.5448C86.0275 90.5448 85.4793 90.6418 85.0039 90.8359C84.5285 91.0299 84.1259 91.3016 83.796 91.6509C83.4661 92.0001 83.2041 92.4173 83.0101 92.9025C82.8258 93.3779 82.7045 93.9018 82.6463 94.4742L81.8895 94.9108C81.8895 93.96 81.9817 93.0674 82.166 92.233C82.36 91.3986 82.656 90.6612 83.0538 90.0209C83.4515 89.3708 83.9561 88.8663 84.5673 88.5073C85.1883 88.1386 85.9256 87.9543 86.7794 87.9543C86.9735 87.9543 87.1966 87.9785 87.4489 88.0271C87.7012 88.0659 87.8758 88.1095 87.9728 88.158ZM93.1393 91.3743V103.992H90.4324V88.2454H92.9938L93.1393 91.3743ZM92.5863 95.5221L91.3347 95.4784C91.3444 94.4015 91.4851 93.407 91.7567 92.495C92.0284 91.5732 92.431 90.7728 92.9647 90.0936C93.4983 89.4145 94.1629 88.8906 94.9585 88.5219C95.7541 88.1435 96.6758 87.9543 97.7236 87.9543C98.461 87.9543 99.1402 88.061 99.7611 88.2745C100.382 88.4782 100.921 88.8032 101.377 89.2495C101.833 89.6958 102.187 90.2683 102.439 90.9669C102.691 91.6654 102.817 92.5095 102.817 93.4992V103.992H100.125V93.6301C100.125 92.8054 99.9843 92.1457 99.7029 91.6509C99.4312 91.156 99.0431 90.7971 98.5386 90.5739C98.0341 90.3411 97.4423 90.2246 96.7631 90.2246C95.9675 90.2246 95.3029 90.3653 94.7693 90.6467C94.2357 90.928 93.8088 91.3161 93.4886 91.811C93.1684 92.3058 92.9355 92.8734 92.79 93.5137C92.6542 94.1444 92.5863 94.8138 92.5863 95.5221ZM102.788 94.0376L100.984 94.5907C100.993 93.7272 101.134 92.8976 101.406 92.102C101.687 91.3064 102.09 90.5982 102.614 89.9772C103.147 89.3563 103.802 88.8663 104.578 88.5073C105.354 88.1386 106.242 87.9543 107.242 87.9543C108.086 87.9543 108.833 88.0659 109.483 88.289C110.143 88.5122 110.696 88.8566 111.142 89.3223C111.598 89.7783 111.942 90.3653 112.175 91.0833C112.408 91.8012 112.524 92.6551 112.524 93.6447V103.992H109.818V93.6156C109.818 92.7327 109.677 92.0487 109.395 91.5635C109.124 91.0687 108.736 90.7243 108.231 90.5302C107.736 90.3265 107.145 90.2246 106.456 90.2246C105.864 90.2246 105.34 90.3265 104.884 90.5302C104.428 90.734 104.045 91.0154 103.734 91.3743C103.424 91.7236 103.186 92.1263 103.021 92.5823C102.866 93.0383 102.788 93.5234 102.788 94.0376ZM125.885 101.3V93.1935C125.885 92.5726 125.758 92.0341 125.506 91.5781C125.264 91.1124 124.895 90.7534 124.4 90.5011C123.905 90.2489 123.294 90.1228 122.566 90.1228C121.887 90.1228 121.291 90.2392 120.776 90.472C120.272 90.7049 119.874 91.0105 119.583 91.3889C119.302 91.7673 119.161 92.1748 119.161 92.6114H116.468C116.468 92.0487 116.614 91.4908 116.905 90.9377C117.196 90.3847 117.613 89.885 118.157 89.4387C118.71 88.9827 119.369 88.6237 120.136 88.3618C120.912 88.0901 121.776 87.9543 122.726 87.9543C123.871 87.9543 124.88 88.1483 125.754 88.5364C126.636 88.9245 127.325 89.5115 127.82 90.2974C128.325 91.0736 128.577 92.0487 128.577 93.2226V100.558C128.577 101.081 128.621 101.639 128.708 102.231C128.805 102.823 128.946 103.332 129.13 103.759V103.992H126.321C126.185 103.682 126.079 103.269 126.001 102.755C125.923 102.231 125.885 101.746 125.885 101.3ZM126.35 94.4451L126.379 96.3371H123.658C122.891 96.3371 122.207 96.4001 121.606 96.5263C121.004 96.6427 120.5 96.8222 120.092 97.0647C119.685 97.3073 119.374 97.6129 119.161 97.9816C118.947 98.3406 118.841 98.7626 118.841 99.2478C118.841 99.7426 118.952 100.194 119.175 100.601C119.399 101.009 119.733 101.334 120.18 101.576C120.636 101.809 121.193 101.926 121.853 101.926C122.678 101.926 123.406 101.751 124.036 101.402C124.667 101.052 125.167 100.625 125.535 100.121C125.914 99.6165 126.117 99.1265 126.147 98.6511L127.296 99.9463C127.228 100.354 127.044 100.805 126.743 101.3C126.442 101.795 126.04 102.27 125.535 102.726C125.04 103.172 124.449 103.546 123.76 103.847C123.081 104.138 122.314 104.283 121.46 104.283C120.393 104.283 119.457 104.075 118.651 103.657C117.856 103.24 117.235 102.682 116.789 101.984C116.352 101.276 116.134 100.485 116.134 99.6116C116.134 98.7675 116.299 98.0253 116.629 97.3849C116.958 96.7349 117.434 96.1964 118.055 95.7695C118.676 95.3329 119.423 95.003 120.296 94.7799C121.169 94.5567 122.144 94.4451 123.221 94.4451H126.35ZM139.114 102.071C139.754 102.071 140.346 101.94 140.889 101.678C141.432 101.416 141.879 101.057 142.228 100.601C142.577 100.136 142.776 99.6067 142.825 99.0149H145.386C145.338 99.9463 145.022 100.815 144.44 101.62C143.868 102.416 143.116 103.061 142.184 103.556C141.253 104.041 140.229 104.283 139.114 104.283C137.93 104.283 136.897 104.075 136.014 103.657C135.141 103.24 134.413 102.668 133.831 101.94C133.258 101.212 132.827 100.378 132.535 99.437C132.254 98.4861 132.113 97.4819 132.113 96.4244V95.8131C132.113 94.7556 132.254 93.7563 132.535 92.8151C132.827 91.8643 133.258 91.0251 133.831 90.2974C134.413 89.5697 135.141 88.9973 136.014 88.5801C136.897 88.1629 137.93 87.9543 139.114 87.9543C140.346 87.9543 141.423 88.2065 142.345 88.7111C143.266 89.2059 143.989 89.885 144.513 90.7485C145.047 91.6024 145.338 92.5726 145.386 93.6592H142.825C142.776 93.0092 142.592 92.4222 142.272 91.8983C141.961 91.3743 141.534 90.9571 140.991 90.6467C140.457 90.3265 139.832 90.1664 139.114 90.1664C138.289 90.1664 137.595 90.3313 137.032 90.6612C136.479 90.9814 136.038 91.418 135.708 91.971C135.388 92.5144 135.155 93.1208 135.01 93.7902C134.874 94.45 134.806 95.1243 134.806 95.8131V96.4244C134.806 97.1133 134.874 97.7924 135.01 98.4619C135.145 99.1313 135.373 99.7377 135.694 100.281C136.023 100.824 136.465 101.261 137.018 101.591C137.581 101.911 138.279 102.071 139.114 102.071ZM137.629 104.138H139.565L139.39 104.909C139.953 105.006 140.462 105.239 140.918 105.608C141.384 105.976 141.617 106.583 141.617 107.427C141.617 107.883 141.52 108.295 141.326 108.664C141.141 109.042 140.865 109.362 140.496 109.624C140.128 109.896 139.667 110.105 139.114 110.25C138.57 110.396 137.935 110.468 137.207 110.468L137.105 108.911C137.552 108.911 137.954 108.863 138.313 108.766C138.682 108.669 138.973 108.513 139.186 108.3C139.41 108.087 139.521 107.81 139.521 107.47C139.521 107.15 139.439 106.898 139.274 106.714C139.109 106.529 138.852 106.389 138.502 106.292C138.163 106.204 137.721 106.141 137.178 106.102L137.629 104.138ZM157.698 101.3V93.1935C157.698 92.5726 157.572 92.0341 157.32 91.5781C157.077 91.1124 156.709 90.7534 156.214 90.5011C155.719 90.2489 155.108 90.1228 154.38 90.1228C153.701 90.1228 153.104 90.2392 152.59 90.472C152.086 90.7049 151.688 91.0105 151.397 91.3889C151.115 91.7673 150.975 92.1748 150.975 92.6114H148.282C148.282 92.0487 148.428 91.4908 148.719 90.9377C149.01 90.3847 149.427 89.885 149.971 89.4387C150.524 88.9827 151.183 88.6237 151.95 88.3618C152.726 88.0901 153.589 87.9543 154.54 87.9543C155.685 87.9543 156.694 88.1483 157.567 88.5364C158.45 88.9245 159.139 89.5115 159.634 90.2974C160.139 91.0736 160.391 92.0487 160.391 93.2226V100.558C160.391 101.081 160.434 101.639 160.522 102.231C160.619 102.823 160.759 103.332 160.944 103.759V103.992H158.135C157.999 103.682 157.892 103.269 157.815 102.755C157.737 102.231 157.698 101.746 157.698 101.3ZM158.164 94.4451L158.193 96.3371H155.472C154.705 96.3371 154.021 96.4001 153.42 96.5263C152.818 96.6427 152.314 96.8222 151.906 97.0647C151.499 97.3073 151.188 97.6129 150.975 97.9816C150.761 98.3406 150.655 98.7626 150.655 99.2478C150.655 99.7426 150.766 100.194 150.989 100.601C151.212 101.009 151.547 101.334 151.993 101.576C152.449 101.809 153.007 101.926 153.667 101.926C154.492 101.926 155.219 101.751 155.85 101.402C156.481 101.052 156.98 100.625 157.349 100.121C157.728 99.6165 157.931 99.1265 157.96 98.6511L159.11 99.9463C159.042 100.354 158.858 100.805 158.557 101.3C158.256 101.795 157.854 102.27 157.349 102.726C156.854 103.172 156.262 103.546 155.574 103.847C154.894 104.138 154.128 104.283 153.274 104.283C152.207 104.283 151.271 104.075 150.465 103.657C149.67 103.24 149.049 102.682 148.602 101.984C148.166 101.276 147.948 100.485 147.948 99.6116C147.948 98.7675 148.113 98.0253 148.442 97.3849C148.772 96.7349 149.248 96.1964 149.869 95.7695C150.49 95.3329 151.237 95.003 152.11 94.7799C152.983 94.5567 153.958 94.4451 155.035 94.4451H158.164ZM158.179 81.9292L159.998 82.0892C159.998 82.7975 159.857 83.4185 159.576 83.9521C159.294 84.4857 158.916 84.8981 158.441 85.1891C157.975 85.4802 157.446 85.6257 156.854 85.6257C156.359 85.6257 155.952 85.5578 155.632 85.422C155.312 85.2765 155.025 85.1164 154.773 84.9417C154.521 84.7574 154.254 84.5973 153.973 84.4615C153.701 84.3159 153.361 84.2432 152.954 84.2432C152.546 84.2432 152.202 84.3984 151.921 84.7089C151.649 85.0193 151.513 85.4026 151.513 85.8586L149.694 85.7713C149.694 85.063 149.83 84.4421 150.101 83.9084C150.383 83.3651 150.761 82.943 151.237 82.6423C151.712 82.3318 152.241 82.1766 152.823 82.1766C153.24 82.1766 153.604 82.2493 153.914 82.3949C154.235 82.5307 154.535 82.6908 154.817 82.8751C155.098 83.0498 155.389 83.2099 155.69 83.3554C155.991 83.4912 156.335 83.5591 156.723 83.5591C157.131 83.5591 157.475 83.4039 157.757 83.0934C158.038 82.7733 158.179 82.3852 158.179 81.9292ZM163.913 96.2934V95.9587C163.913 94.8235 164.078 93.7708 164.408 92.8006C164.737 91.8207 165.213 90.9717 165.834 90.2537C166.455 89.5261 167.207 88.9633 168.09 88.5655C168.972 88.158 169.962 87.9543 171.058 87.9543C172.165 87.9543 173.159 88.158 174.042 88.5655C174.935 88.9633 175.691 89.5261 176.312 90.2537C176.943 90.9717 177.423 91.8207 177.753 92.8006C178.083 93.7708 178.248 94.8235 178.248 95.9587V96.2934C178.248 97.4286 178.083 98.4813 177.753 99.4515C177.423 100.422 176.943 101.271 176.312 101.998C175.691 102.716 174.939 103.279 174.056 103.687C173.183 104.084 172.194 104.283 171.088 104.283C169.981 104.283 168.987 104.084 168.104 103.687C167.221 103.279 166.464 102.716 165.834 101.998C165.213 101.271 164.737 100.422 164.408 99.4515C164.078 98.4813 163.913 97.4286 163.913 96.2934ZM166.605 95.9587V96.2934C166.605 97.0793 166.697 97.8215 166.882 98.5201C167.066 99.209 167.342 99.8202 167.711 100.354C168.09 100.887 168.56 101.31 169.123 101.62C169.686 101.921 170.34 102.071 171.088 102.071C171.825 102.071 172.47 101.921 173.023 101.62C173.586 101.31 174.052 100.887 174.42 100.354C174.789 99.8202 175.066 99.209 175.25 98.5201C175.444 97.8215 175.541 97.0793 175.541 96.2934V95.9587C175.541 95.1825 175.444 94.45 175.25 93.7611C175.066 93.0625 174.784 92.4465 174.406 91.9128C174.037 91.3695 173.571 90.9426 173.009 90.6321C172.456 90.3216 171.806 90.1664 171.058 90.1664C170.321 90.1664 169.671 90.3216 169.108 90.6321C168.555 90.9426 168.09 91.3695 167.711 91.9128C167.342 92.4465 167.066 93.0625 166.882 93.7611C166.697 94.45 166.605 95.1825 166.605 95.9587ZM198.186 99.8153C198.186 99.4273 198.099 99.0683 197.924 98.7384C197.759 98.3988 197.415 98.0932 196.891 97.8215C196.377 97.5402 195.6 97.2976 194.562 97.0939C193.689 96.9095 192.898 96.6912 192.19 96.4389C191.492 96.1867 190.895 95.8811 190.4 95.5221C189.915 95.1631 189.541 94.741 189.279 94.2559C189.017 93.7708 188.886 93.2032 188.886 92.5532C188.886 91.9322 189.022 91.3452 189.294 90.7922C189.575 90.2392 189.968 89.7492 190.473 89.3223C190.987 88.8954 191.603 88.5607 192.321 88.3181C193.039 88.0756 193.839 87.9543 194.722 87.9543C195.984 87.9543 197.061 88.1774 197.953 88.6237C198.846 89.0701 199.53 89.6667 200.005 90.4138C200.481 91.1512 200.718 91.971 200.718 92.8734H198.026C198.026 92.4367 197.895 92.0147 197.633 91.6072C197.381 91.19 197.007 90.8456 196.512 90.5739C196.027 90.3022 195.431 90.1664 194.722 90.1664C193.975 90.1664 193.369 90.2828 192.903 90.5157C192.447 90.7388 192.112 91.0251 191.899 91.3743C191.695 91.7236 191.593 92.0923 191.593 92.4804C191.593 92.7715 191.642 93.0334 191.739 93.2663C191.846 93.4894 192.03 93.698 192.292 93.8921C192.554 94.0764 192.923 94.2511 193.398 94.416C193.873 94.581 194.48 94.7459 195.217 94.9108C196.508 95.2019 197.57 95.5512 198.404 95.9587C199.239 96.3662 199.86 96.8658 200.267 97.4577C200.675 98.0495 200.878 98.7675 200.878 99.6116C200.878 100.3 200.733 100.931 200.442 101.504C200.161 102.076 199.748 102.571 199.205 102.988C198.671 103.395 198.031 103.716 197.284 103.949C196.546 104.172 195.717 104.283 194.795 104.283C193.408 104.283 192.234 104.036 191.273 103.541C190.313 103.046 189.585 102.406 189.09 101.62C188.595 100.834 188.348 100.005 188.348 99.1313H191.055C191.094 99.8687 191.307 100.456 191.695 100.892C192.083 101.319 192.559 101.625 193.121 101.809C193.684 101.984 194.242 102.071 194.795 102.071C195.533 102.071 196.149 101.974 196.643 101.78C197.148 101.586 197.531 101.319 197.793 100.98C198.055 100.64 198.186 100.252 198.186 99.8153ZM210.949 104.283C209.853 104.283 208.859 104.099 207.966 103.73C207.083 103.352 206.321 102.823 205.681 102.144C205.05 101.465 204.565 100.659 204.226 99.728C203.886 98.7966 203.716 97.7779 203.716 96.6718V96.0606C203.716 94.7799 203.906 93.6398 204.284 92.6405C204.662 91.6315 205.177 90.7777 205.827 90.0791C206.477 89.3805 207.214 88.8517 208.039 88.4928C208.863 88.1338 209.717 87.9543 210.6 87.9543C211.726 87.9543 212.696 88.1483 213.511 88.5364C214.336 88.9245 215.01 89.4678 215.534 90.1664C216.058 90.8553 216.446 91.6703 216.698 92.6114C216.95 93.5428 217.076 94.5616 217.076 95.6676V96.8756H205.317V94.678H214.384V94.4742C214.345 93.7757 214.2 93.0965 213.947 92.4367C213.705 91.777 213.317 91.2337 212.783 90.8068C212.25 90.3799 211.522 90.1664 210.6 90.1664C209.989 90.1664 209.426 90.2974 208.912 90.5594C208.398 90.8116 207.956 91.19 207.588 91.6945C207.219 92.199 206.933 92.8151 206.729 93.5428C206.525 94.2705 206.423 95.1097 206.423 96.0606V96.6718C206.423 97.4189 206.525 98.1223 206.729 98.7821C206.942 99.4321 207.248 100.005 207.646 100.499C208.053 100.994 208.543 101.382 209.116 101.664C209.698 101.945 210.358 102.086 211.095 102.086C212.046 102.086 212.851 101.892 213.511 101.504C214.171 101.115 214.748 100.596 215.243 99.9463L216.873 101.242C216.533 101.756 216.101 102.246 215.577 102.711C215.054 103.177 214.408 103.556 213.642 103.847C212.885 104.138 211.988 104.283 210.949 104.283ZM226.522 102.071C227.162 102.071 227.754 101.94 228.297 101.678C228.84 101.416 229.287 101.057 229.636 100.601C229.985 100.136 230.184 99.6067 230.233 99.0149H232.794C232.746 99.9463 232.43 100.815 231.848 101.62C231.276 102.416 230.524 103.061 229.592 103.556C228.661 104.041 227.637 104.283 226.522 104.283C225.338 104.283 224.305 104.075 223.422 103.657C222.549 103.24 221.821 102.668 221.239 101.94C220.666 101.212 220.235 100.378 219.943 99.437C219.662 98.4861 219.521 97.4819 219.521 96.4244V95.8131C219.521 94.7556 219.662 93.7563 219.943 92.8151C220.235 91.8643 220.666 91.0251 221.239 90.2974C221.821 89.5697 222.549 88.9973 223.422 88.5801C224.305 88.1629 225.338 87.9543 226.522 87.9543C227.754 87.9543 228.831 88.2065 229.753 88.7111C230.674 89.2059 231.397 89.885 231.921 90.7485C232.455 91.6024 232.746 92.5726 232.794 93.6592H230.233C230.184 93.0092 230 92.4222 229.68 91.8983C229.369 91.3743 228.942 90.9571 228.399 90.6467C227.865 90.3265 227.24 90.1664 226.522 90.1664C225.697 90.1664 225.003 90.3313 224.441 90.6612C223.887 90.9814 223.446 91.418 223.116 91.971C222.796 92.5144 222.563 93.1208 222.418 93.7902C222.282 94.45 222.214 95.1243 222.214 95.8131V96.4244C222.214 97.1133 222.282 97.7924 222.418 98.4619C222.553 99.1313 222.781 99.7377 223.102 100.281C223.431 100.824 223.873 101.261 224.426 101.591C224.989 101.911 225.687 102.071 226.522 102.071ZM245.456 100.354V88.2454H248.163V103.992H245.587L245.456 100.354ZM245.965 97.0356L247.086 97.0065C247.086 98.0544 246.974 99.0246 246.751 99.9172C246.537 100.8 246.188 101.567 245.703 102.217C245.218 102.867 244.582 103.376 243.797 103.745C243.011 104.104 242.055 104.283 240.93 104.283C240.163 104.283 239.46 104.172 238.819 103.949C238.189 103.725 237.645 103.381 237.189 102.915C236.733 102.45 236.379 101.843 236.127 101.096C235.884 100.349 235.763 99.4515 235.763 98.4037V88.2454H238.455V98.4328C238.455 99.141 238.533 99.728 238.688 100.194C238.853 100.65 239.072 101.014 239.343 101.285C239.625 101.547 239.935 101.732 240.275 101.838C240.624 101.945 240.983 101.998 241.352 101.998C242.496 101.998 243.404 101.78 244.073 101.343C244.743 100.897 245.223 100.3 245.514 99.5534C245.815 98.7966 245.965 97.9574 245.965 97.0356ZM254.959 91.6072V103.992H252.267V88.2454H254.814L254.959 91.6072ZM254.319 95.5221L253.198 95.4784C253.208 94.4015 253.368 93.407 253.678 92.495C253.989 91.5732 254.425 90.7728 254.988 90.0936C255.551 89.4145 256.22 88.8906 256.997 88.5219C257.782 88.1435 258.651 87.9543 259.602 87.9543C260.378 87.9543 261.076 88.061 261.697 88.2745C262.318 88.4782 262.847 88.8081 263.284 89.2641C263.73 89.7201 264.07 90.3119 264.302 91.0396C264.535 91.7576 264.652 92.6356 264.652 93.6738V103.992H261.945V93.6447C261.945 92.82 261.823 92.1602 261.581 91.6654C261.338 91.1609 260.984 90.7971 260.519 90.5739C260.053 90.3411 259.48 90.2246 258.801 90.2246C258.132 90.2246 257.521 90.3653 256.967 90.6467C256.424 90.928 255.954 91.3161 255.556 91.811C255.168 92.3058 254.862 92.8734 254.639 93.5137C254.425 94.1444 254.319 94.8138 254.319 95.5221ZM278.667 100.936V81.6381H281.374V103.992H278.9L278.667 100.936ZM268.072 96.2934V95.9878C268.072 94.7847 268.217 93.6932 268.508 92.7133C268.809 91.7236 269.231 90.8747 269.775 90.1664C270.328 89.4581 270.982 88.9148 271.739 88.5364C272.506 88.1483 273.36 87.9543 274.301 87.9543C275.29 87.9543 276.154 88.1289 276.891 88.4782C277.638 88.8178 278.269 89.3175 278.783 89.9772C279.307 90.6273 279.719 91.4132 280.02 92.3349C280.321 93.2566 280.53 94.2996 280.646 95.4639V96.8028C280.539 97.9574 280.331 98.9955 280.02 99.9172C279.719 100.839 279.307 101.625 278.783 102.275C278.269 102.925 277.638 103.425 276.891 103.774C276.144 104.113 275.271 104.283 274.272 104.283C273.35 104.283 272.506 104.084 271.739 103.687C270.982 103.289 270.328 102.731 269.775 102.013C269.231 101.295 268.809 100.451 268.508 99.4806C268.217 98.5007 268.072 97.4383 268.072 96.2934ZM270.779 95.9878V96.2934C270.779 97.0793 270.856 97.8167 271.012 98.5055C271.176 99.1944 271.429 99.8008 271.768 100.325C272.108 100.849 272.54 101.261 273.064 101.562C273.588 101.853 274.213 101.998 274.941 101.998C275.834 101.998 276.566 101.809 277.139 101.431C277.721 101.052 278.186 100.553 278.536 99.9318C278.885 99.3108 279.157 98.6365 279.351 97.9088V94.4015C279.234 93.8678 279.064 93.3536 278.841 92.8588C278.628 92.3543 278.346 91.908 277.997 91.5199C277.658 91.1221 277.236 90.8068 276.731 90.5739C276.236 90.3411 275.649 90.2246 274.97 90.2246C274.233 90.2246 273.597 90.3799 273.064 90.6903C272.54 90.9911 272.108 91.4083 271.768 91.9419C271.429 92.4659 271.176 93.0771 271.012 93.7757C270.856 94.4645 270.779 95.2019 270.779 95.9878ZM294.85 101.3V93.1935C294.85 92.5726 294.724 92.0341 294.472 91.5781C294.229 91.1124 293.86 90.7534 293.366 90.5011C292.871 90.2489 292.26 90.1228 291.532 90.1228C290.853 90.1228 290.256 90.2392 289.742 90.472C289.237 90.7049 288.84 91.0105 288.548 91.3889C288.267 91.7673 288.126 92.1748 288.126 92.6114H285.434C285.434 92.0487 285.58 91.4908 285.871 90.9377C286.162 90.3847 286.579 89.885 287.122 89.4387C287.675 88.9827 288.335 88.6237 289.101 88.3618C289.878 88.0901 290.741 87.9543 291.692 87.9543C292.837 87.9543 293.846 88.1483 294.719 88.5364C295.602 88.9245 296.291 89.5115 296.786 90.2974C297.29 91.0736 297.542 92.0487 297.542 93.2226V100.558C297.542 101.081 297.586 101.639 297.673 102.231C297.77 102.823 297.911 103.332 298.096 103.759V103.992H295.287C295.151 103.682 295.044 103.269 294.967 102.755C294.889 102.231 294.85 101.746 294.85 101.3ZM295.316 94.4451L295.345 96.3371H292.623C291.857 96.3371 291.173 96.4001 290.571 96.5263C289.97 96.6427 289.465 96.8222 289.058 97.0647C288.65 97.3073 288.34 97.6129 288.126 97.9816C287.913 98.3406 287.806 98.7626 287.806 99.2478C287.806 99.7426 287.918 100.194 288.141 100.601C288.364 101.009 288.699 101.334 289.145 101.576C289.601 101.809 290.159 101.926 290.819 101.926C291.643 101.926 292.371 101.751 293.002 101.402C293.632 101.052 294.132 100.625 294.501 100.121C294.879 99.6165 295.083 99.1265 295.112 98.6511L296.262 99.9463C296.194 100.354 296.01 100.805 295.709 101.3C295.408 101.795 295.005 102.27 294.501 102.726C294.006 103.172 293.414 103.546 292.725 103.847C292.046 104.138 291.28 104.283 290.426 104.283C289.359 104.283 288.422 104.075 287.617 103.657C286.821 103.24 286.201 102.682 285.754 101.984C285.318 101.276 285.099 100.485 285.099 99.6116C285.099 98.7675 285.264 98.0253 285.594 97.3849C285.924 96.7349 286.399 96.1964 287.02 95.7695C287.641 95.3329 288.388 95.003 289.262 94.7799C290.135 94.5567 291.11 94.4451 292.187 94.4451H295.316ZM290.499 85.9168L293.322 81.6381H296.567L292.667 85.9168H290.499ZM304.47 90.7194V103.992H301.778V88.2454H304.397L304.47 90.7194ZM309.389 88.158L309.374 90.6612C309.151 90.6127 308.938 90.5836 308.734 90.5739C308.54 90.5545 308.317 90.5448 308.065 90.5448C307.444 90.5448 306.895 90.6418 306.42 90.8359C305.945 91.0299 305.542 91.3016 305.212 91.6509C304.882 92.0001 304.62 92.4173 304.426 92.9025C304.242 93.3779 304.121 93.9018 304.062 94.4742L303.306 94.9108C303.306 93.96 303.398 93.0674 303.582 92.233C303.776 91.3986 304.072 90.6612 304.47 90.0209C304.868 89.3708 305.372 88.8663 305.983 88.5073C306.604 88.1386 307.342 87.9543 308.196 87.9543C308.39 87.9543 308.613 87.9785 308.865 88.0271C309.117 88.0659 309.292 88.1095 309.389 88.158ZM314.803 88.2454V103.992H312.096V88.2454H314.803ZM311.892 84.0685C311.892 83.6319 312.023 83.2632 312.285 82.9625C312.557 82.6617 312.955 82.5113 313.479 82.5113C313.993 82.5113 314.386 82.6617 314.657 82.9625C314.939 83.2632 315.079 83.6319 315.079 84.0685C315.079 84.4857 314.939 84.8447 314.657 85.1455C314.386 85.4365 313.993 85.5821 313.479 85.5821C312.955 85.5821 312.557 85.4365 312.285 85.1455C312.023 84.8447 311.892 84.4857 311.892 84.0685ZM328.41 101.3V93.1935C328.41 92.5726 328.284 92.0341 328.032 91.5781C327.789 91.1124 327.421 90.7534 326.926 90.5011C326.431 90.2489 325.82 90.1228 325.092 90.1228C324.413 90.1228 323.816 90.2392 323.302 90.472C322.798 90.7049 322.4 91.0105 322.109 91.3889C321.827 91.7673 321.687 92.1748 321.687 92.6114H318.994C318.994 92.0487 319.14 91.4908 319.431 90.9377C319.722 90.3847 320.139 89.885 320.682 89.4387C321.235 88.9827 321.895 88.6237 322.662 88.3618C323.438 88.0901 324.301 87.9543 325.252 87.9543C326.397 87.9543 327.406 88.1483 328.279 88.5364C329.162 88.9245 329.851 89.5115 330.346 90.2974C330.85 91.0736 331.103 92.0487 331.103 93.2226V100.558C331.103 101.081 331.146 101.639 331.234 102.231C331.331 102.823 331.471 103.332 331.656 103.759V103.992H328.847C328.711 103.682 328.604 103.269 328.527 102.755C328.449 102.231 328.41 101.746 328.41 101.3ZM328.876 94.4451L328.905 96.3371H326.184C325.417 96.3371 324.733 96.4001 324.132 96.5263C323.53 96.6427 323.026 96.8222 322.618 97.0647C322.211 97.3073 321.9 97.6129 321.687 97.9816C321.473 98.3406 321.366 98.7626 321.366 99.2478C321.366 99.7426 321.478 100.194 321.701 100.601C321.924 101.009 322.259 101.334 322.705 101.576C323.161 101.809 323.719 101.926 324.379 101.926C325.204 101.926 325.931 101.751 326.562 101.402C327.193 101.052 327.692 100.625 328.061 100.121C328.439 99.6165 328.643 99.1265 328.672 98.6511L329.822 99.9463C329.754 100.354 329.57 100.805 329.269 101.3C328.968 101.795 328.566 102.27 328.061 102.726C327.566 103.172 326.974 103.546 326.286 103.847C325.606 104.138 324.84 104.283 323.986 104.283C322.919 104.283 321.983 104.075 321.177 103.657C320.382 103.24 319.761 102.682 319.314 101.984C318.878 101.276 318.66 100.485 318.66 99.6116C318.66 98.7675 318.824 98.0253 319.154 97.3849C319.484 96.7349 319.96 96.1964 320.581 95.7695C321.202 95.3329 321.949 95.003 322.822 94.7799C323.695 94.5567 324.67 94.4451 325.747 94.4451H328.876Z" fill="#2C2C2C"/>
<path d="M4 118.359H607.561V124.879C607.561 131.052 602.557 136.056 596.384 136.056H319.752L305.593 151.891L291.434 136.056H15.1771C9.00415 136.056 4 131.052 4 124.879V118.359Z" fill="#0567FF"/>
</g>
<defs>
<filter id="filter0_d_1995_9155" x="0" y="0.914062" width="611.561" height="158.977" filterUnits="userSpaceOnUse" color-interpolation-filters="sRGB">
<feFlood flood-opacity="0" result="BackgroundImageFix"/>
<feColorMatrix in="SourceAlpha" type="matrix" values="0 0 0 0 0 0 0 0 0 0 0 0 0 0 0 0 0 0 127 0" result="hardAlpha"/>
<feOffset dy="4"/>
<feGaussianBlur stdDeviation="2"/>
<feComposite in2="hardAlpha" operator="out"/>
<feColorMatrix type="matrix" values="0 0 0 0 0 0 0 0 0 0 0 0 0 0 0 0 0 0 0.25 0"/>
<feBlend mode="normal" in2="BackgroundImageFix" result="effect1_dropShadow_1995_9155"/>
<feBlend mode="normal" in="SourceGraphic" in2="effect1_dropShadow_1995_9155" result="shape"/>
</filter>
</defs>
</svg>
