<svg width="1051" height="606" viewBox="0 0 1051 606" fill="none" xmlns="http://www.w3.org/2000/svg">
<rect x="0.605469" y="15.1094" width="1049.44" height="590.054" rx="14.6596" fill="#0567FF" fill-opacity="0.25"/>
<rect x="11.5352" y="26.1562" width="32.2485" height="567.962" fill="#FDFBF9" fill-opacity="0.1"/>
<rect x="54.8086" y="26.1562" width="32.2485" height="567.962" fill="#FDFBF9" fill-opacity="0.1"/>
<rect x="98.0879" y="26.1562" width="32.2485" height="567.962" fill="#FDFBF9" fill-opacity="0.1"/>
<rect x="141.361" y="26.1562" width="32.2485" height="567.962" fill="#FDFBF9" fill-opacity="0.1"/>
<rect x="184.631" y="26.1562" width="32.2485" height="567.962" fill="#FDFBF9" fill-opacity="0.1"/>
<rect x="227.91" y="26.1562" width="32.2485" height="567.962" fill="#FDFBF9" fill-opacity="0.1"/>
<rect x="271.189" y="26.1562" width="32.2485" height="567.962" fill="#FDFBF9" fill-opacity="0.1"/>
<rect x="314.469" y="26.1562" width="32.2485" height="567.962" fill="#FDFBF9" fill-opacity="0.1"/>
<rect x="357.738" y="26.1562" width="32.2485" height="567.962" fill="#FDFBF9" fill-opacity="0.1"/>
<rect x="399.234" y="26.1562" width="32.2485" height="567.962" fill="#FDFBF9" fill-opacity="0.1"/>
<rect x="442.498" y="26.1562" width="32.2485" height="567.962" fill="#FDFBF9" fill-opacity="0.1"/>
<rect x="487.561" y="26.1562" width="32.2485" height="567.962" fill="#FDFBF9" fill-opacity="0.1"/>
<rect x="530.844" y="26.1562" width="32.2485" height="567.962" fill="#FDFBF9" fill-opacity="0.1"/>
<rect x="574.113" y="26.1562" width="32.2485" height="567.962" fill="#FDFBF9" fill-opacity="0.1"/>
<rect x="615.609" y="26.1562" width="32.2485" height="567.962" fill="#FDFBF9" fill-opacity="0.1"/>
<rect x="657.996" y="27.2734" width="32.5939" height="566.632" fill="#FDFBF9" fill-opacity="0.1"/>
<rect x="703.127" y="27.2734" width="30.0867" height="566.632" fill="#FDFBF9" fill-opacity="0.1"/>
<rect x="745.75" y="27.2734" width="32.5939" height="566.632" fill="#FDFBF9" fill-opacity="0.1"/>
<rect x="790.879" y="27.2734" width="32.5939" height="566.632" fill="#FDFBF9" fill-opacity="0.1"/>
<rect x="833.502" y="27.2734" width="32.5939" height="566.632" fill="#FDFBF9" fill-opacity="0.1"/>
<rect x="876.125" y="27.2734" width="32.5939" height="566.632" fill="#FDFBF9" fill-opacity="0.1"/>
<rect x="918.748" y="27.2734" width="32.5939" height="566.632" fill="#FDFBF9" fill-opacity="0.1"/>
<rect x="961.371" y="27.2734" width="32.5939" height="566.632" fill="#FDFBF9" fill-opacity="0.1"/>
<rect x="1003.99" y="27.2734" width="32.5939" height="566.632" fill="#FDFBF9" fill-opacity="0.1"/>
<path d="M443.522 264.852V260.676L449.392 259.96V236.434H443.451V232.45L456.335 230.111V259.96L462.205 260.676V264.852H443.522ZM475.542 265.353C474.333 265.353 473.085 265.225 471.796 264.971C470.524 264.732 469.347 264.374 468.265 263.897L469.052 258.863C470.055 259.229 471.081 259.515 472.13 259.722C473.196 259.913 474.238 260.008 475.256 260.008C477.276 260.008 478.867 259.316 480.028 257.932C481.189 256.548 481.786 254.393 481.818 251.466L481.77 250.941C480.99 251.943 480.052 252.707 478.954 253.232C477.873 253.741 476.68 253.995 475.375 253.995C473.323 253.995 471.518 253.518 469.959 252.564C468.416 251.593 467.215 250.217 466.356 248.436C465.513 246.654 465.092 244.515 465.092 242.018C465.092 239.679 465.593 237.572 466.595 235.695C467.613 233.818 468.997 232.338 470.747 231.257C472.512 230.159 474.516 229.61 476.759 229.61C479.129 229.61 481.213 230.159 483.011 231.257C484.808 232.354 486.208 233.945 487.21 236.029C488.212 238.112 488.713 240.626 488.713 243.568V251.108C488.713 254.099 488.148 256.66 487.019 258.791C485.906 260.923 484.355 262.553 482.366 263.682C480.394 264.796 478.119 265.353 475.542 265.353ZM476.879 248.889C477.944 248.889 478.899 248.674 479.742 248.245C480.585 247.8 481.261 247.211 481.77 246.479V242.757C481.77 240.196 481.324 238.264 480.434 236.959C479.543 235.639 478.334 234.979 476.807 234.979C475.868 234.979 475.041 235.297 474.326 235.933C473.626 236.554 473.069 237.405 472.655 238.486C472.258 239.552 472.059 240.729 472.059 242.018C472.059 243.417 472.234 244.634 472.584 245.668C472.95 246.702 473.49 247.497 474.206 248.054C474.922 248.611 475.813 248.889 476.879 248.889ZM492.674 264.852V260.294L503.936 248.197C505.081 246.909 505.98 245.787 506.632 244.833C507.284 243.879 507.745 243.012 508.016 242.232C508.302 241.437 508.445 240.65 508.445 239.87C508.445 238.518 508.056 237.373 507.276 236.434C506.513 235.496 505.383 235.027 503.888 235.027C502.281 235.027 501.065 235.552 500.237 236.601C499.41 237.635 498.997 239.067 498.997 240.896H492.22L492.173 240.753C492.125 238.653 492.57 236.768 493.509 235.098C494.463 233.412 495.831 232.076 497.613 231.09C499.41 230.103 501.526 229.61 503.96 229.61C506.346 229.61 508.39 230.04 510.092 230.899C511.81 231.742 513.13 232.927 514.052 234.454C514.975 235.981 515.436 237.747 515.436 239.751C515.436 241.135 515.19 242.439 514.697 243.664C514.203 244.873 513.432 246.153 512.382 247.505C511.332 248.857 509.98 250.408 508.326 252.158L501.574 259.411L501.621 259.531H510.617L510.974 256.214H516.367V264.852H492.674ZM532.043 265.353C528.416 265.353 525.545 264.168 523.429 261.797C521.314 259.411 520.256 255.92 520.256 251.323V243.664C520.256 239.083 521.306 235.599 523.405 233.213C525.521 230.811 528.384 229.61 531.995 229.61C535.59 229.61 538.445 230.811 540.561 233.213C542.692 235.599 543.758 239.083 543.758 243.664V251.323C543.758 255.92 542.7 259.411 540.585 261.797C538.485 264.168 535.638 265.353 532.043 265.353ZM532.043 260.008C533.602 260.008 534.787 259.372 535.598 258.099C536.409 256.827 536.815 254.791 536.815 251.991V242.948C536.815 240.18 536.401 238.16 535.574 236.888C534.747 235.615 533.554 234.979 531.995 234.979C530.42 234.979 529.227 235.615 528.416 236.888C527.605 238.16 527.199 240.18 527.199 242.948V251.991C527.199 254.791 527.605 256.827 528.416 258.099C529.243 259.372 530.452 260.008 532.043 260.008ZM547.194 274.777V270.578L550.558 269.862V243.95L546.836 243.234V239.035H556.953L557.287 242.041C558.05 240.928 558.973 240.069 560.054 239.465C561.136 238.86 562.425 238.558 563.92 238.558C566.004 238.558 567.785 239.131 569.264 240.276C570.744 241.405 571.873 242.988 572.652 245.024C573.448 247.06 573.845 249.438 573.845 252.158V252.659C573.845 255.204 573.448 257.431 572.652 259.34C571.873 261.233 570.736 262.712 569.241 263.778C567.761 264.828 565.972 265.353 563.872 265.353C562.488 265.353 561.263 265.106 560.198 264.613C559.148 264.104 558.249 263.364 557.501 262.394V269.862L560.866 270.578V274.777H547.194ZM561.796 260.008C563.578 260.008 564.866 259.348 565.662 258.028C566.473 256.707 566.878 254.918 566.878 252.659V252.158C566.878 250.52 566.695 249.096 566.33 247.887C565.964 246.662 565.399 245.708 564.636 245.024C563.888 244.324 562.926 243.974 561.748 243.974C560.794 243.974 559.951 244.189 559.219 244.618C558.504 245.048 557.931 245.66 557.501 246.456V257.765C557.931 258.497 558.504 259.054 559.219 259.435C559.951 259.817 560.81 260.008 561.796 260.008ZM575.778 264.852V260.676L579.095 260.247L586.491 251.919L579.5 243.64L576.375 243.234V239.035H589.164V243.044L587.159 243.354L590.905 248.269L594.651 243.354L592.432 243.044V239.035H604.768V243.234L601.881 243.64L595.272 251.633L602.644 260.247L605.818 260.676V264.852H592.576V260.867L594.818 260.557L590.834 255.618L586.945 260.581L589.14 260.867V264.852H575.778Z" fill="#2C2C2C"/>
<path d="M442.854 339.899C441.47 339.151 440.078 338.022 438.679 336.511C437.295 335.015 436.03 333.186 434.885 331.023C433.74 328.875 432.817 326.45 432.117 323.746C431.433 321.041 431.091 318.115 431.091 314.965V314.75C431.091 311.617 431.433 308.698 432.117 305.994C432.817 303.29 433.74 300.856 434.885 298.693C436.03 296.529 437.295 294.692 438.679 293.181C440.078 291.67 441.47 290.548 442.854 289.817L442.997 289.84L443.88 292.608C442.783 293.467 441.749 294.581 440.778 295.949C439.808 297.317 438.949 298.931 438.201 300.792C437.454 302.653 436.865 304.745 436.436 307.067C436.006 309.39 435.792 311.935 435.792 314.703V315.013C435.792 317.781 436.006 320.326 436.436 322.648C436.865 324.97 437.446 327.062 438.178 328.923C438.925 330.8 439.784 332.439 440.755 333.838C441.741 335.238 442.783 336.399 443.88 337.322L442.997 339.899H442.854ZM446.099 328.852V325.845L449.988 325.177V297.81L446.099 297.142V294.111H472.226V302.462H468.456L467.931 297.762H454.689V309.787H467.406V313.486H454.689V325.177L458.578 325.845V328.852H446.099ZM486.733 329.353C483.933 329.353 481.746 328.454 480.171 326.656C478.596 324.859 477.809 322.059 477.809 318.258V306.733L474.85 306.065V303.035H477.809H482.509V318.305C482.509 321.057 482.915 322.95 483.726 323.984C484.538 325.018 485.802 325.535 487.52 325.535C489.19 325.535 490.566 325.201 491.648 324.533C492.745 323.849 493.573 322.887 494.129 321.646V306.733L490.67 306.065V303.035H494.129H498.83V325.177L501.788 325.845V328.852H494.606L494.296 325.034C493.485 326.418 492.435 327.484 491.147 328.231C489.874 328.979 488.403 329.353 486.733 329.353ZM504.866 328.852V325.845L508.755 325.177V295.328L504.866 294.66V291.63H513.456V325.177L517.345 325.845V328.852H504.866ZM520.471 328.852V325.845L524.36 325.177V295.328L520.471 294.66V291.63H529.06V325.177L532.949 325.845V328.852H520.471ZM536.481 328.852V325.845L540.37 325.177V297.81L536.481 297.142V294.111H548.96V297.142L545.07 297.81V309.811H561.677V297.81L557.788 297.142V294.111H561.677H566.377H570.266V297.142L566.377 297.81V325.177L570.266 325.845V328.852H557.788V325.845L561.677 325.177V313.51H545.07V325.177L548.96 325.845V328.852H536.481ZM574.132 328.852V325.845L578.021 325.177V297.81L574.132 297.142V294.111H578.021H587.732C590.802 294.111 593.474 294.843 595.749 296.307C598.04 297.77 599.821 299.782 601.094 302.343C602.366 304.904 603.002 307.831 603.002 311.124V311.863C603.002 315.076 602.39 317.971 601.165 320.548C599.94 323.109 598.199 325.137 595.94 326.633C593.697 328.112 591.041 328.852 587.971 328.852H574.132ZM582.721 325.177H587.732C589.927 325.177 591.812 324.581 593.387 323.388C594.962 322.179 596.17 320.572 597.014 318.568C597.872 316.548 598.302 314.313 598.302 311.863V311.076C598.302 308.547 597.872 306.288 597.014 304.3C596.17 302.295 594.962 300.713 593.387 299.552C591.812 298.39 589.927 297.81 587.732 297.81H582.721V325.177ZM605.699 339.899L604.816 337.322C605.897 336.479 606.923 335.365 607.894 333.981C608.864 332.598 609.723 330.959 610.471 329.066C611.218 327.189 611.807 325.074 612.236 322.72C612.682 320.349 612.904 317.781 612.904 315.013V314.703C612.904 311.983 612.674 309.453 612.212 307.115C611.767 304.777 611.162 302.661 610.399 300.768C609.635 298.875 608.769 297.229 607.798 295.829C606.844 294.414 605.85 293.268 604.816 292.394L605.699 289.817H605.842C607.226 290.548 608.609 291.67 609.993 293.181C611.377 294.692 612.642 296.529 613.787 298.693C614.948 300.856 615.871 303.29 616.555 305.994C617.255 308.698 617.605 311.617 617.605 314.75V314.965C617.605 318.115 617.255 321.041 616.555 323.746C615.871 326.45 614.948 328.875 613.787 331.023C612.642 333.186 611.377 335.015 609.993 336.511C608.609 338.022 607.226 339.151 605.842 339.899H605.699Z" fill="#2C2C2C" fill-opacity="0.5"/>
<path d="M489.496 373.772V379.799C489.26 380.084 488.894 380.394 488.4 380.728C487.905 381.056 487.268 381.338 486.488 381.574C485.708 381.811 484.765 381.93 483.658 381.93C482.676 381.93 481.781 381.769 480.973 381.449C480.165 381.122 479.469 380.645 478.884 380.018C478.306 379.391 477.86 378.625 477.547 377.72C477.234 376.808 477.077 375.767 477.077 374.597V373.647C477.077 372.477 477.227 371.436 477.526 370.523C477.833 369.611 478.268 368.842 478.832 368.215C479.396 367.588 480.068 367.111 480.848 366.784C481.628 366.457 482.495 366.293 483.449 366.293C484.772 366.293 485.858 366.509 486.708 366.941C487.557 367.365 488.205 367.957 488.65 368.716C489.103 369.468 489.382 370.332 489.486 371.307H486.446C486.37 370.792 486.224 370.342 486.008 369.959C485.792 369.576 485.482 369.277 485.078 369.061C484.681 368.845 484.166 368.737 483.532 368.737C483.01 368.737 482.543 368.845 482.133 369.061C481.729 369.27 481.387 369.58 481.109 369.991C480.83 370.402 480.618 370.91 480.472 371.516C480.326 372.122 480.252 372.825 480.252 373.626V374.597C480.252 375.391 480.329 376.094 480.482 376.707C480.635 377.313 480.862 377.825 481.161 378.242C481.468 378.653 481.844 378.963 482.289 379.172C482.735 379.381 483.254 379.485 483.846 379.485C484.34 379.485 484.751 379.444 485.078 379.36C485.412 379.277 485.68 379.176 485.882 379.057C486.091 378.932 486.251 378.813 486.363 378.702V376.007H483.501V373.772H489.496ZM497.936 379.172V374.137C497.936 373.775 497.877 373.465 497.759 373.208C497.64 372.943 497.456 372.738 497.205 372.592C496.961 372.445 496.644 372.372 496.255 372.372C495.92 372.372 495.631 372.431 495.388 372.55C495.144 372.661 494.956 372.825 494.824 373.041C494.691 373.25 494.625 373.497 494.625 373.782H491.617C491.617 373.302 491.728 372.846 491.951 372.414C492.174 371.982 492.498 371.603 492.923 371.275C493.347 370.941 493.852 370.68 494.437 370.492C495.029 370.304 495.69 370.21 496.422 370.21C497.299 370.21 498.079 370.356 498.761 370.649C499.444 370.941 499.98 371.38 500.37 371.965C500.767 372.55 500.965 373.281 500.965 374.158V378.994C500.965 379.614 501.004 380.123 501.08 380.52C501.157 380.909 501.268 381.251 501.414 381.543V381.721H498.375C498.229 381.414 498.117 381.031 498.041 380.572C497.971 380.105 497.936 379.639 497.936 379.172ZM498.333 374.837L498.354 376.54H496.672C496.275 376.54 495.931 376.585 495.638 376.676C495.346 376.766 495.106 376.895 494.918 377.062C494.73 377.222 494.59 377.41 494.5 377.626C494.416 377.842 494.374 378.079 494.374 378.336C494.374 378.594 494.434 378.827 494.552 379.036C494.67 379.238 494.841 379.398 495.064 379.517C495.287 379.628 495.548 379.684 495.847 379.684C496.3 379.684 496.693 379.593 497.027 379.412C497.362 379.231 497.619 379.008 497.8 378.744C497.988 378.479 498.086 378.229 498.093 377.992L498.887 379.266C498.775 379.552 498.622 379.848 498.427 380.154C498.239 380.46 497.999 380.749 497.706 381.021C497.414 381.285 497.062 381.505 496.651 381.679C496.241 381.846 495.753 381.93 495.189 381.93C494.472 381.93 493.821 381.787 493.236 381.501C492.658 381.209 492.198 380.808 491.857 380.3C491.523 379.785 491.356 379.2 491.356 378.545C491.356 377.953 491.467 377.428 491.69 376.968C491.913 376.509 492.24 376.122 492.672 375.809C493.111 375.488 493.657 375.248 494.312 375.088C494.966 374.921 495.725 374.837 496.589 374.837H498.333ZM506.292 372.592V386.066H503.284V370.419H506.073L506.292 372.592ZM513.447 375.944V376.164C513.447 376.986 513.35 377.748 513.155 378.451C512.967 379.155 512.688 379.767 512.319 380.29C511.95 380.805 511.491 381.209 510.941 381.501C510.397 381.787 509.771 381.93 509.06 381.93C508.371 381.93 507.772 381.79 507.264 381.512C506.755 381.233 506.327 380.843 505.979 380.342C505.638 379.834 505.363 379.245 505.154 378.577C504.945 377.908 504.785 377.191 504.673 376.425V375.85C504.785 375.029 504.945 374.277 505.154 373.594C505.363 372.905 505.638 372.31 505.979 371.808C506.327 371.3 506.752 370.906 507.253 370.628C507.762 370.349 508.357 370.21 509.04 370.21C509.757 370.21 510.387 370.346 510.93 370.617C511.48 370.889 511.94 371.279 512.309 371.787C512.685 372.296 512.967 372.901 513.155 373.605C513.35 374.308 513.447 375.088 513.447 375.944ZM510.429 376.164V375.944C510.429 375.464 510.387 375.022 510.303 374.618C510.227 374.207 510.101 373.848 509.927 373.542C509.76 373.236 509.537 372.999 509.259 372.832C508.987 372.658 508.657 372.571 508.267 372.571C507.856 372.571 507.504 372.637 507.212 372.769C506.926 372.901 506.693 373.093 506.512 373.344C506.331 373.594 506.195 373.894 506.104 374.242C506.014 374.59 505.958 374.984 505.937 375.422V376.874C505.972 377.389 506.07 377.852 506.23 378.263C506.39 378.667 506.637 378.988 506.971 379.224C507.306 379.461 507.744 379.579 508.287 379.579C508.684 379.579 509.019 379.492 509.29 379.318C509.562 379.137 509.781 378.89 509.948 378.577C510.122 378.263 510.244 377.901 510.314 377.49C510.39 377.08 510.429 376.637 510.429 376.164ZM515.474 380.467C515.474 380.077 515.606 379.75 515.871 379.485C516.135 379.214 516.494 379.078 516.947 379.078C517.406 379.078 517.765 379.214 518.022 379.485C518.287 379.75 518.419 380.077 518.419 380.467C518.419 380.857 518.287 381.185 518.022 381.449C517.765 381.714 517.406 381.846 516.947 381.846C516.494 381.846 516.135 381.714 515.871 381.449C515.606 381.185 515.474 380.857 515.474 380.467ZM515.484 371.568C515.484 371.178 515.617 370.851 515.881 370.586C516.146 370.315 516.504 370.179 516.957 370.179C517.417 370.179 517.775 370.315 518.033 370.586C518.297 370.851 518.43 371.178 518.43 371.568C518.43 371.958 518.297 372.285 518.033 372.55C517.775 372.814 517.417 372.947 516.957 372.947C516.504 372.947 516.146 372.814 515.881 372.55C515.617 372.285 515.484 371.958 515.484 371.568ZM536.343 380.133V381.721H526.389V380.331L531.371 374.785C531.984 374.103 532.458 373.525 532.792 373.051C533.133 372.571 533.37 372.142 533.502 371.766C533.642 371.383 533.711 370.993 533.711 370.597C533.711 370.095 533.607 369.643 533.398 369.239C533.196 368.828 532.896 368.501 532.5 368.257C532.103 368.013 531.622 367.891 531.058 367.891C530.383 367.891 529.819 368.024 529.366 368.288C528.92 368.546 528.586 368.908 528.363 369.374C528.14 369.841 528.029 370.377 528.029 370.983H526.097C526.097 370.126 526.285 369.343 526.661 368.633C527.037 367.923 527.594 367.359 528.332 366.941C529.07 366.516 529.979 366.304 531.058 366.304C532.019 366.304 532.841 366.474 533.523 366.815C534.206 367.15 534.728 367.623 535.09 368.236C535.459 368.842 535.644 369.552 535.644 370.367C535.644 370.812 535.567 371.265 535.414 371.725C535.268 372.177 535.062 372.63 534.797 373.082C534.54 373.535 534.237 373.981 533.889 374.419C533.548 374.858 533.182 375.29 532.792 375.715L528.718 380.133H536.343ZM547.958 372.905V375.224C547.958 376.47 547.847 377.522 547.624 378.378C547.401 379.235 547.081 379.924 546.663 380.446C546.245 380.969 545.741 381.348 545.149 381.585C544.564 381.815 543.902 381.93 543.164 381.93C542.579 381.93 542.039 381.856 541.545 381.71C541.051 381.564 540.605 381.331 540.208 381.01C539.818 380.683 539.484 380.258 539.205 379.736C538.927 379.214 538.714 378.58 538.568 377.835C538.422 377.09 538.349 376.22 538.349 375.224V372.905C538.349 371.658 538.46 370.614 538.683 369.771C538.913 368.929 539.237 368.253 539.655 367.745C540.072 367.23 540.574 366.861 541.159 366.638C541.751 366.415 542.412 366.304 543.143 366.304C543.735 366.304 544.278 366.377 544.773 366.523C545.274 366.662 545.72 366.888 546.11 367.202C546.5 367.508 546.83 367.919 547.102 368.434C547.38 368.943 547.593 369.566 547.739 370.304C547.885 371.042 547.958 371.909 547.958 372.905ZM546.016 375.537V372.581C546.016 371.899 545.974 371.3 545.89 370.785C545.814 370.262 545.699 369.817 545.546 369.448C545.392 369.078 545.197 368.779 544.961 368.549C544.731 368.319 544.463 368.152 544.156 368.048C543.857 367.936 543.519 367.881 543.143 367.881C542.684 367.881 542.276 367.968 541.921 368.142C541.566 368.309 541.267 368.577 541.023 368.946C540.786 369.315 540.605 369.799 540.48 370.398C540.354 370.997 540.292 371.725 540.292 372.581V375.537C540.292 376.22 540.33 376.822 540.407 377.344C540.49 377.866 540.612 378.319 540.772 378.702C540.932 379.078 541.127 379.388 541.357 379.632C541.587 379.875 541.851 380.056 542.151 380.175C542.457 380.286 542.795 380.342 543.164 380.342C543.638 380.342 544.052 380.251 544.407 380.07C544.762 379.889 545.058 379.607 545.295 379.224C545.539 378.834 545.72 378.336 545.838 377.731C545.956 377.118 546.016 376.387 546.016 375.537ZM552.586 372.592V386.066H550.643V370.419H552.419L552.586 372.592ZM560.2 375.976V376.195C560.2 377.017 560.103 377.779 559.908 378.483C559.713 379.179 559.427 379.785 559.051 380.3C558.682 380.815 558.226 381.216 557.683 381.501C557.14 381.787 556.517 381.93 555.813 381.93C555.096 381.93 554.462 381.811 553.912 381.574C553.362 381.338 552.896 380.993 552.513 380.54C552.13 380.088 551.823 379.545 551.593 378.911C551.371 378.277 551.217 377.563 551.134 376.77V375.6C551.217 374.764 551.374 374.016 551.604 373.354C551.834 372.693 552.137 372.128 552.513 371.662C552.896 371.188 553.359 370.83 553.902 370.586C554.445 370.335 555.072 370.21 555.782 370.21C556.492 370.21 557.122 370.349 557.673 370.628C558.223 370.899 558.686 371.289 559.062 371.798C559.438 372.306 559.72 372.915 559.908 373.626C560.103 374.329 560.2 375.112 560.2 375.976ZM558.257 376.195V375.976C558.257 375.412 558.198 374.883 558.08 374.388C557.962 373.887 557.777 373.448 557.526 373.072C557.283 372.689 556.969 372.39 556.586 372.174C556.203 371.951 555.747 371.84 555.218 371.84C554.73 371.84 554.306 371.923 553.944 372.09C553.588 372.257 553.286 372.484 553.035 372.769C552.784 373.048 552.579 373.368 552.419 373.73C552.265 374.085 552.15 374.454 552.074 374.837V377.543C552.213 378.03 552.408 378.49 552.659 378.921C552.91 379.346 553.244 379.691 553.662 379.955C554.079 380.213 554.605 380.342 555.239 380.342C555.761 380.342 556.21 380.234 556.586 380.018C556.969 379.795 557.283 379.492 557.526 379.109C557.777 378.726 557.962 378.288 558.08 377.793C558.198 377.292 558.257 376.759 558.257 376.195ZM563.804 370.419L566.279 374.534L568.786 370.419H571.053L567.355 375.997L571.168 381.721H568.932L566.321 377.48L563.71 381.721H561.464L565.266 375.997L561.579 370.419H563.804Z" fill="#0567FF"/>
<path d="M54.8145 6.375L54.8145 1.60715" stroke="#0567FF" stroke-width="2.44326" stroke-linecap="round"/>
<path d="M43.7871 6.375L43.7871 1.60715" stroke="#0567FF" stroke-width="2.44326" stroke-linecap="round"/>
<path d="M54.8145 3.99023L43.7886 3.9902" stroke="#0567FF" stroke-width="2.44326"/>
<path d="M98.0938 6.375L98.0938 1.60715" stroke="#0567FF" stroke-width="2.44326" stroke-linecap="round"/>
<path d="M87.0664 6.375L87.0664 1.60715" stroke="#0567FF" stroke-width="2.44326" stroke-linecap="round"/>
<path d="M98.0938 3.99023L87.0679 3.9902" stroke="#0567FF" stroke-width="2.44326"/>
<path d="M141.367 6.375L141.367 1.60715" stroke="#0567FF" stroke-width="2.44326" stroke-linecap="round"/>
<path d="M130.34 6.375L130.34 1.60715" stroke="#0567FF" stroke-width="2.44326" stroke-linecap="round"/>
<path d="M141.367 3.99023L130.341 3.9902" stroke="#0567FF" stroke-width="2.44326"/>
<path d="M184.643 6.375L184.643 1.60715" stroke="#0567FF" stroke-width="2.44326" stroke-linecap="round"/>
<path d="M173.615 6.375L173.615 1.60715" stroke="#0567FF" stroke-width="2.44326" stroke-linecap="round"/>
<path d="M184.643 3.99023L173.616 3.9902" stroke="#0567FF" stroke-width="2.44326"/>
<path d="M54.8145 6.375L54.8145 1.60715" stroke="#0567FF" stroke-width="2.44326" stroke-linecap="round"/>
<path d="M43.7871 6.375L43.7871 1.60715" stroke="#0567FF" stroke-width="2.44326" stroke-linecap="round"/>
<path d="M54.8145 3.99023L43.7886 3.9902" stroke="#0567FF" stroke-width="2.44326"/>
<path d="M98.0938 6.375L98.0938 1.60715" stroke="#0567FF" stroke-width="2.44326" stroke-linecap="round"/>
<path d="M87.0664 6.375L87.0664 1.60715" stroke="#0567FF" stroke-width="2.44326" stroke-linecap="round"/>
<path d="M98.0938 3.99023L87.0679 3.9902" stroke="#0567FF" stroke-width="2.44326"/>
<path d="M141.367 6.375L141.367 1.60715" stroke="#0567FF" stroke-width="2.44326" stroke-linecap="round"/>
<path d="M130.34 6.375L130.34 1.60715" stroke="#0567FF" stroke-width="2.44326" stroke-linecap="round"/>
<path d="M141.367 3.99023L130.341 3.9902" stroke="#0567FF" stroke-width="2.44326"/>
<path d="M184.643 6.375L184.643 1.60715" stroke="#0567FF" stroke-width="2.44326" stroke-linecap="round"/>
<path d="M173.615 6.375L173.615 1.60715" stroke="#0567FF" stroke-width="2.44326" stroke-linecap="round"/>
<path d="M184.643 3.99023L173.616 3.9902" stroke="#0567FF" stroke-width="2.44326"/>
<path d="M227.91 6.375L227.91 1.60715" stroke="#0567FF" stroke-width="2.44326" stroke-linecap="round"/>
<path d="M216.887 6.375L216.887 1.60715" stroke="#0567FF" stroke-width="2.44326" stroke-linecap="round"/>
<path d="M227.91 3.99023L216.884 3.9902" stroke="#0567FF" stroke-width="2.44326"/>
<path d="M271.184 6.375L271.184 1.60715" stroke="#0567FF" stroke-width="2.44326" stroke-linecap="round"/>
<path d="M260.16 6.375L260.16 1.60715" stroke="#0567FF" stroke-width="2.44326" stroke-linecap="round"/>
<path d="M271.184 3.99023L260.158 3.9902" stroke="#0567FF" stroke-width="2.44326"/>
<path d="M314.469 6.375L314.469 1.60715" stroke="#0567FF" stroke-width="2.44326" stroke-linecap="round"/>
<path d="M303.441 6.375L303.441 1.60715" stroke="#0567FF" stroke-width="2.44326" stroke-linecap="round"/>
<path d="M314.469 3.99023L303.443 3.9902" stroke="#0567FF" stroke-width="2.44326"/>
<path d="M357.736 6.375L357.736 1.60715" stroke="#0567FF" stroke-width="2.44326" stroke-linecap="round"/>
<path d="M346.709 6.375L346.709 1.60715" stroke="#0567FF" stroke-width="2.44326" stroke-linecap="round"/>
<path d="M357.736 3.99023L346.709 3.9902" stroke="#0567FF" stroke-width="2.44326"/>
<path d="M399.818 6.375L399.818 1.60715" stroke="#0567FF" stroke-width="2.44326" stroke-linecap="round"/>
<path d="M390.578 6.375L390.578 1.60715" stroke="#0567FF" stroke-width="2.44326" stroke-linecap="round"/>
<path d="M401.605 3.99023L390.58 3.9902" stroke="#0567FF" stroke-width="2.44326"/>
<path d="M443.1 6.375L443.1 1.60715" stroke="#0567FF" stroke-width="2.44326" stroke-linecap="round"/>
<path d="M432.072 6.375L432.072 1.60715" stroke="#0567FF" stroke-width="2.44326" stroke-linecap="round"/>
<path d="M443.1 3.99023L432.074 3.9902" stroke="#0567FF" stroke-width="2.44326"/>
<path d="M488.164 6.375L488.164 1.60715" stroke="#0567FF" stroke-width="2.44326" stroke-linecap="round"/>
<path d="M475.357 6.375L475.357 1.60715" stroke="#0567FF" stroke-width="2.44326" stroke-linecap="round"/>
<path d="M486.381 3.99023L475.355 3.9902" stroke="#0567FF" stroke-width="2.44326"/>
<path d="M531.432 6.375L531.432 1.60715" stroke="#0567FF" stroke-width="2.44326" stroke-linecap="round"/>
<path d="M520.408 6.375L520.408 1.60715" stroke="#0567FF" stroke-width="2.44326" stroke-linecap="round"/>
<path d="M531.432 3.99023L520.405 3.9902" stroke="#0567FF" stroke-width="2.44326"/>
<path d="M399.818 6.375L399.818 1.60715" stroke="#0567FF" stroke-width="2.44326" stroke-linecap="round"/>
<path d="M390.578 6.375L390.578 1.60715" stroke="#0567FF" stroke-width="2.44326" stroke-linecap="round"/>
<path d="M401.605 3.99023L390.58 3.9902" stroke="#0567FF" stroke-width="2.44326"/>
<path d="M443.1 6.375L443.1 1.60715" stroke="#0567FF" stroke-width="2.44326" stroke-linecap="round"/>
<path d="M432.072 6.375L432.072 1.60715" stroke="#0567FF" stroke-width="2.44326" stroke-linecap="round"/>
<path d="M443.1 3.99023L432.074 3.9902" stroke="#0567FF" stroke-width="2.44326"/>
<path d="M488.164 6.375L488.164 1.60715" stroke="#0567FF" stroke-width="2.44326" stroke-linecap="round"/>
<path d="M475.357 6.375L475.357 1.60715" stroke="#0567FF" stroke-width="2.44326" stroke-linecap="round"/>
<path d="M486.381 3.99023L475.355 3.9902" stroke="#0567FF" stroke-width="2.44326"/>
<path d="M531.432 6.375L531.432 1.60715" stroke="#0567FF" stroke-width="2.44326" stroke-linecap="round"/>
<path d="M520.408 6.375L520.408 1.60715" stroke="#0567FF" stroke-width="2.44326" stroke-linecap="round"/>
<path d="M531.432 3.99023L520.405 3.9902" stroke="#0567FF" stroke-width="2.44326"/>
<path d="M574.701 6.375L574.701 1.60715" stroke="#0567FF" stroke-width="2.44326" stroke-linecap="round"/>
<path d="M563.678 6.375L563.678 1.60715" stroke="#0567FF" stroke-width="2.44326" stroke-linecap="round"/>
<path d="M574.701 3.99023L563.675 3.9902" stroke="#0567FF" stroke-width="2.44326"/>
<path d="M616.193 6.375L616.193 1.60715" stroke="#0567FF" stroke-width="2.44326" stroke-linecap="round"/>
<path d="M605.166 6.375L605.166 1.60715" stroke="#0567FF" stroke-width="2.44326" stroke-linecap="round"/>
<path d="M616.193 3.99023L605.168 3.9902" stroke="#0567FF" stroke-width="2.44326"/>
<path d="M659.477 6.375L659.477 1.60715" stroke="#0567FF" stroke-width="2.44326" stroke-linecap="round"/>
<path d="M648.449 6.375L648.449 1.60715" stroke="#0567FF" stroke-width="2.44326" stroke-linecap="round"/>
<path d="M659.477 3.99023L648.451 3.9902" stroke="#0567FF" stroke-width="2.44326"/>
<path d="M702.74 6.375L702.74 1.60715" stroke="#0567FF" stroke-width="2.44326" stroke-linecap="round"/>
<path d="M691.713 6.375L691.713 1.60715" stroke="#0567FF" stroke-width="2.44326" stroke-linecap="round"/>
<path d="M702.74 3.99023L691.713 3.9902" stroke="#0567FF" stroke-width="2.44326"/>
<path d="M746.01 6.375L746.01 1.60715" stroke="#0567FF" stroke-width="2.44326" stroke-linecap="round"/>
<path d="M734.986 6.375L734.986 1.60715" stroke="#0567FF" stroke-width="2.44326" stroke-linecap="round"/>
<path d="M746.01 3.99023L734.984 3.9902" stroke="#0567FF" stroke-width="2.44326"/>
<path d="M791.076 6.375L791.076 1.60715" stroke="#0567FF" stroke-width="2.44326" stroke-linecap="round"/>
<path d="M780.049 6.375L780.049 1.60715" stroke="#0567FF" stroke-width="2.44326" stroke-linecap="round"/>
<path d="M791.076 3.99023L780.05 3.9902" stroke="#0567FF" stroke-width="2.44326"/>
<path d="M834.354 6.375L834.354 1.60715" stroke="#0567FF" stroke-width="2.44326" stroke-linecap="round"/>
<path d="M823.326 6.375L823.326 1.60715" stroke="#0567FF" stroke-width="2.44326" stroke-linecap="round"/>
<path d="M834.354 3.99023L823.328 3.9902" stroke="#0567FF" stroke-width="2.44326"/>
<path d="M875.838 6.375L875.838 1.60715" stroke="#0567FF" stroke-width="2.44326" stroke-linecap="round"/>
<path d="M864.811 6.375L864.811 1.60715" stroke="#0567FF" stroke-width="2.44326" stroke-linecap="round"/>
<path d="M875.838 3.99023L864.811 3.9902" stroke="#0567FF" stroke-width="2.44326"/>
<path d="M746.01 6.375L746.01 1.60715" stroke="#0567FF" stroke-width="2.44326" stroke-linecap="round"/>
<path d="M734.986 6.375L734.986 1.60715" stroke="#0567FF" stroke-width="2.44326" stroke-linecap="round"/>
<path d="M746.01 3.99023L734.984 3.9902" stroke="#0567FF" stroke-width="2.44326"/>
<path d="M791.076 6.375L791.076 1.60715" stroke="#0567FF" stroke-width="2.44326" stroke-linecap="round"/>
<path d="M780.049 6.375L780.049 1.60715" stroke="#0567FF" stroke-width="2.44326" stroke-linecap="round"/>
<path d="M791.076 3.99023L780.05 3.9902" stroke="#0567FF" stroke-width="2.44326"/>
<path d="M834.354 6.375L834.354 1.60715" stroke="#0567FF" stroke-width="2.44326" stroke-linecap="round"/>
<path d="M823.326 6.375L823.326 1.60715" stroke="#0567FF" stroke-width="2.44326" stroke-linecap="round"/>
<path d="M834.354 3.99023L823.328 3.9902" stroke="#0567FF" stroke-width="2.44326"/>
<path d="M875.838 6.375L875.838 1.60715" stroke="#0567FF" stroke-width="2.44326" stroke-linecap="round"/>
<path d="M864.811 6.375L864.811 1.60715" stroke="#0567FF" stroke-width="2.44326" stroke-linecap="round"/>
<path d="M875.838 3.99023L864.811 3.9902" stroke="#0567FF" stroke-width="2.44326"/>
<path d="M919.109 6.375L919.109 1.60715" stroke="#0567FF" stroke-width="2.44326" stroke-linecap="round"/>
<path d="M908.082 6.375L908.082 1.60715" stroke="#0567FF" stroke-width="2.44326" stroke-linecap="round"/>
<path d="M919.109 3.99023L908.084 3.9902" stroke="#0567FF" stroke-width="2.44326"/>
<path d="M962.391 6.375L962.391 1.60715" stroke="#0567FF" stroke-width="2.44326" stroke-linecap="round"/>
<path d="M951.363 6.375L951.363 1.60715" stroke="#0567FF" stroke-width="2.44326" stroke-linecap="round"/>
<path d="M962.391 3.99023L951.365 3.9902" stroke="#0567FF" stroke-width="2.44326"/>
<path d="M1005.66 6.375L1005.66 1.60715" stroke="#0567FF" stroke-width="2.44326" stroke-linecap="round"/>
<path d="M994.637 6.375L994.637 1.60715" stroke="#0567FF" stroke-width="2.44326" stroke-linecap="round"/>
<path d="M1005.66 3.99023L994.638 3.9902" stroke="#0567FF" stroke-width="2.44326"/>
</svg>
