<svg width="737" height="421" viewBox="0 0 737 421" fill="none" xmlns="http://www.w3.org/2000/svg">
<rect x="18.9531" y="15.9727" width="715.691" height="402.4" rx="14.9961" fill="#0567FF" fill-opacity="0.25"/>
<rect x="24.5449" y="21.5215" width="24.0427" height="391.297" fill="#FDFBF9" fill-opacity="0.1"/>
<rect x="52.3105" y="21.5215" width="24.0427" height="391.297" fill="#FDFBF9" fill-opacity="0.1"/>
<rect x="81.8887" y="21.5215" width="24.0427" height="391.297" fill="#FDFBF9" fill-opacity="0.1"/>
<rect x="111.471" y="21.5215" width="24.0427" height="391.297" fill="#FDFBF9" fill-opacity="0.1"/>
<rect x="142.885" y="21.5215" width="24.0427" height="391.297" fill="#FDFBF9" fill-opacity="0.1"/>
<rect x="172.471" y="21.5215" width="24.0427" height="391.297" fill="#FDFBF9" fill-opacity="0.1"/>
<rect x="202.053" y="21.5215" width="24.0427" height="391.297" fill="#FDFBF9" fill-opacity="0.1"/>
<rect x="229.805" y="21.5215" width="24.0427" height="391.297" fill="#FDFBF9" fill-opacity="0.1"/>
<rect x="259.391" y="21.5215" width="24.0427" height="391.297" fill="#FDFBF9" fill-opacity="0.1"/>
<rect x="288.979" y="21.5215" width="24.0427" height="391.297" fill="#FDFBF9" fill-opacity="0.1"/>
<rect x="318.561" y="21.5215" width="24.0427" height="391.297" fill="#FDFBF9" fill-opacity="0.1"/>
<rect x="348.143" y="21.5215" width="24.0427" height="391.297" fill="#FDFBF9" fill-opacity="0.1"/>
<rect x="377.73" y="21.5215" width="24.0427" height="391.297" fill="#FDFBF9" fill-opacity="0.1"/>
<rect x="407.318" y="21.5215" width="24.0427" height="391.297" fill="#FDFBF9" fill-opacity="0.1"/>
<rect x="438.721" y="21.5215" width="24.0427" height="391.297" fill="#FDFBF9" fill-opacity="0.1"/>
<rect x="468.309" y="21.5215" width="24.0427" height="391.297" fill="#FDFBF9" fill-opacity="0.1"/>
<rect x="497.891" y="21.5215" width="24.0427" height="391.297" fill="#FDFBF9" fill-opacity="0.1"/>
<rect x="525.652" y="21.5215" width="24.0427" height="391.297" fill="#FDFBF9" fill-opacity="0.1"/>
<rect x="555.238" y="21.5215" width="24.0427" height="391.297" fill="#FDFBF9" fill-opacity="0.1"/>
<rect x="584.82" y="21.5215" width="24.0427" height="391.297" fill="#FDFBF9" fill-opacity="0.1"/>
<rect x="614.402" y="21.5215" width="24.0427" height="391.297" fill="#FDFBF9" fill-opacity="0.1"/>
<rect x="643.986" y="21.5215" width="24.0427" height="391.297" fill="#FDFBF9" fill-opacity="0.1"/>
<rect x="673.572" y="21.5215" width="24.0427" height="391.297" fill="#FDFBF9" fill-opacity="0.1"/>
<rect x="703.16" y="21.5215" width="24.0427" height="391.297" fill="#FDFBF9" fill-opacity="0.1"/>
<path d="M292.224 205.197V200.926L298.228 200.194V176.128H292.151V172.052L305.331 169.66V200.194L311.335 200.926V205.197H292.224ZM314.63 205.197V200.535L326.151 188.161C327.322 186.843 328.242 185.695 328.909 184.719C329.576 183.743 330.048 182.856 330.325 182.059C330.617 181.245 330.764 180.44 330.764 179.642C330.764 178.259 330.365 177.088 329.568 176.128C328.787 175.168 327.632 174.688 326.102 174.688C324.459 174.688 323.214 175.225 322.368 176.299C321.522 177.356 321.098 178.821 321.098 180.692H314.167L314.118 180.545C314.069 178.398 314.525 176.469 315.485 174.761C316.461 173.036 317.86 171.669 319.683 170.66C321.522 169.651 323.686 169.147 326.175 169.147C328.616 169.147 330.707 169.586 332.448 170.465C334.205 171.327 335.556 172.54 336.5 174.102C337.443 175.664 337.915 177.47 337.915 179.52C337.915 180.936 337.663 182.27 337.159 183.523C336.654 184.76 335.865 186.07 334.791 187.453C333.717 188.836 332.334 190.422 330.642 192.212L323.734 199.632L323.783 199.754H332.985L333.351 196.362H338.867V205.197H314.63ZM354.244 205.71C351.836 205.71 349.721 205.319 347.898 204.538C346.076 203.741 344.652 202.586 343.627 201.072C342.618 199.543 342.114 197.68 342.114 195.483C342.114 193.563 342.659 191.871 343.749 190.406C344.839 188.925 346.32 187.786 348.191 186.989C346.531 186.224 345.238 185.159 344.31 183.792C343.383 182.425 342.919 180.855 342.919 179.081C342.919 176.966 343.391 175.176 344.335 173.711C345.278 172.231 346.596 171.1 348.289 170.319C349.981 169.538 351.95 169.147 354.195 169.147C356.457 169.147 358.434 169.538 360.126 170.319C361.835 171.1 363.161 172.231 364.105 173.711C365.049 175.176 365.521 176.966 365.521 179.081C365.521 180.855 365.049 182.425 364.105 183.792C363.161 185.159 361.868 186.224 360.224 186.989C362.112 187.786 363.6 188.925 364.691 190.406C365.781 191.887 366.326 193.579 366.326 195.483C366.326 197.68 365.813 199.543 364.788 201.072C363.779 202.586 362.372 203.741 360.566 204.538C358.76 205.319 356.652 205.71 354.244 205.71ZM354.244 200.242C355.237 200.242 356.107 200.031 356.856 199.608C357.604 199.185 358.182 198.583 358.589 197.802C359.012 197.004 359.223 196.069 359.223 194.995C359.223 193.921 359.004 192.993 358.564 192.212C358.141 191.431 357.555 190.821 356.807 190.382C356.058 189.942 355.188 189.723 354.195 189.723C353.219 189.723 352.357 189.942 351.608 190.382C350.86 190.821 350.274 191.439 349.851 192.237C349.444 193.018 349.241 193.937 349.241 194.995C349.241 196.622 349.696 197.907 350.607 198.851C351.519 199.779 352.731 200.242 354.244 200.242ZM354.244 184.231C355.09 184.231 355.823 184.036 356.441 183.645C357.075 183.238 357.555 182.677 357.881 181.961C358.223 181.229 358.393 180.375 358.393 179.398C358.393 178.438 358.223 177.608 357.881 176.909C357.539 176.193 357.051 175.64 356.416 175.249C355.798 174.842 355.058 174.639 354.195 174.639C352.894 174.639 351.877 175.07 351.144 175.932C350.428 176.779 350.07 177.934 350.07 179.398C350.07 180.879 350.437 182.059 351.169 182.937C351.901 183.8 352.926 184.231 354.244 184.231ZM382.142 205.71C378.432 205.71 375.495 204.498 373.331 202.073C371.167 199.632 370.085 196.061 370.085 191.358V183.523C370.085 178.837 371.159 175.273 373.307 172.833C375.471 170.376 378.4 169.147 382.093 169.147C385.771 169.147 388.692 170.376 390.856 172.833C393.036 175.273 394.126 178.837 394.126 183.523V191.358C394.126 196.061 393.044 199.632 390.88 202.073C388.732 204.498 385.82 205.71 382.142 205.71ZM382.142 200.242C383.737 200.242 384.949 199.592 385.779 198.29C386.609 196.988 387.024 194.905 387.024 192.041V182.791C387.024 179.96 386.601 177.893 385.755 176.591C384.908 175.29 383.688 174.639 382.093 174.639C380.482 174.639 379.262 175.29 378.432 176.591C377.602 177.893 377.187 179.96 377.187 182.791V192.041C377.187 194.905 377.602 196.988 378.432 198.29C379.278 199.592 380.515 200.242 382.142 200.242ZM397.641 215.351V211.055L401.083 210.323V183.816L397.275 183.084V178.788H407.624L407.966 181.863C408.747 180.724 409.69 179.846 410.797 179.227C411.903 178.609 413.221 178.3 414.751 178.3C416.883 178.3 418.705 178.886 420.218 180.057C421.732 181.213 422.887 182.832 423.684 184.914C424.498 186.997 424.905 189.43 424.905 192.212V192.725C424.905 195.328 424.498 197.606 423.684 199.559C422.887 201.495 421.723 203.009 420.194 204.099C418.681 205.173 416.85 205.71 414.702 205.71C413.286 205.71 412.034 205.458 410.943 204.953C409.869 204.432 408.95 203.676 408.185 202.683V210.323L411.627 211.055V215.351H397.641ZM412.579 200.242C414.401 200.242 415.719 199.567 416.533 198.217C417.363 196.866 417.777 195.036 417.777 192.725V192.212C417.777 190.536 417.59 189.08 417.216 187.843C416.842 186.59 416.264 185.614 415.483 184.914C414.718 184.198 413.734 183.841 412.53 183.841C411.554 183.841 410.691 184.06 409.943 184.5C409.21 184.939 408.625 185.565 408.185 186.379V197.948C408.625 198.697 409.21 199.266 409.943 199.657C410.691 200.047 411.57 200.242 412.579 200.242ZM426.882 205.197V200.926L430.274 200.487L437.841 191.968L430.689 183.499L427.492 183.084V178.788H440.574V182.889L438.524 183.206L442.356 188.234L446.188 183.206L443.918 182.889V178.788H456.537V183.084L453.584 183.499L446.823 191.675L454.365 200.487L457.611 200.926V205.197H444.065V201.121L446.359 200.804L442.283 195.751L438.304 200.828L440.55 201.121V205.197H426.882Z" fill="#2C2C2C"/>
<path d="M337.452 282.498C336.036 281.733 334.612 280.578 333.18 279.032C331.765 277.503 330.471 275.631 329.299 273.418C328.128 271.222 327.184 268.74 326.468 265.974C325.768 263.208 325.419 260.214 325.419 256.992V256.772C325.419 253.567 325.768 250.581 326.468 247.815C327.184 245.048 328.128 242.559 329.299 240.346C330.471 238.133 331.765 236.254 333.18 234.708C334.612 233.162 336.036 232.015 337.452 231.266L337.598 231.291L338.501 234.122C337.378 235.001 336.321 236.14 335.328 237.539C334.336 238.938 333.457 240.59 332.692 242.494C331.927 244.398 331.325 246.537 330.886 248.913C330.447 251.289 330.227 253.892 330.227 256.723V257.041C330.227 259.872 330.447 262.476 330.886 264.851C331.325 267.227 331.919 269.367 332.668 271.27C333.432 273.191 334.311 274.867 335.304 276.298C336.313 277.73 337.378 278.918 338.501 279.862L337.598 282.498H337.452ZM340.771 271.197V268.122L344.75 267.438V239.443L340.771 238.759V235.66H353.536V238.759L349.558 239.443V251.72H366.546V239.443L362.567 238.759V235.66H366.546H371.354H375.332V238.759L371.354 239.443V267.438L375.332 268.122V271.197H362.567V268.122L366.546 267.438V255.503H349.558V267.438L353.536 268.122V271.197H340.771ZM379.286 271.197V268.122L383.265 267.438V239.443L379.286 238.759V235.66H383.265H393.199C396.339 235.66 399.073 236.408 401.4 237.905C403.743 239.402 405.565 241.461 406.867 244.08C408.169 246.7 408.82 249.694 408.82 253.062V253.819C408.82 257.106 408.193 260.067 406.94 262.703C405.688 265.323 403.906 267.398 401.595 268.927C399.301 270.441 396.583 271.197 393.443 271.197H379.286ZM388.073 267.438H393.199C395.444 267.438 397.373 266.828 398.984 265.608C400.594 264.371 401.831 262.728 402.694 260.678C403.572 258.611 404.012 256.325 404.012 253.819V253.014C404.012 250.426 403.572 248.116 402.694 246.082C401.831 244.031 400.594 242.412 398.984 241.225C397.373 240.037 395.444 239.443 393.199 239.443H388.073V267.438ZM411.578 282.498L410.675 279.862C411.781 279 412.831 277.861 413.823 276.445C414.816 275.029 415.695 273.353 416.459 271.417C417.224 269.497 417.826 267.333 418.266 264.924C418.721 262.5 418.949 259.872 418.949 257.041V256.723C418.949 253.941 418.713 251.354 418.241 248.962C417.786 246.57 417.167 244.406 416.386 242.469C415.605 240.533 414.718 238.849 413.726 237.417C412.749 235.969 411.732 234.797 410.675 233.902L411.578 231.266H411.724C413.14 232.015 414.556 233.162 415.971 234.708C417.387 236.254 418.681 238.133 419.852 240.346C421.04 242.559 421.984 245.048 422.683 247.815C423.399 250.581 423.757 253.567 423.757 256.772V256.992C423.757 260.214 423.399 263.208 422.683 265.974C421.984 268.74 421.04 271.222 419.852 273.418C418.681 275.631 417.387 277.503 415.971 279.032C414.556 280.578 413.14 281.733 411.724 282.498H411.578Z" fill="#2C2C2C" fill-opacity="0.5"/>
<path d="M320.432 313.855V323.714C320.044 324.181 319.446 324.688 318.638 325.234C317.829 325.77 316.787 326.231 315.511 326.618C314.235 327.005 312.692 327.199 310.881 327.199C309.275 327.199 307.811 326.937 306.49 326.413C305.169 325.878 304.03 325.098 303.073 324.072C302.127 323.047 301.398 321.794 300.886 320.314C300.373 318.822 300.117 317.119 300.117 315.205V313.65C300.117 311.737 300.362 310.034 300.852 308.542C301.353 307.05 302.065 305.791 302.987 304.766C303.91 303.741 305.009 302.961 306.285 302.425C307.561 301.89 308.979 301.622 310.539 301.622C312.703 301.622 314.48 301.975 315.87 302.682C317.259 303.376 318.319 304.345 319.048 305.586C319.788 306.816 320.244 308.229 320.415 309.823H315.443C315.317 308.98 315.078 308.246 314.725 307.619C314.372 306.993 313.865 306.503 313.204 306.15C312.555 305.797 311.712 305.62 310.676 305.62C309.822 305.62 309.058 305.797 308.386 306.15C307.726 306.492 307.168 306.998 306.712 307.671C306.256 308.343 305.909 309.174 305.67 310.165C305.431 311.156 305.311 312.306 305.311 313.616V315.205C305.311 316.504 305.436 317.654 305.687 318.656C305.937 319.647 306.308 320.485 306.797 321.168C307.299 321.84 307.914 322.347 308.643 322.689C309.372 323.03 310.22 323.201 311.188 323.201C311.997 323.201 312.669 323.133 313.204 322.996C313.751 322.859 314.19 322.694 314.52 322.501C314.862 322.296 315.124 322.102 315.306 321.92V317.512H310.625V313.855H320.432ZM334.237 322.689V314.453C334.237 313.861 334.14 313.354 333.946 312.933C333.753 312.5 333.451 312.164 333.041 311.925C332.642 311.686 332.124 311.566 331.486 311.566C330.939 311.566 330.466 311.663 330.068 311.856C329.669 312.039 329.362 312.306 329.145 312.659C328.929 313.001 328.821 313.406 328.821 313.873H323.9C323.9 313.087 324.082 312.341 324.447 311.634C324.811 310.928 325.341 310.307 326.036 309.772C326.73 309.225 327.556 308.798 328.513 308.491C329.481 308.183 330.563 308.029 331.759 308.029C333.194 308.029 334.47 308.268 335.586 308.747C336.703 309.225 337.58 309.943 338.218 310.9C338.867 311.856 339.191 313.052 339.191 314.488V322.398C339.191 323.412 339.254 324.243 339.379 324.893C339.505 325.53 339.687 326.089 339.926 326.567V326.857H334.954C334.715 326.356 334.533 325.73 334.407 324.978C334.294 324.215 334.237 323.452 334.237 322.689ZM334.886 315.598L334.92 318.383H332.169C331.52 318.383 330.956 318.457 330.478 318.605C329.999 318.753 329.606 318.964 329.299 319.237C328.991 319.499 328.764 319.807 328.616 320.16C328.479 320.513 328.41 320.9 328.41 321.322C328.41 321.743 328.507 322.125 328.701 322.466C328.895 322.797 329.174 323.059 329.538 323.252C329.903 323.435 330.33 323.526 330.82 323.526C331.56 323.526 332.203 323.378 332.75 323.082C333.297 322.785 333.718 322.421 334.015 321.988C334.322 321.555 334.482 321.145 334.493 320.758L335.791 322.842C335.609 323.309 335.359 323.793 335.04 324.295C334.732 324.796 334.339 325.268 333.861 325.713C333.382 326.146 332.807 326.504 332.135 326.789C331.463 327.062 330.666 327.199 329.743 327.199C328.57 327.199 327.505 326.966 326.548 326.499C325.603 326.02 324.851 325.365 324.293 324.534C323.746 323.691 323.473 322.734 323.473 321.663C323.473 320.695 323.655 319.835 324.02 319.084C324.384 318.332 324.919 317.7 325.626 317.187C326.343 316.663 327.237 316.27 328.308 316.008C329.379 315.735 330.62 315.598 332.033 315.598H334.886ZM347.905 311.925V333.965H342.984V308.371H347.546L347.905 311.925ZM359.608 317.409V317.768C359.608 319.112 359.449 320.359 359.13 321.51C358.823 322.66 358.367 323.662 357.763 324.517C357.16 325.36 356.408 326.02 355.508 326.499C354.62 326.966 353.594 327.199 352.433 327.199C351.305 327.199 350.325 326.971 349.494 326.516C348.662 326.06 347.962 325.422 347.392 324.602C346.834 323.771 346.384 322.808 346.043 321.715C345.701 320.621 345.439 319.448 345.257 318.195V317.255C345.439 315.911 345.701 314.681 346.043 313.565C346.384 312.437 346.834 311.463 347.392 310.643C347.962 309.812 348.657 309.168 349.477 308.713C350.308 308.257 351.282 308.029 352.398 308.029C353.572 308.029 354.602 308.251 355.491 308.696C356.391 309.14 357.142 309.778 357.746 310.609C358.361 311.441 358.823 312.432 359.13 313.582C359.449 314.732 359.608 316.008 359.608 317.409ZM354.671 317.768V317.409C354.671 316.623 354.602 315.9 354.466 315.239C354.34 314.567 354.135 313.981 353.851 313.48C353.577 312.978 353.213 312.591 352.757 312.318C352.313 312.033 351.772 311.891 351.134 311.891C350.462 311.891 349.887 311.999 349.408 312.215C348.941 312.432 348.56 312.745 348.264 313.155C347.968 313.565 347.745 314.055 347.597 314.624C347.449 315.194 347.358 315.837 347.324 316.555V318.93C347.381 319.773 347.54 320.53 347.802 321.202C348.064 321.863 348.469 322.387 349.016 322.774C349.562 323.161 350.28 323.355 351.168 323.355C351.818 323.355 352.364 323.213 352.808 322.928C353.253 322.632 353.611 322.227 353.885 321.715C354.17 321.202 354.369 320.61 354.483 319.938C354.608 319.266 354.671 318.543 354.671 317.768ZM362.923 324.807C362.923 324.169 363.139 323.634 363.572 323.201C364.005 322.757 364.592 322.535 365.332 322.535C366.084 322.535 366.67 322.757 367.092 323.201C367.525 323.634 367.741 324.169 367.741 324.807C367.741 325.445 367.525 325.98 367.092 326.413C366.67 326.846 366.084 327.062 365.332 327.062C364.592 327.062 364.005 326.846 363.572 326.413C363.139 325.98 362.923 325.445 362.923 324.807ZM362.94 310.25C362.94 309.613 363.157 309.077 363.589 308.644C364.022 308.2 364.609 307.978 365.349 307.978C366.101 307.978 366.688 308.2 367.109 308.644C367.542 309.077 367.758 309.613 367.758 310.25C367.758 310.888 367.542 311.424 367.109 311.856C366.688 312.289 366.101 312.506 365.349 312.506C364.609 312.506 364.022 312.289 363.589 311.856C363.157 311.424 362.94 310.888 362.94 310.25ZM391.148 301.844V326.857H387.987V305.791L381.614 308.115V305.261L390.653 301.844H391.148ZM416.059 312.437V316.23C416.059 318.269 415.876 319.989 415.512 321.39C415.147 322.791 414.623 323.919 413.94 324.773C413.257 325.627 412.431 326.248 411.463 326.635C410.506 327.011 409.424 327.199 408.216 327.199C407.26 327.199 406.377 327.08 405.568 326.84C404.76 326.601 404.031 326.22 403.381 325.696C402.743 325.16 402.197 324.465 401.741 323.611C401.285 322.757 400.938 321.72 400.699 320.502C400.46 319.283 400.34 317.859 400.34 316.23V312.437C400.34 310.398 400.522 308.69 400.887 307.312C401.263 305.933 401.792 304.829 402.476 303.997C403.159 303.154 403.979 302.551 404.936 302.186C405.904 301.822 406.986 301.639 408.182 301.639C409.15 301.639 410.039 301.759 410.848 301.998C411.668 302.226 412.397 302.596 413.035 303.109C413.672 303.61 414.213 304.282 414.658 305.125C415.113 305.956 415.461 306.976 415.7 308.183C415.939 309.39 416.059 310.809 416.059 312.437ZM412.881 316.743V311.908C412.881 310.791 412.812 309.812 412.676 308.969C412.55 308.115 412.363 307.386 412.112 306.782C411.861 306.178 411.542 305.689 411.155 305.313C410.779 304.937 410.341 304.663 409.84 304.493C409.35 304.31 408.797 304.219 408.182 304.219C407.431 304.219 406.764 304.362 406.183 304.646C405.602 304.92 405.113 305.358 404.714 305.962C404.327 306.566 404.031 307.357 403.826 308.337C403.62 309.316 403.518 310.507 403.518 311.908V316.743C403.518 317.859 403.581 318.844 403.706 319.699C403.843 320.553 404.042 321.293 404.304 321.92C404.566 322.535 404.885 323.042 405.261 323.44C405.637 323.839 406.069 324.135 406.559 324.329C407.06 324.511 407.613 324.602 408.216 324.602C408.991 324.602 409.669 324.454 410.25 324.158C410.831 323.862 411.315 323.4 411.702 322.774C412.101 322.136 412.397 321.322 412.59 320.331C412.784 319.328 412.881 318.132 412.881 316.743ZM423.627 311.925V333.965H420.45V308.371H423.354L423.627 311.925ZM436.083 317.46V317.819C436.083 319.163 435.923 320.411 435.604 321.561C435.285 322.7 434.818 323.691 434.203 324.534C433.6 325.377 432.854 326.032 431.965 326.499C431.077 326.966 430.057 327.199 428.907 327.199C427.734 327.199 426.697 327.005 425.797 326.618C424.898 326.231 424.134 325.667 423.508 324.927C422.881 324.186 422.38 323.298 422.004 322.261C421.64 321.225 421.389 320.057 421.253 318.759V316.845C421.389 315.479 421.646 314.254 422.021 313.172C422.397 312.09 422.893 311.167 423.508 310.404C424.134 309.63 424.892 309.043 425.78 308.644C426.669 308.234 427.694 308.029 428.856 308.029C430.017 308.029 431.048 308.257 431.948 308.713C432.848 309.157 433.605 309.795 434.22 310.626C434.836 311.458 435.297 312.454 435.604 313.616C435.923 314.767 436.083 316.048 436.083 317.46ZM432.905 317.819V317.46C432.905 316.538 432.808 315.672 432.614 314.863C432.421 314.043 432.119 313.326 431.709 312.711C431.31 312.084 430.798 311.594 430.171 311.241C429.545 310.877 428.799 310.695 427.933 310.695C427.136 310.695 426.441 310.831 425.849 311.105C425.268 311.378 424.772 311.748 424.362 312.215C423.952 312.671 423.616 313.195 423.354 313.787C423.104 314.368 422.916 314.972 422.79 315.598V320.023C423.018 320.821 423.337 321.572 423.747 322.279C424.157 322.973 424.704 323.537 425.387 323.97C426.071 324.391 426.931 324.602 427.967 324.602C428.821 324.602 429.556 324.426 430.171 324.072C430.798 323.708 431.31 323.213 431.709 322.586C432.119 321.96 432.421 321.242 432.614 320.433C432.808 319.613 432.905 318.742 432.905 317.819ZM441.977 308.371L446.026 315.103L450.127 308.371H453.835L447.786 317.495L454.022 326.857H450.366L446.095 319.921L441.823 326.857H438.15L444.369 317.495L438.338 308.371H441.977Z" fill="#0567FF"/>
<path d="M735.07 7.00781L735.07 2.11515" stroke="#0567FF" stroke-width="2.50722" stroke-linecap="round"/>
<path d="M12.3281 7.00781L12.3281 2.11515" stroke="#0567FF" stroke-width="2.50722" stroke-linecap="round"/>
<path d="M736.9 4.56445L12.3276 4.56442" stroke="#0567FF" stroke-width="2.50722"/>
<path d="M6.71875 15.9727L1.82395 15.9727" stroke="#0567FF" stroke-width="2.50722" stroke-linecap="round"/>
<path d="M6.71875 419.641L1.82395 419.641" stroke="#0567FF" stroke-width="2.50722" stroke-linecap="round"/>
<path d="M4.27148 15.9727L4.27148 419.639" stroke="#0567FF" stroke-width="2.50722"/>
</svg>
