<svg width="1051" height="591" viewBox="0 0 1051 591" fill="none" xmlns="http://www.w3.org/2000/svg">
<path d="M0.519531 11.6249C0.519531 5.46301 5.51475 0.467773 11.6767 0.467773H1038.81C1044.97 0.467773 1049.96 5.46299 1049.96 11.6249V579.365C1049.96 585.527 1044.97 590.522 1038.81 590.522H11.6767C5.51478 590.522 0.519531 585.527 0.519531 579.365V11.6249Z" fill="#0567FF" fill-opacity="0.25"/>
<path d="M12.6348 10.4971H45.2287V579.636H12.6348V10.4971Z" fill="#FDFBF9" fill-opacity="0.1"/>
<path d="M55.2578 10.4971H87.8517V579.636H55.2578V10.4971Z" fill="#FDFBF9" fill-opacity="0.1"/>
<path d="M100.387 10.4971H132.981V579.636H100.387V10.4971Z" fill="#FDFBF9" fill-opacity="0.1"/>
<path d="M143.01 10.4971H175.604V579.636H143.01V10.4971Z" fill="#FDFBF9" fill-opacity="0.1"/>
<path d="M185.633 10.4971H218.227V579.636H185.633V10.4971Z" fill="#FDFBF9" fill-opacity="0.1"/>
<path d="M228.256 10.4971H260.85V579.636H228.256V10.4971Z" fill="#FDFBF9" fill-opacity="0.1"/>
<path d="M273.385 10.4971H305.979V579.636H273.385V10.4971Z" fill="#FDFBF9" fill-opacity="0.1"/>
<path d="M316.008 10.4971H348.602V579.636H316.008V10.4971Z" fill="#FDFBF9" fill-opacity="0.1"/>
<path d="M358.631 10.4971H391.225V579.636H358.631V10.4971Z" fill="#FDFBF9" fill-opacity="0.1"/>
<path d="M401.254 10.4971H433.848V579.636H401.254V10.4971Z" fill="#FDFBF9" fill-opacity="0.1"/>
<path d="M446.385 10.4971H478.979V579.636H446.385V10.4971Z" fill="#FDFBF9" fill-opacity="0.1"/>
<path d="M489.006 10.4971H521.6V579.636H489.006V10.4971Z" fill="#FDFBF9" fill-opacity="0.1"/>
<path d="M531.629 10.4971H564.223V579.636H531.629V10.4971Z" fill="#FDFBF9" fill-opacity="0.1"/>
<path d="M574.252 10.4971H606.846V579.636H574.252V10.4971Z" fill="#FDFBF9" fill-opacity="0.1"/>
<path d="M619.383 10.4971H651.977V579.636H619.383V10.4971Z" fill="#FDFBF9" fill-opacity="0.1"/>
<path d="M662.006 10.4971H694.6V579.636H662.006V10.4971Z" fill="#FDFBF9" fill-opacity="0.1"/>
<path d="M704.627 10.4971H737.221V579.636H704.627V10.4971Z" fill="#FDFBF9" fill-opacity="0.1"/>
<path d="M747.25 10.4971H779.844V579.636H747.25V10.4971Z" fill="#FDFBF9" fill-opacity="0.1"/>
<path d="M792.381 10.4971H824.975V579.636H792.381V10.4971Z" fill="#FDFBF9" fill-opacity="0.1"/>
<path d="M835.004 10.4971H867.598V579.636H835.004V10.4971Z" fill="#FDFBF9" fill-opacity="0.1"/>
<path d="M877.627 10.4971H910.221V579.636H877.627V10.4971Z" fill="#FDFBF9" fill-opacity="0.1"/>
<path d="M920.248 10.4971H955.349V579.636H920.248V10.4971Z" fill="#FDFBF9" fill-opacity="0.1"/>
<path d="M965.379 10.4971H995.466V579.636H965.379V10.4971Z" fill="#FDFBF9" fill-opacity="0.1"/>
<path d="M1005.49 10.4971H1038.09V579.636H1005.49V10.4971Z" fill="#FDFBF9" fill-opacity="0.1"/>
<rect x="12.6348" y="35.5693" width="120.347" height="544.067" rx="11.1631" fill="#0567FF" fill-opacity="0.5"/>
<path d="M1050.62 25.46L0.0994873 25.4599L0.0994885 11.634C0.0994891 5.46755 5.0984 0.468628 11.2649 0.468629L1039.46 0.468719C1045.63 0.468719 1050.63 5.46763 1050.63 11.6341L1050.62 25.46Z" fill="#0567FF"/>
<path d="M533.416 257.801H536.163L543.171 275.239L550.164 257.801H552.926L544.229 279.19H542.084L533.416 257.801ZM532.52 257.801H534.944L535.341 270.846V279.19H532.52V257.801ZM551.383 257.801H553.807V279.19H550.986V270.846L551.383 257.801ZM567.748 276.473V268.29C567.748 267.663 567.621 267.12 567.367 266.659C567.122 266.189 566.75 265.827 566.25 265.572C565.751 265.317 565.134 265.19 564.399 265.19C563.713 265.19 563.111 265.308 562.592 265.543C562.083 265.778 561.681 266.086 561.387 266.468C561.103 266.85 560.961 267.262 560.961 267.702H558.244C558.244 267.134 558.39 266.571 558.684 266.013C558.978 265.455 559.399 264.95 559.948 264.5C560.506 264.039 561.172 263.677 561.946 263.413C562.729 263.138 563.601 263.001 564.561 263.001C565.716 263.001 566.735 263.197 567.616 263.589C568.508 263.981 569.203 264.573 569.702 265.366C570.212 266.15 570.466 267.134 570.466 268.319V275.723C570.466 276.252 570.51 276.815 570.598 277.413C570.696 278.01 570.838 278.524 571.025 278.955V279.19H568.189C568.052 278.877 567.944 278.461 567.866 277.942C567.788 277.413 567.748 276.923 567.748 276.473ZM568.219 269.553L568.248 271.463H565.501C564.727 271.463 564.037 271.527 563.429 271.654C562.822 271.772 562.313 271.953 561.902 272.198C561.49 272.442 561.177 272.751 560.961 273.123C560.746 273.486 560.638 273.912 560.638 274.401C560.638 274.901 560.751 275.356 560.976 275.767C561.201 276.179 561.539 276.507 561.99 276.752C562.45 276.987 563.013 277.104 563.679 277.104C564.512 277.104 565.246 276.928 565.883 276.575C566.519 276.223 567.024 275.792 567.396 275.283C567.778 274.773 567.984 274.279 568.013 273.799L569.173 275.106C569.105 275.518 568.919 275.973 568.615 276.473C568.312 276.972 567.905 277.452 567.396 277.912C566.896 278.363 566.299 278.74 565.604 279.044C564.918 279.337 564.144 279.484 563.282 279.484C562.205 279.484 561.26 279.274 560.447 278.853C559.644 278.431 559.017 277.868 558.567 277.163C558.126 276.448 557.906 275.65 557.906 274.769C557.906 273.916 558.072 273.167 558.405 272.521C558.738 271.865 559.218 271.321 559.845 270.89C560.472 270.449 561.226 270.116 562.107 269.891C562.989 269.666 563.973 269.553 565.06 269.553H568.219ZM577.459 266.351V285.302H574.727V263.295H577.224L577.459 266.351ZM588.169 271.111V271.419C588.169 272.575 588.032 273.647 587.757 274.636C587.483 275.616 587.082 276.468 586.553 277.192C586.034 277.917 585.392 278.48 584.628 278.882C583.864 279.283 582.988 279.484 581.999 279.484C580.99 279.484 580.099 279.318 579.325 278.985C578.551 278.652 577.895 278.167 577.356 277.53C576.818 276.894 576.387 276.13 576.063 275.239C575.75 274.347 575.535 273.344 575.417 272.227V270.582C575.535 269.406 575.755 268.354 576.078 267.423C576.401 266.493 576.827 265.699 577.356 265.043C577.895 264.377 578.546 263.873 579.31 263.53C580.074 263.178 580.955 263.001 581.954 263.001C582.953 263.001 583.84 263.197 584.613 263.589C585.387 263.971 586.038 264.519 586.567 265.234C587.096 265.949 587.493 266.806 587.757 267.805C588.032 268.794 588.169 269.896 588.169 271.111ZM585.436 271.419V271.111C585.436 270.317 585.353 269.573 585.186 268.878C585.02 268.172 584.76 267.555 584.408 267.026C584.065 266.488 583.624 266.067 583.086 265.763C582.547 265.45 581.905 265.293 581.161 265.293C580.476 265.293 579.878 265.411 579.369 265.646C578.869 265.881 578.443 266.199 578.091 266.6C577.738 266.992 577.449 267.443 577.224 267.952C577.009 268.451 576.847 268.971 576.739 269.509V273.314C576.935 274 577.209 274.646 577.562 275.253C577.914 275.851 578.385 276.336 578.972 276.708C579.56 277.07 580.299 277.251 581.191 277.251C581.925 277.251 582.557 277.099 583.086 276.796C583.624 276.482 584.065 276.056 584.408 275.518C584.76 274.979 585.02 274.362 585.186 273.667C585.353 272.962 585.436 272.212 585.436 271.419ZM601.008 276.473V268.29C601.008 267.663 600.881 267.12 600.626 266.659C600.382 266.189 600.009 265.827 599.51 265.572C599.01 265.317 598.393 265.19 597.659 265.19C596.973 265.19 596.371 265.308 595.852 265.543C595.343 265.778 594.941 266.086 594.647 266.468C594.363 266.85 594.221 267.262 594.221 267.702H591.503C591.503 267.134 591.65 266.571 591.944 266.013C592.238 265.455 592.659 264.95 593.208 264.5C593.766 264.039 594.432 263.677 595.206 263.413C595.989 263.138 596.861 263.001 597.82 263.001C598.976 263.001 599.995 263.197 600.876 263.589C601.767 263.981 602.463 264.573 602.962 265.366C603.472 266.15 603.726 267.134 603.726 268.319V275.723C603.726 276.252 603.77 276.815 603.858 277.413C603.956 278.01 604.098 278.524 604.284 278.955V279.19H601.449C601.312 278.877 601.204 278.461 601.126 277.942C601.048 277.413 601.008 276.923 601.008 276.473ZM601.478 269.553L601.508 271.463H598.761C597.987 271.463 597.296 271.527 596.689 271.654C596.082 271.772 595.573 271.953 595.161 272.198C594.75 272.442 594.437 272.751 594.221 273.123C594.006 273.486 593.898 273.912 593.898 274.401C593.898 274.901 594.011 275.356 594.236 275.767C594.461 276.179 594.799 276.507 595.25 276.752C595.71 276.987 596.273 277.104 596.939 277.104C597.771 277.104 598.506 276.928 599.143 276.575C599.779 276.223 600.284 275.792 600.656 275.283C601.038 274.773 601.243 274.279 601.273 273.799L602.433 275.106C602.365 275.518 602.179 275.973 601.875 276.473C601.571 276.972 601.165 277.452 600.656 277.912C600.156 278.363 599.559 278.74 598.864 279.044C598.178 279.337 597.404 279.484 596.542 279.484C595.465 279.484 594.52 279.274 593.707 278.853C592.904 278.431 592.277 277.868 591.827 277.163C591.386 276.448 591.166 275.65 591.166 274.769C591.166 273.916 591.332 273.167 591.665 272.521C591.998 271.865 592.478 271.321 593.105 270.89C593.732 270.449 594.486 270.116 595.367 269.891C596.249 269.666 597.233 269.553 598.32 269.553H601.478ZM544.552 306.929V308.19H533.399V307.052L539.239 300.429C539.965 299.605 540.544 298.882 540.977 298.262C541.41 297.633 541.72 297.062 541.907 296.548C542.103 296.026 542.201 295.52 542.201 295.03C542.201 294.312 542.058 293.679 541.773 293.132C541.495 292.586 541.079 292.157 540.524 291.847C539.969 291.537 539.284 291.382 538.467 291.382C537.651 291.382 536.941 291.557 536.337 291.908C535.733 292.259 535.268 292.749 534.942 293.377C534.623 293.998 534.464 294.704 534.464 295.495H533.007C533.007 294.516 533.224 293.618 533.656 292.802C534.097 291.986 534.725 291.337 535.541 290.855C536.358 290.366 537.333 290.121 538.467 290.121C539.545 290.121 540.471 290.313 541.246 290.696C542.022 291.072 542.618 291.614 543.034 292.324C543.458 293.034 543.67 293.891 543.67 294.895C543.67 295.434 543.572 295.977 543.377 296.524C543.189 297.07 542.928 297.617 542.593 298.164C542.267 298.703 541.891 299.237 541.467 299.768C541.05 300.298 540.614 300.821 540.157 301.335L535.186 306.929H544.552ZM554.113 290.292V308.19H552.656V292.141L547.808 293.94V292.557L553.868 290.292H554.113ZM572.452 307.174C573.072 307.174 573.652 307.06 574.19 306.832C574.737 306.595 575.186 306.248 575.537 305.791C575.896 305.326 576.1 304.759 576.149 304.089H577.545C577.504 304.93 577.247 305.681 576.774 306.342C576.308 306.995 575.696 307.509 574.937 307.884C574.186 308.252 573.358 308.435 572.452 308.435C571.53 308.435 570.714 308.268 570.004 307.933C569.302 307.599 568.714 307.134 568.241 306.538C567.767 305.934 567.408 305.232 567.163 304.432C566.927 303.624 566.808 302.755 566.808 301.824V301.31C566.808 300.38 566.927 299.515 567.163 298.715C567.408 297.907 567.767 297.205 568.241 296.609C568.714 296.005 569.302 295.536 570.004 295.201C570.705 294.867 571.517 294.699 572.44 294.699C573.386 294.699 574.235 294.891 574.986 295.275C575.745 295.658 576.349 296.201 576.798 296.903C577.255 297.605 577.504 298.437 577.545 299.4H576.149C576.108 298.69 575.921 298.078 575.586 297.564C575.251 297.05 574.811 296.654 574.264 296.377C573.717 296.099 573.109 295.96 572.44 295.96C571.689 295.96 571.048 296.107 570.518 296.401C569.987 296.687 569.555 297.083 569.22 297.589C568.894 298.086 568.653 298.658 568.498 299.303C568.343 299.939 568.265 300.608 568.265 301.31V301.824C568.265 302.534 568.339 303.212 568.485 303.857C568.641 304.493 568.881 305.06 569.208 305.558C569.542 306.056 569.975 306.452 570.505 306.746C571.044 307.031 571.693 307.174 572.452 307.174ZM579.687 301.775V301.371C579.687 300.408 579.826 299.519 580.103 298.703C580.381 297.886 580.777 297.181 581.291 296.585C581.813 295.989 582.438 295.528 583.164 295.201C583.89 294.867 584.698 294.699 585.588 294.699C586.486 294.699 587.298 294.867 588.024 295.201C588.751 295.528 589.375 295.989 589.897 296.585C590.42 297.181 590.819 297.886 591.097 298.703C591.374 299.519 591.513 300.408 591.513 301.371V301.775C591.513 302.739 591.374 303.628 591.097 304.444C590.819 305.252 590.42 305.954 589.897 306.55C589.383 307.146 588.763 307.611 588.036 307.946C587.31 308.272 586.502 308.435 585.612 308.435C584.715 308.435 583.903 308.272 583.176 307.946C582.45 307.611 581.825 307.146 581.303 306.55C580.781 305.954 580.381 305.252 580.103 304.444C579.826 303.628 579.687 302.739 579.687 301.775ZM581.144 301.371V301.775C581.144 302.502 581.242 303.191 581.438 303.844C581.634 304.489 581.919 305.065 582.295 305.571C582.67 306.068 583.135 306.46 583.69 306.746C584.245 307.031 584.886 307.174 585.612 307.174C586.331 307.174 586.963 307.031 587.51 306.746C588.065 306.46 588.53 306.068 588.906 305.571C589.281 305.065 589.563 304.489 589.75 303.844C589.946 303.191 590.044 302.502 590.044 301.775V301.371C590.044 300.653 589.946 299.972 589.75 299.327C589.563 298.682 589.277 298.107 588.893 297.601C588.518 297.095 588.053 296.695 587.498 296.401C586.943 296.107 586.306 295.96 585.588 295.96C584.87 295.96 584.233 296.107 583.678 296.401C583.131 296.695 582.666 297.095 582.283 297.601C581.907 298.107 581.621 298.682 581.426 299.327C581.238 299.972 581.144 300.653 581.144 301.371ZM596.178 289.386V308.19H594.721V289.386H596.178ZM600.046 307.297C600.046 307.011 600.136 306.77 600.315 306.574C600.503 306.37 600.756 306.268 601.074 306.268C601.401 306.268 601.658 306.366 601.846 306.562C602.033 306.758 602.127 307.003 602.127 307.297C602.127 307.574 602.033 307.811 601.846 308.007C601.658 308.203 601.401 308.301 601.074 308.301C600.756 308.301 600.503 308.203 600.315 308.007C600.136 307.811 600.046 307.574 600.046 307.297Z" fill="#606060"/>
<path d="M47.5304 275.685H49.4108C49.3129 276.586 49.055 277.392 48.6371 278.104C48.2193 278.815 47.6284 279.38 46.8644 279.798C46.1005 280.209 45.1473 280.415 44.0046 280.415C43.1689 280.415 42.4083 280.258 41.7227 279.945C41.0436 279.632 40.4593 279.188 39.9696 278.613C39.4799 278.032 39.1012 277.337 38.8335 276.527C38.5723 275.711 38.4418 274.803 38.4418 273.804V272.384C38.4418 271.385 38.5723 270.481 38.8335 269.671C39.1012 268.855 39.4832 268.156 39.9794 267.575C40.4821 266.994 41.0861 266.547 41.7912 266.234C42.4964 265.92 43.2897 265.764 44.1711 265.764C45.2485 265.764 46.1593 265.966 46.9036 266.371C47.648 266.776 48.2258 267.337 48.6371 268.055C49.055 268.767 49.3129 269.593 49.4108 270.533H47.5304C47.439 269.867 47.2693 269.296 47.0212 268.819C46.773 268.336 46.4205 267.964 45.9634 267.703C45.5064 267.442 44.9089 267.311 44.1711 267.311C43.5378 267.311 42.9796 267.432 42.4964 267.673C42.0198 267.915 41.6182 268.258 41.2918 268.702C40.9718 269.146 40.7302 269.678 40.567 270.298C40.4038 270.918 40.3222 271.607 40.3222 272.365V273.804C40.3222 274.503 40.394 275.159 40.5376 275.773C40.6878 276.387 40.9131 276.925 41.2134 277.389C41.5138 277.852 41.8957 278.218 42.3593 278.486C42.8229 278.747 43.3713 278.877 44.0046 278.877C44.8077 278.877 45.4476 278.75 45.9242 278.496C46.4009 278.241 46.76 277.875 47.0016 277.399C47.2497 276.922 47.426 276.351 47.5304 275.685ZM57.9609 278.407V272.952C57.9609 272.534 57.876 272.172 57.7062 271.865C57.543 271.552 57.2949 271.31 56.9619 271.14C56.6289 270.971 56.2176 270.886 55.7279 270.886C55.2708 270.886 54.8693 270.964 54.5232 271.121C54.1837 271.277 53.916 271.483 53.7201 271.738C53.5308 271.992 53.4361 272.267 53.4361 272.56H51.6243C51.6243 272.182 51.7222 271.806 51.9181 271.434C52.1139 271.062 52.3947 270.726 52.7603 270.425C53.1325 270.119 53.5765 269.877 54.0923 269.701C54.6146 269.518 55.1957 269.426 55.8356 269.426C56.6061 269.426 57.2851 269.557 57.8727 269.818C58.4669 270.079 58.9305 270.474 59.2634 271.003C59.603 271.526 59.7727 272.182 59.7727 272.972V277.908C59.7727 278.26 59.8021 278.636 59.8609 279.034C59.9262 279.432 60.0208 279.775 60.1449 280.063V280.219H58.2547C58.1633 280.01 58.0914 279.733 58.0392 279.387C57.987 279.034 57.9609 278.708 57.9609 278.407ZM58.2743 273.794L58.2939 275.068H56.4624C55.9466 275.068 55.4863 275.11 55.0815 275.195C54.6767 275.273 54.3371 275.394 54.0629 275.557C53.7887 275.721 53.5798 275.926 53.4361 276.174C53.2925 276.416 53.2206 276.7 53.2206 277.026C53.2206 277.359 53.2957 277.663 53.4459 277.937C53.5961 278.212 53.8213 278.43 54.1217 278.593C54.4286 278.75 54.804 278.829 55.248 278.829C55.803 278.829 56.2926 278.711 56.717 278.476C57.1414 278.241 57.4777 277.954 57.7258 277.614C57.9805 277.275 58.1176 276.945 58.1372 276.625L58.9109 277.497C58.8652 277.771 58.7411 278.074 58.5387 278.407C58.3363 278.74 58.0653 279.06 57.7258 279.367C57.3928 279.668 56.9945 279.919 56.531 280.121C56.0739 280.317 55.5581 280.415 54.9835 280.415C54.2653 280.415 53.6353 280.275 53.0933 279.994C52.5579 279.713 52.1401 279.338 51.8397 278.868C51.5459 278.391 51.399 277.859 51.399 277.271C51.399 276.703 51.51 276.204 51.732 275.773C51.954 275.335 52.2739 274.973 52.6918 274.686C53.1097 274.392 53.6124 274.17 54.2 274.02C54.7877 273.87 55.4438 273.794 56.1686 273.794H58.2743ZM64.4346 271.287V280.219H62.6227V269.622H64.3856L64.4346 271.287ZM67.7449 269.564L67.7351 271.248C67.5849 271.215 67.4413 271.196 67.3042 271.189C67.1736 271.176 67.0234 271.17 66.8537 271.17C66.4358 271.17 66.0669 271.235 65.747 271.366C65.427 271.496 65.1561 271.679 64.9341 271.914C64.7121 272.149 64.5358 272.43 64.4052 272.756C64.2812 273.076 64.1995 273.429 64.1604 273.814L63.6511 274.108C63.6511 273.468 63.7131 272.867 63.8372 272.306C63.9678 271.744 64.1669 271.248 64.4346 270.817C64.7023 270.38 65.0418 270.04 65.4531 269.799C65.871 269.55 66.3672 269.426 66.9418 269.426C67.0724 269.426 67.2226 269.443 67.3923 269.475C67.5621 269.502 67.6796 269.531 67.7449 269.564ZM75.9032 278.163V265.176H77.7248V280.219H76.0599L75.9032 278.163ZM68.7733 275.038V274.833C68.7733 274.023 68.8712 273.288 69.0671 272.629C69.2695 271.963 69.5535 271.392 69.9191 270.915C70.2913 270.438 70.732 270.073 71.2413 269.818C71.7571 269.557 72.3317 269.426 72.965 269.426C73.631 269.426 74.2121 269.544 74.7083 269.779C75.2111 270.008 75.6355 270.344 75.9815 270.788C76.3341 271.225 76.6116 271.754 76.814 272.374C77.0164 272.995 77.1568 273.697 77.2351 274.48V275.381C77.1633 276.158 77.0229 276.857 76.814 277.477C76.6116 278.097 76.3341 278.626 75.9815 279.064C75.6355 279.501 75.2111 279.837 74.7083 280.072C74.2056 280.301 73.6179 280.415 72.9454 280.415C72.3252 280.415 71.7571 280.281 71.2413 280.014C70.732 279.746 70.2913 279.37 69.9191 278.887C69.5535 278.404 69.2695 277.836 69.0671 277.183C68.8712 276.524 68.7733 275.809 68.7733 275.038ZM70.5949 274.833V275.038C70.5949 275.567 70.6471 276.063 70.7516 276.527C70.8626 276.991 71.0324 277.399 71.2609 277.751C71.4894 278.104 71.78 278.381 72.1325 278.584C72.4851 278.78 72.9063 278.877 73.396 278.877C73.9966 278.877 74.4896 278.75 74.8748 278.496C75.2666 278.241 75.58 277.905 75.815 277.487C76.0501 277.069 76.2329 276.615 76.3635 276.125V273.765C76.2851 273.406 76.1709 273.06 76.0207 272.727C75.8771 272.387 75.6877 272.087 75.4527 271.826C75.2241 271.558 74.9401 271.346 74.6006 271.189C74.2676 271.033 73.8726 270.954 73.4155 270.954C72.9193 270.954 72.4917 271.059 72.1325 271.268C71.78 271.47 71.4894 271.751 71.2609 272.11C71.0324 272.463 70.8626 272.874 70.7516 273.344C70.6471 273.808 70.5949 274.304 70.5949 274.833ZM82.514 265.176V280.219H80.6924V265.176H82.514ZM87.3913 269.622V280.219H85.5697V269.622H87.3913ZM85.4326 266.811C85.4326 266.518 85.5207 266.27 85.697 266.067C85.8798 265.865 86.1475 265.764 86.5001 265.764C86.8462 265.764 87.1106 265.865 87.2934 266.067C87.4828 266.27 87.5774 266.518 87.5774 266.811C87.5774 267.092 87.4828 267.334 87.2934 267.536C87.1106 267.732 86.8462 267.83 86.5001 267.83C86.1475 267.83 85.8798 267.732 85.697 267.536C85.5207 267.334 85.4326 267.092 85.4326 266.811ZM96.4702 277.408C96.4702 277.147 96.4115 276.906 96.2939 276.684C96.1829 276.455 95.9512 276.249 95.5986 276.067C95.2525 275.877 94.7302 275.714 94.0316 275.577C93.4439 275.453 92.9118 275.306 92.4352 275.136C91.9651 274.966 91.5635 274.761 91.2305 274.519C90.9041 274.278 90.6527 273.994 90.4764 273.667C90.3001 273.341 90.212 272.959 90.212 272.521C90.212 272.103 90.3034 271.708 90.4862 271.336C90.6755 270.964 90.94 270.634 91.2795 270.347C91.6255 270.06 92.0402 269.835 92.5233 269.671C93.0065 269.508 93.5451 269.426 94.1393 269.426C94.9881 269.426 95.7128 269.577 96.3135 269.877C96.9142 270.177 97.3745 270.579 97.6945 271.082C98.0144 271.578 98.1744 272.13 98.1744 272.737H96.3625C96.3625 272.443 96.2744 272.159 96.0981 271.885C95.9283 271.604 95.6769 271.372 95.3439 271.189C95.0175 271.007 94.6159 270.915 94.1393 270.915C93.6365 270.915 93.2285 270.993 92.9151 271.15C92.6082 271.3 92.3829 271.493 92.2393 271.728C92.1022 271.963 92.0336 272.211 92.0336 272.472C92.0336 272.668 92.0663 272.844 92.1316 273.001C92.2034 273.151 92.3274 273.292 92.5037 273.422C92.68 273.546 92.9281 273.664 93.2481 273.775C93.568 273.886 93.9761 273.997 94.4723 274.108C95.3407 274.304 96.0556 274.539 96.6171 274.813C97.1786 275.087 97.5965 275.424 97.8707 275.822C98.145 276.22 98.2821 276.703 98.2821 277.271C98.2821 277.735 98.1842 278.159 97.9883 278.544C97.7989 278.93 97.5214 279.263 97.1558 279.543C96.7967 279.818 96.3658 280.033 95.863 280.19C95.3668 280.34 94.8085 280.415 94.1883 280.415C93.2546 280.415 92.4646 280.249 91.8182 279.916C91.1718 279.583 90.6821 279.152 90.3491 278.623C90.0161 278.094 89.8496 277.536 89.8496 276.948H91.6712C91.6974 277.444 91.841 277.839 92.1022 278.133C92.3633 278.42 92.6833 278.626 93.062 278.75C93.4407 278.868 93.8161 278.926 94.1883 278.926C94.6845 278.926 95.0991 278.861 95.4321 278.731C95.7716 278.6 96.0295 278.42 96.2058 278.192C96.3821 277.963 96.4702 277.702 96.4702 277.408ZM105.099 269.622V271.013H99.3692V269.622H105.099ZM101.308 267.047H103.12V277.594C103.12 277.954 103.176 278.225 103.287 278.407C103.398 278.59 103.541 278.711 103.718 278.77C103.894 278.829 104.083 278.858 104.286 278.858C104.436 278.858 104.593 278.845 104.756 278.819C104.926 278.786 105.053 278.76 105.138 278.74L105.148 280.219C105.004 280.265 104.815 280.307 104.58 280.347C104.351 280.392 104.074 280.415 103.747 280.415C103.303 280.415 102.895 280.327 102.523 280.151C102.151 279.974 101.854 279.681 101.632 279.269C101.416 278.851 101.308 278.29 101.308 277.585V267.047ZM56.9301 292.387H57.8262C58.3747 292.387 58.8325 292.294 59.1998 292.108C59.572 291.917 59.8511 291.665 60.0372 291.351C60.2281 291.038 60.3236 290.69 60.3236 290.308C60.3236 289.877 60.2428 289.5 60.0812 289.177C59.9196 288.849 59.6723 288.594 59.3393 288.413C59.0113 288.227 58.5901 288.134 58.0759 288.134C57.6254 288.134 57.2239 288.222 56.8713 288.398C56.5187 288.575 56.2396 288.827 56.0339 289.155C55.8283 289.483 55.7254 289.875 55.7254 290.33H54.8513C54.8513 289.748 54.9909 289.236 55.27 288.795C55.5491 288.35 55.9335 288.002 56.4232 287.752C56.9129 287.502 57.4638 287.377 58.0759 287.377C58.7076 287.377 59.2561 287.493 59.7213 287.723C60.1914 287.953 60.5538 288.288 60.8084 288.729C61.068 289.17 61.1977 289.706 61.1977 290.338C61.1977 290.661 61.1267 290.979 60.9847 291.293C60.8476 291.606 60.6419 291.89 60.3677 292.145C60.0935 292.394 59.7531 292.595 59.3467 292.747C58.9403 292.899 58.4677 292.975 57.929 292.975H56.9301V292.387ZM56.9301 293.144V292.563H57.929C58.5412 292.563 59.0651 292.634 59.5009 292.776C59.9368 292.913 60.2942 293.109 60.5734 293.364C60.8574 293.614 61.0655 293.905 61.1977 294.238C61.3299 294.571 61.3961 294.929 61.3961 295.31C61.3961 295.8 61.3153 296.234 61.1537 296.611C60.9921 296.988 60.7619 297.308 60.4632 297.573C60.1694 297.832 59.8217 298.031 59.4201 298.168C59.0235 298.3 58.5877 298.366 58.1127 298.366C57.6817 298.366 57.2606 298.302 56.8493 298.175C56.4428 298.048 56.0756 297.859 55.7475 297.61C55.4243 297.355 55.1672 297.037 54.9762 296.655C54.7852 296.268 54.6897 295.822 54.6897 295.318H55.5638C55.5638 295.768 55.6716 296.167 55.887 296.515C56.1025 296.858 56.4012 297.127 56.7832 297.323C57.17 297.514 57.6132 297.61 58.1127 297.61C58.6171 297.61 59.048 297.524 59.4055 297.352C59.7678 297.176 60.0445 296.919 60.2355 296.581C60.4265 296.243 60.522 295.83 60.522 295.34C60.522 294.826 60.4069 294.407 60.1767 294.084C59.9515 293.761 59.6356 293.523 59.2292 293.371C58.8276 293.219 58.36 293.144 57.8262 293.144H56.9301ZM70.0636 297.61C70.4358 297.61 70.7834 297.541 71.1066 297.404C71.4347 297.262 71.7041 297.054 71.9146 296.78C72.1301 296.5 72.2525 296.16 72.2819 295.759H73.1193C73.0948 296.263 72.9405 296.713 72.6565 297.11C72.3774 297.502 72.0101 297.81 71.5547 298.036C71.1042 298.256 70.6072 298.366 70.0636 298.366C69.5102 298.366 69.0206 298.266 68.5945 298.065C68.1734 297.864 67.8208 297.585 67.5368 297.228C67.2528 296.865 67.0373 296.444 66.8904 295.964C66.7484 295.479 66.6774 294.958 66.6774 294.4V294.091C66.6774 293.533 66.7484 293.014 66.8904 292.534C67.0373 292.049 67.2528 291.628 67.5368 291.271C67.8208 290.908 68.1734 290.627 68.5945 290.426C69.0157 290.225 69.5029 290.125 70.0563 290.125C70.6243 290.125 71.1336 290.24 71.5841 290.47C72.0395 290.7 72.4019 291.026 72.6712 291.447C72.9454 291.868 73.0948 292.367 73.1193 292.945H72.2819C72.2574 292.519 72.1448 292.152 71.944 291.843C71.7432 291.535 71.4788 291.297 71.1507 291.131C70.8226 290.964 70.4578 290.881 70.0563 290.881C69.6057 290.881 69.2213 290.969 68.903 291.146C68.5847 291.317 68.3252 291.555 68.1244 291.858C67.9285 292.157 67.7841 292.5 67.691 292.886C67.598 293.268 67.5515 293.67 67.5515 294.091V294.4C67.5515 294.826 67.5956 295.232 67.6837 295.619C67.7767 296.001 67.9212 296.341 68.1171 296.64C68.3178 296.939 68.5774 297.176 68.8957 297.352C69.2189 297.524 69.6082 297.61 70.0636 297.61ZM74.4047 294.37V294.128C74.4047 293.55 74.488 293.016 74.6545 292.527C74.821 292.037 75.0585 291.613 75.367 291.256C75.6804 290.898 76.055 290.622 76.4908 290.426C76.9266 290.225 77.4114 290.125 77.9452 290.125C78.4839 290.125 78.9711 290.225 79.4069 290.426C79.8427 290.622 80.2174 290.898 80.5308 291.256C80.8442 291.613 81.0841 292.037 81.2506 292.527C81.4171 293.016 81.5004 293.55 81.5004 294.128V294.37C81.5004 294.948 81.4171 295.482 81.2506 295.972C81.0841 296.456 80.8442 296.877 80.5308 297.235C80.2223 297.592 79.8501 297.872 79.4143 298.072C78.9784 298.268 78.4936 298.366 77.9599 298.366C77.4212 298.366 76.934 298.268 76.4982 298.072C76.0623 297.872 75.6877 297.592 75.3743 297.235C75.0609 296.877 74.821 296.456 74.6545 295.972C74.488 295.482 74.4047 294.948 74.4047 294.37ZM75.2788 294.128V294.37C75.2788 294.806 75.3376 295.22 75.4551 295.612C75.5726 295.998 75.744 296.344 75.9693 296.647C76.1945 296.946 76.4737 297.181 76.8067 297.352C77.1396 297.524 77.5241 297.61 77.9599 297.61C78.3908 297.61 78.7703 297.524 79.0984 297.352C79.4314 297.181 79.7105 296.946 79.9358 296.647C80.161 296.344 80.33 295.998 80.4426 295.612C80.5601 295.22 80.6189 294.806 80.6189 294.37V294.128C80.6189 293.697 80.5601 293.288 80.4426 292.901C80.33 292.514 80.1586 292.169 79.9284 291.865C79.7032 291.562 79.4241 291.322 79.0911 291.146C78.7581 290.969 78.3761 290.881 77.9452 290.881C77.5143 290.881 77.1323 290.969 76.7993 291.146C76.4712 291.322 76.1921 291.562 75.9619 291.865C75.7367 292.169 75.5653 292.514 75.4478 292.901C75.3351 293.288 75.2788 293.697 75.2788 294.128ZM84.2989 286.937V298.219H83.4248V286.937H84.2989ZM86.6201 297.683C86.6201 297.512 86.6739 297.367 86.7817 297.25C86.8943 297.127 87.0461 297.066 87.2371 297.066C87.433 297.066 87.5872 297.125 87.6998 297.242C87.8125 297.36 87.8688 297.507 87.8688 297.683C87.8688 297.85 87.8125 297.992 87.6998 298.109C87.5872 298.227 87.433 298.285 87.2371 298.285C87.0461 298.285 86.8943 298.227 86.7817 298.109C86.6739 297.992 86.6201 297.85 86.6201 297.683Z" fill="#FDFBF9"/>
</svg>
