<svg width="728" height="405" viewBox="0 0 728 405" fill="none" xmlns="http://www.w3.org/2000/svg">
<rect x="0.828125" y="0.467773" width="727.094" height="403.663" rx="11.1571" fill="#0567FF" fill-opacity="0.25"/>
<rect x="6.41992" y="6.37305" width="23.6561" height="391.297" fill="#FDFBF9" fill-opacity="0.1"/>
<rect x="35.9297" y="6.37305" width="23.6561" height="391.297" fill="#FDFBF9" fill-opacity="0.1"/>
<rect x="66.0156" y="6.37305" width="23.6561" height="391.297" fill="#FDFBF9" fill-opacity="0.1"/>
<rect x="96.1016" y="6.37305" width="23.6561" height="391.297" fill="#FDFBF9" fill-opacity="0.1"/>
<rect x="126.189" y="6.37305" width="23.6561" height="391.297" fill="#FDFBF9" fill-opacity="0.1"/>
<rect x="156.275" y="6.37305" width="23.6561" height="391.297" fill="#FDFBF9" fill-opacity="0.1"/>
<rect x="186.363" y="6.37305" width="23.6561" height="391.297" fill="#FDFBF9" fill-opacity="0.1"/>
<rect x="216.449" y="6.37305" width="23.6561" height="391.297" fill="#FDFBF9" fill-opacity="0.1"/>
<rect x="246.535" y="6.37305" width="23.6561" height="391.297" fill="#FDFBF9" fill-opacity="0.1"/>
<rect x="276.623" y="6.37305" width="23.6561" height="391.297" fill="#FDFBF9" fill-opacity="0.1"/>
<rect x="306.709" y="6.37305" width="23.6561" height="391.297" fill="#FDFBF9" fill-opacity="0.1"/>
<rect x="336.795" y="6.37305" width="23.6561" height="391.297" fill="#FDFBF9" fill-opacity="0.1"/>
<rect x="366.883" y="6.37305" width="23.6561" height="391.297" fill="#FDFBF9" fill-opacity="0.1"/>
<rect x="396.969" y="6.37305" width="23.6561" height="391.297" fill="#FDFBF9" fill-opacity="0.1"/>
<rect x="427.055" y="6.37305" width="23.6561" height="391.297" fill="#FDFBF9" fill-opacity="0.1"/>
<rect x="457.143" y="6.37305" width="23.6561" height="391.297" fill="#FDFBF9" fill-opacity="0.1"/>
<rect x="487.229" y="6.37305" width="23.6561" height="391.297" fill="#FDFBF9" fill-opacity="0.1"/>
<rect x="517.316" y="6.37305" width="23.6561" height="391.297" fill="#FDFBF9" fill-opacity="0.1"/>
<rect x="547.402" y="6.37305" width="23.6561" height="391.297" fill="#FDFBF9" fill-opacity="0.1"/>
<rect x="577.488" y="6.37305" width="23.6561" height="391.297" fill="#FDFBF9" fill-opacity="0.1"/>
<rect x="607.576" y="6.37305" width="23.6561" height="391.297" fill="#FDFBF9" fill-opacity="0.1"/>
<rect x="637.662" y="6.37305" width="23.6561" height="391.297" fill="#FDFBF9" fill-opacity="0.1"/>
<rect x="667.748" y="6.37305" width="23.6561" height="391.297" fill="#FDFBF9" fill-opacity="0.1"/>
<rect x="697.836" y="6.37305" width="23.6561" height="391.297" fill="#FDFBF9" fill-opacity="0.1"/>
<rect x="5.8418" y="35.5693" width="82.7383" height="361.04" rx="11.1631" fill="#0567FF" fill-opacity="0.5"/>
<path d="M727.922 25.46L0.827942 25.4599L0.827943 11.6341C0.827944 5.46758 5.82686 0.468656 11.9933 0.468657L716.756 0.468719C722.923 0.468719 727.922 5.46763 727.922 11.6341L727.922 25.46Z" fill="#0567FF"/>
<path d="M343.598 187.599H346.345L353.352 205.036L360.345 187.599H363.107L354.41 208.988H352.265L343.598 187.599ZM342.702 187.599H345.126L345.522 200.644V208.988H342.702V187.599ZM361.565 187.599H363.989V208.988H361.168V200.644L361.565 187.599ZM377.93 206.27V198.088C377.93 197.461 377.803 196.917 377.548 196.457C377.303 195.987 376.931 195.625 376.432 195.37C375.932 195.115 375.315 194.988 374.581 194.988C373.895 194.988 373.293 195.106 372.774 195.341C372.264 195.576 371.863 195.884 371.569 196.266C371.285 196.648 371.143 197.059 371.143 197.5H368.425C368.425 196.932 368.572 196.369 368.866 195.811C369.16 195.252 369.581 194.748 370.129 194.298C370.688 193.837 371.354 193.475 372.127 193.21C372.911 192.936 373.782 192.799 374.742 192.799C375.898 192.799 376.916 192.995 377.798 193.387C378.689 193.778 379.385 194.371 379.884 195.164C380.393 195.948 380.648 196.932 380.648 198.117V205.521C380.648 206.05 380.692 206.613 380.78 207.211C380.878 207.808 381.02 208.322 381.206 208.753V208.988H378.371C378.234 208.675 378.126 208.259 378.048 207.74C377.969 207.211 377.93 206.721 377.93 206.27ZM378.4 199.351L378.43 201.261H375.682C374.909 201.261 374.218 201.325 373.611 201.452C373.004 201.569 372.495 201.751 372.083 201.995C371.672 202.24 371.358 202.549 371.143 202.921C370.928 203.283 370.82 203.709 370.82 204.199C370.82 204.699 370.932 205.154 371.158 205.565C371.383 205.977 371.721 206.305 372.171 206.55C372.632 206.785 373.195 206.902 373.861 206.902C374.693 206.902 375.428 206.726 376.064 206.373C376.701 206.021 377.205 205.59 377.578 205.081C377.96 204.571 378.165 204.077 378.195 203.597L379.355 204.904C379.287 205.316 379.1 205.771 378.797 206.27C378.493 206.77 378.087 207.25 377.578 207.71C377.078 208.161 376.481 208.538 375.785 208.841C375.1 209.135 374.326 209.282 373.464 209.282C372.387 209.282 371.442 209.072 370.629 208.65C369.826 208.229 369.199 207.666 368.748 206.961C368.308 206.246 368.087 205.448 368.087 204.566C368.087 203.714 368.254 202.965 368.587 202.319C368.92 201.662 369.4 201.119 370.026 200.688C370.653 200.247 371.407 199.914 372.289 199.689C373.17 199.464 374.155 199.351 375.242 199.351H378.4ZM387.641 196.149V215.1H384.908V193.093H387.406L387.641 196.149ZM398.35 200.908V201.217C398.35 202.373 398.213 203.445 397.939 204.434C397.665 205.414 397.263 206.266 396.734 206.99C396.215 207.715 395.574 208.278 394.81 208.68C394.046 209.081 393.169 209.282 392.18 209.282C391.171 209.282 390.28 209.116 389.506 208.783C388.733 208.45 388.077 207.965 387.538 207.328C386.999 206.692 386.568 205.928 386.245 205.036C385.932 204.145 385.716 203.141 385.599 202.025V200.379C385.716 199.204 385.937 198.151 386.26 197.221C386.583 196.291 387.009 195.497 387.538 194.841C388.077 194.175 388.728 193.671 389.492 193.328C390.256 192.975 391.137 192.799 392.136 192.799C393.135 192.799 394.021 192.995 394.795 193.387C395.569 193.769 396.22 194.317 396.749 195.032C397.278 195.747 397.675 196.604 397.939 197.603C398.213 198.592 398.35 199.694 398.35 200.908ZM395.618 201.217V200.908C395.618 200.115 395.535 199.371 395.368 198.675C395.202 197.97 394.942 197.353 394.589 196.824C394.247 196.286 393.806 195.865 393.267 195.561C392.729 195.248 392.087 195.091 391.343 195.091C390.657 195.091 390.06 195.208 389.551 195.443C389.051 195.678 388.625 195.997 388.272 196.398C387.92 196.79 387.631 197.241 387.406 197.75C387.19 198.249 387.029 198.768 386.921 199.307V203.112C387.117 203.798 387.391 204.444 387.744 205.051C388.096 205.649 388.566 206.133 389.154 206.506C389.741 206.868 390.481 207.049 391.372 207.049C392.107 207.049 392.738 206.897 393.267 206.594C393.806 206.28 394.247 205.854 394.589 205.316C394.942 204.777 395.202 204.16 395.368 203.465C395.535 202.759 395.618 202.01 395.618 201.217ZM411.19 206.27V198.088C411.19 197.461 411.063 196.917 410.808 196.457C410.563 195.987 410.191 195.625 409.692 195.37C409.192 195.115 408.575 194.988 407.841 194.988C407.155 194.988 406.553 195.106 406.034 195.341C405.524 195.576 405.123 195.884 404.829 196.266C404.545 196.648 404.403 197.059 404.403 197.5H401.685C401.685 196.932 401.832 196.369 402.126 195.811C402.42 195.252 402.841 194.748 403.389 194.298C403.947 193.837 404.613 193.475 405.387 193.21C406.171 192.936 407.042 192.799 408.002 192.799C409.158 192.799 410.176 192.995 411.058 193.387C411.949 193.778 412.644 194.371 413.144 195.164C413.653 195.948 413.908 196.932 413.908 198.117V205.521C413.908 206.05 413.952 206.613 414.04 207.211C414.138 207.808 414.28 208.322 414.466 208.753V208.988H411.631C411.494 208.675 411.386 208.259 411.308 207.74C411.229 207.211 411.19 206.721 411.19 206.27ZM411.66 199.351L411.689 201.261H408.942C408.169 201.261 407.478 201.325 406.871 201.452C406.264 201.569 405.754 201.751 405.343 201.995C404.932 202.24 404.618 202.549 404.403 202.921C404.187 203.283 404.08 203.709 404.08 204.199C404.08 204.699 404.192 205.154 404.418 205.565C404.643 205.977 404.981 206.305 405.431 206.55C405.892 206.785 406.455 206.902 407.121 206.902C407.953 206.902 408.688 206.726 409.324 206.373C409.961 206.021 410.465 205.59 410.837 205.081C411.219 204.571 411.425 204.077 411.454 203.597L412.615 204.904C412.546 205.316 412.36 205.771 412.057 206.27C411.753 206.77 411.347 207.25 410.837 207.71C410.338 208.161 409.741 208.538 409.045 208.841C408.36 209.135 407.586 209.282 406.724 209.282C405.647 209.282 404.702 209.072 403.889 208.65C403.086 208.229 402.459 207.666 402.008 206.961C401.568 206.246 401.347 205.448 401.347 204.566C401.347 203.714 401.514 202.965 401.847 202.319C402.18 201.662 402.66 201.119 403.286 200.688C403.913 200.247 404.667 199.914 405.549 199.689C406.43 199.464 407.414 199.351 408.502 199.351H411.66ZM354.733 236.727V237.988H343.581V236.85L349.42 230.227C350.147 229.402 350.726 228.68 351.159 228.06C351.591 227.431 351.901 226.86 352.089 226.346C352.285 225.824 352.383 225.318 352.383 224.828C352.383 224.11 352.24 223.477 351.954 222.93C351.677 222.383 351.261 221.955 350.706 221.645C350.151 221.335 349.465 221.18 348.649 221.18C347.833 221.18 347.123 221.355 346.519 221.706C345.915 222.057 345.45 222.547 345.123 223.175C344.805 223.795 344.646 224.501 344.646 225.293H343.189C343.189 224.314 343.405 223.416 343.838 222.6C344.279 221.784 344.907 221.135 345.723 220.653C346.539 220.163 347.515 219.919 348.649 219.919C349.726 219.919 350.653 220.11 351.428 220.494C352.203 220.869 352.799 221.412 353.215 222.122C353.64 222.832 353.852 223.689 353.852 224.693C353.852 225.232 353.754 225.775 353.558 226.321C353.37 226.868 353.109 227.415 352.775 227.962C352.448 228.501 352.073 229.035 351.648 229.566C351.232 230.096 350.795 230.618 350.338 231.133L345.368 236.727H354.733ZM364.295 220.09V237.988H362.838V221.939L357.99 223.738V222.355L364.05 220.09H364.295ZM382.634 236.972C383.254 236.972 383.833 236.858 384.372 236.629C384.919 236.393 385.368 236.046 385.719 235.589C386.078 235.124 386.282 234.556 386.331 233.887H387.726C387.686 234.728 387.429 235.479 386.955 236.14C386.49 236.793 385.878 237.307 385.119 237.682C384.368 238.049 383.54 238.233 382.634 238.233C381.711 238.233 380.895 238.066 380.185 237.731C379.483 237.397 378.896 236.931 378.422 236.336C377.949 235.732 377.59 235.03 377.345 234.23C377.108 233.422 376.99 232.553 376.99 231.622V231.108C376.99 230.178 377.108 229.313 377.345 228.513C377.59 227.705 377.949 227.003 378.422 226.407C378.896 225.803 379.483 225.334 380.185 224.999C380.887 224.665 381.699 224.497 382.621 224.497C383.568 224.497 384.417 224.689 385.168 225.073C385.927 225.456 386.531 225.999 386.98 226.701C387.437 227.403 387.686 228.235 387.726 229.198H386.331C386.29 228.488 386.102 227.876 385.768 227.362C385.433 226.848 384.992 226.452 384.445 226.174C383.899 225.897 383.291 225.758 382.621 225.758C381.871 225.758 381.23 225.905 380.699 226.199C380.169 226.485 379.736 226.88 379.402 227.386C379.075 227.884 378.834 228.456 378.679 229.1C378.524 229.737 378.447 230.406 378.447 231.108V231.622C378.447 232.332 378.52 233.01 378.667 233.655C378.822 234.291 379.063 234.858 379.389 235.356C379.724 235.854 380.157 236.25 380.687 236.544C381.226 236.829 381.875 236.972 382.634 236.972ZM389.869 231.573V231.169C389.869 230.206 390.008 229.317 390.285 228.501C390.563 227.684 390.958 226.978 391.473 226.383C391.995 225.787 392.619 225.326 393.346 224.999C394.072 224.665 394.88 224.497 395.77 224.497C396.667 224.497 397.479 224.665 398.206 224.999C398.932 225.326 399.557 225.787 400.079 226.383C400.601 226.978 401.001 227.684 401.279 228.501C401.556 229.317 401.695 230.206 401.695 231.169V231.573C401.695 232.536 401.556 233.426 401.279 234.242C401.001 235.05 400.601 235.752 400.079 236.348C399.565 236.944 398.944 237.409 398.218 237.743C397.492 238.07 396.684 238.233 395.794 238.233C394.896 238.233 394.084 238.07 393.358 237.743C392.631 237.409 392.007 236.944 391.485 236.348C390.962 235.752 390.563 235.05 390.285 234.242C390.008 233.426 389.869 232.536 389.869 231.573ZM391.326 231.169V231.573C391.326 232.3 391.424 232.989 391.619 233.642C391.815 234.287 392.101 234.862 392.476 235.368C392.852 235.866 393.317 236.258 393.872 236.544C394.427 236.829 395.068 236.972 395.794 236.972C396.512 236.972 397.145 236.829 397.692 236.544C398.247 236.258 398.712 235.866 399.087 235.368C399.463 234.862 399.744 234.287 399.932 233.642C400.128 232.989 400.226 232.3 400.226 231.573V231.169C400.226 230.451 400.128 229.77 399.932 229.125C399.744 228.48 399.459 227.905 399.075 227.399C398.7 226.893 398.234 226.493 397.679 226.199C397.124 225.905 396.488 225.758 395.77 225.758C395.051 225.758 394.415 225.905 393.86 226.199C393.313 226.493 392.848 226.893 392.464 227.399C392.089 227.905 391.803 228.48 391.607 229.125C391.42 229.77 391.326 230.451 391.326 231.169ZM406.359 219.184V237.988H404.902V219.184H406.359ZM410.228 237.095C410.228 236.809 410.318 236.568 410.497 236.372C410.685 236.168 410.938 236.066 411.256 236.066C411.583 236.066 411.84 236.164 412.027 236.36C412.215 236.556 412.309 236.801 412.309 237.095C412.309 237.372 412.215 237.609 412.027 237.805C411.84 238.001 411.583 238.098 411.256 238.098C410.938 238.098 410.685 238.001 410.497 237.805C410.318 237.609 410.228 237.372 410.228 237.095Z" fill="#606060"/>
<path d="M23.2048 205.483H25.0853C24.9873 206.384 24.7294 207.19 24.3115 207.902C23.8937 208.613 23.3028 209.178 22.5389 209.596C21.7749 210.007 20.8217 210.213 19.6791 210.213C18.8433 210.213 18.0827 210.056 17.3971 209.743C16.7181 209.429 16.1337 208.985 15.644 208.411C15.1543 207.83 14.7756 207.134 14.5079 206.325C14.2468 205.509 14.1162 204.601 14.1162 203.602V202.182C14.1162 201.183 14.2468 200.279 14.5079 199.469C14.7756 198.653 15.1576 197.954 15.6538 197.373C16.1565 196.792 16.7605 196.345 17.4657 196.031C18.1708 195.718 18.9641 195.561 19.8456 195.561C20.9229 195.561 21.8337 195.764 22.578 196.169C23.3224 196.573 23.9002 197.135 24.3115 197.853C24.7294 198.565 24.9873 199.391 25.0853 200.331H23.2048C23.1134 199.665 22.9437 199.094 22.6956 198.617C22.4475 198.134 22.0949 197.762 21.6378 197.501C21.1808 197.239 20.5834 197.109 19.8456 197.109C19.2122 197.109 18.654 197.23 18.1708 197.471C17.6942 197.713 17.2926 198.056 16.9662 198.5C16.6462 198.944 16.4047 199.476 16.2414 200.096C16.0782 200.716 15.9966 201.405 15.9966 202.162V203.602C15.9966 204.301 16.0684 204.957 16.212 205.571C16.3622 206.184 16.5875 206.723 16.8878 207.187C17.1882 207.65 17.5701 208.016 18.0337 208.284C18.4973 208.545 19.0457 208.675 19.6791 208.675C20.4822 208.675 21.122 208.548 21.5987 208.293C22.0753 208.039 22.4344 207.673 22.676 207.196C22.9241 206.72 23.1004 206.149 23.2048 205.483ZM33.6353 208.205V202.75C33.6353 202.332 33.5504 201.97 33.3806 201.663C33.2174 201.35 32.9693 201.108 32.6363 200.938C32.3033 200.768 31.892 200.684 31.4023 200.684C30.9452 200.684 30.5437 200.762 30.1976 200.919C29.8581 201.075 29.5904 201.281 29.3945 201.536C29.2052 201.79 29.1105 202.064 29.1105 202.358H27.2987C27.2987 201.98 27.3966 201.604 27.5925 201.232C27.7884 200.86 28.0691 200.524 28.4348 200.223C28.8069 199.916 29.2509 199.675 29.7667 199.499C30.2891 199.316 30.8702 199.224 31.51 199.224C32.2805 199.224 32.9595 199.355 33.5471 199.616C34.1413 199.877 34.6049 200.272 34.9379 200.801C35.2774 201.323 35.4471 201.98 35.4471 202.77V207.706C35.4471 208.058 35.4765 208.434 35.5353 208.832C35.6006 209.23 35.6953 209.573 35.8193 209.86V210.017H33.9291C33.8377 209.808 33.7659 209.531 33.7136 209.185C33.6614 208.832 33.6353 208.506 33.6353 208.205ZM33.9487 203.592L33.9683 204.866H32.1368C31.621 204.866 31.1607 204.908 30.7559 204.993C30.3511 205.071 30.0116 205.192 29.7373 205.355C29.4631 205.518 29.2542 205.724 29.1105 205.972C28.9669 206.214 28.8951 206.498 28.8951 206.824C28.8951 207.157 28.9701 207.461 29.1203 207.735C29.2705 208.009 29.4958 208.228 29.7961 208.391C30.103 208.548 30.4784 208.626 30.9224 208.626C31.4774 208.626 31.9671 208.509 32.3915 208.274C32.8159 208.039 33.1521 207.751 33.4002 207.412C33.6549 207.072 33.792 206.743 33.8116 206.423L34.5853 207.294C34.5396 207.569 34.4155 207.872 34.2131 208.205C34.0107 208.538 33.7397 208.858 33.4002 209.165C33.0672 209.465 32.669 209.717 32.2054 209.919C31.7483 210.115 31.2325 210.213 30.658 210.213C29.9397 210.213 29.3097 210.073 28.7677 209.792C28.2323 209.511 27.8145 209.136 27.5141 208.666C27.2203 208.189 27.0734 207.657 27.0734 207.069C27.0734 206.501 27.1844 206.002 27.4064 205.571C27.6284 205.133 27.9483 204.771 28.3662 204.484C28.7841 204.19 29.2868 203.968 29.8744 203.818C30.4621 203.667 31.1183 203.592 31.843 203.592H33.9487ZM40.109 201.085V210.017H38.2971V199.42H40.06L40.109 201.085ZM43.4193 199.361L43.4095 201.046C43.2594 201.013 43.1157 200.994 42.9786 200.987C42.848 200.974 42.6978 200.968 42.5281 200.968C42.1102 200.968 41.7413 201.033 41.4214 201.163C41.1014 201.294 40.8305 201.477 40.6085 201.712C40.3865 201.947 40.2102 202.228 40.0796 202.554C39.9556 202.874 39.874 203.227 39.8348 203.612L39.3255 203.906C39.3255 203.266 39.3875 202.665 39.5116 202.104C39.6422 201.542 39.8413 201.046 40.109 200.615C40.3767 200.178 40.7162 199.838 41.1276 199.596C41.5454 199.348 42.0417 199.224 42.6162 199.224C42.7468 199.224 42.897 199.241 43.0667 199.273C43.2365 199.299 43.354 199.329 43.4193 199.361ZM51.5776 207.96V194.974H53.3992V210.017H51.7343L51.5776 207.96ZM44.4477 204.836V204.63C44.4477 203.821 44.5456 203.086 44.7415 202.427C44.9439 201.761 45.2279 201.19 45.5936 200.713C45.9657 200.236 46.4064 199.871 46.9157 199.616C47.4315 199.355 48.0061 199.224 48.6394 199.224C49.3054 199.224 49.8865 199.342 50.3827 199.577C50.8855 199.805 51.3099 200.142 51.6559 200.586C52.0085 201.023 52.286 201.552 52.4884 202.172C52.6908 202.793 52.8312 203.494 52.9095 204.278V205.179C52.8377 205.956 52.6974 206.655 52.4884 207.275C52.286 207.895 52.0085 208.424 51.6559 208.861C51.3099 209.299 50.8855 209.635 50.3827 209.87C49.88 210.099 49.2924 210.213 48.6198 210.213C47.9996 210.213 47.4315 210.079 46.9157 209.811C46.4064 209.544 45.9657 209.168 45.5936 208.685C45.2279 208.202 44.9439 207.634 44.7415 206.981C44.5456 206.322 44.4477 205.607 44.4477 204.836ZM46.2693 204.63V204.836C46.2693 205.365 46.3216 205.861 46.426 206.325C46.537 206.788 46.7068 207.196 46.9353 207.549C47.1638 207.902 47.4544 208.179 47.807 208.382C48.1595 208.577 48.5807 208.675 49.0704 208.675C49.6711 208.675 50.164 208.548 50.5492 208.293C50.941 208.039 51.2544 207.702 51.4894 207.285C51.7245 206.867 51.9073 206.413 52.0379 205.923V203.563C51.9595 203.204 51.8453 202.858 51.6951 202.525C51.5515 202.185 51.3621 201.885 51.1271 201.624C50.8985 201.356 50.6145 201.144 50.275 200.987C49.942 200.83 49.547 200.752 49.09 200.752C48.5937 200.752 48.1661 200.857 47.807 201.066C47.4544 201.268 47.1638 201.549 46.9353 201.908C46.7068 202.26 46.537 202.672 46.426 203.142C46.3216 203.605 46.2693 204.102 46.2693 204.63ZM58.1884 194.974V210.017H56.3668V194.974H58.1884ZM63.0658 199.42V210.017H61.2441V199.42H63.0658ZM61.107 196.609C61.107 196.316 61.1951 196.067 61.3714 195.865C61.5542 195.663 61.8219 195.561 62.1745 195.561C62.5206 195.561 62.785 195.663 62.9678 195.865C63.1572 196.067 63.2518 196.316 63.2518 196.609C63.2518 196.89 63.1572 197.132 62.9678 197.334C62.785 197.53 62.5206 197.628 62.1745 197.628C61.8219 197.628 61.5542 197.53 61.3714 197.334C61.1951 197.132 61.107 196.89 61.107 196.609ZM72.1446 207.206C72.1446 206.945 72.0859 206.704 71.9684 206.482C71.8574 206.253 71.6256 206.047 71.273 205.865C70.9269 205.675 70.4046 205.512 69.706 205.375C69.1183 205.251 68.5862 205.104 68.1096 204.934C67.6395 204.764 67.2379 204.559 66.9049 204.317C66.5785 204.075 66.3271 203.791 66.1508 203.465C65.9745 203.139 65.8864 202.757 65.8864 202.319C65.8864 201.901 65.9778 201.506 66.1606 201.134C66.35 200.762 66.6144 200.432 66.9539 200.145C67.3 199.858 67.7146 199.632 68.1977 199.469C68.6809 199.306 69.2196 199.224 69.8137 199.224C70.6625 199.224 71.3873 199.374 71.9879 199.675C72.5886 199.975 73.0489 200.377 73.3689 200.879C73.6888 201.376 73.8488 201.927 73.8488 202.535H72.0369C72.0369 202.241 71.9488 201.957 71.7725 201.683C71.6027 201.402 71.3513 201.17 71.0184 200.987C70.6919 200.804 70.2903 200.713 69.8137 200.713C69.311 200.713 68.9029 200.791 68.5895 200.948C68.2826 201.098 68.0574 201.291 67.9137 201.526C67.7766 201.761 67.708 202.009 67.708 202.27C67.708 202.466 67.7407 202.642 67.806 202.799C67.8778 202.949 68.0019 203.09 68.1781 203.22C68.3544 203.344 68.6025 203.462 68.9225 203.573C69.2424 203.684 69.6505 203.795 70.1467 203.906C71.0151 204.102 71.73 204.337 72.2916 204.611C72.8531 204.885 73.2709 205.221 73.5452 205.62C73.8194 206.018 73.9565 206.501 73.9565 207.069C73.9565 207.533 73.8586 207.957 73.6627 208.342C73.4733 208.728 73.1958 209.061 72.8302 209.341C72.4711 209.616 72.0402 209.831 71.5374 209.988C71.0412 210.138 70.483 210.213 69.8627 210.213C68.929 210.213 68.139 210.046 67.4926 209.713C66.8462 209.38 66.3565 208.95 66.0235 208.421C65.6905 207.892 65.524 207.334 65.524 206.746H67.3457C67.3718 207.242 67.5154 207.637 67.7766 207.931C68.0378 208.218 68.3577 208.424 68.7364 208.548C69.1151 208.666 69.4905 208.724 69.8627 208.724C70.3589 208.724 70.7735 208.659 71.1065 208.528C71.446 208.398 71.7039 208.218 71.8802 207.99C72.0565 207.761 72.1446 207.5 72.1446 207.206ZM80.773 199.42V200.811H75.0436V199.42H80.773ZM76.9828 196.844H78.7947V207.392C78.7947 207.751 78.8502 208.022 78.9612 208.205C79.0722 208.388 79.2158 208.509 79.3921 208.568C79.5684 208.626 79.7577 208.656 79.9601 208.656C80.1103 208.656 80.267 208.643 80.4302 208.617C80.6 208.584 80.7273 208.558 80.8122 208.538L80.822 210.017C80.6783 210.063 80.489 210.105 80.2539 210.144C80.0254 210.19 79.7479 210.213 79.4215 210.213C78.9775 210.213 78.5694 210.125 78.1972 209.949C77.8251 209.772 77.528 209.478 77.306 209.067C77.0905 208.649 76.9828 208.088 76.9828 207.383V196.844ZM32.6045 222.185H33.5006C34.0491 222.185 34.5069 222.092 34.8742 221.906C35.2464 221.715 35.5255 221.463 35.7116 221.149C35.9026 220.836 35.998 220.488 35.998 220.106C35.998 219.675 35.9172 219.298 35.7556 218.975C35.594 218.647 35.3468 218.392 35.0138 218.211C34.6857 218.025 34.2645 217.932 33.7504 217.932C33.2998 217.932 32.8983 218.02 32.5457 218.196C32.1931 218.373 31.914 218.625 31.7083 218.953C31.5027 219.281 31.3998 219.673 31.3998 220.128H30.5257C30.5257 219.545 30.6653 219.034 30.9444 218.593C31.2236 218.147 31.608 217.8 32.0977 217.55C32.5873 217.3 33.1382 217.175 33.7504 217.175C34.3821 217.175 34.9305 217.29 35.3957 217.521C35.8658 217.751 36.2282 218.086 36.4828 218.527C36.7424 218.968 36.8721 219.504 36.8721 220.136C36.8721 220.459 36.8011 220.777 36.6591 221.09C36.522 221.404 36.3163 221.688 36.0421 221.942C35.7679 222.192 35.4276 222.393 35.0211 222.545C34.6147 222.697 34.1421 222.772 33.6035 222.772H32.6045V222.185ZM32.6045 222.941V222.361H33.6035C34.2156 222.361 34.7395 222.432 35.1754 222.574C35.6112 222.711 35.9687 222.907 36.2478 223.162C36.5318 223.412 36.7399 223.703 36.8721 224.036C37.0044 224.369 37.0705 224.726 37.0705 225.108C37.0705 225.598 36.9897 226.031 36.8281 226.408C36.6665 226.786 36.4363 227.106 36.1376 227.371C35.8438 227.63 35.4961 227.829 35.0946 227.966C34.6979 228.098 34.2621 228.164 33.7871 228.164C33.3562 228.164 32.935 228.1 32.5237 227.973C32.1172 227.846 31.75 227.657 31.4219 227.407C31.0987 227.153 30.8416 226.834 30.6506 226.453C30.4596 226.066 30.3641 225.62 30.3641 225.116H31.2382C31.2382 225.566 31.346 225.965 31.5614 226.313C31.7769 226.656 32.0756 226.925 32.4576 227.121C32.8444 227.312 33.2876 227.407 33.7871 227.407C34.2915 227.407 34.7224 227.322 35.0799 227.15C35.4422 226.974 35.7189 226.717 35.9099 226.379C36.1009 226.041 36.1964 225.627 36.1964 225.138C36.1964 224.624 36.0813 224.205 35.8511 223.882C35.6259 223.558 35.31 223.321 34.9036 223.169C34.502 223.017 34.0344 222.941 33.5006 222.941H32.6045ZM45.738 227.407C46.1102 227.407 46.4579 227.339 46.7811 227.202C47.1092 227.06 47.3785 226.852 47.589 226.577C47.8045 226.298 47.9269 225.958 47.9563 225.556H48.7937C48.7692 226.061 48.615 226.511 48.3309 226.908C48.0518 227.3 47.6845 227.608 47.2291 227.833C46.7786 228.054 46.2816 228.164 45.738 228.164C45.1847 228.164 44.695 228.064 44.2689 227.863C43.8478 227.662 43.4952 227.383 43.2112 227.025C42.9272 226.663 42.7117 226.242 42.5648 225.762C42.4228 225.277 42.3518 224.756 42.3518 224.197V223.889C42.3518 223.331 42.4228 222.812 42.5648 222.332C42.7117 221.847 42.9272 221.426 43.2112 221.068C43.4952 220.706 43.8478 220.424 44.2689 220.224C44.6901 220.023 45.1773 219.922 45.7307 219.922C46.2987 219.922 46.808 220.038 47.2585 220.268C47.7139 220.498 48.0763 220.824 48.3456 221.245C48.6198 221.666 48.7692 222.165 48.7937 222.743H47.9563C47.9318 222.317 47.8192 221.95 47.6184 221.641C47.4177 221.333 47.1532 221.095 46.8251 220.929C46.497 220.762 46.1322 220.679 45.7307 220.679C45.2802 220.679 44.8957 220.767 44.5774 220.943C44.2591 221.115 43.9996 221.352 43.7988 221.656C43.603 221.955 43.4585 222.297 43.3655 222.684C43.2724 223.066 43.2259 223.468 43.2259 223.889V224.197C43.2259 224.624 43.27 225.03 43.3581 225.417C43.4512 225.799 43.5956 226.139 43.7915 226.438C43.9923 226.737 44.2518 226.974 44.5701 227.15C44.8933 227.322 45.2826 227.407 45.738 227.407ZM50.0791 224.168V223.926C50.0791 223.348 50.1624 222.814 50.3289 222.324C50.4954 221.835 50.7329 221.411 51.0414 221.054C51.3548 220.696 51.7294 220.42 52.1652 220.224C52.601 220.023 53.0858 219.922 53.6196 219.922C54.1583 219.922 54.6455 220.023 55.0813 220.224C55.5172 220.42 55.8918 220.696 56.2052 221.054C56.5186 221.411 56.7585 221.835 56.925 222.324C57.0915 222.814 57.1748 223.348 57.1748 223.926V224.168C57.1748 224.746 57.0915 225.28 56.925 225.769C56.7585 226.254 56.5186 226.675 56.2052 227.033C55.8967 227.39 55.5245 227.669 55.0887 227.87C54.6529 228.066 54.1681 228.164 53.6343 228.164C53.0956 228.164 52.6084 228.066 52.1726 227.87C51.7367 227.669 51.3621 227.39 51.0487 227.033C50.7353 226.675 50.4954 226.254 50.3289 225.769C50.1624 225.28 50.0791 224.746 50.0791 224.168ZM50.9532 223.926V224.168C50.9532 224.604 51.012 225.018 51.1295 225.409C51.247 225.796 51.4184 226.142 51.6437 226.445C51.869 226.744 52.1481 226.979 52.4811 227.15C52.8141 227.322 53.1985 227.407 53.6343 227.407C54.0652 227.407 54.4447 227.322 54.7728 227.15C55.1058 226.979 55.3849 226.744 55.6102 226.445C55.8355 226.142 56.0044 225.796 56.117 225.409C56.2346 225.018 56.2933 224.604 56.2933 224.168V223.926C56.2933 223.495 56.2346 223.086 56.117 222.699C56.0044 222.312 55.833 221.967 55.6029 221.663C55.3776 221.36 55.0985 221.12 54.7655 220.943C54.4325 220.767 54.0505 220.679 53.6196 220.679C53.1887 220.679 52.8067 220.767 52.4737 220.943C52.1456 221.12 51.8665 221.36 51.6364 221.663C51.4111 221.967 51.2397 222.312 51.1222 222.699C51.0095 223.086 50.9532 223.495 50.9532 223.926ZM59.9734 216.735V228.017H59.0993V216.735H59.9734ZM62.2945 227.481C62.2945 227.309 62.3484 227.165 62.4561 227.048C62.5687 226.925 62.7205 226.864 62.9115 226.864C63.1074 226.864 63.2616 226.923 63.3743 227.04C63.4869 227.158 63.5432 227.305 63.5432 227.481C63.5432 227.647 63.4869 227.789 63.3743 227.907C63.2616 228.024 63.1074 228.083 62.9115 228.083C62.7205 228.083 62.5687 228.024 62.4561 227.907C62.3484 227.789 62.2945 227.647 62.2945 227.481Z" fill="#FDFBF9"/>
</svg>
