<svg width="1051" height="591" viewBox="0 0 1051 591" fill="none" xmlns="http://www.w3.org/2000/svg">
<path d="M0.519531 12.0229C0.519531 5.86095 5.51475 0.865723 11.6767 0.865723H1038.81C1044.97 0.865723 1049.96 5.86094 1049.96 12.0229V579.763C1049.96 585.925 1044.97 590.92 1038.81 590.92H11.6767C5.51478 590.92 0.519531 585.925 0.519531 579.763V12.0229Z" fill="#0567FF" fill-opacity="0.25"/>
<path d="M12.6348 10.8945H45.2287V580.034H12.6348V10.8945Z" fill="#FDFBF9" fill-opacity="0.1"/>
<path d="M55.2578 10.8945H87.8517V580.034H55.2578V10.8945Z" fill="#FDFBF9" fill-opacity="0.1"/>
<path d="M100.387 10.8945H132.981V580.034H100.387V10.8945Z" fill="#FDFBF9" fill-opacity="0.1"/>
<path d="M143.01 10.8945H175.604V580.034H143.01V10.8945Z" fill="#FDFBF9" fill-opacity="0.1"/>
<path d="M185.633 10.8945H218.227V580.034H185.633V10.8945Z" fill="#FDFBF9" fill-opacity="0.1"/>
<path d="M228.256 10.8945H260.85V580.034H228.256V10.8945Z" fill="#FDFBF9" fill-opacity="0.1"/>
<path d="M273.385 10.8945H305.979V580.034H273.385V10.8945Z" fill="#FDFBF9" fill-opacity="0.1"/>
<path d="M316.008 10.8945H348.602V580.034H316.008V10.8945Z" fill="#FDFBF9" fill-opacity="0.1"/>
<path d="M358.631 10.8945H391.225V580.034H358.631V10.8945Z" fill="#FDFBF9" fill-opacity="0.1"/>
<path d="M401.254 10.8945H433.848V580.034H401.254V10.8945Z" fill="#FDFBF9" fill-opacity="0.1"/>
<path d="M446.385 10.8945H478.979V580.034H446.385V10.8945Z" fill="#FDFBF9" fill-opacity="0.1"/>
<path d="M489.006 10.8945H521.6V580.034H489.006V10.8945Z" fill="#FDFBF9" fill-opacity="0.1"/>
<path d="M531.629 10.8945H564.223V580.034H531.629V10.8945Z" fill="#FDFBF9" fill-opacity="0.1"/>
<path d="M574.252 10.8945H606.846V580.034H574.252V10.8945Z" fill="#FDFBF9" fill-opacity="0.1"/>
<path d="M619.383 10.8945H651.977V580.034H619.383V10.8945Z" fill="#FDFBF9" fill-opacity="0.1"/>
<path d="M662.006 10.8945H694.6V580.034H662.006V10.8945Z" fill="#FDFBF9" fill-opacity="0.1"/>
<path d="M704.627 10.8945H737.221V580.034H704.627V10.8945Z" fill="#FDFBF9" fill-opacity="0.1"/>
<path d="M747.25 10.8945H779.844V580.034H747.25V10.8945Z" fill="#FDFBF9" fill-opacity="0.1"/>
<path d="M792.381 10.8945H824.975V580.034H792.381V10.8945Z" fill="#FDFBF9" fill-opacity="0.1"/>
<path d="M835.004 10.8945H867.598V580.034H835.004V10.8945Z" fill="#FDFBF9" fill-opacity="0.1"/>
<path d="M877.627 10.8945H910.221V580.034H877.627V10.8945Z" fill="#FDFBF9" fill-opacity="0.1"/>
<path d="M920.248 10.8945H955.349V580.034H920.248V10.8945Z" fill="#FDFBF9" fill-opacity="0.1"/>
<path d="M965.379 10.8945H995.466V580.034H965.379V10.8945Z" fill="#FDFBF9" fill-opacity="0.1"/>
<path d="M1005.49 10.8945H1038.09V580.034H1005.49V10.8945Z" fill="#FDFBF9" fill-opacity="0.1"/>
<rect x="12.6348" y="35.9668" width="120.347" height="544.067" rx="11.1631" fill="#0567FF" fill-opacity="0.5"/>
<rect x="143.01" y="35.9668" width="335.968" height="544.067" rx="11.1631" fill="#0567FF" fill-opacity="0.5"/>
<path d="M1050.62 25.8574L0.0994873 25.8573L0.0994885 12.0315C0.0994891 5.86501 5.0984 0.866089 11.2649 0.86609L1039.46 0.866179C1045.63 0.86618 1050.63 5.8651 1050.63 12.0316L1050.62 25.8574Z" fill="#0567FF"/>
<path d="M718.951 258.198H721.699L728.706 275.636L735.699 258.198H738.461L729.764 279.588H727.619L718.951 258.198ZM718.055 258.198H720.479L720.876 271.244V279.588H718.055V258.198ZM736.918 258.198H739.342V279.588H736.521V271.244L736.918 258.198ZM753.284 276.87V268.687C753.284 268.061 753.156 267.517 752.902 267.057C752.657 266.587 752.285 266.224 751.785 265.97C751.286 265.715 750.669 265.588 749.934 265.588C749.249 265.588 748.646 265.705 748.127 265.94C747.618 266.175 747.216 266.484 746.923 266.866C746.639 267.248 746.497 267.659 746.497 268.1H743.779C743.779 267.532 743.926 266.969 744.219 266.41C744.513 265.852 744.934 265.348 745.483 264.897C746.041 264.437 746.707 264.074 747.481 263.81C748.264 263.536 749.136 263.399 750.096 263.399C751.251 263.399 752.27 263.595 753.151 263.986C754.043 264.378 754.738 264.971 755.238 265.764C755.747 266.547 756.001 267.532 756.001 268.717V276.121C756.001 276.65 756.045 277.213 756.134 277.81C756.232 278.408 756.374 278.922 756.56 279.353V279.588H753.724C753.587 279.274 753.48 278.858 753.401 278.339C753.323 277.81 753.284 277.321 753.284 276.87ZM753.754 269.951L753.783 271.861H751.036C750.262 271.861 749.572 271.924 748.965 272.052C748.357 272.169 747.848 272.35 747.437 272.595C747.025 272.84 746.712 273.148 746.497 273.521C746.281 273.883 746.173 274.309 746.173 274.799C746.173 275.298 746.286 275.754 746.511 276.165C746.736 276.576 747.074 276.904 747.525 277.149C747.985 277.384 748.548 277.502 749.214 277.502C750.047 277.502 750.781 277.326 751.418 276.973C752.055 276.62 752.559 276.189 752.931 275.68C753.313 275.171 753.519 274.676 753.548 274.196L754.709 275.504C754.64 275.915 754.454 276.371 754.15 276.87C753.847 277.37 753.44 277.849 752.931 278.31C752.432 278.76 751.834 279.137 751.139 279.441C750.453 279.735 749.68 279.882 748.818 279.882C747.74 279.882 746.795 279.671 745.982 279.25C745.179 278.829 744.552 278.266 744.102 277.561C743.661 276.846 743.441 276.047 743.441 275.166C743.441 274.314 743.607 273.565 743.94 272.918C744.273 272.262 744.753 271.719 745.38 271.288C746.007 270.847 746.761 270.514 747.642 270.289C748.524 270.063 749.508 269.951 750.595 269.951H753.754ZM762.994 266.748V285.699H760.262V263.692H762.759L762.994 266.748ZM773.704 271.508V271.816C773.704 272.972 773.567 274.045 773.292 275.034C773.018 276.013 772.617 276.865 772.088 277.59C771.569 278.315 770.927 278.878 770.163 279.279C769.399 279.681 768.523 279.882 767.534 279.882C766.525 279.882 765.634 279.715 764.86 279.382C764.086 279.049 763.43 278.564 762.891 277.928C762.353 277.291 761.922 276.527 761.599 275.636C761.285 274.745 761.07 273.741 760.952 272.624V270.979C761.07 269.804 761.29 268.751 761.613 267.821C761.936 266.89 762.363 266.097 762.891 265.441C763.43 264.775 764.081 264.27 764.845 263.928C765.609 263.575 766.491 263.399 767.49 263.399C768.489 263.399 769.375 263.595 770.149 263.986C770.922 264.368 771.574 264.917 772.103 265.632C772.631 266.347 773.028 267.204 773.292 268.203C773.567 269.192 773.704 270.294 773.704 271.508ZM770.971 271.816V271.508C770.971 270.715 770.888 269.97 770.722 269.275C770.555 268.57 770.296 267.953 769.943 267.424C769.6 266.885 769.159 266.464 768.621 266.161C768.082 265.847 767.441 265.69 766.696 265.69C766.011 265.69 765.413 265.808 764.904 266.043C764.405 266.278 763.979 266.596 763.626 266.998C763.273 267.39 762.984 267.84 762.759 268.349C762.544 268.849 762.382 269.368 762.274 269.907V273.712C762.47 274.397 762.744 275.044 763.097 275.651C763.45 276.248 763.92 276.733 764.507 277.105C765.095 277.468 765.834 277.649 766.726 277.649C767.46 277.649 768.092 277.497 768.621 277.193C769.159 276.88 769.6 276.454 769.943 275.915C770.296 275.377 770.555 274.76 770.722 274.064C770.888 273.359 770.971 272.61 770.971 271.816ZM786.544 276.87V268.687C786.544 268.061 786.416 267.517 786.162 267.057C785.917 266.587 785.545 266.224 785.045 265.97C784.546 265.715 783.929 265.588 783.194 265.588C782.508 265.588 781.906 265.705 781.387 265.94C780.878 266.175 780.476 266.484 780.182 266.866C779.898 267.248 779.756 267.659 779.756 268.1H777.039C777.039 267.532 777.185 266.969 777.479 266.41C777.773 265.852 778.194 265.348 778.743 264.897C779.301 264.437 779.967 264.074 780.741 263.81C781.524 263.536 782.396 263.399 783.356 263.399C784.511 263.399 785.53 263.595 786.411 263.986C787.303 264.378 787.998 264.971 788.497 265.764C789.007 266.547 789.261 267.532 789.261 268.717V276.121C789.261 276.65 789.305 277.213 789.394 277.81C789.491 278.408 789.633 278.922 789.82 279.353V279.588H786.984C786.847 279.274 786.739 278.858 786.661 278.339C786.583 277.81 786.544 277.321 786.544 276.87ZM787.014 269.951L787.043 271.861H784.296C783.522 271.861 782.832 271.924 782.224 272.052C781.617 272.169 781.108 272.35 780.697 272.595C780.285 272.84 779.972 273.148 779.756 273.521C779.541 273.883 779.433 274.309 779.433 274.799C779.433 275.298 779.546 275.754 779.771 276.165C779.996 276.576 780.334 276.904 780.785 277.149C781.245 277.384 781.808 277.502 782.474 277.502C783.307 277.502 784.041 277.326 784.678 276.973C785.314 276.62 785.819 276.189 786.191 275.68C786.573 275.171 786.779 274.676 786.808 274.196L787.969 275.504C787.9 275.915 787.714 276.371 787.41 276.87C787.107 277.37 786.7 277.849 786.191 278.31C785.691 278.76 785.094 279.137 784.399 279.441C783.713 279.735 782.939 279.882 782.078 279.882C781 279.882 780.055 279.671 779.242 279.25C778.439 278.829 777.812 278.266 777.362 277.561C776.921 276.846 776.701 276.047 776.701 275.166C776.701 274.314 776.867 273.565 777.2 272.918C777.533 272.262 778.013 271.719 778.64 271.288C779.267 270.847 780.021 270.514 780.902 270.289C781.784 270.063 782.768 269.951 783.855 269.951H787.014ZM725.741 290.69V308.588H724.284V292.538L719.436 294.338V292.954L725.496 290.69H725.741ZM736.098 298.868H737.591C738.506 298.868 739.269 298.712 739.881 298.402C740.501 298.084 740.966 297.664 741.276 297.141C741.595 296.619 741.754 296.04 741.754 295.403C741.754 294.685 741.619 294.056 741.35 293.518C741.081 292.971 740.668 292.546 740.113 292.244C739.567 291.934 738.865 291.779 738.008 291.779C737.257 291.779 736.588 291.926 736 292.22C735.412 292.514 734.947 292.934 734.604 293.481C734.262 294.028 734.09 294.681 734.09 295.44H732.633C732.633 294.468 732.866 293.616 733.331 292.881C733.796 292.138 734.437 291.559 735.253 291.143C736.069 290.726 736.988 290.518 738.008 290.518C739.061 290.518 739.975 290.71 740.75 291.094C741.533 291.477 742.137 292.036 742.562 292.771C742.994 293.505 743.211 294.399 743.211 295.452C743.211 295.991 743.092 296.521 742.856 297.043C742.627 297.566 742.284 298.039 741.827 298.464C741.37 298.88 740.803 299.214 740.126 299.467C739.448 299.72 738.661 299.847 737.763 299.847H736.098V298.868ZM736.098 300.128V299.161H737.763C738.783 299.161 739.656 299.28 740.383 299.516C741.109 299.745 741.705 300.071 742.17 300.496C742.643 300.912 742.99 301.398 743.211 301.953C743.431 302.508 743.541 303.103 743.541 303.74C743.541 304.556 743.407 305.278 743.137 305.907C742.868 306.535 742.484 307.07 741.986 307.511C741.497 307.943 740.917 308.274 740.248 308.502C739.587 308.723 738.861 308.833 738.069 308.833C737.351 308.833 736.649 308.727 735.963 308.514C735.286 308.302 734.674 307.988 734.127 307.572C733.588 307.147 733.16 306.617 732.841 305.98C732.523 305.336 732.364 304.593 732.364 303.752H733.821C733.821 304.503 734 305.168 734.36 305.748C734.719 306.319 735.216 306.768 735.853 307.094C736.498 307.413 737.236 307.572 738.069 307.572C738.91 307.572 739.628 307.429 740.224 307.143C740.828 306.849 741.289 306.421 741.607 305.858C741.925 305.295 742.084 304.605 742.084 303.789C742.084 302.932 741.893 302.234 741.509 301.695C741.134 301.157 740.607 300.761 739.93 300.508C739.261 300.255 738.481 300.128 737.591 300.128H736.098ZM757.987 307.572C758.607 307.572 759.187 307.458 759.726 307.229C760.272 306.992 760.721 306.645 761.072 306.188C761.431 305.723 761.635 305.156 761.684 304.487H763.08C763.039 305.327 762.782 306.078 762.309 306.739C761.843 307.392 761.231 307.906 760.472 308.282C759.721 308.649 758.893 308.833 757.987 308.833C757.065 308.833 756.249 308.665 755.539 308.331C754.837 307.996 754.249 307.531 753.776 306.935C753.302 306.331 752.943 305.629 752.698 304.83C752.462 304.022 752.343 303.152 752.343 302.222V301.708C752.343 300.777 752.462 299.912 752.698 299.112C752.943 298.304 753.302 297.602 753.776 297.007C754.249 296.403 754.837 295.933 755.539 295.599C756.241 295.264 757.053 295.097 757.975 295.097C758.922 295.097 759.77 295.289 760.521 295.672C761.28 296.056 761.884 296.599 762.333 297.3C762.79 298.002 763.039 298.835 763.08 299.798H761.684C761.644 299.088 761.456 298.476 761.121 297.962C760.787 297.447 760.346 297.052 759.799 296.774C759.252 296.497 758.644 296.358 757.975 296.358C757.224 296.358 756.583 296.505 756.053 296.799C755.522 297.084 755.09 297.48 754.755 297.986C754.429 298.484 754.188 299.055 754.033 299.7C753.878 300.337 753.8 301.006 753.8 301.708V302.222C753.8 302.932 753.874 303.609 754.021 304.254C754.176 304.891 754.416 305.458 754.743 305.956C755.078 306.454 755.51 306.849 756.041 307.143C756.579 307.429 757.228 307.572 757.987 307.572ZM765.222 302.173V301.769C765.222 300.806 765.361 299.916 765.639 299.1C765.916 298.284 766.312 297.578 766.826 296.982C767.348 296.386 767.973 295.925 768.699 295.599C769.426 295.264 770.234 295.097 771.123 295.097C772.021 295.097 772.833 295.264 773.559 295.599C774.286 295.925 774.91 296.386 775.432 296.982C775.955 297.578 776.355 298.284 776.632 299.1C776.91 299.916 777.048 300.806 777.048 301.769V302.173C777.048 303.136 776.91 304.026 776.632 304.842C776.355 305.65 775.955 306.352 775.432 306.947C774.918 307.543 774.298 308.008 773.572 308.343C772.845 308.67 772.037 308.833 771.148 308.833C770.25 308.833 769.438 308.67 768.711 308.343C767.985 308.008 767.361 307.543 766.838 306.947C766.316 306.352 765.916 305.65 765.639 304.842C765.361 304.026 765.222 303.136 765.222 302.173ZM766.679 301.769V302.173C766.679 302.899 766.777 303.589 766.973 304.242C767.169 304.887 767.455 305.462 767.83 305.968C768.205 306.466 768.671 306.858 769.226 307.143C769.781 307.429 770.421 307.572 771.148 307.572C771.866 307.572 772.498 307.429 773.045 307.143C773.6 306.858 774.065 306.466 774.441 305.968C774.816 305.462 775.098 304.887 775.285 304.242C775.481 303.589 775.579 302.899 775.579 302.173V301.769C775.579 301.051 775.481 300.369 775.285 299.724C775.098 299.08 774.812 298.504 774.429 297.998C774.053 297.492 773.588 297.092 773.033 296.799C772.478 296.505 771.841 296.358 771.123 296.358C770.405 296.358 769.768 296.505 769.213 296.799C768.666 297.092 768.201 297.492 767.818 297.998C767.442 298.504 767.157 299.08 766.961 299.724C766.773 300.369 766.679 301.051 766.679 301.769ZM781.713 289.784V308.588H780.256V289.784H781.713ZM785.581 307.694C785.581 307.409 785.671 307.168 785.851 306.972C786.038 306.768 786.291 306.666 786.61 306.666C786.936 306.666 787.193 306.764 787.381 306.96C787.569 307.156 787.662 307.4 787.662 307.694C787.662 307.972 787.569 308.208 787.381 308.404C787.193 308.6 786.936 308.698 786.61 308.698C786.291 308.698 786.038 308.6 785.851 308.404C785.671 308.208 785.581 307.972 785.581 307.694Z" fill="#606060"/>
<path d="M47.5304 276.083H49.4108C49.3129 276.984 49.055 277.79 48.6371 278.502C48.2193 279.213 47.6284 279.778 46.8644 280.196C46.1005 280.607 45.1473 280.813 44.0046 280.813C43.1689 280.813 42.4083 280.656 41.7227 280.343C41.0436 280.03 40.4593 279.586 39.9696 279.011C39.4799 278.43 39.1012 277.735 38.8335 276.925C38.5723 276.109 38.4418 275.201 38.4418 274.202V272.782C38.4418 271.783 38.5723 270.879 38.8335 270.069C39.1012 269.253 39.4832 268.554 39.9794 267.973C40.4821 267.392 41.0861 266.945 41.7912 266.632C42.4964 266.318 43.2897 266.161 44.1711 266.161C45.2485 266.161 46.1593 266.364 46.9036 266.769C47.648 267.174 48.2258 267.735 48.6371 268.453C49.055 269.165 49.3129 269.991 49.4108 270.931H47.5304C47.439 270.265 47.2693 269.694 47.0212 269.217C46.773 268.734 46.4205 268.362 45.9634 268.101C45.5064 267.839 44.9089 267.709 44.1711 267.709C43.5378 267.709 42.9796 267.83 42.4964 268.071C42.0198 268.313 41.6182 268.656 41.2918 269.1C40.9718 269.544 40.7302 270.076 40.567 270.696C40.4038 271.316 40.3222 272.005 40.3222 272.763V274.202C40.3222 274.901 40.394 275.557 40.5376 276.171C40.6878 276.785 40.9131 277.323 41.2134 277.787C41.5138 278.25 41.8957 278.616 42.3593 278.884C42.8229 279.145 43.3713 279.275 44.0046 279.275C44.8077 279.275 45.4476 279.148 45.9242 278.893C46.4009 278.639 46.76 278.273 47.0016 277.797C47.2497 277.32 47.426 276.749 47.5304 276.083ZM57.9609 278.805V273.35C57.9609 272.932 57.876 272.57 57.7062 272.263C57.543 271.95 57.2949 271.708 56.9619 271.538C56.6289 271.369 56.2176 271.284 55.7279 271.284C55.2708 271.284 54.8693 271.362 54.5232 271.519C54.1837 271.675 53.916 271.881 53.7201 272.136C53.5308 272.39 53.4361 272.665 53.4361 272.958H51.6243C51.6243 272.58 51.7222 272.204 51.9181 271.832C52.1139 271.46 52.3947 271.124 52.7603 270.823C53.1325 270.516 53.5765 270.275 54.0923 270.099C54.6146 269.916 55.1957 269.824 55.8356 269.824C56.6061 269.824 57.2851 269.955 57.8727 270.216C58.4669 270.477 58.9305 270.872 59.2634 271.401C59.603 271.924 59.7727 272.58 59.7727 273.37V278.306C59.7727 278.658 59.8021 279.034 59.8609 279.432C59.9262 279.83 60.0208 280.173 60.1449 280.46V280.617H58.2547C58.1633 280.408 58.0914 280.131 58.0392 279.785C57.987 279.432 57.9609 279.106 57.9609 278.805ZM58.2743 274.192L58.2939 275.466H56.4624C55.9466 275.466 55.4863 275.508 55.0815 275.593C54.6767 275.671 54.3371 275.792 54.0629 275.955C53.7887 276.119 53.5798 276.324 53.4361 276.572C53.2925 276.814 53.2206 277.098 53.2206 277.424C53.2206 277.757 53.2957 278.061 53.4459 278.335C53.5961 278.609 53.8213 278.828 54.1217 278.991C54.4286 279.148 54.804 279.226 55.248 279.226C55.803 279.226 56.2926 279.109 56.717 278.874C57.1414 278.639 57.4777 278.352 57.7258 278.012C57.9805 277.673 58.1176 277.343 58.1372 277.023L58.9109 277.895C58.8652 278.169 58.7411 278.472 58.5387 278.805C58.3363 279.138 58.0653 279.458 57.7258 279.765C57.3928 280.065 56.9945 280.317 56.531 280.519C56.0739 280.715 55.5581 280.813 54.9835 280.813C54.2653 280.813 53.6353 280.673 53.0933 280.392C52.5579 280.111 52.1401 279.736 51.8397 279.266C51.5459 278.789 51.399 278.257 51.399 277.669C51.399 277.101 51.51 276.602 51.732 276.171C51.954 275.733 52.2739 275.371 52.6918 275.084C53.1097 274.79 53.6124 274.568 54.2 274.418C54.7877 274.268 55.4438 274.192 56.1686 274.192H58.2743ZM64.4346 271.685V280.617H62.6227V270.02H64.3856L64.4346 271.685ZM67.7449 269.961L67.7351 271.646C67.5849 271.613 67.4413 271.594 67.3042 271.587C67.1736 271.574 67.0234 271.568 66.8537 271.568C66.4358 271.568 66.0669 271.633 65.747 271.764C65.427 271.894 65.1561 272.077 64.9341 272.312C64.7121 272.547 64.5358 272.828 64.4052 273.154C64.2812 273.474 64.1995 273.827 64.1604 274.212L63.6511 274.506C63.6511 273.866 63.7131 273.265 63.8372 272.704C63.9678 272.142 64.1669 271.646 64.4346 271.215C64.7023 270.778 65.0418 270.438 65.4531 270.197C65.871 269.948 66.3672 269.824 66.9418 269.824C67.0724 269.824 67.2226 269.841 67.3923 269.873C67.5621 269.899 67.6796 269.929 67.7449 269.961ZM75.9032 278.56V265.574H77.7248V280.617H76.0599L75.9032 278.56ZM68.7733 275.436V275.231C68.7733 274.421 68.8712 273.686 69.0671 273.027C69.2695 272.361 69.5535 271.79 69.9191 271.313C70.2913 270.836 70.732 270.471 71.2413 270.216C71.7571 269.955 72.3317 269.824 72.965 269.824C73.631 269.824 74.2121 269.942 74.7083 270.177C75.2111 270.405 75.6355 270.742 75.9815 271.186C76.3341 271.623 76.6116 272.152 76.814 272.772C77.0164 273.393 77.1568 274.094 77.2351 274.878V275.779C77.1633 276.556 77.0229 277.255 76.814 277.875C76.6116 278.495 76.3341 279.024 75.9815 279.462C75.6355 279.899 75.2111 280.235 74.7083 280.47C74.2056 280.699 73.6179 280.813 72.9454 280.813C72.3252 280.813 71.7571 280.679 71.2413 280.412C70.732 280.144 70.2913 279.768 69.9191 279.285C69.5535 278.802 69.2695 278.234 69.0671 277.581C68.8712 276.922 68.7733 276.207 68.7733 275.436ZM70.5949 275.231V275.436C70.5949 275.965 70.6471 276.461 70.7516 276.925C70.8626 277.388 71.0324 277.797 71.2609 278.149C71.4894 278.502 71.78 278.779 72.1325 278.982C72.4851 279.177 72.9063 279.275 73.396 279.275C73.9966 279.275 74.4896 279.148 74.8748 278.893C75.2666 278.639 75.58 278.303 75.815 277.885C76.0501 277.467 76.2329 277.013 76.3635 276.523V274.163C76.2851 273.804 76.1709 273.458 76.0207 273.125C75.8771 272.785 75.6877 272.485 75.4527 272.224C75.2241 271.956 74.9401 271.744 74.6006 271.587C74.2676 271.431 73.8726 271.352 73.4155 271.352C72.9193 271.352 72.4917 271.457 72.1325 271.666C71.78 271.868 71.4894 272.149 71.2609 272.508C71.0324 272.86 70.8626 273.272 70.7516 273.742C70.6471 274.205 70.5949 274.702 70.5949 275.231ZM82.514 265.574V280.617H80.6924V265.574H82.514ZM87.3913 270.02V280.617H85.5697V270.02H87.3913ZM85.4326 267.209C85.4326 266.916 85.5207 266.668 85.697 266.465C85.8798 266.263 86.1475 266.161 86.5001 266.161C86.8462 266.161 87.1106 266.263 87.2934 266.465C87.4828 266.668 87.5774 266.916 87.5774 267.209C87.5774 267.49 87.4828 267.732 87.2934 267.934C87.1106 268.13 86.8462 268.228 86.5001 268.228C86.1475 268.228 85.8798 268.13 85.697 267.934C85.5207 267.732 85.4326 267.49 85.4326 267.209ZM96.4702 277.806C96.4702 277.545 96.4115 277.304 96.2939 277.082C96.1829 276.853 95.9512 276.647 95.5986 276.465C95.2525 276.275 94.7302 276.112 94.0316 275.975C93.4439 275.851 92.9118 275.704 92.4352 275.534C91.9651 275.364 91.5635 275.159 91.2305 274.917C90.9041 274.676 90.6527 274.392 90.4764 274.065C90.3001 273.739 90.212 273.357 90.212 272.919C90.212 272.501 90.3034 272.106 90.4862 271.734C90.6755 271.362 90.94 271.032 91.2795 270.745C91.6255 270.458 92.0402 270.232 92.5233 270.069C93.0065 269.906 93.5451 269.824 94.1393 269.824C94.9881 269.824 95.7128 269.975 96.3135 270.275C96.9142 270.575 97.3745 270.977 97.6945 271.48C98.0144 271.976 98.1744 272.527 98.1744 273.135H96.3625C96.3625 272.841 96.2744 272.557 96.0981 272.283C95.9283 272.002 95.6769 271.77 95.3439 271.587C95.0175 271.404 94.6159 271.313 94.1393 271.313C93.6365 271.313 93.2285 271.391 92.9151 271.548C92.6082 271.698 92.3829 271.891 92.2393 272.126C92.1022 272.361 92.0336 272.609 92.0336 272.87C92.0336 273.066 92.0663 273.242 92.1316 273.399C92.2034 273.549 92.3274 273.69 92.5037 273.82C92.68 273.944 92.9281 274.062 93.2481 274.173C93.568 274.284 93.9761 274.395 94.4723 274.506C95.3407 274.702 96.0556 274.937 96.6171 275.211C97.1786 275.485 97.5965 275.821 97.8707 276.22C98.145 276.618 98.2821 277.101 98.2821 277.669C98.2821 278.133 98.1842 278.557 97.9883 278.942C97.7989 279.328 97.5214 279.661 97.1558 279.941C96.7967 280.216 96.3658 280.431 95.863 280.588C95.3668 280.738 94.8085 280.813 94.1883 280.813C93.2546 280.813 92.4646 280.647 91.8182 280.314C91.1718 279.981 90.6821 279.55 90.3491 279.021C90.0161 278.492 89.8496 277.934 89.8496 277.346H91.6712C91.6974 277.842 91.841 278.237 92.1022 278.531C92.3633 278.818 92.6833 279.024 93.062 279.148C93.4407 279.266 93.8161 279.324 94.1883 279.324C94.6845 279.324 95.0991 279.259 95.4321 279.129C95.7716 278.998 96.0295 278.818 96.2058 278.59C96.3821 278.361 96.4702 278.1 96.4702 277.806ZM105.099 270.02V271.411H99.3692V270.02H105.099ZM101.308 267.444H103.12V277.992C103.12 278.352 103.176 278.623 103.287 278.805C103.398 278.988 103.541 279.109 103.718 279.168C103.894 279.226 104.083 279.256 104.286 279.256C104.436 279.256 104.593 279.243 104.756 279.217C104.926 279.184 105.053 279.158 105.138 279.138L105.148 280.617C105.004 280.663 104.815 280.705 104.58 280.745C104.351 280.79 104.074 280.813 103.747 280.813C103.303 280.813 102.895 280.725 102.523 280.549C102.151 280.372 101.854 280.079 101.632 279.667C101.416 279.249 101.308 278.688 101.308 277.983V267.444ZM56.9301 292.785H57.8262C58.3747 292.785 58.8325 292.692 59.1998 292.506C59.572 292.315 59.8511 292.063 60.0372 291.749C60.2281 291.436 60.3236 291.088 60.3236 290.706C60.3236 290.275 60.2428 289.898 60.0812 289.575C59.9196 289.247 59.6723 288.992 59.3393 288.811C59.0113 288.625 58.5901 288.532 58.0759 288.532C57.6254 288.532 57.2239 288.62 56.8713 288.796C56.5187 288.973 56.2396 289.225 56.0339 289.553C55.8283 289.881 55.7254 290.273 55.7254 290.728H54.8513C54.8513 290.146 54.9909 289.634 55.27 289.193C55.5491 288.747 55.9335 288.4 56.4232 288.15C56.9129 287.9 57.4638 287.775 58.0759 287.775C58.7076 287.775 59.2561 287.89 59.7213 288.121C60.1914 288.351 60.5538 288.686 60.8084 289.127C61.068 289.568 61.1977 290.104 61.1977 290.736C61.1977 291.059 61.1267 291.377 60.9847 291.69C60.8476 292.004 60.6419 292.288 60.3677 292.543C60.0935 292.792 59.7531 292.993 59.3467 293.145C58.9403 293.297 58.4677 293.373 57.929 293.373H56.9301V292.785ZM56.9301 293.542V292.961H57.929C58.5412 292.961 59.0651 293.032 59.5009 293.174C59.9368 293.311 60.2942 293.507 60.5734 293.762C60.8574 294.012 61.0655 294.303 61.1977 294.636C61.3299 294.969 61.3961 295.326 61.3961 295.708C61.3961 296.198 61.3153 296.631 61.1537 297.009C60.9921 297.386 60.7619 297.706 60.4632 297.971C60.1694 298.23 59.8217 298.429 59.4201 298.566C59.0235 298.698 58.5877 298.764 58.1127 298.764C57.6817 298.764 57.2606 298.7 56.8493 298.573C56.4428 298.446 56.0756 298.257 55.7475 298.008C55.4243 297.753 55.1672 297.435 54.9762 297.053C54.7852 296.666 54.6897 296.22 54.6897 295.716H55.5638C55.5638 296.166 55.6716 296.565 55.887 296.913C56.1025 297.256 56.4012 297.525 56.7832 297.721C57.17 297.912 57.6132 298.008 58.1127 298.008C58.6171 298.008 59.048 297.922 59.4055 297.75C59.7678 297.574 60.0445 297.317 60.2355 296.979C60.4265 296.641 60.522 296.227 60.522 295.738C60.522 295.224 60.4069 294.805 60.1767 294.482C59.9515 294.159 59.6356 293.921 59.2292 293.769C58.8276 293.617 58.36 293.542 57.8262 293.542H56.9301ZM70.0636 298.008C70.4358 298.008 70.7834 297.939 71.1066 297.802C71.4347 297.66 71.7041 297.452 71.9146 297.177C72.1301 296.898 72.2525 296.558 72.2819 296.156H73.1193C73.0948 296.661 72.9405 297.111 72.6565 297.508C72.3774 297.9 72.0101 298.208 71.5547 298.434C71.1042 298.654 70.6072 298.764 70.0636 298.764C69.5102 298.764 69.0206 298.664 68.5945 298.463C68.1734 298.262 67.8208 297.983 67.5368 297.626C67.2528 297.263 67.0373 296.842 66.8904 296.362C66.7484 295.877 66.6774 295.356 66.6774 294.798V294.489C66.6774 293.931 66.7484 293.412 66.8904 292.932C67.0373 292.447 67.2528 292.026 67.5368 291.668C67.8208 291.306 68.1734 291.025 68.5945 290.824C69.0157 290.623 69.5029 290.523 70.0563 290.523C70.6243 290.523 71.1336 290.638 71.5841 290.868C72.0395 291.098 72.4019 291.424 72.6712 291.845C72.9454 292.266 73.0948 292.765 73.1193 293.343H72.2819C72.2574 292.917 72.1448 292.55 71.944 292.241C71.7432 291.933 71.4788 291.695 71.1507 291.529C70.8226 291.362 70.4578 291.279 70.0563 291.279C69.6057 291.279 69.2213 291.367 68.903 291.544C68.5847 291.715 68.3252 291.952 68.1244 292.256C67.9285 292.555 67.7841 292.898 67.691 293.284C67.598 293.666 67.5515 294.068 67.5515 294.489V294.798C67.5515 295.224 67.5956 295.63 67.6837 296.017C67.7767 296.399 67.9212 296.739 68.1171 297.038C68.3178 297.337 68.5774 297.574 68.8957 297.75C69.2189 297.922 69.6082 298.008 70.0636 298.008ZM74.4047 294.768V294.526C74.4047 293.948 74.488 293.414 74.6545 292.925C74.821 292.435 75.0585 292.011 75.367 291.654C75.6804 291.296 76.055 291.02 76.4908 290.824C76.9266 290.623 77.4114 290.523 77.9452 290.523C78.4839 290.523 78.9711 290.623 79.4069 290.824C79.8427 291.02 80.2174 291.296 80.5308 291.654C80.8442 292.011 81.0841 292.435 81.2506 292.925C81.4171 293.414 81.5004 293.948 81.5004 294.526V294.768C81.5004 295.346 81.4171 295.88 81.2506 296.37C81.0841 296.854 80.8442 297.275 80.5308 297.633C80.2223 297.99 79.8501 298.27 79.4143 298.47C78.9784 298.666 78.4936 298.764 77.9599 298.764C77.4212 298.764 76.934 298.666 76.4982 298.47C76.0623 298.27 75.6877 297.99 75.3743 297.633C75.0609 297.275 74.821 296.854 74.6545 296.37C74.488 295.88 74.4047 295.346 74.4047 294.768ZM75.2788 294.526V294.768C75.2788 295.204 75.3376 295.618 75.4551 296.01C75.5726 296.396 75.744 296.742 75.9693 297.045C76.1945 297.344 76.4737 297.579 76.8067 297.75C77.1396 297.922 77.5241 298.008 77.9599 298.008C78.3908 298.008 78.7703 297.922 79.0984 297.75C79.4314 297.579 79.7105 297.344 79.9358 297.045C80.161 296.742 80.33 296.396 80.4426 296.01C80.5601 295.618 80.6189 295.204 80.6189 294.768V294.526C80.6189 294.095 80.5601 293.686 80.4426 293.299C80.33 292.912 80.1586 292.567 79.9284 292.263C79.7032 291.96 79.4241 291.72 79.0911 291.544C78.7581 291.367 78.3761 291.279 77.9452 291.279C77.5143 291.279 77.1323 291.367 76.7993 291.544C76.4712 291.72 76.1921 291.96 75.9619 292.263C75.7367 292.567 75.5653 292.912 75.4478 293.299C75.3351 293.686 75.2788 294.095 75.2788 294.526ZM84.2989 287.335V298.617H83.4248V287.335H84.2989ZM86.6201 298.081C86.6201 297.91 86.6739 297.765 86.7817 297.648C86.8943 297.525 87.0461 297.464 87.2371 297.464C87.433 297.464 87.5872 297.523 87.6998 297.64C87.8125 297.758 87.8688 297.905 87.8688 298.081C87.8688 298.247 87.8125 298.389 87.6998 298.507C87.5872 298.625 87.433 298.683 87.2371 298.683C87.0461 298.683 86.8943 298.625 86.7817 298.507C86.6739 298.389 86.6201 298.247 86.6201 298.081Z" fill="#FDFBF9"/>
<path d="M247.628 268.081H244.651L244.67 266.543H247.628C248.646 266.543 249.495 266.331 250.174 265.907C250.853 265.476 251.363 264.875 251.702 264.105C252.048 263.328 252.221 262.42 252.221 261.382V260.51C252.221 259.694 252.123 258.97 251.927 258.336C251.732 257.696 251.444 257.158 251.066 256.72C250.687 256.276 250.223 255.94 249.675 255.711C249.133 255.483 248.509 255.369 247.804 255.369H244.592V253.821H247.804C248.738 253.821 249.59 253.978 250.36 254.291C251.131 254.598 251.794 255.045 252.349 255.633C252.91 256.214 253.341 256.919 253.641 257.749C253.942 258.571 254.092 259.498 254.092 260.53V261.382C254.092 262.414 253.942 263.344 253.641 264.173C253.341 264.996 252.907 265.698 252.339 266.279C251.777 266.86 251.098 267.307 250.302 267.621C249.512 267.928 248.62 268.081 247.628 268.081ZM245.659 253.821V268.081H243.769V253.821H245.659ZM261.055 268.277C260.317 268.277 259.648 268.153 259.048 267.905C258.453 267.65 257.941 267.294 257.51 266.837C257.085 266.38 256.759 265.838 256.53 265.211C256.302 264.585 256.188 263.899 256.188 263.155V262.743C256.188 261.882 256.315 261.114 256.57 260.442C256.824 259.763 257.17 259.188 257.608 258.718C258.045 258.248 258.541 257.892 259.096 257.651C259.651 257.409 260.226 257.288 260.82 257.288C261.578 257.288 262.23 257.419 262.779 257.68C263.334 257.941 263.788 258.307 264.14 258.777C264.493 259.24 264.754 259.789 264.924 260.422C265.094 261.049 265.178 261.735 265.178 262.479V263.292H257.265V261.813H263.367V261.676C263.34 261.206 263.243 260.749 263.073 260.305C262.91 259.861 262.648 259.495 262.289 259.208C261.93 258.921 261.44 258.777 260.82 258.777C260.409 258.777 260.03 258.865 259.684 259.041C259.338 259.211 259.041 259.466 258.793 259.805C258.545 260.145 258.352 260.559 258.215 261.049C258.078 261.539 258.009 262.104 258.009 262.743V263.155C258.009 263.658 258.078 264.131 258.215 264.575C258.359 265.012 258.564 265.398 258.832 265.731C259.106 266.064 259.436 266.325 259.821 266.514C260.213 266.703 260.657 266.798 261.153 266.798C261.793 266.798 262.335 266.667 262.779 266.406C263.223 266.145 263.611 265.796 263.944 265.358L265.041 266.23C264.813 266.576 264.522 266.906 264.17 267.219C263.817 267.533 263.383 267.787 262.867 267.983C262.358 268.179 261.754 268.277 261.055 268.277ZM271.731 257.484V258.875H266.001V257.484H271.731ZM267.94 254.908H269.752V265.456C269.752 265.815 269.808 266.086 269.919 266.269C270.03 266.452 270.173 266.573 270.35 266.632C270.526 266.69 270.715 266.72 270.918 266.72C271.068 266.72 271.225 266.707 271.388 266.681C271.557 266.648 271.685 266.622 271.77 266.602L271.779 268.081C271.636 268.127 271.446 268.169 271.211 268.208C270.983 268.254 270.705 268.277 270.379 268.277C269.935 268.277 269.527 268.189 269.155 268.012C268.783 267.836 268.485 267.542 268.264 267.131C268.048 266.713 267.94 266.152 267.94 265.447V254.908ZM280.104 266.269V260.814C280.104 260.396 280.019 260.034 279.85 259.727C279.686 259.414 279.438 259.172 279.105 259.002C278.772 258.832 278.361 258.748 277.871 258.748C277.414 258.748 277.013 258.826 276.667 258.983C276.327 259.139 276.059 259.345 275.864 259.6C275.674 259.854 275.579 260.128 275.579 260.422H273.768C273.768 260.044 273.866 259.668 274.061 259.296C274.257 258.924 274.538 258.588 274.904 258.287C275.276 257.98 275.72 257.739 276.236 257.562C276.758 257.38 277.339 257.288 277.979 257.288C278.749 257.288 279.428 257.419 280.016 257.68C280.61 257.941 281.074 258.336 281.407 258.865C281.746 259.387 281.916 260.044 281.916 260.834V265.77C281.916 266.122 281.945 266.498 282.004 266.896C282.07 267.294 282.164 267.637 282.288 267.924V268.081H280.398C280.307 267.872 280.235 267.595 280.183 267.249C280.13 266.896 280.104 266.57 280.104 266.269ZM280.418 261.656L280.437 262.929H278.606C278.09 262.929 277.63 262.972 277.225 263.057C276.82 263.135 276.481 263.256 276.206 263.419C275.932 263.582 275.723 263.788 275.579 264.036C275.436 264.278 275.364 264.562 275.364 264.888C275.364 265.221 275.439 265.525 275.589 265.799C275.739 266.073 275.965 266.292 276.265 266.455C276.572 266.612 276.947 266.69 277.391 266.69C277.946 266.69 278.436 266.573 278.86 266.338C279.285 266.103 279.621 265.815 279.869 265.476C280.124 265.136 280.261 264.807 280.281 264.487L281.054 265.358C281.009 265.633 280.884 265.936 280.682 266.269C280.48 266.602 280.209 266.922 279.869 267.229C279.536 267.529 279.138 267.781 278.674 267.983C278.217 268.179 277.701 268.277 277.127 268.277C276.409 268.277 275.779 268.137 275.237 267.856C274.701 267.575 274.283 267.2 273.983 266.73C273.689 266.253 273.542 265.721 273.542 265.133C273.542 264.565 273.653 264.066 273.875 263.635C274.097 263.197 274.417 262.835 274.835 262.548C275.253 262.254 275.756 262.032 276.343 261.882C276.931 261.731 277.587 261.656 278.312 261.656H280.418ZM286.735 253.038V268.081H284.913V253.038H286.735ZM291.455 253.038V268.081H289.643V253.038H291.455ZM291.024 262.381L290.27 262.352C290.277 261.627 290.385 260.958 290.593 260.344C290.802 259.724 291.096 259.185 291.475 258.728C291.854 258.271 292.304 257.918 292.826 257.67C293.355 257.416 293.94 257.288 294.58 257.288C295.102 257.288 295.572 257.36 295.99 257.504C296.408 257.641 296.764 257.863 297.057 258.17C297.358 258.477 297.586 258.875 297.743 259.365C297.9 259.848 297.978 260.439 297.978 261.137V268.081H296.156V261.118C296.156 260.563 296.075 260.119 295.911 259.786C295.748 259.446 295.51 259.201 295.197 259.051C294.883 258.894 294.498 258.816 294.041 258.816C293.59 258.816 293.179 258.911 292.807 259.1C292.441 259.289 292.125 259.551 291.857 259.884C291.596 260.217 291.39 260.599 291.24 261.029C291.096 261.454 291.024 261.904 291.024 262.381ZM306.939 266.269V260.814C306.939 260.396 306.854 260.034 306.685 259.727C306.521 259.414 306.273 259.172 305.94 259.002C305.607 258.832 305.196 258.748 304.706 258.748C304.249 258.748 303.848 258.826 303.502 258.983C303.162 259.139 302.895 259.345 302.699 259.6C302.509 259.854 302.415 260.128 302.415 260.422H300.603C300.603 260.044 300.701 259.668 300.897 259.296C301.092 258.924 301.373 258.588 301.739 258.287C302.111 257.98 302.555 257.739 303.071 257.562C303.593 257.38 304.174 257.288 304.814 257.288C305.585 257.288 306.264 257.419 306.851 257.68C307.445 257.941 307.909 258.336 308.242 258.865C308.581 259.387 308.751 260.044 308.751 260.834V265.77C308.751 266.122 308.781 266.498 308.839 266.896C308.905 267.294 308.999 267.637 309.123 267.924V268.081H307.233C307.142 267.872 307.07 267.595 307.018 267.249C306.965 266.896 306.939 266.57 306.939 266.269ZM307.253 261.656L307.272 262.929H305.441C304.925 262.929 304.465 262.972 304.06 263.057C303.655 263.135 303.316 263.256 303.041 263.419C302.767 263.582 302.558 263.788 302.415 264.036C302.271 264.278 302.199 264.562 302.199 264.888C302.199 265.221 302.274 265.525 302.424 265.799C302.575 266.073 302.8 266.292 303.1 266.455C303.407 266.612 303.782 266.69 304.226 266.69C304.781 266.69 305.271 266.573 305.696 266.338C306.12 266.103 306.456 265.815 306.704 265.476C306.959 265.136 307.096 264.807 307.116 264.487L307.889 265.358C307.844 265.633 307.72 265.936 307.517 266.269C307.315 266.602 307.044 266.922 306.704 267.229C306.371 267.529 305.973 267.781 305.509 267.983C305.052 268.179 304.537 268.277 303.962 268.277C303.244 268.277 302.614 268.137 302.072 267.856C301.536 267.575 301.119 267.2 300.818 266.73C300.524 266.253 300.377 265.721 300.377 265.133C300.377 264.565 300.488 264.066 300.71 263.635C300.932 263.197 301.252 262.835 301.67 262.548C302.088 262.254 302.591 262.032 303.179 261.882C303.766 261.731 304.422 261.656 305.147 261.656H307.253ZM313.403 259.59V268.081H311.582V257.484H313.305L313.403 259.59ZM313.031 262.381L312.189 262.352C312.195 261.627 312.29 260.958 312.473 260.344C312.656 259.724 312.927 259.185 313.286 258.728C313.645 258.271 314.092 257.918 314.628 257.67C315.163 257.416 315.783 257.288 316.488 257.288C316.985 257.288 317.442 257.36 317.859 257.504C318.277 257.641 318.64 257.86 318.947 258.16C319.253 258.46 319.492 258.845 319.662 259.316C319.831 259.786 319.916 260.354 319.916 261.02V268.081H318.104V261.108C318.104 260.553 318.01 260.109 317.82 259.776C317.637 259.443 317.376 259.201 317.037 259.051C316.697 258.894 316.299 258.816 315.842 258.816C315.307 258.816 314.859 258.911 314.5 259.1C314.141 259.289 313.854 259.551 313.638 259.884C313.423 260.217 313.266 260.599 313.168 261.029C313.077 261.454 313.031 261.904 313.031 262.381ZM319.897 261.382L318.682 261.754C318.689 261.173 318.783 260.615 318.966 260.079C319.156 259.544 319.426 259.067 319.779 258.65C320.138 258.232 320.579 257.902 321.101 257.66C321.624 257.412 322.221 257.288 322.894 257.288C323.462 257.288 323.964 257.363 324.402 257.514C324.846 257.664 325.218 257.895 325.518 258.209C325.825 258.516 326.057 258.911 326.214 259.394C326.37 259.877 326.449 260.452 326.449 261.118V268.081H324.627V261.098C324.627 260.504 324.532 260.044 324.343 259.717C324.16 259.384 323.899 259.152 323.559 259.022C323.227 258.885 322.828 258.816 322.365 258.816C321.966 258.816 321.614 258.885 321.307 259.022C321 259.159 320.742 259.348 320.533 259.59C320.324 259.825 320.164 260.096 320.053 260.403C319.949 260.71 319.897 261.036 319.897 261.382ZM333.588 268.277C332.851 268.277 332.181 268.153 331.581 267.905C330.986 267.65 330.474 267.294 330.043 266.837C329.619 266.38 329.292 265.838 329.064 265.211C328.835 264.585 328.721 263.899 328.721 263.155V262.743C328.721 261.882 328.848 261.114 329.103 260.442C329.357 259.763 329.703 259.188 330.141 258.718C330.578 258.248 331.075 257.892 331.63 257.651C332.185 257.409 332.759 257.288 333.353 257.288C334.111 257.288 334.764 257.419 335.312 257.68C335.867 257.941 336.321 258.307 336.673 258.777C337.026 259.24 337.287 259.789 337.457 260.422C337.627 261.049 337.712 261.735 337.712 262.479V263.292H329.798V261.813H335.9V261.676C335.874 261.206 335.776 260.749 335.606 260.305C335.443 259.861 335.182 259.495 334.822 259.208C334.463 258.921 333.974 258.777 333.353 258.777C332.942 258.777 332.563 258.865 332.217 259.041C331.871 259.211 331.574 259.466 331.326 259.805C331.078 260.145 330.885 260.559 330.748 261.049C330.611 261.539 330.543 262.104 330.543 262.743V263.155C330.543 263.658 330.611 264.131 330.748 264.575C330.892 265.012 331.097 265.398 331.365 265.731C331.639 266.064 331.969 266.325 332.354 266.514C332.746 266.703 333.19 266.798 333.686 266.798C334.326 266.798 334.868 266.667 335.312 266.406C335.756 266.145 336.145 265.796 336.478 265.358L337.574 266.23C337.346 266.576 337.055 266.906 336.703 267.219C336.35 267.533 335.916 267.787 335.4 267.983C334.891 268.179 334.287 268.277 333.588 268.277ZM341.639 259.747V268.081H339.827V257.484H341.541L341.639 259.747ZM341.208 262.381L340.454 262.352C340.46 261.627 340.568 260.958 340.777 260.344C340.986 259.724 341.28 259.185 341.659 258.728C342.037 258.271 342.488 257.918 343.01 257.67C343.539 257.416 344.123 257.288 344.763 257.288C345.285 257.288 345.756 257.36 346.173 257.504C346.591 257.641 346.947 257.863 347.241 258.17C347.541 258.477 347.77 258.875 347.927 259.365C348.083 259.848 348.162 260.439 348.162 261.137V268.081H346.34V261.118C346.34 260.563 346.258 260.119 346.095 259.786C345.932 259.446 345.694 259.201 345.38 259.051C345.067 258.894 344.682 258.816 344.224 258.816C343.774 258.816 343.363 258.911 342.99 259.1C342.625 259.289 342.308 259.551 342.04 259.884C341.779 260.217 341.574 260.599 341.423 261.029C341.28 261.454 341.208 261.904 341.208 262.381ZM355.35 257.484V258.875H349.621V257.484H355.35ZM351.56 254.908H353.372V265.456C353.372 265.815 353.427 266.086 353.538 266.269C353.649 266.452 353.793 266.573 353.969 266.632C354.146 266.69 354.335 266.72 354.537 266.72C354.688 266.72 354.844 266.707 355.008 266.681C355.177 266.648 355.305 266.622 355.389 266.602L355.399 268.081C355.256 268.127 355.066 268.169 354.831 268.208C354.603 268.254 354.325 268.277 353.999 268.277C353.555 268.277 353.147 268.189 352.775 268.012C352.402 267.836 352.105 267.542 351.883 267.131C351.668 266.713 351.56 266.152 351.56 265.447V254.908ZM356.8 262.9V262.675C356.8 261.911 356.911 261.203 357.133 260.55C357.355 259.89 357.675 259.319 358.093 258.836C358.51 258.346 359.016 257.967 359.611 257.7C360.205 257.425 360.871 257.288 361.609 257.288C362.353 257.288 363.022 257.425 363.616 257.7C364.217 257.967 364.726 258.346 365.144 258.836C365.569 259.319 365.892 259.89 366.114 260.55C366.336 261.203 366.447 261.911 366.447 262.675V262.9C366.447 263.664 366.336 264.372 366.114 265.025C365.892 265.678 365.569 266.25 365.144 266.739C364.726 267.222 364.22 267.601 363.626 267.875C363.038 268.143 362.372 268.277 361.628 268.277C360.884 268.277 360.215 268.143 359.62 267.875C359.026 267.601 358.517 267.222 358.093 266.739C357.675 266.25 357.355 265.678 357.133 265.025C356.911 264.372 356.8 263.664 356.8 262.9ZM358.612 262.675V262.9C358.612 263.429 358.674 263.928 358.798 264.399C358.922 264.862 359.108 265.273 359.356 265.633C359.611 265.992 359.927 266.276 360.306 266.485C360.685 266.687 361.125 266.788 361.628 266.788C362.124 266.788 362.559 266.687 362.931 266.485C363.309 266.276 363.623 265.992 363.871 265.633C364.119 265.273 364.305 264.862 364.429 264.399C364.56 263.928 364.625 263.429 364.625 262.9V262.675C364.625 262.153 364.56 261.66 364.429 261.196C364.305 260.726 364.116 260.311 363.861 259.952C363.613 259.587 363.3 259.299 362.921 259.09C362.549 258.881 362.111 258.777 361.609 258.777C361.112 258.777 360.675 258.881 360.296 259.09C359.924 259.299 359.611 259.587 359.356 259.952C359.108 260.311 358.922 260.726 358.798 261.196C358.674 261.66 358.612 262.153 358.612 262.675ZM280.927 283.59V292.081H279.105V281.484H280.829L280.927 283.59ZM280.555 286.381L279.712 286.352C279.719 285.627 279.814 284.958 279.997 284.344C280.179 283.724 280.45 283.185 280.809 282.728C281.169 282.271 281.616 281.918 282.151 281.67C282.687 281.416 283.307 281.288 284.012 281.288C284.508 281.288 284.965 281.36 285.383 281.504C285.801 281.641 286.163 281.86 286.47 282.16C286.777 282.46 287.015 282.845 287.185 283.316C287.355 283.786 287.44 284.354 287.44 285.02V292.081H285.628V285.108C285.628 284.553 285.533 284.109 285.344 283.776C285.161 283.443 284.9 283.201 284.56 283.051C284.221 282.894 283.823 282.816 283.366 282.816C282.83 282.816 282.383 282.911 282.024 283.1C281.665 283.289 281.377 283.551 281.162 283.884C280.947 284.217 280.79 284.599 280.692 285.029C280.6 285.454 280.555 285.904 280.555 286.381ZM287.42 285.382L286.206 285.754C286.212 285.173 286.307 284.615 286.49 284.079C286.679 283.544 286.95 283.067 287.303 282.65C287.662 282.232 288.103 281.902 288.625 281.66C289.147 281.412 289.745 281.288 290.417 281.288C290.985 281.288 291.488 281.363 291.925 281.514C292.369 281.664 292.742 281.895 293.042 282.209C293.349 282.516 293.581 282.911 293.737 283.394C293.894 283.877 293.972 284.452 293.972 285.118V292.081H292.151V285.098C292.151 284.504 292.056 284.044 291.867 283.717C291.684 283.384 291.423 283.152 291.083 283.022C290.75 282.885 290.352 282.816 289.888 282.816C289.49 282.816 289.137 282.885 288.831 283.022C288.524 283.159 288.266 283.348 288.057 283.59C287.848 283.825 287.688 284.096 287.577 284.403C287.472 284.71 287.42 285.036 287.42 285.382ZM296.235 286.9V286.675C296.235 285.911 296.346 285.203 296.568 284.55C296.79 283.89 297.11 283.319 297.527 282.836C297.945 282.346 298.451 281.967 299.046 281.7C299.64 281.425 300.306 281.288 301.043 281.288C301.788 281.288 302.457 281.425 303.051 281.7C303.652 281.967 304.161 282.346 304.579 282.836C305.003 283.319 305.327 283.89 305.549 284.55C305.771 285.203 305.882 285.911 305.882 286.675V286.9C305.882 287.664 305.771 288.372 305.549 289.025C305.327 289.678 305.003 290.25 304.579 290.739C304.161 291.222 303.655 291.601 303.061 291.875C302.473 292.143 301.807 292.277 301.063 292.277C300.319 292.277 299.649 292.143 299.055 291.875C298.461 291.601 297.952 291.222 297.527 290.739C297.11 290.25 296.79 289.678 296.568 289.025C296.346 288.372 296.235 287.664 296.235 286.9ZM298.047 286.675V286.9C298.047 287.429 298.109 287.928 298.233 288.399C298.357 288.862 298.543 289.273 298.791 289.633C299.046 289.992 299.362 290.276 299.741 290.485C300.12 290.687 300.56 290.788 301.063 290.788C301.559 290.788 301.993 290.687 302.366 290.485C302.744 290.276 303.058 289.992 303.306 289.633C303.554 289.273 303.74 288.862 303.864 288.399C303.995 287.928 304.06 287.429 304.06 286.9V286.675C304.06 286.153 303.995 285.66 303.864 285.196C303.74 284.726 303.551 284.311 303.296 283.952C303.048 283.587 302.735 283.299 302.356 283.09C301.984 282.881 301.546 282.777 301.043 282.777C300.547 282.777 300.11 282.881 299.731 283.09C299.359 283.299 299.046 283.587 298.791 283.952C298.543 284.311 298.357 284.726 298.233 285.196C298.109 285.66 298.047 286.153 298.047 286.675ZM299.966 279.917L301.866 277.038H304.05L301.425 279.917H299.966ZM311.219 290.445L314.118 281.484H315.969L312.159 292.081H310.945L311.219 290.445ZM308.8 281.484L311.787 290.494L311.993 292.081H310.779L306.939 281.484H308.8ZM321.973 292.277C321.235 292.277 320.566 292.153 319.965 291.905C319.371 291.65 318.858 291.294 318.428 290.837C318.003 290.38 317.677 289.838 317.448 289.211C317.22 288.585 317.105 287.899 317.105 287.155V286.743C317.105 285.882 317.233 285.114 317.487 284.442C317.742 283.763 318.088 283.188 318.525 282.718C318.963 282.248 319.459 281.892 320.014 281.651C320.569 281.409 321.144 281.288 321.738 281.288C322.495 281.288 323.148 281.419 323.697 281.68C324.252 281.941 324.705 282.307 325.058 282.777C325.411 283.24 325.672 283.789 325.841 284.422C326.011 285.049 326.096 285.735 326.096 286.479V287.292H318.183V285.813H324.284V285.676C324.258 285.206 324.16 284.749 323.99 284.305C323.827 283.861 323.566 283.495 323.207 283.208C322.848 282.921 322.358 282.777 321.738 282.777C321.327 282.777 320.948 282.865 320.602 283.041C320.256 283.211 319.959 283.466 319.711 283.805C319.462 284.145 319.27 284.559 319.133 285.049C318.996 285.539 318.927 286.104 318.927 286.743V287.155C318.927 287.658 318.996 288.131 319.133 288.575C319.276 289.012 319.482 289.398 319.75 289.731C320.024 290.064 320.354 290.325 320.739 290.514C321.131 290.703 321.575 290.798 322.071 290.798C322.711 290.798 323.253 290.667 323.697 290.406C324.141 290.145 324.529 289.796 324.862 289.358L325.959 290.23C325.73 290.576 325.44 290.906 325.087 291.219C324.735 291.533 324.301 291.787 323.785 291.983C323.275 292.179 322.672 292.277 321.973 292.277ZM330.18 277.038V292.081H328.358V277.038H330.18ZM294.722 307.246C294.722 307.892 294.57 308.438 294.266 308.884C293.967 309.329 293.561 309.665 293.047 309.89C292.533 310.115 291.957 310.228 291.321 310.228C290.679 310.228 290.101 310.115 289.587 309.89C289.073 309.665 288.664 309.329 288.36 308.884C288.062 308.438 287.912 307.892 287.912 307.246C287.912 306.82 287.996 306.433 288.162 306.085C288.334 305.733 288.571 305.429 288.875 305.174C289.183 304.915 289.543 304.714 289.954 304.572C290.366 304.43 290.816 304.359 291.306 304.359C291.952 304.359 292.533 304.484 293.047 304.734C293.561 304.978 293.967 305.316 294.266 305.747C294.57 306.178 294.722 306.678 294.722 307.246ZM293.84 307.246C293.84 306.79 293.73 306.391 293.51 306.048C293.289 305.706 292.988 305.441 292.606 305.255C292.224 305.064 291.791 304.969 291.306 304.969C290.816 304.969 290.383 305.064 290.006 305.255C289.629 305.441 289.332 305.706 289.117 306.048C288.902 306.391 288.794 306.79 288.794 307.246C288.794 307.721 288.899 308.125 289.11 308.458C289.325 308.791 289.624 309.043 290.006 309.214C290.388 309.386 290.826 309.471 291.321 309.471C291.815 309.471 292.251 309.386 292.628 309.214C293.005 309.043 293.301 308.791 293.517 308.458C293.732 308.125 293.84 307.721 293.84 307.246ZM294.442 302.133C294.442 302.657 294.303 303.125 294.024 303.536C293.75 303.943 293.377 304.264 292.907 304.499C292.437 304.729 291.906 304.844 291.313 304.844C290.716 304.844 290.18 304.729 289.705 304.499C289.235 304.264 288.862 303.943 288.588 303.536C288.319 303.125 288.184 302.657 288.184 302.133C288.184 301.511 288.319 300.987 288.588 300.561C288.862 300.131 289.235 299.802 289.705 299.577C290.175 299.352 290.709 299.239 291.306 299.239C291.898 299.239 292.43 299.352 292.9 299.577C293.375 299.802 293.75 300.131 294.024 300.561C294.303 300.987 294.442 301.511 294.442 302.133ZM293.568 302.126C293.568 301.71 293.468 301.343 293.267 301.024C293.071 300.706 292.802 300.456 292.459 300.275C292.121 300.089 291.737 299.996 291.306 299.996C290.87 299.996 290.483 300.082 290.145 300.253C289.812 300.424 289.548 300.669 289.352 300.987C289.161 301.306 289.066 301.685 289.066 302.126C289.066 302.557 289.161 302.929 289.352 303.243C289.548 303.551 289.815 303.791 290.153 303.962C290.491 304.134 290.877 304.219 291.313 304.219C291.749 304.219 292.136 304.134 292.474 303.962C292.812 303.791 293.079 303.551 293.275 303.243C293.47 302.929 293.568 302.557 293.568 302.126ZM303.235 309.471C303.607 309.471 303.955 309.403 304.278 309.266C304.606 309.124 304.875 308.916 305.086 308.641C305.301 308.362 305.424 308.022 305.453 307.62H306.291C306.266 308.125 306.112 308.575 305.828 308.972C305.549 309.364 305.181 309.672 304.726 309.897C304.275 310.118 303.778 310.228 303.235 310.228C302.681 310.228 302.192 310.128 301.766 309.927C301.345 309.726 300.992 309.447 300.708 309.089C300.424 308.727 300.209 308.306 300.062 307.826C299.92 307.341 299.849 306.82 299.849 306.261V305.953C299.849 305.395 299.92 304.876 300.062 304.396C300.209 303.911 300.424 303.49 300.708 303.132C300.992 302.77 301.345 302.488 301.766 302.288C302.187 302.087 302.674 301.986 303.227 301.986C303.796 301.986 304.305 302.102 304.755 302.332C305.211 302.562 305.573 302.887 305.842 303.309C306.117 303.73 306.266 304.229 306.291 304.807H305.453C305.429 304.381 305.316 304.014 305.115 303.705C304.914 303.397 304.65 303.159 304.322 302.993C303.994 302.826 303.629 302.743 303.227 302.743C302.777 302.743 302.393 302.831 302.074 303.007C301.756 303.179 301.496 303.416 301.296 303.72C301.1 304.019 300.955 304.361 300.862 304.748C300.769 305.13 300.723 305.532 300.723 305.953V306.261C300.723 306.687 300.767 307.094 300.855 307.481C300.948 307.863 301.092 308.203 301.288 308.502C301.489 308.801 301.749 309.038 302.067 309.214C302.39 309.386 302.779 309.471 303.235 309.471ZM307.576 306.232V305.99C307.576 305.412 307.659 304.878 307.826 304.388C307.992 303.899 308.23 303.475 308.538 303.118C308.852 302.76 309.226 302.483 309.662 302.288C310.098 302.087 310.583 301.986 311.116 301.986C311.655 301.986 312.142 302.087 312.578 302.288C313.014 302.483 313.389 302.76 313.702 303.118C314.015 303.475 314.255 303.899 314.422 304.388C314.588 304.878 314.672 305.412 314.672 305.99V306.232C314.672 306.81 314.588 307.344 314.422 307.833C314.255 308.318 314.015 308.739 313.702 309.097C313.393 309.454 313.021 309.733 312.586 309.934C312.15 310.13 311.665 310.228 311.131 310.228C310.592 310.228 310.105 310.13 309.669 309.934C309.234 309.733 308.859 309.454 308.546 309.097C308.232 308.739 307.992 308.318 307.826 307.833C307.659 307.344 307.576 306.81 307.576 306.232ZM308.45 305.99V306.232C308.45 306.668 308.509 307.082 308.626 307.473C308.744 307.86 308.915 308.206 309.141 308.509C309.366 308.808 309.645 309.043 309.978 309.214C310.311 309.386 310.695 309.471 311.131 309.471C311.562 309.471 311.942 309.386 312.27 309.214C312.603 309.043 312.882 308.808 313.107 308.509C313.332 308.206 313.501 307.86 313.614 307.473C313.731 307.082 313.79 306.668 313.79 306.232V305.99C313.79 305.559 313.731 305.15 313.614 304.763C313.501 304.376 313.33 304.031 313.1 303.727C312.874 303.424 312.595 303.184 312.262 303.007C311.929 302.831 311.547 302.743 311.116 302.743C310.686 302.743 310.304 302.831 309.971 303.007C309.642 303.184 309.363 303.424 309.133 303.727C308.908 304.031 308.737 304.376 308.619 304.763C308.506 305.15 308.45 305.559 308.45 305.99ZM317.47 298.799V310.081H316.596V298.799H317.47ZM319.791 309.545C319.791 309.373 319.845 309.229 319.953 309.111C320.066 308.989 320.217 308.928 320.408 308.928C320.604 308.928 320.758 308.987 320.871 309.104C320.984 309.222 321.04 309.369 321.04 309.545C321.04 309.711 320.984 309.853 320.871 309.971C320.758 310.088 320.604 310.147 320.408 310.147C320.217 310.147 320.066 310.088 319.953 309.971C319.845 309.853 319.791 309.711 319.791 309.545Z" fill="#FDFBF9"/>
</svg>
