<svg width="728" height="405" viewBox="0 0 728 405" fill="none" xmlns="http://www.w3.org/2000/svg">
<rect x="0.841797" y="0.865723" width="727.094" height="403.663" rx="11.1571" fill="#0567FF" fill-opacity="0.25"/>
<rect x="6.43359" y="6.77148" width="23.6561" height="391.297" fill="#FDFBF9" fill-opacity="0.1"/>
<rect x="35.9434" y="6.77148" width="23.6561" height="391.297" fill="#FDFBF9" fill-opacity="0.1"/>
<rect x="66.0293" y="6.77148" width="23.6561" height="391.297" fill="#FDFBF9" fill-opacity="0.1"/>
<rect x="96.1152" y="6.77148" width="23.6561" height="391.297" fill="#FDFBF9" fill-opacity="0.1"/>
<rect x="126.203" y="6.77148" width="23.6561" height="391.297" fill="#FDFBF9" fill-opacity="0.1"/>
<rect x="156.289" y="6.77148" width="23.6561" height="391.297" fill="#FDFBF9" fill-opacity="0.1"/>
<rect x="186.375" y="6.77148" width="23.6561" height="391.297" fill="#FDFBF9" fill-opacity="0.1"/>
<rect x="216.463" y="6.77148" width="23.6561" height="391.297" fill="#FDFBF9" fill-opacity="0.1"/>
<rect x="246.549" y="6.77148" width="23.6561" height="391.297" fill="#FDFBF9" fill-opacity="0.1"/>
<rect x="276.637" y="6.77148" width="23.6561" height="391.297" fill="#FDFBF9" fill-opacity="0.1"/>
<rect x="306.723" y="6.77148" width="23.6561" height="391.297" fill="#FDFBF9" fill-opacity="0.1"/>
<rect x="336.809" y="6.77148" width="23.6561" height="391.297" fill="#FDFBF9" fill-opacity="0.1"/>
<rect x="366.896" y="6.77148" width="23.6561" height="391.297" fill="#FDFBF9" fill-opacity="0.1"/>
<rect x="396.982" y="6.77148" width="23.6561" height="391.297" fill="#FDFBF9" fill-opacity="0.1"/>
<rect x="427.068" y="6.77148" width="23.6561" height="391.297" fill="#FDFBF9" fill-opacity="0.1"/>
<rect x="457.156" y="6.77148" width="23.6561" height="391.297" fill="#FDFBF9" fill-opacity="0.1"/>
<rect x="487.242" y="6.77148" width="23.6561" height="391.297" fill="#FDFBF9" fill-opacity="0.1"/>
<rect x="517.33" y="6.77148" width="23.6561" height="391.297" fill="#FDFBF9" fill-opacity="0.1"/>
<rect x="547.416" y="6.77148" width="23.6561" height="391.297" fill="#FDFBF9" fill-opacity="0.1"/>
<rect x="577.502" y="6.77148" width="23.6561" height="391.297" fill="#FDFBF9" fill-opacity="0.1"/>
<rect x="607.59" y="6.77148" width="23.6561" height="391.297" fill="#FDFBF9" fill-opacity="0.1"/>
<rect x="637.676" y="6.77148" width="23.6561" height="391.297" fill="#FDFBF9" fill-opacity="0.1"/>
<rect x="667.762" y="6.77148" width="23.6561" height="391.297" fill="#FDFBF9" fill-opacity="0.1"/>
<rect x="697.85" y="6.77148" width="23.6561" height="391.297" fill="#FDFBF9" fill-opacity="0.1"/>
<rect x="5.85547" y="35.9668" width="82.7383" height="361.04" rx="11.1631" fill="#0567FF" fill-opacity="0.5"/>
<rect x="96.1152" y="35.9668" width="233.172" height="361.04" rx="11.1631" fill="#0567FF" fill-opacity="0.5"/>
<path d="M727.936 25.8574L0.841614 25.8574L0.841615 12.0315C0.841616 5.86504 5.84053 0.866117 12.007 0.866118L716.77 0.866179C722.937 0.86618 727.936 5.8651 727.936 12.0316L727.936 25.8574Z" fill="#0567FF"/>
<path d="M494.045 187.996H496.792L503.8 205.434L510.793 187.996H513.554L504.857 209.386H502.713L494.045 187.996ZM493.149 187.996H495.573L495.97 201.041V209.386H493.149V187.996ZM512.012 187.996H514.436V209.386H511.615V201.041L512.012 187.996ZM528.377 206.668V198.485C528.377 197.858 528.25 197.315 527.995 196.855C527.751 196.384 527.378 196.022 526.879 195.767C526.379 195.513 525.762 195.385 525.028 195.385C524.342 195.385 523.74 195.503 523.221 195.738C522.712 195.973 522.31 196.282 522.016 196.664C521.732 197.046 521.59 197.457 521.59 197.898H518.872C518.872 197.33 519.019 196.766 519.313 196.208C519.607 195.65 520.028 195.146 520.577 194.695C521.135 194.235 521.801 193.872 522.575 193.608C523.358 193.334 524.23 193.197 525.189 193.197C526.345 193.197 527.364 193.392 528.245 193.784C529.136 194.176 529.832 194.768 530.331 195.562C530.841 196.345 531.095 197.33 531.095 198.515V205.919C531.095 206.448 531.139 207.011 531.227 207.608C531.325 208.206 531.467 208.72 531.653 209.151V209.386H528.818C528.681 209.072 528.573 208.656 528.495 208.137C528.417 207.608 528.377 207.118 528.377 206.668ZM528.847 199.749L528.877 201.658H526.13C525.356 201.658 524.666 201.722 524.058 201.849C523.451 201.967 522.942 202.148 522.53 202.393C522.119 202.638 521.806 202.946 521.59 203.318C521.375 203.681 521.267 204.107 521.267 204.597C521.267 205.096 521.38 205.551 521.605 205.963C521.83 206.374 522.168 206.702 522.619 206.947C523.079 207.182 523.642 207.3 524.308 207.3C525.141 207.3 525.875 207.123 526.512 206.771C527.148 206.418 527.653 205.987 528.025 205.478C528.407 204.969 528.612 204.474 528.642 203.994L529.802 205.302C529.734 205.713 529.548 206.168 529.244 206.668C528.941 207.167 528.534 207.647 528.025 208.108C527.525 208.558 526.928 208.935 526.233 209.239C525.547 209.533 524.773 209.68 523.911 209.68C522.834 209.68 521.889 209.469 521.076 209.048C520.273 208.627 519.646 208.064 519.196 207.358C518.755 206.643 518.535 205.845 518.535 204.964C518.535 204.112 518.701 203.363 519.034 202.716C519.367 202.06 519.847 201.516 520.474 201.085C521.101 200.645 521.855 200.312 522.736 200.086C523.618 199.861 524.602 199.749 525.689 199.749H528.847ZM538.088 196.546V215.497H535.356V193.49H537.853L538.088 196.546ZM548.798 201.306V201.614C548.798 202.77 548.66 203.842 548.386 204.832C548.112 205.811 547.71 206.663 547.182 207.388C546.662 208.113 546.021 208.676 545.257 209.077C544.493 209.479 543.617 209.68 542.627 209.68C541.619 209.68 540.727 209.513 539.954 209.18C539.18 208.847 538.524 208.362 537.985 207.726C537.446 207.089 537.016 206.325 536.692 205.434C536.379 204.543 536.163 203.539 536.046 202.422V200.777C536.163 199.602 536.384 198.549 536.707 197.618C537.03 196.688 537.456 195.895 537.985 195.239C538.524 194.573 539.175 194.068 539.939 193.725C540.703 193.373 541.584 193.197 542.583 193.197C543.582 193.197 544.469 193.392 545.242 193.784C546.016 194.166 546.667 194.715 547.196 195.43C547.725 196.144 548.122 197.001 548.386 198C548.66 198.99 548.798 200.091 548.798 201.306ZM546.065 201.614V201.306C546.065 200.513 545.982 199.768 545.815 199.073C545.649 198.368 545.389 197.751 545.037 197.222C544.694 196.683 544.253 196.262 543.715 195.958C543.176 195.645 542.534 195.488 541.79 195.488C541.104 195.488 540.507 195.606 539.998 195.841C539.498 196.076 539.072 196.394 538.72 196.796C538.367 197.188 538.078 197.638 537.853 198.147C537.637 198.647 537.476 199.166 537.368 199.705V203.509C537.564 204.195 537.838 204.841 538.191 205.449C538.543 206.046 539.014 206.531 539.601 206.903C540.189 207.265 540.928 207.447 541.819 207.447C542.554 207.447 543.186 207.295 543.715 206.991C544.253 206.678 544.694 206.252 545.037 205.713C545.389 205.174 545.649 204.557 545.815 203.862C545.982 203.157 546.065 202.408 546.065 201.614ZM561.637 206.668V198.485C561.637 197.858 561.51 197.315 561.255 196.855C561.01 196.384 560.638 196.022 560.139 195.767C559.639 195.513 559.022 195.385 558.288 195.385C557.602 195.385 557 195.503 556.481 195.738C555.972 195.973 555.57 196.282 555.276 196.664C554.992 197.046 554.85 197.457 554.85 197.898H552.132C552.132 197.33 552.279 196.766 552.573 196.208C552.867 195.65 553.288 195.146 553.836 194.695C554.395 194.235 555.061 193.872 555.834 193.608C556.618 193.334 557.49 193.197 558.449 193.197C559.605 193.197 560.624 193.392 561.505 193.784C562.396 194.176 563.092 194.768 563.591 195.562C564.1 196.345 564.355 197.33 564.355 198.515V205.919C564.355 206.448 564.399 207.011 564.487 207.608C564.585 208.206 564.727 208.72 564.913 209.151V209.386H562.078C561.941 209.072 561.833 208.656 561.755 208.137C561.676 207.608 561.637 207.118 561.637 206.668ZM562.107 199.749L562.137 201.658H559.39C558.616 201.658 557.925 201.722 557.318 201.849C556.711 201.967 556.202 202.148 555.79 202.393C555.379 202.638 555.066 202.946 554.85 203.318C554.635 203.681 554.527 204.107 554.527 204.597C554.527 205.096 554.64 205.551 554.865 205.963C555.09 206.374 555.428 206.702 555.878 206.947C556.339 207.182 556.902 207.3 557.568 207.3C558.4 207.3 559.135 207.123 559.772 206.771C560.408 206.418 560.913 205.987 561.285 205.478C561.667 204.969 561.872 204.474 561.902 203.994L563.062 205.302C562.994 205.713 562.808 206.168 562.504 206.668C562.2 207.167 561.794 207.647 561.285 208.108C560.785 208.558 560.188 208.935 559.492 209.239C558.807 209.533 558.033 209.68 557.171 209.68C556.094 209.68 555.149 209.469 554.336 209.048C553.533 208.627 552.906 208.064 552.456 207.358C552.015 206.643 551.794 205.845 551.794 204.964C551.794 204.112 551.961 203.363 552.294 202.716C552.627 202.06 553.107 201.516 553.734 201.085C554.36 200.645 555.115 200.312 555.996 200.086C556.877 199.861 557.862 199.749 558.949 199.749H562.107ZM500.835 220.488V238.386H499.378V222.336L494.53 224.136V222.752L500.59 220.488H500.835ZM511.192 228.665H512.685C513.599 228.665 514.362 228.51 514.975 228.2C515.595 227.882 516.06 227.462 516.37 226.939C516.688 226.417 516.848 225.837 516.848 225.201C516.848 224.483 516.713 223.854 516.444 223.315C516.174 222.769 515.762 222.344 515.207 222.042C514.66 221.732 513.958 221.577 513.101 221.577C512.351 221.577 511.681 221.724 511.094 222.018C510.506 222.312 510.041 222.732 509.698 223.279C509.355 223.826 509.184 224.478 509.184 225.238H507.727C507.727 224.266 507.96 223.413 508.425 222.679C508.89 221.936 509.531 221.357 510.347 220.94C511.163 220.524 512.081 220.316 513.101 220.316C514.154 220.316 515.068 220.508 515.844 220.892C516.627 221.275 517.231 221.834 517.656 222.569C518.088 223.303 518.304 224.197 518.304 225.25C518.304 225.788 518.186 226.319 517.949 226.841C517.721 227.364 517.378 227.837 516.921 228.261C516.464 228.678 515.897 229.012 515.219 229.265C514.542 229.518 513.754 229.645 512.857 229.645H511.192V228.665ZM511.192 229.926V228.959H512.857C513.877 228.959 514.75 229.078 515.476 229.314C516.203 229.543 516.799 229.869 517.264 230.294C517.737 230.71 518.084 231.195 518.304 231.75C518.525 232.305 518.635 232.901 518.635 233.538C518.635 234.354 518.5 235.076 518.231 235.705C517.962 236.333 517.578 236.868 517.08 237.308C516.591 237.741 516.011 238.072 515.342 238.3C514.681 238.52 513.954 238.631 513.163 238.631C512.444 238.631 511.743 238.524 511.057 238.312C510.38 238.1 509.767 237.786 509.221 237.37C508.682 236.945 508.254 236.415 507.935 235.778C507.617 235.133 507.458 234.391 507.458 233.55H508.915C508.915 234.301 509.094 234.966 509.453 235.546C509.812 236.117 510.31 236.566 510.947 236.892C511.592 237.21 512.33 237.37 513.163 237.37C514.003 237.37 514.722 237.227 515.317 236.941C515.921 236.647 516.382 236.219 516.701 235.656C517.019 235.093 517.178 234.403 517.178 233.587C517.178 232.73 516.986 232.032 516.603 231.493C516.227 230.955 515.701 230.559 515.023 230.306C514.354 230.053 513.575 229.926 512.685 229.926H511.192ZM533.081 237.37C533.701 237.37 534.281 237.255 534.819 237.027C535.366 236.79 535.815 236.443 536.166 235.986C536.525 235.521 536.729 234.954 536.778 234.285H538.174C538.133 235.125 537.876 235.876 537.402 236.537C536.937 237.19 536.325 237.704 535.566 238.08C534.815 238.447 533.987 238.631 533.081 238.631C532.159 238.631 531.342 238.463 530.632 238.129C529.931 237.794 529.343 237.329 528.87 236.733C528.396 236.129 528.037 235.427 527.792 234.627C527.556 233.819 527.437 232.95 527.437 232.02V231.506C527.437 230.575 527.556 229.71 527.792 228.91C528.037 228.102 528.396 227.4 528.87 226.805C529.343 226.201 529.931 225.731 530.632 225.397C531.334 225.062 532.146 224.895 533.069 224.895C534.015 224.895 534.864 225.087 535.615 225.47C536.374 225.854 536.978 226.396 537.427 227.098C537.884 227.8 538.133 228.633 538.174 229.596H536.778C536.737 228.886 536.55 228.274 536.215 227.759C535.88 227.245 535.44 226.849 534.893 226.572C534.346 226.294 533.738 226.156 533.069 226.156C532.318 226.156 531.677 226.303 531.147 226.596C530.616 226.882 530.184 227.278 529.849 227.784C529.522 228.282 529.282 228.853 529.127 229.498C528.972 230.134 528.894 230.804 528.894 231.506V232.02C528.894 232.73 528.967 233.407 529.114 234.052C529.269 234.689 529.51 235.256 529.837 235.754C530.171 236.252 530.604 236.647 531.134 236.941C531.673 237.227 532.322 237.37 533.081 237.37ZM540.316 231.971V231.567C540.316 230.604 540.455 229.714 540.732 228.898C541.01 228.082 541.406 227.376 541.92 226.78C542.442 226.184 543.067 225.723 543.793 225.397C544.519 225.062 545.327 224.895 546.217 224.895C547.115 224.895 547.927 225.062 548.653 225.397C549.379 225.723 550.004 226.184 550.526 226.78C551.048 227.376 551.448 228.082 551.726 228.898C552.003 229.714 552.142 230.604 552.142 231.567V231.971C552.142 232.934 552.003 233.823 551.726 234.64C551.448 235.448 551.048 236.149 550.526 236.745C550.012 237.341 549.392 237.806 548.665 238.141C547.939 238.467 547.131 238.631 546.241 238.631C545.344 238.631 544.532 238.467 543.805 238.141C543.079 237.806 542.454 237.341 541.932 236.745C541.41 236.149 541.01 235.448 540.732 234.64C540.455 233.823 540.316 232.934 540.316 231.971ZM541.773 231.567V231.971C541.773 232.697 541.871 233.387 542.067 234.04C542.263 234.684 542.548 235.26 542.924 235.766C543.299 236.264 543.764 236.655 544.319 236.941C544.874 237.227 545.515 237.37 546.241 237.37C546.96 237.37 547.592 237.227 548.139 236.941C548.694 236.655 549.159 236.264 549.535 235.766C549.91 235.26 550.192 234.684 550.379 234.04C550.575 233.387 550.673 232.697 550.673 231.971V231.567C550.673 230.849 550.575 230.167 550.379 229.522C550.192 228.878 549.906 228.302 549.522 227.796C549.147 227.29 548.682 226.89 548.127 226.596C547.572 226.303 546.935 226.156 546.217 226.156C545.499 226.156 544.862 226.303 544.307 226.596C543.76 226.89 543.295 227.29 542.911 227.796C542.536 228.302 542.25 228.878 542.054 229.522C541.867 230.167 541.773 230.849 541.773 231.567ZM556.806 219.582V238.386H555.35V219.582H556.806ZM560.675 237.492C560.675 237.206 560.765 236.966 560.944 236.77C561.132 236.566 561.385 236.464 561.703 236.464C562.03 236.464 562.287 236.562 562.475 236.758C562.662 236.953 562.756 237.198 562.756 237.492C562.756 237.77 562.662 238.006 562.475 238.202C562.287 238.398 562.03 238.496 561.703 238.496C561.385 238.496 561.132 238.398 560.944 238.202C560.765 238.006 560.675 237.77 560.675 237.492Z" fill="#606060"/>
<path d="M23.2048 205.88H25.0853C24.9873 206.781 24.7294 207.587 24.3115 208.299C23.8937 209.011 23.3028 209.576 22.5389 209.993C21.7749 210.405 20.8217 210.61 19.6791 210.61C18.8433 210.61 18.0827 210.454 17.3971 210.14C16.7181 209.827 16.1337 209.383 15.644 208.808C15.1543 208.227 14.7756 207.532 14.5079 206.722C14.2468 205.906 14.1162 204.999 14.1162 204V202.579C14.1162 201.581 14.2468 200.676 14.5079 199.867C14.7756 199.05 15.1576 198.352 15.6538 197.771C16.1565 197.19 16.7605 196.742 17.4657 196.429C18.1708 196.116 18.9641 195.959 19.8456 195.959C20.9229 195.959 21.8337 196.161 22.578 196.566C23.3224 196.971 23.9002 197.532 24.3115 198.251C24.7294 198.962 24.9873 199.788 25.0853 200.728H23.2048C23.1134 200.062 22.9437 199.491 22.6956 199.015C22.4475 198.531 22.0949 198.159 21.6378 197.898C21.1808 197.637 20.5834 197.506 19.8456 197.506C19.2122 197.506 18.654 197.627 18.1708 197.869C17.6942 198.11 17.2926 198.453 16.9662 198.897C16.6462 199.341 16.4047 199.873 16.2414 200.493C16.0782 201.114 15.9966 201.803 15.9966 202.56V204C15.9966 204.698 16.0684 205.354 16.212 205.968C16.3622 206.582 16.5875 207.121 16.8878 207.584C17.1882 208.048 17.5701 208.413 18.0337 208.681C18.4973 208.942 19.0457 209.073 19.6791 209.073C20.4822 209.073 21.122 208.945 21.5987 208.691C22.0753 208.436 22.4344 208.071 22.676 207.594C22.9241 207.117 23.1004 206.546 23.2048 205.88ZM33.6353 208.603V203.148C33.6353 202.73 33.5504 202.367 33.3806 202.06C33.2174 201.747 32.9693 201.505 32.6363 201.336C32.3033 201.166 31.892 201.081 31.4023 201.081C30.9452 201.081 30.5437 201.159 30.1976 201.316C29.8581 201.473 29.5904 201.678 29.3945 201.933C29.2052 202.188 29.1105 202.462 29.1105 202.756H27.2987C27.2987 202.377 27.3966 202.002 27.5925 201.629C27.7884 201.257 28.0691 200.921 28.4348 200.621C28.8069 200.314 29.2509 200.072 29.7667 199.896C30.2891 199.713 30.8702 199.622 31.51 199.622C32.2805 199.622 32.9595 199.752 33.5471 200.013C34.1413 200.275 34.6049 200.67 34.9379 201.199C35.2774 201.721 35.4471 202.377 35.4471 203.167V208.103C35.4471 208.456 35.4765 208.831 35.5353 209.229C35.6006 209.628 35.6953 209.971 35.8193 210.258V210.415H33.9291C33.8377 210.206 33.7659 209.928 33.7136 209.582C33.6614 209.229 33.6353 208.903 33.6353 208.603ZM33.9487 203.99L33.9683 205.263H32.1368C31.621 205.263 31.1607 205.305 30.7559 205.39C30.3511 205.469 30.0116 205.589 29.7373 205.753C29.4631 205.916 29.2542 206.122 29.1105 206.37C28.9669 206.611 28.8951 206.895 28.8951 207.222C28.8951 207.555 28.9701 207.858 29.1203 208.133C29.2705 208.407 29.4958 208.626 29.7961 208.789C30.103 208.945 30.4784 209.024 30.9224 209.024C31.4774 209.024 31.9671 208.906 32.3915 208.671C32.8159 208.436 33.1521 208.149 33.4002 207.809C33.6549 207.47 33.792 207.14 33.8116 206.82L34.5853 207.692C34.5396 207.966 34.4155 208.27 34.2131 208.603C34.0107 208.936 33.7397 209.256 33.4002 209.562C33.0672 209.863 32.669 210.114 32.2054 210.317C31.7483 210.512 31.2325 210.61 30.658 210.61C29.9397 210.61 29.3097 210.47 28.7677 210.189C28.2323 209.909 27.8145 209.533 27.5141 209.063C27.2203 208.586 27.0734 208.054 27.0734 207.467C27.0734 206.899 27.1844 206.399 27.4064 205.968C27.6284 205.531 27.9483 205.168 28.3662 204.881C28.7841 204.587 29.2868 204.365 29.8744 204.215C30.4621 204.065 31.1183 203.99 31.843 203.99H33.9487ZM40.109 201.483V210.415H38.2971V199.818H40.06L40.109 201.483ZM43.4193 199.759L43.4095 201.443C43.2594 201.411 43.1157 201.391 42.9786 201.385C42.848 201.372 42.6978 201.365 42.5281 201.365C42.1102 201.365 41.7413 201.43 41.4214 201.561C41.1014 201.692 40.8305 201.874 40.6085 202.109C40.3865 202.344 40.2102 202.625 40.0796 202.952C39.9556 203.272 39.874 203.624 39.8348 204.009L39.3255 204.303C39.3255 203.663 39.3875 203.063 39.5116 202.501C39.6422 201.94 39.8413 201.443 40.109 201.012C40.3767 200.575 40.7162 200.235 41.1276 199.994C41.5454 199.746 42.0417 199.622 42.6162 199.622C42.7468 199.622 42.897 199.638 43.0667 199.671C43.2365 199.697 43.354 199.726 43.4193 199.759ZM51.5776 208.358V195.371H53.3992V210.415H51.7343L51.5776 208.358ZM44.4477 205.234V205.028C44.4477 204.218 44.5456 203.484 44.7415 202.824C44.9439 202.158 45.2279 201.587 45.5936 201.11C45.9657 200.634 46.4064 200.268 46.9157 200.013C47.4315 199.752 48.0061 199.622 48.6394 199.622C49.3054 199.622 49.8865 199.739 50.3827 199.974C50.8855 200.203 51.3099 200.539 51.6559 200.983C52.0085 201.421 52.286 201.949 52.4884 202.57C52.6908 203.19 52.8312 203.892 52.9095 204.675V205.576C52.8377 206.353 52.6974 207.052 52.4884 207.672C52.286 208.293 52.0085 208.821 51.6559 209.259C51.3099 209.696 50.8855 210.033 50.3827 210.268C49.88 210.496 49.2924 210.61 48.6198 210.61C47.9996 210.61 47.4315 210.477 46.9157 210.209C46.4064 209.941 45.9657 209.566 45.5936 209.083C45.2279 208.599 44.9439 208.031 44.7415 207.378C44.5456 206.719 44.4477 206.004 44.4477 205.234ZM46.2693 205.028V205.234C46.2693 205.762 46.3216 206.259 46.426 206.722C46.537 207.186 46.7068 207.594 46.9353 207.947C47.1638 208.299 47.4544 208.577 47.807 208.779C48.1595 208.975 48.5807 209.073 49.0704 209.073C49.6711 209.073 50.164 208.945 50.5492 208.691C50.941 208.436 51.2544 208.1 51.4894 207.682C51.7245 207.264 51.9073 206.81 52.0379 206.321V203.96C51.9595 203.601 51.8453 203.255 51.6951 202.922C51.5515 202.583 51.3621 202.282 51.1271 202.021C50.8985 201.754 50.6145 201.541 50.275 201.385C49.942 201.228 49.547 201.15 49.09 201.15C48.5937 201.15 48.1661 201.254 47.807 201.463C47.4544 201.665 47.1638 201.946 46.9353 202.305C46.7068 202.658 46.537 203.069 46.426 203.539C46.3216 204.003 46.2693 204.499 46.2693 205.028ZM58.1884 195.371V210.415H56.3668V195.371H58.1884ZM63.0658 199.818V210.415H61.2441V199.818H63.0658ZM61.107 197.007C61.107 196.713 61.1951 196.465 61.3714 196.262C61.5542 196.06 61.8219 195.959 62.1745 195.959C62.5206 195.959 62.785 196.06 62.9678 196.262C63.1572 196.465 63.2518 196.713 63.2518 197.007C63.2518 197.288 63.1572 197.529 62.9678 197.732C62.785 197.927 62.5206 198.025 62.1745 198.025C61.8219 198.025 61.5542 197.927 61.3714 197.732C61.1951 197.529 61.107 197.288 61.107 197.007ZM72.1446 207.604C72.1446 207.343 72.0859 207.101 71.9684 206.879C71.8574 206.65 71.6256 206.445 71.273 206.262C70.9269 206.073 70.4046 205.909 69.706 205.772C69.1183 205.648 68.5862 205.501 68.1096 205.332C67.6395 205.162 67.2379 204.956 66.9049 204.715C66.5785 204.473 66.3271 204.189 66.1508 203.862C65.9745 203.536 65.8864 203.154 65.8864 202.717C65.8864 202.299 65.9778 201.904 66.1606 201.532C66.35 201.159 66.6144 200.83 66.9539 200.542C67.3 200.255 67.7146 200.03 68.1977 199.867C68.6809 199.703 69.2196 199.622 69.8137 199.622C70.6625 199.622 71.3873 199.772 71.9879 200.072C72.5886 200.373 73.0489 200.774 73.3689 201.277C73.6888 201.773 73.8488 202.325 73.8488 202.932H72.0369C72.0369 202.638 71.9488 202.354 71.7725 202.08C71.6027 201.799 71.3513 201.567 71.0184 201.385C70.6919 201.202 70.2903 201.11 69.8137 201.11C69.311 201.11 68.9029 201.189 68.5895 201.345C68.2826 201.496 68.0574 201.688 67.9137 201.923C67.7766 202.158 67.708 202.406 67.708 202.668C67.708 202.864 67.7407 203.04 67.806 203.196C67.8778 203.347 68.0019 203.487 68.1781 203.618C68.3544 203.742 68.6025 203.859 68.9225 203.97C69.2424 204.081 69.6505 204.192 70.1467 204.303C71.0151 204.499 71.73 204.734 72.2916 205.008C72.8531 205.283 73.2709 205.619 73.5452 206.017C73.8194 206.415 73.9565 206.899 73.9565 207.467C73.9565 207.93 73.8586 208.355 73.6627 208.74C73.4733 209.125 73.1958 209.458 72.8302 209.739C72.4711 210.013 72.0402 210.228 71.5374 210.385C71.0412 210.535 70.483 210.61 69.8627 210.61C68.929 210.61 68.139 210.444 67.4926 210.111C66.8462 209.778 66.3565 209.347 66.0235 208.818C65.6905 208.289 65.524 207.731 65.524 207.143H67.3457C67.3718 207.64 67.5154 208.035 67.7766 208.328C68.0378 208.616 68.3577 208.821 68.7364 208.945C69.1151 209.063 69.4905 209.122 69.8627 209.122C70.3589 209.122 70.7735 209.056 71.1065 208.926C71.446 208.795 71.7039 208.616 71.8802 208.387C72.0565 208.159 72.1446 207.898 72.1446 207.604ZM80.773 199.818V201.208H75.0436V199.818H80.773ZM76.9828 197.242H78.7947V207.79C78.7947 208.149 78.8502 208.42 78.9612 208.603C79.0722 208.786 79.2158 208.906 79.3921 208.965C79.5684 209.024 79.7577 209.053 79.9601 209.053C80.1103 209.053 80.267 209.04 80.4302 209.014C80.6 208.981 80.7273 208.955 80.8122 208.936L80.822 210.415C80.6783 210.46 80.489 210.503 80.2539 210.542C80.0254 210.588 79.7479 210.61 79.4215 210.61C78.9775 210.61 78.5694 210.522 78.1972 210.346C77.8251 210.17 77.528 209.876 77.306 209.465C77.0905 209.047 76.9828 208.485 76.9828 207.78V197.242ZM32.6045 222.582H33.5006C34.0491 222.582 34.5069 222.489 34.8742 222.303C35.2464 222.112 35.5255 221.86 35.7116 221.547C35.9026 221.233 35.998 220.886 35.998 220.504C35.998 220.073 35.9172 219.696 35.7556 219.372C35.594 219.044 35.3468 218.79 35.0138 218.608C34.6857 218.422 34.2645 218.329 33.7504 218.329C33.2998 218.329 32.8983 218.417 32.5457 218.594C32.1931 218.77 31.914 219.022 31.7083 219.35C31.5027 219.678 31.3998 220.07 31.3998 220.526H30.5257C30.5257 219.943 30.6653 219.431 30.9444 218.99C31.2236 218.545 31.608 218.197 32.0977 217.947C32.5873 217.698 33.1382 217.573 33.7504 217.573C34.3821 217.573 34.9305 217.688 35.3957 217.918C35.8658 218.148 36.2282 218.484 36.4828 218.924C36.7424 219.365 36.8721 219.901 36.8721 220.533C36.8721 220.856 36.8011 221.174 36.6591 221.488C36.522 221.801 36.3163 222.085 36.0421 222.34C35.7679 222.59 35.4276 222.79 35.0211 222.942C34.6147 223.094 34.1421 223.17 33.6035 223.17H32.6045V222.582ZM32.6045 223.339V222.759H33.6035C34.2156 222.759 34.7395 222.83 35.1754 222.972C35.6112 223.109 35.9687 223.305 36.2478 223.559C36.5318 223.809 36.7399 224.1 36.8721 224.433C37.0044 224.766 37.0705 225.124 37.0705 225.506C37.0705 225.995 36.9897 226.429 36.8281 226.806C36.6665 227.183 36.4363 227.504 36.1376 227.768C35.8438 228.028 35.4961 228.226 35.0946 228.363C34.6979 228.495 34.2621 228.561 33.7871 228.561C33.3562 228.561 32.935 228.498 32.5237 228.37C32.1172 228.243 31.75 228.055 31.4219 227.805C31.0987 227.55 30.8416 227.232 30.6506 226.85C30.4596 226.463 30.3641 226.018 30.3641 225.513H31.2382C31.2382 225.964 31.346 226.363 31.5614 226.71C31.7769 227.053 32.0756 227.323 32.4576 227.518C32.8444 227.709 33.2876 227.805 33.7871 227.805C34.2915 227.805 34.7224 227.719 35.0799 227.548C35.4422 227.372 35.7189 227.114 35.9099 226.777C36.1009 226.439 36.1964 226.025 36.1964 225.535C36.1964 225.021 36.0813 224.602 35.8511 224.279C35.6259 223.956 35.31 223.718 34.9036 223.567C34.502 223.415 34.0344 223.339 33.5006 223.339H32.6045ZM45.738 227.805C46.1102 227.805 46.4579 227.736 46.7811 227.599C47.1092 227.457 47.3785 227.249 47.5891 226.975C47.8045 226.696 47.9269 226.355 47.9563 225.954H48.7937C48.7692 226.458 48.615 226.909 48.3309 227.305C48.0518 227.697 47.6845 228.006 47.2291 228.231C46.7786 228.451 46.2816 228.561 45.738 228.561C45.1847 228.561 44.695 228.461 44.2689 228.26C43.8478 228.06 43.4952 227.78 43.2112 227.423C42.9272 227.061 42.7117 226.639 42.5648 226.16C42.4228 225.675 42.3518 225.153 42.3518 224.595V224.286C42.3518 223.728 42.4228 223.209 42.5648 222.729C42.7117 222.244 42.9272 221.823 43.2112 221.466C43.4952 221.103 43.8478 220.822 44.2689 220.621C44.6901 220.42 45.1773 220.32 45.7307 220.32C46.2987 220.32 46.808 220.435 47.2585 220.665C47.7139 220.895 48.0763 221.221 48.3456 221.642C48.6199 222.063 48.7692 222.563 48.7937 223.141H47.9563C47.9318 222.715 47.8192 222.347 47.6184 222.039C47.4177 221.73 47.1532 221.493 46.8251 221.326C46.497 221.16 46.1322 221.077 45.7307 221.077C45.2802 221.077 44.8957 221.165 44.5774 221.341C44.2591 221.512 43.9996 221.75 43.7988 222.053C43.603 222.352 43.4585 222.695 43.3655 223.082C43.2724 223.464 43.2259 223.865 43.2259 224.286V224.595C43.2259 225.021 43.27 225.427 43.3581 225.814C43.4512 226.196 43.5956 226.537 43.7915 226.835C43.9923 227.134 44.2518 227.372 44.5701 227.548C44.8933 227.719 45.2826 227.805 45.738 227.805ZM50.0791 224.566V224.323C50.0791 223.745 50.1624 223.212 50.3289 222.722C50.4954 222.232 50.7329 221.809 51.0414 221.451C51.3548 221.094 51.7294 220.817 52.1652 220.621C52.601 220.42 53.0858 220.32 53.6196 220.32C54.1583 220.32 54.6455 220.42 55.0813 220.621C55.5172 220.817 55.8918 221.094 56.2052 221.451C56.5186 221.809 56.7585 222.232 56.925 222.722C57.0915 223.212 57.1748 223.745 57.1748 224.323V224.566C57.1748 225.143 57.0915 225.677 56.925 226.167C56.7585 226.652 56.5186 227.073 56.2052 227.43C55.8967 227.788 55.5245 228.067 55.0887 228.268C54.6529 228.464 54.1681 228.561 53.6343 228.561C53.0956 228.561 52.6084 228.464 52.1726 228.268C51.7367 228.067 51.3621 227.788 51.0487 227.43C50.7353 227.073 50.4954 226.652 50.3289 226.167C50.1624 225.677 50.0791 225.143 50.0791 224.566ZM50.9532 224.323V224.566C50.9532 225.001 51.012 225.415 51.1295 225.807C51.247 226.194 51.4184 226.539 51.6437 226.843C51.869 227.141 52.1481 227.376 52.4811 227.548C52.8141 227.719 53.1985 227.805 53.6343 227.805C54.0652 227.805 54.4447 227.719 54.7728 227.548C55.1058 227.376 55.3849 227.141 55.6102 226.843C55.8355 226.539 56.0044 226.194 56.117 225.807C56.2346 225.415 56.2933 225.001 56.2933 224.566V224.323C56.2933 223.892 56.2346 223.483 56.117 223.096C56.0044 222.71 55.833 222.364 55.6029 222.061C55.3776 221.757 55.0985 221.517 54.7655 221.341C54.4325 221.165 54.0505 221.077 53.6196 221.077C53.1887 221.077 52.8067 221.165 52.4737 221.341C52.1456 221.517 51.8665 221.757 51.6364 222.061C51.4111 222.364 51.2397 222.71 51.1222 223.096C51.0095 223.483 50.9532 223.892 50.9532 224.323ZM59.9734 217.132V228.415H59.0993V217.132H59.9734ZM62.2945 227.878C62.2945 227.707 62.3484 227.562 62.4561 227.445C62.5687 227.323 62.7205 227.261 62.9115 227.261C63.1074 227.261 63.2616 227.32 63.3743 227.438C63.4869 227.555 63.5432 227.702 63.5432 227.878C63.5432 228.045 63.4869 228.187 63.3743 228.304C63.2616 228.422 63.1074 228.481 62.9115 228.481C62.7205 228.481 62.5687 228.422 62.4561 228.304C62.3484 228.187 62.2945 228.045 62.2945 227.878Z" fill="#FDFBF9"/>
<path d="M155.604 210.415H152.627L152.647 208.877H155.604C156.623 208.877 157.472 208.665 158.151 208.24C158.83 207.809 159.339 207.209 159.679 206.438C160.025 205.661 160.198 204.754 160.198 203.716V202.844C160.198 202.028 160.1 201.303 159.904 200.67C159.708 200.03 159.421 199.491 159.042 199.054C158.663 198.61 158.2 198.273 157.651 198.045C157.109 197.816 156.486 197.702 155.781 197.702H152.568V196.155H155.781C156.714 196.155 157.566 196.311 158.337 196.625C159.107 196.932 159.77 197.379 160.325 197.967C160.887 198.548 161.318 199.253 161.618 200.082C161.918 200.905 162.068 201.832 162.068 202.864V203.716C162.068 204.747 161.918 205.678 161.618 206.507C161.318 207.329 160.883 208.031 160.315 208.612C159.754 209.194 159.075 209.641 158.278 209.954C157.488 210.261 156.597 210.415 155.604 210.415ZM153.636 196.155V210.415H151.746V196.155H153.636ZM169.032 210.61C168.294 210.61 167.625 210.486 167.024 210.238C166.43 209.984 165.917 209.628 165.486 209.171C165.062 208.714 164.736 208.172 164.507 207.545C164.279 206.918 164.164 206.233 164.164 205.488V205.077C164.164 204.215 164.292 203.448 164.546 202.775C164.801 202.096 165.147 201.522 165.584 201.052C166.022 200.582 166.518 200.226 167.073 199.984C167.628 199.743 168.203 199.622 168.797 199.622C169.554 199.622 170.207 199.752 170.756 200.013C171.31 200.275 171.764 200.64 172.117 201.11C172.469 201.574 172.731 202.122 172.9 202.756C173.07 203.383 173.155 204.068 173.155 204.812V205.625H165.242V204.146H171.343V204.009C171.317 203.539 171.219 203.082 171.049 202.638C170.886 202.194 170.625 201.829 170.266 201.541C169.907 201.254 169.417 201.11 168.797 201.11C168.385 201.11 168.007 201.199 167.661 201.375C167.315 201.545 167.018 201.799 166.769 202.139C166.521 202.478 166.329 202.893 166.192 203.383C166.054 203.872 165.986 204.437 165.986 205.077V205.488C165.986 205.991 166.054 206.464 166.192 206.908C166.335 207.346 166.541 207.731 166.809 208.064C167.083 208.397 167.413 208.658 167.798 208.848C168.19 209.037 168.634 209.132 169.13 209.132C169.77 209.132 170.312 209.001 170.756 208.74C171.2 208.479 171.588 208.129 171.921 207.692L173.018 208.564C172.789 208.91 172.499 209.239 172.146 209.553C171.794 209.866 171.359 210.121 170.844 210.317C170.334 210.512 169.73 210.61 169.032 210.61ZM179.707 199.818V201.208H173.978V199.818H179.707ZM175.917 197.242H177.729V207.79C177.729 208.149 177.784 208.42 177.895 208.603C178.006 208.786 178.15 208.906 178.326 208.965C178.502 209.024 178.692 209.053 178.894 209.053C179.044 209.053 179.201 209.04 179.364 209.014C179.534 208.981 179.661 208.955 179.746 208.936L179.756 210.415C179.612 210.46 179.423 210.503 179.188 210.542C178.959 210.588 178.682 210.61 178.356 210.61C177.912 210.61 177.503 210.522 177.131 210.346C176.759 210.17 176.462 209.876 176.24 209.465C176.025 209.047 175.917 208.485 175.917 207.78V197.242ZM188.081 208.603V203.148C188.081 202.73 187.996 202.367 187.826 202.06C187.663 201.747 187.415 201.505 187.082 201.336C186.749 201.166 186.338 201.081 185.848 201.081C185.391 201.081 184.989 201.159 184.643 201.316C184.304 201.473 184.036 201.678 183.84 201.933C183.651 202.188 183.556 202.462 183.556 202.756H181.744C181.744 202.377 181.842 202.002 182.038 201.629C182.234 201.257 182.515 200.921 182.88 200.621C183.252 200.314 183.696 200.072 184.212 199.896C184.735 199.713 185.316 199.622 185.956 199.622C186.726 199.622 187.405 199.752 187.993 200.013C188.587 200.275 189.05 200.67 189.383 201.199C189.723 201.721 189.893 202.377 189.893 203.167V208.103C189.893 208.456 189.922 208.831 189.981 209.229C190.046 209.628 190.141 209.971 190.265 210.258V210.415H188.375C188.283 210.206 188.211 209.928 188.159 209.582C188.107 209.229 188.081 208.903 188.081 208.603ZM188.394 203.99L188.414 205.263H186.582C186.067 205.263 185.606 205.305 185.201 205.39C184.797 205.469 184.457 205.589 184.183 205.753C183.909 205.916 183.7 206.122 183.556 206.37C183.412 206.611 183.341 206.895 183.341 207.222C183.341 207.555 183.416 207.858 183.566 208.133C183.716 208.407 183.941 208.626 184.242 208.789C184.549 208.945 184.924 209.024 185.368 209.024C185.923 209.024 186.413 208.906 186.837 208.671C187.261 208.436 187.598 208.149 187.846 207.809C188.1 207.47 188.238 207.14 188.257 206.82L189.031 207.692C188.985 207.966 188.861 208.27 188.659 208.603C188.456 208.936 188.185 209.256 187.846 209.562C187.513 209.863 187.114 210.114 186.651 210.317C186.194 210.512 185.678 210.61 185.103 210.61C184.385 210.61 183.755 210.47 183.213 210.189C182.678 209.909 182.26 209.533 181.96 209.063C181.666 208.586 181.519 208.054 181.519 207.467C181.519 206.899 181.63 206.399 181.852 205.968C182.074 205.531 182.394 205.168 182.812 204.881C183.23 204.587 183.732 204.365 184.32 204.215C184.908 204.065 185.564 203.99 186.289 203.99H188.394ZM194.711 195.371V210.415H192.89V195.371H194.711ZM199.432 195.371V210.415H197.62V195.371H199.432ZM199.001 204.715L198.247 204.685C198.253 203.96 198.361 203.291 198.57 202.677C198.779 202.057 199.073 201.518 199.451 201.061C199.83 200.604 200.281 200.252 200.803 200.004C201.332 199.749 201.916 199.622 202.556 199.622C203.078 199.622 203.549 199.694 203.966 199.837C204.384 199.974 204.74 200.196 205.034 200.503C205.334 200.81 205.563 201.208 205.72 201.698C205.876 202.181 205.955 202.772 205.955 203.471V210.415H204.133V203.451C204.133 202.896 204.051 202.452 203.888 202.119C203.725 201.78 203.487 201.535 203.173 201.385C202.86 201.228 202.474 201.15 202.017 201.15C201.567 201.15 201.156 201.244 200.783 201.434C200.418 201.623 200.101 201.884 199.833 202.217C199.572 202.55 199.367 202.932 199.216 203.363C199.073 203.787 199.001 204.238 199.001 204.715ZM214.916 208.603V203.148C214.916 202.73 214.831 202.367 214.661 202.06C214.498 201.747 214.25 201.505 213.917 201.336C213.584 201.166 213.173 201.081 212.683 201.081C212.226 201.081 211.824 201.159 211.478 201.316C211.139 201.473 210.871 201.678 210.675 201.933C210.486 202.188 210.391 202.462 210.391 202.756H208.579C208.579 202.377 208.677 202.002 208.873 201.629C209.069 201.257 209.35 200.921 209.715 200.621C210.088 200.314 210.532 200.072 211.047 199.896C211.57 199.713 212.151 199.622 212.791 199.622C213.561 199.622 214.24 199.752 214.828 200.013C215.422 200.275 215.886 200.67 216.219 201.199C216.558 201.721 216.728 202.377 216.728 203.167V208.103C216.728 208.456 216.757 208.831 216.816 209.229C216.881 209.628 216.976 209.971 217.1 210.258V210.415H215.21C215.118 210.206 215.047 209.928 214.994 209.582C214.942 209.229 214.916 208.903 214.916 208.603ZM215.229 203.99L215.249 205.263H213.417C212.902 205.263 212.441 205.305 212.037 205.39C211.632 205.469 211.292 205.589 211.018 205.753C210.744 205.916 210.535 206.122 210.391 206.37C210.248 206.611 210.176 206.895 210.176 207.222C210.176 207.555 210.251 207.858 210.401 208.133C210.551 208.407 210.776 208.626 211.077 208.789C211.384 208.945 211.759 209.024 212.203 209.024C212.758 209.024 213.248 208.906 213.672 208.671C214.097 208.436 214.433 208.149 214.681 207.809C214.936 207.47 215.073 207.14 215.092 206.82L215.866 207.692C215.82 207.966 215.696 208.27 215.494 208.603C215.291 208.936 215.02 209.256 214.681 209.562C214.348 209.863 213.95 210.114 213.486 210.317C213.029 210.512 212.513 210.61 211.939 210.61C211.22 210.61 210.59 210.47 210.048 210.189C209.513 209.909 209.095 209.533 208.795 209.063C208.501 208.586 208.354 208.054 208.354 207.467C208.354 206.899 208.465 206.399 208.687 205.968C208.909 205.531 209.229 205.168 209.647 204.881C210.065 204.587 210.567 204.365 211.155 204.215C211.743 204.065 212.399 203.99 213.124 203.99H215.229ZM221.38 201.923V210.415H219.558V199.818H221.282L221.38 201.923ZM221.008 204.715L220.165 204.685C220.172 203.96 220.267 203.291 220.449 202.677C220.632 202.057 220.903 201.518 221.262 201.061C221.621 200.604 222.069 200.252 222.604 200.004C223.139 199.749 223.76 199.622 224.465 199.622C224.961 199.622 225.418 199.694 225.836 199.837C226.254 199.974 226.616 200.193 226.923 200.493C227.23 200.794 227.468 201.179 227.638 201.649C227.808 202.119 227.893 202.687 227.893 203.353V210.415H226.081V203.441C226.081 202.886 225.986 202.442 225.797 202.109C225.614 201.776 225.353 201.535 225.013 201.385C224.674 201.228 224.276 201.15 223.819 201.15C223.283 201.15 222.836 201.244 222.477 201.434C222.118 201.623 221.83 201.884 221.615 202.217C221.399 202.55 221.243 202.932 221.145 203.363C221.053 203.787 221.008 204.238 221.008 204.715ZM227.873 203.716L226.659 204.088C226.665 203.507 226.76 202.948 226.943 202.413C227.132 201.878 227.403 201.401 227.756 200.983C228.115 200.565 228.555 200.235 229.078 199.994C229.6 199.746 230.198 199.622 230.87 199.622C231.438 199.622 231.941 199.697 232.378 199.847C232.822 199.997 233.194 200.229 233.495 200.542C233.802 200.849 234.033 201.244 234.19 201.727C234.347 202.211 234.425 202.785 234.425 203.451V210.415H232.604V203.432C232.604 202.837 232.509 202.377 232.32 202.051C232.137 201.718 231.876 201.486 231.536 201.355C231.203 201.218 230.805 201.15 230.341 201.15C229.943 201.15 229.59 201.218 229.283 201.355C228.977 201.492 228.719 201.682 228.51 201.923C228.301 202.158 228.141 202.429 228.03 202.736C227.925 203.043 227.873 203.37 227.873 203.716ZM241.565 210.61C240.827 210.61 240.158 210.486 239.557 210.238C238.963 209.984 238.451 209.628 238.02 209.171C237.595 208.714 237.269 208.172 237.04 207.545C236.812 206.918 236.697 206.233 236.697 205.488V205.077C236.697 204.215 236.825 203.448 237.079 202.775C237.334 202.096 237.68 201.522 238.118 201.052C238.555 200.582 239.051 200.226 239.606 199.984C240.161 199.743 240.736 199.622 241.33 199.622C242.087 199.622 242.74 199.752 243.289 200.013C243.844 200.275 244.297 200.64 244.65 201.11C245.003 201.574 245.264 202.122 245.434 202.756C245.603 203.383 245.688 204.068 245.688 204.812V205.625H237.775V204.146H243.876V204.009C243.85 203.539 243.752 203.082 243.582 202.638C243.419 202.194 243.158 201.829 242.799 201.541C242.44 201.254 241.95 201.11 241.33 201.11C240.919 201.11 240.54 201.199 240.194 201.375C239.848 201.545 239.551 201.799 239.303 202.139C239.054 202.478 238.862 202.893 238.725 203.383C238.588 203.872 238.519 204.437 238.519 205.077V205.488C238.519 205.991 238.588 206.464 238.725 206.908C238.868 207.346 239.074 207.731 239.342 208.064C239.616 208.397 239.946 208.658 240.331 208.848C240.723 209.037 241.167 209.132 241.663 209.132C242.303 209.132 242.845 209.001 243.289 208.74C243.733 208.479 244.121 208.129 244.454 207.692L245.551 208.564C245.323 208.91 245.032 209.239 244.679 209.553C244.327 209.866 243.893 210.121 243.377 210.317C242.868 210.512 242.264 210.61 241.565 210.61ZM249.615 202.08V210.415H247.804V199.818H249.518L249.615 202.08ZM249.185 204.715L248.43 204.685C248.437 203.96 248.545 203.291 248.754 202.677C248.963 202.057 249.256 201.518 249.635 201.061C250.014 200.604 250.464 200.252 250.987 200.004C251.515 199.749 252.1 199.622 252.74 199.622C253.262 199.622 253.732 199.694 254.15 199.837C254.568 199.974 254.924 200.196 255.218 200.503C255.518 200.81 255.746 201.208 255.903 201.698C256.06 202.181 256.138 202.772 256.138 203.471V210.415H254.317V203.451C254.317 202.896 254.235 202.452 254.072 202.119C253.908 201.78 253.67 201.535 253.357 201.385C253.043 201.228 252.658 201.15 252.201 201.15C251.751 201.15 251.339 201.244 250.967 201.434C250.601 201.623 250.285 201.884 250.017 202.217C249.756 202.55 249.55 202.932 249.4 203.363C249.256 203.787 249.185 204.238 249.185 204.715ZM263.327 199.818V201.208H257.597V199.818H263.327ZM259.537 197.242H261.348V207.79C261.348 208.149 261.404 208.42 261.515 208.603C261.626 208.786 261.77 208.906 261.946 208.965C262.122 209.024 262.312 209.053 262.514 209.053C262.664 209.053 262.821 209.04 262.984 209.014C263.154 208.981 263.281 208.955 263.366 208.936L263.376 210.415C263.232 210.46 263.043 210.503 262.808 210.542C262.579 210.588 262.302 210.61 261.975 210.61C261.531 210.61 261.123 210.522 260.751 210.346C260.379 210.17 260.082 209.876 259.86 209.465C259.644 209.047 259.537 208.485 259.537 207.78V197.242ZM264.776 205.234V205.008C264.776 204.244 264.887 203.536 265.109 202.883C265.331 202.224 265.651 201.652 266.069 201.169C266.487 200.679 266.993 200.301 267.587 200.033C268.181 199.759 268.847 199.622 269.585 199.622C270.329 199.622 270.999 199.759 271.593 200.033C272.194 200.301 272.703 200.679 273.121 201.169C273.545 201.652 273.868 202.224 274.09 202.883C274.312 203.536 274.423 204.244 274.423 205.008V205.234C274.423 205.998 274.312 206.706 274.09 207.359C273.868 208.012 273.545 208.583 273.121 209.073C272.703 209.556 272.197 209.935 271.603 210.209C271.015 210.477 270.349 210.61 269.605 210.61C268.86 210.61 268.191 210.477 267.597 210.209C267.003 209.935 266.494 209.556 266.069 209.073C265.651 208.583 265.331 208.012 265.109 207.359C264.887 206.706 264.776 205.998 264.776 205.234ZM266.588 205.008V205.234C266.588 205.762 266.65 206.262 266.774 206.732C266.898 207.196 267.084 207.607 267.333 207.966C267.587 208.325 267.904 208.609 268.283 208.818C268.661 209.021 269.102 209.122 269.605 209.122C270.101 209.122 270.535 209.021 270.907 208.818C271.286 208.609 271.599 208.325 271.847 207.966C272.096 207.607 272.282 207.196 272.406 206.732C272.536 206.262 272.602 205.762 272.602 205.234V205.008C272.602 204.486 272.536 203.993 272.406 203.529C272.282 203.059 272.092 202.645 271.838 202.286C271.59 201.92 271.276 201.633 270.897 201.424C270.525 201.215 270.088 201.11 269.585 201.11C269.089 201.11 268.651 201.215 268.273 201.424C267.901 201.633 267.587 201.92 267.333 202.286C267.084 202.645 266.898 203.059 266.774 203.529C266.65 203.993 266.588 204.486 266.588 205.008ZM188.903 225.923V234.415H187.082V223.818H188.806L188.903 225.923ZM188.531 228.715L187.689 228.685C187.696 227.96 187.79 227.291 187.973 226.677C188.156 226.057 188.427 225.518 188.786 225.061C189.145 224.604 189.592 224.252 190.128 224.004C190.663 223.749 191.283 223.622 191.989 223.622C192.485 223.622 192.942 223.694 193.36 223.837C193.778 223.974 194.14 224.193 194.447 224.493C194.754 224.794 194.992 225.179 195.162 225.649C195.332 226.119 195.416 226.687 195.416 227.353V234.415H193.605V227.441C193.605 226.886 193.51 226.442 193.321 226.109C193.138 225.776 192.877 225.535 192.537 225.385C192.197 225.228 191.799 225.15 191.342 225.15C190.807 225.15 190.36 225.244 190 225.434C189.641 225.623 189.354 225.884 189.139 226.217C188.923 226.55 188.766 226.932 188.668 227.363C188.577 227.787 188.531 228.238 188.531 228.715ZM195.397 227.716L194.182 228.088C194.189 227.507 194.284 226.948 194.466 226.413C194.656 225.878 194.927 225.401 195.279 224.983C195.638 224.565 196.079 224.235 196.601 223.994C197.124 223.746 197.721 223.622 198.394 223.622C198.962 223.622 199.465 223.697 199.902 223.847C200.346 223.997 200.718 224.229 201.018 224.542C201.325 224.849 201.557 225.244 201.714 225.727C201.871 226.211 201.949 226.785 201.949 227.451V234.415H200.127V227.432C200.127 226.837 200.033 226.377 199.843 226.051C199.66 225.718 199.399 225.486 199.06 225.355C198.727 225.218 198.328 225.15 197.865 225.15C197.467 225.15 197.114 225.218 196.807 225.355C196.5 225.492 196.242 225.682 196.033 225.923C195.824 226.158 195.665 226.429 195.554 226.736C195.449 227.043 195.397 227.37 195.397 227.716ZM204.211 229.234V229.008C204.211 228.244 204.322 227.536 204.544 226.883C204.766 226.224 205.086 225.652 205.504 225.169C205.922 224.679 206.428 224.301 207.022 224.033C207.616 223.759 208.282 223.622 209.02 223.622C209.764 223.622 210.434 223.759 211.028 224.033C211.628 224.301 212.138 224.679 212.556 225.169C212.98 225.652 213.303 226.224 213.525 226.883C213.747 227.536 213.858 228.244 213.858 229.008V229.234C213.858 229.998 213.747 230.706 213.525 231.359C213.303 232.012 212.98 232.583 212.556 233.073C212.138 233.556 211.632 233.935 211.038 234.209C210.45 234.477 209.784 234.61 209.04 234.61C208.295 234.61 207.626 234.477 207.032 234.209C206.438 233.935 205.928 233.556 205.504 233.073C205.086 232.583 204.766 232.012 204.544 231.359C204.322 230.706 204.211 229.998 204.211 229.234ZM206.023 229.008V229.234C206.023 229.762 206.085 230.262 206.209 230.732C206.333 231.196 206.519 231.607 206.767 231.966C207.022 232.325 207.339 232.609 207.717 232.818C208.096 233.021 208.537 233.122 209.04 233.122C209.536 233.122 209.97 233.021 210.342 232.818C210.721 232.609 211.034 232.325 211.282 231.966C211.531 231.607 211.717 231.196 211.841 230.732C211.971 230.262 212.037 229.762 212.037 229.234V229.008C212.037 228.486 211.971 227.993 211.841 227.529C211.717 227.059 211.527 226.645 211.273 226.286C211.025 225.92 210.711 225.633 210.332 225.424C209.96 225.215 209.523 225.11 209.02 225.11C208.524 225.11 208.086 225.215 207.708 225.424C207.335 225.633 207.022 225.92 206.767 226.286C206.519 226.645 206.333 227.059 206.209 227.529C206.085 227.993 206.023 228.486 206.023 229.008ZM207.943 222.251L209.843 219.371H212.027L209.402 222.251H207.943ZM219.196 232.779L222.095 223.818H223.946L220.136 234.415H218.922L219.196 232.779ZM216.777 223.818L219.764 232.828L219.97 234.415H218.755L214.916 223.818H216.777ZM229.949 234.61C229.212 234.61 228.542 234.486 227.942 234.238C227.348 233.984 226.835 233.628 226.404 233.171C225.98 232.714 225.653 232.172 225.425 231.545C225.196 230.918 225.082 230.233 225.082 229.488V229.077C225.082 228.215 225.209 227.448 225.464 226.775C225.719 226.096 226.065 225.522 226.502 225.052C226.939 224.582 227.436 224.226 227.991 223.984C228.546 223.743 229.12 223.622 229.714 223.622C230.472 223.622 231.125 223.752 231.673 224.013C232.228 224.275 232.682 224.64 233.035 225.11C233.387 225.574 233.648 226.122 233.818 226.756C233.988 227.383 234.073 228.068 234.073 228.812V229.625H226.159V228.146H232.261V228.009C232.235 227.539 232.137 227.082 231.967 226.638C231.804 226.194 231.543 225.829 231.183 225.541C230.824 225.254 230.335 225.11 229.714 225.11C229.303 225.11 228.924 225.199 228.578 225.375C228.232 225.545 227.935 225.799 227.687 226.139C227.439 226.478 227.246 226.893 227.109 227.383C226.972 227.872 226.904 228.437 226.904 229.077V229.488C226.904 229.991 226.972 230.464 227.109 230.908C227.253 231.346 227.459 231.731 227.726 232.064C228 232.397 228.33 232.658 228.715 232.848C229.107 233.037 229.551 233.132 230.047 233.132C230.687 233.132 231.229 233.001 231.673 232.74C232.117 232.479 232.506 232.129 232.839 231.692L233.936 232.564C233.707 232.91 233.416 233.239 233.064 233.553C232.711 233.866 232.277 234.121 231.761 234.317C231.252 234.512 230.648 234.61 229.949 234.61ZM238.157 219.371V234.415H236.335V219.371H238.157ZM202.698 249.579C202.698 250.226 202.546 250.772 202.243 251.217C201.944 251.663 201.538 251.998 201.023 252.224C200.509 252.449 199.934 252.561 199.297 252.561C198.656 252.561 198.078 252.449 197.564 252.224C197.05 251.998 196.641 251.663 196.337 251.217C196.038 250.772 195.889 250.226 195.889 249.579C195.889 249.153 195.972 248.766 196.139 248.419C196.31 248.066 196.548 247.762 196.851 247.508C197.16 247.248 197.52 247.048 197.931 246.906C198.342 246.764 198.793 246.693 199.283 246.693C199.929 246.693 200.509 246.817 201.023 247.067C201.538 247.312 201.944 247.65 202.243 248.081C202.546 248.512 202.698 249.011 202.698 249.579ZM201.817 249.579C201.817 249.124 201.706 248.725 201.486 248.382C201.266 248.039 200.965 247.775 200.583 247.589C200.201 247.398 199.767 247.302 199.283 247.302C198.793 247.302 198.359 247.398 197.982 247.589C197.605 247.775 197.309 248.039 197.094 248.382C196.878 248.725 196.77 249.124 196.77 249.579C196.77 250.054 196.876 250.458 197.086 250.791C197.302 251.124 197.6 251.376 197.982 251.548C198.364 251.719 198.803 251.805 199.297 251.805C199.792 251.805 200.228 251.719 200.605 251.548C200.982 251.376 201.278 251.124 201.493 250.791C201.709 250.458 201.817 250.054 201.817 249.579ZM202.419 244.467C202.419 244.991 202.279 245.458 202 245.87C201.726 246.276 201.354 246.597 200.884 246.832C200.414 247.062 199.882 247.177 199.29 247.177C198.692 247.177 198.156 247.062 197.681 246.832C197.211 246.597 196.839 246.276 196.565 245.87C196.295 245.458 196.161 244.991 196.161 244.467C196.161 243.845 196.295 243.321 196.565 242.895C196.839 242.464 197.211 242.136 197.681 241.911C198.151 241.685 198.685 241.573 199.283 241.573C199.875 241.573 200.406 241.685 200.876 241.911C201.351 242.136 201.726 242.464 202 242.895C202.279 243.321 202.419 243.845 202.419 244.467ZM201.545 244.46C201.545 244.043 201.444 243.676 201.244 243.358C201.048 243.039 200.779 242.79 200.436 242.608C200.098 242.422 199.713 242.329 199.283 242.329C198.847 242.329 198.46 242.415 198.122 242.586C197.789 242.758 197.525 243.003 197.329 243.321C197.138 243.639 197.042 244.019 197.042 244.46C197.042 244.89 197.138 245.263 197.329 245.576C197.525 245.885 197.791 246.124 198.129 246.296C198.467 246.467 198.854 246.553 199.29 246.553C199.726 246.553 200.113 246.467 200.45 246.296C200.788 246.124 201.055 245.885 201.251 245.576C201.447 245.263 201.545 244.89 201.545 244.46ZM211.211 251.805C211.584 251.805 211.931 251.736 212.254 251.599C212.583 251.457 212.852 251.249 213.062 250.975C213.278 250.696 213.4 250.355 213.43 249.954H214.267C214.243 250.458 214.088 250.909 213.804 251.305C213.525 251.697 213.158 252.006 212.703 252.231C212.252 252.451 211.755 252.561 211.211 252.561C210.658 252.561 210.168 252.461 209.742 252.26C209.321 252.06 208.969 251.78 208.685 251.423C208.401 251.061 208.185 250.639 208.038 250.16C207.896 249.675 207.825 249.153 207.825 248.595V248.286C207.825 247.728 207.896 247.209 208.038 246.729C208.185 246.244 208.401 245.823 208.685 245.466C208.969 245.103 209.321 244.822 209.742 244.621C210.163 244.42 210.651 244.32 211.204 244.32C211.772 244.32 212.281 244.435 212.732 244.665C213.187 244.895 213.55 245.221 213.819 245.642C214.093 246.063 214.243 246.563 214.267 247.141H213.43C213.405 246.715 213.293 246.347 213.092 246.039C212.891 245.73 212.627 245.493 212.299 245.326C211.97 245.16 211.606 245.077 211.204 245.077C210.754 245.077 210.369 245.165 210.051 245.341C209.733 245.512 209.473 245.75 209.272 246.053C209.076 246.352 208.932 246.695 208.839 247.082C208.746 247.464 208.699 247.865 208.699 248.286V248.595C208.699 249.021 208.743 249.427 208.832 249.814C208.925 250.196 209.069 250.537 209.265 250.835C209.466 251.134 209.725 251.372 210.043 251.548C210.367 251.719 210.756 251.805 211.211 251.805ZM215.553 248.566V248.323C215.553 247.745 215.636 247.212 215.802 246.722C215.969 246.232 216.206 245.809 216.515 245.451C216.828 245.094 217.203 244.817 217.639 244.621C218.074 244.42 218.559 244.32 219.093 244.32C219.632 244.32 220.119 244.42 220.555 244.621C220.991 244.817 221.365 245.094 221.679 245.451C221.992 245.809 222.232 246.232 222.398 246.722C222.565 247.212 222.648 247.745 222.648 248.323V248.566C222.648 249.143 222.565 249.677 222.398 250.167C222.232 250.652 221.992 251.073 221.679 251.43C221.37 251.788 220.998 252.067 220.562 252.268C220.126 252.464 219.641 252.561 219.108 252.561C218.569 252.561 218.082 252.464 217.646 252.268C217.21 252.067 216.836 251.788 216.522 251.43C216.209 251.073 215.969 250.652 215.802 250.167C215.636 249.677 215.553 249.143 215.553 248.566ZM216.427 248.323V248.566C216.427 249.001 216.485 249.415 216.603 249.807C216.72 250.194 216.892 250.539 217.117 250.843C217.342 251.141 217.621 251.376 217.954 251.548C218.287 251.719 218.672 251.805 219.108 251.805C219.539 251.805 219.918 251.719 220.246 251.548C220.579 251.376 220.858 251.141 221.084 250.843C221.309 250.539 221.478 250.194 221.59 249.807C221.708 249.415 221.767 249.001 221.767 248.566V248.323C221.767 247.892 221.708 247.483 221.59 247.096C221.478 246.71 221.306 246.364 221.076 246.061C220.851 245.757 220.572 245.517 220.239 245.341C219.906 245.165 219.524 245.077 219.093 245.077C218.662 245.077 218.28 245.165 217.947 245.341C217.619 245.517 217.34 245.757 217.11 246.061C216.884 246.364 216.713 246.71 216.596 247.096C216.483 247.483 216.427 247.892 216.427 248.323ZM225.447 241.132V252.415H224.573V241.132H225.447ZM227.768 251.878C227.768 251.707 227.822 251.562 227.929 251.445C228.042 251.323 228.194 251.261 228.385 251.261C228.581 251.261 228.735 251.32 228.848 251.438C228.96 251.555 229.017 251.702 229.017 251.878C229.017 252.045 228.96 252.187 228.848 252.304C228.735 252.422 228.581 252.481 228.385 252.481C228.194 252.481 228.042 252.422 227.929 252.304C227.822 252.187 227.768 252.045 227.768 251.878Z" fill="#FDFBF9"/>
</svg>
