<svg width="1051" height="591" viewBox="0 0 1051 591" fill="none" xmlns="http://www.w3.org/2000/svg">
<path d="M0.519531 11.4872C0.519531 5.32531 5.51475 0.330078 11.6767 0.330078H1038.81C1044.97 0.330078 1049.96 5.3253 1049.96 11.4872V579.227C1049.96 585.389 1044.97 590.384 1038.81 590.384H11.6767C5.51478 590.384 0.519531 585.389 0.519531 579.227V11.4872Z" fill="#0567FF" fill-opacity="0.25"/>
<path d="M12.6348 10.3594H45.2287V579.499H12.6348V10.3594Z" fill="#FDFBF9" fill-opacity="0.1"/>
<path d="M55.2578 10.3594H87.8517V579.499H55.2578V10.3594Z" fill="#FDFBF9" fill-opacity="0.1"/>
<path d="M100.387 10.3594H132.981V579.499H100.387V10.3594Z" fill="#FDFBF9" fill-opacity="0.1"/>
<path d="M143.01 10.3594H175.604V579.499H143.01V10.3594Z" fill="#FDFBF9" fill-opacity="0.1"/>
<path d="M185.633 10.3594H218.227V579.499H185.633V10.3594Z" fill="#FDFBF9" fill-opacity="0.1"/>
<path d="M228.256 10.3594H260.85V579.499H228.256V10.3594Z" fill="#FDFBF9" fill-opacity="0.1"/>
<path d="M273.385 10.3594H305.979V579.499H273.385V10.3594Z" fill="#FDFBF9" fill-opacity="0.1"/>
<path d="M316.008 10.3594H348.602V579.499H316.008V10.3594Z" fill="#FDFBF9" fill-opacity="0.1"/>
<path d="M358.631 10.3594H391.225V579.499H358.631V10.3594Z" fill="#FDFBF9" fill-opacity="0.1"/>
<path d="M401.254 10.3594H433.848V579.499H401.254V10.3594Z" fill="#FDFBF9" fill-opacity="0.1"/>
<path d="M446.385 10.3594H478.979V579.499H446.385V10.3594Z" fill="#FDFBF9" fill-opacity="0.1"/>
<path d="M489.006 10.3594H521.6V579.499H489.006V10.3594Z" fill="#FDFBF9" fill-opacity="0.1"/>
<path d="M531.629 10.3594H564.223V579.499H531.629V10.3594Z" fill="#FDFBF9" fill-opacity="0.1"/>
<path d="M574.252 10.3594H606.846V579.499H574.252V10.3594Z" fill="#FDFBF9" fill-opacity="0.1"/>
<path d="M619.383 10.3594H651.977V579.499H619.383V10.3594Z" fill="#FDFBF9" fill-opacity="0.1"/>
<path d="M662.006 10.3594H694.6V579.499H662.006V10.3594Z" fill="#FDFBF9" fill-opacity="0.1"/>
<path d="M704.627 10.3594H737.221V579.499H704.627V10.3594Z" fill="#FDFBF9" fill-opacity="0.1"/>
<path d="M747.25 10.3594H779.844V579.499H747.25V10.3594Z" fill="#FDFBF9" fill-opacity="0.1"/>
<path d="M792.381 10.3594H824.975V579.499H792.381V10.3594Z" fill="#FDFBF9" fill-opacity="0.1"/>
<path d="M835.004 10.3594H867.598V579.499H835.004V10.3594Z" fill="#FDFBF9" fill-opacity="0.1"/>
<path d="M877.627 10.3594H910.221V579.499H877.627V10.3594Z" fill="#FDFBF9" fill-opacity="0.1"/>
<path d="M920.248 10.3594H955.349V579.499H920.248V10.3594Z" fill="#FDFBF9" fill-opacity="0.1"/>
<path d="M965.379 10.3594H995.466V579.499H965.379V10.3594Z" fill="#FDFBF9" fill-opacity="0.1"/>
<path d="M1005.49 10.3594H1038.09V579.499H1005.49V10.3594Z" fill="#FDFBF9" fill-opacity="0.1"/>
<path d="M1050.62 25.3203L0.0994873 25.3202L0.0994885 11.4944C0.0994891 5.32791 5.0984 0.32898 11.2649 0.32898L1039.46 0.32907C1045.63 0.329071 1050.63 5.32799 1050.63 11.4945L1050.62 25.3203Z" fill="#0567FF"/>
</svg>
