<svg width="728" height="404" viewBox="0 0 728 404" fill="none" xmlns="http://www.w3.org/2000/svg">
<rect x="0.845703" y="0.330078" width="727.094" height="403.663" rx="11.1571" fill="#0567FF" fill-opacity="0.25"/>
<rect x="6.4375" y="6.23633" width="23.6561" height="391.297" fill="#FDFBF9" fill-opacity="0.1"/>
<rect x="35.9473" y="6.23633" width="23.6561" height="391.297" fill="#FDFBF9" fill-opacity="0.1"/>
<rect x="66.0332" y="6.23633" width="23.6561" height="391.297" fill="#FDFBF9" fill-opacity="0.1"/>
<rect x="96.1191" y="6.23633" width="23.6561" height="391.297" fill="#FDFBF9" fill-opacity="0.1"/>
<rect x="126.207" y="6.23633" width="23.6561" height="391.297" fill="#FDFBF9" fill-opacity="0.1"/>
<rect x="156.293" y="6.23633" width="23.6561" height="391.297" fill="#FDFBF9" fill-opacity="0.1"/>
<rect x="186.379" y="6.23633" width="23.6561" height="391.297" fill="#FDFBF9" fill-opacity="0.1"/>
<rect x="216.467" y="6.23633" width="23.6561" height="391.297" fill="#FDFBF9" fill-opacity="0.1"/>
<rect x="246.553" y="6.23633" width="23.6561" height="391.297" fill="#FDFBF9" fill-opacity="0.1"/>
<rect x="276.641" y="6.23633" width="23.6561" height="391.297" fill="#FDFBF9" fill-opacity="0.1"/>
<rect x="306.727" y="6.23633" width="23.6561" height="391.297" fill="#FDFBF9" fill-opacity="0.1"/>
<rect x="336.812" y="6.23633" width="23.6561" height="391.297" fill="#FDFBF9" fill-opacity="0.1"/>
<rect x="366.9" y="6.23633" width="23.6561" height="391.297" fill="#FDFBF9" fill-opacity="0.1"/>
<rect x="396.986" y="6.23633" width="23.6561" height="391.297" fill="#FDFBF9" fill-opacity="0.1"/>
<rect x="427.072" y="6.23633" width="23.6561" height="391.297" fill="#FDFBF9" fill-opacity="0.1"/>
<rect x="457.16" y="6.23633" width="23.6561" height="391.297" fill="#FDFBF9" fill-opacity="0.1"/>
<rect x="487.246" y="6.23633" width="23.6561" height="391.297" fill="#FDFBF9" fill-opacity="0.1"/>
<rect x="517.332" y="6.23633" width="23.6561" height="391.297" fill="#FDFBF9" fill-opacity="0.1"/>
<rect x="547.42" y="6.23633" width="23.6561" height="391.297" fill="#FDFBF9" fill-opacity="0.1"/>
<rect x="577.506" y="6.23633" width="23.6561" height="391.297" fill="#FDFBF9" fill-opacity="0.1"/>
<rect x="607.594" y="6.23633" width="23.6561" height="391.297" fill="#FDFBF9" fill-opacity="0.1"/>
<rect x="637.68" y="6.23633" width="23.6561" height="391.297" fill="#FDFBF9" fill-opacity="0.1"/>
<rect x="667.766" y="6.23633" width="23.6561" height="391.297" fill="#FDFBF9" fill-opacity="0.1"/>
<rect x="697.854" y="6.23633" width="23.6561" height="391.297" fill="#FDFBF9" fill-opacity="0.1"/>
<path d="M727.939 25.3203L0.84552 25.3202L0.845521 11.4944C0.845522 5.32793 5.84444 0.329008 12.0109 0.329008L716.774 0.32907C722.941 0.329071 727.939 5.32799 727.939 11.4945L727.939 25.3203Z" fill="#0567FF"/>
</svg>
