<svg width="1051" height="591" viewBox="0 0 1051 591" fill="none" xmlns="http://www.w3.org/2000/svg">
<path d="M0.519531 12.0673C0.519531 5.90539 5.51475 0.910156 11.6767 0.910156H1038.81C1044.97 0.910156 1049.96 5.90538 1049.96 12.0673V579.807C1049.96 585.969 1044.97 590.964 1038.81 590.964H11.6767C5.51478 590.964 0.519531 585.969 0.519531 579.807V12.0673Z" fill="#0567FF" fill-opacity="0.25"/>
<path d="M12.6348 10.9395H45.2287V580.079H12.6348V10.9395Z" fill="#FDFBF9" fill-opacity="0.1"/>
<path d="M55.2578 10.9395H87.8517V580.079H55.2578V10.9395Z" fill="#FDFBF9" fill-opacity="0.1"/>
<path d="M100.387 10.9395H132.981V580.079H100.387V10.9395Z" fill="#FDFBF9" fill-opacity="0.1"/>
<path d="M143.01 10.9395H175.604V580.079H143.01V10.9395Z" fill="#FDFBF9" fill-opacity="0.1"/>
<path d="M185.633 10.9395H218.227V580.079H185.633V10.9395Z" fill="#FDFBF9" fill-opacity="0.1"/>
<path d="M228.256 10.9395H260.85V580.079H228.256V10.9395Z" fill="#FDFBF9" fill-opacity="0.1"/>
<path d="M273.385 10.9395H305.979V580.079H273.385V10.9395Z" fill="#FDFBF9" fill-opacity="0.1"/>
<path d="M316.008 10.9395H348.602V580.079H316.008V10.9395Z" fill="#FDFBF9" fill-opacity="0.1"/>
<path d="M358.631 10.9395H391.225V580.079H358.631V10.9395Z" fill="#FDFBF9" fill-opacity="0.1"/>
<path d="M401.254 10.9395H433.848V580.079H401.254V10.9395Z" fill="#FDFBF9" fill-opacity="0.1"/>
<path d="M446.385 10.9395H478.979V580.079H446.385V10.9395Z" fill="#FDFBF9" fill-opacity="0.1"/>
<path d="M489.006 10.9395H521.6V580.079H489.006V10.9395Z" fill="#FDFBF9" fill-opacity="0.1"/>
<path d="M531.629 10.9395H564.223V580.079H531.629V10.9395Z" fill="#FDFBF9" fill-opacity="0.1"/>
<path d="M574.252 10.9395H606.846V580.079H574.252V10.9395Z" fill="#FDFBF9" fill-opacity="0.1"/>
<path d="M619.383 10.9395H651.977V580.079H619.383V10.9395Z" fill="#FDFBF9" fill-opacity="0.1"/>
<path d="M662.006 10.9395H694.6V580.079H662.006V10.9395Z" fill="#FDFBF9" fill-opacity="0.1"/>
<path d="M704.627 10.9395H737.221V580.079H704.627V10.9395Z" fill="#FDFBF9" fill-opacity="0.1"/>
<path d="M747.25 10.9395H779.844V580.079H747.25V10.9395Z" fill="#FDFBF9" fill-opacity="0.1"/>
<path d="M792.381 10.9395H824.975V580.079H792.381V10.9395Z" fill="#FDFBF9" fill-opacity="0.1"/>
<path d="M835.004 10.9395H867.598V580.079H835.004V10.9395Z" fill="#FDFBF9" fill-opacity="0.1"/>
<path d="M877.627 10.9395H910.221V580.079H877.627V10.9395Z" fill="#FDFBF9" fill-opacity="0.1"/>
<path d="M920.248 10.9395H955.349V580.079H920.248V10.9395Z" fill="#FDFBF9" fill-opacity="0.1"/>
<path d="M965.379 10.9395H995.466V580.079H965.379V10.9395Z" fill="#FDFBF9" fill-opacity="0.1"/>
<path d="M1005.49 10.9395H1038.09V580.079H1005.49V10.9395Z" fill="#FDFBF9" fill-opacity="0.1"/>
<rect x="12.6348" y="33.5039" width="248.215" height="546.574" rx="11.1631" fill="#0567FF" fill-opacity="0.5"/>
<rect x="273.387" y="33.5039" width="764.703" height="546.574" rx="11.1631" fill="#0567FF" fill-opacity="0.5"/>
<path d="M1050.62 25.9023L0.0994873 25.9023L0.0994885 12.0764C0.0994891 5.90994 5.0984 0.911011 11.2649 0.911011L1039.46 0.911101C1045.63 0.911102 1050.63 5.91002 1050.63 12.0765L1050.62 25.9023Z" fill="#0567FF"/>
<path d="M103.169 270.778V292.168H100.334V270.778H103.169ZM110.632 279.666V292.168H107.915V276.273H110.485L110.632 279.666ZM109.986 283.618L108.855 283.574C108.865 282.487 109.026 281.483 109.34 280.562C109.653 279.632 110.094 278.824 110.662 278.138C111.23 277.453 111.906 276.924 112.689 276.552C113.482 276.17 114.359 275.979 115.319 275.979C116.102 275.979 116.807 276.086 117.434 276.302C118.061 276.508 118.595 276.841 119.036 277.301C119.486 277.761 119.829 278.359 120.064 279.093C120.299 279.818 120.416 280.704 120.416 281.752V292.168H117.684V281.723C117.684 280.89 117.562 280.224 117.317 279.725C117.072 279.216 116.714 278.848 116.244 278.623C115.774 278.388 115.196 278.271 114.511 278.271C113.835 278.271 113.218 278.413 112.66 278.697C112.111 278.981 111.636 279.372 111.235 279.872C110.843 280.371 110.534 280.944 110.309 281.591C110.094 282.227 109.986 282.903 109.986 283.618ZM127.262 279.328V298.279H124.53V276.273H127.027L127.262 279.328ZM137.972 284.088V284.397C137.972 285.552 137.835 286.625 137.561 287.614C137.286 288.593 136.885 289.445 136.356 290.17C135.837 290.895 135.195 291.458 134.431 291.859C133.667 292.261 132.791 292.462 131.802 292.462C130.793 292.462 129.902 292.295 129.128 291.962C128.354 291.629 127.698 291.145 127.159 290.508C126.621 289.871 126.19 289.107 125.867 288.216C125.553 287.325 125.338 286.321 125.22 285.205V283.559C125.338 282.384 125.558 281.331 125.881 280.401C126.205 279.47 126.631 278.677 127.159 278.021C127.698 277.355 128.349 276.85 129.113 276.508C129.877 276.155 130.759 275.979 131.758 275.979C132.757 275.979 133.643 276.175 134.417 276.566C135.19 276.948 135.842 277.497 136.371 278.212C136.899 278.927 137.296 279.784 137.561 280.783C137.835 281.772 137.972 282.874 137.972 284.088ZM135.239 284.397V284.088C135.239 283.295 135.156 282.55 134.99 281.855C134.823 281.15 134.564 280.533 134.211 280.004C133.868 279.465 133.428 279.044 132.889 278.741C132.35 278.427 131.709 278.271 130.964 278.271C130.279 278.271 129.681 278.388 129.172 278.623C128.673 278.858 128.247 279.176 127.894 279.578C127.541 279.97 127.253 280.42 127.027 280.93C126.812 281.429 126.65 281.948 126.542 282.487V286.292C126.738 286.977 127.013 287.624 127.365 288.231C127.718 288.828 128.188 289.313 128.775 289.685C129.363 290.048 130.103 290.229 130.994 290.229C131.728 290.229 132.36 290.077 132.889 289.773C133.428 289.46 133.868 289.034 134.211 288.495C134.564 287.957 134.823 287.34 134.99 286.644C135.156 285.939 135.239 285.19 135.239 284.397ZM151.164 288.495V276.273H153.897V292.168H151.296L151.164 288.495ZM151.678 285.146L152.81 285.116C152.81 286.174 152.697 287.154 152.472 288.055C152.256 288.946 151.904 289.72 151.414 290.376C150.924 291.032 150.283 291.546 149.489 291.918C148.696 292.281 147.731 292.462 146.595 292.462C145.822 292.462 145.112 292.349 144.465 292.124C143.829 291.899 143.28 291.551 142.82 291.081C142.36 290.611 142.002 289.999 141.747 289.245C141.503 288.49 141.38 287.584 141.38 286.527V276.273H144.098V286.556C144.098 287.271 144.176 287.864 144.333 288.334C144.499 288.794 144.72 289.161 144.994 289.435C145.278 289.7 145.591 289.886 145.934 289.994C146.287 290.101 146.649 290.155 147.021 290.155C148.177 290.155 149.093 289.935 149.769 289.494C150.444 289.044 150.929 288.441 151.223 287.687C151.527 286.923 151.678 286.076 151.678 285.146ZM164.694 276.273V278.359H156.1V276.273H164.694ZM159.009 272.409H161.727V288.231C161.727 288.77 161.81 289.176 161.977 289.45C162.143 289.724 162.359 289.906 162.623 289.994C162.887 290.082 163.171 290.126 163.475 290.126C163.7 290.126 163.935 290.106 164.18 290.067C164.435 290.018 164.626 289.979 164.753 289.95L164.768 292.168C164.552 292.237 164.268 292.3 163.916 292.359C163.573 292.428 163.157 292.462 162.667 292.462C162.001 292.462 161.389 292.33 160.831 292.065C160.272 291.801 159.827 291.36 159.494 290.743C159.171 290.116 159.009 289.274 159.009 288.216V272.409ZM112.52 303.209H112.728V304.494H112.52C111.394 304.494 110.39 304.678 109.509 305.045C108.635 305.412 107.897 305.943 107.293 306.636C106.697 307.322 106.244 308.154 105.934 309.134C105.624 310.113 105.469 311.211 105.469 312.427V314.888C105.469 315.712 105.579 316.451 105.799 317.104C106.019 317.748 106.326 318.299 106.717 318.756C107.109 319.213 107.566 319.56 108.088 319.797C108.611 320.034 109.174 320.152 109.778 320.152C110.374 320.152 110.908 320.029 111.382 319.785C111.855 319.54 112.255 319.197 112.581 318.756C112.916 318.316 113.169 317.809 113.34 317.238C113.52 316.659 113.61 316.038 113.61 315.377C113.61 314.749 113.528 314.157 113.365 313.602C113.21 313.039 112.969 312.541 112.643 312.109C112.316 311.676 111.908 311.337 111.418 311.093C110.929 310.848 110.353 310.725 109.692 310.725C108.941 310.725 108.239 310.897 107.587 311.239C106.934 311.582 106.399 312.039 105.983 312.611C105.575 313.182 105.358 313.806 105.334 314.484L104.489 314.471C104.546 313.704 104.722 313.015 105.016 312.402C105.309 311.782 105.697 311.256 106.179 310.823C106.668 310.383 107.227 310.048 107.856 309.819C108.492 309.583 109.178 309.464 109.913 309.464C110.77 309.464 111.516 309.619 112.153 309.93C112.798 310.24 113.332 310.668 113.757 311.215C114.189 311.754 114.512 312.378 114.724 313.088C114.944 313.79 115.054 314.533 115.054 315.316C115.054 316.173 114.932 316.973 114.687 317.716C114.45 318.45 114.099 319.095 113.634 319.65C113.177 320.205 112.622 320.637 111.969 320.948C111.324 321.258 110.594 321.413 109.778 321.413C108.88 321.413 108.076 321.241 107.366 320.899C106.656 320.556 106.048 320.082 105.542 319.479C105.044 318.875 104.661 318.181 104.391 317.397C104.13 316.606 104 315.761 104 314.863V313.296C104 311.778 104.175 310.403 104.526 309.171C104.877 307.93 105.403 306.865 106.105 305.975C106.815 305.086 107.701 304.404 108.762 303.931C109.831 303.449 111.084 303.209 112.52 303.209ZM129.243 320.152C129.863 320.152 130.443 320.038 130.982 319.809C131.528 319.572 131.977 319.226 132.328 318.768C132.687 318.303 132.891 317.736 132.94 317.067H134.336C134.295 317.907 134.038 318.658 133.565 319.319C133.099 319.972 132.487 320.486 131.728 320.862C130.977 321.229 130.149 321.413 129.243 321.413C128.321 321.413 127.505 321.246 126.795 320.911C126.093 320.576 125.505 320.111 125.032 319.515C124.558 318.911 124.199 318.209 123.954 317.41C123.718 316.602 123.599 315.732 123.599 314.802V314.288C123.599 313.357 123.718 312.492 123.954 311.692C124.199 310.884 124.558 310.183 125.032 309.587C125.505 308.983 126.093 308.514 126.795 308.179C127.497 307.844 128.309 307.677 129.231 307.677C130.178 307.677 131.026 307.869 131.777 308.252C132.536 308.636 133.14 309.179 133.589 309.881C134.046 310.582 134.295 311.415 134.336 312.378H132.94C132.899 311.668 132.712 311.056 132.377 310.542C132.043 310.027 131.602 309.632 131.055 309.354C130.508 309.077 129.9 308.938 129.231 308.938C128.48 308.938 127.839 309.085 127.309 309.379C126.778 309.664 126.346 310.06 126.011 310.566C125.685 311.064 125.444 311.635 125.289 312.28C125.134 312.917 125.056 313.586 125.056 314.288V314.802C125.056 315.512 125.13 316.189 125.277 316.834C125.432 317.471 125.672 318.038 125.999 318.536C126.334 319.034 126.766 319.43 127.297 319.723C127.835 320.009 128.484 320.152 129.243 320.152ZM136.478 314.753V314.349C136.478 313.386 136.617 312.496 136.895 311.68C137.172 310.864 137.568 310.158 138.082 309.562C138.604 308.966 139.229 308.505 139.955 308.179C140.682 307.844 141.49 307.677 142.379 307.677C143.277 307.677 144.089 307.844 144.815 308.179C145.542 308.505 146.166 308.966 146.688 309.562C147.211 310.158 147.611 310.864 147.888 311.68C148.166 312.496 148.304 313.386 148.304 314.349V314.753C148.304 315.716 148.166 316.606 147.888 317.422C147.611 318.23 147.211 318.932 146.688 319.528C146.174 320.123 145.554 320.589 144.828 320.923C144.101 321.25 143.293 321.413 142.404 321.413C141.506 321.413 140.694 321.25 139.967 320.923C139.241 320.589 138.617 320.123 138.094 319.528C137.572 318.932 137.172 318.23 136.895 317.422C136.617 316.606 136.478 315.716 136.478 314.753ZM137.935 314.349V314.753C137.935 315.479 138.033 316.169 138.229 316.822C138.425 317.467 138.711 318.042 139.086 318.548C139.461 319.046 139.927 319.438 140.482 319.723C141.037 320.009 141.677 320.152 142.404 320.152C143.122 320.152 143.754 320.009 144.301 319.723C144.856 319.438 145.321 319.046 145.697 318.548C146.072 318.042 146.354 317.467 146.541 316.822C146.737 316.169 146.835 315.479 146.835 314.753V314.349C146.835 313.631 146.737 312.949 146.541 312.305C146.354 311.66 146.068 311.084 145.685 310.578C145.309 310.072 144.844 309.672 144.289 309.379C143.734 309.085 143.097 308.938 142.379 308.938C141.661 308.938 141.024 309.085 140.469 309.379C139.922 309.672 139.457 310.072 139.074 310.578C138.698 311.084 138.413 311.66 138.217 312.305C138.029 312.949 137.935 313.631 137.935 314.349ZM152.969 302.364V321.168H151.512V302.364H152.969ZM156.837 320.274C156.837 319.989 156.927 319.748 157.107 319.552C157.294 319.348 157.547 319.246 157.866 319.246C158.192 319.246 158.449 319.344 158.637 319.54C158.825 319.736 158.918 319.98 158.918 320.274C158.918 320.552 158.825 320.788 158.637 320.984C158.449 321.18 158.192 321.278 157.866 321.278C157.547 321.278 157.294 321.18 157.107 320.984C156.927 320.788 156.837 320.552 156.837 320.274Z" fill="#FDFBF9"/>
<path d="M627.693 257.63L620.612 277.125H617.718L625.871 255.735H627.737L627.693 257.63ZM633.628 277.125L626.532 257.63L626.488 255.735H628.354L636.537 277.125H633.628ZM633.261 269.207V271.528H621.244V269.207H633.261ZM625.666 254.31L628.516 249.991H631.792L627.855 254.31H625.666ZM641.708 263.727V277.125H638.99V261.23H641.635L641.708 263.727ZM646.673 261.141L646.659 263.668C646.433 263.619 646.218 263.59 646.012 263.58C645.816 263.561 645.591 263.551 645.337 263.551C644.71 263.551 644.156 263.649 643.677 263.845C643.197 264.04 642.79 264.315 642.457 264.667C642.124 265.02 641.86 265.441 641.664 265.931C641.478 266.411 641.355 266.939 641.297 267.517L640.533 267.958C640.533 266.998 640.626 266.097 640.812 265.255C641.008 264.413 641.306 263.668 641.708 263.022C642.11 262.366 642.619 261.856 643.236 261.494C643.863 261.122 644.607 260.936 645.469 260.936C645.665 260.936 645.89 260.96 646.145 261.009C646.399 261.048 646.575 261.092 646.673 261.141ZM655.488 277.419C654.381 277.419 653.377 277.233 652.476 276.861C651.585 276.479 650.816 275.945 650.17 275.259C649.533 274.574 649.044 273.761 648.701 272.821C648.358 271.88 648.187 270.852 648.187 269.736V269.119C648.187 267.826 648.378 266.675 648.76 265.666C649.141 264.648 649.661 263.786 650.317 263.081C650.973 262.375 651.717 261.842 652.55 261.479C653.382 261.117 654.244 260.936 655.135 260.936C656.271 260.936 657.251 261.132 658.073 261.523C658.906 261.915 659.587 262.464 660.115 263.169C660.644 263.864 661.036 264.687 661.291 265.637C661.545 266.577 661.673 267.605 661.673 268.722V269.941H649.803V267.723H658.955V267.517C658.916 266.812 658.769 266.127 658.514 265.461C658.269 264.795 657.878 264.246 657.339 263.815C656.8 263.384 656.066 263.169 655.135 263.169C654.518 263.169 653.95 263.301 653.431 263.565C652.912 263.82 652.466 264.202 652.094 264.711C651.722 265.221 651.433 265.843 651.228 266.577C651.022 267.312 650.919 268.159 650.919 269.119V269.736C650.919 270.49 651.022 271.2 651.228 271.866C651.443 272.522 651.752 273.1 652.153 273.599C652.564 274.099 653.059 274.49 653.637 274.774C654.224 275.059 654.89 275.201 655.635 275.201C656.595 275.201 657.407 275.005 658.073 274.613C658.739 274.221 659.322 273.697 659.822 273.041L661.467 274.348C661.124 274.868 660.688 275.362 660.16 275.832C659.631 276.302 658.979 276.684 658.206 276.978C657.442 277.272 656.536 277.419 655.488 277.419ZM674.219 274.407V266.224C674.219 265.598 674.091 265.054 673.837 264.594C673.592 264.124 673.22 263.761 672.72 263.507C672.221 263.252 671.604 263.125 670.869 263.125C670.184 263.125 669.581 263.242 669.062 263.477C668.553 263.712 668.151 264.021 667.857 264.403C667.573 264.785 667.431 265.196 667.431 265.637H664.714C664.714 265.069 664.861 264.506 665.154 263.947C665.448 263.389 665.869 262.885 666.418 262.434C666.976 261.974 667.642 261.612 668.416 261.347C669.199 261.073 670.071 260.936 671.031 260.936C672.186 260.936 673.205 261.132 674.086 261.523C674.978 261.915 675.673 262.508 676.172 263.301C676.682 264.085 676.936 265.069 676.936 266.254V273.658C676.936 274.187 676.98 274.75 677.069 275.347C677.167 275.945 677.309 276.459 677.495 276.89V277.125H674.659C674.522 276.812 674.414 276.395 674.336 275.876C674.258 275.347 674.219 274.858 674.219 274.407ZM674.689 267.488L674.718 269.398H671.971C671.197 269.398 670.507 269.461 669.9 269.589C669.292 269.706 668.783 269.887 668.372 270.132C667.96 270.377 667.647 270.686 667.431 271.058C667.216 271.42 667.108 271.846 667.108 272.336C667.108 272.835 667.221 273.291 667.446 273.702C667.671 274.113 668.009 274.441 668.46 274.686C668.92 274.921 669.483 275.039 670.149 275.039C670.982 275.039 671.716 274.863 672.353 274.51C672.989 274.157 673.494 273.727 673.866 273.217C674.248 272.708 674.454 272.213 674.483 271.733L675.644 273.041C675.575 273.452 675.389 273.908 675.085 274.407C674.782 274.907 674.375 275.387 673.866 275.847C673.367 276.297 672.769 276.674 672.074 276.978C671.388 277.272 670.614 277.419 669.753 277.419C668.675 277.419 667.73 277.208 666.917 276.787C666.114 276.366 665.487 275.803 665.037 275.098C664.596 274.383 664.376 273.585 664.376 272.703C664.376 271.851 664.542 271.102 664.875 270.455C665.208 269.799 665.688 269.256 666.315 268.825C666.942 268.384 667.696 268.051 668.577 267.826C669.459 267.6 670.443 267.488 671.53 267.488H674.689ZM595.667 299.285V318.236H592.935V296.23H595.432L595.667 299.285ZM606.377 304.045V304.354C606.377 305.509 606.24 306.582 605.965 307.571C605.691 308.55 605.29 309.402 604.761 310.127C604.242 310.852 603.6 311.415 602.836 311.816C602.072 312.218 601.196 312.419 600.207 312.419C599.198 312.419 598.307 312.252 597.533 311.919C596.759 311.586 596.103 311.102 595.564 310.465C595.026 309.828 594.595 309.064 594.272 308.173C593.958 307.282 593.743 306.278 593.625 305.162V303.516C593.743 302.341 593.963 301.288 594.286 300.358C594.609 299.427 595.035 298.634 595.564 297.978C596.103 297.312 596.754 296.807 597.518 296.465C598.282 296.112 599.164 295.936 600.163 295.936C601.161 295.936 602.048 296.132 602.822 296.523C603.595 296.905 604.247 297.454 604.775 298.169C605.304 298.884 605.701 299.741 605.965 300.74C606.24 301.729 606.377 302.831 606.377 304.045ZM603.644 304.354V304.045C603.644 303.252 603.561 302.507 603.394 301.812C603.228 301.107 602.968 300.49 602.616 299.961C602.273 299.422 601.832 299.001 601.294 298.698C600.755 298.384 600.114 298.228 599.369 298.228C598.684 298.228 598.086 298.345 597.577 298.58C597.077 298.815 596.651 299.133 596.299 299.535C595.946 299.927 595.657 300.377 595.432 300.887C595.217 301.386 595.055 301.905 594.947 302.444V306.249C595.143 306.934 595.417 307.581 595.77 308.188C596.123 308.785 596.593 309.27 597.18 309.642C597.768 310.005 598.507 310.186 599.399 310.186C600.133 310.186 600.765 310.034 601.294 309.73C601.832 309.417 602.273 308.991 602.616 308.452C602.968 307.914 603.228 307.297 603.394 306.601C603.561 305.896 603.644 305.147 603.644 304.354ZM612.562 298.727V312.125H609.844V296.23H612.488L612.562 298.727ZM617.527 296.141L617.512 298.668C617.287 298.619 617.072 298.59 616.866 298.58C616.67 298.561 616.445 298.551 616.19 298.551C615.563 298.551 615.01 298.649 614.53 298.845C614.05 299.04 613.644 299.315 613.311 299.667C612.978 300.02 612.713 300.441 612.517 300.931C612.331 301.411 612.209 301.939 612.15 302.517L611.386 302.958C611.386 301.998 611.479 301.097 611.665 300.255C611.861 299.413 612.16 298.668 612.562 298.022C612.963 297.366 613.472 296.856 614.089 296.494C614.716 296.122 615.46 295.936 616.322 295.936C616.518 295.936 616.743 295.96 616.998 296.009C617.253 296.048 617.429 296.092 617.527 296.141ZM622.992 296.23V312.125H620.259V296.23H622.992ZM620.054 292.013C620.054 291.573 620.186 291.2 620.45 290.897C620.725 290.593 621.126 290.441 621.655 290.441C622.174 290.441 622.571 290.593 622.845 290.897C623.129 291.2 623.271 291.573 623.271 292.013C623.271 292.434 623.129 292.797 622.845 293.1C622.571 293.394 622.174 293.541 621.655 293.541C621.126 293.541 620.725 293.394 620.45 293.1C620.186 292.797 620.054 292.434 620.054 292.013ZM630.073 299.623V312.125H627.355V296.23H629.926L630.073 299.623ZM629.426 303.575L628.295 303.531C628.305 302.444 628.467 301.44 628.78 300.519C629.093 299.589 629.534 298.781 630.102 298.095C630.67 297.41 631.346 296.881 632.13 296.509C632.923 296.127 633.799 295.936 634.759 295.936C635.543 295.936 636.248 296.044 636.875 296.259C637.502 296.465 638.035 296.798 638.476 297.258C638.927 297.718 639.269 298.316 639.504 299.05C639.739 299.775 639.857 300.661 639.857 301.709V312.125H637.124V301.68C637.124 300.847 637.002 300.181 636.757 299.682C636.512 299.173 636.155 298.805 635.685 298.58C635.215 298.345 634.637 298.228 633.951 298.228C633.275 298.228 632.658 298.37 632.1 298.654C631.552 298.938 631.077 299.329 630.675 299.829C630.283 300.328 629.975 300.901 629.75 301.548C629.534 302.184 629.426 302.86 629.426 303.575ZM650.346 310.186C650.993 310.186 651.59 310.054 652.138 309.789C652.687 309.525 653.137 309.162 653.49 308.702C653.843 308.232 654.043 307.698 654.092 307.101H656.678C656.629 308.041 656.311 308.918 655.723 309.73C655.145 310.534 654.386 311.185 653.446 311.684C652.506 312.174 651.472 312.419 650.346 312.419C649.151 312.419 648.108 312.208 647.217 311.787C646.336 311.366 645.601 310.788 645.013 310.054C644.436 309.319 644 308.477 643.706 307.527C643.422 306.567 643.28 305.553 643.28 304.486V303.869C643.28 302.801 643.422 301.793 643.706 300.843C644 299.883 644.436 299.036 645.013 298.301C645.601 297.566 646.336 296.989 647.217 296.567C648.108 296.146 649.151 295.936 650.346 295.936C651.59 295.936 652.677 296.19 653.607 296.7C654.538 297.199 655.268 297.885 655.796 298.756C656.335 299.618 656.629 300.598 656.678 301.695H654.092C654.043 301.038 653.857 300.446 653.534 299.917C653.221 299.388 652.79 298.967 652.241 298.654C651.703 298.33 651.071 298.169 650.346 298.169C649.514 298.169 648.813 298.335 648.245 298.668C647.687 298.991 647.241 299.432 646.908 299.99C646.585 300.539 646.35 301.151 646.203 301.827C646.066 302.493 645.998 303.173 645.998 303.869V304.486C645.998 305.181 646.066 305.867 646.203 306.543C646.34 307.218 646.571 307.83 646.894 308.379C647.227 308.927 647.672 309.368 648.231 309.701C648.799 310.024 649.504 310.186 650.346 310.186ZM662.686 296.23V312.125H659.954V296.23H662.686ZM659.748 292.013C659.748 291.573 659.88 291.2 660.145 290.897C660.419 290.593 660.821 290.441 661.349 290.441C661.869 290.441 662.265 290.593 662.539 290.897C662.823 291.2 662.965 291.573 662.965 292.013C662.965 292.434 662.823 292.797 662.539 293.1C662.265 293.394 661.869 293.541 661.349 293.541C660.821 293.541 660.419 293.394 660.145 293.1C659.88 292.797 659.748 292.434 659.748 292.013ZM669.767 299.285V318.236H667.035V296.23H669.532L669.767 299.285ZM680.477 304.045V304.354C680.477 305.509 680.34 306.582 680.066 307.571C679.791 308.55 679.39 309.402 678.861 310.127C678.342 310.852 677.7 311.415 676.936 311.816C676.172 312.218 675.296 312.419 674.307 312.419C673.298 312.419 672.407 312.252 671.633 311.919C670.859 311.586 670.203 311.102 669.664 310.465C669.126 309.828 668.695 309.064 668.372 308.173C668.058 307.282 667.843 306.278 667.725 305.162V303.516C667.843 302.341 668.063 301.288 668.386 300.358C668.71 299.427 669.136 298.634 669.664 297.978C670.203 297.312 670.854 296.807 671.618 296.465C672.382 296.112 673.264 295.936 674.263 295.936C675.262 295.936 676.148 296.132 676.922 296.523C677.695 296.905 678.347 297.454 678.876 298.169C679.404 298.884 679.801 299.741 680.066 300.74C680.34 301.729 680.477 302.831 680.477 304.045ZM677.744 304.354V304.045C677.744 303.252 677.661 302.507 677.495 301.812C677.328 301.107 677.069 300.49 676.716 299.961C676.373 299.422 675.933 299.001 675.394 298.698C674.855 298.384 674.214 298.228 673.469 298.228C672.784 298.228 672.186 298.345 671.677 298.58C671.178 298.815 670.752 299.133 670.399 299.535C670.046 299.927 669.757 300.377 669.532 300.887C669.317 301.386 669.155 301.905 669.047 302.444V306.249C669.243 306.934 669.518 307.581 669.87 308.188C670.223 308.785 670.693 309.27 671.28 309.642C671.868 310.005 672.608 310.186 673.499 310.186C674.233 310.186 674.865 310.034 675.394 309.73C675.933 309.417 676.373 308.991 676.716 308.452C677.069 307.914 677.328 307.297 677.495 306.601C677.661 305.896 677.744 305.147 677.744 304.354ZM693.317 309.407V301.224C693.317 300.598 693.189 300.054 692.935 299.594C692.69 299.124 692.318 298.761 691.818 298.507C691.319 298.252 690.702 298.125 689.967 298.125C689.282 298.125 688.679 298.242 688.16 298.477C687.651 298.712 687.249 299.021 686.955 299.403C686.671 299.785 686.529 300.196 686.529 300.637H683.812C683.812 300.069 683.959 299.506 684.252 298.947C684.546 298.389 684.967 297.885 685.516 297.434C686.074 296.974 686.74 296.612 687.514 296.347C688.297 296.073 689.169 295.936 690.129 295.936C691.284 295.936 692.303 296.132 693.184 296.523C694.076 296.915 694.771 297.508 695.27 298.301C695.78 299.085 696.034 300.069 696.034 301.254V308.658C696.034 309.187 696.078 309.75 696.167 310.347C696.265 310.945 696.407 311.459 696.593 311.89V312.125H693.757C693.62 311.812 693.512 311.395 693.434 310.876C693.356 310.347 693.317 309.858 693.317 309.407ZM693.787 302.488L693.816 304.398H691.069C690.295 304.398 689.605 304.461 688.997 304.589C688.39 304.706 687.881 304.887 687.47 305.132C687.058 305.377 686.745 305.686 686.529 306.058C686.314 306.42 686.206 306.846 686.206 307.336C686.206 307.835 686.319 308.291 686.544 308.702C686.769 309.113 687.107 309.441 687.558 309.686C688.018 309.921 688.581 310.039 689.247 310.039C690.08 310.039 690.814 309.863 691.451 309.51C692.087 309.157 692.592 308.727 692.964 308.217C693.346 307.708 693.552 307.213 693.581 306.733L694.742 308.041C694.673 308.452 694.487 308.908 694.183 309.407C693.88 309.907 693.473 310.387 692.964 310.847C692.465 311.297 691.867 311.674 691.172 311.978C690.486 312.272 689.712 312.419 688.851 312.419C687.773 312.419 686.828 312.208 686.015 311.787C685.212 311.366 684.585 310.803 684.135 310.098C683.694 309.383 683.474 308.585 683.474 307.703C683.474 306.851 683.64 306.102 683.973 305.455C684.306 304.799 684.786 304.256 685.413 303.825C686.04 303.384 686.794 303.051 687.675 302.826C688.557 302.6 689.541 302.488 690.628 302.488H693.787ZM703.262 289.56V312.125H700.53V289.56H703.262ZM620.438 323.227V341.125H618.981V325.075L614.133 326.875V325.492L620.193 323.227H620.438ZM638.496 336.399C638.496 337.477 638.243 338.387 637.737 339.13C637.239 339.872 636.561 340.431 635.704 340.807C634.847 341.182 633.888 341.37 632.827 341.37C631.758 341.37 630.795 341.182 629.938 340.807C629.081 340.431 628.4 339.872 627.894 339.13C627.396 338.387 627.147 337.477 627.147 336.399C627.147 335.689 627.286 335.045 627.563 334.465C627.849 333.878 628.245 333.372 628.751 332.947C629.265 332.515 629.865 332.18 630.55 331.943C631.236 331.707 631.987 331.588 632.803 331.588C633.88 331.588 634.847 331.796 635.704 332.213C636.561 332.621 637.239 333.184 637.737 333.902C638.243 334.62 638.496 335.453 638.496 336.399ZM637.027 336.399C637.027 335.64 636.843 334.975 636.476 334.404C636.108 333.833 635.606 333.392 634.97 333.082C634.333 332.764 633.611 332.604 632.803 332.604C631.987 332.604 631.264 332.764 630.636 333.082C630.008 333.392 629.514 333.833 629.155 334.404C628.796 334.975 628.616 335.64 628.616 336.399C628.616 337.191 628.792 337.864 629.142 338.419C629.502 338.974 629.999 339.395 630.636 339.68C631.273 339.966 632.003 340.109 632.827 340.109C633.652 340.109 634.378 339.966 635.007 339.68C635.635 339.395 636.129 338.974 636.488 338.419C636.847 337.864 637.027 337.191 637.027 336.399ZM638.03 327.879C638.03 328.752 637.798 329.532 637.333 330.217C636.876 330.895 636.255 331.429 635.472 331.821C634.688 332.204 633.803 332.396 632.815 332.396C631.819 332.396 630.926 332.204 630.134 331.821C629.351 331.429 628.73 330.895 628.273 330.217C627.824 329.532 627.6 328.752 627.6 327.879C627.6 326.842 627.824 325.969 628.273 325.259C628.73 324.541 629.351 323.994 630.134 323.619C630.918 323.243 631.807 323.055 632.803 323.055C633.79 323.055 634.676 323.243 635.459 323.619C636.251 323.994 636.876 324.541 637.333 325.259C637.798 325.969 638.03 326.842 638.03 327.879ZM636.574 327.867C636.574 327.173 636.406 326.561 636.072 326.03C635.745 325.5 635.296 325.084 634.725 324.782C634.162 324.471 633.521 324.316 632.803 324.316C632.077 324.316 631.432 324.459 630.869 324.745C630.314 325.03 629.873 325.439 629.546 325.969C629.228 326.5 629.069 327.132 629.069 327.867C629.069 328.585 629.228 329.205 629.546 329.727C629.873 330.242 630.318 330.642 630.881 330.927C631.444 331.213 632.089 331.356 632.815 331.356C633.542 331.356 634.186 331.213 634.749 330.927C635.313 330.642 635.757 330.242 636.084 329.727C636.41 329.205 636.574 328.585 636.574 327.867ZM652.684 340.109C653.305 340.109 653.884 339.995 654.423 339.766C654.97 339.529 655.419 339.183 655.769 338.726C656.129 338.26 656.333 337.693 656.382 337.024H657.777C657.736 337.864 657.479 338.615 657.006 339.276C656.541 339.929 655.929 340.444 655.17 340.819C654.419 341.186 653.59 341.37 652.684 341.37C651.762 341.37 650.946 341.203 650.236 340.868C649.534 340.533 648.946 340.068 648.473 339.472C648 338.868 647.641 338.166 647.396 337.367C647.159 336.559 647.041 335.689 647.041 334.759V334.245C647.041 333.314 647.159 332.449 647.396 331.649C647.641 330.841 648 330.14 648.473 329.544C648.946 328.94 649.534 328.471 650.236 328.136C650.938 327.801 651.75 327.634 652.672 327.634C653.619 327.634 654.468 327.826 655.219 328.209C655.978 328.593 656.582 329.136 657.03 329.838C657.487 330.539 657.736 331.372 657.777 332.335H656.382C656.341 331.625 656.153 331.013 655.818 330.499C655.484 329.985 655.043 329.589 654.496 329.311C653.949 329.034 653.341 328.895 652.672 328.895C651.921 328.895 651.281 329.042 650.75 329.336C650.22 329.621 649.787 330.017 649.452 330.523C649.126 331.021 648.885 331.592 648.73 332.237C648.575 332.874 648.498 333.543 648.498 334.245V334.759C648.498 335.469 648.571 336.146 648.718 336.791C648.873 337.428 649.114 337.995 649.44 338.493C649.775 338.991 650.207 339.387 650.738 339.68C651.277 339.966 651.925 340.109 652.684 340.109ZM659.92 334.71V334.306C659.92 333.343 660.058 332.453 660.336 331.637C660.613 330.821 661.009 330.115 661.523 329.519C662.046 328.924 662.67 328.462 663.396 328.136C664.123 327.801 664.931 327.634 665.82 327.634C666.718 327.634 667.53 327.801 668.257 328.136C668.983 328.462 669.607 328.924 670.13 329.519C670.652 330.115 671.052 330.821 671.329 331.637C671.607 332.453 671.746 333.343 671.746 334.306V334.71C671.746 335.673 671.607 336.563 671.329 337.379C671.052 338.187 670.652 338.889 670.13 339.485C669.615 340.08 668.995 340.546 668.269 340.88C667.542 341.207 666.734 341.37 665.845 341.37C664.947 341.37 664.135 341.207 663.409 340.88C662.682 340.546 662.058 340.08 661.536 339.485C661.013 338.889 660.613 338.187 660.336 337.379C660.058 336.563 659.92 335.673 659.92 334.71ZM661.376 334.306V334.71C661.376 335.436 661.474 336.126 661.67 336.779C661.866 337.424 662.152 337.999 662.527 338.505C662.903 339.003 663.368 339.395 663.923 339.68C664.478 339.966 665.118 340.109 665.845 340.109C666.563 340.109 667.196 339.966 667.742 339.68C668.297 339.395 668.763 339.003 669.138 338.505C669.513 337.999 669.795 337.424 669.983 336.779C670.179 336.126 670.277 335.436 670.277 334.71V334.306C670.277 333.588 670.179 332.906 669.983 332.262C669.795 331.617 669.509 331.041 669.126 330.535C668.75 330.029 668.285 329.629 667.73 329.336C667.175 329.042 666.539 328.895 665.82 328.895C665.102 328.895 664.466 329.042 663.911 329.336C663.364 329.629 662.899 330.029 662.515 330.535C662.14 331.041 661.854 331.617 661.658 332.262C661.47 332.906 661.376 333.588 661.376 334.306ZM676.41 322.321V341.125H674.953V322.321H676.41ZM680.279 340.231C680.279 339.946 680.368 339.705 680.548 339.509C680.736 339.305 680.989 339.203 681.307 339.203C681.633 339.203 681.89 339.301 682.078 339.497C682.266 339.693 682.36 339.937 682.36 340.231C682.36 340.509 682.266 340.745 682.078 340.941C681.89 341.137 681.633 341.235 681.307 341.235C680.989 341.235 680.736 341.137 680.548 340.941C680.368 340.745 680.279 340.509 680.279 340.231Z" fill="#FDFBF9"/>
</svg>
