<svg width="728" height="405" viewBox="0 0 728 405" fill="none" xmlns="http://www.w3.org/2000/svg">
<rect x="0.845703" y="0.910156" width="727.094" height="403.663" rx="11.1571" fill="#0567FF" fill-opacity="0.25"/>
<rect x="6.4375" y="6.81445" width="23.6561" height="391.297" fill="#FDFBF9" fill-opacity="0.1"/>
<rect x="35.9473" y="6.81445" width="23.6561" height="391.297" fill="#FDFBF9" fill-opacity="0.1"/>
<rect x="66.0332" y="6.81445" width="23.6561" height="391.297" fill="#FDFBF9" fill-opacity="0.1"/>
<rect x="96.1191" y="6.81445" width="23.6561" height="391.297" fill="#FDFBF9" fill-opacity="0.1"/>
<rect x="126.207" y="6.81445" width="23.6561" height="391.297" fill="#FDFBF9" fill-opacity="0.1"/>
<rect x="156.293" y="6.81445" width="23.6561" height="391.297" fill="#FDFBF9" fill-opacity="0.1"/>
<rect x="186.379" y="6.81445" width="23.6561" height="391.297" fill="#FDFBF9" fill-opacity="0.1"/>
<rect x="216.467" y="6.81445" width="23.6561" height="391.297" fill="#FDFBF9" fill-opacity="0.1"/>
<rect x="246.553" y="6.81445" width="23.6561" height="391.297" fill="#FDFBF9" fill-opacity="0.1"/>
<rect x="276.641" y="6.81445" width="23.6561" height="391.297" fill="#FDFBF9" fill-opacity="0.1"/>
<rect x="306.727" y="6.81445" width="23.6561" height="391.297" fill="#FDFBF9" fill-opacity="0.1"/>
<rect x="336.812" y="6.81445" width="23.6561" height="391.297" fill="#FDFBF9" fill-opacity="0.1"/>
<rect x="366.9" y="6.81445" width="23.6561" height="391.297" fill="#FDFBF9" fill-opacity="0.1"/>
<rect x="396.986" y="6.81445" width="23.6561" height="391.297" fill="#FDFBF9" fill-opacity="0.1"/>
<rect x="427.072" y="6.81445" width="23.6561" height="391.297" fill="#FDFBF9" fill-opacity="0.1"/>
<rect x="457.16" y="6.81445" width="23.6561" height="391.297" fill="#FDFBF9" fill-opacity="0.1"/>
<rect x="487.246" y="6.81445" width="23.6561" height="391.297" fill="#FDFBF9" fill-opacity="0.1"/>
<rect x="517.332" y="6.81445" width="23.6561" height="391.297" fill="#FDFBF9" fill-opacity="0.1"/>
<rect x="547.42" y="6.81445" width="23.6561" height="391.297" fill="#FDFBF9" fill-opacity="0.1"/>
<rect x="577.506" y="6.81445" width="23.6561" height="391.297" fill="#FDFBF9" fill-opacity="0.1"/>
<rect x="607.594" y="6.81445" width="23.6561" height="391.297" fill="#FDFBF9" fill-opacity="0.1"/>
<rect x="637.68" y="6.81445" width="23.6561" height="391.297" fill="#FDFBF9" fill-opacity="0.1"/>
<rect x="667.766" y="6.81445" width="23.6561" height="391.297" fill="#FDFBF9" fill-opacity="0.1"/>
<rect x="697.854" y="6.81445" width="23.6561" height="391.297" fill="#FDFBF9" fill-opacity="0.1"/>
<rect x="5.85938" y="33.5039" width="175.506" height="363.547" rx="11.1631" fill="#0567FF" fill-opacity="0.5"/>
<rect x="186.381" y="33.5039" width="534.038" height="363.547" rx="11.1631" fill="#0567FF" fill-opacity="0.5"/>
<path d="M727.939 25.9023L0.84552 25.9023L0.845521 12.0764C0.845522 5.90996 5.84444 0.911039 12.0109 0.91104L716.774 0.911101C722.941 0.911102 727.939 5.91002 727.939 12.0765L727.939 25.9023Z" fill="#0567FF"/>
<path d="M68.814 188.04V209.43H65.9787V188.04H68.814ZM76.2769 196.928V209.43H73.5591V193.534H76.13L76.2769 196.928ZM75.6305 200.88L74.4993 200.836C74.5091 199.748 74.6707 198.745 74.9841 197.824C75.2975 196.894 75.7383 196.086 76.3063 195.4C76.8743 194.714 77.5501 194.186 78.3336 193.813C79.1269 193.431 80.0035 193.24 80.9633 193.24C81.7468 193.24 82.4519 193.348 83.0787 193.564C83.7055 193.769 84.2393 194.102 84.68 194.563C85.1305 195.023 85.4733 195.62 85.7084 196.355C85.9434 197.08 86.061 197.966 86.061 199.014V209.43H83.3285V198.985C83.3285 198.152 83.2061 197.486 82.9612 196.987C82.7164 196.477 82.3589 196.11 81.8888 195.885C81.4187 195.65 80.8408 195.532 80.1553 195.532C79.4795 195.532 78.8625 195.674 78.3042 195.958C77.7558 196.242 77.2808 196.634 76.8792 197.134C76.4875 197.633 76.179 198.206 75.9537 198.852C75.7383 199.489 75.6305 200.165 75.6305 200.88ZM92.9069 196.59V215.541H90.1744V193.534H92.6718L92.9069 196.59ZM103.616 201.35V201.658C103.616 202.814 103.479 203.886 103.205 204.876C102.931 205.855 102.529 206.707 102 207.432C101.481 208.156 100.84 208.72 100.076 209.121C99.312 209.523 98.4355 209.724 97.4463 209.724C96.4375 209.724 95.5463 209.557 94.7726 209.224C93.9989 208.891 93.3427 208.406 92.804 207.77C92.2654 207.133 91.8344 206.369 91.5112 205.478C91.1978 204.587 90.9824 203.583 90.8648 202.466V200.821C90.9824 199.646 91.2027 198.593 91.5259 197.662C91.8491 196.732 92.2752 195.939 92.804 195.282C93.3427 194.617 93.994 194.112 94.7579 193.769C95.5218 193.417 96.4033 193.24 97.4022 193.24C98.4012 193.24 99.2875 193.436 100.061 193.828C100.835 194.21 101.486 194.759 102.015 195.473C102.544 196.188 102.941 197.045 103.205 198.044C103.479 199.034 103.616 200.135 103.616 201.35ZM100.884 201.658V201.35C100.884 200.556 100.801 199.812 100.634 199.117C100.468 198.412 100.208 197.795 99.8556 197.266C99.5128 196.727 99.0721 196.306 98.5334 196.002C97.9948 195.689 97.3533 195.532 96.6089 195.532C95.9234 195.532 95.3259 195.65 94.8167 195.885C94.3172 196.12 93.8911 196.438 93.5386 196.84C93.186 197.231 92.8971 197.682 92.6718 198.191C92.4563 198.691 92.2947 199.21 92.187 199.748V203.553C92.3829 204.239 92.6571 204.885 93.0097 205.493C93.3623 206.09 93.8324 206.575 94.42 206.947C95.0076 207.309 95.7471 207.491 96.6383 207.491C97.3728 207.491 98.0045 207.339 98.5334 207.035C99.0721 206.722 99.5128 206.296 99.8556 205.757C100.208 205.218 100.468 204.601 100.634 203.906C100.801 203.201 100.884 202.452 100.884 201.658ZM116.809 205.757V193.534H119.541V209.43H116.941L116.809 205.757ZM117.323 202.408L118.454 202.378C118.454 203.436 118.341 204.415 118.116 205.316C117.901 206.208 117.548 206.981 117.058 207.637C116.569 208.294 115.927 208.808 115.134 209.18C114.341 209.542 113.376 209.724 112.24 209.724C111.466 209.724 110.756 209.611 110.11 209.386C109.473 209.16 108.925 208.813 108.464 208.343C108.004 207.872 107.647 207.26 107.392 206.506C107.147 205.752 107.025 204.846 107.025 203.788V193.534H109.742V203.818C109.742 204.533 109.821 205.125 109.978 205.595C110.144 206.056 110.364 206.423 110.639 206.697C110.923 206.962 111.236 207.148 111.579 207.255C111.931 207.363 112.294 207.417 112.666 207.417C113.822 207.417 114.737 207.197 115.413 206.756C116.089 206.305 116.574 205.703 116.867 204.949C117.171 204.185 117.323 203.338 117.323 202.408ZM130.339 193.534V195.62H121.745V193.534H130.339ZM124.654 189.671H127.371V205.493C127.371 206.031 127.455 206.438 127.621 206.712C127.788 206.986 128.003 207.167 128.267 207.255C128.532 207.344 128.816 207.388 129.12 207.388C129.345 207.388 129.58 207.368 129.825 207.329C130.079 207.28 130.27 207.241 130.398 207.211L130.412 209.43C130.197 209.498 129.913 209.562 129.56 209.621C129.217 209.689 128.801 209.724 128.312 209.724C127.646 209.724 127.033 209.591 126.475 209.327C125.917 209.062 125.471 208.622 125.138 208.005C124.815 207.378 124.654 206.536 124.654 205.478V189.671ZM78.1647 220.47H78.3728V221.756H78.1647C77.0384 221.756 76.0345 221.939 75.1531 222.307C74.2798 222.674 73.5412 223.204 72.9372 223.898C72.3414 224.584 71.8885 225.416 71.5783 226.396C71.2682 227.375 71.1131 228.473 71.1131 229.689V232.149C71.1131 232.974 71.2233 233.712 71.4437 234.365C71.664 235.01 71.9701 235.561 72.3618 236.018C72.7536 236.475 73.2106 236.822 73.733 237.059C74.2553 237.295 74.8185 237.414 75.4224 237.414C76.0182 237.414 76.5528 237.291 77.0261 237.046C77.4995 236.801 77.8994 236.459 78.2259 236.018C78.5605 235.577 78.8135 235.071 78.9849 234.5C79.1645 233.92 79.2542 233.3 79.2542 232.639C79.2542 232.011 79.1726 231.419 79.0094 230.864C78.8543 230.301 78.6136 229.803 78.2871 229.37C77.9606 228.938 77.5526 228.599 77.0629 228.354C76.5732 228.109 75.9978 227.987 75.3367 227.987C74.5859 227.987 73.884 228.158 73.231 228.501C72.5781 228.844 72.0435 229.301 71.6273 229.872C71.2192 230.444 71.0029 231.068 70.9785 231.745L70.1337 231.733C70.1909 230.966 70.3663 230.276 70.6602 229.664C70.954 229.044 71.3416 228.518 71.8232 228.085C72.3129 227.644 72.8719 227.31 73.5004 227.081C74.137 226.844 74.8225 226.726 75.5571 226.726C76.414 226.726 77.1608 226.881 77.7974 227.191C78.4422 227.501 78.9768 227.93 79.4012 228.477C79.8337 229.015 80.1561 229.64 80.3683 230.35C80.5887 231.052 80.6988 231.794 80.6988 232.578C80.6988 233.435 80.5764 234.235 80.3316 234.977C80.0949 235.712 79.7439 236.357 79.2787 236.912C78.8217 237.467 78.2667 237.899 77.6138 238.209C76.969 238.519 76.2386 238.675 75.4224 238.675C74.5246 238.675 73.7207 238.503 73.0107 238.16C72.3006 237.818 71.6926 237.344 71.1866 236.74C70.6887 236.136 70.3051 235.443 70.0358 234.659C69.7746 233.867 69.644 233.023 69.644 232.125V230.558C69.644 229.04 69.8195 227.665 70.1705 226.432C70.5214 225.192 71.0478 224.127 71.7497 223.237C72.4598 222.347 73.3453 221.666 74.4063 221.193C75.4755 220.711 76.7283 220.47 78.1647 220.47ZM94.8877 237.414C95.5079 237.414 96.0874 237.299 96.6261 237.071C97.1729 236.834 97.6218 236.487 97.9727 236.03C98.3318 235.565 98.5359 234.998 98.5848 234.329H99.9805C99.9396 235.169 99.6826 235.92 99.2092 236.581C98.744 237.234 98.1319 237.748 97.3728 238.124C96.622 238.491 95.7936 238.675 94.8877 238.675C93.9654 238.675 93.1493 238.507 92.4392 238.173C91.7373 237.838 91.1497 237.373 90.6763 236.777C90.2029 236.173 89.8438 235.471 89.599 234.671C89.3623 233.863 89.244 232.994 89.244 232.064V231.55C89.244 230.619 89.3623 229.754 89.599 228.954C89.8438 228.146 90.2029 227.444 90.6763 226.848C91.1497 226.245 91.7373 225.775 92.4392 225.441C93.1411 225.106 93.9532 224.939 94.8754 224.939C95.8222 224.939 96.671 225.13 97.4218 225.514C98.1808 225.898 98.7848 226.44 99.2337 227.142C99.6907 227.844 99.9396 228.677 99.9805 229.64H98.5848C98.544 228.93 98.3563 228.318 98.0217 227.803C97.6871 227.289 97.2463 226.893 96.6995 226.616C96.1527 226.338 95.5447 226.2 94.8754 226.2C94.1246 226.2 93.4839 226.347 92.9534 226.64C92.4229 226.926 91.9903 227.322 91.6557 227.828C91.3292 228.326 91.0885 228.897 90.9334 229.542C90.7783 230.178 90.7008 230.848 90.7008 231.55V232.064C90.7008 232.774 90.7742 233.451 90.9212 234.096C91.0762 234.733 91.317 235.3 91.6434 235.798C91.9781 236.295 92.4106 236.691 92.9411 236.985C93.4798 237.271 94.1286 237.414 94.8877 237.414ZM102.123 232.015V231.611C102.123 230.648 102.262 229.758 102.539 228.942C102.817 228.126 103.212 227.42 103.727 226.824C104.249 226.228 104.873 225.767 105.6 225.441C106.326 225.106 107.134 224.939 108.024 224.939C108.921 224.939 109.733 225.106 110.46 225.441C111.186 225.767 111.811 226.228 112.333 226.824C112.855 227.42 113.255 228.126 113.533 228.942C113.81 229.758 113.949 230.648 113.949 231.611V232.015C113.949 232.978 113.81 233.867 113.533 234.684C113.255 235.492 112.855 236.193 112.333 236.789C111.819 237.385 111.198 237.85 110.472 238.185C109.746 238.511 108.938 238.675 108.048 238.675C107.15 238.675 106.338 238.511 105.612 238.185C104.886 237.85 104.261 237.385 103.739 236.789C103.216 236.193 102.817 235.492 102.539 234.684C102.262 233.867 102.123 232.978 102.123 232.015ZM103.58 231.611V232.015C103.58 232.741 103.678 233.431 103.874 234.084C104.069 234.728 104.355 235.304 104.73 235.81C105.106 236.308 105.571 236.699 106.126 236.985C106.681 237.271 107.322 237.414 108.048 237.414C108.766 237.414 109.399 237.271 109.946 236.985C110.501 236.699 110.966 236.308 111.341 235.81C111.717 235.304 111.998 234.728 112.186 234.084C112.382 233.431 112.48 232.741 112.48 232.015V231.611C112.48 230.893 112.382 230.211 112.186 229.566C111.998 228.922 111.713 228.346 111.329 227.84C110.954 227.334 110.488 226.934 109.933 226.64C109.378 226.347 108.742 226.2 108.024 226.2C107.305 226.2 106.669 226.347 106.114 226.64C105.567 226.934 105.102 227.334 104.718 227.84C104.343 228.346 104.057 228.922 103.861 229.566C103.674 230.211 103.58 230.893 103.58 231.611ZM118.613 219.626V238.43H117.156V219.626H118.613ZM122.482 237.536C122.482 237.25 122.572 237.01 122.751 236.814C122.939 236.61 123.192 236.508 123.51 236.508C123.837 236.508 124.094 236.606 124.281 236.801C124.469 236.997 124.563 237.242 124.563 237.536C124.563 237.813 124.469 238.05 124.281 238.246C124.094 238.442 123.837 238.54 123.51 238.54C123.192 238.54 122.939 238.442 122.751 238.246C122.572 238.05 122.482 237.813 122.482 237.536Z" fill="#FDFBF9"/>
<path d="M420.339 174.892L413.259 194.387H410.364L418.518 172.997H420.384L420.339 174.892ZM426.275 194.387L419.179 174.892L419.135 172.997H421.001L429.183 194.387H426.275ZM425.907 186.468V188.79H413.89V186.468H425.907ZM418.312 171.572L421.162 167.253H424.438L420.501 171.572H418.312ZM434.354 180.989V194.387H431.637V178.491H434.281L434.354 180.989ZM439.32 178.403L439.305 180.93C439.08 180.881 438.865 180.852 438.659 180.842C438.463 180.822 438.238 180.812 437.983 180.812C437.356 180.812 436.803 180.91 436.323 181.106C435.843 181.302 435.437 181.576 435.104 181.929C434.771 182.282 434.506 182.703 434.31 183.192C434.124 183.672 434.002 184.201 433.943 184.779L433.179 185.22C433.179 184.26 433.272 183.359 433.458 182.517C433.654 181.674 433.953 180.93 434.354 180.284C434.756 179.627 435.265 179.118 435.882 178.756C436.509 178.384 437.253 178.198 438.115 178.198C438.311 178.198 438.536 178.222 438.791 178.271C439.046 178.31 439.222 178.354 439.32 178.403ZM448.134 194.681C447.028 194.681 446.024 194.494 445.123 194.122C444.232 193.74 443.463 193.207 442.816 192.521C442.18 191.835 441.69 191.023 441.347 190.082C441.004 189.142 440.833 188.114 440.833 186.997V186.38C440.833 185.087 441.024 183.937 441.406 182.928C441.788 181.909 442.307 181.048 442.963 180.342C443.619 179.637 444.364 179.103 445.196 178.741C446.029 178.379 446.891 178.198 447.782 178.198C448.918 178.198 449.897 178.393 450.72 178.785C451.552 179.177 452.233 179.725 452.762 180.431C453.291 181.126 453.683 181.949 453.937 182.899C454.192 183.839 454.319 184.867 454.319 185.984V187.203H442.449V184.985H451.601V184.779C451.562 184.074 451.415 183.388 451.161 182.722C450.916 182.056 450.524 181.508 449.985 181.077C449.447 180.646 448.712 180.431 447.782 180.431C447.165 180.431 446.597 180.563 446.078 180.827C445.559 181.082 445.113 181.464 444.741 181.973C444.369 182.482 444.08 183.104 443.874 183.839C443.668 184.573 443.566 185.42 443.566 186.38V186.997C443.566 187.751 443.668 188.461 443.874 189.127C444.09 189.784 444.398 190.361 444.8 190.861C445.211 191.36 445.705 191.752 446.283 192.036C446.871 192.32 447.537 192.462 448.281 192.462C449.241 192.462 450.054 192.266 450.72 191.875C451.386 191.483 451.969 190.959 452.468 190.303L454.114 191.61C453.771 192.129 453.335 192.624 452.806 193.094C452.277 193.564 451.626 193.946 450.852 194.24C450.088 194.534 449.182 194.681 448.134 194.681ZM466.865 191.669V183.486C466.865 182.859 466.738 182.316 466.483 181.856C466.238 181.385 465.866 181.023 465.367 180.768C464.867 180.514 464.25 180.386 463.516 180.386C462.83 180.386 462.228 180.504 461.709 180.739C461.199 180.974 460.798 181.283 460.504 181.665C460.22 182.046 460.078 182.458 460.078 182.899H457.36C457.36 182.331 457.507 181.767 457.801 181.209C458.095 180.651 458.516 180.146 459.064 179.696C459.623 179.236 460.289 178.873 461.062 178.609C461.846 178.335 462.717 178.198 463.677 178.198C464.833 178.198 465.851 178.393 466.733 178.785C467.624 179.177 468.319 179.769 468.819 180.563C469.328 181.346 469.583 182.331 469.583 183.516V190.92C469.583 191.449 469.627 192.012 469.715 192.609C469.813 193.207 469.955 193.721 470.141 194.152V194.387H467.306C467.169 194.073 467.061 193.657 466.983 193.138C466.904 192.609 466.865 192.119 466.865 191.669ZM467.335 184.75L467.365 186.659H464.617C463.844 186.659 463.153 186.723 462.546 186.85C461.939 186.968 461.429 187.149 461.018 187.394C460.607 187.639 460.293 187.947 460.078 188.319C459.862 188.682 459.755 189.108 459.755 189.598C459.755 190.097 459.867 190.552 460.093 190.964C460.318 191.375 460.656 191.703 461.106 191.948C461.567 192.183 462.13 192.301 462.796 192.301C463.628 192.301 464.363 192.124 464.999 191.772C465.636 191.419 466.14 190.988 466.512 190.479C466.894 189.97 467.1 189.475 467.13 188.995L468.29 190.303C468.222 190.714 468.035 191.169 467.732 191.669C467.428 192.168 467.022 192.648 466.512 193.109C466.013 193.559 465.416 193.936 464.72 194.24C464.035 194.534 463.261 194.681 462.399 194.681C461.322 194.681 460.377 194.47 459.564 194.049C458.761 193.628 458.134 193.065 457.683 192.359C457.243 191.644 457.022 190.846 457.022 189.965C457.022 189.113 457.189 188.364 457.522 187.717C457.855 187.061 458.335 186.517 458.961 186.086C459.588 185.646 460.342 185.313 461.224 185.087C462.105 184.862 463.09 184.75 464.177 184.75H467.335ZM388.314 216.547V235.498H385.581V213.491H388.079L388.314 216.547ZM399.023 221.307V221.615C399.023 222.771 398.886 223.843 398.612 224.833C398.338 225.812 397.936 226.664 397.407 227.389C396.888 228.114 396.247 228.677 395.483 229.078C394.719 229.48 393.842 229.681 392.853 229.681C391.844 229.681 390.953 229.514 390.179 229.181C389.406 228.848 388.749 228.363 388.211 227.727C387.672 227.09 387.241 226.326 386.918 225.435C386.605 224.544 386.389 223.54 386.272 222.423V220.778C386.389 219.603 386.609 218.55 386.933 217.619C387.256 216.689 387.682 215.896 388.211 215.24C388.749 214.574 389.401 214.069 390.165 213.726C390.929 213.374 391.81 213.198 392.809 213.198C393.808 213.198 394.694 213.393 395.468 213.785C396.242 214.167 396.893 214.716 397.422 215.431C397.951 216.145 398.347 217.002 398.612 218.001C398.886 218.991 399.023 220.092 399.023 221.307ZM396.291 221.615V221.307C396.291 220.514 396.207 219.769 396.041 219.074C395.874 218.369 395.615 217.752 395.262 217.223C394.92 216.684 394.479 216.263 393.94 215.959C393.402 215.646 392.76 215.489 392.016 215.489C391.33 215.489 390.733 215.607 390.223 215.842C389.724 216.077 389.298 216.395 388.945 216.797C388.593 217.188 388.304 217.639 388.079 218.148C387.863 218.648 387.702 219.167 387.594 219.706V223.51C387.79 224.196 388.064 224.842 388.416 225.45C388.769 226.047 389.239 226.532 389.827 226.904C390.414 227.266 391.154 227.448 392.045 227.448C392.78 227.448 393.411 227.296 393.94 226.992C394.479 226.679 394.92 226.253 395.262 225.714C395.615 225.175 395.874 224.558 396.041 223.863C396.207 223.158 396.291 222.409 396.291 221.615ZM405.208 215.989V229.387H402.49V213.491H405.135L405.208 215.989ZM410.173 213.403L410.159 215.93C409.934 215.881 409.718 215.852 409.512 215.842C409.316 215.822 409.091 215.812 408.837 215.812C408.21 215.812 407.656 215.91 407.177 216.106C406.697 216.302 406.29 216.576 405.957 216.929C405.624 217.282 405.36 217.703 405.164 218.192C404.978 218.672 404.855 219.201 404.797 219.779L404.033 220.22C404.033 219.26 404.126 218.359 404.312 217.517C404.508 216.674 404.806 215.93 405.208 215.284C405.61 214.627 406.119 214.118 406.736 213.756C407.363 213.384 408.107 213.198 408.969 213.198C409.165 213.198 409.39 213.222 409.645 213.271C409.899 213.31 410.076 213.354 410.173 213.403ZM415.638 213.491V229.387H412.906V213.491H415.638ZM412.7 209.275C412.7 208.834 412.832 208.462 413.097 208.159C413.371 207.855 413.773 207.703 414.302 207.703C414.821 207.703 415.217 207.855 415.492 208.159C415.776 208.462 415.918 208.834 415.918 209.275C415.918 209.696 415.776 210.059 415.492 210.362C415.217 210.656 414.821 210.803 414.302 210.803C413.773 210.803 413.371 210.656 413.097 210.362C412.832 210.059 412.7 209.696 412.7 209.275ZM422.719 216.885V229.387H420.002V213.491H422.572L422.719 216.885ZM422.073 220.837L420.942 220.793C420.952 219.706 421.113 218.702 421.427 217.781C421.74 216.851 422.181 216.043 422.749 215.357C423.317 214.671 423.993 214.143 424.776 213.77C425.569 213.388 426.446 213.198 427.406 213.198C428.189 213.198 428.894 213.305 429.521 213.521C430.148 213.726 430.682 214.059 431.122 214.52C431.573 214.98 431.916 215.577 432.151 216.312C432.386 217.037 432.503 217.923 432.503 218.971V229.387H429.771V218.942C429.771 218.109 429.648 217.443 429.404 216.944C429.159 216.434 428.801 216.067 428.331 215.842C427.861 215.607 427.283 215.489 426.598 215.489C425.922 215.489 425.305 215.631 424.747 215.915C424.198 216.199 423.723 216.591 423.322 217.091C422.93 217.59 422.621 218.163 422.396 218.809C422.181 219.446 422.073 220.122 422.073 220.837ZM442.993 227.448C443.639 227.448 444.236 227.315 444.785 227.051C445.333 226.786 445.784 226.424 446.136 225.964C446.489 225.494 446.69 224.96 446.739 224.362H449.324C449.275 225.303 448.957 226.179 448.369 226.992C447.792 227.795 447.033 228.447 446.092 228.946C445.152 229.436 444.119 229.681 442.993 229.681C441.798 229.681 440.755 229.47 439.863 229.049C438.982 228.628 438.247 228.05 437.66 227.315C437.082 226.581 436.646 225.739 436.352 224.789C436.068 223.829 435.926 222.815 435.926 221.748V221.131C435.926 220.063 436.068 219.054 436.352 218.104C436.646 217.144 437.082 216.297 437.66 215.563C438.247 214.828 438.982 214.25 439.863 213.829C440.755 213.408 441.798 213.198 442.993 213.198C444.236 213.198 445.324 213.452 446.254 213.961C447.184 214.461 447.914 215.146 448.443 216.018C448.982 216.88 449.275 217.859 449.324 218.956H446.739C446.69 218.3 446.504 217.708 446.18 217.179C445.867 216.65 445.436 216.229 444.888 215.915C444.349 215.592 443.717 215.431 442.993 215.431C442.16 215.431 441.46 215.597 440.892 215.93C440.334 216.253 439.888 216.694 439.555 217.252C439.232 217.801 438.997 218.413 438.85 219.089C438.713 219.754 438.644 220.435 438.644 221.131V221.748C438.644 222.443 438.713 223.128 438.85 223.804C438.987 224.48 439.217 225.092 439.54 225.641C439.873 226.189 440.319 226.63 440.877 226.963C441.445 227.286 442.15 227.448 442.993 227.448ZM455.333 213.491V229.387H452.6V213.491H455.333ZM452.395 209.275C452.395 208.834 452.527 208.462 452.791 208.159C453.066 207.855 453.467 207.703 453.996 207.703C454.515 207.703 454.912 207.855 455.186 208.159C455.47 208.462 455.612 208.834 455.612 209.275C455.612 209.696 455.47 210.059 455.186 210.362C454.912 210.656 454.515 210.803 453.996 210.803C453.467 210.803 453.066 210.656 452.791 210.362C452.527 210.059 452.395 209.696 452.395 209.275ZM462.414 216.547V235.498H459.681V213.491H462.179L462.414 216.547ZM473.123 221.307V221.615C473.123 222.771 472.986 223.843 472.712 224.833C472.438 225.812 472.036 226.664 471.507 227.389C470.988 228.114 470.347 228.677 469.583 229.078C468.819 229.48 467.942 229.681 466.953 229.681C465.944 229.681 465.053 229.514 464.279 229.181C463.506 228.848 462.85 228.363 462.311 227.727C461.772 227.09 461.341 226.326 461.018 225.435C460.705 224.544 460.489 223.54 460.372 222.423V220.778C460.489 219.603 460.71 218.55 461.033 217.619C461.356 216.689 461.782 215.896 462.311 215.24C462.85 214.574 463.501 214.069 464.265 213.726C465.029 213.374 465.91 213.198 466.909 213.198C467.908 213.198 468.794 213.393 469.568 213.785C470.342 214.167 470.993 214.716 471.522 215.431C472.051 216.145 472.448 217.002 472.712 218.001C472.986 218.991 473.123 220.092 473.123 221.307ZM470.391 221.615V221.307C470.391 220.514 470.308 219.769 470.141 219.074C469.975 218.369 469.715 217.752 469.362 217.223C469.02 216.684 468.579 216.263 468.04 215.959C467.502 215.646 466.86 215.489 466.116 215.489C465.43 215.489 464.833 215.607 464.324 215.842C463.824 216.077 463.398 216.395 463.045 216.797C462.693 217.188 462.404 217.639 462.179 218.148C461.963 218.648 461.802 219.167 461.694 219.706V223.51C461.89 224.196 462.164 224.842 462.517 225.45C462.869 226.047 463.339 226.532 463.927 226.904C464.515 227.266 465.254 227.448 466.145 227.448C466.88 227.448 467.511 227.296 468.04 226.992C468.579 226.679 469.02 226.253 469.362 225.714C469.715 225.175 469.975 224.558 470.141 223.863C470.308 223.158 470.391 222.409 470.391 221.615ZM485.963 226.669V218.486C485.963 217.859 485.836 217.316 485.581 216.856C485.336 216.385 484.964 216.023 484.465 215.768C483.965 215.514 483.348 215.386 482.614 215.386C481.928 215.386 481.326 215.504 480.807 215.739C480.297 215.974 479.896 216.283 479.602 216.665C479.318 217.046 479.176 217.458 479.176 217.899H476.458C476.458 217.331 476.605 216.767 476.899 216.209C477.193 215.651 477.614 215.146 478.162 214.696C478.721 214.236 479.386 213.873 480.16 213.609C480.944 213.335 481.815 213.198 482.775 213.198C483.931 213.198 484.949 213.393 485.831 213.785C486.722 214.177 487.417 214.769 487.917 215.563C488.426 216.346 488.681 217.331 488.681 218.516V225.92C488.681 226.449 488.725 227.012 488.813 227.609C488.911 228.207 489.053 228.721 489.239 229.152V229.387H486.404C486.267 229.073 486.159 228.657 486.081 228.138C486.002 227.609 485.963 227.119 485.963 226.669ZM486.433 219.75L486.463 221.659H483.715C482.942 221.659 482.251 221.723 481.644 221.85C481.037 221.968 480.527 222.149 480.116 222.394C479.705 222.639 479.391 222.947 479.176 223.319C478.96 223.682 478.853 224.108 478.853 224.598C478.853 225.097 478.965 225.552 479.191 225.964C479.416 226.375 479.754 226.703 480.204 226.948C480.665 227.183 481.228 227.301 481.894 227.301C482.726 227.301 483.461 227.124 484.097 226.772C484.734 226.419 485.238 225.988 485.61 225.479C485.992 224.97 486.198 224.475 486.227 223.995L487.388 225.303C487.319 225.714 487.133 226.169 486.83 226.669C486.526 227.168 486.12 227.648 485.61 228.109C485.111 228.559 484.514 228.936 483.818 229.24C483.133 229.534 482.359 229.681 481.497 229.681C480.42 229.681 479.475 229.47 478.662 229.049C477.859 228.628 477.232 228.065 476.781 227.359C476.341 226.644 476.12 225.846 476.12 224.965C476.12 224.113 476.287 223.364 476.62 222.717C476.953 222.061 477.433 221.517 478.059 221.086C478.686 220.646 479.44 220.313 480.322 220.087C481.203 219.862 482.188 219.75 483.275 219.75H486.433ZM495.909 206.822V229.387H493.176V206.822H495.909ZM413.085 240.488V258.387H411.628V242.337L406.78 244.137V242.753L412.84 240.488H413.085ZM431.142 253.661C431.142 254.739 430.889 255.649 430.383 256.391C429.885 257.134 429.208 257.693 428.351 258.068C427.494 258.444 426.535 258.632 425.474 258.632C424.405 258.632 423.442 258.444 422.585 258.068C421.728 257.693 421.046 257.134 420.54 256.391C420.042 255.649 419.793 254.739 419.793 253.661C419.793 252.951 419.932 252.306 420.21 251.727C420.495 251.139 420.891 250.633 421.397 250.209C421.911 249.776 422.511 249.442 423.197 249.205C423.882 248.968 424.633 248.85 425.449 248.85C426.527 248.85 427.494 249.058 428.351 249.474C429.208 249.882 429.885 250.446 430.383 251.164C430.889 251.882 431.142 252.714 431.142 253.661ZM429.673 253.661C429.673 252.902 429.489 252.237 429.122 251.666C428.755 251.094 428.253 250.654 427.616 250.344C426.98 250.025 426.257 249.866 425.449 249.866C424.633 249.866 423.911 250.025 423.283 250.344C422.654 250.654 422.16 251.094 421.801 251.666C421.442 252.237 421.263 252.902 421.263 253.661C421.263 254.453 421.438 255.126 421.789 255.681C422.148 256.236 422.646 256.656 423.283 256.942C423.919 257.228 424.65 257.371 425.474 257.371C426.298 257.371 427.025 257.228 427.653 256.942C428.281 256.656 428.775 256.236 429.134 255.681C429.493 255.126 429.673 254.453 429.673 253.661ZM430.677 245.141C430.677 246.014 430.444 246.793 429.979 247.479C429.522 248.156 428.902 248.691 428.118 249.083C427.335 249.466 426.449 249.658 425.462 249.658C424.466 249.658 423.572 249.466 422.781 249.083C421.997 248.691 421.377 248.156 420.92 247.479C420.471 246.793 420.246 246.014 420.246 245.141C420.246 244.104 420.471 243.231 420.92 242.521C421.377 241.802 421.997 241.256 422.781 240.88C423.564 240.505 424.454 240.317 425.449 240.317C426.437 240.317 427.322 240.505 428.106 240.88C428.898 241.256 429.522 241.802 429.979 242.521C430.444 243.231 430.677 244.104 430.677 245.141ZM429.22 245.128C429.22 244.435 429.053 243.822 428.718 243.292C428.392 242.761 427.943 242.345 427.371 242.043C426.808 241.733 426.168 241.578 425.449 241.578C424.723 241.578 424.078 241.721 423.515 242.007C422.96 242.292 422.519 242.7 422.193 243.231C421.875 243.761 421.715 244.394 421.715 245.128C421.715 245.847 421.875 246.467 422.193 246.989C422.519 247.503 422.964 247.903 423.527 248.189C424.091 248.475 424.735 248.617 425.462 248.617C426.188 248.617 426.833 248.475 427.396 248.189C427.959 247.903 428.404 247.503 428.73 246.989C429.057 246.467 429.22 245.847 429.22 245.128ZM445.331 257.371C445.951 257.371 446.531 257.256 447.069 257.028C447.616 256.791 448.065 256.444 448.416 255.987C448.775 255.522 448.979 254.955 449.028 254.286H450.424C450.383 255.126 450.126 255.877 449.652 256.538C449.187 257.191 448.575 257.705 447.816 258.081C447.065 258.448 446.237 258.632 445.331 258.632C444.409 258.632 443.592 258.464 442.882 258.13C442.181 257.795 441.593 257.33 441.12 256.734C440.646 256.13 440.287 255.428 440.042 254.628C439.806 253.82 439.687 252.951 439.687 252.021V251.507C439.687 250.576 439.806 249.711 440.042 248.911C440.287 248.103 440.646 247.401 441.12 246.806C441.593 246.202 442.181 245.732 442.882 245.398C443.584 245.063 444.396 244.896 445.319 244.896C446.265 244.896 447.114 245.088 447.865 245.471C448.624 245.855 449.228 246.397 449.677 247.099C450.134 247.801 450.383 248.634 450.424 249.597H449.028C448.987 248.887 448.8 248.275 448.465 247.76C448.13 247.246 447.69 246.85 447.143 246.573C446.596 246.295 445.988 246.157 445.319 246.157C444.568 246.157 443.927 246.304 443.397 246.597C442.866 246.883 442.434 247.279 442.099 247.785C441.772 248.283 441.532 248.854 441.377 249.499C441.222 250.135 441.144 250.805 441.144 251.507V252.021C441.144 252.731 441.217 253.408 441.364 254.053C441.519 254.69 441.76 255.257 442.087 255.755C442.421 256.252 442.854 256.648 443.384 256.942C443.923 257.228 444.572 257.371 445.331 257.371ZM452.566 251.972V251.568C452.566 250.605 452.705 249.715 452.982 248.899C453.26 248.083 453.656 247.377 454.17 246.781C454.692 246.185 455.317 245.724 456.043 245.398C456.769 245.063 457.577 244.896 458.467 244.896C459.365 244.896 460.177 245.063 460.903 245.398C461.629 245.724 462.254 246.185 462.776 246.781C463.298 247.377 463.698 248.083 463.976 248.899C464.253 249.715 464.392 250.605 464.392 251.568V251.972C464.392 252.935 464.253 253.824 463.976 254.641C463.698 255.449 463.298 256.15 462.776 256.746C462.262 257.342 461.642 257.807 460.915 258.142C460.189 258.468 459.381 258.632 458.491 258.632C457.594 258.632 456.782 258.468 456.055 258.142C455.329 257.807 454.704 257.342 454.182 256.746C453.66 256.15 453.26 255.449 452.982 254.641C452.705 253.824 452.566 252.935 452.566 251.972ZM454.023 251.568V251.972C454.023 252.698 454.121 253.388 454.317 254.041C454.513 254.685 454.798 255.261 455.174 255.767C455.549 256.265 456.014 256.656 456.569 256.942C457.124 257.228 457.765 257.371 458.491 257.371C459.21 257.371 459.842 257.228 460.389 256.942C460.944 256.656 461.409 256.265 461.785 255.767C462.16 255.261 462.442 254.685 462.629 254.041C462.825 253.388 462.923 252.698 462.923 251.972V251.568C462.923 250.85 462.825 250.168 462.629 249.523C462.442 248.879 462.156 248.303 461.772 247.797C461.397 247.291 460.932 246.891 460.377 246.597C459.822 246.304 459.185 246.157 458.467 246.157C457.749 246.157 457.112 246.304 456.557 246.597C456.01 246.891 455.545 247.291 455.161 247.797C454.786 248.303 454.5 248.879 454.304 249.523C454.117 250.168 454.023 250.85 454.023 251.568ZM469.056 239.583V258.387H467.6V239.583H469.056ZM472.925 257.493C472.925 257.207 473.015 256.967 473.194 256.771C473.382 256.567 473.635 256.465 473.953 256.465C474.28 256.465 474.537 256.563 474.725 256.758C474.912 256.954 475.006 257.199 475.006 257.493C475.006 257.771 474.912 258.007 474.725 258.203C474.537 258.399 474.28 258.497 473.953 258.497C473.635 258.497 473.382 258.399 473.194 258.203C473.015 258.007 472.925 257.771 472.925 257.493Z" fill="#FDFBF9"/>
</svg>
