<svg width="1051" height="591" viewBox="0 0 1051 591" fill="none" xmlns="http://www.w3.org/2000/svg">
<path d="M0.519531 11.2704C0.519531 5.10851 5.51475 0.113281 11.6767 0.113281H1038.81C1044.97 0.113281 1049.96 5.1085 1049.96 11.2704V579.01C1049.96 585.172 1044.97 590.168 1038.81 590.168H11.6767C5.51478 590.168 0.519531 585.172 0.519531 579.01V11.2704Z" fill="#0567FF" fill-opacity="0.25"/>
<path d="M12.6348 10.1426H45.2287V579.282H12.6348V10.1426Z" fill="#FDFBF9" fill-opacity="0.1"/>
<path d="M55.2578 10.1426H87.8517V579.282H55.2578V10.1426Z" fill="#FDFBF9" fill-opacity="0.1"/>
<path d="M100.387 10.1426H132.981V579.282H100.387V10.1426Z" fill="#FDFBF9" fill-opacity="0.1"/>
<path d="M143.01 10.1426H175.604V579.282H143.01V10.1426Z" fill="#FDFBF9" fill-opacity="0.1"/>
<path d="M185.633 10.1426H218.227V579.282H185.633V10.1426Z" fill="#FDFBF9" fill-opacity="0.1"/>
<path d="M228.256 10.1426H260.85V579.282H228.256V10.1426Z" fill="#FDFBF9" fill-opacity="0.1"/>
<path d="M273.385 10.1426H305.979V579.282H273.385V10.1426Z" fill="#FDFBF9" fill-opacity="0.1"/>
<path d="M316.008 10.1426H348.602V579.282H316.008V10.1426Z" fill="#FDFBF9" fill-opacity="0.1"/>
<path d="M358.631 10.1426H391.225V579.282H358.631V10.1426Z" fill="#FDFBF9" fill-opacity="0.1"/>
<path d="M401.254 10.1426H433.848V579.282H401.254V10.1426Z" fill="#FDFBF9" fill-opacity="0.1"/>
<path d="M446.385 10.1426H478.979V579.282H446.385V10.1426Z" fill="#FDFBF9" fill-opacity="0.1"/>
<path d="M489.006 10.1426H521.6V579.282H489.006V10.1426Z" fill="#FDFBF9" fill-opacity="0.1"/>
<path d="M531.629 10.1426H564.223V579.282H531.629V10.1426Z" fill="#FDFBF9" fill-opacity="0.1"/>
<path d="M574.252 10.1426H606.846V579.282H574.252V10.1426Z" fill="#FDFBF9" fill-opacity="0.1"/>
<path d="M619.383 10.1426H651.977V579.282H619.383V10.1426Z" fill="#FDFBF9" fill-opacity="0.1"/>
<path d="M662.006 10.1426H694.6V579.282H662.006V10.1426Z" fill="#FDFBF9" fill-opacity="0.1"/>
<path d="M704.627 10.1426H737.221V579.282H704.627V10.1426Z" fill="#FDFBF9" fill-opacity="0.1"/>
<path d="M747.25 10.1426H779.844V579.282H747.25V10.1426Z" fill="#FDFBF9" fill-opacity="0.1"/>
<path d="M792.381 10.1426H824.975V579.282H792.381V10.1426Z" fill="#FDFBF9" fill-opacity="0.1"/>
<path d="M835.004 10.1426H867.598V579.282H835.004V10.1426Z" fill="#FDFBF9" fill-opacity="0.1"/>
<path d="M877.627 10.1426H910.221V579.282H877.627V10.1426Z" fill="#FDFBF9" fill-opacity="0.1"/>
<path d="M920.248 10.1426H955.349V579.282H920.248V10.1426Z" fill="#FDFBF9" fill-opacity="0.1"/>
<path d="M965.379 10.1426H995.466V579.282H965.379V10.1426Z" fill="#FDFBF9" fill-opacity="0.1"/>
<path d="M1005.49 10.1426H1038.09V579.282H1005.49V10.1426Z" fill="#FDFBF9" fill-opacity="0.1"/>
<rect x="12.6348" y="35.2148" width="1022.95" height="544.067" rx="11.1631" fill="#0567FF" fill-opacity="0.5"/>
<path d="M1050.62 25.1045L0.0994873 25.1044L0.0994885 11.2786C0.0994891 5.11208 5.0984 0.113159 11.2649 0.11316L1039.46 0.11325C1045.63 0.11325 1050.63 5.11217 1050.63 11.2786L1050.62 25.1045Z" fill="#0567FF"/>
<path d="M432.732 296.332L425.328 316.443H423.448L431.528 295.054H432.835L432.732 296.332ZM439.461 316.443L432.042 296.332L431.939 295.054H433.246L441.341 316.443H439.461ZM438.138 308.892V310.45H426.783V308.892H438.138ZM431.381 293.364L434.187 289.251H436.302L432.909 293.364H431.381ZM445.851 303.178V316.443H444.103V300.548H445.807L445.851 303.178ZM451.478 300.43L451.434 302.046C451.238 302.017 451.047 301.993 450.861 301.973C450.675 301.953 450.474 301.944 450.258 301.944C449.494 301.944 448.824 302.086 448.246 302.37C447.678 302.644 447.198 303.031 446.806 303.53C446.414 304.02 446.116 304.598 445.91 305.264C445.704 305.92 445.587 306.625 445.557 307.379L444.911 307.629C444.911 306.591 445.019 305.626 445.234 304.735C445.45 303.844 445.778 303.065 446.218 302.399C446.669 301.723 447.232 301.199 447.908 300.827C448.593 300.445 449.397 300.254 450.317 300.254C450.542 300.254 450.763 300.274 450.978 300.313C451.203 300.342 451.37 300.381 451.478 300.43ZM460.086 316.737C459.048 316.737 458.093 316.546 457.222 316.164C456.36 315.782 455.606 315.244 454.959 314.548C454.323 313.853 453.828 313.03 453.476 312.08C453.133 311.12 452.961 310.072 452.961 308.936V308.305C452.961 307.08 453.143 305.974 453.505 304.985C453.867 303.995 454.367 303.148 455.003 302.443C455.64 301.738 456.365 301.199 457.178 300.827C458 300.445 458.862 300.254 459.763 300.254C460.772 300.254 461.668 300.435 462.452 300.798C463.235 301.15 463.891 301.655 464.42 302.311C464.959 302.957 465.365 303.726 465.64 304.617C465.914 305.499 466.051 306.473 466.051 307.541V308.613H454.019V307.115H464.303V306.909C464.283 306.018 464.102 305.185 463.759 304.412C463.426 303.628 462.927 302.992 462.261 302.502C461.595 302.012 460.762 301.767 459.763 301.767C459.019 301.767 458.333 301.924 457.707 302.237C457.09 302.551 456.556 303.001 456.105 303.589C455.665 304.167 455.322 304.857 455.077 305.66C454.842 306.454 454.724 307.335 454.724 308.305V308.936C454.724 309.818 454.852 310.641 455.106 311.404C455.371 312.159 455.743 312.825 456.223 313.402C456.713 313.98 457.29 314.431 457.956 314.754C458.622 315.077 459.357 315.239 460.16 315.239C461.1 315.239 461.933 315.067 462.657 314.725C463.382 314.372 464.033 313.819 464.611 313.064L465.713 313.917C465.37 314.426 464.939 314.896 464.42 315.327C463.911 315.758 463.299 316.101 462.584 316.355C461.869 316.61 461.036 316.737 460.086 316.737ZM479.184 313.593V305.396C479.184 304.642 479.028 303.99 478.714 303.442C478.401 302.894 477.941 302.472 477.333 302.179C476.726 301.885 475.977 301.738 475.086 301.738C474.263 301.738 473.529 301.885 472.882 302.179C472.246 302.463 471.741 302.85 471.369 303.339C471.007 303.819 470.825 304.353 470.825 304.94L469.063 304.926C469.063 304.328 469.209 303.751 469.503 303.192C469.797 302.634 470.213 302.135 470.752 301.694C471.291 301.253 471.932 300.905 472.676 300.651C473.431 300.386 474.258 300.254 475.159 300.254C476.295 300.254 477.294 300.445 478.156 300.827C479.028 301.209 479.708 301.782 480.198 302.546C480.688 303.31 480.933 304.27 480.933 305.425V313.109C480.933 313.657 480.972 314.225 481.05 314.813C481.138 315.4 481.261 315.885 481.417 316.267V316.443H479.552C479.434 316.091 479.341 315.65 479.273 315.121C479.214 314.583 479.184 314.073 479.184 313.593ZM479.596 307.188L479.625 308.54H476.173C475.272 308.54 474.464 308.623 473.749 308.789C473.044 308.946 472.446 309.181 471.957 309.495C471.467 309.798 471.09 310.166 470.825 310.596C470.571 311.027 470.443 311.517 470.443 312.066C470.443 312.634 470.585 313.153 470.869 313.623C471.163 314.093 471.575 314.47 472.104 314.754C472.642 315.028 473.279 315.165 474.013 315.165C474.993 315.165 475.855 314.984 476.599 314.622C477.353 314.259 477.975 313.784 478.465 313.197C478.954 312.609 479.282 311.968 479.449 311.272L480.213 312.286C480.085 312.776 479.85 313.28 479.508 313.799C479.175 314.308 478.739 314.788 478.2 315.239C477.662 315.679 477.025 316.042 476.29 316.326C475.566 316.6 474.743 316.737 473.822 316.737C472.784 316.737 471.878 316.541 471.105 316.15C470.341 315.758 469.743 315.224 469.312 314.548C468.891 313.863 468.681 313.089 468.681 312.227C468.681 311.444 468.847 310.743 469.18 310.126C469.513 309.5 469.993 308.971 470.62 308.54C471.256 308.099 472.02 307.766 472.912 307.541C473.813 307.306 474.821 307.188 475.938 307.188H479.596ZM494.727 303.604V322.555H492.964V300.548H494.61L494.727 303.604ZM505.775 308.349V308.657C505.775 309.842 505.638 310.929 505.363 311.919C505.089 312.908 504.693 313.765 504.173 314.489C503.664 315.204 503.032 315.758 502.278 316.15C501.524 316.541 500.667 316.737 499.707 316.737C498.757 316.737 497.91 316.59 497.166 316.296C496.422 316.003 495.78 315.586 495.241 315.048C494.713 314.499 494.287 313.863 493.963 313.138C493.65 312.403 493.43 311.6 493.302 310.729V306.659C493.449 305.7 493.689 304.828 494.022 304.044C494.355 303.261 494.781 302.585 495.3 302.017C495.829 301.449 496.456 301.013 497.181 300.71C497.905 300.406 498.733 300.254 499.663 300.254C500.633 300.254 501.495 300.445 502.249 300.827C503.013 301.199 503.654 301.743 504.173 302.458C504.702 303.163 505.099 304.015 505.363 305.014C505.638 306.003 505.775 307.115 505.775 308.349ZM504.012 308.657V308.349C504.012 307.418 503.914 306.556 503.718 305.763C503.532 304.97 503.243 304.279 502.851 303.692C502.469 303.094 501.98 302.629 501.382 302.296C500.795 301.963 500.094 301.797 499.281 301.797C498.439 301.797 497.719 301.939 497.122 302.223C496.534 302.497 496.045 302.864 495.653 303.325C495.261 303.775 494.953 304.27 494.727 304.808C494.502 305.347 494.336 305.876 494.228 306.395V311.081C494.414 311.826 494.713 312.516 495.124 313.153C495.535 313.779 496.084 314.284 496.769 314.666C497.465 315.038 498.312 315.224 499.311 315.224C500.114 315.224 500.809 315.058 501.397 314.725C501.985 314.392 502.469 313.926 502.851 313.329C503.243 312.731 503.532 312.036 503.718 311.243C503.914 310.45 504.012 309.588 504.012 308.657ZM511.431 303.178V316.443H509.682V300.548H511.387L511.431 303.178ZM517.057 300.43L517.013 302.046C516.817 302.017 516.626 301.993 516.44 301.973C516.254 301.953 516.053 301.944 515.838 301.944C515.074 301.944 514.403 302.086 513.825 302.37C513.257 302.644 512.777 303.031 512.386 303.53C511.994 304.02 511.695 304.598 511.489 305.264C511.284 305.92 511.166 306.625 511.137 307.379L510.49 307.629C510.49 306.591 510.598 305.626 510.814 304.735C511.029 303.844 511.357 303.065 511.798 302.399C512.248 301.723 512.812 301.199 513.487 300.827C514.173 300.445 514.976 300.254 515.897 300.254C516.122 300.254 516.342 300.274 516.558 300.313C516.783 300.342 516.949 300.381 517.057 300.43ZM521.773 300.548V316.443H520.025V300.548H521.773ZM519.716 295.95C519.716 295.617 519.819 295.338 520.025 295.112C520.24 294.877 520.534 294.76 520.906 294.76C521.278 294.76 521.572 294.877 521.788 295.112C522.013 295.338 522.126 295.617 522.126 295.95C522.126 296.273 522.013 296.552 521.788 296.787C521.572 297.012 521.278 297.125 520.906 297.125C520.534 297.125 520.24 297.012 520.025 296.787C519.819 296.552 519.716 296.273 519.716 295.95ZM528.325 303.942V316.443H526.577V300.548H528.252L528.325 303.942ZM527.928 307.511L527.15 307.071C527.209 306.13 527.4 305.249 527.723 304.426C528.046 303.604 528.482 302.879 529.03 302.252C529.588 301.625 530.24 301.136 530.984 300.783C531.738 300.43 532.571 300.254 533.481 300.254C534.275 300.254 534.985 300.362 535.612 300.577C536.238 300.793 536.772 301.136 537.213 301.606C537.654 302.076 537.987 302.678 538.212 303.413C538.447 304.147 538.564 305.043 538.564 306.101V316.443H536.802V306.086C536.802 304.989 536.65 304.133 536.346 303.515C536.043 302.889 535.612 302.443 535.053 302.179C534.495 301.914 533.834 301.782 533.07 301.782C532.228 301.782 531.488 301.968 530.852 302.34C530.225 302.703 529.696 303.178 529.265 303.765C528.844 304.343 528.521 304.965 528.296 305.631C528.07 306.287 527.948 306.914 527.928 307.511ZM548.98 315.224C549.725 315.224 550.42 315.087 551.066 314.813C551.723 314.529 552.261 314.112 552.682 313.564C553.113 313.006 553.358 312.325 553.417 311.522H555.092C555.043 312.531 554.734 313.432 554.166 314.225C553.608 315.009 552.873 315.626 551.962 316.076C551.061 316.517 550.067 316.737 548.98 316.737C547.874 316.737 546.894 316.536 546.042 316.135C545.2 315.733 544.495 315.175 543.927 314.46C543.359 313.735 542.928 312.893 542.634 311.933C542.35 310.964 542.208 309.921 542.208 308.804V308.187C542.208 307.071 542.35 306.033 542.634 305.073C542.928 304.103 543.359 303.261 543.927 302.546C544.495 301.821 545.2 301.258 546.042 300.856C546.884 300.455 547.859 300.254 548.966 300.254C550.102 300.254 551.12 300.484 552.021 300.945C552.932 301.405 553.657 302.056 554.195 302.898C554.744 303.741 555.043 304.74 555.092 305.895H553.417C553.368 305.043 553.143 304.309 552.741 303.692C552.34 303.075 551.811 302.6 551.154 302.267C550.498 301.934 549.769 301.767 548.966 301.767C548.065 301.767 547.296 301.944 546.659 302.296C546.022 302.639 545.503 303.114 545.102 303.721C544.71 304.319 544.421 305.004 544.235 305.778C544.049 306.542 543.956 307.345 543.956 308.187V308.804C543.956 309.656 544.044 310.469 544.22 311.243C544.407 312.007 544.695 312.687 545.087 313.285C545.489 313.882 546.008 314.357 546.644 314.71C547.291 315.053 548.069 315.224 548.98 315.224ZM560.586 300.548V316.443H558.838V300.548H560.586ZM558.529 295.95C558.529 295.617 558.632 295.338 558.838 295.112C559.053 294.877 559.347 294.76 559.719 294.76C560.091 294.76 560.385 294.877 560.601 295.112C560.826 295.338 560.939 295.617 560.939 295.95C560.939 296.273 560.826 296.552 560.601 296.787C560.385 297.012 560.091 297.125 559.719 297.125C559.347 297.125 559.053 297.012 558.838 296.787C558.632 296.552 558.529 296.273 558.529 295.95ZM567.123 303.604V322.555H565.36V300.548H567.006L567.123 303.604ZM578.171 308.349V308.657C578.171 309.842 578.034 310.929 577.759 311.919C577.485 312.908 577.089 313.765 576.569 314.489C576.06 315.204 575.428 315.758 574.674 316.15C573.92 316.541 573.063 316.737 572.103 316.737C571.153 316.737 570.306 316.59 569.562 316.296C568.818 316.003 568.176 315.586 567.637 315.048C567.109 314.499 566.683 313.863 566.359 313.138C566.046 312.403 565.826 311.6 565.698 310.729V306.659C565.845 305.7 566.085 304.828 566.418 304.044C566.751 303.261 567.177 302.585 567.696 302.017C568.225 301.449 568.852 301.013 569.577 300.71C570.301 300.406 571.129 300.254 572.059 300.254C573.029 300.254 573.891 300.445 574.645 300.827C575.409 301.199 576.05 301.743 576.569 302.458C577.098 303.163 577.495 304.015 577.759 305.014C578.034 306.003 578.171 307.115 578.171 308.349ZM576.408 308.657V308.349C576.408 307.418 576.31 306.556 576.114 305.763C575.928 304.97 575.639 304.279 575.247 303.692C574.865 303.094 574.376 302.629 573.778 302.296C573.191 301.963 572.49 301.797 571.677 301.797C570.835 301.797 570.115 301.939 569.518 302.223C568.93 302.497 568.441 302.864 568.049 303.325C567.657 303.775 567.349 304.27 567.123 304.808C566.898 305.347 566.732 305.876 566.624 306.395V311.081C566.81 311.826 567.109 312.516 567.52 313.153C567.931 313.779 568.48 314.284 569.165 314.666C569.861 315.038 570.708 315.224 571.707 315.224C572.51 315.224 573.205 315.058 573.793 314.725C574.381 314.392 574.865 313.926 575.247 313.329C575.639 312.731 575.928 312.036 576.114 311.243C576.31 310.45 576.408 309.588 576.408 308.657ZM591.745 313.593V305.396C591.745 304.642 591.588 303.99 591.275 303.442C590.962 302.894 590.501 302.472 589.894 302.179C589.287 301.885 588.538 301.738 587.646 301.738C586.824 301.738 586.089 301.885 585.443 302.179C584.806 302.463 584.302 302.85 583.93 303.339C583.567 303.819 583.386 304.353 583.386 304.94L581.623 304.926C581.623 304.328 581.77 303.751 582.064 303.192C582.358 302.634 582.774 302.135 583.313 301.694C583.851 301.253 584.493 300.905 585.237 300.651C585.991 300.386 586.819 300.254 587.72 300.254C588.856 300.254 589.855 300.445 590.717 300.827C591.588 301.209 592.269 301.782 592.759 302.546C593.248 303.31 593.493 304.27 593.493 305.425V313.109C593.493 313.657 593.532 314.225 593.611 314.813C593.699 315.4 593.821 315.885 593.978 316.267V316.443H592.112C591.995 316.091 591.902 315.65 591.833 315.121C591.774 314.583 591.745 314.073 591.745 313.593ZM592.156 307.188L592.186 308.54H588.733C587.832 308.54 587.024 308.623 586.309 308.789C585.604 308.946 585.007 309.181 584.517 309.495C584.027 309.798 583.65 310.166 583.386 310.596C583.131 311.027 583.004 311.517 583.004 312.066C583.004 312.634 583.146 313.153 583.43 313.623C583.724 314.093 584.135 314.47 584.664 314.754C585.203 315.028 585.839 315.165 586.574 315.165C587.553 315.165 588.415 314.984 589.159 314.622C589.914 314.259 590.535 313.784 591.025 313.197C591.515 312.609 591.843 311.968 592.009 311.272L592.773 312.286C592.646 312.776 592.411 313.28 592.068 313.799C591.735 314.308 591.299 314.788 590.761 315.239C590.222 315.679 589.585 316.042 588.851 316.326C588.126 316.6 587.304 316.737 586.383 316.737C585.345 316.737 584.439 316.541 583.665 316.15C582.901 315.758 582.304 315.224 581.873 314.548C581.452 313.863 581.241 313.089 581.241 312.227C581.241 311.444 581.408 310.743 581.741 310.126C582.074 309.5 582.554 308.971 583.18 308.54C583.817 308.099 584.581 307.766 585.472 307.541C586.373 307.306 587.382 307.188 588.498 307.188H592.156ZM600.163 293.878V316.443H598.415V293.878H600.163ZM484.708 349.93V351.443H471.325V350.077L478.332 342.129C479.204 341.14 479.899 340.273 480.418 339.529C480.938 338.775 481.31 338.089 481.535 337.472C481.77 336.846 481.888 336.238 481.888 335.651C481.888 334.789 481.716 334.03 481.373 333.374C481.04 332.718 480.541 332.203 479.875 331.831C479.209 331.459 478.386 331.273 477.407 331.273C476.427 331.273 475.575 331.484 474.851 331.905C474.126 332.326 473.568 332.913 473.176 333.668C472.794 334.412 472.603 335.259 472.603 336.209H470.855C470.855 335.034 471.114 333.956 471.633 332.977C472.162 331.998 472.916 331.219 473.896 330.641C474.875 330.054 476.046 329.76 477.407 329.76C478.7 329.76 479.811 329.99 480.742 330.45C481.672 330.901 482.387 331.552 482.887 332.404C483.396 333.256 483.65 334.285 483.65 335.489C483.65 336.136 483.533 336.787 483.298 337.443C483.073 338.099 482.759 338.755 482.358 339.412C481.966 340.058 481.515 340.7 481.006 341.336C480.507 341.973 479.983 342.6 479.434 343.217L473.47 349.93H484.708ZM502.131 344.539V346.037H486.985V345.024L496.872 330.054H498.341L496.255 333.682L489.13 344.539H502.131ZM498.797 330.054V351.443H497.048V330.054H498.797ZM518.188 350.224C518.933 350.224 519.628 350.087 520.275 349.813C520.931 349.529 521.469 349.112 521.89 348.564C522.321 348.006 522.566 347.325 522.625 346.522H524.3C524.251 347.531 523.942 348.432 523.374 349.225C522.816 350.009 522.081 350.626 521.171 351.076C520.27 351.517 519.276 351.737 518.188 351.737C517.082 351.737 516.102 351.536 515.25 351.135C514.408 350.733 513.703 350.175 513.135 349.46C512.567 348.735 512.136 347.893 511.842 346.933C511.558 345.964 511.416 344.921 511.416 343.804V343.187C511.416 342.071 511.558 341.033 511.842 340.073C512.136 339.103 512.567 338.261 513.135 337.546C513.703 336.821 514.408 336.258 515.25 335.856C516.093 335.455 517.067 335.254 518.174 335.254C519.31 335.254 520.328 335.484 521.229 335.945C522.14 336.405 522.865 337.056 523.404 337.898C523.952 338.741 524.251 339.74 524.3 340.895H522.625C522.576 340.043 522.351 339.309 521.949 338.692C521.548 338.075 521.019 337.6 520.363 337.267C519.706 336.934 518.977 336.767 518.174 336.767C517.273 336.767 516.504 336.944 515.867 337.296C515.231 337.639 514.712 338.114 514.31 338.721C513.918 339.319 513.629 340.004 513.443 340.778C513.257 341.542 513.164 342.345 513.164 343.187V343.804C513.164 344.656 513.252 345.469 513.429 346.243C513.615 347.007 513.904 347.687 514.295 348.285C514.697 348.882 515.216 349.357 515.853 349.71C516.499 350.053 517.278 350.224 518.188 350.224ZM526.871 343.745V343.261C526.871 342.105 527.037 341.037 527.37 340.058C527.703 339.079 528.178 338.231 528.795 337.517C529.422 336.802 530.171 336.248 531.043 335.856C531.914 335.455 532.884 335.254 533.952 335.254C535.029 335.254 536.003 335.455 536.875 335.856C537.747 336.248 538.496 336.802 539.123 337.517C539.75 338.231 540.229 339.079 540.562 340.058C540.895 341.037 541.062 342.105 541.062 343.261V343.745C541.062 344.901 540.895 345.969 540.562 346.948C540.229 347.918 539.75 348.76 539.123 349.475C538.506 350.19 537.761 350.748 536.89 351.15C536.018 351.541 535.048 351.737 533.981 351.737C532.904 351.737 531.929 351.541 531.058 351.15C530.186 350.748 529.437 350.19 528.81 349.475C528.183 348.76 527.703 347.918 527.37 346.948C527.037 345.969 526.871 344.901 526.871 343.745ZM528.619 343.261V343.745C528.619 344.617 528.736 345.445 528.971 346.228C529.206 347.002 529.549 347.692 530 348.3C530.45 348.897 531.009 349.367 531.675 349.71C532.34 350.053 533.109 350.224 533.981 350.224C534.843 350.224 535.602 350.053 536.258 349.71C536.924 349.367 537.482 348.897 537.933 348.3C538.383 347.692 538.721 347.002 538.946 346.228C539.181 345.445 539.299 344.617 539.299 343.745V343.261C539.299 342.399 539.181 341.581 538.946 340.807C538.721 340.034 538.378 339.343 537.918 338.736C537.468 338.129 536.909 337.649 536.243 337.296C535.577 336.944 534.813 336.767 533.952 336.767C533.09 336.767 532.326 336.944 531.66 337.296C531.004 337.649 530.445 338.129 529.985 338.736C529.535 339.343 529.192 340.034 528.957 340.807C528.731 341.581 528.619 342.399 528.619 343.261ZM546.659 328.878V351.443H544.911V328.878H546.659ZM551.301 350.371C551.301 350.028 551.409 349.739 551.625 349.504C551.85 349.259 552.153 349.137 552.535 349.137C552.927 349.137 553.236 349.254 553.461 349.489C553.686 349.725 553.799 350.018 553.799 350.371C553.799 350.704 553.686 350.988 553.461 351.223C553.236 351.458 552.927 351.576 552.535 351.576C552.153 351.576 551.85 351.458 551.625 351.223C551.409 350.988 551.301 350.704 551.301 350.371Z" fill="#FDFBF9"/>
</svg>
