<svg width="728" height="404" viewBox="0 0 728 404" fill="none" xmlns="http://www.w3.org/2000/svg">
<rect x="0.845703" y="0.113281" width="727.094" height="403.663" rx="11.1571" fill="#0567FF" fill-opacity="0.25"/>
<rect x="6.4375" y="6.01953" width="23.6561" height="391.297" fill="#FDFBF9" fill-opacity="0.1"/>
<rect x="35.9473" y="6.01953" width="23.6561" height="391.297" fill="#FDFBF9" fill-opacity="0.1"/>
<rect x="66.0332" y="6.01953" width="23.6561" height="391.297" fill="#FDFBF9" fill-opacity="0.1"/>
<rect x="96.1191" y="6.01953" width="23.6561" height="391.297" fill="#FDFBF9" fill-opacity="0.1"/>
<rect x="126.207" y="6.01953" width="23.6561" height="391.297" fill="#FDFBF9" fill-opacity="0.1"/>
<rect x="156.293" y="6.01953" width="23.6561" height="391.297" fill="#FDFBF9" fill-opacity="0.1"/>
<rect x="186.379" y="6.01953" width="23.6561" height="391.297" fill="#FDFBF9" fill-opacity="0.1"/>
<rect x="216.467" y="6.01953" width="23.6561" height="391.297" fill="#FDFBF9" fill-opacity="0.1"/>
<rect x="246.553" y="6.01953" width="23.6561" height="391.297" fill="#FDFBF9" fill-opacity="0.1"/>
<rect x="276.641" y="6.01953" width="23.6561" height="391.297" fill="#FDFBF9" fill-opacity="0.1"/>
<rect x="306.727" y="6.01953" width="23.6561" height="391.297" fill="#FDFBF9" fill-opacity="0.1"/>
<rect x="336.812" y="6.01953" width="23.6561" height="391.297" fill="#FDFBF9" fill-opacity="0.1"/>
<rect x="366.9" y="6.01953" width="23.6561" height="391.297" fill="#FDFBF9" fill-opacity="0.1"/>
<rect x="396.986" y="6.01953" width="23.6561" height="391.297" fill="#FDFBF9" fill-opacity="0.1"/>
<rect x="427.072" y="6.01953" width="23.6561" height="391.297" fill="#FDFBF9" fill-opacity="0.1"/>
<rect x="457.16" y="6.01953" width="23.6561" height="391.297" fill="#FDFBF9" fill-opacity="0.1"/>
<rect x="487.246" y="6.01953" width="23.6561" height="391.297" fill="#FDFBF9" fill-opacity="0.1"/>
<rect x="517.332" y="6.01953" width="23.6561" height="391.297" fill="#FDFBF9" fill-opacity="0.1"/>
<rect x="547.42" y="6.01953" width="23.6561" height="391.297" fill="#FDFBF9" fill-opacity="0.1"/>
<rect x="577.506" y="6.01953" width="23.6561" height="391.297" fill="#FDFBF9" fill-opacity="0.1"/>
<rect x="607.594" y="6.01953" width="23.6561" height="391.297" fill="#FDFBF9" fill-opacity="0.1"/>
<rect x="637.68" y="6.01953" width="23.6561" height="391.297" fill="#FDFBF9" fill-opacity="0.1"/>
<rect x="667.766" y="6.01953" width="23.6561" height="391.297" fill="#FDFBF9" fill-opacity="0.1"/>
<rect x="697.854" y="6.01953" width="23.6561" height="391.297" fill="#FDFBF9" fill-opacity="0.1"/>
<rect x="5.85938" y="35.2148" width="714.558" height="361.04" rx="11.1631" fill="#0567FF" fill-opacity="0.5"/>
<path d="M727.939 25.1045L0.84552 25.1044L0.845521 11.2786C0.845522 5.11211 5.84444 0.113188 12.0109 0.113188L716.774 0.11325C722.941 0.11325 727.939 5.11217 727.939 11.2786L727.939 25.1045Z" fill="#0567FF"/>
<path d="M345.211 188.521L337.807 208.633H335.926L344.006 187.243H345.314L345.211 188.521ZM351.939 208.633L344.521 188.521L344.418 187.243H345.725L353.82 208.633H351.939ZM350.617 201.082V202.639H339.261V201.082H350.617ZM343.859 185.554L346.665 181.44H348.781L345.387 185.554H343.859ZM358.33 195.367V208.633H356.582V192.737H358.286L358.33 195.367ZM363.956 192.62L363.912 194.236C363.716 194.206 363.526 194.182 363.339 194.162C363.153 194.143 362.953 194.133 362.737 194.133C361.973 194.133 361.302 194.275 360.724 194.559C360.156 194.833 359.677 195.22 359.285 195.72C358.893 196.209 358.594 196.787 358.389 197.453C358.183 198.109 358.065 198.814 358.036 199.569L357.39 199.818C357.39 198.78 357.497 197.816 357.713 196.924C357.928 196.033 358.256 195.254 358.697 194.588C359.148 193.913 359.711 193.389 360.387 193.017C361.072 192.635 361.875 192.444 362.796 192.444C363.021 192.444 363.241 192.463 363.457 192.502C363.682 192.532 363.849 192.571 363.956 192.62ZM372.565 208.927C371.527 208.927 370.572 208.736 369.701 208.354C368.839 207.972 368.085 207.433 367.438 206.738C366.802 206.042 366.307 205.22 365.954 204.27C365.612 203.31 365.44 202.262 365.44 201.126V200.494C365.44 199.27 365.621 198.163 365.984 197.174C366.346 196.185 366.846 195.338 367.482 194.633C368.119 193.927 368.844 193.389 369.656 193.017C370.479 192.635 371.341 192.444 372.242 192.444C373.251 192.444 374.147 192.625 374.93 192.987C375.714 193.34 376.37 193.844 376.899 194.5C377.438 195.147 377.844 195.916 378.118 196.807C378.393 197.688 378.53 198.663 378.53 199.73V200.803H366.498V199.304H376.781V199.099C376.762 198.207 376.581 197.375 376.238 196.601C375.905 195.818 375.405 195.181 374.739 194.691C374.073 194.202 373.241 193.957 372.242 193.957C371.498 193.957 370.812 194.113 370.185 194.427C369.568 194.74 369.035 195.191 368.584 195.778C368.143 196.356 367.801 197.047 367.556 197.85C367.321 198.643 367.203 199.525 367.203 200.494V201.126C367.203 202.007 367.33 202.83 367.585 203.594C367.849 204.348 368.222 205.014 368.702 205.592C369.191 206.17 369.769 206.62 370.435 206.943C371.101 207.267 371.836 207.428 372.639 207.428C373.579 207.428 374.411 207.257 375.136 206.914C375.861 206.561 376.512 206.008 377.09 205.254L378.192 206.106C377.849 206.615 377.418 207.085 376.899 207.516C376.39 207.947 375.778 208.29 375.063 208.545C374.348 208.799 373.515 208.927 372.565 208.927ZM391.663 205.783V197.585C391.663 196.831 391.506 196.18 391.193 195.631C390.88 195.083 390.419 194.662 389.812 194.368C389.205 194.074 388.456 193.927 387.564 193.927C386.742 193.927 386.007 194.074 385.361 194.368C384.724 194.652 384.22 195.039 383.848 195.529C383.485 196.009 383.304 196.542 383.304 197.13L381.541 197.115C381.541 196.518 381.688 195.94 381.982 195.382C382.276 194.824 382.692 194.324 383.231 193.883C383.769 193.443 384.411 193.095 385.155 192.84C385.909 192.576 386.737 192.444 387.638 192.444C388.774 192.444 389.773 192.635 390.635 193.017C391.506 193.399 392.187 193.971 392.677 194.735C393.167 195.499 393.411 196.459 393.411 197.615V205.298C393.411 205.846 393.451 206.415 393.529 207.002C393.617 207.59 393.739 208.075 393.896 208.457V208.633H392.03C391.913 208.28 391.82 207.84 391.751 207.311C391.693 206.772 391.663 206.263 391.663 205.783ZM392.075 199.378L392.104 200.729H388.652C387.751 200.729 386.943 200.812 386.228 200.979C385.522 201.136 384.925 201.371 384.435 201.684C383.946 201.988 383.569 202.355 383.304 202.786C383.05 203.217 382.922 203.707 382.922 204.255C382.922 204.823 383.064 205.342 383.348 205.812C383.642 206.282 384.053 206.659 384.582 206.943C385.121 207.218 385.758 207.355 386.492 207.355C387.471 207.355 388.333 207.174 389.078 206.811C389.832 206.449 390.454 205.974 390.943 205.386C391.433 204.799 391.761 204.157 391.928 203.462L392.692 204.475C392.564 204.965 392.329 205.469 391.986 205.988C391.653 206.498 391.218 206.978 390.679 207.428C390.14 207.869 389.504 208.231 388.769 208.515C388.044 208.79 387.222 208.927 386.301 208.927C385.263 208.927 384.357 208.731 383.583 208.339C382.819 207.947 382.222 207.413 381.791 206.738C381.37 206.052 381.159 205.278 381.159 204.417C381.159 203.633 381.326 202.933 381.659 202.316C381.992 201.689 382.472 201.16 383.098 200.729C383.735 200.288 384.499 199.955 385.39 199.73C386.291 199.495 387.3 199.378 388.417 199.378H392.075ZM313.699 230.793V249.744H311.936V227.737H313.582L313.699 230.793ZM324.747 235.538V235.847C324.747 237.032 324.61 238.119 324.335 239.108C324.061 240.097 323.665 240.954 323.146 241.679C322.636 242.394 322.005 242.947 321.25 243.339C320.496 243.731 319.639 243.927 318.68 243.927C317.73 243.927 316.882 243.78 316.138 243.486C315.394 243.192 314.752 242.776 314.214 242.237C313.685 241.689 313.259 241.052 312.935 240.327C312.622 239.593 312.402 238.79 312.274 237.918V233.849C312.421 232.889 312.661 232.017 312.994 231.234C313.327 230.45 313.753 229.775 314.272 229.206C314.801 228.638 315.428 228.203 316.153 227.899C316.877 227.595 317.705 227.444 318.635 227.444C319.605 227.444 320.467 227.635 321.221 228.017C321.985 228.389 322.626 228.932 323.146 229.647C323.674 230.352 324.071 231.204 324.335 232.203C324.61 233.193 324.747 234.304 324.747 235.538ZM322.984 235.847V235.538C322.984 234.608 322.886 233.746 322.69 232.953C322.504 232.159 322.215 231.469 321.823 230.881C321.441 230.284 320.952 229.819 320.354 229.486C319.767 229.153 319.066 228.986 318.254 228.986C317.411 228.986 316.691 229.128 316.094 229.412C315.506 229.686 315.017 230.054 314.625 230.514C314.233 230.964 313.925 231.459 313.699 231.998C313.474 232.536 313.308 233.065 313.2 233.584V238.271C313.386 239.015 313.685 239.705 314.096 240.342C314.507 240.969 315.056 241.473 315.741 241.855C316.437 242.227 317.284 242.413 318.283 242.413C319.086 242.413 319.781 242.247 320.369 241.914C320.957 241.581 321.441 241.116 321.823 240.518C322.215 239.921 322.504 239.226 322.69 238.432C322.886 237.639 322.984 236.777 322.984 235.847ZM330.403 230.367V243.633H328.655V227.737H330.359L330.403 230.367ZM336.029 227.62L335.985 229.236C335.789 229.206 335.598 229.182 335.412 229.162C335.226 229.143 335.025 229.133 334.81 229.133C334.046 229.133 333.375 229.275 332.797 229.559C332.229 229.833 331.749 230.22 331.358 230.72C330.966 231.209 330.667 231.787 330.462 232.453C330.256 233.109 330.138 233.814 330.109 234.569L329.463 234.818C329.463 233.78 329.57 232.816 329.786 231.924C330.001 231.033 330.329 230.254 330.77 229.588C331.221 228.913 331.784 228.389 332.459 228.017C333.145 227.635 333.948 227.444 334.869 227.444C335.094 227.444 335.314 227.463 335.53 227.502C335.755 227.532 335.922 227.571 336.029 227.62ZM340.745 227.737V243.633H338.997V227.737H340.745ZM338.688 223.139C338.688 222.806 338.791 222.527 338.997 222.302C339.212 222.067 339.506 221.949 339.878 221.949C340.25 221.949 340.544 222.067 340.76 222.302C340.985 222.527 341.098 222.806 341.098 223.139C341.098 223.462 340.985 223.742 340.76 223.977C340.544 224.202 340.25 224.314 339.878 224.314C339.506 224.314 339.212 224.202 338.997 223.977C338.791 223.742 338.688 223.462 338.688 223.139ZM347.297 231.131V243.633H345.549V227.737H347.224L347.297 231.131ZM346.9 234.701L346.122 234.26C346.181 233.32 346.372 232.438 346.695 231.616C347.018 230.793 347.454 230.068 348.002 229.442C348.561 228.815 349.212 228.325 349.956 227.972C350.71 227.62 351.543 227.444 352.454 227.444C353.247 227.444 353.957 227.551 354.584 227.767C355.211 227.982 355.744 228.325 356.185 228.795C356.626 229.265 356.959 229.868 357.184 230.602C357.419 231.337 357.537 232.233 357.537 233.291V243.633H355.774V233.276C355.774 232.179 355.622 231.322 355.318 230.705C355.015 230.078 354.584 229.633 354.025 229.368C353.467 229.104 352.806 228.971 352.042 228.971C351.2 228.971 350.461 229.158 349.824 229.53C349.197 229.892 348.668 230.367 348.237 230.955C347.816 231.533 347.493 232.154 347.268 232.82C347.042 233.477 346.92 234.103 346.9 234.701ZM367.952 242.413C368.697 242.413 369.392 242.276 370.038 242.002C370.695 241.718 371.233 241.302 371.654 240.753C372.085 240.195 372.33 239.515 372.389 238.711H374.064C374.015 239.72 373.706 240.621 373.138 241.415C372.58 242.198 371.845 242.815 370.935 243.266C370.034 243.706 369.039 243.927 367.952 243.927C366.846 243.927 365.866 243.726 365.014 243.324C364.172 242.923 363.467 242.365 362.899 241.65C362.331 240.925 361.9 240.083 361.606 239.123C361.322 238.153 361.18 237.11 361.18 235.994V235.377C361.18 234.26 361.322 233.222 361.606 232.262C361.9 231.293 362.331 230.45 362.899 229.735C363.467 229.011 364.172 228.447 365.014 228.046C365.856 227.644 366.831 227.444 367.938 227.444C369.074 227.444 370.092 227.674 370.993 228.134C371.904 228.594 372.629 229.246 373.168 230.088C373.716 230.93 374.015 231.929 374.064 233.085H372.389C372.34 232.233 372.115 231.498 371.713 230.881C371.312 230.264 370.783 229.789 370.127 229.456C369.47 229.123 368.741 228.957 367.938 228.957C367.037 228.957 366.268 229.133 365.631 229.486C364.995 229.828 364.476 230.303 364.074 230.911C363.682 231.508 363.393 232.194 363.207 232.967C363.021 233.731 362.928 234.534 362.928 235.377V235.994C362.928 236.846 363.016 237.659 363.193 238.432C363.379 239.196 363.668 239.877 364.059 240.474C364.461 241.072 364.98 241.547 365.616 241.899C366.263 242.242 367.041 242.413 367.952 242.413ZM379.558 227.737V243.633H377.81V227.737H379.558ZM377.501 223.139C377.501 222.806 377.604 222.527 377.81 222.302C378.025 222.067 378.319 221.949 378.691 221.949C379.063 221.949 379.357 222.067 379.573 222.302C379.798 222.527 379.911 222.806 379.911 223.139C379.911 223.462 379.798 223.742 379.573 223.977C379.357 224.202 379.063 224.314 378.691 224.314C378.319 224.314 378.025 224.202 377.81 223.977C377.604 223.742 377.501 223.462 377.501 223.139ZM386.095 230.793V249.744H384.333V227.737H385.978L386.095 230.793ZM397.143 235.538V235.847C397.143 237.032 397.006 238.119 396.732 239.108C396.457 240.097 396.061 240.954 395.542 241.679C395.032 242.394 394.401 242.947 393.646 243.339C392.892 243.731 392.035 243.927 391.076 243.927C390.126 243.927 389.278 243.78 388.534 243.486C387.79 243.192 387.148 242.776 386.61 242.237C386.081 241.689 385.655 241.052 385.331 240.327C385.018 239.593 384.798 238.79 384.67 237.918V233.849C384.817 232.889 385.057 232.017 385.39 231.234C385.723 230.45 386.149 229.775 386.668 229.206C387.197 228.638 387.824 228.203 388.549 227.899C389.274 227.595 390.101 227.444 391.032 227.444C392.001 227.444 392.863 227.635 393.617 228.017C394.381 228.389 395.022 228.932 395.542 229.647C396.07 230.352 396.467 231.204 396.732 232.203C397.006 233.193 397.143 234.304 397.143 235.538ZM395.38 235.847V235.538C395.38 234.608 395.282 233.746 395.086 232.953C394.9 232.159 394.611 231.469 394.219 230.881C393.837 230.284 393.348 229.819 392.75 229.486C392.163 229.153 391.462 228.986 390.65 228.986C389.807 228.986 389.087 229.128 388.49 229.412C387.902 229.686 387.413 230.054 387.021 230.514C386.629 230.964 386.321 231.459 386.095 231.998C385.87 232.536 385.704 233.065 385.596 233.584V238.271C385.782 239.015 386.081 239.705 386.492 240.342C386.903 240.969 387.452 241.473 388.137 241.855C388.833 242.227 389.68 242.413 390.679 242.413C391.482 242.413 392.177 242.247 392.765 241.914C393.353 241.581 393.837 241.116 394.219 240.518C394.611 239.921 394.9 239.226 395.086 238.432C395.282 237.639 395.38 236.777 395.38 235.847ZM410.717 240.783V232.585C410.717 231.831 410.56 231.18 410.247 230.631C409.934 230.083 409.473 229.662 408.866 229.368C408.259 229.074 407.51 228.927 406.618 228.927C405.796 228.927 405.061 229.074 404.415 229.368C403.778 229.652 403.274 230.039 402.902 230.529C402.539 231.009 402.358 231.542 402.358 232.13L400.595 232.115C400.595 231.518 400.742 230.94 401.036 230.382C401.33 229.824 401.746 229.324 402.285 228.883C402.823 228.443 403.465 228.095 404.209 227.84C404.963 227.576 405.791 227.444 406.692 227.444C407.828 227.444 408.827 227.635 409.689 228.017C410.56 228.399 411.241 228.971 411.731 229.735C412.22 230.499 412.465 231.459 412.465 232.615V240.298C412.465 240.846 412.504 241.415 412.583 242.002C412.671 242.59 412.793 243.075 412.95 243.457V243.633H411.084C410.967 243.28 410.874 242.84 410.805 242.311C410.746 241.772 410.717 241.263 410.717 240.783ZM411.128 234.378L411.158 235.729H407.705C406.804 235.729 405.996 235.812 405.282 235.979C404.576 236.136 403.979 236.371 403.489 236.684C403 236.988 402.622 237.355 402.358 237.786C402.103 238.217 401.976 238.707 401.976 239.255C401.976 239.823 402.118 240.342 402.402 240.812C402.696 241.282 403.107 241.659 403.636 241.943C404.175 242.218 404.811 242.355 405.546 242.355C406.525 242.355 407.387 242.174 408.132 241.811C408.886 241.449 409.508 240.974 409.997 240.386C410.487 239.799 410.815 239.157 410.982 238.462L411.745 239.475C411.618 239.965 411.383 240.469 411.04 240.988C410.707 241.498 410.271 241.978 409.733 242.428C409.194 242.869 408.558 243.231 407.823 243.515C407.098 243.79 406.276 243.927 405.355 243.927C404.317 243.927 403.411 243.731 402.637 243.339C401.873 242.947 401.276 242.413 400.845 241.738C400.424 241.052 400.213 240.278 400.213 239.417C400.213 238.633 400.38 237.933 400.713 237.316C401.046 236.689 401.526 236.16 402.152 235.729C402.789 235.288 403.553 234.955 404.444 234.73C405.345 234.495 406.354 234.378 407.47 234.378H411.128ZM419.135 221.068V243.633H417.387V221.068H419.135ZM337.528 277.12V278.633H324.144V277.267L331.152 269.319C332.024 268.33 332.719 267.463 333.238 266.719C333.757 265.964 334.129 265.279 334.355 264.662C334.59 264.035 334.707 263.428 334.707 262.84C334.707 261.978 334.536 261.219 334.193 260.563C333.86 259.907 333.36 259.393 332.695 259.021C332.029 258.648 331.206 258.462 330.226 258.462C329.247 258.462 328.395 258.673 327.67 259.094C326.946 259.515 326.387 260.103 325.996 260.857C325.614 261.601 325.423 262.448 325.423 263.399H323.674C323.674 262.223 323.934 261.146 324.453 260.167C324.982 259.187 325.736 258.409 326.715 257.831C327.695 257.243 328.865 256.949 330.226 256.949C331.519 256.949 332.631 257.179 333.561 257.64C334.492 258.09 335.207 258.742 335.706 259.594C336.215 260.446 336.47 261.474 336.47 262.679C336.47 263.325 336.353 263.976 336.117 264.633C335.892 265.289 335.579 265.945 335.177 266.601C334.785 267.247 334.335 267.889 333.826 268.526C333.326 269.162 332.802 269.789 332.254 270.406L326.289 277.12H337.528ZM354.951 271.728V273.227H339.805V272.213L349.692 257.243H351.161L349.075 260.872L341.95 271.728H354.951ZM351.616 257.243V278.633H349.868V257.243H351.616ZM371.008 277.413C371.752 277.413 372.448 277.276 373.094 277.002C373.75 276.718 374.289 276.302 374.71 275.753C375.141 275.195 375.386 274.515 375.445 273.711H377.119C377.07 274.72 376.762 275.621 376.194 276.415C375.636 277.198 374.901 277.815 373.99 278.266C373.089 278.706 372.095 278.927 371.008 278.927C369.901 278.927 368.922 278.726 368.07 278.324C367.228 277.923 366.522 277.365 365.954 276.65C365.386 275.925 364.955 275.083 364.662 274.123C364.378 273.153 364.236 272.11 364.236 270.994V270.377C364.236 269.26 364.378 268.222 364.662 267.262C364.955 266.293 365.386 265.45 365.954 264.735C366.522 264.011 367.228 263.447 368.07 263.046C368.912 262.644 369.887 262.444 370.993 262.444C372.129 262.444 373.148 262.674 374.049 263.134C374.96 263.594 375.685 264.246 376.223 265.088C376.772 265.93 377.07 266.929 377.119 268.085H375.445C375.396 267.233 375.17 266.498 374.769 265.881C374.367 265.264 373.838 264.789 373.182 264.456C372.526 264.123 371.796 263.957 370.993 263.957C370.092 263.957 369.323 264.133 368.687 264.486C368.05 264.828 367.531 265.303 367.13 265.911C366.738 266.508 366.449 267.194 366.263 267.967C366.077 268.731 365.984 269.534 365.984 270.377V270.994C365.984 271.846 366.072 272.659 366.248 273.432C366.434 274.196 366.723 274.877 367.115 275.474C367.516 276.072 368.036 276.547 368.672 276.899C369.319 277.242 370.097 277.413 371.008 277.413ZM379.69 270.935V270.45C379.69 269.294 379.857 268.227 380.19 267.247C380.523 266.268 380.998 265.421 381.615 264.706C382.242 263.991 382.991 263.438 383.862 263.046C384.734 262.644 385.704 262.444 386.771 262.444C387.849 262.444 388.823 262.644 389.695 263.046C390.566 263.438 391.316 263.991 391.942 264.706C392.569 265.421 393.049 266.268 393.382 267.247C393.715 268.227 393.882 269.294 393.882 270.45V270.935C393.882 272.091 393.715 273.158 393.382 274.137C393.049 275.107 392.569 275.949 391.942 276.664C391.325 277.379 390.581 277.937 389.709 278.339C388.838 278.731 387.868 278.927 386.801 278.927C385.723 278.927 384.749 278.731 383.877 278.339C383.005 277.937 382.256 277.379 381.629 276.664C381.003 275.949 380.523 275.107 380.19 274.137C379.857 273.158 379.69 272.091 379.69 270.935ZM381.438 270.45V270.935C381.438 271.807 381.556 272.634 381.791 273.418C382.026 274.191 382.369 274.882 382.819 275.489C383.27 276.086 383.828 276.557 384.494 276.899C385.16 277.242 385.929 277.413 386.801 277.413C387.662 277.413 388.421 277.242 389.078 276.899C389.744 276.557 390.302 276.086 390.752 275.489C391.203 274.882 391.541 274.191 391.766 273.418C392.001 272.634 392.119 271.807 392.119 270.935V270.45C392.119 269.588 392.001 268.77 391.766 267.997C391.541 267.223 391.198 266.533 390.738 265.925C390.287 265.318 389.729 264.838 389.063 264.486C388.397 264.133 387.633 263.957 386.771 263.957C385.909 263.957 385.145 264.133 384.479 264.486C383.823 264.838 383.265 265.318 382.805 265.925C382.354 266.533 382.011 267.223 381.776 267.997C381.551 268.77 381.438 269.588 381.438 270.45ZM399.479 256.068V278.633H397.73V256.068H399.479ZM404.121 277.56C404.121 277.218 404.229 276.929 404.444 276.694C404.669 276.449 404.973 276.326 405.355 276.326C405.747 276.326 406.055 276.444 406.28 276.679C406.506 276.914 406.618 277.208 406.618 277.56C406.618 277.893 406.506 278.177 406.28 278.412C406.055 278.648 405.747 278.765 405.355 278.765C404.973 278.765 404.669 278.648 404.444 278.412C404.229 278.177 404.121 277.893 404.121 277.56Z" fill="#FDFBF9"/>
</svg>
