<svg width="1051" height="591" viewBox="0 0 1051 591" fill="none" xmlns="http://www.w3.org/2000/svg">
<path d="M0.519531 11.9013C0.519531 5.73937 5.51475 0.744141 11.6767 0.744141H1038.81C1044.97 0.744141 1049.96 5.73936 1049.96 11.9013V579.641C1049.96 585.803 1044.97 590.798 1038.81 590.798H11.6767C5.51478 590.798 0.519531 585.803 0.519531 579.641V11.9013Z" fill="#0567FF" fill-opacity="0.25"/>
<path d="M12.6348 10.7734H45.2287V579.913H12.6348V10.7734Z" fill="#FDFBF9" fill-opacity="0.1"/>
<path d="M55.2578 10.7734H87.8517V579.913H55.2578V10.7734Z" fill="#FDFBF9" fill-opacity="0.1"/>
<path d="M100.387 10.7734H132.981V579.913H100.387V10.7734Z" fill="#FDFBF9" fill-opacity="0.1"/>
<path d="M143.01 10.7734H175.604V579.913H143.01V10.7734Z" fill="#FDFBF9" fill-opacity="0.1"/>
<path d="M185.633 10.7734H218.227V579.913H185.633V10.7734Z" fill="#FDFBF9" fill-opacity="0.1"/>
<path d="M228.256 10.7734H260.85V579.913H228.256V10.7734Z" fill="#FDFBF9" fill-opacity="0.1"/>
<path d="M273.385 10.7734H305.979V579.913H273.385V10.7734Z" fill="#FDFBF9" fill-opacity="0.1"/>
<path d="M316.008 10.7734H348.602V579.913H316.008V10.7734Z" fill="#FDFBF9" fill-opacity="0.1"/>
<path d="M358.631 10.7734H391.225V579.913H358.631V10.7734Z" fill="#FDFBF9" fill-opacity="0.1"/>
<path d="M401.254 10.7734H433.848V579.913H401.254V10.7734Z" fill="#FDFBF9" fill-opacity="0.1"/>
<path d="M446.385 10.7734H478.979V579.913H446.385V10.7734Z" fill="#FDFBF9" fill-opacity="0.1"/>
<path d="M489.006 10.7734H521.6V579.913H489.006V10.7734Z" fill="#FDFBF9" fill-opacity="0.1"/>
<path d="M531.629 10.7734H564.223V579.913H531.629V10.7734Z" fill="#FDFBF9" fill-opacity="0.1"/>
<path d="M574.252 10.7734H606.846V579.913H574.252V10.7734Z" fill="#FDFBF9" fill-opacity="0.1"/>
<path d="M619.383 10.7734H651.977V579.913H619.383V10.7734Z" fill="#FDFBF9" fill-opacity="0.1"/>
<path d="M662.006 10.7734H694.6V579.913H662.006V10.7734Z" fill="#FDFBF9" fill-opacity="0.1"/>
<path d="M704.627 10.7734H737.221V579.913H704.627V10.7734Z" fill="#FDFBF9" fill-opacity="0.1"/>
<path d="M747.25 10.7734H779.844V579.913H747.25V10.7734Z" fill="#FDFBF9" fill-opacity="0.1"/>
<path d="M792.381 10.7734H824.975V579.913H792.381V10.7734Z" fill="#FDFBF9" fill-opacity="0.1"/>
<path d="M835.004 10.7734H867.598V579.913H835.004V10.7734Z" fill="#FDFBF9" fill-opacity="0.1"/>
<path d="M877.627 10.7734H910.221V579.913H877.627V10.7734Z" fill="#FDFBF9" fill-opacity="0.1"/>
<path d="M920.248 10.7734H955.349V579.913H920.248V10.7734Z" fill="#FDFBF9" fill-opacity="0.1"/>
<path d="M965.379 10.7734H995.466V579.913H965.379V10.7734Z" fill="#FDFBF9" fill-opacity="0.1"/>
<path d="M1005.49 10.7734H1038.09V579.913H1005.49V10.7734Z" fill="#FDFBF9" fill-opacity="0.1"/>
<rect x="12.6348" y="35.8447" width="764.703" height="544.067" rx="11.1631" fill="#0567FF" fill-opacity="0.5"/>
<rect x="787.367" y="35.8447" width="248.215" height="544.067" rx="11.1631" fill="#0567FF" fill-opacity="0.5"/>
<path d="M1050.62 25.7354L0.0994873 25.7353L0.0994885 11.9094C0.0994891 5.74294 5.0984 0.744019 11.2649 0.744019L1039.46 0.744109C1045.63 0.74411 1050.63 5.74303 1050.63 11.9095L1050.62 25.7354Z" fill="#0567FF"/>
<path d="M353.127 295.078L348.406 308.074H346.477L351.912 293.814H353.156L353.127 295.078ZM357.083 308.074L352.353 295.078L352.324 293.814H353.567L359.023 308.074H357.083ZM356.838 302.795V304.343H348.827V302.795H356.838ZM351.775 292.864L353.675 289.985H355.859L353.234 292.864H351.775ZM362.47 299.142V308.074H360.658V297.477H362.421L362.47 299.142ZM365.78 297.419L365.77 299.103C365.62 299.07 365.477 299.051 365.34 299.044C365.209 299.031 365.059 299.025 364.889 299.025C364.471 299.025 364.102 299.09 363.782 299.221C363.462 299.351 363.191 299.534 362.969 299.769C362.747 300.004 362.571 300.285 362.441 300.611C362.317 300.931 362.235 301.284 362.196 301.669L361.686 301.963C361.686 301.323 361.748 300.722 361.873 300.161C362.003 299.599 362.202 299.103 362.47 298.672C362.738 298.235 363.077 297.895 363.489 297.654C363.906 297.405 364.403 297.281 364.977 297.281C365.108 297.281 365.258 297.298 365.428 297.33C365.597 297.356 365.715 297.386 365.78 297.419ZM371.657 308.27C370.919 308.27 370.25 308.146 369.649 307.898C369.055 307.643 368.542 307.287 368.111 306.83C367.687 306.373 367.36 305.831 367.132 305.205C366.903 304.578 366.789 303.892 366.789 303.148V302.737C366.789 301.875 366.916 301.108 367.171 300.435C367.426 299.756 367.772 299.181 368.209 298.711C368.647 298.241 369.143 297.885 369.698 297.644C370.253 297.402 370.827 297.281 371.422 297.281C372.179 297.281 372.832 297.412 373.38 297.673C373.935 297.934 374.389 298.3 374.742 298.77C375.094 299.234 375.355 299.782 375.525 300.415C375.695 301.042 375.78 301.728 375.78 302.472V303.285H367.866V301.806H373.968V301.669C373.942 301.199 373.844 300.742 373.674 300.298C373.511 299.854 373.25 299.488 372.891 299.201C372.531 298.914 372.042 298.77 371.422 298.77C371.01 298.77 370.631 298.858 370.285 299.035C369.939 299.204 369.642 299.459 369.394 299.798C369.146 300.138 368.953 300.553 368.816 301.042C368.679 301.532 368.611 302.097 368.611 302.737V303.148C368.611 303.651 368.679 304.124 368.816 304.568C368.96 305.005 369.166 305.391 369.433 305.724C369.708 306.057 370.037 306.318 370.423 306.507C370.814 306.697 371.258 306.791 371.755 306.791C372.394 306.791 372.936 306.661 373.38 306.399C373.824 306.138 374.213 305.789 374.546 305.352L375.643 306.223C375.414 306.569 375.124 306.899 374.771 307.212C374.418 307.526 373.984 307.78 373.468 307.976C372.959 308.172 372.355 308.27 371.657 308.27ZM384.144 306.262V300.807C384.144 300.389 384.059 300.027 383.889 299.72C383.726 299.407 383.478 299.165 383.145 298.995C382.812 298.826 382.4 298.741 381.911 298.741C381.454 298.741 381.052 298.819 380.706 298.976C380.367 299.132 380.099 299.338 379.903 299.593C379.714 299.847 379.619 300.122 379.619 300.415H377.807C377.807 300.037 377.905 299.661 378.101 299.289C378.297 298.917 378.578 298.581 378.943 298.28C379.315 297.974 379.759 297.732 380.275 297.556C380.797 297.373 381.379 297.281 382.018 297.281C382.789 297.281 383.468 297.412 384.056 297.673C384.65 297.934 385.113 298.329 385.446 298.858C385.786 299.381 385.956 300.037 385.956 300.827V305.763C385.956 306.115 385.985 306.491 386.044 306.889C386.109 307.287 386.204 307.63 386.328 307.918V308.074H384.438C384.346 307.865 384.274 307.588 384.222 307.242C384.17 306.889 384.144 306.563 384.144 306.262ZM384.457 301.649L384.477 302.923H382.645C382.129 302.923 381.669 302.965 381.264 303.05C380.86 303.128 380.52 303.249 380.246 303.412C379.972 303.576 379.763 303.781 379.619 304.029C379.475 304.271 379.403 304.555 379.403 304.881C379.403 305.214 379.479 305.518 379.629 305.792C379.779 306.066 380.004 306.285 380.305 306.448C380.611 306.605 380.987 306.683 381.431 306.683C381.986 306.683 382.475 306.566 382.9 306.331C383.324 306.096 383.661 305.809 383.909 305.469C384.163 305.13 384.3 304.8 384.32 304.48L385.094 305.352C385.048 305.626 384.924 305.929 384.722 306.262C384.519 306.595 384.248 306.915 383.909 307.222C383.576 307.522 383.177 307.774 382.714 307.976C382.257 308.172 381.741 308.27 381.166 308.27C380.448 308.27 379.818 308.13 379.276 307.849C378.741 307.568 378.323 307.193 378.023 306.723C377.729 306.246 377.582 305.714 377.582 305.126C377.582 304.558 377.693 304.059 377.915 303.628C378.137 303.19 378.457 302.828 378.875 302.541C379.292 302.247 379.795 302.025 380.383 301.875C380.971 301.725 381.627 301.649 382.351 301.649H384.457ZM395.593 299.514V312.148H393.771V297.477H395.436L395.593 299.514ZM402.732 302.688V302.893C402.732 303.664 402.641 304.379 402.458 305.038C402.275 305.691 402.008 306.259 401.655 306.742C401.309 307.225 400.881 307.601 400.372 307.869C399.863 308.136 399.278 308.27 398.619 308.27C397.946 308.27 397.352 308.159 396.837 307.937C396.321 307.715 395.883 307.392 395.524 306.968C395.165 306.543 394.878 306.034 394.662 305.44C394.453 304.846 394.31 304.176 394.231 303.432V302.335C394.31 301.552 394.457 300.85 394.672 300.229C394.888 299.609 395.172 299.08 395.524 298.643C395.883 298.199 396.317 297.863 396.827 297.634C397.336 297.399 397.924 297.281 398.59 297.281C399.256 297.281 399.846 297.412 400.362 297.673C400.878 297.928 401.312 298.293 401.665 298.77C402.017 299.247 402.282 299.818 402.458 300.484C402.641 301.143 402.732 301.878 402.732 302.688ZM400.911 302.893V302.688C400.911 302.159 400.855 301.663 400.744 301.199C400.633 300.729 400.46 300.318 400.225 299.965C399.997 299.606 399.703 299.325 399.344 299.123C398.985 298.914 398.557 298.809 398.061 298.809C397.604 298.809 397.205 298.888 396.866 299.044C396.533 299.201 396.249 299.413 396.014 299.681C395.779 299.942 395.586 300.242 395.436 300.582C395.292 300.915 395.185 301.261 395.113 301.62V304.157C395.243 304.614 395.426 305.045 395.661 305.449C395.896 305.848 396.21 306.171 396.601 306.419C396.993 306.661 397.486 306.781 398.08 306.781C398.57 306.781 398.991 306.68 399.344 306.478C399.703 306.269 399.997 305.985 400.225 305.626C400.46 305.267 400.633 304.855 400.744 304.392C400.855 303.922 400.911 303.422 400.911 302.893ZM406.856 299.142V308.074H405.044V297.477H406.807L406.856 299.142ZM410.166 297.419L410.156 299.103C410.006 299.07 409.862 299.051 409.725 299.044C409.595 299.031 409.444 299.025 409.275 299.025C408.857 299.025 408.488 299.09 408.168 299.221C407.848 299.351 407.577 299.534 407.355 299.769C407.133 300.004 406.957 300.285 406.826 300.611C406.702 300.931 406.621 301.284 406.581 301.669L406.072 301.963C406.072 301.323 406.134 300.722 406.258 300.161C406.389 299.599 406.588 299.103 406.856 298.672C407.123 298.235 407.463 297.895 407.874 297.654C408.292 297.405 408.788 297.281 409.363 297.281C409.493 297.281 409.644 297.298 409.813 297.33C409.983 297.356 410.101 297.386 410.166 297.419ZM413.809 297.477V308.074H411.988V297.477H413.809ZM411.85 294.666C411.85 294.373 411.939 294.125 412.115 293.922C412.298 293.72 412.565 293.619 412.918 293.619C413.264 293.619 413.528 293.72 413.711 293.922C413.901 294.125 413.995 294.373 413.995 294.666C413.995 294.947 413.901 295.189 413.711 295.391C413.528 295.587 413.264 295.685 412.918 295.685C412.565 295.685 412.298 295.587 412.115 295.391C411.939 295.189 411.85 294.947 411.85 294.666ZM418.53 299.74V308.074H416.718V297.477H418.432L418.53 299.74ZM418.099 302.374L417.345 302.345C417.351 301.62 417.459 300.951 417.668 300.337C417.877 299.717 418.171 299.178 418.549 298.721C418.928 298.264 419.379 297.911 419.901 297.663C420.43 297.409 421.014 297.281 421.654 297.281C422.176 297.281 422.647 297.353 423.064 297.497C423.482 297.634 423.838 297.856 424.132 298.163C424.432 298.47 424.661 298.868 424.818 299.358C424.974 299.841 425.053 300.432 425.053 301.13V308.074H423.231V301.111C423.231 300.556 423.149 300.112 422.986 299.779C422.823 299.439 422.585 299.194 422.271 299.044C421.958 298.888 421.572 298.809 421.115 298.809C420.665 298.809 420.254 298.904 419.881 299.093C419.516 299.283 419.199 299.544 418.931 299.877C418.67 300.21 418.465 300.592 418.314 301.023C418.171 301.447 418.099 301.898 418.099 302.374ZM432.045 306.781C432.476 306.781 432.875 306.693 433.24 306.517C433.606 306.341 433.906 306.099 434.141 305.792C434.376 305.479 434.51 305.123 434.543 304.725H436.267C436.234 305.352 436.022 305.936 435.63 306.478C435.245 307.013 434.739 307.447 434.112 307.78C433.485 308.107 432.796 308.27 432.045 308.27C431.249 308.27 430.553 308.13 429.959 307.849C429.372 307.568 428.882 307.183 428.49 306.693C428.105 306.204 427.814 305.642 427.619 305.009C427.429 304.369 427.335 303.693 427.335 302.981V302.57C427.335 301.858 427.429 301.186 427.619 300.553C427.814 299.913 428.105 299.348 428.49 298.858C428.882 298.369 429.372 297.983 429.959 297.703C430.553 297.422 431.249 297.281 432.045 297.281C432.875 297.281 433.599 297.451 434.22 297.791C434.84 298.124 435.326 298.581 435.679 299.162C436.038 299.736 436.234 300.389 436.267 301.121H434.543C434.51 300.683 434.386 300.288 434.171 299.936C433.962 299.583 433.674 299.302 433.309 299.093C432.95 298.878 432.529 298.77 432.045 298.77C431.49 298.77 431.024 298.881 430.645 299.103C430.273 299.319 429.976 299.612 429.754 299.985C429.538 300.35 429.381 300.758 429.284 301.209C429.192 301.653 429.146 302.107 429.146 302.57V302.981C429.146 303.445 429.192 303.902 429.284 304.353C429.375 304.803 429.528 305.211 429.744 305.577C429.966 305.942 430.263 306.236 430.635 306.458C431.014 306.674 431.484 306.781 432.045 306.781ZM440.272 297.477V308.074H438.451V297.477H440.272ZM438.313 294.666C438.313 294.373 438.402 294.125 438.578 293.922C438.761 293.72 439.028 293.619 439.381 293.619C439.727 293.619 439.991 293.72 440.174 293.922C440.364 294.125 440.458 294.373 440.458 294.666C440.458 294.947 440.364 295.189 440.174 295.391C439.991 295.587 439.727 295.685 439.381 295.685C439.028 295.685 438.761 295.587 438.578 295.391C438.402 295.189 438.313 294.947 438.313 294.666ZM444.993 299.514V312.148H443.171V297.477H444.836L444.993 299.514ZM452.133 302.688V302.893C452.133 303.664 452.041 304.379 451.858 305.038C451.675 305.691 451.408 306.259 451.055 306.742C450.709 307.225 450.281 307.601 449.772 307.869C449.263 308.136 448.679 308.27 448.019 308.27C447.347 308.27 446.752 308.159 446.237 307.937C445.721 307.715 445.283 307.392 444.924 306.968C444.565 306.543 444.278 306.034 444.062 305.44C443.853 304.846 443.71 304.176 443.631 303.432V302.335C443.71 301.552 443.857 300.85 444.072 300.229C444.288 299.609 444.572 299.08 444.924 298.643C445.283 298.199 445.718 297.863 446.227 297.634C446.736 297.399 447.324 297.281 447.99 297.281C448.656 297.281 449.247 297.412 449.762 297.673C450.278 297.928 450.712 298.293 451.065 298.77C451.418 299.247 451.682 299.818 451.858 300.484C452.041 301.143 452.133 301.878 452.133 302.688ZM450.311 302.893V302.688C450.311 302.159 450.255 301.663 450.144 301.199C450.033 300.729 449.86 300.318 449.625 299.965C449.397 299.606 449.103 299.325 448.744 299.123C448.385 298.914 447.957 298.809 447.461 298.809C447.004 298.809 446.606 298.888 446.266 299.044C445.933 299.201 445.649 299.413 445.414 299.681C445.179 299.942 444.986 300.242 444.836 300.582C444.692 300.915 444.585 301.261 444.513 301.62V304.157C444.643 304.614 444.826 305.045 445.061 305.449C445.296 305.848 445.61 306.171 446.002 306.419C446.393 306.661 446.886 306.781 447.48 306.781C447.97 306.781 448.391 306.68 448.744 306.478C449.103 306.269 449.397 305.985 449.625 305.626C449.86 305.267 450.033 304.855 450.144 304.392C450.255 303.922 450.311 303.422 450.311 302.893ZM460.692 306.262V300.807C460.692 300.389 460.607 300.027 460.438 299.72C460.274 299.407 460.026 299.165 459.693 298.995C459.36 298.826 458.949 298.741 458.459 298.741C458.002 298.741 457.601 298.819 457.255 298.976C456.915 299.132 456.647 299.338 456.452 299.593C456.262 299.847 456.168 300.122 456.168 300.415H454.356C454.356 300.037 454.454 299.661 454.65 299.289C454.845 298.917 455.126 298.581 455.492 298.28C455.864 297.974 456.308 297.732 456.824 297.556C457.346 297.373 457.927 297.281 458.567 297.281C459.338 297.281 460.017 297.412 460.604 297.673C461.198 297.934 461.662 298.329 461.995 298.858C462.334 299.381 462.504 300.037 462.504 300.827V305.763C462.504 306.115 462.534 306.491 462.592 306.889C462.658 307.287 462.752 307.63 462.876 307.918V308.074H460.986C460.895 307.865 460.823 307.588 460.771 307.242C460.718 306.889 460.692 306.563 460.692 306.262ZM461.006 301.649L461.025 302.923H459.194C458.678 302.923 458.218 302.965 457.813 303.05C457.408 303.128 457.069 303.249 456.794 303.412C456.52 303.576 456.311 303.781 456.168 304.029C456.024 304.271 455.952 304.555 455.952 304.881C455.952 305.214 456.027 305.518 456.177 305.792C456.328 306.066 456.553 306.285 456.853 306.448C457.16 306.605 457.535 306.683 457.979 306.683C458.534 306.683 459.024 306.566 459.449 306.331C459.873 306.096 460.209 305.809 460.457 305.469C460.712 305.13 460.849 304.8 460.869 304.48L461.642 305.352C461.597 305.626 461.473 305.929 461.27 306.262C461.068 306.595 460.797 306.915 460.457 307.222C460.124 307.522 459.726 307.774 459.262 307.976C458.805 308.172 458.29 308.27 457.715 308.27C456.997 308.27 456.367 308.13 455.825 307.849C455.289 307.568 454.872 307.193 454.571 306.723C454.277 306.246 454.13 305.714 454.13 305.126C454.13 304.558 454.241 304.059 454.463 303.628C454.685 303.19 455.005 302.828 455.423 302.541C455.841 302.247 456.344 302.025 456.931 301.875C457.519 301.725 458.175 301.649 458.9 301.649H461.006ZM467.323 293.031V308.074H465.501V293.031H467.323ZM390.855 315.335V326.074H389.981V316.444L387.072 317.524V316.694L390.708 315.335H390.855ZM401.689 323.239C401.689 323.885 401.538 324.431 401.234 324.877C400.935 325.323 400.529 325.658 400.015 325.883C399.5 326.108 398.925 326.221 398.288 326.221C397.647 326.221 397.069 326.108 396.555 325.883C396.041 325.658 395.632 325.323 395.328 324.877C395.03 324.431 394.88 323.885 394.88 323.239C394.88 322.813 394.963 322.426 395.13 322.078C395.301 321.726 395.539 321.422 395.842 321.168C396.151 320.908 396.511 320.707 396.922 320.565C397.334 320.423 397.784 320.352 398.274 320.352C398.92 320.352 399.5 320.477 400.015 320.727C400.529 320.972 400.935 321.31 401.234 321.74C401.538 322.171 401.689 322.671 401.689 323.239ZM400.808 323.239C400.808 322.783 400.698 322.384 400.477 322.042C400.257 321.699 399.956 321.434 399.574 321.248C399.192 321.057 398.759 320.962 398.274 320.962C397.784 320.962 397.351 321.057 396.974 321.248C396.597 321.434 396.3 321.699 396.085 322.042C395.869 322.384 395.762 322.783 395.762 323.239C395.762 323.714 395.867 324.118 396.077 324.451C396.293 324.784 396.592 325.036 396.974 325.207C397.356 325.379 397.794 325.465 398.288 325.465C398.783 325.465 399.219 325.379 399.596 325.207C399.973 325.036 400.269 324.784 400.485 324.451C400.7 324.118 400.808 323.714 400.808 323.239ZM401.41 318.127C401.41 318.65 401.271 319.118 400.992 319.529C400.717 319.936 400.345 320.257 399.875 320.492C399.405 320.722 398.874 320.837 398.281 320.837C397.684 320.837 397.147 320.722 396.672 320.492C396.202 320.257 395.83 319.936 395.556 319.529C395.287 319.118 395.152 318.65 395.152 318.127C395.152 317.505 395.287 316.981 395.556 316.555C395.83 316.124 396.202 315.796 396.672 315.57C397.143 315.345 397.676 315.232 398.274 315.232C398.866 315.232 399.398 315.345 399.868 315.57C400.343 315.796 400.717 316.124 400.992 316.555C401.271 316.981 401.41 317.505 401.41 318.127ZM400.536 318.119C400.536 317.703 400.436 317.336 400.235 317.017C400.039 316.699 399.77 316.449 399.427 316.268C399.089 316.082 398.705 315.989 398.274 315.989C397.838 315.989 397.451 316.075 397.113 316.246C396.78 316.417 396.516 316.662 396.32 316.981C396.129 317.299 396.033 317.678 396.033 318.119C396.033 318.55 396.129 318.922 396.32 319.236C396.516 319.544 396.783 319.784 397.121 319.956C397.458 320.127 397.845 320.213 398.281 320.213C398.717 320.213 399.104 320.127 399.442 319.956C399.78 319.784 400.046 319.544 400.242 319.236C400.438 318.922 400.536 318.55 400.536 318.119ZM410.203 325.465C410.575 325.465 410.923 325.396 411.246 325.259C411.574 325.117 411.843 324.909 412.054 324.635C412.269 324.355 412.392 324.015 412.421 323.614H413.258C413.234 324.118 413.08 324.568 412.796 324.965C412.516 325.357 412.149 325.665 411.694 325.891C411.243 326.111 410.746 326.221 410.203 326.221C409.649 326.221 409.16 326.121 408.734 325.92C408.312 325.719 407.96 325.44 407.676 325.083C407.392 324.72 407.176 324.299 407.029 323.819C406.887 323.334 406.816 322.813 406.816 322.255V321.946C406.816 321.388 406.887 320.869 407.029 320.389C407.176 319.904 407.392 319.483 407.676 319.125C407.96 318.763 408.312 318.482 408.734 318.281C409.155 318.08 409.642 317.98 410.195 317.98C410.763 317.98 411.273 318.095 411.723 318.325C412.179 318.555 412.541 318.881 412.81 319.302C413.084 319.723 413.234 320.222 413.258 320.8H412.421C412.396 320.374 412.284 320.007 412.083 319.698C411.882 319.39 411.618 319.152 411.29 318.986C410.962 318.819 410.597 318.736 410.195 318.736C409.745 318.736 409.36 318.824 409.042 319.001C408.724 319.172 408.464 319.41 408.263 319.713C408.068 320.012 407.923 320.355 407.83 320.741C407.737 321.123 407.691 321.525 407.691 321.946V322.255C407.691 322.681 407.735 323.087 407.823 323.474C407.916 323.856 408.06 324.196 408.256 324.495C408.457 324.794 408.716 325.031 409.035 325.207C409.358 325.379 409.747 325.465 410.203 325.465ZM414.544 322.225V321.983C414.544 321.405 414.627 320.871 414.794 320.382C414.96 319.892 415.198 319.468 415.506 319.111C415.819 318.753 416.194 318.477 416.63 318.281C417.066 318.08 417.55 317.98 418.084 317.98C418.623 317.98 419.11 318.08 419.546 318.281C419.982 318.477 420.356 318.753 420.67 319.111C420.983 319.468 421.223 319.892 421.39 320.382C421.556 320.871 421.639 321.405 421.639 321.983V322.225C421.639 322.803 421.556 323.337 421.39 323.827C421.223 324.311 420.983 324.732 420.67 325.09C420.361 325.447 419.989 325.727 419.553 325.927C419.118 326.123 418.633 326.221 418.099 326.221C417.56 326.221 417.073 326.123 416.637 325.927C416.201 325.727 415.827 325.447 415.513 325.09C415.2 324.732 414.96 324.311 414.794 323.827C414.627 323.337 414.544 322.803 414.544 322.225ZM415.418 321.983V322.225C415.418 322.661 415.477 323.075 415.594 323.467C415.712 323.853 415.883 324.199 416.108 324.502C416.334 324.801 416.613 325.036 416.946 325.207C417.279 325.379 417.663 325.465 418.099 325.465C418.53 325.465 418.909 325.379 419.237 325.207C419.57 325.036 419.85 324.801 420.075 324.502C420.3 324.199 420.469 323.853 420.582 323.467C420.699 323.075 420.758 322.661 420.758 322.225V321.983C420.758 321.552 420.699 321.143 420.582 320.756C420.469 320.369 420.298 320.024 420.068 319.72C419.842 319.417 419.563 319.177 419.23 319.001C418.897 318.824 418.515 318.736 418.084 318.736C417.653 318.736 417.271 318.824 416.938 319.001C416.61 319.177 416.331 319.417 416.101 319.72C415.876 320.024 415.704 320.369 415.587 320.756C415.474 321.143 415.418 321.552 415.418 321.983ZM424.438 314.792V326.074H423.564V314.792H424.438ZM426.759 325.538C426.759 325.367 426.813 325.222 426.921 325.105C427.033 324.982 427.185 324.921 427.376 324.921C427.572 324.921 427.726 324.98 427.839 325.097C427.952 325.215 428.008 325.362 428.008 325.538C428.008 325.705 427.952 325.847 427.839 325.964C427.726 326.082 427.572 326.14 427.376 326.14C427.185 326.14 427.033 326.082 426.921 325.964C426.813 325.847 426.759 325.705 426.759 325.538Z" fill="#FDFBF9"/>
<path d="M827.413 308.074H824.436L824.455 306.537H827.413C828.431 306.537 829.28 306.324 829.959 305.9C830.638 305.469 831.148 304.868 831.487 304.098C831.833 303.321 832.006 302.413 832.006 301.375V300.504C832.006 299.687 831.908 298.963 831.712 298.329C831.516 297.689 831.229 297.151 830.851 296.713C830.472 296.269 830.008 295.933 829.46 295.705C828.918 295.476 828.294 295.362 827.589 295.362H824.377V293.814H827.589C828.523 293.814 829.375 293.971 830.145 294.284C830.916 294.591 831.579 295.039 832.133 295.626C832.695 296.207 833.126 296.913 833.426 297.742C833.727 298.564 833.877 299.492 833.877 300.523V301.375C833.877 302.407 833.727 303.337 833.426 304.166C833.126 304.989 832.692 305.691 832.124 306.272C831.562 306.853 830.883 307.301 830.087 307.614C829.297 307.921 828.405 308.074 827.413 308.074ZM825.444 293.814V308.074H823.554V293.814H825.444ZM840.84 308.27C840.102 308.27 839.433 308.146 838.832 307.898C838.238 307.643 837.726 307.287 837.295 306.83C836.87 306.373 836.544 305.831 836.315 305.205C836.087 304.578 835.973 303.892 835.973 303.148V302.737C835.973 301.875 836.1 301.108 836.355 300.435C836.609 299.756 836.955 299.181 837.393 298.711C837.83 298.241 838.326 297.885 838.881 297.644C839.436 297.402 840.011 297.281 840.605 297.281C841.363 297.281 842.015 297.412 842.564 297.673C843.119 297.934 843.573 298.3 843.925 298.77C844.278 299.234 844.539 299.782 844.709 300.415C844.879 301.042 844.963 301.728 844.963 302.472V303.285H837.05V301.806H843.152V301.669C843.125 301.199 843.028 300.742 842.858 300.298C842.695 299.854 842.433 299.488 842.074 299.201C841.715 298.914 841.225 298.77 840.605 298.77C840.194 298.77 839.815 298.858 839.469 299.035C839.123 299.204 838.826 299.459 838.578 299.798C838.33 300.138 838.137 300.553 838 301.042C837.863 301.532 837.794 302.097 837.794 302.737V303.148C837.794 303.651 837.863 304.124 838 304.568C838.144 305.005 838.349 305.391 838.617 305.724C838.891 306.057 839.221 306.318 839.606 306.507C839.998 306.697 840.442 306.791 840.938 306.791C841.578 306.791 842.12 306.661 842.564 306.399C843.008 306.138 843.396 305.789 843.729 305.352L844.826 306.223C844.598 306.569 844.307 306.899 843.955 307.212C843.602 307.526 843.168 307.78 842.652 307.976C842.143 308.172 841.539 308.27 840.84 308.27ZM851.516 297.477V298.868H845.786V297.477H851.516ZM847.725 294.902H849.537V305.449C849.537 305.809 849.593 306.08 849.704 306.262C849.815 306.445 849.958 306.566 850.135 306.625C850.311 306.683 850.5 306.713 850.703 306.713C850.853 306.713 851.009 306.7 851.173 306.674C851.342 306.641 851.47 306.615 851.555 306.595L851.564 308.074C851.421 308.12 851.231 308.162 850.996 308.202C850.768 308.247 850.49 308.27 850.164 308.27C849.72 308.27 849.312 308.182 848.94 308.006C848.568 307.829 848.27 307.536 848.048 307.124C847.833 306.706 847.725 306.145 847.725 305.44V294.902ZM859.889 306.262V300.807C859.889 300.389 859.804 300.027 859.635 299.72C859.471 299.407 859.223 299.165 858.89 298.995C858.557 298.826 858.146 298.741 857.656 298.741C857.199 298.741 856.798 298.819 856.452 298.976C856.112 299.132 855.844 299.338 855.649 299.593C855.459 299.847 855.364 300.122 855.364 300.415H853.553C853.553 300.037 853.651 299.661 853.846 299.289C854.042 298.917 854.323 298.581 854.689 298.28C855.061 297.974 855.505 297.732 856.021 297.556C856.543 297.373 857.124 297.281 857.764 297.281C858.534 297.281 859.213 297.412 859.801 297.673C860.395 297.934 860.859 298.329 861.192 298.858C861.531 299.381 861.701 300.037 861.701 300.827V305.763C861.701 306.115 861.73 306.491 861.789 306.889C861.855 307.287 861.949 307.63 862.073 307.918V308.074H860.183C860.092 307.865 860.02 307.588 859.968 307.242C859.915 306.889 859.889 306.563 859.889 306.262ZM860.203 301.649L860.222 302.923H858.391C857.875 302.923 857.415 302.965 857.01 303.05C856.605 303.128 856.266 303.249 855.991 303.412C855.717 303.576 855.508 303.781 855.364 304.029C855.221 304.271 855.149 304.555 855.149 304.881C855.149 305.214 855.224 305.518 855.374 305.792C855.524 306.066 855.75 306.285 856.05 306.448C856.357 306.605 856.732 306.683 857.176 306.683C857.731 306.683 858.221 306.566 858.645 306.331C859.07 306.096 859.406 305.809 859.654 305.469C859.909 305.13 860.046 304.8 860.066 304.48L860.839 305.352C860.794 305.626 860.669 305.929 860.467 306.262C860.265 306.595 859.994 306.915 859.654 307.222C859.321 307.522 858.923 307.774 858.459 307.976C858.002 308.172 857.486 308.27 856.912 308.27C856.194 308.27 855.564 308.13 855.022 307.849C854.486 307.568 854.068 307.193 853.768 306.723C853.474 306.246 853.327 305.714 853.327 305.126C853.327 304.558 853.438 304.059 853.66 303.628C853.882 303.19 854.202 302.828 854.62 302.541C855.038 302.247 855.541 302.025 856.128 301.875C856.716 301.725 857.372 301.649 858.097 301.649H860.203ZM866.52 293.031V308.074H864.698V293.031H866.52ZM871.24 293.031V308.074H869.428V293.031H871.24ZM870.809 302.374L870.055 302.345C870.062 301.62 870.169 300.951 870.378 300.337C870.587 299.717 870.881 299.178 871.26 298.721C871.639 298.264 872.089 297.911 872.611 297.663C873.14 297.409 873.725 297.281 874.365 297.281C874.887 297.281 875.357 297.353 875.775 297.497C876.193 297.634 876.549 297.856 876.842 298.163C877.143 298.47 877.371 298.868 877.528 299.358C877.685 299.841 877.763 300.432 877.763 301.13V308.074H875.941V301.111C875.941 300.556 875.86 300.112 875.696 299.779C875.533 299.439 875.295 299.194 874.982 299.044C874.668 298.888 874.283 298.809 873.826 298.809C873.375 298.809 872.964 298.904 872.592 299.093C872.226 299.283 871.91 299.544 871.642 299.877C871.381 300.21 871.175 300.592 871.025 301.023C870.881 301.447 870.809 301.898 870.809 302.374ZM886.724 306.262V300.807C886.724 300.389 886.639 300.027 886.47 299.72C886.306 299.407 886.058 299.165 885.725 298.995C885.392 298.826 884.981 298.741 884.491 298.741C884.034 298.741 883.633 298.819 883.287 298.976C882.947 299.132 882.679 299.338 882.484 299.593C882.294 299.847 882.2 300.122 882.2 300.415H880.388C880.388 300.037 880.486 299.661 880.682 299.289C880.877 298.917 881.158 298.581 881.524 298.28C881.896 297.974 882.34 297.732 882.856 297.556C883.378 297.373 883.959 297.281 884.599 297.281C885.37 297.281 886.049 297.412 886.636 297.673C887.23 297.934 887.694 298.329 888.027 298.858C888.366 299.381 888.536 300.037 888.536 300.827V305.763C888.536 306.115 888.566 306.491 888.624 306.889C888.69 307.287 888.784 307.63 888.908 307.918V308.074H887.018C886.927 307.865 886.855 307.588 886.803 307.242C886.75 306.889 886.724 306.563 886.724 306.262ZM887.038 301.649L887.057 302.923H885.226C884.71 302.923 884.25 302.965 883.845 303.05C883.44 303.128 883.101 303.249 882.826 303.412C882.552 303.576 882.343 303.781 882.2 304.029C882.056 304.271 881.984 304.555 881.984 304.881C881.984 305.214 882.059 305.518 882.209 305.792C882.36 306.066 882.585 306.285 882.885 306.448C883.192 306.605 883.567 306.683 884.011 306.683C884.566 306.683 885.056 306.566 885.481 306.331C885.905 306.096 886.241 305.809 886.489 305.469C886.744 305.13 886.881 304.8 886.901 304.48L887.674 305.352C887.629 305.626 887.505 305.929 887.302 306.262C887.1 306.595 886.829 306.915 886.489 307.222C886.156 307.522 885.758 307.774 885.294 307.976C884.837 308.172 884.322 308.27 883.747 308.27C883.029 308.27 882.399 308.13 881.857 307.849C881.321 307.568 880.904 307.193 880.603 306.723C880.309 306.246 880.162 305.714 880.162 305.126C880.162 304.558 880.273 304.059 880.495 303.628C880.717 303.19 881.037 302.828 881.455 302.541C881.873 302.247 882.376 302.025 882.964 301.875C883.551 301.725 884.207 301.649 884.932 301.649H887.038ZM893.188 299.583V308.074H891.367V297.477H893.09L893.188 299.583ZM892.816 302.374L891.974 302.345C891.98 301.62 892.075 300.951 892.258 300.337C892.441 299.717 892.712 299.178 893.071 298.721C893.43 298.264 893.877 297.911 894.412 297.663C894.948 297.409 895.568 297.281 896.273 297.281C896.77 297.281 897.227 297.353 897.644 297.497C898.062 297.634 898.425 297.853 898.732 298.153C899.038 298.453 899.277 298.839 899.447 299.309C899.616 299.779 899.701 300.347 899.701 301.013V308.074H897.889V301.101C897.889 300.546 897.795 300.102 897.605 299.769C897.422 299.436 897.161 299.194 896.822 299.044C896.482 298.888 896.084 298.809 895.627 298.809C895.092 298.809 894.644 298.904 894.285 299.093C893.926 299.283 893.639 299.544 893.423 299.877C893.208 300.21 893.051 300.592 892.953 301.023C892.862 301.447 892.816 301.898 892.816 302.374ZM899.682 301.375L898.467 301.747C898.474 301.166 898.568 300.608 898.751 300.073C898.941 299.537 899.211 299.061 899.564 298.643C899.923 298.225 900.364 297.895 900.886 297.654C901.409 297.405 902.006 297.281 902.678 297.281C903.247 297.281 903.749 297.356 904.187 297.507C904.631 297.657 905.003 297.889 905.303 298.202C905.61 298.509 905.842 298.904 905.999 299.387C906.155 299.87 906.234 300.445 906.234 301.111V308.074H904.412V301.091C904.412 300.497 904.317 300.037 904.128 299.71C903.945 299.377 903.684 299.146 903.344 299.015C903.011 298.878 902.613 298.809 902.15 298.809C901.751 298.809 901.399 298.878 901.092 299.015C900.785 299.152 900.527 299.341 900.318 299.583C900.109 299.818 899.949 300.089 899.838 300.396C899.734 300.703 899.682 301.029 899.682 301.375ZM913.373 308.27C912.636 308.27 911.966 308.146 911.366 307.898C910.771 307.643 910.259 307.287 909.828 306.83C909.404 306.373 909.077 305.831 908.849 305.205C908.62 304.578 908.506 303.892 908.506 303.148V302.737C908.506 301.875 908.633 301.108 908.888 300.435C909.142 299.756 909.488 299.181 909.926 298.711C910.363 298.241 910.86 297.885 911.415 297.644C911.97 297.402 912.544 297.281 913.138 297.281C913.896 297.281 914.549 297.412 915.097 297.673C915.652 297.934 916.106 298.3 916.458 298.77C916.811 299.234 917.072 299.782 917.242 300.415C917.412 301.042 917.497 301.728 917.497 302.472V303.285H909.583V301.806H915.685V301.669C915.659 301.199 915.561 300.742 915.391 300.298C915.228 299.854 914.966 299.488 914.607 299.201C914.248 298.914 913.759 298.77 913.138 298.77C912.727 298.77 912.348 298.858 912.002 299.035C911.656 299.204 911.359 299.459 911.111 299.798C910.863 300.138 910.67 300.553 910.533 301.042C910.396 301.532 910.327 302.097 910.327 302.737V303.148C910.327 303.651 910.396 304.124 910.533 304.568C910.677 305.005 910.882 305.391 911.15 305.724C911.424 306.057 911.754 306.318 912.139 306.507C912.531 306.697 912.975 306.791 913.471 306.791C914.111 306.791 914.653 306.661 915.097 306.399C915.541 306.138 915.93 305.789 916.263 305.352L917.359 306.223C917.131 306.569 916.84 306.899 916.488 307.212C916.135 307.526 915.701 307.78 915.185 307.976C914.676 308.172 914.072 308.27 913.373 308.27ZM921.424 299.74V308.074H919.612V297.477H921.326L921.424 299.74ZM920.993 302.374L920.239 302.345C920.245 301.62 920.353 300.951 920.562 300.337C920.771 299.717 921.065 299.178 921.443 298.721C921.822 298.264 922.273 297.911 922.795 297.663C923.324 297.409 923.908 297.281 924.548 297.281C925.07 297.281 925.541 297.353 925.958 297.497C926.376 297.634 926.732 297.856 927.026 298.163C927.326 298.47 927.555 298.868 927.712 299.358C927.868 299.841 927.947 300.432 927.947 301.13V308.074H926.125V301.111C926.125 300.556 926.043 300.112 925.88 299.779C925.717 299.439 925.479 299.194 925.165 299.044C924.852 298.888 924.467 298.809 924.009 298.809C923.559 298.809 923.148 298.904 922.775 299.093C922.41 299.283 922.093 299.544 921.825 299.877C921.564 300.21 921.359 300.592 921.208 301.023C921.065 301.447 920.993 301.898 920.993 302.374ZM935.135 297.477V298.868H929.406V297.477H935.135ZM931.345 294.902H933.157V305.449C933.157 305.809 933.212 306.08 933.323 306.262C933.434 306.445 933.578 306.566 933.754 306.625C933.931 306.683 934.12 306.713 934.322 306.713C934.473 306.713 934.629 306.7 934.792 306.674C934.962 306.641 935.09 306.615 935.174 306.595L935.184 308.074C935.041 308.12 934.851 308.162 934.616 308.202C934.388 308.247 934.11 308.27 933.784 308.27C933.34 308.27 932.932 308.182 932.559 308.006C932.187 307.829 931.89 307.536 931.668 307.124C931.453 306.706 931.345 306.145 931.345 305.44V294.902ZM936.585 302.893V302.668C936.585 301.904 936.696 301.196 936.918 300.543C937.14 299.883 937.46 299.312 937.878 298.829C938.295 298.339 938.801 297.96 939.396 297.693C939.99 297.419 940.656 297.281 941.394 297.281C942.138 297.281 942.807 297.419 943.401 297.693C944.002 297.96 944.511 298.339 944.929 298.829C945.354 299.312 945.677 299.883 945.899 300.543C946.121 301.196 946.232 301.904 946.232 302.668V302.893C946.232 303.657 946.121 304.366 945.899 305.019C945.677 305.671 945.354 306.243 944.929 306.732C944.511 307.216 944.005 307.594 943.411 307.869C942.823 308.136 942.157 308.27 941.413 308.27C940.669 308.27 940 308.136 939.405 307.869C938.811 307.594 938.302 307.216 937.878 306.732C937.46 306.243 937.14 305.671 936.918 305.019C936.696 304.366 936.585 303.657 936.585 302.893ZM938.397 302.668V302.893C938.397 303.422 938.459 303.922 938.583 304.392C938.707 304.855 938.893 305.267 939.141 305.626C939.396 305.985 939.712 306.269 940.091 306.478C940.47 306.68 940.91 306.781 941.413 306.781C941.909 306.781 942.344 306.68 942.716 306.478C943.094 306.269 943.408 305.985 943.656 305.626C943.904 305.267 944.09 304.855 944.214 304.392C944.345 303.922 944.41 303.422 944.41 302.893V302.668C944.41 302.146 944.345 301.653 944.214 301.189C944.09 300.719 943.901 300.304 943.646 299.945C943.398 299.58 943.085 299.292 942.706 299.083C942.334 298.875 941.896 298.77 941.394 298.77C940.897 298.77 940.46 298.875 940.081 299.083C939.709 299.292 939.396 299.58 939.141 299.945C938.893 300.304 938.707 300.719 938.583 301.189C938.459 301.653 938.397 302.146 938.397 302.668ZM955.281 299.583V308.074H953.46V297.477H955.183L955.281 299.583ZM954.909 302.374L954.067 302.345C954.073 301.62 954.168 300.951 954.351 300.337C954.534 299.717 954.805 299.178 955.164 298.721C955.523 298.264 955.97 297.911 956.505 297.663C957.041 297.409 957.661 297.281 958.366 297.281C958.862 297.281 959.32 297.353 959.737 297.497C960.155 297.634 960.518 297.853 960.824 298.153C961.131 298.453 961.37 298.839 961.539 299.309C961.709 299.779 961.794 300.347 961.794 301.013V308.074H959.982V301.101C959.982 300.546 959.888 300.102 959.698 299.769C959.515 299.436 959.254 299.194 958.915 299.044C958.575 298.888 958.177 298.809 957.72 298.809C957.184 298.809 956.737 298.904 956.378 299.093C956.019 299.283 955.732 299.544 955.516 299.877C955.301 300.21 955.144 300.592 955.046 301.023C954.955 301.447 954.909 301.898 954.909 302.374ZM961.774 301.375L960.56 301.747C960.567 301.166 960.661 300.608 960.844 300.073C961.033 299.537 961.304 299.061 961.657 298.643C962.016 298.225 962.457 297.895 962.979 297.654C963.501 297.405 964.099 297.281 964.771 297.281C965.339 297.281 965.842 297.356 966.28 297.507C966.724 297.657 967.096 297.889 967.396 298.202C967.703 298.509 967.935 298.904 968.092 299.387C968.248 299.87 968.327 300.445 968.327 301.111V308.074H966.505V301.091C966.505 300.497 966.41 300.037 966.221 299.71C966.038 299.377 965.777 299.146 965.437 299.015C965.104 298.878 964.706 298.809 964.243 298.809C963.844 298.809 963.492 298.878 963.185 299.015C962.878 299.152 962.62 299.341 962.411 299.583C962.202 299.818 962.042 300.089 961.931 300.396C961.827 300.703 961.774 301.029 961.774 301.375ZM970.589 302.893V302.668C970.589 301.904 970.7 301.196 970.922 300.543C971.144 299.883 971.464 299.312 971.882 298.829C972.3 298.339 972.806 297.96 973.4 297.693C973.994 297.419 974.66 297.281 975.398 297.281C976.142 297.281 976.811 297.419 977.405 297.693C978.006 297.96 978.515 298.339 978.933 298.829C979.358 299.312 979.681 299.883 979.903 300.543C980.125 301.196 980.236 301.904 980.236 302.668V302.893C980.236 303.657 980.125 304.366 979.903 305.019C979.681 305.671 979.358 306.243 978.933 306.732C978.515 307.216 978.009 307.594 977.415 307.869C976.828 308.136 976.162 308.27 975.417 308.27C974.673 308.27 974.004 308.136 973.41 307.869C972.815 307.594 972.306 307.216 971.882 306.732C971.464 306.243 971.144 305.671 970.922 305.019C970.7 304.366 970.589 303.657 970.589 302.893ZM972.401 302.668V302.893C972.401 303.422 972.463 303.922 972.587 304.392C972.711 304.855 972.897 305.267 973.145 305.626C973.4 305.985 973.716 306.269 974.095 306.478C974.474 306.68 974.915 306.781 975.417 306.781C975.914 306.781 976.348 306.68 976.72 306.478C977.099 306.269 977.412 305.985 977.66 305.626C977.908 305.267 978.094 304.855 978.218 304.392C978.349 303.922 978.414 303.422 978.414 302.893V302.668C978.414 302.146 978.349 301.653 978.218 301.189C978.094 300.719 977.905 300.304 977.65 299.945C977.402 299.58 977.089 299.292 976.71 299.083C976.338 298.875 975.9 298.77 975.398 298.77C974.902 298.77 974.464 298.875 974.085 299.083C973.713 299.292 973.4 299.58 973.145 299.945C972.897 300.304 972.711 300.719 972.587 301.189C972.463 301.653 972.401 302.146 972.401 302.668ZM974.32 295.91L976.22 293.031H978.404L975.78 295.91H974.32ZM985.574 306.439L988.472 297.477H990.324L986.514 308.074H985.299L985.574 306.439ZM983.154 297.477L986.142 306.488L986.347 308.074H985.133L981.294 297.477H983.154ZM996.327 308.27C995.589 308.27 994.92 308.146 994.319 307.898C993.725 307.643 993.213 307.287 992.782 306.83C992.357 306.373 992.031 305.831 991.802 305.205C991.574 304.578 991.46 303.892 991.46 303.148V302.737C991.46 301.875 991.587 301.108 991.842 300.435C992.096 299.756 992.442 299.181 992.88 298.711C993.317 298.241 993.813 297.885 994.368 297.644C994.923 297.402 995.498 297.281 996.092 297.281C996.849 297.281 997.502 297.412 998.051 297.673C998.606 297.934 999.06 298.3 999.412 298.77C999.765 299.234 1000.03 299.782 1000.2 300.415C1000.37 301.042 1000.45 301.728 1000.45 302.472V303.285H992.537V301.806H998.639V301.669C998.612 301.199 998.514 300.742 998.345 300.298C998.181 299.854 997.92 299.488 997.561 299.201C997.202 298.914 996.712 298.77 996.092 298.77C995.681 298.77 995.302 298.858 994.956 299.035C994.61 299.204 994.313 299.459 994.065 299.798C993.817 300.138 993.624 300.553 993.487 301.042C993.35 301.532 993.281 302.097 993.281 302.737V303.148C993.281 303.651 993.35 304.124 993.487 304.568C993.631 305.005 993.836 305.391 994.104 305.724C994.378 306.057 994.708 306.318 995.093 306.507C995.485 306.697 995.929 306.791 996.425 306.791C997.065 306.791 997.607 306.661 998.051 306.399C998.495 306.138 998.883 305.789 999.216 305.352L1000.31 306.223C1000.08 306.569 999.794 306.899 999.442 307.212C999.089 307.526 998.655 307.78 998.139 307.976C997.63 308.172 997.026 308.27 996.327 308.27ZM1004.53 293.031V308.074H1002.71V293.031H1004.53ZM902.456 315.299H902.581V316.07H902.456C901.78 316.07 901.178 316.18 900.649 316.4C900.125 316.621 899.682 316.939 899.319 317.355C898.962 317.767 898.69 318.266 898.504 318.854C898.318 319.441 898.225 320.1 898.225 320.83V322.306C898.225 322.801 898.291 323.244 898.423 323.636C898.555 324.022 898.739 324.353 898.974 324.627C899.209 324.901 899.483 325.11 899.797 325.252C900.11 325.394 900.448 325.465 900.81 325.465C901.168 325.465 901.489 325.391 901.773 325.244C902.057 325.097 902.297 324.892 902.492 324.627C902.693 324.363 902.845 324.059 902.948 323.716C903.056 323.369 903.109 322.997 903.109 322.6C903.109 322.223 903.06 321.868 902.963 321.535C902.869 321.197 902.725 320.898 902.529 320.639C902.333 320.379 902.088 320.176 901.795 320.029C901.501 319.882 901.156 319.809 900.759 319.809C900.308 319.809 899.887 319.911 899.495 320.117C899.104 320.323 898.783 320.597 898.533 320.94C898.288 321.283 898.159 321.657 898.144 322.064L897.637 322.056C897.671 321.596 897.777 321.182 897.953 320.815C898.129 320.443 898.362 320.127 898.651 319.867C898.945 319.603 899.28 319.402 899.657 319.265C900.039 319.123 900.45 319.052 900.891 319.052C901.405 319.052 901.853 319.145 902.235 319.331C902.622 319.517 902.943 319.774 903.198 320.102C903.457 320.426 903.651 320.8 903.778 321.226C903.91 321.647 903.976 322.093 903.976 322.563C903.976 323.077 903.903 323.557 903.756 324.003C903.614 324.444 903.403 324.83 903.124 325.163C902.85 325.496 902.517 325.756 902.125 325.942C901.738 326.128 901.3 326.221 900.81 326.221C900.272 326.221 899.789 326.118 899.363 325.913C898.937 325.707 898.572 325.423 898.269 325.061C897.97 324.698 897.74 324.282 897.578 323.812C897.422 323.337 897.343 322.83 897.343 322.291V321.351C897.343 320.44 897.449 319.615 897.659 318.876C897.87 318.131 898.186 317.492 898.607 316.959C899.033 316.425 899.564 316.016 900.201 315.732C900.842 315.443 901.594 315.299 902.456 315.299ZM912.489 325.465C912.862 325.465 913.209 325.396 913.533 325.259C913.861 325.117 914.13 324.909 914.341 324.635C914.556 324.355 914.678 324.015 914.708 323.614H915.545C915.521 324.118 915.366 324.568 915.082 324.965C914.803 325.357 914.436 325.665 913.981 325.891C913.53 326.111 913.033 326.221 912.489 326.221C911.936 326.221 911.446 326.121 911.02 325.92C910.599 325.719 910.247 325.44 909.963 325.083C909.679 324.72 909.463 324.299 909.316 323.819C909.174 323.334 909.103 322.813 909.103 322.255V321.946C909.103 321.388 909.174 320.869 909.316 320.389C909.463 319.904 909.679 319.483 909.963 319.125C910.247 318.763 910.599 318.482 911.02 318.281C911.442 318.08 911.929 317.98 912.482 317.98C913.05 317.98 913.559 318.095 914.01 318.325C914.465 318.555 914.828 318.881 915.097 319.302C915.371 319.723 915.521 320.222 915.545 320.8H914.708C914.683 320.374 914.571 320.007 914.37 319.698C914.169 319.39 913.905 319.152 913.577 318.986C913.248 318.819 912.884 318.736 912.482 318.736C912.032 318.736 911.647 318.824 911.329 319.001C911.011 319.172 910.751 319.41 910.55 319.713C910.354 320.012 910.21 320.355 910.117 320.741C910.024 321.123 909.977 321.525 909.977 321.946V322.255C909.977 322.681 910.021 323.087 910.11 323.474C910.203 323.856 910.347 324.196 910.543 324.495C910.744 324.794 911.003 325.031 911.322 325.207C911.645 325.379 912.034 325.465 912.489 325.465ZM916.831 322.225V321.983C916.831 321.405 916.914 320.871 917.08 320.382C917.247 319.892 917.484 319.468 917.793 319.111C918.106 318.753 918.481 318.477 918.917 318.281C919.352 318.08 919.837 317.98 920.371 317.98C920.91 317.98 921.397 318.08 921.833 318.281C922.269 318.477 922.643 318.753 922.957 319.111C923.27 319.468 923.51 319.892 923.676 320.382C923.843 320.871 923.926 321.405 923.926 321.983V322.225C923.926 322.803 923.843 323.337 923.676 323.827C923.51 324.311 923.27 324.732 922.957 325.09C922.648 325.447 922.276 325.727 921.84 325.927C921.404 326.123 920.92 326.221 920.386 326.221C919.847 326.221 919.36 326.123 918.924 325.927C918.488 325.727 918.114 325.447 917.8 325.09C917.487 324.732 917.247 324.311 917.08 323.827C916.914 323.337 916.831 322.803 916.831 322.225ZM917.705 321.983V322.225C917.705 322.661 917.763 323.075 917.881 323.467C917.998 323.853 918.17 324.199 918.395 324.502C918.62 324.801 918.9 325.036 919.233 325.207C919.566 325.379 919.95 325.465 920.386 325.465C920.817 325.465 921.196 325.379 921.524 325.207C921.857 325.036 922.136 324.801 922.362 324.502C922.587 324.199 922.756 323.853 922.868 323.467C922.986 323.075 923.045 322.661 923.045 322.225V321.983C923.045 321.552 922.986 321.143 922.868 320.756C922.756 320.369 922.584 320.024 922.354 319.72C922.129 319.417 921.85 319.177 921.517 319.001C921.184 318.824 920.802 318.736 920.371 318.736C919.94 318.736 919.558 318.824 919.225 319.001C918.897 319.177 918.618 319.417 918.388 319.72C918.163 320.024 917.991 320.369 917.874 320.756C917.761 321.143 917.705 321.552 917.705 321.983ZM926.725 314.792V326.074H925.851V314.792H926.725ZM929.046 325.538C929.046 325.367 929.1 325.222 929.208 325.105C929.32 324.982 929.472 324.921 929.663 324.921C929.859 324.921 930.013 324.98 930.126 325.097C930.238 325.215 930.295 325.362 930.295 325.538C930.295 325.705 930.238 325.847 930.126 325.964C930.013 326.082 929.859 326.14 929.663 326.14C929.472 326.14 929.32 326.082 929.208 325.964C929.1 325.847 929.046 325.705 929.046 325.538Z" fill="#FDFBF9"/>
</svg>
