<svg width="728" height="405" viewBox="0 0 728 405" fill="none" xmlns="http://www.w3.org/2000/svg">
<rect x="0.845703" y="0.744141" width="727.094" height="403.663" rx="11.1571" fill="#0567FF" fill-opacity="0.25"/>
<rect x="6.4375" y="6.64941" width="23.6561" height="391.297" fill="#FDFBF9" fill-opacity="0.1"/>
<rect x="35.9473" y="6.64941" width="23.6561" height="391.297" fill="#FDFBF9" fill-opacity="0.1"/>
<rect x="66.0332" y="6.64941" width="23.6561" height="391.297" fill="#FDFBF9" fill-opacity="0.1"/>
<rect x="96.1191" y="6.64941" width="23.6561" height="391.297" fill="#FDFBF9" fill-opacity="0.1"/>
<rect x="126.207" y="6.64941" width="23.6561" height="391.297" fill="#FDFBF9" fill-opacity="0.1"/>
<rect x="156.293" y="6.64941" width="23.6561" height="391.297" fill="#FDFBF9" fill-opacity="0.1"/>
<rect x="186.379" y="6.64941" width="23.6561" height="391.297" fill="#FDFBF9" fill-opacity="0.1"/>
<rect x="216.467" y="6.64941" width="23.6561" height="391.297" fill="#FDFBF9" fill-opacity="0.1"/>
<rect x="246.553" y="6.64941" width="23.6561" height="391.297" fill="#FDFBF9" fill-opacity="0.1"/>
<rect x="276.641" y="6.64941" width="23.6561" height="391.297" fill="#FDFBF9" fill-opacity="0.1"/>
<rect x="306.727" y="6.64941" width="23.6561" height="391.297" fill="#FDFBF9" fill-opacity="0.1"/>
<rect x="336.812" y="6.64941" width="23.6561" height="391.297" fill="#FDFBF9" fill-opacity="0.1"/>
<rect x="366.9" y="6.64941" width="23.6561" height="391.297" fill="#FDFBF9" fill-opacity="0.1"/>
<rect x="396.986" y="6.64941" width="23.6561" height="391.297" fill="#FDFBF9" fill-opacity="0.1"/>
<rect x="427.072" y="6.64941" width="23.6561" height="391.297" fill="#FDFBF9" fill-opacity="0.1"/>
<rect x="457.16" y="6.64941" width="23.6561" height="391.297" fill="#FDFBF9" fill-opacity="0.1"/>
<rect x="487.246" y="6.64941" width="23.6561" height="391.297" fill="#FDFBF9" fill-opacity="0.1"/>
<rect x="517.334" y="6.64941" width="23.6561" height="391.297" fill="#FDFBF9" fill-opacity="0.1"/>
<rect x="547.42" y="6.64941" width="23.6561" height="391.297" fill="#FDFBF9" fill-opacity="0.1"/>
<rect x="577.506" y="6.64941" width="23.6561" height="391.297" fill="#FDFBF9" fill-opacity="0.1"/>
<rect x="607.594" y="6.64941" width="23.6561" height="391.297" fill="#FDFBF9" fill-opacity="0.1"/>
<rect x="637.68" y="6.64941" width="23.6561" height="391.297" fill="#FDFBF9" fill-opacity="0.1"/>
<rect x="667.766" y="6.64941" width="23.6561" height="391.297" fill="#FDFBF9" fill-opacity="0.1"/>
<rect x="697.854" y="6.64941" width="23.6561" height="391.297" fill="#FDFBF9" fill-opacity="0.1"/>
<rect x="5.85938" y="35.8447" width="534.038" height="361.04" rx="11.1631" fill="#0567FF" fill-opacity="0.5"/>
<rect x="547.42" y="35.8447" width="172.998" height="361.04" rx="11.1631" fill="#0567FF" fill-opacity="0.5"/>
<path d="M727.939 25.7354L0.84552 25.7353L0.845521 11.9094C0.845522 5.74297 5.84444 0.744047 12.0109 0.744048L716.774 0.744109C722.941 0.74411 727.939 5.74303 727.939 11.9095L727.939 25.7354Z" fill="#0567FF"/>
<path d="M223.499 187.267L218.778 200.264H216.849L222.285 186.004H223.528L223.499 187.267ZM227.456 200.264L222.725 187.267L222.696 186.004H223.94L229.395 200.264H227.456ZM227.211 194.985V196.532H219.199V194.985H227.211ZM222.147 185.054L224.047 182.174H226.231L223.607 185.054H222.147ZM232.842 191.332V200.264H231.03V189.667H232.793L232.842 191.332ZM236.153 189.608L236.143 191.293C235.993 191.26 235.849 191.24 235.712 191.234C235.581 191.221 235.431 191.214 235.261 191.214C234.843 191.214 234.475 191.279 234.155 191.41C233.835 191.541 233.564 191.723 233.342 191.958C233.12 192.194 232.943 192.474 232.813 192.801C232.689 193.121 232.607 193.473 232.568 193.859L232.059 194.152C232.059 193.512 232.121 192.912 232.245 192.35C232.375 191.789 232.575 191.293 232.842 190.862C233.11 190.424 233.449 190.085 233.861 189.843C234.279 189.595 234.775 189.471 235.349 189.471C235.48 189.471 235.63 189.487 235.8 189.52C235.97 189.546 236.087 189.575 236.153 189.608ZM242.029 200.46C241.291 200.46 240.622 200.335 240.021 200.087C239.427 199.833 238.914 199.477 238.484 199.02C238.059 198.563 237.733 198.021 237.504 197.394C237.276 196.767 237.161 196.082 237.161 195.337V194.926C237.161 194.064 237.289 193.297 237.543 192.624C237.798 191.945 238.144 191.371 238.581 190.901C239.019 190.431 239.515 190.075 240.07 189.833C240.625 189.592 241.2 189.471 241.794 189.471C242.551 189.471 243.204 189.601 243.753 189.863C244.308 190.124 244.761 190.489 245.114 190.96C245.467 191.423 245.728 191.972 245.897 192.605C246.067 193.232 246.152 193.917 246.152 194.662V195.474H238.239V193.996H244.34V193.859C244.314 193.388 244.216 192.931 244.046 192.487C243.883 192.043 243.622 191.678 243.263 191.39C242.904 191.103 242.414 190.96 241.794 190.96C241.383 190.96 241.004 191.048 240.658 191.224C240.312 191.394 240.015 191.648 239.767 191.988C239.518 192.327 239.326 192.742 239.189 193.232C239.052 193.721 238.983 194.286 238.983 194.926V195.337C238.983 195.84 239.052 196.313 239.189 196.757C239.332 197.195 239.538 197.58 239.806 197.913C240.08 198.246 240.41 198.507 240.795 198.697C241.187 198.886 241.631 198.981 242.127 198.981C242.767 198.981 243.309 198.85 243.753 198.589C244.197 198.328 244.585 197.978 244.918 197.541L246.015 198.413C245.786 198.759 245.496 199.088 245.143 199.402C244.791 199.715 244.357 199.97 243.841 200.166C243.331 200.362 242.728 200.46 242.029 200.46ZM254.516 198.452V192.997C254.516 192.579 254.431 192.216 254.261 191.91C254.098 191.596 253.85 191.355 253.517 191.185C253.184 191.015 252.773 190.93 252.283 190.93C251.826 190.93 251.424 191.008 251.078 191.165C250.739 191.322 250.471 191.528 250.275 191.782C250.086 192.037 249.991 192.311 249.991 192.605H248.179C248.179 192.226 248.277 191.851 248.473 191.479C248.669 191.106 248.95 190.77 249.316 190.47C249.688 190.163 250.132 189.921 250.647 189.745C251.17 189.562 251.751 189.471 252.391 189.471C253.161 189.471 253.84 189.601 254.428 189.863C255.022 190.124 255.486 190.519 255.819 191.048C256.158 191.57 256.328 192.226 256.328 193.016V197.952C256.328 198.305 256.357 198.68 256.416 199.079C256.481 199.477 256.576 199.82 256.7 200.107V200.264H254.81C254.718 200.055 254.647 199.777 254.594 199.431C254.542 199.079 254.516 198.752 254.516 198.452ZM254.829 193.839L254.849 195.112H253.018C252.502 195.112 252.041 195.155 251.637 195.239C251.232 195.318 250.892 195.439 250.618 195.602C250.344 195.765 250.135 195.971 249.991 196.219C249.848 196.46 249.776 196.744 249.776 197.071C249.776 197.404 249.851 197.707 250.001 197.982C250.151 198.256 250.377 198.475 250.677 198.638C250.984 198.795 251.359 198.873 251.803 198.873C252.358 198.873 252.848 198.755 253.272 198.52C253.697 198.285 254.033 197.998 254.281 197.659C254.536 197.319 254.673 196.989 254.692 196.669L255.466 197.541C255.42 197.815 255.296 198.119 255.094 198.452C254.891 198.785 254.621 199.105 254.281 199.412C253.948 199.712 253.55 199.963 253.086 200.166C252.629 200.362 252.113 200.46 251.539 200.46C250.82 200.46 250.19 200.319 249.648 200.038C249.113 199.758 248.695 199.382 248.395 198.912C248.101 198.435 247.954 197.903 247.954 197.316C247.954 196.748 248.065 196.248 248.287 195.817C248.509 195.38 248.829 195.017 249.247 194.73C249.665 194.436 250.168 194.214 250.755 194.064C251.343 193.914 251.999 193.839 252.724 193.839H254.829ZM265.965 191.704V204.338H264.143V189.667H265.808L265.965 191.704ZM273.105 194.877V195.083C273.105 195.853 273.013 196.568 272.831 197.228C272.648 197.881 272.38 198.449 272.027 198.932C271.681 199.415 271.254 199.79 270.744 200.058C270.235 200.326 269.651 200.46 268.991 200.46C268.319 200.46 267.725 200.349 267.209 200.127C266.693 199.905 266.256 199.581 265.896 199.157C265.537 198.733 265.25 198.223 265.035 197.629C264.826 197.035 264.682 196.366 264.604 195.621V194.524C264.682 193.741 264.829 193.039 265.044 192.419C265.26 191.799 265.544 191.27 265.896 190.832C266.256 190.388 266.69 190.052 267.199 189.823C267.708 189.588 268.296 189.471 268.962 189.471C269.628 189.471 270.219 189.601 270.735 189.863C271.25 190.117 271.685 190.483 272.037 190.96C272.39 191.436 272.654 192.007 272.831 192.673C273.013 193.333 273.105 194.067 273.105 194.877ZM271.283 195.083V194.877C271.283 194.348 271.228 193.852 271.117 193.388C271.006 192.918 270.833 192.507 270.598 192.154C270.369 191.795 270.075 191.515 269.716 191.312C269.357 191.103 268.929 190.999 268.433 190.999C267.976 190.999 267.578 191.077 267.238 191.234C266.905 191.39 266.621 191.603 266.386 191.87C266.151 192.132 265.959 192.432 265.808 192.771C265.665 193.104 265.557 193.45 265.485 193.81V196.346C265.616 196.803 265.799 197.234 266.034 197.639C266.269 198.037 266.582 198.36 266.974 198.609C267.366 198.85 267.859 198.971 268.453 198.971C268.942 198.971 269.363 198.87 269.716 198.667C270.075 198.458 270.369 198.174 270.598 197.815C270.833 197.456 271.006 197.045 271.117 196.581C271.228 196.111 271.283 195.612 271.283 195.083ZM277.228 191.332V200.264H275.416V189.667H277.179L277.228 191.332ZM280.538 189.608L280.528 191.293C280.378 191.26 280.235 191.24 280.098 191.234C279.967 191.221 279.817 191.214 279.647 191.214C279.229 191.214 278.86 191.279 278.54 191.41C278.22 191.541 277.949 191.723 277.727 191.958C277.505 192.194 277.329 192.474 277.199 192.801C277.075 193.121 276.993 193.473 276.954 193.859L276.444 194.152C276.444 193.512 276.506 192.912 276.631 192.35C276.761 191.789 276.96 191.293 277.228 190.862C277.496 190.424 277.835 190.085 278.246 189.843C278.664 189.595 279.161 189.471 279.735 189.471C279.866 189.471 280.016 189.487 280.186 189.52C280.355 189.546 280.473 189.575 280.538 189.608ZM284.182 189.667V200.264H282.36V189.667H284.182ZM282.223 186.856C282.223 186.562 282.311 186.314 282.487 186.112C282.67 185.909 282.938 185.808 283.29 185.808C283.636 185.808 283.901 185.909 284.084 186.112C284.273 186.314 284.368 186.562 284.368 186.856C284.368 187.137 284.273 187.378 284.084 187.581C283.901 187.777 283.636 187.874 283.29 187.874C282.938 187.874 282.67 187.777 282.487 187.581C282.311 187.378 282.223 187.137 282.223 186.856ZM288.902 191.929V200.264H287.09V189.667H288.804L288.902 191.929ZM288.471 194.564L287.717 194.534C287.724 193.81 287.831 193.14 288.04 192.527C288.249 191.906 288.543 191.368 288.922 190.911C289.3 190.454 289.751 190.101 290.273 189.853C290.802 189.598 291.387 189.471 292.026 189.471C292.549 189.471 293.019 189.543 293.437 189.686C293.855 189.823 294.21 190.045 294.504 190.352C294.805 190.659 295.033 191.057 295.19 191.547C295.347 192.03 295.425 192.621 295.425 193.32V200.264H293.603V193.3C293.603 192.745 293.522 192.301 293.358 191.968C293.195 191.629 292.957 191.384 292.643 191.234C292.33 191.077 291.945 190.999 291.488 190.999C291.037 190.999 290.626 191.093 290.254 191.283C289.888 191.472 289.571 191.733 289.304 192.066C289.043 192.399 288.837 192.781 288.687 193.212C288.543 193.637 288.471 194.087 288.471 194.564ZM302.418 198.971C302.849 198.971 303.247 198.883 303.613 198.706C303.978 198.53 304.279 198.289 304.514 197.982C304.749 197.668 304.882 197.312 304.915 196.914H306.639C306.606 197.541 306.394 198.125 306.002 198.667C305.617 199.203 305.111 199.637 304.484 199.97C303.857 200.296 303.169 200.46 302.418 200.46C301.621 200.46 300.926 200.319 300.332 200.038C299.744 199.758 299.254 199.372 298.863 198.883C298.477 198.393 298.187 197.832 297.991 197.198C297.802 196.558 297.707 195.883 297.707 195.171V194.76C297.707 194.048 297.802 193.375 297.991 192.742C298.187 192.102 298.477 191.537 298.863 191.048C299.254 190.558 299.744 190.173 300.332 189.892C300.926 189.611 301.621 189.471 302.418 189.471C303.247 189.471 303.972 189.641 304.592 189.98C305.212 190.313 305.699 190.77 306.051 191.351C306.41 191.926 306.606 192.579 306.639 193.31H304.915C304.882 192.873 304.758 192.478 304.543 192.125C304.334 191.772 304.047 191.492 303.681 191.283C303.322 191.067 302.901 190.96 302.418 190.96C301.863 190.96 301.396 191.071 301.017 191.293C300.645 191.508 300.348 191.802 300.126 192.174C299.91 192.54 299.754 192.948 299.656 193.398C299.564 193.842 299.519 194.296 299.519 194.76V195.171C299.519 195.634 299.564 196.091 299.656 196.542C299.747 196.993 299.901 197.401 300.116 197.766C300.338 198.132 300.635 198.426 301.007 198.648C301.386 198.863 301.856 198.971 302.418 198.971ZM310.645 189.667V200.264H308.823V189.667H310.645ZM308.686 186.856C308.686 186.562 308.774 186.314 308.95 186.112C309.133 185.909 309.401 185.808 309.753 185.808C310.099 185.808 310.364 185.909 310.547 186.112C310.736 186.314 310.831 186.562 310.831 186.856C310.831 187.137 310.736 187.378 310.547 187.581C310.364 187.777 310.099 187.874 309.753 187.874C309.401 187.874 309.133 187.777 308.95 187.581C308.774 187.378 308.686 187.137 308.686 186.856ZM315.365 191.704V204.338H313.543V189.667H315.208L315.365 191.704ZM322.505 194.877V195.083C322.505 195.853 322.413 196.568 322.231 197.228C322.048 197.881 321.78 198.449 321.428 198.932C321.081 199.415 320.654 199.79 320.145 200.058C319.635 200.326 319.051 200.46 318.391 200.46C317.719 200.46 317.125 200.349 316.609 200.127C316.093 199.905 315.656 199.581 315.297 199.157C314.937 198.733 314.65 198.223 314.435 197.629C314.226 197.035 314.082 196.366 314.004 195.621V194.524C314.082 193.741 314.229 193.039 314.445 192.419C314.66 191.799 314.944 191.27 315.297 190.832C315.656 190.388 316.09 190.052 316.599 189.823C317.108 189.588 317.696 189.471 318.362 189.471C319.028 189.471 319.619 189.601 320.135 189.863C320.651 190.117 321.085 190.483 321.437 190.96C321.79 191.436 322.054 192.007 322.231 192.673C322.413 193.333 322.505 194.067 322.505 194.877ZM320.683 195.083V194.877C320.683 194.348 320.628 193.852 320.517 193.388C320.406 192.918 320.233 192.507 319.998 192.154C319.769 191.795 319.475 191.515 319.116 191.312C318.757 191.103 318.329 190.999 317.833 190.999C317.376 190.999 316.978 191.077 316.638 191.234C316.305 191.39 316.021 191.603 315.786 191.87C315.551 192.132 315.359 192.432 315.208 192.771C315.065 193.104 314.957 193.45 314.885 193.81V196.346C315.016 196.803 315.199 197.234 315.434 197.639C315.669 198.037 315.982 198.36 316.374 198.609C316.766 198.85 317.259 198.971 317.853 198.971C318.342 198.971 318.764 198.87 319.116 198.667C319.475 198.458 319.769 198.174 319.998 197.815C320.233 197.456 320.406 197.045 320.517 196.581C320.628 196.111 320.683 195.612 320.683 195.083ZM331.065 198.452V192.997C331.065 192.579 330.98 192.216 330.81 191.91C330.647 191.596 330.399 191.355 330.066 191.185C329.733 191.015 329.321 190.93 328.832 190.93C328.375 190.93 327.973 191.008 327.627 191.165C327.287 191.322 327.02 191.528 326.824 191.782C326.635 192.037 326.54 192.311 326.54 192.605H324.728C324.728 192.226 324.826 191.851 325.022 191.479C325.218 191.106 325.498 190.77 325.864 190.47C326.236 190.163 326.68 189.921 327.196 189.745C327.718 189.562 328.3 189.471 328.939 189.471C329.71 189.471 330.389 189.601 330.977 189.863C331.571 190.124 332.034 190.519 332.367 191.048C332.707 191.57 332.877 192.226 332.877 193.016V197.952C332.877 198.305 332.906 198.68 332.965 199.079C333.03 199.477 333.125 199.82 333.249 200.107V200.264H331.358C331.267 200.055 331.195 199.777 331.143 199.431C331.091 199.079 331.065 198.752 331.065 198.452ZM331.378 193.839L331.398 195.112H329.566C329.05 195.112 328.59 195.155 328.185 195.239C327.78 195.318 327.441 195.439 327.167 195.602C326.892 195.765 326.684 195.971 326.54 196.219C326.396 196.46 326.324 196.744 326.324 197.071C326.324 197.404 326.4 197.707 326.55 197.982C326.7 198.256 326.925 198.475 327.225 198.638C327.532 198.795 327.908 198.873 328.352 198.873C328.907 198.873 329.396 198.755 329.821 198.52C330.245 198.285 330.581 197.998 330.83 197.659C331.084 197.319 331.221 196.989 331.241 196.669L332.015 197.541C331.969 197.815 331.845 198.119 331.642 198.452C331.44 198.785 331.169 199.105 330.83 199.412C330.497 199.712 330.098 199.963 329.635 200.166C329.178 200.362 328.662 200.46 328.087 200.46C327.369 200.46 326.739 200.319 326.197 200.038C325.662 199.758 325.244 199.382 324.944 198.912C324.65 198.435 324.503 197.903 324.503 197.316C324.503 196.748 324.614 196.248 324.836 195.817C325.058 195.38 325.378 195.017 325.796 194.73C326.213 194.436 326.716 194.214 327.304 194.064C327.891 193.914 328.548 193.839 329.272 193.839H331.378ZM337.695 185.22V200.264H335.873V185.22H337.695ZM261.227 207.525V218.264H260.353V208.634L257.444 209.714V208.884L261.08 207.525H261.227ZM272.062 215.428C272.062 216.075 271.91 216.621 271.606 217.066C271.308 217.512 270.901 217.847 270.387 218.073C269.873 218.298 269.297 218.411 268.661 218.411C268.019 218.411 267.441 218.298 266.927 218.073C266.413 217.847 266.004 217.512 265.701 217.066C265.402 216.621 265.253 216.075 265.253 215.428C265.253 215.002 265.336 214.615 265.502 214.268C265.674 213.915 265.911 213.612 266.215 213.357C266.523 213.097 266.883 212.897 267.295 212.755C267.706 212.613 268.156 212.542 268.646 212.542C269.292 212.542 269.873 212.666 270.387 212.916C270.901 213.161 271.308 213.499 271.606 213.93C271.91 214.361 272.062 214.86 272.062 215.428ZM271.18 215.428C271.18 214.973 271.07 214.574 270.85 214.231C270.629 213.888 270.328 213.624 269.946 213.438C269.564 213.247 269.131 213.151 268.646 213.151C268.156 213.151 267.723 213.247 267.346 213.438C266.969 213.624 266.673 213.888 266.457 214.231C266.242 214.574 266.134 214.973 266.134 215.428C266.134 215.903 266.239 216.307 266.45 216.64C266.665 216.973 266.964 217.226 267.346 217.397C267.728 217.568 268.166 217.654 268.661 217.654C269.155 217.654 269.591 217.568 269.968 217.397C270.345 217.226 270.642 216.973 270.857 216.64C271.073 216.307 271.18 215.903 271.18 215.428ZM271.783 210.316C271.783 210.84 271.643 211.308 271.364 211.719C271.09 212.125 270.717 212.446 270.247 212.681C269.777 212.911 269.246 213.026 268.653 213.026C268.056 213.026 267.52 212.911 267.045 212.681C266.575 212.446 266.203 212.125 265.928 211.719C265.659 211.308 265.524 210.84 265.524 210.316C265.524 209.694 265.659 209.17 265.928 208.744C266.203 208.313 266.575 207.985 267.045 207.76C267.515 207.535 268.049 207.422 268.646 207.422C269.239 207.422 269.77 207.535 270.24 207.76C270.715 207.985 271.09 208.313 271.364 208.744C271.643 209.17 271.783 209.694 271.783 210.316ZM270.908 210.309C270.908 209.892 270.808 209.525 270.607 209.207C270.411 208.889 270.142 208.639 269.799 208.458C269.461 208.272 269.077 208.178 268.646 208.178C268.21 208.178 267.823 208.264 267.486 208.436C267.153 208.607 266.888 208.852 266.692 209.17C266.501 209.488 266.406 209.868 266.406 210.309C266.406 210.74 266.501 211.112 266.692 211.425C266.888 211.734 267.155 211.974 267.493 212.145C267.831 212.316 268.218 212.402 268.653 212.402C269.089 212.402 269.476 212.316 269.814 212.145C270.152 211.974 270.419 211.734 270.615 211.425C270.811 211.112 270.908 210.74 270.908 210.309ZM280.575 217.654C280.947 217.654 281.295 217.585 281.618 217.448C281.946 217.306 282.215 217.098 282.426 216.824C282.641 216.545 282.764 216.205 282.793 215.803H283.631C283.606 216.307 283.452 216.758 283.168 217.155C282.889 217.546 282.522 217.855 282.066 218.08C281.616 218.3 281.119 218.411 280.575 218.411C280.022 218.411 279.532 218.31 279.106 218.109C278.685 217.909 278.332 217.63 278.048 217.272C277.764 216.91 277.549 216.489 277.402 216.009C277.26 215.524 277.189 215.002 277.189 214.444V214.136C277.189 213.577 277.26 213.058 277.402 212.578C277.549 212.094 277.764 211.672 278.048 211.315C278.332 210.953 278.685 210.671 279.106 210.47C279.527 210.269 280.014 210.169 280.568 210.169C281.136 210.169 281.645 210.284 282.095 210.514C282.551 210.744 282.913 211.07 283.183 211.491C283.457 211.912 283.606 212.412 283.631 212.99H282.793C282.769 212.564 282.656 212.196 282.455 211.888C282.255 211.579 281.99 211.342 281.662 211.175C281.334 211.009 280.969 210.926 280.568 210.926C280.117 210.926 279.733 211.014 279.414 211.19C279.096 211.361 278.837 211.599 278.636 211.903C278.44 212.201 278.295 212.544 278.202 212.931C278.109 213.313 278.063 213.714 278.063 214.136V214.444C278.063 214.87 278.107 215.277 278.195 215.663C278.288 216.045 278.433 216.386 278.628 216.684C278.829 216.983 279.089 217.221 279.407 217.397C279.73 217.568 280.12 217.654 280.575 217.654ZM284.916 214.415V214.172C284.916 213.594 284.999 213.061 285.166 212.571C285.332 212.081 285.57 211.658 285.878 211.3C286.192 210.943 286.566 210.666 287.002 210.47C287.438 210.269 287.923 210.169 288.457 210.169C288.995 210.169 289.482 210.269 289.918 210.47C290.354 210.666 290.729 210.943 291.042 211.3C291.356 211.658 291.595 212.081 291.762 212.571C291.928 213.061 292.012 213.594 292.012 214.172V214.415C292.012 214.993 291.928 215.526 291.762 216.016C291.595 216.501 291.356 216.922 291.042 217.279C290.734 217.637 290.361 217.916 289.926 218.117C289.49 218.313 289.005 218.411 288.471 218.411C287.933 218.411 287.445 218.313 287.01 218.117C286.574 217.916 286.199 217.637 285.886 217.279C285.572 216.922 285.332 216.501 285.166 216.016C284.999 215.526 284.916 214.993 284.916 214.415ZM285.79 214.172V214.415C285.79 214.851 285.849 215.264 285.966 215.656C286.084 216.043 286.255 216.388 286.481 216.692C286.706 216.99 286.985 217.226 287.318 217.397C287.651 217.568 288.035 217.654 288.471 217.654C288.902 217.654 289.282 217.568 289.61 217.397C289.943 217.226 290.222 216.99 290.447 216.692C290.672 216.388 290.841 216.043 290.954 215.656C291.072 215.264 291.13 214.851 291.13 214.415V214.172C291.13 213.741 291.072 213.332 290.954 212.946C290.841 212.559 290.67 212.214 290.44 211.91C290.215 211.606 289.935 211.366 289.602 211.19C289.269 211.014 288.888 210.926 288.457 210.926C288.026 210.926 287.644 211.014 287.311 211.19C286.983 211.366 286.703 211.606 286.473 211.91C286.248 212.214 286.077 212.559 285.959 212.946C285.847 213.332 285.79 213.741 285.79 214.172ZM294.81 206.981V218.264H293.936V206.981H294.81ZM297.131 217.727C297.131 217.556 297.185 217.412 297.293 217.294C297.406 217.172 297.557 217.11 297.748 217.11C297.944 217.11 298.099 217.169 298.211 217.287C298.324 217.404 298.38 217.551 298.38 217.727C298.38 217.894 298.324 218.036 298.211 218.153C298.099 218.271 297.944 218.33 297.748 218.33C297.557 218.33 297.406 218.271 297.293 218.153C297.185 218.036 297.131 217.894 297.131 217.727Z" fill="#FDFBF9"/>
<path d="M581.835 200.264H578.858L578.877 198.726H581.835C582.853 198.726 583.702 198.514 584.381 198.089C585.06 197.659 585.57 197.058 585.909 196.287C586.255 195.51 586.428 194.603 586.428 193.565V192.693C586.428 191.877 586.33 191.152 586.134 190.519C585.939 189.879 585.651 189.34 585.273 188.903C584.894 188.459 584.43 188.123 583.882 187.894C583.34 187.666 582.716 187.551 582.011 187.551H578.799V186.004H582.011C582.945 186.004 583.797 186.161 584.567 186.474C585.338 186.781 586.001 187.228 586.556 187.816C587.117 188.397 587.548 189.102 587.848 189.931C588.149 190.754 588.299 191.681 588.299 192.713V193.565C588.299 194.596 588.149 195.527 587.848 196.356C587.548 197.179 587.114 197.881 586.546 198.462C585.984 199.043 585.305 199.49 584.509 199.803C583.719 200.11 582.827 200.264 581.835 200.264ZM579.866 186.004V200.264H577.976V186.004H579.866ZM595.262 200.46C594.524 200.46 593.855 200.335 593.255 200.087C592.66 199.833 592.148 199.477 591.717 199.02C591.293 198.563 590.966 198.021 590.738 197.394C590.509 196.767 590.395 196.082 590.395 195.337V194.926C590.395 194.064 590.522 193.297 590.777 192.624C591.031 191.945 591.377 191.371 591.815 190.901C592.252 190.431 592.749 190.075 593.304 189.833C593.858 189.592 594.433 189.471 595.027 189.471C595.785 189.471 596.438 189.601 596.986 189.863C597.541 190.124 597.995 190.489 598.347 190.96C598.7 191.423 598.961 191.972 599.131 192.605C599.301 193.232 599.385 193.917 599.385 194.662V195.474H591.472V193.996H597.574V193.859C597.547 193.388 597.45 192.931 597.28 192.487C597.117 192.043 596.855 191.678 596.496 191.39C596.137 191.103 595.647 190.96 595.027 190.96C594.616 190.96 594.237 191.048 593.891 191.224C593.545 191.394 593.248 191.648 593 191.988C592.752 192.327 592.559 192.742 592.422 193.232C592.285 193.721 592.216 194.286 592.216 194.926V195.337C592.216 195.84 592.285 196.313 592.422 196.757C592.566 197.195 592.771 197.58 593.039 197.913C593.313 198.246 593.643 198.507 594.028 198.697C594.42 198.886 594.864 198.981 595.36 198.981C596 198.981 596.542 198.85 596.986 198.589C597.43 198.328 597.818 197.978 598.151 197.541L599.248 198.413C599.02 198.759 598.729 199.088 598.377 199.402C598.024 199.715 597.59 199.97 597.074 200.166C596.565 200.362 595.961 200.46 595.262 200.46ZM605.938 189.667V191.057H600.208V189.667H605.938ZM602.147 187.091H603.959V197.639C603.959 197.998 604.015 198.269 604.126 198.452C604.237 198.635 604.38 198.755 604.557 198.814C604.733 198.873 604.922 198.902 605.125 198.902C605.275 198.902 605.432 198.889 605.595 198.863C605.765 198.831 605.892 198.804 605.977 198.785L605.987 200.264C605.843 200.309 605.654 200.352 605.418 200.391C605.19 200.437 604.912 200.46 604.586 200.46C604.142 200.46 603.734 200.371 603.362 200.195C602.99 200.019 602.693 199.725 602.471 199.314C602.255 198.896 602.147 198.334 602.147 197.629V187.091ZM614.311 198.452V192.997C614.311 192.579 614.226 192.216 614.057 191.91C613.893 191.596 613.645 191.355 613.312 191.185C612.979 191.015 612.568 190.93 612.078 190.93C611.621 190.93 611.22 191.008 610.874 191.165C610.534 191.322 610.266 191.528 610.071 191.782C609.881 192.037 609.787 192.311 609.787 192.605H607.975C607.975 192.226 608.073 191.851 608.268 191.479C608.464 191.106 608.745 190.77 609.111 190.47C609.483 190.163 609.927 189.921 610.443 189.745C610.965 189.562 611.546 189.471 612.186 189.471C612.956 189.471 613.636 189.601 614.223 189.863C614.817 190.124 615.281 190.519 615.614 191.048C615.953 191.57 616.123 192.226 616.123 193.016V197.952C616.123 198.305 616.153 198.68 616.211 199.079C616.277 199.477 616.371 199.82 616.495 200.107V200.264H614.605C614.514 200.055 614.442 199.777 614.39 199.431C614.337 199.079 614.311 198.752 614.311 198.452ZM614.625 193.839L614.644 195.112H612.813C612.297 195.112 611.837 195.155 611.432 195.239C611.027 195.318 610.688 195.439 610.413 195.602C610.139 195.765 609.93 195.971 609.787 196.219C609.643 196.46 609.571 196.744 609.571 197.071C609.571 197.404 609.646 197.707 609.796 197.982C609.946 198.256 610.172 198.475 610.472 198.638C610.779 198.795 611.154 198.873 611.598 198.873C612.153 198.873 612.643 198.755 613.067 198.52C613.492 198.285 613.828 197.998 614.076 197.659C614.331 197.319 614.468 196.989 614.488 196.669L615.261 197.541C615.216 197.815 615.092 198.119 614.889 198.452C614.687 198.785 614.416 199.105 614.076 199.412C613.743 199.712 613.345 199.963 612.881 200.166C612.424 200.362 611.909 200.46 611.334 200.46C610.616 200.46 609.986 200.319 609.444 200.038C608.908 199.758 608.49 199.382 608.19 198.912C607.896 198.435 607.749 197.903 607.749 197.316C607.749 196.748 607.86 196.248 608.082 195.817C608.304 195.38 608.624 195.017 609.042 194.73C609.46 194.436 609.963 194.214 610.55 194.064C611.138 193.914 611.794 193.839 612.519 193.839H614.625ZM620.942 185.22V200.264H619.12V185.22H620.942ZM625.662 185.22V200.264H623.85V185.22H625.662ZM625.231 194.564L624.477 194.534C624.484 193.81 624.592 193.14 624.8 192.527C625.009 191.906 625.303 191.368 625.682 190.911C626.061 190.454 626.511 190.101 627.033 189.853C627.562 189.598 628.147 189.471 628.787 189.471C629.309 189.471 629.779 189.543 630.197 189.686C630.615 189.823 630.971 190.045 631.264 190.352C631.565 190.659 631.793 191.057 631.95 191.547C632.107 192.03 632.185 192.621 632.185 193.32V200.264H630.363V193.3C630.363 192.745 630.282 192.301 630.119 191.968C629.955 191.629 629.717 191.384 629.404 191.234C629.09 191.077 628.705 190.999 628.248 190.999C627.797 190.999 627.386 191.093 627.014 191.283C626.648 191.472 626.332 191.733 626.064 192.066C625.803 192.399 625.597 192.781 625.447 193.212C625.303 193.637 625.231 194.087 625.231 194.564ZM641.146 198.452V192.997C641.146 192.579 641.062 192.216 640.892 191.91C640.729 191.596 640.48 191.355 640.147 191.185C639.814 191.015 639.403 190.93 638.913 190.93C638.456 190.93 638.055 191.008 637.709 191.165C637.369 191.322 637.102 191.528 636.906 191.782C636.716 192.037 636.622 192.311 636.622 192.605H634.81C634.81 192.226 634.908 191.851 635.104 191.479C635.299 191.106 635.58 190.77 635.946 190.47C636.318 190.163 636.762 189.921 637.278 189.745C637.8 189.562 638.381 189.471 639.021 189.471C639.792 189.471 640.471 189.601 641.058 189.863C641.652 190.124 642.116 190.519 642.449 191.048C642.788 191.57 642.958 192.226 642.958 193.016V197.952C642.958 198.305 642.988 198.68 643.046 199.079C643.112 199.477 643.206 199.82 643.33 200.107V200.264H641.44C641.349 200.055 641.277 199.777 641.225 199.431C641.173 199.079 641.146 198.752 641.146 198.452ZM641.46 193.839L641.479 195.112H639.648C639.132 195.112 638.672 195.155 638.267 195.239C637.862 195.318 637.523 195.439 637.248 195.602C636.974 195.765 636.765 195.971 636.622 196.219C636.478 196.46 636.406 196.744 636.406 197.071C636.406 197.404 636.481 197.707 636.631 197.982C636.782 198.256 637.007 198.475 637.307 198.638C637.614 198.795 637.99 198.873 638.433 198.873C638.988 198.873 639.478 198.755 639.903 198.52C640.327 198.285 640.663 197.998 640.911 197.659C641.166 197.319 641.303 196.989 641.323 196.669L642.096 197.541C642.051 197.815 641.927 198.119 641.724 198.452C641.522 198.785 641.251 199.105 640.911 199.412C640.578 199.712 640.18 199.963 639.716 200.166C639.259 200.362 638.744 200.46 638.169 200.46C637.451 200.46 636.821 200.319 636.279 200.038C635.743 199.758 635.326 199.382 635.025 198.912C634.731 198.435 634.585 197.903 634.585 197.316C634.585 196.748 634.696 196.248 634.918 195.817C635.14 195.38 635.459 195.017 635.877 194.73C636.295 194.436 636.798 194.214 637.386 194.064C637.973 193.914 638.629 193.839 639.354 193.839H641.46ZM647.61 191.772V200.264H645.789V189.667H647.512L647.61 191.772ZM647.238 194.564L646.396 194.534C646.402 193.81 646.497 193.14 646.68 192.527C646.863 191.906 647.134 191.368 647.493 190.911C647.852 190.454 648.299 190.101 648.835 189.853C649.37 189.598 649.99 189.471 650.695 189.471C651.192 189.471 651.649 189.543 652.067 189.686C652.484 189.823 652.847 190.042 653.154 190.343C653.461 190.643 653.699 191.028 653.869 191.498C654.038 191.968 654.123 192.536 654.123 193.202V200.264H652.311V193.29C652.311 192.735 652.217 192.291 652.027 191.958C651.845 191.626 651.583 191.384 651.244 191.234C650.904 191.077 650.506 190.999 650.049 190.999C649.514 190.999 649.066 191.093 648.707 191.283C648.348 191.472 648.061 191.733 647.845 192.066C647.63 192.399 647.473 192.781 647.375 193.212C647.284 193.637 647.238 194.087 647.238 194.564ZM654.104 193.565L652.889 193.937C652.896 193.356 652.99 192.798 653.173 192.262C653.363 191.727 653.634 191.25 653.986 190.832C654.345 190.414 654.786 190.085 655.308 189.843C655.831 189.595 656.428 189.471 657.101 189.471C657.669 189.471 658.171 189.546 658.609 189.696C659.053 189.846 659.425 190.078 659.725 190.391C660.032 190.698 660.264 191.093 660.421 191.577C660.577 192.06 660.656 192.634 660.656 193.3V200.264H658.834V193.281C658.834 192.687 658.739 192.226 658.55 191.9C658.367 191.567 658.106 191.335 657.767 191.204C657.434 191.067 657.035 190.999 656.572 190.999C656.173 190.999 655.821 191.067 655.514 191.204C655.207 191.341 654.949 191.531 654.74 191.772C654.531 192.007 654.371 192.278 654.26 192.585C654.156 192.892 654.104 193.219 654.104 193.565ZM667.795 200.46C667.058 200.46 666.388 200.335 665.788 200.087C665.194 199.833 664.681 199.477 664.25 199.02C663.826 198.563 663.499 198.021 663.271 197.394C663.042 196.767 662.928 196.082 662.928 195.337V194.926C662.928 194.064 663.055 193.297 663.31 192.624C663.564 191.945 663.911 191.371 664.348 190.901C664.785 190.431 665.282 190.075 665.837 189.833C666.392 189.592 666.966 189.471 667.56 189.471C668.318 189.471 668.971 189.601 669.519 189.863C670.074 190.124 670.528 190.489 670.88 190.96C671.233 191.423 671.494 191.972 671.664 192.605C671.834 193.232 671.919 193.917 671.919 194.662V195.474H664.005V193.996H670.107V193.859C670.081 193.388 669.983 192.931 669.813 192.487C669.65 192.043 669.389 191.678 669.029 191.39C668.67 191.103 668.181 190.96 667.56 190.96C667.149 190.96 666.77 191.048 666.424 191.224C666.078 191.394 665.781 191.648 665.533 191.988C665.285 192.327 665.092 192.742 664.955 193.232C664.818 193.721 664.75 194.286 664.75 194.926V195.337C664.75 195.84 664.818 196.313 664.955 196.757C665.099 197.195 665.305 197.58 665.572 197.913C665.846 198.246 666.176 198.507 666.561 198.697C666.953 198.886 667.397 198.981 667.893 198.981C668.533 198.981 669.075 198.85 669.519 198.589C669.963 198.328 670.352 197.978 670.685 197.541L671.782 198.413C671.553 198.759 671.262 199.088 670.91 199.402C670.557 199.715 670.123 199.97 669.607 200.166C669.098 200.362 668.494 200.46 667.795 200.46ZM675.846 191.929V200.264H674.034V189.667H675.748L675.846 191.929ZM675.415 194.564L674.661 194.534C674.667 193.81 674.775 193.14 674.984 192.527C675.193 191.906 675.487 191.368 675.866 190.911C676.244 190.454 676.695 190.101 677.217 189.853C677.746 189.598 678.33 189.471 678.97 189.471C679.493 189.471 679.963 189.543 680.38 189.686C680.798 189.823 681.154 190.045 681.448 190.352C681.748 190.659 681.977 191.057 682.134 191.547C682.29 192.03 682.369 192.621 682.369 193.32V200.264H680.547V193.3C680.547 192.745 680.465 192.301 680.302 191.968C680.139 191.629 679.901 191.384 679.587 191.234C679.274 191.077 678.889 190.999 678.432 190.999C677.981 190.999 677.57 191.093 677.197 191.283C676.832 191.472 676.515 191.733 676.247 192.066C675.986 192.399 675.781 192.781 675.63 193.212C675.487 193.637 675.415 194.087 675.415 194.564ZM689.557 189.667V191.057H683.828V189.667H689.557ZM685.767 187.091H687.579V197.639C687.579 197.998 687.634 198.269 687.745 198.452C687.856 198.635 688 198.755 688.176 198.814C688.353 198.873 688.542 198.902 688.744 198.902C688.895 198.902 689.051 198.889 689.215 198.863C689.384 198.831 689.512 198.804 689.596 198.785L689.606 200.264C689.463 200.309 689.273 200.352 689.038 200.391C688.81 200.437 688.532 200.46 688.206 200.46C687.762 200.46 687.354 200.371 686.982 200.195C686.609 200.019 686.312 199.725 686.09 199.314C685.875 198.896 685.767 198.334 685.767 197.629V187.091ZM691.007 195.083V194.857C691.007 194.094 691.118 193.385 691.34 192.732C691.562 192.073 691.882 191.501 692.3 191.018C692.717 190.529 693.223 190.15 693.818 189.882C694.412 189.608 695.078 189.471 695.816 189.471C696.56 189.471 697.229 189.608 697.823 189.882C698.424 190.15 698.933 190.529 699.351 191.018C699.776 191.501 700.099 192.073 700.321 192.732C700.543 193.385 700.654 194.094 700.654 194.857V195.083C700.654 195.847 700.543 196.555 700.321 197.208C700.099 197.861 699.776 198.432 699.351 198.922C698.933 199.405 698.427 199.784 697.833 200.058C697.245 200.326 696.579 200.46 695.835 200.46C695.091 200.46 694.422 200.326 693.827 200.058C693.233 199.784 692.724 199.405 692.3 198.922C691.882 198.432 691.562 197.861 691.34 197.208C691.118 196.555 691.007 195.847 691.007 195.083ZM692.819 194.857V195.083C692.819 195.612 692.881 196.111 693.005 196.581C693.129 197.045 693.315 197.456 693.563 197.815C693.818 198.174 694.134 198.458 694.513 198.667C694.892 198.87 695.332 198.971 695.835 198.971C696.331 198.971 696.766 198.87 697.138 198.667C697.516 198.458 697.83 198.174 698.078 197.815C698.326 197.456 698.512 197.045 698.636 196.581C698.767 196.111 698.832 195.612 698.832 195.083V194.857C698.832 194.335 698.767 193.842 698.636 193.379C698.512 192.909 698.323 192.494 698.068 192.135C697.82 191.769 697.507 191.482 697.128 191.273C696.756 191.064 696.318 190.96 695.816 190.96C695.319 190.96 694.882 191.064 694.503 191.273C694.131 191.482 693.818 191.769 693.563 192.135C693.315 192.494 693.129 192.909 693.005 193.379C692.881 193.842 692.819 194.335 692.819 194.857ZM615.134 215.772V224.264H613.312V213.667H615.036L615.134 215.772ZM614.762 218.564L613.92 218.534C613.926 217.81 614.021 217.14 614.204 216.527C614.386 215.906 614.657 215.368 615.016 214.911C615.376 214.454 615.823 214.101 616.358 213.853C616.894 213.598 617.514 213.471 618.219 213.471C618.715 213.471 619.172 213.543 619.59 213.686C620.008 213.823 620.37 214.042 620.677 214.343C620.984 214.643 621.222 215.028 621.392 215.498C621.562 215.968 621.647 216.536 621.647 217.202V224.264H619.835V217.29C619.835 216.735 619.74 216.291 619.551 215.958C619.368 215.626 619.107 215.384 618.767 215.234C618.428 215.077 618.03 214.999 617.573 214.999C617.037 214.999 616.59 215.093 616.231 215.283C615.872 215.472 615.584 215.733 615.369 216.066C615.154 216.399 614.997 216.781 614.899 217.212C614.808 217.637 614.762 218.087 614.762 218.564ZM621.627 217.565L620.413 217.937C620.419 217.356 620.514 216.798 620.697 216.262C620.886 215.727 621.157 215.25 621.51 214.832C621.869 214.414 622.31 214.085 622.832 213.843C623.354 213.595 623.952 213.471 624.624 213.471C625.192 213.471 625.695 213.546 626.132 213.696C626.576 213.846 626.949 214.078 627.249 214.391C627.556 214.698 627.788 215.093 627.944 215.577C628.101 216.06 628.179 216.634 628.179 217.3V224.264H626.358V217.281C626.358 216.687 626.263 216.226 626.074 215.9C625.891 215.567 625.63 215.335 625.29 215.204C624.957 215.067 624.559 214.999 624.095 214.999C623.697 214.999 623.344 215.067 623.038 215.204C622.731 215.341 622.473 215.531 622.264 215.772C622.055 216.007 621.895 216.278 621.784 216.585C621.68 216.892 621.627 217.219 621.627 217.565ZM630.442 219.083V218.857C630.442 218.094 630.553 217.385 630.775 216.732C630.997 216.073 631.317 215.501 631.735 215.018C632.152 214.529 632.658 214.15 633.253 213.882C633.847 213.608 634.513 213.471 635.251 213.471C635.995 213.471 636.664 213.608 637.258 213.882C637.859 214.15 638.368 214.529 638.786 215.018C639.21 215.501 639.534 216.073 639.756 216.732C639.978 217.385 640.089 218.094 640.089 218.857V219.083C640.089 219.847 639.978 220.555 639.756 221.208C639.534 221.861 639.21 222.432 638.786 222.922C638.368 223.405 637.862 223.784 637.268 224.058C636.68 224.326 636.014 224.46 635.27 224.46C634.526 224.46 633.857 224.326 633.262 224.058C632.668 223.784 632.159 223.405 631.735 222.922C631.317 222.432 630.997 221.861 630.775 221.208C630.553 220.555 630.442 219.847 630.442 219.083ZM632.254 218.857V219.083C632.254 219.612 632.316 220.111 632.44 220.581C632.564 221.045 632.75 221.456 632.998 221.815C633.253 222.174 633.569 222.458 633.948 222.667C634.327 222.87 634.767 222.971 635.27 222.971C635.766 222.971 636.201 222.87 636.573 222.667C636.951 222.458 637.265 222.174 637.513 221.815C637.761 221.456 637.947 221.045 638.071 220.581C638.202 220.111 638.267 219.612 638.267 219.083V218.857C638.267 218.335 638.202 217.842 638.071 217.379C637.947 216.909 637.758 216.494 637.503 216.135C637.255 215.769 636.942 215.482 636.563 215.273C636.191 215.064 635.753 214.96 635.251 214.96C634.754 214.96 634.317 215.064 633.938 215.273C633.566 215.482 633.253 215.769 632.998 216.135C632.75 216.494 632.564 216.909 632.44 217.379C632.316 217.842 632.254 218.335 632.254 218.857ZM634.173 212.1L636.073 209.22H638.257L635.632 212.1H634.173ZM645.426 222.628L648.325 213.667H650.176L646.367 224.264H645.152L645.426 222.628ZM643.007 213.667L645.994 222.677L646.2 224.264H644.986L641.146 213.667H643.007ZM656.18 224.46C655.442 224.46 654.773 224.335 654.172 224.087C653.578 223.833 653.065 223.477 652.635 223.02C652.21 222.563 651.884 222.021 651.655 221.394C651.427 220.767 651.312 220.082 651.312 219.337V218.926C651.312 218.064 651.44 217.297 651.694 216.624C651.949 215.945 652.295 215.371 652.732 214.901C653.17 214.431 653.666 214.075 654.221 213.833C654.776 213.592 655.351 213.471 655.945 213.471C656.702 213.471 657.355 213.601 657.904 213.863C658.459 214.124 658.912 214.489 659.265 214.96C659.618 215.423 659.879 215.972 660.048 216.605C660.218 217.232 660.303 217.917 660.303 218.662V219.474H652.39V217.996H658.491V217.859C658.465 217.388 658.367 216.931 658.197 216.487C658.034 216.043 657.773 215.678 657.414 215.39C657.055 215.103 656.565 214.96 655.945 214.96C655.534 214.96 655.155 215.048 654.809 215.224C654.463 215.394 654.166 215.648 653.918 215.988C653.669 216.327 653.477 216.742 653.34 217.232C653.203 217.721 653.134 218.286 653.134 218.926V219.337C653.134 219.84 653.203 220.313 653.34 220.757C653.483 221.195 653.689 221.58 653.957 221.913C654.231 222.246 654.561 222.507 654.946 222.697C655.338 222.886 655.782 222.981 656.278 222.981C656.918 222.981 657.46 222.85 657.904 222.589C658.348 222.328 658.736 221.978 659.069 221.541L660.166 222.413C659.937 222.759 659.647 223.088 659.294 223.402C658.942 223.715 658.508 223.97 657.992 224.166C657.483 224.362 656.879 224.46 656.18 224.46ZM664.387 209.22V224.264H662.566V209.22H664.387ZM627.408 231.488H627.533V232.259H627.408C626.732 232.259 626.13 232.369 625.601 232.59C625.077 232.81 624.634 233.128 624.272 233.545C623.914 233.956 623.642 234.456 623.456 235.043C623.27 235.631 623.177 236.289 623.177 237.019V238.495C623.177 238.99 623.243 239.433 623.375 239.825C623.508 240.212 623.691 240.542 623.926 240.817C624.161 241.091 624.436 241.299 624.749 241.441C625.062 241.583 625.4 241.654 625.763 241.654C626.12 241.654 626.441 241.581 626.725 241.434C627.009 241.287 627.249 241.081 627.445 240.817C627.646 240.552 627.797 240.249 627.9 239.906C628.008 239.558 628.062 239.186 628.062 238.789C628.062 238.412 628.013 238.057 627.915 237.724C627.822 237.386 627.677 237.088 627.482 236.828C627.286 236.569 627.041 236.365 626.747 236.218C626.453 236.072 626.108 235.998 625.711 235.998C625.261 235.998 624.84 236.101 624.448 236.307C624.056 236.512 623.735 236.786 623.486 237.129C623.241 237.472 623.111 237.847 623.096 238.253L622.59 238.246C622.624 237.785 622.729 237.372 622.905 237.004C623.082 236.632 623.314 236.316 623.603 236.057C623.897 235.792 624.232 235.592 624.609 235.455C624.991 235.312 625.403 235.241 625.844 235.241C626.358 235.241 626.806 235.335 627.188 235.521C627.575 235.707 627.895 235.964 628.15 236.292C628.41 236.615 628.603 236.99 628.73 237.416C628.862 237.837 628.929 238.282 628.929 238.753C628.929 239.267 628.855 239.747 628.708 240.192C628.566 240.633 628.356 241.02 628.077 241.353C627.802 241.686 627.469 241.945 627.078 242.131C626.691 242.318 626.252 242.411 625.763 242.411C625.224 242.411 624.742 242.308 624.316 242.102C623.89 241.896 623.525 241.612 623.221 241.25C622.923 240.888 622.692 240.471 622.531 240.001C622.374 239.526 622.296 239.019 622.296 238.481V237.541C622.296 236.63 622.401 235.805 622.612 235.065C622.822 234.321 623.138 233.682 623.559 233.148C623.985 232.614 624.516 232.205 625.153 231.921C625.795 231.632 626.546 231.488 627.408 231.488ZM637.442 241.654C637.814 241.654 638.162 241.585 638.485 241.448C638.813 241.306 639.082 241.098 639.293 240.824C639.508 240.545 639.631 240.205 639.66 239.803H640.498C640.473 240.307 640.319 240.758 640.035 241.155C639.756 241.546 639.388 241.855 638.933 242.08C638.482 242.3 637.985 242.411 637.442 242.411C636.889 242.411 636.399 242.31 635.973 242.109C635.552 241.909 635.199 241.63 634.915 241.272C634.631 240.91 634.416 240.489 634.269 240.009C634.127 239.524 634.056 239.002 634.056 238.444V238.136C634.056 237.577 634.127 237.058 634.269 236.578C634.416 236.094 634.631 235.672 634.915 235.315C635.199 234.953 635.552 234.671 635.973 234.47C636.394 234.269 636.881 234.169 637.435 234.169C638.003 234.169 638.512 234.284 638.962 234.514C639.418 234.744 639.78 235.07 640.049 235.491C640.324 235.912 640.473 236.412 640.498 236.99H639.66C639.636 236.564 639.523 236.196 639.322 235.888C639.122 235.579 638.857 235.342 638.529 235.175C638.201 235.009 637.836 234.926 637.435 234.926C636.984 234.926 636.6 235.014 636.281 235.19C635.963 235.361 635.703 235.599 635.503 235.903C635.307 236.201 635.162 236.544 635.069 236.931C634.976 237.313 634.93 237.714 634.93 238.136V238.444C634.93 238.87 634.974 239.277 635.062 239.663C635.155 240.045 635.299 240.386 635.495 240.684C635.696 240.983 635.956 241.221 636.274 241.397C636.597 241.568 636.986 241.654 637.442 241.654ZM641.783 238.415V238.172C641.783 237.594 641.866 237.061 642.033 236.571C642.199 236.081 642.437 235.658 642.745 235.3C643.059 234.943 643.433 234.666 643.869 234.47C644.305 234.269 644.79 234.169 645.323 234.169C645.862 234.169 646.349 234.269 646.785 234.47C647.221 234.666 647.596 234.943 647.909 235.3C648.222 235.658 648.462 236.081 648.629 236.571C648.795 237.061 648.879 237.594 648.879 238.172V238.415C648.879 238.993 648.795 239.526 648.629 240.016C648.462 240.501 648.222 240.922 647.909 241.279C647.601 241.637 647.228 241.916 646.793 242.117C646.357 242.313 645.872 242.411 645.338 242.411C644.799 242.411 644.312 242.313 643.876 242.117C643.441 241.916 643.066 241.637 642.753 241.279C642.439 240.922 642.199 240.501 642.033 240.016C641.866 239.526 641.783 238.993 641.783 238.415ZM642.657 238.172V238.415C642.657 238.851 642.716 239.264 642.833 239.656C642.951 240.043 643.122 240.388 643.348 240.692C643.573 240.99 643.852 241.226 644.185 241.397C644.518 241.568 644.902 241.654 645.338 241.654C645.769 241.654 646.149 241.568 646.477 241.397C646.81 241.226 647.089 240.99 647.314 240.692C647.539 240.388 647.708 240.043 647.821 239.656C647.938 239.264 647.997 238.851 647.997 238.415V238.172C647.997 237.741 647.938 237.332 647.821 236.946C647.708 236.559 647.537 236.214 647.307 235.91C647.081 235.606 646.802 235.366 646.469 235.19C646.136 235.014 645.754 234.926 645.323 234.926C644.893 234.926 644.511 235.014 644.178 235.19C643.849 235.366 643.57 235.606 643.34 235.91C643.115 236.214 642.944 236.559 642.826 236.946C642.713 237.332 642.657 237.741 642.657 238.172ZM651.677 230.981V242.264H650.803V230.981H651.677ZM653.998 241.727C653.998 241.556 654.052 241.412 654.16 241.294C654.273 241.172 654.424 241.11 654.615 241.11C654.811 241.11 654.965 241.169 655.078 241.287C655.191 241.404 655.247 241.551 655.247 241.727C655.247 241.894 655.191 242.036 655.078 242.153C654.965 242.271 654.811 242.33 654.615 242.33C654.424 242.33 654.273 242.271 654.16 242.153C654.052 242.036 653.998 241.894 653.998 241.727Z" fill="#FDFBF9"/>
</svg>
