<svg width="1051" height="591" viewBox="0 0 1051 591" fill="none" xmlns="http://www.w3.org/2000/svg">
<path d="M0.519531 11.7265C0.519531 5.56457 5.51475 0.569336 11.6767 0.569336H1038.81C1044.97 0.569336 1049.96 5.56456 1049.96 11.7265V579.467C1049.96 585.628 1044.97 590.624 1038.81 590.624H11.6767C5.51478 590.624 0.519531 585.628 0.519531 579.467V11.7265Z" fill="#0567FF" fill-opacity="0.25"/>
<path d="M12.6348 10.5986H45.2287V579.738H12.6348V10.5986Z" fill="#FDFBF9" fill-opacity="0.1"/>
<path d="M55.2578 10.5986H87.8517V579.738H55.2578V10.5986Z" fill="#FDFBF9" fill-opacity="0.1"/>
<path d="M100.387 10.5986H132.981V579.738H100.387V10.5986Z" fill="#FDFBF9" fill-opacity="0.1"/>
<path d="M143.01 10.5986H175.604V579.738H143.01V10.5986Z" fill="#FDFBF9" fill-opacity="0.1"/>
<path d="M185.633 10.5986H218.227V579.738H185.633V10.5986Z" fill="#FDFBF9" fill-opacity="0.1"/>
<path d="M228.256 10.5986H260.85V579.738H228.256V10.5986Z" fill="#FDFBF9" fill-opacity="0.1"/>
<path d="M273.385 10.5986H305.979V579.738H273.385V10.5986Z" fill="#FDFBF9" fill-opacity="0.1"/>
<path d="M316.008 10.5986H348.602V579.738H316.008V10.5986Z" fill="#FDFBF9" fill-opacity="0.1"/>
<path d="M358.631 10.5986H391.225V579.738H358.631V10.5986Z" fill="#FDFBF9" fill-opacity="0.1"/>
<path d="M401.254 10.5986H433.848V579.738H401.254V10.5986Z" fill="#FDFBF9" fill-opacity="0.1"/>
<path d="M446.385 10.5986H478.979V579.738H446.385V10.5986Z" fill="#FDFBF9" fill-opacity="0.1"/>
<path d="M489.006 10.5986H521.6V579.738H489.006V10.5986Z" fill="#FDFBF9" fill-opacity="0.1"/>
<path d="M531.629 10.5986H564.223V579.738H531.629V10.5986Z" fill="#FDFBF9" fill-opacity="0.1"/>
<path d="M574.252 10.5986H606.846V579.738H574.252V10.5986Z" fill="#FDFBF9" fill-opacity="0.1"/>
<path d="M619.383 10.5986H651.977V579.738H619.383V10.5986Z" fill="#FDFBF9" fill-opacity="0.1"/>
<path d="M662.006 10.5986H694.6V579.738H662.006V10.5986Z" fill="#FDFBF9" fill-opacity="0.1"/>
<path d="M704.627 10.5986H737.221V579.738H704.627V10.5986Z" fill="#FDFBF9" fill-opacity="0.1"/>
<path d="M747.25 10.5986H779.844V579.738H747.25V10.5986Z" fill="#FDFBF9" fill-opacity="0.1"/>
<path d="M792.381 10.5986H824.975V579.738H792.381V10.5986Z" fill="#FDFBF9" fill-opacity="0.1"/>
<path d="M835.004 10.5986H867.598V579.738H835.004V10.5986Z" fill="#FDFBF9" fill-opacity="0.1"/>
<path d="M877.627 10.5986H910.221V579.738H877.627V10.5986Z" fill="#FDFBF9" fill-opacity="0.1"/>
<path d="M920.248 10.5986H955.349V579.738H920.248V10.5986Z" fill="#FDFBF9" fill-opacity="0.1"/>
<path d="M965.379 10.5986H995.466V579.738H965.379V10.5986Z" fill="#FDFBF9" fill-opacity="0.1"/>
<path d="M1005.49 10.5986H1038.09V579.738H1005.49V10.5986Z" fill="#FDFBF9" fill-opacity="0.1"/>
<rect x="12.6348" y="33.1641" width="205.592" height="25.0722" rx="11.1631" fill="#0567FF" fill-opacity="0.5"/>
<rect x="12.6348" y="65.7578" width="205.592" height="155.448" rx="11.1631" fill="#0567FF" fill-opacity="0.5"/>
<rect x="832.496" y="534.608" width="205.592" height="45.13" rx="11.1631" fill="#0567FF" fill-opacity="0.5"/>
<path d="M1050.62 25.5615L0.0994873 25.5614L0.0994885 11.7356C0.0994891 5.56912 5.0984 0.570191 11.2649 0.570191L1039.46 0.570281C1045.63 0.570282 1050.63 5.5692 1050.63 11.7357L1050.62 25.5615Z" fill="#0567FF"/>
<path d="M490.794 252.888H493.541L500.548 270.326L507.541 252.888H510.303L501.606 274.277H499.461L490.794 252.888ZM489.898 252.888H492.322L492.718 265.933V274.277H489.898V252.888ZM508.761 252.888H511.184V274.277H508.364V265.933L508.761 252.888ZM525.126 271.56V263.377C525.126 262.75 524.999 262.206 524.744 261.746C524.499 261.276 524.127 260.914 523.628 260.659C523.128 260.404 522.511 260.277 521.777 260.277C521.091 260.277 520.489 260.395 519.97 260.63C519.46 260.865 519.059 261.173 518.765 261.555C518.481 261.937 518.339 262.348 518.339 262.789H515.621C515.621 262.221 515.768 261.658 516.062 261.1C516.356 260.541 516.777 260.037 517.325 259.587C517.883 259.126 518.549 258.764 519.323 258.499C520.107 258.225 520.978 258.088 521.938 258.088C523.094 258.088 524.112 258.284 524.994 258.676C525.885 259.068 526.58 259.66 527.08 260.453C527.589 261.237 527.844 262.221 527.844 263.406V270.81C527.844 271.339 527.888 271.902 527.976 272.5C528.074 273.097 528.216 273.611 528.402 274.042V274.277H525.567C525.43 273.964 525.322 273.548 525.244 273.029C525.165 272.5 525.126 272.01 525.126 271.56ZM525.596 264.64L525.626 266.55H522.878C522.105 266.55 521.414 266.614 520.807 266.741C520.2 266.859 519.69 267.04 519.279 267.285C518.868 267.529 518.554 267.838 518.339 268.21C518.123 268.572 518.016 268.998 518.016 269.488C518.016 269.988 518.128 270.443 518.354 270.854C518.579 271.266 518.917 271.594 519.367 271.839C519.828 272.074 520.391 272.191 521.057 272.191C521.889 272.191 522.624 272.015 523.26 271.662C523.897 271.31 524.401 270.879 524.773 270.37C525.155 269.86 525.361 269.366 525.39 268.886L526.551 270.193C526.482 270.605 526.296 271.06 525.993 271.56C525.689 272.059 525.283 272.539 524.773 272.999C524.274 273.45 523.677 273.827 522.981 274.13C522.296 274.424 521.522 274.571 520.66 274.571C519.583 274.571 518.638 274.361 517.825 273.939C517.022 273.518 516.395 272.955 515.944 272.25C515.504 271.535 515.283 270.737 515.283 269.855C515.283 269.003 515.45 268.254 515.783 267.608C516.116 266.952 516.596 266.408 517.222 265.977C517.849 265.536 518.603 265.203 519.485 264.978C520.366 264.753 521.351 264.64 522.438 264.64H525.596ZM534.837 261.438V280.389H532.104V258.382H534.602L534.837 261.438ZM545.546 266.197V266.506C545.546 267.662 545.409 268.734 545.135 269.723C544.861 270.703 544.459 271.555 543.93 272.279C543.411 273.004 542.77 273.567 542.006 273.969C541.242 274.37 540.365 274.571 539.376 274.571C538.367 274.571 537.476 274.405 536.702 274.072C535.929 273.739 535.272 273.254 534.734 272.617C534.195 271.981 533.764 271.217 533.441 270.326C533.128 269.434 532.912 268.43 532.795 267.314V265.669C532.912 264.493 533.132 263.44 533.456 262.51C533.779 261.58 534.205 260.786 534.734 260.13C535.272 259.464 535.924 258.96 536.688 258.617C537.452 258.264 538.333 258.088 539.332 258.088C540.331 258.088 541.217 258.284 541.991 258.676C542.765 259.058 543.416 259.606 543.945 260.321C544.474 261.036 544.87 261.893 545.135 262.892C545.409 263.881 545.546 264.983 545.546 266.197ZM542.814 266.506V266.197C542.814 265.404 542.73 264.66 542.564 263.964C542.397 263.259 542.138 262.642 541.785 262.113C541.443 261.575 541.002 261.154 540.463 260.85C539.925 260.537 539.283 260.38 538.539 260.38C537.853 260.38 537.256 260.497 536.746 260.732C536.247 260.968 535.821 261.286 535.468 261.687C535.116 262.079 534.827 262.53 534.602 263.039C534.386 263.538 534.224 264.057 534.117 264.596V268.401C534.313 269.087 534.587 269.733 534.939 270.34C535.292 270.938 535.762 271.422 536.35 271.795C536.937 272.157 537.677 272.338 538.568 272.338C539.303 272.338 539.934 272.186 540.463 271.883C541.002 271.569 541.443 271.143 541.785 270.605C542.138 270.066 542.397 269.449 542.564 268.754C542.73 268.048 542.814 267.299 542.814 266.506ZM558.386 271.56V263.377C558.386 262.75 558.259 262.206 558.004 261.746C557.759 261.276 557.387 260.914 556.887 260.659C556.388 260.404 555.771 260.277 555.036 260.277C554.351 260.277 553.749 260.395 553.229 260.63C552.72 260.865 552.319 261.173 552.025 261.555C551.741 261.937 551.599 262.348 551.599 262.789H548.881C548.881 262.221 549.028 261.658 549.322 261.1C549.616 260.541 550.037 260.037 550.585 259.587C551.143 259.126 551.809 258.764 552.583 258.499C553.367 258.225 554.238 258.088 555.198 258.088C556.354 258.088 557.372 258.284 558.254 258.676C559.145 259.068 559.84 259.66 560.34 260.453C560.849 261.237 561.104 262.221 561.104 263.406V270.81C561.104 271.339 561.148 271.902 561.236 272.5C561.334 273.097 561.476 273.611 561.662 274.042V274.277H558.827C558.689 273.964 558.582 273.548 558.503 273.029C558.425 272.5 558.386 272.01 558.386 271.56ZM558.856 264.64L558.885 266.55H556.138C555.364 266.55 554.674 266.614 554.067 266.741C553.46 266.859 552.95 267.04 552.539 267.285C552.128 267.529 551.814 267.838 551.599 268.21C551.383 268.572 551.276 268.998 551.276 269.488C551.276 269.988 551.388 270.443 551.613 270.854C551.839 271.266 552.177 271.594 552.627 271.839C553.087 272.074 553.651 272.191 554.317 272.191C555.149 272.191 555.884 272.015 556.52 271.662C557.157 271.31 557.661 270.879 558.033 270.37C558.415 269.86 558.621 269.366 558.65 268.886L559.811 270.193C559.742 270.605 559.556 271.06 559.253 271.56C558.949 272.059 558.543 272.539 558.033 272.999C557.534 273.45 556.936 273.827 556.241 274.13C555.555 274.424 554.782 274.571 553.92 274.571C552.843 274.571 551.897 274.361 551.085 273.939C550.281 273.518 549.655 272.955 549.204 272.25C548.763 271.535 548.543 270.737 548.543 269.855C548.543 269.003 548.71 268.254 549.043 267.608C549.376 266.952 549.855 266.408 550.482 265.977C551.109 265.536 551.863 265.203 552.745 264.978C553.626 264.753 554.61 264.64 555.697 264.64H558.856ZM501.929 302.016V303.277H490.777V302.139L496.616 295.516C497.343 294.691 497.922 293.969 498.355 293.349C498.787 292.72 499.097 292.149 499.285 291.635C499.481 291.113 499.579 290.607 499.579 290.117C499.579 289.399 499.436 288.766 499.15 288.219C498.873 287.672 498.457 287.244 497.902 286.934C497.347 286.624 496.661 286.469 495.845 286.469C495.029 286.469 494.319 286.644 493.715 286.995C493.111 287.346 492.646 287.836 492.319 288.464C492.001 289.084 491.842 289.79 491.842 290.582H490.385C490.385 289.603 490.601 288.705 491.034 287.889C491.474 287.073 492.103 286.424 492.919 285.942C493.735 285.453 494.71 285.208 495.845 285.208C496.922 285.208 497.849 285.4 498.624 285.783C499.399 286.159 499.995 286.701 500.411 287.411C500.836 288.121 501.048 288.978 501.048 289.982C501.048 290.521 500.95 291.064 500.754 291.61C500.566 292.157 500.305 292.704 499.971 293.251C499.644 293.79 499.269 294.324 498.844 294.855C498.428 295.385 497.991 295.907 497.534 296.422L492.564 302.016H501.929ZM516.449 297.523V298.772H503.827V297.927L512.066 285.453H513.29L511.552 288.476L505.614 297.523H516.449ZM513.67 285.453V303.277H512.213V285.453H513.67ZM529.83 302.261C530.45 302.261 531.029 302.147 531.568 301.918C532.115 301.682 532.564 301.335 532.915 300.878C533.274 300.413 533.478 299.845 533.527 299.176H534.922C534.881 300.017 534.624 300.768 534.151 301.429C533.686 302.082 533.074 302.596 532.315 302.971C531.564 303.339 530.735 303.522 529.83 303.522C528.907 303.522 528.091 303.355 527.381 303.02C526.679 302.686 526.092 302.22 525.618 301.625C525.145 301.021 524.786 300.319 524.541 299.519C524.304 298.711 524.186 297.842 524.186 296.911V296.397C524.186 295.467 524.304 294.602 524.541 293.802C524.786 292.994 525.145 292.292 525.618 291.696C526.092 291.092 526.679 290.623 527.381 290.288C528.083 289.954 528.895 289.786 529.817 289.786C530.764 289.786 531.613 289.978 532.364 290.362C533.123 290.745 533.727 291.288 534.176 291.99C534.633 292.692 534.881 293.524 534.922 294.487H533.527C533.486 293.777 533.298 293.165 532.964 292.651C532.629 292.137 532.188 291.741 531.641 291.464C531.095 291.186 530.487 291.047 529.817 291.047C529.066 291.047 528.426 291.194 527.895 291.488C527.365 291.774 526.932 292.17 526.598 292.676C526.271 293.173 526.03 293.745 525.875 294.389C525.72 295.026 525.643 295.695 525.643 296.397V296.911C525.643 297.621 525.716 298.299 525.863 298.944C526.018 299.58 526.259 300.147 526.585 300.645C526.92 301.143 527.352 301.539 527.883 301.833C528.422 302.118 529.07 302.261 529.83 302.261ZM537.065 296.862V296.458C537.065 295.495 537.203 294.606 537.481 293.79C537.758 292.973 538.154 292.267 538.668 291.672C539.191 291.076 539.815 290.615 540.542 290.288C541.268 289.954 542.076 289.786 542.965 289.786C543.863 289.786 544.675 289.954 545.402 290.288C546.128 290.615 546.752 291.076 547.275 291.672C547.797 292.267 548.197 292.973 548.475 293.79C548.752 294.606 548.891 295.495 548.891 296.458V296.862C548.891 297.825 548.752 298.715 548.475 299.531C548.197 300.339 547.797 301.041 547.275 301.637C546.761 302.233 546.14 302.698 545.414 303.032C544.688 303.359 543.88 303.522 542.99 303.522C542.092 303.522 541.28 303.359 540.554 303.032C539.827 302.698 539.203 302.233 538.681 301.637C538.158 301.041 537.758 300.339 537.481 299.531C537.203 298.715 537.065 297.825 537.065 296.862ZM538.522 296.458V296.862C538.522 297.589 538.619 298.278 538.815 298.931C539.011 299.576 539.297 300.151 539.672 300.657C540.048 301.155 540.513 301.547 541.068 301.833C541.623 302.118 542.264 302.261 542.99 302.261C543.708 302.261 544.341 302.118 544.888 301.833C545.443 301.547 545.908 301.155 546.283 300.657C546.659 300.151 546.94 299.576 547.128 298.931C547.324 298.278 547.422 297.589 547.422 296.862V296.458C547.422 295.74 547.324 295.059 547.128 294.414C546.94 293.769 546.655 293.194 546.271 292.688C545.895 292.182 545.43 291.782 544.875 291.488C544.32 291.194 543.684 291.047 542.965 291.047C542.247 291.047 541.611 291.194 541.056 291.488C540.509 291.782 540.044 292.182 539.66 292.688C539.285 293.194 538.999 293.769 538.803 294.414C538.615 295.059 538.522 295.74 538.522 296.458ZM553.555 284.473V303.277H552.098V284.473H553.555ZM557.424 302.384C557.424 302.098 557.513 301.857 557.693 301.661C557.881 301.457 558.134 301.355 558.452 301.355C558.778 301.355 559.036 301.453 559.223 301.649C559.411 301.845 559.505 302.09 559.505 302.384C559.505 302.661 559.411 302.898 559.223 303.094C559.036 303.29 558.778 303.388 558.452 303.388C558.134 303.388 557.881 303.29 557.693 303.094C557.513 302.898 557.424 302.661 557.424 302.384Z" fill="#606060"/>
<path d="M81.9072 137.889H83.7876C83.6896 138.79 83.4317 139.597 83.0139 140.308C82.596 141.02 82.0051 141.585 81.2412 142.003C80.4773 142.414 79.524 142.62 78.3814 142.62C77.5456 142.62 76.785 142.463 76.0994 142.15C75.4204 141.836 74.836 141.392 74.3463 140.818C73.8566 140.237 73.4779 139.541 73.2102 138.732C72.9491 137.915 72.8185 137.008 72.8185 136.009V134.589C72.8185 133.59 72.9491 132.685 73.2102 131.876C73.4779 131.06 73.8599 130.361 74.3561 129.78C74.8589 129.199 75.4628 128.752 76.168 128.438C76.8731 128.125 77.6664 127.968 78.5479 127.968C79.6252 127.968 80.536 128.171 81.2804 128.575C82.0247 128.98 82.6025 129.542 83.0139 130.26C83.4317 130.972 83.6896 131.798 83.7876 132.738H81.9072C81.8157 132.072 81.646 131.5 81.3979 131.024C81.1498 130.541 80.7972 130.168 80.3401 129.907C79.8831 129.646 79.2857 129.516 78.5479 129.516C77.9145 129.516 77.3563 129.636 76.8731 129.878C76.3965 130.12 75.9949 130.462 75.6685 130.906C75.3486 131.35 75.107 131.882 74.9437 132.503C74.7805 133.123 74.6989 133.812 74.6989 134.569V136.009C74.6989 136.707 74.7707 137.364 74.9144 137.977C75.0645 138.591 75.2898 139.13 75.5901 139.593C75.8905 140.057 76.2724 140.423 76.736 140.69C77.1996 140.951 77.748 141.082 78.3814 141.082C79.1845 141.082 79.8243 140.955 80.301 140.7C80.7776 140.445 81.1367 140.08 81.3783 139.603C81.6264 139.127 81.8027 138.555 81.9072 137.889ZM92.3376 140.612V135.157C92.3376 134.739 92.2527 134.377 92.083 134.07C91.9197 133.756 91.6716 133.515 91.3386 133.345C91.0056 133.175 90.5943 133.09 90.1046 133.09C89.6476 133.09 89.246 133.169 88.9 133.325C88.5604 133.482 88.2927 133.688 88.0969 133.942C87.9075 134.197 87.8128 134.471 87.8128 134.765H86.001C86.001 134.386 86.0989 134.011 86.2948 133.639C86.4907 133.267 86.7714 132.93 87.1371 132.63C87.5092 132.323 87.9532 132.082 88.469 131.905C88.9914 131.722 89.5725 131.631 90.2123 131.631C90.9828 131.631 91.6618 131.762 92.2495 132.023C92.8436 132.284 93.3072 132.679 93.6402 133.208C93.9797 133.73 94.1495 134.386 94.1495 135.176V140.112C94.1495 140.465 94.1788 140.84 94.2376 141.239C94.3029 141.637 94.3976 141.98 94.5216 142.267V142.424H92.6314C92.54 142.215 92.4682 141.937 92.4159 141.591C92.3637 141.239 92.3376 140.912 92.3376 140.612ZM92.651 135.999L92.6706 137.272H90.8391C90.3233 137.272 89.863 137.315 89.4582 137.4C89.0534 137.478 88.7139 137.599 88.4396 137.762C88.1654 137.925 87.9565 138.131 87.8128 138.379C87.6692 138.621 87.5974 138.905 87.5974 139.231C87.5974 139.564 87.6725 139.868 87.8226 140.142C87.9728 140.416 88.1981 140.635 88.4984 140.798C88.8053 140.955 89.1807 141.033 89.6247 141.033C90.1797 141.033 90.6694 140.916 91.0938 140.681C91.5182 140.445 91.8544 140.158 92.1025 139.819C92.3572 139.479 92.4943 139.149 92.5139 138.829L93.2876 139.701C93.2419 139.975 93.1178 140.279 92.9154 140.612C92.713 140.945 92.4421 141.265 92.1025 141.572C91.7696 141.872 91.3713 142.123 90.9077 142.326C90.4507 142.522 89.9348 142.62 89.3603 142.62C88.6421 142.62 88.012 142.479 87.4701 142.199C86.9347 141.918 86.5168 141.542 86.2164 141.072C85.9226 140.596 85.7757 140.064 85.7757 139.476C85.7757 138.908 85.8867 138.408 86.1087 137.977C86.3307 137.54 86.6506 137.178 87.0685 136.89C87.4864 136.596 87.9891 136.375 88.5768 136.224C89.1644 136.074 89.8206 135.999 90.5453 135.999H92.651ZM98.8015 133.933V142.424H96.9799V131.827H98.7036L98.8015 133.933ZM98.4294 136.724L97.5871 136.694C97.5936 135.97 97.6883 135.3 97.8711 134.687C98.0539 134.066 98.3249 133.528 98.684 133.071C99.0431 132.614 99.4904 132.261 100.026 132.013C100.561 131.758 101.181 131.631 101.887 131.631C102.383 131.631 102.84 131.703 103.258 131.846C103.676 131.984 104.038 132.202 104.345 132.503C104.652 132.803 104.89 133.188 105.06 133.658C105.23 134.128 105.314 134.696 105.314 135.362V142.424H103.503V135.451C103.503 134.896 103.408 134.452 103.219 134.119C103.036 133.786 102.775 133.544 102.435 133.394C102.096 133.237 101.697 133.159 101.24 133.159C100.705 133.159 100.258 133.254 99.8984 133.443C99.5393 133.632 99.252 133.893 99.0366 134.226C98.8211 134.559 98.6644 134.941 98.5665 135.372C98.4751 135.797 98.4294 136.247 98.4294 136.724ZM105.295 135.725L104.08 136.097C104.087 135.516 104.182 134.958 104.364 134.422C104.554 133.887 104.825 133.41 105.177 132.992C105.536 132.574 105.977 132.245 106.499 132.003C107.022 131.755 107.619 131.631 108.292 131.631C108.86 131.631 109.363 131.706 109.8 131.856C110.244 132.006 110.616 132.238 110.917 132.552C111.223 132.859 111.455 133.254 111.612 133.737C111.769 134.22 111.847 134.794 111.847 135.46V142.424H110.025V135.441C110.025 134.847 109.931 134.386 109.741 134.06C109.558 133.727 109.297 133.495 108.958 133.365C108.625 133.227 108.226 133.159 107.763 133.159C107.365 133.159 107.012 133.227 106.705 133.365C106.398 133.502 106.14 133.691 105.931 133.933C105.723 134.168 105.563 134.439 105.452 134.745C105.347 135.052 105.295 135.379 105.295 135.725ZM120.838 140.612V135.157C120.838 134.739 120.753 134.377 120.583 134.07C120.42 133.756 120.172 133.515 119.839 133.345C119.506 133.175 119.094 133.09 118.605 133.09C118.148 133.09 117.746 133.169 117.4 133.325C117.061 133.482 116.793 133.688 116.597 133.942C116.408 134.197 116.313 134.471 116.313 134.765H114.501C114.501 134.386 114.599 134.011 114.795 133.639C114.991 133.267 115.271 132.93 115.637 132.63C116.009 132.323 116.453 132.082 116.969 131.905C117.491 131.722 118.073 131.631 118.712 131.631C119.483 131.631 120.162 131.762 120.75 132.023C121.344 132.284 121.807 132.679 122.14 133.208C122.48 133.73 122.65 134.386 122.65 135.176V140.112C122.65 140.465 122.679 140.84 122.738 141.239C122.803 141.637 122.898 141.98 123.022 142.267V142.424H121.131C121.04 142.215 120.968 141.937 120.916 141.591C120.864 141.239 120.838 140.912 120.838 140.612ZM121.151 135.999L121.171 137.272H119.339C118.823 137.272 118.363 137.315 117.958 137.4C117.553 137.478 117.214 137.599 116.94 137.762C116.665 137.925 116.457 138.131 116.313 138.379C116.169 138.621 116.097 138.905 116.097 139.231C116.097 139.564 116.173 139.868 116.323 140.142C116.473 140.416 116.698 140.635 116.998 140.798C117.305 140.955 117.681 141.033 118.125 141.033C118.68 141.033 119.169 140.916 119.594 140.681C120.018 140.445 120.354 140.158 120.603 139.819C120.857 139.479 120.994 139.149 121.014 138.829L121.788 139.701C121.742 139.975 121.618 140.279 121.415 140.612C121.213 140.945 120.942 141.265 120.603 141.572C120.27 141.872 119.871 142.123 119.408 142.326C118.951 142.522 118.435 142.62 117.86 142.62C117.142 142.62 116.512 142.479 115.97 142.199C115.435 141.918 115.017 141.542 114.717 141.072C114.423 140.596 114.276 140.064 114.276 139.476C114.276 138.908 114.387 138.408 114.609 137.977C114.831 137.54 115.151 137.178 115.569 136.89C115.986 136.596 116.489 136.375 117.077 136.224C117.664 136.074 118.321 135.999 119.045 135.999H121.151ZM132.179 140.367V127.38H134.001V142.424H132.336L132.179 140.367ZM125.049 137.243V137.037C125.049 136.228 125.147 135.493 125.343 134.834C125.545 134.168 125.829 133.596 126.195 133.12C126.567 132.643 127.008 132.277 127.517 132.023C128.033 131.762 128.607 131.631 129.241 131.631C129.907 131.631 130.488 131.749 130.984 131.984C131.487 132.212 131.911 132.548 132.257 132.992C132.61 133.43 132.887 133.959 133.09 134.579C133.292 135.199 133.433 135.901 133.511 136.685V137.586C133.439 138.363 133.299 139.061 133.09 139.682C132.887 140.302 132.61 140.831 132.257 141.268C131.911 141.706 131.487 142.042 130.984 142.277C130.481 142.505 129.894 142.62 129.221 142.62C128.601 142.62 128.033 142.486 127.517 142.218C127.008 141.95 126.567 141.575 126.195 141.092C125.829 140.609 125.545 140.041 125.343 139.388C125.147 138.728 125.049 138.013 125.049 137.243ZM126.871 137.037V137.243C126.871 137.772 126.923 138.268 127.027 138.732C127.138 139.195 127.308 139.603 127.537 139.956C127.765 140.308 128.056 140.586 128.408 140.788C128.761 140.984 129.182 141.082 129.672 141.082C130.272 141.082 130.765 140.955 131.151 140.7C131.542 140.445 131.856 140.109 132.091 139.691C132.326 139.273 132.509 138.82 132.639 138.33V135.97C132.561 135.611 132.447 135.265 132.296 134.932C132.153 134.592 131.963 134.292 131.728 134.031C131.5 133.763 131.216 133.551 130.876 133.394C130.543 133.237 130.148 133.159 129.691 133.159C129.195 133.159 128.767 133.263 128.408 133.472C128.056 133.675 127.765 133.955 127.537 134.315C127.308 134.667 127.138 135.078 127.027 135.549C126.923 136.012 126.871 136.508 126.871 137.037ZM143.07 140.612V135.157C143.07 134.739 142.985 134.377 142.815 134.07C142.652 133.756 142.404 133.515 142.071 133.345C141.738 133.175 141.326 133.09 140.837 133.09C140.38 133.09 139.978 133.169 139.632 133.325C139.293 133.482 139.025 133.688 138.829 133.942C138.64 134.197 138.545 134.471 138.545 134.765H136.733C136.733 134.386 136.831 134.011 137.027 133.639C137.223 133.267 137.503 132.93 137.869 132.63C138.241 132.323 138.685 132.082 139.201 131.905C139.723 131.722 140.305 131.631 140.944 131.631C141.715 131.631 142.394 131.762 142.982 132.023C143.576 132.284 144.039 132.679 144.372 133.208C144.712 133.73 144.882 134.386 144.882 135.176V140.112C144.882 140.465 144.911 140.84 144.97 141.239C145.035 141.637 145.13 141.98 145.254 142.267V142.424H143.363C143.272 142.215 143.2 141.937 143.148 141.591C143.096 141.239 143.07 140.912 143.07 140.612ZM143.383 135.999L143.403 137.272H141.571C141.055 137.272 140.595 137.315 140.19 137.4C139.785 137.478 139.446 137.599 139.172 137.762C138.897 137.925 138.689 138.131 138.545 138.379C138.401 138.621 138.329 138.905 138.329 139.231C138.329 139.564 138.405 139.868 138.555 140.142C138.705 140.416 138.93 140.635 139.23 140.798C139.537 140.955 139.913 141.033 140.357 141.033C140.912 141.033 141.401 140.916 141.826 140.681C142.25 140.445 142.586 140.158 142.835 139.819C143.089 139.479 143.226 139.149 143.246 138.829L144.02 139.701C143.974 139.975 143.85 140.279 143.647 140.612C143.445 140.945 143.174 141.265 142.835 141.572C142.502 141.872 142.103 142.123 141.64 142.326C141.183 142.522 140.667 142.62 140.092 142.62C139.374 142.62 138.744 142.479 138.202 142.199C137.667 141.918 137.249 141.542 136.949 141.072C136.655 140.596 136.508 140.064 136.508 139.476C136.508 138.908 136.619 138.408 136.841 137.977C137.063 137.54 137.383 137.178 137.801 136.89C138.218 136.596 138.721 136.375 139.309 136.224C139.896 136.074 140.553 135.999 141.277 135.999H143.383ZM153.902 139.613C153.902 139.352 153.843 139.11 153.725 138.888C153.614 138.66 153.383 138.454 153.03 138.271C152.684 138.082 152.162 137.919 151.463 137.782C150.875 137.657 150.343 137.511 149.867 137.341C149.396 137.171 148.995 136.965 148.662 136.724C148.335 136.482 148.084 136.198 147.908 135.872C147.732 135.545 147.643 135.163 147.643 134.726C147.643 134.308 147.735 133.913 147.918 133.541C148.107 133.169 148.371 132.839 148.711 132.552C149.057 132.264 149.472 132.039 149.955 131.876C150.438 131.713 150.977 131.631 151.571 131.631C152.42 131.631 153.144 131.781 153.745 132.082C154.346 132.382 154.806 132.783 155.126 133.286C155.446 133.782 155.606 134.334 155.606 134.941H153.794C153.794 134.648 153.706 134.364 153.529 134.089C153.36 133.809 153.108 133.577 152.775 133.394C152.449 133.211 152.047 133.12 151.571 133.12C151.068 133.12 150.66 133.198 150.346 133.355C150.04 133.505 149.814 133.698 149.671 133.933C149.534 134.168 149.465 134.416 149.465 134.677C149.465 134.873 149.498 135.049 149.563 135.206C149.635 135.356 149.759 135.496 149.935 135.627C150.111 135.751 150.36 135.868 150.679 135.979C150.999 136.09 151.407 136.201 151.904 136.312C152.772 136.508 153.487 136.743 154.049 137.018C154.61 137.292 155.028 137.628 155.302 138.026C155.576 138.425 155.714 138.908 155.714 139.476C155.714 139.939 155.616 140.364 155.42 140.749C155.23 141.134 154.953 141.467 154.587 141.748C154.228 142.022 153.797 142.238 153.294 142.394C152.798 142.545 152.24 142.62 151.62 142.62C150.686 142.62 149.896 142.453 149.25 142.12C148.603 141.787 148.113 141.356 147.781 140.827C147.448 140.299 147.281 139.74 147.281 139.153H149.103C149.129 139.649 149.272 140.044 149.534 140.338C149.795 140.625 150.115 140.831 150.493 140.955C150.872 141.072 151.248 141.131 151.62 141.131C152.116 141.131 152.531 141.066 152.864 140.935C153.203 140.805 153.461 140.625 153.637 140.397C153.814 140.168 153.902 139.907 153.902 139.613ZM98.8848 155.135L98.1943 154.937L98.7158 149.729H104.063V150.552H99.4651L99.0904 154.151C99.2765 154.019 99.5459 153.889 99.8984 153.762C100.256 153.629 100.657 153.563 101.103 153.563C101.578 153.563 102.009 153.644 102.396 153.806C102.788 153.962 103.123 154.193 103.402 154.496C103.681 154.795 103.897 155.157 104.049 155.583C104.2 156.004 104.276 156.482 104.276 157.016C104.276 157.53 104.213 158.002 104.085 158.433C103.958 158.864 103.765 159.241 103.505 159.564C103.245 159.883 102.915 160.13 102.513 160.306C102.112 160.483 101.634 160.571 101.081 160.571C100.655 160.571 100.253 160.512 99.8764 160.394C99.5042 160.272 99.1712 160.088 98.8774 159.844C98.5836 159.599 98.3437 159.29 98.1576 158.918C97.9764 158.546 97.8638 158.11 97.8197 157.611H98.6644C98.7232 158.09 98.8529 158.494 99.0537 158.823C99.2545 159.151 99.5238 159.398 99.8617 159.564C100.204 159.731 100.611 159.814 101.081 159.814C101.463 159.814 101.796 159.753 102.08 159.631C102.369 159.508 102.609 159.329 102.8 159.094C102.996 158.854 103.143 158.563 103.241 158.22C103.343 157.873 103.395 157.476 103.395 157.03C103.395 156.648 103.341 156.298 103.233 155.98C103.126 155.657 102.966 155.375 102.756 155.135C102.55 154.89 102.295 154.702 101.992 154.57C101.688 154.437 101.341 154.371 100.949 154.371C100.44 154.371 100.033 154.44 99.7295 154.577C99.4308 154.714 99.1492 154.9 98.8848 155.135ZM112.687 159.814C113.059 159.814 113.407 159.746 113.73 159.608C114.058 159.466 114.327 159.258 114.538 158.984C114.753 158.705 114.876 158.365 114.905 157.963H115.742C115.718 158.468 115.564 158.918 115.28 159.315C115.001 159.706 114.633 160.015 114.178 160.24C113.727 160.461 113.23 160.571 112.687 160.571C112.133 160.571 111.644 160.47 111.218 160.27C110.797 160.069 110.444 159.79 110.16 159.432C109.876 159.07 109.66 158.649 109.514 158.169C109.372 157.684 109.301 157.162 109.301 156.604V156.296C109.301 155.737 109.372 155.218 109.514 154.739C109.66 154.254 109.876 153.833 110.16 153.475C110.444 153.113 110.797 152.831 111.218 152.63C111.639 152.43 112.126 152.329 112.679 152.329C113.247 152.329 113.757 152.444 114.207 152.674C114.663 152.905 115.025 153.23 115.294 153.651C115.569 154.073 115.718 154.572 115.742 155.15H114.905C114.881 154.724 114.768 154.357 114.567 154.048C114.366 153.74 114.102 153.502 113.774 153.336C113.446 153.169 113.081 153.086 112.679 153.086C112.229 153.086 111.844 153.174 111.526 153.35C111.208 153.522 110.948 153.759 110.748 154.063C110.552 154.361 110.407 154.704 110.314 155.091C110.221 155.473 110.175 155.875 110.175 156.296V156.604C110.175 157.03 110.219 157.437 110.307 157.824C110.4 158.206 110.544 158.546 110.74 158.845C110.941 159.143 111.201 159.381 111.519 159.557C111.842 159.728 112.231 159.814 112.687 159.814ZM117.028 156.575V156.332C117.028 155.755 117.111 155.221 117.278 154.731C117.444 154.241 117.682 153.818 117.99 153.46C118.303 153.103 118.678 152.826 119.114 152.63C119.55 152.43 120.035 152.329 120.568 152.329C121.107 152.329 121.594 152.43 122.03 152.63C122.466 152.826 122.84 153.103 123.154 153.46C123.467 153.818 123.707 154.241 123.874 154.731C124.04 155.221 124.123 155.755 124.123 156.332V156.575C124.123 157.153 124.04 157.686 123.874 158.176C123.707 158.661 123.467 159.082 123.154 159.44C122.845 159.797 122.473 160.076 122.037 160.277C121.602 160.473 121.117 160.571 120.583 160.571C120.044 160.571 119.557 160.473 119.121 160.277C118.685 160.076 118.311 159.797 117.997 159.44C117.684 159.082 117.444 158.661 117.278 158.176C117.111 157.686 117.028 157.153 117.028 156.575ZM117.902 156.332V156.575C117.902 157.011 117.961 157.424 118.078 157.816C118.196 158.203 118.367 158.548 118.592 158.852C118.818 159.151 119.097 159.386 119.43 159.557C119.763 159.728 120.147 159.814 120.583 159.814C121.014 159.814 121.393 159.728 121.722 159.557C122.055 159.386 122.334 159.151 122.559 158.852C122.784 158.548 122.953 158.203 123.066 157.816C123.183 157.424 123.242 157.011 123.242 156.575V156.332C123.242 155.902 123.183 155.493 123.066 155.106C122.953 154.719 122.782 154.374 122.552 154.07C122.326 153.766 122.047 153.527 121.714 153.35C121.381 153.174 120.999 153.086 120.568 153.086C120.137 153.086 119.755 153.174 119.422 153.35C119.094 153.527 118.815 153.766 118.585 154.07C118.36 154.374 118.188 154.719 118.071 155.106C117.958 155.493 117.902 155.902 117.902 156.332ZM126.922 149.141V160.424H126.048V149.141H126.922ZM129.243 159.888C129.243 159.716 129.297 159.572 129.405 159.454C129.517 159.332 129.669 159.271 129.86 159.271C130.056 159.271 130.21 159.329 130.323 159.447C130.436 159.564 130.492 159.711 130.492 159.888C130.492 160.054 130.436 160.196 130.323 160.314C130.21 160.431 130.056 160.49 129.86 160.49C129.669 160.49 129.517 160.431 129.405 160.314C129.297 160.196 129.243 160.054 129.243 159.888Z" fill="#FDFBF9"/>
<path d="M84.882 43.5024H82.6233L82.6111 42.5536H84.6617C85.0004 42.5536 85.2962 42.4965 85.5492 42.3822C85.8022 42.268 85.9981 42.1047 86.1369 41.8925C86.2797 41.6763 86.3511 41.4192 86.3511 41.1213C86.3511 40.7948 86.2879 40.5296 86.1614 40.3255C86.0389 40.1174 85.8492 39.9664 85.5921 39.8726C85.3391 39.7746 85.0167 39.7256 84.6249 39.7256H82.8865V47.6709H81.7052V38.7585H84.6249C85.082 38.7585 85.4901 38.8054 85.8492 38.8993C86.2083 38.9891 86.5123 39.1319 86.7612 39.3278C87.0142 39.5196 87.206 39.7644 87.3366 40.0623C87.4672 40.3602 87.5325 40.7173 87.5325 41.1335C87.5325 41.5008 87.4386 41.8334 87.2509 42.1313C87.0632 42.4251 86.802 42.6658 86.4674 42.8536C86.1369 43.0413 85.7492 43.1617 85.3044 43.2147L84.882 43.5024ZM84.8269 47.6709H82.1581L82.8253 46.7099H84.8269C85.2024 46.7099 85.5207 46.6446 85.7818 46.514C86.0471 46.3834 86.2491 46.1998 86.3878 45.9631C86.5266 45.7223 86.596 45.4387 86.596 45.1123C86.596 44.7817 86.5368 44.4961 86.4184 44.2553C86.3001 44.0145 86.1144 43.8289 85.8614 43.6983C85.6084 43.5677 85.2819 43.5024 84.882 43.5024H83.1987L83.211 42.5536H85.5125L85.7635 42.8964C86.192 42.9331 86.5551 43.0556 86.853 43.2637C87.1509 43.4677 87.3774 43.7289 87.5325 44.0472C87.6916 44.3655 87.7712 44.7164 87.7712 45.1C87.7712 45.655 87.6488 46.1243 87.4039 46.5079C87.1632 46.8874 86.8224 47.1771 86.3817 47.3771C85.941 47.573 85.4227 47.6709 84.8269 47.6709ZM93.3966 46.1406V41.0478H94.5351V47.6709H93.4516L93.3966 46.1406ZM93.6108 44.745L94.0821 44.7327C94.0821 45.1735 94.0352 45.5815 93.9413 45.957C93.8516 46.3283 93.7046 46.6507 93.5006 46.9241C93.2966 47.1975 93.0293 47.4118 92.6987 47.5668C92.3682 47.7178 91.9662 47.7933 91.4929 47.7933C91.1705 47.7933 90.8746 47.7464 90.6053 47.6525C90.3401 47.5587 90.1115 47.4138 89.9197 47.2179C89.7279 47.0221 89.579 46.767 89.4729 46.4528C89.3709 46.1386 89.3199 45.7611 89.3199 45.3204V41.0478H90.4523V45.3326C90.4523 45.6305 90.4849 45.8774 90.5502 46.0733C90.6196 46.2651 90.7114 46.4181 90.8257 46.5324C90.944 46.6425 91.0746 46.7201 91.2174 46.765C91.3643 46.8099 91.5153 46.8323 91.6704 46.8323C92.1519 46.8323 92.5335 46.7405 92.815 46.5568C93.0966 46.3691 93.2986 46.1182 93.421 45.8039C93.5475 45.4856 93.6108 45.1327 93.6108 44.745ZM100.118 45.9141C100.118 45.7509 100.081 45.5999 100.007 45.4612C99.938 45.3183 99.7931 45.1898 99.5728 45.0755C99.3565 44.9572 99.03 44.8552 98.5934 44.7695C98.2261 44.6919 97.8936 44.6001 97.5957 44.494C97.3018 44.3879 97.0509 44.2594 96.8428 44.1084C96.6387 43.9574 96.4816 43.7799 96.3714 43.5759C96.2612 43.3718 96.2062 43.1331 96.2062 42.8597C96.2062 42.5985 96.2633 42.3516 96.3775 42.119C96.4959 41.8864 96.6612 41.6803 96.8734 41.5008C97.0896 41.3212 97.3488 41.1804 97.6507 41.0784C97.9527 40.9764 98.2894 40.9254 98.6607 40.9254C99.1912 40.9254 99.6442 41.0193 100.02 41.207C100.395 41.3947 100.683 41.6456 100.883 41.9599C101.083 42.27 101.183 42.6148 101.183 42.9943H100.05C100.05 42.8107 99.9951 42.6332 99.885 42.4618C99.7789 42.2863 99.6218 42.1415 99.4136 42.0272C99.2096 41.9129 98.9586 41.8558 98.6607 41.8558C98.3465 41.8558 98.0915 41.9048 97.8956 42.0027C97.7038 42.0966 97.563 42.217 97.4732 42.3639C97.3875 42.5108 97.3447 42.6658 97.3447 42.8291C97.3447 42.9515 97.3651 43.0617 97.4059 43.1596C97.4508 43.2535 97.5283 43.3412 97.6385 43.4228C97.7487 43.5004 97.9038 43.5738 98.1037 43.6432C98.3037 43.7126 98.5587 43.7819 98.8689 43.8513C99.4116 43.9737 99.8584 44.1206 100.209 44.292C100.56 44.4634 100.821 44.6736 100.993 44.9225C101.164 45.1714 101.25 45.4734 101.25 45.8284C101.25 46.1182 101.189 46.3834 101.066 46.6242C100.948 46.8649 100.775 47.0731 100.546 47.2485C100.322 47.4199 100.052 47.5546 99.7381 47.6525C99.4279 47.7464 99.079 47.7933 98.6913 47.7933C98.1078 47.7933 97.614 47.6893 97.21 47.4811C96.806 47.273 96.5 47.0037 96.2919 46.6732C96.0837 46.3426 95.9797 45.9937 95.9797 45.6264H97.1182C97.1345 45.9366 97.2243 46.1835 97.3875 46.3671C97.5508 46.5466 97.7507 46.6752 97.9874 46.7527C98.2241 46.8262 98.4587 46.8629 98.6913 46.8629C99.0015 46.8629 99.2606 46.8221 99.4687 46.7405C99.6809 46.6589 99.8421 46.5466 99.9523 46.4038C100.062 46.261 100.118 46.0978 100.118 45.9141ZM105.388 46.8629C105.657 46.8629 105.906 46.8078 106.135 46.6976C106.363 46.5875 106.551 46.4365 106.698 46.2447C106.845 46.0488 106.928 45.8264 106.949 45.5775H108.026C108.006 45.9692 107.873 46.3344 107.628 46.6732C107.387 47.0078 107.071 47.2791 106.679 47.4873C106.288 47.6913 105.857 47.7933 105.388 47.7933C104.89 47.7933 104.455 47.7056 104.084 47.5301C103.717 47.3546 103.411 47.1139 103.166 46.8078C102.925 46.5018 102.744 46.1508 102.621 45.755C102.503 45.3551 102.444 44.9327 102.444 44.4879V44.2308C102.444 43.786 102.503 43.3657 102.621 42.9699C102.744 42.5699 102.925 42.217 103.166 41.9109C103.411 41.6048 103.717 41.3641 104.084 41.1886C104.455 41.0131 104.89 40.9254 105.388 40.9254C105.906 40.9254 106.359 41.0315 106.747 41.2437C107.134 41.4518 107.438 41.7375 107.659 42.1007C107.883 42.4598 108.006 42.8678 108.026 43.3249H106.949C106.928 43.0515 106.851 42.8046 106.716 42.5842C106.586 42.3639 106.406 42.1884 106.178 42.0578C105.953 41.9231 105.69 41.8558 105.388 41.8558C105.041 41.8558 104.749 41.9252 104.513 42.0639C104.28 42.1986 104.094 42.3822 103.956 42.6148C103.821 42.8434 103.723 43.0984 103.662 43.38C103.605 43.6575 103.576 43.9411 103.576 44.2308V44.4879C103.576 44.7776 103.605 45.0633 103.662 45.3449C103.719 45.6264 103.815 45.8815 103.949 46.11C104.088 46.3385 104.274 46.5222 104.506 46.6609C104.743 46.7956 105.037 46.8629 105.388 46.8629ZM113.205 46.5385V43.129C113.205 42.8678 113.152 42.6414 113.045 42.4496C112.943 42.2537 112.788 42.1027 112.58 41.9966C112.372 41.8905 112.115 41.8374 111.809 41.8374C111.523 41.8374 111.272 41.8864 111.056 41.9844C110.844 42.0823 110.677 42.2108 110.554 42.37C110.436 42.5291 110.377 42.7005 110.377 42.8842H109.244C109.244 42.6475 109.305 42.4128 109.428 42.1802C109.55 41.9476 109.726 41.7375 109.954 41.5498C110.187 41.358 110.464 41.207 110.787 41.0968C111.113 40.9825 111.476 40.9254 111.876 40.9254C112.358 40.9254 112.782 41.007 113.149 41.1702C113.521 41.3335 113.811 41.5804 114.019 41.9109C114.231 42.2374 114.337 42.6475 114.337 43.1412V46.2263C114.337 46.4467 114.355 46.6813 114.392 46.9302C114.433 47.1792 114.492 47.3934 114.57 47.573V47.6709H113.388C113.331 47.5403 113.286 47.3669 113.254 47.1506C113.221 46.9302 113.205 46.7262 113.205 46.5385ZM113.4 43.6554L113.413 44.4512H112.268C111.946 44.4512 111.658 44.4777 111.405 44.5307C111.152 44.5797 110.94 44.6552 110.768 44.7572C110.597 44.8593 110.466 44.9878 110.377 45.1429C110.287 45.2939 110.242 45.4714 110.242 45.6754C110.242 45.8835 110.289 46.0733 110.383 46.2447C110.477 46.4161 110.617 46.5528 110.805 46.6548C110.997 46.7527 111.232 46.8017 111.509 46.8017C111.856 46.8017 112.162 46.7282 112.427 46.5813C112.692 46.4344 112.903 46.2549 113.058 46.0427C113.217 45.8305 113.303 45.6244 113.315 45.4244L113.798 45.9692C113.77 46.1406 113.692 46.3304 113.566 46.5385C113.439 46.7466 113.27 46.9466 113.058 47.1384C112.85 47.3261 112.601 47.4832 112.311 47.6097C112.025 47.7321 111.703 47.7933 111.344 47.7933C110.895 47.7933 110.501 47.7056 110.162 47.5301C109.828 47.3546 109.567 47.12 109.379 46.8262C109.195 46.5283 109.103 46.1957 109.103 45.8284C109.103 45.4734 109.173 45.1612 109.312 44.8919C109.45 44.6185 109.65 44.392 109.911 44.2125C110.173 44.0288 110.487 43.8901 110.854 43.7962C111.221 43.7024 111.631 43.6554 112.084 43.6554H113.4ZM120.281 43.2637L119.705 43.0984L120.14 38.7585H124.596V39.4441H120.764L120.452 42.4434C120.607 42.3333 120.832 42.2251 121.125 42.119C121.423 42.0088 121.758 41.9537 122.129 41.9537C122.525 41.9537 122.884 42.0211 123.207 42.1557C123.533 42.2863 123.813 42.4781 124.045 42.7311C124.278 42.9801 124.457 43.282 124.584 43.6371C124.71 43.988 124.774 44.3859 124.774 44.8307C124.774 45.2592 124.721 45.653 124.614 46.0121C124.508 46.3712 124.347 46.6854 124.131 46.9547C123.915 47.22 123.639 47.4261 123.304 47.573C122.97 47.7199 122.572 47.7933 122.111 47.7933C121.756 47.7933 121.421 47.7444 121.107 47.6464C120.797 47.5444 120.519 47.3914 120.275 47.1873C120.03 46.9833 119.83 46.7262 119.675 46.4161C119.524 46.1059 119.43 45.7427 119.393 45.3265H120.097C120.146 45.7264 120.254 46.0631 120.421 46.3365C120.589 46.6099 120.813 46.816 121.095 46.9547C121.38 47.0935 121.719 47.1628 122.111 47.1628C122.429 47.1628 122.707 47.1118 122.943 47.0098C123.184 46.9078 123.384 46.7588 123.543 46.563C123.706 46.363 123.829 46.1202 123.91 45.8346C123.996 45.5448 124.039 45.2143 124.039 44.8429C124.039 44.5246 123.994 44.2329 123.904 43.9676C123.815 43.6983 123.682 43.4636 123.506 43.2637C123.335 43.0596 123.123 42.9025 122.87 42.7923C122.617 42.6822 122.327 42.6271 122.001 42.6271C121.576 42.6271 121.238 42.6842 120.985 42.7985C120.736 42.9127 120.501 43.0678 120.281 43.2637ZM131.782 47.1628C132.092 47.1628 132.382 47.1057 132.651 46.9915C132.925 46.8731 133.149 46.6997 133.325 46.4712C133.504 46.2385 133.606 45.9549 133.631 45.6203H134.329C134.308 46.0406 134.18 46.4161 133.943 46.7466C133.71 47.0731 133.404 47.3302 133.025 47.5179C132.649 47.7015 132.235 47.7933 131.782 47.7933C131.321 47.7933 130.913 47.7097 130.558 47.5424C130.207 47.375 129.913 47.1424 129.677 46.8445C129.44 46.5426 129.26 46.1916 129.138 45.7917C129.02 45.3877 128.96 44.9531 128.96 44.4879V44.2308C128.96 43.7656 129.02 43.333 129.138 42.9331C129.26 42.5291 129.44 42.1782 129.677 41.8803C129.913 41.5783 130.207 41.3437 130.558 41.1764C130.909 41.009 131.315 40.9254 131.776 40.9254C132.25 40.9254 132.674 41.0213 133.049 41.2131C133.429 41.4049 133.731 41.6763 133.955 42.0272C134.184 42.3781 134.308 42.7944 134.329 43.2759H133.631C133.61 42.9209 133.517 42.6148 133.349 42.3577C133.182 42.1007 132.962 41.9027 132.688 41.764C132.415 41.6252 132.111 41.5559 131.776 41.5559C131.401 41.5559 131.08 41.6293 130.815 41.7762C130.55 41.9191 130.334 42.117 130.166 42.37C130.003 42.6189 129.883 42.9046 129.805 43.2269C129.728 43.5452 129.689 43.8799 129.689 44.2308V44.4879C129.689 44.8429 129.726 45.1816 129.799 45.504C129.877 45.8223 129.997 46.1059 130.16 46.3549C130.327 46.6038 130.544 46.8017 130.809 46.9486C131.078 47.0914 131.403 47.1628 131.782 47.1628ZM135.4 44.4634V44.2614C135.4 43.7799 135.469 43.3351 135.608 42.927C135.747 42.5189 135.945 42.1659 136.202 41.8681C136.463 41.5702 136.775 41.3396 137.138 41.1764C137.501 41.009 137.905 40.9254 138.35 40.9254C138.799 40.9254 139.205 41.009 139.568 41.1764C139.932 41.3396 140.244 41.5702 140.505 41.8681C140.766 42.1659 140.966 42.5189 141.105 42.927C141.244 43.3351 141.313 43.7799 141.313 44.2614V44.4634C141.313 44.9449 141.244 45.3898 141.105 45.7978C140.966 46.2018 140.766 46.5528 140.505 46.8507C140.248 47.1486 139.938 47.3812 139.574 47.5485C139.211 47.7117 138.807 47.7933 138.362 47.7933C137.914 47.7933 137.508 47.7117 137.144 47.5485C136.781 47.3812 136.469 47.1486 136.208 46.8507C135.947 46.5528 135.747 46.2018 135.608 45.7978C135.469 45.3898 135.4 44.9449 135.4 44.4634ZM136.128 44.2614V44.4634C136.128 44.8266 136.177 45.1714 136.275 45.4979C136.373 45.8203 136.516 46.108 136.704 46.361C136.891 46.6099 137.124 46.8058 137.401 46.9486C137.679 47.0914 137.999 47.1628 138.362 47.1628C138.722 47.1628 139.038 47.0914 139.311 46.9486C139.589 46.8058 139.821 46.6099 140.009 46.361C140.197 46.108 140.338 45.8203 140.431 45.4979C140.529 45.1714 140.578 44.8266 140.578 44.4634V44.2614C140.578 43.9023 140.529 43.5616 140.431 43.2392C140.338 42.9168 140.195 42.6291 140.003 42.3761C139.815 42.1231 139.583 41.9231 139.305 41.7762C139.028 41.6293 138.709 41.5559 138.35 41.5559C137.991 41.5559 137.673 41.6293 137.395 41.7762C137.122 41.9231 136.889 42.1231 136.698 42.3761C136.51 42.6291 136.367 42.9168 136.269 43.2392C136.175 43.5616 136.128 43.9023 136.128 44.2614ZM143.645 38.2688V47.6709H142.917V38.2688H143.645ZM145.579 47.2241C145.579 47.0812 145.624 46.9608 145.714 46.8629C145.808 46.7609 145.934 46.7099 146.094 46.7099C146.257 46.7099 146.385 46.7588 146.479 46.8568C146.573 46.9547 146.62 47.0771 146.62 47.2241C146.62 47.3628 146.573 47.4811 146.479 47.5791C146.385 47.677 146.257 47.726 146.094 47.726C145.934 47.726 145.808 47.677 145.714 47.5791C145.624 47.4811 145.579 47.3628 145.579 47.2241Z" fill="#FDFBF9"/>
<path d="M900.306 558.184V559.145H895.849V558.184H900.306ZM896.082 550.232V559.145H894.901V550.232H896.082ZM904.235 559.267C903.774 559.267 903.356 559.189 902.98 559.034C902.609 558.875 902.289 558.653 902.019 558.367C901.754 558.081 901.55 557.743 901.407 557.351C901.265 556.959 901.193 556.531 901.193 556.066V555.809C901.193 555.27 901.273 554.79 901.432 554.37C901.591 553.946 901.807 553.587 902.081 553.293C902.354 552.999 902.664 552.776 903.011 552.626C903.358 552.475 903.717 552.399 904.088 552.399C904.562 552.399 904.97 552.481 905.313 552.644C905.659 552.807 905.943 553.036 906.163 553.329C906.384 553.619 906.547 553.962 906.653 554.358C906.759 554.75 906.812 555.178 906.812 555.643V556.151H901.866V555.227H905.68V555.141C905.664 554.847 905.602 554.562 905.496 554.284C905.394 554.007 905.231 553.778 905.007 553.599C904.782 553.419 904.476 553.329 904.088 553.329C903.831 553.329 903.595 553.385 903.378 553.495C903.162 553.601 902.976 553.76 902.821 553.972C902.666 554.184 902.546 554.443 902.46 554.75C902.374 555.056 902.332 555.409 902.332 555.809V556.066C902.332 556.38 902.374 556.676 902.46 556.953C902.55 557.227 902.678 557.467 902.846 557.675C903.017 557.884 903.223 558.047 903.464 558.165C903.709 558.283 903.986 558.343 904.297 558.343C904.696 558.343 905.035 558.261 905.313 558.098C905.59 557.935 905.833 557.716 906.041 557.443L906.727 557.988C906.584 558.204 906.402 558.41 906.182 558.606C905.961 558.802 905.69 558.961 905.368 559.083C905.049 559.206 904.672 559.267 904.235 559.267ZM912.425 552.521H913.454V559.004C913.454 559.587 913.335 560.085 913.099 560.497C912.862 560.909 912.532 561.222 912.107 561.434C911.687 561.65 911.201 561.758 910.65 561.758C910.422 561.758 910.152 561.722 909.842 561.648C909.536 561.579 909.234 561.458 908.936 561.287C908.643 561.12 908.396 560.893 908.196 560.607L908.789 559.934C909.067 560.269 909.357 560.501 909.659 560.632C909.965 560.763 910.267 560.828 910.565 560.828C910.924 560.828 911.234 560.761 911.495 560.626C911.756 560.491 911.958 560.291 912.101 560.026C912.248 559.765 912.321 559.442 912.321 559.059V553.978L912.425 552.521ZM907.865 555.906V555.778C907.865 555.272 907.924 554.813 908.043 554.401C908.165 553.984 908.339 553.627 908.563 553.329C908.791 553.032 909.067 552.803 909.389 552.644C909.712 552.481 910.075 552.399 910.479 552.399C910.895 552.399 911.258 552.472 911.568 552.619C911.883 552.762 912.148 552.972 912.364 553.25C912.585 553.523 912.758 553.854 912.884 554.241C913.011 554.629 913.099 555.068 913.148 555.558V556.121C913.103 556.606 913.015 557.043 912.884 557.431C912.758 557.818 912.585 558.149 912.364 558.422C912.148 558.696 911.883 558.906 911.568 559.053C911.254 559.196 910.887 559.267 910.467 559.267C910.071 559.267 909.712 559.183 909.389 559.016C909.071 558.849 908.798 558.614 908.569 558.312C908.341 558.01 908.165 557.655 908.043 557.247C907.924 556.835 907.865 556.388 907.865 555.906ZM908.998 555.778V555.906C908.998 556.237 909.03 556.547 909.096 556.837C909.165 557.127 909.269 557.382 909.408 557.602C909.551 557.822 909.732 557.996 909.952 558.122C910.173 558.245 910.436 558.306 910.742 558.306C911.118 558.306 911.428 558.226 911.673 558.067C911.917 557.908 912.111 557.698 912.254 557.437C912.401 557.176 912.515 556.892 912.597 556.586V555.111C912.552 554.886 912.483 554.67 912.389 554.462C912.299 554.25 912.181 554.062 912.034 553.899C911.891 553.731 911.713 553.599 911.501 553.501C911.289 553.403 911.04 553.354 910.754 553.354C910.444 553.354 910.177 553.419 909.952 553.55C909.732 553.676 909.551 553.852 909.408 554.076C909.269 554.297 909.165 554.554 909.096 554.847C909.03 555.137 908.998 555.447 908.998 555.778ZM917.922 559.267C917.461 559.267 917.043 559.189 916.667 559.034C916.296 558.875 915.976 558.653 915.706 558.367C915.441 558.081 915.237 557.743 915.094 557.351C914.951 556.959 914.88 556.531 914.88 556.066V555.809C914.88 555.27 914.96 554.79 915.119 554.37C915.278 553.946 915.494 553.587 915.768 553.293C916.041 552.999 916.351 552.776 916.698 552.626C917.045 552.475 917.404 552.399 917.775 552.399C918.249 552.399 918.657 552.481 919 552.644C919.346 552.807 919.63 553.036 919.85 553.329C920.071 553.619 920.234 553.962 920.34 554.358C920.446 554.75 920.499 555.178 920.499 555.643V556.151H915.553V555.227H919.367V555.141C919.35 554.847 919.289 554.562 919.183 554.284C919.081 554.007 918.918 553.778 918.693 553.599C918.469 553.419 918.163 553.329 917.775 553.329C917.518 553.329 917.282 553.385 917.065 553.495C916.849 553.601 916.663 553.76 916.508 553.972C916.353 554.184 916.233 554.443 916.147 554.75C916.061 555.056 916.019 555.409 916.019 555.809V556.066C916.019 556.38 916.061 556.676 916.147 556.953C916.237 557.227 916.365 557.467 916.533 557.675C916.704 557.884 916.91 558.047 917.151 558.165C917.396 558.283 917.673 558.343 917.983 558.343C918.383 558.343 918.722 558.261 919 558.098C919.277 557.935 919.52 557.716 919.728 557.443L920.413 557.988C920.271 558.204 920.089 558.41 919.869 558.606C919.648 558.802 919.377 558.961 919.055 559.083C918.736 559.206 918.359 559.267 917.922 559.267ZM922.954 553.935V559.145H921.821V552.521H922.893L922.954 553.935ZM922.684 555.582L922.213 555.564C922.217 555.111 922.285 554.692 922.415 554.309C922.546 553.921 922.729 553.584 922.966 553.299C923.203 553.013 923.484 552.793 923.811 552.638C924.141 552.479 924.507 552.399 924.906 552.399C925.233 552.399 925.527 552.444 925.788 552.534C926.049 552.619 926.271 552.758 926.455 552.95C926.643 553.142 926.786 553.391 926.884 553.697C926.981 553.999 927.03 554.368 927.03 554.805V559.145H925.892V554.792C925.892 554.446 925.841 554.168 925.739 553.96C925.637 553.748 925.488 553.595 925.292 553.501C925.096 553.403 924.855 553.354 924.57 553.354C924.288 553.354 924.031 553.413 923.798 553.531C923.57 553.65 923.372 553.813 923.205 554.021C923.042 554.229 922.913 554.468 922.819 554.737C922.729 555.003 922.684 555.284 922.684 555.582ZM932.925 557.859V549.742H934.064V559.145H933.023L932.925 557.859ZM928.469 555.906V555.778C928.469 555.272 928.53 554.813 928.653 554.401C928.779 553.984 928.957 553.627 929.185 553.329C929.418 553.032 929.693 552.803 930.011 552.644C930.334 552.481 930.693 552.399 931.089 552.399C931.505 552.399 931.868 552.472 932.178 552.619C932.493 552.762 932.758 552.972 932.974 553.25C933.194 553.523 933.368 553.854 933.494 554.241C933.621 554.629 933.709 555.068 933.758 555.558V556.121C933.713 556.606 933.625 557.043 933.494 557.431C933.368 557.818 933.194 558.149 932.974 558.422C932.758 558.696 932.493 558.906 932.178 559.053C931.864 559.196 931.497 559.267 931.077 559.267C930.689 559.267 930.334 559.183 930.011 559.016C929.693 558.849 929.418 558.614 929.185 558.312C928.957 558.01 928.779 557.655 928.653 557.247C928.53 556.835 928.469 556.388 928.469 555.906ZM929.607 555.778V555.906C929.607 556.237 929.64 556.547 929.705 556.837C929.775 557.127 929.881 557.382 930.024 557.602C930.167 557.822 930.348 557.996 930.568 558.122C930.789 558.245 931.052 558.306 931.358 558.306C931.734 558.306 932.042 558.226 932.282 558.067C932.527 557.908 932.723 557.698 932.87 557.437C933.017 557.176 933.131 556.892 933.213 556.586V555.111C933.164 554.886 933.092 554.67 932.999 554.462C932.909 554.25 932.79 554.062 932.644 553.899C932.501 553.731 932.323 553.599 932.111 553.501C931.903 553.403 931.656 553.354 931.37 553.354C931.06 553.354 930.793 553.419 930.568 553.55C930.348 553.676 930.167 553.852 930.024 554.076C929.881 554.297 929.775 554.554 929.705 554.847C929.64 555.137 929.607 555.447 929.607 555.778ZM939.732 558.012V554.603C939.732 554.341 939.679 554.115 939.573 553.923C939.471 553.727 939.316 553.576 939.107 553.47C938.899 553.364 938.642 553.311 938.336 553.311C938.051 553.311 937.8 553.36 937.583 553.458C937.371 553.556 937.204 553.684 937.081 553.844C936.963 554.003 936.904 554.174 936.904 554.358H935.771C935.771 554.121 935.833 553.886 935.955 553.654C936.078 553.421 936.253 553.211 936.482 553.023C936.714 552.832 936.992 552.681 937.314 552.57C937.64 552.456 938.004 552.399 938.404 552.399C938.885 552.399 939.309 552.481 939.677 552.644C940.048 552.807 940.338 553.054 940.546 553.385C940.758 553.711 940.864 554.121 940.864 554.615V557.7C940.864 557.92 940.883 558.155 940.919 558.404C940.96 558.653 941.019 558.867 941.097 559.047V559.145H939.915C939.858 559.014 939.813 558.841 939.781 558.624C939.748 558.404 939.732 558.2 939.732 558.012ZM939.928 555.129L939.94 555.925H938.795C938.473 555.925 938.185 555.951 937.932 556.004C937.679 556.053 937.467 556.129 937.296 556.231C937.124 556.333 936.994 556.461 936.904 556.616C936.814 556.767 936.769 556.945 936.769 557.149C936.769 557.357 936.816 557.547 936.91 557.718C937.004 557.89 937.145 558.026 937.332 558.128C937.524 558.226 937.759 558.275 938.036 558.275C938.383 558.275 938.689 558.202 938.954 558.055C939.22 557.908 939.43 557.729 939.585 557.516C939.744 557.304 939.83 557.098 939.842 556.898L940.326 557.443C940.297 557.614 940.219 557.804 940.093 558.012C939.966 558.22 939.797 558.42 939.585 558.612C939.377 558.8 939.128 558.957 938.838 559.083C938.553 559.206 938.23 559.267 937.871 559.267C937.422 559.267 937.028 559.179 936.69 559.004C936.355 558.828 936.094 558.594 935.906 558.3C935.722 558.002 935.631 557.669 935.631 557.302C935.631 556.947 935.7 556.635 935.839 556.366C935.978 556.092 936.177 555.866 936.439 555.686C936.7 555.502 937.014 555.364 937.381 555.27C937.749 555.176 938.159 555.129 938.612 555.129H939.928ZM946.808 554.737L946.232 554.572L946.667 550.232H951.123V550.918H947.291L946.979 553.917C947.134 553.807 947.359 553.699 947.653 553.593C947.951 553.482 948.285 553.427 948.656 553.427C949.052 553.427 949.411 553.495 949.734 553.629C950.06 553.76 950.34 553.952 950.572 554.205C950.805 554.454 950.985 554.756 951.111 555.111C951.238 555.462 951.301 555.86 951.301 556.304C951.301 556.733 951.248 557.127 951.142 557.486C951.036 557.845 950.874 558.159 950.658 558.428C950.442 558.694 950.166 558.9 949.832 559.047C949.497 559.194 949.099 559.267 948.638 559.267C948.283 559.267 947.948 559.218 947.634 559.12C947.324 559.018 947.047 558.865 946.802 558.661C946.557 558.457 946.357 558.2 946.202 557.89C946.051 557.58 945.957 557.216 945.92 556.8H946.624C946.673 557.2 946.781 557.537 946.949 557.81C947.116 558.084 947.34 558.29 947.622 558.428C947.908 558.567 948.246 558.636 948.638 558.636C948.956 558.636 949.234 558.585 949.471 558.483C949.711 558.381 949.911 558.232 950.07 558.037C950.234 557.837 950.356 557.594 950.438 557.308C950.523 557.018 950.566 556.688 950.566 556.317C950.566 555.998 950.521 555.706 950.432 555.441C950.342 555.172 950.209 554.937 950.034 554.737C949.862 554.533 949.65 554.376 949.397 554.266C949.144 554.156 948.854 554.101 948.528 554.101C948.104 554.101 947.765 554.158 947.512 554.272C947.263 554.386 947.028 554.541 946.808 554.737ZM958.31 558.636C958.62 558.636 958.909 558.579 959.179 558.465C959.452 558.347 959.677 558.173 959.852 557.945C960.032 557.712 960.134 557.429 960.158 557.094H960.856C960.836 557.514 960.707 557.89 960.47 558.22C960.238 558.547 959.932 558.804 959.552 558.992C959.177 559.175 958.762 559.267 958.31 559.267C957.848 559.267 957.44 559.183 957.085 559.016C956.734 558.849 956.441 558.616 956.204 558.318C955.967 558.016 955.788 557.665 955.665 557.265C955.547 556.861 955.488 556.427 955.488 555.962V555.704C955.488 555.239 955.547 554.807 955.665 554.407C955.788 554.003 955.967 553.652 956.204 553.354C956.441 553.052 956.734 552.817 957.085 552.65C957.436 552.483 957.842 552.399 958.303 552.399C958.777 552.399 959.201 552.495 959.577 552.687C959.956 552.879 960.258 553.15 960.483 553.501C960.711 553.852 960.836 554.268 960.856 554.75H960.158C960.138 554.395 960.044 554.088 959.877 553.831C959.709 553.574 959.489 553.376 959.215 553.238C958.942 553.099 958.638 553.03 958.303 553.03C957.928 553.03 957.608 553.103 957.342 553.25C957.077 553.393 956.861 553.591 956.694 553.844C956.53 554.093 956.41 554.378 956.332 554.701C956.255 555.019 956.216 555.354 956.216 555.704V555.962C956.216 556.317 956.253 556.655 956.326 556.978C956.404 557.296 956.524 557.58 956.687 557.828C956.855 558.077 957.071 558.275 957.336 558.422C957.606 558.565 957.93 558.636 958.31 558.636ZM961.927 555.937V555.735C961.927 555.254 961.996 554.809 962.135 554.401C962.274 553.993 962.472 553.64 962.729 553.342C962.99 553.044 963.302 552.813 963.666 552.65C964.029 552.483 964.433 552.399 964.878 552.399C965.326 552.399 965.732 552.483 966.096 552.65C966.459 552.813 966.771 553.044 967.032 553.342C967.293 553.64 967.493 553.993 967.632 554.401C967.771 554.809 967.84 555.254 967.84 555.735V555.937C967.84 556.419 967.771 556.863 967.632 557.271C967.493 557.675 967.293 558.026 967.032 558.324C966.775 558.622 966.465 558.855 966.102 559.022C965.739 559.185 965.335 559.267 964.89 559.267C964.441 559.267 964.035 559.185 963.672 559.022C963.308 558.855 962.996 558.622 962.735 558.324C962.474 558.026 962.274 557.675 962.135 557.271C961.996 556.863 961.927 556.419 961.927 555.937ZM962.656 555.735V555.937C962.656 556.3 962.705 556.645 962.802 556.972C962.9 557.294 963.043 557.582 963.231 557.835C963.419 558.084 963.651 558.279 963.929 558.422C964.206 558.565 964.527 558.636 964.89 558.636C965.249 558.636 965.565 558.565 965.839 558.422C966.116 558.279 966.349 558.084 966.536 557.835C966.724 557.582 966.865 557.294 966.959 556.972C967.057 556.645 967.106 556.3 967.106 555.937V555.735C967.106 555.376 967.057 555.035 966.959 554.713C966.865 554.39 966.722 554.103 966.53 553.85C966.343 553.597 966.11 553.397 965.832 553.25C965.555 553.103 965.237 553.03 964.878 553.03C964.518 553.03 964.2 553.103 963.923 553.25C963.649 553.397 963.417 553.597 963.225 553.85C963.037 554.103 962.894 554.39 962.796 554.713C962.702 555.035 962.656 555.376 962.656 555.735ZM970.172 549.742V559.145H969.444V549.742H970.172ZM972.107 558.698C972.107 558.555 972.151 558.434 972.241 558.337C972.335 558.235 972.462 558.184 972.621 558.184C972.784 558.184 972.913 558.232 973.006 558.33C973.1 558.428 973.147 558.551 973.147 558.698C973.147 558.836 973.1 558.955 973.006 559.053C972.913 559.151 972.784 559.2 972.621 559.2C972.462 559.2 972.335 559.151 972.241 559.053C972.151 558.955 972.107 558.836 972.107 558.698Z" fill="#FDFBF9"/>
</svg>
