<svg width="728" height="405" viewBox="0 0 728 405" fill="none" xmlns="http://www.w3.org/2000/svg">
<rect x="0.845703" y="0.569336" width="727.094" height="403.663" rx="11.1571" fill="#0567FF" fill-opacity="0.25"/>
<rect x="6.4375" y="6.47461" width="23.6561" height="391.297" fill="#FDFBF9" fill-opacity="0.1"/>
<rect x="35.9473" y="6.47461" width="23.6561" height="391.297" fill="#FDFBF9" fill-opacity="0.1"/>
<rect x="66.0332" y="6.47461" width="23.6561" height="391.297" fill="#FDFBF9" fill-opacity="0.1"/>
<rect x="96.1191" y="6.47461" width="23.6561" height="391.297" fill="#FDFBF9" fill-opacity="0.1"/>
<rect x="126.207" y="6.47461" width="23.6561" height="391.297" fill="#FDFBF9" fill-opacity="0.1"/>
<rect x="156.293" y="6.47461" width="23.6561" height="391.297" fill="#FDFBF9" fill-opacity="0.1"/>
<rect x="186.379" y="6.47461" width="23.6561" height="391.297" fill="#FDFBF9" fill-opacity="0.1"/>
<rect x="216.467" y="6.47461" width="23.6561" height="391.297" fill="#FDFBF9" fill-opacity="0.1"/>
<rect x="246.553" y="6.47461" width="23.6561" height="391.297" fill="#FDFBF9" fill-opacity="0.1"/>
<rect x="276.641" y="6.47461" width="23.6561" height="391.297" fill="#FDFBF9" fill-opacity="0.1"/>
<rect x="306.727" y="6.47461" width="23.6561" height="391.297" fill="#FDFBF9" fill-opacity="0.1"/>
<rect x="336.812" y="6.47461" width="23.6561" height="391.297" fill="#FDFBF9" fill-opacity="0.1"/>
<rect x="366.9" y="6.47461" width="23.6561" height="391.297" fill="#FDFBF9" fill-opacity="0.1"/>
<rect x="396.986" y="6.47461" width="23.6561" height="391.297" fill="#FDFBF9" fill-opacity="0.1"/>
<rect x="427.072" y="6.47461" width="23.6561" height="391.297" fill="#FDFBF9" fill-opacity="0.1"/>
<rect x="457.16" y="6.47461" width="23.6561" height="391.297" fill="#FDFBF9" fill-opacity="0.1"/>
<rect x="487.246" y="6.47461" width="23.6561" height="391.297" fill="#FDFBF9" fill-opacity="0.1"/>
<rect x="517.334" y="6.47461" width="23.6561" height="391.297" fill="#FDFBF9" fill-opacity="0.1"/>
<rect x="547.42" y="6.47461" width="23.6561" height="391.297" fill="#FDFBF9" fill-opacity="0.1"/>
<rect x="577.506" y="6.47461" width="23.6561" height="391.297" fill="#FDFBF9" fill-opacity="0.1"/>
<rect x="607.594" y="6.47461" width="23.6561" height="391.297" fill="#FDFBF9" fill-opacity="0.1"/>
<rect x="637.68" y="6.47461" width="23.6561" height="391.297" fill="#FDFBF9" fill-opacity="0.1"/>
<rect x="667.766" y="6.47461" width="23.6561" height="391.297" fill="#FDFBF9" fill-opacity="0.1"/>
<rect x="697.854" y="6.47461" width="23.6561" height="391.297" fill="#FDFBF9" fill-opacity="0.1"/>
<rect x="5.85938" y="33.1641" width="142.912" height="25.0722" rx="11.1631" fill="#0567FF" fill-opacity="0.5"/>
<rect x="5.85938" y="65.7578" width="142.912" height="155.448" rx="11.1631" fill="#0567FF" fill-opacity="0.5"/>
<rect x="577.506" y="351.581" width="142.912" height="45.13" rx="11.1631" fill="#0567FF" fill-opacity="0.5"/>
<path d="M727.939 25.5615L0.84552 25.5615L0.845521 11.7356C0.845522 5.56914 5.84444 0.570219 12.0109 0.570219L716.774 0.570281C722.941 0.570282 727.939 5.5692 727.939 11.7357L727.939 25.5615Z" fill="#0567FF"/>
<path d="M328.571 187.7H331.318L338.326 205.138L345.319 187.7H348.08L339.384 209.09H337.239L328.571 187.7ZM327.675 187.7H330.099L330.496 200.745V209.09H327.675V187.7ZM346.538 187.7H348.962V209.09H346.141V200.745L346.538 187.7ZM362.903 206.372V198.189C362.903 197.562 362.776 197.019 362.521 196.559C362.277 196.089 361.904 195.726 361.405 195.472C360.905 195.217 360.288 195.09 359.554 195.09C358.868 195.09 358.266 195.207 357.747 195.442C357.238 195.677 356.836 195.986 356.542 196.368C356.258 196.75 356.116 197.161 356.116 197.602H353.398C353.398 197.034 353.545 196.47 353.839 195.912C354.133 195.354 354.554 194.85 355.103 194.399C355.661 193.939 356.327 193.576 357.101 193.312C357.884 193.038 358.756 192.901 359.716 192.901C360.871 192.901 361.89 193.097 362.771 193.488C363.662 193.88 364.358 194.473 364.857 195.266C365.367 196.049 365.621 197.034 365.621 198.219V205.623C365.621 206.152 365.665 206.715 365.753 207.312C365.851 207.91 365.993 208.424 366.179 208.855V209.09H363.344C363.207 208.776 363.099 208.36 363.021 207.841C362.943 207.312 362.903 206.823 362.903 206.372ZM363.374 199.453L363.403 201.363H360.656C359.882 201.363 359.192 201.426 358.584 201.553C357.977 201.671 357.468 201.852 357.056 202.097C356.645 202.342 356.332 202.65 356.116 203.023C355.901 203.385 355.793 203.811 355.793 204.301C355.793 204.8 355.906 205.256 356.131 205.667C356.356 206.078 356.694 206.406 357.145 206.651C357.605 206.886 358.168 207.004 358.834 207.004C359.667 207.004 360.401 206.827 361.038 206.475C361.674 206.122 362.179 205.691 362.551 205.182C362.933 204.673 363.138 204.178 363.168 203.698L364.328 205.006C364.26 205.417 364.074 205.873 363.77 206.372C363.467 206.872 363.06 207.351 362.551 207.812C362.051 208.262 361.454 208.639 360.759 208.943C360.073 209.237 359.299 209.384 358.437 209.384C357.36 209.384 356.415 209.173 355.602 208.752C354.799 208.331 354.172 207.768 353.722 207.063C353.281 206.348 353.061 205.549 353.061 204.668C353.061 203.816 353.227 203.067 353.56 202.42C353.893 201.764 354.373 201.22 355 200.79C355.627 200.349 356.381 200.016 357.262 199.791C358.144 199.565 359.128 199.453 360.215 199.453H363.374ZM372.614 196.25V215.201H369.882V193.194H372.379L372.614 196.25ZM383.324 201.01V201.318C383.324 202.474 383.186 203.547 382.912 204.536C382.638 205.515 382.236 206.367 381.708 207.092C381.189 207.817 380.547 208.38 379.783 208.781C379.019 209.183 378.143 209.384 377.153 209.384C376.145 209.384 375.253 209.217 374.48 208.884C373.706 208.551 373.05 208.066 372.511 207.43C371.973 206.793 371.542 206.029 371.218 205.138C370.905 204.247 370.69 203.243 370.572 202.126V200.481C370.69 199.306 370.91 198.253 371.233 197.323C371.556 196.392 371.982 195.599 372.511 194.943C373.05 194.277 373.701 193.772 374.465 193.43C375.229 193.077 376.11 192.901 377.109 192.901C378.108 192.901 378.995 193.097 379.768 193.488C380.542 193.87 381.193 194.419 381.722 195.134C382.251 195.849 382.648 196.706 382.912 197.705C383.186 198.694 383.324 199.795 383.324 201.01ZM380.591 201.318V201.01C380.591 200.217 380.508 199.472 380.341 198.777C380.175 198.072 379.915 197.455 379.563 196.926C379.22 196.387 378.779 195.966 378.241 195.662C377.702 195.349 377.06 195.192 376.316 195.192C375.631 195.192 375.033 195.31 374.524 195.545C374.024 195.78 373.598 196.098 373.246 196.5C372.893 196.892 372.604 197.342 372.379 197.851C372.163 198.351 372.002 198.87 371.894 199.409V203.214C372.09 203.899 372.364 204.546 372.717 205.153C373.069 205.75 373.54 206.235 374.127 206.607C374.715 206.969 375.454 207.151 376.345 207.151C377.08 207.151 377.712 206.999 378.241 206.695C378.779 206.382 379.22 205.956 379.563 205.417C379.915 204.878 380.175 204.261 380.341 203.566C380.508 202.861 380.591 202.112 380.591 201.318ZM396.163 206.372V198.189C396.163 197.562 396.036 197.019 395.781 196.559C395.536 196.089 395.164 195.726 394.665 195.472C394.165 195.217 393.548 195.09 392.814 195.09C392.128 195.09 391.526 195.207 391.007 195.442C390.498 195.677 390.096 195.986 389.802 196.368C389.518 196.75 389.376 197.161 389.376 197.602H386.658C386.658 197.034 386.805 196.47 387.099 195.912C387.393 195.354 387.814 194.85 388.362 194.399C388.921 193.939 389.587 193.576 390.36 193.312C391.144 193.038 392.016 192.901 392.975 192.901C394.131 192.901 395.15 193.097 396.031 193.488C396.922 193.88 397.618 194.473 398.117 195.266C398.626 196.049 398.881 197.034 398.881 198.219V205.623C398.881 206.152 398.925 206.715 399.013 207.312C399.111 207.91 399.253 208.424 399.439 208.855V209.09H396.604C396.467 208.776 396.359 208.36 396.281 207.841C396.202 207.312 396.163 206.823 396.163 206.372ZM396.633 199.453L396.663 201.363H393.916C393.142 201.363 392.451 201.426 391.844 201.553C391.237 201.671 390.728 201.852 390.316 202.097C389.905 202.342 389.592 202.65 389.376 203.023C389.161 203.385 389.053 203.811 389.053 204.301C389.053 204.8 389.166 205.256 389.391 205.667C389.616 206.078 389.954 206.406 390.404 206.651C390.865 206.886 391.428 207.004 392.094 207.004C392.926 207.004 393.661 206.827 394.298 206.475C394.934 206.122 395.439 205.691 395.811 205.182C396.193 204.673 396.398 204.178 396.428 203.698L397.588 205.006C397.52 205.417 397.334 205.873 397.03 206.372C396.726 206.872 396.32 207.351 395.811 207.812C395.311 208.262 394.714 208.639 394.018 208.943C393.333 209.237 392.559 209.384 391.697 209.384C390.62 209.384 389.675 209.173 388.862 208.752C388.059 208.331 387.432 207.768 386.982 207.063C386.541 206.348 386.32 205.549 386.32 204.668C386.32 203.816 386.487 203.067 386.82 202.42C387.153 201.764 387.633 201.22 388.26 200.79C388.886 200.349 389.641 200.016 390.522 199.791C391.403 199.565 392.388 199.453 393.475 199.453H396.633ZM339.707 236.829V238.09H328.554V236.951L334.394 230.328C335.12 229.504 335.699 228.782 336.132 228.161C336.565 227.533 336.875 226.962 337.062 226.447C337.258 225.925 337.356 225.419 337.356 224.929C337.356 224.211 337.213 223.579 336.928 223.032C336.65 222.485 336.234 222.057 335.679 221.746C335.124 221.436 334.438 221.281 333.622 221.281C332.806 221.281 332.096 221.457 331.492 221.808C330.888 222.159 330.423 222.648 330.097 223.277C329.778 223.897 329.619 224.603 329.619 225.395H328.162C328.162 224.415 328.379 223.517 328.811 222.701C329.252 221.885 329.88 221.236 330.696 220.755C331.513 220.265 332.488 220.02 333.622 220.02C334.7 220.02 335.626 220.212 336.401 220.596C337.177 220.971 337.772 221.514 338.189 222.224C338.613 222.934 338.825 223.791 338.825 224.795C338.825 225.333 338.727 225.876 338.531 226.423C338.344 226.97 338.083 227.517 337.748 228.063C337.421 228.602 337.046 229.137 336.622 229.667C336.205 230.198 335.769 230.72 335.312 231.234L330.341 236.829H339.707ZM354.226 232.336V233.585H341.604V232.74L349.843 220.265H351.068L349.329 223.289L343.392 232.336H354.226ZM351.447 220.265V238.09H349.99V220.265H351.447ZM367.607 237.074C368.227 237.074 368.807 236.959 369.345 236.731C369.892 236.494 370.341 236.147 370.692 235.69C371.051 235.225 371.255 234.658 371.304 233.989H372.7C372.659 234.829 372.402 235.58 371.928 236.241C371.463 236.894 370.851 237.408 370.092 237.784C369.341 238.151 368.513 238.335 367.607 238.335C366.685 238.335 365.869 238.167 365.158 237.833C364.457 237.498 363.869 237.033 363.396 236.437C362.922 235.833 362.563 235.131 362.318 234.331C362.082 233.523 361.963 232.654 361.963 231.724V231.21C361.963 230.279 362.082 229.414 362.318 228.614C362.563 227.806 362.922 227.104 363.396 226.509C363.869 225.905 364.457 225.435 365.158 225.101C365.86 224.766 366.672 224.599 367.595 224.599C368.541 224.599 369.39 224.791 370.141 225.174C370.9 225.558 371.504 226.101 371.953 226.802C372.41 227.504 372.659 228.337 372.7 229.3H371.304C371.263 228.59 371.076 227.978 370.741 227.464C370.406 226.949 369.966 226.554 369.419 226.276C368.872 225.999 368.264 225.86 367.595 225.86C366.844 225.86 366.203 226.007 365.673 226.301C365.142 226.586 364.71 226.982 364.375 227.488C364.048 227.986 363.808 228.557 363.653 229.202C363.498 229.839 363.42 230.508 363.42 231.21V231.724C363.42 232.434 363.493 233.111 363.64 233.756C363.795 234.393 364.036 234.96 364.363 235.458C364.697 235.956 365.13 236.351 365.66 236.645C366.199 236.931 366.848 237.074 367.607 237.074ZM374.842 231.675V231.271C374.842 230.308 374.981 229.418 375.258 228.602C375.536 227.786 375.932 227.08 376.446 226.484C376.968 225.888 377.593 225.427 378.319 225.101C379.045 224.766 379.853 224.599 380.743 224.599C381.641 224.599 382.453 224.766 383.179 225.101C383.905 225.427 384.53 225.888 385.052 226.484C385.575 227.08 385.974 227.786 386.252 228.602C386.529 229.418 386.668 230.308 386.668 231.271V231.675C386.668 232.638 386.529 233.528 386.252 234.344C385.974 235.152 385.575 235.854 385.052 236.449C384.538 237.045 383.918 237.51 383.191 237.845C382.465 238.171 381.657 238.335 380.767 238.335C379.87 238.335 379.058 238.171 378.331 237.845C377.605 237.51 376.98 237.045 376.458 236.449C375.936 235.854 375.536 235.152 375.258 234.344C374.981 233.528 374.842 232.638 374.842 231.675ZM376.299 231.271V231.675C376.299 232.401 376.397 233.091 376.593 233.744C376.789 234.389 377.074 234.964 377.45 235.47C377.825 235.968 378.29 236.36 378.845 236.645C379.4 236.931 380.041 237.074 380.767 237.074C381.486 237.074 382.118 236.931 382.665 236.645C383.22 236.36 383.685 235.968 384.061 235.47C384.436 234.964 384.718 234.389 384.905 233.744C385.101 233.091 385.199 232.401 385.199 231.675V231.271C385.199 230.553 385.101 229.871 384.905 229.226C384.718 228.582 384.432 228.006 384.048 227.5C383.673 226.994 383.208 226.594 382.653 226.301C382.098 226.007 381.461 225.86 380.743 225.86C380.025 225.86 379.388 226.007 378.833 226.301C378.286 226.594 377.821 226.994 377.437 227.5C377.062 228.006 376.776 228.582 376.581 229.226C376.393 229.871 376.299 230.553 376.299 231.271ZM391.332 219.286V238.09H389.876V219.286H391.332ZM395.201 237.196C395.201 236.911 395.291 236.67 395.47 236.474C395.658 236.27 395.911 236.168 396.229 236.168C396.556 236.168 396.813 236.266 397.001 236.462C397.188 236.657 397.282 236.902 397.282 237.196C397.282 237.474 397.188 237.71 397.001 237.906C396.813 238.102 396.556 238.2 396.229 238.2C395.911 238.2 395.658 238.102 395.47 237.906C395.291 237.71 395.201 237.474 395.201 237.196Z" fill="#606060"/>
<path d="M45.0451 127.86H46.9255C46.8276 128.761 46.5697 129.567 46.1518 130.279C45.7339 130.991 45.143 131.556 44.3791 131.973C43.6152 132.385 42.6619 132.59 41.5193 132.59C40.6836 132.59 39.9229 132.434 39.2374 132.12C38.5583 131.807 37.974 131.363 37.4843 130.788C36.9946 130.207 36.6159 129.512 36.3482 128.702C36.087 127.886 35.9564 126.979 35.9564 125.98V124.559C35.9564 123.56 36.087 122.656 36.3482 121.847C36.6159 121.03 36.9978 120.332 37.4941 119.751C37.9968 119.17 38.6008 118.722 39.3059 118.409C40.0111 118.096 40.8044 117.939 41.6858 117.939C42.7631 117.939 43.674 118.141 44.4183 118.546C45.1626 118.951 45.7405 119.512 46.1518 120.231C46.5697 120.942 46.8276 121.768 46.9255 122.708H45.0451C44.9537 122.042 44.7839 121.471 44.5358 120.995C44.2877 120.511 43.9351 120.139 43.4781 119.878C43.021 119.617 42.4236 119.486 41.6858 119.486C41.0525 119.486 40.4942 119.607 40.0111 119.849C39.5344 120.09 39.1329 120.433 38.8064 120.877C38.4865 121.321 38.2449 121.853 38.0817 122.473C37.9185 123.094 37.8368 123.782 37.8368 124.54V125.98C37.8368 126.678 37.9087 127.334 38.0523 127.948C38.2025 128.562 38.4277 129.101 38.7281 129.564C39.0284 130.028 39.4104 130.393 39.874 130.661C40.3375 130.922 40.886 131.053 41.5193 131.053C42.3224 131.053 42.9623 130.925 43.4389 130.671C43.9156 130.416 44.2747 130.051 44.5162 129.574C44.7643 129.097 44.9406 128.526 45.0451 127.86ZM55.4755 130.583V125.128C55.4755 124.71 55.3907 124.347 55.2209 124.04C55.0577 123.727 54.8096 123.485 54.4766 123.316C54.1436 123.146 53.7322 123.061 53.2425 123.061C52.7855 123.061 52.384 123.139 52.0379 123.296C51.6984 123.453 51.4307 123.658 51.2348 123.913C51.0455 124.168 50.9508 124.442 50.9508 124.736H49.1389C49.1389 124.357 49.2369 123.982 49.4327 123.609C49.6286 123.237 49.9094 122.901 50.275 122.601C50.6472 122.294 51.0912 122.052 51.607 121.876C52.1293 121.693 52.7104 121.602 53.3503 121.602C54.1207 121.602 54.7998 121.732 55.3874 121.993C55.9816 122.255 56.4451 122.65 56.7781 123.179C57.1176 123.701 57.2874 124.357 57.2874 125.147V130.083C57.2874 130.436 57.3168 130.811 57.3755 131.209C57.4408 131.608 57.5355 131.951 57.6596 132.238V132.395H55.7694C55.6779 132.186 55.6061 131.908 55.5539 131.562C55.5017 131.209 55.4755 130.883 55.4755 130.583ZM55.7889 125.97L55.8085 127.243H53.9771C53.4613 127.243 53.001 127.285 52.5962 127.37C52.1913 127.449 51.8518 127.569 51.5776 127.733C51.3034 127.896 51.0944 128.102 50.9508 128.35C50.8071 128.591 50.7353 128.875 50.7353 129.202C50.7353 129.535 50.8104 129.838 50.9606 130.113C51.1108 130.387 51.336 130.606 51.6364 130.769C51.9432 130.925 52.3187 131.004 52.7626 131.004C53.3176 131.004 53.8073 130.886 54.2317 130.651C54.6561 130.416 54.9924 130.129 55.2405 129.789C55.4951 129.45 55.6322 129.12 55.6518 128.8L56.4255 129.672C56.3798 129.946 56.2558 130.25 56.0534 130.583C55.851 130.916 55.58 131.236 55.2405 131.542C54.9075 131.843 54.5092 132.094 54.0456 132.297C53.5886 132.492 53.0728 132.59 52.4982 132.59C51.78 132.59 51.1499 132.45 50.608 132.169C50.0726 131.889 49.6547 131.513 49.3544 131.043C49.0606 130.566 48.9137 130.034 48.9137 129.447C48.9137 128.879 49.0247 128.379 49.2467 127.948C49.4687 127.511 49.7886 127.148 50.2065 126.861C50.6243 126.567 51.1271 126.345 51.7147 126.195C52.3023 126.045 52.9585 125.97 53.6833 125.97H55.7889ZM61.9395 123.903V132.395H60.1178V121.798H61.8415L61.9395 123.903ZM61.5673 126.695L60.725 126.665C60.7316 125.94 60.8262 125.271 61.0091 124.657C61.1919 124.037 61.4628 123.498 61.8219 123.041C62.1811 122.584 62.6283 122.232 63.1637 121.984C63.6991 121.729 64.3194 121.602 65.0245 121.602C65.5208 121.602 65.9778 121.674 66.3957 121.817C66.8135 121.954 67.1759 122.173 67.4828 122.473C67.7897 122.774 68.028 123.159 68.1977 123.629C68.3675 124.099 68.4524 124.667 68.4524 125.333V132.395H66.6405V125.421C66.6405 124.866 66.5458 124.422 66.3565 124.089C66.1737 123.756 65.9125 123.515 65.573 123.365C65.2335 123.208 64.8352 123.13 64.3781 123.13C63.8427 123.13 63.3955 123.224 63.0364 123.414C62.6773 123.603 62.39 123.864 62.1745 124.197C61.9591 124.53 61.8024 124.912 61.7044 125.343C61.613 125.767 61.5673 126.218 61.5673 126.695ZM68.4328 125.696L67.2184 126.068C67.2249 125.487 67.3196 124.928 67.5024 124.393C67.6917 123.858 67.9627 123.381 68.3153 122.963C68.6744 122.545 69.1151 122.215 69.6374 121.974C70.1598 121.726 70.7572 121.602 71.4297 121.602C71.9977 121.602 72.5005 121.677 72.938 121.827C73.3819 121.977 73.7541 122.209 74.0544 122.522C74.3613 122.829 74.5931 123.224 74.7498 123.707C74.9065 124.191 74.9849 124.765 74.9849 125.431V132.395H73.1632V125.412C73.1632 124.817 73.0685 124.357 72.8792 124.031C72.6964 123.698 72.4352 123.466 72.0957 123.335C71.7627 123.198 71.3644 123.13 70.9008 123.13C70.5026 123.13 70.15 123.198 69.8431 123.335C69.5362 123.472 69.2783 123.662 69.0694 123.903C68.8605 124.138 68.7005 124.409 68.5895 124.716C68.485 125.023 68.4328 125.349 68.4328 125.696ZM83.9756 130.583V125.128C83.9756 124.71 83.8907 124.347 83.721 124.04C83.5577 123.727 83.3096 123.485 82.9766 123.316C82.6436 123.146 82.2323 123.061 81.7426 123.061C81.2856 123.061 80.884 123.139 80.538 123.296C80.1984 123.453 79.9308 123.658 79.7349 123.913C79.5455 124.168 79.4509 124.442 79.4509 124.736H77.639C77.639 124.357 77.7369 123.982 77.9328 123.609C78.1287 123.237 78.4094 122.901 78.7751 122.601C79.1472 122.294 79.5912 122.052 80.107 121.876C80.6294 121.693 81.2105 121.602 81.8503 121.602C82.6208 121.602 83.2998 121.732 83.8875 121.993C84.4816 122.255 84.9452 122.65 85.2782 123.179C85.6177 123.701 85.7875 124.357 85.7875 125.147V130.083C85.7875 130.436 85.8168 130.811 85.8756 131.209C85.9409 131.608 86.0356 131.951 86.1596 132.238V132.395H84.2694C84.178 132.186 84.1062 131.908 84.054 131.562C84.0017 131.209 83.9756 130.883 83.9756 130.583ZM84.289 125.97L84.3086 127.243H82.4771C81.9613 127.243 81.501 127.285 81.0962 127.37C80.6914 127.449 80.3519 127.569 80.0777 127.733C79.8034 127.896 79.5945 128.102 79.4509 128.35C79.3072 128.591 79.2354 128.875 79.2354 129.202C79.2354 129.535 79.3105 129.838 79.4606 130.113C79.6108 130.387 79.8361 130.606 80.1364 130.769C80.4433 130.925 80.8187 131.004 81.2627 131.004C81.8177 131.004 82.3074 130.886 82.7318 130.651C83.1562 130.416 83.4924 130.129 83.7406 129.789C83.9952 129.45 84.1323 129.12 84.1519 128.8L84.9256 129.672C84.8799 129.946 84.7558 130.25 84.5534 130.583C84.351 130.916 84.0801 131.236 83.7406 131.542C83.4076 131.843 83.0093 132.094 82.5457 132.297C82.0887 132.492 81.5729 132.59 80.9983 132.59C80.2801 132.59 79.65 132.45 79.1081 132.169C78.5727 131.889 78.1548 131.513 77.8545 131.043C77.5606 130.566 77.4137 130.034 77.4137 129.447C77.4137 128.879 77.5247 128.379 77.7467 127.948C77.9687 127.511 78.2887 127.148 78.7065 126.861C79.1244 126.567 79.6271 126.345 80.2148 126.195C80.8024 126.045 81.4586 125.97 82.1833 125.97H84.289ZM95.3169 130.338V117.351H97.1385V132.395H95.4736L95.3169 130.338ZM88.187 127.214V127.008C88.187 126.198 88.2849 125.464 88.4808 124.804C88.6832 124.138 88.9672 123.567 89.3328 123.09C89.705 122.614 90.1457 122.248 90.655 121.993C91.1708 121.732 91.7454 121.602 92.3787 121.602C93.0447 121.602 93.6258 121.719 94.122 121.954C94.6248 122.183 95.0492 122.519 95.3952 122.963C95.7478 123.401 96.0253 123.929 96.2277 124.55C96.4301 125.17 96.5705 125.872 96.6488 126.655V127.556C96.577 128.333 96.4366 129.032 96.2277 129.652C96.0253 130.273 95.7478 130.801 95.3952 131.239C95.0492 131.676 94.6248 132.013 94.122 132.248C93.6193 132.476 93.0316 132.59 92.3591 132.59C91.7389 132.59 91.1708 132.457 90.655 132.189C90.1457 131.921 89.705 131.546 89.3328 131.063C88.9672 130.579 88.6832 130.011 88.4808 129.358C88.2849 128.699 88.187 127.984 88.187 127.214ZM90.0086 127.008V127.214C90.0086 127.742 90.0608 128.239 90.1653 128.702C90.2763 129.166 90.4461 129.574 90.6746 129.926C90.9031 130.279 91.1937 130.557 91.5462 130.759C91.8988 130.955 92.32 131.053 92.8096 131.053C93.4103 131.053 93.9033 130.925 94.2885 130.671C94.6803 130.416 94.9937 130.08 95.2287 129.662C95.4638 129.244 95.6466 128.79 95.7772 128.301V125.94C95.6988 125.581 95.5846 125.235 95.4344 124.902C95.2907 124.563 95.1014 124.262 94.8663 124.001C94.6378 123.734 94.3538 123.521 94.0143 123.365C93.6813 123.208 93.2863 123.13 92.8292 123.13C92.333 123.13 91.9053 123.234 91.5462 123.443C91.1937 123.645 90.9031 123.926 90.6746 124.285C90.4461 124.638 90.2763 125.049 90.1653 125.519C90.0608 125.983 90.0086 126.479 90.0086 127.008ZM106.208 130.583V125.128C106.208 124.71 106.123 124.347 105.953 124.04C105.79 123.727 105.542 123.485 105.209 123.316C104.876 123.146 104.464 123.061 103.975 123.061C103.518 123.061 103.116 123.139 102.77 123.296C102.43 123.453 102.163 123.658 101.967 123.913C101.778 124.168 101.683 124.442 101.683 124.736H99.871C99.871 124.357 99.9689 123.982 100.165 123.609C100.361 123.237 100.641 122.901 101.007 122.601C101.379 122.294 101.823 122.052 102.339 121.876C102.861 121.693 103.442 121.602 104.082 121.602C104.853 121.602 105.532 121.732 106.119 121.993C106.714 122.255 107.177 122.65 107.51 123.179C107.85 123.701 108.019 124.357 108.019 125.147V130.083C108.019 130.436 108.049 130.811 108.108 131.209C108.173 131.608 108.268 131.951 108.392 132.238V132.395H106.501C106.41 132.186 106.338 131.908 106.286 131.562C106.234 131.209 106.208 130.883 106.208 130.583ZM106.521 125.97L106.541 127.243H104.709C104.193 127.243 103.733 127.285 103.328 127.37C102.923 127.449 102.584 127.569 102.31 127.733C102.035 127.896 101.827 128.102 101.683 128.35C101.539 128.591 101.467 128.875 101.467 129.202C101.467 129.535 101.542 129.838 101.693 130.113C101.843 130.387 102.068 130.606 102.368 130.769C102.675 130.925 103.051 131.004 103.495 131.004C104.05 131.004 104.539 130.886 104.964 130.651C105.388 130.416 105.724 130.129 105.973 129.789C106.227 129.45 106.364 129.12 106.384 128.8L107.158 129.672C107.112 129.946 106.988 130.25 106.785 130.583C106.583 130.916 106.312 131.236 105.973 131.542C105.64 131.843 105.241 132.094 104.778 132.297C104.321 132.492 103.805 132.59 103.23 132.59C102.512 132.59 101.882 132.45 101.34 132.169C100.805 131.889 100.387 131.513 100.086 131.043C99.7927 130.566 99.6457 130.034 99.6457 129.447C99.6457 128.879 99.7567 128.379 99.9787 127.948C100.201 127.511 100.521 127.148 100.939 126.861C101.356 126.567 101.859 126.345 102.447 126.195C103.034 126.045 103.691 125.97 104.415 125.97H106.521ZM117.04 129.584C117.04 129.323 116.981 129.081 116.863 128.859C116.752 128.63 116.521 128.425 116.168 128.242C115.822 128.053 115.3 127.889 114.601 127.752C114.013 127.628 113.481 127.481 113.005 127.312C112.534 127.142 112.133 126.936 111.8 126.695C111.473 126.453 111.222 126.169 111.046 125.842C110.869 125.516 110.781 125.134 110.781 124.697C110.781 124.279 110.873 123.884 111.056 123.512C111.245 123.139 111.509 122.81 111.849 122.522C112.195 122.235 112.61 122.01 113.093 121.847C113.576 121.683 114.115 121.602 114.709 121.602C115.557 121.602 116.282 121.752 116.883 122.052C117.484 122.353 117.944 122.754 118.264 123.257C118.584 123.753 118.744 124.305 118.744 124.912H116.932C116.932 124.618 116.844 124.334 116.667 124.06C116.498 123.779 116.246 123.547 115.913 123.365C115.587 123.182 115.185 123.09 114.709 123.09C114.206 123.09 113.798 123.169 113.484 123.325C113.178 123.476 112.952 123.668 112.809 123.903C112.672 124.138 112.603 124.386 112.603 124.648C112.603 124.843 112.636 125.02 112.701 125.176C112.773 125.327 112.897 125.467 113.073 125.598C113.249 125.722 113.497 125.839 113.817 125.95C114.137 126.061 114.545 126.172 115.042 126.283C115.91 126.479 116.625 126.714 117.187 126.988C117.748 127.263 118.166 127.599 118.44 127.997C118.714 128.395 118.851 128.879 118.851 129.447C118.851 129.91 118.754 130.335 118.558 130.72C118.368 131.105 118.091 131.438 117.725 131.719C117.366 131.993 116.935 132.208 116.432 132.365C115.936 132.515 115.378 132.59 114.758 132.59C113.824 132.59 113.034 132.424 112.388 132.091C111.741 131.758 111.251 131.327 110.918 130.798C110.585 130.269 110.419 129.711 110.419 129.123H112.241C112.267 129.62 112.41 130.015 112.672 130.308C112.933 130.596 113.253 130.801 113.631 130.925C114.01 131.043 114.385 131.102 114.758 131.102C115.254 131.102 115.668 131.036 116.001 130.906C116.341 130.775 116.599 130.596 116.775 130.367C116.951 130.139 117.04 129.878 117.04 129.584ZM62.0227 145.106L61.3323 144.908L61.8538 139.7H67.2012V140.522H62.603L62.2284 144.122C62.4145 143.989 62.6838 143.86 63.0364 143.732C63.3939 143.6 63.7954 143.534 64.241 143.534C64.716 143.534 65.147 143.615 65.5338 143.776C65.9256 143.933 66.261 144.163 66.5401 144.467C66.8193 144.766 67.0347 145.128 67.1865 145.554C67.3383 145.975 67.4142 146.453 67.4142 146.986C67.4142 147.5 67.3506 147.973 67.2232 148.404C67.0959 148.835 66.9025 149.212 66.643 149.535C66.3834 149.853 66.0529 150.101 65.6513 150.277C65.2498 150.453 64.7723 150.541 64.219 150.541C63.793 150.541 63.3914 150.483 63.0143 150.365C62.6422 150.243 62.3092 150.059 62.0154 149.814C61.7216 149.569 61.4816 149.261 61.2955 148.889C61.1143 148.517 61.0017 148.081 60.9576 147.581H61.8024C61.8611 148.061 61.9909 148.465 62.1917 148.793C62.3924 149.121 62.6618 149.369 62.9997 149.535C63.3424 149.702 63.7489 149.785 64.219 149.785C64.6009 149.785 64.9339 149.724 65.218 149.601C65.5069 149.479 65.7468 149.3 65.9378 149.065C66.1337 148.825 66.2806 148.534 66.3785 148.191C66.4814 147.843 66.5328 147.447 66.5328 147.001C66.5328 146.619 66.4789 146.269 66.3712 145.951C66.2635 145.627 66.1043 145.346 65.8937 145.106C65.6881 144.861 65.4334 144.672 65.1298 144.54C64.8262 144.408 64.4785 144.342 64.0868 144.342C63.5775 144.342 63.171 144.41 62.8674 144.548C62.5687 144.685 62.2872 144.871 62.0227 145.106ZM75.8247 149.785C76.1968 149.785 76.5445 149.716 76.8677 149.579C77.1958 149.437 77.4652 149.229 77.6757 148.955C77.8912 148.676 78.0136 148.335 78.043 147.934H78.8804C78.8559 148.438 78.7016 148.889 78.4176 149.285C78.1385 149.677 77.7712 149.986 77.3158 150.211C76.8653 150.431 76.3682 150.541 75.8247 150.541C75.2713 150.541 74.7816 150.441 74.3556 150.24C73.9345 150.04 73.5819 149.76 73.2979 149.403C73.0139 149.041 72.7984 148.619 72.6515 148.14C72.5095 147.655 72.4385 147.133 72.4385 146.575V146.266C72.4385 145.708 72.5095 145.189 72.6515 144.709C72.7984 144.224 73.0139 143.803 73.2979 143.446C73.5819 143.083 73.9345 142.802 74.3556 142.601C74.7767 142.4 75.264 142.3 75.8173 142.3C76.3854 142.3 76.8947 142.415 77.3452 142.645C77.8006 142.875 78.163 143.201 78.4323 143.622C78.7065 144.043 78.8559 144.543 78.8804 145.121H78.043C78.0185 144.695 77.9059 144.327 77.7051 144.019C77.5043 143.71 77.2399 143.473 76.9118 143.306C76.5837 143.14 76.2189 143.057 75.8173 143.057C75.3668 143.057 74.9824 143.145 74.6641 143.321C74.3458 143.492 74.0863 143.73 73.8855 144.033C73.6896 144.332 73.5452 144.675 73.4521 145.062C73.3591 145.444 73.3126 145.845 73.3126 146.266V146.575C73.3126 147.001 73.3566 147.407 73.4448 147.794C73.5378 148.176 73.6823 148.517 73.8782 148.815C74.0789 149.114 74.3385 149.351 74.6568 149.528C74.98 149.699 75.3693 149.785 75.8247 149.785ZM80.1658 146.546V146.303C80.1658 145.725 80.2491 145.192 80.4155 144.702C80.582 144.212 80.8195 143.789 81.128 143.431C81.4415 143.074 81.8161 142.797 82.2519 142.601C82.6877 142.4 83.1725 142.3 83.7063 142.3C84.2449 142.3 84.7322 142.4 85.168 142.601C85.6038 142.797 85.9784 143.074 86.2918 143.431C86.6053 143.789 86.8452 144.212 87.0117 144.702C87.1782 145.192 87.2614 145.725 87.2614 146.303V146.546C87.2614 147.123 87.1782 147.657 87.0117 148.147C86.8452 148.632 86.6053 149.053 86.2918 149.41C85.9833 149.768 85.6112 150.047 85.1754 150.248C84.7395 150.444 84.2547 150.541 83.721 150.541C83.1823 150.541 82.6951 150.444 82.2592 150.248C81.8234 150.047 81.4488 149.768 81.1354 149.41C80.822 149.053 80.582 148.632 80.4155 148.147C80.2491 147.657 80.1658 147.123 80.1658 146.546ZM81.0399 146.303V146.546C81.0399 146.981 81.0987 147.395 81.2162 147.787C81.3337 148.174 81.5051 148.519 81.7304 148.823C81.9556 149.121 82.2348 149.356 82.5677 149.528C82.9007 149.699 83.2851 149.785 83.721 149.785C84.1519 149.785 84.5314 149.699 84.8595 149.528C85.1925 149.356 85.4716 149.121 85.6969 148.823C85.9221 148.519 86.0911 148.174 86.2037 147.787C86.3212 147.395 86.38 146.981 86.38 146.546V146.303C86.38 145.872 86.3212 145.463 86.2037 145.076C86.0911 144.69 85.9197 144.344 85.6895 144.041C85.4643 143.737 85.1851 143.497 84.8522 143.321C84.5192 143.145 84.1372 143.057 83.7063 143.057C83.2753 143.057 82.8934 143.145 82.5604 143.321C82.2323 143.497 81.9532 143.737 81.723 144.041C81.4978 144.344 81.3264 144.69 81.2088 145.076C81.0962 145.463 81.0399 145.872 81.0399 146.303ZM90.06 139.112V150.395H89.1859V139.112H90.06ZM92.3812 149.858C92.3812 149.687 92.435 149.542 92.5428 149.425C92.6554 149.303 92.8072 149.241 92.9982 149.241C93.1941 149.241 93.3483 149.3 93.4609 149.418C93.5736 149.535 93.6299 149.682 93.6299 149.858C93.6299 150.025 93.5736 150.167 93.4609 150.284C93.3483 150.402 93.1941 150.461 92.9982 150.461C92.8072 150.461 92.6554 150.402 92.5428 150.284C92.435 150.167 92.3812 150.025 92.3812 149.858Z" fill="#FDFBF9"/>
<path d="M48.02 46.0092H45.7613L45.749 45.0605H47.7996C48.1383 45.0605 48.4342 45.0033 48.6872 44.8891C48.9402 44.7748 49.1361 44.6116 49.2748 44.3994C49.4176 44.1831 49.4891 43.926 49.4891 43.6281C49.4891 43.3016 49.4258 43.0364 49.2993 42.8324C49.1769 42.6242 48.9871 42.4733 48.73 42.3794C48.477 42.2815 48.1547 42.2325 47.7629 42.2325H46.0245V50.1777H44.8431V41.2653H47.7629C48.2199 41.2653 48.628 41.3123 48.9871 41.4061C49.3462 41.4959 49.6503 41.6387 49.8992 41.8346C50.1522 42.0264 50.344 42.2713 50.4746 42.5691C50.6051 42.867 50.6704 43.2241 50.6704 43.6403C50.6704 44.0076 50.5766 44.3402 50.3889 44.6381C50.2012 44.9319 49.94 45.1727 49.6054 45.3604C49.2748 45.5481 48.8871 45.6685 48.4423 45.7215L48.02 46.0092ZM47.9649 50.1777H45.2961L45.9633 49.2167H47.9649C48.3403 49.2167 48.6586 49.1514 48.9198 49.0208C49.185 48.8903 49.387 48.7066 49.5258 48.4699C49.6645 48.2292 49.7339 47.9456 49.7339 47.6191C49.7339 47.2886 49.6747 47.0029 49.5564 46.7621C49.4381 46.5214 49.2524 46.3357 48.9994 46.2051C48.7464 46.0745 48.4199 46.0092 48.02 46.0092H46.3367L46.3489 45.0605H48.6505L48.9014 45.4032C49.3299 45.44 49.6931 45.5624 49.991 45.7705C50.2889 45.9745 50.5154 46.2357 50.6704 46.554C50.8296 46.8723 50.9092 47.2233 50.9092 47.6069C50.9092 48.1618 50.7867 48.6311 50.5419 49.0147C50.3011 49.3942 49.9604 49.684 49.5197 49.8839C49.0789 50.0798 48.5607 50.1777 47.9649 50.1777ZM56.5345 48.6474V43.5547H57.673V50.1777H56.5896L56.5345 48.6474ZM56.7487 47.2518L57.2201 47.2396C57.2201 47.6803 57.1731 48.0884 57.0793 48.4638C56.9895 48.8352 56.8426 49.1575 56.6386 49.431C56.4345 49.7044 56.1672 49.9186 55.8367 50.0737C55.5061 50.2247 55.1042 50.3002 54.6308 50.3002C54.3084 50.3002 54.0126 50.2532 53.7433 50.1594C53.478 50.0655 53.2495 49.9206 53.0577 49.7248C52.8659 49.5289 52.7169 49.2738 52.6108 48.9596C52.5088 48.6454 52.4578 48.2679 52.4578 47.8272V43.5547H53.5902V47.8395C53.5902 48.1374 53.6229 48.3842 53.6882 48.5801C53.7575 48.7719 53.8494 48.9249 53.9636 49.0392C54.082 49.1494 54.2125 49.2269 54.3554 49.2718C54.5023 49.3167 54.6533 49.3391 54.8083 49.3391C55.2899 49.3391 55.6714 49.2473 55.953 49.0637C56.2346 48.876 56.4366 48.625 56.559 48.3108C56.6855 47.9925 56.7487 47.6395 56.7487 47.2518ZM63.2555 48.421C63.2555 48.2577 63.2188 48.1067 63.1453 47.968C63.076 47.8252 62.9311 47.6966 62.7107 47.5824C62.4945 47.464 62.168 47.362 61.7314 47.2763C61.3641 47.1988 61.0315 47.107 60.7336 47.0009C60.4398 46.8948 60.1888 46.7662 59.9807 46.6152C59.7767 46.4642 59.6196 46.2867 59.5094 46.0827C59.3992 45.8786 59.3441 45.6399 59.3441 45.3665C59.3441 45.1053 59.4012 44.8585 59.5155 44.6259C59.6338 44.3933 59.7991 44.1872 60.0113 44.0076C60.2276 43.8281 60.4867 43.6873 60.7887 43.5853C61.0907 43.4832 61.4273 43.4322 61.7987 43.4322C62.3292 43.4322 62.7822 43.5261 63.1576 43.7138C63.533 43.9015 63.8207 44.1525 64.0207 44.4667C64.2206 44.7768 64.3206 45.1217 64.3206 45.5012H63.1882C63.1882 45.3175 63.1331 45.14 63.0229 44.9686C62.9168 44.7932 62.7597 44.6483 62.5516 44.534C62.3476 44.4198 62.0966 44.3626 61.7987 44.3626C61.4845 44.3626 61.2294 44.4116 61.0335 44.5096C60.8417 44.6034 60.701 44.7238 60.6112 44.8707C60.5255 45.0176 60.4826 45.1727 60.4826 45.3359C60.4826 45.4583 60.503 45.5685 60.5439 45.6664C60.5887 45.7603 60.6663 45.848 60.7765 45.9297C60.8866 46.0072 61.0417 46.0806 61.2417 46.15C61.4416 46.2194 61.6967 46.2888 62.0068 46.3581C62.5495 46.4806 62.9964 46.6275 63.3473 46.7989C63.6983 46.9703 63.9595 47.1804 64.1308 47.4293C64.3022 47.6783 64.3879 47.9802 64.3879 48.3353C64.3879 48.625 64.3267 48.8903 64.2043 49.131C64.086 49.3718 63.9125 49.5799 63.684 49.7554C63.4596 49.9268 63.1902 50.0614 62.876 50.1594C62.5659 50.2532 62.217 50.3002 61.8293 50.3002C61.2457 50.3002 60.752 50.1961 60.348 49.988C59.944 49.7799 59.6379 49.5105 59.4298 49.18C59.2217 48.8494 59.1176 48.5005 59.1176 48.1333H60.2562C60.2725 48.4434 60.3623 48.6903 60.5255 48.8739C60.6887 49.0535 60.8887 49.182 61.1254 49.2596C61.362 49.333 61.5967 49.3697 61.8293 49.3697C62.1394 49.3697 62.3986 49.3289 62.6067 49.2473C62.8189 49.1657 62.9801 49.0535 63.0903 48.9107C63.2004 48.7678 63.2555 48.6046 63.2555 48.421ZM68.5258 49.3697C68.7952 49.3697 69.0441 49.3147 69.2726 49.2045C69.5011 49.0943 69.6888 48.9433 69.8358 48.7515C69.9827 48.5556 70.0663 48.3332 70.0867 48.0843H71.164C71.1436 48.4761 71.011 48.8413 70.7662 49.18C70.5254 49.5146 70.2091 49.786 69.8174 49.9941C69.4256 50.1981 68.9951 50.3002 68.5258 50.3002C68.028 50.3002 67.5934 50.2124 67.222 50.0369C66.8548 49.8615 66.5487 49.6207 66.3039 49.3147C66.0631 49.0086 65.8815 48.6576 65.7591 48.2618C65.6407 47.8619 65.5816 47.4395 65.5816 46.9947V46.7376C65.5816 46.2928 65.6407 45.8725 65.7591 45.4767C65.8815 45.0768 66.0631 44.7238 66.3039 44.4177C66.5487 44.1117 66.8548 43.8709 67.222 43.6954C67.5934 43.52 68.028 43.4322 68.5258 43.4322C69.0441 43.4322 69.4971 43.5383 69.8847 43.7505C70.2724 43.9586 70.5764 44.2443 70.7968 44.6075C71.0212 44.9666 71.1436 45.3747 71.164 45.8317H70.0867C70.0663 45.5583 69.9888 45.3114 69.8541 45.0911C69.7235 44.8707 69.544 44.6952 69.3155 44.5646C69.091 44.43 68.8278 44.3626 68.5258 44.3626C68.179 44.3626 67.8872 44.432 67.6505 44.5708C67.4179 44.7054 67.2322 44.8891 67.0935 45.1217C66.9588 45.3502 66.8609 45.6052 66.7997 45.8868C66.7425 46.1643 66.714 46.4479 66.714 46.7376V46.9947C66.714 47.2845 66.7425 47.5701 66.7997 47.8517C66.8568 48.1333 66.9527 48.3883 67.0874 48.6168C67.2261 48.8454 67.4118 49.029 67.6444 49.1677C67.8811 49.3024 68.1749 49.3697 68.5258 49.3697ZM76.3425 49.0453V45.6358C76.3425 45.3747 76.2895 45.1482 76.1834 44.9564C76.0814 44.7605 75.9263 44.6095 75.7182 44.5034C75.5101 44.3973 75.253 44.3443 74.9469 44.3443C74.6613 44.3443 74.4103 44.3933 74.194 44.4912C73.9818 44.5891 73.8145 44.7177 73.6921 44.8768C73.5737 45.036 73.5146 45.2074 73.5146 45.391H72.3822C72.3822 45.1543 72.4434 44.9197 72.5658 44.6871C72.6882 44.4545 72.8637 44.2443 73.0922 44.0566C73.3248 43.8648 73.6023 43.7138 73.9247 43.6036C74.2511 43.4894 74.6143 43.4322 75.0142 43.4322C75.4958 43.4322 75.9202 43.5138 76.2874 43.6771C76.6588 43.8403 76.9485 44.0872 77.1566 44.4177C77.3688 44.7442 77.4749 45.1543 77.4749 45.6481V48.7331C77.4749 48.9535 77.4933 49.1881 77.53 49.4371C77.5708 49.686 77.63 49.9002 77.7076 50.0798V50.1777H76.5262C76.469 50.0471 76.4242 49.8737 76.3915 49.6574C76.3589 49.4371 76.3425 49.233 76.3425 49.0453ZM76.5384 46.1623L76.5507 46.958H75.406C75.0836 46.958 74.7959 46.9845 74.5429 47.0376C74.2899 47.0866 74.0777 47.162 73.9063 47.2641C73.7349 47.3661 73.6043 47.4946 73.5146 47.6497C73.4248 47.8007 73.3799 47.9782 73.3799 48.1822C73.3799 48.3904 73.4268 48.5801 73.5207 48.7515C73.6145 48.9229 73.7553 49.0596 73.943 49.1616C74.1348 49.2596 74.3695 49.3085 74.647 49.3085C74.9938 49.3085 75.2999 49.2351 75.5651 49.0882C75.8304 48.9413 76.0406 48.7617 76.1956 48.5495C76.3548 48.3373 76.4405 48.1312 76.4527 47.9313L76.9363 48.4761C76.9077 48.6474 76.8302 48.8372 76.7037 49.0453C76.5772 49.2534 76.4078 49.4534 76.1956 49.6452C75.9875 49.8329 75.7386 49.99 75.4488 50.1165C75.1632 50.2389 74.8408 50.3002 74.4817 50.3002C74.0328 50.3002 73.639 50.2124 73.3003 50.0369C72.9657 49.8615 72.7045 49.6268 72.5168 49.333C72.3332 49.0351 72.2414 48.7025 72.2414 48.3353C72.2414 47.9802 72.3107 47.6681 72.4495 47.3987C72.5882 47.1253 72.7882 46.8988 73.0494 46.7193C73.3105 46.5357 73.6247 46.3969 73.992 46.303C74.3593 46.2092 74.7694 46.1623 75.2224 46.1623H76.5384ZM83.4186 45.7705L82.8432 45.6052L83.2778 41.2653H87.734V41.9509H83.9022L83.59 44.9503C83.745 44.8401 83.9695 44.732 84.2633 44.6259C84.5612 44.5157 84.8958 44.4606 85.2672 44.4606C85.663 44.4606 86.0221 44.5279 86.3445 44.6626C86.671 44.7932 86.9505 44.985 87.1831 45.238C87.4157 45.4869 87.5952 45.7889 87.7217 46.1439C87.8483 46.4948 87.9115 46.8927 87.9115 47.3375C87.9115 47.766 87.8585 48.1598 87.7524 48.5189C87.6463 48.878 87.4851 49.1922 87.2688 49.4616C87.0525 49.7268 86.7771 49.9329 86.4424 50.0798C86.1078 50.2267 85.7099 50.3002 85.2488 50.3002C84.8938 50.3002 84.5592 50.2512 84.2449 50.1532C83.9348 50.0512 83.6573 49.8982 83.4125 49.6942C83.1676 49.4901 82.9677 49.233 82.8126 48.9229C82.6616 48.6128 82.5677 48.2496 82.531 47.8333H83.2349C83.2839 48.2332 83.3921 48.5699 83.5594 48.8433C83.7267 49.1167 83.9511 49.3228 84.2327 49.4616C84.5183 49.6003 84.8571 49.6697 85.2488 49.6697C85.5671 49.6697 85.8446 49.6187 86.0813 49.5167C86.322 49.4146 86.522 49.2657 86.6812 49.0698C86.8444 48.8698 86.9668 48.627 87.0484 48.3414C87.1341 48.0517 87.177 47.7211 87.177 47.3498C87.177 47.0315 87.1321 46.7397 87.0423 46.4744C86.9525 46.2051 86.8199 45.9705 86.6444 45.7705C86.473 45.5665 86.2608 45.4094 86.0078 45.2992C85.7548 45.189 85.4651 45.1339 85.1386 45.1339C84.7142 45.1339 84.3755 45.191 84.1225 45.3053C83.8736 45.4196 83.6389 45.5746 83.4186 45.7705ZM94.9202 49.6697C95.2304 49.6697 95.5201 49.6125 95.7894 49.4983C96.0628 49.3799 96.2873 49.2065 96.4627 48.978C96.6423 48.7454 96.7443 48.4618 96.7688 48.1271H97.4666C97.4462 48.5475 97.3177 48.9229 97.081 49.2534C96.8484 49.5799 96.5423 49.837 96.1628 50.0247C95.7874 50.2083 95.3732 50.3002 94.9202 50.3002C94.4591 50.3002 94.051 50.2165 93.696 50.0492C93.345 49.8819 93.0512 49.6493 92.8145 49.3514C92.5779 49.0494 92.3983 48.6985 92.2759 48.2985C92.1575 47.8945 92.0984 47.4599 92.0984 46.9947V46.7376C92.0984 46.2724 92.1575 45.8399 92.2759 45.44C92.3983 45.036 92.5779 44.685 92.8145 44.3871C93.0512 44.0852 93.345 43.8505 93.696 43.6832C94.0469 43.5159 94.453 43.4322 94.9141 43.4322C95.3875 43.4322 95.8119 43.5281 96.1873 43.7199C96.5668 43.9117 96.8688 44.1831 97.0932 44.534C97.3217 44.885 97.4462 45.3012 97.4666 45.7828H96.7688C96.7484 45.4277 96.6545 45.1217 96.4872 44.8646C96.3199 44.6075 96.0996 44.4096 95.8261 44.2708C95.5527 44.1321 95.2487 44.0627 94.9141 44.0627C94.5387 44.0627 94.2183 44.1362 93.9531 44.2831C93.6878 44.4259 93.4715 44.6238 93.3042 44.8768C93.141 45.1257 93.0206 45.4114 92.9431 45.7338C92.8656 46.0521 92.8268 46.3867 92.8268 46.7376V46.9947C92.8268 47.3498 92.8635 47.6885 92.937 48.0108C93.0145 48.3291 93.1349 48.6128 93.2981 48.8617C93.4654 49.1106 93.6817 49.3085 93.947 49.4554C94.2163 49.5983 94.5407 49.6697 94.9202 49.6697ZM98.5378 46.9703V46.7683C98.5378 46.2867 98.6072 45.8419 98.7459 45.4338C98.8847 45.0258 99.0826 44.6728 99.3397 44.3749C99.6009 44.077 99.913 43.8464 100.276 43.6832C100.639 43.5159 101.043 43.4322 101.488 43.4322C101.937 43.4322 102.343 43.5159 102.706 43.6832C103.07 43.8464 103.382 44.077 103.643 44.3749C103.904 44.6728 104.104 45.0258 104.243 45.4338C104.381 45.8419 104.451 46.2867 104.451 46.7683V46.9703C104.451 47.4518 104.381 47.8966 104.243 48.3047C104.104 48.7087 103.904 49.0596 103.643 49.3575C103.386 49.6554 103.076 49.888 102.712 50.0553C102.349 50.2185 101.945 50.3002 101.5 50.3002C101.052 50.3002 100.646 50.2185 100.282 50.0553C99.9192 49.888 99.607 49.6554 99.3458 49.3575C99.0846 49.0596 98.8847 48.7087 98.7459 48.3047C98.6072 47.8966 98.5378 47.4518 98.5378 46.9703ZM99.2662 46.7683V46.9703C99.2662 47.3334 99.3152 47.6783 99.4131 48.0047C99.5111 48.3271 99.6539 48.6148 99.8416 48.8678C100.029 49.1167 100.262 49.3126 100.539 49.4554C100.817 49.5983 101.137 49.6697 101.5 49.6697C101.86 49.6697 102.176 49.5983 102.449 49.4554C102.727 49.3126 102.959 49.1167 103.147 48.8678C103.335 48.6148 103.476 48.3271 103.569 48.0047C103.667 47.6783 103.716 47.3334 103.716 46.9703V46.7683C103.716 46.4091 103.667 46.0684 103.569 45.746C103.476 45.4236 103.333 45.1359 103.141 44.8829C102.953 44.6299 102.721 44.43 102.443 44.2831C102.166 44.1362 101.847 44.0627 101.488 44.0627C101.129 44.0627 100.811 44.1362 100.533 44.2831C100.26 44.43 100.027 44.6299 99.8355 44.8829C99.6478 45.1359 99.505 45.4236 99.407 45.746C99.3132 46.0684 99.2662 46.4091 99.2662 46.7683ZM106.783 40.7757V50.1777H106.055V40.7757H106.783ZM108.717 49.7309C108.717 49.5881 108.762 49.4677 108.852 49.3697C108.946 49.2677 109.072 49.2167 109.231 49.2167C109.395 49.2167 109.523 49.2657 109.617 49.3636C109.711 49.4616 109.758 49.584 109.758 49.7309C109.758 49.8696 109.711 49.988 109.617 50.0859C109.523 50.1839 109.395 50.2328 109.231 50.2328C109.072 50.2328 108.946 50.1839 108.852 50.0859C108.762 49.988 108.717 49.8696 108.717 49.7309Z" fill="#FDFBF9"/>
<path d="M615.229 377.663V378.624H610.772V377.663H615.229ZM611.005 369.712V378.624H609.824V369.712H611.005ZM619.158 378.746C618.697 378.746 618.279 378.669 617.904 378.514C617.532 378.355 617.212 378.132 616.943 377.847C616.677 377.561 616.473 377.222 616.33 376.831C616.188 376.439 616.116 376.01 616.116 375.545V375.288C616.116 374.749 616.196 374.27 616.355 373.85C616.514 373.425 616.73 373.066 617.004 372.772C617.277 372.478 617.587 372.256 617.934 372.105C618.281 371.954 618.64 371.879 619.012 371.879C619.485 371.879 619.893 371.96 620.236 372.123C620.583 372.287 620.866 372.515 621.087 372.809C621.307 373.099 621.47 373.441 621.576 373.837C621.682 374.229 621.735 374.658 621.735 375.123V375.631H616.79V374.706H620.603V374.621C620.587 374.327 620.525 374.041 620.419 373.764C620.317 373.486 620.154 373.258 619.93 373.078C619.705 372.899 619.399 372.809 619.012 372.809C618.754 372.809 618.518 372.864 618.301 372.974C618.085 373.08 617.899 373.239 617.744 373.452C617.589 373.664 617.469 373.923 617.383 374.229C617.298 374.535 617.255 374.888 617.255 375.288V375.545C617.255 375.859 617.298 376.155 617.383 376.433C617.473 376.706 617.602 376.947 617.769 377.155C617.94 377.363 618.146 377.526 618.387 377.645C618.632 377.763 618.909 377.822 619.22 377.822C619.62 377.822 619.958 377.741 620.236 377.577C620.513 377.414 620.756 377.196 620.964 376.922L621.65 377.467C621.507 377.683 621.325 377.889 621.105 378.085C620.885 378.281 620.613 378.44 620.291 378.563C619.973 378.685 619.595 378.746 619.158 378.746ZM627.349 372.001H628.377V378.483C628.377 379.067 628.259 379.565 628.022 379.977C627.785 380.389 627.455 380.701 627.03 380.913C626.61 381.13 626.124 381.238 625.573 381.238C625.345 381.238 625.076 381.201 624.765 381.128C624.459 381.058 624.157 380.938 623.859 380.766C623.566 380.599 623.319 380.373 623.119 380.087L623.713 379.414C623.99 379.748 624.28 379.981 624.582 380.111C624.888 380.242 625.19 380.307 625.488 380.307C625.847 380.307 626.157 380.24 626.418 380.105C626.679 379.971 626.881 379.771 627.024 379.505C627.171 379.244 627.244 378.922 627.244 378.538V373.458L627.349 372.001ZM622.788 375.386V375.257C622.788 374.751 622.847 374.292 622.966 373.88C623.088 373.464 623.262 373.107 623.486 372.809C623.715 372.511 623.99 372.283 624.312 372.123C624.635 371.96 624.998 371.879 625.402 371.879C625.818 371.879 626.181 371.952 626.492 372.099C626.806 372.242 627.071 372.452 627.287 372.729C627.508 373.003 627.681 373.333 627.808 373.721C627.934 374.109 628.022 374.547 628.071 375.037V375.6C628.026 376.086 627.938 376.522 627.808 376.91C627.681 377.298 627.508 377.628 627.287 377.902C627.071 378.175 626.806 378.385 626.492 378.532C626.177 378.675 625.81 378.746 625.39 378.746C624.994 378.746 624.635 378.663 624.312 378.495C623.994 378.328 623.721 378.094 623.492 377.792C623.264 377.49 623.088 377.135 622.966 376.726C622.847 376.314 622.788 375.867 622.788 375.386ZM623.921 375.257V375.386C623.921 375.716 623.953 376.027 624.019 376.316C624.088 376.606 624.192 376.861 624.331 377.081C624.474 377.302 624.655 377.475 624.876 377.602C625.096 377.724 625.359 377.785 625.665 377.785C626.041 377.785 626.351 377.706 626.596 377.547C626.84 377.388 627.034 377.177 627.177 376.916C627.324 376.655 627.438 376.371 627.52 376.065V374.59C627.475 374.366 627.406 374.149 627.312 373.941C627.222 373.729 627.104 373.541 626.957 373.378C626.814 373.211 626.636 373.078 626.424 372.98C626.212 372.882 625.963 372.833 625.677 372.833C625.367 372.833 625.1 372.899 624.876 373.029C624.655 373.156 624.474 373.331 624.331 373.556C624.192 373.776 624.088 374.033 624.019 374.327C623.953 374.617 623.921 374.927 623.921 375.257ZM632.845 378.746C632.384 378.746 631.966 378.669 631.59 378.514C631.219 378.355 630.899 378.132 630.629 377.847C630.364 377.561 630.16 377.222 630.017 376.831C629.875 376.439 629.803 376.01 629.803 375.545V375.288C629.803 374.749 629.883 374.27 630.042 373.85C630.201 373.425 630.417 373.066 630.691 372.772C630.964 372.478 631.274 372.256 631.621 372.105C631.968 371.954 632.327 371.879 632.698 371.879C633.172 371.879 633.58 371.96 633.923 372.123C634.269 372.287 634.553 372.515 634.773 372.809C634.994 373.099 635.157 373.441 635.263 373.837C635.369 374.229 635.422 374.658 635.422 375.123V375.631H630.476V374.706H634.29V374.621C634.274 374.327 634.212 374.041 634.106 373.764C634.004 373.486 633.841 373.258 633.617 373.078C633.392 372.899 633.086 372.809 632.698 372.809C632.441 372.809 632.205 372.864 631.988 372.974C631.772 373.08 631.586 373.239 631.431 373.452C631.276 373.664 631.156 373.923 631.07 374.229C630.984 374.535 630.942 374.888 630.942 375.288V375.545C630.942 375.859 630.984 376.155 631.07 376.433C631.16 376.706 631.288 376.947 631.456 377.155C631.627 377.363 631.833 377.526 632.074 377.645C632.319 377.763 632.596 377.822 632.907 377.822C633.306 377.822 633.645 377.741 633.923 377.577C634.2 377.414 634.443 377.196 634.651 376.922L635.337 377.467C635.194 377.683 635.012 377.889 634.792 378.085C634.571 378.281 634.3 378.44 633.978 378.563C633.659 378.685 633.282 378.746 632.845 378.746ZM637.877 373.415V378.624H636.744V372.001H637.816L637.877 373.415ZM637.608 375.062L637.136 375.043C637.14 374.59 637.208 374.172 637.338 373.788C637.469 373.401 637.652 373.064 637.889 372.778C638.126 372.493 638.407 372.272 638.734 372.117C639.064 371.958 639.43 371.879 639.83 371.879C640.156 371.879 640.45 371.923 640.711 372.013C640.972 372.099 641.195 372.238 641.378 372.429C641.566 372.621 641.709 372.87 641.807 373.176C641.905 373.478 641.954 373.847 641.954 374.284V378.624H640.815V374.272C640.815 373.925 640.764 373.648 640.662 373.439C640.56 373.227 640.411 373.074 640.215 372.98C640.019 372.882 639.779 372.833 639.493 372.833C639.211 372.833 638.954 372.893 638.722 373.011C638.493 373.129 638.295 373.293 638.128 373.501C637.965 373.709 637.836 373.947 637.742 374.217C637.652 374.482 637.608 374.764 637.608 375.062ZM647.848 377.339V369.222H648.987V378.624H647.946L647.848 377.339ZM643.392 375.386V375.257C643.392 374.751 643.453 374.292 643.576 373.88C643.702 373.464 643.88 373.107 644.108 372.809C644.341 372.511 644.616 372.283 644.935 372.123C645.257 371.96 645.616 371.879 646.012 371.879C646.428 371.879 646.791 371.952 647.101 372.099C647.416 372.242 647.681 372.452 647.897 372.729C648.118 373.003 648.291 373.333 648.417 373.721C648.544 374.109 648.632 374.547 648.681 375.037V375.6C648.636 376.086 648.548 376.522 648.417 376.91C648.291 377.298 648.118 377.628 647.897 377.902C647.681 378.175 647.416 378.385 647.101 378.532C646.787 378.675 646.42 378.746 646 378.746C645.612 378.746 645.257 378.663 644.935 378.495C644.616 378.328 644.341 378.094 644.108 377.792C643.88 377.49 643.702 377.135 643.576 376.726C643.453 376.314 643.392 375.867 643.392 375.386ZM644.531 375.257V375.386C644.531 375.716 644.563 376.027 644.629 376.316C644.698 376.606 644.804 376.861 644.947 377.081C645.09 377.302 645.271 377.475 645.492 377.602C645.712 377.724 645.975 377.785 646.281 377.785C646.657 377.785 646.965 377.706 647.206 377.547C647.45 377.388 647.646 377.177 647.793 376.916C647.94 376.655 648.054 376.371 648.136 376.065V374.59C648.087 374.366 648.016 374.149 647.922 373.941C647.832 373.729 647.714 373.541 647.567 373.378C647.424 373.211 647.246 373.078 647.034 372.98C646.826 372.882 646.579 372.833 646.293 372.833C645.983 372.833 645.716 372.899 645.492 373.029C645.271 373.156 645.09 373.331 644.947 373.556C644.804 373.776 644.698 374.033 644.629 374.327C644.563 374.617 644.531 374.927 644.531 375.257ZM654.655 377.492V374.082C654.655 373.821 654.602 373.594 654.496 373.403C654.394 373.207 654.239 373.056 654.031 372.95C653.822 372.844 653.565 372.791 653.259 372.791C652.974 372.791 652.723 372.84 652.506 372.937C652.294 373.035 652.127 373.164 652.004 373.323C651.886 373.482 651.827 373.654 651.827 373.837H650.695C650.695 373.601 650.756 373.366 650.878 373.133C651.001 372.901 651.176 372.691 651.405 372.503C651.637 372.311 651.915 372.16 652.237 372.05C652.564 371.936 652.927 371.879 653.327 371.879C653.808 371.879 654.233 371.96 654.6 372.123C654.971 372.287 655.261 372.533 655.469 372.864C655.681 373.19 655.787 373.601 655.787 374.094V377.179C655.787 377.4 655.806 377.634 655.842 377.883C655.883 378.132 655.942 378.347 656.02 378.526V378.624H654.839C654.781 378.493 654.737 378.32 654.704 378.104C654.671 377.883 654.655 377.679 654.655 377.492ZM654.851 374.609L654.863 375.404H653.718C653.396 375.404 653.108 375.431 652.855 375.484C652.602 375.533 652.39 375.608 652.219 375.71C652.047 375.812 651.917 375.941 651.827 376.096C651.737 376.247 651.692 376.424 651.692 376.629C651.692 376.837 651.739 377.026 651.833 377.198C651.927 377.369 652.068 377.506 652.255 377.608C652.447 377.706 652.682 377.755 652.959 377.755C653.306 377.755 653.612 377.681 653.878 377.534C654.143 377.388 654.353 377.208 654.508 376.996C654.667 376.784 654.753 376.578 654.765 376.378L655.249 376.922C655.22 377.094 655.143 377.283 655.016 377.492C654.89 377.7 654.72 377.9 654.508 378.091C654.3 378.279 654.051 378.436 653.761 378.563C653.476 378.685 653.153 378.746 652.794 378.746C652.345 378.746 651.951 378.659 651.613 378.483C651.278 378.308 651.017 378.073 650.829 377.779C650.646 377.481 650.554 377.149 650.554 376.782C650.554 376.427 650.623 376.114 650.762 375.845C650.901 375.572 651.101 375.345 651.362 375.166C651.623 374.982 651.937 374.843 652.304 374.749C652.672 374.655 653.082 374.609 653.535 374.609H654.851ZM661.731 374.217L661.156 374.052L661.59 369.712H666.046V370.397H662.215L661.902 373.397C662.057 373.286 662.282 373.178 662.576 373.072C662.874 372.962 663.208 372.907 663.58 372.907C663.975 372.907 664.335 372.974 664.657 373.109C664.983 373.239 665.263 373.431 665.496 373.684C665.728 373.933 665.908 374.235 666.034 374.59C666.161 374.941 666.224 375.339 666.224 375.784C666.224 376.212 666.171 376.606 666.065 376.965C665.959 377.324 665.797 377.639 665.581 377.908C665.365 378.173 665.089 378.379 664.755 378.526C664.42 378.673 664.022 378.746 663.561 378.746C663.206 378.746 662.872 378.697 662.557 378.6C662.247 378.498 661.97 378.344 661.725 378.14C661.48 377.936 661.28 377.679 661.125 377.369C660.974 377.059 660.88 376.696 660.843 376.28H661.547C661.596 376.68 661.704 377.016 661.872 377.29C662.039 377.563 662.264 377.769 662.545 377.908C662.831 378.047 663.169 378.116 663.561 378.116C663.88 378.116 664.157 378.065 664.394 377.963C664.634 377.861 664.834 377.712 664.994 377.516C665.157 377.316 665.279 377.073 665.361 376.788C665.447 376.498 665.489 376.167 665.489 375.796C665.489 375.478 665.444 375.186 665.355 374.921C665.265 374.651 665.132 374.417 664.957 374.217C664.785 374.013 664.573 373.856 664.32 373.745C664.067 373.635 663.778 373.58 663.451 373.58C663.027 373.58 662.688 373.637 662.435 373.752C662.186 373.866 661.951 374.021 661.731 374.217ZM673.233 378.116C673.543 378.116 673.832 378.059 674.102 377.945C674.375 377.826 674.6 377.653 674.775 377.424C674.955 377.192 675.057 376.908 675.081 376.573H675.779C675.759 376.994 675.63 377.369 675.393 377.7C675.161 378.026 674.855 378.283 674.475 378.471C674.1 378.655 673.686 378.746 673.233 378.746C672.772 378.746 672.363 378.663 672.008 378.495C671.657 378.328 671.364 378.096 671.127 377.798C670.89 377.496 670.711 377.145 670.588 376.745C670.47 376.341 670.411 375.906 670.411 375.441V375.184C670.411 374.719 670.47 374.286 670.588 373.886C670.711 373.482 670.89 373.131 671.127 372.833C671.364 372.531 671.657 372.297 672.008 372.129C672.359 371.962 672.765 371.879 673.227 371.879C673.7 371.879 674.124 371.974 674.5 372.166C674.879 372.358 675.181 372.629 675.406 372.98C675.634 373.331 675.759 373.748 675.779 374.229H675.081C675.061 373.874 674.967 373.568 674.8 373.311C674.632 373.054 674.412 372.856 674.139 372.717C673.865 372.578 673.561 372.509 673.227 372.509C672.851 372.509 672.531 372.582 672.265 372.729C672 372.872 671.784 373.07 671.617 373.323C671.453 373.572 671.333 373.858 671.255 374.18C671.178 374.498 671.139 374.833 671.139 375.184V375.441C671.139 375.796 671.176 376.135 671.249 376.457C671.327 376.775 671.447 377.059 671.611 377.308C671.778 377.557 671.994 377.755 672.259 377.902C672.529 378.045 672.853 378.116 673.233 378.116ZM676.85 375.417V375.215C676.85 374.733 676.92 374.288 677.058 373.88C677.197 373.472 677.395 373.119 677.652 372.821C677.913 372.523 678.225 372.293 678.589 372.129C678.952 371.962 679.356 371.879 679.801 371.879C680.249 371.879 680.656 371.962 681.019 372.129C681.382 372.293 681.694 372.523 681.955 372.821C682.216 373.119 682.416 373.472 682.555 373.88C682.694 374.288 682.763 374.733 682.763 375.215V375.417C682.763 375.898 682.694 376.343 682.555 376.751C682.416 377.155 682.216 377.506 681.955 377.804C681.698 378.102 681.388 378.334 681.025 378.502C680.662 378.665 680.258 378.746 679.813 378.746C679.364 378.746 678.958 378.665 678.595 378.502C678.232 378.334 677.919 378.102 677.658 377.804C677.397 377.506 677.197 377.155 677.058 376.751C676.92 376.343 676.85 375.898 676.85 375.417ZM677.579 375.215V375.417C677.579 375.78 677.628 376.125 677.726 376.451C677.823 376.773 677.966 377.061 678.154 377.314C678.342 377.563 678.574 377.759 678.852 377.902C679.129 378.045 679.45 378.116 679.813 378.116C680.172 378.116 680.488 378.045 680.762 377.902C681.039 377.759 681.272 377.563 681.459 377.314C681.647 377.061 681.788 376.773 681.882 376.451C681.98 376.125 682.029 375.78 682.029 375.417V375.215C682.029 374.855 681.98 374.515 681.882 374.192C681.788 373.87 681.645 373.582 681.453 373.329C681.266 373.076 681.033 372.876 680.756 372.729C680.478 372.582 680.16 372.509 679.801 372.509C679.442 372.509 679.123 372.582 678.846 372.729C678.572 372.876 678.34 373.076 678.148 373.329C677.96 373.582 677.817 373.87 677.719 374.192C677.626 374.515 677.579 374.855 677.579 375.215ZM685.095 369.222V378.624H684.367V369.222H685.095ZM687.03 378.177C687.03 378.034 687.075 377.914 687.164 377.816C687.258 377.714 687.385 377.663 687.544 377.663C687.707 377.663 687.836 377.712 687.929 377.81C688.023 377.908 688.07 378.03 688.07 378.177C688.07 378.316 688.023 378.434 687.929 378.532C687.836 378.63 687.707 378.679 687.544 378.679C687.385 378.679 687.258 378.63 687.164 378.532C687.075 378.434 687.03 378.316 687.03 378.177Z" fill="#FDFBF9"/>
</svg>
