<svg width="1051" height="591" viewBox="0 0 1051 591" fill="none" xmlns="http://www.w3.org/2000/svg">
<path d="M0.519531 11.8788C0.519531 5.71691 5.51475 0.72168 11.6767 0.72168H1038.81C1044.97 0.72168 1049.96 5.7169 1049.96 11.8788V579.619C1049.96 585.781 1044.97 590.776 1038.81 590.776H11.6767C5.51478 590.776 0.519531 585.781 0.519531 579.619V11.8788Z" fill="#0567FF" fill-opacity="0.25"/>
<path d="M12.6348 10.751H45.2287V579.89H12.6348V10.751Z" fill="#FDFBF9" fill-opacity="0.1"/>
<path d="M55.2578 10.751H87.8517V579.89H55.2578V10.751Z" fill="#FDFBF9" fill-opacity="0.1"/>
<path d="M100.387 10.751H132.981V579.89H100.387V10.751Z" fill="#FDFBF9" fill-opacity="0.1"/>
<path d="M143.01 10.751H175.604V579.89H143.01V10.751Z" fill="#FDFBF9" fill-opacity="0.1"/>
<path d="M185.633 10.751H218.227V579.89H185.633V10.751Z" fill="#FDFBF9" fill-opacity="0.1"/>
<path d="M228.256 10.751H260.85V579.89H228.256V10.751Z" fill="#FDFBF9" fill-opacity="0.1"/>
<path d="M273.385 10.751H305.979V579.89H273.385V10.751Z" fill="#FDFBF9" fill-opacity="0.1"/>
<path d="M316.008 10.751H348.602V579.89H316.008V10.751Z" fill="#FDFBF9" fill-opacity="0.1"/>
<path d="M358.631 10.751H391.225V579.89H358.631V10.751Z" fill="#FDFBF9" fill-opacity="0.1"/>
<path d="M401.254 10.751H433.848V579.89H401.254V10.751Z" fill="#FDFBF9" fill-opacity="0.1"/>
<path d="M446.385 10.751H478.979V579.89H446.385V10.751Z" fill="#FDFBF9" fill-opacity="0.1"/>
<path d="M489.006 10.751H521.6V579.89H489.006V10.751Z" fill="#FDFBF9" fill-opacity="0.1"/>
<path d="M531.629 10.751H564.223V579.89H531.629V10.751Z" fill="#FDFBF9" fill-opacity="0.1"/>
<path d="M574.252 10.751H606.846V579.89H574.252V10.751Z" fill="#FDFBF9" fill-opacity="0.1"/>
<path d="M619.383 10.751H651.977V579.89H619.383V10.751Z" fill="#FDFBF9" fill-opacity="0.1"/>
<path d="M662.006 10.751H694.6V579.89H662.006V10.751Z" fill="#FDFBF9" fill-opacity="0.1"/>
<path d="M704.627 10.751H737.221V579.89H704.627V10.751Z" fill="#FDFBF9" fill-opacity="0.1"/>
<path d="M747.25 10.751H779.844V579.89H747.25V10.751Z" fill="#FDFBF9" fill-opacity="0.1"/>
<path d="M792.381 10.751H824.975V579.89H792.381V10.751Z" fill="#FDFBF9" fill-opacity="0.1"/>
<path d="M835.004 10.751H867.598V579.89H835.004V10.751Z" fill="#FDFBF9" fill-opacity="0.1"/>
<path d="M877.627 10.751H910.221V579.89H877.627V10.751Z" fill="#FDFBF9" fill-opacity="0.1"/>
<path d="M920.248 10.751H955.349V579.89H920.248V10.751Z" fill="#FDFBF9" fill-opacity="0.1"/>
<path d="M965.379 10.751H995.466V579.89H965.379V10.751Z" fill="#FDFBF9" fill-opacity="0.1"/>
<path d="M1005.49 10.751H1038.09V579.89H1005.49V10.751Z" fill="#FDFBF9" fill-opacity="0.1"/>
<rect x="12.6348" y="33.3154" width="205.592" height="25.0722" rx="11.1631" fill="#0567FF" fill-opacity="0.5"/>
<rect x="12.6348" y="65.9092" width="205.592" height="155.448" rx="11.1631" fill="#0567FF" fill-opacity="0.5"/>
<rect x="574.252" y="534.76" width="205.592" height="45.13" rx="11.1631" fill="#0567FF" fill-opacity="0.5"/>
<rect x="792.381" y="33.3154" width="245.708" height="546.574" rx="11.1631" fill="#0567FF" fill-opacity="0.5"/>
<path d="M1050.62 25.7129L0.0994873 25.7128L0.0994885 11.887C0.0994891 5.72048 5.0984 0.721558 11.2649 0.721558L1039.46 0.721648C1045.63 0.721649 1050.63 5.72056 1050.63 11.887L1050.62 25.7129Z" fill="#0567FF"/>
<path d="M413.071 278.112H415.818L422.826 295.55L429.819 278.112H432.58L423.883 299.502H421.739L413.071 278.112ZM412.175 278.112H414.599L414.996 291.158V299.502H412.175V278.112ZM431.038 278.112H433.462V299.502H430.641V291.158L431.038 278.112ZM447.403 296.784V288.601C447.403 287.975 447.276 287.431 447.021 286.971C446.777 286.501 446.404 286.138 445.905 285.884C445.405 285.629 444.788 285.502 444.054 285.502C443.368 285.502 442.766 285.619 442.247 285.854C441.738 286.089 441.336 286.398 441.042 286.78C440.758 287.162 440.616 287.573 440.616 288.014H437.898C437.898 287.446 438.045 286.883 438.339 286.324C438.633 285.766 439.054 285.262 439.603 284.811C440.161 284.351 440.827 283.989 441.601 283.724C442.384 283.45 443.256 283.313 444.215 283.313C445.371 283.313 446.39 283.509 447.271 283.9C448.162 284.292 448.858 284.885 449.357 285.678C449.867 286.461 450.121 287.446 450.121 288.631V296.035C450.121 296.564 450.165 297.127 450.253 297.724C450.351 298.322 450.493 298.836 450.679 299.267V299.502H447.844C447.707 299.189 447.599 298.772 447.521 298.253C447.443 297.724 447.403 297.235 447.403 296.784ZM447.873 289.865L447.903 291.775H445.156C444.382 291.775 443.692 291.838 443.084 291.966C442.477 292.083 441.968 292.264 441.556 292.509C441.145 292.754 440.832 293.063 440.616 293.435C440.401 293.797 440.293 294.223 440.293 294.713C440.293 295.212 440.406 295.668 440.631 296.079C440.856 296.49 441.194 296.818 441.645 297.063C442.105 297.298 442.668 297.416 443.334 297.416C444.167 297.416 444.901 297.24 445.538 296.887C446.174 296.534 446.679 296.103 447.051 295.594C447.433 295.085 447.638 294.59 447.668 294.11L448.828 295.418C448.76 295.829 448.574 296.285 448.27 296.784C447.967 297.284 447.56 297.764 447.051 298.224C446.551 298.674 445.954 299.051 445.259 299.355C444.573 299.649 443.799 299.796 442.937 299.796C441.86 299.796 440.915 299.585 440.102 299.164C439.299 298.743 438.672 298.18 438.222 297.475C437.781 296.76 437.561 295.961 437.561 295.08C437.561 294.228 437.727 293.479 438.06 292.832C438.393 292.176 438.873 291.633 439.5 291.202C440.127 290.761 440.881 290.428 441.762 290.203C442.644 289.977 443.628 289.865 444.715 289.865H447.873ZM457.114 286.662V305.613H454.381V283.607H456.879L457.114 286.662ZM467.824 291.422V291.731C467.824 292.886 467.686 293.959 467.412 294.948C467.138 295.927 466.736 296.779 466.208 297.504C465.688 298.229 465.047 298.792 464.283 299.193C463.519 299.595 462.643 299.796 461.653 299.796C460.645 299.796 459.753 299.629 458.98 299.296C458.206 298.963 457.55 298.478 457.011 297.842C456.472 297.205 456.042 296.441 455.718 295.55C455.405 294.659 455.189 293.655 455.072 292.539V290.893C455.189 289.718 455.41 288.665 455.733 287.735C456.056 286.804 456.482 286.011 457.011 285.355C457.55 284.689 458.201 284.184 458.965 283.842C459.729 283.489 460.61 283.313 461.609 283.313C462.608 283.313 463.495 283.509 464.268 283.9C465.042 284.282 465.693 284.831 466.222 285.546C466.751 286.261 467.148 287.118 467.412 288.117C467.686 289.106 467.824 290.208 467.824 291.422ZM465.091 291.731V291.422C465.091 290.629 465.008 289.884 464.841 289.189C464.675 288.484 464.415 287.867 464.063 287.338C463.72 286.799 463.279 286.378 462.741 286.075C462.202 285.761 461.56 285.605 460.816 285.605C460.13 285.605 459.533 285.722 459.024 285.957C458.524 286.192 458.098 286.51 457.746 286.912C457.393 287.304 457.104 287.754 456.879 288.264C456.663 288.763 456.502 289.282 456.394 289.821V293.626C456.59 294.311 456.864 294.958 457.217 295.565C457.569 296.162 458.039 296.647 458.627 297.019C459.215 297.382 459.954 297.563 460.845 297.563C461.58 297.563 462.212 297.411 462.741 297.107C463.279 296.794 463.72 296.368 464.063 295.829C464.415 295.291 464.675 294.674 464.841 293.978C465.008 293.273 465.091 292.524 465.091 291.731ZM480.663 296.784V288.601C480.663 287.975 480.536 287.431 480.281 286.971C480.036 286.501 479.664 286.138 479.165 285.884C478.665 285.629 478.048 285.502 477.314 285.502C476.628 285.502 476.026 285.619 475.507 285.854C474.997 286.089 474.596 286.398 474.302 286.78C474.018 287.162 473.876 287.573 473.876 288.014H471.158C471.158 287.446 471.305 286.883 471.599 286.324C471.893 285.766 472.314 285.262 472.862 284.811C473.421 284.351 474.087 283.989 474.86 283.724C475.644 283.45 476.516 283.313 477.475 283.313C478.631 283.313 479.65 283.509 480.531 283.9C481.422 284.292 482.118 284.885 482.617 285.678C483.126 286.461 483.381 287.446 483.381 288.631V296.035C483.381 296.564 483.425 297.127 483.513 297.724C483.611 298.322 483.753 298.836 483.939 299.267V299.502H481.104C480.967 299.189 480.859 298.772 480.781 298.253C480.702 297.724 480.663 297.235 480.663 296.784ZM481.133 289.865L481.163 291.775H478.416C477.642 291.775 476.951 291.838 476.344 291.966C475.737 292.083 475.228 292.264 474.816 292.509C474.405 292.754 474.092 293.063 473.876 293.435C473.661 293.797 473.553 294.223 473.553 294.713C473.553 295.212 473.666 295.668 473.891 296.079C474.116 296.49 474.454 296.818 474.904 297.063C475.365 297.298 475.928 297.416 476.594 297.416C477.426 297.416 478.161 297.24 478.798 296.887C479.434 296.534 479.938 296.103 480.311 295.594C480.693 295.085 480.898 294.59 480.928 294.11L482.088 295.418C482.02 295.829 481.834 296.285 481.53 296.784C481.226 297.284 480.82 297.764 480.311 298.224C479.811 298.674 479.214 299.051 478.518 299.355C477.833 299.649 477.059 299.796 476.197 299.796C475.12 299.796 474.175 299.585 473.362 299.164C472.559 298.743 471.932 298.18 471.482 297.475C471.041 296.76 470.82 295.961 470.82 295.08C470.82 294.228 470.987 293.479 471.32 292.832C471.653 292.176 472.133 291.633 472.76 291.202C473.386 290.761 474.141 290.428 475.022 290.203C475.903 289.977 476.888 289.865 477.975 289.865H481.133ZM419.861 310.604V328.502H418.404V312.452L413.556 314.252V312.869L419.616 310.604H419.861ZM437.918 323.776C437.918 324.854 437.665 325.764 437.159 326.506C436.661 327.249 435.984 327.808 435.127 328.184C434.27 328.559 433.311 328.747 432.25 328.747C431.181 328.747 430.218 328.559 429.361 328.184C428.504 327.808 427.822 327.249 427.316 326.506C426.818 325.764 426.569 324.854 426.569 323.776C426.569 323.066 426.708 322.422 426.986 321.842C427.271 321.255 427.667 320.748 428.173 320.324C428.687 319.892 429.287 319.557 429.973 319.32C430.658 319.084 431.409 318.965 432.225 318.965C433.303 318.965 434.27 319.173 435.127 319.59C435.984 319.998 436.661 320.561 437.159 321.279C437.665 321.997 437.918 322.83 437.918 323.776ZM436.449 323.776C436.449 323.017 436.265 322.352 435.898 321.781C435.531 321.21 435.029 320.769 434.392 320.459C433.756 320.14 433.033 319.981 432.225 319.981C431.409 319.981 430.687 320.14 430.058 320.459C429.43 320.769 428.936 321.21 428.577 321.781C428.218 322.352 428.039 323.017 428.039 323.776C428.039 324.568 428.214 325.241 428.565 325.796C428.924 326.351 429.422 326.772 430.058 327.057C430.695 327.343 431.426 327.486 432.25 327.486C433.074 327.486 433.801 327.343 434.429 327.057C435.057 326.772 435.551 326.351 435.91 325.796C436.269 325.241 436.449 324.568 436.449 323.776ZM437.453 315.256C437.453 316.129 437.22 316.908 436.755 317.594C436.298 318.271 435.678 318.806 434.894 319.198C434.111 319.581 433.225 319.773 432.238 319.773C431.242 319.773 430.348 319.581 429.557 319.198C428.773 318.806 428.153 318.271 427.696 317.594C427.247 316.908 427.022 316.129 427.022 315.256C427.022 314.219 427.247 313.346 427.696 312.636C428.153 311.918 428.773 311.371 429.557 310.995C430.34 310.62 431.23 310.432 432.225 310.432C433.213 310.432 434.098 310.62 434.882 310.995C435.674 311.371 436.298 311.918 436.755 312.636C437.22 313.346 437.453 314.219 437.453 315.256ZM435.996 315.244C435.996 314.55 435.829 313.938 435.494 313.407C435.168 312.877 434.719 312.46 434.147 312.158C433.584 311.848 432.944 311.693 432.225 311.693C431.499 311.693 430.854 311.836 430.291 312.122C429.736 312.407 429.295 312.815 428.969 313.346C428.651 313.876 428.491 314.509 428.491 315.244C428.491 315.962 428.651 316.582 428.969 317.104C429.295 317.619 429.74 318.018 430.303 318.304C430.866 318.59 431.511 318.733 432.238 318.733C432.964 318.733 433.609 318.59 434.172 318.304C434.735 318.018 435.18 317.619 435.506 317.104C435.833 316.582 435.996 315.962 435.996 315.244ZM452.107 327.486C452.727 327.486 453.307 327.372 453.845 327.143C454.392 326.906 454.841 326.56 455.192 326.102C455.551 325.637 455.755 325.07 455.804 324.401H457.2C457.159 325.241 456.902 325.992 456.428 326.653C455.963 327.306 455.351 327.82 454.592 328.196C453.841 328.563 453.013 328.747 452.107 328.747C451.185 328.747 450.368 328.579 449.658 328.245C448.957 327.91 448.369 327.445 447.896 326.849C447.422 326.245 447.063 325.543 446.818 324.744C446.582 323.936 446.463 323.066 446.463 322.136V321.622C446.463 320.691 446.582 319.826 446.818 319.026C447.063 318.218 447.422 317.517 447.896 316.921C448.369 316.317 448.957 315.848 449.658 315.513C450.36 315.178 451.172 315.011 452.095 315.011C453.041 315.011 453.89 315.203 454.641 315.586C455.4 315.97 456.004 316.513 456.453 317.215C456.91 317.916 457.159 318.749 457.2 319.712H455.804C455.763 319.002 455.576 318.39 455.241 317.876C454.906 317.361 454.466 316.966 453.919 316.688C453.372 316.411 452.764 316.272 452.095 316.272C451.344 316.272 450.703 316.419 450.173 316.713C449.642 316.998 449.21 317.394 448.875 317.9C448.548 318.398 448.308 318.969 448.153 319.614C447.998 320.251 447.92 320.92 447.92 321.622V322.136C447.92 322.846 447.993 323.523 448.14 324.168C448.295 324.805 448.536 325.372 448.863 325.87C449.197 326.368 449.63 326.764 450.16 327.057C450.699 327.343 451.348 327.486 452.107 327.486ZM459.342 322.087V321.683C459.342 320.72 459.481 319.83 459.758 319.014C460.036 318.198 460.432 317.492 460.946 316.896C461.468 316.3 462.092 315.839 462.819 315.513C463.545 315.178 464.353 315.011 465.243 315.011C466.141 315.011 466.953 315.178 467.679 315.513C468.405 315.839 469.03 316.3 469.552 316.896C470.074 317.492 470.474 318.198 470.752 319.014C471.029 319.83 471.168 320.72 471.168 321.683V322.087C471.168 323.05 471.029 323.94 470.752 324.756C470.474 325.564 470.074 326.266 469.552 326.861C469.038 327.457 468.418 327.922 467.691 328.257C466.965 328.584 466.157 328.747 465.267 328.747C464.37 328.747 463.557 328.584 462.831 328.257C462.105 327.922 461.48 327.457 460.958 326.861C460.436 326.266 460.036 325.564 459.758 324.756C459.481 323.94 459.342 323.05 459.342 322.087ZM460.799 321.683V322.087C460.799 322.813 460.897 323.503 461.093 324.156C461.289 324.801 461.574 325.376 461.95 325.882C462.325 326.38 462.79 326.772 463.345 327.057C463.9 327.343 464.541 327.486 465.267 327.486C465.986 327.486 466.618 327.343 467.165 327.057C467.72 326.772 468.185 326.38 468.561 325.882C468.936 325.376 469.218 324.801 469.405 324.156C469.601 323.503 469.699 322.813 469.699 322.087V321.683C469.699 320.965 469.601 320.283 469.405 319.639C469.218 318.994 468.932 318.418 468.548 317.912C468.173 317.406 467.708 317.006 467.153 316.713C466.598 316.419 465.961 316.272 465.243 316.272C464.525 316.272 463.888 316.419 463.333 316.713C462.786 317.006 462.321 317.406 461.937 317.912C461.562 318.418 461.276 318.994 461.08 319.639C460.893 320.283 460.799 320.965 460.799 321.683ZM475.832 309.698V328.502H474.376V309.698H475.832ZM479.701 327.608C479.701 327.323 479.791 327.082 479.97 326.886C480.158 326.682 480.411 326.58 480.729 326.58C481.056 326.58 481.313 326.678 481.501 326.874C481.688 327.07 481.782 327.314 481.782 327.608C481.782 327.886 481.688 328.122 481.501 328.318C481.313 328.514 481.056 328.612 480.729 328.612C480.411 328.612 480.158 328.514 479.97 328.318C479.791 328.122 479.701 327.886 479.701 327.608Z" fill="#606060"/>
<path d="M81.9072 138.042H83.7876C83.6896 138.943 83.4317 139.749 83.0139 140.461C82.596 141.172 82.0051 141.737 81.2412 142.155C80.4773 142.566 79.524 142.772 78.3814 142.772C77.5456 142.772 76.785 142.615 76.0994 142.302C75.4204 141.989 74.836 141.545 74.3463 140.97C73.8566 140.389 73.4779 139.694 73.2102 138.884C72.9491 138.068 72.8185 137.16 72.8185 136.161V134.741C72.8185 133.742 72.9491 132.838 73.2102 132.028C73.4779 131.212 73.8599 130.513 74.3561 129.932C74.8589 129.351 75.4628 128.904 76.168 128.591C76.8731 128.277 77.6664 128.12 78.5479 128.12C79.6252 128.12 80.536 128.323 81.2804 128.728C82.0247 129.133 82.6025 129.694 83.0139 130.412C83.4317 131.124 83.6896 131.95 83.7876 132.89H81.9072C81.8157 132.224 81.646 131.653 81.3979 131.176C81.1498 130.693 80.7972 130.321 80.3401 130.06C79.8831 129.798 79.2857 129.668 78.5479 129.668C77.9145 129.668 77.3563 129.789 76.8731 130.03C76.3965 130.272 75.9949 130.615 75.6685 131.059C75.3486 131.503 75.107 132.035 74.9437 132.655C74.7805 133.275 74.6989 133.964 74.6989 134.722V136.161C74.6989 136.86 74.7707 137.516 74.9144 138.13C75.0645 138.744 75.2898 139.282 75.5901 139.746C75.8905 140.209 76.2724 140.575 76.736 140.843C77.1996 141.104 77.748 141.234 78.3814 141.234C79.1845 141.234 79.8243 141.107 80.301 140.852C80.7776 140.598 81.1367 140.232 81.3783 139.756C81.6264 139.279 81.8027 138.708 81.9072 138.042ZM92.3376 140.764V135.309C92.3376 134.891 92.2527 134.529 92.083 134.222C91.9197 133.909 91.6716 133.667 91.3386 133.497C91.0056 133.328 90.5943 133.243 90.1046 133.243C89.6476 133.243 89.246 133.321 88.9 133.478C88.5604 133.634 88.2927 133.84 88.0969 134.095C87.9075 134.349 87.8128 134.624 87.8128 134.917H86.001C86.001 134.539 86.0989 134.163 86.2948 133.791C86.4907 133.419 86.7714 133.083 87.1371 132.782C87.5092 132.475 87.9532 132.234 88.469 132.058C88.9914 131.875 89.5725 131.783 90.2123 131.783C90.9828 131.783 91.6618 131.914 92.2495 132.175C92.8436 132.436 93.3072 132.831 93.6402 133.36C93.9797 133.883 94.1495 134.539 94.1495 135.329V140.265C94.1495 140.617 94.1788 140.993 94.2376 141.391C94.3029 141.789 94.3976 142.132 94.5216 142.419V142.576H92.6314C92.54 142.367 92.4682 142.09 92.4159 141.744C92.3637 141.391 92.3376 141.065 92.3376 140.764ZM92.651 136.151L92.6706 137.425H90.8391C90.3233 137.425 89.863 137.467 89.4582 137.552C89.0534 137.63 88.7139 137.751 88.4396 137.914C88.1654 138.078 87.9565 138.283 87.8128 138.531C87.6692 138.773 87.5974 139.057 87.5974 139.383C87.5974 139.716 87.6725 140.02 87.8226 140.294C87.9728 140.568 88.1981 140.787 88.4984 140.95C88.8053 141.107 89.1807 141.185 89.6247 141.185C90.1797 141.185 90.6694 141.068 91.0938 140.833C91.5182 140.598 91.8544 140.311 92.1025 139.971C92.3572 139.631 92.4943 139.302 92.5139 138.982L93.2876 139.853C93.2419 140.128 93.1178 140.431 92.9154 140.764C92.713 141.097 92.4421 141.417 92.1025 141.724C91.7696 142.024 91.3713 142.276 90.9077 142.478C90.4507 142.674 89.9348 142.772 89.3603 142.772C88.6421 142.772 88.012 142.632 87.4701 142.351C86.9347 142.07 86.5168 141.695 86.2164 141.225C85.9226 140.748 85.7757 140.216 85.7757 139.628C85.7757 139.06 85.8867 138.561 86.1087 138.13C86.3307 137.692 86.6506 137.33 87.0685 137.043C87.4864 136.749 87.9891 136.527 88.5768 136.377C89.1644 136.227 89.8206 136.151 90.5453 136.151H92.651ZM98.8015 134.085V142.576H96.9799V131.979H98.7036L98.8015 134.085ZM98.4294 136.876L97.5871 136.847C97.5936 136.122 97.6883 135.453 97.8711 134.839C98.0539 134.219 98.3249 133.68 98.684 133.223C99.0431 132.766 99.4904 132.413 100.026 132.165C100.561 131.911 101.181 131.783 101.887 131.783C102.383 131.783 102.84 131.855 103.258 131.999C103.676 132.136 104.038 132.355 104.345 132.655C104.652 132.955 104.89 133.341 105.06 133.811C105.23 134.281 105.314 134.849 105.314 135.515V142.576H103.503V135.603C103.503 135.048 103.408 134.604 103.219 134.271C103.036 133.938 102.775 133.696 102.435 133.546C102.096 133.39 101.697 133.311 101.24 133.311C100.705 133.311 100.258 133.406 99.8984 133.595C99.5393 133.785 99.252 134.046 99.0366 134.379C98.8211 134.712 98.6644 135.094 98.5665 135.525C98.4751 135.949 98.4294 136.4 98.4294 136.876ZM105.295 135.877L104.08 136.249C104.087 135.668 104.182 135.11 104.364 134.575C104.554 134.039 104.825 133.563 105.177 133.145C105.536 132.727 105.977 132.397 106.499 132.156C107.022 131.907 107.619 131.783 108.292 131.783C108.86 131.783 109.363 131.858 109.8 132.009C110.244 132.159 110.616 132.391 110.917 132.704C111.223 133.011 111.455 133.406 111.612 133.889C111.769 134.372 111.847 134.947 111.847 135.613V142.576H110.025V135.593C110.025 134.999 109.931 134.539 109.741 134.212C109.558 133.879 109.297 133.647 108.958 133.517C108.625 133.38 108.226 133.311 107.763 133.311C107.365 133.311 107.012 133.38 106.705 133.517C106.398 133.654 106.14 133.843 105.931 134.085C105.723 134.32 105.563 134.591 105.452 134.898C105.347 135.205 105.295 135.531 105.295 135.877ZM120.838 140.764V135.309C120.838 134.891 120.753 134.529 120.583 134.222C120.42 133.909 120.172 133.667 119.839 133.497C119.506 133.328 119.094 133.243 118.605 133.243C118.148 133.243 117.746 133.321 117.4 133.478C117.061 133.634 116.793 133.84 116.597 134.095C116.408 134.349 116.313 134.624 116.313 134.917H114.501C114.501 134.539 114.599 134.163 114.795 133.791C114.991 133.419 115.271 133.083 115.637 132.782C116.009 132.475 116.453 132.234 116.969 132.058C117.491 131.875 118.073 131.783 118.712 131.783C119.483 131.783 120.162 131.914 120.75 132.175C121.344 132.436 121.807 132.831 122.14 133.36C122.48 133.883 122.65 134.539 122.65 135.329V140.265C122.65 140.617 122.679 140.993 122.738 141.391C122.803 141.789 122.898 142.132 123.022 142.419V142.576H121.131C121.04 142.367 120.968 142.09 120.916 141.744C120.864 141.391 120.838 141.065 120.838 140.764ZM121.151 136.151L121.171 137.425H119.339C118.823 137.425 118.363 137.467 117.958 137.552C117.553 137.63 117.214 137.751 116.94 137.914C116.665 138.078 116.457 138.283 116.313 138.531C116.169 138.773 116.097 139.057 116.097 139.383C116.097 139.716 116.173 140.02 116.323 140.294C116.473 140.568 116.698 140.787 116.998 140.95C117.305 141.107 117.681 141.185 118.125 141.185C118.68 141.185 119.169 141.068 119.594 140.833C120.018 140.598 120.354 140.311 120.603 139.971C120.857 139.631 120.994 139.302 121.014 138.982L121.788 139.853C121.742 140.128 121.618 140.431 121.415 140.764C121.213 141.097 120.942 141.417 120.603 141.724C120.27 142.024 119.871 142.276 119.408 142.478C118.951 142.674 118.435 142.772 117.86 142.772C117.142 142.772 116.512 142.632 115.97 142.351C115.435 142.07 115.017 141.695 114.717 141.225C114.423 140.748 114.276 140.216 114.276 139.628C114.276 139.06 114.387 138.561 114.609 138.13C114.831 137.692 115.151 137.33 115.569 137.043C115.986 136.749 116.489 136.527 117.077 136.377C117.664 136.227 118.321 136.151 119.045 136.151H121.151ZM132.179 140.519V127.533H134.001V142.576H132.336L132.179 140.519ZM125.049 137.395V137.19C125.049 136.38 125.147 135.645 125.343 134.986C125.545 134.32 125.829 133.749 126.195 133.272C126.567 132.795 127.008 132.43 127.517 132.175C128.033 131.914 128.607 131.783 129.241 131.783C129.907 131.783 130.488 131.901 130.984 132.136C131.487 132.364 131.911 132.701 132.257 133.145C132.61 133.582 132.887 134.111 133.09 134.731C133.292 135.352 133.433 136.053 133.511 136.837V137.738C133.439 138.515 133.299 139.214 133.09 139.834C132.887 140.454 132.61 140.983 132.257 141.42C131.911 141.858 131.487 142.194 130.984 142.429C130.481 142.658 129.894 142.772 129.221 142.772C128.601 142.772 128.033 142.638 127.517 142.371C127.008 142.103 126.567 141.727 126.195 141.244C125.829 140.761 125.545 140.193 125.343 139.54C125.147 138.881 125.049 138.166 125.049 137.395ZM126.871 137.19V137.395C126.871 137.924 126.923 138.42 127.027 138.884C127.138 139.347 127.308 139.756 127.537 140.108C127.765 140.461 128.056 140.738 128.408 140.941C128.761 141.136 129.182 141.234 129.672 141.234C130.272 141.234 130.765 141.107 131.151 140.852C131.542 140.598 131.856 140.262 132.091 139.844C132.326 139.426 132.509 138.972 132.639 138.482V136.122C132.561 135.763 132.447 135.417 132.296 135.084C132.153 134.744 131.963 134.444 131.728 134.183C131.5 133.915 131.216 133.703 130.876 133.546C130.543 133.39 130.148 133.311 129.691 133.311C129.195 133.311 128.767 133.416 128.408 133.625C128.056 133.827 127.765 134.108 127.537 134.467C127.308 134.819 127.138 135.231 127.027 135.701C126.923 136.164 126.871 136.661 126.871 137.19ZM143.07 140.764V135.309C143.07 134.891 142.985 134.529 142.815 134.222C142.652 133.909 142.404 133.667 142.071 133.497C141.738 133.328 141.326 133.243 140.837 133.243C140.38 133.243 139.978 133.321 139.632 133.478C139.293 133.634 139.025 133.84 138.829 134.095C138.64 134.349 138.545 134.624 138.545 134.917H136.733C136.733 134.539 136.831 134.163 137.027 133.791C137.223 133.419 137.503 133.083 137.869 132.782C138.241 132.475 138.685 132.234 139.201 132.058C139.723 131.875 140.305 131.783 140.944 131.783C141.715 131.783 142.394 131.914 142.982 132.175C143.576 132.436 144.039 132.831 144.372 133.36C144.712 133.883 144.882 134.539 144.882 135.329V140.265C144.882 140.617 144.911 140.993 144.97 141.391C145.035 141.789 145.13 142.132 145.254 142.419V142.576H143.363C143.272 142.367 143.2 142.09 143.148 141.744C143.096 141.391 143.07 141.065 143.07 140.764ZM143.383 136.151L143.403 137.425H141.571C141.055 137.425 140.595 137.467 140.19 137.552C139.785 137.63 139.446 137.751 139.172 137.914C138.897 138.078 138.689 138.283 138.545 138.531C138.401 138.773 138.329 139.057 138.329 139.383C138.329 139.716 138.405 140.02 138.555 140.294C138.705 140.568 138.93 140.787 139.23 140.95C139.537 141.107 139.913 141.185 140.357 141.185C140.912 141.185 141.401 141.068 141.826 140.833C142.25 140.598 142.586 140.311 142.835 139.971C143.089 139.631 143.226 139.302 143.246 138.982L144.02 139.853C143.974 140.128 143.85 140.431 143.647 140.764C143.445 141.097 143.174 141.417 142.835 141.724C142.502 142.024 142.103 142.276 141.64 142.478C141.183 142.674 140.667 142.772 140.092 142.772C139.374 142.772 138.744 142.632 138.202 142.351C137.667 142.07 137.249 141.695 136.949 141.225C136.655 140.748 136.508 140.216 136.508 139.628C136.508 139.06 136.619 138.561 136.841 138.13C137.063 137.692 137.383 137.33 137.801 137.043C138.218 136.749 138.721 136.527 139.309 136.377C139.896 136.227 140.553 136.151 141.277 136.151H143.383ZM153.902 139.765C153.902 139.504 153.843 139.263 153.725 139.041C153.614 138.812 153.383 138.606 153.03 138.424C152.684 138.234 152.162 138.071 151.463 137.934C150.875 137.81 150.343 137.663 149.867 137.493C149.396 137.323 148.995 137.118 148.662 136.876C148.335 136.635 148.084 136.351 147.908 136.024C147.732 135.698 147.643 135.316 147.643 134.878C147.643 134.46 147.735 134.065 147.918 133.693C148.107 133.321 148.371 132.991 148.711 132.704C149.057 132.417 149.472 132.191 149.955 132.028C150.438 131.865 150.977 131.783 151.571 131.783C152.42 131.783 153.144 131.934 153.745 132.234C154.346 132.534 154.806 132.936 155.126 133.439C155.446 133.935 155.606 134.486 155.606 135.094H153.794C153.794 134.8 153.706 134.516 153.529 134.242C153.36 133.961 153.108 133.729 152.775 133.546C152.449 133.363 152.047 133.272 151.571 133.272C151.068 133.272 150.66 133.35 150.346 133.507C150.04 133.657 149.814 133.85 149.671 134.085C149.534 134.32 149.465 134.568 149.465 134.829C149.465 135.025 149.498 135.201 149.563 135.358C149.635 135.508 149.759 135.649 149.935 135.779C150.111 135.903 150.36 136.021 150.679 136.132C150.999 136.243 151.407 136.354 151.904 136.465C152.772 136.661 153.487 136.896 154.049 137.17C154.61 137.444 155.028 137.78 155.302 138.179C155.576 138.577 155.714 139.06 155.714 139.628C155.714 140.092 155.616 140.516 155.42 140.901C155.23 141.287 154.953 141.62 154.587 141.9C154.228 142.175 153.797 142.39 153.294 142.547C152.798 142.697 152.24 142.772 151.62 142.772C150.686 142.772 149.896 142.606 149.25 142.273C148.603 141.94 148.113 141.509 147.781 140.98C147.448 140.451 147.281 139.893 147.281 139.305H149.103C149.129 139.801 149.272 140.196 149.534 140.49C149.795 140.777 150.115 140.983 150.493 141.107C150.872 141.225 151.248 141.283 151.62 141.283C152.116 141.283 152.531 141.218 152.864 141.088C153.203 140.957 153.461 140.777 153.637 140.549C153.814 140.32 153.902 140.059 153.902 139.765ZM98.8848 155.288L98.1943 155.089L98.7158 149.881H104.063V150.704H99.4651L99.0904 154.303C99.2765 154.171 99.5459 154.041 99.8984 153.914C100.256 153.782 100.657 153.716 101.103 153.716C101.578 153.716 102.009 153.796 102.396 153.958C102.788 154.115 103.123 154.345 103.402 154.648C103.681 154.947 103.897 155.31 104.049 155.736C104.2 156.157 104.276 156.634 104.276 157.168C104.276 157.682 104.213 158.155 104.085 158.586C103.958 159.017 103.765 159.394 103.505 159.717C103.245 160.035 102.915 160.282 102.513 160.459C102.112 160.635 101.634 160.723 101.081 160.723C100.655 160.723 100.253 160.664 99.8764 160.547C99.5042 160.424 99.1712 160.241 98.8774 159.996C98.5836 159.751 98.3437 159.443 98.1576 159.07C97.9764 158.698 97.8638 158.262 97.8197 157.763H98.6644C98.7232 158.243 98.8529 158.647 99.0537 158.975C99.2545 159.303 99.5238 159.55 99.8617 159.717C100.204 159.883 100.611 159.967 101.081 159.967C101.463 159.967 101.796 159.905 102.08 159.783C102.369 159.66 102.609 159.482 102.8 159.247C102.996 159.007 103.143 158.715 103.241 158.373C103.343 158.025 103.395 157.628 103.395 157.183C103.395 156.801 103.341 156.451 103.233 156.132C103.126 155.809 102.966 155.527 102.756 155.288C102.55 155.043 102.295 154.854 101.992 154.722C101.688 154.59 101.341 154.524 100.949 154.524C100.44 154.524 100.033 154.592 99.7295 154.729C99.4308 154.866 99.1492 155.052 98.8848 155.288ZM112.687 159.967C113.059 159.967 113.407 159.898 113.73 159.761C114.058 159.619 114.327 159.411 114.538 159.136C114.753 158.857 114.876 158.517 114.905 158.115H115.742C115.718 158.62 115.564 159.07 115.28 159.467C115.001 159.859 114.633 160.167 114.178 160.393C113.727 160.613 113.23 160.723 112.687 160.723C112.133 160.723 111.644 160.623 111.218 160.422C110.797 160.221 110.444 159.942 110.16 159.585C109.876 159.222 109.66 158.801 109.514 158.321C109.372 157.836 109.301 157.315 109.301 156.757V156.448C109.301 155.89 109.372 155.371 109.514 154.891C109.66 154.406 109.876 153.985 110.16 153.627C110.444 153.265 110.797 152.984 111.218 152.783C111.639 152.582 112.126 152.482 112.679 152.482C113.247 152.482 113.757 152.597 114.207 152.827C114.663 153.057 115.025 153.383 115.294 153.804C115.569 154.225 115.718 154.724 115.742 155.302H114.905C114.881 154.876 114.768 154.509 114.567 154.2C114.366 153.892 114.102 153.654 113.774 153.488C113.446 153.321 113.081 153.238 112.679 153.238C112.229 153.238 111.844 153.326 111.526 153.503C111.208 153.674 110.948 153.911 110.748 154.215C110.552 154.514 110.407 154.857 110.314 155.243C110.221 155.625 110.175 156.027 110.175 156.448V156.757C110.175 157.183 110.219 157.589 110.307 157.976C110.4 158.358 110.544 158.698 110.74 158.997C110.941 159.296 111.201 159.533 111.519 159.709C111.842 159.881 112.231 159.967 112.687 159.967ZM117.028 156.727V156.485C117.028 155.907 117.111 155.373 117.278 154.884C117.444 154.394 117.682 153.97 117.99 153.613C118.303 153.255 118.678 152.979 119.114 152.783C119.55 152.582 120.035 152.482 120.568 152.482C121.107 152.482 121.594 152.582 122.03 152.783C122.466 152.979 122.84 153.255 123.154 153.613C123.467 153.97 123.707 154.394 123.874 154.884C124.04 155.373 124.123 155.907 124.123 156.485V156.727C124.123 157.305 124.04 157.839 123.874 158.328C123.707 158.813 123.467 159.234 123.154 159.592C122.845 159.949 122.473 160.228 122.037 160.429C121.602 160.625 121.117 160.723 120.583 160.723C120.044 160.723 119.557 160.625 119.121 160.429C118.685 160.228 118.311 159.949 117.997 159.592C117.684 159.234 117.444 158.813 117.278 158.328C117.111 157.839 117.028 157.305 117.028 156.727ZM117.902 156.485V156.727C117.902 157.163 117.961 157.577 118.078 157.969C118.196 158.355 118.367 158.701 118.592 159.004C118.818 159.303 119.097 159.538 119.43 159.709C119.763 159.881 120.147 159.967 120.583 159.967C121.014 159.967 121.393 159.881 121.722 159.709C122.055 159.538 122.334 159.303 122.559 159.004C122.784 158.701 122.953 158.355 123.066 157.969C123.183 157.577 123.242 157.163 123.242 156.727V156.485C123.242 156.054 123.183 155.645 123.066 155.258C122.953 154.871 122.782 154.526 122.552 154.222C122.326 153.919 122.047 153.679 121.714 153.503C121.381 153.326 120.999 153.238 120.568 153.238C120.137 153.238 119.755 153.326 119.422 153.503C119.094 153.679 118.815 153.919 118.585 154.222C118.36 154.526 118.188 154.871 118.071 155.258C117.958 155.645 117.902 156.054 117.902 156.485ZM126.922 149.294V160.576H126.048V149.294H126.922ZM129.243 160.04C129.243 159.869 129.297 159.724 129.405 159.607C129.517 159.484 129.669 159.423 129.86 159.423C130.056 159.423 130.21 159.482 130.323 159.599C130.436 159.717 130.492 159.864 130.492 160.04C130.492 160.206 130.436 160.348 130.323 160.466C130.21 160.584 130.056 160.642 129.86 160.642C129.669 160.642 129.517 160.584 129.405 160.466C129.297 160.348 129.243 160.206 129.243 160.04Z" fill="#FDFBF9"/>
<path d="M863.151 287.995H860.174L860.194 286.457H863.151C864.17 286.457 865.019 286.245 865.698 285.821C866.377 285.39 866.886 284.789 867.226 284.019C867.572 283.242 867.745 282.334 867.745 281.296V280.424C867.745 279.608 867.647 278.884 867.451 278.25C867.255 277.61 866.968 277.072 866.589 276.634C866.21 276.19 865.747 275.854 865.198 275.626C864.656 275.397 864.033 275.283 863.328 275.283H860.115V273.735H863.328C864.261 273.735 865.113 273.892 865.884 274.205C866.654 274.512 867.317 274.96 867.872 275.547C868.434 276.128 868.864 276.833 869.165 277.663C869.465 278.485 869.615 279.412 869.615 280.444V281.296C869.615 282.328 869.465 283.258 869.165 284.087C868.864 284.91 868.43 285.612 867.862 286.193C867.301 286.774 866.622 287.221 865.825 287.535C865.035 287.842 864.144 287.995 863.151 287.995ZM861.183 273.735V287.995H859.293V273.735H861.183ZM876.579 288.191C875.841 288.191 875.172 288.067 874.571 287.819C873.977 287.564 873.464 287.208 873.033 286.751C872.609 286.294 872.283 285.752 872.054 285.126C871.825 284.499 871.711 283.813 871.711 283.069V282.657C871.711 281.796 871.839 281.028 872.093 280.356C872.348 279.677 872.694 279.102 873.131 278.632C873.569 278.162 874.065 277.806 874.62 277.565C875.175 277.323 875.75 277.202 876.344 277.202C877.101 277.202 877.754 277.333 878.302 277.594C878.857 277.855 879.311 278.221 879.664 278.691C880.016 279.155 880.278 279.703 880.447 280.336C880.617 280.963 880.702 281.649 880.702 282.393V283.206H872.789V281.727H878.89V281.59C878.864 281.12 878.766 280.663 878.596 280.219C878.433 279.775 878.172 279.409 877.813 279.122C877.454 278.835 876.964 278.691 876.344 278.691C875.932 278.691 875.554 278.779 875.208 278.955C874.862 279.125 874.564 279.38 874.316 279.719C874.068 280.059 873.876 280.473 873.739 280.963C873.601 281.453 873.533 282.018 873.533 282.657V283.069C873.533 283.572 873.601 284.045 873.739 284.489C873.882 284.926 874.088 285.312 874.356 285.645C874.63 285.978 874.959 286.239 875.345 286.428C875.736 286.617 876.18 286.712 876.677 286.712C877.317 286.712 877.858 286.582 878.302 286.32C878.746 286.059 879.135 285.71 879.468 285.272L880.565 286.144C880.336 286.49 880.046 286.82 879.693 287.133C879.341 287.447 878.906 287.701 878.391 287.897C877.881 288.093 877.277 288.191 876.579 288.191ZM887.254 277.398V278.789H881.525V277.398H887.254ZM883.464 274.822H885.276V285.37C885.276 285.729 885.331 286 885.442 286.183C885.553 286.366 885.697 286.487 885.873 286.546C886.049 286.604 886.239 286.634 886.441 286.634C886.591 286.634 886.748 286.621 886.911 286.595C887.081 286.562 887.208 286.536 887.293 286.516L887.303 287.995C887.159 288.041 886.97 288.083 886.735 288.122C886.506 288.168 886.229 288.191 885.902 288.191C885.458 288.191 885.05 288.103 884.678 287.927C884.306 287.75 884.009 287.456 883.787 287.045C883.572 286.627 883.464 286.066 883.464 285.361V274.822ZM895.628 286.183V280.728C895.628 280.31 895.543 279.948 895.373 279.641C895.21 279.328 894.962 279.086 894.629 278.916C894.296 278.746 893.884 278.662 893.395 278.662C892.938 278.662 892.536 278.74 892.19 278.897C891.851 279.053 891.583 279.259 891.387 279.514C891.198 279.768 891.103 280.043 891.103 280.336H889.291C889.291 279.958 889.389 279.582 889.585 279.21C889.781 278.838 890.062 278.502 890.427 278.201C890.799 277.894 891.243 277.653 891.759 277.477C892.282 277.294 892.863 277.202 893.502 277.202C894.273 277.202 894.952 277.333 895.54 277.594C896.134 277.855 896.597 278.25 896.93 278.779C897.27 279.301 897.44 279.958 897.44 280.748V285.684C897.44 286.036 897.469 286.412 897.528 286.81C897.593 287.208 897.688 287.551 897.812 287.838V287.995H895.922C895.83 287.786 895.758 287.509 895.706 287.163C895.654 286.81 895.628 286.484 895.628 286.183ZM895.941 281.57L895.961 282.844H894.129C893.613 282.844 893.153 282.886 892.748 282.971C892.344 283.049 892.004 283.17 891.73 283.333C891.456 283.496 891.247 283.702 891.103 283.95C890.959 284.192 890.888 284.476 890.888 284.802C890.888 285.135 890.963 285.439 891.113 285.713C891.263 285.987 891.488 286.206 891.789 286.369C892.095 286.526 892.471 286.604 892.915 286.604C893.47 286.604 893.96 286.487 894.384 286.252C894.808 286.017 895.145 285.729 895.393 285.39C895.647 285.05 895.784 284.721 895.804 284.401L896.578 285.272C896.532 285.547 896.408 285.85 896.206 286.183C896.003 286.516 895.732 286.836 895.393 287.143C895.06 287.443 894.661 287.695 894.198 287.897C893.741 288.093 893.225 288.191 892.65 288.191C891.932 288.191 891.302 288.051 890.76 287.77C890.225 287.489 889.807 287.114 889.507 286.644C889.213 286.167 889.066 285.635 889.066 285.047C889.066 284.479 889.177 283.98 889.399 283.549C889.621 283.111 889.941 282.749 890.359 282.462C890.777 282.168 891.279 281.946 891.867 281.796C892.455 281.645 893.111 281.57 893.835 281.57H895.941ZM902.258 272.952V287.995H900.437V272.952H902.258ZM906.979 272.952V287.995H905.167V272.952H906.979ZM906.548 282.295L905.794 282.266C905.8 281.541 905.908 280.872 906.117 280.258C906.326 279.638 906.62 279.099 906.998 278.642C907.377 278.185 907.828 277.832 908.35 277.584C908.879 277.33 909.463 277.202 910.103 277.202C910.625 277.202 911.095 277.274 911.513 277.418C911.931 277.555 912.287 277.777 912.581 278.084C912.881 278.391 913.11 278.789 913.266 279.279C913.423 279.762 913.501 280.353 913.501 281.051V287.995H911.68V281.032C911.68 280.477 911.598 280.033 911.435 279.7C911.272 279.36 911.033 279.115 910.72 278.965C910.407 278.808 910.021 278.73 909.564 278.73C909.114 278.73 908.703 278.825 908.33 279.014C907.965 279.204 907.648 279.465 907.38 279.798C907.119 280.131 906.914 280.513 906.763 280.944C906.62 281.368 906.548 281.818 906.548 282.295ZM922.463 286.183V280.728C922.463 280.31 922.378 279.948 922.208 279.641C922.045 279.328 921.797 279.086 921.464 278.916C921.131 278.746 920.72 278.662 920.23 278.662C919.773 278.662 919.371 278.74 919.025 278.897C918.686 279.053 918.418 279.259 918.222 279.514C918.033 279.768 917.938 280.043 917.938 280.336H916.126C916.126 279.958 916.224 279.582 916.42 279.21C916.616 278.838 916.897 278.502 917.262 278.201C917.634 277.894 918.078 277.653 918.594 277.477C919.117 277.294 919.698 277.202 920.338 277.202C921.108 277.202 921.787 277.333 922.375 277.594C922.969 277.855 923.432 278.25 923.765 278.779C924.105 279.301 924.275 279.958 924.275 280.748V285.684C924.275 286.036 924.304 286.412 924.363 286.81C924.428 287.208 924.523 287.551 924.647 287.838V287.995H922.757C922.665 287.786 922.593 287.509 922.541 287.163C922.489 286.81 922.463 286.484 922.463 286.183ZM922.776 281.57L922.796 282.844H920.964C920.449 282.844 919.988 282.886 919.583 282.971C919.179 283.049 918.839 283.17 918.565 283.333C918.291 283.496 918.082 283.702 917.938 283.95C917.794 284.192 917.723 284.476 917.723 284.802C917.723 285.135 917.798 285.439 917.948 285.713C918.098 285.987 918.323 286.206 918.624 286.369C918.931 286.526 919.306 286.604 919.75 286.604C920.305 286.604 920.795 286.487 921.219 286.252C921.643 286.017 921.98 285.729 922.228 285.39C922.482 285.05 922.62 284.721 922.639 284.401L923.413 285.272C923.367 285.547 923.243 285.85 923.041 286.183C922.838 286.516 922.567 286.836 922.228 287.143C921.895 287.443 921.497 287.695 921.033 287.897C920.576 288.093 920.06 288.191 919.486 288.191C918.767 288.191 918.137 288.051 917.595 287.77C917.06 287.489 916.642 287.114 916.342 286.644C916.048 286.167 915.901 285.635 915.901 285.047C915.901 284.479 916.012 283.98 916.234 283.549C916.456 283.111 916.776 282.749 917.194 282.462C917.612 282.168 918.114 281.946 918.702 281.796C919.29 281.645 919.946 281.57 920.671 281.57H922.776ZM928.927 279.504V287.995H927.105V277.398H928.829L928.927 279.504ZM928.555 282.295L927.712 282.266C927.719 281.541 927.814 280.872 927.996 280.258C928.179 279.638 928.45 279.099 928.809 278.642C929.168 278.185 929.616 277.832 930.151 277.584C930.686 277.33 931.307 277.202 932.012 277.202C932.508 277.202 932.965 277.274 933.383 277.418C933.801 277.555 934.163 277.774 934.47 278.074C934.777 278.374 935.015 278.76 935.185 279.23C935.355 279.7 935.44 280.268 935.44 280.934V287.995H933.628V281.022C933.628 280.467 933.533 280.023 933.344 279.69C933.161 279.357 932.9 279.115 932.56 278.965C932.221 278.808 931.822 278.73 931.365 278.73C930.83 278.73 930.383 278.825 930.024 279.014C929.665 279.204 929.377 279.465 929.162 279.798C928.946 280.131 928.79 280.513 928.692 280.944C928.6 281.368 928.555 281.818 928.555 282.295ZM935.42 281.296L934.206 281.668C934.212 281.087 934.307 280.529 934.49 279.994C934.679 279.458 934.95 278.982 935.303 278.564C935.662 278.146 936.102 277.816 936.625 277.574C937.147 277.326 937.745 277.202 938.417 277.202C938.985 277.202 939.488 277.277 939.925 277.428C940.369 277.578 940.741 277.81 941.042 278.123C941.349 278.43 941.58 278.825 941.737 279.308C941.894 279.791 941.972 280.366 941.972 281.032V287.995H940.151V281.012C940.151 280.418 940.056 279.958 939.867 279.631C939.684 279.298 939.423 279.066 939.083 278.936C938.75 278.799 938.352 278.73 937.888 278.73C937.49 278.73 937.137 278.799 936.83 278.936C936.524 279.073 936.266 279.262 936.057 279.504C935.848 279.739 935.688 280.01 935.577 280.317C935.472 280.624 935.42 280.95 935.42 281.296ZM949.112 288.191C948.374 288.191 947.705 288.067 947.104 287.819C946.51 287.564 945.997 287.208 945.567 286.751C945.142 286.294 944.816 285.752 944.587 285.126C944.359 284.499 944.244 283.813 944.244 283.069V282.657C944.244 281.796 944.372 281.028 944.626 280.356C944.881 279.677 945.227 279.102 945.664 278.632C946.102 278.162 946.598 277.806 947.153 277.565C947.708 277.323 948.283 277.202 948.877 277.202C949.634 277.202 950.287 277.333 950.836 277.594C951.391 277.855 951.844 278.221 952.197 278.691C952.55 279.155 952.811 279.703 952.98 280.336C953.15 280.963 953.235 281.649 953.235 282.393V283.206H945.322V281.727H951.423V281.59C951.397 281.12 951.299 280.663 951.129 280.219C950.966 279.775 950.705 279.409 950.346 279.122C949.987 278.835 949.497 278.691 948.877 278.691C948.465 278.691 948.087 278.779 947.741 278.955C947.395 279.125 947.098 279.38 946.85 279.719C946.601 280.059 946.409 280.473 946.272 280.963C946.135 281.453 946.066 282.018 946.066 282.657V283.069C946.066 283.572 946.135 284.045 946.272 284.489C946.415 284.926 946.621 285.312 946.889 285.645C947.163 285.978 947.493 286.239 947.878 286.428C948.27 286.617 948.714 286.712 949.21 286.712C949.85 286.712 950.392 286.582 950.836 286.32C951.28 286.059 951.668 285.71 952.001 285.272L953.098 286.144C952.869 286.49 952.579 286.82 952.226 287.133C951.874 287.447 951.44 287.701 950.924 287.897C950.414 288.093 949.811 288.191 949.112 288.191ZM957.162 279.661V287.995H955.351V277.398H957.064L957.162 279.661ZM956.731 282.295L955.977 282.266C955.984 281.541 956.092 280.872 956.301 280.258C956.509 279.638 956.803 279.099 957.182 278.642C957.561 278.185 958.011 277.832 958.534 277.584C959.062 277.33 959.647 277.202 960.287 277.202C960.809 277.202 961.279 277.274 961.697 277.418C962.115 277.555 962.471 277.777 962.764 278.084C963.065 278.391 963.293 278.789 963.45 279.279C963.607 279.762 963.685 280.353 963.685 281.051V287.995H961.863V281.032C961.863 280.477 961.782 280.033 961.619 279.7C961.455 279.36 961.217 279.115 960.904 278.965C960.59 278.808 960.205 278.73 959.748 278.73C959.297 278.73 958.886 278.825 958.514 279.014C958.148 279.204 957.832 279.465 957.564 279.798C957.303 280.131 957.097 280.513 956.947 280.944C956.803 281.368 956.731 281.818 956.731 282.295ZM970.874 277.398V278.789H965.144V277.398H970.874ZM967.084 274.822H968.895V285.37C968.895 285.729 968.951 286 969.062 286.183C969.173 286.366 969.317 286.487 969.493 286.546C969.669 286.604 969.858 286.634 970.061 286.634C970.211 286.634 970.368 286.621 970.531 286.595C970.701 286.562 970.828 286.536 970.913 286.516L970.923 287.995C970.779 288.041 970.59 288.083 970.355 288.122C970.126 288.168 969.849 288.191 969.522 288.191C969.078 288.191 968.67 288.103 968.298 287.927C967.926 287.75 967.629 287.456 967.407 287.045C967.191 286.627 967.084 286.066 967.084 285.361V274.822ZM972.323 282.814V282.589C972.323 281.825 972.434 281.117 972.656 280.464C972.878 279.804 973.198 279.233 973.616 278.75C974.034 278.26 974.54 277.881 975.134 277.614C975.728 277.339 976.394 277.202 977.132 277.202C977.876 277.202 978.546 277.339 979.14 277.614C979.74 277.881 980.25 278.26 980.668 278.75C981.092 279.233 981.415 279.804 981.637 280.464C981.859 281.117 981.97 281.825 981.97 282.589V282.814C981.97 283.578 981.859 284.287 981.637 284.939C981.415 285.592 981.092 286.164 980.668 286.653C980.25 287.137 979.744 287.515 979.15 287.789C978.562 288.057 977.896 288.191 977.152 288.191C976.407 288.191 975.738 288.057 975.144 287.789C974.55 287.515 974.04 287.137 973.616 286.653C973.198 286.164 972.878 285.592 972.656 284.939C972.434 284.287 972.323 283.578 972.323 282.814ZM974.135 282.589V282.814C974.135 283.343 974.197 283.843 974.321 284.313C974.445 284.776 974.631 285.188 974.879 285.547C975.134 285.906 975.451 286.19 975.829 286.399C976.208 286.601 976.649 286.702 977.152 286.702C977.648 286.702 978.082 286.601 978.454 286.399C978.833 286.19 979.146 285.906 979.394 285.547C979.643 285.188 979.829 284.776 979.953 284.313C980.083 283.843 980.149 283.343 980.149 282.814V282.589C980.149 282.067 980.083 281.574 979.953 281.11C979.829 280.64 979.639 280.225 979.385 279.866C979.137 279.501 978.823 279.213 978.444 279.004C978.072 278.795 977.635 278.691 977.132 278.691C976.636 278.691 976.198 278.795 975.82 279.004C975.448 279.213 975.134 279.501 974.879 279.866C974.631 280.225 974.445 280.64 974.321 281.11C974.197 281.574 974.135 282.067 974.135 282.589ZM896.45 303.504V311.995H894.629V301.398H896.352L896.45 303.504ZM896.078 306.295L895.236 306.266C895.243 305.541 895.337 304.872 895.52 304.258C895.703 303.638 895.974 303.099 896.333 302.642C896.692 302.185 897.139 301.832 897.675 301.584C898.21 301.33 898.83 301.202 899.535 301.202C900.032 301.202 900.489 301.274 900.907 301.418C901.324 301.555 901.687 301.774 901.994 302.074C902.301 302.374 902.539 302.76 902.709 303.23C902.878 303.7 902.963 304.268 902.963 304.934V311.995H901.151V305.022C901.151 304.467 901.057 304.023 900.867 303.69C900.685 303.357 900.423 303.115 900.084 302.965C899.744 302.808 899.346 302.73 898.889 302.73C898.354 302.73 897.906 302.825 897.547 303.014C897.188 303.204 896.901 303.465 896.685 303.798C896.47 304.131 896.313 304.513 896.215 304.944C896.124 305.368 896.078 305.818 896.078 306.295ZM902.944 305.296L901.729 305.668C901.736 305.087 901.831 304.529 902.013 303.994C902.203 303.458 902.474 302.982 902.826 302.564C903.185 302.146 903.626 301.816 904.148 301.574C904.671 301.326 905.268 301.202 905.941 301.202C906.509 301.202 907.011 301.277 907.449 301.428C907.893 301.578 908.265 301.81 908.565 302.123C908.872 302.43 909.104 302.825 909.261 303.308C909.417 303.791 909.496 304.366 909.496 305.032V311.995H907.674V305.012C907.674 304.418 907.579 303.958 907.39 303.631C907.207 303.298 906.946 303.066 906.607 302.936C906.274 302.799 905.875 302.73 905.412 302.73C905.014 302.73 904.661 302.799 904.354 302.936C904.047 303.073 903.789 303.262 903.58 303.504C903.371 303.739 903.211 304.01 903.1 304.317C902.996 304.624 902.944 304.95 902.944 305.296ZM911.758 306.814V306.589C911.758 305.825 911.869 305.117 912.091 304.464C912.313 303.804 912.633 303.233 913.051 302.75C913.469 302.26 913.975 301.881 914.569 301.614C915.163 301.339 915.829 301.202 916.567 301.202C917.311 301.202 917.981 301.339 918.575 301.614C919.175 301.881 919.685 302.26 920.103 302.75C920.527 303.233 920.85 303.804 921.072 304.464C921.294 305.117 921.405 305.825 921.405 306.589V306.814C921.405 307.578 921.294 308.287 921.072 308.939C920.85 309.592 920.527 310.164 920.103 310.653C919.685 311.137 919.179 311.515 918.584 311.789C917.997 312.057 917.331 312.191 916.587 312.191C915.842 312.191 915.173 312.057 914.579 311.789C913.985 311.515 913.475 311.137 913.051 310.653C912.633 310.164 912.313 309.592 912.091 308.939C911.869 308.287 911.758 307.578 911.758 306.814ZM913.57 306.589V306.814C913.57 307.343 913.632 307.843 913.756 308.313C913.88 308.776 914.066 309.188 914.314 309.547C914.569 309.906 914.886 310.19 915.264 310.399C915.643 310.601 916.084 310.702 916.587 310.702C917.083 310.702 917.517 310.601 917.889 310.399C918.268 310.19 918.581 309.906 918.829 309.547C919.077 309.188 919.264 308.776 919.388 308.313C919.518 307.843 919.583 307.343 919.583 306.814V306.589C919.583 306.067 919.518 305.574 919.388 305.11C919.264 304.64 919.074 304.225 918.82 303.866C918.571 303.501 918.258 303.213 917.879 303.004C917.507 302.795 917.07 302.691 916.567 302.691C916.071 302.691 915.633 302.795 915.255 303.004C914.882 303.213 914.569 303.501 914.314 303.866C914.066 304.225 913.88 304.64 913.756 305.11C913.632 305.574 913.57 306.067 913.57 306.589ZM915.49 299.831L917.39 296.952H919.574L916.949 299.831H915.49ZM926.743 310.36L929.642 301.398H931.493L927.683 311.995H926.469L926.743 310.36ZM924.324 301.398L927.311 310.409L927.516 311.995H926.302L922.463 301.398H924.324ZM937.496 312.191C936.759 312.191 936.089 312.067 935.489 311.819C934.895 311.564 934.382 311.208 933.951 310.751C933.527 310.294 933.2 309.752 932.972 309.126C932.743 308.499 932.629 307.813 932.629 307.069V306.657C932.629 305.796 932.756 305.028 933.011 304.356C933.265 303.677 933.612 303.102 934.049 302.632C934.486 302.162 934.983 301.806 935.538 301.565C936.093 301.323 936.667 301.202 937.261 301.202C938.019 301.202 938.672 301.333 939.22 301.594C939.775 301.855 940.229 302.221 940.581 302.691C940.934 303.155 941.195 303.703 941.365 304.336C941.535 304.963 941.62 305.649 941.62 306.393V307.206H933.706V305.727H939.808V305.59C939.782 305.12 939.684 304.663 939.514 304.219C939.351 303.775 939.09 303.409 938.73 303.122C938.371 302.835 937.882 302.691 937.261 302.691C936.85 302.691 936.471 302.779 936.125 302.955C935.779 303.125 935.482 303.38 935.234 303.719C934.986 304.059 934.793 304.473 934.656 304.963C934.519 305.453 934.451 306.018 934.451 306.657V307.069C934.451 307.572 934.519 308.045 934.656 308.489C934.8 308.926 935.005 309.312 935.273 309.645C935.547 309.978 935.877 310.239 936.262 310.428C936.654 310.617 937.098 310.712 937.594 310.712C938.234 310.712 938.776 310.582 939.22 310.32C939.664 310.059 940.053 309.71 940.386 309.272L941.482 310.144C941.254 310.49 940.963 310.82 940.611 311.133C940.258 311.447 939.824 311.701 939.308 311.897C938.799 312.093 938.195 312.191 937.496 312.191ZM945.704 296.952V311.995H943.882V296.952H945.704ZM908.725 319.219H908.849V319.991H908.725C908.049 319.991 907.446 320.101 906.918 320.321C906.394 320.542 905.95 320.86 905.588 321.276C905.231 321.687 904.959 322.187 904.773 322.775C904.587 323.362 904.494 324.021 904.494 324.751V326.227C904.494 326.722 904.56 327.165 904.692 327.556C904.824 327.943 905.008 328.274 905.243 328.548C905.478 328.822 905.752 329.03 906.066 329.172C906.379 329.314 906.717 329.385 907.079 329.385C907.437 329.385 907.757 329.312 908.041 329.165C908.325 329.018 908.565 328.813 908.761 328.548C908.962 328.284 909.114 327.98 909.217 327.637C909.324 327.29 909.378 326.917 909.378 326.521C909.378 326.144 909.329 325.789 909.231 325.456C909.138 325.118 908.994 324.819 908.798 324.56C908.602 324.3 908.357 324.097 908.063 323.95C907.77 323.803 907.424 323.73 907.028 323.73C906.577 323.73 906.156 323.832 905.764 324.038C905.373 324.244 905.052 324.518 904.802 324.861C904.557 325.203 904.428 325.578 904.413 325.985L903.906 325.977C903.94 325.517 904.046 325.103 904.222 324.736C904.398 324.364 904.631 324.048 904.92 323.788C905.213 323.524 905.549 323.323 905.926 323.186C906.308 323.044 906.719 322.973 907.16 322.973C907.674 322.973 908.122 323.066 908.504 323.252C908.891 323.438 909.212 323.695 909.466 324.023C909.726 324.347 909.919 324.721 910.047 325.147C910.179 325.568 910.245 326.014 910.245 326.484C910.245 326.998 910.172 327.478 910.025 327.924C909.883 328.364 909.672 328.751 909.393 329.084C909.119 329.417 908.786 329.677 908.394 329.863C908.007 330.049 907.569 330.142 907.079 330.142C906.541 330.142 906.058 330.039 905.632 329.834C905.206 329.628 904.841 329.344 904.538 328.981C904.239 328.619 904.009 328.203 903.847 327.733C903.691 327.258 903.612 326.751 903.612 326.212V325.272C903.612 324.361 903.717 323.536 903.928 322.797C904.139 322.052 904.454 321.413 904.876 320.88C905.302 320.346 905.833 319.937 906.47 319.653C907.111 319.364 907.863 319.219 908.725 319.219ZM918.758 329.385C919.131 329.385 919.478 329.317 919.801 329.18C920.129 329.038 920.399 328.83 920.609 328.555C920.825 328.276 920.947 327.936 920.977 327.534H921.814C921.79 328.039 921.635 328.489 921.351 328.886C921.072 329.278 920.705 329.586 920.249 329.811C919.799 330.032 919.302 330.142 918.758 330.142C918.205 330.142 917.715 330.042 917.289 329.841C916.868 329.64 916.516 329.361 916.232 329.003C915.948 328.641 915.732 328.22 915.585 327.74C915.443 327.255 915.372 326.734 915.372 326.176V325.867C915.372 325.309 915.443 324.79 915.585 324.31C915.732 323.825 915.948 323.404 916.232 323.046C916.516 322.684 916.868 322.402 917.289 322.202C917.71 322.001 918.198 321.901 918.751 321.901C919.319 321.901 919.828 322.016 920.279 322.246C920.734 322.476 921.097 322.802 921.366 323.223C921.64 323.644 921.79 324.143 921.814 324.721H920.977C920.952 324.295 920.84 323.928 920.639 323.619C920.438 323.311 920.174 323.073 919.845 322.907C919.517 322.74 919.153 322.657 918.751 322.657C918.3 322.657 917.916 322.745 917.598 322.922C917.279 323.093 917.02 323.33 916.819 323.634C916.623 323.933 916.479 324.276 916.386 324.662C916.293 325.044 916.246 325.446 916.246 325.867V326.176C916.246 326.602 916.29 327.008 916.378 327.395C916.471 327.777 916.616 328.117 916.812 328.416C917.013 328.715 917.272 328.952 917.59 329.128C917.914 329.3 918.303 329.385 918.758 329.385ZM923.099 326.146V325.904C923.099 325.326 923.183 324.792 923.349 324.302C923.516 323.813 923.753 323.389 924.062 323.032C924.375 322.674 924.75 322.398 925.186 322.202C925.621 322.001 926.106 321.901 926.64 321.901C927.179 321.901 927.666 322.001 928.102 322.202C928.537 322.398 928.912 322.674 929.226 323.032C929.539 323.389 929.779 323.813 929.945 324.302C930.112 324.792 930.195 325.326 930.195 325.904V326.146C930.195 326.724 930.112 327.258 929.945 327.747C929.779 328.232 929.539 328.653 929.226 329.011C928.917 329.368 928.545 329.647 928.109 329.848C927.673 330.044 927.188 330.142 926.655 330.142C926.116 330.142 925.629 330.044 925.193 329.848C924.757 329.647 924.382 329.368 924.069 329.011C923.756 328.653 923.516 328.232 923.349 327.747C923.183 327.258 923.099 326.724 923.099 326.146ZM923.974 325.904V326.146C923.974 326.582 924.032 326.996 924.15 327.388C924.267 327.774 924.439 328.12 924.664 328.423C924.889 328.722 925.168 328.957 925.501 329.128C925.834 329.3 926.219 329.385 926.655 329.385C927.086 329.385 927.465 329.3 927.793 329.128C928.126 328.957 928.405 328.722 928.631 328.423C928.856 328.12 929.025 327.774 929.137 327.388C929.255 326.996 929.314 326.582 929.314 326.146V325.904C929.314 325.473 929.255 325.064 929.137 324.677C929.025 324.29 928.853 323.945 928.623 323.641C928.398 323.338 928.119 323.098 927.786 322.922C927.453 322.745 927.071 322.657 926.64 322.657C926.209 322.657 925.827 322.745 925.494 322.922C925.166 323.098 924.887 323.338 924.657 323.641C924.431 323.945 924.26 324.29 924.143 324.677C924.03 325.064 923.974 325.473 923.974 325.904ZM932.994 318.713V329.995H932.12V318.713H932.994ZM935.315 329.459C935.315 329.288 935.369 329.143 935.476 329.026C935.589 328.903 935.741 328.842 935.932 328.842C936.128 328.842 936.282 328.901 936.395 329.018C936.507 329.136 936.564 329.283 936.564 329.459C936.564 329.625 936.507 329.767 936.395 329.885C936.282 330.002 936.128 330.061 935.932 330.061C935.741 330.061 935.589 330.002 935.476 329.885C935.369 329.767 935.315 329.625 935.315 329.459Z" fill="#FDFBF9"/>
<path d="M84.882 43.6547H82.6233L82.6111 42.706H84.6617C85.0004 42.706 85.2962 42.6488 85.5492 42.5346C85.8022 42.4203 85.9981 42.2571 86.1369 42.0449C86.2797 41.8286 86.3511 41.5715 86.3511 41.2736C86.3511 40.9472 86.2879 40.6819 86.1614 40.4779C86.0389 40.2697 85.8492 40.1188 85.5921 40.0249C85.3391 39.927 85.0167 39.878 84.6249 39.878H82.8865V47.8232H81.7052V38.9109H84.6249C85.082 38.9109 85.4901 38.9578 85.8492 39.0516C86.2083 39.1414 86.5123 39.2842 86.7612 39.4801C87.0142 39.6719 87.206 39.9168 87.3366 40.2147C87.4672 40.5126 87.5325 40.8696 87.5325 41.2859C87.5325 41.6531 87.4386 41.9857 87.2509 42.2836C87.0632 42.5774 86.802 42.8182 86.4674 43.0059C86.1369 43.1936 85.7492 43.314 85.3044 43.367L84.882 43.6547ZM84.8269 47.8232H82.1581L82.8253 46.8622H84.8269C85.2024 46.8622 85.5207 46.7969 85.7818 46.6663C86.0471 46.5358 86.2491 46.3521 86.3878 46.1154C86.5266 45.8747 86.596 45.5911 86.596 45.2646C86.596 44.9341 86.5368 44.6484 86.4184 44.4076C86.3001 44.1669 86.1144 43.9812 85.8614 43.8506C85.6084 43.72 85.2819 43.6547 84.882 43.6547H83.1987L83.211 42.706H85.5125L85.7635 43.0487C86.192 43.0855 86.5551 43.2079 86.853 43.416C87.1509 43.6201 87.3774 43.8812 87.5325 44.1995C87.6916 44.5178 87.7712 44.8688 87.7712 45.2524C87.7712 45.8073 87.6488 46.2766 87.4039 46.6602C87.1632 47.0397 86.8224 47.3295 86.3817 47.5294C85.941 47.7253 85.4227 47.8232 84.8269 47.8232ZM93.3966 46.293V41.2002H94.5351V47.8232H93.4516L93.3966 46.293ZM93.6108 44.8973L94.0821 44.8851C94.0821 45.3258 94.0352 45.7339 93.9413 46.1093C93.8516 46.4807 93.7046 46.8031 93.5006 47.0765C93.2966 47.3499 93.0293 47.5641 92.6987 47.7192C92.3682 47.8702 91.9662 47.9457 91.4929 47.9457C91.1705 47.9457 90.8746 47.8987 90.6053 47.8049C90.3401 47.711 90.1115 47.5662 89.9197 47.3703C89.7279 47.1744 89.579 46.9194 89.4729 46.6051C89.3709 46.2909 89.3199 45.9134 89.3199 45.4727V41.2002H90.4523V45.485C90.4523 45.7829 90.4849 46.0297 90.5502 46.2256C90.6196 46.4174 90.7114 46.5704 90.8257 46.6847C90.944 46.7949 91.0746 46.8724 91.2174 46.9173C91.3643 46.9622 91.5153 46.9846 91.6704 46.9846C92.1519 46.9846 92.5335 46.8928 92.815 46.7092C93.0966 46.5215 93.2986 46.2705 93.421 45.9563C93.5475 45.638 93.6108 45.285 93.6108 44.8973ZM100.118 46.0665C100.118 45.9032 100.081 45.7523 100.007 45.6135C99.938 45.4707 99.7931 45.3421 99.5728 45.2279C99.3565 45.1095 99.03 45.0075 98.5934 44.9218C98.2261 44.8443 97.8936 44.7525 97.5957 44.6464C97.3018 44.5403 97.0509 44.4117 96.8428 44.2607C96.6387 44.1097 96.4816 43.9322 96.3714 43.7282C96.2612 43.5242 96.2062 43.2854 96.2062 43.012C96.2062 42.7509 96.2633 42.504 96.3775 42.2714C96.4959 42.0388 96.6612 41.8327 96.8734 41.6531C97.0896 41.4736 97.3488 41.3328 97.6507 41.2308C97.9527 41.1287 98.2894 41.0777 98.6607 41.0777C99.1912 41.0777 99.6442 41.1716 100.02 41.3593C100.395 41.547 100.683 41.798 100.883 42.1122C101.083 42.4223 101.183 42.7672 101.183 43.1467H100.05C100.05 42.9631 99.9951 42.7855 99.885 42.6141C99.7789 42.4387 99.6218 42.2938 99.4136 42.1795C99.2096 42.0653 98.9586 42.0082 98.6607 42.0082C98.3465 42.0082 98.0915 42.0571 97.8956 42.1551C97.7038 42.2489 97.563 42.3693 97.4732 42.5162C97.3875 42.6631 97.3447 42.8182 97.3447 42.9814C97.3447 43.1038 97.3651 43.214 97.4059 43.312C97.4508 43.4058 97.5283 43.4936 97.6385 43.5752C97.7487 43.6527 97.9038 43.7262 98.1037 43.7955C98.3037 43.8649 98.5587 43.9343 98.8689 44.0036C99.4116 44.1261 99.8584 44.273 100.209 44.4444C100.56 44.6158 100.821 44.8259 100.993 45.0748C101.164 45.3238 101.25 45.6258 101.25 45.9808C101.25 46.2705 101.189 46.5358 101.066 46.7765C100.948 47.0173 100.775 47.2254 100.546 47.4009C100.322 47.5723 100.052 47.7069 99.7381 47.8049C99.4279 47.8987 99.079 47.9457 98.6913 47.9457C98.1078 47.9457 97.614 47.8416 97.21 47.6335C96.806 47.4254 96.5 47.156 96.2919 46.8255C96.0837 46.495 95.9797 46.146 95.9797 45.7788H97.1182C97.1345 46.0889 97.2243 46.3358 97.3875 46.5194C97.5508 46.699 97.7507 46.8275 97.9874 46.9051C98.2241 46.9785 98.4587 47.0153 98.6913 47.0153C99.0015 47.0153 99.2606 46.9744 99.4687 46.8928C99.6809 46.8112 99.8421 46.699 99.9523 46.5562C100.062 46.4133 100.118 46.2501 100.118 46.0665ZM105.388 47.0153C105.657 47.0153 105.906 46.9602 106.135 46.85C106.363 46.7398 106.551 46.5888 106.698 46.397C106.845 46.2011 106.928 45.9787 106.949 45.7298H108.026C108.006 46.1216 107.873 46.4868 107.628 46.8255C107.387 47.1601 107.071 47.4315 106.679 47.6396C106.288 47.8436 105.857 47.9457 105.388 47.9457C104.89 47.9457 104.455 47.8579 104.084 47.6825C103.717 47.507 103.411 47.2662 103.166 46.9602C102.925 46.6541 102.744 46.3032 102.621 45.9073C102.503 45.5074 102.444 45.085 102.444 44.6402V44.3832C102.444 43.9384 102.503 43.518 102.621 43.1222C102.744 42.7223 102.925 42.3693 103.166 42.0632C103.411 41.7572 103.717 41.5164 104.084 41.3409C104.455 41.1655 104.89 41.0777 105.388 41.0777C105.906 41.0777 106.359 41.1838 106.747 41.396C107.134 41.6042 107.438 41.8898 107.659 42.253C107.883 42.6121 108.006 43.0202 108.026 43.4772H106.949C106.928 43.2038 106.851 42.9569 106.716 42.7366C106.586 42.5162 106.406 42.3407 106.178 42.2101C105.953 42.0755 105.69 42.0082 105.388 42.0082C105.041 42.0082 104.749 42.0775 104.513 42.2163C104.28 42.3509 104.094 42.5346 103.956 42.7672C103.821 42.9957 103.723 43.2507 103.662 43.5323C103.605 43.8098 103.576 44.0934 103.576 44.3832V44.6402C103.576 44.93 103.605 45.2156 103.662 45.4972C103.719 45.7788 103.815 46.0338 103.949 46.2623C104.088 46.4909 104.274 46.6745 104.506 46.8133C104.743 46.9479 105.037 47.0153 105.388 47.0153ZM113.205 46.6908V43.2814C113.205 43.0202 113.152 42.7937 113.045 42.6019C112.943 42.406 112.788 42.255 112.58 42.1489C112.372 42.0428 112.115 41.9898 111.809 41.9898C111.523 41.9898 111.272 42.0388 111.056 42.1367C110.844 42.2346 110.677 42.3632 110.554 42.5223C110.436 42.6815 110.377 42.8529 110.377 43.0365H109.244C109.244 42.7998 109.305 42.5652 109.428 42.3326C109.55 42.1 109.726 41.8898 109.954 41.7021C110.187 41.5103 110.464 41.3593 110.787 41.2491C111.113 41.1349 111.476 41.0777 111.876 41.0777C112.358 41.0777 112.782 41.1594 113.149 41.3226C113.521 41.4858 113.811 41.7327 114.019 42.0632C114.231 42.3897 114.337 42.7998 114.337 43.2936V46.3787C114.337 46.599 114.355 46.8337 114.392 47.0826C114.433 47.3315 114.492 47.5458 114.57 47.7253V47.8232H113.388C113.331 47.6927 113.286 47.5192 113.254 47.3029C113.221 47.0826 113.205 46.8785 113.205 46.6908ZM113.4 43.8078L113.413 44.6035H112.268C111.946 44.6035 111.658 44.63 111.405 44.6831C111.152 44.7321 110.94 44.8076 110.768 44.9096C110.597 45.0116 110.466 45.1401 110.377 45.2952C110.287 45.4462 110.242 45.6237 110.242 45.8277C110.242 46.0359 110.289 46.2256 110.383 46.397C110.477 46.5684 110.617 46.7051 110.805 46.8071C110.997 46.9051 111.232 46.954 111.509 46.954C111.856 46.954 112.162 46.8806 112.427 46.7337C112.692 46.5868 112.903 46.4072 113.058 46.195C113.217 45.9828 113.303 45.7767 113.315 45.5768L113.798 46.1216C113.77 46.293 113.692 46.4827 113.566 46.6908C113.439 46.8989 113.27 47.0989 113.058 47.2907C112.85 47.4784 112.601 47.6355 112.311 47.762C112.025 47.8845 111.703 47.9457 111.344 47.9457C110.895 47.9457 110.501 47.8579 110.162 47.6825C109.828 47.507 109.567 47.2723 109.379 46.9785C109.195 46.6806 109.103 46.348 109.103 45.9808C109.103 45.6258 109.173 45.3136 109.312 45.0442C109.45 44.7708 109.65 44.5443 109.911 44.3648C110.173 44.1812 110.487 44.0424 110.854 43.9486C111.221 43.8547 111.631 43.8078 112.084 43.8078H113.4ZM120.281 43.416L119.705 43.2507L120.14 38.9109H124.596V39.5964H120.764L120.452 42.5958C120.607 42.4856 120.832 42.3775 121.125 42.2714C121.423 42.1612 121.758 42.1061 122.129 42.1061C122.525 42.1061 122.884 42.1734 123.207 42.3081C123.533 42.4387 123.813 42.6305 124.045 42.8835C124.278 43.1324 124.457 43.4344 124.584 43.7894C124.71 44.1404 124.774 44.5382 124.774 44.983C124.774 45.4115 124.721 45.8053 124.614 46.1644C124.508 46.5235 124.347 46.8377 124.131 47.1071C123.915 47.3723 123.639 47.5784 123.304 47.7253C122.97 47.8722 122.572 47.9457 122.111 47.9457C121.756 47.9457 121.421 47.8967 121.107 47.7988C120.797 47.6967 120.519 47.5437 120.275 47.3397C120.03 47.1356 119.83 46.8785 119.675 46.5684C119.524 46.2583 119.43 45.8951 119.393 45.4788H120.097C120.146 45.8788 120.254 46.2154 120.421 46.4888C120.589 46.7622 120.813 46.9683 121.095 47.1071C121.38 47.2458 121.719 47.3152 122.111 47.3152C122.429 47.3152 122.707 47.2642 122.943 47.1622C123.184 47.0601 123.384 46.9112 123.543 46.7153C123.706 46.5154 123.829 46.2726 123.91 45.9869C123.996 45.6972 124.039 45.3666 124.039 44.9953C124.039 44.677 123.994 44.3852 123.904 44.1199C123.815 43.8506 123.682 43.616 123.506 43.416C123.335 43.212 123.123 43.0549 122.87 42.9447C122.617 42.8345 122.327 42.7794 122.001 42.7794C121.576 42.7794 121.238 42.8365 120.985 42.9508C120.736 43.0651 120.501 43.2201 120.281 43.416ZM131.782 47.3152C132.092 47.3152 132.382 47.2581 132.651 47.1438C132.925 47.0255 133.149 46.852 133.325 46.6235C133.504 46.3909 133.606 46.1073 133.631 45.7727H134.329C134.308 46.193 134.18 46.5684 133.943 46.8989C133.71 47.2254 133.404 47.4825 133.025 47.6702C132.649 47.8538 132.235 47.9457 131.782 47.9457C131.321 47.9457 130.913 47.862 130.558 47.6947C130.207 47.5274 129.913 47.2948 129.677 46.9969C129.44 46.6949 129.26 46.344 129.138 45.944C129.02 45.5401 128.96 45.1055 128.96 44.6402V44.3832C128.96 43.918 129.02 43.4854 129.138 43.0855C129.26 42.6815 129.44 42.3305 129.677 42.0326C129.913 41.7307 130.207 41.496 130.558 41.3287C130.909 41.1614 131.315 41.0777 131.776 41.0777C132.25 41.0777 132.674 41.1736 133.049 41.3654C133.429 41.5572 133.731 41.8286 133.955 42.1795C134.184 42.5305 134.308 42.9467 134.329 43.4283H133.631C133.61 43.0732 133.517 42.7672 133.349 42.5101C133.182 42.253 132.962 42.0551 132.688 41.9163C132.415 41.7776 132.111 41.7082 131.776 41.7082C131.401 41.7082 131.08 41.7817 130.815 41.9286C130.55 42.0714 130.334 42.2693 130.166 42.5223C130.003 42.7713 129.883 43.0569 129.805 43.3793C129.728 43.6976 129.689 44.0322 129.689 44.3832V44.6402C129.689 44.9953 129.726 45.334 129.799 45.6564C129.877 45.9747 129.997 46.2583 130.16 46.5072C130.327 46.7561 130.544 46.954 130.809 47.1009C131.078 47.2438 131.403 47.3152 131.782 47.3152ZM135.4 44.6158V44.4138C135.4 43.9322 135.469 43.4874 135.608 43.0794C135.747 42.6713 135.945 42.3183 136.202 42.0204C136.463 41.7225 136.775 41.4919 137.138 41.3287C137.501 41.1614 137.905 41.0777 138.35 41.0777C138.799 41.0777 139.205 41.1614 139.568 41.3287C139.932 41.4919 140.244 41.7225 140.505 42.0204C140.766 42.3183 140.966 42.6713 141.105 43.0794C141.244 43.4874 141.313 43.9322 141.313 44.4138V44.6158C141.313 45.0973 141.244 45.5421 141.105 45.9502C140.966 46.3542 140.766 46.7051 140.505 47.003C140.248 47.3009 139.938 47.5335 139.574 47.7008C139.211 47.864 138.807 47.9457 138.362 47.9457C137.914 47.9457 137.508 47.864 137.144 47.7008C136.781 47.5335 136.469 47.3009 136.208 47.003C135.947 46.7051 135.747 46.3542 135.608 45.9502C135.469 45.5421 135.4 45.0973 135.4 44.6158ZM136.128 44.4138V44.6158C136.128 44.9789 136.177 45.3238 136.275 45.6502C136.373 45.9726 136.516 46.2603 136.704 46.5133C136.891 46.7622 137.124 46.9581 137.401 47.1009C137.679 47.2438 137.999 47.3152 138.362 47.3152C138.722 47.3152 139.038 47.2438 139.311 47.1009C139.589 46.9581 139.821 46.7622 140.009 46.5133C140.197 46.2603 140.338 45.9726 140.431 45.6502C140.529 45.3238 140.578 44.9789 140.578 44.6158V44.4138C140.578 44.0547 140.529 43.7139 140.431 43.3915C140.338 43.0692 140.195 42.7815 140.003 42.5284C139.815 42.2754 139.583 42.0755 139.305 41.9286C139.028 41.7817 138.709 41.7082 138.35 41.7082C137.991 41.7082 137.673 41.7817 137.395 41.9286C137.122 42.0755 136.889 42.2754 136.698 42.5284C136.51 42.7815 136.367 43.0692 136.269 43.3915C136.175 43.7139 136.128 44.0547 136.128 44.4138ZM143.645 38.4212V47.8232H142.917V38.4212H143.645ZM145.579 47.3764C145.579 47.2336 145.624 47.1132 145.714 47.0153C145.808 46.9132 145.934 46.8622 146.094 46.8622C146.257 46.8622 146.385 46.9112 146.479 47.0091C146.573 47.1071 146.62 47.2295 146.62 47.3764C146.62 47.5151 146.573 47.6335 146.479 47.7314C146.385 47.8294 146.257 47.8783 146.094 47.8783C145.934 47.8783 145.808 47.8294 145.714 47.7314C145.624 47.6335 145.579 47.5151 145.579 47.3764Z" fill="#FDFBF9"/>
<path d="M642.061 558.335V559.296H637.605V558.335H642.061ZM637.838 550.384V559.296H636.656V550.384H637.838ZM645.991 559.418C645.53 559.418 645.112 559.341 644.736 559.186C644.365 559.027 644.045 558.804 643.775 558.519C643.51 558.233 643.306 557.894 643.163 557.502C643.02 557.111 642.949 556.682 642.949 556.217V555.96C642.949 555.421 643.029 554.942 643.188 554.521C643.347 554.097 643.563 553.738 643.837 553.444C644.11 553.15 644.42 552.928 644.767 552.777C645.114 552.626 645.473 552.55 645.844 552.55C646.318 552.55 646.726 552.632 647.068 552.795C647.415 552.958 647.699 553.187 647.919 553.481C648.14 553.771 648.303 554.113 648.409 554.509C648.515 554.901 648.568 555.329 648.568 555.795V556.303H643.622V555.378H647.436V555.293C647.419 554.999 647.358 554.713 647.252 554.436C647.15 554.158 646.987 553.93 646.762 553.75C646.538 553.571 646.232 553.481 645.844 553.481C645.587 553.481 645.35 553.536 645.134 553.646C644.918 553.752 644.732 553.911 644.577 554.124C644.422 554.336 644.302 554.595 644.216 554.901C644.13 555.207 644.087 555.56 644.087 555.96V556.217C644.087 556.531 644.13 556.827 644.216 557.105C644.306 557.378 644.434 557.619 644.602 557.827C644.773 558.035 644.979 558.198 645.22 558.317C645.465 558.435 645.742 558.494 646.052 558.494C646.452 558.494 646.791 558.412 647.068 558.249C647.346 558.086 647.589 557.868 647.797 557.594L648.482 558.139C648.34 558.355 648.158 558.561 647.938 558.757C647.717 558.953 647.446 559.112 647.124 559.235C646.805 559.357 646.428 559.418 645.991 559.418ZM654.181 552.673H655.21V559.155C655.21 559.739 655.091 560.237 654.855 560.649C654.618 561.061 654.287 561.373 653.863 561.585C653.443 561.801 652.957 561.91 652.406 561.91C652.178 561.91 651.908 561.873 651.598 561.799C651.292 561.73 650.99 561.61 650.692 561.438C650.398 561.271 650.152 561.045 649.952 560.759L650.545 560.086C650.823 560.42 651.113 560.653 651.415 560.783C651.721 560.914 652.023 560.979 652.32 560.979C652.68 560.979 652.99 560.912 653.251 560.777C653.512 560.643 653.714 560.443 653.857 560.177C654.004 559.916 654.077 559.594 654.077 559.21V554.13L654.181 552.673ZM649.621 556.058V555.929C649.621 555.423 649.68 554.964 649.799 554.552C649.921 554.136 650.094 553.779 650.319 553.481C650.547 553.183 650.823 552.954 651.145 552.795C651.468 552.632 651.831 552.55 652.235 552.55C652.651 552.55 653.014 552.624 653.324 552.771C653.639 552.914 653.904 553.124 654.12 553.401C654.34 553.675 654.514 554.005 654.64 554.393C654.767 554.781 654.855 555.219 654.904 555.709V556.272C654.859 556.758 654.771 557.194 654.64 557.582C654.514 557.97 654.34 558.3 654.12 558.574C653.904 558.847 653.639 559.057 653.324 559.204C653.01 559.347 652.643 559.418 652.222 559.418C651.827 559.418 651.468 559.335 651.145 559.167C650.827 559 650.553 558.765 650.325 558.463C650.096 558.161 649.921 557.806 649.799 557.398C649.68 556.986 649.621 556.539 649.621 556.058ZM650.753 555.929V556.058C650.753 556.388 650.786 556.698 650.851 556.988C650.921 557.278 651.025 557.533 651.164 557.753C651.306 557.974 651.488 558.147 651.708 558.274C651.929 558.396 652.192 558.457 652.498 558.457C652.873 558.457 653.184 558.378 653.428 558.219C653.673 558.059 653.867 557.849 654.01 557.588C654.157 557.327 654.271 557.043 654.353 556.737V555.262C654.308 555.038 654.238 554.821 654.145 554.613C654.055 554.401 653.936 554.213 653.79 554.05C653.647 553.883 653.469 553.75 653.257 553.652C653.045 553.554 652.796 553.505 652.51 553.505C652.2 553.505 651.933 553.571 651.708 553.701C651.488 553.828 651.306 554.003 651.164 554.228C651.025 554.448 650.921 554.705 650.851 554.999C650.786 555.289 650.753 555.599 650.753 555.929ZM659.678 559.418C659.217 559.418 658.799 559.341 658.423 559.186C658.052 559.027 657.732 558.804 657.462 558.519C657.197 558.233 656.993 557.894 656.85 557.502C656.707 557.111 656.636 556.682 656.636 556.217V555.96C656.636 555.421 656.715 554.942 656.875 554.521C657.034 554.097 657.25 553.738 657.523 553.444C657.797 553.15 658.107 552.928 658.454 552.777C658.801 552.626 659.16 552.55 659.531 552.55C660.005 552.55 660.413 552.632 660.755 552.795C661.102 552.958 661.386 553.187 661.606 553.481C661.827 553.771 661.99 554.113 662.096 554.509C662.202 554.901 662.255 555.329 662.255 555.795V556.303H657.309V555.378H661.123V555.293C661.106 554.999 661.045 554.713 660.939 554.436C660.837 554.158 660.674 553.93 660.449 553.75C660.225 553.571 659.919 553.481 659.531 553.481C659.274 553.481 659.037 553.536 658.821 553.646C658.605 553.752 658.419 553.911 658.264 554.124C658.109 554.336 657.989 554.595 657.903 554.901C657.817 555.207 657.774 555.56 657.774 555.96V556.217C657.774 556.531 657.817 556.827 657.903 557.105C657.993 557.378 658.121 557.619 658.289 557.827C658.46 558.035 658.666 558.198 658.907 558.317C659.152 558.435 659.429 558.494 659.739 558.494C660.139 558.494 660.478 558.412 660.755 558.249C661.033 558.086 661.276 557.868 661.484 557.594L662.169 558.139C662.027 558.355 661.845 558.561 661.625 558.757C661.404 558.953 661.133 559.112 660.81 559.235C660.492 559.357 660.115 559.418 659.678 559.418ZM664.71 554.087V559.296H663.577V552.673H664.648L664.71 554.087ZM664.44 555.733L663.969 555.715C663.973 555.262 664.04 554.844 664.171 554.46C664.302 554.073 664.485 553.736 664.722 553.45C664.959 553.165 665.24 552.944 665.567 552.789C665.897 552.63 666.262 552.55 666.662 552.55C666.989 552.55 667.283 552.595 667.544 552.685C667.805 552.771 668.027 552.91 668.211 553.101C668.399 553.293 668.541 553.542 668.639 553.848C668.737 554.15 668.786 554.519 668.786 554.956V559.296H667.648V554.944C667.648 554.597 667.597 554.319 667.495 554.111C667.393 553.899 667.244 553.746 667.048 553.652C666.852 553.554 666.611 553.505 666.326 553.505C666.044 553.505 665.787 553.564 665.554 553.683C665.326 553.801 665.128 553.964 664.961 554.172C664.797 554.381 664.669 554.619 664.575 554.889C664.485 555.154 664.44 555.435 664.44 555.733ZM674.681 558.01V549.894H675.82V559.296H674.779L674.681 558.01ZM670.225 556.058V555.929C670.225 555.423 670.286 554.964 670.408 554.552C670.535 554.136 670.712 553.779 670.941 553.481C671.174 553.183 671.449 552.954 671.767 552.795C672.09 552.632 672.449 552.55 672.845 552.55C673.261 552.55 673.624 552.624 673.934 552.771C674.248 552.914 674.514 553.124 674.73 553.401C674.95 553.675 675.124 554.005 675.25 554.393C675.377 554.781 675.464 555.219 675.513 555.709V556.272C675.469 556.758 675.381 557.194 675.25 557.582C675.124 557.97 674.95 558.3 674.73 558.574C674.514 558.847 674.248 559.057 673.934 559.204C673.62 559.347 673.253 559.418 672.832 559.418C672.445 559.418 672.09 559.335 671.767 559.167C671.449 559 671.174 558.765 670.941 558.463C670.712 558.161 670.535 557.806 670.408 557.398C670.286 556.986 670.225 556.539 670.225 556.058ZM671.363 555.929V556.058C671.363 556.388 671.396 556.698 671.461 556.988C671.531 557.278 671.637 557.533 671.78 557.753C671.922 557.974 672.104 558.147 672.324 558.274C672.545 558.396 672.808 558.457 673.114 558.457C673.489 558.457 673.797 558.378 674.038 558.219C674.283 558.059 674.479 557.849 674.626 557.588C674.773 557.327 674.887 557.043 674.969 556.737V555.262C674.92 555.038 674.848 554.821 674.754 554.613C674.665 554.401 674.546 554.213 674.399 554.05C674.257 553.883 674.079 553.75 673.867 553.652C673.659 553.554 673.412 553.505 673.126 553.505C672.816 553.505 672.549 553.571 672.324 553.701C672.104 553.828 671.922 554.003 671.78 554.228C671.637 554.448 671.531 554.705 671.461 554.999C671.396 555.289 671.363 555.599 671.363 555.929ZM681.488 558.163V554.754C681.488 554.493 681.435 554.266 681.329 554.075C681.227 553.879 681.071 553.728 680.863 553.622C680.655 553.515 680.398 553.462 680.092 553.462C679.806 553.462 679.555 553.511 679.339 553.609C679.127 553.707 678.96 553.836 678.837 553.995C678.719 554.154 678.66 554.326 678.66 554.509H677.527C677.527 554.272 677.589 554.038 677.711 553.805C677.833 553.573 678.009 553.362 678.237 553.175C678.47 552.983 678.747 552.832 679.07 552.722C679.396 552.608 679.759 552.55 680.159 552.55C680.641 552.55 681.065 552.632 681.433 552.795C681.804 552.958 682.094 553.205 682.302 553.536C682.514 553.862 682.62 554.272 682.62 554.766V557.851C682.62 558.072 682.638 558.306 682.675 558.555C682.716 558.804 682.775 559.018 682.853 559.198V559.296H681.671C681.614 559.165 681.569 558.992 681.537 558.776C681.504 558.555 681.488 558.351 681.488 558.163ZM681.684 555.28L681.696 556.076H680.551C680.229 556.076 679.941 556.103 679.688 556.156C679.435 556.205 679.223 556.28 679.051 556.382C678.88 556.484 678.75 556.613 678.66 556.768C678.57 556.919 678.525 557.096 678.525 557.3C678.525 557.509 678.572 557.698 678.666 557.87C678.76 558.041 678.9 558.178 679.088 558.28C679.28 558.378 679.515 558.427 679.792 558.427C680.139 558.427 680.445 558.353 680.71 558.206C680.976 558.059 681.186 557.88 681.341 557.668C681.5 557.455 681.586 557.249 681.598 557.049L682.081 557.594C682.053 557.766 681.975 557.955 681.849 558.163C681.722 558.372 681.553 558.572 681.341 558.763C681.133 558.951 680.884 559.108 680.594 559.235C680.308 559.357 679.986 559.418 679.627 559.418C679.178 559.418 678.784 559.331 678.445 559.155C678.111 558.98 677.85 558.745 677.662 558.451C677.478 558.153 677.387 557.821 677.387 557.453C677.387 557.098 677.456 556.786 677.595 556.517C677.733 556.243 677.933 556.017 678.195 555.837C678.456 555.654 678.77 555.515 679.137 555.421C679.504 555.327 679.915 555.28 680.368 555.28H681.684ZM688.564 554.889L687.988 554.723L688.423 550.384H692.879V551.069H689.047L688.735 554.068C688.89 553.958 689.115 553.85 689.408 553.744C689.706 553.634 690.041 553.579 690.412 553.579C690.808 553.579 691.167 553.646 691.49 553.781C691.816 553.911 692.096 554.103 692.328 554.356C692.561 554.605 692.74 554.907 692.867 555.262C692.993 555.613 693.057 556.011 693.057 556.456C693.057 556.884 693.004 557.278 692.898 557.637C692.791 557.996 692.63 558.31 692.414 558.58C692.198 558.845 691.922 559.051 691.588 559.198C691.253 559.345 690.855 559.418 690.394 559.418C690.039 559.418 689.704 559.369 689.39 559.271C689.08 559.169 688.802 559.016 688.558 558.812C688.313 558.608 688.113 558.351 687.958 558.041C687.807 557.731 687.713 557.368 687.676 556.951H688.38C688.429 557.351 688.537 557.688 688.705 557.961C688.872 558.235 689.096 558.441 689.378 558.58C689.664 558.718 690.002 558.788 690.394 558.788C690.712 558.788 690.99 558.737 691.226 558.635C691.467 558.533 691.667 558.384 691.826 558.188C691.99 557.988 692.112 557.745 692.194 557.46C692.279 557.17 692.322 556.839 692.322 556.468C692.322 556.15 692.277 555.858 692.187 555.593C692.098 555.323 691.965 555.089 691.79 554.889C691.618 554.685 691.406 554.528 691.153 554.417C690.9 554.307 690.61 554.252 690.284 554.252C689.859 554.252 689.521 554.309 689.268 554.423C689.019 554.538 688.784 554.693 688.564 554.889ZM700.065 558.788C700.376 558.788 700.665 558.731 700.935 558.616C701.208 558.498 701.432 558.325 701.608 558.096C701.787 557.864 701.889 557.58 701.914 557.245H702.612C702.591 557.666 702.463 558.041 702.226 558.372C701.994 558.698 701.687 558.955 701.308 559.143C700.933 559.327 700.518 559.418 700.065 559.418C699.604 559.418 699.196 559.335 698.841 559.167C698.49 559 698.196 558.767 697.96 558.47C697.723 558.168 697.543 557.817 697.421 557.417C697.303 557.013 697.244 556.578 697.244 556.113V555.856C697.244 555.391 697.303 554.958 697.421 554.558C697.543 554.154 697.723 553.803 697.96 553.505C698.196 553.203 698.49 552.969 698.841 552.801C699.192 552.634 699.598 552.55 700.059 552.55C700.533 552.55 700.957 552.646 701.332 552.838C701.712 553.03 702.014 553.301 702.238 553.652C702.467 554.003 702.591 554.419 702.612 554.901H701.914C701.894 554.546 701.8 554.24 701.632 553.983C701.465 553.726 701.245 553.528 700.971 553.389C700.698 553.25 700.394 553.181 700.059 553.181C699.684 553.181 699.363 553.254 699.098 553.401C698.833 553.544 698.617 553.742 698.449 553.995C698.286 554.244 698.166 554.53 698.088 554.852C698.011 555.17 697.972 555.505 697.972 555.856V556.113C697.972 556.468 698.009 556.807 698.082 557.129C698.16 557.447 698.28 557.731 698.443 557.98C698.611 558.229 698.827 558.427 699.092 558.574C699.361 558.716 699.686 558.788 700.065 558.788ZM703.683 556.088V555.886C703.683 555.405 703.752 554.96 703.891 554.552C704.03 554.144 704.228 553.791 704.485 553.493C704.746 553.195 705.058 552.965 705.421 552.801C705.785 552.634 706.189 552.55 706.633 552.55C707.082 552.55 707.488 552.634 707.851 552.801C708.215 552.965 708.527 553.195 708.788 553.493C709.049 553.791 709.249 554.144 709.388 554.552C709.527 554.96 709.596 555.405 709.596 555.886V556.088C709.596 556.57 709.527 557.015 709.388 557.423C709.249 557.827 709.049 558.178 708.788 558.476C708.531 558.774 708.221 559.006 707.858 559.173C707.494 559.337 707.09 559.418 706.646 559.418C706.197 559.418 705.791 559.337 705.428 559.173C705.064 559.006 704.752 558.774 704.491 558.476C704.23 558.178 704.03 557.827 703.891 557.423C703.752 557.015 703.683 556.57 703.683 556.088ZM704.411 555.886V556.088C704.411 556.452 704.46 556.796 704.558 557.123C704.656 557.445 704.799 557.733 704.987 557.986C705.175 558.235 705.407 558.431 705.685 558.574C705.962 558.716 706.282 558.788 706.646 558.788C707.005 558.788 707.321 558.716 707.594 558.574C707.872 558.431 708.104 558.235 708.292 557.986C708.48 557.733 708.621 557.445 708.715 557.123C708.813 556.796 708.861 556.452 708.861 556.088V555.886C708.861 555.527 708.813 555.187 708.715 554.864C708.621 554.542 708.478 554.254 708.286 554.001C708.098 553.748 707.866 553.548 707.588 553.401C707.311 553.254 706.992 553.181 706.633 553.181C706.274 553.181 705.956 553.254 705.678 553.401C705.405 553.548 705.172 553.748 704.981 554.001C704.793 554.254 704.65 554.542 704.552 554.864C704.458 555.187 704.411 555.527 704.411 555.886ZM711.928 549.894V559.296H711.2V549.894H711.928ZM713.862 558.849C713.862 558.706 713.907 558.586 713.997 558.488C714.091 558.386 714.217 558.335 714.377 558.335C714.54 558.335 714.668 558.384 714.762 558.482C714.856 558.58 714.903 558.702 714.903 558.849C714.903 558.988 714.856 559.106 714.762 559.204C714.668 559.302 714.54 559.351 714.377 559.351C714.217 559.351 714.091 559.302 713.997 559.204C713.907 559.106 713.862 558.988 713.862 558.849Z" fill="#FDFBF9"/>
</svg>
