<svg width="728" height="405" viewBox="0 0 728 405" fill="none" xmlns="http://www.w3.org/2000/svg">
<rect x="0.845703" y="0.72168" width="727.094" height="403.663" rx="11.1571" fill="#0567FF" fill-opacity="0.25"/>
<rect x="6.4375" y="6.62695" width="23.6561" height="391.297" fill="#FDFBF9" fill-opacity="0.1"/>
<rect x="35.9473" y="6.62695" width="23.6561" height="391.297" fill="#FDFBF9" fill-opacity="0.1"/>
<rect x="66.0332" y="6.62695" width="23.6561" height="391.297" fill="#FDFBF9" fill-opacity="0.1"/>
<rect x="96.1191" y="6.62695" width="23.6561" height="391.297" fill="#FDFBF9" fill-opacity="0.1"/>
<rect x="126.207" y="6.62695" width="23.6561" height="391.297" fill="#FDFBF9" fill-opacity="0.1"/>
<rect x="156.293" y="6.62695" width="23.6561" height="391.297" fill="#FDFBF9" fill-opacity="0.1"/>
<rect x="186.379" y="6.62695" width="23.6561" height="391.297" fill="#FDFBF9" fill-opacity="0.1"/>
<rect x="216.467" y="6.62695" width="23.6561" height="391.297" fill="#FDFBF9" fill-opacity="0.1"/>
<rect x="246.553" y="6.62695" width="23.6561" height="391.297" fill="#FDFBF9" fill-opacity="0.1"/>
<rect x="276.641" y="6.62695" width="23.6561" height="391.297" fill="#FDFBF9" fill-opacity="0.1"/>
<rect x="306.727" y="6.62695" width="23.6561" height="391.297" fill="#FDFBF9" fill-opacity="0.1"/>
<rect x="336.812" y="6.62695" width="23.6561" height="391.297" fill="#FDFBF9" fill-opacity="0.1"/>
<rect x="366.9" y="6.62695" width="23.6561" height="391.297" fill="#FDFBF9" fill-opacity="0.1"/>
<rect x="396.986" y="6.62695" width="23.6561" height="391.297" fill="#FDFBF9" fill-opacity="0.1"/>
<rect x="427.072" y="6.62695" width="23.6561" height="391.297" fill="#FDFBF9" fill-opacity="0.1"/>
<rect x="457.16" y="6.62695" width="23.6561" height="391.297" fill="#FDFBF9" fill-opacity="0.1"/>
<rect x="487.246" y="6.62695" width="23.6561" height="391.297" fill="#FDFBF9" fill-opacity="0.1"/>
<rect x="517.332" y="6.62695" width="23.6561" height="391.297" fill="#FDFBF9" fill-opacity="0.1"/>
<rect x="547.42" y="6.62695" width="23.6561" height="391.297" fill="#FDFBF9" fill-opacity="0.1"/>
<rect x="577.506" y="6.62695" width="23.6561" height="391.297" fill="#FDFBF9" fill-opacity="0.1"/>
<rect x="607.594" y="6.62695" width="23.6561" height="391.297" fill="#FDFBF9" fill-opacity="0.1"/>
<rect x="637.68" y="6.62695" width="23.6561" height="391.297" fill="#FDFBF9" fill-opacity="0.1"/>
<rect x="667.766" y="6.62695" width="23.6561" height="391.297" fill="#FDFBF9" fill-opacity="0.1"/>
<rect x="697.854" y="6.62695" width="23.6561" height="391.297" fill="#FDFBF9" fill-opacity="0.1"/>
<rect x="5.85938" y="33.3154" width="142.912" height="25.0722" rx="11.1631" fill="#0567FF" fill-opacity="0.5"/>
<rect x="5.85938" y="65.9092" width="142.912" height="155.448" rx="11.1631" fill="#0567FF" fill-opacity="0.5"/>
<rect x="396.986" y="351.733" width="142.912" height="45.13" rx="11.1631" fill="#0567FF" fill-opacity="0.5"/>
<rect x="547.42" y="33.3154" width="172.998" height="363.547" rx="11.1631" fill="#0567FF" fill-opacity="0.5"/>
<path d="M727.939 25.7129L0.84552 25.7128L0.845521 11.887C0.845522 5.72051 5.84444 0.721586 12.0109 0.721587L716.774 0.721648C722.941 0.721649 727.939 5.72056 727.939 11.887L727.939 25.7129Z" fill="#0567FF"/>
<path d="M300.993 182.838H303.74L310.748 200.276L317.74 182.838H320.502L311.805 204.228H309.661L300.993 182.838ZM300.097 182.838H302.521L302.917 195.883V204.228H300.097V182.838ZM318.96 182.838H321.384V204.228H318.563V195.883L318.96 182.838ZM335.325 201.51V193.327C335.325 192.7 335.198 192.157 334.943 191.696C334.698 191.226 334.326 190.864 333.827 190.609C333.327 190.355 332.71 190.227 331.976 190.227C331.29 190.227 330.688 190.345 330.169 190.58C329.66 190.815 329.258 191.123 328.964 191.505C328.68 191.887 328.538 192.299 328.538 192.739H325.82C325.82 192.171 325.967 191.608 326.261 191.05C326.555 190.492 326.976 189.987 327.524 189.537C328.083 189.076 328.749 188.714 329.522 188.45C330.306 188.175 331.178 188.038 332.137 188.038C333.293 188.038 334.312 188.234 335.193 188.626C336.084 189.018 336.78 189.61 337.279 190.404C337.788 191.187 338.043 192.171 338.043 193.356V200.761C338.043 201.289 338.087 201.853 338.175 202.45C338.273 203.047 338.415 203.562 338.601 203.992V204.228H335.766C335.629 203.914 335.521 203.498 335.443 202.979C335.364 202.45 335.325 201.96 335.325 201.51ZM335.795 194.59L335.825 196.5H333.078C332.304 196.5 331.613 196.564 331.006 196.691C330.399 196.809 329.89 196.99 329.478 197.235C329.067 197.48 328.754 197.788 328.538 198.16C328.323 198.523 328.215 198.949 328.215 199.438C328.215 199.938 328.328 200.393 328.553 200.805C328.778 201.216 329.116 201.544 329.567 201.789C330.027 202.024 330.59 202.141 331.256 202.141C332.088 202.141 332.823 201.965 333.46 201.613C334.096 201.26 334.601 200.829 334.973 200.32C335.355 199.811 335.56 199.316 335.59 198.836L336.75 200.144C336.682 200.555 336.496 201.01 336.192 201.51C335.888 202.009 335.482 202.489 334.973 202.949C334.473 203.4 333.876 203.777 333.18 204.081C332.495 204.374 331.721 204.521 330.859 204.521C329.782 204.521 328.837 204.311 328.024 203.89C327.221 203.469 326.594 202.905 326.144 202.2C325.703 201.485 325.482 200.687 325.482 199.806C325.482 198.954 325.649 198.204 325.982 197.558C326.315 196.902 326.795 196.358 327.422 195.927C328.048 195.487 328.803 195.154 329.684 194.928C330.565 194.703 331.55 194.59 332.637 194.59H335.795ZM345.036 191.388V210.339H342.303V188.332H344.801L345.036 191.388ZM355.745 196.148V196.456C355.745 197.612 355.608 198.684 355.334 199.673C355.06 200.653 354.658 201.505 354.129 202.23C353.61 202.954 352.969 203.517 352.205 203.919C351.441 204.321 350.564 204.521 349.575 204.521C348.567 204.521 347.675 204.355 346.902 204.022C346.128 203.689 345.472 203.204 344.933 202.567C344.394 201.931 343.963 201.167 343.64 200.276C343.327 199.384 343.111 198.381 342.994 197.264V195.619C343.111 194.443 343.332 193.391 343.655 192.46C343.978 191.53 344.404 190.737 344.933 190.08C345.472 189.414 346.123 188.91 346.887 188.567C347.651 188.215 348.532 188.038 349.531 188.038C350.53 188.038 351.417 188.234 352.19 188.626C352.964 189.008 353.615 189.556 354.144 190.271C354.673 190.986 355.07 191.843 355.334 192.842C355.608 193.831 355.745 194.933 355.745 196.148ZM353.013 196.456V196.148C353.013 195.354 352.93 194.61 352.763 193.915C352.597 193.209 352.337 192.592 351.985 192.064C351.642 191.525 351.201 191.104 350.662 190.8C350.124 190.487 349.482 190.33 348.738 190.33C348.052 190.33 347.455 190.448 346.946 190.683C346.446 190.918 346.02 191.236 345.668 191.638C345.315 192.029 345.026 192.48 344.801 192.989C344.585 193.489 344.424 194.008 344.316 194.546V198.351C344.512 199.037 344.786 199.683 345.139 200.29C345.491 200.888 345.961 201.373 346.549 201.745C347.137 202.107 347.876 202.288 348.767 202.288C349.502 202.288 350.134 202.137 350.662 201.833C351.201 201.52 351.642 201.094 351.985 200.555C352.337 200.016 352.597 199.399 352.763 198.704C352.93 197.999 353.013 197.249 353.013 196.456ZM368.585 201.51V193.327C368.585 192.7 368.458 192.157 368.203 191.696C367.958 191.226 367.586 190.864 367.087 190.609C366.587 190.355 365.97 190.227 365.236 190.227C364.55 190.227 363.948 190.345 363.429 190.58C362.919 190.815 362.518 191.123 362.224 191.505C361.94 191.887 361.798 192.299 361.798 192.739H359.08C359.08 192.171 359.227 191.608 359.521 191.05C359.815 190.492 360.236 189.987 360.784 189.537C361.343 189.076 362.009 188.714 362.782 188.45C363.566 188.175 364.437 188.038 365.397 188.038C366.553 188.038 367.571 188.234 368.453 188.626C369.344 189.018 370.04 189.61 370.539 190.404C371.048 191.187 371.303 192.171 371.303 193.356V200.761C371.303 201.289 371.347 201.853 371.435 202.45C371.533 203.047 371.675 203.562 371.861 203.992V204.228H369.026C368.889 203.914 368.781 203.498 368.703 202.979C368.624 202.45 368.585 201.96 368.585 201.51ZM369.055 194.59L369.085 196.5H366.337C365.564 196.5 364.873 196.564 364.266 196.691C363.659 196.809 363.15 196.99 362.738 197.235C362.327 197.48 362.013 197.788 361.798 198.16C361.583 198.523 361.475 198.949 361.475 199.438C361.475 199.938 361.587 200.393 361.813 200.805C362.038 201.216 362.376 201.544 362.826 201.789C363.287 202.024 363.85 202.141 364.516 202.141C365.348 202.141 366.083 201.965 366.719 201.613C367.356 201.26 367.86 200.829 368.233 200.32C368.615 199.811 368.82 199.316 368.85 198.836L370.01 200.144C369.942 200.555 369.756 201.01 369.452 201.51C369.148 202.009 368.742 202.489 368.233 202.949C367.733 203.4 367.136 203.777 366.44 204.081C365.755 204.374 364.981 204.521 364.119 204.521C363.042 204.521 362.097 204.311 361.284 203.89C360.481 203.469 359.854 202.905 359.403 202.2C358.963 201.485 358.742 200.687 358.742 199.806C358.742 198.954 358.909 198.204 359.242 197.558C359.575 196.902 360.055 196.358 360.682 195.927C361.308 195.487 362.062 195.154 362.944 194.928C363.825 194.703 364.81 194.59 365.897 194.59H369.055ZM307.783 215.329V233.228H306.326V217.178L301.478 218.978V217.594L307.538 215.329H307.783ZM325.84 228.502C325.84 229.579 325.587 230.489 325.081 231.232C324.583 231.975 323.906 232.534 323.049 232.909C322.192 233.285 321.233 233.472 320.172 233.472C319.103 233.472 318.14 233.285 317.283 232.909C316.426 232.534 315.744 231.975 315.238 231.232C314.74 230.489 314.491 229.579 314.491 228.502C314.491 227.792 314.63 227.147 314.908 226.568C315.193 225.98 315.589 225.474 316.095 225.05C316.609 224.617 317.209 224.283 317.895 224.046C318.58 223.809 319.331 223.691 320.147 223.691C321.225 223.691 322.192 223.899 323.049 224.315C323.906 224.723 324.583 225.286 325.081 226.005C325.587 226.723 325.84 227.555 325.84 228.502ZM324.371 228.502C324.371 227.743 324.187 227.078 323.82 226.507C323.453 225.935 322.951 225.494 322.314 225.184C321.678 224.866 320.955 224.707 320.147 224.707C319.331 224.707 318.609 224.866 317.98 225.184C317.352 225.494 316.858 225.935 316.499 226.507C316.14 227.078 315.96 227.743 315.96 228.502C315.96 229.294 316.136 229.967 316.487 230.522C316.846 231.077 317.344 231.497 317.98 231.783C318.617 232.069 319.347 232.211 320.172 232.211C320.996 232.211 321.722 232.069 322.351 231.783C322.979 231.497 323.473 231.077 323.832 230.522C324.191 229.967 324.371 229.294 324.371 228.502ZM325.375 219.981C325.375 220.855 325.142 221.634 324.677 222.32C324.22 222.997 323.6 223.532 322.816 223.923C322.033 224.307 321.147 224.499 320.16 224.499C319.164 224.499 318.27 224.307 317.478 223.923C316.695 223.532 316.075 222.997 315.618 222.32C315.169 221.634 314.944 220.855 314.944 219.981C314.944 218.945 315.169 218.072 315.618 217.362C316.075 216.643 316.695 216.096 317.478 215.721C318.262 215.346 319.152 215.158 320.147 215.158C321.135 215.158 322.02 215.346 322.804 215.721C323.596 216.096 324.22 216.643 324.677 217.362C325.142 218.072 325.375 218.945 325.375 219.981ZM323.918 219.969C323.918 219.275 323.751 218.663 323.416 218.133C323.09 217.602 322.641 217.186 322.069 216.884C321.506 216.574 320.866 216.419 320.147 216.419C319.421 216.419 318.776 216.562 318.213 216.847C317.658 217.133 317.217 217.541 316.891 218.072C316.573 218.602 316.413 219.235 316.413 219.969C316.413 220.687 316.573 221.308 316.891 221.83C317.217 222.344 317.662 222.744 318.225 223.03C318.788 223.315 319.433 223.458 320.16 223.458C320.886 223.458 321.531 223.315 322.094 223.03C322.657 222.744 323.102 222.344 323.428 221.83C323.755 221.308 323.918 220.687 323.918 219.969ZM340.029 232.211C340.649 232.211 341.229 232.097 341.767 231.869C342.314 231.632 342.763 231.285 343.114 230.828C343.473 230.363 343.677 229.796 343.726 229.126H345.122C345.081 229.967 344.824 230.718 344.35 231.379C343.885 232.032 343.273 232.546 342.514 232.921C341.763 233.289 340.935 233.472 340.029 233.472C339.107 233.472 338.29 233.305 337.58 232.97C336.878 232.636 336.291 232.171 335.817 231.575C335.344 230.971 334.985 230.269 334.74 229.469C334.503 228.661 334.385 227.792 334.385 226.862V226.347C334.385 225.417 334.503 224.552 334.74 223.752C334.985 222.944 335.344 222.242 335.817 221.646C336.291 221.042 336.878 220.573 337.58 220.238C338.282 219.904 339.094 219.737 340.017 219.737C340.963 219.737 341.812 219.928 342.563 220.312C343.322 220.696 343.926 221.238 344.375 221.94C344.832 222.642 345.081 223.475 345.122 224.438H343.726C343.685 223.728 343.497 223.115 343.163 222.601C342.828 222.087 342.387 221.691 341.841 221.414C341.294 221.136 340.686 220.997 340.017 220.997C339.266 220.997 338.625 221.144 338.094 221.438C337.564 221.724 337.131 222.12 336.797 222.626C336.47 223.124 336.23 223.695 336.075 224.34C335.919 224.976 335.842 225.645 335.842 226.347V226.862C335.842 227.572 335.915 228.249 336.062 228.894C336.217 229.53 336.458 230.098 336.785 230.595C337.119 231.093 337.552 231.489 338.082 231.783C338.621 232.069 339.27 232.211 340.029 232.211ZM347.264 226.813V226.409C347.264 225.446 347.403 224.556 347.68 223.74C347.958 222.924 348.354 222.218 348.868 221.622C349.39 221.026 350.014 220.565 350.741 220.238C351.467 219.904 352.275 219.737 353.165 219.737C354.063 219.737 354.875 219.904 355.601 220.238C356.327 220.565 356.952 221.026 357.474 221.622C357.996 222.218 358.396 222.924 358.674 223.74C358.951 224.556 359.09 225.446 359.09 226.409V226.813C359.09 227.776 358.951 228.665 358.674 229.481C358.396 230.289 357.996 230.991 357.474 231.587C356.96 232.183 356.34 232.648 355.613 232.983C354.887 233.309 354.079 233.472 353.189 233.472C352.291 233.472 351.479 233.309 350.753 232.983C350.027 232.648 349.402 232.183 348.88 231.587C348.358 230.991 347.958 230.289 347.68 229.481C347.403 228.665 347.264 227.776 347.264 226.813ZM348.721 226.409V226.813C348.721 227.539 348.819 228.229 349.015 228.882C349.21 229.526 349.496 230.102 349.872 230.608C350.247 231.106 350.712 231.497 351.267 231.783C351.822 232.069 352.463 232.211 353.189 232.211C353.907 232.211 354.54 232.069 355.087 231.783C355.642 231.497 356.107 231.106 356.482 230.608C356.858 230.102 357.139 229.526 357.327 228.882C357.523 228.229 357.621 227.539 357.621 226.813V226.409C357.621 225.69 357.523 225.009 357.327 224.364C357.139 223.719 356.854 223.144 356.47 222.638C356.095 222.132 355.63 221.732 355.075 221.438C354.52 221.144 353.883 220.997 353.165 220.997C352.447 220.997 351.81 221.144 351.255 221.438C350.708 221.732 350.243 222.132 349.859 222.638C349.484 223.144 349.198 223.719 349.002 224.364C348.815 225.009 348.721 225.69 348.721 226.409ZM363.754 214.423V233.228H362.298V214.423H363.754ZM367.623 232.334C367.623 232.048 367.713 231.807 367.892 231.612C368.08 231.408 368.333 231.305 368.651 231.305C368.978 231.305 369.235 231.403 369.423 231.599C369.61 231.795 369.704 232.04 369.704 232.334C369.704 232.611 369.61 232.848 369.423 233.044C369.235 233.24 368.978 233.338 368.651 233.338C368.333 233.338 368.08 233.24 367.892 233.044C367.713 232.848 367.623 232.611 367.623 232.334Z" fill="#606060"/>
<path d="M45.0451 128.012H46.9255C46.8276 128.913 46.5697 129.72 46.1518 130.431C45.7339 131.143 45.143 131.708 44.3791 132.126C43.6152 132.537 42.6619 132.743 41.5193 132.743C40.6836 132.743 39.9229 132.586 39.2374 132.273C38.5583 131.959 37.974 131.515 37.4843 130.941C36.9946 130.36 36.6159 129.664 36.3482 128.855C36.087 128.038 35.9564 127.131 35.9564 126.132V124.712C35.9564 123.713 36.087 122.809 36.3482 121.999C36.6159 121.183 36.9978 120.484 37.4941 119.903C37.9968 119.322 38.6008 118.875 39.3059 118.561C40.0111 118.248 40.8044 118.091 41.6858 118.091C42.7631 118.091 43.674 118.294 44.4183 118.698C45.1626 119.103 45.7405 119.665 46.1518 120.383C46.5697 121.095 46.8276 121.921 46.9255 122.861H45.0451C44.9537 122.195 44.7839 121.623 44.5358 121.147C44.2877 120.664 43.9351 120.292 43.4781 120.03C43.021 119.769 42.4236 119.639 41.6858 119.639C41.0525 119.639 40.4942 119.759 40.0111 120.001C39.5344 120.243 39.1329 120.585 38.8064 121.029C38.4865 121.473 38.2449 122.005 38.0817 122.626C37.9185 123.246 37.8368 123.935 37.8368 124.692V126.132C37.8368 126.831 37.9087 127.487 38.0523 128.1C38.2025 128.714 38.4277 129.253 38.7281 129.716C39.0284 130.18 39.4104 130.546 39.874 130.813C40.3375 131.075 40.886 131.205 41.5193 131.205C42.3224 131.205 42.9623 131.078 43.4389 130.823C43.9156 130.569 44.2747 130.203 44.5162 129.726C44.7643 129.25 44.9406 128.678 45.0451 128.012ZM55.4755 130.735V125.28C55.4755 124.862 55.3907 124.5 55.2209 124.193C55.0577 123.879 54.8096 123.638 54.4766 123.468C54.1436 123.298 53.7322 123.213 53.2425 123.213C52.7855 123.213 52.384 123.292 52.0379 123.448C51.6984 123.605 51.4307 123.811 51.2348 124.065C51.0455 124.32 50.9508 124.594 50.9508 124.888H49.1389C49.1389 124.509 49.2369 124.134 49.4327 123.762C49.6286 123.39 49.9094 123.053 50.275 122.753C50.6472 122.446 51.0912 122.205 51.607 122.028C52.1293 121.845 52.7104 121.754 53.3503 121.754C54.1207 121.754 54.7998 121.885 55.3874 122.146C55.9816 122.407 56.4451 122.802 56.7781 123.331C57.1176 123.853 57.2874 124.509 57.2874 125.299V130.236C57.2874 130.588 57.3168 130.964 57.3755 131.362C57.4408 131.76 57.5355 132.103 57.6596 132.39V132.547H55.7694C55.6779 132.338 55.6061 132.06 55.5539 131.714C55.5017 131.362 55.4755 131.035 55.4755 130.735ZM55.7889 126.122L55.8085 127.395H53.9771C53.4613 127.395 53.001 127.438 52.5962 127.523C52.1913 127.601 51.8518 127.722 51.5776 127.885C51.3034 128.048 51.0944 128.254 50.9508 128.502C50.8071 128.744 50.7353 129.028 50.7353 129.354C50.7353 129.687 50.8104 129.991 50.9606 130.265C51.1108 130.539 51.336 130.758 51.6364 130.921C51.9432 131.078 52.3187 131.156 52.7626 131.156C53.3176 131.156 53.8073 131.039 54.2317 130.804C54.6561 130.569 54.9924 130.281 55.2405 129.942C55.4951 129.602 55.6322 129.272 55.6518 128.953L56.4255 129.824C56.3798 130.098 56.2558 130.402 56.0534 130.735C55.851 131.068 55.58 131.388 55.2405 131.695C54.9075 131.995 54.5092 132.247 54.0456 132.449C53.5886 132.645 53.0728 132.743 52.4982 132.743C51.78 132.743 51.1499 132.602 50.608 132.322C50.0726 132.041 49.6547 131.665 49.3544 131.195C49.0606 130.719 48.9137 130.187 48.9137 129.599C48.9137 129.031 49.0247 128.531 49.2467 128.1C49.4687 127.663 49.7886 127.301 50.2065 127.013C50.6243 126.72 51.1271 126.498 51.7147 126.347C52.3023 126.197 52.9585 126.122 53.6833 126.122H55.7889ZM61.9395 124.056V132.547H60.1178V121.95H61.8415L61.9395 124.056ZM61.5673 126.847L60.725 126.817C60.7316 126.093 60.8262 125.423 61.0091 124.81C61.1919 124.189 61.4628 123.651 61.8219 123.194C62.1811 122.737 62.6283 122.384 63.1637 122.136C63.6991 121.881 64.3194 121.754 65.0245 121.754C65.5208 121.754 65.9778 121.826 66.3957 121.97C66.8135 122.107 67.1759 122.325 67.4828 122.626C67.7897 122.926 68.028 123.311 68.1977 123.781C68.3675 124.251 68.4524 124.82 68.4524 125.486V132.547H66.6405V125.574C66.6405 125.019 66.5458 124.575 66.3565 124.242C66.1737 123.909 65.9125 123.667 65.573 123.517C65.2335 123.36 64.8352 123.282 64.3781 123.282C63.8427 123.282 63.3955 123.377 63.0364 123.566C62.6773 123.755 62.39 124.016 62.1745 124.349C61.9591 124.682 61.8024 125.064 61.7044 125.495C61.613 125.92 61.5673 126.37 61.5673 126.847ZM68.4328 125.848L67.2184 126.22C67.2249 125.639 67.3196 125.081 67.5024 124.545C67.6917 124.01 67.9627 123.533 68.3153 123.115C68.6744 122.698 69.1151 122.368 69.6374 122.126C70.1598 121.878 70.7572 121.754 71.4297 121.754C71.9977 121.754 72.5005 121.829 72.938 121.979C73.3819 122.129 73.7541 122.361 74.0544 122.675C74.3613 122.982 74.5931 123.377 74.7498 123.86C74.9065 124.343 74.9849 124.917 74.9849 125.583V132.547H73.1632V125.564C73.1632 124.97 73.0685 124.509 72.8792 124.183C72.6964 123.85 72.4352 123.618 72.0957 123.488C71.7627 123.35 71.3644 123.282 70.9008 123.282C70.5026 123.282 70.15 123.35 69.8431 123.488C69.5362 123.625 69.2783 123.814 69.0694 124.056C68.8605 124.291 68.7005 124.562 68.5895 124.869C68.485 125.175 68.4328 125.502 68.4328 125.848ZM83.9756 130.735V125.28C83.9756 124.862 83.8907 124.5 83.721 124.193C83.5577 123.879 83.3096 123.638 82.9766 123.468C82.6436 123.298 82.2323 123.213 81.7426 123.213C81.2856 123.213 80.884 123.292 80.538 123.448C80.1984 123.605 79.9308 123.811 79.7349 124.065C79.5455 124.32 79.4509 124.594 79.4509 124.888H77.639C77.639 124.509 77.7369 124.134 77.9328 123.762C78.1287 123.39 78.4094 123.053 78.7751 122.753C79.1472 122.446 79.5912 122.205 80.107 122.028C80.6294 121.845 81.2105 121.754 81.8503 121.754C82.6208 121.754 83.2998 121.885 83.8875 122.146C84.4816 122.407 84.9452 122.802 85.2782 123.331C85.6177 123.853 85.7875 124.509 85.7875 125.299V130.236C85.7875 130.588 85.8168 130.964 85.8756 131.362C85.9409 131.76 86.0356 132.103 86.1596 132.39V132.547H84.2694C84.178 132.338 84.1062 132.06 84.054 131.714C84.0017 131.362 83.9756 131.035 83.9756 130.735ZM84.289 126.122L84.3086 127.395H82.4771C81.9613 127.395 81.501 127.438 81.0962 127.523C80.6914 127.601 80.3519 127.722 80.0777 127.885C79.8034 128.048 79.5945 128.254 79.4509 128.502C79.3072 128.744 79.2354 129.028 79.2354 129.354C79.2354 129.687 79.3105 129.991 79.4606 130.265C79.6108 130.539 79.8361 130.758 80.1364 130.921C80.4433 131.078 80.8187 131.156 81.2627 131.156C81.8177 131.156 82.3074 131.039 82.7318 130.804C83.1562 130.569 83.4924 130.281 83.7406 129.942C83.9952 129.602 84.1323 129.272 84.1519 128.953L84.9256 129.824C84.8799 130.098 84.7558 130.402 84.5534 130.735C84.351 131.068 84.0801 131.388 83.7406 131.695C83.4076 131.995 83.0093 132.247 82.5457 132.449C82.0887 132.645 81.5729 132.743 80.9983 132.743C80.2801 132.743 79.65 132.602 79.1081 132.322C78.5727 132.041 78.1548 131.665 77.8545 131.195C77.5606 130.719 77.4137 130.187 77.4137 129.599C77.4137 129.031 77.5247 128.531 77.7467 128.1C77.9687 127.663 78.2887 127.301 78.7065 127.013C79.1244 126.72 79.6271 126.498 80.2148 126.347C80.8024 126.197 81.4586 126.122 82.1833 126.122H84.289ZM95.3169 130.49V117.504H97.1385V132.547H95.4736L95.3169 130.49ZM88.187 127.366V127.16C88.187 126.351 88.2849 125.616 88.4808 124.957C88.6832 124.291 88.9672 123.719 89.3328 123.243C89.705 122.766 90.1457 122.4 90.655 122.146C91.1708 121.885 91.7454 121.754 92.3787 121.754C93.0447 121.754 93.6258 121.872 94.122 122.107C94.6248 122.335 95.0492 122.671 95.3952 123.115C95.7478 123.553 96.0253 124.082 96.2277 124.702C96.4301 125.322 96.5705 126.024 96.6488 126.808V127.709C96.577 128.486 96.4366 129.184 96.2277 129.805C96.0253 130.425 95.7478 130.954 95.3952 131.391C95.0492 131.829 94.6248 132.165 94.122 132.4C93.6193 132.628 93.0316 132.743 92.3591 132.743C91.7389 132.743 91.1708 132.609 90.655 132.341C90.1457 132.074 89.705 131.698 89.3328 131.215C88.9672 130.732 88.6832 130.164 88.4808 129.511C88.2849 128.851 88.187 128.136 88.187 127.366ZM90.0086 127.16V127.366C90.0086 127.895 90.0608 128.391 90.1653 128.855C90.2763 129.318 90.4461 129.726 90.6746 130.079C90.9031 130.431 91.1937 130.709 91.5462 130.911C91.8988 131.107 92.32 131.205 92.8096 131.205C93.4103 131.205 93.9033 131.078 94.2885 130.823C94.6803 130.569 94.9937 130.232 95.2287 129.814C95.4638 129.397 95.6466 128.943 95.7772 128.453V126.093C95.6988 125.734 95.5846 125.388 95.4344 125.055C95.2907 124.715 95.1014 124.415 94.8663 124.154C94.6378 123.886 94.3538 123.674 94.0143 123.517C93.6813 123.36 93.2863 123.282 92.8292 123.282C92.333 123.282 91.9053 123.386 91.5462 123.595C91.1937 123.798 90.9031 124.078 90.6746 124.438C90.4461 124.79 90.2763 125.201 90.1653 125.672C90.0608 126.135 90.0086 126.631 90.0086 127.16ZM106.208 130.735V125.28C106.208 124.862 106.123 124.5 105.953 124.193C105.79 123.879 105.542 123.638 105.209 123.468C104.876 123.298 104.464 123.213 103.975 123.213C103.518 123.213 103.116 123.292 102.77 123.448C102.43 123.605 102.163 123.811 101.967 124.065C101.778 124.32 101.683 124.594 101.683 124.888H99.871C99.871 124.509 99.9689 124.134 100.165 123.762C100.361 123.39 100.641 123.053 101.007 122.753C101.379 122.446 101.823 122.205 102.339 122.028C102.861 121.845 103.442 121.754 104.082 121.754C104.853 121.754 105.532 121.885 106.119 122.146C106.714 122.407 107.177 122.802 107.51 123.331C107.85 123.853 108.019 124.509 108.019 125.299V130.236C108.019 130.588 108.049 130.964 108.108 131.362C108.173 131.76 108.268 132.103 108.392 132.39V132.547H106.501C106.41 132.338 106.338 132.06 106.286 131.714C106.234 131.362 106.208 131.035 106.208 130.735ZM106.521 126.122L106.541 127.395H104.709C104.193 127.395 103.733 127.438 103.328 127.523C102.923 127.601 102.584 127.722 102.31 127.885C102.035 128.048 101.827 128.254 101.683 128.502C101.539 128.744 101.467 129.028 101.467 129.354C101.467 129.687 101.542 129.991 101.693 130.265C101.843 130.539 102.068 130.758 102.368 130.921C102.675 131.078 103.051 131.156 103.495 131.156C104.05 131.156 104.539 131.039 104.964 130.804C105.388 130.569 105.724 130.281 105.973 129.942C106.227 129.602 106.364 129.272 106.384 128.953L107.158 129.824C107.112 130.098 106.988 130.402 106.785 130.735C106.583 131.068 106.312 131.388 105.973 131.695C105.64 131.995 105.241 132.247 104.778 132.449C104.321 132.645 103.805 132.743 103.23 132.743C102.512 132.743 101.882 132.602 101.34 132.322C100.805 132.041 100.387 131.665 100.086 131.195C99.7927 130.719 99.6457 130.187 99.6457 129.599C99.6457 129.031 99.7567 128.531 99.9787 128.1C100.201 127.663 100.521 127.301 100.939 127.013C101.356 126.72 101.859 126.498 102.447 126.347C103.034 126.197 103.691 126.122 104.415 126.122H106.521ZM117.04 129.736C117.04 129.475 116.981 129.233 116.863 129.011C116.752 128.783 116.521 128.577 116.168 128.394C115.822 128.205 115.3 128.042 114.601 127.905C114.013 127.781 113.481 127.634 113.005 127.464C112.534 127.294 112.133 127.088 111.8 126.847C111.473 126.605 111.222 126.321 111.046 125.995C110.869 125.668 110.781 125.286 110.781 124.849C110.781 124.431 110.873 124.036 111.056 123.664C111.245 123.292 111.509 122.962 111.849 122.675C112.195 122.387 112.61 122.162 113.093 121.999C113.576 121.836 114.115 121.754 114.709 121.754C115.557 121.754 116.282 121.904 116.883 122.205C117.484 122.505 117.944 122.906 118.264 123.409C118.584 123.905 118.744 124.457 118.744 125.064H116.932C116.932 124.771 116.844 124.487 116.667 124.212C116.498 123.932 116.246 123.7 115.913 123.517C115.587 123.334 115.185 123.243 114.709 123.243C114.206 123.243 113.798 123.321 113.484 123.478C113.178 123.628 112.952 123.821 112.809 124.056C112.672 124.291 112.603 124.539 112.603 124.8C112.603 124.996 112.636 125.172 112.701 125.329C112.773 125.479 112.897 125.619 113.073 125.75C113.249 125.874 113.497 125.992 113.817 126.103C114.137 126.214 114.545 126.325 115.042 126.436C115.91 126.631 116.625 126.866 117.187 127.141C117.748 127.415 118.166 127.751 118.44 128.149C118.714 128.548 118.851 129.031 118.851 129.599C118.851 130.063 118.754 130.487 118.558 130.872C118.368 131.257 118.091 131.59 117.725 131.871C117.366 132.145 116.935 132.361 116.432 132.517C115.936 132.668 115.378 132.743 114.758 132.743C113.824 132.743 113.034 132.576 112.388 132.243C111.741 131.91 111.251 131.479 110.918 130.95C110.585 130.422 110.419 129.863 110.419 129.276H112.241C112.267 129.772 112.41 130.167 112.672 130.461C112.933 130.748 113.253 130.954 113.631 131.078C114.01 131.195 114.385 131.254 114.758 131.254C115.254 131.254 115.668 131.189 116.001 131.058C116.341 130.928 116.599 130.748 116.775 130.52C116.951 130.291 117.04 130.03 117.04 129.736ZM62.0227 145.258L61.3323 145.06L61.8538 139.852H67.2012V140.675H62.603L62.2284 144.274C62.4145 144.142 62.6838 144.012 63.0364 143.885C63.3939 143.752 63.7954 143.686 64.241 143.686C64.716 143.686 65.147 143.767 65.5338 143.929C65.9256 144.085 66.261 144.316 66.5401 144.619C66.8193 144.918 67.0347 145.28 67.1865 145.706C67.3383 146.127 67.4142 146.605 67.4142 147.139C67.4142 147.653 67.3506 148.125 67.2232 148.556C67.0959 148.987 66.9025 149.364 66.643 149.687C66.3834 150.006 66.0529 150.253 65.6513 150.429C65.2498 150.606 64.7723 150.694 64.219 150.694C63.793 150.694 63.3914 150.635 63.0143 150.517C62.6422 150.395 62.3092 150.211 62.0154 149.967C61.7216 149.722 61.4816 149.413 61.2955 149.041C61.1143 148.669 61.0017 148.233 60.9576 147.734H61.8024C61.8611 148.213 61.9909 148.617 62.1917 148.946C62.3924 149.274 62.6618 149.521 62.9997 149.687C63.3424 149.854 63.7489 149.937 64.219 149.937C64.6009 149.937 64.9339 149.876 65.218 149.754C65.5069 149.631 65.7468 149.452 65.9378 149.217C66.1337 148.977 66.2806 148.686 66.3785 148.343C66.4814 147.996 66.5328 147.599 66.5328 147.153C66.5328 146.771 66.4789 146.421 66.3712 146.103C66.2635 145.78 66.1043 145.498 65.8937 145.258C65.6881 145.013 65.4334 144.825 65.1298 144.693C64.8262 144.56 64.4785 144.494 64.0868 144.494C63.5775 144.494 63.171 144.563 62.8674 144.7C62.5687 144.837 62.2872 145.023 62.0227 145.258ZM75.8247 149.937C76.1968 149.937 76.5445 149.869 76.8677 149.732C77.1958 149.59 77.4652 149.381 77.6757 149.107C77.8912 148.828 78.0136 148.488 78.043 148.086H78.8804C78.8559 148.591 78.7016 149.041 78.4176 149.438C78.1385 149.829 77.7712 150.138 77.3158 150.363C76.8653 150.584 76.3682 150.694 75.8247 150.694C75.2713 150.694 74.7816 150.593 74.3556 150.393C73.9345 150.192 73.5819 149.913 73.2979 149.555C73.0139 149.193 72.7984 148.772 72.6515 148.292C72.5095 147.807 72.4385 147.286 72.4385 146.727V146.419C72.4385 145.861 72.5095 145.341 72.6515 144.862C72.7984 144.377 73.0139 143.956 73.2979 143.598C73.5819 143.236 73.9345 142.954 74.3556 142.753C74.7767 142.553 75.264 142.452 75.8173 142.452C76.3854 142.452 76.8947 142.567 77.3452 142.798C77.8006 143.028 78.163 143.353 78.4323 143.774C78.7065 144.196 78.8559 144.695 78.8804 145.273H78.043C78.0185 144.847 77.9059 144.48 77.7051 144.171C77.5043 143.863 77.2399 143.625 76.9118 143.459C76.5837 143.292 76.2189 143.209 75.8173 143.209C75.3668 143.209 74.9824 143.297 74.6641 143.473C74.3458 143.645 74.0863 143.882 73.8855 144.186C73.6896 144.484 73.5452 144.827 73.4521 145.214C73.3591 145.596 73.3126 145.998 73.3126 146.419V146.727C73.3126 147.153 73.3566 147.56 73.4448 147.947C73.5378 148.329 73.6823 148.669 73.8782 148.968C74.0789 149.266 74.3385 149.504 74.6568 149.68C74.98 149.852 75.3693 149.937 75.8247 149.937ZM80.1658 146.698V146.456C80.1658 145.878 80.2491 145.344 80.4155 144.854C80.582 144.365 80.8195 143.941 81.128 143.583C81.4415 143.226 81.8161 142.949 82.2519 142.753C82.6877 142.553 83.1725 142.452 83.7063 142.452C84.2449 142.452 84.7322 142.553 85.168 142.753C85.6038 142.949 85.9784 143.226 86.2918 143.583C86.6053 143.941 86.8452 144.365 87.0117 144.854C87.1782 145.344 87.2614 145.878 87.2614 146.456V146.698C87.2614 147.276 87.1782 147.809 87.0117 148.299C86.8452 148.784 86.6053 149.205 86.2918 149.563C85.9833 149.92 85.6112 150.199 85.1754 150.4C84.7395 150.596 84.2547 150.694 83.721 150.694C83.1823 150.694 82.6951 150.596 82.2592 150.4C81.8234 150.199 81.4488 149.92 81.1354 149.563C80.822 149.205 80.582 148.784 80.4155 148.299C80.2491 147.809 80.1658 147.276 80.1658 146.698ZM81.0399 146.456V146.698C81.0399 147.134 81.0987 147.548 81.2162 147.939C81.3337 148.326 81.5051 148.671 81.7304 148.975C81.9556 149.274 82.2348 149.509 82.5677 149.68C82.9007 149.852 83.2851 149.937 83.721 149.937C84.1519 149.937 84.5314 149.852 84.8595 149.68C85.1925 149.509 85.4716 149.274 85.6969 148.975C85.9221 148.671 86.0911 148.326 86.2037 147.939C86.3212 147.548 86.38 147.134 86.38 146.698V146.456C86.38 146.025 86.3212 145.616 86.2037 145.229C86.0911 144.842 85.9197 144.497 85.6895 144.193C85.4643 143.89 85.1851 143.65 84.8522 143.473C84.5192 143.297 84.1372 143.209 83.7063 143.209C83.2753 143.209 82.8934 143.297 82.5604 143.473C82.2323 143.65 81.9532 143.89 81.723 144.193C81.4978 144.497 81.3264 144.842 81.2088 145.229C81.0962 145.616 81.0399 146.025 81.0399 146.456ZM90.06 139.264V150.547H89.1859V139.264H90.06ZM92.3812 150.011C92.3812 149.839 92.435 149.695 92.5428 149.577C92.6554 149.455 92.8072 149.394 92.9982 149.394C93.1941 149.394 93.3483 149.452 93.4609 149.57C93.5736 149.687 93.6299 149.834 93.6299 150.011C93.6299 150.177 93.5736 150.319 93.4609 150.437C93.3483 150.554 93.1941 150.613 92.9982 150.613C92.8072 150.613 92.6554 150.554 92.5428 150.437C92.435 150.319 92.3812 150.177 92.3812 150.011Z" fill="#FDFBF9"/>
<path d="M578.075 192.72H575.098L575.117 191.182H578.075C579.094 191.182 579.943 190.97 580.622 190.545C581.301 190.115 581.81 189.514 582.149 188.743C582.496 187.966 582.669 187.059 582.669 186.021V185.149C582.669 184.333 582.571 183.608 582.375 182.975C582.179 182.335 581.892 181.796 581.513 181.359C581.134 180.915 580.671 180.579 580.122 180.35C579.58 180.122 578.957 180.007 578.252 180.007H575.039V178.46H578.252C579.185 178.46 580.037 178.617 580.808 178.93C581.578 179.237 582.241 179.684 582.796 180.272C583.357 180.853 583.788 181.558 584.089 182.387C584.389 183.21 584.539 184.137 584.539 185.169V186.021C584.539 187.052 584.389 187.983 584.089 188.812C583.788 189.635 583.354 190.337 582.786 190.918C582.225 191.499 581.545 191.946 580.749 192.259C579.959 192.566 579.068 192.72 578.075 192.72ZM576.107 178.46V192.72H574.216V178.46H576.107ZM591.503 192.916C590.765 192.916 590.096 192.792 589.495 192.543C588.901 192.289 588.388 191.933 587.957 191.476C587.533 191.019 587.206 190.477 586.978 189.85C586.749 189.223 586.635 188.538 586.635 187.793V187.382C586.635 186.52 586.762 185.753 587.017 185.081C587.272 184.401 587.618 183.827 588.055 183.357C588.493 182.887 588.989 182.531 589.544 182.289C590.099 182.048 590.673 181.927 591.268 181.927C592.025 181.927 592.678 182.058 593.226 182.319C593.781 182.58 594.235 182.945 594.588 183.416C594.94 183.879 595.201 184.428 595.371 185.061C595.541 185.688 595.626 186.373 595.626 187.118V187.931H587.712V186.452H593.814V186.315C593.788 185.844 593.69 185.387 593.52 184.943C593.357 184.499 593.096 184.134 592.737 183.847C592.377 183.559 591.888 183.416 591.268 183.416C590.856 183.416 590.477 183.504 590.131 183.68C589.785 183.85 589.488 184.104 589.24 184.444C588.992 184.783 588.799 185.198 588.662 185.688C588.525 186.177 588.457 186.742 588.457 187.382V187.793C588.457 188.296 588.525 188.77 588.662 189.214C588.806 189.651 589.012 190.036 589.279 190.369C589.554 190.702 589.883 190.963 590.269 191.153C590.66 191.342 591.104 191.437 591.601 191.437C592.24 191.437 592.782 191.306 593.226 191.045C593.67 190.784 594.059 190.434 594.392 189.997L595.489 190.869C595.26 191.215 594.97 191.544 594.617 191.858C594.264 192.171 593.83 192.426 593.314 192.622C592.805 192.818 592.201 192.916 591.503 192.916ZM602.178 182.123V183.514H596.448V182.123H602.178ZM598.388 179.547H600.199V190.095C600.199 190.454 600.255 190.725 600.366 190.908C600.477 191.091 600.621 191.211 600.797 191.27C600.973 191.329 601.163 191.358 601.365 191.358C601.515 191.358 601.672 191.345 601.835 191.319C602.005 191.287 602.132 191.26 602.217 191.241L602.227 192.72C602.083 192.765 601.894 192.808 601.659 192.847C601.43 192.893 601.153 192.916 600.826 192.916C600.382 192.916 599.974 192.827 599.602 192.651C599.23 192.475 598.933 192.181 598.711 191.77C598.495 191.352 598.388 190.79 598.388 190.085V179.547ZM610.552 190.908V185.453C610.552 185.035 610.467 184.672 610.297 184.366C610.134 184.052 609.886 183.811 609.553 183.641C609.22 183.471 608.808 183.386 608.319 183.386C607.862 183.386 607.46 183.465 607.114 183.621C606.774 183.778 606.507 183.984 606.311 184.238C606.121 184.493 606.027 184.767 606.027 185.061H604.215C604.215 184.682 604.313 184.307 604.509 183.935C604.705 183.562 604.985 183.226 605.351 182.926C605.723 182.619 606.167 182.377 606.683 182.201C607.205 182.018 607.786 181.927 608.426 181.927C609.197 181.927 609.876 182.058 610.463 182.319C611.058 182.58 611.521 182.975 611.854 183.504C612.194 184.026 612.363 184.682 612.363 185.472V190.408C612.363 190.761 612.393 191.136 612.452 191.535C612.517 191.933 612.612 192.276 612.736 192.563V192.72H610.845C610.754 192.511 610.682 192.233 610.63 191.887C610.578 191.535 610.552 191.208 610.552 190.908ZM610.865 186.295L610.885 187.568H609.053C608.537 187.568 608.077 187.611 607.672 187.695C607.267 187.774 606.928 187.895 606.654 188.058C606.379 188.221 606.17 188.427 606.027 188.675C605.883 188.916 605.811 189.2 605.811 189.527C605.811 189.86 605.886 190.164 606.037 190.438C606.187 190.712 606.412 190.931 606.712 191.094C607.019 191.251 607.395 191.329 607.839 191.329C608.394 191.329 608.883 191.211 609.308 190.976C609.732 190.741 610.068 190.454 610.317 190.115C610.571 189.775 610.708 189.445 610.728 189.125L611.502 189.997C611.456 190.271 611.332 190.575 611.129 190.908C610.927 191.241 610.656 191.561 610.317 191.868C609.984 192.168 609.585 192.419 609.122 192.622C608.665 192.818 608.149 192.916 607.574 192.916C606.856 192.916 606.226 192.775 605.684 192.494C605.149 192.214 604.731 191.838 604.43 191.368C604.137 190.892 603.99 190.359 603.99 189.772C603.99 189.204 604.101 188.704 604.323 188.273C604.545 187.836 604.865 187.473 605.282 187.186C605.7 186.892 606.203 186.67 606.791 186.52C607.378 186.37 608.035 186.295 608.759 186.295H610.865ZM617.182 177.676V192.72H615.36V177.676H617.182ZM621.903 177.676V192.72H620.091V177.676H621.903ZM621.472 187.02L620.718 186.99C620.724 186.266 620.832 185.596 621.041 184.983C621.25 184.362 621.544 183.824 621.922 183.367C622.301 182.91 622.751 182.557 623.274 182.309C623.803 182.054 624.387 181.927 625.027 181.927C625.549 181.927 626.019 181.999 626.437 182.142C626.855 182.279 627.211 182.501 627.505 182.808C627.805 183.115 628.034 183.514 628.19 184.003C628.347 184.486 628.425 185.077 628.425 185.776V192.72H626.604V185.756C626.604 185.201 626.522 184.757 626.359 184.424C626.196 184.085 625.957 183.84 625.644 183.69C625.33 183.533 624.945 183.455 624.488 183.455C624.038 183.455 623.626 183.549 623.254 183.739C622.889 183.928 622.572 184.189 622.304 184.522C622.043 184.855 621.837 185.237 621.687 185.668C621.544 186.093 621.472 186.543 621.472 187.02ZM637.387 190.908V185.453C637.387 185.035 637.302 184.672 637.132 184.366C636.969 184.052 636.721 183.811 636.388 183.641C636.055 183.471 635.643 183.386 635.154 183.386C634.697 183.386 634.295 183.465 633.949 183.621C633.61 183.778 633.342 183.984 633.146 184.238C632.957 184.493 632.862 184.767 632.862 185.061H631.05C631.05 184.682 631.148 184.307 631.344 183.935C631.54 183.562 631.821 183.226 632.186 182.926C632.558 182.619 633.002 182.377 633.518 182.201C634.04 182.018 634.622 181.927 635.261 181.927C636.032 181.927 636.711 182.058 637.299 182.319C637.893 182.58 638.356 182.975 638.689 183.504C639.029 184.026 639.199 184.682 639.199 185.472V190.408C639.199 190.761 639.228 191.136 639.287 191.535C639.352 191.933 639.447 192.276 639.571 192.563V192.72H637.68C637.589 192.511 637.517 192.233 637.465 191.887C637.413 191.535 637.387 191.208 637.387 190.908ZM637.7 186.295L637.72 187.568H635.888C635.372 187.568 634.912 187.611 634.507 187.695C634.102 187.774 633.763 187.895 633.489 188.058C633.215 188.221 633.006 188.427 632.862 188.675C632.718 188.916 632.646 189.2 632.646 189.527C632.646 189.86 632.722 190.164 632.872 190.438C633.022 190.712 633.247 190.931 633.548 191.094C633.854 191.251 634.23 191.329 634.674 191.329C635.229 191.329 635.718 191.211 636.143 190.976C636.567 190.741 636.904 190.454 637.152 190.115C637.406 189.775 637.543 189.445 637.563 189.125L638.337 189.997C638.291 190.271 638.167 190.575 637.965 190.908C637.762 191.241 637.491 191.561 637.152 191.868C636.819 192.168 636.42 192.419 635.957 192.622C635.5 192.818 634.984 192.916 634.409 192.916C633.691 192.916 633.061 192.775 632.519 192.494C631.984 192.214 631.566 191.838 631.266 191.368C630.972 190.892 630.825 190.359 630.825 189.772C630.825 189.204 630.936 188.704 631.158 188.273C631.38 187.836 631.7 187.473 632.118 187.186C632.535 186.892 633.038 186.67 633.626 186.52C634.213 186.37 634.87 186.295 635.594 186.295H637.7ZM643.851 184.228V192.72H642.029V182.123H643.753L643.851 184.228ZM643.478 187.02L642.636 186.99C642.643 186.266 642.737 185.596 642.92 184.983C643.103 184.362 643.374 183.824 643.733 183.367C644.092 182.91 644.539 182.557 645.075 182.309C645.61 182.054 646.231 181.927 646.936 181.927C647.432 181.927 647.889 181.999 648.307 182.142C648.725 182.279 649.087 182.498 649.394 182.799C649.701 183.099 649.939 183.484 650.109 183.954C650.279 184.424 650.364 184.992 650.364 185.658V192.72H648.552V185.747C648.552 185.192 648.457 184.748 648.268 184.415C648.085 184.082 647.824 183.84 647.484 183.69C647.145 183.533 646.746 183.455 646.289 183.455C645.754 183.455 645.307 183.549 644.948 183.739C644.588 183.928 644.301 184.189 644.086 184.522C643.87 184.855 643.714 185.237 643.616 185.668C643.524 186.093 643.478 186.543 643.478 187.02ZM650.344 186.021L649.129 186.393C649.136 185.812 649.231 185.254 649.414 184.718C649.603 184.183 649.874 183.706 650.226 183.288C650.586 182.87 651.026 182.541 651.549 182.299C652.071 182.051 652.668 181.927 653.341 181.927C653.909 181.927 654.412 182.002 654.849 182.152C655.293 182.302 655.665 182.534 655.966 182.848C656.272 183.154 656.504 183.549 656.661 184.033C656.818 184.516 656.896 185.09 656.896 185.756V192.72H655.074V185.737C655.074 185.143 654.98 184.682 654.79 184.356C654.608 184.023 654.346 183.791 654.007 183.66C653.674 183.523 653.276 183.455 652.812 183.455C652.414 183.455 652.061 183.523 651.754 183.66C651.447 183.798 651.189 183.987 650.981 184.228C650.772 184.464 650.612 184.734 650.501 185.041C650.396 185.348 650.344 185.675 650.344 186.021ZM664.036 192.916C663.298 192.916 662.629 192.792 662.028 192.543C661.434 192.289 660.921 191.933 660.49 191.476C660.066 191.019 659.739 190.477 659.511 189.85C659.282 189.223 659.168 188.538 659.168 187.793V187.382C659.168 186.52 659.295 185.753 659.55 185.081C659.805 184.401 660.151 183.827 660.588 183.357C661.026 182.887 661.522 182.531 662.077 182.289C662.632 182.048 663.206 181.927 663.801 181.927C664.558 181.927 665.211 182.058 665.759 182.319C666.314 182.58 666.768 182.945 667.121 183.416C667.473 183.879 667.735 184.428 667.904 185.061C668.074 185.688 668.159 186.373 668.159 187.118V187.931H660.245V186.452H666.347V186.315C666.321 185.844 666.223 185.387 666.053 184.943C665.89 184.499 665.629 184.134 665.27 183.847C664.911 183.559 664.421 183.416 663.801 183.416C663.389 183.416 663.011 183.504 662.665 183.68C662.319 183.85 662.021 184.104 661.773 184.444C661.525 184.783 661.333 185.198 661.195 185.688C661.058 186.177 660.99 186.742 660.99 187.382V187.793C660.99 188.296 661.058 188.77 661.195 189.214C661.339 189.651 661.545 190.036 661.813 190.369C662.087 190.702 662.416 190.963 662.802 191.153C663.193 191.342 663.637 191.437 664.134 191.437C664.774 191.437 665.315 191.306 665.759 191.045C666.203 190.784 666.592 190.434 666.925 189.997L668.022 190.869C667.793 191.215 667.503 191.544 667.15 191.858C666.798 192.171 666.363 192.426 665.848 192.622C665.338 192.818 664.734 192.916 664.036 192.916ZM672.086 184.385V192.72H670.274V182.123H671.988L672.086 184.385ZM671.655 187.02L670.901 186.99C670.908 186.266 671.015 185.596 671.224 184.983C671.433 184.362 671.727 183.824 672.106 183.367C672.485 182.91 672.935 182.557 673.457 182.309C673.986 182.054 674.571 181.927 675.21 181.927C675.733 181.927 676.203 181.999 676.621 182.142C677.039 182.279 677.395 182.501 677.688 182.808C677.989 183.115 678.217 183.514 678.374 184.003C678.531 184.486 678.609 185.077 678.609 185.776V192.72H676.787V185.756C676.787 185.201 676.706 184.757 676.542 184.424C676.379 184.085 676.141 183.84 675.827 183.69C675.514 183.533 675.129 183.455 674.672 183.455C674.221 183.455 673.81 183.549 673.438 183.739C673.072 183.928 672.755 184.189 672.488 184.522C672.227 184.855 672.021 185.237 671.871 185.668C671.727 186.093 671.655 186.543 671.655 187.02ZM685.798 182.123V183.514H680.068V182.123H685.798ZM682.007 179.547H683.819V190.095C683.819 190.454 683.875 190.725 683.986 190.908C684.097 191.091 684.24 191.211 684.417 191.27C684.593 191.329 684.782 191.358 684.985 191.358C685.135 191.358 685.292 191.345 685.455 191.319C685.625 191.287 685.752 191.26 685.837 191.241L685.847 192.72C685.703 192.765 685.514 192.808 685.279 192.847C685.05 192.893 684.773 192.916 684.446 192.916C684.002 192.916 683.594 192.827 683.222 192.651C682.85 192.475 682.553 192.181 682.331 191.77C682.115 191.352 682.007 190.79 682.007 190.085V179.547ZM687.247 187.539V187.314C687.247 186.55 687.358 185.841 687.58 185.188C687.802 184.529 688.122 183.958 688.54 183.474C688.958 182.985 689.464 182.606 690.058 182.338C690.652 182.064 691.318 181.927 692.056 181.927C692.8 181.927 693.469 182.064 694.064 182.338C694.664 182.606 695.174 182.985 695.591 183.474C696.016 183.958 696.339 184.529 696.561 185.188C696.783 185.841 696.894 186.55 696.894 187.314V187.539C696.894 188.303 696.783 189.011 696.561 189.664C696.339 190.317 696.016 190.888 695.591 191.378C695.174 191.861 694.668 192.24 694.073 192.514C693.486 192.782 692.82 192.916 692.075 192.916C691.331 192.916 690.662 192.782 690.068 192.514C689.474 192.24 688.964 191.861 688.54 191.378C688.122 190.888 687.802 190.317 687.58 189.664C687.358 189.011 687.247 188.303 687.247 187.539ZM689.059 187.314V187.539C689.059 188.068 689.121 188.567 689.245 189.037C689.369 189.501 689.555 189.912 689.803 190.271C690.058 190.63 690.375 190.914 690.753 191.123C691.132 191.326 691.573 191.427 692.075 191.427C692.572 191.427 693.006 191.326 693.378 191.123C693.757 190.914 694.07 190.63 694.318 190.271C694.566 189.912 694.752 189.501 694.877 189.037C695.007 188.567 695.072 188.068 695.072 187.539V187.314C695.072 186.791 695.007 186.298 694.877 185.835C694.752 185.365 694.563 184.95 694.308 184.591C694.06 184.225 693.747 183.938 693.368 183.729C692.996 183.52 692.559 183.416 692.056 183.416C691.56 183.416 691.122 183.52 690.744 183.729C690.371 183.938 690.058 184.225 689.803 184.591C689.555 184.95 689.369 185.365 689.245 185.835C689.121 186.298 689.059 186.791 689.059 187.314ZM611.374 208.228V216.72H609.553V206.123H611.276L611.374 208.228ZM611.002 211.02L610.16 210.99C610.166 210.266 610.261 209.596 610.444 208.983C610.627 208.362 610.898 207.824 611.257 207.367C611.616 206.91 612.063 206.557 612.598 206.309C613.134 206.054 613.754 205.927 614.459 205.927C614.956 205.927 615.413 205.999 615.83 206.142C616.248 206.279 616.611 206.498 616.918 206.799C617.224 207.099 617.463 207.484 617.633 207.954C617.802 208.424 617.887 208.992 617.887 209.658V216.72H616.075V209.747C616.075 209.192 615.981 208.748 615.791 208.415C615.608 208.082 615.347 207.84 615.008 207.69C614.668 207.533 614.27 207.455 613.813 207.455C613.278 207.455 612.83 207.549 612.471 207.739C612.112 207.928 611.825 208.189 611.609 208.522C611.394 208.855 611.237 209.237 611.139 209.668C611.048 210.093 611.002 210.543 611.002 211.02ZM617.868 210.021L616.653 210.393C616.66 209.812 616.754 209.254 616.937 208.718C617.127 208.183 617.397 207.706 617.75 207.288C618.109 206.87 618.55 206.541 619.072 206.299C619.595 206.051 620.192 205.927 620.864 205.927C621.433 205.927 621.935 206.002 622.373 206.152C622.817 206.302 623.189 206.534 623.489 206.848C623.796 207.154 624.028 207.549 624.185 208.033C624.341 208.516 624.42 209.09 624.42 209.756V216.72H622.598V209.737C622.598 209.143 622.503 208.682 622.314 208.356C622.131 208.023 621.87 207.791 621.53 207.66C621.197 207.523 620.799 207.455 620.336 207.455C619.937 207.455 619.585 207.523 619.278 207.66C618.971 207.798 618.713 207.987 618.504 208.228C618.295 208.464 618.135 208.734 618.024 209.041C617.92 209.348 617.868 209.675 617.868 210.021ZM626.682 211.539V211.314C626.682 210.55 626.793 209.841 627.015 209.188C627.237 208.529 627.557 207.958 627.975 207.474C628.393 206.985 628.899 206.606 629.493 206.338C630.087 206.064 630.753 205.927 631.491 205.927C632.235 205.927 632.904 206.064 633.499 206.338C634.099 206.606 634.609 206.985 635.026 207.474C635.451 207.958 635.774 208.529 635.996 209.188C636.218 209.841 636.329 210.55 636.329 211.314V211.539C636.329 212.303 636.218 213.011 635.996 213.664C635.774 214.317 635.451 214.888 635.026 215.378C634.609 215.861 634.102 216.24 633.508 216.514C632.921 216.782 632.255 216.916 631.51 216.916C630.766 216.916 630.097 216.782 629.503 216.514C628.908 216.24 628.399 215.861 627.975 215.378C627.557 214.888 627.237 214.317 627.015 213.664C626.793 213.011 626.682 212.303 626.682 211.539ZM628.494 211.314V211.539C628.494 212.068 628.556 212.567 628.68 213.037C628.804 213.501 628.99 213.912 629.238 214.271C629.493 214.63 629.81 214.914 630.188 215.123C630.567 215.326 631.008 215.427 631.51 215.427C632.007 215.427 632.441 215.326 632.813 215.123C633.192 214.914 633.505 214.63 633.753 214.271C634.001 213.912 634.187 213.501 634.311 213.037C634.442 212.567 634.507 212.068 634.507 211.539V211.314C634.507 210.791 634.442 210.298 634.311 209.835C634.187 209.365 633.998 208.95 633.743 208.591C633.495 208.225 633.182 207.938 632.803 207.729C632.431 207.52 631.994 207.416 631.491 207.416C630.995 207.416 630.557 207.52 630.178 207.729C629.806 207.938 629.493 208.225 629.238 208.591C628.99 208.95 628.804 209.365 628.68 209.835C628.556 210.298 628.494 210.791 628.494 211.314ZM630.413 204.556L632.313 201.676H634.498L631.873 204.556H630.413ZM641.667 215.084L644.566 206.123H646.417L642.607 216.72H641.392L641.667 215.084ZM639.248 206.123L642.235 215.133L642.44 216.72H641.226L637.387 206.123H639.248ZM652.42 216.916C651.682 216.916 651.013 216.792 650.412 216.543C649.818 216.289 649.306 215.933 648.875 215.476C648.45 215.019 648.124 214.477 647.895 213.85C647.667 213.223 647.553 212.538 647.553 211.793V211.382C647.553 210.52 647.68 209.753 647.935 209.081C648.189 208.401 648.535 207.827 648.973 207.357C649.41 206.887 649.906 206.531 650.461 206.289C651.016 206.048 651.591 205.927 652.185 205.927C652.943 205.927 653.595 206.058 654.144 206.319C654.699 206.58 655.153 206.945 655.505 207.416C655.858 207.879 656.119 208.428 656.289 209.061C656.459 209.688 656.543 210.373 656.543 211.118V211.931H648.63V210.452H654.732V210.315C654.705 209.844 654.608 209.387 654.438 208.943C654.275 208.499 654.013 208.134 653.654 207.847C653.295 207.559 652.805 207.416 652.185 207.416C651.774 207.416 651.395 207.504 651.049 207.68C650.703 207.85 650.406 208.104 650.158 208.444C649.91 208.783 649.717 209.198 649.58 209.688C649.443 210.177 649.374 210.742 649.374 211.382V211.793C649.374 212.296 649.443 212.77 649.58 213.214C649.724 213.651 649.929 214.036 650.197 214.369C650.471 214.702 650.801 214.963 651.186 215.153C651.578 215.342 652.022 215.437 652.518 215.437C653.158 215.437 653.7 215.306 654.144 215.045C654.588 214.784 654.976 214.434 655.309 213.997L656.406 214.869C656.178 215.215 655.887 215.544 655.535 215.858C655.182 216.171 654.748 216.426 654.232 216.622C653.723 216.818 653.119 216.916 652.42 216.916ZM660.627 201.676V216.72H658.806V201.676H660.627ZM623.648 223.944H623.773V224.715H623.648C622.973 224.715 622.37 224.826 621.841 225.046C621.317 225.266 620.874 225.585 620.512 226.001C620.154 226.412 619.883 226.912 619.697 227.499C619.51 228.087 619.417 228.745 619.417 229.475V230.952C619.417 231.446 619.484 231.889 619.616 232.281C619.748 232.668 619.932 232.998 620.167 233.273C620.402 233.547 620.676 233.755 620.989 233.897C621.303 234.039 621.641 234.11 622.003 234.11C622.36 234.11 622.681 234.037 622.965 233.89C623.249 233.743 623.489 233.537 623.685 233.273C623.886 233.008 624.038 232.705 624.141 232.362C624.248 232.014 624.302 231.642 624.302 231.245C624.302 230.868 624.253 230.513 624.155 230.18C624.062 229.842 623.918 229.544 623.722 229.284C623.526 229.025 623.281 228.821 622.987 228.674C622.693 228.528 622.348 228.454 621.952 228.454C621.501 228.454 621.08 228.557 620.688 228.763C620.296 228.968 619.976 229.243 619.726 229.585C619.481 229.928 619.351 230.303 619.337 230.709L618.83 230.702C618.864 230.241 618.969 229.828 619.146 229.46C619.322 229.088 619.555 228.772 619.843 228.513C620.137 228.248 620.473 228.048 620.85 227.911C621.232 227.769 621.643 227.698 622.084 227.698C622.598 227.698 623.046 227.791 623.428 227.977C623.815 228.163 624.136 228.42 624.39 228.748C624.65 229.071 624.843 229.446 624.971 229.872C625.103 230.293 625.169 230.739 625.169 231.209C625.169 231.723 625.095 232.203 624.949 232.648C624.807 233.089 624.596 233.476 624.317 233.809C624.043 234.142 623.71 234.401 623.318 234.588C622.931 234.774 622.493 234.867 622.003 234.867C621.464 234.867 620.982 234.764 620.556 234.558C620.13 234.352 619.765 234.068 619.462 233.706C619.163 233.344 618.933 232.927 618.771 232.457C618.614 231.982 618.536 231.476 618.536 230.937V229.997C618.536 229.086 618.641 228.261 618.852 227.521C619.062 226.777 619.378 226.138 619.799 225.604C620.225 225.07 620.757 224.661 621.393 224.377C622.035 224.089 622.787 223.944 623.648 223.944ZM633.682 234.11C634.054 234.11 634.402 234.042 634.725 233.904C635.053 233.762 635.323 233.554 635.533 233.28C635.749 233.001 635.871 232.661 635.9 232.259H636.738C636.713 232.763 636.559 233.214 636.275 233.611C635.996 234.002 635.629 234.311 635.173 234.536C634.723 234.756 634.226 234.867 633.682 234.867C633.129 234.867 632.639 234.766 632.213 234.565C631.792 234.365 631.439 234.086 631.155 233.728C630.871 233.366 630.656 232.945 630.509 232.465C630.367 231.98 630.296 231.458 630.296 230.9V230.592C630.296 230.033 630.367 229.514 630.509 229.034C630.656 228.55 630.871 228.128 631.155 227.771C631.439 227.409 631.792 227.127 632.213 226.926C632.634 226.726 633.121 226.625 633.675 226.625C634.243 226.625 634.752 226.74 635.203 226.97C635.658 227.201 636.02 227.526 636.29 227.947C636.564 228.368 636.713 228.868 636.738 229.446H635.9C635.876 229.02 635.763 228.652 635.563 228.344C635.362 228.035 635.097 227.798 634.769 227.631C634.441 227.465 634.076 227.382 633.675 227.382C633.224 227.382 632.84 227.47 632.522 227.646C632.203 227.818 631.944 228.055 631.743 228.359C631.547 228.657 631.403 229 631.31 229.387C631.217 229.769 631.17 230.17 631.17 230.592V230.9C631.17 231.326 631.214 231.733 631.302 232.119C631.395 232.501 631.54 232.842 631.736 233.14C631.936 233.439 632.196 233.677 632.514 233.853C632.837 234.024 633.227 234.11 633.682 234.11ZM638.023 230.871V230.628C638.023 230.051 638.107 229.517 638.273 229.027C638.44 228.537 638.677 228.114 638.986 227.756C639.299 227.399 639.674 227.122 640.109 226.926C640.545 226.726 641.03 226.625 641.564 226.625C642.102 226.625 642.59 226.726 643.025 226.926C643.461 227.122 643.836 227.399 644.149 227.756C644.463 228.114 644.703 228.537 644.869 229.027C645.036 229.517 645.119 230.051 645.119 230.628V230.871C645.119 231.449 645.036 231.982 644.869 232.472C644.703 232.957 644.463 233.378 644.149 233.735C643.841 234.093 643.469 234.372 643.033 234.573C642.597 234.769 642.112 234.867 641.578 234.867C641.04 234.867 640.553 234.769 640.117 234.573C639.681 234.372 639.306 234.093 638.993 233.735C638.679 233.378 638.44 232.957 638.273 232.472C638.107 231.982 638.023 231.449 638.023 230.871ZM638.897 230.628V230.871C638.897 231.307 638.956 231.72 639.074 232.112C639.191 232.499 639.363 232.844 639.588 233.148C639.813 233.447 640.092 233.682 640.425 233.853C640.758 234.024 641.143 234.11 641.578 234.11C642.009 234.11 642.389 234.024 642.717 233.853C643.05 233.682 643.329 233.447 643.554 233.148C643.78 232.844 643.949 232.499 644.061 232.112C644.179 231.72 644.237 231.307 644.237 230.871V230.628C644.237 230.197 644.179 229.789 644.061 229.402C643.949 229.015 643.777 228.67 643.547 228.366C643.322 228.062 643.043 227.822 642.71 227.646C642.377 227.47 641.995 227.382 641.564 227.382C641.133 227.382 640.751 227.47 640.418 227.646C640.09 227.822 639.811 228.062 639.581 228.366C639.355 228.67 639.184 229.015 639.066 229.402C638.954 229.789 638.897 230.197 638.897 230.628ZM647.918 223.437V234.72H647.043V223.437H647.918ZM650.239 234.184C650.239 234.012 650.293 233.868 650.4 233.75C650.513 233.628 650.665 233.567 650.856 233.567C651.052 233.567 651.206 233.625 651.318 233.743C651.431 233.86 651.487 234.007 651.487 234.184C651.487 234.35 651.431 234.492 651.318 234.61C651.206 234.727 651.052 234.786 650.856 234.786C650.665 234.786 650.513 234.727 650.4 234.61C650.293 234.492 650.239 234.35 650.239 234.184Z" fill="#FDFBF9"/>
<path d="M48.02 46.1616H45.7613L45.749 45.2128H47.7996C48.1383 45.2128 48.4342 45.1557 48.6872 45.0414C48.9402 44.9271 49.1361 44.7639 49.2748 44.5517C49.4176 44.3354 49.4891 44.0783 49.4891 43.7805C49.4891 43.454 49.4258 43.1887 49.2993 42.9847C49.1769 42.7766 48.9871 42.6256 48.73 42.5317C48.477 42.4338 48.1547 42.3848 47.7629 42.3848H46.0245V50.3301H44.8431V41.4177H47.7629C48.2199 41.4177 48.628 41.4646 48.9871 41.5585C49.3462 41.6483 49.6503 41.7911 49.8992 41.987C50.1522 42.1788 50.344 42.4236 50.4746 42.7215C50.6051 43.0194 50.6704 43.3765 50.6704 43.7927C50.6704 44.16 50.5766 44.4925 50.3889 44.7904C50.2012 45.0843 49.94 45.325 49.6054 45.5127C49.2748 45.7005 48.8871 45.8208 48.4423 45.8739L48.02 46.1616ZM47.9649 50.3301H45.2961L45.9633 49.3691H47.9649C48.3403 49.3691 48.6586 49.3038 48.9198 49.1732C49.185 49.0426 49.387 48.859 49.5258 48.6223C49.6645 48.3815 49.7339 48.0979 49.7339 47.7714C49.7339 47.4409 49.6747 47.1552 49.5564 46.9145C49.4381 46.6737 49.2524 46.488 48.9994 46.3575C48.7464 46.2269 48.4199 46.1616 48.02 46.1616H46.3367L46.3489 45.2128H48.6505L48.9014 45.5556C49.3299 45.5923 49.6931 45.7147 49.991 45.9229C50.2889 46.1269 50.5154 46.3881 50.6704 46.7064C50.8296 47.0247 50.9092 47.3756 50.9092 47.7592C50.9092 48.3142 50.7867 48.7835 50.5419 49.1671C50.3011 49.5466 49.9604 49.8363 49.5197 50.0363C49.0789 50.2321 48.5607 50.3301 47.9649 50.3301ZM56.5345 48.7998V43.707H57.673V50.3301H56.5896L56.5345 48.7998ZM56.7487 47.4042L57.2201 47.3919C57.2201 47.8326 57.1731 48.2407 57.0793 48.6162C56.9895 48.9875 56.8426 49.3099 56.6386 49.5833C56.4345 49.8567 56.1672 50.0709 55.8367 50.226C55.5061 50.377 55.1042 50.4525 54.6308 50.4525C54.3084 50.4525 54.0126 50.4056 53.7433 50.3117C53.478 50.2179 53.2495 50.073 53.0577 49.8771C52.8659 49.6812 52.7169 49.4262 52.6108 49.112C52.5088 48.7978 52.4578 48.4203 52.4578 47.9796V43.707H53.5902V47.9918C53.5902 48.2897 53.6229 48.5366 53.6882 48.7325C53.7575 48.9243 53.8494 49.0773 53.9636 49.1915C54.082 49.3017 54.2125 49.3793 54.3554 49.4241C54.5023 49.469 54.6533 49.4915 54.8083 49.4915C55.2899 49.4915 55.6714 49.3997 55.953 49.216C56.2346 49.0283 56.4366 48.7773 56.559 48.4631C56.6855 48.1448 56.7487 47.7918 56.7487 47.4042ZM63.2555 48.5733C63.2555 48.4101 63.2188 48.2591 63.1453 48.1203C63.076 47.9775 62.9311 47.849 62.7107 47.7347C62.4945 47.6164 62.168 47.5144 61.7314 47.4287C61.3641 47.3511 61.0315 47.2593 60.7336 47.1532C60.4398 47.0471 60.1888 46.9186 59.9807 46.7676C59.7767 46.6166 59.6196 46.4391 59.5094 46.235C59.3992 46.031 59.3441 45.7923 59.3441 45.5189C59.3441 45.2577 59.4012 45.0108 59.5155 44.7782C59.6338 44.5456 59.7991 44.3395 60.0113 44.16C60.2276 43.9804 60.4867 43.8396 60.7887 43.7376C61.0907 43.6356 61.4273 43.5846 61.7987 43.5846C62.3292 43.5846 62.7822 43.6784 63.1576 43.8661C63.533 44.0539 63.8207 44.3048 64.0207 44.619C64.2206 44.9292 64.3206 45.274 64.3206 45.6535H63.1882C63.1882 45.4699 63.1331 45.2924 63.0229 45.121C62.9168 44.9455 62.7597 44.8006 62.5516 44.6864C62.3476 44.5721 62.0966 44.515 61.7987 44.515C61.4845 44.515 61.2294 44.564 61.0335 44.6619C60.8417 44.7558 60.701 44.8761 60.6112 45.023C60.5255 45.17 60.4826 45.325 60.4826 45.4883C60.4826 45.6107 60.503 45.7209 60.5439 45.8188C60.5887 45.9127 60.6663 46.0004 60.7765 46.082C60.8866 46.1595 61.0417 46.233 61.2417 46.3024C61.4416 46.3717 61.6967 46.4411 62.0068 46.5105C62.5495 46.6329 62.9964 46.7798 63.3473 46.9512C63.6983 47.1226 63.9595 47.3328 64.1308 47.5817C64.3022 47.8306 64.3879 48.1326 64.3879 48.4876C64.3879 48.7773 64.3267 49.0426 64.2043 49.2834C64.086 49.5241 63.9125 49.7322 63.684 49.9077C63.4596 50.0791 63.1902 50.2138 62.876 50.3117C62.5659 50.4056 62.217 50.4525 61.8293 50.4525C61.2457 50.4525 60.752 50.3484 60.348 50.1403C59.944 49.9322 59.6379 49.6629 59.4298 49.3323C59.2217 49.0018 59.1176 48.6529 59.1176 48.2856H60.2562C60.2725 48.5958 60.3623 48.8426 60.5255 49.0263C60.6887 49.2058 60.8887 49.3344 61.1254 49.4119C61.362 49.4854 61.5967 49.5221 61.8293 49.5221C62.1394 49.5221 62.3986 49.4813 62.6067 49.3997C62.8189 49.318 62.9801 49.2058 63.0903 49.063C63.2004 48.9202 63.2555 48.7569 63.2555 48.5733ZM68.5258 49.5221C68.7952 49.5221 69.0441 49.467 69.2726 49.3568C69.5011 49.2466 69.6888 49.0956 69.8358 48.9039C69.9827 48.708 70.0663 48.4856 70.0867 48.2366H71.164C71.1436 48.6284 71.011 48.9936 70.7662 49.3323C70.5254 49.667 70.2091 49.9383 69.8174 50.1464C69.4256 50.3505 68.9951 50.4525 68.5258 50.4525C68.028 50.4525 67.5934 50.3648 67.222 50.1893C66.8548 50.0138 66.5487 49.7731 66.3039 49.467C66.0631 49.1609 65.8815 48.81 65.7591 48.4142C65.6407 48.0142 65.5816 47.5919 65.5816 47.1471V46.89C65.5816 46.4452 65.6407 46.0249 65.7591 45.629C65.8815 45.2291 66.0631 44.8761 66.3039 44.5701C66.5487 44.264 66.8548 44.0233 67.222 43.8478C67.5934 43.6723 68.028 43.5846 68.5258 43.5846C69.0441 43.5846 69.4971 43.6907 69.8847 43.9029C70.2724 44.111 70.5764 44.3966 70.7968 44.7598C71.0212 45.1189 71.1436 45.527 71.164 45.9841H70.0867C70.0663 45.7107 69.9888 45.4638 69.8541 45.2434C69.7235 45.023 69.544 44.8476 69.3155 44.717C69.091 44.5823 68.8278 44.515 68.5258 44.515C68.179 44.515 67.8872 44.5844 67.6505 44.7231C67.4179 44.8578 67.2322 45.0414 67.0935 45.274C66.9588 45.5025 66.8609 45.7576 66.7997 46.0392C66.7425 46.3166 66.714 46.6003 66.714 46.89V47.1471C66.714 47.4368 66.7425 47.7225 66.7997 48.004C66.8568 48.2856 66.9527 48.5407 67.0874 48.7692C67.2261 48.9977 67.4118 49.1813 67.6444 49.3201C67.8811 49.4548 68.1749 49.5221 68.5258 49.5221ZM76.3425 49.1977V45.7882C76.3425 45.527 76.2895 45.3005 76.1834 45.1087C76.0814 44.9129 75.9263 44.7619 75.7182 44.6558C75.5101 44.5497 75.253 44.4966 74.9469 44.4966C74.6613 44.4966 74.4103 44.5456 74.194 44.6435C73.9818 44.7415 73.8145 44.87 73.6921 45.0292C73.5737 45.1883 73.5146 45.3597 73.5146 45.5433H72.3822C72.3822 45.3067 72.4434 45.072 72.5658 44.8394C72.6882 44.6068 72.8637 44.3966 73.0922 44.2089C73.3248 44.0171 73.6023 43.8661 73.9247 43.756C74.2511 43.6417 74.6143 43.5846 75.0142 43.5846C75.4958 43.5846 75.9202 43.6662 76.2874 43.8294C76.6588 43.9927 76.9485 44.2395 77.1566 44.5701C77.3688 44.8965 77.4749 45.3067 77.4749 45.8004V48.8855C77.4749 49.1058 77.4933 49.3405 77.53 49.5894C77.5708 49.8383 77.63 50.0526 77.7076 50.2321V50.3301H76.5262C76.469 50.1995 76.4242 50.0261 76.3915 49.8098C76.3589 49.5894 76.3425 49.3854 76.3425 49.1977ZM76.5384 46.3146L76.5507 47.1104H75.406C75.0836 47.1104 74.7959 47.1369 74.5429 47.1899C74.2899 47.2389 74.0777 47.3144 73.9063 47.4164C73.7349 47.5184 73.6043 47.647 73.5146 47.802C73.4248 47.953 73.3799 48.1305 73.3799 48.3346C73.3799 48.5427 73.4268 48.7325 73.5207 48.9039C73.6145 49.0752 73.7553 49.2119 73.943 49.314C74.1348 49.4119 74.3695 49.4609 74.647 49.4609C74.9938 49.4609 75.2999 49.3874 75.5651 49.2405C75.8304 49.0936 76.0406 48.9141 76.1956 48.7019C76.3548 48.4897 76.4405 48.2836 76.4527 48.0836L76.9363 48.6284C76.9077 48.7998 76.8302 48.9895 76.7037 49.1977C76.5772 49.4058 76.4078 49.6057 76.1956 49.7975C75.9875 49.9853 75.7386 50.1424 75.4488 50.2689C75.1632 50.3913 74.8408 50.4525 74.4817 50.4525C74.0328 50.4525 73.639 50.3648 73.3003 50.1893C72.9657 50.0138 72.7045 49.7792 72.5168 49.4854C72.3332 49.1875 72.2414 48.8549 72.2414 48.4876C72.2414 48.1326 72.3107 47.8204 72.4495 47.5511C72.5882 47.2777 72.7882 47.0512 73.0494 46.8716C73.3105 46.688 73.6247 46.5492 73.992 46.4554C74.3593 46.3615 74.7694 46.3146 75.2224 46.3146H76.5384ZM83.4186 45.9229L82.8432 45.7576L83.2778 41.4177H87.734V42.1033H83.9022L83.59 45.1026C83.745 44.9924 83.9695 44.8843 84.2633 44.7782C84.5612 44.668 84.8958 44.6129 85.2672 44.6129C85.663 44.6129 86.0221 44.6803 86.3445 44.8149C86.671 44.9455 86.9505 45.1373 87.1831 45.3903C87.4157 45.6392 87.5952 45.9412 87.7217 46.2962C87.8483 46.6472 87.9115 47.0451 87.9115 47.4899C87.9115 47.9183 87.8585 48.3121 87.7524 48.6712C87.6463 49.0304 87.4851 49.3446 87.2688 49.6139C87.0525 49.8792 86.7771 50.0852 86.4424 50.2321C86.1078 50.379 85.7099 50.4525 85.2488 50.4525C84.8938 50.4525 84.5592 50.4035 84.2449 50.3056C83.9348 50.2036 83.6573 50.0505 83.4125 49.8465C83.1676 49.6425 82.9677 49.3854 82.8126 49.0752C82.6616 48.7651 82.5677 48.4019 82.531 47.9857H83.2349C83.2839 48.3856 83.3921 48.7223 83.5594 48.9957C83.7267 49.2691 83.9511 49.4752 84.2327 49.6139C84.5183 49.7526 84.8571 49.822 85.2488 49.822C85.5671 49.822 85.8446 49.771 86.0813 49.669C86.322 49.567 86.522 49.418 86.6812 49.2222C86.8444 49.0222 86.9668 48.7794 87.0484 48.4937C87.1341 48.204 87.177 47.8735 87.177 47.5021C87.177 47.1838 87.1321 46.892 87.0423 46.6268C86.9525 46.3575 86.8199 46.1228 86.6444 45.9229C86.473 45.7188 86.2608 45.5617 86.0078 45.4515C85.7548 45.3413 85.4651 45.2863 85.1386 45.2863C84.7142 45.2863 84.3755 45.3434 84.1225 45.4576C83.8736 45.5719 83.6389 45.727 83.4186 45.9229ZM94.9202 49.822C95.2304 49.822 95.5201 49.7649 95.7894 49.6506C96.0628 49.5323 96.2873 49.3589 96.4627 49.1303C96.6423 48.8977 96.7443 48.6141 96.7688 48.2795H97.4666C97.4462 48.6998 97.3177 49.0752 97.081 49.4058C96.8484 49.7322 96.5423 49.9893 96.1628 50.177C95.7874 50.3607 95.3732 50.4525 94.9202 50.4525C94.4591 50.4525 94.051 50.3688 93.696 50.2015C93.345 50.0342 93.0512 49.8016 92.8145 49.5037C92.5779 49.2017 92.3983 48.8508 92.2759 48.4509C92.1575 48.0469 92.0984 47.6123 92.0984 47.1471V46.89C92.0984 46.4248 92.1575 45.9922 92.2759 45.5923C92.3983 45.1883 92.5779 44.8374 92.8145 44.5395C93.0512 44.2375 93.345 44.0029 93.696 43.8355C94.0469 43.6682 94.453 43.5846 94.9141 43.5846C95.3875 43.5846 95.8119 43.6805 96.1873 43.8723C96.5668 44.0641 96.8688 44.3354 97.0932 44.6864C97.3217 45.0373 97.4462 45.4536 97.4666 45.9351H96.7688C96.7484 45.5801 96.6545 45.274 96.4872 45.0169C96.3199 44.7598 96.0996 44.5619 95.8261 44.4232C95.5527 44.2844 95.2487 44.2151 94.9141 44.2151C94.5387 44.2151 94.2183 44.2885 93.9531 44.4354C93.6878 44.5782 93.4715 44.7762 93.3042 45.0292C93.141 45.2781 93.0206 45.5637 92.9431 45.8861C92.8656 46.2044 92.8268 46.539 92.8268 46.89V47.1471C92.8268 47.5021 92.8635 47.8408 92.937 48.1632C93.0145 48.4815 93.1349 48.7651 93.2981 49.014C93.4654 49.263 93.6817 49.4609 93.947 49.6078C94.2163 49.7506 94.5407 49.822 94.9202 49.822ZM98.5378 47.1226V46.9206C98.5378 46.4391 98.6072 45.9943 98.7459 45.5862C98.8847 45.1781 99.0826 44.8251 99.3397 44.5272C99.6009 44.2293 99.913 43.9988 100.276 43.8355C100.639 43.6682 101.043 43.5846 101.488 43.5846C101.937 43.5846 102.343 43.6682 102.706 43.8355C103.07 43.9988 103.382 44.2293 103.643 44.5272C103.904 44.8251 104.104 45.1781 104.243 45.5862C104.381 45.9943 104.451 46.4391 104.451 46.9206V47.1226C104.451 47.6041 104.381 48.0489 104.243 48.457C104.104 48.861 103.904 49.2119 103.643 49.5098C103.386 49.8077 103.076 50.0403 102.712 50.2077C102.349 50.3709 101.945 50.4525 101.5 50.4525C101.052 50.4525 100.646 50.3709 100.282 50.2077C99.9192 50.0403 99.607 49.8077 99.3458 49.5098C99.0846 49.2119 98.8847 48.861 98.7459 48.457C98.6072 48.0489 98.5378 47.6041 98.5378 47.1226ZM99.2662 46.9206V47.1226C99.2662 47.4858 99.3152 47.8306 99.4131 48.1571C99.5111 48.4795 99.6539 48.7671 99.8416 49.0202C100.029 49.2691 100.262 49.465 100.539 49.6078C100.817 49.7506 101.137 49.822 101.5 49.822C101.86 49.822 102.176 49.7506 102.449 49.6078C102.727 49.465 102.959 49.2691 103.147 49.0202C103.335 48.7671 103.476 48.4795 103.569 48.1571C103.667 47.8306 103.716 47.4858 103.716 47.1226V46.9206C103.716 46.5615 103.667 46.2207 103.569 45.8984C103.476 45.576 103.333 45.2883 103.141 45.0353C102.953 44.7823 102.721 44.5823 102.443 44.4354C102.166 44.2885 101.847 44.2151 101.488 44.2151C101.129 44.2151 100.811 44.2885 100.533 44.4354C100.26 44.5823 100.027 44.7823 99.8355 45.0353C99.6478 45.2883 99.505 45.576 99.407 45.8984C99.3132 46.2207 99.2662 46.5615 99.2662 46.9206ZM106.783 40.928V50.3301H106.055V40.928H106.783ZM108.717 49.8832C108.717 49.7404 108.762 49.62 108.852 49.5221C108.946 49.4201 109.072 49.3691 109.231 49.3691C109.395 49.3691 109.523 49.418 109.617 49.516C109.711 49.6139 109.758 49.7363 109.758 49.8832C109.758 50.022 109.711 50.1403 109.617 50.2383C109.523 50.3362 109.395 50.3852 109.231 50.3852C109.072 50.3852 108.946 50.3362 108.852 50.2383C108.762 50.1403 108.717 50.022 108.717 49.8832Z" fill="#FDFBF9"/>
<path d="M434.709 377.815V378.776H430.253V377.815H434.709ZM430.486 369.864V378.776H429.304V369.864H430.486ZM438.639 378.899C438.178 378.899 437.759 378.821 437.384 378.666C437.013 378.507 436.692 378.285 436.423 377.999C436.158 377.713 435.954 377.375 435.811 376.983C435.668 376.591 435.597 376.163 435.597 375.697V375.44C435.597 374.902 435.676 374.422 435.835 374.002C435.995 373.577 436.211 373.218 436.484 372.925C436.758 372.631 437.068 372.408 437.415 372.257C437.762 372.106 438.121 372.031 438.492 372.031C438.965 372.031 439.373 372.112 439.716 372.276C440.063 372.439 440.347 372.667 440.567 372.961C440.787 373.251 440.951 373.594 441.057 373.99C441.163 374.381 441.216 374.81 441.216 375.275V375.783H436.27V374.859H440.083V374.773C440.067 374.479 440.006 374.194 439.9 373.916C439.798 373.639 439.635 373.41 439.41 373.231C439.186 373.051 438.88 372.961 438.492 372.961C438.235 372.961 437.998 373.016 437.782 373.127C437.566 373.233 437.38 373.392 437.225 373.604C437.07 373.816 436.949 374.075 436.864 374.381C436.778 374.687 436.735 375.04 436.735 375.44V375.697C436.735 376.012 436.778 376.308 436.864 376.585C436.954 376.858 437.082 377.099 437.249 377.307C437.421 377.515 437.627 377.679 437.868 377.797C438.112 377.915 438.39 377.974 438.7 377.974C439.1 377.974 439.439 377.893 439.716 377.73C439.994 377.566 440.237 377.348 440.445 377.075L441.13 377.619C440.987 377.836 440.806 378.042 440.585 378.238C440.365 378.434 440.094 378.593 439.771 378.715C439.453 378.838 439.076 378.899 438.639 378.899ZM446.829 372.153H447.857V378.636C447.857 379.219 447.739 379.717 447.502 380.129C447.266 380.541 446.935 380.853 446.511 381.066C446.09 381.282 445.605 381.39 445.054 381.39C444.825 381.39 444.556 381.353 444.246 381.28C443.94 381.211 443.638 381.09 443.34 380.919C443.046 380.751 442.799 380.525 442.599 380.239L443.193 379.566C443.471 379.901 443.76 380.133 444.062 380.264C444.368 380.394 444.67 380.46 444.968 380.46C445.327 380.46 445.637 380.392 445.899 380.258C446.16 380.123 446.362 379.923 446.505 379.658C446.651 379.397 446.725 379.074 446.725 378.691V373.61L446.829 372.153ZM442.269 375.538V375.41C442.269 374.904 442.328 374.445 442.446 374.032C442.569 373.616 442.742 373.259 442.967 372.961C443.195 372.663 443.471 372.435 443.793 372.276C444.115 372.112 444.478 372.031 444.882 372.031C445.299 372.031 445.662 372.104 445.972 372.251C446.286 372.394 446.551 372.604 446.768 372.882C446.988 373.155 447.162 373.486 447.288 373.873C447.415 374.261 447.502 374.7 447.551 375.189V375.753C447.506 376.238 447.419 376.675 447.288 377.062C447.162 377.45 446.988 377.781 446.768 378.054C446.551 378.327 446.286 378.538 445.972 378.685C445.658 378.827 445.291 378.899 444.87 378.899C444.474 378.899 444.115 378.815 443.793 378.648C443.475 378.481 443.201 378.246 442.973 377.944C442.744 377.642 442.569 377.287 442.446 376.879C442.328 376.467 442.269 376.02 442.269 375.538ZM443.401 375.41V375.538C443.401 375.869 443.434 376.179 443.499 376.469C443.568 376.758 443.673 377.013 443.811 377.234C443.954 377.454 444.136 377.628 444.356 377.754C444.576 377.877 444.84 377.938 445.146 377.938C445.521 377.938 445.831 377.858 446.076 377.699C446.321 377.54 446.515 377.33 446.658 377.069C446.804 376.807 446.919 376.524 447 376.218V374.743C446.955 374.518 446.886 374.302 446.792 374.094C446.702 373.881 446.584 373.694 446.437 373.531C446.294 373.363 446.117 373.231 445.905 373.133C445.692 373.035 445.444 372.986 445.158 372.986C444.848 372.986 444.58 373.051 444.356 373.182C444.136 373.308 443.954 373.484 443.811 373.708C443.673 373.928 443.568 374.186 443.499 374.479C443.434 374.769 443.401 375.079 443.401 375.41ZM452.326 378.899C451.865 378.899 451.446 378.821 451.071 378.666C450.7 378.507 450.379 378.285 450.11 377.999C449.845 377.713 449.641 377.375 449.498 376.983C449.355 376.591 449.284 376.163 449.284 375.697V375.44C449.284 374.902 449.363 374.422 449.522 374.002C449.681 373.577 449.898 373.218 450.171 372.925C450.445 372.631 450.755 372.408 451.102 372.257C451.448 372.106 451.808 372.031 452.179 372.031C452.652 372.031 453.06 372.112 453.403 372.276C453.75 372.439 454.034 372.667 454.254 372.961C454.474 373.251 454.638 373.594 454.744 373.99C454.85 374.381 454.903 374.81 454.903 375.275V375.783H449.957V374.859H453.77V374.773C453.754 374.479 453.693 374.194 453.587 373.916C453.485 373.639 453.321 373.41 453.097 373.231C452.873 373.051 452.567 372.961 452.179 372.961C451.922 372.961 451.685 373.016 451.469 373.127C451.253 373.233 451.067 373.392 450.912 373.604C450.757 373.816 450.636 374.075 450.551 374.381C450.465 374.687 450.422 375.04 450.422 375.44V375.697C450.422 376.012 450.465 376.308 450.551 376.585C450.64 376.858 450.769 377.099 450.936 377.307C451.108 377.515 451.314 377.679 451.555 377.797C451.799 377.915 452.077 377.974 452.387 377.974C452.787 377.974 453.126 377.893 453.403 377.73C453.681 377.566 453.923 377.348 454.132 377.075L454.817 377.619C454.674 377.836 454.493 378.042 454.272 378.238C454.052 378.434 453.781 378.593 453.458 378.715C453.14 378.838 452.762 378.899 452.326 378.899ZM457.357 373.567V378.776H456.225V372.153H457.296L457.357 373.567ZM457.088 375.214L456.617 375.195C456.621 374.743 456.688 374.324 456.819 373.941C456.949 373.553 457.133 373.216 457.37 372.931C457.606 372.645 457.888 372.425 458.214 372.27C458.545 372.11 458.91 372.031 459.31 372.031C459.636 372.031 459.93 372.076 460.191 372.166C460.453 372.251 460.675 372.39 460.859 372.582C461.046 372.774 461.189 373.022 461.287 373.329C461.385 373.631 461.434 374 461.434 374.436V378.776H460.295V374.424C460.295 374.077 460.244 373.8 460.142 373.592C460.04 373.38 459.892 373.227 459.696 373.133C459.5 373.035 459.259 372.986 458.973 372.986C458.692 372.986 458.435 373.045 458.202 373.163C457.974 373.282 457.776 373.445 457.608 373.653C457.445 373.861 457.317 374.1 457.223 374.369C457.133 374.634 457.088 374.916 457.088 375.214ZM467.329 377.491V369.374H468.467V378.776H467.427L467.329 377.491ZM462.873 375.538V375.41C462.873 374.904 462.934 374.445 463.056 374.032C463.183 373.616 463.36 373.259 463.589 372.961C463.821 372.663 464.097 372.435 464.415 372.276C464.737 372.112 465.097 372.031 465.492 372.031C465.909 372.031 466.272 372.104 466.582 372.251C466.896 372.394 467.161 372.604 467.378 372.882C467.598 373.155 467.771 373.486 467.898 373.873C468.024 374.261 468.112 374.7 468.161 375.189V375.753C468.116 376.238 468.029 376.675 467.898 377.062C467.771 377.45 467.598 377.781 467.378 378.054C467.161 378.327 466.896 378.538 466.582 378.685C466.268 378.827 465.9 378.899 465.48 378.899C465.092 378.899 464.737 378.815 464.415 378.648C464.097 378.481 463.821 378.246 463.589 377.944C463.36 377.642 463.183 377.287 463.056 376.879C462.934 376.467 462.873 376.02 462.873 375.538ZM464.011 375.41V375.538C464.011 375.869 464.044 376.179 464.109 376.469C464.178 376.758 464.284 377.013 464.427 377.234C464.57 377.454 464.752 377.628 464.972 377.754C465.192 377.877 465.456 377.938 465.762 377.938C466.137 377.938 466.445 377.858 466.686 377.699C466.931 377.54 467.127 377.33 467.274 377.069C467.421 376.807 467.535 376.524 467.616 376.218V374.743C467.567 374.518 467.496 374.302 467.402 374.094C467.312 373.881 467.194 373.694 467.047 373.531C466.904 373.363 466.727 373.231 466.515 373.133C466.306 373.035 466.06 372.986 465.774 372.986C465.464 372.986 465.197 373.051 464.972 373.182C464.752 373.308 464.57 373.484 464.427 373.708C464.284 373.928 464.178 374.186 464.109 374.479C464.044 374.769 464.011 375.079 464.011 375.41ZM474.135 377.644V374.234C474.135 373.973 474.082 373.747 473.976 373.555C473.874 373.359 473.719 373.208 473.511 373.102C473.303 372.996 473.046 372.943 472.74 372.943C472.454 372.943 472.203 372.992 471.987 373.09C471.775 373.188 471.607 373.316 471.485 373.475C471.367 373.635 471.307 373.806 471.307 373.99H470.175C470.175 373.753 470.236 373.518 470.359 373.286C470.481 373.053 470.657 372.843 470.885 372.655C471.118 372.463 471.395 372.312 471.718 372.202C472.044 372.088 472.407 372.031 472.807 372.031C473.289 372.031 473.713 372.112 474.08 372.276C474.452 372.439 474.741 372.686 474.95 373.016C475.162 373.343 475.268 373.753 475.268 374.247V377.332C475.268 377.552 475.286 377.787 475.323 378.036C475.364 378.285 475.423 378.499 475.5 378.678V378.776H474.319C474.262 378.646 474.217 378.472 474.184 378.256C474.152 378.036 474.135 377.832 474.135 377.644ZM474.331 374.761L474.344 375.557H473.199C472.877 375.557 472.589 375.583 472.336 375.636C472.083 375.685 471.871 375.761 471.699 375.863C471.528 375.965 471.397 376.093 471.307 376.248C471.218 376.399 471.173 376.577 471.173 376.781C471.173 376.989 471.22 377.179 471.314 377.35C471.407 377.522 471.548 377.658 471.736 377.76C471.928 377.858 472.162 377.907 472.44 377.907C472.787 377.907 473.093 377.834 473.358 377.687C473.623 377.54 473.833 377.36 473.989 377.148C474.148 376.936 474.233 376.73 474.246 376.53L474.729 377.075C474.701 377.246 474.623 377.436 474.497 377.644C474.37 377.852 474.201 378.052 473.989 378.244C473.78 378.432 473.531 378.589 473.242 378.715C472.956 378.838 472.634 378.899 472.275 378.899C471.826 378.899 471.432 378.811 471.093 378.636C470.759 378.46 470.497 378.225 470.31 377.932C470.126 377.634 470.034 377.301 470.034 376.934C470.034 376.579 470.104 376.267 470.242 375.997C470.381 375.724 470.581 375.497 470.842 375.318C471.103 375.134 471.418 374.996 471.785 374.902C472.152 374.808 472.562 374.761 473.015 374.761H474.331ZM481.211 374.369L480.636 374.204L481.071 369.864H485.527V370.55H481.695L481.383 373.549C481.538 373.439 481.762 373.331 482.056 373.224C482.354 373.114 482.689 373.059 483.06 373.059C483.456 373.059 483.815 373.127 484.137 373.261C484.464 373.392 484.743 373.584 484.976 373.837C485.209 374.086 485.388 374.388 485.515 374.743C485.641 375.093 485.704 375.491 485.704 375.936C485.704 376.365 485.651 376.758 485.545 377.118C485.439 377.477 485.278 377.791 485.062 378.06C484.845 378.325 484.57 378.532 484.235 378.678C483.901 378.825 483.503 378.899 483.042 378.899C482.687 378.899 482.352 378.85 482.038 378.752C481.728 378.65 481.45 378.497 481.205 378.293C480.96 378.089 480.761 377.832 480.605 377.522C480.454 377.211 480.361 376.848 480.324 376.432H481.028C481.077 376.832 481.185 377.169 481.352 377.442C481.52 377.715 481.744 377.921 482.026 378.06C482.311 378.199 482.65 378.268 483.042 378.268C483.36 378.268 483.637 378.217 483.874 378.115C484.115 378.013 484.315 377.864 484.474 377.668C484.637 377.468 484.76 377.226 484.841 376.94C484.927 376.65 484.97 376.32 484.97 375.948C484.97 375.63 484.925 375.338 484.835 375.073C484.745 374.804 484.613 374.569 484.437 374.369C484.266 374.165 484.054 374.008 483.801 373.898C483.548 373.788 483.258 373.733 482.932 373.733C482.507 373.733 482.168 373.79 481.915 373.904C481.666 374.018 481.432 374.173 481.211 374.369ZM492.713 378.268C493.023 378.268 493.313 378.211 493.582 378.097C493.856 377.979 494.08 377.805 494.256 377.577C494.435 377.344 494.537 377.06 494.562 376.726H495.259C495.239 377.146 495.111 377.522 494.874 377.852C494.641 378.179 494.335 378.436 493.956 378.623C493.58 378.807 493.166 378.899 492.713 378.899C492.252 378.899 491.844 378.815 491.489 378.648C491.138 378.481 490.844 378.248 490.607 377.95C490.371 377.648 490.191 377.297 490.069 376.897C489.95 376.493 489.891 376.059 489.891 375.593V375.336C489.891 374.871 489.95 374.439 490.069 374.039C490.191 373.635 490.371 373.284 490.607 372.986C490.844 372.684 491.138 372.449 491.489 372.282C491.84 372.115 492.246 372.031 492.707 372.031C493.18 372.031 493.605 372.127 493.98 372.319C494.36 372.51 494.662 372.782 494.886 373.133C495.115 373.484 495.239 373.9 495.259 374.381H494.562C494.541 374.026 494.447 373.72 494.28 373.463C494.113 373.206 493.892 373.008 493.619 372.869C493.346 372.731 493.042 372.661 492.707 372.661C492.332 372.661 492.011 372.735 491.746 372.882C491.481 373.025 491.264 373.222 491.097 373.475C490.934 373.724 490.814 374.01 490.736 374.332C490.658 374.651 490.62 374.985 490.62 375.336V375.593C490.62 375.948 490.656 376.287 490.73 376.609C490.807 376.928 490.928 377.211 491.091 377.46C491.258 377.709 491.475 377.907 491.74 378.054C492.009 378.197 492.334 378.268 492.713 378.268ZM496.331 375.569V375.367C496.331 374.885 496.4 374.441 496.539 374.032C496.678 373.624 496.875 373.271 497.133 372.974C497.394 372.676 497.706 372.445 498.069 372.282C498.432 372.115 498.836 372.031 499.281 372.031C499.73 372.031 500.136 372.115 500.499 372.282C500.862 372.445 501.175 372.676 501.436 372.974C501.697 373.271 501.897 373.624 502.036 374.032C502.174 374.441 502.244 374.885 502.244 375.367V375.569C502.244 376.05 502.174 376.495 502.036 376.903C501.897 377.307 501.697 377.658 501.436 377.956C501.179 378.254 500.869 378.487 500.505 378.654C500.142 378.817 499.738 378.899 499.293 378.899C498.844 378.899 498.438 378.817 498.075 378.654C497.712 378.487 497.4 378.254 497.139 377.956C496.878 377.658 496.678 377.307 496.539 376.903C496.4 376.495 496.331 376.05 496.331 375.569ZM497.059 375.367V375.569C497.059 375.932 497.108 376.277 497.206 376.603C497.304 376.926 497.447 377.213 497.634 377.466C497.822 377.715 498.055 377.911 498.332 378.054C498.61 378.197 498.93 378.268 499.293 378.268C499.652 378.268 499.969 378.197 500.242 378.054C500.52 377.911 500.752 377.715 500.94 377.466C501.128 377.213 501.268 376.926 501.362 376.603C501.46 376.277 501.509 375.932 501.509 375.569V375.367C501.509 375.008 501.46 374.667 501.362 374.345C501.268 374.022 501.126 373.735 500.934 373.482C500.746 373.229 500.513 373.029 500.236 372.882C499.958 372.735 499.64 372.661 499.281 372.661C498.922 372.661 498.604 372.735 498.326 372.882C498.053 373.029 497.82 373.229 497.628 373.482C497.441 373.735 497.298 374.022 497.2 374.345C497.106 374.667 497.059 375.008 497.059 375.367ZM504.576 369.374V378.776H503.847V369.374H504.576ZM506.51 378.33C506.51 378.187 506.555 378.066 506.645 377.968C506.739 377.866 506.865 377.815 507.024 377.815C507.188 377.815 507.316 377.864 507.41 377.962C507.504 378.06 507.551 378.183 507.551 378.33C507.551 378.468 507.504 378.587 507.41 378.685C507.316 378.782 507.188 378.831 507.024 378.831C506.865 378.831 506.739 378.782 506.645 378.685C506.555 378.587 506.51 378.468 506.51 378.33Z" fill="#FDFBF9"/>
</svg>
