<svg width="1051" height="591" viewBox="0 0 1051 591" fill="none" xmlns="http://www.w3.org/2000/svg">
<path d="M0.519531 11.6757C0.519531 5.51379 5.51475 0.518555 11.6767 0.518555H1038.81C1044.97 0.518555 1049.96 5.51378 1049.96 11.6757V579.416C1049.96 585.578 1044.97 590.573 1038.81 590.573H11.6767C5.51478 590.573 0.519531 585.578 0.519531 579.416V11.6757Z" fill="#0567FF" fill-opacity="0.25"/>
<path d="M12.6348 10.5479H45.2287V579.687H12.6348V10.5479Z" fill="#FDFBF9" fill-opacity="0.1"/>
<path d="M55.2578 10.5479H87.8517V579.687H55.2578V10.5479Z" fill="#FDFBF9" fill-opacity="0.1"/>
<path d="M100.387 10.5479H132.981V579.687H100.387V10.5479Z" fill="#FDFBF9" fill-opacity="0.1"/>
<path d="M143.01 10.5479H175.604V579.687H143.01V10.5479Z" fill="#FDFBF9" fill-opacity="0.1"/>
<path d="M185.633 10.5479H218.227V579.687H185.633V10.5479Z" fill="#FDFBF9" fill-opacity="0.1"/>
<path d="M228.256 10.5479H260.85V579.687H228.256V10.5479Z" fill="#FDFBF9" fill-opacity="0.1"/>
<path d="M273.385 10.5479H305.979V579.687H273.385V10.5479Z" fill="#FDFBF9" fill-opacity="0.1"/>
<path d="M316.008 10.5479H348.602V579.687H316.008V10.5479Z" fill="#FDFBF9" fill-opacity="0.1"/>
<path d="M358.631 10.5479H391.225V579.687H358.631V10.5479Z" fill="#FDFBF9" fill-opacity="0.1"/>
<path d="M401.254 10.5479H433.848V579.687H401.254V10.5479Z" fill="#FDFBF9" fill-opacity="0.1"/>
<path d="M446.385 10.5479H478.979V579.687H446.385V10.5479Z" fill="#FDFBF9" fill-opacity="0.1"/>
<path d="M489.006 10.5479H521.6V579.687H489.006V10.5479Z" fill="#FDFBF9" fill-opacity="0.1"/>
<path d="M531.629 10.5479H564.223V579.687H531.629V10.5479Z" fill="#FDFBF9" fill-opacity="0.1"/>
<path d="M574.252 10.5479H606.846V579.687H574.252V10.5479Z" fill="#FDFBF9" fill-opacity="0.1"/>
<path d="M619.383 10.5479H651.977V579.687H619.383V10.5479Z" fill="#FDFBF9" fill-opacity="0.1"/>
<path d="M662.006 10.5479H694.6V579.687H662.006V10.5479Z" fill="#FDFBF9" fill-opacity="0.1"/>
<path d="M704.627 10.5479H737.221V579.687H704.627V10.5479Z" fill="#FDFBF9" fill-opacity="0.1"/>
<path d="M747.25 10.5479H779.844V579.687H747.25V10.5479Z" fill="#FDFBF9" fill-opacity="0.1"/>
<path d="M792.381 10.5479H824.975V579.687H792.381V10.5479Z" fill="#FDFBF9" fill-opacity="0.1"/>
<path d="M835.004 10.5479H867.598V579.687H835.004V10.5479Z" fill="#FDFBF9" fill-opacity="0.1"/>
<path d="M877.627 10.5479H910.221V579.687H877.627V10.5479Z" fill="#FDFBF9" fill-opacity="0.1"/>
<path d="M920.248 10.5479H955.349V579.687H920.248V10.5479Z" fill="#FDFBF9" fill-opacity="0.1"/>
<path d="M965.379 10.5479H995.466V579.687H965.379V10.5479Z" fill="#FDFBF9" fill-opacity="0.1"/>
<path d="M1005.49 10.5479H1038.09V579.687H1005.49V10.5479Z" fill="#FDFBF9" fill-opacity="0.1"/>
<rect x="7.62109" y="30.6055" width="253.229" height="549.082" rx="11.1631" fill="#0567FF" fill-opacity="0.5"/>
<rect x="273.387" y="30.6055" width="764.703" height="549.082" rx="11.1631" fill="#0567FF" fill-opacity="0.5"/>
<path d="M1050.62 25.5107L0.0994873 25.5107L0.0994885 11.6848C0.0994891 5.51833 5.0984 0.519409 11.2649 0.51941L1039.46 0.5195C1045.63 0.5195 1050.63 5.51842 1050.63 11.6849L1050.62 25.5107Z" fill="#0567FF"/>
<path d="M580.648 267.425H583.469C583.322 268.776 582.935 269.986 582.308 271.053C581.682 272.121 580.795 272.968 579.649 273.595C578.504 274.212 577.074 274.52 575.36 274.52C574.106 274.52 572.965 274.285 571.937 273.815C570.918 273.345 570.042 272.679 569.307 271.817C568.573 270.946 568.005 269.903 567.603 268.688C567.211 267.464 567.015 266.103 567.015 264.604V262.474C567.015 260.976 567.211 259.619 567.603 258.405C568.005 257.18 568.577 256.132 569.322 255.261C570.076 254.389 570.982 253.718 572.04 253.248C573.097 252.778 574.287 252.543 575.609 252.543C577.225 252.543 578.592 252.847 579.708 253.454C580.825 254.061 581.691 254.903 582.308 255.981C582.935 257.048 583.322 258.287 583.469 259.697H580.648C580.511 258.698 580.257 257.841 579.884 257.127C579.512 256.402 578.983 255.844 578.298 255.452C577.612 255.06 576.716 254.864 575.609 254.864C574.659 254.864 573.822 255.045 573.097 255.408C572.382 255.77 571.78 256.284 571.29 256.95C570.81 257.616 570.448 258.414 570.203 259.345C569.958 260.275 569.836 261.308 569.836 262.445V264.604C569.836 265.652 569.944 266.636 570.159 267.557C570.384 268.478 570.722 269.286 571.173 269.981C571.623 270.676 572.196 271.225 572.892 271.626C573.587 272.018 574.41 272.214 575.36 272.214C576.564 272.214 577.524 272.023 578.239 271.641C578.954 271.259 579.493 270.711 579.855 269.996C580.227 269.281 580.492 268.424 580.648 267.425ZM586.201 266.455V266.117C586.201 264.971 586.368 263.909 586.701 262.929C587.034 261.94 587.514 261.083 588.141 260.358C588.767 259.624 589.526 259.056 590.418 258.654C591.309 258.243 592.308 258.037 593.415 258.037C594.531 258.037 595.535 258.243 596.426 258.654C597.327 259.056 598.091 259.624 598.718 260.358C599.355 261.083 599.839 261.94 600.172 262.929C600.505 263.909 600.672 264.971 600.672 266.117V266.455C600.672 267.601 600.505 268.664 600.172 269.643C599.839 270.622 599.355 271.479 598.718 272.214C598.091 272.939 597.332 273.507 596.441 273.918C595.559 274.32 594.561 274.52 593.444 274.52C592.328 274.52 591.324 274.32 590.432 273.918C589.541 273.507 588.777 272.939 588.141 272.214C587.514 271.479 587.034 270.622 586.701 269.643C586.368 268.664 586.201 267.601 586.201 266.455ZM588.919 266.117V266.455C588.919 267.248 589.012 267.998 589.198 268.703C589.384 269.398 589.664 270.015 590.036 270.554C590.418 271.093 590.893 271.519 591.461 271.832C592.029 272.136 592.69 272.287 593.444 272.287C594.188 272.287 594.84 272.136 595.398 271.832C595.966 271.519 596.436 271.093 596.808 270.554C597.18 270.015 597.459 269.398 597.646 268.703C597.841 267.998 597.939 267.248 597.939 266.455V266.117C597.939 265.334 597.841 264.594 597.646 263.899C597.459 263.194 597.175 262.572 596.794 262.033C596.421 261.485 595.951 261.054 595.383 260.74C594.825 260.427 594.169 260.27 593.415 260.27C592.67 260.27 592.014 260.427 591.446 260.74C590.888 261.054 590.418 261.485 590.036 262.033C589.664 262.572 589.384 263.194 589.198 263.899C589.012 264.594 588.919 265.334 588.919 266.117ZM606.798 261.725V274.227H604.08V258.331H606.651L606.798 261.725ZM606.152 265.677L605.02 265.632C605.03 264.545 605.192 263.541 605.505 262.621C605.819 261.69 606.259 260.882 606.827 260.197C607.395 259.511 608.071 258.982 608.855 258.61C609.648 258.228 610.524 258.037 611.484 258.037C612.268 258.037 612.973 258.145 613.6 258.361C614.227 258.566 614.76 258.899 615.201 259.36C615.652 259.82 615.994 260.417 616.229 261.152C616.464 261.877 616.582 262.763 616.582 263.811V274.227H613.849V263.781C613.849 262.949 613.727 262.283 613.482 261.783C613.237 261.274 612.88 260.907 612.41 260.682C611.94 260.447 611.362 260.329 610.676 260.329C610 260.329 609.383 260.471 608.825 260.755C608.277 261.039 607.802 261.431 607.4 261.93C607.008 262.43 606.7 263.003 606.475 263.649C606.259 264.286 606.152 264.962 606.152 265.677ZM625.543 271.773L629.892 258.331H632.668L626.954 274.227H625.132L625.543 271.773ZM621.915 258.331L626.395 271.847L626.704 274.227H624.882L619.123 258.331H621.915ZM641.674 274.52C640.567 274.52 639.563 274.334 638.662 273.962C637.771 273.58 637.002 273.046 636.356 272.361C635.719 271.675 635.229 270.862 634.887 269.922C634.544 268.982 634.372 267.954 634.372 266.837V266.22C634.372 264.927 634.563 263.777 634.945 262.768C635.327 261.749 635.846 260.887 636.503 260.182C637.159 259.477 637.903 258.943 638.736 258.581C639.568 258.219 640.43 258.037 641.321 258.037C642.457 258.037 643.437 258.233 644.259 258.625C645.092 259.017 645.772 259.565 646.301 260.27C646.83 260.966 647.222 261.788 647.477 262.738C647.731 263.679 647.859 264.707 647.859 265.823V267.043H635.988V264.824H645.141V264.619C645.102 263.914 644.955 263.228 644.7 262.562C644.455 261.896 644.063 261.348 643.525 260.917C642.986 260.486 642.252 260.27 641.321 260.27C640.704 260.27 640.136 260.403 639.617 260.667C639.098 260.922 638.652 261.304 638.28 261.813C637.908 262.322 637.619 262.944 637.413 263.679C637.208 264.413 637.105 265.26 637.105 266.22V266.837C637.105 267.591 637.208 268.301 637.413 268.967C637.629 269.623 637.937 270.201 638.339 270.701C638.75 271.2 639.245 271.592 639.823 271.876C640.41 272.16 641.076 272.302 641.821 272.302C642.78 272.302 643.593 272.106 644.259 271.714C644.925 271.323 645.508 270.799 646.008 270.143L647.653 271.45C647.31 271.969 646.874 272.464 646.345 272.934C645.817 273.404 645.165 273.786 644.392 274.08C643.628 274.373 642.722 274.52 641.674 274.52ZM653.75 260.829V274.227H651.032V258.331H653.676L653.75 260.829ZM658.715 258.243L658.7 260.77C658.475 260.721 658.26 260.691 658.054 260.682C657.858 260.662 657.633 260.652 657.378 260.652C656.751 260.652 656.198 260.75 655.718 260.946C655.238 261.142 654.832 261.416 654.499 261.769C654.166 262.121 653.901 262.543 653.706 263.032C653.519 263.512 653.397 264.041 653.338 264.619L652.574 265.06C652.574 264.1 652.667 263.199 652.853 262.356C653.049 261.514 653.348 260.77 653.75 260.123C654.151 259.467 654.66 258.958 655.277 258.596C655.904 258.223 656.649 258.037 657.51 258.037C657.706 258.037 657.932 258.062 658.186 258.111C658.441 258.15 658.617 258.194 658.715 258.243ZM670.482 270.01C670.482 269.619 670.394 269.256 670.218 268.923C670.051 268.58 669.704 268.272 669.175 267.998C668.656 267.714 667.872 267.469 666.824 267.263C665.943 267.077 665.145 266.857 664.43 266.602C663.725 266.347 663.122 266.039 662.623 265.677C662.133 265.314 661.756 264.888 661.492 264.398C661.227 263.909 661.095 263.336 661.095 262.68C661.095 262.053 661.232 261.46 661.506 260.902C661.79 260.344 662.187 259.849 662.696 259.418C663.215 258.987 663.837 258.649 664.562 258.405C665.287 258.16 666.095 258.037 666.986 258.037C668.259 258.037 669.346 258.263 670.247 258.713C671.148 259.164 671.839 259.766 672.319 260.52C672.799 261.264 673.039 262.092 673.039 263.003H670.321C670.321 262.562 670.189 262.136 669.924 261.725C669.669 261.304 669.292 260.956 668.793 260.682C668.303 260.407 667.701 260.27 666.986 260.27C666.232 260.27 665.62 260.388 665.15 260.623C664.689 260.848 664.351 261.137 664.136 261.49C663.93 261.842 663.827 262.214 663.827 262.606C663.827 262.9 663.876 263.164 663.974 263.399C664.082 263.625 664.268 263.835 664.533 264.031C664.797 264.217 665.169 264.394 665.649 264.56C666.129 264.727 666.741 264.893 667.485 265.06C668.788 265.353 669.86 265.706 670.703 266.117C671.545 266.529 672.172 267.033 672.583 267.63C672.994 268.228 673.2 268.953 673.2 269.805C673.2 270.5 673.053 271.137 672.759 271.714C672.475 272.292 672.059 272.792 671.511 273.213C670.972 273.624 670.326 273.947 669.572 274.182C668.827 274.408 667.99 274.52 667.059 274.52C665.659 274.52 664.474 274.271 663.504 273.771C662.535 273.272 661.8 272.625 661.301 271.832C660.801 271.039 660.551 270.201 660.551 269.32H663.284C663.323 270.064 663.539 270.657 663.93 271.097C664.322 271.528 664.802 271.837 665.37 272.023C665.938 272.199 666.501 272.287 667.059 272.287C667.804 272.287 668.426 272.189 668.925 271.994C669.434 271.798 669.821 271.528 670.086 271.186C670.35 270.843 670.482 270.451 670.482 270.01ZM686.143 271.509V263.326C686.143 262.699 686.015 262.156 685.761 261.695C685.516 261.225 685.144 260.863 684.644 260.608C684.145 260.354 683.528 260.226 682.793 260.226C682.108 260.226 681.505 260.344 680.986 260.579C680.477 260.814 680.075 261.122 679.782 261.504C679.498 261.886 679.356 262.298 679.356 262.738H676.638C676.638 262.17 676.785 261.607 677.078 261.049C677.372 260.491 677.793 259.986 678.342 259.536C678.9 259.075 679.566 258.713 680.34 258.449C681.123 258.174 681.995 258.037 682.955 258.037C684.11 258.037 685.129 258.233 686.01 258.625C686.902 259.017 687.597 259.609 688.097 260.403C688.606 261.186 688.86 262.17 688.86 263.355V270.76C688.86 271.288 688.905 271.852 688.993 272.449C689.091 273.046 689.233 273.561 689.419 273.992V274.227H686.583C686.446 273.913 686.339 273.497 686.26 272.978C686.182 272.449 686.143 271.959 686.143 271.509ZM686.613 264.589L686.642 266.499H683.895C683.121 266.499 682.431 266.563 681.824 266.69C681.216 266.808 680.707 266.989 680.296 267.234C679.884 267.479 679.571 267.787 679.356 268.159C679.14 268.522 679.032 268.948 679.032 269.437C679.032 269.937 679.145 270.392 679.37 270.804C679.595 271.215 679.933 271.543 680.384 271.788C680.844 272.023 681.407 272.14 682.073 272.14C682.906 272.14 683.64 271.964 684.277 271.612C684.914 271.259 685.418 270.828 685.79 270.319C686.172 269.81 686.378 269.315 686.407 268.835L687.568 270.143C687.499 270.554 687.313 271.009 687.009 271.509C686.706 272.008 686.299 272.488 685.79 272.948C685.291 273.399 684.693 273.776 683.998 274.08C683.312 274.373 682.539 274.52 681.677 274.52C680.599 274.52 679.654 274.31 678.841 273.889C678.038 273.468 677.411 272.904 676.961 272.199C676.52 271.484 676.3 270.686 676.3 269.805C676.3 268.953 676.466 268.203 676.799 267.557C677.132 266.901 677.612 266.357 678.239 265.926C678.866 265.486 679.62 265.153 680.501 264.927C681.383 264.702 682.367 264.589 683.454 264.589H686.613ZM600.381 285.328V303.227H598.924V287.177L594.076 288.977V287.593L600.136 285.328H600.381ZM618.438 298.501C618.438 299.578 618.185 300.488 617.679 301.231C617.181 301.974 616.504 302.533 615.647 302.908C614.79 303.284 613.831 303.471 612.77 303.471C611.701 303.471 610.737 303.284 609.881 302.908C609.024 302.533 608.342 301.974 607.836 301.231C607.338 300.488 607.089 299.578 607.089 298.501C607.089 297.791 607.228 297.146 607.506 296.567C607.791 295.979 608.187 295.473 608.693 295.049C609.207 294.616 609.807 294.282 610.493 294.045C611.178 293.808 611.929 293.69 612.745 293.69C613.823 293.69 614.79 293.898 615.647 294.314C616.504 294.722 617.181 295.285 617.679 296.004C618.185 296.722 618.438 297.554 618.438 298.501ZM616.969 298.501C616.969 297.742 616.785 297.077 616.418 296.506C616.051 295.934 615.549 295.494 614.912 295.183C614.276 294.865 613.553 294.706 612.745 294.706C611.929 294.706 611.207 294.865 610.578 295.183C609.95 295.494 609.456 295.934 609.097 296.506C608.738 297.077 608.558 297.742 608.558 298.501C608.558 299.293 608.734 299.966 609.085 300.521C609.444 301.076 609.942 301.496 610.578 301.782C611.215 302.068 611.945 302.21 612.77 302.21C613.594 302.21 614.32 302.068 614.949 301.782C615.577 301.496 616.071 301.076 616.43 300.521C616.789 299.966 616.969 299.293 616.969 298.501ZM617.973 289.98C617.973 290.854 617.74 291.633 617.275 292.319C616.818 292.996 616.198 293.531 615.414 293.922C614.631 294.306 613.745 294.498 612.757 294.498C611.762 294.498 610.868 294.306 610.076 293.922C609.293 293.531 608.673 292.996 608.216 292.319C607.767 291.633 607.542 290.854 607.542 289.98C607.542 288.944 607.767 288.071 608.216 287.361C608.673 286.642 609.293 286.096 610.076 285.72C610.86 285.345 611.75 285.157 612.745 285.157C613.733 285.157 614.618 285.345 615.402 285.72C616.193 286.096 616.818 286.642 617.275 287.361C617.74 288.071 617.973 288.944 617.973 289.98ZM616.516 289.968C616.516 289.274 616.349 288.662 616.014 288.132C615.687 287.601 615.239 287.185 614.667 286.883C614.104 286.573 613.463 286.418 612.745 286.418C612.019 286.418 611.374 286.561 610.811 286.846C610.256 287.132 609.815 287.54 609.489 288.071C609.17 288.601 609.011 289.234 609.011 289.968C609.011 290.686 609.17 291.307 609.489 291.829C609.815 292.343 610.26 292.743 610.823 293.029C611.386 293.314 612.031 293.457 612.757 293.457C613.484 293.457 614.129 293.314 614.692 293.029C615.255 292.743 615.7 292.343 616.026 291.829C616.353 291.307 616.516 290.686 616.516 289.968ZM632.627 302.21C633.247 302.21 633.826 302.096 634.365 301.868C634.912 301.631 635.361 301.284 635.712 300.827C636.071 300.362 636.275 299.795 636.324 299.125H637.72C637.679 299.966 637.422 300.717 636.948 301.378C636.483 302.031 635.871 302.545 635.112 302.921C634.361 303.288 633.533 303.471 632.627 303.471C631.704 303.471 630.888 303.304 630.178 302.969C629.476 302.635 628.889 302.17 628.415 301.574C627.942 300.97 627.583 300.268 627.338 299.468C627.101 298.66 626.983 297.791 626.983 296.861V296.346C626.983 295.416 627.101 294.551 627.338 293.751C627.583 292.943 627.942 292.241 628.415 291.645C628.889 291.041 629.476 290.572 630.178 290.237C630.88 289.903 631.692 289.736 632.614 289.736C633.561 289.736 634.41 289.927 635.161 290.311C635.92 290.695 636.524 291.237 636.973 291.939C637.43 292.641 637.679 293.474 637.72 294.437H636.324C636.283 293.727 636.095 293.114 635.761 292.6C635.426 292.086 634.985 291.69 634.439 291.413C633.892 291.135 633.284 290.997 632.614 290.997C631.864 290.997 631.223 291.143 630.692 291.437C630.162 291.723 629.729 292.119 629.395 292.625C629.068 293.123 628.828 293.694 628.672 294.339C628.517 294.975 628.44 295.645 628.44 296.346V296.861C628.44 297.571 628.513 298.248 628.66 298.893C628.815 299.529 629.056 300.097 629.382 300.594C629.717 301.092 630.15 301.488 630.68 301.782C631.219 302.068 631.868 302.21 632.627 302.21ZM639.862 296.812V296.408C639.862 295.445 640.001 294.555 640.278 293.739C640.556 292.923 640.951 292.217 641.466 291.621C641.988 291.025 642.612 290.564 643.339 290.237C644.065 289.903 644.873 289.736 645.763 289.736C646.66 289.736 647.473 289.903 648.199 290.237C648.925 290.564 649.55 291.025 650.072 291.621C650.594 292.217 650.994 292.923 651.272 293.739C651.549 294.555 651.688 295.445 651.688 296.408V296.812C651.688 297.775 651.549 298.664 651.272 299.48C650.994 300.288 650.594 300.99 650.072 301.586C649.558 302.182 648.938 302.647 648.211 302.982C647.485 303.308 646.677 303.471 645.787 303.471C644.889 303.471 644.077 303.308 643.351 302.982C642.625 302.647 642 302.182 641.478 301.586C640.956 300.99 640.556 300.288 640.278 299.48C640.001 298.664 639.862 297.775 639.862 296.812ZM641.319 296.408V296.812C641.319 297.538 641.417 298.228 641.613 298.881C641.808 299.525 642.094 300.101 642.47 300.607C642.845 301.105 643.31 301.496 643.865 301.782C644.42 302.068 645.061 302.21 645.787 302.21C646.505 302.21 647.138 302.068 647.685 301.782C648.24 301.496 648.705 301.105 649.08 300.607C649.456 300.101 649.737 299.525 649.925 298.881C650.121 298.228 650.219 297.538 650.219 296.812V296.408C650.219 295.689 650.121 295.008 649.925 294.363C649.737 293.718 649.452 293.143 649.068 292.637C648.693 292.131 648.227 291.731 647.672 291.437C647.118 291.143 646.481 290.997 645.763 290.997C645.044 290.997 644.408 291.143 643.853 291.437C643.306 291.731 642.841 292.131 642.457 292.637C642.082 293.143 641.796 293.718 641.6 294.363C641.413 295.008 641.319 295.689 641.319 296.408ZM656.352 284.422V303.227H654.895V284.422H656.352ZM660.221 302.333C660.221 302.047 660.311 301.806 660.49 301.611C660.678 301.407 660.931 301.305 661.249 301.305C661.576 301.305 661.833 301.402 662.02 301.598C662.208 301.794 662.302 302.039 662.302 302.333C662.302 302.61 662.208 302.847 662.02 303.043C661.833 303.239 661.576 303.337 661.249 303.337C660.931 303.337 660.678 303.239 660.49 303.043C660.311 302.847 660.221 302.61 660.221 302.333Z" fill="#FDFBF9"/>
<path d="M67.4895 278.733V280.271H60.3596V278.733H67.4895ZM60.7318 266.011V280.271H58.8415V266.011H60.7318ZM71.3483 269.674V280.271H69.5266V269.674H71.3483ZM69.3895 266.863C69.3895 266.569 69.4776 266.321 69.6539 266.118C69.8368 265.916 70.1045 265.815 70.457 265.815C70.8031 265.815 71.0675 265.916 71.2503 266.118C71.4397 266.321 71.5344 266.569 71.5344 266.863C71.5344 267.144 71.4397 267.385 71.2503 267.587C71.0675 267.783 70.8031 267.881 70.457 267.881C70.1045 267.881 69.8368 267.783 69.6539 267.587C69.4776 267.385 69.3895 267.144 69.3895 266.863ZM80.4272 277.46C80.4272 277.199 80.3684 276.957 80.2509 276.735C80.1399 276.506 79.9081 276.301 79.5555 276.118C79.2095 275.929 78.6871 275.765 77.9885 275.628C77.4009 275.504 76.8687 275.357 76.3921 275.188C75.922 275.018 75.5204 274.812 75.1875 274.57C74.861 274.329 74.6096 274.045 74.4333 273.718C74.257 273.392 74.1689 273.01 74.1689 272.573C74.1689 272.155 74.2603 271.76 74.4431 271.387C74.6325 271.015 74.8969 270.686 75.2364 270.398C75.5825 270.111 75.9971 269.886 76.4802 269.723C76.9634 269.559 77.5021 269.478 78.0962 269.478C78.945 269.478 79.6698 269.628 80.2705 269.928C80.8711 270.229 81.3315 270.63 81.6514 271.133C81.9713 271.629 82.1313 272.181 82.1313 272.788H80.3194C80.3194 272.494 80.2313 272.21 80.055 271.936C79.8852 271.655 79.6339 271.423 79.3009 271.241C78.9744 271.058 78.5729 270.966 78.0962 270.966C77.5935 270.966 77.1854 271.045 76.872 271.201C76.5651 271.352 76.3399 271.544 76.1962 271.779C76.0591 272.014 75.9905 272.262 75.9905 272.524C75.9905 272.719 76.0232 272.896 76.0885 273.052C76.1603 273.203 76.2844 273.343 76.4607 273.474C76.6369 273.598 76.8851 273.715 77.205 273.826C77.5249 273.937 77.933 274.048 78.4292 274.159C79.2976 274.355 80.0126 274.59 80.5741 274.864C81.1356 275.139 81.5534 275.475 81.8277 275.873C82.1019 276.271 82.239 276.755 82.239 277.323C82.239 277.786 82.1411 278.211 81.9452 278.596C81.7559 278.981 81.4784 279.314 81.1127 279.595C80.7536 279.869 80.3227 280.084 79.8199 280.241C79.3237 280.391 78.7655 280.466 78.1452 280.466C77.2115 280.466 76.4215 280.3 75.7751 279.967C75.1287 279.634 74.639 279.203 74.306 278.674C73.973 278.145 73.8065 277.587 73.8065 276.999H75.6282C75.6543 277.496 75.7979 277.891 76.0591 278.184C76.3203 278.472 76.6402 278.677 77.0189 278.801C77.3976 278.919 77.773 278.978 78.1452 278.978C78.6414 278.978 79.056 278.912 79.389 278.782C79.7285 278.651 79.9864 278.472 80.1627 278.243C80.339 278.015 80.4272 277.753 80.4272 277.46ZM89.0555 269.674V271.064H83.3261V269.674H89.0555ZM85.2653 267.098H87.0772V277.646C87.0772 278.005 87.1327 278.276 87.2437 278.459C87.3547 278.641 87.4983 278.762 87.6746 278.821C87.8509 278.88 88.0402 278.909 88.2426 278.909C88.3928 278.909 88.5495 278.896 88.7127 278.87C88.8825 278.837 89.0098 278.811 89.0947 278.792L89.1045 280.271C88.9609 280.316 88.7715 280.359 88.5365 280.398C88.3079 280.444 88.0304 280.466 87.704 280.466C87.26 280.466 86.8519 280.378 86.4798 280.202C86.1076 280.026 85.8105 279.732 85.5885 279.321C85.373 278.903 85.2653 278.341 85.2653 277.636V267.098ZM97.4293 278.459V273.003C97.4293 272.586 97.3444 272.223 97.1746 271.916C97.0114 271.603 96.7633 271.361 96.4303 271.192C96.0973 271.022 95.686 270.937 95.1963 270.937C94.7392 270.937 94.3377 271.015 93.9916 271.172C93.6521 271.329 93.3844 271.534 93.1885 271.789C92.9992 272.044 92.9045 272.318 92.9045 272.612H91.0926C91.0926 272.233 91.1906 271.858 91.3865 271.485C91.5823 271.113 91.8631 270.777 92.2287 270.477C92.6009 270.17 93.0449 269.928 93.5607 269.752C94.083 269.569 94.6641 269.478 95.304 269.478C96.0744 269.478 96.7535 269.608 97.3411 269.869C97.9353 270.131 98.3988 270.526 98.7318 271.055C99.0714 271.577 99.2411 272.233 99.2411 273.023V277.959C99.2411 278.312 99.2705 278.687 99.3293 279.085C99.3946 279.484 99.4892 279.827 99.6133 280.114V280.271H97.7231C97.6317 280.062 97.5598 279.784 97.5076 279.438C97.4554 279.085 97.4293 278.759 97.4293 278.459ZM97.7427 273.846L97.7622 275.119H95.9308C95.415 275.119 94.9547 275.161 94.5499 275.246C94.1451 275.325 93.8055 275.445 93.5313 275.609C93.2571 275.772 93.0481 275.978 92.9045 276.226C92.7609 276.467 92.689 276.751 92.689 277.078C92.689 277.411 92.7641 277.714 92.9143 277.989C93.0645 278.263 93.2897 278.482 93.5901 278.645C93.8969 278.801 94.2724 278.88 94.7164 278.88C95.2713 278.88 95.761 278.762 96.1854 278.527C96.6098 278.292 96.9461 278.005 97.1942 277.665C97.4488 277.326 97.586 276.996 97.6055 276.676L98.3793 277.548C98.3336 277.822 98.2095 278.126 98.0071 278.459C97.8047 278.792 97.5337 279.112 97.1942 279.418C96.8612 279.719 96.4629 279.97 95.9994 280.173C95.5423 280.368 95.0265 280.466 94.4519 280.466C93.7337 280.466 93.1036 280.326 92.5617 280.045C92.0263 279.764 91.6085 279.389 91.3081 278.919C91.0143 278.442 90.8674 277.91 90.8674 277.323C90.8674 276.755 90.9784 276.255 91.2004 275.824C91.4224 275.387 91.7423 275.024 92.1602 274.737C92.578 274.443 93.0808 274.221 93.6684 274.071C94.2561 273.921 94.9122 273.846 95.637 273.846H97.7427ZM113.746 278.214V265.227H115.567V280.271H113.902L113.746 278.214ZM106.616 275.09V274.884C106.616 274.074 106.714 273.34 106.91 272.68C107.112 272.014 107.396 271.443 107.762 270.966C108.134 270.49 108.575 270.124 109.084 269.869C109.6 269.608 110.174 269.478 110.808 269.478C111.474 269.478 112.055 269.595 112.551 269.83C113.054 270.059 113.478 270.395 113.824 270.839C114.177 271.277 114.454 271.805 114.657 272.426C114.859 273.046 114.999 273.748 115.078 274.531V275.432C115.006 276.209 114.866 276.908 114.657 277.528C114.454 278.149 114.177 278.677 113.824 279.115C113.478 279.552 113.054 279.889 112.551 280.124C112.048 280.352 111.461 280.466 110.788 280.466C110.168 280.466 109.6 280.333 109.084 280.065C108.575 279.797 108.134 279.422 107.762 278.939C107.396 278.455 107.112 277.887 106.91 277.234C106.714 276.575 106.616 275.86 106.616 275.09ZM108.438 274.884V275.09C108.438 275.618 108.49 276.115 108.594 276.578C108.705 277.042 108.875 277.45 109.104 277.802C109.332 278.155 109.623 278.433 109.975 278.635C110.328 278.831 110.749 278.929 111.239 278.929C111.839 278.929 112.332 278.801 112.717 278.547C113.109 278.292 113.423 277.956 113.658 277.538C113.893 277.12 114.076 276.666 114.206 276.177V273.816C114.128 273.457 114.013 273.111 113.863 272.778C113.72 272.439 113.53 272.138 113.295 271.877C113.067 271.609 112.783 271.397 112.443 271.241C112.11 271.084 111.715 271.006 111.258 271.006C110.762 271.006 110.334 271.11 109.975 271.319C109.623 271.521 109.332 271.802 109.104 272.161C108.875 272.514 108.705 272.925 108.594 273.395C108.49 273.859 108.438 274.355 108.438 274.884ZM122.785 280.466C122.048 280.466 121.378 280.342 120.778 280.094C120.184 279.84 119.671 279.484 119.24 279.027C118.816 278.57 118.489 278.028 118.261 277.401C118.032 276.774 117.918 276.089 117.918 275.344V274.933C117.918 274.071 118.045 273.304 118.3 272.631C118.555 271.952 118.901 271.378 119.338 270.908C119.776 270.437 120.272 270.082 120.827 269.84C121.382 269.598 121.956 269.478 122.55 269.478C123.308 269.478 123.961 269.608 124.509 269.869C125.064 270.131 125.518 270.496 125.871 270.966C126.223 271.43 126.484 271.978 126.654 272.612C126.824 273.239 126.909 273.924 126.909 274.668V275.481H118.995V274.002H125.097V273.865C125.071 273.395 124.973 272.938 124.803 272.494C124.64 272.05 124.379 271.685 124.02 271.397C123.66 271.11 123.171 270.966 122.55 270.966C122.139 270.966 121.76 271.055 121.414 271.231C121.068 271.401 120.771 271.655 120.523 271.995C120.275 272.334 120.082 272.749 119.945 273.239C119.808 273.728 119.74 274.293 119.74 274.933V275.344C119.74 275.847 119.808 276.32 119.945 276.764C120.089 277.202 120.295 277.587 120.562 277.92C120.837 278.253 121.166 278.514 121.551 278.703C121.943 278.893 122.387 278.988 122.883 278.988C123.523 278.988 124.065 278.857 124.509 278.596C124.953 278.335 125.342 277.985 125.675 277.548L126.772 278.419C126.543 278.766 126.253 279.095 125.9 279.409C125.547 279.722 125.113 279.977 124.597 280.173C124.088 280.368 123.484 280.466 122.785 280.466ZM138.24 278.978C138.671 278.978 139.069 278.89 139.435 278.713C139.801 278.537 140.101 278.295 140.336 277.989C140.571 277.675 140.705 277.319 140.738 276.921H142.461C142.429 277.548 142.216 278.132 141.825 278.674C141.439 279.21 140.933 279.644 140.307 279.977C139.68 280.303 138.991 280.466 138.24 280.466C137.444 280.466 136.748 280.326 136.154 280.045C135.566 279.764 135.077 279.379 134.685 278.89C134.3 278.4 134.009 277.838 133.813 277.205C133.624 276.565 133.529 275.889 133.529 275.178V274.766C133.529 274.055 133.624 273.382 133.813 272.749C134.009 272.109 134.3 271.544 134.685 271.055C135.077 270.565 135.566 270.18 136.154 269.899C136.748 269.618 137.444 269.478 138.24 269.478C139.069 269.478 139.794 269.647 140.414 269.987C141.035 270.32 141.521 270.777 141.874 271.358C142.233 271.933 142.429 272.586 142.461 273.317H140.738C140.705 272.879 140.581 272.484 140.365 272.132C140.156 271.779 139.869 271.498 139.504 271.29C139.144 271.074 138.723 270.966 138.24 270.966C137.685 270.966 137.218 271.077 136.84 271.299C136.467 271.515 136.17 271.809 135.948 272.181C135.733 272.546 135.576 272.955 135.478 273.405C135.387 273.849 135.341 274.303 135.341 274.766V275.178C135.341 275.641 135.387 276.098 135.478 276.549C135.57 276.999 135.723 277.407 135.939 277.773C136.161 278.139 136.458 278.433 136.83 278.655C137.209 278.87 137.679 278.978 138.24 278.978ZM144.019 275.09V274.864C144.019 274.1 144.13 273.392 144.352 272.739C144.574 272.08 144.893 271.508 145.311 271.025C145.729 270.535 146.235 270.157 146.829 269.889C147.424 269.615 148.09 269.478 148.827 269.478C149.572 269.478 150.241 269.615 150.835 269.889C151.436 270.157 151.945 270.535 152.363 271.025C152.787 271.508 153.11 272.08 153.332 272.739C153.554 273.392 153.665 274.1 153.665 274.864V275.09C153.665 275.853 153.554 276.562 153.332 277.215C153.11 277.868 152.787 278.439 152.363 278.929C151.945 279.412 151.439 279.791 150.845 280.065C150.257 280.333 149.591 280.466 148.847 280.466C148.103 280.466 147.433 280.333 146.839 280.065C146.245 279.791 145.736 279.412 145.311 278.929C144.893 278.439 144.574 277.868 144.352 277.215C144.13 276.562 144.019 275.853 144.019 275.09ZM145.83 274.864V275.09C145.83 275.618 145.892 276.118 146.016 276.588C146.141 277.052 146.327 277.463 146.575 277.822C146.829 278.181 147.146 278.465 147.525 278.674C147.903 278.877 148.344 278.978 148.847 278.978C149.343 278.978 149.777 278.877 150.149 278.674C150.528 278.465 150.842 278.181 151.09 277.822C151.338 277.463 151.524 277.052 151.648 276.588C151.779 276.118 151.844 275.618 151.844 275.09V274.864C151.844 274.342 151.779 273.849 151.648 273.385C151.524 272.915 151.335 272.501 151.08 272.142C150.832 271.776 150.518 271.489 150.14 271.28C149.768 271.071 149.33 270.966 148.827 270.966C148.331 270.966 147.894 271.071 147.515 271.28C147.143 271.489 146.829 271.776 146.575 272.142C146.327 272.501 146.141 272.915 146.016 273.385C145.892 273.849 145.83 274.342 145.83 274.864ZM157.749 271.936V280.271H155.938V269.674H157.652L157.749 271.936ZM157.319 274.57L156.564 274.541C156.571 273.816 156.679 273.147 156.888 272.533C157.097 271.913 157.39 271.374 157.769 270.917C158.148 270.46 158.598 270.108 159.121 269.86C159.649 269.605 160.234 269.478 160.874 269.478C161.396 269.478 161.866 269.55 162.284 269.693C162.702 269.83 163.058 270.052 163.352 270.359C163.652 270.666 163.88 271.064 164.037 271.554C164.194 272.037 164.272 272.628 164.272 273.327V280.271H162.451V273.307C162.451 272.752 162.369 272.308 162.206 271.975C162.042 271.636 161.804 271.391 161.491 271.241C161.177 271.084 160.792 271.006 160.335 271.006C159.885 271.006 159.473 271.1 159.101 271.29C158.735 271.479 158.419 271.74 158.151 272.073C157.89 272.406 157.684 272.788 157.534 273.219C157.39 273.643 157.319 274.094 157.319 274.57ZM171.461 269.674V271.064H165.731V269.674H171.461ZM167.671 267.098H169.483V277.646C169.483 278.005 169.538 278.276 169.649 278.459C169.76 278.641 169.904 278.762 170.08 278.821C170.256 278.88 170.446 278.909 170.648 278.909C170.798 278.909 170.955 278.896 171.118 278.87C171.288 278.837 171.415 278.811 171.5 278.792L171.51 280.271C171.366 280.316 171.177 280.359 170.942 280.398C170.713 280.444 170.436 280.466 170.109 280.466C169.665 280.466 169.257 280.378 168.885 280.202C168.513 280.026 168.216 279.732 167.994 279.321C167.778 278.903 167.671 278.341 167.671 277.636V267.098ZM179.835 278.459V273.003C179.835 272.586 179.75 272.223 179.58 271.916C179.417 271.603 179.169 271.361 178.836 271.192C178.503 271.022 178.091 270.937 177.602 270.937C177.145 270.937 176.743 271.015 176.397 271.172C176.057 271.329 175.79 271.534 175.594 271.789C175.405 272.044 175.31 272.318 175.31 272.612H173.498C173.498 272.233 173.596 271.858 173.792 271.485C173.988 271.113 174.268 270.777 174.634 270.477C175.006 270.17 175.45 269.928 175.966 269.752C176.488 269.569 177.069 269.478 177.709 269.478C178.48 269.478 179.159 269.608 179.746 269.869C180.341 270.131 180.804 270.526 181.137 271.055C181.477 271.577 181.646 272.233 181.646 273.023V277.959C181.646 278.312 181.676 278.687 181.735 279.085C181.8 279.484 181.895 279.827 182.019 280.114V280.271H180.128C180.037 280.062 179.965 279.784 179.913 279.438C179.861 279.085 179.835 278.759 179.835 278.459ZM180.148 273.846L180.168 275.119H178.336C177.82 275.119 177.36 275.161 176.955 275.246C176.55 275.325 176.211 275.445 175.937 275.609C175.662 275.772 175.453 275.978 175.31 276.226C175.166 276.467 175.094 276.751 175.094 277.078C175.094 277.411 175.169 277.714 175.32 277.989C175.47 278.263 175.695 278.482 175.995 278.645C176.302 278.801 176.678 278.88 177.122 278.88C177.677 278.88 178.166 278.762 178.591 278.527C179.015 278.292 179.351 278.005 179.6 277.665C179.854 277.326 179.991 276.996 180.011 276.676L180.785 277.548C180.739 277.822 180.615 278.126 180.412 278.459C180.21 278.792 179.939 279.112 179.6 279.418C179.267 279.719 178.868 279.97 178.405 280.173C177.948 280.368 177.432 280.466 176.857 280.466C176.139 280.466 175.509 280.326 174.967 280.045C174.432 279.764 174.014 279.389 173.713 278.919C173.42 278.442 173.273 277.91 173.273 277.323C173.273 276.755 173.384 276.255 173.606 275.824C173.828 275.387 174.148 275.024 174.566 274.737C174.983 274.443 175.486 274.221 176.074 274.071C176.661 273.921 177.318 273.846 178.042 273.846H180.148ZM188.933 269.674V271.064H183.204V269.674H188.933ZM185.143 267.098H186.955V277.646C186.955 278.005 187.01 278.276 187.121 278.459C187.232 278.641 187.376 278.762 187.552 278.821C187.728 278.88 187.918 278.909 188.12 278.909C188.27 278.909 188.427 278.896 188.59 278.87C188.76 278.837 188.887 278.811 188.972 278.792L188.982 280.271C188.838 280.316 188.649 280.359 188.414 280.398C188.185 280.444 187.908 280.466 187.582 280.466C187.138 280.466 186.729 280.378 186.357 280.202C185.985 280.026 185.688 279.732 185.466 279.321C185.251 278.903 185.143 278.341 185.143 277.636V267.098ZM190.383 275.09V274.864C190.383 274.1 190.494 273.392 190.716 272.739C190.938 272.08 191.257 271.508 191.675 271.025C192.093 270.535 192.599 270.157 193.193 269.889C193.788 269.615 194.454 269.478 195.191 269.478C195.936 269.478 196.605 269.615 197.199 269.889C197.8 270.157 198.309 270.535 198.727 271.025C199.151 271.508 199.474 272.08 199.696 272.739C199.918 273.392 200.029 274.1 200.029 274.864V275.09C200.029 275.853 199.918 276.562 199.696 277.215C199.474 277.868 199.151 278.439 198.727 278.929C198.309 279.412 197.803 279.791 197.209 280.065C196.621 280.333 195.955 280.466 195.211 280.466C194.467 280.466 193.797 280.333 193.203 280.065C192.609 279.791 192.1 279.412 191.675 278.929C191.257 278.439 190.938 277.868 190.716 277.215C190.494 276.562 190.383 275.853 190.383 275.09ZM192.194 274.864V275.09C192.194 275.618 192.256 276.118 192.38 276.588C192.505 277.052 192.691 277.463 192.939 277.822C193.193 278.181 193.51 278.465 193.889 278.674C194.267 278.877 194.708 278.978 195.211 278.978C195.707 278.978 196.141 278.877 196.513 278.674C196.892 278.465 197.206 278.181 197.454 277.822C197.702 277.463 197.888 277.052 198.012 276.588C198.143 276.118 198.208 275.618 198.208 275.09V274.864C198.208 274.342 198.143 273.849 198.012 273.385C197.888 272.915 197.699 272.501 197.444 272.142C197.196 271.776 196.882 271.489 196.504 271.28C196.132 271.071 195.694 270.966 195.191 270.966C194.695 270.966 194.258 271.071 193.879 271.28C193.507 271.489 193.193 271.776 192.939 272.142C192.691 272.501 192.505 272.915 192.38 273.385C192.256 273.849 192.194 274.342 192.194 274.864ZM208.472 277.46C208.472 277.199 208.413 276.957 208.295 276.735C208.184 276.506 207.953 276.301 207.6 276.118C207.254 275.929 206.732 275.765 206.033 275.628C205.445 275.504 204.913 275.357 204.437 275.188C203.967 275.018 203.565 274.812 203.232 274.57C202.906 274.329 202.654 274.045 202.478 273.718C202.302 273.392 202.214 273.01 202.214 272.573C202.214 272.155 202.305 271.76 202.488 271.387C202.677 271.015 202.942 270.686 203.281 270.398C203.627 270.111 204.042 269.886 204.525 269.723C205.008 269.559 205.547 269.478 206.141 269.478C206.99 269.478 207.714 269.628 208.315 269.928C208.916 270.229 209.376 270.63 209.696 271.133C210.016 271.629 210.176 272.181 210.176 272.788H208.364C208.364 272.494 208.276 272.21 208.1 271.936C207.93 271.655 207.678 271.423 207.345 271.241C207.019 271.058 206.617 270.966 206.141 270.966C205.638 270.966 205.23 271.045 204.917 271.201C204.61 271.352 204.384 271.544 204.241 271.779C204.104 272.014 204.035 272.262 204.035 272.524C204.035 272.719 204.068 272.896 204.133 273.052C204.205 273.203 204.329 273.343 204.505 273.474C204.682 273.598 204.93 273.715 205.25 273.826C205.57 273.937 205.978 274.048 206.474 274.159C207.342 274.355 208.057 274.59 208.619 274.864C209.18 275.139 209.598 275.475 209.872 275.873C210.147 276.271 210.284 276.755 210.284 277.323C210.284 277.786 210.186 278.211 209.99 278.596C209.8 278.981 209.523 279.314 209.157 279.595C208.798 279.869 208.367 280.084 207.865 280.241C207.368 280.391 206.81 280.466 206.19 280.466C205.256 280.466 204.466 280.3 203.82 279.967C203.173 279.634 202.684 279.203 202.351 278.674C202.018 278.145 201.851 277.587 201.851 276.999H203.673C203.699 277.496 203.843 277.891 204.104 278.184C204.365 278.472 204.685 278.677 205.064 278.801C205.442 278.919 205.818 278.978 206.19 278.978C206.686 278.978 207.101 278.912 207.434 278.782C207.773 278.651 208.031 278.472 208.207 278.243C208.384 278.015 208.472 277.753 208.472 277.46ZM122.71 287.495H122.834V288.266H122.71C122.034 288.266 121.431 288.376 120.903 288.597C120.379 288.817 119.935 289.135 119.573 289.552C119.216 289.963 118.944 290.462 118.758 291.05C118.572 291.638 118.479 292.296 118.479 293.026V294.502C118.479 294.997 118.545 295.44 118.677 295.832C118.809 296.219 118.993 296.549 119.228 296.823C119.463 297.098 119.737 297.306 120.051 297.448C120.364 297.59 120.702 297.661 121.064 297.661C121.422 297.661 121.742 297.587 122.026 297.44C122.31 297.294 122.55 297.088 122.746 296.823C122.947 296.559 123.099 296.255 123.202 295.913C123.309 295.565 123.363 295.193 123.363 294.796C123.363 294.419 123.314 294.064 123.216 293.731C123.123 293.393 122.979 293.094 122.783 292.835C122.587 292.575 122.342 292.372 122.049 292.225C121.755 292.078 121.409 292.005 121.013 292.005C120.562 292.005 120.141 292.108 119.749 292.313C119.358 292.519 119.037 292.793 118.787 293.136C118.542 293.479 118.413 293.853 118.398 294.26L117.891 294.253C117.925 293.792 118.031 293.378 118.207 293.011C118.383 292.639 118.616 292.323 118.905 292.064C119.199 291.799 119.534 291.598 119.911 291.461C120.293 291.319 120.704 291.248 121.145 291.248C121.659 291.248 122.107 291.341 122.489 291.527C122.876 291.714 123.197 291.971 123.451 292.299C123.711 292.622 123.904 292.997 124.032 293.423C124.164 293.844 124.23 294.289 124.23 294.759C124.23 295.274 124.157 295.753 124.01 296.199C123.868 296.64 123.657 297.027 123.378 297.36C123.104 297.693 122.771 297.952 122.379 298.138C121.992 298.324 121.554 298.417 121.064 298.417C120.526 298.417 120.043 298.315 119.617 298.109C119.191 297.903 118.826 297.619 118.523 297.257C118.224 296.894 117.994 296.478 117.832 296.008C117.676 295.533 117.597 295.026 117.597 294.488V293.547C117.597 292.637 117.702 291.811 117.913 291.072C118.124 290.328 118.439 289.689 118.861 289.155C119.287 288.621 119.818 288.212 120.455 287.928C121.096 287.639 121.848 287.495 122.71 287.495ZM132.743 297.661C133.116 297.661 133.463 297.592 133.786 297.455C134.115 297.313 134.384 297.105 134.594 296.831C134.81 296.552 134.932 296.211 134.962 295.81H135.799C135.775 296.314 135.62 296.765 135.336 297.161C135.057 297.553 134.69 297.862 134.234 298.087C133.784 298.307 133.287 298.417 132.743 298.417C132.19 298.417 131.7 298.317 131.274 298.116C130.853 297.915 130.501 297.636 130.217 297.279C129.933 296.917 129.717 296.495 129.57 296.015C129.428 295.531 129.357 295.009 129.357 294.451V294.142C129.357 293.584 129.428 293.065 129.57 292.585C129.717 292.1 129.933 291.679 130.217 291.322C130.501 290.959 130.853 290.678 131.274 290.477C131.695 290.276 132.183 290.176 132.736 290.176C133.304 290.176 133.813 290.291 134.264 290.521C134.719 290.751 135.082 291.077 135.351 291.498C135.625 291.919 135.775 292.419 135.799 292.997H134.962C134.937 292.57 134.825 292.203 134.624 291.895C134.423 291.586 134.159 291.349 133.83 291.182C133.502 291.016 133.138 290.932 132.736 290.932C132.286 290.932 131.901 291.021 131.583 291.197C131.265 291.368 131.005 291.606 130.804 291.909C130.608 292.208 130.464 292.551 130.371 292.938C130.278 293.32 130.231 293.721 130.231 294.142V294.451C130.231 294.877 130.275 295.283 130.363 295.67C130.457 296.052 130.601 296.393 130.797 296.691C130.998 296.99 131.257 297.227 131.575 297.404C131.899 297.575 132.288 297.661 132.743 297.661ZM137.084 294.422V294.179C137.084 293.601 137.168 293.068 137.334 292.578C137.501 292.088 137.738 291.665 138.047 291.307C138.36 290.95 138.735 290.673 139.171 290.477C139.606 290.276 140.091 290.176 140.625 290.176C141.164 290.176 141.651 290.276 142.087 290.477C142.523 290.673 142.897 290.95 143.211 291.307C143.524 291.665 143.764 292.088 143.93 292.578C144.097 293.068 144.18 293.601 144.18 294.179V294.422C144.18 294.999 144.097 295.533 143.93 296.023C143.764 296.508 143.524 296.929 143.211 297.286C142.902 297.644 142.53 297.923 142.094 298.124C141.658 298.319 141.173 298.417 140.64 298.417C140.101 298.417 139.614 298.319 139.178 298.124C138.742 297.923 138.367 297.644 138.054 297.286C137.741 296.929 137.501 296.508 137.334 296.023C137.168 295.533 137.084 294.999 137.084 294.422ZM137.959 294.179V294.422C137.959 294.857 138.017 295.271 138.135 295.663C138.252 296.05 138.424 296.395 138.649 296.699C138.874 296.997 139.153 297.232 139.486 297.404C139.819 297.575 140.204 297.661 140.64 297.661C141.071 297.661 141.45 297.575 141.778 297.404C142.111 297.232 142.39 296.997 142.616 296.699C142.841 296.395 143.01 296.05 143.122 295.663C143.24 295.271 143.299 294.857 143.299 294.422V294.179C143.299 293.748 143.24 293.339 143.122 292.952C143.01 292.566 142.838 292.22 142.608 291.917C142.383 291.613 142.104 291.373 141.771 291.197C141.438 291.021 141.056 290.932 140.625 290.932C140.194 290.932 139.812 291.021 139.479 291.197C139.151 291.373 138.872 291.613 138.642 291.917C138.416 292.22 138.245 292.566 138.128 292.952C138.015 293.339 137.959 293.748 137.959 294.179ZM146.979 286.988V298.271H146.105V286.988H146.979ZM149.3 297.734C149.3 297.563 149.354 297.418 149.461 297.301C149.574 297.178 149.726 297.117 149.917 297.117C150.113 297.117 150.267 297.176 150.38 297.294C150.492 297.411 150.549 297.558 150.549 297.734C150.549 297.901 150.492 298.043 150.38 298.16C150.267 298.278 150.113 298.337 149.917 298.337C149.726 298.337 149.574 298.278 149.461 298.16C149.354 298.043 149.3 297.901 149.3 297.734Z" fill="#FDFBF9"/>
</svg>
