<svg width="728" height="405" viewBox="0 0 728 405" fill="none" xmlns="http://www.w3.org/2000/svg">
<rect x="0.845703" y="0.518555" width="727.094" height="403.663" rx="11.1571" fill="#0567FF" fill-opacity="0.25"/>
<rect x="6.4375" y="6.42383" width="23.6561" height="391.297" fill="#FDFBF9" fill-opacity="0.1"/>
<rect x="35.9473" y="6.42383" width="23.6561" height="391.297" fill="#FDFBF9" fill-opacity="0.1"/>
<rect x="66.0332" y="6.42383" width="23.6561" height="391.297" fill="#FDFBF9" fill-opacity="0.1"/>
<rect x="96.1191" y="6.42383" width="23.6561" height="391.297" fill="#FDFBF9" fill-opacity="0.1"/>
<rect x="126.207" y="6.42383" width="23.6561" height="391.297" fill="#FDFBF9" fill-opacity="0.1"/>
<rect x="156.293" y="6.42383" width="23.6561" height="391.297" fill="#FDFBF9" fill-opacity="0.1"/>
<rect x="186.379" y="6.42383" width="23.6561" height="391.297" fill="#FDFBF9" fill-opacity="0.1"/>
<rect x="216.467" y="6.42383" width="23.6561" height="391.297" fill="#FDFBF9" fill-opacity="0.1"/>
<rect x="246.553" y="6.42383" width="23.6561" height="391.297" fill="#FDFBF9" fill-opacity="0.1"/>
<rect x="276.641" y="6.42383" width="23.6561" height="391.297" fill="#FDFBF9" fill-opacity="0.1"/>
<rect x="306.727" y="6.42383" width="23.6561" height="391.297" fill="#FDFBF9" fill-opacity="0.1"/>
<rect x="336.812" y="6.42383" width="23.6561" height="391.297" fill="#FDFBF9" fill-opacity="0.1"/>
<rect x="366.9" y="6.42383" width="23.6561" height="391.297" fill="#FDFBF9" fill-opacity="0.1"/>
<rect x="396.986" y="6.42383" width="23.6561" height="391.297" fill="#FDFBF9" fill-opacity="0.1"/>
<rect x="427.072" y="6.42383" width="23.6561" height="391.297" fill="#FDFBF9" fill-opacity="0.1"/>
<rect x="457.16" y="6.42383" width="23.6561" height="391.297" fill="#FDFBF9" fill-opacity="0.1"/>
<rect x="487.246" y="6.42383" width="23.6561" height="391.297" fill="#FDFBF9" fill-opacity="0.1"/>
<rect x="517.334" y="6.42383" width="23.6561" height="391.297" fill="#FDFBF9" fill-opacity="0.1"/>
<rect x="547.42" y="6.42383" width="23.6561" height="391.297" fill="#FDFBF9" fill-opacity="0.1"/>
<rect x="577.506" y="6.42383" width="23.6561" height="391.297" fill="#FDFBF9" fill-opacity="0.1"/>
<rect x="607.594" y="6.42383" width="23.6561" height="391.297" fill="#FDFBF9" fill-opacity="0.1"/>
<rect x="637.68" y="6.42383" width="23.6561" height="391.297" fill="#FDFBF9" fill-opacity="0.1"/>
<rect x="667.766" y="6.42383" width="23.6561" height="391.297" fill="#FDFBF9" fill-opacity="0.1"/>
<rect x="697.854" y="6.42383" width="23.6561" height="391.297" fill="#FDFBF9" fill-opacity="0.1"/>
<rect x="5.85938" y="30.6055" width="172.998" height="366.054" rx="11.1631" fill="#0567FF" fill-opacity="0.5"/>
<rect x="186.381" y="30.6055" width="534.038" height="366.054" rx="11.1631" fill="#0567FF" fill-opacity="0.5"/>
<path d="M727.939 25.5107L0.84552 25.5107L0.845521 11.6848C0.845522 5.51836 5.84444 0.519438 12.0109 0.519438L716.774 0.5195C722.941 0.5195 727.939 5.51842 727.939 11.6849L727.939 25.5107Z" fill="#0567FF"/>
<path d="M410.903 202.237H413.724C413.577 203.589 413.19 204.798 412.563 205.866C411.937 206.933 411.05 207.781 409.904 208.407C408.758 209.024 407.329 209.333 405.615 209.333C404.361 209.333 403.22 209.098 402.192 208.628C401.173 208.158 400.297 207.492 399.562 206.63C398.828 205.758 398.259 204.715 397.858 203.501C397.466 202.276 397.27 200.915 397.27 199.417V197.286C397.27 195.788 397.466 194.432 397.858 193.217C398.259 191.993 398.832 190.945 399.577 190.073C400.331 189.202 401.237 188.531 402.295 188.061C403.352 187.591 404.542 187.356 405.864 187.356C407.48 187.356 408.847 187.659 409.963 188.266C411.08 188.874 411.946 189.716 412.563 190.793C413.19 191.861 413.577 193.1 413.724 194.51H410.903C410.766 193.511 410.512 192.654 410.139 191.939C409.767 191.214 409.238 190.656 408.553 190.264C407.867 189.873 406.971 189.677 405.864 189.677C404.914 189.677 404.077 189.858 403.352 190.22C402.637 190.583 402.035 191.097 401.545 191.763C401.065 192.429 400.703 193.227 400.458 194.157C400.213 195.088 400.091 196.121 400.091 197.257V199.417C400.091 200.465 400.199 201.449 400.414 202.369C400.639 203.29 400.977 204.098 401.428 204.793C401.878 205.489 402.451 206.037 403.147 206.439C403.842 206.831 404.665 207.026 405.615 207.026C406.819 207.026 407.779 206.835 408.494 206.453C409.209 206.072 409.748 205.523 410.11 204.808C410.482 204.093 410.747 203.236 410.903 202.237ZM416.456 201.268V200.93C416.456 199.784 416.623 198.721 416.956 197.742C417.289 196.753 417.769 195.896 418.396 195.171C419.022 194.436 419.781 193.868 420.673 193.467C421.564 193.056 422.563 192.85 423.67 192.85C424.786 192.85 425.79 193.056 426.681 193.467C427.582 193.868 428.346 194.436 428.973 195.171C429.61 195.896 430.094 196.753 430.427 197.742C430.76 198.721 430.927 199.784 430.927 200.93V201.268C430.927 202.414 430.76 203.476 430.427 204.456C430.094 205.435 429.61 206.292 428.973 207.026C428.346 207.751 427.587 208.319 426.696 208.731C425.814 209.132 424.815 209.333 423.699 209.333C422.582 209.333 421.579 209.132 420.687 208.731C419.796 208.319 419.032 207.751 418.396 207.026C417.769 206.292 417.289 205.435 416.956 204.456C416.623 203.476 416.456 202.414 416.456 201.268ZM419.174 200.93V201.268C419.174 202.061 419.267 202.81 419.453 203.515C419.639 204.211 419.919 204.828 420.291 205.366C420.673 205.905 421.148 206.331 421.716 206.644C422.284 206.948 422.945 207.1 423.699 207.1C424.443 207.1 425.095 206.948 425.653 206.644C426.221 206.331 426.691 205.905 427.063 205.366C427.435 204.828 427.714 204.211 427.901 203.515C428.096 202.81 428.194 202.061 428.194 201.268V200.93C428.194 200.146 428.096 199.407 427.901 198.711C427.714 198.006 427.43 197.384 427.048 196.846C426.676 196.297 426.206 195.866 425.638 195.553C425.08 195.24 424.424 195.083 423.67 195.083C422.925 195.083 422.269 195.24 421.701 195.553C421.143 195.866 420.673 196.297 420.291 196.846C419.919 197.384 419.639 198.006 419.453 198.711C419.267 199.407 419.174 200.146 419.174 200.93ZM437.053 196.537V209.039H434.335V193.144H436.906L437.053 196.537ZM436.406 200.489L435.275 200.445C435.285 199.358 435.447 198.354 435.76 197.433C436.073 196.503 436.514 195.695 437.082 195.009C437.65 194.324 438.326 193.795 439.11 193.423C439.903 193.041 440.779 192.85 441.739 192.85C442.523 192.85 443.228 192.958 443.855 193.173C444.481 193.379 445.015 193.712 445.456 194.172C445.906 194.632 446.249 195.23 446.484 195.964C446.719 196.689 446.837 197.575 446.837 198.623V209.039H444.104V198.594C444.104 197.761 443.982 197.095 443.737 196.596C443.492 196.087 443.135 195.719 442.665 195.494C442.195 195.259 441.617 195.142 440.931 195.142C440.255 195.142 439.638 195.284 439.08 195.568C438.532 195.852 438.057 196.243 437.655 196.743C437.263 197.242 436.955 197.815 436.73 198.462C436.514 199.098 436.406 199.774 436.406 200.489ZM455.798 206.586L460.147 193.144H462.923L457.209 209.039H455.387L455.798 206.586ZM452.17 193.144L456.65 206.659L456.959 209.039H455.137L449.378 193.144H452.17ZM471.929 209.333C470.822 209.333 469.818 209.147 468.917 208.775C468.026 208.393 467.257 207.859 466.611 207.173C465.974 206.488 465.484 205.675 465.142 204.735C464.799 203.794 464.627 202.766 464.627 201.65V201.033C464.627 199.74 464.818 198.589 465.2 197.58C465.582 196.562 466.101 195.7 466.758 194.995C467.414 194.29 468.158 193.756 468.991 193.393C469.823 193.031 470.685 192.85 471.576 192.85C472.712 192.85 473.692 193.046 474.514 193.437C475.347 193.829 476.027 194.378 476.556 195.083C477.085 195.778 477.477 196.601 477.732 197.551C477.986 198.491 478.114 199.519 478.114 200.636V201.855H466.243V199.637H475.396V199.431C475.357 198.726 475.21 198.041 474.955 197.375C474.71 196.709 474.318 196.16 473.78 195.729C473.241 195.298 472.507 195.083 471.576 195.083C470.959 195.083 470.391 195.215 469.872 195.479C469.353 195.734 468.907 196.116 468.535 196.625C468.163 197.135 467.874 197.757 467.668 198.491C467.463 199.226 467.36 200.073 467.36 201.033V201.65C467.36 202.404 467.463 203.114 467.668 203.78C467.884 204.436 468.192 205.014 468.594 205.513C469.005 206.013 469.5 206.405 470.078 206.689C470.665 206.973 471.331 207.115 472.076 207.115C473.035 207.115 473.848 206.919 474.514 206.527C475.18 206.135 475.763 205.611 476.262 204.955L477.908 206.263C477.565 206.782 477.129 207.276 476.6 207.746C476.072 208.216 475.42 208.598 474.647 208.892C473.883 209.186 472.977 209.333 471.929 209.333ZM484.005 195.641V209.039H481.287V193.144H483.931L484.005 195.641ZM488.97 193.056L488.955 195.582C488.73 195.533 488.515 195.504 488.309 195.494C488.113 195.475 487.888 195.465 487.633 195.465C487.006 195.465 486.453 195.563 485.973 195.759C485.493 195.954 485.087 196.229 484.754 196.581C484.421 196.934 484.156 197.355 483.96 197.845C483.774 198.325 483.652 198.853 483.593 199.431L482.829 199.872C482.829 198.912 482.922 198.011 483.108 197.169C483.304 196.327 483.603 195.582 484.005 194.936C484.406 194.28 484.915 193.77 485.532 193.408C486.159 193.036 486.903 192.85 487.765 192.85C487.961 192.85 488.186 192.874 488.441 192.923C488.696 192.962 488.872 193.007 488.97 193.056ZM500.737 204.823C500.737 204.431 500.649 204.069 500.473 203.736C500.306 203.393 499.959 203.084 499.43 202.81C498.911 202.526 498.127 202.281 497.079 202.076C496.198 201.89 495.4 201.669 494.685 201.415C493.98 201.16 493.377 200.851 492.878 200.489C492.388 200.127 492.011 199.701 491.747 199.211C491.482 198.721 491.35 198.148 491.35 197.492C491.35 196.865 491.487 196.273 491.761 195.715C492.045 195.156 492.442 194.662 492.951 194.231C493.47 193.8 494.092 193.462 494.817 193.217C495.542 192.972 496.35 192.85 497.241 192.85C498.514 192.85 499.601 193.075 500.502 193.526C501.403 193.976 502.094 194.578 502.574 195.333C503.054 196.077 503.293 196.905 503.293 197.815H500.576C500.576 197.375 500.443 196.949 500.179 196.537C499.924 196.116 499.547 195.768 499.048 195.494C498.558 195.22 497.956 195.083 497.241 195.083C496.487 195.083 495.875 195.2 495.405 195.435C494.944 195.661 494.606 195.95 494.391 196.302C494.185 196.655 494.082 197.027 494.082 197.419C494.082 197.712 494.131 197.977 494.229 198.212C494.337 198.437 494.523 198.648 494.788 198.844C495.052 199.03 495.424 199.206 495.904 199.373C496.384 199.539 496.996 199.706 497.74 199.872C499.043 200.166 500.115 200.518 500.958 200.93C501.8 201.341 502.427 201.845 502.838 202.443C503.249 203.04 503.455 203.765 503.455 204.617C503.455 205.313 503.308 205.949 503.014 206.527C502.73 207.105 502.314 207.604 501.766 208.025C501.227 208.437 500.581 208.76 499.826 208.995C499.082 209.22 498.245 209.333 497.314 209.333C495.914 209.333 494.729 209.083 493.759 208.584C492.79 208.084 492.055 207.438 491.556 206.644C491.056 205.851 490.806 205.014 490.806 204.132H493.539C493.578 204.877 493.793 205.469 494.185 205.91C494.577 206.341 495.057 206.649 495.625 206.835C496.193 207.012 496.756 207.1 497.314 207.1C498.059 207.1 498.681 207.002 499.18 206.806C499.689 206.61 500.076 206.341 500.341 205.998C500.605 205.655 500.737 205.264 500.737 204.823ZM516.398 206.321V198.139C516.398 197.512 516.27 196.968 516.016 196.508C515.771 196.038 515.399 195.675 514.899 195.421C514.4 195.166 513.783 195.039 513.048 195.039C512.363 195.039 511.76 195.156 511.241 195.391C510.732 195.626 510.33 195.935 510.037 196.317C509.753 196.699 509.61 197.11 509.61 197.551H506.893C506.893 196.983 507.04 196.42 507.333 195.861C507.627 195.303 508.048 194.799 508.597 194.348C509.155 193.888 509.821 193.526 510.595 193.261C511.378 192.987 512.25 192.85 513.21 192.85C514.365 192.85 515.384 193.046 516.265 193.437C517.157 193.829 517.852 194.422 518.351 195.215C518.861 195.999 519.115 196.983 519.115 198.168V205.572C519.115 206.101 519.159 206.664 519.248 207.261C519.346 207.859 519.488 208.373 519.674 208.804V209.039H516.838C516.701 208.726 516.593 208.309 516.515 207.79C516.437 207.261 516.398 206.772 516.398 206.321ZM516.868 199.402L516.897 201.312H514.15C513.376 201.312 512.686 201.375 512.079 201.503C511.471 201.62 510.962 201.801 510.551 202.046C510.139 202.291 509.826 202.6 509.61 202.972C509.395 203.334 509.287 203.76 509.287 204.25C509.287 204.749 509.4 205.205 509.625 205.616C509.85 206.027 510.188 206.356 510.639 206.6C511.099 206.835 511.662 206.953 512.328 206.953C513.161 206.953 513.895 206.777 514.532 206.424C515.168 206.072 515.673 205.641 516.045 205.131C516.427 204.622 516.633 204.127 516.662 203.648L517.823 204.955C517.754 205.366 517.568 205.822 517.264 206.321C516.961 206.821 516.554 207.301 516.045 207.761C515.546 208.211 514.948 208.589 514.253 208.892C513.567 209.186 512.793 209.333 511.932 209.333C510.854 209.333 509.909 209.122 509.096 208.701C508.293 208.28 507.666 207.717 507.216 207.012C506.775 206.297 506.555 205.499 506.555 204.617C506.555 203.765 506.721 203.016 507.054 202.369C507.387 201.713 507.867 201.17 508.494 200.739C509.121 200.298 509.875 199.965 510.756 199.74C511.638 199.515 512.622 199.402 513.709 199.402H516.868ZM430.635 220.141V238.039H429.179V221.989L424.331 223.789V222.406L430.391 220.141H430.635ZM448.889 236.778V238.039H437.736V236.901L443.576 230.277C444.302 229.453 444.881 228.731 445.314 228.111C445.747 227.482 446.057 226.911 446.244 226.397C446.44 225.874 446.538 225.368 446.538 224.879C446.538 224.16 446.395 223.528 446.11 222.981C445.832 222.434 445.416 222.006 444.861 221.696C444.306 221.385 443.62 221.23 442.804 221.23C441.988 221.23 441.278 221.406 440.674 221.757C440.07 222.108 439.605 222.597 439.279 223.226C438.96 223.846 438.801 224.552 438.801 225.344H437.344C437.344 224.364 437.561 223.467 437.993 222.65C438.434 221.834 439.062 221.186 439.878 220.704C440.695 220.214 441.67 219.969 442.804 219.969C443.882 219.969 444.808 220.161 445.583 220.545C446.359 220.92 446.954 221.463 447.371 222.173C447.795 222.883 448.007 223.74 448.007 224.744C448.007 225.283 447.909 225.825 447.713 226.372C447.526 226.919 447.265 227.466 446.93 228.013C446.603 228.551 446.228 229.086 445.804 229.616C445.387 230.147 444.951 230.669 444.494 231.183L439.523 236.778H448.889ZM462.882 237.023C463.502 237.023 464.081 236.909 464.62 236.68C465.167 236.443 465.616 236.097 465.967 235.64C466.326 235.174 466.53 234.607 466.579 233.938H467.974C467.934 234.779 467.677 235.529 467.203 236.19C466.738 236.843 466.126 237.358 465.367 237.733C464.616 238.1 463.788 238.284 462.882 238.284C461.959 238.284 461.143 238.117 460.433 237.782C459.731 237.447 459.144 236.982 458.67 236.386C458.197 235.782 457.838 235.081 457.593 234.281C457.356 233.473 457.238 232.603 457.238 231.673V231.159C457.238 230.228 457.356 229.363 457.593 228.564C457.838 227.756 458.197 227.054 458.67 226.458C459.144 225.854 459.731 225.385 460.433 225.05C461.135 224.715 461.947 224.548 462.869 224.548C463.816 224.548 464.665 224.74 465.416 225.123C466.175 225.507 466.779 226.05 467.228 226.752C467.685 227.454 467.934 228.286 467.974 229.249H466.579C466.538 228.539 466.35 227.927 466.016 227.413C465.681 226.899 465.24 226.503 464.694 226.225C464.147 225.948 463.539 225.809 462.869 225.809C462.119 225.809 461.478 225.956 460.947 226.25C460.417 226.535 459.984 226.931 459.65 227.437C459.323 227.935 459.082 228.506 458.927 229.151C458.772 229.788 458.695 230.457 458.695 231.159V231.673C458.695 232.383 458.768 233.061 458.915 233.705C459.07 234.342 459.311 234.909 459.637 235.407C459.972 235.905 460.405 236.301 460.935 236.594C461.474 236.88 462.123 237.023 462.882 237.023ZM470.117 231.624V231.22C470.117 230.257 470.256 229.367 470.533 228.551C470.811 227.735 471.206 227.029 471.721 226.433C472.243 225.838 472.867 225.376 473.594 225.05C474.32 224.715 475.128 224.548 476.018 224.548C476.915 224.548 477.727 224.715 478.454 225.05C479.18 225.376 479.805 225.838 480.327 226.433C480.849 227.029 481.249 227.735 481.527 228.551C481.804 229.367 481.943 230.257 481.943 231.22V231.624C481.943 232.587 481.804 233.477 481.527 234.293C481.249 235.101 480.849 235.803 480.327 236.399C479.813 236.994 479.192 237.46 478.466 237.794C477.74 238.121 476.932 238.284 476.042 238.284C475.144 238.284 474.332 238.121 473.606 237.794C472.88 237.46 472.255 236.994 471.733 236.399C471.211 235.803 470.811 235.101 470.533 234.293C470.256 233.477 470.117 232.587 470.117 231.624ZM471.574 231.22V231.624C471.574 232.35 471.672 233.04 471.868 233.693C472.063 234.338 472.349 234.913 472.724 235.419C473.1 235.917 473.565 236.309 474.12 236.594C474.675 236.88 475.316 237.023 476.042 237.023C476.76 237.023 477.393 236.88 477.94 236.594C478.495 236.309 478.96 235.917 479.335 235.419C479.711 234.913 479.992 234.338 480.18 233.693C480.376 233.04 480.474 232.35 480.474 231.624V231.22C480.474 230.502 480.376 229.82 480.18 229.176C479.992 228.531 479.707 227.955 479.323 227.449C478.948 226.943 478.482 226.544 477.927 226.25C477.372 225.956 476.736 225.809 476.018 225.809C475.299 225.809 474.663 225.956 474.108 226.25C473.561 226.544 473.096 226.943 472.712 227.449C472.337 227.955 472.051 228.531 471.855 229.176C471.668 229.82 471.574 230.502 471.574 231.22ZM486.607 219.235V238.039H485.15V219.235H486.607ZM490.476 237.145C490.476 236.86 490.566 236.619 490.745 236.423C490.933 236.219 491.186 236.117 491.504 236.117C491.831 236.117 492.088 236.215 492.275 236.411C492.463 236.607 492.557 236.852 492.557 237.145C492.557 237.423 492.463 237.66 492.275 237.855C492.088 238.051 491.831 238.149 491.504 238.149C491.186 238.149 490.933 238.051 490.745 237.855C490.566 237.66 490.476 237.423 490.476 237.145Z" fill="#FDFBF9"/>
<path d="M64.9256 188.472V190.01H57.7957V188.472H64.9256ZM58.1679 175.75V190.01H56.2777V175.75H58.1679ZM68.7844 179.413V190.01H66.9628V179.413H68.7844ZM66.8256 176.602C66.8256 176.308 66.9138 176.06 67.0901 175.858C67.2729 175.655 67.5406 175.554 67.8932 175.554C68.2392 175.554 68.5037 175.655 68.6865 175.858C68.8758 176.06 68.9705 176.308 68.9705 176.602C68.9705 176.883 68.8758 177.124 68.6865 177.327C68.5037 177.523 68.2392 177.621 67.8932 177.621C67.5406 177.621 67.2729 177.523 67.0901 177.327C66.9138 177.124 66.8256 176.883 66.8256 176.602ZM77.8633 187.199C77.8633 186.938 77.8045 186.696 77.687 186.474C77.576 186.246 77.3442 186.04 76.9916 185.857C76.6456 185.668 76.1233 185.505 75.4246 185.367C74.837 185.243 74.3049 185.097 73.8282 184.927C73.3581 184.757 72.9566 184.551 72.6236 184.31C72.2971 184.068 72.0458 183.784 71.8695 183.458C71.6932 183.131 71.605 182.749 71.605 182.312C71.605 181.894 71.6964 181.499 71.8793 181.127C72.0686 180.755 72.333 180.425 72.6726 180.138C73.0186 179.85 73.4332 179.625 73.9164 179.462C74.3995 179.299 74.9382 179.217 75.5324 179.217C76.3812 179.217 77.1059 179.367 77.7066 179.667C78.3073 179.968 78.7676 180.369 79.0875 180.872C79.4075 181.368 79.5674 181.92 79.5674 182.527H77.7556C77.7556 182.233 77.6674 181.949 77.4911 181.675C77.3214 181.394 77.07 181.163 76.737 180.98C76.4105 180.797 76.009 180.706 75.5324 180.706C75.0296 180.706 74.6215 180.784 74.3081 180.941C74.0013 181.091 73.776 181.283 73.6324 181.519C73.4952 181.754 73.4267 182.002 73.4267 182.263C73.4267 182.459 73.4593 182.635 73.5246 182.792C73.5964 182.942 73.7205 183.082 73.8968 183.213C74.0731 183.337 74.3212 183.454 74.6411 183.565C74.9611 183.676 75.3691 183.787 75.8654 183.898C76.7337 184.094 77.4487 184.329 78.0102 184.604C78.5717 184.878 78.9896 185.214 79.2638 185.612C79.538 186.011 79.6752 186.494 79.6752 187.062C79.6752 187.525 79.5772 187.95 79.3813 188.335C79.192 188.72 78.9145 189.053 78.5489 189.334C78.1898 189.608 77.7588 189.824 77.2561 189.98C76.7599 190.131 76.2016 190.206 75.5813 190.206C74.6477 190.206 73.8576 190.039 73.2112 189.706C72.5648 189.373 72.0751 188.942 71.7421 188.413C71.4092 187.885 71.2427 187.326 71.2427 186.739H73.0643C73.0904 187.235 73.2341 187.63 73.4952 187.924C73.7564 188.211 74.0763 188.417 74.455 188.541C74.8337 188.658 75.2092 188.717 75.5813 188.717C76.0776 188.717 76.4922 188.652 76.8251 188.521C77.1647 188.391 77.4226 188.211 77.5989 187.982C77.7752 187.754 77.8633 187.493 77.8633 187.199ZM86.4917 179.413V180.804H80.7623V179.413H86.4917ZM82.7014 176.837H84.5133V187.385C84.5133 187.744 84.5688 188.015 84.6798 188.198C84.7908 188.381 84.9344 188.502 85.1107 188.56C85.287 188.619 85.4764 188.648 85.6788 188.648C85.8289 188.648 85.9856 188.635 86.1489 188.609C86.3186 188.577 86.446 188.55 86.5308 188.531L86.5406 190.01C86.397 190.055 86.2076 190.098 85.9726 190.137C85.7441 190.183 85.4666 190.206 85.1401 190.206C84.6961 190.206 84.2881 190.117 83.9159 189.941C83.5437 189.765 83.2466 189.471 83.0246 189.06C82.8092 188.642 82.7014 188.08 82.7014 187.375V176.837ZM94.8654 188.198V182.743C94.8654 182.325 94.7805 181.962 94.6108 181.656C94.4475 181.342 94.1994 181.101 93.8664 180.931C93.5334 180.761 93.1221 180.676 92.6324 180.676C92.1754 180.676 91.7738 180.755 91.4278 180.911C91.0882 181.068 90.8205 181.274 90.6247 181.528C90.4353 181.783 90.3406 182.057 90.3406 182.351H88.5288C88.5288 181.972 88.6267 181.597 88.8226 181.225C89.0185 180.853 89.2992 180.516 89.6649 180.216C90.037 179.909 90.481 179.667 90.9968 179.491C91.5192 179.308 92.1003 179.217 92.7401 179.217C93.5106 179.217 94.1896 179.348 94.7772 179.609C95.3714 179.87 95.835 180.265 96.168 180.794C96.5075 181.316 96.6773 181.972 96.6773 182.762V187.698C96.6773 188.051 96.7066 188.426 96.7654 188.825C96.8307 189.223 96.9254 189.566 97.0494 189.853V190.01H95.1592C95.0678 189.801 94.996 189.523 94.9437 189.177C94.8915 188.825 94.8654 188.498 94.8654 188.198ZM95.1788 183.585L95.1984 184.858H93.3669C92.8511 184.858 92.3908 184.901 91.986 184.986C91.5812 185.064 91.2417 185.185 90.9674 185.348C90.6932 185.511 90.4843 185.717 90.3406 185.965C90.197 186.206 90.1252 186.491 90.1252 186.817C90.1252 187.15 90.2003 187.454 90.3504 187.728C90.5006 188.002 90.7259 188.221 91.0262 188.384C91.3331 188.541 91.7085 188.619 92.1525 188.619C92.7075 188.619 93.1972 188.502 93.6216 188.266C94.046 188.031 94.3822 187.744 94.6303 187.405C94.885 187.065 95.0221 186.735 95.0417 186.415L95.8154 187.287C95.7697 187.561 95.6456 187.865 95.4432 188.198C95.2408 188.531 94.9699 188.851 94.6303 189.158C94.2973 189.458 93.8991 189.709 93.4355 189.912C92.9784 190.108 92.4626 190.206 91.8881 190.206C91.1698 190.206 90.5398 190.065 89.9979 189.785C89.4625 189.504 89.0446 189.128 88.7442 188.658C88.4504 188.182 88.3035 187.649 88.3035 187.062C88.3035 186.494 88.4145 185.994 88.6365 185.563C88.8585 185.126 89.1784 184.764 89.5963 184.476C90.0142 184.182 90.5169 183.96 91.1046 183.81C91.6922 183.66 92.3484 183.585 93.0731 183.585H95.1788ZM111.182 187.953V174.966H113.004V190.01H111.339L111.182 187.953ZM104.052 184.829V184.623C104.052 183.814 104.15 183.079 104.346 182.42C104.548 181.754 104.832 181.182 105.198 180.706C105.57 180.229 106.011 179.863 106.52 179.609C107.036 179.348 107.61 179.217 108.244 179.217C108.91 179.217 109.491 179.334 109.987 179.57C110.49 179.798 110.914 180.134 111.26 180.578C111.613 181.016 111.89 181.545 112.093 182.165C112.295 182.785 112.436 183.487 112.514 184.271V185.172C112.442 185.949 112.302 186.647 112.093 187.267C111.89 187.888 111.613 188.417 111.26 188.854C110.914 189.292 110.49 189.628 109.987 189.863C109.484 190.091 108.897 190.206 108.224 190.206C107.604 190.206 107.036 190.072 106.52 189.804C106.011 189.536 105.57 189.161 105.198 188.678C104.832 188.195 104.548 187.627 104.346 186.974C104.15 186.314 104.052 185.599 104.052 184.829ZM105.874 184.623V184.829C105.874 185.358 105.926 185.854 106.03 186.317C106.141 186.781 106.311 187.189 106.54 187.542C106.768 187.894 107.059 188.172 107.411 188.374C107.764 188.57 108.185 188.668 108.675 188.668C109.275 188.668 109.768 188.541 110.154 188.286C110.545 188.031 110.859 187.695 111.094 187.277C111.329 186.859 111.512 186.406 111.642 185.916V183.556C111.564 183.197 111.45 182.85 111.299 182.517C111.156 182.178 110.966 181.878 110.731 181.616C110.503 181.349 110.219 181.137 109.879 180.98C109.546 180.823 109.151 180.745 108.694 180.745C108.198 180.745 107.77 180.849 107.411 181.058C107.059 181.261 106.768 181.541 106.54 181.9C106.311 182.253 106.141 182.664 106.03 183.134C105.926 183.598 105.874 184.094 105.874 184.623ZM120.222 190.206C119.484 190.206 118.815 190.082 118.214 189.833C117.62 189.579 117.107 189.223 116.676 188.766C116.252 188.309 115.925 187.767 115.697 187.14C115.468 186.513 115.354 185.828 115.354 185.083V184.672C115.354 183.81 115.481 183.043 115.736 182.371C115.991 181.692 116.337 181.117 116.774 180.647C117.212 180.177 117.708 179.821 118.263 179.579C118.818 179.338 119.392 179.217 119.987 179.217C120.744 179.217 121.397 179.348 121.945 179.609C122.5 179.87 122.954 180.236 123.307 180.706C123.659 181.169 123.92 181.718 124.09 182.351C124.26 182.978 124.345 183.663 124.345 184.408V185.221H116.431V183.742H122.533V183.605C122.507 183.134 122.409 182.677 122.239 182.233C122.076 181.789 121.815 181.424 121.456 181.137C121.097 180.849 120.607 180.706 119.987 180.706C119.575 180.706 119.197 180.794 118.85 180.97C118.504 181.14 118.207 181.394 117.959 181.734C117.711 182.073 117.519 182.488 117.381 182.978C117.244 183.467 117.176 184.032 117.176 184.672V185.083C117.176 185.586 117.244 186.06 117.381 186.504C117.525 186.941 117.731 187.326 117.998 187.659C118.273 187.992 118.602 188.253 118.988 188.443C119.379 188.632 119.823 188.727 120.32 188.727C120.959 188.727 121.501 188.596 121.945 188.335C122.389 188.074 122.778 187.725 123.111 187.287L124.208 188.159C123.979 188.505 123.689 188.835 123.336 189.148C122.983 189.461 122.549 189.716 122.033 189.912C121.524 190.108 120.92 190.206 120.222 190.206ZM56.1406 212.717C56.5715 212.717 56.9698 212.629 57.3354 212.453C57.7011 212.276 58.0014 212.035 58.2364 211.728C58.4715 211.414 58.6053 211.059 58.638 210.66H60.3617C60.3291 211.287 60.1169 211.871 59.7251 212.413C59.3399 212.949 58.8339 213.383 58.2071 213.716C57.5803 214.042 56.8914 214.206 56.1406 214.206C55.344 214.206 54.6486 214.065 54.0545 213.785C53.4669 213.504 52.9772 213.119 52.5854 212.629C52.2002 212.139 51.9096 211.578 51.7138 210.944C51.5244 210.304 51.4297 209.629 51.4297 208.917V208.506C51.4297 207.794 51.5244 207.121 51.7138 206.488C51.9096 205.848 52.2002 205.283 52.5854 204.794C52.9772 204.304 53.4669 203.919 54.0545 203.638C54.6486 203.357 55.344 203.217 56.1406 203.217C56.9698 203.217 57.6945 203.387 58.3148 203.726C58.9351 204.059 59.4215 204.516 59.7741 205.097C60.1332 205.672 60.3291 206.325 60.3617 207.056H58.638C58.6053 206.619 58.4813 206.224 58.2658 205.871C58.0569 205.519 57.7696 205.238 57.404 205.029C57.0449 204.813 56.6237 204.706 56.1406 204.706C55.5856 204.706 55.1187 204.817 54.74 205.039C54.3679 205.254 54.0708 205.548 53.8488 205.92C53.6333 206.286 53.4766 206.694 53.3787 207.144C53.2873 207.588 53.2416 208.042 53.2416 208.506V208.917C53.2416 209.381 53.2873 209.838 53.3787 210.288C53.4701 210.739 53.6236 211.147 53.839 211.512C54.061 211.878 54.3581 212.172 54.7303 212.394C55.1089 212.609 55.5791 212.717 56.1406 212.717ZM61.9189 208.829V208.604C61.9189 207.84 62.0299 207.131 62.2519 206.478C62.4739 205.819 62.7938 205.248 63.2117 204.764C63.6296 204.275 64.1356 203.896 64.7298 203.628C65.3239 203.354 65.9899 203.217 66.7277 203.217C67.472 203.217 68.1413 203.354 68.7354 203.628C69.3361 203.896 69.8454 204.275 70.2633 204.764C70.6877 205.248 71.0109 205.819 71.2329 206.478C71.4549 207.131 71.5659 207.84 71.5659 208.604V208.829C71.5659 209.593 71.4549 210.301 71.2329 210.954C71.0109 211.607 70.6877 212.178 70.2633 212.668C69.8454 213.151 69.3394 213.53 68.7452 213.804C68.1576 214.072 67.4916 214.206 66.7473 214.206C66.003 214.206 65.3337 214.072 64.7396 213.804C64.1454 213.53 63.6361 213.151 63.2117 212.668C62.7938 212.178 62.4739 211.607 62.2519 210.954C62.0299 210.301 61.9189 209.593 61.9189 208.829ZM63.7308 208.604V208.829C63.7308 209.358 63.7928 209.857 63.9169 210.327C64.0409 210.791 64.227 211.202 64.4751 211.561C64.7298 211.92 65.0464 212.204 65.4251 212.413C65.8038 212.616 66.2445 212.717 66.7473 212.717C67.2435 212.717 67.6777 212.616 68.0499 212.413C68.4286 212.204 68.742 211.92 68.9901 211.561C69.2382 211.202 69.4243 210.791 69.5483 210.327C69.6789 209.857 69.7442 209.358 69.7442 208.829V208.604C69.7442 208.081 69.6789 207.588 69.5483 207.125C69.4243 206.655 69.2349 206.24 68.9803 205.881C68.7322 205.515 68.4188 205.228 68.0401 205.019C67.6679 204.81 67.2305 204.706 66.7277 204.706C66.2315 204.706 65.794 204.81 65.4153 205.019C65.0432 205.228 64.7298 205.515 64.4751 205.881C64.227 206.24 64.0409 206.655 63.9169 207.125C63.7928 207.588 63.7308 208.081 63.7308 208.604ZM75.6499 205.675V214.01H73.838V203.413H75.552L75.6499 205.675ZM75.219 208.31L74.4648 208.28C74.4714 207.556 74.5791 206.886 74.788 206.273C74.997 205.652 75.2908 205.114 75.6695 204.657C76.0482 204.2 76.4987 203.847 77.021 203.599C77.5499 203.344 78.1343 203.217 78.7741 203.217C79.2965 203.217 79.7666 203.289 80.1844 203.432C80.6023 203.57 80.9581 203.792 81.252 204.098C81.5523 204.405 81.7808 204.804 81.9375 205.293C82.0942 205.776 82.1726 206.367 82.1726 207.066V214.01H80.3509V207.046C80.3509 206.491 80.2693 206.047 80.1061 205.714C79.9429 205.375 79.7045 205.13 79.3911 204.98C79.0777 204.823 78.6925 204.745 78.2355 204.745C77.7849 204.745 77.3736 204.839 77.0014 205.029C76.6358 205.218 76.3191 205.479 76.0514 205.812C75.7903 206.145 75.5846 206.527 75.4344 206.958C75.2908 207.383 75.219 207.833 75.219 208.31ZM89.3613 203.413V204.804H83.6319V203.413H89.3613ZM85.571 200.837H87.3829V211.385C87.3829 211.744 87.4384 212.015 87.5494 212.198C87.6604 212.381 87.804 212.502 87.9803 212.56C88.1566 212.619 88.346 212.648 88.5484 212.648C88.6985 212.648 88.8552 212.635 89.0185 212.609C89.1882 212.577 89.3156 212.55 89.4004 212.531L89.4102 214.01C89.2666 214.055 89.0772 214.098 88.8422 214.137C88.6137 214.183 88.3362 214.206 88.0097 214.206C87.5657 214.206 87.1576 214.117 86.7855 213.941C86.4133 213.765 86.1162 213.471 85.8942 213.06C85.6788 212.642 85.571 212.08 85.571 211.375V200.837ZM97.735 212.198V206.743C97.735 206.325 97.6501 205.962 97.4803 205.656C97.3171 205.342 97.069 205.101 96.736 204.931C96.403 204.761 95.9917 204.676 95.502 204.676C95.0449 204.676 94.6434 204.755 94.2974 204.911C93.9578 205.068 93.6901 205.274 93.4943 205.528C93.3049 205.783 93.2102 206.057 93.2102 206.351H91.3984C91.3984 205.972 91.4963 205.597 91.6922 205.225C91.8881 204.853 92.1688 204.516 92.5345 204.216C92.9066 203.909 93.3506 203.667 93.8664 203.491C94.3888 203.308 94.9699 203.217 95.6097 203.217C96.3802 203.217 97.0592 203.348 97.6468 203.609C98.241 203.87 98.7046 204.265 99.0376 204.794C99.3771 205.316 99.5468 205.972 99.5468 206.762V211.698C99.5468 212.051 99.5762 212.426 99.635 212.825C99.7003 213.223 99.795 213.566 99.919 213.853V214.01H98.0288C97.9374 213.801 97.8656 213.523 97.8133 213.177C97.7611 212.825 97.735 212.498 97.735 212.198ZM98.0484 207.585L98.068 208.858H96.2365C95.7207 208.858 95.2604 208.901 94.8556 208.986C94.4508 209.064 94.1113 209.185 93.837 209.348C93.5628 209.511 93.3539 209.717 93.2102 209.965C93.0666 210.206 92.9948 210.491 92.9948 210.817C92.9948 211.15 93.0699 211.454 93.22 211.728C93.3702 212.002 93.5955 212.221 93.8958 212.384C94.2027 212.541 94.5781 212.619 95.0221 212.619C95.5771 212.619 96.0668 212.502 96.4912 212.266C96.9156 212.031 97.2518 211.744 97.4999 211.405C97.7546 211.065 97.8917 210.735 97.9113 210.415L98.685 211.287C98.6393 211.561 98.5152 211.865 98.3128 212.198C98.1104 212.531 97.8395 212.851 97.4999 213.158C97.1669 213.458 96.7687 213.709 96.3051 213.912C95.848 214.108 95.3322 214.206 94.7577 214.206C94.0394 214.206 93.4094 214.065 92.8675 213.785C92.3321 213.504 91.9142 213.128 91.6138 212.658C91.32 212.182 91.1731 211.649 91.1731 211.062C91.1731 210.494 91.2841 209.994 91.5061 209.563C91.7281 209.126 92.048 208.764 92.4659 208.476C92.8838 208.182 93.3865 207.96 93.9742 207.81C94.5618 207.66 95.218 207.585 95.9427 207.585H98.0484ZM106.833 203.413V204.804H101.104V203.413H106.833ZM103.043 200.837H104.855V211.385C104.855 211.744 104.911 212.015 105.022 212.198C105.133 212.381 105.276 212.502 105.453 212.56C105.629 212.619 105.818 212.648 106.021 212.648C106.171 212.648 106.327 212.635 106.491 212.609C106.66 212.577 106.788 212.55 106.873 212.531L106.882 214.01C106.739 214.055 106.549 214.098 106.314 214.137C106.086 214.183 105.808 214.206 105.482 214.206C105.038 214.206 104.63 214.117 104.258 213.941C103.886 213.765 103.588 213.471 103.366 213.06C103.151 212.642 103.043 212.08 103.043 211.375V200.837ZM108.283 208.829V208.604C108.283 207.84 108.394 207.131 108.616 206.478C108.838 205.819 109.158 205.248 109.576 204.764C109.994 204.275 110.5 203.896 111.094 203.628C111.688 203.354 112.354 203.217 113.092 203.217C113.836 203.217 114.505 203.354 115.099 203.628C115.7 203.896 116.209 204.275 116.627 204.764C117.052 205.248 117.375 205.819 117.597 206.478C117.819 207.131 117.93 207.84 117.93 208.604V208.829C117.93 209.593 117.819 210.301 117.597 210.954C117.375 211.607 117.052 212.178 116.627 212.668C116.209 213.151 115.703 213.53 115.109 213.804C114.522 214.072 113.856 214.206 113.111 214.206C112.367 214.206 111.698 214.072 111.104 213.804C110.509 213.53 110 213.151 109.576 212.668C109.158 212.178 108.838 211.607 108.616 210.954C108.394 210.301 108.283 209.593 108.283 208.829ZM110.095 208.604V208.829C110.095 209.358 110.157 209.857 110.281 210.327C110.405 210.791 110.591 211.202 110.839 211.561C111.094 211.92 111.41 212.204 111.789 212.413C112.168 212.616 112.609 212.717 113.111 212.717C113.608 212.717 114.042 212.616 114.414 212.413C114.793 212.204 115.106 211.92 115.354 211.561C115.602 211.202 115.788 210.791 115.912 210.327C116.043 209.857 116.108 209.358 116.108 208.829V208.604C116.108 208.081 116.043 207.588 115.912 207.125C115.788 206.655 115.599 206.24 115.344 205.881C115.096 205.515 114.783 205.228 114.404 205.019C114.032 204.81 113.594 204.706 113.092 204.706C112.595 204.706 112.158 204.81 111.779 205.019C111.407 205.228 111.094 205.515 110.839 205.881C110.591 206.24 110.405 206.655 110.281 207.125C110.157 207.588 110.095 208.081 110.095 208.604ZM126.372 211.199C126.372 210.938 126.313 210.696 126.196 210.474C126.085 210.246 125.853 210.04 125.501 209.857C125.154 209.668 124.632 209.505 123.933 209.367C123.346 209.243 122.814 209.097 122.337 208.927C121.867 208.757 121.465 208.551 121.132 208.31C120.806 208.068 120.555 207.784 120.378 207.458C120.202 207.131 120.114 206.749 120.114 206.312C120.114 205.894 120.205 205.499 120.388 205.127C120.577 204.755 120.842 204.425 121.181 204.138C121.527 203.85 121.942 203.625 122.425 203.462C122.908 203.299 123.447 203.217 124.041 203.217C124.89 203.217 125.615 203.367 126.215 203.667C126.816 203.968 127.276 204.369 127.596 204.872C127.916 205.368 128.076 205.92 128.076 206.527H126.264C126.264 206.233 126.176 205.949 126 205.675C125.83 205.394 125.579 205.163 125.246 204.98C124.919 204.797 124.518 204.706 124.041 204.706C123.538 204.706 123.13 204.784 122.817 204.941C122.51 205.091 122.285 205.283 122.141 205.519C122.004 205.754 121.936 206.002 121.936 206.263C121.936 206.459 121.968 206.635 122.033 206.792C122.105 206.942 122.229 207.082 122.406 207.213C122.582 207.337 122.83 207.454 123.15 207.565C123.47 207.676 123.878 207.787 124.374 207.898C125.243 208.094 125.958 208.329 126.519 208.604C127.081 208.878 127.498 209.214 127.773 209.612C128.047 210.011 128.184 210.494 128.184 211.062C128.184 211.525 128.086 211.95 127.89 212.335C127.701 212.72 127.423 213.053 127.058 213.334C126.699 213.608 126.268 213.824 125.765 213.98C125.269 214.131 124.71 214.206 124.09 214.206C123.157 214.206 122.366 214.039 121.72 213.706C121.074 213.373 120.584 212.942 120.251 212.413C119.918 211.885 119.752 211.326 119.752 210.739H121.573C121.599 211.235 121.743 211.63 122.004 211.924C122.265 212.211 122.585 212.417 122.964 212.541C123.343 212.658 123.718 212.717 124.09 212.717C124.586 212.717 125.001 212.652 125.334 212.521C125.674 212.391 125.931 212.211 126.108 211.982C126.284 211.754 126.372 211.493 126.372 211.199ZM78.3261 221.234H78.4509V222.005H78.3261C77.6503 222.005 77.048 222.116 76.5191 222.336C75.9951 222.556 75.552 222.875 75.1896 223.291C74.8321 223.702 74.5603 224.202 74.3742 224.789C74.1882 225.377 74.0951 226.036 74.0951 226.765V228.242C74.0951 228.736 74.1612 229.179 74.2934 229.571C74.4257 229.958 74.6093 230.288 74.8443 230.563C75.0794 230.837 75.3536 231.045 75.667 231.187C75.9804 231.329 76.3183 231.4 76.6807 231.4C77.0382 231.4 77.3589 231.327 77.6429 231.18C77.927 231.033 78.1669 230.827 78.3628 230.563C78.5636 230.298 78.7154 229.995 78.8182 229.652C78.9259 229.304 78.9798 228.932 78.9798 228.535C78.9798 228.158 78.9308 227.803 78.8329 227.47C78.7398 227.132 78.5954 226.834 78.3995 226.574C78.2036 226.315 77.9588 226.111 77.665 225.965C77.3712 225.818 77.0259 225.744 76.6293 225.744C76.1788 225.744 75.7576 225.847 75.3659 226.053C74.9741 226.258 74.6534 226.533 74.4036 226.875C74.1588 227.218 74.029 227.593 74.0143 227.999L73.5075 227.992C73.5418 227.532 73.647 227.118 73.8233 226.75C73.9996 226.378 74.2322 226.062 74.5211 225.803C74.815 225.538 75.1504 225.338 75.5275 225.201C75.9094 225.059 76.3208 224.988 76.7615 224.988C77.2757 224.988 77.7237 225.081 78.1057 225.267C78.4926 225.453 78.8133 225.71 79.0679 226.038C79.3275 226.361 79.5209 226.736 79.6482 227.162C79.7804 227.583 79.8465 228.029 79.8465 228.499C79.8465 229.013 79.7731 229.493 79.6262 229.938C79.4842 230.379 79.2736 230.766 78.9945 231.099C78.7203 231.432 78.3873 231.691 77.9955 231.878C77.6087 232.064 77.1704 232.157 76.6807 232.157C76.142 232.157 75.6597 232.054 75.2337 231.848C74.8076 231.642 74.4428 231.358 74.1392 230.996C73.8405 230.634 73.6103 230.217 73.4487 229.747C73.292 229.272 73.2137 228.766 73.2137 228.227V227.287C73.2137 226.376 73.319 225.551 73.5295 224.811C73.7401 224.067 74.0559 223.428 74.4771 222.894C74.9031 222.36 75.4344 221.951 76.071 221.667C76.7125 221.379 77.4642 221.234 78.3261 221.234ZM88.3598 231.4C88.732 231.4 89.0797 231.332 89.4029 231.194C89.731 231.052 90.0003 230.844 90.2109 230.57C90.4263 230.291 90.5488 229.951 90.5781 229.549H91.4155C91.391 230.053 91.2368 230.504 90.9528 230.901C90.6736 231.292 90.3064 231.601 89.851 231.826C89.4004 232.046 88.9034 232.157 88.3598 232.157C87.8065 232.157 87.3168 232.056 86.8908 231.856C86.4696 231.655 86.1171 231.376 85.833 231.018C85.549 230.656 85.3335 230.235 85.1866 229.755C85.0446 229.27 84.9736 228.748 84.9736 228.19V227.882C84.9736 227.323 85.0446 226.804 85.1866 226.324C85.3335 225.84 85.549 225.419 85.833 225.061C86.1171 224.699 86.4696 224.417 86.8908 224.216C87.3119 224.016 87.7991 223.915 88.3525 223.915C88.9205 223.915 89.4298 224.03 89.8803 224.26C90.3357 224.491 90.6981 224.816 90.9674 225.237C91.2417 225.658 91.391 226.158 91.4155 226.736H90.5781C90.5537 226.31 90.441 225.942 90.2403 225.634C90.0395 225.325 89.775 225.088 89.447 224.921C89.1189 224.755 88.754 224.672 88.3525 224.672C87.902 224.672 87.5176 224.76 87.1993 224.936C86.881 225.108 86.6214 225.345 86.4207 225.649C86.2248 225.947 86.0803 226.29 85.9873 226.677C85.8942 227.059 85.8477 227.461 85.8477 227.882V228.19C85.8477 228.616 85.8918 229.023 85.9799 229.41C86.073 229.791 86.2174 230.132 86.4133 230.431C86.6141 230.729 86.8736 230.967 87.1919 231.143C87.5151 231.314 87.9044 231.4 88.3598 231.4ZM92.701 228.161V227.918C92.701 227.341 92.7842 226.807 92.9507 226.317C93.1172 225.827 93.3547 225.404 93.6632 225.046C93.9766 224.689 94.3512 224.412 94.787 224.216C95.2229 224.016 95.7077 223.915 96.2414 223.915C96.7801 223.915 97.2673 224.016 97.7032 224.216C98.139 224.412 98.5136 224.689 98.827 225.046C99.1404 225.404 99.3804 225.827 99.5469 226.317C99.7133 226.807 99.7966 227.341 99.7966 227.918V228.161C99.7966 228.739 99.7133 229.272 99.5469 229.762C99.3804 230.247 99.1404 230.668 98.827 231.025C98.5185 231.383 98.1463 231.662 97.7105 231.863C97.2747 232.059 96.7899 232.157 96.2561 232.157C95.7175 232.157 95.2302 232.059 94.7944 231.863C94.3586 231.662 93.984 231.383 93.6706 231.025C93.3571 230.668 93.1172 230.247 92.9507 229.762C92.7842 229.272 92.701 228.739 92.701 228.161ZM93.5751 227.918V228.161C93.5751 228.597 93.6338 229.01 93.7513 229.402C93.8689 229.789 94.0403 230.134 94.2655 230.438C94.4908 230.737 94.7699 230.972 95.1029 231.143C95.4359 231.314 95.8203 231.4 96.2561 231.4C96.6871 231.4 97.0666 231.314 97.3947 231.143C97.7276 230.972 98.0068 230.737 98.232 230.438C98.4573 230.134 98.6262 229.789 98.7389 229.402C98.8564 229.01 98.9151 228.597 98.9151 228.161V227.918C98.9151 227.487 98.8564 227.079 98.7389 226.692C98.6262 226.305 98.4548 225.96 98.2247 225.656C97.9994 225.352 97.7203 225.112 97.3873 224.936C97.0543 224.76 96.6724 224.672 96.2414 224.672C95.8105 224.672 95.4285 224.76 95.0956 224.936C94.7675 225.112 94.4883 225.352 94.2582 225.656C94.0329 225.96 93.8615 226.305 93.744 226.692C93.6314 227.079 93.5751 227.487 93.5751 227.918ZM102.595 220.727V232.01H101.721V220.727H102.595ZM104.916 231.474C104.916 231.302 104.97 231.158 105.078 231.04C105.191 230.918 105.342 230.857 105.533 230.857C105.729 230.857 105.883 230.915 105.996 231.033C106.109 231.15 106.165 231.297 106.165 231.474C106.165 231.64 106.109 231.782 105.996 231.9C105.883 232.017 105.729 232.076 105.533 232.076C105.342 232.076 105.191 232.017 105.078 231.9C104.97 231.782 104.916 231.64 104.916 231.474Z" fill="#FDFBF9"/>
</svg>
