<svg width="1051" height="591" viewBox="0 0 1051 591" fill="none" xmlns="http://www.w3.org/2000/svg">
<path d="M0.519531 11.3642C0.519531 5.20226 5.51475 0.207031 11.6767 0.207031H1038.81C1044.97 0.207031 1049.96 5.20225 1049.96 11.3642V579.104C1049.96 585.266 1044.97 590.261 1038.81 590.261H11.6767C5.51478 590.261 0.519531 585.266 0.519531 579.104V11.3642Z" fill="#0567FF" fill-opacity="0.25"/>
<path d="M12.6348 10.2363H45.2287V579.376H12.6348V10.2363Z" fill="#FDFBF9" fill-opacity="0.1"/>
<path d="M55.2578 10.2363H87.8517V579.376H55.2578V10.2363Z" fill="#FDFBF9" fill-opacity="0.1"/>
<path d="M100.387 10.2363H132.981V579.376H100.387V10.2363Z" fill="#FDFBF9" fill-opacity="0.1"/>
<path d="M143.01 10.2363H175.604V579.376H143.01V10.2363Z" fill="#FDFBF9" fill-opacity="0.1"/>
<path d="M185.633 10.2363H218.227V579.376H185.633V10.2363Z" fill="#FDFBF9" fill-opacity="0.1"/>
<path d="M228.256 10.2363H260.85V579.376H228.256V10.2363Z" fill="#FDFBF9" fill-opacity="0.1"/>
<path d="M273.385 10.2363H305.979V579.376H273.385V10.2363Z" fill="#FDFBF9" fill-opacity="0.1"/>
<path d="M316.008 10.2363H348.602V579.376H316.008V10.2363Z" fill="#FDFBF9" fill-opacity="0.1"/>
<path d="M358.631 10.2363H391.225V579.376H358.631V10.2363Z" fill="#FDFBF9" fill-opacity="0.1"/>
<path d="M401.254 10.2363H433.848V579.376H401.254V10.2363Z" fill="#FDFBF9" fill-opacity="0.1"/>
<path d="M446.385 10.2363H478.979V579.376H446.385V10.2363Z" fill="#FDFBF9" fill-opacity="0.1"/>
<path d="M489.006 10.2363H521.6V579.376H489.006V10.2363Z" fill="#FDFBF9" fill-opacity="0.1"/>
<path d="M531.629 10.2363H564.223V579.376H531.629V10.2363Z" fill="#FDFBF9" fill-opacity="0.1"/>
<path d="M574.252 10.2363H606.846V579.376H574.252V10.2363Z" fill="#FDFBF9" fill-opacity="0.1"/>
<path d="M619.383 10.2363H651.977V579.376H619.383V10.2363Z" fill="#FDFBF9" fill-opacity="0.1"/>
<path d="M662.006 10.2363H694.6V579.376H662.006V10.2363Z" fill="#FDFBF9" fill-opacity="0.1"/>
<path d="M704.627 10.2363H737.221V579.376H704.627V10.2363Z" fill="#FDFBF9" fill-opacity="0.1"/>
<path d="M747.25 10.2363H779.844V579.376H747.25V10.2363Z" fill="#FDFBF9" fill-opacity="0.1"/>
<path d="M792.381 10.2363H824.975V579.376H792.381V10.2363Z" fill="#FDFBF9" fill-opacity="0.1"/>
<path d="M835.004 10.2363H867.598V579.376H835.004V10.2363Z" fill="#FDFBF9" fill-opacity="0.1"/>
<path d="M877.627 10.2363H910.221V579.376H877.627V10.2363Z" fill="#FDFBF9" fill-opacity="0.1"/>
<path d="M920.248 10.2363H955.349V579.376H920.248V10.2363Z" fill="#FDFBF9" fill-opacity="0.1"/>
<path d="M965.379 10.2363H995.466V579.376H965.379V10.2363Z" fill="#FDFBF9" fill-opacity="0.1"/>
<path d="M1005.49 10.2363H1038.09V579.376H1005.49V10.2363Z" fill="#FDFBF9" fill-opacity="0.1"/>
<rect x="7.62109" y="30.2939" width="253.229" height="549.082" rx="11.1631" fill="#0567FF" fill-opacity="0.5"/>
<rect x="273.387" y="30.2939" width="506.459" height="549.082" rx="11.1631" fill="#0567FF" fill-opacity="0.5"/>
<rect x="792.381" y="30.2939" width="245.708" height="549.082" rx="11.1631" fill="#0567FF" fill-opacity="0.5"/>
<path d="M1050.62 25.1982L0.0994873 25.1982L0.0994885 11.3723C0.0994891 5.20583 5.0984 0.206909 11.2649 0.20691L1039.46 0.207C1045.63 0.207 1050.63 5.20592 1050.63 11.3724L1050.62 25.1982Z" fill="#0567FF"/>
<path d="M475.344 267.113H478.164C478.017 268.465 477.631 269.674 477.004 270.742C476.377 271.809 475.491 272.657 474.345 273.283C473.199 273.9 471.769 274.209 470.055 274.209C468.801 274.209 467.66 273.974 466.632 273.504C465.614 273.034 464.737 272.368 464.002 271.506C463.268 270.634 462.7 269.591 462.298 268.377C461.907 267.152 461.711 265.791 461.711 264.293V262.162C461.711 260.664 461.907 259.308 462.298 258.093C462.7 256.869 463.273 255.821 464.017 254.949C464.771 254.078 465.677 253.407 466.735 252.937C467.793 252.467 468.983 252.231 470.305 252.231C471.921 252.231 473.287 252.535 474.403 253.142C475.52 253.75 476.387 254.592 477.004 255.669C477.631 256.737 478.017 257.976 478.164 259.386H475.344C475.207 258.387 474.952 257.53 474.58 256.815C474.208 256.09 473.679 255.532 472.993 255.14C472.308 254.749 471.411 254.553 470.305 254.553C469.355 254.553 468.517 254.734 467.793 255.096C467.078 255.459 466.475 255.973 465.986 256.639C465.506 257.305 465.143 258.103 464.899 259.033C464.654 259.964 464.531 260.997 464.531 262.133V264.293C464.531 265.341 464.639 266.325 464.854 267.245C465.08 268.166 465.418 268.974 465.868 269.669C466.319 270.365 466.892 270.913 467.587 271.315C468.282 271.707 469.105 271.902 470.055 271.902C471.26 271.902 472.219 271.711 472.934 271.329C473.649 270.948 474.188 270.399 474.55 269.684C474.923 268.969 475.187 268.112 475.344 267.113ZM480.897 266.144V265.806C480.897 264.66 481.063 263.597 481.396 262.618C481.729 261.629 482.209 260.772 482.836 260.047C483.463 259.312 484.222 258.744 485.113 258.343C486.004 257.931 487.003 257.726 488.11 257.726C489.226 257.726 490.23 257.931 491.122 258.343C492.023 258.744 492.787 259.312 493.413 260.047C494.05 260.772 494.535 261.629 494.868 262.618C495.201 263.597 495.367 264.66 495.367 265.806V266.144C495.367 267.29 495.201 268.352 494.868 269.332C494.535 270.311 494.05 271.168 493.413 271.902C492.787 272.627 492.027 273.195 491.136 273.607C490.255 274.008 489.256 274.209 488.139 274.209C487.023 274.209 486.019 274.008 485.128 273.607C484.236 273.195 483.473 272.627 482.836 271.902C482.209 271.168 481.729 270.311 481.396 269.332C481.063 268.352 480.897 267.29 480.897 266.144ZM483.615 265.806V266.144C483.615 266.937 483.708 267.686 483.894 268.391C484.08 269.087 484.359 269.704 484.731 270.242C485.113 270.781 485.588 271.207 486.156 271.52C486.724 271.824 487.385 271.976 488.139 271.976C488.884 271.976 489.535 271.824 490.093 271.52C490.661 271.207 491.131 270.781 491.504 270.242C491.876 269.704 492.155 269.087 492.341 268.391C492.537 267.686 492.635 266.937 492.635 266.144V265.806C492.635 265.022 492.537 264.283 492.341 263.587C492.155 262.882 491.871 262.26 491.489 261.722C491.117 261.173 490.647 260.742 490.079 260.429C489.52 260.116 488.864 259.959 488.11 259.959C487.366 259.959 486.709 260.116 486.141 260.429C485.583 260.742 485.113 261.173 484.731 261.722C484.359 262.26 484.08 262.882 483.894 263.587C483.708 264.283 483.615 265.022 483.615 265.806ZM501.493 261.413V273.915H498.775V258.02H501.346L501.493 261.413ZM500.847 265.365L499.716 265.321C499.725 264.234 499.887 263.23 500.2 262.309C500.514 261.379 500.955 260.571 501.523 259.885C502.091 259.2 502.766 258.671 503.55 258.299C504.343 257.917 505.22 257.726 506.18 257.726C506.963 257.726 507.668 257.834 508.295 258.049C508.922 258.255 509.456 258.588 509.896 259.048C510.347 259.508 510.69 260.106 510.925 260.84C511.16 261.565 511.277 262.451 511.277 263.499V273.915H508.545V263.47C508.545 262.637 508.422 261.971 508.178 261.472C507.933 260.963 507.575 260.595 507.105 260.37C506.635 260.135 506.057 260.018 505.372 260.018C504.696 260.018 504.079 260.16 503.521 260.444C502.972 260.728 502.497 261.119 502.096 261.619C501.704 262.118 501.395 262.691 501.17 263.338C500.955 263.974 500.847 264.65 500.847 265.365ZM520.239 271.462L524.587 258.02H527.364L521.649 273.915H519.827L520.239 271.462ZM516.61 258.02L521.091 271.535L521.399 273.915H519.578L513.819 258.02H516.61ZM536.369 274.209C535.262 274.209 534.259 274.023 533.357 273.651C532.466 273.269 531.697 272.735 531.051 272.049C530.414 271.364 529.925 270.551 529.582 269.611C529.239 268.67 529.068 267.642 529.068 266.526V265.909C529.068 264.616 529.259 263.465 529.641 262.456C530.023 261.438 530.542 260.576 531.198 259.871C531.854 259.166 532.598 258.632 533.431 258.269C534.263 257.907 535.125 257.726 536.017 257.726C537.153 257.726 538.132 257.922 538.955 258.313C539.787 258.705 540.468 259.254 540.997 259.959C541.526 260.654 541.917 261.477 542.172 262.427C542.427 263.367 542.554 264.395 542.554 265.512V266.731H530.684V264.513H539.836V264.307C539.797 263.602 539.65 262.917 539.395 262.251C539.151 261.585 538.759 261.036 538.22 260.605C537.681 260.174 536.947 259.959 536.017 259.959C535.399 259.959 534.831 260.091 534.312 260.355C533.793 260.61 533.348 260.992 532.976 261.501C532.603 262.011 532.314 262.633 532.109 263.367C531.903 264.102 531.8 264.949 531.8 265.909V266.526C531.8 267.28 531.903 267.99 532.109 268.656C532.324 269.312 532.633 269.89 533.034 270.389C533.446 270.889 533.94 271.28 534.518 271.565C535.106 271.849 535.772 271.991 536.516 271.991C537.476 271.991 538.289 271.795 538.955 271.403C539.621 271.011 540.203 270.487 540.703 269.831L542.348 271.138C542.005 271.658 541.57 272.152 541.041 272.622C540.512 273.092 539.861 273.474 539.087 273.768C538.323 274.062 537.417 274.209 536.369 274.209ZM548.445 260.517V273.915H545.727V258.02H548.371L548.445 260.517ZM553.41 257.931L553.396 260.458C553.17 260.409 552.955 260.38 552.749 260.37C552.553 260.351 552.328 260.341 552.074 260.341C551.447 260.341 550.893 260.439 550.413 260.635C549.934 260.83 549.527 261.105 549.194 261.457C548.861 261.81 548.597 262.231 548.401 262.721C548.215 263.201 548.092 263.729 548.034 264.307L547.27 264.748C547.27 263.788 547.363 262.887 547.549 262.045C547.745 261.203 548.043 260.458 548.445 259.812C548.846 259.156 549.356 258.646 549.973 258.284C550.6 257.912 551.344 257.726 552.206 257.726C552.402 257.726 552.627 257.75 552.881 257.799C553.136 257.838 553.312 257.883 553.41 257.931ZM565.178 269.699C565.178 269.307 565.09 268.945 564.913 268.612C564.747 268.269 564.399 267.96 563.87 267.686C563.351 267.402 562.568 267.157 561.52 266.952C560.638 266.766 559.84 266.545 559.125 266.291C558.42 266.036 557.818 265.727 557.318 265.365C556.828 265.003 556.451 264.577 556.187 264.087C555.922 263.597 555.79 263.024 555.79 262.368C555.79 261.741 555.927 261.149 556.202 260.591C556.486 260.032 556.882 259.538 557.392 259.107C557.911 258.676 558.533 258.338 559.257 258.093C559.982 257.848 560.79 257.726 561.681 257.726C562.954 257.726 564.042 257.951 564.943 258.402C565.844 258.852 566.534 259.454 567.014 260.209C567.494 260.953 567.734 261.78 567.734 262.691H565.016C565.016 262.251 564.884 261.825 564.619 261.413C564.365 260.992 563.988 260.644 563.488 260.37C562.999 260.096 562.396 259.959 561.681 259.959C560.927 259.959 560.315 260.076 559.845 260.311C559.385 260.537 559.047 260.826 558.831 261.178C558.626 261.531 558.523 261.903 558.523 262.295C558.523 262.588 558.572 262.853 558.67 263.088C558.777 263.313 558.963 263.524 559.228 263.72C559.492 263.906 559.864 264.082 560.344 264.249C560.824 264.415 561.436 264.582 562.181 264.748C563.483 265.042 564.556 265.394 565.398 265.806C566.24 266.217 566.867 266.721 567.278 267.319C567.69 267.916 567.895 268.641 567.895 269.493C567.895 270.188 567.749 270.825 567.455 271.403C567.171 271.981 566.754 272.48 566.206 272.901C565.667 273.313 565.021 273.636 564.267 273.871C563.522 274.096 562.685 274.209 561.755 274.209C560.354 274.209 559.169 273.959 558.2 273.46C557.23 272.96 556.495 272.314 555.996 271.52C555.496 270.727 555.247 269.89 555.247 269.008H557.979C558.018 269.753 558.234 270.345 558.626 270.786C559.017 271.217 559.497 271.525 560.065 271.711C560.633 271.888 561.196 271.976 561.755 271.976C562.499 271.976 563.121 271.878 563.62 271.682C564.13 271.486 564.517 271.217 564.781 270.874C565.045 270.531 565.178 270.14 565.178 269.699ZM580.838 271.197V263.015C580.838 262.388 580.711 261.844 580.456 261.384C580.211 260.914 579.839 260.551 579.34 260.297C578.84 260.042 578.223 259.915 577.488 259.915C576.803 259.915 576.201 260.032 575.682 260.267C575.172 260.502 574.771 260.811 574.477 261.193C574.193 261.575 574.051 261.986 574.051 262.427H571.333C571.333 261.859 571.48 261.296 571.774 260.737C572.068 260.179 572.489 259.675 573.037 259.224C573.595 258.764 574.261 258.402 575.035 258.137C575.819 257.863 576.69 257.726 577.65 257.726C578.806 257.726 579.824 257.922 580.706 258.313C581.597 258.705 582.292 259.298 582.792 260.091C583.301 260.875 583.556 261.859 583.556 263.044V270.448C583.556 270.977 583.6 271.54 583.688 272.137C583.786 272.735 583.928 273.249 584.114 273.68V273.915H581.279C581.142 273.602 581.034 273.185 580.956 272.666C580.877 272.137 580.838 271.648 580.838 271.197ZM581.308 264.278L581.337 266.188H578.59C577.817 266.188 577.126 266.251 576.519 266.379C575.912 266.496 575.402 266.677 574.991 266.922C574.58 267.167 574.266 267.476 574.051 267.848C573.835 268.21 573.728 268.636 573.728 269.126C573.728 269.625 573.84 270.081 574.066 270.492C574.291 270.903 574.629 271.232 575.079 271.476C575.54 271.711 576.103 271.829 576.769 271.829C577.601 271.829 578.336 271.653 578.972 271.3C579.609 270.948 580.113 270.517 580.485 270.007C580.867 269.498 581.073 269.003 581.102 268.524L582.263 269.831C582.194 270.242 582.008 270.698 581.705 271.197C581.401 271.697 580.995 272.177 580.485 272.637C579.986 273.087 579.388 273.465 578.693 273.768C578.008 274.062 577.234 274.209 576.372 274.209C575.295 274.209 574.35 273.998 573.537 273.577C572.734 273.156 572.107 272.593 571.656 271.888C571.216 271.173 570.995 270.375 570.995 269.493C570.995 268.641 571.162 267.892 571.495 267.245C571.828 266.589 572.308 266.046 572.934 265.615C573.561 265.174 574.315 264.841 575.197 264.616C576.078 264.391 577.062 264.278 578.15 264.278H581.308ZM495.076 285.017V302.915H493.619V286.865L488.771 288.665V287.282L494.831 285.017H495.076ZM513.329 301.654V302.915H502.176V301.777L508.016 295.153C508.742 294.329 509.322 293.607 509.754 292.987C510.187 292.358 510.497 291.787 510.685 291.273C510.881 290.75 510.979 290.244 510.979 289.755C510.979 289.036 510.836 288.404 510.55 287.857C510.273 287.31 509.856 286.882 509.301 286.572C508.746 286.261 508.061 286.106 507.245 286.106C506.429 286.106 505.718 286.282 505.115 286.633C504.511 286.984 504.045 287.473 503.719 288.102C503.401 288.722 503.241 289.428 503.241 290.22H501.785C501.785 289.24 502.001 288.343 502.433 287.526C502.874 286.71 503.503 286.061 504.319 285.58C505.135 285.09 506.11 284.845 507.245 284.845C508.322 284.845 509.248 285.037 510.024 285.421C510.799 285.796 511.395 286.339 511.811 287.049C512.235 287.759 512.448 288.616 512.448 289.62C512.448 290.159 512.35 290.701 512.154 291.248C511.966 291.795 511.705 292.342 511.37 292.889C511.044 293.427 510.668 293.962 510.244 294.492C509.828 295.023 509.391 295.545 508.934 296.059L503.964 301.654H513.329ZM527.322 301.899C527.942 301.899 528.522 301.785 529.06 301.556C529.607 301.319 530.056 300.973 530.407 300.516C530.766 300.05 530.97 299.483 531.019 298.814H532.415C532.374 299.655 532.117 300.405 531.644 301.066C531.178 301.719 530.566 302.234 529.807 302.609C529.056 302.976 528.228 303.16 527.322 303.16C526.4 303.16 525.584 302.993 524.874 302.658C524.172 302.323 523.584 301.858 523.111 301.262C522.637 300.658 522.278 299.956 522.033 299.157C521.797 298.349 521.678 297.479 521.678 296.549V296.035C521.678 295.104 521.797 294.239 522.033 293.44C522.278 292.632 522.637 291.93 523.111 291.334C523.584 290.73 524.172 290.261 524.874 289.926C525.575 289.591 526.388 289.424 527.31 289.424C528.257 289.424 529.105 289.616 529.856 289.999C530.615 290.383 531.219 290.926 531.668 291.628C532.125 292.33 532.374 293.162 532.415 294.125H531.019C530.978 293.415 530.791 292.803 530.456 292.289C530.121 291.775 529.681 291.379 529.134 291.101C528.587 290.824 527.979 290.685 527.31 290.685C526.559 290.685 525.918 290.832 525.388 291.126C524.857 291.411 524.425 291.807 524.09 292.313C523.764 292.811 523.523 293.382 523.368 294.027C523.213 294.664 523.135 295.333 523.135 296.035V296.549C523.135 297.259 523.209 297.937 523.356 298.581C523.511 299.218 523.751 299.785 524.078 300.283C524.412 300.781 524.845 301.177 525.375 301.47C525.914 301.756 526.563 301.899 527.322 301.899ZM534.557 296.5V296.096C534.557 295.133 534.696 294.243 534.973 293.427C535.251 292.611 535.647 291.905 536.161 291.309C536.683 290.714 537.308 290.252 538.034 289.926C538.76 289.591 539.568 289.424 540.458 289.424C541.356 289.424 542.168 289.591 542.894 289.926C543.621 290.252 544.245 290.714 544.767 291.309C545.29 291.905 545.69 292.611 545.967 293.427C546.245 294.243 546.383 295.133 546.383 296.096V296.5C546.383 297.463 546.245 298.353 545.967 299.169C545.69 299.977 545.29 300.679 544.767 301.275C544.253 301.87 543.633 302.336 542.906 302.67C542.18 302.997 541.372 303.16 540.482 303.16C539.585 303.16 538.773 302.997 538.046 302.67C537.32 302.336 536.696 301.87 536.173 301.275C535.651 300.679 535.251 299.977 534.973 299.169C534.696 298.353 534.557 297.463 534.557 296.5ZM536.014 296.096V296.5C536.014 297.226 536.112 297.916 536.308 298.569C536.504 299.214 536.789 299.789 537.165 300.295C537.54 300.793 538.005 301.185 538.56 301.47C539.115 301.756 539.756 301.899 540.482 301.899C541.201 301.899 541.833 301.756 542.38 301.47C542.935 301.185 543.4 300.793 543.776 300.295C544.151 299.789 544.433 299.214 544.62 298.569C544.816 297.916 544.914 297.226 544.914 296.5V296.096C544.914 295.378 544.816 294.696 544.62 294.052C544.433 293.407 544.147 292.831 543.763 292.325C543.388 291.819 542.923 291.42 542.368 291.126C541.813 290.832 541.176 290.685 540.458 290.685C539.74 290.685 539.103 290.832 538.548 291.126C538.001 291.42 537.536 291.819 537.153 292.325C536.777 292.831 536.492 293.407 536.296 294.052C536.108 294.696 536.014 295.378 536.014 296.096ZM551.048 284.111V302.915H549.591V284.111H551.048ZM554.916 302.021C554.916 301.736 555.006 301.495 555.185 301.299C555.373 301.095 555.626 300.993 555.945 300.993C556.271 300.993 556.528 301.091 556.716 301.287C556.903 301.483 556.997 301.728 556.997 302.021C556.997 302.299 556.903 302.536 556.716 302.731C556.528 302.927 556.271 303.025 555.945 303.025C555.626 303.025 555.373 302.927 555.185 302.731C555.006 302.536 554.916 302.299 554.916 302.021Z" fill="#FDFBF9"/>
<path d="M62.4758 278.42V279.958H55.3459V278.42H62.4758ZM55.7181 265.698V279.958H53.8279V265.698H55.7181ZM66.3346 269.361V279.958H64.5129V269.361H66.3346ZM64.3758 266.55C64.3758 266.256 64.464 266.008 64.6403 265.806C64.8231 265.604 65.0908 265.502 65.4434 265.502C65.7894 265.502 66.0538 265.604 66.2367 265.806C66.426 266.008 66.5207 266.256 66.5207 266.55C66.5207 266.831 66.426 267.073 66.2367 267.275C66.0538 267.471 65.7894 267.569 65.4434 267.569C65.0908 267.569 64.8231 267.471 64.6403 267.275C64.464 267.073 64.3758 266.831 64.3758 266.55ZM75.4135 277.147C75.4135 276.886 75.3547 276.644 75.2372 276.422C75.1262 276.194 74.8944 275.988 74.5418 275.805C74.1958 275.616 73.6734 275.453 72.9748 275.316C72.3872 275.192 71.8551 275.045 71.3784 274.875C70.9083 274.705 70.5068 274.5 70.1738 274.258C69.8473 274.016 69.5959 273.732 69.4197 273.406C69.2434 273.079 69.1552 272.698 69.1552 272.26C69.1552 271.842 69.2466 271.447 69.4295 271.075C69.6188 270.703 69.8832 270.373 70.2228 270.086C70.5688 269.799 70.9834 269.573 71.4666 269.41C71.9497 269.247 72.4884 269.165 73.0826 269.165C73.9314 269.165 74.6561 269.315 75.2568 269.616C75.8575 269.916 76.3178 270.318 76.6377 270.82C76.9576 271.317 77.1176 271.868 77.1176 272.476H75.3058C75.3058 272.182 75.2176 271.898 75.0413 271.623C74.8716 271.343 74.6202 271.111 74.2872 270.928C73.9607 270.745 73.5592 270.654 73.0826 270.654C72.5798 270.654 72.1717 270.732 71.8583 270.889C71.5514 271.039 71.3262 271.232 71.1825 271.467C71.0454 271.702 70.9769 271.95 70.9769 272.211C70.9769 272.407 71.0095 272.583 71.0748 272.74C71.1466 272.89 71.2707 273.031 71.447 273.161C71.6233 273.285 71.8714 273.403 72.1913 273.514C72.5112 273.625 72.9193 273.736 73.4155 273.847C74.2839 274.043 74.9989 274.278 75.5604 274.552C76.1219 274.826 76.5398 275.162 76.814 275.561C77.0882 275.959 77.2253 276.442 77.2253 277.01C77.2253 277.474 77.1274 277.898 76.9315 278.283C76.7422 278.668 76.4647 279.001 76.0991 279.282C75.7399 279.556 75.309 279.772 74.8063 279.929C74.31 280.079 73.7518 280.154 73.1315 280.154C72.1978 280.154 71.4078 279.987 70.7614 279.654C70.115 279.321 69.6253 278.89 69.2923 278.362C68.9593 277.833 68.7929 277.274 68.7929 276.687H70.6145C70.6406 277.183 70.7843 277.578 71.0454 277.872C71.3066 278.159 71.6265 278.365 72.0052 278.489C72.3839 278.606 72.7594 278.665 73.1315 278.665C73.6277 278.665 74.0423 278.6 74.3753 278.469C74.7149 278.339 74.9728 278.159 75.1491 277.931C75.3253 277.702 75.4135 277.441 75.4135 277.147ZM84.0419 269.361V270.752H78.3125V269.361H84.0419ZM80.2516 266.785H82.0635V277.333C82.0635 277.692 82.119 277.963 82.23 278.146C82.341 278.329 82.4846 278.45 82.6609 278.509C82.8372 278.567 83.0266 278.597 83.229 278.597C83.3791 278.597 83.5358 278.584 83.6991 278.557C83.8688 278.525 83.9962 278.499 84.081 278.479L84.0908 279.958C83.9472 280.004 83.7578 280.046 83.5228 280.085C83.2943 280.131 83.0168 280.154 82.6903 280.154C82.2463 280.154 81.8382 280.066 81.4661 279.889C81.0939 279.713 80.7968 279.419 80.5748 279.008C80.3594 278.59 80.2516 278.029 80.2516 277.323V266.785ZM92.4156 278.146V272.691C92.4156 272.273 92.3307 271.911 92.1609 271.604C91.9977 271.29 91.7496 271.049 91.4166 270.879C91.0836 270.709 90.6723 270.624 90.1826 270.624C89.7255 270.624 89.324 270.703 88.9779 270.86C88.6384 271.016 88.3707 271.222 88.1749 271.477C87.9855 271.731 87.8908 272.005 87.8908 272.299H86.079C86.079 271.921 86.1769 271.545 86.3728 271.173C86.5687 270.801 86.8494 270.465 87.2151 270.164C87.5872 269.857 88.0312 269.616 88.547 269.439C89.0694 269.257 89.6505 269.165 90.2903 269.165C91.0608 269.165 91.7398 269.296 92.3274 269.557C92.9216 269.818 93.3852 270.213 93.7182 270.742C94.0577 271.264 94.2274 271.921 94.2274 272.711V277.647C94.2274 277.999 94.2568 278.375 94.3156 278.773C94.3809 279.171 94.4756 279.514 94.5996 279.801V279.958H92.7094C92.618 279.749 92.5462 279.472 92.4939 279.126C92.4417 278.773 92.4156 278.446 92.4156 278.146ZM92.729 273.533L92.7486 274.806H90.9171C90.4013 274.806 89.941 274.849 89.5362 274.934C89.1314 275.012 88.7919 275.133 88.5176 275.296C88.2434 275.459 88.0345 275.665 87.8908 275.913C87.7472 276.155 87.6754 276.439 87.6754 276.765C87.6754 277.098 87.7505 277.402 87.9006 277.676C88.0508 277.95 88.2761 278.169 88.5764 278.332C88.8833 278.489 89.2587 278.567 89.7027 278.567C90.2577 278.567 90.7474 278.45 91.1718 278.215C91.5962 277.98 91.9324 277.692 92.1805 277.353C92.4352 277.013 92.5723 276.684 92.5919 276.364L93.3656 277.235C93.3199 277.51 93.1958 277.813 92.9934 278.146C92.791 278.479 92.5201 278.799 92.1805 279.106C91.8475 279.406 91.4493 279.658 90.9857 279.86C90.5286 280.056 90.0128 280.154 89.4383 280.154C88.72 280.154 88.09 280.014 87.548 279.733C87.0127 279.452 86.5948 279.077 86.2944 278.606C86.0006 278.13 85.8537 277.598 85.8537 277.01C85.8537 276.442 85.9647 275.943 86.1867 275.512C86.4087 275.074 86.7286 274.712 87.1465 274.424C87.5644 274.131 88.0671 273.909 88.6548 273.759C89.2424 273.608 89.8986 273.533 90.6233 273.533H92.729ZM108.732 277.901V264.915H110.554V279.958H108.889L108.732 277.901ZM101.602 274.777V274.571C101.602 273.762 101.7 273.027 101.896 272.368C102.098 271.702 102.382 271.13 102.748 270.654C103.12 270.177 103.561 269.812 104.07 269.557C104.586 269.296 105.161 269.165 105.794 269.165C106.46 269.165 107.041 269.283 107.537 269.518C108.04 269.746 108.464 270.083 108.81 270.527C109.163 270.964 109.441 271.493 109.643 272.113C109.845 272.733 109.986 273.435 110.064 274.219V275.12C109.992 275.897 109.852 276.595 109.643 277.216C109.441 277.836 109.163 278.365 108.81 278.802C108.464 279.24 108.04 279.576 107.537 279.811C107.035 280.04 106.447 280.154 105.774 280.154C105.154 280.154 104.586 280.02 104.07 279.752C103.561 279.485 103.12 279.109 102.748 278.626C102.382 278.143 102.098 277.575 101.896 276.922C101.7 276.262 101.602 275.548 101.602 274.777ZM103.424 274.571V274.777C103.424 275.306 103.476 275.802 103.581 276.266C103.692 276.729 103.861 277.137 104.09 277.49C104.318 277.843 104.609 278.12 104.961 278.322C105.314 278.518 105.735 278.616 106.225 278.616C106.826 278.616 107.319 278.489 107.704 278.234C108.096 277.98 108.409 277.643 108.644 277.226C108.879 276.808 109.062 276.354 109.192 275.864V273.504C109.114 273.145 109 272.799 108.85 272.466C108.706 272.126 108.517 271.826 108.282 271.565C108.053 271.297 107.769 271.085 107.43 270.928C107.097 270.771 106.702 270.693 106.244 270.693C105.748 270.693 105.321 270.798 104.961 271.006C104.609 271.209 104.318 271.49 104.09 271.849C103.861 272.201 103.692 272.613 103.581 273.083C103.476 273.546 103.424 274.043 103.424 274.571ZM117.772 280.154C117.034 280.154 116.365 280.03 115.764 279.782C115.17 279.527 114.657 279.171 114.226 278.714C113.802 278.257 113.476 277.715 113.247 277.088C113.019 276.462 112.904 275.776 112.904 275.032V274.62C112.904 273.759 113.032 272.991 113.286 272.319C113.541 271.64 113.887 271.065 114.324 270.595C114.762 270.125 115.258 269.769 115.813 269.528C116.368 269.286 116.943 269.165 117.537 269.165C118.294 269.165 118.947 269.296 119.496 269.557C120.051 269.818 120.504 270.184 120.857 270.654C121.209 271.117 121.471 271.666 121.64 272.299C121.81 272.926 121.895 273.612 121.895 274.356V275.169H113.982V273.69H120.083V273.553C120.057 273.083 119.959 272.626 119.789 272.182C119.626 271.738 119.365 271.372 119.006 271.085C118.647 270.798 118.157 270.654 117.537 270.654C117.125 270.654 116.747 270.742 116.401 270.918C116.055 271.088 115.758 271.343 115.509 271.682C115.261 272.022 115.069 272.436 114.932 272.926C114.794 273.416 114.726 273.981 114.726 274.62V275.032C114.726 275.534 114.794 276.008 114.932 276.452C115.075 276.889 115.281 277.274 115.549 277.607C115.823 277.94 116.153 278.202 116.538 278.391C116.93 278.58 117.374 278.675 117.87 278.675C118.51 278.675 119.052 278.544 119.496 278.283C119.94 278.022 120.328 277.673 120.661 277.235L121.758 278.107C121.529 278.453 121.239 278.783 120.886 279.096C120.534 279.41 120.099 279.664 119.584 279.86C119.074 280.056 118.47 280.154 117.772 280.154ZM133.226 278.665C133.657 278.665 134.056 278.577 134.421 278.401C134.787 278.224 135.087 277.983 135.322 277.676C135.557 277.363 135.691 277.007 135.724 276.609H137.448C137.415 277.235 137.203 277.82 136.811 278.362C136.426 278.897 135.92 279.331 135.293 279.664C134.666 279.991 133.977 280.154 133.226 280.154C132.43 280.154 131.735 280.014 131.14 279.733C130.553 279.452 130.063 279.067 129.671 278.577C129.286 278.087 128.996 277.526 128.8 276.893C128.61 276.253 128.516 275.577 128.516 274.865V274.454C128.516 273.742 128.61 273.07 128.8 272.436C128.996 271.796 129.286 271.232 129.671 270.742C130.063 270.252 130.553 269.867 131.14 269.586C131.735 269.306 132.43 269.165 133.226 269.165C134.056 269.165 134.78 269.335 135.401 269.674C136.021 270.007 136.507 270.465 136.86 271.046C137.219 271.62 137.415 272.273 137.448 273.004H135.724C135.691 272.567 135.567 272.172 135.352 271.819C135.143 271.467 134.856 271.186 134.49 270.977C134.131 270.762 133.71 270.654 133.226 270.654C132.672 270.654 132.205 270.765 131.826 270.987C131.454 271.202 131.157 271.496 130.935 271.868C130.719 272.234 130.563 272.642 130.465 273.093C130.373 273.537 130.328 273.99 130.328 274.454V274.865C130.328 275.329 130.373 275.786 130.465 276.236C130.556 276.687 130.709 277.095 130.925 277.461C131.147 277.826 131.444 278.12 131.816 278.342C132.195 278.557 132.665 278.665 133.226 278.665ZM139.005 274.777V274.552C139.005 273.788 139.116 273.079 139.338 272.427C139.56 271.767 139.88 271.196 140.298 270.713C140.716 270.223 141.222 269.844 141.816 269.577C142.41 269.302 143.076 269.165 143.814 269.165C144.558 269.165 145.227 269.302 145.821 269.577C146.422 269.844 146.931 270.223 147.349 270.713C147.774 271.196 148.097 271.767 148.319 272.427C148.541 273.079 148.652 273.788 148.652 274.552V274.777C148.652 275.541 148.541 276.249 148.319 276.902C148.097 277.555 147.774 278.127 147.349 278.616C146.931 279.099 146.425 279.478 145.831 279.752C145.244 280.02 144.578 280.154 143.833 280.154C143.089 280.154 142.42 280.02 141.825 279.752C141.231 279.478 140.722 279.099 140.298 278.616C139.88 278.127 139.56 277.555 139.338 276.902C139.116 276.249 139.005 275.541 139.005 274.777ZM140.817 274.552V274.777C140.817 275.306 140.879 275.805 141.003 276.276C141.127 276.739 141.313 277.15 141.561 277.51C141.816 277.869 142.132 278.153 142.511 278.362C142.89 278.564 143.33 278.665 143.833 278.665C144.329 278.665 144.764 278.564 145.136 278.362C145.514 278.153 145.828 277.869 146.076 277.51C146.324 277.15 146.51 276.739 146.634 276.276C146.765 275.805 146.83 275.306 146.83 274.777V274.552C146.83 274.029 146.765 273.537 146.634 273.073C146.51 272.603 146.321 272.188 146.066 271.829C145.818 271.463 145.505 271.176 145.126 270.967C144.754 270.758 144.316 270.654 143.814 270.654C143.317 270.654 142.88 270.758 142.501 270.967C142.129 271.176 141.816 271.463 141.561 271.829C141.313 272.188 141.127 272.603 141.003 273.073C140.879 273.537 140.817 274.029 140.817 274.552ZM152.736 271.623V279.958H150.924V269.361H152.638L152.736 271.623ZM152.305 274.258L151.551 274.229C151.557 273.504 151.665 272.835 151.874 272.221C152.083 271.601 152.377 271.062 152.755 270.605C153.134 270.148 153.585 269.795 154.107 269.547C154.636 269.293 155.22 269.165 155.86 269.165C156.382 269.165 156.852 269.237 157.27 269.381C157.688 269.518 158.044 269.74 158.338 270.047C158.638 270.354 158.867 270.752 159.023 271.241C159.18 271.725 159.259 272.316 159.259 273.014V279.958H157.437V272.995C157.437 272.44 157.355 271.996 157.192 271.663C157.029 271.323 156.79 271.078 156.477 270.928C156.164 270.771 155.778 270.693 155.321 270.693C154.871 270.693 154.46 270.788 154.087 270.977C153.722 271.166 153.405 271.428 153.137 271.761C152.876 272.094 152.671 272.476 152.52 272.906C152.377 273.331 152.305 273.781 152.305 274.258ZM166.447 269.361V270.752H160.718V269.361H166.447ZM162.657 266.785H164.469V277.333C164.469 277.692 164.524 277.963 164.635 278.146C164.746 278.329 164.89 278.45 165.066 278.509C165.243 278.567 165.432 278.597 165.634 278.597C165.784 278.597 165.941 278.584 166.104 278.557C166.274 278.525 166.401 278.499 166.486 278.479L166.496 279.958C166.353 280.004 166.163 280.046 165.928 280.085C165.7 280.131 165.422 280.154 165.096 280.154C164.652 280.154 164.244 280.066 163.871 279.889C163.499 279.713 163.202 279.419 162.98 279.008C162.765 278.59 162.657 278.029 162.657 277.323V266.785ZM174.821 278.146V272.691C174.821 272.273 174.736 271.911 174.566 271.604C174.403 271.29 174.155 271.049 173.822 270.879C173.489 270.709 173.078 270.624 172.588 270.624C172.131 270.624 171.729 270.703 171.383 270.86C171.044 271.016 170.776 271.222 170.58 271.477C170.391 271.731 170.296 272.005 170.296 272.299H168.484C168.484 271.921 168.582 271.545 168.778 271.173C168.974 270.801 169.255 270.465 169.62 270.164C169.993 269.857 170.437 269.616 170.952 269.439C171.475 269.257 172.056 269.165 172.696 269.165C173.466 269.165 174.145 269.296 174.733 269.557C175.327 269.818 175.791 270.213 176.124 270.742C176.463 271.264 176.633 271.921 176.633 272.711V277.647C176.633 277.999 176.662 278.375 176.721 278.773C176.786 279.171 176.881 279.514 177.005 279.801V279.958H175.115C175.023 279.749 174.952 279.472 174.899 279.126C174.847 278.773 174.821 278.446 174.821 278.146ZM175.134 273.533L175.154 274.806H173.322C172.807 274.806 172.346 274.849 171.942 274.934C171.537 275.012 171.197 275.133 170.923 275.296C170.649 275.459 170.44 275.665 170.296 275.913C170.153 276.155 170.081 276.439 170.081 276.765C170.081 277.098 170.156 277.402 170.306 277.676C170.456 277.95 170.681 278.169 170.982 278.332C171.289 278.489 171.664 278.567 172.108 278.567C172.663 278.567 173.153 278.45 173.577 278.215C174.002 277.98 174.338 277.692 174.586 277.353C174.841 277.013 174.978 276.684 174.997 276.364L175.771 277.235C175.725 277.51 175.601 277.813 175.399 278.146C175.196 278.479 174.925 278.799 174.586 279.106C174.253 279.406 173.855 279.658 173.391 279.86C172.934 280.056 172.418 280.154 171.844 280.154C171.125 280.154 170.495 280.014 169.953 279.733C169.418 279.452 169 279.077 168.7 278.606C168.406 278.13 168.259 277.598 168.259 277.01C168.259 276.442 168.37 275.943 168.592 275.512C168.814 275.074 169.134 274.712 169.552 274.424C169.97 274.131 170.472 273.909 171.06 273.759C171.648 273.608 172.304 273.533 173.029 273.533H175.134ZM183.919 269.361V270.752H178.19V269.361H183.919ZM180.129 266.785H181.941V277.333C181.941 277.692 181.997 277.963 182.108 278.146C182.219 278.329 182.362 278.45 182.538 278.509C182.715 278.567 182.904 278.597 183.107 278.597C183.257 278.597 183.413 278.584 183.577 278.557C183.746 278.525 183.874 278.499 183.959 278.479L183.968 279.958C183.825 280.004 183.635 280.046 183.4 280.085C183.172 280.131 182.894 280.154 182.568 280.154C182.124 280.154 181.716 280.066 181.344 279.889C180.971 279.713 180.674 279.419 180.452 279.008C180.237 278.59 180.129 278.029 180.129 277.323V266.785ZM185.369 274.777V274.552C185.369 273.788 185.48 273.079 185.702 272.427C185.924 271.767 186.244 271.196 186.662 270.713C187.08 270.223 187.586 269.844 188.18 269.577C188.774 269.302 189.44 269.165 190.178 269.165C190.922 269.165 191.591 269.302 192.185 269.577C192.786 269.844 193.295 270.223 193.713 270.713C194.138 271.196 194.461 271.767 194.683 272.427C194.905 273.079 195.016 273.788 195.016 274.552V274.777C195.016 275.541 194.905 276.249 194.683 276.902C194.461 277.555 194.138 278.127 193.713 278.616C193.295 279.099 192.789 279.478 192.195 279.752C191.608 280.02 190.942 280.154 190.197 280.154C189.453 280.154 188.784 280.02 188.19 279.752C187.595 279.478 187.086 279.099 186.662 278.616C186.244 278.127 185.924 277.555 185.702 276.902C185.48 276.249 185.369 275.541 185.369 274.777ZM187.181 274.552V274.777C187.181 275.306 187.243 275.805 187.367 276.276C187.491 276.739 187.677 277.15 187.925 277.51C188.18 277.869 188.496 278.153 188.875 278.362C189.254 278.564 189.694 278.665 190.197 278.665C190.693 278.665 191.128 278.564 191.5 278.362C191.879 278.153 192.192 277.869 192.44 277.51C192.688 277.15 192.874 276.739 192.998 276.276C193.129 275.805 193.194 275.306 193.194 274.777V274.552C193.194 274.029 193.129 273.537 192.998 273.073C192.874 272.603 192.685 272.188 192.43 271.829C192.182 271.463 191.869 271.176 191.49 270.967C191.118 270.758 190.68 270.654 190.178 270.654C189.681 270.654 189.244 270.758 188.865 270.967C188.493 271.176 188.18 271.463 187.925 271.829C187.677 272.188 187.491 272.603 187.367 273.073C187.243 273.537 187.181 274.029 187.181 274.552ZM203.458 277.147C203.458 276.886 203.399 276.644 203.282 276.422C203.171 276.194 202.939 275.988 202.586 275.805C202.24 275.616 201.718 275.453 201.019 275.316C200.432 275.192 199.9 275.045 199.423 274.875C198.953 274.705 198.551 274.5 198.218 274.258C197.892 274.016 197.641 273.732 197.464 273.406C197.288 273.079 197.2 272.698 197.2 272.26C197.2 271.842 197.291 271.447 197.474 271.075C197.663 270.703 197.928 270.373 198.267 270.086C198.613 269.799 199.028 269.573 199.511 269.41C199.994 269.247 200.533 269.165 201.127 269.165C201.976 269.165 202.701 269.315 203.301 269.616C203.902 269.916 204.362 270.318 204.682 270.82C205.002 271.317 205.162 271.868 205.162 272.476H203.35C203.35 272.182 203.262 271.898 203.086 271.623C202.916 271.343 202.665 271.111 202.332 270.928C202.005 270.745 201.604 270.654 201.127 270.654C200.624 270.654 200.216 270.732 199.903 270.889C199.596 271.039 199.371 271.232 199.227 271.467C199.09 271.702 199.021 271.95 199.021 272.211C199.021 272.407 199.054 272.583 199.119 272.74C199.191 272.89 199.315 273.031 199.492 273.161C199.668 273.285 199.916 273.403 200.236 273.514C200.556 273.625 200.964 273.736 201.46 273.847C202.329 274.043 203.043 274.278 203.605 274.552C204.167 274.826 204.584 275.162 204.859 275.561C205.133 275.959 205.27 276.442 205.27 277.01C205.27 277.474 205.172 277.898 204.976 278.283C204.787 278.668 204.509 279.001 204.144 279.282C203.785 279.556 203.354 279.772 202.851 279.929C202.355 280.079 201.796 280.154 201.176 280.154C200.242 280.154 199.452 279.987 198.806 279.654C198.16 279.321 197.67 278.89 197.337 278.362C197.004 277.833 196.837 277.274 196.837 276.687H198.659C198.685 277.183 198.829 277.578 199.09 277.872C199.351 278.159 199.671 278.365 200.05 278.489C200.429 278.606 200.804 278.665 201.176 278.665C201.672 278.665 202.087 278.6 202.42 278.469C202.759 278.339 203.017 278.159 203.194 277.931C203.37 277.702 203.458 277.441 203.458 277.147ZM117.696 287.182H117.821V287.954H117.696C117.02 287.954 116.418 288.064 115.889 288.284C115.365 288.505 114.922 288.823 114.559 289.239C114.202 289.65 113.93 290.15 113.744 290.738C113.558 291.325 113.465 291.984 113.465 292.713V294.19C113.465 294.684 113.531 295.128 113.663 295.519C113.796 295.906 113.979 296.237 114.214 296.511C114.449 296.785 114.723 296.993 115.037 297.135C115.35 297.277 115.688 297.348 116.051 297.348C116.408 297.348 116.729 297.275 117.013 297.128C117.297 296.981 117.537 296.775 117.733 296.511C117.933 296.247 118.085 295.943 118.188 295.6C118.296 295.252 118.35 294.88 118.35 294.484C118.35 294.107 118.301 293.752 118.203 293.419C118.11 293.081 117.965 292.782 117.769 292.522C117.573 292.263 117.329 292.06 117.035 291.913C116.741 291.766 116.396 291.692 115.999 291.692C115.549 291.692 115.127 291.795 114.736 292.001C114.344 292.207 114.023 292.481 113.773 292.824C113.529 293.166 113.399 293.541 113.384 293.947L112.877 293.94C112.912 293.48 113.017 293.066 113.193 292.699C113.369 292.327 113.602 292.011 113.891 291.751C114.185 291.487 114.52 291.286 114.897 291.149C115.279 291.007 115.691 290.936 116.131 290.936C116.646 290.936 117.094 291.029 117.476 291.215C117.862 291.401 118.183 291.658 118.438 291.986C118.697 292.309 118.891 292.684 119.018 293.11C119.15 293.531 119.216 293.977 119.216 294.447C119.216 294.961 119.143 295.441 118.996 295.887C118.854 296.327 118.643 296.714 118.364 297.047C118.09 297.38 117.757 297.64 117.365 297.826C116.979 298.012 116.54 298.105 116.051 298.105C115.512 298.105 115.03 298.002 114.604 297.796C114.177 297.591 113.813 297.307 113.509 296.944C113.21 296.582 112.98 296.166 112.819 295.696C112.662 295.221 112.584 294.714 112.584 294.175V293.235C112.584 292.324 112.689 291.499 112.899 290.76C113.11 290.015 113.426 289.376 113.847 288.842C114.273 288.309 114.804 287.9 115.441 287.616C116.082 287.327 116.834 287.182 117.696 287.182ZM127.73 297.348C128.102 297.348 128.45 297.28 128.773 297.143C129.101 297.001 129.37 296.793 129.581 296.518C129.796 296.239 129.919 295.899 129.948 295.497H130.785C130.761 296.002 130.607 296.452 130.323 296.849C130.043 297.241 129.676 297.549 129.221 297.774C128.77 297.995 128.273 298.105 127.73 298.105C127.176 298.105 126.687 298.005 126.261 297.804C125.839 297.603 125.487 297.324 125.203 296.966C124.919 296.604 124.703 296.183 124.557 295.703C124.414 295.218 124.343 294.697 124.343 294.138V293.83C124.343 293.272 124.414 292.753 124.557 292.273C124.703 291.788 124.919 291.367 125.203 291.009C125.487 290.647 125.839 290.365 126.261 290.165C126.682 289.964 127.169 289.863 127.722 289.863C128.29 289.863 128.8 289.978 129.25 290.209C129.706 290.439 130.068 290.764 130.337 291.186C130.612 291.607 130.761 292.106 130.785 292.684H129.948C129.924 292.258 129.811 291.891 129.61 291.582C129.409 291.274 129.145 291.036 128.817 290.87C128.489 290.703 128.124 290.62 127.722 290.62C127.272 290.62 126.887 290.708 126.569 290.884C126.251 291.056 125.991 291.293 125.791 291.597C125.595 291.896 125.45 292.238 125.357 292.625C125.264 293.007 125.218 293.409 125.218 293.83V294.138C125.218 294.564 125.262 294.971 125.35 295.358C125.443 295.74 125.587 296.08 125.783 296.379C125.984 296.677 126.243 296.915 126.562 297.091C126.885 297.263 127.274 297.348 127.73 297.348ZM132.071 294.109V293.867C132.071 293.289 132.154 292.755 132.321 292.265C132.487 291.776 132.725 291.352 133.033 290.995C133.346 290.637 133.721 290.36 134.157 290.165C134.593 289.964 135.078 289.863 135.611 289.863C136.15 289.863 136.637 289.964 137.073 290.165C137.509 290.36 137.883 290.637 138.197 290.995C138.51 291.352 138.75 291.776 138.917 292.265C139.083 292.755 139.166 293.289 139.166 293.867V294.109C139.166 294.687 139.083 295.221 138.917 295.71C138.75 296.195 138.51 296.616 138.197 296.974C137.888 297.331 137.516 297.61 137.08 297.811C136.645 298.007 136.16 298.105 135.626 298.105C135.087 298.105 134.6 298.007 134.164 297.811C133.728 297.61 133.354 297.331 133.04 296.974C132.727 296.616 132.487 296.195 132.321 295.71C132.154 295.221 132.071 294.687 132.071 294.109ZM132.945 293.867V294.109C132.945 294.545 133.004 294.959 133.121 295.35C133.239 295.737 133.41 296.082 133.635 296.386C133.861 296.685 134.14 296.92 134.473 297.091C134.806 297.263 135.19 297.348 135.626 297.348C136.057 297.348 136.436 297.263 136.765 297.091C137.098 296.92 137.377 296.685 137.602 296.386C137.827 296.082 137.996 295.737 138.109 295.35C138.226 294.959 138.285 294.545 138.285 294.109V293.867C138.285 293.436 138.226 293.027 138.109 292.64C137.996 292.253 137.825 291.908 137.595 291.604C137.369 291.301 137.09 291.061 136.757 290.884C136.424 290.708 136.042 290.62 135.611 290.62C135.18 290.62 134.798 290.708 134.465 290.884C134.137 291.061 133.858 291.301 133.628 291.604C133.403 291.908 133.231 292.253 133.114 292.64C133.001 293.027 132.945 293.436 132.945 293.867ZM141.965 286.676V297.958H141.091V286.676H141.965ZM144.286 297.422C144.286 297.25 144.34 297.106 144.448 296.988C144.56 296.866 144.712 296.805 144.903 296.805C145.099 296.805 145.253 296.864 145.366 296.981C145.479 297.099 145.535 297.246 145.535 297.422C145.535 297.588 145.479 297.73 145.366 297.848C145.253 297.965 145.099 298.024 144.903 298.024C144.712 298.024 144.56 297.965 144.448 297.848C144.34 297.73 144.286 297.588 144.286 297.422Z" fill="#FDFBF9"/>
<path d="M834.934 279.958H831.957L831.977 278.42H834.934C835.953 278.42 836.802 278.208 837.481 277.784C838.16 277.353 838.669 276.752 839.009 275.982C839.355 275.205 839.528 274.297 839.528 273.259V272.387C839.528 271.571 839.43 270.846 839.234 270.213C839.038 269.573 838.751 269.035 838.372 268.597C837.993 268.153 837.53 267.817 836.981 267.588C836.439 267.36 835.816 267.246 835.111 267.246H831.898V265.698H835.111C836.044 265.698 836.896 265.855 837.667 266.168C838.437 266.475 839.1 266.922 839.655 267.51C840.216 268.091 840.647 268.796 840.948 269.626C841.248 270.448 841.398 271.375 841.398 272.407V273.259C841.398 274.291 841.248 275.221 840.948 276.05C840.647 276.873 840.213 277.575 839.645 278.156C839.084 278.737 838.405 279.184 837.608 279.498C836.818 279.805 835.927 279.958 834.934 279.958ZM832.966 265.698V279.958H831.076V265.698H832.966ZM848.362 280.154C847.624 280.154 846.955 280.03 846.354 279.782C845.76 279.527 845.247 279.171 844.816 278.714C844.392 278.257 844.065 277.715 843.837 277.088C843.608 276.462 843.494 275.776 843.494 275.032V274.62C843.494 273.759 843.621 272.991 843.876 272.319C844.131 271.64 844.477 271.065 844.914 270.595C845.352 270.125 845.848 269.769 846.403 269.528C846.958 269.286 847.532 269.165 848.127 269.165C848.884 269.165 849.537 269.296 850.085 269.557C850.64 269.818 851.094 270.184 851.447 270.654C851.799 271.117 852.061 271.666 852.23 272.299C852.4 272.926 852.485 273.612 852.485 274.356V275.169H844.571V273.69H850.673V273.553C850.647 273.083 850.549 272.626 850.379 272.182C850.216 271.738 849.955 271.372 849.596 271.085C849.237 270.798 848.747 270.654 848.127 270.654C847.715 270.654 847.337 270.742 846.991 270.918C846.645 271.088 846.347 271.343 846.099 271.682C845.851 272.022 845.659 272.436 845.521 272.926C845.384 273.416 845.316 273.981 845.316 274.62V275.032C845.316 275.534 845.384 276.008 845.521 276.452C845.665 276.889 845.871 277.274 846.139 277.607C846.413 277.94 846.742 278.202 847.128 278.391C847.519 278.58 847.963 278.675 848.46 278.675C849.1 278.675 849.641 278.544 850.085 278.283C850.529 278.022 850.918 277.673 851.251 277.235L852.348 278.107C852.119 278.453 851.829 278.783 851.476 279.096C851.124 279.41 850.689 279.664 850.174 279.86C849.664 280.056 849.06 280.154 848.362 280.154ZM859.037 269.361V270.752H853.308V269.361H859.037ZM855.247 266.785H857.059V277.333C857.059 277.692 857.114 277.963 857.225 278.146C857.336 278.329 857.48 278.45 857.656 278.509C857.832 278.567 858.022 278.597 858.224 278.597C858.374 278.597 858.531 278.584 858.694 278.557C858.864 278.525 858.991 278.499 859.076 278.479L859.086 279.958C858.942 280.004 858.753 280.046 858.518 280.085C858.289 280.131 858.012 280.154 857.685 280.154C857.241 280.154 856.833 280.066 856.461 279.889C856.089 279.713 855.792 279.419 855.57 279.008C855.355 278.59 855.247 278.029 855.247 277.323V266.785ZM867.411 278.146V272.691C867.411 272.273 867.326 271.911 867.156 271.604C866.993 271.29 866.745 271.049 866.412 270.879C866.079 270.709 865.667 270.624 865.178 270.624C864.721 270.624 864.319 270.703 863.973 270.86C863.634 271.016 863.366 271.222 863.17 271.477C862.981 271.731 862.886 272.005 862.886 272.299H861.074C861.074 271.921 861.172 271.545 861.368 271.173C861.564 270.801 861.845 270.465 862.21 270.164C862.582 269.857 863.026 269.616 863.542 269.439C864.064 269.257 864.646 269.165 865.285 269.165C866.056 269.165 866.735 269.296 867.323 269.557C867.917 269.818 868.38 270.213 868.713 270.742C869.053 271.264 869.223 271.921 869.223 272.711V277.647C869.223 277.999 869.252 278.375 869.311 278.773C869.376 279.171 869.471 279.514 869.595 279.801V279.958H867.705C867.613 279.749 867.541 279.472 867.489 279.126C867.437 278.773 867.411 278.446 867.411 278.146ZM867.724 273.533L867.744 274.806H865.912C865.396 274.806 864.936 274.849 864.531 274.934C864.127 275.012 863.787 275.133 863.513 275.296C863.239 275.459 863.03 275.665 862.886 275.913C862.742 276.155 862.671 276.439 862.671 276.765C862.671 277.098 862.746 277.402 862.896 277.676C863.046 277.95 863.271 278.169 863.572 278.332C863.878 278.489 864.254 278.567 864.698 278.567C865.253 278.567 865.742 278.45 866.167 278.215C866.591 277.98 866.928 277.692 867.176 277.353C867.43 277.013 867.567 276.684 867.587 276.364L868.361 277.235C868.315 277.51 868.191 277.813 867.989 278.146C867.786 278.479 867.515 278.799 867.176 279.106C866.843 279.406 866.444 279.658 865.981 279.86C865.524 280.056 865.008 280.154 864.433 280.154C863.715 280.154 863.085 280.014 862.543 279.733C862.008 279.452 861.59 279.077 861.29 278.606C860.996 278.13 860.849 277.598 860.849 277.01C860.849 276.442 860.96 275.943 861.182 275.512C861.404 275.074 861.724 274.712 862.142 274.424C862.56 274.131 863.062 273.909 863.65 273.759C864.238 273.608 864.894 273.533 865.618 273.533H867.724ZM874.041 264.915V279.958H872.219V264.915H874.041ZM878.762 264.915V279.958H876.95V264.915H878.762ZM878.331 274.258L877.577 274.229C877.583 273.504 877.691 272.835 877.9 272.221C878.109 271.601 878.403 271.062 878.781 270.605C879.16 270.148 879.611 269.795 880.133 269.547C880.662 269.293 881.246 269.165 881.886 269.165C882.408 269.165 882.878 269.237 883.296 269.381C883.714 269.518 884.07 269.74 884.364 270.047C884.664 270.354 884.893 270.752 885.049 271.241C885.206 271.725 885.284 272.316 885.284 273.014V279.958H883.463V272.995C883.463 272.44 883.381 271.996 883.218 271.663C883.055 271.323 882.816 271.078 882.503 270.928C882.19 270.771 881.804 270.693 881.347 270.693C880.897 270.693 880.485 270.788 880.113 270.977C879.748 271.166 879.431 271.428 879.163 271.761C878.902 272.094 878.696 272.476 878.546 272.906C878.403 273.331 878.331 273.781 878.331 274.258ZM894.246 278.146V272.691C894.246 272.273 894.161 271.911 893.991 271.604C893.828 271.29 893.58 271.049 893.247 270.879C892.914 270.709 892.503 270.624 892.013 270.624C891.556 270.624 891.154 270.703 890.808 270.86C890.469 271.016 890.201 271.222 890.005 271.477C889.816 271.731 889.721 272.005 889.721 272.299H887.909C887.909 271.921 888.007 271.545 888.203 271.173C888.399 270.801 888.68 270.465 889.045 270.164C889.417 269.857 889.861 269.616 890.377 269.439C890.9 269.257 891.481 269.165 892.121 269.165C892.891 269.165 893.57 269.296 894.158 269.557C894.752 269.818 895.215 270.213 895.548 270.742C895.888 271.264 896.058 271.921 896.058 272.711V277.647C896.058 277.999 896.087 278.375 896.146 278.773C896.211 279.171 896.306 279.514 896.43 279.801V279.958H894.54C894.448 279.749 894.376 279.472 894.324 279.126C894.272 278.773 894.246 278.446 894.246 278.146ZM894.559 273.533L894.579 274.806H892.747C892.232 274.806 891.771 274.849 891.366 274.934C890.962 275.012 890.622 275.133 890.348 275.296C890.074 275.459 889.865 275.665 889.721 275.913C889.577 276.155 889.506 276.439 889.506 276.765C889.506 277.098 889.581 277.402 889.731 277.676C889.881 277.95 890.106 278.169 890.407 278.332C890.714 278.489 891.089 278.567 891.533 278.567C892.088 278.567 892.578 278.45 893.002 278.215C893.426 277.98 893.763 277.692 894.011 277.353C894.265 277.013 894.403 276.684 894.422 276.364L895.196 277.235C895.15 277.51 895.026 277.813 894.824 278.146C894.621 278.479 894.35 278.799 894.011 279.106C893.678 279.406 893.279 279.658 892.816 279.86C892.359 280.056 891.843 280.154 891.268 280.154C890.55 280.154 889.92 280.014 889.378 279.733C888.843 279.452 888.425 279.077 888.125 278.606C887.831 278.13 887.684 277.598 887.684 277.01C887.684 276.442 887.795 275.943 888.017 275.512C888.239 275.074 888.559 274.712 888.977 274.424C889.395 274.131 889.897 273.909 890.485 273.759C891.073 273.608 891.729 273.533 892.454 273.533H894.559ZM900.71 271.467V279.958H898.888V269.361H900.612L900.71 271.467ZM900.338 274.258L899.495 274.229C899.502 273.504 899.597 272.835 899.779 272.221C899.962 271.601 900.233 271.062 900.592 270.605C900.951 270.148 901.399 269.795 901.934 269.547C902.469 269.293 903.09 269.165 903.795 269.165C904.291 269.165 904.748 269.237 905.166 269.381C905.584 269.518 905.946 269.737 906.253 270.037C906.56 270.337 906.798 270.722 906.968 271.193C907.138 271.663 907.223 272.231 907.223 272.897V279.958H905.411V272.985C905.411 272.43 905.316 271.986 905.127 271.653C904.944 271.32 904.683 271.078 904.343 270.928C904.004 270.771 903.605 270.693 903.148 270.693C902.613 270.693 902.166 270.788 901.807 270.977C901.448 271.166 901.16 271.428 900.945 271.761C900.729 272.094 900.573 272.476 900.475 272.906C900.383 273.331 900.338 273.781 900.338 274.258ZM907.203 273.259L905.989 273.631C905.995 273.05 906.09 272.492 906.273 271.956C906.462 271.421 906.733 270.944 907.086 270.527C907.445 270.109 907.885 269.779 908.408 269.537C908.93 269.289 909.527 269.165 910.2 269.165C910.768 269.165 911.271 269.24 911.708 269.39C912.152 269.541 912.524 269.772 912.825 270.086C913.132 270.393 913.363 270.788 913.52 271.271C913.677 271.754 913.755 272.329 913.755 272.995V279.958H911.933V272.975C911.933 272.381 911.839 271.921 911.649 271.594C911.467 271.261 911.205 271.029 910.866 270.899C910.533 270.762 910.135 270.693 909.671 270.693C909.273 270.693 908.92 270.762 908.613 270.899C908.307 271.036 908.049 271.225 907.84 271.467C907.631 271.702 907.471 271.973 907.36 272.28C907.255 272.587 907.203 272.913 907.203 273.259ZM920.895 280.154C920.157 280.154 919.488 280.03 918.887 279.782C918.293 279.527 917.78 279.171 917.349 278.714C916.925 278.257 916.599 277.715 916.37 277.088C916.142 276.462 916.027 275.776 916.027 275.032V274.62C916.027 273.759 916.155 272.991 916.409 272.319C916.664 271.64 917.01 271.065 917.447 270.595C917.885 270.125 918.381 269.769 918.936 269.528C919.491 269.286 920.066 269.165 920.66 269.165C921.417 269.165 922.07 269.296 922.619 269.557C923.174 269.818 923.627 270.184 923.98 270.654C924.332 271.117 924.594 271.666 924.763 272.299C924.933 272.926 925.018 273.612 925.018 274.356V275.169H917.105V273.69H923.206V273.553C923.18 273.083 923.082 272.626 922.912 272.182C922.749 271.738 922.488 271.372 922.129 271.085C921.77 270.798 921.28 270.654 920.66 270.654C920.248 270.654 919.87 270.742 919.524 270.918C919.178 271.088 918.881 271.343 918.632 271.682C918.384 272.022 918.192 272.436 918.055 272.926C917.918 273.416 917.849 273.981 917.849 274.62V275.032C917.849 275.534 917.918 276.008 918.055 276.452C918.198 276.889 918.404 277.274 918.672 277.607C918.946 277.94 919.276 278.202 919.661 278.391C920.053 278.58 920.497 278.675 920.993 278.675C921.633 278.675 922.175 278.544 922.619 278.283C923.063 278.022 923.451 277.673 923.784 277.235L924.881 278.107C924.652 278.453 924.362 278.783 924.009 279.096C923.657 279.41 923.223 279.664 922.707 279.86C922.197 280.056 921.593 280.154 920.895 280.154ZM928.945 271.623V279.958H927.134V269.361H928.847L928.945 271.623ZM928.514 274.258L927.76 274.229C927.767 273.504 927.875 272.835 928.084 272.221C928.292 271.601 928.586 271.062 928.965 270.605C929.344 270.148 929.794 269.795 930.317 269.547C930.845 269.293 931.43 269.165 932.07 269.165C932.592 269.165 933.062 269.237 933.48 269.381C933.898 269.518 934.254 269.74 934.547 270.047C934.848 270.354 935.076 270.752 935.233 271.241C935.39 271.725 935.468 272.316 935.468 273.014V279.958H933.646V272.995C933.646 272.44 933.565 271.996 933.402 271.663C933.238 271.323 933 271.078 932.687 270.928C932.373 270.771 931.988 270.693 931.531 270.693C931.08 270.693 930.669 270.788 930.297 270.977C929.931 271.166 929.615 271.428 929.347 271.761C929.086 272.094 928.88 272.476 928.73 272.906C928.586 273.331 928.514 273.781 928.514 274.258ZM942.657 269.361V270.752H936.927V269.361H942.657ZM938.867 266.785H940.678V277.333C940.678 277.692 940.734 277.963 940.845 278.146C940.956 278.329 941.1 278.45 941.276 278.509C941.452 278.567 941.641 278.597 941.844 278.597C941.994 278.597 942.151 278.584 942.314 278.557C942.484 278.525 942.611 278.499 942.696 278.479L942.706 279.958C942.562 280.004 942.373 280.046 942.138 280.085C941.909 280.131 941.632 280.154 941.305 280.154C940.861 280.154 940.453 280.066 940.081 279.889C939.709 279.713 939.412 279.419 939.19 279.008C938.974 278.59 938.867 278.029 938.867 277.323V266.785ZM944.106 274.777V274.552C944.106 273.788 944.217 273.079 944.439 272.427C944.661 271.767 944.981 271.196 945.399 270.713C945.817 270.223 946.323 269.844 946.917 269.577C947.511 269.302 948.177 269.165 948.915 269.165C949.659 269.165 950.329 269.302 950.923 269.577C951.523 269.844 952.033 270.223 952.451 270.713C952.875 271.196 953.198 271.767 953.42 272.427C953.642 273.079 953.753 273.788 953.753 274.552V274.777C953.753 275.541 953.642 276.249 953.42 276.902C953.198 277.555 952.875 278.127 952.451 278.616C952.033 279.099 951.527 279.478 950.933 279.752C950.345 280.02 949.679 280.154 948.935 280.154C948.19 280.154 947.521 280.02 946.927 279.752C946.333 279.478 945.823 279.099 945.399 278.616C944.981 278.127 944.661 277.555 944.439 276.902C944.217 276.249 944.106 275.541 944.106 274.777ZM945.918 274.552V274.777C945.918 275.306 945.98 275.805 946.104 276.276C946.228 276.739 946.414 277.15 946.662 277.51C946.917 277.869 947.234 278.153 947.612 278.362C947.991 278.564 948.432 278.665 948.935 278.665C949.431 278.665 949.865 278.564 950.237 278.362C950.616 278.153 950.929 277.869 951.177 277.51C951.426 277.15 951.612 276.739 951.736 276.276C951.866 275.805 951.932 275.306 951.932 274.777V274.552C951.932 274.029 951.866 273.537 951.736 273.073C951.612 272.603 951.422 272.188 951.168 271.829C950.919 271.463 950.606 271.176 950.227 270.967C949.855 270.758 949.418 270.654 948.915 270.654C948.419 270.654 947.981 270.758 947.603 270.967C947.23 271.176 946.917 271.463 946.662 271.829C946.414 272.188 946.228 272.603 946.104 273.073C945.98 273.537 945.918 274.029 945.918 274.552ZM962.803 271.467V279.958H960.981V269.361H962.705L962.803 271.467ZM962.431 274.258L961.588 274.229C961.595 273.504 961.689 272.835 961.872 272.221C962.055 271.601 962.326 271.062 962.685 270.605C963.044 270.148 963.492 269.795 964.027 269.547C964.562 269.293 965.183 269.165 965.888 269.165C966.384 269.165 966.841 269.237 967.259 269.381C967.677 269.518 968.039 269.737 968.346 270.037C968.653 270.337 968.891 270.722 969.061 271.193C969.231 271.663 969.316 272.231 969.316 272.897V279.958H967.504V272.985C967.504 272.43 967.409 271.986 967.22 271.653C967.037 271.32 966.776 271.078 966.436 270.928C966.097 270.771 965.698 270.693 965.241 270.693C964.706 270.693 964.259 270.788 963.9 270.977C963.54 271.166 963.253 271.428 963.038 271.761C962.822 272.094 962.666 272.476 962.568 272.906C962.476 273.331 962.431 273.781 962.431 274.258ZM969.296 273.259L968.082 273.631C968.088 273.05 968.183 272.492 968.366 271.956C968.555 271.421 968.826 270.944 969.178 270.527C969.538 270.109 969.978 269.779 970.501 269.537C971.023 269.289 971.62 269.165 972.293 269.165C972.861 269.165 973.364 269.24 973.801 269.39C974.245 269.541 974.617 269.772 974.918 270.086C975.225 270.393 975.456 270.788 975.613 271.271C975.77 271.754 975.848 272.329 975.848 272.995V279.958H974.026V272.975C974.026 272.381 973.932 271.921 973.742 271.594C973.56 271.261 973.298 271.029 972.959 270.899C972.626 270.762 972.228 270.693 971.764 270.693C971.366 270.693 971.013 270.762 970.706 270.899C970.399 271.036 970.142 271.225 969.933 271.467C969.724 271.702 969.564 271.973 969.453 272.28C969.348 272.587 969.296 272.913 969.296 273.259ZM978.11 274.777V274.552C978.11 273.788 978.221 273.079 978.443 272.427C978.665 271.767 978.985 271.196 979.403 270.713C979.821 270.223 980.327 269.844 980.921 269.577C981.515 269.302 982.181 269.165 982.919 269.165C983.664 269.165 984.333 269.302 984.927 269.577C985.528 269.844 986.037 270.223 986.455 270.713C986.879 271.196 987.202 271.767 987.424 272.427C987.646 273.079 987.757 273.788 987.757 274.552V274.777C987.757 275.541 987.646 276.249 987.424 276.902C987.202 277.555 986.879 278.127 986.455 278.616C986.037 279.099 985.531 279.478 984.937 279.752C984.349 280.02 983.683 280.154 982.939 280.154C982.194 280.154 981.525 280.02 980.931 279.752C980.337 279.478 979.828 279.099 979.403 278.616C978.985 278.127 978.665 277.555 978.443 276.902C978.221 276.249 978.11 275.541 978.11 274.777ZM979.922 274.552V274.777C979.922 275.306 979.984 275.805 980.108 276.276C980.232 276.739 980.419 277.15 980.667 277.51C980.921 277.869 981.238 278.153 981.617 278.362C981.995 278.564 982.436 278.665 982.939 278.665C983.435 278.665 983.869 278.564 984.241 278.362C984.62 278.153 984.933 277.869 985.182 277.51C985.43 277.15 985.616 276.739 985.74 276.276C985.87 275.805 985.936 275.306 985.936 274.777V274.552C985.936 274.029 985.87 273.537 985.74 273.073C985.616 272.603 985.426 272.188 985.172 271.829C984.924 271.463 984.61 271.176 984.232 270.967C983.859 270.758 983.422 270.654 982.919 270.654C982.423 270.654 981.986 270.758 981.607 270.967C981.235 271.176 980.921 271.463 980.667 271.829C980.419 272.188 980.232 272.603 980.108 273.073C979.984 273.537 979.922 274.029 979.922 274.552ZM981.842 267.794L983.742 264.915H985.926L983.301 267.794H981.842ZM993.095 278.322L995.994 269.361H997.845L994.035 279.958H992.821L993.095 278.322ZM990.676 269.361L993.663 278.371L993.869 279.958H992.654L988.815 269.361H990.676ZM1003.85 280.154C1003.11 280.154 1002.44 280.03 1001.84 279.782C1001.25 279.527 1000.73 279.171 1000.3 278.714C999.879 278.257 999.552 277.715 999.324 277.088C999.095 276.462 998.981 275.776 998.981 275.032V274.62C998.981 273.759 999.108 272.991 999.363 272.319C999.618 271.64 999.964 271.065 1000.4 270.595C1000.84 270.125 1001.33 269.769 1001.89 269.528C1002.44 269.286 1003.02 269.165 1003.61 269.165C1004.37 269.165 1005.02 269.296 1005.57 269.557C1006.13 269.818 1006.58 270.184 1006.93 270.654C1007.29 271.117 1007.55 271.666 1007.72 272.299C1007.89 272.926 1007.97 273.612 1007.97 274.356V275.169H1000.06V273.69H1006.16V273.553C1006.13 273.083 1006.04 272.626 1005.87 272.182C1005.7 271.738 1005.44 271.372 1005.08 271.085C1004.72 270.798 1004.23 270.654 1003.61 270.654C1003.2 270.654 1002.82 270.742 1002.48 270.918C1002.13 271.088 1001.83 271.343 1001.59 271.682C1001.34 272.022 1001.15 272.436 1001.01 272.926C1000.87 273.416 1000.8 273.981 1000.8 274.62V275.032C1000.8 275.534 1000.87 276.008 1001.01 276.452C1001.15 276.889 1001.36 277.274 1001.63 277.607C1001.9 277.94 1002.23 278.202 1002.61 278.391C1003.01 278.58 1003.45 278.675 1003.95 278.675C1004.59 278.675 1005.13 278.544 1005.57 278.283C1006.02 278.022 1006.4 277.673 1006.74 277.235L1007.83 278.107C1007.61 278.453 1007.32 278.783 1006.96 279.096C1006.61 279.41 1006.18 279.664 1005.66 279.86C1005.15 280.056 1004.55 280.154 1003.85 280.154ZM1012.06 264.915V279.958H1010.23V264.915H1012.06ZM909.977 287.182H910.102V287.954H909.977C909.301 287.954 908.699 288.064 908.17 288.284C907.646 288.505 907.203 288.823 906.841 289.239C906.483 289.65 906.211 290.15 906.025 290.738C905.839 291.325 905.746 291.984 905.746 292.713V294.19C905.746 294.684 905.812 295.128 905.945 295.519C906.077 295.906 906.26 296.237 906.495 296.511C906.731 296.785 907.005 296.993 907.318 297.135C907.632 297.277 907.969 297.348 908.332 297.348C908.689 297.348 909.01 297.275 909.294 297.128C909.578 296.981 909.818 296.775 910.014 296.511C910.215 296.247 910.366 295.943 910.469 295.6C910.577 295.252 910.631 294.88 910.631 294.484C910.631 294.107 910.582 293.752 910.484 293.419C910.391 293.081 910.247 292.782 910.051 292.522C909.855 292.263 909.61 292.06 909.316 291.913C909.022 291.766 908.677 291.692 908.28 291.692C907.83 291.692 907.409 291.795 907.017 292.001C906.625 292.207 906.304 292.481 906.055 292.824C905.81 293.166 905.68 293.541 905.665 293.947L905.159 293.94C905.193 293.48 905.298 293.066 905.474 292.699C905.651 292.327 905.883 292.011 906.172 291.751C906.466 291.487 906.802 291.286 907.179 291.149C907.561 291.007 907.972 290.936 908.413 290.936C908.927 290.936 909.375 291.029 909.757 291.215C910.144 291.401 910.464 291.658 910.719 291.986C910.979 292.309 911.172 292.684 911.299 293.11C911.432 293.531 911.498 293.977 911.498 294.447C911.498 294.961 911.424 295.441 911.277 295.887C911.135 296.327 910.925 296.714 910.646 297.047C910.371 297.38 910.038 297.64 909.647 297.826C909.26 298.012 908.821 298.105 908.332 298.105C907.793 298.105 907.311 298.002 906.885 297.796C906.459 297.591 906.094 297.307 905.79 296.944C905.492 296.582 905.261 296.166 905.1 295.696C904.943 295.221 904.865 294.714 904.865 294.175V293.235C904.865 292.324 904.97 291.499 905.181 290.76C905.391 290.015 905.707 289.376 906.128 288.842C906.554 288.309 907.086 287.9 907.722 287.616C908.364 287.327 909.115 287.182 909.977 287.182ZM920.011 297.348C920.383 297.348 920.731 297.28 921.054 297.143C921.382 297.001 921.651 296.793 921.862 296.518C922.077 296.239 922.2 295.899 922.229 295.497H923.067C923.042 296.002 922.888 296.452 922.604 296.849C922.325 297.241 921.957 297.549 921.502 297.774C921.052 297.995 920.555 298.105 920.011 298.105C919.458 298.105 918.968 298.005 918.542 297.804C918.121 297.603 917.768 297.324 917.484 296.966C917.2 296.604 916.985 296.183 916.838 295.703C916.696 295.218 916.625 294.697 916.625 294.138V293.83C916.625 293.272 916.696 292.753 916.838 292.273C916.985 291.788 917.2 291.367 917.484 291.009C917.768 290.647 918.121 290.365 918.542 290.165C918.963 289.964 919.45 289.863 920.004 289.863C920.572 289.863 921.081 289.978 921.531 290.209C921.987 290.439 922.349 290.764 922.619 291.186C922.893 291.607 923.042 292.106 923.067 292.684H922.229C922.205 292.258 922.092 291.891 921.891 291.582C921.691 291.274 921.426 291.036 921.098 290.87C920.77 290.703 920.405 290.62 920.004 290.62C919.553 290.62 919.169 290.708 918.85 290.884C918.532 291.056 918.273 291.293 918.072 291.597C917.876 291.896 917.731 292.238 917.638 292.625C917.545 293.007 917.499 293.409 917.499 293.83V294.138C917.499 294.564 917.543 294.971 917.631 295.358C917.724 295.74 917.869 296.08 918.064 296.379C918.265 296.677 918.525 296.915 918.843 297.091C919.166 297.263 919.556 297.348 920.011 297.348ZM924.352 294.109V293.867C924.352 293.289 924.435 292.755 924.602 292.265C924.768 291.776 925.006 291.352 925.314 290.995C925.628 290.637 926.002 290.36 926.438 290.165C926.874 289.964 927.359 289.863 927.893 289.863C928.431 289.863 928.918 289.964 929.354 290.165C929.79 290.36 930.165 290.637 930.478 290.995C930.792 291.352 931.031 291.776 931.198 292.265C931.364 292.755 931.448 293.289 931.448 293.867V294.109C931.448 294.687 931.364 295.221 931.198 295.71C931.031 296.195 930.792 296.616 930.478 296.974C930.17 297.331 929.797 297.61 929.362 297.811C928.926 298.007 928.441 298.105 927.907 298.105C927.369 298.105 926.881 298.007 926.446 297.811C926.01 297.61 925.635 297.331 925.322 296.974C925.008 296.616 924.768 296.195 924.602 295.71C924.435 295.221 924.352 294.687 924.352 294.109ZM925.226 293.867V294.109C925.226 294.545 925.285 294.959 925.402 295.35C925.52 295.737 925.691 296.082 925.917 296.386C926.142 296.685 926.421 296.92 926.754 297.091C927.087 297.263 927.471 297.348 927.907 297.348C928.338 297.348 928.718 297.263 929.046 297.091C929.379 296.92 929.658 296.685 929.883 296.386C930.108 296.082 930.277 295.737 930.39 295.35C930.507 294.959 930.566 294.545 930.566 294.109V293.867C930.566 293.436 930.507 293.027 930.39 292.64C930.277 292.253 930.106 291.908 929.876 291.604C929.651 291.301 929.371 291.061 929.038 290.884C928.705 290.708 928.323 290.62 927.893 290.62C927.462 290.62 927.08 290.708 926.747 290.884C926.419 291.061 926.139 291.301 925.909 291.604C925.684 291.908 925.513 292.253 925.395 292.64C925.282 293.027 925.226 293.436 925.226 293.867ZM934.246 286.676V297.958H933.372V286.676H934.246ZM936.567 297.422C936.567 297.25 936.621 297.106 936.729 296.988C936.842 296.866 936.993 296.805 937.184 296.805C937.38 296.805 937.535 296.864 937.647 296.981C937.76 297.099 937.816 297.246 937.816 297.422C937.816 297.588 937.76 297.73 937.647 297.848C937.535 297.965 937.38 298.024 937.184 298.024C936.993 298.024 936.842 297.965 936.729 297.848C936.621 297.73 936.567 297.588 936.567 297.422Z" fill="#FDFBF9"/>
</svg>
