<svg width="728" height="404" viewBox="0 0 728 404" fill="none" xmlns="http://www.w3.org/2000/svg">
<rect x="0.845703" y="0.207031" width="727.094" height="403.663" rx="11.1571" fill="#0567FF" fill-opacity="0.25"/>
<rect x="6.4375" y="6.1123" width="23.6561" height="391.297" fill="#FDFBF9" fill-opacity="0.1"/>
<rect x="35.9473" y="6.1123" width="23.6561" height="391.297" fill="#FDFBF9" fill-opacity="0.1"/>
<rect x="66.0332" y="6.1123" width="23.6561" height="391.297" fill="#FDFBF9" fill-opacity="0.1"/>
<rect x="96.1191" y="6.1123" width="23.6561" height="391.297" fill="#FDFBF9" fill-opacity="0.1"/>
<rect x="126.207" y="6.1123" width="23.6561" height="391.297" fill="#FDFBF9" fill-opacity="0.1"/>
<rect x="156.293" y="6.1123" width="23.6561" height="391.297" fill="#FDFBF9" fill-opacity="0.1"/>
<rect x="186.379" y="6.1123" width="23.6561" height="391.297" fill="#FDFBF9" fill-opacity="0.1"/>
<rect x="216.467" y="6.1123" width="23.6561" height="391.297" fill="#FDFBF9" fill-opacity="0.1"/>
<rect x="246.553" y="6.1123" width="23.6561" height="391.297" fill="#FDFBF9" fill-opacity="0.1"/>
<rect x="276.641" y="6.1123" width="23.6561" height="391.297" fill="#FDFBF9" fill-opacity="0.1"/>
<rect x="306.727" y="6.1123" width="23.6561" height="391.297" fill="#FDFBF9" fill-opacity="0.1"/>
<rect x="336.812" y="6.1123" width="23.6561" height="391.297" fill="#FDFBF9" fill-opacity="0.1"/>
<rect x="366.9" y="6.1123" width="23.6561" height="391.297" fill="#FDFBF9" fill-opacity="0.1"/>
<rect x="396.986" y="6.1123" width="23.6561" height="391.297" fill="#FDFBF9" fill-opacity="0.1"/>
<rect x="427.072" y="6.1123" width="23.6561" height="391.297" fill="#FDFBF9" fill-opacity="0.1"/>
<rect x="457.16" y="6.1123" width="23.6561" height="391.297" fill="#FDFBF9" fill-opacity="0.1"/>
<rect x="487.246" y="6.1123" width="23.6561" height="391.297" fill="#FDFBF9" fill-opacity="0.1"/>
<rect x="517.332" y="6.1123" width="23.6561" height="391.297" fill="#FDFBF9" fill-opacity="0.1"/>
<rect x="547.42" y="6.1123" width="23.6561" height="391.297" fill="#FDFBF9" fill-opacity="0.1"/>
<rect x="577.506" y="6.1123" width="23.6561" height="391.297" fill="#FDFBF9" fill-opacity="0.1"/>
<rect x="607.594" y="6.1123" width="23.6561" height="391.297" fill="#FDFBF9" fill-opacity="0.1"/>
<rect x="637.68" y="6.1123" width="23.6561" height="391.297" fill="#FDFBF9" fill-opacity="0.1"/>
<rect x="667.766" y="6.1123" width="23.6561" height="391.297" fill="#FDFBF9" fill-opacity="0.1"/>
<rect x="697.854" y="6.1123" width="23.6561" height="391.297" fill="#FDFBF9" fill-opacity="0.1"/>
<rect x="5.85938" y="30.2939" width="172.998" height="366.054" rx="11.1631" fill="#0567FF" fill-opacity="0.5"/>
<rect x="186.381" y="30.2939" width="353.518" height="366.054" rx="11.1631" fill="#0567FF" fill-opacity="0.5"/>
<rect x="547.42" y="30.2939" width="172.998" height="366.054" rx="11.1631" fill="#0567FF" fill-opacity="0.5"/>
<path d="M727.939 25.1982L0.84552 25.1982L0.845521 11.3723C0.845522 5.20586 5.84444 0.206938 12.0109 0.206938L716.774 0.207C722.941 0.207 727.939 5.20592 727.939 11.3724L727.939 25.1982Z" fill="#0567FF"/>
<path d="M315.63 201.926H318.451C318.304 203.277 317.917 204.487 317.29 205.554C316.663 206.622 315.777 207.469 314.631 208.096C313.485 208.713 312.055 209.021 310.341 209.021C309.088 209.021 307.947 208.786 306.918 208.316C305.9 207.846 305.023 207.18 304.289 206.318C303.554 205.447 302.986 204.404 302.584 203.189C302.193 201.965 301.997 200.604 301.997 199.105V196.975C301.997 195.476 302.193 194.12 302.584 192.906C302.986 191.681 303.559 190.633 304.303 189.762C305.057 188.89 305.963 188.219 307.021 187.749C308.079 187.279 309.269 187.044 310.591 187.044C312.207 187.044 313.573 187.348 314.69 187.955C315.806 188.562 316.673 189.404 317.29 190.482C317.917 191.549 318.304 192.788 318.451 194.198H315.63C315.493 193.199 315.238 192.342 314.866 191.628C314.494 190.903 313.965 190.345 313.279 189.953C312.594 189.561 311.698 189.365 310.591 189.365C309.641 189.365 308.804 189.546 308.079 189.909C307.364 190.271 306.762 190.785 306.272 191.451C305.792 192.117 305.43 192.915 305.185 193.846C304.94 194.776 304.817 195.809 304.817 196.946V199.105C304.817 200.153 304.925 201.137 305.141 202.058C305.366 202.979 305.704 203.787 306.154 204.482C306.605 205.177 307.178 205.726 307.873 206.127C308.569 206.519 309.391 206.715 310.341 206.715C311.546 206.715 312.506 206.524 313.221 206.142C313.936 205.76 314.474 205.212 314.837 204.497C315.209 203.782 315.473 202.925 315.63 201.926ZM321.183 200.956V200.618C321.183 199.472 321.349 198.41 321.682 197.43C322.015 196.441 322.495 195.584 323.122 194.859C323.749 194.125 324.508 193.557 325.399 193.155C326.29 192.744 327.289 192.538 328.396 192.538C329.513 192.538 330.517 192.744 331.408 193.155C332.309 193.557 333.073 194.125 333.7 194.859C334.336 195.584 334.821 196.441 335.154 197.43C335.487 198.41 335.653 199.472 335.653 200.618V200.956C335.653 202.102 335.487 203.165 335.154 204.144C334.821 205.123 334.336 205.98 333.7 206.715C333.073 207.44 332.314 208.008 331.422 208.419C330.541 208.821 329.542 209.021 328.426 209.021C327.309 209.021 326.305 208.821 325.414 208.419C324.523 208.008 323.759 207.44 323.122 206.715C322.495 205.98 322.015 205.123 321.682 204.144C321.349 203.165 321.183 202.102 321.183 200.956ZM323.901 200.618V200.956C323.901 201.749 323.994 202.499 324.18 203.204C324.366 203.899 324.645 204.516 325.017 205.055C325.399 205.594 325.874 206.02 326.442 206.333C327.01 206.637 327.671 206.788 328.426 206.788C329.17 206.788 329.821 206.637 330.379 206.333C330.947 206.02 331.418 205.594 331.79 205.055C332.162 204.516 332.441 203.899 332.627 203.204C332.823 202.499 332.921 201.749 332.921 200.956V200.618C332.921 199.835 332.823 199.095 332.627 198.4C332.441 197.695 332.157 197.073 331.775 196.534C331.403 195.986 330.933 195.555 330.365 195.241C329.806 194.928 329.15 194.771 328.396 194.771C327.652 194.771 326.996 194.928 326.428 195.241C325.869 195.555 325.399 195.986 325.017 196.534C324.645 197.073 324.366 197.695 324.18 198.4C323.994 199.095 323.901 199.835 323.901 200.618ZM341.779 196.226V208.728H339.062V192.832H341.633L341.779 196.226ZM341.133 200.178L340.002 200.133C340.012 199.046 340.173 198.042 340.487 197.122C340.8 196.191 341.241 195.383 341.809 194.698C342.377 194.012 343.053 193.483 343.836 193.111C344.629 192.729 345.506 192.538 346.466 192.538C347.249 192.538 347.954 192.646 348.581 192.862C349.208 193.067 349.742 193.4 350.183 193.86C350.633 194.321 350.976 194.918 351.211 195.653C351.446 196.378 351.563 197.264 351.563 198.312V208.728H348.831V198.282C348.831 197.45 348.709 196.784 348.464 196.284C348.219 195.775 347.861 195.408 347.391 195.183C346.921 194.948 346.343 194.83 345.658 194.83C344.982 194.83 344.365 194.972 343.807 195.256C343.258 195.54 342.783 195.932 342.382 196.431C341.99 196.931 341.681 197.504 341.456 198.15C341.241 198.787 341.133 199.463 341.133 200.178ZM360.525 206.274L364.873 192.832H367.65L361.935 208.728H360.113L360.525 206.274ZM356.896 192.832L361.377 206.348L361.685 208.728H359.864L354.105 192.832H356.896ZM376.655 209.021C375.549 209.021 374.545 208.835 373.644 208.463C372.752 208.081 371.984 207.547 371.337 206.862C370.701 206.176 370.211 205.363 369.868 204.423C369.525 203.483 369.354 202.455 369.354 201.338V200.721C369.354 199.428 369.545 198.278 369.927 197.269C370.309 196.25 370.828 195.388 371.484 194.683C372.14 193.978 372.885 193.444 373.717 193.082C374.55 192.72 375.411 192.538 376.303 192.538C377.439 192.538 378.418 192.734 379.241 193.126C380.073 193.518 380.754 194.066 381.283 194.771C381.812 195.467 382.203 196.289 382.458 197.239C382.713 198.18 382.84 199.208 382.84 200.324V201.544H370.97V199.325H380.122V199.12C380.083 198.415 379.936 197.729 379.682 197.063C379.437 196.397 379.045 195.849 378.506 195.418C377.968 194.987 377.233 194.771 376.303 194.771C375.686 194.771 375.118 194.904 374.599 195.168C374.079 195.423 373.634 195.805 373.262 196.314C372.89 196.823 372.601 197.445 372.395 198.18C372.189 198.914 372.086 199.761 372.086 200.721V201.338C372.086 202.092 372.189 202.802 372.395 203.468C372.61 204.124 372.919 204.702 373.32 205.202C373.732 205.701 374.226 206.093 374.804 206.377C375.392 206.661 376.058 206.803 376.802 206.803C377.762 206.803 378.575 206.607 379.241 206.215C379.907 205.824 380.49 205.3 380.989 204.644L382.634 205.951C382.292 206.47 381.856 206.965 381.327 207.435C380.798 207.905 380.147 208.287 379.373 208.581C378.609 208.874 377.703 209.021 376.655 209.021ZM388.731 195.33V208.728H386.013V192.832H388.658L388.731 195.33ZM393.697 192.744L393.682 195.271C393.457 195.222 393.241 195.192 393.035 195.183C392.84 195.163 392.614 195.153 392.36 195.153C391.733 195.153 391.18 195.251 390.7 195.447C390.22 195.643 389.813 195.917 389.48 196.27C389.147 196.622 388.883 197.043 388.687 197.533C388.501 198.013 388.379 198.542 388.32 199.12L387.556 199.561C387.556 198.601 387.649 197.7 387.835 196.857C388.031 196.015 388.33 195.271 388.731 194.624C389.133 193.968 389.642 193.459 390.259 193.097C390.886 192.724 391.63 192.538 392.492 192.538C392.688 192.538 392.913 192.563 393.168 192.612C393.422 192.651 393.599 192.695 393.697 192.744ZM405.464 204.511C405.464 204.12 405.376 203.757 405.199 203.424C405.033 203.081 404.685 202.773 404.156 202.499C403.637 202.215 402.854 201.97 401.806 201.764C400.924 201.578 400.126 201.358 399.411 201.103C398.706 200.848 398.104 200.54 397.604 200.178C397.115 199.815 396.738 199.389 396.473 198.899C396.209 198.41 396.076 197.837 396.076 197.181C396.076 196.554 396.214 195.961 396.488 195.403C396.772 194.845 397.168 194.35 397.678 193.919C398.197 193.488 398.819 193.15 399.543 192.906C400.268 192.661 401.076 192.538 401.967 192.538C403.241 192.538 404.328 192.764 405.229 193.214C406.13 193.665 406.82 194.267 407.3 195.021C407.78 195.765 408.02 196.593 408.02 197.504H405.302C405.302 197.063 405.17 196.637 404.906 196.226C404.651 195.805 404.274 195.457 403.774 195.183C403.285 194.908 402.682 194.771 401.967 194.771C401.213 194.771 400.601 194.889 400.131 195.124C399.671 195.349 399.333 195.638 399.117 195.991C398.912 196.343 398.809 196.715 398.809 197.107C398.809 197.401 398.858 197.665 398.956 197.9C399.064 198.126 399.25 198.336 399.514 198.532C399.779 198.718 400.151 198.895 400.631 199.061C401.11 199.228 401.723 199.394 402.467 199.561C403.77 199.854 404.842 200.207 405.684 200.618C406.526 201.03 407.153 201.534 407.565 202.131C407.976 202.729 408.182 203.454 408.182 204.306C408.182 205.001 408.035 205.638 407.741 206.215C407.457 206.793 407.041 207.293 406.492 207.714C405.954 208.125 405.307 208.448 404.553 208.683C403.809 208.909 402.971 209.021 402.041 209.021C400.64 209.021 399.455 208.772 398.486 208.272C397.516 207.773 396.782 207.126 396.282 206.333C395.783 205.54 395.533 204.702 395.533 203.821H398.265C398.305 204.565 398.52 205.158 398.912 205.598C399.304 206.029 399.783 206.338 400.351 206.524C400.92 206.7 401.483 206.788 402.041 206.788C402.785 206.788 403.407 206.69 403.907 206.495C404.416 206.299 404.803 206.029 405.067 205.687C405.332 205.344 405.464 204.952 405.464 204.511ZM421.124 206.01V197.827C421.124 197.2 420.997 196.657 420.742 196.196C420.497 195.726 420.125 195.364 419.626 195.109C419.126 194.855 418.509 194.727 417.775 194.727C417.089 194.727 416.487 194.845 415.968 195.08C415.458 195.315 415.057 195.623 414.763 196.005C414.479 196.387 414.337 196.799 414.337 197.239H411.619C411.619 196.671 411.766 196.108 412.06 195.55C412.354 194.992 412.775 194.487 413.323 194.037C413.882 193.576 414.548 193.214 415.321 192.95C416.105 192.675 416.976 192.538 417.936 192.538C419.092 192.538 420.111 192.734 420.992 193.126C421.883 193.518 422.579 194.11 423.078 194.904C423.587 195.687 423.842 196.671 423.842 197.856V205.261C423.842 205.789 423.886 206.353 423.974 206.95C424.072 207.547 424.214 208.062 424.4 208.492V208.728H421.565C421.428 208.414 421.32 207.998 421.242 207.479C421.163 206.95 421.124 206.46 421.124 206.01ZM421.594 199.09L421.624 201H418.876C418.103 201 417.412 201.064 416.805 201.191C416.198 201.309 415.689 201.49 415.277 201.735C414.866 201.98 414.553 202.288 414.337 202.66C414.122 203.023 414.014 203.449 414.014 203.938C414.014 204.438 414.126 204.893 414.352 205.305C414.577 205.716 414.915 206.044 415.365 206.289C415.826 206.524 416.389 206.641 417.055 206.641C417.887 206.641 418.622 206.465 419.258 206.113C419.895 205.76 420.399 205.329 420.772 204.82C421.154 204.311 421.359 203.816 421.389 203.336L422.549 204.644C422.481 205.055 422.295 205.51 421.991 206.01C421.687 206.509 421.281 206.989 420.772 207.449C420.272 207.9 419.675 208.277 418.979 208.581C418.294 208.874 417.52 209.021 416.658 209.021C415.581 209.021 414.636 208.811 413.823 208.39C413.02 207.969 412.393 207.405 411.942 206.7C411.502 205.985 411.281 205.187 411.281 204.306C411.281 203.454 411.448 202.704 411.781 202.058C412.114 201.402 412.594 200.858 413.221 200.427C413.847 199.987 414.601 199.654 415.483 199.428C416.364 199.203 417.349 199.09 418.436 199.09H421.594ZM335.362 219.829V237.728H333.905V221.678L329.057 223.478V222.094L335.117 219.829H335.362ZM353.615 236.467V237.728H342.463V236.589L348.302 229.966C349.029 229.142 349.608 228.419 350.041 227.799C350.473 227.171 350.783 226.599 350.971 226.085C351.167 225.563 351.265 225.057 351.265 224.567C351.265 223.849 351.122 223.216 350.836 222.67C350.559 222.123 350.143 221.694 349.588 221.384C349.033 221.074 348.347 220.919 347.531 220.919C346.715 220.919 346.005 221.094 345.401 221.445C344.797 221.796 344.332 222.286 344.005 222.914C343.687 223.535 343.528 224.241 343.528 225.032H342.071C342.071 224.053 342.287 223.155 342.72 222.339C343.16 221.523 343.789 220.874 344.605 220.392C345.421 219.903 346.396 219.658 347.531 219.658C348.608 219.658 349.535 219.85 350.31 220.233C351.085 220.609 351.681 221.151 352.097 221.862C352.522 222.572 352.734 223.429 352.734 224.432C352.734 224.971 352.636 225.514 352.44 226.061C352.252 226.607 351.991 227.154 351.657 227.701C351.33 228.24 350.955 228.774 350.53 229.305C350.114 229.835 349.677 230.358 349.22 230.872L344.25 236.467H353.615ZM367.608 236.711C368.229 236.711 368.808 236.597 369.347 236.369C369.893 236.132 370.342 235.785 370.693 235.328C371.052 234.863 371.256 234.296 371.305 233.626H372.701C372.66 234.467 372.403 235.218 371.93 235.879C371.465 236.532 370.852 237.046 370.093 237.421C369.343 237.789 368.514 237.972 367.608 237.972C366.686 237.972 365.87 237.805 365.16 237.47C364.458 237.136 363.87 236.671 363.397 236.075C362.924 235.471 362.564 234.769 362.32 233.969C362.083 233.161 361.965 232.292 361.965 231.362V230.847C361.965 229.917 362.083 229.052 362.32 228.252C362.564 227.444 362.924 226.742 363.397 226.146C363.87 225.542 364.458 225.073 365.16 224.738C365.862 224.404 366.674 224.237 367.596 224.237C368.543 224.237 369.392 224.428 370.142 224.812C370.901 225.196 371.505 225.738 371.954 226.44C372.411 227.142 372.66 227.975 372.701 228.938H371.305C371.265 228.228 371.077 227.615 370.742 227.101C370.408 226.587 369.967 226.191 369.42 225.914C368.873 225.636 368.265 225.497 367.596 225.497C366.845 225.497 366.204 225.644 365.674 225.938C365.143 226.224 364.711 226.62 364.376 227.126C364.05 227.624 363.809 228.195 363.654 228.84C363.499 229.476 363.421 230.145 363.421 230.847V231.362C363.421 232.072 363.495 232.749 363.642 233.394C363.797 234.03 364.038 234.598 364.364 235.095C364.699 235.593 365.131 235.989 365.662 236.283C366.2 236.569 366.849 236.711 367.608 236.711ZM374.843 231.313V230.909C374.843 229.946 374.982 229.056 375.26 228.24C375.537 227.424 375.933 226.718 376.447 226.122C376.969 225.526 377.594 225.065 378.32 224.738C379.047 224.404 379.855 224.237 380.744 224.237C381.642 224.237 382.454 224.404 383.18 224.738C383.907 225.065 384.531 225.526 385.053 226.122C385.576 226.718 385.976 227.424 386.253 228.24C386.531 229.056 386.669 229.946 386.669 230.909V231.313C386.669 232.276 386.531 233.165 386.253 233.981C385.976 234.789 385.576 235.491 385.053 236.087C384.539 236.683 383.919 237.148 383.193 237.483C382.466 237.809 381.658 237.972 380.769 237.972C379.871 237.972 379.059 237.809 378.332 237.483C377.606 237.148 376.982 236.683 376.459 236.087C375.937 235.491 375.537 234.789 375.26 233.981C374.982 233.165 374.843 232.276 374.843 231.313ZM376.3 230.909V231.313C376.3 232.039 376.398 232.729 376.594 233.382C376.79 234.026 377.076 234.602 377.451 235.108C377.826 235.606 378.292 235.997 378.847 236.283C379.402 236.569 380.042 236.711 380.769 236.711C381.487 236.711 382.119 236.569 382.666 236.283C383.221 235.997 383.686 235.606 384.062 235.108C384.437 234.602 384.719 234.026 384.907 233.382C385.102 232.729 385.2 232.039 385.2 231.313V230.909C385.2 230.19 385.102 229.509 384.907 228.864C384.719 228.219 384.433 227.644 384.05 227.138C383.674 226.632 383.209 226.232 382.654 225.938C382.099 225.644 381.462 225.497 380.744 225.497C380.026 225.497 379.389 225.644 378.834 225.938C378.288 226.232 377.822 226.632 377.439 227.138C377.063 227.644 376.778 228.219 376.582 228.864C376.394 229.509 376.3 230.19 376.3 230.909ZM391.334 218.923V237.728H389.877V218.923H391.334ZM395.202 236.834C395.202 236.548 395.292 236.307 395.472 236.112C395.659 235.908 395.912 235.805 396.231 235.805C396.557 235.805 396.814 235.903 397.002 236.099C397.19 236.295 397.284 236.54 397.284 236.834C397.284 237.111 397.19 237.348 397.002 237.544C396.814 237.74 396.557 237.838 396.231 237.838C395.912 237.838 395.659 237.74 395.472 237.544C395.292 237.348 395.202 237.111 395.202 236.834Z" fill="#FDFBF9"/>
<path d="M64.9256 188.161V189.698H57.7957V188.161H64.9256ZM58.1679 175.438V189.698H56.2777V175.438H58.1679ZM68.7844 179.101V189.698H66.9628V179.101H68.7844ZM66.8256 176.29C66.8256 175.997 66.9138 175.749 67.0901 175.546C67.2729 175.344 67.5406 175.243 67.8932 175.243C68.2392 175.243 68.5037 175.344 68.6865 175.546C68.8758 175.749 68.9705 175.997 68.9705 176.29C68.9705 176.571 68.8758 176.813 68.6865 177.015C68.5037 177.211 68.2392 177.309 67.8932 177.309C67.5406 177.309 67.2729 177.211 67.0901 177.015C66.9138 176.813 66.8256 176.571 66.8256 176.29ZM77.8633 186.887C77.8633 186.626 77.8045 186.385 77.687 186.163C77.576 185.934 77.3442 185.728 76.9916 185.546C76.6456 185.356 76.1233 185.193 75.4246 185.056C74.837 184.932 74.3049 184.785 73.8282 184.615C73.3581 184.445 72.9566 184.24 72.6236 183.998C72.2971 183.757 72.0458 183.473 71.8695 183.146C71.6932 182.82 71.605 182.438 71.605 182C71.605 181.582 71.6964 181.187 71.8793 180.815C72.0686 180.443 72.333 180.113 72.6726 179.826C73.0186 179.539 73.4332 179.314 73.9164 179.15C74.3995 178.987 74.9382 178.905 75.5324 178.905C76.3812 178.905 77.1059 179.056 77.7066 179.356C78.3073 179.656 78.7676 180.058 79.0875 180.561C79.4075 181.057 79.5674 181.609 79.5674 182.216H77.7556C77.7556 181.922 77.6674 181.638 77.4911 181.364C77.3214 181.083 77.07 180.851 76.737 180.668C76.4105 180.486 76.009 180.394 75.5324 180.394C75.0296 180.394 74.6215 180.472 74.3081 180.629C74.0013 180.779 73.776 180.972 73.6324 181.207C73.4952 181.442 73.4267 181.69 73.4267 181.951C73.4267 182.147 73.4593 182.323 73.5246 182.48C73.5964 182.63 73.7205 182.771 73.8968 182.901C74.0731 183.025 74.3212 183.143 74.6411 183.254C74.9611 183.365 75.3691 183.476 75.8654 183.587C76.7337 183.783 77.4487 184.018 78.0102 184.292C78.5717 184.566 78.9896 184.903 79.2638 185.301C79.538 185.699 79.6752 186.182 79.6752 186.75C79.6752 187.214 79.5772 187.638 79.3813 188.023C79.192 188.409 78.9145 188.742 78.5489 189.022C78.1898 189.297 77.7588 189.512 77.2561 189.669C76.7599 189.819 76.2016 189.894 75.5813 189.894C74.6477 189.894 73.8576 189.728 73.2112 189.395C72.5648 189.062 72.0751 188.631 71.7421 188.102C71.4092 187.573 71.2427 187.015 71.2427 186.427H73.0643C73.0904 186.923 73.2341 187.318 73.4952 187.612C73.7564 187.899 74.0763 188.105 74.455 188.229C74.8337 188.347 75.2092 188.405 75.5813 188.405C76.0776 188.405 76.4922 188.34 76.8251 188.21C77.1647 188.079 77.4226 187.899 77.5989 187.671C77.7752 187.442 77.8633 187.181 77.8633 186.887ZM86.4917 179.101V180.492H80.7623V179.101H86.4917ZM82.7014 176.526H84.5133V187.073C84.5133 187.433 84.5688 187.704 84.6798 187.886C84.7908 188.069 84.9344 188.19 85.1107 188.249C85.287 188.308 85.4764 188.337 85.6788 188.337C85.8289 188.337 85.9856 188.324 86.1489 188.298C86.3186 188.265 86.446 188.239 86.5308 188.219L86.5406 189.698C86.397 189.744 86.2076 189.786 85.9726 189.826C85.7441 189.871 85.4666 189.894 85.1401 189.894C84.6961 189.894 84.2881 189.806 83.9159 189.63C83.5437 189.453 83.2466 189.16 83.0246 188.748C82.8092 188.33 82.7014 187.769 82.7014 187.064V176.526ZM94.8654 187.886V182.431C94.8654 182.013 94.7805 181.651 94.6108 181.344C94.4475 181.031 94.1994 180.789 93.8664 180.619C93.5334 180.45 93.1221 180.365 92.6324 180.365C92.1754 180.365 91.7738 180.443 91.4278 180.6C91.0882 180.756 90.8205 180.962 90.6247 181.217C90.4353 181.471 90.3406 181.746 90.3406 182.039H88.5288C88.5288 181.661 88.6267 181.285 88.8226 180.913C89.0185 180.541 89.2992 180.205 89.6649 179.904C90.037 179.598 90.481 179.356 90.9968 179.18C91.5192 178.997 92.1003 178.905 92.7401 178.905C93.5106 178.905 94.1896 179.036 94.7772 179.297C95.3714 179.558 95.835 179.953 96.168 180.482C96.5075 181.005 96.6773 181.661 96.6773 182.451V187.387C96.6773 187.739 96.7066 188.115 96.7654 188.513C96.8307 188.911 96.9254 189.254 97.0494 189.542V189.698H95.1592C95.0678 189.489 94.996 189.212 94.9437 188.866C94.8915 188.513 94.8654 188.187 94.8654 187.886ZM95.1788 183.273L95.1984 184.547H93.3669C92.8511 184.547 92.3908 184.589 91.986 184.674C91.5812 184.752 91.2417 184.873 90.9674 185.036C90.6932 185.2 90.4843 185.405 90.3406 185.653C90.197 185.895 90.1252 186.179 90.1252 186.505C90.1252 186.838 90.2003 187.142 90.3504 187.416C90.5006 187.691 90.7259 187.909 91.0262 188.072C91.3331 188.229 91.7085 188.308 92.1525 188.308C92.7075 188.308 93.1972 188.19 93.6216 187.955C94.046 187.72 94.3822 187.433 94.6303 187.093C94.885 186.754 95.0221 186.424 95.0417 186.104L95.8154 186.976C95.7697 187.25 95.6456 187.553 95.4432 187.886C95.2408 188.219 94.9699 188.539 94.6303 188.846C94.2973 189.147 93.8991 189.398 93.4355 189.6C92.9784 189.796 92.4626 189.894 91.8881 189.894C91.1698 189.894 90.5398 189.754 89.9979 189.473C89.4625 189.192 89.0446 188.817 88.7442 188.347C88.4504 187.87 88.3035 187.338 88.3035 186.75C88.3035 186.182 88.4145 185.683 88.6365 185.252C88.8585 184.814 89.1784 184.452 89.5963 184.165C90.0142 183.871 90.5169 183.649 91.1046 183.499C91.6922 183.349 92.3484 183.273 93.0731 183.273H95.1788ZM111.182 187.642V174.655H113.004V189.698H111.339L111.182 187.642ZM104.052 184.517V184.312C104.052 183.502 104.15 182.767 104.346 182.108C104.548 181.442 104.832 180.871 105.198 180.394C105.57 179.917 106.011 179.552 106.52 179.297C107.036 179.036 107.61 178.905 108.244 178.905C108.91 178.905 109.491 179.023 109.987 179.258C110.49 179.487 110.914 179.823 111.26 180.267C111.613 180.704 111.89 181.233 112.093 181.853C112.295 182.474 112.436 183.176 112.514 183.959V184.86C112.442 185.637 112.302 186.336 112.093 186.956C111.89 187.576 111.613 188.105 111.26 188.543C110.914 188.98 110.49 189.316 109.987 189.551C109.484 189.78 108.897 189.894 108.224 189.894C107.604 189.894 107.036 189.76 106.52 189.493C106.011 189.225 105.57 188.849 105.198 188.366C104.832 187.883 104.548 187.315 104.346 186.662C104.15 186.003 104.052 185.288 104.052 184.517ZM105.874 184.312V184.517C105.874 185.046 105.926 185.542 106.03 186.006C106.141 186.47 106.311 186.878 106.54 187.23C106.768 187.583 107.059 187.86 107.411 188.063C107.764 188.259 108.185 188.356 108.675 188.356C109.275 188.356 109.768 188.229 110.154 187.975C110.545 187.72 110.859 187.384 111.094 186.966C111.329 186.548 111.512 186.094 111.642 185.604V183.244C111.564 182.885 111.45 182.539 111.299 182.206C111.156 181.866 110.966 181.566 110.731 181.305C110.503 181.037 110.219 180.825 109.879 180.668C109.546 180.512 109.151 180.433 108.694 180.433C108.198 180.433 107.77 180.538 107.411 180.747C107.059 180.949 106.768 181.23 106.54 181.589C106.311 181.942 106.141 182.353 106.03 182.823C105.926 183.287 105.874 183.783 105.874 184.312ZM120.222 189.894C119.484 189.894 118.815 189.77 118.214 189.522C117.62 189.267 117.107 188.911 116.676 188.454C116.252 187.997 115.925 187.455 115.697 186.829C115.468 186.202 115.354 185.516 115.354 184.772V184.361C115.354 183.499 115.481 182.732 115.736 182.059C115.991 181.38 116.337 180.805 116.774 180.335C117.212 179.865 117.708 179.509 118.263 179.268C118.818 179.026 119.392 178.905 119.987 178.905C120.744 178.905 121.397 179.036 121.945 179.297C122.5 179.558 122.954 179.924 123.307 180.394C123.659 180.858 123.92 181.406 124.09 182.039C124.26 182.666 124.345 183.352 124.345 184.096V184.909H116.431V183.43H122.533V183.293C122.507 182.823 122.409 182.366 122.239 181.922C122.076 181.478 121.815 181.112 121.456 180.825C121.097 180.538 120.607 180.394 119.987 180.394C119.575 180.394 119.197 180.482 118.85 180.659C118.504 180.828 118.207 181.083 117.959 181.422C117.711 181.762 117.519 182.177 117.381 182.666C117.244 183.156 117.176 183.721 117.176 184.361V184.772C117.176 185.275 117.244 185.748 117.381 186.192C117.525 186.63 117.731 187.015 117.998 187.348C118.273 187.681 118.602 187.942 118.988 188.131C119.379 188.321 119.823 188.415 120.32 188.415C120.959 188.415 121.501 188.285 121.945 188.023C122.389 187.762 122.778 187.413 123.111 186.976L124.208 187.847C123.979 188.193 123.689 188.523 123.336 188.836C122.983 189.15 122.549 189.404 122.033 189.6C121.524 189.796 120.92 189.894 120.222 189.894ZM56.1406 212.405C56.5715 212.405 56.9698 212.317 57.3354 212.141C57.7011 211.965 58.0014 211.723 58.2364 211.416C58.4715 211.103 58.6053 210.747 58.638 210.349H60.3617C60.3291 210.976 60.1169 211.56 59.7251 212.102C59.3399 212.637 58.8339 213.071 58.2071 213.404C57.5803 213.731 56.8914 213.894 56.1406 213.894C55.344 213.894 54.6486 213.754 54.0545 213.473C53.4669 213.192 52.9772 212.807 52.5854 212.317C52.2002 211.828 51.9096 211.266 51.7138 210.633C51.5244 209.993 51.4297 209.317 51.4297 208.605V208.194C51.4297 207.482 51.5244 206.81 51.7138 206.177C51.9096 205.537 52.2002 204.972 52.5854 204.482C52.9772 203.993 53.4669 203.607 54.0545 203.327C54.6486 203.046 55.344 202.905 56.1406 202.905C56.9698 202.905 57.6945 203.075 58.3148 203.415C58.9351 203.748 59.4215 204.205 59.7741 204.786C60.1332 205.36 60.3291 206.013 60.3617 206.745H58.638C58.6053 206.307 58.4813 205.912 58.2658 205.56C58.0569 205.207 57.7696 204.926 57.404 204.717C57.0449 204.502 56.6237 204.394 56.1406 204.394C55.5856 204.394 55.1187 204.505 54.74 204.727C54.3679 204.943 54.0708 205.236 53.8488 205.609C53.6333 205.974 53.4766 206.382 53.3787 206.833C53.2873 207.277 53.2416 207.731 53.2416 208.194V208.605C53.2416 209.069 53.2873 209.526 53.3787 209.977C53.4701 210.427 53.6236 210.835 53.839 211.201C54.061 211.566 54.3581 211.86 54.7303 212.082C55.1089 212.298 55.5791 212.405 56.1406 212.405ZM61.9189 208.517V208.292C61.9189 207.528 62.0299 206.82 62.2519 206.167C62.4739 205.507 62.7938 204.936 63.2117 204.453C63.6296 203.963 64.1356 203.584 64.7298 203.317C65.3239 203.043 65.9899 202.905 66.7277 202.905C67.472 202.905 68.1413 203.043 68.7354 203.317C69.3361 203.584 69.8454 203.963 70.2633 204.453C70.6877 204.936 71.0109 205.507 71.2329 206.167C71.4549 206.82 71.5659 207.528 71.5659 208.292V208.517C71.5659 209.281 71.4549 209.99 71.2329 210.643C71.0109 211.295 70.6877 211.867 70.2633 212.356C69.8454 212.84 69.3394 213.218 68.7452 213.493C68.1576 213.76 67.4916 213.894 66.7473 213.894C66.003 213.894 65.3337 213.76 64.7396 213.493C64.1454 213.218 63.6361 212.84 63.2117 212.356C62.7938 211.867 62.4739 211.295 62.2519 210.643C62.0299 209.99 61.9189 209.281 61.9189 208.517ZM63.7308 208.292V208.517C63.7308 209.046 63.7928 209.546 63.9169 210.016C64.0409 210.479 64.227 210.891 64.4751 211.25C64.7298 211.609 65.0464 211.893 65.4251 212.102C65.8038 212.304 66.2445 212.405 66.7473 212.405C67.2435 212.405 67.6777 212.304 68.0499 212.102C68.4286 211.893 68.742 211.609 68.9901 211.25C69.2382 210.891 69.4243 210.479 69.5483 210.016C69.6789 209.546 69.7442 209.046 69.7442 208.517V208.292C69.7442 207.77 69.6789 207.277 69.5483 206.813C69.4243 206.343 69.2349 205.928 68.9803 205.569C68.7322 205.204 68.4188 204.916 68.0401 204.708C67.6679 204.499 67.2305 204.394 66.7277 204.394C66.2315 204.394 65.794 204.499 65.4153 204.708C65.0432 204.916 64.7298 205.204 64.4751 205.569C64.227 205.928 64.0409 206.343 63.9169 206.813C63.7928 207.277 63.7308 207.77 63.7308 208.292ZM75.6499 205.364V213.698H73.838V203.101H75.552L75.6499 205.364ZM75.219 207.998L74.4648 207.969C74.4714 207.244 74.5791 206.575 74.788 205.961C74.997 205.341 75.2908 204.802 75.6695 204.345C76.0482 203.888 76.4987 203.536 77.021 203.287C77.5499 203.033 78.1343 202.905 78.7741 202.905C79.2965 202.905 79.7666 202.977 80.1844 203.121C80.6023 203.258 80.9581 203.48 81.252 203.787C81.5523 204.094 81.7808 204.492 81.9375 204.982C82.0942 205.465 82.1726 206.056 82.1726 206.754V213.698H80.3509V206.735C80.3509 206.18 80.2693 205.736 80.1061 205.403C79.9429 205.063 79.7045 204.818 79.3911 204.668C79.0777 204.512 78.6925 204.433 78.2355 204.433C77.7849 204.433 77.3736 204.528 77.0014 204.717C76.6358 204.907 76.3191 205.168 76.0514 205.501C75.7903 205.834 75.5846 206.216 75.4344 206.647C75.2908 207.071 75.219 207.522 75.219 207.998ZM89.3613 203.101V204.492H83.6319V203.101H89.3613ZM85.571 200.526H87.3829V211.073C87.3829 211.433 87.4384 211.704 87.5494 211.886C87.6604 212.069 87.804 212.19 87.9803 212.249C88.1566 212.308 88.346 212.337 88.5484 212.337C88.6985 212.337 88.8552 212.324 89.0185 212.298C89.1882 212.265 89.3156 212.239 89.4004 212.219L89.4102 213.698C89.2666 213.744 89.0772 213.786 88.8422 213.826C88.6137 213.871 88.3362 213.894 88.0097 213.894C87.5657 213.894 87.1576 213.806 86.7855 213.63C86.4133 213.453 86.1162 213.16 85.8942 212.748C85.6788 212.33 85.571 211.769 85.571 211.064V200.526ZM97.735 211.886V206.431C97.735 206.013 97.6501 205.651 97.4803 205.344C97.3171 205.031 97.069 204.789 96.736 204.619C96.403 204.45 95.9917 204.365 95.502 204.365C95.0449 204.365 94.6434 204.443 94.2974 204.6C93.9578 204.756 93.6901 204.962 93.4943 205.217C93.3049 205.471 93.2102 205.746 93.2102 206.039H91.3984C91.3984 205.661 91.4963 205.285 91.6922 204.913C91.8881 204.541 92.1688 204.205 92.5345 203.904C92.9066 203.598 93.3506 203.356 93.8664 203.18C94.3888 202.997 94.9699 202.905 95.6097 202.905C96.3802 202.905 97.0592 203.036 97.6468 203.297C98.241 203.558 98.7046 203.953 99.0376 204.482C99.3771 205.005 99.5468 205.661 99.5468 206.451V211.387C99.5468 211.739 99.5762 212.115 99.635 212.513C99.7003 212.911 99.795 213.254 99.919 213.542V213.698H98.0288C97.9374 213.489 97.8656 213.212 97.8133 212.866C97.7611 212.513 97.735 212.187 97.735 211.886ZM98.0484 207.273L98.068 208.547H96.2365C95.7207 208.547 95.2604 208.589 94.8556 208.674C94.4508 208.752 94.1113 208.873 93.837 209.036C93.5628 209.2 93.3539 209.405 93.2102 209.653C93.0666 209.895 92.9948 210.179 92.9948 210.505C92.9948 210.838 93.0699 211.142 93.22 211.416C93.3702 211.691 93.5955 211.909 93.8958 212.072C94.2027 212.229 94.5781 212.308 95.0221 212.308C95.5771 212.308 96.0668 212.19 96.4912 211.955C96.9156 211.72 97.2518 211.433 97.4999 211.093C97.7546 210.754 97.8917 210.424 97.9113 210.104L98.685 210.976C98.6393 211.25 98.5152 211.553 98.3128 211.886C98.1104 212.219 97.8395 212.539 97.4999 212.846C97.1669 213.147 96.7687 213.398 96.3051 213.6C95.848 213.796 95.3322 213.894 94.7577 213.894C94.0394 213.894 93.4094 213.754 92.8675 213.473C92.3321 213.192 91.9142 212.817 91.6138 212.347C91.32 211.87 91.1731 211.338 91.1731 210.75C91.1731 210.182 91.2841 209.683 91.5061 209.252C91.7281 208.814 92.048 208.452 92.4659 208.165C92.8838 207.871 93.3865 207.649 93.9742 207.499C94.5618 207.349 95.218 207.273 95.9427 207.273H98.0484ZM106.833 203.101V204.492H101.104V203.101H106.833ZM103.043 200.526H104.855V211.073C104.855 211.433 104.911 211.704 105.022 211.886C105.133 212.069 105.276 212.19 105.453 212.249C105.629 212.308 105.818 212.337 106.021 212.337C106.171 212.337 106.327 212.324 106.491 212.298C106.66 212.265 106.788 212.239 106.873 212.219L106.882 213.698C106.739 213.744 106.549 213.786 106.314 213.826C106.086 213.871 105.808 213.894 105.482 213.894C105.038 213.894 104.63 213.806 104.258 213.63C103.886 213.453 103.588 213.16 103.366 212.748C103.151 212.33 103.043 211.769 103.043 211.064V200.526ZM108.283 208.517V208.292C108.283 207.528 108.394 206.82 108.616 206.167C108.838 205.507 109.158 204.936 109.576 204.453C109.994 203.963 110.5 203.584 111.094 203.317C111.688 203.043 112.354 202.905 113.092 202.905C113.836 202.905 114.505 203.043 115.099 203.317C115.7 203.584 116.209 203.963 116.627 204.453C117.052 204.936 117.375 205.507 117.597 206.167C117.819 206.82 117.93 207.528 117.93 208.292V208.517C117.93 209.281 117.819 209.99 117.597 210.643C117.375 211.295 117.052 211.867 116.627 212.356C116.209 212.84 115.703 213.218 115.109 213.493C114.522 213.76 113.856 213.894 113.111 213.894C112.367 213.894 111.698 213.76 111.104 213.493C110.509 213.218 110 212.84 109.576 212.356C109.158 211.867 108.838 211.295 108.616 210.643C108.394 209.99 108.283 209.281 108.283 208.517ZM110.095 208.292V208.517C110.095 209.046 110.157 209.546 110.281 210.016C110.405 210.479 110.591 210.891 110.839 211.25C111.094 211.609 111.41 211.893 111.789 212.102C112.168 212.304 112.609 212.405 113.111 212.405C113.608 212.405 114.042 212.304 114.414 212.102C114.793 211.893 115.106 211.609 115.354 211.25C115.602 210.891 115.788 210.479 115.912 210.016C116.043 209.546 116.108 209.046 116.108 208.517V208.292C116.108 207.77 116.043 207.277 115.912 206.813C115.788 206.343 115.599 205.928 115.344 205.569C115.096 205.204 114.783 204.916 114.404 204.708C114.032 204.499 113.594 204.394 113.092 204.394C112.595 204.394 112.158 204.499 111.779 204.708C111.407 204.916 111.094 205.204 110.839 205.569C110.591 205.928 110.405 206.343 110.281 206.813C110.157 207.277 110.095 207.77 110.095 208.292ZM126.372 210.887C126.372 210.626 126.313 210.385 126.196 210.163C126.085 209.934 125.853 209.728 125.501 209.546C125.154 209.356 124.632 209.193 123.933 209.056C123.346 208.932 122.814 208.785 122.337 208.615C121.867 208.445 121.465 208.24 121.132 207.998C120.806 207.757 120.555 207.473 120.378 207.146C120.202 206.82 120.114 206.438 120.114 206C120.114 205.582 120.205 205.187 120.388 204.815C120.577 204.443 120.842 204.113 121.181 203.826C121.527 203.539 121.942 203.314 122.425 203.15C122.908 202.987 123.447 202.905 124.041 202.905C124.89 202.905 125.615 203.056 126.215 203.356C126.816 203.656 127.276 204.058 127.596 204.561C127.916 205.057 128.076 205.609 128.076 206.216H126.264C126.264 205.922 126.176 205.638 126 205.364C125.83 205.083 125.579 204.851 125.246 204.668C124.919 204.486 124.518 204.394 124.041 204.394C123.538 204.394 123.13 204.472 122.817 204.629C122.51 204.779 122.285 204.972 122.141 205.207C122.004 205.442 121.936 205.69 121.936 205.951C121.936 206.147 121.968 206.323 122.033 206.48C122.105 206.63 122.229 206.771 122.406 206.901C122.582 207.025 122.83 207.143 123.15 207.254C123.47 207.365 123.878 207.476 124.374 207.587C125.243 207.783 125.958 208.018 126.519 208.292C127.081 208.566 127.498 208.903 127.773 209.301C128.047 209.699 128.184 210.182 128.184 210.75C128.184 211.214 128.086 211.638 127.89 212.023C127.701 212.409 127.423 212.742 127.058 213.022C126.699 213.297 126.268 213.512 125.765 213.669C125.269 213.819 124.71 213.894 124.09 213.894C123.157 213.894 122.366 213.728 121.72 213.395C121.074 213.062 120.584 212.631 120.251 212.102C119.918 211.573 119.752 211.015 119.752 210.427H121.573C121.599 210.923 121.743 211.318 122.004 211.612C122.265 211.899 122.585 212.105 122.964 212.229C123.343 212.347 123.718 212.405 124.09 212.405C124.586 212.405 125.001 212.34 125.334 212.21C125.674 212.079 125.931 211.899 126.108 211.671C126.284 211.442 126.372 211.181 126.372 210.887ZM78.3261 220.923H78.4509V221.694H78.3261C77.6503 221.694 77.048 221.804 76.5191 222.024C75.9951 222.245 75.552 222.563 75.1896 222.979C74.8321 223.391 74.5603 223.89 74.3742 224.478C74.1882 225.065 74.0951 225.724 74.0951 226.454V227.93C74.0951 228.425 74.1612 228.868 74.2934 229.26C74.4257 229.646 74.6093 229.977 74.8443 230.251C75.0794 230.525 75.3536 230.734 75.667 230.876C75.9804 231.018 76.3183 231.089 76.6807 231.089C77.0382 231.089 77.3589 231.015 77.6429 230.868C77.927 230.721 78.1669 230.516 78.3628 230.251C78.5636 229.987 78.7154 229.683 78.8182 229.34C78.9259 228.993 78.9798 228.621 78.9798 228.224C78.9798 227.847 78.9308 227.492 78.8329 227.159C78.7398 226.821 78.5954 226.522 78.3995 226.263C78.2036 226.003 77.9588 225.8 77.665 225.653C77.3712 225.506 77.0259 225.433 76.6293 225.433C76.1788 225.433 75.7576 225.535 75.3659 225.741C74.9741 225.947 74.6534 226.221 74.4036 226.564C74.1588 226.907 74.029 227.281 74.0143 227.688L73.5075 227.68C73.5418 227.22 73.647 226.806 73.8233 226.439C73.9996 226.067 74.2322 225.751 74.5211 225.491C74.815 225.227 75.1504 225.026 75.5275 224.889C75.9094 224.747 76.3208 224.676 76.7615 224.676C77.2757 224.676 77.7237 224.769 78.1057 224.955C78.4926 225.141 78.8133 225.398 79.0679 225.726C79.3275 226.05 79.5209 226.424 79.6482 226.85C79.7804 227.271 79.8465 227.717 79.8465 228.187C79.8465 228.701 79.7731 229.181 79.6262 229.627C79.4842 230.068 79.2736 230.454 78.9945 230.787C78.7203 231.12 78.3873 231.38 77.9955 231.566C77.6087 231.752 77.1704 231.845 76.6807 231.845C76.142 231.845 75.6597 231.742 75.2337 231.537C74.8076 231.331 74.4428 231.047 74.1392 230.685C73.8405 230.322 73.6103 229.906 73.4487 229.436C73.292 228.961 73.2137 228.454 73.2137 227.915V226.975C73.2137 226.064 73.319 225.239 73.5295 224.5C73.7401 223.755 74.0559 223.116 74.4771 222.583C74.9031 222.049 75.4344 221.64 76.071 221.356C76.7125 221.067 77.4642 220.923 78.3261 220.923ZM88.3598 231.089C88.732 231.089 89.0797 231.02 89.4029 230.883C89.731 230.741 90.0003 230.533 90.2109 230.259C90.4263 229.979 90.5488 229.639 90.5781 229.238H91.4155C91.391 229.742 91.2368 230.192 90.9528 230.589C90.6736 230.981 90.3064 231.289 89.851 231.515C89.4004 231.735 88.9034 231.845 88.3598 231.845C87.8065 231.845 87.3168 231.745 86.8908 231.544C86.4696 231.343 86.1171 231.064 85.833 230.707C85.549 230.344 85.3335 229.923 85.1866 229.443C85.0446 228.958 84.9736 228.437 84.9736 227.879V227.57C84.9736 227.012 85.0446 226.493 85.1866 226.013C85.3335 225.528 85.549 225.107 85.833 224.75C86.1171 224.387 86.4696 224.106 86.8908 223.905C87.3119 223.704 87.7991 223.604 88.3525 223.604C88.9205 223.604 89.4298 223.719 89.8803 223.949C90.3357 224.179 90.6981 224.505 90.9674 224.926C91.2417 225.347 91.391 225.846 91.4155 226.424H90.5781C90.5537 225.998 90.441 225.631 90.2403 225.322C90.0395 225.014 89.775 224.776 89.447 224.61C89.1189 224.443 88.754 224.36 88.3525 224.36C87.902 224.36 87.5176 224.448 87.1993 224.625C86.881 224.796 86.6214 225.034 86.4207 225.337C86.2248 225.636 86.0803 225.979 85.9873 226.365C85.8942 226.747 85.8477 227.149 85.8477 227.57V227.879C85.8477 228.305 85.8918 228.711 85.9799 229.098C86.073 229.48 86.2174 229.82 86.4133 230.119C86.6141 230.418 86.8736 230.655 87.1919 230.831C87.5151 231.003 87.9044 231.089 88.3598 231.089ZM92.701 227.849V227.607C92.701 227.029 92.7842 226.495 92.9507 226.006C93.1172 225.516 93.3547 225.092 93.6632 224.735C93.9766 224.377 94.3512 224.101 94.787 223.905C95.2229 223.704 95.7077 223.604 96.2414 223.604C96.7801 223.604 97.2673 223.704 97.7032 223.905C98.139 224.101 98.5136 224.377 98.827 224.735C99.1404 225.092 99.3804 225.516 99.5469 226.006C99.7133 226.495 99.7966 227.029 99.7966 227.607V227.849C99.7966 228.427 99.7133 228.961 99.5469 229.451C99.3804 229.935 99.1404 230.356 98.827 230.714C98.5185 231.071 98.1463 231.351 97.7105 231.551C97.2747 231.747 96.7899 231.845 96.2561 231.845C95.7175 231.845 95.2302 231.747 94.7944 231.551C94.3586 231.351 93.984 231.071 93.6706 230.714C93.3571 230.356 93.1172 229.935 92.9507 229.451C92.7842 228.961 92.701 228.427 92.701 227.849ZM93.5751 227.607V227.849C93.5751 228.285 93.6338 228.699 93.7513 229.091C93.8689 229.477 94.0403 229.823 94.2655 230.126C94.4908 230.425 94.7699 230.66 95.1029 230.831C95.4359 231.003 95.8203 231.089 96.2561 231.089C96.6871 231.089 97.0666 231.003 97.3947 230.831C97.7276 230.66 98.0068 230.425 98.232 230.126C98.4573 229.823 98.6262 229.477 98.7389 229.091C98.8564 228.699 98.9151 228.285 98.9151 227.849V227.607C98.9151 227.176 98.8564 226.767 98.7389 226.38C98.6262 225.993 98.4548 225.648 98.2247 225.344C97.9994 225.041 97.7203 224.801 97.3873 224.625C97.0543 224.448 96.6724 224.36 96.2414 224.36C95.8105 224.36 95.4285 224.448 95.0956 224.625C94.7675 224.801 94.4883 225.041 94.2582 225.344C94.0329 225.648 93.8615 225.993 93.744 226.38C93.6314 226.767 93.5751 227.176 93.5751 227.607ZM102.595 220.416V231.698H101.721V220.416H102.595ZM104.916 231.162C104.916 230.991 104.97 230.846 105.078 230.729C105.191 230.606 105.342 230.545 105.533 230.545C105.729 230.545 105.883 230.604 105.996 230.721C106.109 230.839 106.165 230.986 106.165 231.162C106.165 231.329 106.109 231.471 105.996 231.588C105.883 231.706 105.729 231.764 105.533 231.764C105.342 231.764 105.191 231.706 105.078 231.588C104.97 231.471 104.916 231.329 104.916 231.162Z" fill="#FDFBF9"/>
<path d="M581.835 189.698H578.858L578.877 188.161H581.835C582.853 188.161 583.702 187.948 584.381 187.524C585.06 187.093 585.57 186.492 585.909 185.722C586.255 184.945 586.428 184.037 586.428 182.999V182.128C586.428 181.311 586.33 180.587 586.134 179.953C585.939 179.314 585.651 178.775 585.273 178.337C584.894 177.893 584.43 177.557 583.882 177.329C583.34 177.1 582.716 176.986 582.011 176.986H578.799V175.438H582.011C582.945 175.438 583.797 175.595 584.567 175.909C585.338 176.215 586.001 176.663 586.556 177.25C587.117 177.831 587.548 178.537 587.848 179.366C588.149 180.188 588.299 181.116 588.299 182.147V182.999C588.299 184.031 588.149 184.961 587.848 185.791C587.548 186.613 587.114 187.315 586.546 187.896C585.984 188.477 585.305 188.925 584.509 189.238C583.719 189.545 582.827 189.698 581.835 189.698ZM579.866 175.438V189.698H577.976V175.438H579.866ZM595.262 189.894C594.524 189.894 593.855 189.77 593.255 189.522C592.66 189.267 592.148 188.911 591.717 188.454C591.293 187.997 590.966 187.455 590.738 186.829C590.509 186.202 590.395 185.516 590.395 184.772V184.361C590.395 183.499 590.522 182.732 590.777 182.059C591.031 181.38 591.377 180.805 591.815 180.335C592.252 179.865 592.749 179.509 593.304 179.268C593.858 179.026 594.433 178.905 595.027 178.905C595.785 178.905 596.438 179.036 596.986 179.297C597.541 179.558 597.995 179.924 598.347 180.394C598.7 180.858 598.961 181.406 599.131 182.039C599.301 182.666 599.385 183.352 599.385 184.096V184.909H591.472V183.43H597.574V183.293C597.547 182.823 597.45 182.366 597.28 181.922C597.117 181.478 596.855 181.112 596.496 180.825C596.137 180.538 595.647 180.394 595.027 180.394C594.616 180.394 594.237 180.482 593.891 180.659C593.545 180.828 593.248 181.083 593 181.422C592.752 181.762 592.559 182.177 592.422 182.666C592.285 183.156 592.216 183.721 592.216 184.361V184.772C592.216 185.275 592.285 185.748 592.422 186.192C592.566 186.63 592.771 187.015 593.039 187.348C593.313 187.681 593.643 187.942 594.028 188.131C594.42 188.321 594.864 188.415 595.36 188.415C596 188.415 596.542 188.285 596.986 188.023C597.43 187.762 597.818 187.413 598.151 186.976L599.248 187.847C599.02 188.193 598.729 188.523 598.377 188.836C598.024 189.15 597.59 189.404 597.074 189.6C596.565 189.796 595.961 189.894 595.262 189.894ZM605.938 179.101V180.492H600.208V179.101H605.938ZM602.147 176.526H603.959V187.073C603.959 187.433 604.015 187.704 604.126 187.886C604.237 188.069 604.38 188.19 604.557 188.249C604.733 188.308 604.922 188.337 605.125 188.337C605.275 188.337 605.432 188.324 605.595 188.298C605.765 188.265 605.892 188.239 605.977 188.219L605.987 189.698C605.843 189.744 605.654 189.786 605.418 189.826C605.19 189.871 604.912 189.894 604.586 189.894C604.142 189.894 603.734 189.806 603.362 189.63C602.99 189.453 602.693 189.16 602.471 188.748C602.255 188.33 602.147 187.769 602.147 187.064V176.526ZM614.311 187.886V182.431C614.311 182.013 614.226 181.651 614.057 181.344C613.893 181.031 613.645 180.789 613.312 180.619C612.979 180.45 612.568 180.365 612.078 180.365C611.621 180.365 611.22 180.443 610.874 180.6C610.534 180.756 610.266 180.962 610.071 181.217C609.881 181.471 609.787 181.746 609.787 182.039H607.975C607.975 181.661 608.073 181.285 608.268 180.913C608.464 180.541 608.745 180.205 609.111 179.904C609.483 179.598 609.927 179.356 610.443 179.18C610.965 178.997 611.546 178.905 612.186 178.905C612.956 178.905 613.636 179.036 614.223 179.297C614.817 179.558 615.281 179.953 615.614 180.482C615.953 181.005 616.123 181.661 616.123 182.451V187.387C616.123 187.739 616.153 188.115 616.211 188.513C616.277 188.911 616.371 189.254 616.495 189.542V189.698H614.605C614.514 189.489 614.442 189.212 614.39 188.866C614.337 188.513 614.311 188.187 614.311 187.886ZM614.625 183.273L614.644 184.547H612.813C612.297 184.547 611.837 184.589 611.432 184.674C611.027 184.752 610.688 184.873 610.413 185.036C610.139 185.2 609.93 185.405 609.787 185.653C609.643 185.895 609.571 186.179 609.571 186.505C609.571 186.838 609.646 187.142 609.796 187.416C609.946 187.691 610.172 187.909 610.472 188.072C610.779 188.229 611.154 188.308 611.598 188.308C612.153 188.308 612.643 188.19 613.067 187.955C613.492 187.72 613.828 187.433 614.076 187.093C614.331 186.754 614.468 186.424 614.488 186.104L615.261 186.976C615.216 187.25 615.092 187.553 614.889 187.886C614.687 188.219 614.416 188.539 614.076 188.846C613.743 189.147 613.345 189.398 612.881 189.6C612.424 189.796 611.909 189.894 611.334 189.894C610.616 189.894 609.986 189.754 609.444 189.473C608.908 189.192 608.49 188.817 608.19 188.347C607.896 187.87 607.749 187.338 607.749 186.75C607.749 186.182 607.86 185.683 608.082 185.252C608.304 184.814 608.624 184.452 609.042 184.165C609.46 183.871 609.963 183.649 610.55 183.499C611.138 183.349 611.794 183.273 612.519 183.273H614.625ZM620.942 174.655V189.698H619.12V174.655H620.942ZM625.662 174.655V189.698H623.85V174.655H625.662ZM625.231 183.998L624.477 183.969C624.484 183.244 624.592 182.575 624.8 181.961C625.009 181.341 625.303 180.802 625.682 180.345C626.061 179.888 626.511 179.536 627.033 179.287C627.562 179.033 628.147 178.905 628.787 178.905C629.309 178.905 629.779 178.977 630.197 179.121C630.615 179.258 630.971 179.48 631.264 179.787C631.565 180.094 631.793 180.492 631.95 180.982C632.107 181.465 632.185 182.056 632.185 182.754V189.698H630.363V182.735C630.363 182.18 630.282 181.736 630.119 181.403C629.955 181.063 629.717 180.818 629.404 180.668C629.09 180.512 628.705 180.433 628.248 180.433C627.797 180.433 627.386 180.528 627.014 180.717C626.648 180.907 626.332 181.168 626.064 181.501C625.803 181.834 625.597 182.216 625.447 182.647C625.303 183.071 625.231 183.522 625.231 183.998ZM641.146 187.886V182.431C641.146 182.013 641.062 181.651 640.892 181.344C640.729 181.031 640.48 180.789 640.147 180.619C639.814 180.45 639.403 180.365 638.913 180.365C638.456 180.365 638.055 180.443 637.709 180.6C637.369 180.756 637.102 180.962 636.906 181.217C636.716 181.471 636.622 181.746 636.622 182.039H634.81C634.81 181.661 634.908 181.285 635.104 180.913C635.299 180.541 635.58 180.205 635.946 179.904C636.318 179.598 636.762 179.356 637.278 179.18C637.8 178.997 638.381 178.905 639.021 178.905C639.792 178.905 640.471 179.036 641.058 179.297C641.652 179.558 642.116 179.953 642.449 180.482C642.788 181.005 642.958 181.661 642.958 182.451V187.387C642.958 187.739 642.988 188.115 643.046 188.513C643.112 188.911 643.206 189.254 643.33 189.542V189.698H641.44C641.349 189.489 641.277 189.212 641.225 188.866C641.173 188.513 641.146 188.187 641.146 187.886ZM641.46 183.273L641.479 184.547H639.648C639.132 184.547 638.672 184.589 638.267 184.674C637.862 184.752 637.523 184.873 637.248 185.036C636.974 185.2 636.765 185.405 636.622 185.653C636.478 185.895 636.406 186.179 636.406 186.505C636.406 186.838 636.481 187.142 636.631 187.416C636.782 187.691 637.007 187.909 637.307 188.072C637.614 188.229 637.99 188.308 638.433 188.308C638.988 188.308 639.478 188.19 639.903 187.955C640.327 187.72 640.663 187.433 640.911 187.093C641.166 186.754 641.303 186.424 641.323 186.104L642.096 186.976C642.051 187.25 641.927 187.553 641.724 187.886C641.522 188.219 641.251 188.539 640.911 188.846C640.578 189.147 640.18 189.398 639.716 189.6C639.259 189.796 638.744 189.894 638.169 189.894C637.451 189.894 636.821 189.754 636.279 189.473C635.743 189.192 635.326 188.817 635.025 188.347C634.731 187.87 634.585 187.338 634.585 186.75C634.585 186.182 634.696 185.683 634.918 185.252C635.14 184.814 635.459 184.452 635.877 184.165C636.295 183.871 636.798 183.649 637.386 183.499C637.973 183.349 638.629 183.273 639.354 183.273H641.46ZM647.61 181.207V189.698H645.789V179.101H647.512L647.61 181.207ZM647.238 183.998L646.396 183.969C646.402 183.244 646.497 182.575 646.68 181.961C646.863 181.341 647.134 180.802 647.493 180.345C647.852 179.888 648.299 179.536 648.835 179.287C649.37 179.033 649.99 178.905 650.695 178.905C651.192 178.905 651.649 178.977 652.067 179.121C652.484 179.258 652.847 179.477 653.154 179.777C653.461 180.077 653.699 180.463 653.869 180.933C654.038 181.403 654.123 181.971 654.123 182.637V189.698H652.311V182.725C652.311 182.17 652.217 181.726 652.027 181.393C651.845 181.06 651.583 180.818 651.244 180.668C650.904 180.512 650.506 180.433 650.049 180.433C649.514 180.433 649.066 180.528 648.707 180.717C648.348 180.907 648.061 181.168 647.845 181.501C647.63 181.834 647.473 182.216 647.375 182.647C647.284 183.071 647.238 183.522 647.238 183.998ZM654.104 182.999L652.889 183.371C652.896 182.79 652.99 182.232 653.173 181.697C653.363 181.161 653.634 180.685 653.986 180.267C654.345 179.849 654.786 179.519 655.308 179.278C655.831 179.029 656.428 178.905 657.101 178.905C657.669 178.905 658.171 178.981 658.609 179.131C659.053 179.281 659.425 179.513 659.725 179.826C660.032 180.133 660.264 180.528 660.421 181.011C660.577 181.494 660.656 182.069 660.656 182.735V189.698H658.834V182.715C658.834 182.121 658.739 181.661 658.55 181.334C658.367 181.001 658.106 180.77 657.767 180.639C657.434 180.502 657.035 180.433 656.572 180.433C656.173 180.433 655.821 180.502 655.514 180.639C655.207 180.776 654.949 180.965 654.74 181.207C654.531 181.442 654.371 181.713 654.26 182.02C654.156 182.327 654.104 182.653 654.104 182.999ZM667.795 189.894C667.058 189.894 666.388 189.77 665.788 189.522C665.194 189.267 664.681 188.911 664.25 188.454C663.826 187.997 663.499 187.455 663.271 186.829C663.042 186.202 662.928 185.516 662.928 184.772V184.361C662.928 183.499 663.055 182.732 663.31 182.059C663.564 181.38 663.911 180.805 664.348 180.335C664.785 179.865 665.282 179.509 665.837 179.268C666.392 179.026 666.966 178.905 667.56 178.905C668.318 178.905 668.971 179.036 669.519 179.297C670.074 179.558 670.528 179.924 670.88 180.394C671.233 180.858 671.494 181.406 671.664 182.039C671.834 182.666 671.919 183.352 671.919 184.096V184.909H664.005V183.43H670.107V183.293C670.081 182.823 669.983 182.366 669.813 181.922C669.65 181.478 669.389 181.112 669.029 180.825C668.67 180.538 668.181 180.394 667.56 180.394C667.149 180.394 666.77 180.482 666.424 180.659C666.078 180.828 665.781 181.083 665.533 181.422C665.285 181.762 665.092 182.177 664.955 182.666C664.818 183.156 664.75 183.721 664.75 184.361V184.772C664.75 185.275 664.818 185.748 664.955 186.192C665.099 186.63 665.305 187.015 665.572 187.348C665.846 187.681 666.176 187.942 666.561 188.131C666.953 188.321 667.397 188.415 667.893 188.415C668.533 188.415 669.075 188.285 669.519 188.023C669.963 187.762 670.352 187.413 670.685 186.976L671.782 187.847C671.553 188.193 671.262 188.523 670.91 188.836C670.557 189.15 670.123 189.404 669.607 189.6C669.098 189.796 668.494 189.894 667.795 189.894ZM675.846 181.364V189.698H674.034V179.101H675.748L675.846 181.364ZM675.415 183.998L674.661 183.969C674.667 183.244 674.775 182.575 674.984 181.961C675.193 181.341 675.487 180.802 675.866 180.345C676.244 179.888 676.695 179.536 677.217 179.287C677.746 179.033 678.33 178.905 678.97 178.905C679.493 178.905 679.963 178.977 680.38 179.121C680.798 179.258 681.154 179.48 681.448 179.787C681.748 180.094 681.977 180.492 682.134 180.982C682.29 181.465 682.369 182.056 682.369 182.754V189.698H680.547V182.735C680.547 182.18 680.465 181.736 680.302 181.403C680.139 181.063 679.901 180.818 679.587 180.668C679.274 180.512 678.889 180.433 678.432 180.433C677.981 180.433 677.57 180.528 677.197 180.717C676.832 180.907 676.515 181.168 676.247 181.501C675.986 181.834 675.781 182.216 675.63 182.647C675.487 183.071 675.415 183.522 675.415 183.998ZM689.557 179.101V180.492H683.828V179.101H689.557ZM685.767 176.526H687.579V187.073C687.579 187.433 687.634 187.704 687.745 187.886C687.856 188.069 688 188.19 688.176 188.249C688.353 188.308 688.542 188.337 688.744 188.337C688.895 188.337 689.051 188.324 689.215 188.298C689.384 188.265 689.512 188.239 689.596 188.219L689.606 189.698C689.463 189.744 689.273 189.786 689.038 189.826C688.81 189.871 688.532 189.894 688.206 189.894C687.762 189.894 687.354 189.806 686.982 189.63C686.609 189.453 686.312 189.16 686.09 188.748C685.875 188.33 685.767 187.769 685.767 187.064V176.526ZM691.007 184.517V184.292C691.007 183.528 691.118 182.82 691.34 182.167C691.562 181.507 691.882 180.936 692.3 180.453C692.717 179.963 693.223 179.584 693.818 179.317C694.412 179.043 695.078 178.905 695.816 178.905C696.56 178.905 697.229 179.043 697.823 179.317C698.424 179.584 698.933 179.963 699.351 180.453C699.776 180.936 700.099 181.507 700.321 182.167C700.543 182.82 700.654 183.528 700.654 184.292V184.517C700.654 185.281 700.543 185.99 700.321 186.643C700.099 187.295 699.776 187.867 699.351 188.356C698.933 188.84 698.427 189.218 697.833 189.493C697.245 189.76 696.579 189.894 695.835 189.894C695.091 189.894 694.422 189.76 693.827 189.493C693.233 189.218 692.724 188.84 692.3 188.356C691.882 187.867 691.562 187.295 691.34 186.643C691.118 185.99 691.007 185.281 691.007 184.517ZM692.819 184.292V184.517C692.819 185.046 692.881 185.546 693.005 186.016C693.129 186.479 693.315 186.891 693.563 187.25C693.818 187.609 694.134 187.893 694.513 188.102C694.892 188.304 695.332 188.405 695.835 188.405C696.331 188.405 696.766 188.304 697.138 188.102C697.516 187.893 697.83 187.609 698.078 187.25C698.326 186.891 698.512 186.479 698.636 186.016C698.767 185.546 698.832 185.046 698.832 184.517V184.292C698.832 183.77 698.767 183.277 698.636 182.813C698.512 182.343 698.323 181.928 698.068 181.569C697.82 181.204 697.507 180.916 697.128 180.708C696.756 180.499 696.318 180.394 695.816 180.394C695.319 180.394 694.882 180.499 694.503 180.708C694.131 180.916 693.818 181.204 693.563 181.569C693.315 181.928 693.129 182.343 693.005 182.813C692.881 183.277 692.819 183.77 692.819 184.292ZM615.134 205.207V213.698H613.312V203.101H615.036L615.134 205.207ZM614.762 207.998L613.92 207.969C613.926 207.244 614.021 206.575 614.204 205.961C614.386 205.341 614.657 204.802 615.016 204.345C615.376 203.888 615.823 203.536 616.358 203.287C616.894 203.033 617.514 202.905 618.219 202.905C618.715 202.905 619.172 202.977 619.59 203.121C620.008 203.258 620.37 203.477 620.677 203.777C620.984 204.077 621.222 204.463 621.392 204.933C621.562 205.403 621.647 205.971 621.647 206.637V213.698H619.835V206.725C619.835 206.17 619.74 205.726 619.551 205.393C619.368 205.06 619.107 204.818 618.767 204.668C618.428 204.512 618.03 204.433 617.573 204.433C617.037 204.433 616.59 204.528 616.231 204.717C615.872 204.907 615.584 205.168 615.369 205.501C615.154 205.834 614.997 206.216 614.899 206.647C614.808 207.071 614.762 207.522 614.762 207.998ZM621.627 206.999L620.413 207.371C620.419 206.79 620.514 206.232 620.697 205.697C620.886 205.161 621.157 204.685 621.51 204.267C621.869 203.849 622.31 203.519 622.832 203.278C623.354 203.029 623.952 202.905 624.624 202.905C625.192 202.905 625.695 202.981 626.132 203.131C626.576 203.281 626.949 203.513 627.249 203.826C627.556 204.133 627.788 204.528 627.944 205.011C628.101 205.494 628.179 206.069 628.179 206.735V213.698H626.358V206.715C626.358 206.121 626.263 205.661 626.074 205.334C625.891 205.001 625.63 204.77 625.29 204.639C624.957 204.502 624.559 204.433 624.095 204.433C623.697 204.433 623.344 204.502 623.038 204.639C622.731 204.776 622.473 204.965 622.264 205.207C622.055 205.442 621.895 205.713 621.784 206.02C621.68 206.327 621.627 206.653 621.627 206.999ZM630.442 208.517V208.292C630.442 207.528 630.553 206.82 630.775 206.167C630.997 205.507 631.317 204.936 631.735 204.453C632.152 203.963 632.658 203.584 633.253 203.317C633.847 203.043 634.513 202.905 635.251 202.905C635.995 202.905 636.664 203.043 637.258 203.317C637.859 203.584 638.368 203.963 638.786 204.453C639.21 204.936 639.534 205.507 639.756 206.167C639.978 206.82 640.089 207.528 640.089 208.292V208.517C640.089 209.281 639.978 209.99 639.756 210.643C639.534 211.295 639.21 211.867 638.786 212.356C638.368 212.84 637.862 213.218 637.268 213.493C636.68 213.76 636.014 213.894 635.27 213.894C634.526 213.894 633.857 213.76 633.262 213.493C632.668 213.218 632.159 212.84 631.735 212.356C631.317 211.867 630.997 211.295 630.775 210.643C630.553 209.99 630.442 209.281 630.442 208.517ZM632.254 208.292V208.517C632.254 209.046 632.316 209.546 632.44 210.016C632.564 210.479 632.75 210.891 632.998 211.25C633.253 211.609 633.569 211.893 633.948 212.102C634.327 212.304 634.767 212.405 635.27 212.405C635.766 212.405 636.201 212.304 636.573 212.102C636.951 211.893 637.265 211.609 637.513 211.25C637.761 210.891 637.947 210.479 638.071 210.016C638.202 209.546 638.267 209.046 638.267 208.517V208.292C638.267 207.77 638.202 207.277 638.071 206.813C637.947 206.343 637.758 205.928 637.503 205.569C637.255 205.204 636.942 204.916 636.563 204.708C636.191 204.499 635.753 204.394 635.251 204.394C634.754 204.394 634.317 204.499 633.938 204.708C633.566 204.916 633.253 205.204 632.998 205.569C632.75 205.928 632.564 206.343 632.44 206.813C632.316 207.277 632.254 207.77 632.254 208.292ZM634.173 201.534L636.073 198.655H638.257L635.632 201.534H634.173ZM645.426 212.063L648.325 203.101H650.176L646.367 213.698H645.152L645.426 212.063ZM643.007 203.101L645.994 212.112L646.2 213.698H644.986L641.146 203.101H643.007ZM656.18 213.894C655.442 213.894 654.773 213.77 654.172 213.522C653.578 213.267 653.065 212.911 652.635 212.454C652.21 211.997 651.884 211.455 651.655 210.829C651.427 210.202 651.312 209.516 651.312 208.772V208.361C651.312 207.499 651.44 206.732 651.694 206.059C651.949 205.38 652.295 204.805 652.732 204.335C653.17 203.865 653.666 203.509 654.221 203.268C654.776 203.026 655.351 202.905 655.945 202.905C656.702 202.905 657.355 203.036 657.904 203.297C658.459 203.558 658.912 203.924 659.265 204.394C659.618 204.858 659.879 205.406 660.048 206.039C660.218 206.666 660.303 207.352 660.303 208.096V208.909H652.39V207.43H658.491V207.293C658.465 206.823 658.367 206.366 658.197 205.922C658.034 205.478 657.773 205.112 657.414 204.825C657.055 204.538 656.565 204.394 655.945 204.394C655.534 204.394 655.155 204.482 654.809 204.659C654.463 204.828 654.166 205.083 653.918 205.422C653.669 205.762 653.477 206.177 653.34 206.666C653.203 207.156 653.134 207.721 653.134 208.361V208.772C653.134 209.275 653.203 209.748 653.34 210.192C653.483 210.63 653.689 211.015 653.957 211.348C654.231 211.681 654.561 211.942 654.946 212.131C655.338 212.321 655.782 212.415 656.278 212.415C656.918 212.415 657.46 212.285 657.904 212.023C658.348 211.762 658.736 211.413 659.069 210.976L660.166 211.847C659.937 212.193 659.647 212.523 659.294 212.836C658.942 213.15 658.508 213.404 657.992 213.6C657.483 213.796 656.879 213.894 656.18 213.894ZM664.387 198.655V213.698H662.566V198.655H664.387ZM627.408 220.923H627.533V221.694H627.408C626.732 221.694 626.13 221.804 625.601 222.024C625.077 222.245 624.634 222.563 624.272 222.979C623.914 223.391 623.642 223.89 623.456 224.478C623.27 225.065 623.177 225.724 623.177 226.454V227.93C623.177 228.425 623.243 228.868 623.375 229.26C623.508 229.646 623.691 229.977 623.926 230.251C624.161 230.525 624.436 230.734 624.749 230.876C625.062 231.018 625.4 231.089 625.763 231.089C626.12 231.089 626.441 231.015 626.725 230.868C627.009 230.721 627.249 230.516 627.445 230.251C627.646 229.987 627.797 229.683 627.9 229.34C628.008 228.993 628.062 228.621 628.062 228.224C628.062 227.847 628.013 227.492 627.915 227.159C627.822 226.821 627.677 226.522 627.482 226.263C627.286 226.003 627.041 225.8 626.747 225.653C626.453 225.506 626.108 225.433 625.711 225.433C625.261 225.433 624.84 225.535 624.448 225.741C624.056 225.947 623.735 226.221 623.486 226.564C623.241 226.907 623.111 227.281 623.096 227.688L622.59 227.68C622.624 227.22 622.729 226.806 622.905 226.439C623.082 226.067 623.314 225.751 623.603 225.491C623.897 225.227 624.232 225.026 624.609 224.889C624.991 224.747 625.403 224.676 625.844 224.676C626.358 224.676 626.806 224.769 627.188 224.955C627.575 225.141 627.895 225.398 628.15 225.726C628.41 226.05 628.603 226.424 628.73 226.85C628.862 227.271 628.929 227.717 628.929 228.187C628.929 228.701 628.855 229.181 628.708 229.627C628.566 230.068 628.356 230.454 628.077 230.787C627.802 231.12 627.469 231.38 627.078 231.566C626.691 231.752 626.252 231.845 625.763 231.845C625.224 231.845 624.742 231.742 624.316 231.537C623.89 231.331 623.525 231.047 623.221 230.685C622.923 230.322 622.692 229.906 622.531 229.436C622.374 228.961 622.296 228.454 622.296 227.915V226.975C622.296 226.064 622.401 225.239 622.612 224.5C622.822 223.755 623.138 223.116 623.559 222.583C623.985 222.049 624.516 221.64 625.153 221.356C625.795 221.067 626.546 220.923 627.408 220.923ZM637.442 231.089C637.814 231.089 638.162 231.02 638.485 230.883C638.813 230.741 639.082 230.533 639.293 230.259C639.508 229.979 639.631 229.639 639.66 229.238H640.498C640.473 229.742 640.319 230.192 640.035 230.589C639.756 230.981 639.388 231.289 638.933 231.515C638.482 231.735 637.985 231.845 637.442 231.845C636.889 231.845 636.399 231.745 635.973 231.544C635.552 231.343 635.199 231.064 634.915 230.707C634.631 230.344 634.416 229.923 634.269 229.443C634.127 228.958 634.056 228.437 634.056 227.879V227.57C634.056 227.012 634.127 226.493 634.269 226.013C634.416 225.528 634.631 225.107 634.915 224.75C635.199 224.387 635.552 224.106 635.973 223.905C636.394 223.704 636.881 223.604 637.435 223.604C638.003 223.604 638.512 223.719 638.962 223.949C639.418 224.179 639.78 224.505 640.049 224.926C640.324 225.347 640.473 225.846 640.498 226.424H639.66C639.636 225.998 639.523 225.631 639.322 225.322C639.122 225.014 638.857 224.776 638.529 224.61C638.201 224.443 637.836 224.36 637.435 224.36C636.984 224.36 636.6 224.448 636.281 224.625C635.963 224.796 635.703 225.034 635.503 225.337C635.307 225.636 635.162 225.979 635.069 226.365C634.976 226.747 634.93 227.149 634.93 227.57V227.879C634.93 228.305 634.974 228.711 635.062 229.098C635.155 229.48 635.299 229.82 635.495 230.119C635.696 230.418 635.956 230.655 636.274 230.831C636.597 231.003 636.986 231.089 637.442 231.089ZM641.783 227.849V227.607C641.783 227.029 641.866 226.495 642.033 226.006C642.199 225.516 642.437 225.092 642.745 224.735C643.059 224.377 643.433 224.101 643.869 223.905C644.305 223.704 644.79 223.604 645.323 223.604C645.862 223.604 646.349 223.704 646.785 223.905C647.221 224.101 647.596 224.377 647.909 224.735C648.222 225.092 648.462 225.516 648.629 226.006C648.795 226.495 648.879 227.029 648.879 227.607V227.849C648.879 228.427 648.795 228.961 648.629 229.451C648.462 229.935 648.222 230.356 647.909 230.714C647.601 231.071 647.228 231.351 646.793 231.551C646.357 231.747 645.872 231.845 645.338 231.845C644.799 231.845 644.312 231.747 643.876 231.551C643.441 231.351 643.066 231.071 642.753 230.714C642.439 230.356 642.199 229.935 642.033 229.451C641.866 228.961 641.783 228.427 641.783 227.849ZM642.657 227.607V227.849C642.657 228.285 642.716 228.699 642.833 229.091C642.951 229.477 643.122 229.823 643.348 230.126C643.573 230.425 643.852 230.66 644.185 230.831C644.518 231.003 644.902 231.089 645.338 231.089C645.769 231.089 646.149 231.003 646.477 230.831C646.81 230.66 647.089 230.425 647.314 230.126C647.539 229.823 647.708 229.477 647.821 229.091C647.938 228.699 647.997 228.285 647.997 227.849V227.607C647.997 227.176 647.938 226.767 647.821 226.38C647.708 225.993 647.537 225.648 647.307 225.344C647.081 225.041 646.802 224.801 646.469 224.625C646.136 224.448 645.754 224.36 645.323 224.36C644.893 224.36 644.511 224.448 644.178 224.625C643.849 224.801 643.57 225.041 643.34 225.344C643.115 225.648 642.944 225.993 642.826 226.38C642.713 226.767 642.657 227.176 642.657 227.607ZM651.677 220.416V231.698H650.803V220.416H651.677ZM653.998 231.162C653.998 230.991 654.052 230.846 654.16 230.729C654.273 230.606 654.424 230.545 654.615 230.545C654.811 230.545 654.965 230.604 655.078 230.721C655.191 230.839 655.247 230.986 655.247 231.162C655.247 231.329 655.191 231.471 655.078 231.588C654.965 231.706 654.811 231.764 654.615 231.764C654.424 231.764 654.273 231.706 654.16 231.588C654.052 231.471 653.998 231.329 653.998 231.162Z" fill="#FDFBF9"/>
</svg>
