<svg width="123" height="96" viewBox="0 0 123 96" fill="none" xmlns="http://www.w3.org/2000/svg">
<path d="M33.3433 80.9531L33.3433 79.0017" stroke="#0567FF" stroke-linecap="round"/>
<path d="M23.3687 80.9531L23.3687 79.0017" stroke="#0567FF" stroke-linecap="round"/>
<path d="M33.3687 79.9766L23.3687 79.9765" stroke="#0567FF"/>
<path d="M66.3433 80.9531L66.3433 79.0017" stroke="#0567FF" stroke-linecap="round"/>
<path d="M56.3687 80.9531L56.3687 79.0017" stroke="#0567FF" stroke-linecap="round"/>
<path d="M66.3687 79.9766L56.3687 79.9765" stroke="#0567FF"/>
<path d="M99.3433 80.9531L99.3433 79.0017" stroke="#0567FF" stroke-linecap="round"/>
<path d="M89.3687 80.9531L89.3687 79.0017" stroke="#0567FF" stroke-linecap="round"/>
<path d="M99.3687 79.9766L89.3687 79.9765" stroke="#0567FF"/>
<rect x="0.368652" width="23" height="73" fill="#C5DAFB"/>
<rect x="33.3687" width="23" height="73" fill="#C5DAFB"/>
<rect x="66.3687" width="23" height="73" fill="#C5DAFB"/>
<rect x="99.3687" width="23" height="73" fill="#C5DAFB"/>
<path d="M23.3843 87.7168H23.9263V92.9072C23.9263 93.3662 23.8384 93.7601 23.6626 94.0889C23.4901 94.4176 23.2443 94.6699 22.9253 94.8457C22.6095 95.0215 22.2368 95.1094 21.8071 95.1094C21.589 95.1094 21.3644 95.0752 21.1333 95.0068C20.9054 94.9417 20.689 94.8408 20.4839 94.7041C20.2821 94.5706 20.1095 94.4046 19.9663 94.2061L20.2935 93.8496C20.5083 94.11 20.7378 94.3005 20.9819 94.4209C21.2261 94.5446 21.4897 94.6064 21.7729 94.6064C22.1082 94.6064 22.3914 94.5397 22.6226 94.4062C22.8569 94.2728 23.0343 94.0807 23.1548 93.8301C23.2785 93.5794 23.3403 93.2783 23.3403 92.9268V88.8789L23.3843 87.7168ZM19.6733 90.4121V90.3096C19.6733 89.8994 19.7189 89.5299 19.8101 89.2012C19.9045 88.8691 20.0396 88.5859 20.2153 88.3516C20.3911 88.1139 20.6043 87.9333 20.855 87.8096C21.1089 87.6826 21.3953 87.6191 21.7144 87.6191C22.0203 87.6191 22.2922 87.6696 22.5298 87.7705C22.7674 87.8714 22.9725 88.0163 23.145 88.2051C23.3175 88.3939 23.4559 88.6185 23.5601 88.8789C23.6675 89.1393 23.7456 89.429 23.7944 89.748V91.0518C23.7554 91.3512 23.6838 91.6263 23.5796 91.877C23.4754 92.1243 23.3371 92.3408 23.1646 92.5264C22.992 92.7087 22.7837 92.8503 22.5396 92.9512C22.2987 93.0488 22.0203 93.0977 21.7046 93.0977C21.3888 93.0977 21.1056 93.0326 20.855 92.9023C20.6043 92.7721 20.3911 92.5882 20.2153 92.3506C20.0396 92.1097 19.9045 91.8249 19.8101 91.4961C19.7189 91.1673 19.6733 90.806 19.6733 90.4121ZM20.2593 90.3096V90.4121C20.2593 90.7214 20.2902 91.0078 20.3521 91.2715C20.4139 91.5352 20.5083 91.7646 20.6353 91.96C20.7622 92.1553 20.9233 92.3083 21.1187 92.4189C21.314 92.5296 21.5435 92.585 21.8071 92.585C22.1424 92.585 22.424 92.5215 22.6519 92.3945C22.8797 92.2643 23.0604 92.0934 23.1938 91.8818C23.3273 91.667 23.425 91.4326 23.4868 91.1787V89.6602C23.451 89.4876 23.3957 89.3118 23.3208 89.1328C23.2492 88.9538 23.1483 88.7894 23.0181 88.6396C22.8911 88.4867 22.7284 88.3646 22.5298 88.2734C22.3345 88.179 22.0968 88.1318 21.8169 88.1318C21.55 88.1318 21.3172 88.1872 21.1187 88.2979C20.9233 88.4085 20.7622 88.5632 20.6353 88.7617C20.5083 88.957 20.4139 89.1865 20.3521 89.4502C20.2902 89.7139 20.2593 90.0003 20.2593 90.3096ZM28.6675 92.0527V89.3281C28.6675 89.0775 28.6154 88.861 28.5112 88.6787C28.4071 88.4964 28.2541 88.3564 28.0522 88.2588C27.8504 88.1611 27.6014 88.1123 27.3052 88.1123C27.0317 88.1123 26.7876 88.1611 26.5728 88.2588C26.3612 88.3532 26.1935 88.4818 26.0698 88.6445C25.9494 88.804 25.8892 88.9814 25.8892 89.1768L25.3032 89.1719C25.3032 88.9733 25.3521 88.7812 25.4497 88.5957C25.5474 88.4102 25.6857 88.2441 25.8647 88.0977C26.0438 87.9512 26.257 87.8356 26.5044 87.751C26.755 87.6631 27.0301 87.6191 27.3296 87.6191C27.7072 87.6191 28.0392 87.6826 28.3257 87.8096C28.6154 87.9365 28.8416 88.127 29.0044 88.3809C29.1672 88.6348 29.2485 88.9538 29.2485 89.3379V91.8916C29.2485 92.0739 29.2616 92.2627 29.2876 92.458C29.3169 92.6533 29.3576 92.8145 29.4097 92.9414V93H28.7896C28.7505 92.8828 28.7196 92.7363 28.6968 92.5605C28.6772 92.3815 28.6675 92.2122 28.6675 92.0527ZM28.8042 89.9238L28.814 90.373H27.6665C27.367 90.373 27.0985 90.4007 26.8608 90.4561C26.6265 90.5081 26.4279 90.5863 26.2651 90.6904C26.1024 90.7913 25.9771 90.9134 25.8892 91.0566C25.8045 91.1999 25.7622 91.3626 25.7622 91.5449C25.7622 91.7337 25.8094 91.9062 25.9038 92.0625C26.0015 92.2188 26.1382 92.3441 26.314 92.4385C26.493 92.5296 26.7046 92.5752 26.9487 92.5752C27.2743 92.5752 27.5607 92.515 27.8081 92.3945C28.0588 92.2741 28.2655 92.1162 28.4282 91.9209C28.591 91.7256 28.7 91.5124 28.7554 91.2812L29.0093 91.6182C28.967 91.7809 28.8888 91.9486 28.7749 92.1211C28.6642 92.2904 28.5194 92.4499 28.3403 92.5996C28.1613 92.7461 27.9497 92.8665 27.7056 92.9609C27.4647 93.0521 27.1912 93.0977 26.8853 93.0977C26.5402 93.0977 26.2391 93.0326 25.9819 92.9023C25.728 92.7721 25.5295 92.5947 25.3862 92.3701C25.2463 92.1423 25.1763 91.8851 25.1763 91.5986C25.1763 91.3382 25.2316 91.1055 25.3423 90.9004C25.453 90.6921 25.6125 90.5163 25.8208 90.373C26.0324 90.2266 26.2863 90.1159 26.5825 90.041C26.882 89.9629 27.2173 89.9238 27.5884 89.9238H28.8042ZM31.3921 88.7324V95.0312H30.8062V87.7168H31.353L31.3921 88.7324ZM35.064 90.3096V90.4121C35.064 90.806 35.0184 91.1673 34.9272 91.4961C34.8361 91.8249 34.7043 92.1097 34.5317 92.3506C34.3625 92.5882 34.1525 92.7721 33.9019 92.9023C33.6512 93.0326 33.3664 93.0977 33.0474 93.0977C32.7316 93.0977 32.45 93.0488 32.2026 92.9512C31.9552 92.8535 31.742 92.7152 31.563 92.5361C31.3872 92.3538 31.2456 92.1423 31.1382 91.9014C31.034 91.6572 30.9608 91.3903 30.9185 91.1006V89.748C30.9673 89.429 31.047 89.1393 31.1577 88.8789C31.2684 88.6185 31.41 88.3939 31.5825 88.2051C31.7583 88.0163 31.9666 87.8714 32.2075 87.7705C32.4484 87.6696 32.7235 87.6191 33.0327 87.6191C33.355 87.6191 33.6414 87.6826 33.8921 87.8096C34.146 87.9333 34.3592 88.1139 34.5317 88.3516C34.7075 88.5859 34.8394 88.8691 34.9272 89.2012C35.0184 89.5299 35.064 89.8994 35.064 90.3096ZM34.478 90.4121V90.3096C34.478 90.0003 34.4455 89.7139 34.3804 89.4502C34.3185 89.1865 34.2225 88.957 34.0923 88.7617C33.9653 88.5632 33.8026 88.4085 33.604 88.2979C33.4087 88.1872 33.1759 88.1318 32.9058 88.1318C32.6258 88.1318 32.3866 88.179 32.188 88.2734C31.9927 88.3646 31.8299 88.4867 31.6997 88.6396C31.5695 88.7894 31.467 88.9538 31.3921 89.1328C31.3172 89.3118 31.2619 89.4876 31.2261 89.6602V91.2178C31.2879 91.4652 31.3872 91.6947 31.5239 91.9062C31.6606 92.1146 31.8429 92.2822 32.0708 92.4092C32.3019 92.5329 32.5835 92.5947 32.9155 92.5947C33.1825 92.5947 33.4136 92.5394 33.6089 92.4287C33.8042 92.318 33.9653 92.1634 34.0923 91.9648C34.2225 91.7663 34.3185 91.5352 34.3804 91.2715C34.4455 91.0078 34.478 90.7214 34.478 90.4121Z" fill="black"/>
<path d="M57.3843 87.7168H57.9263V92.9072C57.9263 93.3662 57.8384 93.7601 57.6626 94.0889C57.4901 94.4176 57.2443 94.6699 56.9253 94.8457C56.6095 95.0215 56.2368 95.1094 55.8071 95.1094C55.589 95.1094 55.3644 95.0752 55.1333 95.0068C54.9054 94.9417 54.689 94.8408 54.4839 94.7041C54.2821 94.5706 54.1095 94.4046 53.9663 94.2061L54.2935 93.8496C54.5083 94.11 54.7378 94.3005 54.9819 94.4209C55.2261 94.5446 55.4897 94.6064 55.7729 94.6064C56.1082 94.6064 56.3914 94.5397 56.6226 94.4062C56.8569 94.2728 57.0343 94.0807 57.1548 93.8301C57.2785 93.5794 57.3403 93.2783 57.3403 92.9268V88.8789L57.3843 87.7168ZM53.6733 90.4121V90.3096C53.6733 89.8994 53.7189 89.5299 53.8101 89.2012C53.9045 88.8691 54.0396 88.5859 54.2153 88.3516C54.3911 88.1139 54.6043 87.9333 54.855 87.8096C55.1089 87.6826 55.3953 87.6191 55.7144 87.6191C56.0203 87.6191 56.2922 87.6696 56.5298 87.7705C56.7674 87.8714 56.9725 88.0163 57.145 88.2051C57.3175 88.3939 57.4559 88.6185 57.5601 88.8789C57.6675 89.1393 57.7456 89.429 57.7944 89.748V91.0518C57.7554 91.3512 57.6838 91.6263 57.5796 91.877C57.4754 92.1243 57.3371 92.3408 57.1646 92.5264C56.992 92.7087 56.7837 92.8503 56.5396 92.9512C56.2987 93.0488 56.0203 93.0977 55.7046 93.0977C55.3888 93.0977 55.1056 93.0326 54.855 92.9023C54.6043 92.7721 54.3911 92.5882 54.2153 92.3506C54.0396 92.1097 53.9045 91.8249 53.8101 91.4961C53.7189 91.1673 53.6733 90.806 53.6733 90.4121ZM54.2593 90.3096V90.4121C54.2593 90.7214 54.2902 91.0078 54.3521 91.2715C54.4139 91.5352 54.5083 91.7646 54.6353 91.96C54.7622 92.1553 54.9233 92.3083 55.1187 92.4189C55.314 92.5296 55.5435 92.585 55.8071 92.585C56.1424 92.585 56.424 92.5215 56.6519 92.3945C56.8797 92.2643 57.0604 92.0934 57.1938 91.8818C57.3273 91.667 57.425 91.4326 57.4868 91.1787V89.6602C57.451 89.4876 57.3957 89.3118 57.3208 89.1328C57.2492 88.9538 57.1483 88.7894 57.0181 88.6396C56.8911 88.4867 56.7284 88.3646 56.5298 88.2734C56.3345 88.179 56.0968 88.1318 55.8169 88.1318C55.55 88.1318 55.3172 88.1872 55.1187 88.2979C54.9233 88.4085 54.7622 88.5632 54.6353 88.7617C54.5083 88.957 54.4139 89.1865 54.3521 89.4502C54.2902 89.7139 54.2593 90.0003 54.2593 90.3096ZM62.6675 92.0527V89.3281C62.6675 89.0775 62.6154 88.861 62.5112 88.6787C62.4071 88.4964 62.2541 88.3564 62.0522 88.2588C61.8504 88.1611 61.6014 88.1123 61.3052 88.1123C61.0317 88.1123 60.7876 88.1611 60.5728 88.2588C60.3612 88.3532 60.1935 88.4818 60.0698 88.6445C59.9494 88.804 59.8892 88.9814 59.8892 89.1768L59.3032 89.1719C59.3032 88.9733 59.3521 88.7812 59.4497 88.5957C59.5474 88.4102 59.6857 88.2441 59.8647 88.0977C60.0438 87.9512 60.257 87.8356 60.5044 87.751C60.755 87.6631 61.0301 87.6191 61.3296 87.6191C61.7072 87.6191 62.0392 87.6826 62.3257 87.8096C62.6154 87.9365 62.8416 88.127 63.0044 88.3809C63.1672 88.6348 63.2485 88.9538 63.2485 89.3379V91.8916C63.2485 92.0739 63.2616 92.2627 63.2876 92.458C63.3169 92.6533 63.3576 92.8145 63.4097 92.9414V93H62.7896C62.7505 92.8828 62.7196 92.7363 62.6968 92.5605C62.6772 92.3815 62.6675 92.2122 62.6675 92.0527ZM62.8042 89.9238L62.814 90.373H61.6665C61.367 90.373 61.0985 90.4007 60.8608 90.4561C60.6265 90.5081 60.4279 90.5863 60.2651 90.6904C60.1024 90.7913 59.9771 90.9134 59.8892 91.0566C59.8045 91.1999 59.7622 91.3626 59.7622 91.5449C59.7622 91.7337 59.8094 91.9062 59.9038 92.0625C60.0015 92.2188 60.1382 92.3441 60.314 92.4385C60.493 92.5296 60.7046 92.5752 60.9487 92.5752C61.2743 92.5752 61.5607 92.515 61.8081 92.3945C62.0588 92.2741 62.2655 92.1162 62.4282 91.9209C62.591 91.7256 62.7 91.5124 62.7554 91.2812L63.0093 91.6182C62.967 91.7809 62.8888 91.9486 62.7749 92.1211C62.6642 92.2904 62.5194 92.4499 62.3403 92.5996C62.1613 92.7461 61.9497 92.8665 61.7056 92.9609C61.4647 93.0521 61.1912 93.0977 60.8853 93.0977C60.5402 93.0977 60.2391 93.0326 59.9819 92.9023C59.728 92.7721 59.5295 92.5947 59.3862 92.3701C59.2463 92.1423 59.1763 91.8851 59.1763 91.5986C59.1763 91.3382 59.2316 91.1055 59.3423 90.9004C59.453 90.6921 59.6125 90.5163 59.8208 90.373C60.0324 90.2266 60.2863 90.1159 60.5825 90.041C60.882 89.9629 61.2173 89.9238 61.5884 89.9238H62.8042ZM65.3921 88.7324V95.0312H64.8062V87.7168H65.353L65.3921 88.7324ZM69.064 90.3096V90.4121C69.064 90.806 69.0184 91.1673 68.9272 91.4961C68.8361 91.8249 68.7043 92.1097 68.5317 92.3506C68.3625 92.5882 68.1525 92.7721 67.9019 92.9023C67.6512 93.0326 67.3664 93.0977 67.0474 93.0977C66.7316 93.0977 66.45 93.0488 66.2026 92.9512C65.9552 92.8535 65.742 92.7152 65.563 92.5361C65.3872 92.3538 65.2456 92.1423 65.1382 91.9014C65.034 91.6572 64.9608 91.3903 64.9185 91.1006V89.748C64.9673 89.429 65.047 89.1393 65.1577 88.8789C65.2684 88.6185 65.41 88.3939 65.5825 88.2051C65.7583 88.0163 65.9666 87.8714 66.2075 87.7705C66.4484 87.6696 66.7235 87.6191 67.0327 87.6191C67.355 87.6191 67.6414 87.6826 67.8921 87.8096C68.146 87.9333 68.3592 88.1139 68.5317 88.3516C68.7075 88.5859 68.8394 88.8691 68.9272 89.2012C69.0184 89.5299 69.064 89.8994 69.064 90.3096ZM68.478 90.4121V90.3096C68.478 90.0003 68.4455 89.7139 68.3804 89.4502C68.3185 89.1865 68.2225 88.957 68.0923 88.7617C67.9653 88.5632 67.8026 88.4085 67.604 88.2979C67.4087 88.1872 67.1759 88.1318 66.9058 88.1318C66.6258 88.1318 66.3866 88.179 66.188 88.2734C65.9927 88.3646 65.8299 88.4867 65.6997 88.6396C65.5695 88.7894 65.467 88.9538 65.3921 89.1328C65.3172 89.3118 65.2619 89.4876 65.2261 89.6602V91.2178C65.2879 91.4652 65.3872 91.6947 65.5239 91.9062C65.6606 92.1146 65.8429 92.2822 66.0708 92.4092C66.3019 92.5329 66.5835 92.5947 66.9155 92.5947C67.1825 92.5947 67.4136 92.5394 67.6089 92.4287C67.8042 92.318 67.9653 92.1634 68.0923 91.9648C68.2225 91.7663 68.3185 91.5352 68.3804 91.2715C68.4455 91.0078 68.478 90.7214 68.478 90.4121Z" fill="black"/>
<path d="M90.3843 87.7168H90.9263V92.9072C90.9263 93.3662 90.8384 93.7601 90.6626 94.0889C90.4901 94.4176 90.2443 94.6699 89.9253 94.8457C89.6095 95.0215 89.2368 95.1094 88.8071 95.1094C88.589 95.1094 88.3644 95.0752 88.1333 95.0068C87.9054 94.9417 87.689 94.8408 87.4839 94.7041C87.2821 94.5706 87.1095 94.4046 86.9663 94.2061L87.2935 93.8496C87.5083 94.11 87.7378 94.3005 87.9819 94.4209C88.2261 94.5446 88.4897 94.6064 88.7729 94.6064C89.1082 94.6064 89.3914 94.5397 89.6226 94.4062C89.8569 94.2728 90.0343 94.0807 90.1548 93.8301C90.2785 93.5794 90.3403 93.2783 90.3403 92.9268V88.8789L90.3843 87.7168ZM86.6733 90.4121V90.3096C86.6733 89.8994 86.7189 89.5299 86.8101 89.2012C86.9045 88.8691 87.0396 88.5859 87.2153 88.3516C87.3911 88.1139 87.6043 87.9333 87.855 87.8096C88.1089 87.6826 88.3953 87.6191 88.7144 87.6191C89.0203 87.6191 89.2922 87.6696 89.5298 87.7705C89.7674 87.8714 89.9725 88.0163 90.145 88.2051C90.3175 88.3939 90.4559 88.6185 90.5601 88.8789C90.6675 89.1393 90.7456 89.429 90.7944 89.748V91.0518C90.7554 91.3512 90.6838 91.6263 90.5796 91.877C90.4754 92.1243 90.3371 92.3408 90.1646 92.5264C89.992 92.7087 89.7837 92.8503 89.5396 92.9512C89.2987 93.0488 89.0203 93.0977 88.7046 93.0977C88.3888 93.0977 88.1056 93.0326 87.855 92.9023C87.6043 92.7721 87.3911 92.5882 87.2153 92.3506C87.0396 92.1097 86.9045 91.8249 86.8101 91.4961C86.7189 91.1673 86.6733 90.806 86.6733 90.4121ZM87.2593 90.3096V90.4121C87.2593 90.7214 87.2902 91.0078 87.3521 91.2715C87.4139 91.5352 87.5083 91.7646 87.6353 91.96C87.7622 92.1553 87.9233 92.3083 88.1187 92.4189C88.314 92.5296 88.5435 92.585 88.8071 92.585C89.1424 92.585 89.424 92.5215 89.6519 92.3945C89.8797 92.2643 90.0604 92.0934 90.1938 91.8818C90.3273 91.667 90.425 91.4326 90.4868 91.1787V89.6602C90.451 89.4876 90.3957 89.3118 90.3208 89.1328C90.2492 88.9538 90.1483 88.7894 90.0181 88.6396C89.8911 88.4867 89.7284 88.3646 89.5298 88.2734C89.3345 88.179 89.0968 88.1318 88.8169 88.1318C88.55 88.1318 88.3172 88.1872 88.1187 88.2979C87.9233 88.4085 87.7622 88.5632 87.6353 88.7617C87.5083 88.957 87.4139 89.1865 87.3521 89.4502C87.2902 89.7139 87.2593 90.0003 87.2593 90.3096ZM95.6675 92.0527V89.3281C95.6675 89.0775 95.6154 88.861 95.5112 88.6787C95.4071 88.4964 95.2541 88.3564 95.0522 88.2588C94.8504 88.1611 94.6014 88.1123 94.3052 88.1123C94.0317 88.1123 93.7876 88.1611 93.5728 88.2588C93.3612 88.3532 93.1935 88.4818 93.0698 88.6445C92.9494 88.804 92.8892 88.9814 92.8892 89.1768L92.3032 89.1719C92.3032 88.9733 92.3521 88.7812 92.4497 88.5957C92.5474 88.4102 92.6857 88.2441 92.8647 88.0977C93.0438 87.9512 93.257 87.8356 93.5044 87.751C93.755 87.6631 94.0301 87.6191 94.3296 87.6191C94.7072 87.6191 95.0392 87.6826 95.3257 87.8096C95.6154 87.9365 95.8416 88.127 96.0044 88.3809C96.1672 88.6348 96.2485 88.9538 96.2485 89.3379V91.8916C96.2485 92.0739 96.2616 92.2627 96.2876 92.458C96.3169 92.6533 96.3576 92.8145 96.4097 92.9414V93H95.7896C95.7505 92.8828 95.7196 92.7363 95.6968 92.5605C95.6772 92.3815 95.6675 92.2122 95.6675 92.0527ZM95.8042 89.9238L95.814 90.373H94.6665C94.367 90.373 94.0985 90.4007 93.8608 90.4561C93.6265 90.5081 93.4279 90.5863 93.2651 90.6904C93.1024 90.7913 92.9771 90.9134 92.8892 91.0566C92.8045 91.1999 92.7622 91.3626 92.7622 91.5449C92.7622 91.7337 92.8094 91.9062 92.9038 92.0625C93.0015 92.2188 93.1382 92.3441 93.314 92.4385C93.493 92.5296 93.7046 92.5752 93.9487 92.5752C94.2743 92.5752 94.5607 92.515 94.8081 92.3945C95.0588 92.2741 95.2655 92.1162 95.4282 91.9209C95.591 91.7256 95.7 91.5124 95.7554 91.2812L96.0093 91.6182C95.967 91.7809 95.8888 91.9486 95.7749 92.1211C95.6642 92.2904 95.5194 92.4499 95.3403 92.5996C95.1613 92.7461 94.9497 92.8665 94.7056 92.9609C94.4647 93.0521 94.1912 93.0977 93.8853 93.0977C93.5402 93.0977 93.2391 93.0326 92.9819 92.9023C92.728 92.7721 92.5295 92.5947 92.3862 92.3701C92.2463 92.1423 92.1763 91.8851 92.1763 91.5986C92.1763 91.3382 92.2316 91.1055 92.3423 90.9004C92.453 90.6921 92.6125 90.5163 92.8208 90.373C93.0324 90.2266 93.2863 90.1159 93.5825 90.041C93.882 89.9629 94.2173 89.9238 94.5884 89.9238H95.8042ZM98.3921 88.7324V95.0312H97.8062V87.7168H98.353L98.3921 88.7324ZM102.064 90.3096V90.4121C102.064 90.806 102.018 91.1673 101.927 91.4961C101.836 91.8249 101.704 92.1097 101.532 92.3506C101.362 92.5882 101.153 92.7721 100.902 92.9023C100.651 93.0326 100.366 93.0977 100.047 93.0977C99.7316 93.0977 99.45 93.0488 99.2026 92.9512C98.9552 92.8535 98.742 92.7152 98.563 92.5361C98.3872 92.3538 98.2456 92.1423 98.1382 91.9014C98.034 91.6572 97.9608 91.3903 97.9185 91.1006V89.748C97.9673 89.429 98.047 89.1393 98.1577 88.8789C98.2684 88.6185 98.41 88.3939 98.5825 88.2051C98.7583 88.0163 98.9666 87.8714 99.2075 87.7705C99.4484 87.6696 99.7235 87.6191 100.033 87.6191C100.355 87.6191 100.641 87.6826 100.892 87.8096C101.146 87.9333 101.359 88.1139 101.532 88.3516C101.708 88.5859 101.839 88.8691 101.927 89.2012C102.018 89.5299 102.064 89.8994 102.064 90.3096ZM101.478 90.4121V90.3096C101.478 90.0003 101.445 89.7139 101.38 89.4502C101.319 89.1865 101.222 88.957 101.092 88.7617C100.965 88.5632 100.803 88.4085 100.604 88.2979C100.409 88.1872 100.176 88.1318 99.9058 88.1318C99.6258 88.1318 99.3866 88.179 99.188 88.2734C98.9927 88.3646 98.8299 88.4867 98.6997 88.6396C98.5695 88.7894 98.467 88.9538 98.3921 89.1328C98.3172 89.3118 98.2619 89.4876 98.2261 89.6602V91.2178C98.2879 91.4652 98.3872 91.6947 98.5239 91.9062C98.6606 92.1146 98.8429 92.2822 99.0708 92.4092C99.3019 92.5329 99.5835 92.5947 99.9155 92.5947C100.182 92.5947 100.414 92.5394 100.609 92.4287C100.804 92.318 100.965 92.1634 101.092 91.9648C101.222 91.7663 101.319 91.5352 101.38 91.2715C101.445 91.0078 101.478 90.7214 101.478 90.4121Z" fill="black"/>
</svg>
