<svg width="127" height="120" viewBox="0 0 127 120" fill="none" xmlns="http://www.w3.org/2000/svg">
<path d="M27.3101 85.9531L27.3101 84.0017" stroke="#0567FF" stroke-linecap="round"/>
<path d="M4.36865 85.9531L4.36865 84.0017" stroke="#0567FF" stroke-linecap="round"/>
<path d="M27.3687 84.9766L4.36867 84.9765" stroke="#0567FF"/>
<path d="M126.06 106.953L126.06 105.002" stroke="#0567FF" stroke-linecap="round"/>
<path d="M4.36865 106.953L4.36865 105.002" stroke="#0567FF" stroke-linecap="round"/>
<path d="M126.369 105.977L4.36881 105.977" stroke="#0567FF"/>
<rect x="4.36865" width="23" height="73" fill="#C5DAFB"/>
<rect x="37.3687" width="23" height="73" fill="#C5DAFB"/>
<rect x="70.3687" width="23" height="73" fill="#C5DAFB"/>
<rect x="103.369" width="23" height="73" fill="#C5DAFB"/>
<path d="M7.06299 90.8613V98H6.48193V91.5986L4.54834 92.3164V91.7646L6.96533 90.8613H7.06299ZM14.3774 97.5947C14.6248 97.5947 14.856 97.5492 15.0708 97.458C15.2889 97.3636 15.4679 97.2253 15.6079 97.043C15.7511 96.8574 15.8325 96.6312 15.8521 96.3643H16.4087C16.3924 96.6995 16.2899 96.999 16.1011 97.2627C15.9155 97.5231 15.6714 97.7282 15.3687 97.8779C15.0692 98.0244 14.7388 98.0977 14.3774 98.0977C14.0096 98.0977 13.6841 98.0309 13.4009 97.8975C13.1209 97.764 12.8866 97.5785 12.6978 97.3408C12.509 97.0999 12.3657 96.82 12.2681 96.501C12.1737 96.1787 12.1265 95.832 12.1265 95.4609V95.2559C12.1265 94.8848 12.1737 94.5397 12.2681 94.2207C12.3657 93.8984 12.509 93.6185 12.6978 93.3809C12.8866 93.14 13.1209 92.9528 13.4009 92.8193C13.6808 92.6859 14.0047 92.6191 14.3726 92.6191C14.7502 92.6191 15.0887 92.6956 15.3882 92.8486C15.6909 93.0016 15.9318 93.2181 16.1108 93.498C16.2931 93.778 16.3924 94.11 16.4087 94.4941H15.8521C15.8358 94.2109 15.7609 93.9668 15.6274 93.7617C15.494 93.5566 15.3182 93.3988 15.1001 93.2881C14.882 93.1774 14.6395 93.1221 14.3726 93.1221C14.0731 93.1221 13.8175 93.1807 13.606 93.2979C13.3944 93.4118 13.2218 93.5697 13.0884 93.7715C12.9582 93.9701 12.8621 94.1979 12.8003 94.4551C12.7384 94.709 12.7075 94.9759 12.7075 95.2559V95.4609C12.7075 95.7441 12.7368 96.0143 12.7954 96.2715C12.8573 96.5254 12.9533 96.7516 13.0835 96.9502C13.217 97.1488 13.3895 97.3066 13.6011 97.4238C13.8159 97.5378 14.0747 97.5947 14.3774 97.5947ZM17.2632 95.4414V95.2803C17.2632 94.8962 17.3185 94.5413 17.4292 94.2158C17.5399 93.8903 17.6978 93.6087 17.9028 93.3711C18.1112 93.1335 18.3602 92.9495 18.6499 92.8193C18.9396 92.6859 19.2619 92.6191 19.6167 92.6191C19.9748 92.6191 20.2987 92.6859 20.5884 92.8193C20.8781 92.9495 21.1271 93.1335 21.3354 93.3711C21.5438 93.6087 21.7033 93.8903 21.814 94.2158C21.9246 94.5413 21.98 94.8962 21.98 95.2803V95.4414C21.98 95.8255 21.9246 96.1803 21.814 96.5059C21.7033 96.8281 21.5438 97.1081 21.3354 97.3457C21.1304 97.5833 20.883 97.7689 20.5933 97.9023C20.3035 98.0326 19.9813 98.0977 19.6265 98.0977C19.2684 98.0977 18.9445 98.0326 18.6548 97.9023C18.3651 97.7689 18.116 97.5833 17.9077 97.3457C17.6994 97.1081 17.5399 96.8281 17.4292 96.5059C17.3185 96.1803 17.2632 95.8255 17.2632 95.4414ZM17.8442 95.2803V95.4414C17.8442 95.7311 17.8833 96.0062 17.9614 96.2666C18.0396 96.5238 18.1535 96.7533 18.3032 96.9551C18.453 97.1536 18.6385 97.3099 18.8599 97.4238C19.0812 97.5378 19.3368 97.5947 19.6265 97.5947C19.9129 97.5947 20.1652 97.5378 20.3833 97.4238C20.6047 97.3099 20.7902 97.1536 20.9399 96.9551C21.0897 96.7533 21.202 96.5238 21.2769 96.2666C21.355 96.0062 21.394 95.7311 21.394 95.4414V95.2803C21.394 94.9938 21.355 94.722 21.2769 94.4648C21.202 94.2077 21.0881 93.9782 20.9351 93.7764C20.7853 93.5745 20.5998 93.415 20.3784 93.2979C20.1571 93.1807 19.9032 93.1221 19.6167 93.1221C19.3302 93.1221 19.0763 93.1807 18.855 93.2979C18.6369 93.415 18.4513 93.5745 18.2983 93.7764C18.1486 93.9782 18.0347 94.2077 17.9565 94.4648C17.8817 94.722 17.8442 94.9938 17.8442 95.2803ZM23.8403 90.5V98H23.2593V90.5H23.8403ZM25.3833 97.6436C25.3833 97.5296 25.4191 97.4336 25.4907 97.3555C25.5656 97.2741 25.6665 97.2334 25.7935 97.2334C25.9237 97.2334 26.0262 97.2725 26.1011 97.3506C26.1759 97.4287 26.2134 97.5264 26.2134 97.6436C26.2134 97.7542 26.1759 97.8486 26.1011 97.9268C26.0262 98.0049 25.9237 98.0439 25.7935 98.0439C25.6665 98.0439 25.5656 98.0049 25.4907 97.9268C25.4191 97.8486 25.3833 97.7542 25.3833 97.6436Z" fill="black"/>
<path d="M58.0405 116.705V117.203H53.0063V116.866L56.2925 111.891H56.7808L56.0874 113.097L53.7192 116.705H58.0405ZM56.9321 111.891V119H56.3511V111.891H56.9321ZM63.3774 118.595C63.6248 118.595 63.856 118.549 64.0708 118.458C64.2889 118.364 64.4679 118.225 64.6079 118.043C64.7511 117.857 64.8325 117.631 64.8521 117.364H65.4087C65.3924 117.7 65.2899 117.999 65.1011 118.263C64.9155 118.523 64.6714 118.728 64.3687 118.878C64.0692 119.024 63.7388 119.098 63.3774 119.098C63.0096 119.098 62.6841 119.031 62.4009 118.897C62.1209 118.764 61.8866 118.578 61.6978 118.341C61.509 118.1 61.3657 117.82 61.2681 117.501C61.1737 117.179 61.1265 116.832 61.1265 116.461V116.256C61.1265 115.885 61.1737 115.54 61.2681 115.221C61.3657 114.898 61.509 114.618 61.6978 114.381C61.8866 114.14 62.1209 113.953 62.4009 113.819C62.6808 113.686 63.0047 113.619 63.3726 113.619C63.7502 113.619 64.0887 113.696 64.3882 113.849C64.6909 114.002 64.9318 114.218 65.1108 114.498C65.2931 114.778 65.3924 115.11 65.4087 115.494H64.8521C64.8358 115.211 64.7609 114.967 64.6274 114.762C64.494 114.557 64.3182 114.399 64.1001 114.288C63.882 114.177 63.6395 114.122 63.3726 114.122C63.0731 114.122 62.8175 114.181 62.606 114.298C62.3944 114.412 62.2218 114.57 62.0884 114.771C61.9582 114.97 61.8621 115.198 61.8003 115.455C61.7384 115.709 61.7075 115.976 61.7075 116.256V116.461C61.7075 116.744 61.7368 117.014 61.7954 117.271C61.8573 117.525 61.9533 117.752 62.0835 117.95C62.217 118.149 62.3895 118.307 62.6011 118.424C62.8159 118.538 63.0747 118.595 63.3774 118.595ZM66.2632 116.441V116.28C66.2632 115.896 66.3185 115.541 66.4292 115.216C66.5399 114.89 66.6978 114.609 66.9028 114.371C67.1112 114.133 67.3602 113.95 67.6499 113.819C67.9396 113.686 68.2619 113.619 68.6167 113.619C68.9748 113.619 69.2987 113.686 69.5884 113.819C69.8781 113.95 70.1271 114.133 70.3354 114.371C70.5438 114.609 70.7033 114.89 70.814 115.216C70.9246 115.541 70.98 115.896 70.98 116.28V116.441C70.98 116.826 70.9246 117.18 70.814 117.506C70.7033 117.828 70.5438 118.108 70.3354 118.346C70.1304 118.583 69.883 118.769 69.5933 118.902C69.3035 119.033 68.9813 119.098 68.6265 119.098C68.2684 119.098 67.9445 119.033 67.6548 118.902C67.3651 118.769 67.116 118.583 66.9077 118.346C66.6994 118.108 66.5399 117.828 66.4292 117.506C66.3185 117.18 66.2632 116.826 66.2632 116.441ZM66.8442 116.28V116.441C66.8442 116.731 66.8833 117.006 66.9614 117.267C67.0396 117.524 67.1535 117.753 67.3032 117.955C67.453 118.154 67.6385 118.31 67.8599 118.424C68.0812 118.538 68.3368 118.595 68.6265 118.595C68.9129 118.595 69.1652 118.538 69.3833 118.424C69.6047 118.31 69.7902 118.154 69.9399 117.955C70.0897 117.753 70.202 117.524 70.2769 117.267C70.355 117.006 70.394 116.731 70.394 116.441V116.28C70.394 115.994 70.355 115.722 70.2769 115.465C70.202 115.208 70.0881 114.978 69.9351 114.776C69.7853 114.575 69.5998 114.415 69.3784 114.298C69.1571 114.181 68.9032 114.122 68.6167 114.122C68.3302 114.122 68.0763 114.181 67.855 114.298C67.6369 114.415 67.4513 114.575 67.2983 114.776C67.1486 114.978 67.0347 115.208 66.9565 115.465C66.8817 115.722 66.8442 115.994 66.8442 116.28ZM72.8403 111.5V119H72.2593V111.5H72.8403ZM74.3833 118.644C74.3833 118.53 74.4191 118.434 74.4907 118.355C74.5656 118.274 74.6665 118.233 74.7935 118.233C74.9237 118.233 75.0262 118.272 75.1011 118.351C75.1759 118.429 75.2134 118.526 75.2134 118.644C75.2134 118.754 75.1759 118.849 75.1011 118.927C75.0262 119.005 74.9237 119.044 74.7935 119.044C74.6665 119.044 74.5656 119.005 74.4907 118.927C74.4191 118.849 74.3833 118.754 74.3833 118.644Z" fill="black"/>
</svg>
