<svg width="40" height="41" viewBox="0 0 40 41" fill="none" xmlns="http://www.w3.org/2000/svg">
<path d="M4.20021 32.6998L18.6002 6.8998C19.0002 6.0998 20.4002 6.0998 20.8002 6.8998L35.6002 32.4998C36.0002 33.2998 35.4002 34.4998 34.6002 34.4998H5.20021C4.40021 34.4998 3.60021 33.4998 4.20021 32.6998Z" stroke="#E2381B" stroke-width="4" stroke-miterlimit="10" stroke-linecap="round" stroke-linejoin="round"/>
<path d="M18.0002 29.0996C18.0002 28.4996 18.2002 28.0996 18.6002 27.6996C19.0002 27.2996 19.4002 27.0996 20.0002 27.0996C20.6002 27.0996 21.0002 27.2996 21.4002 27.6996C21.8002 28.0996 22.0002 28.4996 22.0002 29.0996C22.0002 29.6996 21.8002 30.0996 21.4002 30.4996C21.0002 30.8996 20.6002 31.0996 20.0002 31.0996C19.4002 31.0996 18.8002 30.6996 18.4002 30.4996C18.2002 30.0996 18.0002 29.6996 18.0002 29.0996ZM21.4002 25.6996H18.4002L18.0002 15.0996H21.8002L21.4002 25.6996Z" fill="#E2381B"/>
</svg>
