<svg width="21" height="20" viewBox="0 0 21 20" fill="none" xmlns="http://www.w3.org/2000/svg">
<path d="M14.5687 10C15.1687 9.1 15.5687 8.1 15.4687 6.9C15.4687 4.2 13.1687 2 10.4687 2C7.66865 2.1 5.36865 4.3 5.36865 7.1C5.36865 8.2 5.66865 9.1 6.26865 9.9C6.86865 11 7.56865 12.1 7.86865 13.3V13.5C7.96865 13.9 8.36865 14.3 8.86865 14.3H11.8687C12.2687 14.3 12.6687 14.1 12.7687 13.7L12.8687 13.3C13.2687 12.1 13.8687 11 14.5687 10Z" stroke="#2C2C2C" stroke-width="2.1556" stroke-miterlimit="10" stroke-linecap="round" stroke-linejoin="round"/>
<path d="M10.3686 4.89844C9.0686 4.89844 8.0686 5.89844 8.0686 7.19844" stroke="#2C2C2C" stroke-width="2" stroke-miterlimit="10" stroke-linecap="round" stroke-linejoin="round"/>
<path d="M12.2686 17.3984H8.5686C9.6686 17.9984 11.0686 17.9984 12.2686 17.3984Z" fill="#2C2C2C" stroke="#2C2C2C" stroke-width="2.1556" stroke-miterlimit="10" stroke-linecap="round" stroke-linejoin="round"/>
</svg>
