<svg width="20" height="21" viewBox="0 0 20 21" fill="none" xmlns="http://www.w3.org/2000/svg">
<path d="M7.391 11.8001C5.991 10.9001 5.691 9.10008 6.591 7.80008L9.491 3.50008C10.391 2.20008 12.091 1.90008 13.391 2.70008H13.491C14.791 3.60008 15.091 5.30008 14.291 6.60008L11.391 10.9001C10.391 12.4001 8.591 12.7001 7.391 11.8001Z" stroke="#2C2C2C" stroke-width="2" stroke-miterlimit="10"/>
<path d="M12.9911 8.70005C14.0911 9.60005 14.2911 11.2001 13.3911 12.5001L10.5911 16.6001C9.69112 17.9001 7.99112 18.3001 6.69112 17.5001L6.39112 17.3001C5.19112 16.5001 4.89112 14.7001 5.79112 13.4001L6.79112 11.9001L7.09112 11.5001L7.39112 11.2001L8.69112 9.20005C9.59112 7.90005 11.2911 7.50005 12.5911 8.30005L12.7911 8.40005" stroke="#2C2C2C" stroke-width="2" stroke-miterlimit="10"/>
</svg>
