<svg width="21" height="20" viewBox="0 0 21 20" fill="none" xmlns="http://www.w3.org/2000/svg">
<path d="M10.1687 4.6C11.1628 4.6 11.9687 3.79411 11.9687 2.8C11.9687 1.80589 11.1628 1 10.1687 1C9.17454 1 8.36865 1.80589 8.36865 2.8C8.36865 3.79411 9.17454 4.6 10.1687 4.6Z" fill="#2C2C2C"/>
<path d="M10.1687 11.8031C11.1628 11.8031 11.9687 10.9972 11.9687 10.0031C11.9687 9.00901 11.1628 8.20312 10.1687 8.20312C9.17454 8.20312 8.36865 9.00901 8.36865 10.0031C8.36865 10.9972 9.17454 11.8031 10.1687 11.8031Z" fill="#2C2C2C"/>
<path d="M10.1687 18.9984C11.1628 18.9984 11.9687 18.1926 11.9687 17.1984C11.9687 16.2043 11.1628 15.3984 10.1687 15.3984C9.17454 15.3984 8.36865 16.2043 8.36865 17.1984C8.36865 18.1926 9.17454 18.9984 10.1687 18.9984Z" fill="#2C2C2C"/>
</svg>
