<svg width="774" height="518" viewBox="0 0 774 518" fill="none" xmlns="http://www.w3.org/2000/svg">
<line x1="170.966" y1="382.544" x2="170.966" y2="65.0508" stroke="#606060" stroke-width="3.62984"/>
<path d="M177.664 395.575V398.329C177.664 399.809 177.532 401.058 177.267 402.076C177.003 403.093 176.622 403.912 176.126 404.532C175.63 405.153 175.03 405.603 174.327 405.885C173.632 406.158 172.846 406.294 171.97 406.294C171.275 406.294 170.634 406.207 170.047 406.033C169.459 405.86 168.93 405.583 168.459 405.202C167.995 404.814 167.598 404.309 167.268 403.689C166.937 403.068 166.684 402.316 166.511 401.431C166.337 400.546 166.25 399.512 166.25 398.329V395.575C166.25 394.094 166.383 392.853 166.647 391.853C166.92 390.852 167.305 390.05 167.801 389.446C168.297 388.834 168.893 388.395 169.588 388.131C170.291 387.866 171.076 387.734 171.945 387.734C172.648 387.734 173.293 387.82 173.88 387.994C174.476 388.16 175.005 388.428 175.468 388.801C175.932 389.165 176.324 389.653 176.647 390.265C176.978 390.868 177.23 391.609 177.404 392.485C177.578 393.362 177.664 394.392 177.664 395.575ZM175.357 398.701V395.19C175.357 394.379 175.307 393.668 175.208 393.056C175.117 392.436 174.98 391.906 174.798 391.468C174.616 391.03 174.385 390.674 174.104 390.401C173.831 390.128 173.512 389.93 173.148 389.806C172.793 389.673 172.392 389.607 171.945 389.607C171.399 389.607 170.915 389.71 170.493 389.917C170.071 390.116 169.716 390.434 169.426 390.873C169.145 391.311 168.93 391.886 168.781 392.597C168.632 393.308 168.558 394.173 168.558 395.19V398.701C168.558 399.512 168.603 400.227 168.694 400.848C168.794 401.468 168.938 402.005 169.129 402.46C169.319 402.907 169.55 403.275 169.823 403.565C170.096 403.854 170.411 404.069 170.766 404.21C171.13 404.342 171.531 404.408 171.97 404.408C172.532 404.408 173.024 404.301 173.446 404.086C173.868 403.871 174.219 403.536 174.501 403.081C174.79 402.618 175.005 402.026 175.146 401.307C175.286 400.579 175.357 399.71 175.357 398.701Z" fill="#606060"/>
<path d="M303.748 406.527V408.413H291.925V406.763L297.843 400.175C298.571 399.364 299.133 398.678 299.53 398.116C299.935 397.545 300.217 397.036 300.374 396.59C300.539 396.135 300.622 395.671 300.622 395.2C300.622 394.604 300.498 394.067 300.25 393.587C300.01 393.099 299.654 392.71 299.183 392.421C298.711 392.131 298.141 391.987 297.471 391.987C296.668 391.987 295.998 392.144 295.461 392.458C294.931 392.764 294.534 393.194 294.27 393.748C294.005 394.303 293.873 394.939 293.873 395.659H291.577C291.577 394.642 291.801 393.711 292.247 392.868C292.694 392.024 293.356 391.354 294.232 390.858C295.109 390.353 296.189 390.101 297.471 390.101C298.612 390.101 299.588 390.303 300.399 390.709C301.209 391.106 301.83 391.668 302.26 392.396C302.698 393.116 302.917 393.959 302.917 394.927C302.917 395.456 302.826 395.994 302.644 396.54C302.471 397.078 302.227 397.615 301.912 398.153C301.606 398.69 301.246 399.22 300.833 399.741C300.428 400.262 299.993 400.775 299.53 401.279L294.692 406.527H303.748ZM309.108 399.815L307.272 399.344L308.178 390.349H317.445V392.471H310.125L309.58 397.384C309.91 397.193 310.328 397.015 310.833 396.85C311.345 396.685 311.933 396.602 312.594 396.602C313.43 396.602 314.178 396.747 314.84 397.036C315.502 397.317 316.064 397.723 316.527 398.252C316.999 398.781 317.359 399.418 317.607 400.163C317.855 400.907 317.979 401.738 317.979 402.656C317.979 403.525 317.859 404.323 317.619 405.051C317.387 405.779 317.036 406.416 316.564 406.962C316.093 407.499 315.498 407.917 314.778 408.215C314.067 408.512 313.227 408.661 312.259 408.661C311.532 408.661 310.841 408.562 310.187 408.363C309.542 408.157 308.963 407.847 308.451 407.433C307.946 407.011 307.532 406.49 307.21 405.87C306.896 405.241 306.697 404.505 306.614 403.661H308.798C308.897 404.34 309.096 404.91 309.393 405.373C309.691 405.837 310.08 406.188 310.56 406.428C311.048 406.66 311.614 406.775 312.259 406.775C312.805 406.775 313.289 406.68 313.711 406.49C314.133 406.3 314.488 406.027 314.778 405.671C315.067 405.316 315.287 404.885 315.435 404.381C315.593 403.876 315.671 403.31 315.671 402.681C315.671 402.11 315.593 401.581 315.435 401.093C315.278 400.605 315.043 400.179 314.728 399.815C314.422 399.451 314.046 399.17 313.599 398.972C313.153 398.765 312.64 398.661 312.061 398.661C311.292 398.661 310.709 398.765 310.312 398.972C309.923 399.178 309.522 399.46 309.108 399.815Z" fill="#606060"/>
<path d="M425.986 399.815L424.149 399.344L425.055 390.349H434.323V392.471H427.003L426.457 397.384C426.788 397.193 427.206 397.015 427.71 396.85C428.223 396.685 428.81 396.602 429.472 396.602C430.307 396.602 431.056 396.747 431.717 397.036C432.379 397.317 432.942 397.723 433.405 398.252C433.876 398.781 434.236 399.418 434.484 400.163C434.732 400.907 434.856 401.738 434.856 402.656C434.856 403.525 434.736 404.323 434.496 405.051C434.265 405.779 433.913 406.416 433.442 406.962C432.97 407.499 432.375 407.917 431.655 408.215C430.944 408.512 430.105 408.661 429.137 408.661C428.409 408.661 427.718 408.562 427.065 408.363C426.42 408.157 425.841 407.847 425.328 407.433C424.823 407.011 424.41 406.49 424.087 405.87C423.773 405.241 423.574 404.505 423.492 403.661H425.675C425.775 404.34 425.973 404.91 426.271 405.373C426.569 405.837 426.957 406.188 427.437 406.428C427.925 406.66 428.492 406.775 429.137 406.775C429.683 406.775 430.167 406.68 430.588 406.49C431.01 406.3 431.366 406.027 431.655 405.671C431.945 405.316 432.164 404.885 432.313 404.381C432.47 403.876 432.549 403.31 432.549 402.681C432.549 402.11 432.47 401.581 432.313 401.093C432.156 400.605 431.92 400.179 431.606 399.815C431.3 399.451 430.923 399.17 430.477 398.972C430.03 398.765 429.517 398.661 428.938 398.661C428.169 398.661 427.586 398.765 427.189 398.972C426.8 399.178 426.399 399.46 425.986 399.815ZM448.715 397.942V400.696C448.715 402.177 448.582 403.426 448.318 404.443C448.053 405.46 447.672 406.279 447.176 406.899C446.68 407.52 446.08 407.971 445.377 408.252C444.682 408.525 443.897 408.661 443.02 408.661C442.325 408.661 441.684 408.574 441.097 408.401C440.51 408.227 439.98 407.95 439.509 407.569C439.046 407.181 438.649 406.676 438.318 406.056C437.987 405.435 437.735 404.683 437.561 403.798C437.387 402.913 437.3 401.879 437.3 400.696V397.942C437.3 396.461 437.433 395.221 437.697 394.22C437.97 393.219 438.355 392.417 438.851 391.813C439.348 391.201 439.943 390.763 440.638 390.498C441.341 390.233 442.127 390.101 442.995 390.101C443.698 390.101 444.343 390.188 444.931 390.361C445.526 390.527 446.055 390.796 446.519 391.168C446.982 391.532 447.375 392.02 447.697 392.632C448.028 393.236 448.28 393.976 448.454 394.853C448.628 395.729 448.715 396.759 448.715 397.942ZM446.407 401.068V397.557C446.407 396.747 446.357 396.035 446.258 395.423C446.167 394.803 446.031 394.274 445.849 393.835C445.667 393.397 445.435 393.041 445.154 392.768C444.881 392.495 444.562 392.297 444.199 392.173C443.843 392.04 443.442 391.974 442.995 391.974C442.449 391.974 441.965 392.078 441.543 392.284C441.122 392.483 440.766 392.801 440.477 393.24C440.195 393.678 439.98 394.253 439.831 394.964C439.682 395.676 439.608 396.54 439.608 397.557V401.068C439.608 401.879 439.654 402.594 439.745 403.215C439.844 403.835 439.989 404.373 440.179 404.828C440.369 405.274 440.601 405.642 440.874 405.932C441.146 406.221 441.461 406.436 441.816 406.577C442.18 406.709 442.582 406.775 443.02 406.775C443.582 406.775 444.074 406.668 444.496 406.453C444.918 406.238 445.27 405.903 445.551 405.448C445.84 404.985 446.055 404.393 446.196 403.674C446.337 402.946 446.407 402.077 446.407 401.068Z" fill="#606060"/>
<path d="M567.005 390.349V391.639L559.524 408.413H557.105L564.573 392.235H554.797V390.349H567.005ZM572.526 399.815L570.69 399.344L571.596 390.349H580.863V392.471H573.543L572.998 397.384C573.328 397.193 573.746 397.015 574.251 396.85C574.763 396.685 575.351 396.602 576.012 396.602C576.848 396.602 577.596 396.747 578.258 397.036C578.92 397.317 579.482 397.723 579.945 398.252C580.417 398.781 580.776 399.418 581.025 400.163C581.273 400.907 581.397 401.738 581.397 402.656C581.397 403.525 581.277 404.323 581.037 405.051C580.805 405.779 580.454 406.416 579.982 406.962C579.511 407.499 578.915 407.917 578.196 408.215C577.485 408.512 576.645 408.661 575.677 408.661C574.949 408.661 574.259 408.562 573.605 408.363C572.96 408.157 572.381 407.847 571.869 407.433C571.364 407.011 570.95 406.49 570.628 405.87C570.314 405.241 570.115 404.505 570.032 403.661H572.216C572.315 404.34 572.514 404.91 572.811 405.373C573.109 405.837 573.498 406.188 573.978 406.428C574.466 406.66 575.032 406.775 575.677 406.775C576.223 406.775 576.707 406.68 577.129 406.49C577.551 406.3 577.906 406.027 578.196 405.671C578.485 405.316 578.705 404.885 578.853 404.381C579.011 403.876 579.089 403.31 579.089 402.681C579.089 402.11 579.011 401.581 578.853 401.093C578.696 400.605 578.461 400.179 578.146 399.815C577.84 399.451 577.464 399.17 577.017 398.972C576.571 398.765 576.058 398.661 575.479 398.661C574.71 398.661 574.127 398.765 573.73 398.972C573.341 399.178 572.94 399.46 572.526 399.815Z" fill="#606060"/>
<path d="M685.83 390.25V408.413H683.534V393.116L678.907 394.803V392.731L685.47 390.25H685.83ZM703.918 397.942V400.696C703.918 402.177 703.786 403.426 703.521 404.443C703.257 405.46 702.876 406.279 702.38 406.899C701.884 407.52 701.284 407.971 700.581 408.252C699.886 408.525 699.101 408.661 698.224 408.661C697.529 408.661 696.888 408.574 696.301 408.401C695.714 408.227 695.184 407.95 694.713 407.569C694.25 407.181 693.853 406.676 693.522 406.056C693.191 405.435 692.939 404.683 692.765 403.798C692.591 402.913 692.504 401.879 692.504 400.696V397.942C692.504 396.461 692.637 395.221 692.901 394.22C693.174 393.219 693.559 392.417 694.055 391.813C694.551 391.201 695.147 390.763 695.842 390.498C696.545 390.233 697.331 390.101 698.199 390.101C698.902 390.101 699.547 390.188 700.134 390.361C700.73 390.527 701.259 390.796 701.723 391.168C702.186 391.532 702.579 392.02 702.901 392.632C703.232 393.236 703.484 393.976 703.658 394.853C703.832 395.729 703.918 396.759 703.918 397.942ZM701.611 401.068V397.557C701.611 396.747 701.561 396.035 701.462 395.423C701.371 394.803 701.235 394.274 701.053 393.835C700.871 393.397 700.639 393.041 700.358 392.768C700.085 392.495 699.766 392.297 699.402 392.173C699.047 392.04 698.646 391.974 698.199 391.974C697.653 391.974 697.169 392.078 696.747 392.284C696.326 392.483 695.97 392.801 695.68 393.24C695.399 393.678 695.184 394.253 695.035 394.964C694.886 395.676 694.812 396.54 694.812 397.557V401.068C694.812 401.879 694.857 402.594 694.948 403.215C695.048 403.835 695.192 404.373 695.383 404.828C695.573 405.274 695.805 405.642 696.077 405.932C696.35 406.221 696.665 406.436 697.02 406.577C697.384 406.709 697.785 406.775 698.224 406.775C698.786 406.775 699.278 406.668 699.7 406.453C700.122 406.238 700.474 405.903 700.755 405.448C701.044 404.985 701.259 404.393 701.4 403.674C701.541 402.946 701.611 402.077 701.611 401.068ZM718.211 397.942V400.696C718.211 402.177 718.079 403.426 717.814 404.443C717.549 405.46 717.169 406.279 716.673 406.899C716.176 407.52 715.577 407.971 714.874 408.252C714.179 408.525 713.393 408.661 712.516 408.661C711.822 408.661 711.181 408.574 710.593 408.401C710.006 408.227 709.477 407.95 709.005 407.569C708.542 407.181 708.145 406.676 707.814 406.056C707.483 405.435 707.231 404.683 707.057 403.798C706.884 402.913 706.797 401.879 706.797 400.696V397.942C706.797 396.461 706.929 395.221 707.194 394.22C707.467 393.219 707.851 392.417 708.348 391.813C708.844 391.201 709.439 390.763 710.134 390.498C710.837 390.233 711.623 390.101 712.492 390.101C713.195 390.101 713.84 390.188 714.427 390.361C715.022 390.527 715.552 390.796 716.015 391.168C716.478 391.532 716.871 392.02 717.194 392.632C717.524 393.236 717.777 393.976 717.95 394.853C718.124 395.729 718.211 396.759 718.211 397.942ZM715.903 401.068V397.557C715.903 396.747 715.854 396.035 715.754 395.423C715.663 394.803 715.527 394.274 715.345 393.835C715.163 393.397 714.931 393.041 714.65 392.768C714.377 392.495 714.059 392.297 713.695 392.173C713.339 392.04 712.938 391.974 712.492 391.974C711.946 391.974 711.462 392.078 711.04 392.284C710.618 392.483 710.262 392.801 709.973 393.24C709.692 393.678 709.477 394.253 709.328 394.964C709.179 395.676 709.104 396.54 709.104 397.557V401.068C709.104 401.879 709.15 402.594 709.241 403.215C709.34 403.835 709.485 404.373 709.675 404.828C709.865 405.274 710.097 405.642 710.37 405.932C710.643 406.221 710.957 406.436 711.313 406.577C711.677 406.709 712.078 406.775 712.516 406.775C713.079 406.775 713.571 406.668 713.993 406.453C714.415 406.238 714.766 405.903 715.047 405.448C715.337 404.985 715.552 404.393 715.692 403.674C715.833 402.946 715.903 402.077 715.903 401.068Z" fill="#606060"/>
<path d="M98.8579 297.117V299.064H89.8259V297.117H98.8579ZM90.2973 281V299.064H87.9028V281H90.2973ZM100.644 292.501V292.216C100.644 291.248 100.785 290.351 101.066 289.524C101.348 288.688 101.753 287.965 102.282 287.353C102.812 286.732 103.453 286.252 104.205 285.913C104.958 285.566 105.802 285.392 106.736 285.392C107.679 285.392 108.527 285.566 109.28 285.913C110.04 286.252 110.686 286.732 111.215 287.353C111.753 287.965 112.162 288.688 112.443 289.524C112.724 290.351 112.865 291.248 112.865 292.216V292.501C112.865 293.469 112.724 294.366 112.443 295.194C112.162 296.021 111.753 296.744 111.215 297.365C110.686 297.977 110.045 298.457 109.292 298.804C108.548 299.143 107.704 299.313 106.761 299.313C105.818 299.313 104.97 299.143 104.218 298.804C103.465 298.457 102.82 297.977 102.282 297.365C101.753 296.744 101.348 296.021 101.066 295.194C100.785 294.366 100.644 293.469 100.644 292.501ZM102.94 292.216V292.501C102.94 293.171 103.018 293.804 103.175 294.4C103.333 294.987 103.568 295.508 103.883 295.963C104.205 296.418 104.606 296.777 105.086 297.042C105.566 297.299 106.124 297.427 106.761 297.427C107.39 297.427 107.94 297.299 108.411 297.042C108.891 296.777 109.288 296.418 109.602 295.963C109.916 295.508 110.152 294.987 110.309 294.4C110.475 293.804 110.557 293.171 110.557 292.501V292.216C110.557 291.554 110.475 290.93 110.309 290.343C110.152 289.747 109.912 289.222 109.59 288.767C109.275 288.304 108.878 287.94 108.399 287.675C107.927 287.41 107.373 287.278 106.736 287.278C106.108 287.278 105.553 287.41 105.074 287.675C104.602 287.94 104.205 288.304 103.883 288.767C103.568 289.222 103.333 289.747 103.175 290.343C103.018 290.93 102.94 291.554 102.94 292.216ZM115.805 285.64H118.113V300.665C118.113 301.484 117.981 302.179 117.716 302.749C117.46 303.32 117.071 303.75 116.55 304.04C116.037 304.337 115.388 304.486 114.602 304.486C114.395 304.486 114.155 304.465 113.882 304.424C113.601 304.383 113.365 304.333 113.175 304.275L113.188 302.427C113.345 302.46 113.523 302.485 113.721 302.501C113.92 302.526 114.093 302.538 114.242 302.538C114.581 302.538 114.867 302.476 115.098 302.352C115.33 302.228 115.504 302.03 115.619 301.757C115.743 301.484 115.805 301.12 115.805 300.665V285.64ZM115.57 282.08C115.57 281.708 115.686 281.393 115.917 281.137C116.149 280.88 116.484 280.752 116.922 280.752C117.369 280.752 117.708 280.88 117.939 281.137C118.171 281.393 118.287 281.708 118.287 282.08C118.287 282.435 118.171 282.741 117.939 282.998C117.708 283.246 117.369 283.37 116.922 283.37C116.484 283.37 116.149 283.246 115.917 282.998C115.686 282.741 115.57 282.435 115.57 282.08ZM129.738 296.769V289.859C129.738 289.329 129.631 288.87 129.416 288.482C129.209 288.085 128.894 287.779 128.473 287.563C128.051 287.348 127.53 287.241 126.909 287.241C126.33 287.241 125.822 287.34 125.383 287.539C124.953 287.737 124.614 287.998 124.366 288.32C124.126 288.643 124.006 288.99 124.006 289.362H121.711C121.711 288.883 121.835 288.407 122.083 287.936C122.331 287.464 122.687 287.038 123.15 286.658C123.622 286.269 124.184 285.963 124.838 285.74C125.499 285.508 126.235 285.392 127.046 285.392C128.022 285.392 128.882 285.558 129.626 285.889C130.379 286.219 130.966 286.72 131.388 287.39C131.818 288.051 132.033 288.883 132.033 289.884V296.136C132.033 296.583 132.071 297.059 132.145 297.563C132.228 298.068 132.348 298.502 132.505 298.866V299.064H130.11C129.995 298.8 129.904 298.448 129.837 298.01C129.771 297.563 129.738 297.15 129.738 296.769ZM130.135 290.926L130.16 292.539H127.84C127.186 292.539 126.603 292.592 126.091 292.7C125.578 292.799 125.148 292.952 124.8 293.159C124.453 293.366 124.188 293.626 124.006 293.94C123.824 294.247 123.733 294.606 123.733 295.02C123.733 295.442 123.828 295.826 124.019 296.174C124.209 296.521 124.494 296.798 124.875 297.005C125.263 297.203 125.739 297.303 126.301 297.303C127.005 297.303 127.625 297.154 128.162 296.856C128.7 296.558 129.126 296.194 129.44 295.764C129.763 295.334 129.937 294.916 129.961 294.511L130.942 295.615C130.884 295.963 130.727 296.347 130.47 296.769C130.214 297.191 129.87 297.596 129.44 297.985C129.019 298.366 128.514 298.684 127.927 298.94C127.348 299.189 126.694 299.313 125.967 299.313C125.057 299.313 124.259 299.135 123.572 298.779C122.894 298.423 122.364 297.948 121.984 297.352C121.612 296.749 121.426 296.074 121.426 295.33C121.426 294.61 121.566 293.978 121.847 293.432C122.129 292.878 122.534 292.419 123.063 292.055C123.593 291.682 124.23 291.401 124.974 291.211C125.718 291.021 126.55 290.926 127.468 290.926H130.135ZM144.862 281V299.064H142.467V281H144.862ZM151.785 281V299.064H149.39V281H151.785ZM158.708 281V299.064H156.313V281H158.708Z" fill="#606060"/>
<path d="M102.319 198.336V200.284H93.2873V198.336H102.319ZM93.7588 182.22V200.284H91.3643V182.22H93.7588ZM104.106 193.721V193.436C104.106 192.468 104.247 191.571 104.528 190.743C104.809 189.908 105.214 189.184 105.744 188.572C106.273 187.952 106.914 187.472 107.667 187.133C108.419 186.786 109.263 186.612 110.198 186.612C111.141 186.612 111.988 186.786 112.741 187.133C113.502 187.472 114.147 187.952 114.676 188.572C115.214 189.184 115.623 189.908 115.905 190.743C116.186 191.571 116.327 192.468 116.327 193.436V193.721C116.327 194.689 116.186 195.586 115.905 196.413C115.623 197.24 115.214 197.964 114.676 198.584C114.147 199.197 113.506 199.676 112.753 200.024C112.009 200.363 111.165 200.532 110.222 200.532C109.28 200.532 108.432 200.363 107.679 200.024C106.926 199.676 106.281 199.197 105.744 198.584C105.214 197.964 104.809 197.24 104.528 196.413C104.247 195.586 104.106 194.689 104.106 193.721ZM106.401 193.436V193.721C106.401 194.391 106.48 195.024 106.637 195.619C106.794 196.207 107.03 196.728 107.344 197.183C107.667 197.637 108.068 197.997 108.548 198.262C109.027 198.518 109.586 198.646 110.222 198.646C110.851 198.646 111.401 198.518 111.873 198.262C112.352 197.997 112.749 197.637 113.064 197.183C113.378 196.728 113.614 196.207 113.771 195.619C113.936 195.024 114.019 194.391 114.019 193.721V193.436C114.019 192.774 113.936 192.15 113.771 191.562C113.614 190.967 113.374 190.442 113.051 189.987C112.737 189.523 112.34 189.16 111.86 188.895C111.389 188.63 110.835 188.498 110.198 188.498C109.569 188.498 109.015 188.63 108.535 188.895C108.064 189.16 107.667 189.523 107.344 189.987C107.03 190.442 106.794 190.967 106.637 191.562C106.48 192.15 106.401 192.774 106.401 193.436ZM119.267 186.86H121.575V201.885C121.575 202.703 121.442 203.398 121.178 203.969C120.921 204.54 120.532 204.97 120.011 205.259C119.498 205.557 118.849 205.706 118.063 205.706C117.857 205.706 117.617 205.685 117.344 205.644C117.063 205.603 116.827 205.553 116.637 205.495L116.649 203.646C116.806 203.679 116.984 203.704 117.183 203.721C117.381 203.746 117.555 203.758 117.704 203.758C118.043 203.758 118.328 203.696 118.56 203.572C118.791 203.448 118.965 203.249 119.081 202.976C119.205 202.703 119.267 202.34 119.267 201.885V186.86ZM119.031 183.299C119.031 182.927 119.147 182.613 119.379 182.357C119.61 182.1 119.945 181.972 120.384 181.972C120.83 181.972 121.169 182.1 121.401 182.357C121.632 182.613 121.748 182.927 121.748 183.299C121.748 183.655 121.632 183.961 121.401 184.218C121.169 184.466 120.83 184.59 120.384 184.59C119.945 184.59 119.61 184.466 119.379 184.218C119.147 183.961 119.031 183.655 119.031 183.299ZM133.2 197.989V191.078C133.2 190.549 133.092 190.09 132.877 189.701C132.67 189.304 132.356 188.998 131.934 188.783C131.512 188.568 130.991 188.461 130.371 188.461C129.792 188.461 129.283 188.56 128.845 188.758C128.415 188.957 128.076 189.217 127.828 189.54C127.588 189.863 127.468 190.21 127.468 190.582H125.172C125.172 190.102 125.297 189.627 125.545 189.155C125.793 188.684 126.148 188.258 126.612 187.878C127.083 187.489 127.646 187.183 128.299 186.959C128.961 186.728 129.697 186.612 130.507 186.612C131.483 186.612 132.344 186.777 133.088 187.108C133.841 187.439 134.428 187.94 134.85 188.609C135.28 189.271 135.495 190.102 135.495 191.103V197.356C135.495 197.803 135.532 198.278 135.606 198.783C135.689 199.288 135.809 199.722 135.966 200.086V200.284H133.572C133.456 200.02 133.365 199.668 133.299 199.23C133.233 198.783 133.2 198.369 133.2 197.989ZM133.597 192.145L133.621 193.758H131.301C130.648 193.758 130.065 193.812 129.552 193.92C129.039 194.019 128.609 194.172 128.262 194.379C127.914 194.585 127.65 194.846 127.468 195.16C127.286 195.466 127.195 195.826 127.195 196.24C127.195 196.661 127.29 197.046 127.48 197.393C127.67 197.741 127.956 198.018 128.336 198.225C128.725 198.423 129.201 198.522 129.763 198.522C130.466 198.522 131.086 198.374 131.624 198.076C132.162 197.778 132.588 197.414 132.902 196.984C133.224 196.554 133.398 196.136 133.423 195.731L134.403 196.835C134.345 197.183 134.188 197.567 133.932 197.989C133.675 198.411 133.332 198.816 132.902 199.205C132.48 199.585 131.975 199.904 131.388 200.16C130.809 200.408 130.156 200.532 129.428 200.532C128.518 200.532 127.72 200.354 127.033 199.999C126.355 199.643 125.826 199.168 125.445 198.572C125.073 197.968 124.887 197.294 124.887 196.55C124.887 195.83 125.028 195.197 125.309 194.652C125.59 194.097 125.995 193.638 126.525 193.274C127.054 192.902 127.691 192.621 128.435 192.431C129.18 192.241 130.011 192.145 130.929 192.145H133.597ZM148.323 182.22V200.284H145.929V182.22H148.323ZM155.246 182.22V200.284H152.852V182.22H155.246Z" fill="#606060"/>
<path d="M105.781 109.996V111.943H96.7488V109.996H105.781ZM97.2202 93.8792V111.943H94.8258V93.8792H97.2202ZM107.567 105.38V105.095C107.567 104.127 107.708 103.23 107.989 102.403C108.27 101.567 108.676 100.844 109.205 100.231C109.734 99.6111 110.375 99.1314 111.128 98.7923C111.881 98.4449 112.724 98.2712 113.659 98.2712C114.602 98.2712 115.45 98.4449 116.202 98.7923C116.963 99.1314 117.609 99.6111 118.138 100.231C118.676 100.844 119.085 101.567 119.366 102.403C119.647 103.23 119.788 104.127 119.788 105.095V105.38C119.788 106.348 119.647 107.245 119.366 108.072C119.085 108.9 118.676 109.623 118.138 110.244C117.609 110.856 116.968 111.335 116.215 111.683C115.47 112.022 114.627 112.191 113.684 112.191C112.741 112.191 111.893 112.022 111.141 111.683C110.388 111.335 109.743 110.856 109.205 110.244C108.676 109.623 108.27 108.9 107.989 108.072C107.708 107.245 107.567 106.348 107.567 105.38ZM109.863 105.095V105.38C109.863 106.05 109.941 106.683 110.098 107.278C110.256 107.866 110.491 108.387 110.806 108.842C111.128 109.297 111.529 109.656 112.009 109.921C112.489 110.177 113.047 110.306 113.684 110.306C114.313 110.306 114.863 110.177 115.334 109.921C115.814 109.656 116.211 109.297 116.525 108.842C116.839 108.387 117.075 107.866 117.232 107.278C117.398 106.683 117.48 106.05 117.48 105.38V105.095C117.48 104.433 117.398 103.809 117.232 103.221C117.075 102.626 116.835 102.101 116.513 101.646C116.198 101.183 115.801 100.819 115.322 100.554C114.85 100.289 114.296 100.157 113.659 100.157C113.03 100.157 112.476 100.289 111.997 100.554C111.525 100.819 111.128 101.183 110.806 101.646C110.491 102.101 110.256 102.626 110.098 103.221C109.941 103.809 109.863 104.433 109.863 105.095ZM122.728 98.5193H125.036V113.544C125.036 114.363 124.904 115.057 124.639 115.628C124.383 116.199 123.994 116.629 123.473 116.918C122.96 117.216 122.311 117.365 121.525 117.365C121.318 117.365 121.078 117.344 120.805 117.303C120.524 117.262 120.288 117.212 120.098 117.154L120.111 115.306C120.268 115.339 120.446 115.363 120.644 115.38C120.843 115.405 121.016 115.417 121.165 115.417C121.504 115.417 121.79 115.355 122.021 115.231C122.253 115.107 122.426 114.909 122.542 114.636C122.666 114.363 122.728 113.999 122.728 113.544V98.5193ZM122.493 94.9586C122.493 94.5864 122.608 94.2721 122.84 94.0157C123.072 93.7593 123.407 93.6311 123.845 93.6311C124.292 93.6311 124.631 93.7593 124.862 94.0157C125.094 94.2721 125.21 94.5864 125.21 94.9586C125.21 95.3143 125.094 95.6203 124.862 95.8767C124.631 96.1248 124.292 96.2489 123.845 96.2489C123.407 96.2489 123.072 96.1248 122.84 95.8767C122.608 95.6203 122.493 95.3143 122.493 94.9586ZM136.661 109.648V102.738C136.661 102.208 136.554 101.749 136.338 101.36C136.132 100.963 135.817 100.657 135.396 100.442C134.974 100.227 134.453 100.12 133.832 100.12C133.253 100.12 132.745 100.219 132.306 100.418C131.876 100.616 131.537 100.877 131.289 101.199C131.049 101.522 130.929 101.869 130.929 102.241H128.634C128.634 101.762 128.758 101.286 129.006 100.815C129.254 100.343 129.61 99.9172 130.073 99.5367C130.545 99.1479 131.107 98.8419 131.76 98.6186C132.422 98.387 133.158 98.2712 133.969 98.2712C134.945 98.2712 135.805 98.4366 136.549 98.7675C137.302 99.0983 137.889 99.5987 138.311 100.269C138.741 100.93 138.956 101.762 138.956 102.762V109.015C138.956 109.462 138.994 109.938 139.068 110.442C139.151 110.947 139.271 111.381 139.428 111.745V111.943H137.033C136.917 111.679 136.826 111.327 136.76 110.889C136.694 110.442 136.661 110.029 136.661 109.648ZM137.058 103.805L137.083 105.417H134.763C134.109 105.417 133.526 105.471 133.013 105.579C132.501 105.678 132.071 105.831 131.723 106.038C131.376 106.245 131.111 106.505 130.929 106.819C130.747 107.125 130.656 107.485 130.656 107.899C130.656 108.321 130.751 108.705 130.942 109.053C131.132 109.4 131.417 109.677 131.798 109.884C132.186 110.082 132.662 110.182 133.224 110.182C133.927 110.182 134.548 110.033 135.085 109.735C135.623 109.437 136.049 109.073 136.363 108.643C136.686 108.213 136.86 107.795 136.884 107.39L137.865 108.494C137.807 108.842 137.649 109.226 137.393 109.648C137.137 110.07 136.793 110.475 136.363 110.864C135.941 111.244 135.437 111.563 134.85 111.819C134.271 112.067 133.617 112.191 132.889 112.191C131.98 112.191 131.181 112.014 130.495 111.658C129.817 111.302 129.287 110.827 128.907 110.231C128.535 109.627 128.349 108.953 128.349 108.209C128.349 107.489 128.489 106.857 128.77 106.311C129.052 105.757 129.457 105.298 129.986 104.934C130.516 104.561 131.152 104.28 131.897 104.09C132.641 103.9 133.473 103.805 134.391 103.805H137.058ZM151.785 93.8792V111.943H149.39V93.8792H151.785Z" fill="#606060"/>
<path d="M62.1814 212.59H65.9141V224.283H62.1814V212.59ZM42.6888 222.736H65.9141V227.521H42.6888V222.736ZM57.4598 210.868H57.1248C55.8593 210.868 54.6949 210.687 53.6315 210.325C52.5574 209.964 51.6269 209.437 50.84 208.746C50.053 208.055 49.4415 207.204 49.0055 206.194C48.5589 205.184 48.3356 204.025 48.3356 202.716C48.3356 201.408 48.5589 200.244 49.0055 199.223C49.4415 198.202 50.053 197.346 50.84 196.655C51.6269 195.953 52.5574 195.421 53.6315 195.06C54.6949 194.698 55.8593 194.517 57.1248 194.517H57.4598C58.7146 194.517 59.8791 194.698 60.9532 195.06C62.0166 195.421 62.9471 195.953 63.7447 196.655C64.5316 197.346 65.1431 198.197 65.5791 199.207C66.0151 200.217 66.2331 201.377 66.2331 202.685C66.2331 203.993 66.0151 205.157 65.5791 206.178C65.1431 207.188 64.5316 208.044 63.7447 208.746C62.9471 209.437 62.0166 209.964 60.9532 210.325C59.8791 210.687 58.7146 210.868 57.4598 210.868ZM57.1248 206.274H57.4598C58.1829 206.274 58.8582 206.21 59.4856 206.082C60.1131 205.955 60.666 205.753 61.1446 205.476C61.6125 205.189 61.9794 204.817 62.2452 204.359C62.5111 203.902 62.644 203.344 62.644 202.685C62.644 202.047 62.5111 201.499 62.2452 201.042C61.9794 200.584 61.6125 200.217 61.1446 199.941C60.666 199.664 60.1131 199.462 59.4856 199.335C58.8582 199.197 58.1829 199.127 57.4598 199.127H57.1248C56.423 199.127 55.7636 199.197 55.1468 199.335C54.5194 199.462 53.9664 199.67 53.4879 199.957C52.9987 200.233 52.6159 200.6 52.3394 201.058C52.0629 201.515 51.9246 202.068 51.9246 202.716C51.9246 203.365 52.0629 203.918 52.3394 204.375C52.6159 204.822 52.9987 205.189 53.4879 205.476C53.9664 205.753 54.5194 205.955 55.1468 206.082C55.7636 206.21 56.423 206.274 57.1248 206.274ZM48.6546 191.439V186.829H66.9509C68.227 186.829 69.3064 187.063 70.189 187.531C71.0717 187.999 71.7417 188.674 72.1989 189.557C72.6562 190.439 72.8848 191.508 72.8848 192.763C72.8848 193.156 72.8636 193.539 72.821 193.911C72.7785 194.294 72.7094 194.688 72.6137 195.092L69.0884 195.076C69.1309 194.821 69.1628 194.571 69.1841 194.326C69.216 194.092 69.232 193.853 69.232 193.608C69.232 193.13 69.1522 192.731 68.9927 192.412C68.8332 192.093 68.5833 191.854 68.243 191.694C67.9133 191.524 67.4826 191.439 66.9509 191.439H48.6546ZM44.1563 191.806C43.4863 191.806 42.9334 191.572 42.4973 191.104C42.0613 190.625 41.8433 189.998 41.8433 189.222C41.8433 188.435 42.0613 187.807 42.4973 187.339C42.9334 186.871 43.4863 186.637 44.1563 186.637C44.8263 186.637 45.3792 186.871 45.8152 187.339C46.2513 187.807 46.4693 188.435 46.4693 189.222C46.4693 189.998 46.2513 190.625 45.8152 191.104C45.3792 191.572 44.8263 191.806 44.1563 191.806ZM62.0219 173.86H54.3333C53.7803 173.86 53.3071 173.951 52.9136 174.132C52.5095 174.312 52.1958 174.594 51.9725 174.977C51.7492 175.349 51.6375 175.833 51.6375 176.429C51.6375 176.939 51.7279 177.38 51.9087 177.752C52.0788 178.125 52.3288 178.412 52.6584 178.614C52.9774 178.816 53.355 178.917 53.791 178.917V183.511C53.0572 183.511 52.3607 183.341 51.7013 183.001C51.042 182.66 50.4624 182.166 49.9626 181.517C49.4522 180.868 49.0534 180.097 48.7663 179.204C48.4791 178.3 48.3356 177.29 48.3356 176.173C48.3356 174.833 48.5589 173.642 49.0055 172.6C49.4522 171.558 50.1221 170.739 51.0154 170.144C51.9087 169.537 53.0253 169.234 54.3652 169.234H61.7507C62.6972 169.234 63.4735 169.176 64.0796 169.059C64.6752 168.942 65.1962 168.772 65.6429 168.549H65.9141V173.19C65.4462 173.414 64.8613 173.584 64.1594 173.701C63.4469 173.807 62.7344 173.86 62.0219 173.86ZM55.4021 173.254L58.0021 173.222V175.79C58.0021 176.397 58.0713 176.923 58.2095 177.37C58.3478 177.816 58.5445 178.183 58.7997 178.47C59.0443 178.757 59.3314 178.97 59.6611 179.108C59.9908 179.236 60.3523 179.3 60.7458 179.3C61.1393 179.3 61.4955 179.209 61.8145 179.029C62.1229 178.848 62.3675 178.587 62.5483 178.247C62.7185 177.907 62.8035 177.508 62.8035 177.051C62.8035 176.359 62.6653 175.759 62.3888 175.248C62.1123 174.738 61.772 174.344 61.3679 174.068C60.9638 173.781 60.581 173.632 60.2194 173.621L62.1655 172.409C62.6015 172.579 63.0534 172.813 63.5213 173.111C63.9893 173.398 64.4306 173.765 64.8453 174.211C65.2494 174.658 65.5844 175.195 65.8503 175.822C66.1055 176.45 66.2331 177.194 66.2331 178.056C66.2331 179.151 66.0151 180.145 65.5791 181.038C65.1324 181.921 64.521 182.623 63.7447 183.144C62.9577 183.655 62.0644 183.91 61.0648 183.91C60.1609 183.91 59.358 183.74 58.6562 183.399C57.9543 183.059 57.3641 182.559 56.8855 181.9C56.3964 181.23 56.0295 180.395 55.7849 179.395C55.5297 178.396 55.4021 177.237 55.4021 175.918V173.254ZM61.1446 156.362C60.8149 156.362 60.5172 156.457 60.2513 156.649C59.9854 156.84 59.7409 157.196 59.5175 157.717C59.2836 158.228 59.0709 158.967 58.8795 159.935C58.6881 160.807 58.4488 161.62 58.1617 162.375C57.8639 163.12 57.5077 163.768 57.0929 164.321C56.6782 164.864 56.189 165.289 55.6254 165.597C55.0511 165.906 54.3971 166.06 53.6634 166.06C52.9402 166.06 52.2596 165.906 51.6216 165.597C50.9835 165.278 50.4199 164.827 49.9307 164.242C49.4309 163.646 49.0428 162.923 48.7663 162.072C48.4791 161.211 48.3356 160.243 48.3356 159.169C48.3356 157.67 48.5748 156.383 49.0534 155.309C49.5319 154.224 50.1913 153.395 51.0314 152.82C51.8608 152.235 52.8073 151.943 53.8707 151.943V156.537C53.4241 156.537 53.0253 156.633 52.6744 156.824C52.3128 157.005 52.031 157.292 51.8289 157.686C51.6163 158.068 51.5099 158.568 51.5099 159.185C51.5099 159.695 51.6003 160.137 51.7811 160.509C51.9512 160.881 52.1852 161.168 52.4829 161.37C52.7701 161.562 53.0891 161.657 53.44 161.657C53.7059 161.657 53.9452 161.604 54.1579 161.498C54.3599 161.381 54.546 161.195 54.7162 160.94C54.8863 160.684 55.0458 160.355 55.1947 159.951C55.3329 159.536 55.4606 159.025 55.5775 158.419C55.8328 157.175 56.1677 156.064 56.5825 155.085C56.9866 154.107 57.5396 153.331 58.2414 152.757C58.9326 152.182 59.8419 151.895 60.9691 151.895C61.7348 151.895 62.4366 152.065 63.0747 152.406C63.7128 152.746 64.2711 153.235 64.7496 153.873C65.2175 154.511 65.5844 155.277 65.8503 156.17C66.1055 157.053 66.2331 158.047 66.2331 159.153C66.2331 160.759 65.946 162.12 65.3717 163.237C64.7975 164.343 64.069 165.183 63.1864 165.757C62.2931 166.321 61.3785 166.602 60.4427 166.602V162.248C61.0701 162.226 61.5753 162.067 61.9581 161.769C62.3409 161.461 62.6174 161.073 62.7876 160.605C62.9577 160.126 63.0428 159.61 63.0428 159.057C63.0428 158.462 62.963 157.967 62.8035 157.574C62.6334 157.18 62.4101 156.883 62.1336 156.681C61.8464 156.468 61.5168 156.362 61.1446 156.362Z" fill="#606060"/>
<path d="M400.981 455.41L406.452 437.033H411.78L403.692 460.259H400.183L400.981 455.41ZM395.94 437.033L401.395 455.41L402.225 460.259H398.684L390.644 437.033H395.94ZM420.904 460.578C419.564 460.578 418.362 460.365 417.299 459.94C416.236 459.504 415.332 458.903 414.587 458.137C413.854 457.372 413.29 456.484 412.896 455.473C412.503 454.452 412.306 453.368 412.306 452.219V451.581C412.306 450.273 412.492 449.077 412.865 447.992C413.237 446.907 413.768 445.966 414.46 445.169C415.162 444.371 416.012 443.76 417.012 443.334C418.012 442.898 419.139 442.68 420.394 442.68C421.617 442.68 422.701 442.882 423.648 443.286C424.594 443.691 425.386 444.265 426.025 445.009C426.673 445.754 427.162 446.647 427.492 447.689C427.822 448.721 427.987 449.869 427.987 451.135V453.049H414.268V449.986H423.472V449.635C423.472 448.997 423.355 448.428 423.121 447.928C422.898 447.418 422.558 447.014 422.1 446.716C421.643 446.418 421.058 446.269 420.346 446.269C419.74 446.269 419.219 446.402 418.783 446.668C418.347 446.934 417.99 447.306 417.714 447.785C417.448 448.263 417.246 448.827 417.108 449.476C416.98 450.114 416.916 450.816 416.916 451.581V452.219C416.916 452.91 417.012 453.549 417.203 454.133C417.405 454.718 417.687 455.223 418.049 455.649C418.421 456.074 418.868 456.404 419.389 456.638C419.92 456.872 420.521 456.989 421.191 456.989C422.021 456.989 422.792 456.829 423.504 456.51C424.227 456.181 424.849 455.686 425.37 455.027L427.604 457.451C427.242 457.972 426.748 458.472 426.12 458.951C425.503 459.429 424.759 459.823 423.887 460.131C423.015 460.429 422.021 460.578 420.904 460.578ZM435.101 446.684V460.259H430.507V442.999H434.814L435.101 446.684ZM434.431 451.023H433.187C433.187 449.747 433.352 448.598 433.681 447.577C434.011 446.546 434.473 445.669 435.069 444.945C435.664 444.212 436.372 443.653 437.191 443.271C438.02 442.877 438.945 442.68 439.966 442.68C440.774 442.68 441.513 442.797 442.183 443.031C442.853 443.265 443.428 443.637 443.906 444.148C444.395 444.658 444.767 445.334 445.023 446.174C445.289 447.014 445.421 448.04 445.421 449.252V460.259H440.796V449.236C440.796 448.471 440.689 447.875 440.477 447.45C440.264 447.024 439.95 446.727 439.535 446.557C439.131 446.376 438.631 446.285 438.036 446.285C437.419 446.285 436.882 446.408 436.425 446.652C435.978 446.897 435.606 447.237 435.308 447.673C435.021 448.098 434.803 448.598 434.654 449.173C434.505 449.747 434.431 450.364 434.431 451.023ZM459.108 456.494V435.757H463.734V460.259H459.57L459.108 456.494ZM448.197 451.836V451.501C448.197 450.183 448.346 448.986 448.644 447.912C448.941 446.828 449.377 445.897 449.952 445.121C450.526 444.345 451.233 443.744 452.073 443.318C452.913 442.893 453.87 442.68 454.944 442.68C455.955 442.68 456.837 442.893 457.592 443.318C458.358 443.744 459.007 444.35 459.538 445.137C460.081 445.913 460.517 446.833 460.847 447.896C461.176 448.949 461.415 450.103 461.564 451.358V452.092C461.415 453.293 461.176 454.41 460.847 455.441C460.517 456.473 460.081 457.377 459.538 458.153C459.007 458.919 458.358 459.514 457.592 459.94C456.827 460.365 455.933 460.578 454.913 460.578C453.839 460.578 452.881 460.36 452.041 459.924C451.212 459.488 450.51 458.876 449.936 458.089C449.372 457.302 448.941 456.377 448.644 455.314C448.346 454.25 448.197 453.091 448.197 451.836ZM452.791 451.501V451.836C452.791 452.549 452.844 453.214 452.951 453.83C453.068 454.447 453.254 454.995 453.509 455.473C453.775 455.941 454.115 456.308 454.53 456.574C454.955 456.829 455.471 456.957 456.077 456.957C456.864 456.957 457.513 456.781 458.023 456.43C458.534 456.069 458.922 455.574 459.188 454.947C459.464 454.32 459.624 453.596 459.666 452.778V450.688C459.634 450.018 459.538 449.417 459.379 448.885C459.23 448.343 459.007 447.88 458.709 447.498C458.422 447.115 458.06 446.817 457.624 446.604C457.199 446.392 456.694 446.285 456.109 446.285C455.513 446.285 455.003 446.424 454.578 446.7C454.152 446.966 453.807 447.333 453.541 447.801C453.286 448.269 453.094 448.822 452.966 449.46C452.85 450.087 452.791 450.768 452.791 451.501ZM476.638 456.367V448.678C476.638 448.125 476.548 447.652 476.367 447.258C476.186 446.854 475.905 446.541 475.522 446.317C475.15 446.094 474.666 445.982 474.07 445.982C473.56 445.982 473.118 446.073 472.746 446.253C472.374 446.424 472.087 446.673 471.885 447.003C471.683 447.322 471.582 447.7 471.582 448.136H466.988C466.988 447.402 467.158 446.705 467.498 446.046C467.839 445.387 468.333 444.807 468.982 444.307C469.63 443.797 470.401 443.398 471.295 443.111C472.199 442.824 473.209 442.68 474.325 442.68C475.665 442.68 476.856 442.904 477.899 443.35C478.941 443.797 479.76 444.467 480.355 445.36C480.961 446.253 481.264 447.37 481.264 448.71V456.095C481.264 457.042 481.323 457.818 481.44 458.424C481.557 459.02 481.727 459.541 481.95 459.988V460.259H477.308C477.085 459.791 476.915 459.206 476.798 458.504C476.692 457.792 476.638 457.079 476.638 456.367ZM477.245 449.747L477.276 452.347H474.708C474.102 452.347 473.576 452.416 473.129 452.554C472.682 452.692 472.316 452.889 472.028 453.144C471.741 453.389 471.529 453.676 471.39 454.006C471.263 454.335 471.199 454.697 471.199 455.091C471.199 455.484 471.289 455.84 471.47 456.159C471.651 456.468 471.911 456.712 472.252 456.893C472.592 457.063 472.991 457.148 473.448 457.148C474.139 457.148 474.74 457.01 475.251 456.734C475.761 456.457 476.155 456.117 476.431 455.713C476.718 455.309 476.867 454.926 476.878 454.564L478.09 456.51C477.92 456.946 477.686 457.398 477.388 457.866C477.101 458.334 476.734 458.775 476.287 459.19C475.841 459.594 475.304 459.929 474.676 460.195C474.049 460.45 473.305 460.578 472.443 460.578C471.348 460.578 470.354 460.36 469.46 459.924C468.578 459.477 467.876 458.866 467.355 458.089C466.844 457.302 466.589 456.409 466.589 455.41C466.589 454.506 466.759 453.703 467.099 453.001C467.44 452.299 467.94 451.709 468.599 451.23C469.269 450.741 470.104 450.374 471.103 450.13C472.103 449.874 473.262 449.747 474.581 449.747H477.245ZM494.137 455.489C494.137 455.16 494.041 454.862 493.85 454.596C493.659 454.33 493.302 454.086 492.781 453.862C492.271 453.628 491.532 453.416 490.564 453.224C489.692 453.033 488.879 452.794 488.123 452.506C487.379 452.209 486.73 451.852 486.177 451.438C485.635 451.023 485.21 450.534 484.901 449.97C484.593 449.396 484.439 448.742 484.439 448.008C484.439 447.285 484.593 446.604 484.901 445.966C485.22 445.328 485.672 444.765 486.257 444.275C486.853 443.776 487.576 443.387 488.427 443.111C489.288 442.824 490.256 442.68 491.33 442.68C492.829 442.68 494.116 442.92 495.19 443.398C496.275 443.877 497.104 444.536 497.678 445.376C498.263 446.206 498.556 447.152 498.556 448.215H493.962C493.962 447.769 493.866 447.37 493.675 447.019C493.494 446.658 493.207 446.376 492.813 446.174C492.43 445.961 491.931 445.855 491.314 445.855C490.803 445.855 490.362 445.945 489.99 446.126C489.618 446.296 489.33 446.53 489.128 446.828C488.937 447.115 488.841 447.434 488.841 447.785C488.841 448.051 488.894 448.29 489.001 448.503C489.118 448.705 489.304 448.891 489.559 449.061C489.814 449.231 490.144 449.391 490.548 449.539C490.963 449.678 491.473 449.805 492.079 449.922C493.324 450.177 494.435 450.512 495.413 450.927C496.392 451.331 497.168 451.884 497.742 452.586C498.316 453.277 498.604 454.187 498.604 455.314C498.604 456.08 498.433 456.781 498.093 457.419C497.753 458.057 497.264 458.616 496.626 459.094C495.988 459.562 495.222 459.929 494.329 460.195C493.446 460.45 492.452 460.578 491.346 460.578C489.74 460.578 488.379 460.291 487.262 459.716C486.156 459.142 485.316 458.414 484.742 457.531C484.178 456.638 483.896 455.723 483.896 454.787H488.251C488.272 455.415 488.432 455.92 488.73 456.303C489.038 456.686 489.426 456.962 489.894 457.132C490.373 457.302 490.888 457.388 491.441 457.388C492.037 457.388 492.531 457.308 492.925 457.148C493.318 456.978 493.616 456.755 493.818 456.478C494.031 456.191 494.137 455.862 494.137 455.489Z" fill="#606060"/>
<line x1="304.039" y1="387.128" x2="304.039" y2="68.4322" stroke="#CACACA" stroke-width="3.62984"/>
<line x1="435.24" y1="387.128" x2="435.24" y2="68.4322" stroke="#CACACA" stroke-width="3.62984"/>
<line x1="566.433" y1="387.128" x2="566.433" y2="68.4322" stroke="#CACACA" stroke-width="3.62984"/>
<line x1="697.634" y1="387.128" x2="697.634" y2="68.4322" stroke="#CACACA" stroke-width="3.62984"/>
<line x1="205.648" y1="382.876" x2="205.648" y2="366.542" stroke="#CACACA" stroke-width="3.62984"/>
<line x1="238.445" y1="382.876" x2="238.445" y2="366.542" stroke="#CACACA" stroke-width="3.62984"/>
<line x1="271.248" y1="382.876" x2="271.248" y2="366.542" stroke="#CACACA" stroke-width="3.62984"/>
<line x1="336.841" y1="381.751" x2="336.841" y2="365.417" stroke="#CACACA" stroke-width="3.62984"/>
<line x1="369.646" y1="381.751" x2="369.646" y2="365.417" stroke="#CACACA" stroke-width="3.62984"/>
<line x1="402.441" y1="381.748" x2="402.441" y2="365.414" stroke="#CACACA" stroke-width="3.62984"/>
<line x1="468.039" y1="382.874" x2="468.039" y2="366.54" stroke="#CACACA" stroke-width="3.62984"/>
<line x1="500.837" y1="382.874" x2="500.837" y2="366.54" stroke="#CACACA" stroke-width="3.62984"/>
<line x1="533.638" y1="382.874" x2="533.638" y2="366.54" stroke="#CACACA" stroke-width="3.62984"/>
<line x1="599.238" y1="382.874" x2="599.238" y2="366.54" stroke="#CACACA" stroke-width="3.62984"/>
<line x1="632.037" y1="382.874" x2="632.037" y2="366.54" stroke="#CACACA" stroke-width="3.62984"/>
<line x1="664.835" y1="382.874" x2="664.835" y2="366.54" stroke="#CACACA" stroke-width="3.62984"/>
<rect x="171.926" y="79.873" width="415.684" height="45.3666" fill="#0567FF"/>
<rect x="171.926" y="165.331" width="467.381" height="45.3666" fill="#0567FF"/>
<rect x="171.926" y="262.393" width="293.3" height="45.3666" fill="#0567FF"/>
<rect x="1.90281" y="2.38816" width="769.375" height="513.049" stroke="#0567FF" stroke-width="3.62984"/>
</svg>
