<svg width="774" height="518" viewBox="0 0 774 518" fill="none" xmlns="http://www.w3.org/2000/svg">
<line x1="171.447" y1="378.618" x2="171.447" y2="68.4584" stroke="#606060" stroke-width="3.62984"/>
<path d="M177.457 392.879V395.634C177.457 397.114 177.325 398.363 177.06 399.38C176.796 400.398 176.415 401.217 175.919 401.837C175.423 402.457 174.823 402.908 174.12 403.189C173.425 403.462 172.639 403.599 171.763 403.599C171.068 403.599 170.427 403.512 169.84 403.338C169.252 403.164 168.723 402.887 168.252 402.507C167.788 402.118 167.391 401.614 167.061 400.993C166.73 400.373 166.477 399.62 166.304 398.735C166.13 397.85 166.043 396.816 166.043 395.634V392.879C166.043 391.399 166.176 390.158 166.44 389.157C166.713 388.157 167.098 387.354 167.594 386.75C168.09 386.138 168.686 385.7 169.381 385.435C170.084 385.171 170.869 385.038 171.738 385.038C172.441 385.038 173.086 385.125 173.673 385.299C174.269 385.464 174.798 385.733 175.261 386.105C175.725 386.469 176.117 386.957 176.44 387.569C176.771 388.173 177.023 388.913 177.197 389.79C177.37 390.667 177.457 391.697 177.457 392.879ZM175.15 396.006V392.495C175.15 391.684 175.1 390.973 175.001 390.361C174.91 389.74 174.773 389.211 174.591 388.773C174.409 388.334 174.178 387.979 173.897 387.706C173.624 387.433 173.305 387.234 172.941 387.11C172.586 386.978 172.184 386.912 171.738 386.912C171.192 386.912 170.708 387.015 170.286 387.222C169.864 387.42 169.509 387.739 169.219 388.177C168.938 388.616 168.723 389.19 168.574 389.902C168.425 390.613 168.351 391.477 168.351 392.495V396.006C168.351 396.816 168.396 397.532 168.487 398.152C168.587 398.773 168.731 399.31 168.922 399.765C169.112 400.212 169.343 400.58 169.616 400.869C169.889 401.159 170.204 401.374 170.559 401.514C170.923 401.647 171.324 401.713 171.763 401.713C172.325 401.713 172.817 401.605 173.239 401.39C173.661 401.175 174.012 400.84 174.294 400.385C174.583 399.922 174.798 399.331 174.939 398.611C175.079 397.883 175.15 397.015 175.15 396.006Z" fill="#606060"/>
<path d="M332.209 401.465V403.351H320.386V401.7L326.304 395.113C327.032 394.302 327.594 393.615 327.991 393.053C328.396 392.482 328.678 391.974 328.835 391.527C329 391.072 329.083 390.609 329.083 390.137C329.083 389.542 328.959 389.004 328.711 388.525C328.471 388.037 328.115 387.648 327.644 387.358C327.172 387.069 326.602 386.924 325.932 386.924C325.129 386.924 324.459 387.081 323.922 387.396C323.392 387.702 322.995 388.132 322.731 388.686C322.466 389.24 322.334 389.877 322.334 390.597H320.038C320.038 389.579 320.262 388.649 320.708 387.805C321.155 386.961 321.817 386.291 322.693 385.795C323.57 385.291 324.65 385.038 325.932 385.038C327.073 385.038 328.049 385.241 328.86 385.646C329.67 386.043 330.29 386.606 330.721 387.334C331.159 388.053 331.378 388.897 331.378 389.865C331.378 390.394 331.287 390.932 331.105 391.477C330.931 392.015 330.687 392.553 330.373 393.09C330.067 393.628 329.707 394.157 329.294 394.678C328.888 395.199 328.454 395.712 327.991 396.217L323.152 401.465H332.209ZM337.569 394.753L335.733 394.281L336.639 385.286H345.906V387.408H338.586L338.04 392.321C338.371 392.131 338.789 391.953 339.294 391.788C339.806 391.622 340.394 391.539 341.055 391.539C341.891 391.539 342.639 391.684 343.301 391.974C343.963 392.255 344.525 392.66 344.988 393.19C345.46 393.719 345.819 394.356 346.068 395.1C346.316 395.845 346.44 396.676 346.44 397.594C346.44 398.462 346.32 399.261 346.08 399.988C345.848 400.716 345.497 401.353 345.025 401.899C344.554 402.437 343.958 402.854 343.239 403.152C342.528 403.45 341.688 403.599 340.72 403.599C339.992 403.599 339.302 403.499 338.648 403.301C338.003 403.094 337.424 402.784 336.911 402.37C336.407 401.949 335.993 401.428 335.671 400.807C335.356 400.179 335.158 399.442 335.075 398.599H337.259C337.358 399.277 337.557 399.848 337.854 400.311C338.152 400.774 338.541 401.126 339.021 401.366C339.509 401.597 340.075 401.713 340.72 401.713C341.266 401.713 341.75 401.618 342.172 401.428C342.594 401.237 342.949 400.964 343.239 400.609C343.528 400.253 343.748 399.823 343.896 399.318C344.054 398.814 344.132 398.247 344.132 397.619C344.132 397.048 344.054 396.519 343.896 396.031C343.739 395.543 343.504 395.117 343.189 394.753C342.883 394.389 342.507 394.108 342.06 393.909C341.614 393.702 341.101 393.599 340.522 393.599C339.753 393.599 339.169 393.702 338.772 393.909C338.384 394.116 337.983 394.397 337.569 394.753Z" fill="#606060"/>
<path d="M454.804 397.271V399.157H441.752V397.805L449.842 385.286H451.715L449.705 388.909L444.358 397.271H454.804ZM452.286 385.286V403.351H449.99V385.286H452.286ZM468.228 392.879V395.634C468.228 397.114 468.096 398.363 467.831 399.38C467.567 400.398 467.186 401.217 466.69 401.837C466.194 402.457 465.594 402.908 464.891 403.189C464.196 403.462 463.41 403.599 462.534 403.599C461.839 403.599 461.198 403.512 460.611 403.338C460.023 403.164 459.494 402.887 459.022 402.507C458.559 402.118 458.162 401.614 457.831 400.993C457.501 400.373 457.248 399.62 457.075 398.735C456.901 397.85 456.814 396.816 456.814 395.634V392.879C456.814 391.399 456.946 390.158 457.211 389.157C457.484 388.157 457.869 387.354 458.365 386.75C458.861 386.138 459.457 385.7 460.151 385.435C460.855 385.171 461.64 385.038 462.509 385.038C463.212 385.038 463.857 385.125 464.444 385.299C465.04 385.464 465.569 385.733 466.032 386.105C466.495 386.469 466.888 386.957 467.211 387.569C467.542 388.173 467.794 388.913 467.968 389.79C468.141 390.667 468.228 391.697 468.228 392.879ZM465.921 396.006V392.495C465.921 391.684 465.871 390.973 465.772 390.361C465.681 389.74 465.544 389.211 465.362 388.773C465.18 388.334 464.949 387.979 464.668 387.706C464.395 387.433 464.076 387.234 463.712 387.11C463.357 386.978 462.955 386.912 462.509 386.912C461.963 386.912 461.479 387.015 461.057 387.222C460.635 387.42 460.28 387.739 459.99 388.177C459.709 388.616 459.494 389.19 459.345 389.902C459.196 390.613 459.122 391.477 459.122 392.495V396.006C459.122 396.816 459.167 397.532 459.258 398.152C459.357 398.773 459.502 399.31 459.692 399.765C459.883 400.212 460.114 400.58 460.387 400.869C460.66 401.159 460.974 401.374 461.33 401.514C461.694 401.647 462.095 401.713 462.534 401.713C463.096 401.713 463.588 401.605 464.01 401.39C464.432 401.175 464.783 400.84 465.065 400.385C465.354 399.922 465.569 399.331 465.71 398.611C465.85 397.883 465.921 397.015 465.921 396.006Z" fill="#606060"/>
<path d="M567.071 394.753L565.235 394.281L566.141 385.286H575.409V387.408H568.089L567.543 392.321C567.874 392.131 568.291 391.953 568.796 391.788C569.309 391.622 569.896 391.539 570.558 391.539C571.393 391.539 572.142 391.684 572.803 391.974C573.465 392.255 574.027 392.66 574.491 393.19C574.962 393.719 575.322 394.356 575.57 395.1C575.818 395.845 575.942 396.676 575.942 397.594C575.942 398.462 575.822 399.261 575.582 399.988C575.351 400.716 574.999 401.353 574.528 401.899C574.056 402.437 573.461 402.854 572.741 403.152C572.03 403.45 571.19 403.599 570.223 403.599C569.495 403.599 568.804 403.499 568.151 403.301C567.506 403.094 566.927 402.784 566.414 402.37C565.909 401.949 565.496 401.428 565.173 400.807C564.859 400.179 564.66 399.442 564.578 398.599H566.761C566.861 399.277 567.059 399.848 567.357 400.311C567.655 400.774 568.043 401.126 568.523 401.366C569.011 401.597 569.578 401.713 570.223 401.713C570.769 401.713 571.253 401.618 571.674 401.428C572.096 401.237 572.452 400.964 572.741 400.609C573.031 400.253 573.25 399.823 573.399 399.318C573.556 398.814 573.635 398.247 573.635 397.619C573.635 397.048 573.556 396.519 573.399 396.031C573.242 395.543 573.006 395.117 572.692 394.753C572.386 394.389 572.009 394.108 571.563 393.909C571.116 393.702 570.603 393.599 570.024 393.599C569.255 393.599 568.672 393.702 568.275 393.909C567.886 394.116 567.485 394.397 567.071 394.753ZM581.364 394.753L579.528 394.281L580.433 385.286H589.701V387.408H582.381L581.835 392.321C582.166 392.131 582.584 391.953 583.088 391.788C583.601 391.622 584.189 391.539 584.85 391.539C585.686 391.539 586.434 391.684 587.096 391.974C587.758 392.255 588.32 392.66 588.783 393.19C589.255 393.719 589.614 394.356 589.863 395.1C590.111 395.845 590.235 396.676 590.235 397.594C590.235 398.462 590.115 399.261 589.875 399.988C589.643 400.716 589.292 401.353 588.82 401.899C588.349 402.437 587.753 402.854 587.034 403.152C586.322 403.45 585.483 403.599 584.515 403.599C583.787 403.599 583.097 403.499 582.443 403.301C581.798 403.094 581.219 402.784 580.706 402.37C580.202 401.949 579.788 401.428 579.466 400.807C579.151 400.179 578.953 399.442 578.87 398.599H581.054C581.153 399.277 581.352 399.848 581.649 400.311C581.947 400.774 582.336 401.126 582.816 401.366C583.304 401.597 583.87 401.713 584.515 401.713C585.061 401.713 585.545 401.618 585.967 401.428C586.389 401.237 586.744 400.964 587.034 400.609C587.323 400.253 587.542 399.823 587.691 399.318C587.849 398.814 587.927 398.247 587.927 397.619C587.927 397.048 587.849 396.519 587.691 396.031C587.534 395.543 587.298 395.117 586.984 394.753C586.678 394.389 586.302 394.108 585.855 393.909C585.409 393.702 584.896 393.599 584.317 393.599C583.548 393.599 582.964 393.702 582.567 393.909C582.179 394.116 581.778 394.397 581.364 394.753Z" fill="#606060"/>
<path d="M697.586 385.286V386.577L690.105 403.351H687.685L695.154 387.172H685.378V385.286H697.586ZM711.543 392.879V395.634C711.543 397.114 711.411 398.363 711.146 399.38C710.882 400.398 710.501 401.217 710.005 401.837C709.509 402.457 708.909 402.908 708.206 403.189C707.511 403.462 706.725 403.599 705.849 403.599C705.154 403.599 704.513 403.512 703.926 403.338C703.338 403.164 702.809 402.887 702.337 402.507C701.874 402.118 701.477 401.614 701.146 400.993C700.816 400.373 700.563 399.62 700.39 398.735C700.216 397.85 700.129 396.816 700.129 395.634V392.879C700.129 391.399 700.261 390.158 700.526 389.157C700.799 388.157 701.184 387.354 701.68 386.75C702.176 386.138 702.772 385.7 703.467 385.435C704.17 385.171 704.955 385.038 705.824 385.038C706.527 385.038 707.172 385.125 707.759 385.299C708.355 385.464 708.884 385.733 709.347 386.105C709.81 386.469 710.203 386.957 710.526 387.569C710.857 388.173 711.109 388.913 711.283 389.79C711.456 390.667 711.543 391.697 711.543 392.879ZM709.236 396.006V392.495C709.236 391.684 709.186 390.973 709.087 390.361C708.996 389.74 708.859 389.211 708.677 388.773C708.495 388.334 708.264 387.979 707.983 387.706C707.71 387.433 707.391 387.234 707.027 387.11C706.672 386.978 706.27 386.912 705.824 386.912C705.278 386.912 704.794 387.015 704.372 387.222C703.95 387.42 703.595 387.739 703.305 388.177C703.024 388.616 702.809 389.19 702.66 389.902C702.511 390.613 702.437 391.477 702.437 392.495V396.006C702.437 396.816 702.482 397.532 702.573 398.152C702.672 398.773 702.817 399.31 703.007 399.765C703.198 400.212 703.429 400.58 703.702 400.869C703.975 401.159 704.289 401.374 704.645 401.514C705.009 401.647 705.41 401.713 705.849 401.713C706.411 401.713 706.903 401.605 707.325 401.39C707.747 401.175 708.098 400.84 708.38 400.385C708.669 399.922 708.884 399.331 709.025 398.611C709.165 397.883 709.236 397.015 709.236 396.006Z" fill="#606060"/>
<path d="M97.8032 300.16V302.107H88.7712V300.16H97.8032ZM89.2426 284.043V302.107H86.8481V284.043H89.2426ZM99.5898 295.544V295.259C99.5898 294.291 99.7304 293.394 100.012 292.567C100.293 291.731 100.698 291.008 101.227 290.396C101.757 289.775 102.398 289.295 103.151 288.956C103.903 288.609 104.747 288.435 105.681 288.435C106.624 288.435 107.472 288.609 108.225 288.956C108.986 289.295 109.631 289.775 110.16 290.396C110.698 291.008 111.107 291.731 111.389 292.567C111.67 293.394 111.81 294.291 111.81 295.259V295.544C111.81 296.512 111.67 297.409 111.389 298.237C111.107 299.064 110.698 299.787 110.16 300.408C109.631 301.02 108.99 301.499 108.237 301.847C107.493 302.186 106.649 302.356 105.706 302.356C104.763 302.356 103.916 302.186 103.163 301.847C102.41 301.499 101.765 301.02 101.227 300.408C100.698 299.787 100.293 299.064 100.012 298.237C99.7304 297.409 99.5898 296.512 99.5898 295.544ZM101.885 295.259V295.544C101.885 296.214 101.964 296.847 102.121 297.443C102.278 298.03 102.514 298.551 102.828 299.006C103.151 299.461 103.552 299.82 104.031 300.085C104.511 300.342 105.069 300.47 105.706 300.47C106.335 300.47 106.885 300.342 107.356 300.085C107.836 299.82 108.233 299.461 108.547 299.006C108.862 298.551 109.097 298.03 109.255 297.443C109.42 296.847 109.503 296.214 109.503 295.544V295.259C109.503 294.597 109.42 293.973 109.255 293.386C109.097 292.79 108.858 292.265 108.535 291.81C108.221 291.347 107.824 290.983 107.344 290.718C106.873 290.453 106.318 290.321 105.681 290.321C105.053 290.321 104.499 290.453 104.019 290.718C103.548 290.983 103.151 291.347 102.828 291.81C102.514 292.265 102.278 292.79 102.121 293.386C101.964 293.973 101.885 294.597 101.885 295.259ZM114.751 288.683H117.058V303.708C117.058 304.527 116.926 305.221 116.661 305.792C116.405 306.363 116.016 306.793 115.495 307.082C114.982 307.38 114.333 307.529 113.547 307.529C113.341 307.529 113.101 307.508 112.828 307.467C112.547 307.426 112.311 307.376 112.121 307.318L112.133 305.47C112.29 305.503 112.468 305.528 112.666 305.544C112.865 305.569 113.039 305.581 113.188 305.581C113.527 305.581 113.812 305.519 114.044 305.395C114.275 305.271 114.449 305.073 114.565 304.8C114.689 304.527 114.751 304.163 114.751 303.708V288.683ZM114.515 285.123C114.515 284.75 114.631 284.436 114.862 284.18C115.094 283.923 115.429 283.795 115.867 283.795C116.314 283.795 116.653 283.923 116.885 284.18C117.116 284.436 117.232 284.75 117.232 285.123C117.232 285.478 117.116 285.784 116.885 286.041C116.653 286.289 116.314 286.413 115.867 286.413C115.429 286.413 115.094 286.289 114.862 286.041C114.631 285.784 114.515 285.478 114.515 285.123ZM128.683 299.812V292.902C128.683 292.372 128.576 291.913 128.361 291.525C128.154 291.128 127.84 290.821 127.418 290.606C126.996 290.391 126.475 290.284 125.855 290.284C125.276 290.284 124.767 290.383 124.329 290.582C123.899 290.78 123.559 291.041 123.311 291.363C123.071 291.686 122.952 292.033 122.952 292.405H120.656C120.656 291.926 120.78 291.45 121.029 290.979C121.277 290.507 121.632 290.081 122.096 289.701C122.567 289.312 123.129 289.006 123.783 288.783C124.445 288.551 125.181 288.435 125.991 288.435C126.967 288.435 127.827 288.601 128.572 288.932C129.324 289.262 129.912 289.763 130.334 290.433C130.764 291.094 130.979 291.926 130.979 292.926V299.179C130.979 299.626 131.016 300.102 131.09 300.606C131.173 301.111 131.293 301.545 131.45 301.909V302.107H129.056C128.94 301.843 128.849 301.491 128.783 301.053C128.717 300.606 128.683 300.193 128.683 299.812ZM129.08 293.969L129.105 295.582H126.785C126.132 295.582 125.549 295.635 125.036 295.743C124.523 295.842 124.093 295.995 123.746 296.202C123.398 296.409 123.134 296.669 122.952 296.983C122.77 297.289 122.679 297.649 122.679 298.063C122.679 298.485 122.774 298.869 122.964 299.217C123.154 299.564 123.44 299.841 123.82 300.048C124.209 300.246 124.684 300.346 125.247 300.346C125.95 300.346 126.57 300.197 127.108 299.899C127.645 299.601 128.071 299.237 128.386 298.807C128.708 298.377 128.882 297.959 128.907 297.554L129.887 298.658C129.829 299.006 129.672 299.39 129.415 299.812C129.159 300.234 128.816 300.639 128.386 301.028C127.964 301.409 127.459 301.727 126.872 301.983C126.293 302.231 125.64 302.356 124.912 302.356C124.002 302.356 123.204 302.178 122.517 301.822C121.839 301.466 121.31 300.991 120.929 300.395C120.557 299.792 120.371 299.117 120.371 298.373C120.371 297.653 120.512 297.021 120.793 296.475C121.074 295.921 121.479 295.462 122.009 295.098C122.538 294.725 123.175 294.444 123.919 294.254C124.664 294.064 125.495 293.969 126.413 293.969H129.08ZM143.807 284.043V302.107H141.413V284.043H143.807ZM150.73 284.043V302.107H148.336V284.043H150.73ZM157.653 284.043V302.107H155.259V284.043H157.653Z" fill="#606060"/>
<path d="M101.265 204.668V206.616H92.2326V204.668H101.265ZM92.7041 188.552V206.616H90.3096V188.552H92.7041ZM103.051 200.053V199.768C103.051 198.8 103.192 197.903 103.473 197.075C103.754 196.24 104.16 195.516 104.689 194.904C105.218 194.284 105.859 193.804 106.612 193.465C107.365 193.118 108.208 192.944 109.143 192.944C110.086 192.944 110.934 193.118 111.686 193.465C112.447 193.804 113.092 194.284 113.622 194.904C114.159 195.516 114.569 196.24 114.85 197.075C115.131 197.903 115.272 198.8 115.272 199.768V200.053C115.272 201.021 115.131 201.918 114.85 202.745C114.569 203.572 114.159 204.296 113.622 204.916C113.092 205.529 112.451 206.008 111.699 206.356C110.954 206.695 110.111 206.864 109.168 206.864C108.225 206.864 107.377 206.695 106.624 206.356C105.872 206.008 105.227 205.529 104.689 204.916C104.16 204.296 103.754 203.572 103.473 202.745C103.192 201.918 103.051 201.021 103.051 200.053ZM105.346 199.768V200.053C105.346 200.723 105.425 201.356 105.582 201.951C105.739 202.539 105.975 203.06 106.289 203.515C106.612 203.969 107.013 204.329 107.493 204.594C107.973 204.85 108.531 204.979 109.168 204.979C109.796 204.979 110.346 204.85 110.818 204.594C111.298 204.329 111.695 203.969 112.009 203.515C112.323 203.06 112.559 202.539 112.716 201.951C112.881 201.356 112.964 200.723 112.964 200.053V199.768C112.964 199.106 112.881 198.482 112.716 197.894C112.559 197.299 112.319 196.774 111.996 196.319C111.682 195.855 111.285 195.492 110.805 195.227C110.334 194.962 109.78 194.83 109.143 194.83C108.514 194.83 107.96 194.962 107.48 195.227C107.009 195.492 106.612 195.855 106.289 196.319C105.975 196.774 105.739 197.299 105.582 197.894C105.425 198.482 105.346 199.106 105.346 199.768ZM118.212 193.192H120.52V208.217C120.52 209.036 120.388 209.73 120.123 210.301C119.866 210.872 119.478 211.302 118.957 211.591C118.444 211.889 117.795 212.038 117.009 212.038C116.802 212.038 116.562 212.017 116.289 211.976C116.008 211.935 115.772 211.885 115.582 211.827L115.594 209.978C115.752 210.012 115.929 210.036 116.128 210.053C116.326 210.078 116.5 210.09 116.649 210.09C116.988 210.09 117.273 210.028 117.505 209.904C117.737 209.78 117.91 209.581 118.026 209.308C118.15 209.036 118.212 208.672 118.212 208.217V193.192ZM117.976 189.631C117.976 189.259 118.092 188.945 118.324 188.689C118.555 188.432 118.89 188.304 119.329 188.304C119.775 188.304 120.115 188.432 120.346 188.689C120.578 188.945 120.694 189.259 120.694 189.631C120.694 189.987 120.578 190.293 120.346 190.55C120.115 190.798 119.775 190.922 119.329 190.922C118.89 190.922 118.555 190.798 118.324 190.55C118.092 190.293 117.976 189.987 117.976 189.631ZM132.145 204.321V197.41C132.145 196.881 132.037 196.422 131.822 196.033C131.616 195.636 131.301 195.33 130.879 195.115C130.458 194.9 129.937 194.793 129.316 194.793C128.737 194.793 128.229 194.892 127.79 195.09C127.36 195.289 127.021 195.549 126.773 195.872C126.533 196.195 126.413 196.542 126.413 196.914H124.118C124.118 196.434 124.242 195.959 124.49 195.487C124.738 195.016 125.094 194.59 125.557 194.21C126.028 193.821 126.591 193.515 127.244 193.291C127.906 193.06 128.642 192.944 129.453 192.944C130.429 192.944 131.289 193.109 132.033 193.44C132.786 193.771 133.373 194.272 133.795 194.942C134.225 195.603 134.44 196.434 134.44 197.435V203.688C134.44 204.135 134.477 204.61 134.552 205.115C134.635 205.62 134.754 206.054 134.912 206.418V206.616H132.517C132.401 206.352 132.31 206 132.244 205.562C132.178 205.115 132.145 204.701 132.145 204.321ZM132.542 198.477L132.567 200.09H130.247C129.593 200.09 129.01 200.144 128.497 200.252C127.985 200.351 127.554 200.504 127.207 200.711C126.86 200.917 126.595 201.178 126.413 201.492C126.231 201.798 126.14 202.158 126.14 202.572C126.14 202.993 126.235 203.378 126.425 203.725C126.616 204.073 126.901 204.35 127.281 204.557C127.67 204.755 128.146 204.854 128.708 204.854C129.411 204.854 130.032 204.706 130.569 204.408C131.107 204.11 131.533 203.746 131.847 203.316C132.17 202.886 132.343 202.468 132.368 202.063L133.348 203.167C133.29 203.515 133.133 203.899 132.877 204.321C132.621 204.743 132.277 205.148 131.847 205.537C131.425 205.917 130.921 206.236 130.334 206.492C129.755 206.74 129.101 206.864 128.373 206.864C127.463 206.864 126.665 206.687 125.979 206.331C125.301 205.975 124.771 205.5 124.391 204.904C124.019 204.3 123.832 203.626 123.832 202.882C123.832 202.162 123.973 201.529 124.254 200.984C124.535 200.429 124.941 199.97 125.47 199.606C125.999 199.234 126.636 198.953 127.381 198.763C128.125 198.573 128.956 198.477 129.874 198.477H132.542ZM147.269 188.552V206.616H144.874V188.552H147.269ZM154.192 188.552V206.616H151.797V188.552H154.192Z" fill="#606060"/>
<path d="M104.726 112.648V114.596H95.6941V112.648H104.726ZM96.1656 96.5316V114.596H93.7711V96.5316H96.1656ZM106.513 108.033V107.747C106.513 106.779 106.653 105.882 106.935 105.055C107.216 104.22 107.621 103.496 108.15 102.884C108.68 102.263 109.321 101.784 110.073 101.445C110.826 101.097 111.67 100.924 112.604 100.924C113.547 100.924 114.395 101.097 115.148 101.445C115.909 101.784 116.554 102.263 117.083 102.884C117.621 103.496 118.03 104.22 118.311 105.055C118.593 105.882 118.733 106.779 118.733 107.747V108.033C118.733 109 118.593 109.898 118.311 110.725C118.03 111.552 117.621 112.276 117.083 112.896C116.554 113.508 115.913 113.988 115.16 114.335C114.416 114.674 113.572 114.844 112.629 114.844C111.686 114.844 110.839 114.674 110.086 114.335C109.333 113.988 108.688 113.508 108.15 112.896C107.621 112.276 107.216 111.552 106.935 110.725C106.653 109.898 106.513 109 106.513 108.033ZM108.808 107.747V108.033C108.808 108.703 108.887 109.335 109.044 109.931C109.201 110.518 109.437 111.039 109.751 111.494C110.073 111.949 110.475 112.309 110.954 112.573C111.434 112.83 111.992 112.958 112.629 112.958C113.258 112.958 113.808 112.83 114.279 112.573C114.759 112.309 115.156 111.949 115.47 111.494C115.785 111.039 116.02 110.518 116.178 109.931C116.343 109.335 116.426 108.703 116.426 108.033V107.747C116.426 107.086 116.343 106.461 116.178 105.874C116.02 105.278 115.781 104.753 115.458 104.298C115.144 103.835 114.747 103.471 114.267 103.206C113.795 102.942 113.241 102.809 112.604 102.809C111.976 102.809 111.422 102.942 110.942 103.206C110.47 103.471 110.073 103.835 109.751 104.298C109.437 104.753 109.201 105.278 109.044 105.874C108.887 106.461 108.808 107.086 108.808 107.747ZM121.674 101.172H123.981V116.196C123.981 117.015 123.849 117.71 123.584 118.28C123.328 118.851 122.939 119.281 122.418 119.571C121.905 119.869 121.256 120.017 120.47 120.017C120.263 120.017 120.024 119.997 119.751 119.955C119.469 119.914 119.234 119.864 119.043 119.807L119.056 117.958C119.213 117.991 119.391 118.016 119.589 118.032C119.788 118.057 119.962 118.07 120.11 118.07C120.45 118.07 120.735 118.008 120.966 117.883C121.198 117.759 121.372 117.561 121.488 117.288C121.612 117.015 121.674 116.651 121.674 116.196V101.172ZM121.438 97.611C121.438 97.2388 121.554 96.9245 121.785 96.6681C122.017 96.4117 122.352 96.2834 122.79 96.2834C123.237 96.2834 123.576 96.4117 123.808 96.6681C124.039 96.9245 124.155 97.2388 124.155 97.611C124.155 97.9666 124.039 98.2727 123.808 98.5291C123.576 98.7772 123.237 98.9013 122.79 98.9013C122.352 98.9013 122.017 98.7772 121.785 98.5291C121.554 98.2727 121.438 97.9666 121.438 97.611ZM135.606 112.3V105.39C135.606 104.861 135.499 104.402 135.284 104.013C135.077 103.616 134.763 103.31 134.341 103.095C133.919 102.88 133.398 102.772 132.778 102.772C132.199 102.772 131.69 102.871 131.252 103.07C130.822 103.268 130.482 103.529 130.234 103.852C129.994 104.174 129.874 104.521 129.874 104.894H127.579C127.579 104.414 127.703 103.938 127.951 103.467C128.2 102.995 128.555 102.569 129.018 102.189C129.49 101.8 130.052 101.494 130.706 101.271C131.367 101.039 132.104 100.924 132.914 100.924C133.89 100.924 134.75 101.089 135.495 101.42C136.247 101.751 136.835 102.251 137.256 102.921C137.687 103.583 137.902 104.414 137.902 105.415V111.668C137.902 112.114 137.939 112.59 138.013 113.094C138.096 113.599 138.216 114.033 138.373 114.397V114.596H135.979C135.863 114.331 135.772 113.98 135.706 113.541C135.639 113.094 135.606 112.681 135.606 112.3ZM136.003 106.457L136.028 108.07H133.708C133.055 108.07 132.472 108.124 131.959 108.231C131.446 108.33 131.016 108.483 130.669 108.69C130.321 108.897 130.056 109.157 129.874 109.472C129.693 109.778 129.602 110.138 129.602 110.551C129.602 110.973 129.697 111.358 129.887 111.705C130.077 112.052 130.362 112.329 130.743 112.536C131.132 112.735 131.607 112.834 132.17 112.834C132.873 112.834 133.493 112.685 134.031 112.387C134.568 112.09 134.994 111.726 135.309 111.296C135.631 110.865 135.805 110.448 135.83 110.042L136.81 111.147C136.752 111.494 136.595 111.879 136.338 112.3C136.082 112.722 135.739 113.128 135.309 113.516C134.887 113.897 134.382 114.215 133.795 114.472C133.216 114.72 132.563 114.844 131.835 114.844C130.925 114.844 130.127 114.666 129.44 114.31C128.762 113.955 128.233 113.479 127.852 112.884C127.48 112.28 127.294 111.606 127.294 110.861C127.294 110.142 127.435 109.509 127.716 108.963C127.997 108.409 128.402 107.95 128.932 107.586C129.461 107.214 130.098 106.933 130.842 106.742C131.587 106.552 132.418 106.457 133.336 106.457H136.003ZM150.73 96.5316V114.596H148.336V96.5316H150.73Z" fill="#606060"/>
<path d="M52.1267 220.285H55.8594V231.977H52.1267V220.285ZM32.6341 230.43H55.8594V235.215H32.6341V230.43ZM47.4051 218.562H47.0701C45.8046 218.562 44.6402 218.381 43.5768 218.02C42.5027 217.658 41.5722 217.132 40.7853 216.44C39.9983 215.749 39.3869 214.899 38.9508 213.888C38.5042 212.878 38.2809 211.719 38.2809 210.411C38.2809 209.103 38.5042 207.938 38.9508 206.917C39.3869 205.897 39.9983 205.041 40.7853 204.349C41.5722 203.647 42.5027 203.116 43.5768 202.754C44.6402 202.393 45.8046 202.212 47.0701 202.212H47.4051C48.66 202.212 49.8244 202.393 50.8985 202.754C51.9619 203.116 52.8924 203.647 53.69 204.349C54.4769 205.041 55.0884 205.891 55.5244 206.902C55.9604 207.912 56.1784 209.071 56.1784 210.379C56.1784 211.687 55.9604 212.851 55.5244 213.872C55.0884 214.883 54.4769 215.739 53.69 216.44C52.8924 217.132 51.9619 217.658 50.8985 218.02C49.8244 218.381 48.66 218.562 47.4051 218.562ZM47.0701 213.968H47.4051C48.1282 213.968 48.8035 213.904 49.4309 213.777C50.0584 213.649 50.6114 213.447 51.0899 213.17C51.5578 212.883 51.9247 212.511 52.1905 212.054C52.4564 211.597 52.5893 211.038 52.5893 210.379C52.5893 209.741 52.4564 209.193 52.1905 208.736C51.9247 208.279 51.5578 207.912 51.0899 207.635C50.6114 207.359 50.0584 207.157 49.4309 207.029C48.8035 206.891 48.1282 206.822 47.4051 206.822H47.0701C46.3683 206.822 45.7089 206.891 45.0922 207.029C44.4647 207.157 43.9117 207.364 43.4332 207.651C42.944 207.928 42.5612 208.295 42.2847 208.752C42.0082 209.209 41.87 209.762 41.87 210.411C41.87 211.06 42.0082 211.613 42.2847 212.07C42.5612 212.516 42.944 212.883 43.4332 213.17C43.9117 213.447 44.4647 213.649 45.0922 213.777C45.7089 213.904 46.3683 213.968 47.0701 213.968ZM38.5999 199.133V194.523H56.8962C58.1723 194.523 59.2517 194.757 60.1344 195.225C61.017 195.693 61.687 196.368 62.1442 197.251C62.6015 198.134 62.8302 199.202 62.8302 200.457C62.8302 200.851 62.8089 201.233 62.7663 201.606C62.7238 201.988 62.6547 202.382 62.559 202.786L59.0337 202.77C59.0762 202.515 59.1082 202.265 59.1294 202.02C59.1613 201.786 59.1773 201.547 59.1773 201.303C59.1773 200.824 59.0975 200.425 58.938 200.106C58.7785 199.787 58.5286 199.548 58.1883 199.388C57.8586 199.218 57.4279 199.133 56.8962 199.133H38.5999ZM34.1016 199.5C33.4316 199.5 32.8787 199.266 32.4427 198.798C32.0067 198.32 31.7886 197.692 31.7886 196.916C31.7886 196.129 32.0067 195.502 32.4427 195.034C32.8787 194.566 33.4316 194.332 34.1016 194.332C34.7716 194.332 35.3246 194.566 35.7606 195.034C36.1966 195.502 36.4146 196.129 36.4146 196.916C36.4146 197.692 36.1966 198.32 35.7606 198.798C35.3246 199.266 34.7716 199.5 34.1016 199.5ZM51.9672 181.555H44.2786C43.7256 181.555 43.2524 181.645 42.859 181.826C42.4548 182.007 42.1411 182.288 41.9178 182.671C41.6945 183.043 41.5828 183.527 41.5828 184.123C41.5828 184.633 41.6732 185.075 41.854 185.447C42.0242 185.819 42.2741 186.106 42.6037 186.308C42.9228 186.51 43.3003 186.611 43.7363 186.611V191.205C43.0025 191.205 42.306 191.035 41.6466 190.695C40.9873 190.355 40.4077 189.86 39.9079 189.211C39.3975 188.563 38.9987 187.792 38.7116 186.898C38.4244 185.994 38.2809 184.984 38.2809 183.868C38.2809 182.528 38.5042 181.337 38.9508 180.295C39.3975 179.252 40.0674 178.434 40.9607 177.838C41.854 177.232 42.9706 176.929 44.3105 176.929H51.696C52.6425 176.929 53.4188 176.87 54.025 176.753C54.6205 176.636 55.1416 176.466 55.5882 176.243H55.8594V180.885C55.3915 181.108 54.8066 181.278 54.1047 181.395C53.3922 181.502 52.6797 181.555 51.9672 181.555ZM45.3474 180.949L47.9475 180.917V183.485C47.9475 184.091 48.0166 184.617 48.1548 185.064C48.2931 185.511 48.4898 185.878 48.745 186.165C48.9896 186.452 49.2767 186.664 49.6064 186.803C49.9361 186.93 50.2976 186.994 50.6911 186.994C51.0846 186.994 51.4408 186.904 51.7599 186.723C52.0682 186.542 52.3128 186.282 52.4936 185.941C52.6638 185.601 52.7488 185.202 52.7488 184.745C52.7488 184.054 52.6106 183.453 52.3341 182.942C52.0576 182.432 51.7173 182.039 51.3132 181.762C50.9091 181.475 50.5263 181.326 50.1647 181.315L52.1108 180.103C52.5468 180.273 52.9987 180.507 53.4667 180.805C53.9346 181.092 54.3759 181.459 54.7906 181.906C55.1947 182.352 55.5297 182.889 55.7956 183.517C56.0508 184.144 56.1784 184.889 56.1784 185.75C56.1784 186.845 55.9604 187.84 55.5244 188.733C55.0778 189.615 54.4663 190.317 53.69 190.838C52.903 191.349 52.0098 191.604 51.0101 191.604C50.1062 191.604 49.3033 191.434 48.6015 191.094C47.8996 190.753 47.3094 190.254 46.8309 189.594C46.3417 188.924 45.9748 188.089 45.7302 187.09C45.475 186.09 45.3474 184.931 45.3474 183.612V180.949ZM51.0899 164.056C50.7602 164.056 50.4625 164.152 50.1966 164.343C49.9308 164.534 49.6862 164.891 49.4628 165.412C49.2289 165.922 49.0162 166.661 48.8248 167.629C48.6334 168.501 48.3941 169.315 48.107 170.07C47.8092 170.814 47.453 171.463 47.0382 172.016C46.6235 172.558 46.1343 172.983 45.5707 173.292C44.9964 173.6 44.3424 173.754 43.6087 173.754C42.8855 173.754 42.2049 173.6 41.5669 173.292C40.9288 172.973 40.3652 172.521 39.876 171.936C39.3762 171.34 38.9881 170.617 38.7116 169.767C38.4244 168.905 38.2809 167.937 38.2809 166.863C38.2809 165.364 38.5202 164.077 38.9987 163.003C39.4772 161.918 40.1366 161.089 40.9767 160.515C41.8062 159.93 42.7526 159.637 43.816 159.637V164.231C43.3694 164.231 42.9706 164.327 42.6197 164.519C42.2581 164.699 41.9763 164.986 41.7743 165.38C41.5616 165.763 41.4552 166.263 41.4552 166.879C41.4552 167.39 41.5456 167.831 41.7264 168.203C41.8965 168.576 42.1305 168.863 42.4283 169.065C42.7154 169.256 43.0344 169.352 43.3853 169.352C43.6512 169.352 43.8905 169.299 44.1032 169.192C44.3052 169.075 44.4913 168.889 44.6615 168.634C44.8316 168.379 44.9911 168.049 45.14 167.645C45.2783 167.23 45.4059 166.72 45.5228 166.114C45.7781 164.869 46.113 163.758 46.5278 162.78C46.9319 161.801 47.4849 161.025 48.1867 160.451C48.878 159.877 49.7872 159.59 50.9144 159.59C51.6801 159.59 52.382 159.76 53.02 160.1C53.6581 160.44 54.2164 160.929 54.6949 161.568C55.1628 162.206 55.5297 162.971 55.7956 163.865C56.0508 164.747 56.1784 165.741 56.1784 166.847C56.1784 168.453 55.8913 169.814 55.317 170.931C54.7428 172.037 54.0143 172.877 53.1317 173.451C52.2384 174.015 51.3238 174.297 50.388 174.297V169.942C51.0155 169.921 51.5206 169.761 51.9034 169.463C52.2863 169.155 52.5627 168.767 52.7329 168.299C52.903 167.82 52.9881 167.305 52.9881 166.752C52.9881 166.156 52.9084 165.662 52.7488 165.268C52.5787 164.875 52.3554 164.577 52.0789 164.375C51.7918 164.162 51.4621 164.056 51.0899 164.056Z" fill="#606060"/>
<path d="M429.187 444.058L434.658 425.682H439.986L431.898 448.907H428.389L429.187 444.058ZM424.146 425.682L429.601 444.058L430.431 448.907H426.89L418.85 425.682H424.146ZM449.11 449.226C447.77 449.226 446.568 449.014 445.505 448.588C444.442 448.152 443.538 447.551 442.793 446.786C442.059 446.02 441.496 445.132 441.102 444.122C440.709 443.101 440.512 442.016 440.512 440.868V440.23C440.512 438.922 440.698 437.725 441.07 436.641C441.443 435.556 441.974 434.615 442.666 433.817C443.367 433.02 444.218 432.408 445.218 431.983C446.217 431.547 447.345 431.329 448.6 431.329C449.822 431.329 450.907 431.531 451.854 431.935C452.8 432.339 453.592 432.913 454.23 433.658C454.879 434.402 455.368 435.295 455.698 436.337C456.028 437.369 456.192 438.518 456.192 439.783V441.697H442.474V438.634H451.678V438.284C451.678 437.646 451.561 437.077 451.327 436.577C451.104 436.066 450.764 435.662 450.306 435.364C449.849 435.067 449.264 434.918 448.552 434.918C447.946 434.918 447.424 435.051 446.988 435.317C446.552 435.582 446.196 435.955 445.92 436.433C445.654 436.912 445.452 437.475 445.314 438.124C445.186 438.762 445.122 439.464 445.122 440.23V440.868C445.122 441.559 445.218 442.197 445.409 442.782C445.611 443.367 445.893 443.872 446.255 444.297C446.627 444.723 447.074 445.052 447.595 445.286C448.126 445.52 448.727 445.637 449.397 445.637C450.227 445.637 450.998 445.478 451.71 445.159C452.433 444.829 453.055 444.334 453.576 443.675L455.81 446.1C455.448 446.621 454.954 447.121 454.326 447.599C453.709 448.078 452.965 448.471 452.093 448.78C451.221 449.077 450.227 449.226 449.11 449.226ZM463.307 435.333V448.907H458.713V431.648H463.02L463.307 435.333ZM462.637 439.671H461.393C461.393 438.395 461.557 437.247 461.887 436.226C462.217 435.194 462.679 434.317 463.275 433.594C463.87 432.86 464.578 432.302 465.396 431.919C466.226 431.525 467.151 431.329 468.172 431.329C468.98 431.329 469.719 431.446 470.389 431.68C471.059 431.914 471.633 432.286 472.112 432.796C472.601 433.307 472.973 433.982 473.229 434.822C473.494 435.662 473.627 436.688 473.627 437.901V448.907H469.001V437.885C469.001 437.119 468.895 436.524 468.682 436.098C468.47 435.673 468.156 435.375 467.741 435.205C467.337 435.024 466.837 434.934 466.242 434.934C465.625 434.934 465.088 435.056 464.631 435.301C464.184 435.545 463.812 435.886 463.514 436.322C463.227 436.747 463.009 437.247 462.86 437.821C462.711 438.395 462.637 439.012 462.637 439.671ZM487.314 445.143V424.406H491.94V448.907H487.776L487.314 445.143ZM476.403 440.485V440.15C476.403 438.831 476.552 437.635 476.85 436.561C477.147 435.476 477.583 434.546 478.158 433.769C478.732 432.993 479.439 432.392 480.279 431.967C481.119 431.541 482.076 431.329 483.15 431.329C484.161 431.329 485.043 431.541 485.798 431.967C486.564 432.392 487.213 432.998 487.744 433.785C488.287 434.562 488.723 435.481 489.052 436.545C489.382 437.598 489.621 438.751 489.77 440.006V440.74C489.621 441.942 489.382 443.058 489.052 444.09C488.723 445.121 488.287 446.025 487.744 446.802C487.213 447.567 486.564 448.163 485.798 448.588C485.033 449.014 484.139 449.226 483.118 449.226C482.044 449.226 481.087 449.008 480.247 448.572C479.418 448.136 478.716 447.525 478.142 446.738C477.578 445.951 477.147 445.026 476.85 443.962C476.552 442.899 476.403 441.74 476.403 440.485ZM480.997 440.15V440.485C480.997 441.197 481.05 441.862 481.156 442.479C481.273 443.096 481.459 443.643 481.715 444.122C481.981 444.59 482.321 444.957 482.736 445.222C483.161 445.478 483.677 445.605 484.283 445.605C485.07 445.605 485.719 445.43 486.229 445.079C486.739 444.717 487.128 444.223 487.393 443.595C487.67 442.968 487.829 442.245 487.872 441.426V439.336C487.84 438.666 487.744 438.066 487.585 437.534C487.436 436.991 487.213 436.529 486.915 436.146C486.628 435.763 486.266 435.465 485.83 435.253C485.405 435.04 484.9 434.934 484.315 434.934C483.719 434.934 483.209 435.072 482.783 435.349C482.358 435.614 482.012 435.981 481.747 436.449C481.491 436.917 481.3 437.47 481.172 438.108C481.055 438.736 480.997 439.416 480.997 440.15ZM504.844 445.015V437.326C504.844 436.773 504.754 436.3 504.573 435.907C504.392 435.503 504.111 435.189 503.728 434.966C503.356 434.742 502.872 434.631 502.276 434.631C501.766 434.631 501.324 434.721 500.952 434.902C500.58 435.072 500.293 435.322 500.091 435.652C499.889 435.971 499.788 436.348 499.788 436.784H495.194C495.194 436.05 495.364 435.354 495.704 434.694C496.044 434.035 496.539 433.456 497.188 432.956C497.836 432.445 498.607 432.047 499.501 431.759C500.404 431.472 501.415 431.329 502.531 431.329C503.871 431.329 505.062 431.552 506.104 431.999C507.147 432.445 507.965 433.115 508.561 434.009C509.167 434.902 509.47 436.018 509.47 437.358V444.744C509.47 445.69 509.529 446.467 509.646 447.073C509.763 447.668 509.933 448.189 510.156 448.636V448.907H505.514C505.291 448.439 505.121 447.854 505.004 447.153C504.897 446.44 504.844 445.728 504.844 445.015ZM505.45 438.395L505.482 440.995H502.914C502.308 440.995 501.782 441.064 501.335 441.203C500.888 441.341 500.521 441.538 500.234 441.793C499.947 442.037 499.735 442.325 499.596 442.654C499.469 442.984 499.405 443.345 499.405 443.739C499.405 444.132 499.495 444.489 499.676 444.808C499.857 445.116 500.117 445.361 500.458 445.541C500.798 445.712 501.197 445.797 501.654 445.797C502.345 445.797 502.946 445.658 503.457 445.382C503.967 445.105 504.36 444.765 504.637 444.361C504.924 443.957 505.073 443.574 505.084 443.213L506.296 445.159C506.126 445.595 505.892 446.047 505.594 446.515C505.307 446.982 504.94 447.424 504.493 447.838C504.047 448.243 503.51 448.578 502.882 448.843C502.255 449.099 501.51 449.226 500.649 449.226C499.554 449.226 498.559 449.008 497.666 448.572C496.784 448.126 496.082 447.514 495.561 446.738C495.05 445.951 494.795 445.058 494.795 444.058C494.795 443.154 494.965 442.351 495.305 441.649C495.646 440.947 496.145 440.357 496.805 439.879C497.475 439.39 498.31 439.023 499.309 438.778C500.309 438.523 501.468 438.395 502.787 438.395H505.45ZM522.343 444.138C522.343 443.808 522.247 443.51 522.056 443.244C521.864 442.979 521.508 442.734 520.987 442.511C520.477 442.277 519.738 442.064 518.77 441.873C517.898 441.681 517.084 441.442 516.329 441.155C515.585 440.857 514.936 440.501 514.383 440.086C513.841 439.671 513.416 439.182 513.107 438.619C512.799 438.044 512.645 437.39 512.645 436.657C512.645 435.933 512.799 435.253 513.107 434.615C513.426 433.977 513.878 433.413 514.463 432.924C515.059 432.424 515.782 432.036 516.632 431.759C517.494 431.472 518.462 431.329 519.536 431.329C521.035 431.329 522.322 431.568 523.396 432.047C524.481 432.525 525.31 433.184 525.884 434.025C526.469 434.854 526.762 435.8 526.762 436.864H522.168C522.168 436.417 522.072 436.018 521.88 435.668C521.7 435.306 521.413 435.024 521.019 434.822C520.636 434.609 520.136 434.503 519.52 434.503C519.009 434.503 518.568 434.593 518.196 434.774C517.823 434.944 517.536 435.178 517.334 435.476C517.143 435.763 517.047 436.082 517.047 436.433C517.047 436.699 517.1 436.938 517.207 437.151C517.324 437.353 517.51 437.539 517.765 437.709C518.02 437.879 518.35 438.039 518.754 438.188C519.169 438.326 519.679 438.454 520.285 438.571C521.53 438.826 522.641 439.161 523.619 439.576C524.598 439.98 525.374 440.533 525.948 441.235C526.522 441.926 526.809 442.835 526.809 443.962C526.809 444.728 526.639 445.43 526.299 446.068C525.959 446.706 525.47 447.264 524.831 447.743C524.193 448.211 523.428 448.578 522.534 448.843C521.652 449.099 520.658 449.226 519.552 449.226C517.946 449.226 516.585 448.939 515.468 448.365C514.362 447.791 513.522 447.062 512.948 446.18C512.384 445.286 512.102 444.372 512.102 443.436H516.457C516.478 444.063 516.638 444.568 516.936 444.951C517.244 445.334 517.632 445.611 518.1 445.781C518.578 445.951 519.094 446.036 519.647 446.036C520.243 446.036 520.737 445.956 521.131 445.797C521.524 445.627 521.822 445.403 522.024 445.127C522.237 444.84 522.343 444.51 522.343 444.138Z" fill="#606060"/>
<line x1="333.498" y1="378.62" x2="333.498" y2="68.4685" stroke="#CACACA" stroke-width="3.62984"/>
<path d="M292.993 401.464V403.35H281.169V401.7L287.087 395.112C287.815 394.301 288.377 393.615 288.774 393.052C289.18 392.481 289.461 391.973 289.618 391.526C289.783 391.071 289.866 390.608 289.866 390.136C289.866 389.541 289.742 389.003 289.494 388.524C289.254 388.036 288.898 387.647 288.427 387.357C287.955 387.068 287.385 386.923 286.715 386.923C285.912 386.923 285.243 387.08 284.705 387.395C284.176 387.701 283.779 388.131 283.514 388.685C283.249 389.239 283.117 389.876 283.117 390.596H280.822C280.822 389.578 281.045 388.648 281.492 387.804C281.938 386.96 282.6 386.29 283.477 385.794C284.353 385.29 285.433 385.037 286.715 385.037C287.856 385.037 288.832 385.24 289.643 385.645C290.453 386.042 291.074 386.605 291.504 387.333C291.942 388.052 292.161 388.896 292.161 389.864C292.161 390.393 292.07 390.931 291.888 391.476C291.715 392.014 291.471 392.552 291.156 393.089C290.85 393.627 290.491 394.156 290.077 394.677C289.672 395.198 289.237 395.711 288.774 396.216L283.936 401.464H292.993ZM306.789 392.878V395.633C306.789 397.113 306.656 398.362 306.392 399.379C306.127 400.397 305.747 401.216 305.25 401.836C304.754 402.456 304.154 402.907 303.451 403.188C302.757 403.461 301.971 403.598 301.094 403.598C300.399 403.598 299.758 403.511 299.171 403.337C298.584 403.164 298.054 402.886 297.583 402.506C297.12 402.117 296.723 401.613 296.392 400.992C296.061 400.372 295.809 399.619 295.635 398.734C295.461 397.849 295.375 396.815 295.375 395.633V392.878C295.375 391.398 295.507 390.157 295.772 389.156C296.045 388.156 296.429 387.353 296.925 386.749C297.422 386.137 298.017 385.699 298.712 385.434C299.415 385.17 300.201 385.037 301.069 385.037C301.772 385.037 302.417 385.124 303.005 385.298C303.6 385.463 304.13 385.732 304.593 386.104C305.056 386.468 305.449 386.956 305.771 387.568C306.102 388.172 306.355 388.912 306.528 389.789C306.702 390.666 306.789 391.696 306.789 392.878ZM304.481 396.005V392.494C304.481 391.683 304.431 390.972 304.332 390.36C304.241 389.739 304.105 389.21 303.923 388.772C303.741 388.333 303.509 387.978 303.228 387.705C302.955 387.432 302.637 387.233 302.273 387.109C301.917 386.977 301.516 386.911 301.069 386.911C300.523 386.911 300.04 387.014 299.618 387.221C299.196 387.419 298.84 387.738 298.551 388.176C298.27 388.615 298.054 389.189 297.906 389.901C297.757 390.612 297.682 391.476 297.682 392.494V396.005C297.682 396.815 297.728 397.531 297.819 398.151C297.918 398.772 298.063 399.309 298.253 399.764C298.443 400.211 298.675 400.579 298.948 400.868C299.221 401.158 299.535 401.373 299.891 401.513C300.255 401.646 300.656 401.712 301.094 401.712C301.657 401.712 302.149 401.604 302.57 401.389C302.992 401.174 303.344 400.839 303.625 400.384C303.915 399.921 304.13 399.33 304.27 398.61C304.411 397.882 304.481 397.014 304.481 396.005Z" fill="#606060"/>
<line x1="292.988" y1="378.62" x2="292.988" y2="68.4685" stroke="#CACACA" stroke-width="3.62984"/>
<path d="M208.301 385.188V403.352H206.006V388.054L201.378 389.741V387.67L207.942 385.188H208.301ZM226.39 392.88V395.635C226.39 397.115 226.258 398.364 225.993 399.381C225.729 400.399 225.348 401.218 224.852 401.838C224.356 402.458 223.756 402.909 223.053 403.19C222.358 403.463 221.572 403.6 220.696 403.6C220.001 403.6 219.36 403.513 218.773 403.339C218.185 403.165 217.656 402.888 217.185 402.508C216.721 402.119 216.324 401.615 215.994 400.994C215.663 400.374 215.41 399.621 215.237 398.736C215.063 397.851 214.976 396.817 214.976 395.635V392.88C214.976 391.4 215.109 390.159 215.373 389.158C215.646 388.158 216.031 387.355 216.527 386.751C217.023 386.139 217.619 385.701 218.314 385.436C219.017 385.172 219.802 385.039 220.671 385.039C221.374 385.039 222.019 385.126 222.606 385.3C223.202 385.465 223.731 385.734 224.194 386.106C224.658 386.47 225.05 386.958 225.373 387.57C225.704 388.174 225.956 388.914 226.13 389.791C226.303 390.668 226.39 391.698 226.39 392.88ZM224.083 396.007V392.496C224.083 391.685 224.033 390.974 223.934 390.362C223.843 389.741 223.706 389.212 223.524 388.774C223.342 388.335 223.111 387.98 222.83 387.707C222.557 387.434 222.238 387.235 221.874 387.111C221.519 386.979 221.117 386.913 220.671 386.913C220.125 386.913 219.641 387.016 219.219 387.223C218.797 387.421 218.442 387.74 218.152 388.178C217.871 388.617 217.656 389.191 217.507 389.903C217.358 390.614 217.284 391.478 217.284 392.496V396.007C217.284 396.817 217.329 397.533 217.42 398.153C217.52 398.773 217.664 399.311 217.855 399.766C218.045 400.213 218.276 400.581 218.549 400.87C218.822 401.16 219.137 401.375 219.492 401.515C219.856 401.648 220.257 401.714 220.696 401.714C221.258 401.714 221.75 401.606 222.172 401.391C222.594 401.176 222.945 400.841 223.227 400.386C223.516 399.923 223.731 399.332 223.872 398.612C224.012 397.884 224.083 397.016 224.083 396.007Z" fill="#606060"/>
<line x1="211.962" y1="378.62" x2="211.962" y2="68.4685" stroke="#CACACA" stroke-width="3.62984"/>
<line x1="455.039" y1="378.62" x2="455.039" y2="68.4685" stroke="#CACACA" stroke-width="3.62984"/>
<path d="M405.422 393.19H407.06C407.862 393.19 408.524 393.058 409.045 392.793C409.574 392.521 409.967 392.152 410.224 391.689C410.488 391.218 410.621 390.688 410.621 390.101C410.621 389.406 410.505 388.823 410.273 388.352C410.042 387.88 409.694 387.525 409.231 387.285C408.768 387.045 408.181 386.925 407.469 386.925C406.824 386.925 406.254 387.053 405.757 387.31C405.269 387.558 404.885 387.914 404.604 388.377C404.331 388.84 404.194 389.386 404.194 390.014H401.899C401.899 389.096 402.13 388.261 402.594 387.508C403.057 386.756 403.706 386.156 404.542 385.709C405.385 385.263 406.361 385.039 407.469 385.039C408.561 385.039 409.517 385.234 410.335 385.622C411.154 386.003 411.791 386.574 412.246 387.335C412.701 388.087 412.928 389.026 412.928 390.151C412.928 390.606 412.821 391.094 412.606 391.615C412.399 392.128 412.072 392.607 411.626 393.054C411.187 393.501 410.617 393.869 409.914 394.158C409.211 394.439 408.367 394.58 407.383 394.58H405.422V393.19ZM405.422 395.076V393.699H407.383C408.532 393.699 409.484 393.836 410.236 394.109C410.989 394.382 411.58 394.745 412.01 395.2C412.449 395.655 412.755 396.156 412.928 396.702C413.11 397.239 413.201 397.777 413.201 398.314C413.201 399.158 413.057 399.907 412.767 400.56C412.486 401.213 412.085 401.768 411.564 402.223C411.051 402.677 410.447 403.021 409.752 403.252C409.058 403.484 408.301 403.6 407.482 403.6C406.696 403.6 405.956 403.488 405.261 403.265C404.575 403.041 403.967 402.719 403.437 402.297C402.908 401.867 402.494 401.342 402.197 400.721C401.899 400.093 401.75 399.377 401.75 398.575H404.045C404.045 399.204 404.182 399.754 404.455 400.225C404.736 400.697 405.133 401.065 405.646 401.329C406.167 401.586 406.779 401.714 407.482 401.714C408.185 401.714 408.789 401.594 409.293 401.354C409.806 401.106 410.199 400.734 410.472 400.237C410.753 399.741 410.894 399.117 410.894 398.364C410.894 397.611 410.737 396.995 410.422 396.515C410.108 396.027 409.661 395.668 409.082 395.436C408.512 395.196 407.838 395.076 407.06 395.076H405.422ZM419.268 394.754L417.432 394.282L418.338 385.287H427.606V387.409H420.286L419.74 392.322C420.071 392.132 420.488 391.954 420.993 391.789C421.506 391.623 422.093 391.54 422.755 391.54C423.59 391.54 424.338 391.685 425 391.975C425.662 392.256 426.224 392.661 426.687 393.19C427.159 393.72 427.519 394.357 427.767 395.101C428.015 395.846 428.139 396.677 428.139 397.595C428.139 398.463 428.019 399.261 427.779 399.989C427.548 400.717 427.196 401.354 426.725 401.9C426.253 402.438 425.658 402.855 424.938 403.153C424.227 403.451 423.387 403.6 422.42 403.6C421.692 403.6 421.001 403.5 420.348 403.302C419.702 403.095 419.123 402.785 418.611 402.371C418.106 401.95 417.693 401.429 417.37 400.808C417.056 400.18 416.857 399.443 416.775 398.6H418.958C419.057 399.278 419.256 399.849 419.554 400.312C419.851 400.775 420.24 401.127 420.72 401.366C421.208 401.598 421.774 401.714 422.42 401.714C422.965 401.714 423.449 401.619 423.871 401.429C424.293 401.238 424.649 400.965 424.938 400.61C425.228 400.254 425.447 399.824 425.596 399.319C425.753 398.815 425.831 398.248 425.831 397.62C425.831 397.049 425.753 396.52 425.596 396.032C425.438 395.544 425.203 395.118 424.888 394.754C424.582 394.39 424.206 394.109 423.759 393.91C423.313 393.703 422.8 393.6 422.221 393.6C421.452 393.6 420.869 393.703 420.472 393.91C420.083 394.117 419.682 394.398 419.268 394.754Z" fill="#606060"/>
<line x1="414.523" y1="378.62" x2="414.523" y2="68.4685" stroke="#CACACA" stroke-width="3.62984"/>
<line x1="576.58" y1="378.62" x2="576.58" y2="68.4685" stroke="#CACACA" stroke-width="3.62984"/>
<path d="M247.524 385.188V403.352H245.229V388.054L240.601 389.741V387.67L247.164 385.188H247.524ZM257.176 394.754L255.34 394.282L256.246 385.287H265.514V387.409H258.194L257.648 392.322C257.979 392.132 258.396 391.954 258.901 391.789C259.414 391.623 260.001 391.54 260.663 391.54C261.498 391.54 262.247 391.685 262.908 391.975C263.57 392.256 264.132 392.661 264.596 393.19C265.067 393.72 265.427 394.357 265.675 395.101C265.923 395.846 266.047 396.677 266.047 397.595C266.047 398.463 265.927 399.261 265.687 399.989C265.456 400.717 265.104 401.354 264.633 401.9C264.161 402.438 263.566 402.855 262.846 403.153C262.135 403.451 261.295 403.6 260.328 403.6C259.6 403.6 258.909 403.5 258.256 403.302C257.611 403.095 257.032 402.785 256.519 402.371C256.014 401.95 255.601 401.429 255.278 400.808C254.964 400.18 254.765 399.443 254.683 398.6H256.866C256.966 399.278 257.164 399.849 257.462 400.312C257.76 400.775 258.148 401.127 258.628 401.366C259.116 401.598 259.683 401.714 260.328 401.714C260.874 401.714 261.357 401.619 261.779 401.429C262.201 401.238 262.557 400.965 262.846 400.61C263.136 400.254 263.355 399.824 263.504 399.319C263.661 398.815 263.74 398.248 263.74 397.62C263.74 397.049 263.661 396.52 263.504 396.032C263.347 395.544 263.111 395.118 262.797 394.754C262.491 394.39 262.114 394.109 261.668 393.91C261.221 393.703 260.708 393.6 260.129 393.6C259.36 393.6 258.777 393.703 258.38 393.91C257.991 394.117 257.59 394.398 257.176 394.754Z" fill="#606060"/>
<path d="M363.598 393.19H365.236C366.038 393.19 366.7 393.058 367.221 392.793C367.75 392.521 368.143 392.152 368.4 391.689C368.664 391.218 368.797 390.688 368.797 390.101C368.797 389.406 368.681 388.823 368.449 388.352C368.218 387.88 367.87 387.525 367.407 387.285C366.944 387.045 366.357 386.925 365.645 386.925C365 386.925 364.429 387.053 363.933 387.31C363.445 387.558 363.061 387.914 362.779 388.377C362.506 388.84 362.37 389.386 362.37 390.014H360.075C360.075 389.096 360.306 388.261 360.769 387.508C361.233 386.756 361.882 386.156 362.717 385.709C363.561 385.263 364.537 385.039 365.645 385.039C366.737 385.039 367.692 385.234 368.511 385.622C369.33 386.003 369.967 386.574 370.422 387.335C370.877 388.087 371.104 389.026 371.104 390.151C371.104 390.606 370.997 391.094 370.782 391.615C370.575 392.128 370.248 392.607 369.802 393.054C369.363 393.501 368.792 393.869 368.089 394.158C367.386 394.439 366.543 394.58 365.558 394.58H363.598V393.19ZM363.598 395.076V393.699H365.558C366.708 393.699 367.659 393.836 368.412 394.109C369.165 394.382 369.756 394.745 370.186 395.2C370.624 395.655 370.931 396.156 371.104 396.702C371.286 397.239 371.377 397.777 371.377 398.314C371.377 399.158 371.232 399.907 370.943 400.56C370.662 401.213 370.261 401.768 369.739 402.223C369.227 402.677 368.623 403.021 367.928 403.252C367.233 403.484 366.477 403.6 365.658 403.6C364.872 403.6 364.132 403.488 363.437 403.265C362.75 403.041 362.142 402.719 361.613 402.297C361.084 401.867 360.67 401.342 360.372 400.721C360.075 400.093 359.926 399.377 359.926 398.575H362.221C362.221 399.204 362.358 399.754 362.63 400.225C362.912 400.697 363.309 401.065 363.821 401.329C364.343 401.586 364.955 401.714 365.658 401.714C366.361 401.714 366.965 401.594 367.469 401.354C367.982 401.106 368.375 400.734 368.648 400.237C368.929 399.741 369.07 399.117 369.07 398.364C369.07 397.611 368.912 396.995 368.598 396.515C368.284 396.027 367.837 395.668 367.258 395.436C366.687 395.196 366.013 395.076 365.236 395.076H363.598ZM385.881 392.88V395.635C385.881 397.115 385.748 398.364 385.484 399.381C385.219 400.399 384.838 401.218 384.342 401.838C383.846 402.458 383.246 402.909 382.543 403.19C381.848 403.463 381.063 403.6 380.186 403.6C379.491 403.6 378.85 403.513 378.263 403.339C377.676 403.165 377.146 402.888 376.675 402.508C376.212 402.119 375.815 401.615 375.484 400.994C375.153 400.374 374.901 399.621 374.727 398.736C374.553 397.851 374.466 396.817 374.466 395.635V392.88C374.466 391.4 374.599 390.159 374.863 389.158C375.136 388.158 375.521 387.355 376.017 386.751C376.514 386.139 377.109 385.701 377.804 385.436C378.507 385.172 379.293 385.039 380.161 385.039C380.864 385.039 381.509 385.126 382.097 385.3C382.692 385.465 383.221 385.734 383.685 386.106C384.148 386.47 384.541 386.958 384.863 387.57C385.194 388.174 385.446 388.914 385.62 389.791C385.794 390.668 385.881 391.698 385.881 392.88ZM383.573 396.007V392.496C383.573 391.685 383.523 390.974 383.424 390.362C383.333 389.741 383.197 389.212 383.015 388.774C382.833 388.335 382.601 387.98 382.32 387.707C382.047 387.434 381.728 387.235 381.365 387.111C381.009 386.979 380.608 386.913 380.161 386.913C379.615 386.913 379.131 387.016 378.71 387.223C378.288 387.421 377.932 387.74 377.643 388.178C377.361 388.617 377.146 389.191 376.997 389.903C376.849 390.614 376.774 391.478 376.774 392.496V396.007C376.774 396.817 376.82 397.533 376.911 398.153C377.01 398.773 377.155 399.311 377.345 399.766C377.535 400.213 377.767 400.581 378.04 400.87C378.312 401.16 378.627 401.375 378.982 401.515C379.346 401.648 379.748 401.714 380.186 401.714C380.748 401.714 381.24 401.606 381.662 401.391C382.084 401.176 382.436 400.841 382.717 400.386C383.006 399.923 383.221 399.332 383.362 398.612C383.503 397.884 383.573 397.016 383.573 396.007Z" fill="#606060"/>
<path d="M494.021 397.272V399.158H480.969V397.806L489.058 385.287H490.932L488.922 388.91L483.575 397.272H494.021ZM491.502 385.287V403.352H489.207V385.287H491.502ZM499.008 394.754L497.172 394.282L498.078 385.287H507.346V387.409H500.026L499.48 392.322C499.811 392.132 500.228 391.954 500.733 391.789C501.246 391.623 501.833 391.54 502.495 391.54C503.33 391.54 504.079 391.685 504.74 391.975C505.402 392.256 505.964 392.661 506.428 393.19C506.899 393.72 507.259 394.357 507.507 395.101C507.755 395.846 507.879 396.677 507.879 397.595C507.879 398.463 507.759 399.261 507.519 399.989C507.288 400.717 506.936 401.354 506.465 401.9C505.993 402.438 505.398 402.855 504.678 403.153C503.967 403.451 503.127 403.6 502.16 403.6C501.432 403.6 500.741 403.5 500.088 403.302C499.443 403.095 498.864 402.785 498.351 402.371C497.846 401.95 497.433 401.429 497.11 400.808C496.796 400.18 496.597 399.443 496.515 398.6H498.698C498.798 399.278 498.996 399.849 499.294 400.312C499.592 400.775 499.98 401.127 500.46 401.366C500.948 401.598 501.515 401.714 502.16 401.714C502.706 401.714 503.19 401.619 503.611 401.429C504.033 401.238 504.389 400.965 504.678 400.61C504.968 400.254 505.187 399.824 505.336 399.319C505.493 398.815 505.572 398.248 505.572 397.62C505.572 397.049 505.493 396.52 505.336 396.032C505.179 395.544 504.943 395.118 504.629 394.754C504.323 394.39 503.946 394.109 503.5 393.91C503.053 393.703 502.54 393.6 501.961 393.6C501.192 393.6 500.609 393.703 500.212 393.91C499.823 394.117 499.422 394.398 499.008 394.754Z" fill="#606060"/>
<line x1="252.472" y1="378.62" x2="252.472" y2="68.4685" stroke="#CACACA" stroke-width="3.62984"/>
<line x1="374.013" y1="378.62" x2="374.013" y2="68.4685" stroke="#CACACA" stroke-width="3.62984"/>
<line x1="495.554" y1="378.62" x2="495.554" y2="68.4685" stroke="#CACACA" stroke-width="3.62984"/>
<path d="M526.548 394.754L524.712 394.282L525.618 385.287H534.885V387.409H527.565L527.019 392.322C527.35 392.132 527.768 391.954 528.273 391.789C528.785 391.623 529.373 391.54 530.034 391.54C530.87 391.54 531.618 391.685 532.28 391.975C532.942 392.256 533.504 392.661 533.967 393.19C534.439 393.72 534.798 394.357 535.047 395.101C535.295 395.846 535.419 396.677 535.419 397.595C535.419 398.463 535.299 399.261 535.059 399.989C534.827 400.717 534.476 401.354 534.004 401.9C533.533 402.438 532.937 402.855 532.218 403.153C531.507 403.451 530.667 403.6 529.699 403.6C528.971 403.6 528.281 403.5 527.627 403.302C526.982 403.095 526.403 402.785 525.89 402.371C525.386 401.95 524.972 401.429 524.65 400.808C524.335 400.18 524.137 399.443 524.054 398.6H526.238C526.337 399.278 526.536 399.849 526.833 400.312C527.131 400.775 527.52 401.127 528 401.366C528.488 401.598 529.054 401.714 529.699 401.714C530.245 401.714 530.729 401.619 531.151 401.429C531.573 401.238 531.928 400.965 532.218 400.61C532.507 400.254 532.727 399.824 532.875 399.319C533.033 398.815 533.111 398.248 533.111 397.62C533.111 397.049 533.033 396.52 532.875 396.032C532.718 395.544 532.483 395.118 532.168 394.754C531.862 394.39 531.486 394.109 531.039 393.91C530.593 393.703 530.08 393.6 529.501 393.6C528.732 393.6 528.148 393.703 527.751 393.91C527.363 394.117 526.962 394.398 526.548 394.754ZM549.277 392.88V395.635C549.277 397.115 549.145 398.364 548.88 399.381C548.615 400.399 548.235 401.218 547.739 401.838C547.242 402.458 546.643 402.909 545.94 403.19C545.245 403.463 544.459 403.6 543.582 403.6C542.888 403.6 542.247 403.513 541.659 403.339C541.072 403.165 540.543 402.888 540.071 402.508C539.608 402.119 539.211 401.615 538.88 400.994C538.549 400.374 538.297 399.621 538.123 398.736C537.95 397.851 537.863 396.817 537.863 395.635V392.88C537.863 391.4 537.995 390.159 538.26 389.158C538.533 388.158 538.917 387.355 539.414 386.751C539.91 386.139 540.506 385.701 541.2 385.436C541.903 385.172 542.689 385.039 543.558 385.039C544.261 385.039 544.906 385.126 545.493 385.3C546.089 385.465 546.618 385.734 547.081 386.106C547.544 386.47 547.937 386.958 548.26 387.57C548.591 388.174 548.843 388.914 549.017 389.791C549.19 390.668 549.277 391.698 549.277 392.88ZM546.969 396.007V392.496C546.969 391.685 546.92 390.974 546.821 390.362C546.73 389.741 546.593 389.212 546.411 388.774C546.229 388.335 545.998 387.98 545.716 387.707C545.443 387.434 545.125 387.235 544.761 387.111C544.405 386.979 544.004 386.913 543.558 386.913C543.012 386.913 542.528 387.016 542.106 387.223C541.684 387.421 541.329 387.74 541.039 388.178C540.758 388.617 540.543 389.191 540.394 389.903C540.245 390.614 540.171 391.478 540.171 392.496V396.007C540.171 396.817 540.216 397.533 540.307 398.153C540.406 398.773 540.551 399.311 540.741 399.766C540.931 400.213 541.163 400.581 541.436 400.87C541.709 401.16 542.023 401.375 542.379 401.515C542.743 401.648 543.144 401.714 543.582 401.714C544.145 401.714 544.637 401.606 545.059 401.391C545.481 401.176 545.832 400.841 546.113 400.386C546.403 399.923 546.618 399.332 546.758 398.612C546.899 397.884 546.969 397.016 546.969 396.007Z" fill="#606060"/>
<line x1="536.06" y1="378.62" x2="536.06" y2="68.4685" stroke="#CACACA" stroke-width="3.62984"/>
<path d="M614.153 385.263H614.351V387.21H614.153C612.937 387.21 611.92 387.409 611.101 387.806C610.282 388.195 609.633 388.72 609.153 389.382C608.673 390.035 608.326 390.771 608.111 391.59C607.904 392.409 607.801 393.24 607.801 394.084V396.739C607.801 397.541 607.896 398.252 608.086 398.873C608.276 399.485 608.537 400.002 608.868 400.424C609.198 400.845 609.571 401.164 609.984 401.379C610.406 401.594 610.844 401.701 611.299 401.701C611.829 401.701 612.3 401.602 612.714 401.404C613.127 401.197 613.475 400.912 613.756 400.548C614.045 400.175 614.264 399.737 614.413 399.233C614.562 398.728 614.637 398.174 614.637 397.57C614.637 397.032 614.571 396.515 614.438 396.019C614.306 395.515 614.103 395.068 613.83 394.679C613.557 394.282 613.214 393.972 612.8 393.749C612.395 393.517 611.911 393.401 611.349 393.401C610.712 393.401 610.117 393.559 609.562 393.873C609.016 394.179 608.566 394.584 608.21 395.089C607.863 395.585 607.664 396.127 607.614 396.714L606.399 396.702C606.514 395.775 606.729 394.985 607.044 394.332C607.366 393.67 607.763 393.133 608.235 392.719C608.715 392.297 609.248 391.991 609.835 391.801C610.431 391.602 611.059 391.503 611.721 391.503C612.623 391.503 613.4 391.673 614.054 392.012C614.707 392.351 615.245 392.806 615.666 393.377C616.088 393.939 616.398 394.576 616.597 395.287C616.804 395.99 616.907 396.714 616.907 397.458C616.907 398.31 616.787 399.108 616.547 399.853C616.307 400.597 615.948 401.251 615.468 401.813C614.996 402.376 614.413 402.814 613.719 403.128C613.024 403.443 612.217 403.6 611.299 403.6C610.323 403.6 609.471 403.401 608.744 403.004C608.016 402.599 607.412 402.061 606.932 401.391C606.452 400.721 606.093 399.977 605.853 399.158C605.613 398.339 605.493 397.508 605.493 396.664V395.585C605.493 394.311 605.621 393.062 605.878 391.838C606.134 390.614 606.576 389.506 607.205 388.513C607.842 387.521 608.723 386.731 609.848 386.144C610.973 385.556 612.408 385.263 614.153 385.263ZM630.976 392.88V395.635C630.976 397.115 630.844 398.364 630.579 399.381C630.315 400.399 629.934 401.218 629.438 401.838C628.942 402.458 628.342 402.909 627.639 403.19C626.944 403.463 626.158 403.6 625.282 403.6C624.587 403.6 623.946 403.513 623.359 403.339C622.771 403.165 622.242 402.888 621.771 402.508C621.307 402.119 620.91 401.615 620.579 400.994C620.249 400.374 619.996 399.621 619.823 398.736C619.649 397.851 619.562 396.817 619.562 395.635V392.88C619.562 391.4 619.694 390.159 619.959 389.158C620.232 388.158 620.617 387.355 621.113 386.751C621.609 386.139 622.205 385.701 622.9 385.436C623.603 385.172 624.388 385.039 625.257 385.039C625.96 385.039 626.605 385.126 627.192 385.3C627.788 385.465 628.317 385.734 628.78 386.106C629.243 386.47 629.636 386.958 629.959 387.57C630.29 388.174 630.542 388.914 630.716 389.791C630.889 390.668 630.976 391.698 630.976 392.88ZM628.669 396.007V392.496C628.669 391.685 628.619 390.974 628.52 390.362C628.429 389.741 628.292 389.212 628.11 388.774C627.928 388.335 627.697 387.98 627.416 387.707C627.143 387.434 626.824 387.235 626.46 387.111C626.105 386.979 625.703 386.913 625.257 386.913C624.711 386.913 624.227 387.016 623.805 387.223C623.383 387.421 623.028 387.74 622.738 388.178C622.457 388.617 622.242 389.191 622.093 389.903C621.944 390.614 621.87 391.478 621.87 392.496V396.007C621.87 396.817 621.915 397.533 622.006 398.153C622.105 398.773 622.25 399.311 622.44 399.766C622.631 400.213 622.862 400.581 623.135 400.87C623.408 401.16 623.722 401.375 624.078 401.515C624.442 401.648 624.843 401.714 625.282 401.714C625.844 401.714 626.336 401.606 626.758 401.391C627.18 401.176 627.531 400.841 627.813 400.386C628.102 399.923 628.317 399.332 628.458 398.612C628.598 397.884 628.669 397.016 628.669 396.007Z" fill="#606060"/>
<line x1="617.091" y1="378.62" x2="617.091" y2="68.4685" stroke="#CACACA" stroke-width="3.62984"/>
<path d="M654.676 385.261H654.875V387.209H654.676C653.46 387.209 652.443 387.407 651.624 387.804C650.805 388.193 650.156 388.718 649.676 389.38C649.197 390.033 648.849 390.769 648.634 391.588C648.427 392.407 648.324 393.238 648.324 394.082V396.737C648.324 397.539 648.419 398.25 648.609 398.871C648.8 399.483 649.06 400 649.391 400.422C649.722 400.843 650.094 401.162 650.508 401.377C650.929 401.592 651.368 401.7 651.823 401.7C652.352 401.7 652.824 401.6 653.237 401.402C653.651 401.195 653.998 400.91 654.279 400.546C654.569 400.174 654.788 399.735 654.937 399.231C655.086 398.726 655.16 398.172 655.16 397.568C655.16 397.03 655.094 396.514 654.962 396.017C654.829 395.513 654.627 395.066 654.354 394.677C654.081 394.28 653.737 393.97 653.324 393.747C652.919 393.515 652.435 393.399 651.872 393.399C651.235 393.399 650.64 393.557 650.086 393.871C649.54 394.177 649.089 394.582 648.733 395.087C648.386 395.583 648.188 396.125 648.138 396.712L646.922 396.7C647.038 395.773 647.253 394.983 647.567 394.33C647.89 393.668 648.287 393.131 648.758 392.717C649.238 392.295 649.771 391.989 650.359 391.799C650.954 391.6 651.583 391.501 652.245 391.501C653.146 391.501 653.924 391.671 654.577 392.01C655.23 392.349 655.768 392.804 656.19 393.375C656.612 393.937 656.922 394.574 657.12 395.285C657.327 395.988 657.431 396.712 657.431 397.456C657.431 398.308 657.311 399.107 657.071 399.851C656.831 400.595 656.471 401.249 655.991 401.811C655.52 402.374 654.937 402.812 654.242 403.126C653.547 403.441 652.741 403.598 651.823 403.598C650.847 403.598 649.995 403.399 649.267 403.002C648.539 402.597 647.935 402.059 647.456 401.389C646.976 400.719 646.616 399.975 646.376 399.156C646.136 398.337 646.016 397.506 646.016 396.662V395.583C646.016 394.309 646.145 393.06 646.401 391.836C646.657 390.612 647.1 389.504 647.729 388.511C648.365 387.519 649.246 386.729 650.371 386.142C651.496 385.554 652.931 385.261 654.676 385.261ZM663.063 394.752L661.227 394.28L662.133 385.285H671.4V387.407H664.081L663.535 392.32C663.865 392.13 664.283 391.952 664.788 391.787C665.301 391.621 665.888 391.538 666.549 391.538C667.385 391.538 668.133 391.683 668.795 391.973C669.457 392.254 670.019 392.659 670.482 393.189C670.954 393.718 671.314 394.355 671.562 395.099C671.81 395.844 671.934 396.675 671.934 397.593C671.934 398.461 671.814 399.26 671.574 399.987C671.343 400.715 670.991 401.352 670.52 401.898C670.048 402.436 669.453 402.853 668.733 403.151C668.022 403.449 667.182 403.598 666.214 403.598C665.487 403.598 664.796 403.498 664.143 403.3C663.497 403.093 662.918 402.783 662.406 402.369C661.901 401.948 661.488 401.427 661.165 400.806C660.851 400.178 660.652 399.442 660.569 398.598H662.753C662.852 399.276 663.051 399.847 663.349 400.31C663.646 400.773 664.035 401.125 664.515 401.365C665.003 401.596 665.569 401.712 666.214 401.712C666.76 401.712 667.244 401.617 667.666 401.427C668.088 401.236 668.444 400.963 668.733 400.608C669.023 400.252 669.242 399.822 669.391 399.317C669.548 398.813 669.626 398.246 669.626 397.618C669.626 397.047 669.548 396.518 669.391 396.03C669.233 395.542 668.998 395.116 668.683 394.752C668.377 394.388 668.001 394.107 667.554 393.908C667.108 393.701 666.595 393.598 666.016 393.598C665.247 393.598 664.664 393.701 664.267 393.908C663.878 394.115 663.477 394.396 663.063 394.752Z" fill="#606060"/>
<line x1="657.601" y1="378.62" x2="657.601" y2="68.4685" stroke="#CACACA" stroke-width="3.62984"/>
<line x1="698.115" y1="378.62" x2="698.115" y2="68.4685" stroke="#CACACA" stroke-width="3.62984"/>
<rect x="172.629" y="165.333" width="467.381" height="45.3666" fill="#0567FF"/>
<rect x="172.629" y="262.395" width="293.3" height="45.3666" fill="#0567FF"/>
<rect x="172.629" y="79.875" width="415.684" height="45.3666" fill="#0567FF"/>
<rect x="2.38328" y="2.39011" width="769.375" height="513.049" stroke="#0567FF" stroke-width="3.62984"/>
</svg>
