<svg width="774" height="517" viewBox="0 0 774 517" fill="none" xmlns="http://www.w3.org/2000/svg">
<line x1="170.966" y1="382.065" x2="170.966" y2="64.5722" stroke="#606060" stroke-width="3.62984"/>
<path d="M177.664 395.093V397.848C177.664 399.328 177.532 400.577 177.267 401.594C177.003 402.612 176.622 403.431 176.126 404.051C175.63 404.671 175.03 405.122 174.327 405.403C173.632 405.676 172.846 405.813 171.97 405.813C171.275 405.813 170.634 405.726 170.047 405.552C169.459 405.378 168.93 405.101 168.459 404.721C167.995 404.332 167.598 403.828 167.268 403.207C166.937 402.587 166.684 401.834 166.511 400.949C166.337 400.064 166.25 399.03 166.25 397.848V395.093C166.25 393.613 166.383 392.372 166.647 391.371C166.92 390.37 167.305 389.568 167.801 388.964C168.297 388.352 168.893 387.914 169.588 387.649C170.291 387.385 171.076 387.252 171.945 387.252C172.648 387.252 173.293 387.339 173.88 387.513C174.476 387.678 175.005 387.947 175.468 388.319C175.932 388.683 176.324 389.171 176.647 389.783C176.978 390.387 177.23 391.127 177.404 392.004C177.578 392.881 177.664 393.91 177.664 395.093ZM175.357 398.22V394.709C175.357 393.898 175.307 393.187 175.208 392.575C175.117 391.954 174.98 391.425 174.798 390.987C174.616 390.548 174.385 390.193 174.104 389.92C173.831 389.647 173.512 389.448 173.148 389.324C172.793 389.192 172.392 389.126 171.945 389.126C171.399 389.126 170.915 389.229 170.493 389.436C170.071 389.634 169.716 389.953 169.426 390.391C169.145 390.829 168.93 391.404 168.781 392.116C168.632 392.827 168.558 393.691 168.558 394.709V398.22C168.558 399.03 168.603 399.746 168.694 400.366C168.794 400.986 168.938 401.524 169.129 401.979C169.319 402.426 169.55 402.794 169.823 403.083C170.096 403.373 170.411 403.588 170.766 403.728C171.13 403.861 171.531 403.927 171.97 403.927C172.532 403.927 173.024 403.819 173.446 403.604C173.868 403.389 174.219 403.054 174.501 402.599C174.79 402.136 175.005 401.545 175.146 400.825C175.286 400.097 175.357 399.229 175.357 398.22Z" fill="#606060"/>
<path d="M303.746 406.05V407.936H291.923V406.285L297.841 399.698C298.569 398.887 299.131 398.2 299.528 397.638C299.933 397.067 300.215 396.559 300.372 396.112C300.537 395.657 300.62 395.194 300.62 394.722C300.62 394.127 300.496 393.589 300.248 393.11C300.008 392.622 299.652 392.233 299.181 391.943C298.709 391.654 298.139 391.509 297.469 391.509C296.666 391.509 295.996 391.666 295.459 391.981C294.929 392.287 294.532 392.717 294.268 393.271C294.003 393.825 293.871 394.462 293.871 395.181H291.575C291.575 394.164 291.799 393.234 292.245 392.39C292.692 391.546 293.354 390.876 294.231 390.38C295.107 389.876 296.187 389.623 297.469 389.623C298.61 389.623 299.586 389.826 300.397 390.231C301.207 390.628 301.828 391.191 302.258 391.919C302.696 392.638 302.915 393.482 302.915 394.449C302.915 394.979 302.824 395.516 302.642 396.062C302.469 396.6 302.225 397.138 301.91 397.675C301.604 398.213 301.244 398.742 300.831 399.263C300.426 399.784 299.991 400.297 299.528 400.802L294.69 406.05H303.746ZM309.106 399.338L307.27 398.866L308.176 389.871H317.443V391.993H310.123L309.578 396.906C309.908 396.716 310.326 396.538 310.831 396.373C311.343 396.207 311.931 396.124 312.592 396.124C313.428 396.124 314.176 396.269 314.838 396.559C315.5 396.84 316.062 397.245 316.525 397.774C316.997 398.304 317.357 398.941 317.605 399.685C317.853 400.43 317.977 401.261 317.977 402.179C317.977 403.047 317.857 403.845 317.617 404.573C317.386 405.301 317.034 405.938 316.563 406.484C316.091 407.022 315.496 407.439 314.776 407.737C314.065 408.035 313.225 408.184 312.257 408.184C311.53 408.184 310.839 408.084 310.186 407.886C309.54 407.679 308.961 407.369 308.449 406.955C307.944 406.534 307.53 406.013 307.208 405.392C306.894 404.764 306.695 404.027 306.612 403.184H308.796C308.895 403.862 309.094 404.433 309.391 404.896C309.689 405.359 310.078 405.711 310.558 405.95C311.046 406.182 311.612 406.298 312.257 406.298C312.803 406.298 313.287 406.203 313.709 406.013C314.131 405.822 314.486 405.549 314.776 405.194C315.065 404.838 315.285 404.408 315.434 403.903C315.591 403.399 315.669 402.832 315.669 402.204C315.669 401.633 315.591 401.104 315.434 400.616C315.276 400.128 315.041 399.702 314.726 399.338C314.42 398.974 314.044 398.693 313.597 398.494C313.151 398.287 312.638 398.184 312.059 398.184C311.29 398.184 310.707 398.287 310.31 398.494C309.921 398.701 309.52 398.982 309.106 399.338Z" fill="#606060"/>
<path d="M425.984 399.338L424.147 398.866L425.053 389.871H434.321V391.993H427.001L426.455 396.906C426.786 396.716 427.204 396.538 427.708 396.373C428.221 396.207 428.808 396.124 429.47 396.124C430.305 396.124 431.054 396.269 431.715 396.559C432.377 396.84 432.94 397.245 433.403 397.774C433.874 398.304 434.234 398.941 434.482 399.685C434.73 400.43 434.854 401.261 434.854 402.179C434.854 403.047 434.734 403.845 434.495 404.573C434.263 405.301 433.911 405.938 433.44 406.484C432.969 407.022 432.373 407.439 431.653 407.737C430.942 408.035 430.103 408.184 429.135 408.184C428.407 408.184 427.716 408.084 427.063 407.886C426.418 407.679 425.839 407.369 425.326 406.955C424.821 406.534 424.408 406.013 424.085 405.392C423.771 404.764 423.573 404.027 423.49 403.184H425.673C425.773 403.862 425.971 404.433 426.269 404.896C426.567 405.359 426.955 405.711 427.435 405.95C427.923 406.182 428.49 406.298 429.135 406.298C429.681 406.298 430.165 406.203 430.586 406.013C431.008 405.822 431.364 405.549 431.653 405.194C431.943 404.838 432.162 404.408 432.311 403.903C432.468 403.399 432.547 402.832 432.547 402.204C432.547 401.633 432.468 401.104 432.311 400.616C432.154 400.128 431.918 399.702 431.604 399.338C431.298 398.974 430.921 398.693 430.475 398.494C430.028 398.287 429.515 398.184 428.936 398.184C428.167 398.184 427.584 398.287 427.187 398.494C426.798 398.701 426.397 398.982 425.984 399.338ZM448.713 397.464V400.219C448.713 401.699 448.58 402.948 448.316 403.965C448.051 404.983 447.67 405.802 447.174 406.422C446.678 407.042 446.078 407.493 445.375 407.774C444.68 408.047 443.895 408.184 443.018 408.184C442.323 408.184 441.682 408.097 441.095 407.923C440.508 407.749 439.978 407.472 439.507 407.092C439.044 406.703 438.647 406.199 438.316 405.578C437.985 404.958 437.733 404.205 437.559 403.32C437.385 402.435 437.298 401.401 437.298 400.219V397.464C437.298 395.984 437.431 394.743 437.695 393.742C437.968 392.742 438.353 391.939 438.849 391.335C439.346 390.723 439.941 390.285 440.636 390.02C441.339 389.756 442.125 389.623 442.993 389.623C443.696 389.623 444.341 389.71 444.929 389.884C445.524 390.049 446.053 390.318 446.517 390.69C446.98 391.054 447.373 391.542 447.695 392.154C448.026 392.758 448.278 393.498 448.452 394.375C448.626 395.252 448.713 396.282 448.713 397.464ZM446.405 400.591V397.08C446.405 396.269 446.355 395.558 446.256 394.946C446.165 394.325 446.029 393.796 445.847 393.358C445.665 392.919 445.433 392.564 445.152 392.291C444.879 392.018 444.56 391.819 444.197 391.695C443.841 391.563 443.44 391.497 442.993 391.497C442.447 391.497 441.963 391.6 441.542 391.807C441.12 392.005 440.764 392.324 440.475 392.762C440.193 393.201 439.978 393.775 439.829 394.487C439.681 395.198 439.606 396.062 439.606 397.08V400.591C439.606 401.401 439.652 402.117 439.743 402.737C439.842 403.357 439.987 403.895 440.177 404.35C440.367 404.797 440.599 405.165 440.872 405.454C441.145 405.744 441.459 405.959 441.814 406.099C442.178 406.232 442.58 406.298 443.018 406.298C443.58 406.298 444.072 406.19 444.494 405.975C444.916 405.76 445.268 405.425 445.549 404.97C445.838 404.507 446.053 403.916 446.194 403.196C446.335 402.468 446.405 401.6 446.405 400.591Z" fill="#606060"/>
<path d="M567.007 389.871V391.162L559.526 407.936H557.107L564.575 391.757H554.799V389.871H567.007ZM572.528 399.338L570.692 398.866L571.598 389.871H580.865V391.993H573.545L572.999 396.906C573.33 396.716 573.748 396.538 574.253 396.373C574.765 396.207 575.353 396.124 576.014 396.124C576.85 396.124 577.598 396.269 578.26 396.559C578.922 396.84 579.484 397.245 579.947 397.774C580.419 398.304 580.778 398.941 581.027 399.685C581.275 400.43 581.399 401.261 581.399 402.179C581.399 403.047 581.279 403.845 581.039 404.573C580.807 405.301 580.456 405.938 579.984 406.484C579.513 407.022 578.917 407.439 578.198 407.737C577.487 408.035 576.647 408.184 575.679 408.184C574.951 408.184 574.261 408.084 573.607 407.886C572.962 407.679 572.383 407.369 571.87 406.955C571.366 406.534 570.952 406.013 570.63 405.392C570.315 404.764 570.117 404.027 570.034 403.184H572.218C572.317 403.862 572.516 404.433 572.813 404.896C573.111 405.359 573.5 405.711 573.98 405.95C574.468 406.182 575.034 406.298 575.679 406.298C576.225 406.298 576.709 406.203 577.131 406.013C577.553 405.822 577.908 405.549 578.198 405.194C578.487 404.838 578.707 404.408 578.855 403.903C579.013 403.399 579.091 402.832 579.091 402.204C579.091 401.633 579.013 401.104 578.855 400.616C578.698 400.128 578.463 399.702 578.148 399.338C577.842 398.974 577.466 398.693 577.019 398.494C576.573 398.287 576.06 398.184 575.481 398.184C574.712 398.184 574.128 398.287 573.731 398.494C573.343 398.701 572.942 398.982 572.528 399.338Z" fill="#606060"/>
<path d="M685.832 389.772V407.936H683.536V392.638L678.909 394.325V392.254L685.472 389.772H685.832ZM703.92 397.464V400.219C703.92 401.699 703.788 402.948 703.523 403.965C703.259 404.983 702.878 405.802 702.382 406.422C701.886 407.042 701.286 407.493 700.583 407.774C699.888 408.047 699.103 408.184 698.226 408.184C697.531 408.184 696.89 408.097 696.303 407.923C695.715 407.749 695.186 407.472 694.715 407.092C694.252 406.703 693.854 406.199 693.524 405.578C693.193 404.958 692.941 404.205 692.767 403.32C692.593 402.435 692.506 401.401 692.506 400.219V397.464C692.506 395.984 692.639 394.743 692.903 393.742C693.176 392.742 693.561 391.939 694.057 391.335C694.553 390.723 695.149 390.285 695.844 390.02C696.547 389.756 697.332 389.623 698.201 389.623C698.904 389.623 699.549 389.71 700.136 389.884C700.732 390.049 701.261 390.318 701.724 390.69C702.188 391.054 702.581 391.542 702.903 392.154C703.234 392.758 703.486 393.498 703.66 394.375C703.834 395.252 703.92 396.282 703.92 397.464ZM701.613 400.591V397.08C701.613 396.269 701.563 395.558 701.464 394.946C701.373 394.325 701.236 393.796 701.055 393.358C700.873 392.919 700.641 392.564 700.36 392.291C700.087 392.018 699.768 391.819 699.404 391.695C699.049 391.563 698.648 391.497 698.201 391.497C697.655 391.497 697.171 391.6 696.749 391.807C696.328 392.005 695.972 392.324 695.682 392.762C695.401 393.201 695.186 393.775 695.037 394.487C694.888 395.198 694.814 396.062 694.814 397.08V400.591C694.814 401.401 694.859 402.117 694.95 402.737C695.05 403.357 695.194 403.895 695.385 404.35C695.575 404.797 695.806 405.165 696.079 405.454C696.352 405.744 696.667 405.959 697.022 406.099C697.386 406.232 697.787 406.298 698.226 406.298C698.788 406.298 699.28 406.19 699.702 405.975C700.124 405.76 700.476 405.425 700.757 404.97C701.046 404.507 701.261 403.916 701.402 403.196C701.542 402.468 701.613 401.6 701.613 400.591ZM718.213 397.464V400.219C718.213 401.699 718.081 402.948 717.816 403.965C717.551 404.983 717.171 405.802 716.675 406.422C716.178 407.042 715.579 407.493 714.876 407.774C714.181 408.047 713.395 408.184 712.518 408.184C711.823 408.184 711.182 408.097 710.595 407.923C710.008 407.749 709.479 407.472 709.007 407.092C708.544 406.703 708.147 406.199 707.816 405.578C707.485 404.958 707.233 404.205 707.059 403.32C706.886 402.435 706.799 401.401 706.799 400.219V397.464C706.799 395.984 706.931 394.743 707.196 393.742C707.469 392.742 707.853 391.939 708.35 391.335C708.846 390.723 709.441 390.285 710.136 390.02C710.839 389.756 711.625 389.623 712.493 389.623C713.197 389.623 713.842 389.71 714.429 389.884C715.024 390.049 715.554 390.318 716.017 390.69C716.48 391.054 716.873 391.542 717.196 392.154C717.526 392.758 717.779 393.498 717.952 394.375C718.126 395.252 718.213 396.282 718.213 397.464ZM715.905 400.591V397.08C715.905 396.269 715.856 395.558 715.756 394.946C715.665 394.325 715.529 393.796 715.347 393.358C715.165 392.919 714.933 392.564 714.652 392.291C714.379 392.018 714.061 391.819 713.697 391.695C713.341 391.563 712.94 391.497 712.493 391.497C711.948 391.497 711.464 391.6 711.042 391.807C710.62 392.005 710.264 392.324 709.975 392.762C709.694 393.201 709.479 393.775 709.33 394.487C709.181 395.198 709.106 396.062 709.106 397.08V400.591C709.106 401.401 709.152 402.117 709.243 402.737C709.342 403.357 709.487 403.895 709.677 404.35C709.867 404.797 710.099 405.165 710.372 405.454C710.645 405.744 710.959 405.959 711.315 406.099C711.679 406.232 712.08 406.298 712.518 406.298C713.081 406.298 713.573 406.19 713.995 405.975C714.416 405.76 714.768 405.425 715.049 404.97C715.339 404.507 715.554 403.916 715.694 403.196C715.835 402.468 715.905 401.6 715.905 400.591Z" fill="#606060"/>
<path d="M98.8599 227.933V229.881H89.8278V227.933H98.8599ZM90.2993 211.817V229.881H87.9048V211.817H90.2993ZM100.646 223.318V223.032C100.646 222.065 100.787 221.167 101.068 220.34C101.349 219.505 101.755 218.781 102.284 218.169C102.813 217.549 103.454 217.069 104.207 216.73C104.96 216.382 105.803 216.209 106.738 216.209C107.681 216.209 108.529 216.382 109.281 216.73C110.042 217.069 110.688 217.549 111.217 218.169C111.755 218.781 112.164 219.505 112.445 220.34C112.726 221.167 112.867 222.065 112.867 223.032V223.318C112.867 224.285 112.726 225.183 112.445 226.01C112.164 226.837 111.755 227.561 111.217 228.181C110.688 228.793 110.047 229.273 109.294 229.62C108.549 229.959 107.706 230.129 106.763 230.129C105.82 230.129 104.972 229.959 104.22 229.62C103.467 229.273 102.822 228.793 102.284 228.181C101.755 227.561 101.349 226.837 101.068 226.01C100.787 225.183 100.646 224.285 100.646 223.318ZM102.942 223.032V223.318C102.942 223.988 103.02 224.62 103.177 225.216C103.335 225.803 103.57 226.324 103.885 226.779C104.207 227.234 104.608 227.594 105.088 227.859C105.568 228.115 106.126 228.243 106.763 228.243C107.392 228.243 107.942 228.115 108.413 227.859C108.893 227.594 109.29 227.234 109.604 226.779C109.918 226.324 110.154 225.803 110.311 225.216C110.477 224.62 110.559 223.988 110.559 223.318V223.032C110.559 222.371 110.477 221.746 110.311 221.159C110.154 220.563 109.914 220.038 109.592 219.583C109.277 219.12 108.88 218.756 108.401 218.492C107.929 218.227 107.375 218.095 106.738 218.095C106.11 218.095 105.555 218.227 105.076 218.492C104.604 218.756 104.207 219.12 103.885 219.583C103.57 220.038 103.335 220.563 103.177 221.159C103.02 221.746 102.942 222.371 102.942 223.032ZM115.807 216.457H118.115V231.481C118.115 232.3 117.983 232.995 117.718 233.566C117.462 234.136 117.073 234.566 116.552 234.856C116.039 235.154 115.39 235.303 114.604 235.303C114.397 235.303 114.157 235.282 113.884 235.241C113.603 235.199 113.367 235.15 113.177 235.092L113.19 233.243C113.347 233.276 113.525 233.301 113.723 233.318C113.922 233.342 114.095 233.355 114.244 233.355C114.583 233.355 114.869 233.293 115.1 233.169C115.332 233.045 115.505 232.846 115.621 232.573C115.745 232.3 115.807 231.936 115.807 231.481V216.457ZM115.572 212.896C115.572 212.524 115.687 212.21 115.919 211.953C116.151 211.697 116.486 211.569 116.924 211.569C117.371 211.569 117.71 211.697 117.941 211.953C118.173 212.21 118.289 212.524 118.289 212.896C118.289 213.252 118.173 213.558 117.941 213.814C117.71 214.062 117.371 214.186 116.924 214.186C116.486 214.186 116.151 214.062 115.919 213.814C115.687 213.558 115.572 213.252 115.572 212.896ZM129.74 227.586V220.675C129.74 220.146 129.633 219.687 129.418 219.298C129.211 218.901 128.896 218.595 128.475 218.38C128.053 218.165 127.532 218.057 126.911 218.057C126.332 218.057 125.824 218.157 125.385 218.355C124.955 218.554 124.616 218.814 124.368 219.137C124.128 219.459 124.008 219.807 124.008 220.179H121.713C121.713 219.699 121.837 219.224 122.085 218.752C122.333 218.281 122.689 217.855 123.152 217.474C123.624 217.085 124.186 216.779 124.839 216.556C125.501 216.324 126.237 216.209 127.048 216.209C128.024 216.209 128.884 216.374 129.628 216.705C130.381 217.036 130.968 217.536 131.39 218.206C131.82 218.868 132.035 219.699 132.035 220.7V226.953C132.035 227.4 132.073 227.875 132.147 228.38C132.23 228.884 132.35 229.318 132.507 229.682V229.881H130.112C129.996 229.616 129.906 229.265 129.839 228.826C129.773 228.38 129.74 227.966 129.74 227.586ZM130.137 221.742L130.162 223.355H127.842C127.188 223.355 126.605 223.409 126.093 223.516C125.58 223.615 125.15 223.769 124.802 223.975C124.455 224.182 124.19 224.443 124.008 224.757C123.826 225.063 123.735 225.423 123.735 225.836C123.735 226.258 123.83 226.643 124.021 226.99C124.211 227.337 124.496 227.615 124.877 227.821C125.265 228.02 125.741 228.119 126.303 228.119C127.006 228.119 127.627 227.97 128.164 227.672C128.702 227.375 129.128 227.011 129.442 226.581C129.765 226.151 129.939 225.733 129.963 225.328L130.944 226.432C130.886 226.779 130.728 227.164 130.472 227.586C130.216 228.007 129.872 228.413 129.442 228.801C129.021 229.182 128.516 229.5 127.929 229.757C127.35 230.005 126.696 230.129 125.968 230.129C125.059 230.129 124.26 229.951 123.574 229.596C122.896 229.24 122.366 228.764 121.986 228.169C121.614 227.565 121.428 226.891 121.428 226.146C121.428 225.427 121.568 224.794 121.849 224.248C122.131 223.694 122.536 223.235 123.065 222.871C123.595 222.499 124.232 222.218 124.976 222.027C125.72 221.837 126.552 221.742 127.47 221.742H130.137ZM144.864 211.817V229.881H142.469V211.817H144.864ZM151.787 211.817V229.881H149.392V211.817H151.787ZM158.71 211.817V229.881H156.315V211.817H158.71Z" fill="#606060"/>
<path d="M99.1698 282.107V283.249C99.1698 284.605 99.0003 285.821 98.6612 286.896C98.3221 287.971 97.8341 288.885 97.1972 289.638C96.5603 290.391 95.7952 290.966 94.9019 291.363C94.0169 291.76 93.0244 291.958 91.9243 291.958C90.8574 291.958 89.8772 291.76 88.984 291.363C88.099 290.966 87.3297 290.391 86.6763 289.638C86.0312 288.885 85.5308 287.971 85.1751 286.896C84.8195 285.821 84.6416 284.605 84.6416 283.249V282.107C84.6416 280.751 84.8153 279.539 85.1627 278.472C85.5184 277.397 86.0188 276.483 86.6639 275.73C87.3091 274.969 88.0741 274.39 88.9591 273.993C89.8524 273.596 90.8326 273.398 91.8995 273.398C92.9996 273.398 93.9921 273.596 94.8771 273.993C95.7704 274.39 96.5355 274.969 97.1724 275.73C97.8175 276.483 98.3096 277.397 98.6488 278.472C98.9961 279.539 99.1698 280.751 99.1698 282.107ZM96.8002 283.249V282.082C96.8002 281.007 96.6885 280.056 96.4652 279.229C96.2501 278.402 95.9317 277.707 95.5099 277.145C95.088 276.582 94.5711 276.156 93.959 275.867C93.3552 275.577 92.6687 275.432 91.8995 275.432C91.1551 275.432 90.481 275.577 89.8772 275.867C89.2817 276.156 88.7689 276.582 88.3388 277.145C87.917 277.707 87.5903 278.402 87.3587 279.229C87.1271 280.056 87.0113 281.007 87.0113 282.082V283.249C87.0113 284.332 87.1271 285.292 87.3587 286.127C87.5903 286.954 87.9211 287.653 88.3512 288.224C88.7896 288.786 89.3065 289.212 89.9021 289.502C90.5058 289.791 91.1799 289.936 91.9243 289.936C92.7018 289.936 93.3925 289.791 93.9963 289.502C94.6 289.212 95.1087 288.786 95.5223 288.224C95.9441 287.653 96.2625 286.954 96.4776 286.127C96.6926 285.292 96.8002 284.332 96.8002 283.249ZM110.621 288.608V278.286H112.929V291.71H110.733L110.621 288.608ZM111.055 285.78L112.011 285.755C112.011 286.648 111.916 287.475 111.725 288.236C111.543 288.989 111.246 289.642 110.832 290.196C110.419 290.751 109.877 291.185 109.207 291.499C108.537 291.805 107.722 291.958 106.763 291.958C106.109 291.958 105.51 291.863 104.964 291.673C104.426 291.483 103.963 291.189 103.574 290.792C103.185 290.395 102.884 289.878 102.669 289.241C102.462 288.604 102.358 287.839 102.358 286.946V278.286H104.654V286.971C104.654 287.574 104.72 288.075 104.852 288.472C104.993 288.861 105.179 289.171 105.41 289.402C105.65 289.626 105.915 289.783 106.204 289.874C106.502 289.965 106.808 290.01 107.123 290.01C108.099 290.01 108.872 289.824 109.443 289.452C110.013 289.071 110.423 288.563 110.671 287.926C110.927 287.281 111.055 286.565 111.055 285.78ZM122.048 278.286V280.048H114.79V278.286H122.048ZM117.246 275.023H119.542V288.385C119.542 288.84 119.612 289.183 119.753 289.415C119.893 289.646 120.075 289.799 120.298 289.874C120.522 289.948 120.762 289.985 121.018 289.985C121.208 289.985 121.407 289.969 121.614 289.936C121.829 289.894 121.99 289.861 122.097 289.837L122.11 291.71C121.928 291.768 121.688 291.822 121.39 291.871C121.101 291.929 120.749 291.958 120.336 291.958C119.773 291.958 119.256 291.846 118.785 291.623C118.313 291.4 117.937 291.028 117.656 290.507C117.383 289.977 117.246 289.266 117.246 288.373V275.023ZM127.035 280.395V291.71H124.74V278.286H126.973L127.035 280.395ZM131.229 278.211L131.216 280.345C131.026 280.304 130.844 280.279 130.67 280.271C130.505 280.254 130.315 280.246 130.1 280.246C129.57 280.246 129.103 280.329 128.698 280.494C128.292 280.66 127.949 280.891 127.668 281.189C127.387 281.487 127.163 281.843 126.998 282.256C126.841 282.661 126.737 283.108 126.688 283.596L126.043 283.968C126.043 283.158 126.121 282.397 126.278 281.685C126.444 280.974 126.696 280.345 127.035 279.8C127.374 279.245 127.804 278.815 128.326 278.509C128.855 278.195 129.483 278.038 130.211 278.038C130.377 278.038 130.567 278.058 130.782 278.1C130.997 278.133 131.146 278.17 131.229 278.211ZM140.769 289.415V282.504C140.769 281.975 140.662 281.516 140.447 281.127C140.24 280.73 139.926 280.424 139.504 280.209C139.082 279.994 138.561 279.886 137.941 279.886C137.362 279.886 136.853 279.986 136.415 280.184C135.985 280.383 135.645 280.643 135.397 280.966C135.157 281.288 135.038 281.636 135.038 282.008H132.742C132.742 281.528 132.866 281.053 133.115 280.581C133.363 280.11 133.718 279.684 134.181 279.303C134.653 278.915 135.215 278.609 135.869 278.385C136.53 278.154 137.267 278.038 138.077 278.038C139.053 278.038 139.913 278.203 140.658 278.534C141.41 278.865 141.998 279.365 142.42 280.035C142.85 280.697 143.065 281.528 143.065 282.529V288.782C143.065 289.229 143.102 289.704 143.176 290.209C143.259 290.713 143.379 291.148 143.536 291.511V291.71H141.142C141.026 291.445 140.935 291.094 140.869 290.655C140.803 290.209 140.769 289.795 140.769 289.415ZM141.166 283.571L141.191 285.184H138.871C138.218 285.184 137.635 285.238 137.122 285.345C136.609 285.445 136.179 285.598 135.832 285.804C135.484 286.011 135.22 286.272 135.038 286.586C134.856 286.892 134.765 287.252 134.765 287.665C134.765 288.087 134.86 288.472 135.05 288.819C135.24 289.167 135.526 289.444 135.906 289.65C136.295 289.849 136.77 289.948 137.333 289.948C138.036 289.948 138.656 289.799 139.194 289.502C139.731 289.204 140.157 288.84 140.472 288.41C140.794 287.98 140.968 287.562 140.993 287.157L141.973 288.261C141.915 288.608 141.758 288.993 141.501 289.415C141.245 289.837 140.902 290.242 140.472 290.631C140.05 291.011 139.545 291.329 138.958 291.586C138.379 291.834 137.726 291.958 136.998 291.958C136.088 291.958 135.29 291.78 134.603 291.425C133.925 291.069 133.396 290.593 133.015 289.998C132.643 289.394 132.457 288.72 132.457 287.976C132.457 287.256 132.598 286.623 132.879 286.077C133.16 285.523 133.565 285.064 134.095 284.7C134.624 284.328 135.261 284.047 136.005 283.857C136.75 283.666 137.581 283.571 138.499 283.571H141.166ZM154.491 288.149C154.491 287.818 154.417 287.512 154.268 287.231C154.127 286.942 153.834 286.681 153.387 286.45C152.949 286.21 152.287 286.003 151.402 285.829C150.658 285.672 149.983 285.486 149.38 285.271C148.784 285.056 148.275 284.795 147.854 284.489C147.44 284.183 147.122 283.823 146.898 283.41C146.675 282.996 146.563 282.512 146.563 281.958C146.563 281.429 146.679 280.929 146.911 280.457C147.151 279.986 147.486 279.568 147.916 279.204C148.354 278.84 148.879 278.555 149.491 278.348C150.103 278.141 150.786 278.038 151.538 278.038C152.614 278.038 153.532 278.228 154.293 278.609C155.054 278.989 155.637 279.498 156.042 280.135C156.447 280.763 156.65 281.462 156.65 282.231H154.355C154.355 281.859 154.243 281.499 154.02 281.152C153.805 280.796 153.486 280.503 153.064 280.271C152.651 280.039 152.142 279.924 151.538 279.924C150.902 279.924 150.385 280.023 149.988 280.221C149.599 280.412 149.313 280.656 149.132 280.953C148.958 281.251 148.871 281.565 148.871 281.896C148.871 282.144 148.912 282.368 148.995 282.566C149.086 282.756 149.243 282.934 149.467 283.1C149.69 283.257 150.004 283.406 150.409 283.546C150.815 283.687 151.332 283.828 151.96 283.968C153.06 284.216 153.966 284.514 154.677 284.861C155.389 285.209 155.918 285.635 156.265 286.139C156.613 286.644 156.786 287.256 156.786 287.976C156.786 288.563 156.662 289.1 156.414 289.588C156.174 290.076 155.823 290.498 155.36 290.854C154.905 291.201 154.359 291.474 153.722 291.673C153.093 291.863 152.386 291.958 151.6 291.958C150.418 291.958 149.417 291.747 148.598 291.325C147.779 290.904 147.159 290.358 146.737 289.688C146.315 289.018 146.104 288.311 146.104 287.566H148.412C148.445 288.195 148.627 288.695 148.958 289.067C149.289 289.431 149.694 289.692 150.174 289.849C150.653 289.998 151.129 290.072 151.6 290.072C152.229 290.072 152.754 289.99 153.176 289.824C153.606 289.659 153.933 289.431 154.156 289.142C154.38 288.852 154.491 288.521 154.491 288.149Z" fill="#606060"/>
<path d="M102.321 168.724V170.672H93.2893V168.724H102.321ZM93.7607 152.608V170.672H91.3662V152.608H93.7607ZM104.108 164.109V163.823C104.108 162.856 104.249 161.958 104.53 161.131C104.811 160.296 105.216 159.572 105.746 158.96C106.275 158.34 106.916 157.86 107.669 157.521C108.421 157.173 109.265 157 110.2 157C111.142 157 111.99 157.173 112.743 157.521C113.504 157.86 114.149 158.34 114.678 158.96C115.216 159.572 115.625 160.296 115.907 161.131C116.188 161.958 116.328 162.856 116.328 163.823V164.109C116.328 165.076 116.188 165.974 115.907 166.801C115.625 167.628 115.216 168.352 114.678 168.972C114.149 169.584 113.508 170.064 112.755 170.411C112.011 170.75 111.167 170.92 110.224 170.92C109.281 170.92 108.434 170.75 107.681 170.411C106.928 170.064 106.283 169.584 105.746 168.972C105.216 168.352 104.811 167.628 104.53 166.801C104.249 165.974 104.108 165.076 104.108 164.109ZM106.403 163.823V164.109C106.403 164.779 106.482 165.411 106.639 166.007C106.796 166.594 107.032 167.115 107.346 167.57C107.669 168.025 108.07 168.385 108.549 168.65C109.029 168.906 109.588 169.034 110.224 169.034C110.853 169.034 111.403 168.906 111.874 168.65C112.354 168.385 112.751 168.025 113.066 167.57C113.38 167.115 113.616 166.594 113.773 166.007C113.938 165.411 114.021 164.779 114.021 164.109V163.823C114.021 163.162 113.938 162.537 113.773 161.95C113.616 161.354 113.376 160.829 113.053 160.374C112.739 159.911 112.342 159.547 111.862 159.283C111.391 159.018 110.836 158.886 110.2 158.886C109.571 158.886 109.017 159.018 108.537 159.283C108.066 159.547 107.669 159.911 107.346 160.374C107.032 160.829 106.796 161.354 106.639 161.95C106.482 162.537 106.403 163.162 106.403 163.823ZM119.269 157.248H121.576V172.272C121.576 173.091 121.444 173.786 121.179 174.357C120.923 174.927 120.534 175.357 120.013 175.647C119.5 175.945 118.851 176.094 118.065 176.094C117.859 176.094 117.619 176.073 117.346 176.032C117.065 175.99 116.829 175.941 116.639 175.883L116.651 174.034C116.808 174.067 116.986 174.092 117.185 174.109C117.383 174.133 117.557 174.146 117.706 174.146C118.045 174.146 118.33 174.084 118.562 173.96C118.793 173.836 118.967 173.637 119.083 173.364C119.207 173.091 119.269 172.727 119.269 172.272V157.248ZM119.033 153.687C119.033 153.315 119.149 153.001 119.381 152.744C119.612 152.488 119.947 152.36 120.385 152.36C120.832 152.36 121.171 152.488 121.403 152.744C121.634 153.001 121.75 153.315 121.75 153.687C121.75 154.043 121.634 154.349 121.403 154.605C121.171 154.853 120.832 154.977 120.385 154.977C119.947 154.977 119.612 154.853 119.381 154.605C119.149 154.349 119.033 154.043 119.033 153.687ZM133.202 168.377V161.466C133.202 160.937 133.094 160.478 132.879 160.089C132.672 159.692 132.358 159.386 131.936 159.171C131.514 158.956 130.993 158.848 130.373 158.848C129.794 158.848 129.285 158.948 128.847 159.146C128.417 159.345 128.078 159.605 127.829 159.928C127.59 160.25 127.47 160.598 127.47 160.97H125.174C125.174 160.49 125.299 160.015 125.547 159.543C125.795 159.072 126.15 158.646 126.614 158.265C127.085 157.876 127.647 157.57 128.301 157.347C128.963 157.116 129.699 157 130.509 157C131.485 157 132.345 157.165 133.09 157.496C133.843 157.827 134.43 158.327 134.852 158.997C135.282 159.659 135.497 160.49 135.497 161.491V167.744C135.497 168.191 135.534 168.666 135.608 169.171C135.691 169.675 135.811 170.109 135.968 170.473V170.672H133.574C133.458 170.407 133.367 170.056 133.301 169.617C133.235 169.171 133.202 168.757 133.202 168.377ZM133.599 162.533L133.623 164.146H131.303C130.65 164.146 130.067 164.2 129.554 164.307C129.041 164.407 128.611 164.56 128.264 164.766C127.916 164.973 127.652 165.234 127.47 165.548C127.288 165.854 127.197 166.214 127.197 166.627C127.197 167.049 127.292 167.434 127.482 167.781C127.672 168.129 127.958 168.406 128.338 168.612C128.727 168.811 129.202 168.91 129.765 168.91C130.468 168.91 131.088 168.761 131.626 168.463C132.164 168.166 132.589 167.802 132.904 167.372C133.226 166.942 133.4 166.524 133.425 166.119L134.405 167.223C134.347 167.57 134.19 167.955 133.934 168.377C133.677 168.798 133.334 169.204 132.904 169.592C132.482 169.973 131.977 170.291 131.39 170.548C130.811 170.796 130.158 170.92 129.43 170.92C128.52 170.92 127.722 170.742 127.035 170.387C126.357 170.031 125.828 169.555 125.447 168.96C125.075 168.356 124.889 167.682 124.889 166.937C124.889 166.218 125.03 165.585 125.311 165.039C125.592 164.485 125.997 164.026 126.527 163.662C127.056 163.29 127.693 163.009 128.437 162.818C129.182 162.628 130.013 162.533 130.931 162.533H133.599ZM148.325 152.608V170.672H145.931V152.608H148.325ZM155.248 152.608V170.672H152.854V152.608H155.248Z" fill="#606060"/>
<path d="M105.783 109.515V111.463H96.7507V109.515H105.783ZM97.2222 93.3988V111.463H94.8277V93.3988H97.2222ZM107.569 104.9V104.614C107.569 103.647 107.71 102.749 107.991 101.922C108.272 101.087 108.678 100.363 109.207 99.751C109.736 99.1307 110.377 98.6509 111.13 98.3118C111.883 97.9644 112.726 97.7907 113.661 97.7907C114.604 97.7907 115.452 97.9644 116.204 98.3118C116.965 98.6509 117.61 99.1307 118.14 99.751C118.677 100.363 119.087 101.087 119.368 101.922C119.649 102.749 119.79 103.647 119.79 104.614V104.9C119.79 105.867 119.649 106.765 119.368 107.592C119.087 108.419 118.677 109.143 118.14 109.763C117.61 110.375 116.969 110.855 116.217 111.202C115.472 111.541 114.629 111.711 113.686 111.711C112.743 111.711 111.895 111.541 111.142 111.202C110.39 110.855 109.745 110.375 109.207 109.763C108.678 109.143 108.272 108.419 107.991 107.592C107.71 106.765 107.569 105.867 107.569 104.9ZM109.865 104.614V104.9C109.865 105.57 109.943 106.202 110.1 106.798C110.257 107.385 110.493 107.906 110.808 108.361C111.13 108.816 111.531 109.176 112.011 109.441C112.491 109.697 113.049 109.825 113.686 109.825C114.314 109.825 114.864 109.697 115.336 109.441C115.816 109.176 116.213 108.816 116.527 108.361C116.841 107.906 117.077 107.385 117.234 106.798C117.4 106.202 117.482 105.57 117.482 104.9V104.614C117.482 103.953 117.4 103.328 117.234 102.741C117.077 102.145 116.837 101.62 116.515 101.165C116.2 100.702 115.803 100.338 115.324 100.074C114.852 99.8089 114.298 99.6765 113.661 99.6765C113.032 99.6765 112.478 99.8089 111.999 100.074C111.527 100.338 111.13 100.702 110.808 101.165C110.493 101.62 110.257 102.145 110.1 102.741C109.943 103.328 109.865 103.953 109.865 104.614ZM122.73 98.0389H125.038V113.063C125.038 113.882 124.906 114.577 124.641 115.148C124.385 115.718 123.996 116.148 123.475 116.438C122.962 116.736 122.313 116.885 121.527 116.885C121.32 116.885 121.08 116.864 120.807 116.823C120.526 116.781 120.29 116.732 120.1 116.674L120.113 114.825C120.27 114.858 120.447 114.883 120.646 114.9C120.845 114.924 121.018 114.937 121.167 114.937C121.506 114.937 121.792 114.875 122.023 114.751C122.255 114.627 122.428 114.428 122.544 114.155C122.668 113.882 122.73 113.518 122.73 113.063V98.0389ZM122.495 94.4782C122.495 94.106 122.61 93.7916 122.842 93.5352C123.074 93.2788 123.409 93.1506 123.847 93.1506C124.294 93.1506 124.633 93.2788 124.864 93.5352C125.096 93.7916 125.212 94.106 125.212 94.4782C125.212 94.8338 125.096 95.1398 124.864 95.3962C124.633 95.6444 124.294 95.7684 123.847 95.7684C123.409 95.7684 123.074 95.6444 122.842 95.3962C122.61 95.1398 122.495 94.8338 122.495 94.4782ZM136.663 109.168V102.257C136.663 101.728 136.555 101.269 136.34 100.88C136.134 100.483 135.819 100.177 135.398 99.9619C134.976 99.7469 134.455 99.6393 133.834 99.6393C133.255 99.6393 132.747 99.7386 132.308 99.9371C131.878 100.136 131.539 100.396 131.291 100.719C131.051 101.041 130.931 101.389 130.931 101.761H128.636C128.636 101.281 128.76 100.806 129.008 100.334C129.256 99.8626 129.612 99.4367 130.075 99.0562C130.547 98.6675 131.109 98.3614 131.762 98.1381C132.424 97.9065 133.16 97.7907 133.971 97.7907C134.947 97.7907 135.807 97.9562 136.551 98.287C137.304 98.6178 137.891 99.1182 138.313 99.7882C138.743 100.45 138.958 101.281 138.958 102.282V108.535C138.958 108.982 138.995 109.457 139.07 109.962C139.153 110.466 139.273 110.9 139.43 111.264V111.463H137.035C136.919 111.198 136.828 110.847 136.762 110.408C136.696 109.962 136.663 109.548 136.663 109.168ZM137.06 103.324L137.085 104.937H134.765C134.111 104.937 133.528 104.991 133.015 105.098C132.503 105.198 132.073 105.351 131.725 105.557C131.378 105.764 131.113 106.025 130.931 106.339C130.749 106.645 130.658 107.005 130.658 107.418C130.658 107.84 130.753 108.225 130.944 108.572C131.134 108.92 131.419 109.197 131.8 109.403C132.188 109.602 132.664 109.701 133.226 109.701C133.929 109.701 134.55 109.552 135.087 109.255C135.625 108.957 136.051 108.593 136.365 108.163C136.688 107.733 136.862 107.315 136.886 106.91L137.866 108.014C137.809 108.361 137.651 108.746 137.395 109.168C137.139 109.589 136.795 109.995 136.365 110.384C135.943 110.764 135.439 111.082 134.852 111.339C134.273 111.587 133.619 111.711 132.891 111.711C131.982 111.711 131.183 111.533 130.497 111.178C129.819 110.822 129.289 110.346 128.909 109.751C128.537 109.147 128.351 108.473 128.351 107.728C128.351 107.009 128.491 106.376 128.772 105.83C129.054 105.276 129.459 104.817 129.988 104.453C130.518 104.081 131.154 103.8 131.899 103.609C132.643 103.419 133.474 103.324 134.393 103.324H137.06ZM151.787 93.3988V111.463H149.392V93.3988H151.787Z" fill="#606060"/>
<path d="M53.156 194.652H56.8887V206.344H53.156V194.652ZM33.6634 204.797H56.8887V209.582H33.6634V204.797ZM48.4344 192.929H48.0994C46.8339 192.929 45.6695 192.748 44.6061 192.387C43.532 192.025 42.6015 191.499 41.8146 190.807C41.0276 190.116 40.4161 189.265 39.9801 188.255C39.5335 187.245 39.3102 186.086 39.3102 184.778C39.3102 183.47 39.5335 182.305 39.9801 181.284C40.4161 180.264 41.0276 179.407 41.8146 178.716C42.6015 178.014 43.532 177.483 44.6061 177.121C45.6695 176.76 46.8339 176.579 48.0994 176.579H48.4344C49.6893 176.579 50.8537 176.76 51.9278 177.121C52.9912 177.483 53.9217 178.014 54.7193 178.716C55.5062 179.407 56.1177 180.258 56.5537 181.269C56.9897 182.279 57.2077 183.438 57.2077 184.746C57.2077 186.054 56.9897 187.218 56.5537 188.239C56.1177 189.25 55.5062 190.106 54.7193 190.807C53.9217 191.499 52.9912 192.025 51.9278 192.387C50.8537 192.748 49.6893 192.929 48.4344 192.929ZM48.0994 188.335H48.4344C49.1575 188.335 49.8328 188.271 50.4602 188.144C51.0877 188.016 51.6406 187.814 52.1192 187.537C52.5871 187.25 52.954 186.878 53.2198 186.421C53.4857 185.964 53.6186 185.405 53.6186 184.746C53.6186 184.108 53.4857 183.56 53.2198 183.103C52.954 182.646 52.5871 182.279 52.1192 182.002C51.6406 181.726 51.0877 181.524 50.4602 181.396C49.8328 181.258 49.1575 181.189 48.4344 181.189H48.0994C47.3976 181.189 46.7382 181.258 46.1214 181.396C45.494 181.524 44.941 181.731 44.4625 182.018C43.9733 182.295 43.5905 182.662 43.314 183.119C43.0375 183.576 42.8993 184.129 42.8993 184.778C42.8993 185.427 43.0375 185.979 43.314 186.437C43.5905 186.883 43.9733 187.25 44.4625 187.537C44.941 187.814 45.494 188.016 46.1214 188.144C46.7382 188.271 47.3976 188.335 48.0994 188.335ZM39.6292 173.5V168.89H57.9255C59.2016 168.89 60.281 169.124 61.1637 169.592C62.0463 170.06 62.7163 170.735 63.1735 171.618C63.6308 172.501 63.8595 173.569 63.8595 174.824C63.8595 175.218 63.8382 175.6 63.7956 175.973C63.7531 176.355 63.684 176.749 63.5883 177.153L60.063 177.137C60.1055 176.882 60.1374 176.632 60.1587 176.387C60.1906 176.153 60.2066 175.914 60.2066 175.67C60.2066 175.191 60.1268 174.792 59.9673 174.473C59.8078 174.154 59.5579 173.915 59.2176 173.755C58.8879 173.585 58.4572 173.5 57.9255 173.5H39.6292ZM35.1309 173.867C34.4609 173.867 33.908 173.633 33.472 173.165C33.0359 172.687 32.8179 172.059 32.8179 171.283C32.8179 170.496 33.0359 169.869 33.472 169.401C33.908 168.933 34.4609 168.699 35.1309 168.699C35.8009 168.699 36.3538 168.933 36.7899 169.401C37.2259 169.869 37.4439 170.496 37.4439 171.283C37.4439 172.059 37.2259 172.687 36.7899 173.165C36.3538 173.633 35.8009 173.867 35.1309 173.867ZM52.9965 155.922H45.3079C44.7549 155.922 44.2817 156.012 43.8882 156.193C43.4841 156.374 43.1704 156.655 42.9471 157.038C42.7238 157.41 42.6121 157.894 42.6121 158.49C42.6121 159 42.7025 159.442 42.8833 159.814C43.0535 160.186 43.3034 160.473 43.633 160.675C43.9521 160.877 44.3296 160.978 44.7656 160.978V165.572C44.0318 165.572 43.3353 165.402 42.6759 165.062C42.0166 164.722 41.437 164.227 40.9372 163.578C40.4268 162.93 40.028 162.159 39.7409 161.265C39.4537 160.361 39.3102 159.351 39.3102 158.235C39.3102 156.895 39.5335 155.704 39.9801 154.661C40.4268 153.619 41.0967 152.8 41.99 152.205C42.8833 151.599 43.9999 151.296 45.3398 151.296H52.7253C53.6718 151.296 54.4481 151.237 55.0543 151.12C55.6498 151.003 56.1709 150.833 56.6175 150.61H56.8887V155.252C56.4208 155.475 55.8359 155.645 55.134 155.762C54.4215 155.868 53.709 155.922 52.9965 155.922ZM46.3767 155.316L48.9768 155.284V157.852C48.9768 158.458 49.0459 158.984 49.1841 159.431C49.3224 159.878 49.5191 160.245 49.7743 160.532C50.0189 160.819 50.306 161.031 50.6357 161.17C50.9654 161.297 51.3269 161.361 51.7204 161.361C52.1139 161.361 52.4701 161.271 52.7892 161.09C53.0975 160.909 53.3421 160.649 53.5229 160.308C53.6931 159.968 53.7781 159.569 53.7781 159.112C53.7781 158.421 53.6399 157.82 53.3634 157.309C53.0869 156.799 52.7466 156.406 52.3425 156.129C51.9384 155.842 51.5556 155.693 51.194 155.682L53.1401 154.47C53.5761 154.64 54.028 154.874 54.496 155.172C54.9639 155.459 55.4052 155.826 55.8199 156.273C56.224 156.719 56.559 157.256 56.8249 157.884C57.0801 158.511 57.2077 159.256 57.2077 160.117C57.2077 161.212 56.9897 162.207 56.5537 163.1C56.1071 163.982 55.4956 164.684 54.7193 165.205C53.9323 165.716 53.0391 165.971 52.0394 165.971C51.1355 165.971 50.3326 165.801 49.6308 165.461C48.9289 165.12 48.3387 164.621 47.8602 163.961C47.371 163.291 47.0041 162.456 46.7595 161.457C46.5043 160.457 46.3767 159.298 46.3767 157.979V155.316ZM52.1192 138.423C51.7895 138.423 51.4918 138.519 51.2259 138.71C50.9601 138.901 50.7155 139.258 50.4921 139.779C50.2582 140.289 50.0455 141.028 49.8541 141.996C49.6627 142.868 49.4234 143.682 49.1363 144.437C48.8385 145.181 48.4823 145.83 48.0675 146.383C47.6528 146.925 47.1636 147.35 46.6 147.659C46.0257 147.967 45.3717 148.121 44.638 148.121C43.9148 148.121 43.2342 147.967 42.5962 147.659C41.9581 147.34 41.3945 146.888 40.9053 146.303C40.4055 145.707 40.0174 144.984 39.7409 144.134C39.4537 143.272 39.3102 142.304 39.3102 141.23C39.3102 139.731 39.5495 138.444 40.028 137.37C40.5065 136.285 41.1659 135.456 42.006 134.882C42.8355 134.297 43.7819 134.004 44.8453 134.004V138.598C44.3987 138.598 43.9999 138.694 43.649 138.886C43.2874 139.066 43.0056 139.353 42.8035 139.747C42.5909 140.13 42.4845 140.63 42.4845 141.246C42.4845 141.757 42.5749 142.198 42.7557 142.57C42.9258 142.943 43.1598 143.23 43.4576 143.432C43.7447 143.623 44.0637 143.719 44.4146 143.719C44.6805 143.719 44.9198 143.666 45.1325 143.559C45.3345 143.442 45.5206 143.256 45.6908 143.001C45.8609 142.746 46.0204 142.416 46.1693 142.012C46.3075 141.597 46.4352 141.087 46.5521 140.481C46.8074 139.236 47.1423 138.125 47.5571 137.147C47.9612 136.168 48.5142 135.392 49.216 134.818C49.9073 134.244 50.8165 133.957 51.9437 133.957C52.7094 133.957 53.4113 134.127 54.0493 134.467C54.6874 134.807 55.2457 135.296 55.7242 135.935C56.1921 136.573 56.559 137.338 56.8249 138.232C57.0801 139.114 57.2077 140.108 57.2077 141.214C57.2077 142.82 56.9206 144.181 56.3463 145.298C55.7721 146.404 55.0436 147.244 54.161 147.818C53.2677 148.382 52.3531 148.664 51.4173 148.664V144.309C52.0448 144.288 52.5499 144.128 52.9327 143.83C53.3155 143.522 53.592 143.134 53.7622 142.666C53.9323 142.187 54.0174 141.672 54.0174 141.119C54.0174 140.523 53.9377 140.029 53.7781 139.635C53.608 139.242 53.3847 138.944 53.1082 138.742C52.8211 138.529 52.4914 138.423 52.1192 138.423Z" fill="#606060"/>
<path d="M407.182 454.93L412.653 436.554H417.981L409.893 459.779H406.384L407.182 454.93ZM402.141 436.554L407.596 454.93L408.426 459.779H404.885L396.845 436.554H402.141ZM427.105 460.098C425.765 460.098 424.563 459.886 423.5 459.46C422.437 459.024 421.533 458.423 420.788 457.658C420.054 456.892 419.491 456.004 419.097 454.994C418.704 453.973 418.507 452.888 418.507 451.74V451.102C418.507 449.794 418.693 448.597 419.065 447.513C419.438 446.428 419.969 445.487 420.661 444.689C421.362 443.892 422.213 443.28 423.213 442.855C424.212 442.419 425.34 442.201 426.595 442.201C427.818 442.201 428.902 442.403 429.849 442.807C430.795 443.211 431.587 443.785 432.225 444.53C432.874 445.274 433.363 446.167 433.693 447.21C434.023 448.241 434.187 449.39 434.187 450.655V452.569H420.469V449.507H429.673V449.156C429.673 448.518 429.556 447.949 429.322 447.449C429.099 446.938 428.759 446.534 428.301 446.237C427.844 445.939 427.259 445.79 426.547 445.79C425.941 445.79 425.419 445.923 424.983 446.189C424.547 446.455 424.191 446.827 423.915 447.305C423.649 447.784 423.447 448.347 423.309 448.996C423.181 449.634 423.117 450.336 423.117 451.102V451.74C423.117 452.431 423.213 453.069 423.404 453.654C423.606 454.239 423.888 454.744 424.25 455.169C424.622 455.595 425.069 455.924 425.59 456.158C426.121 456.392 426.722 456.509 427.392 456.509C428.222 456.509 428.993 456.35 429.705 456.031C430.428 455.701 431.05 455.207 431.571 454.547L433.805 456.972C433.443 457.493 432.949 457.993 432.321 458.471C431.704 458.95 430.96 459.343 430.088 459.652C429.216 459.949 428.222 460.098 427.105 460.098ZM441.302 446.205V459.779H436.708V442.52H441.015L441.302 446.205ZM440.632 450.543H439.388C439.388 449.267 439.552 448.119 439.882 447.098C440.212 446.066 440.674 445.189 441.27 444.466C441.865 443.732 442.573 443.174 443.391 442.791C444.221 442.398 445.146 442.201 446.167 442.201C446.975 442.201 447.714 442.318 448.384 442.552C449.054 442.786 449.628 443.158 450.107 443.668C450.596 444.179 450.968 444.854 451.224 445.694C451.489 446.534 451.622 447.56 451.622 448.773V459.779H446.996V448.757C446.996 447.991 446.89 447.396 446.677 446.97C446.465 446.545 446.151 446.247 445.736 446.077C445.332 445.896 444.832 445.806 444.237 445.806C443.62 445.806 443.083 445.928 442.626 446.173C442.179 446.417 441.807 446.758 441.509 447.194C441.222 447.619 441.004 448.119 440.855 448.693C440.706 449.267 440.632 449.884 440.632 450.543ZM465.309 456.015V435.278H469.935V459.779H465.771L465.309 456.015ZM454.398 451.357V451.022C454.398 449.703 454.547 448.507 454.845 447.433C455.142 446.348 455.578 445.418 456.153 444.641C456.727 443.865 457.434 443.264 458.274 442.839C459.114 442.413 460.071 442.201 461.145 442.201C462.156 442.201 463.038 442.413 463.793 442.839C464.559 443.264 465.208 443.87 465.739 444.657C466.282 445.434 466.718 446.354 467.047 447.417C467.377 448.47 467.616 449.624 467.765 450.878V451.612C467.616 452.814 467.377 453.93 467.047 454.962C466.718 455.993 466.282 456.897 465.739 457.674C465.208 458.439 464.559 459.035 463.793 459.46C463.028 459.886 462.134 460.098 461.113 460.098C460.039 460.098 459.082 459.88 458.242 459.444C457.413 459.008 456.711 458.397 456.137 457.61C455.573 456.823 455.142 455.898 454.845 454.834C454.547 453.771 454.398 452.612 454.398 451.357ZM458.992 451.022V451.357C458.992 452.069 459.045 452.734 459.151 453.351C459.268 453.968 459.455 454.515 459.71 454.994C459.976 455.462 460.316 455.829 460.731 456.095C461.156 456.35 461.672 456.477 462.278 456.477C463.065 456.477 463.714 456.302 464.224 455.951C464.734 455.589 465.123 455.095 465.388 454.467C465.665 453.84 465.824 453.117 465.867 452.298V450.208C465.835 449.538 465.739 448.938 465.58 448.406C465.431 447.864 465.208 447.401 464.91 447.018C464.623 446.635 464.261 446.338 463.825 446.125C463.4 445.912 462.895 445.806 462.31 445.806C461.714 445.806 461.204 445.944 460.779 446.221C460.353 446.486 460.008 446.853 459.742 447.321C459.486 447.789 459.295 448.342 459.167 448.98C459.05 449.608 458.992 450.288 458.992 451.022ZM482.839 455.887V448.199C482.839 447.646 482.749 447.172 482.568 446.779C482.387 446.375 482.106 446.061 481.723 445.838C481.351 445.614 480.867 445.503 480.271 445.503C479.761 445.503 479.319 445.593 478.947 445.774C478.575 445.944 478.288 446.194 478.086 446.524C477.884 446.843 477.783 447.22 477.783 447.656H473.189C473.189 446.922 473.359 446.226 473.699 445.567C474.039 444.907 474.534 444.328 475.183 443.828C475.831 443.317 476.602 442.919 477.496 442.631C478.4 442.344 479.41 442.201 480.526 442.201C481.866 442.201 483.057 442.424 484.1 442.871C485.142 443.317 485.961 443.987 486.556 444.881C487.162 445.774 487.465 446.891 487.465 448.23V455.616C487.465 456.562 487.524 457.339 487.641 457.945C487.758 458.54 487.928 459.061 488.151 459.508V459.779H483.509C483.286 459.311 483.116 458.727 482.999 458.025C482.893 457.312 482.839 456.6 482.839 455.887ZM483.446 449.267L483.477 451.867H480.909C480.303 451.867 479.777 451.937 479.33 452.075C478.883 452.213 478.517 452.41 478.229 452.665C477.942 452.91 477.73 453.197 477.591 453.526C477.464 453.856 477.4 454.218 477.4 454.611C477.4 455.004 477.49 455.361 477.671 455.68C477.852 455.988 478.112 456.233 478.453 456.414C478.793 456.584 479.192 456.669 479.649 456.669C480.34 456.669 480.941 456.531 481.452 456.254C481.962 455.978 482.355 455.637 482.632 455.233C482.919 454.829 483.068 454.446 483.079 454.085L484.291 456.031C484.121 456.467 483.887 456.919 483.589 457.387C483.302 457.854 482.935 458.296 482.488 458.711C482.042 459.115 481.505 459.45 480.877 459.715C480.25 459.971 479.506 460.098 478.644 460.098C477.549 460.098 476.554 459.88 475.661 459.444C474.779 458.998 474.077 458.386 473.556 457.61C473.045 456.823 472.79 455.93 472.79 454.93C472.79 454.026 472.96 453.223 473.3 452.521C473.641 451.82 474.141 451.229 474.8 450.751C475.47 450.262 476.305 449.895 477.304 449.65C478.304 449.395 479.463 449.267 480.782 449.267H483.446ZM500.338 455.01C500.338 454.68 500.242 454.382 500.051 454.117C499.86 453.851 499.503 453.606 498.982 453.383C498.472 453.149 497.733 452.936 496.765 452.745C495.893 452.553 495.079 452.314 494.324 452.027C493.58 451.729 492.931 451.373 492.378 450.958C491.836 450.543 491.411 450.054 491.102 449.491C490.794 448.916 490.64 448.262 490.64 447.529C490.64 446.805 490.794 446.125 491.102 445.487C491.421 444.849 491.873 444.285 492.458 443.796C493.054 443.296 493.777 442.908 494.627 442.631C495.489 442.344 496.457 442.201 497.531 442.201C499.03 442.201 500.317 442.44 501.391 442.919C502.476 443.397 503.305 444.056 503.879 444.897C504.464 445.726 504.757 446.673 504.757 447.736H500.163C500.163 447.289 500.067 446.891 499.875 446.54C499.695 446.178 499.408 445.896 499.014 445.694C498.631 445.481 498.131 445.375 497.515 445.375C497.004 445.375 496.563 445.466 496.191 445.646C495.819 445.816 495.531 446.05 495.329 446.348C495.138 446.635 495.042 446.954 495.042 447.305C495.042 447.571 495.095 447.81 495.202 448.023C495.319 448.225 495.505 448.411 495.76 448.581C496.015 448.752 496.345 448.911 496.749 449.06C497.164 449.198 497.674 449.326 498.28 449.443C499.525 449.698 500.636 450.033 501.614 450.448C502.593 450.852 503.369 451.405 503.943 452.107C504.517 452.798 504.804 453.707 504.804 454.834C504.804 455.6 504.634 456.302 504.294 456.94C503.954 457.578 503.465 458.136 502.827 458.615C502.188 459.083 501.423 459.45 500.529 459.715C499.647 459.971 498.653 460.098 497.547 460.098C495.941 460.098 494.58 459.811 493.463 459.237C492.357 458.663 491.517 457.934 490.943 457.052C490.379 456.158 490.097 455.244 490.097 454.308H494.452C494.473 454.935 494.633 455.441 494.931 455.823C495.239 456.206 495.627 456.483 496.095 456.653C496.574 456.823 497.089 456.908 497.642 456.908C498.238 456.908 498.732 456.828 499.126 456.669C499.519 456.499 499.817 456.275 500.019 455.999C500.232 455.712 500.338 455.382 500.338 455.01Z" fill="#606060"/>
<line x1="304.039" y1="386.648" x2="304.039" y2="67.9527" stroke="#CACACA" stroke-width="3.62984"/>
<line x1="435.24" y1="386.648" x2="435.24" y2="67.9527" stroke="#CACACA" stroke-width="3.62984"/>
<line x1="566.433" y1="386.648" x2="566.433" y2="67.9527" stroke="#CACACA" stroke-width="3.62984"/>
<line x1="697.634" y1="386.648" x2="697.634" y2="67.9527" stroke="#CACACA" stroke-width="3.62984"/>
<line x1="205.64" y1="382.396" x2="205.64" y2="366.062" stroke="#CACACA" stroke-width="3.62984"/>
<line x1="238.445" y1="382.396" x2="238.445" y2="366.062" stroke="#CACACA" stroke-width="3.62984"/>
<line x1="271.248" y1="382.396" x2="271.248" y2="366.062" stroke="#CACACA" stroke-width="3.62984"/>
<line x1="336.841" y1="381.269" x2="336.841" y2="364.934" stroke="#CACACA" stroke-width="3.62984"/>
<line x1="369.646" y1="381.269" x2="369.646" y2="364.934" stroke="#CACACA" stroke-width="3.62984"/>
<line x1="402.441" y1="381.269" x2="402.441" y2="364.934" stroke="#CACACA" stroke-width="3.62984"/>
<line x1="468.039" y1="382.395" x2="468.039" y2="366.06" stroke="#CACACA" stroke-width="3.62984"/>
<line x1="500.837" y1="382.395" x2="500.837" y2="366.06" stroke="#CACACA" stroke-width="3.62984"/>
<line x1="533.638" y1="382.395" x2="533.638" y2="366.06" stroke="#CACACA" stroke-width="3.62984"/>
<line x1="599.238" y1="382.395" x2="599.238" y2="366.06" stroke="#CACACA" stroke-width="3.62984"/>
<line x1="632.037" y1="382.395" x2="632.037" y2="366.06" stroke="#CACACA" stroke-width="3.62984"/>
<line x1="664.835" y1="382.395" x2="664.835" y2="366.06" stroke="#CACACA" stroke-width="3.62984"/>
<rect x="171.926" y="79.3936" width="415.684" height="30.8536" fill="#0567FF"/>
<rect x="171.926" y="144.804" width="467.381" height="30.8536" fill="#0567FF"/>
<rect x="171.926" y="210.218" width="293.3" height="30.8536" fill="#0567FF"/>
<rect x="171.926" y="266.135" width="425.365" height="30.8536" fill="#0567FF"/>
<rect x="1.90281" y="1.90867" width="769.375" height="513.049" stroke="#0567FF" stroke-width="3.62984"/>
<path d="M119.883 296.186L112.642 301.053L85.2163 301.057C79.2027 301.058 74.3281 305.933 74.3281 311.946V375.139C74.3281 381.153 79.2035 386.028 85.2177 386.028H154.146C160.161 386.028 165.036 381.153 165.036 375.139V311.879C165.036 305.892 160.203 301.028 154.215 300.99L127.123 300.818L119.883 296.186Z" fill="#606060"/>
<path d="M97.5427 324.293V325.963H89.801V324.293H97.5427ZM90.2051 310.479V325.963H88.1527V310.479H90.2051ZM99.0741 320.337V320.093C99.0741 319.263 99.1946 318.494 99.4357 317.785C99.6767 317.069 100.024 316.449 100.478 315.924C100.932 315.392 101.481 314.981 102.126 314.691C102.771 314.393 103.494 314.244 104.296 314.244C105.104 314.244 105.83 314.393 106.476 314.691C107.128 314.981 107.681 315.392 108.135 315.924C108.595 316.449 108.946 317.069 109.187 317.785C109.428 318.494 109.549 319.263 109.549 320.093V320.337C109.549 321.167 109.428 321.936 109.187 322.645C108.946 323.354 108.595 323.974 108.135 324.506C107.681 325.031 107.131 325.442 106.486 325.74C105.848 326.03 105.125 326.176 104.317 326.176C103.509 326.176 102.782 326.03 102.137 325.74C101.492 325.442 100.939 325.031 100.478 324.506C100.024 323.974 99.6767 323.354 99.4357 322.645C99.1946 321.936 99.0741 321.167 99.0741 320.337ZM101.041 320.093V320.337C101.041 320.912 101.109 321.454 101.243 321.964C101.378 322.468 101.58 322.914 101.85 323.304C102.126 323.694 102.47 324.003 102.881 324.23C103.292 324.449 103.771 324.559 104.317 324.559C104.856 324.559 105.327 324.449 105.731 324.23C106.142 324.003 106.483 323.694 106.752 323.304C107.021 322.914 107.223 322.468 107.358 321.964C107.5 321.454 107.571 320.912 107.571 320.337V320.093C107.571 319.526 107.5 318.99 107.358 318.487C107.223 317.977 107.018 317.526 106.741 317.136C106.472 316.739 106.132 316.427 105.721 316.201C105.316 315.974 104.841 315.86 104.296 315.86C103.757 315.86 103.282 315.974 102.871 316.201C102.466 316.427 102.126 316.739 101.85 317.136C101.58 317.526 101.378 317.977 101.243 318.487C101.109 318.99 101.041 319.526 101.041 320.093ZM112.069 314.457H114.047V327.335C114.047 328.037 113.934 328.632 113.707 329.121C113.487 329.61 113.154 329.979 112.707 330.227C112.268 330.482 111.711 330.61 111.038 330.61C110.86 330.61 110.655 330.592 110.421 330.557C110.18 330.521 109.978 330.479 109.815 330.429L109.825 328.845C109.96 328.873 110.112 328.894 110.283 328.909C110.453 328.93 110.602 328.94 110.729 328.94C111.02 328.94 111.265 328.887 111.463 328.781C111.662 328.675 111.81 328.504 111.91 328.271C112.016 328.037 112.069 327.725 112.069 327.335V314.457ZM111.867 311.405C111.867 311.086 111.966 310.816 112.165 310.596C112.363 310.377 112.651 310.267 113.026 310.267C113.409 310.267 113.7 310.377 113.898 310.596C114.097 310.816 114.196 311.086 114.196 311.405C114.196 311.709 114.097 311.972 113.898 312.191C113.7 312.404 113.409 312.511 113.026 312.511C112.651 312.511 112.363 312.404 112.165 312.191C111.966 311.972 111.867 311.709 111.867 311.405ZM124.012 323.996V318.072C124.012 317.619 123.919 317.225 123.735 316.892C123.558 316.552 123.288 316.289 122.927 316.105C122.565 315.921 122.119 315.828 121.587 315.828C121.091 315.828 120.655 315.913 120.279 316.084C119.91 316.254 119.62 316.477 119.407 316.754C119.201 317.03 119.098 317.328 119.098 317.647H117.131C117.131 317.236 117.237 316.828 117.45 316.424C117.663 316.02 117.968 315.655 118.365 315.329C118.769 314.995 119.251 314.733 119.811 314.542C120.378 314.343 121.009 314.244 121.704 314.244C122.54 314.244 123.278 314.386 123.916 314.669C124.561 314.953 125.064 315.382 125.426 315.956C125.795 316.523 125.979 317.236 125.979 318.094V323.453C125.979 323.836 126.011 324.244 126.075 324.676C126.145 325.109 126.248 325.481 126.383 325.793V325.963H124.331C124.231 325.736 124.153 325.435 124.097 325.059C124.04 324.676 124.012 324.322 124.012 323.996ZM124.352 318.987L124.373 320.369H122.384C121.824 320.369 121.325 320.415 120.885 320.507C120.445 320.593 120.077 320.724 119.779 320.901C119.481 321.078 119.254 321.302 119.098 321.571C118.942 321.833 118.865 322.142 118.865 322.496C118.865 322.858 118.946 323.187 119.109 323.485C119.272 323.783 119.517 324.02 119.843 324.198C120.176 324.368 120.584 324.453 121.066 324.453C121.668 324.453 122.2 324.325 122.661 324.07C123.122 323.815 123.487 323.503 123.756 323.134C124.033 322.766 124.182 322.407 124.203 322.06L125.043 323.007C124.993 323.304 124.859 323.634 124.639 323.996C124.419 324.357 124.125 324.704 123.756 325.038C123.395 325.364 122.962 325.637 122.459 325.857C121.963 326.069 121.403 326.176 120.779 326.176C119.999 326.176 119.315 326.023 118.726 325.718C118.145 325.413 117.691 325.006 117.365 324.495C117.046 323.978 116.887 323.4 116.887 322.762C116.887 322.145 117.007 321.603 117.248 321.135C117.489 320.66 117.837 320.266 118.29 319.955C118.744 319.635 119.29 319.394 119.928 319.231C120.566 319.068 121.278 318.987 122.065 318.987H124.352ZM136.975 310.479V325.963H134.922V310.479H136.975ZM145.705 323.613L150.268 310.479H152.49L146.758 325.963H145.174L145.705 323.613ZM141.441 310.479L145.961 323.613L146.524 325.963H144.94L139.219 310.479H141.441ZM97.5427 350.293V351.963H89.801V350.293H97.5427ZM90.2051 336.479V351.963H88.1527V336.479H90.2051ZM99.0741 346.337V346.093C99.0741 345.263 99.1946 344.494 99.4357 343.785C99.6767 343.069 100.024 342.449 100.478 341.924C100.932 341.392 101.481 340.981 102.126 340.691C102.771 340.393 103.494 340.244 104.296 340.244C105.104 340.244 105.83 340.393 106.476 340.691C107.128 340.981 107.681 341.392 108.135 341.924C108.595 342.449 108.946 343.069 109.187 343.785C109.428 344.494 109.549 345.263 109.549 346.093V346.337C109.549 347.167 109.428 347.936 109.187 348.645C108.946 349.354 108.595 349.974 108.135 350.506C107.681 351.031 107.131 351.442 106.486 351.74C105.848 352.03 105.125 352.176 104.317 352.176C103.509 352.176 102.782 352.03 102.137 351.74C101.492 351.442 100.939 351.031 100.478 350.506C100.024 349.974 99.6767 349.354 99.4357 348.645C99.1946 347.936 99.0741 347.167 99.0741 346.337ZM101.041 346.093V346.337C101.041 346.912 101.109 347.454 101.243 347.964C101.378 348.468 101.58 348.914 101.85 349.304C102.126 349.694 102.47 350.003 102.881 350.23C103.292 350.449 103.771 350.559 104.317 350.559C104.856 350.559 105.327 350.449 105.731 350.23C106.142 350.003 106.483 349.694 106.752 349.304C107.021 348.914 107.223 348.468 107.358 347.964C107.5 347.454 107.571 346.912 107.571 346.337V346.093C107.571 345.526 107.5 344.99 107.358 344.487C107.223 343.977 107.018 343.526 106.741 343.136C106.472 342.739 106.132 342.427 105.721 342.201C105.316 341.974 104.841 341.86 104.296 341.86C103.757 341.86 103.282 341.974 102.871 342.201C102.466 342.427 102.126 342.739 101.85 343.136C101.58 343.526 101.378 343.977 101.243 344.487C101.109 344.99 101.041 345.526 101.041 346.093ZM112.069 340.457H114.047V353.335C114.047 354.037 113.934 354.632 113.707 355.121C113.487 355.61 113.154 355.979 112.707 356.227C112.268 356.482 111.711 356.61 111.038 356.61C110.86 356.61 110.655 356.592 110.421 356.557C110.18 356.521 109.978 356.479 109.815 356.429L109.825 354.845C109.96 354.873 110.112 354.894 110.283 354.909C110.453 354.93 110.602 354.94 110.729 354.94C111.02 354.94 111.265 354.887 111.463 354.781C111.662 354.675 111.81 354.504 111.91 354.271C112.016 354.037 112.069 353.725 112.069 353.335V340.457ZM111.867 337.405C111.867 337.086 111.966 336.816 112.165 336.596C112.363 336.377 112.651 336.267 113.026 336.267C113.409 336.267 113.7 336.377 113.898 336.596C114.097 336.816 114.196 337.086 114.196 337.405C114.196 337.709 114.097 337.972 113.898 338.191C113.7 338.404 113.409 338.511 113.026 338.511C112.651 338.511 112.363 338.404 112.165 338.191C111.966 337.972 111.867 337.709 111.867 337.405ZM124.012 349.996V344.072C124.012 343.619 123.919 343.225 123.735 342.892C123.558 342.552 123.288 342.289 122.927 342.105C122.565 341.921 122.119 341.828 121.587 341.828C121.091 341.828 120.655 341.913 120.279 342.084C119.91 342.254 119.62 342.477 119.407 342.754C119.201 343.03 119.098 343.328 119.098 343.647H117.131C117.131 343.236 117.237 342.828 117.45 342.424C117.663 342.02 117.968 341.655 118.365 341.329C118.769 340.995 119.251 340.733 119.811 340.542C120.378 340.343 121.009 340.244 121.704 340.244C122.54 340.244 123.278 340.386 123.916 340.669C124.561 340.953 125.064 341.382 125.426 341.956C125.795 342.523 125.979 343.236 125.979 344.094V349.453C125.979 349.836 126.011 350.244 126.075 350.676C126.145 351.109 126.248 351.481 126.383 351.793V351.963H124.331C124.231 351.736 124.153 351.435 124.097 351.059C124.04 350.676 124.012 350.322 124.012 349.996ZM124.352 344.987L124.373 346.369H122.384C121.824 346.369 121.325 346.415 120.885 346.507C120.445 346.593 120.077 346.724 119.779 346.901C119.481 347.078 119.254 347.302 119.098 347.571C118.942 347.833 118.865 348.142 118.865 348.496C118.865 348.858 118.946 349.187 119.109 349.485C119.272 349.783 119.517 350.02 119.843 350.198C120.176 350.368 120.584 350.453 121.066 350.453C121.668 350.453 122.2 350.325 122.661 350.07C123.122 349.815 123.487 349.503 123.756 349.134C124.033 348.766 124.182 348.407 124.203 348.06L125.043 349.007C124.993 349.304 124.859 349.634 124.639 349.996C124.419 350.357 124.125 350.704 123.756 351.038C123.395 351.364 122.962 351.637 122.459 351.857C121.963 352.069 121.403 352.176 120.779 352.176C119.999 352.176 119.315 352.023 118.726 351.718C118.145 351.413 117.691 351.006 117.365 350.495C117.046 349.978 116.887 349.4 116.887 348.762C116.887 348.145 117.007 347.603 117.248 347.135C117.489 346.66 117.837 346.266 118.29 345.955C118.744 345.635 119.29 345.394 119.928 345.231C120.566 345.068 121.278 344.987 122.065 344.987H124.352ZM139.772 349.613L144.334 336.479H146.556L140.824 351.963H139.24L139.772 349.613ZM135.507 336.479L140.027 349.613L140.59 351.963H139.006L133.285 336.479H135.507ZM97.5427 376.293V377.963H89.801V376.293H97.5427ZM90.2051 362.479V377.963H88.1527V362.479H90.2051ZM99.0741 372.337V372.093C99.0741 371.263 99.1946 370.494 99.4357 369.785C99.6767 369.069 100.024 368.449 100.478 367.924C100.932 367.392 101.481 366.981 102.126 366.691C102.771 366.393 103.494 366.244 104.296 366.244C105.104 366.244 105.83 366.393 106.476 366.691C107.128 366.981 107.681 367.392 108.135 367.924C108.595 368.449 108.946 369.069 109.187 369.785C109.428 370.494 109.549 371.263 109.549 372.093V372.337C109.549 373.167 109.428 373.936 109.187 374.645C108.946 375.354 108.595 375.974 108.135 376.506C107.681 377.031 107.131 377.442 106.486 377.74C105.848 378.03 105.125 378.176 104.317 378.176C103.509 378.176 102.782 378.03 102.137 377.74C101.492 377.442 100.939 377.031 100.478 376.506C100.024 375.974 99.6767 375.354 99.4357 374.645C99.1946 373.936 99.0741 373.167 99.0741 372.337ZM101.041 372.093V372.337C101.041 372.912 101.109 373.454 101.243 373.964C101.378 374.468 101.58 374.914 101.85 375.304C102.126 375.694 102.47 376.003 102.881 376.23C103.292 376.449 103.771 376.559 104.317 376.559C104.856 376.559 105.327 376.449 105.731 376.23C106.142 376.003 106.483 375.694 106.752 375.304C107.021 374.914 107.223 374.468 107.358 373.964C107.5 373.454 107.571 372.912 107.571 372.337V372.093C107.571 371.526 107.5 370.99 107.358 370.487C107.223 369.977 107.018 369.526 106.741 369.136C106.472 368.739 106.132 368.427 105.721 368.201C105.316 367.974 104.841 367.86 104.296 367.86C103.757 367.86 103.282 367.974 102.871 368.201C102.466 368.427 102.126 368.739 101.85 369.136C101.58 369.526 101.378 369.977 101.243 370.487C101.109 370.99 101.041 371.526 101.041 372.093ZM112.069 366.457H114.047V379.335C114.047 380.037 113.934 380.632 113.707 381.121C113.487 381.61 113.154 381.979 112.707 382.227C112.268 382.482 111.711 382.61 111.038 382.61C110.86 382.61 110.655 382.592 110.421 382.557C110.18 382.521 109.978 382.479 109.815 382.429L109.825 380.845C109.96 380.873 110.112 380.894 110.283 380.909C110.453 380.93 110.602 380.94 110.729 380.94C111.02 380.94 111.265 380.887 111.463 380.781C111.662 380.675 111.81 380.504 111.91 380.271C112.016 380.037 112.069 379.725 112.069 379.335V366.457ZM111.867 363.405C111.867 363.086 111.966 362.816 112.165 362.596C112.363 362.377 112.651 362.267 113.026 362.267C113.409 362.267 113.7 362.377 113.898 362.596C114.097 362.816 114.196 363.086 114.196 363.405C114.196 363.709 114.097 363.972 113.898 364.191C113.7 364.404 113.409 364.511 113.026 364.511C112.651 364.511 112.363 364.404 112.165 364.191C111.966 363.972 111.867 363.709 111.867 363.405ZM124.012 375.996V370.072C124.012 369.619 123.919 369.225 123.735 368.892C123.558 368.552 123.288 368.289 122.927 368.105C122.565 367.921 122.119 367.828 121.587 367.828C121.091 367.828 120.655 367.913 120.279 368.084C119.91 368.254 119.62 368.477 119.407 368.754C119.201 369.03 119.098 369.328 119.098 369.647H117.131C117.131 369.236 117.237 368.828 117.45 368.424C117.663 368.02 117.968 367.655 118.365 367.329C118.769 366.995 119.251 366.733 119.811 366.542C120.378 366.343 121.009 366.244 121.704 366.244C122.54 366.244 123.278 366.386 123.916 366.669C124.561 366.953 125.064 367.382 125.426 367.956C125.795 368.523 125.979 369.236 125.979 370.094V375.453C125.979 375.836 126.011 376.244 126.075 376.676C126.145 377.109 126.248 377.481 126.383 377.793V377.963H124.331C124.231 377.736 124.153 377.435 124.097 377.059C124.04 376.676 124.012 376.322 124.012 375.996ZM124.352 370.987L124.373 372.369H122.384C121.824 372.369 121.325 372.415 120.885 372.507C120.445 372.593 120.077 372.724 119.779 372.901C119.481 373.078 119.254 373.302 119.098 373.571C118.942 373.833 118.865 374.142 118.865 374.496C118.865 374.858 118.946 375.187 119.109 375.485C119.272 375.783 119.517 376.02 119.843 376.198C120.176 376.368 120.584 376.453 121.066 376.453C121.668 376.453 122.2 376.325 122.661 376.07C123.122 375.815 123.487 375.503 123.756 375.134C124.033 374.766 124.182 374.407 124.203 374.06L125.043 375.007C124.993 375.304 124.859 375.634 124.639 375.996C124.419 376.357 124.125 376.704 123.756 377.038C123.395 377.364 122.962 377.637 122.459 377.857C121.963 378.069 121.403 378.176 120.779 378.176C119.999 378.176 119.315 378.023 118.726 377.718C118.145 377.413 117.691 377.006 117.365 376.495C117.046 375.978 116.887 375.4 116.887 374.762C116.887 374.145 117.007 373.603 117.248 373.135C117.489 372.66 117.837 372.266 118.29 371.955C118.744 371.635 119.29 371.394 119.928 371.231C120.566 371.068 121.278 370.987 122.065 370.987H124.352ZM139.772 375.613L144.334 362.479H146.556L140.824 377.963H139.24L139.772 375.613ZM135.507 362.479L140.027 375.613L140.59 377.963H139.006L133.285 362.479H135.507ZM150.842 362.479V377.963H148.789V362.479H150.842Z" fill="#FDFBF9"/>
</svg>
