<svg width="774" height="517" viewBox="0 0 774 517" fill="none" xmlns="http://www.w3.org/2000/svg">
<line x1="171.447" y1="382.064" x2="171.447" y2="64.5713" stroke="#606060" stroke-width="3.62984"/>
<path d="M178.145 395.092V397.847C178.145 399.327 178.012 400.576 177.748 401.593C177.483 402.611 177.103 403.43 176.606 404.05C176.11 404.67 175.51 405.121 174.807 405.402C174.113 405.675 173.327 405.812 172.45 405.812C171.755 405.812 171.114 405.725 170.527 405.551C169.94 405.377 169.411 405.1 168.939 404.72C168.476 404.331 168.079 403.827 167.748 403.206C167.417 402.586 167.165 401.833 166.991 400.948C166.818 400.063 166.731 399.029 166.731 397.847V395.092C166.731 393.612 166.863 392.371 167.128 391.37C167.401 390.369 167.785 389.567 168.282 388.963C168.778 388.351 169.373 387.913 170.068 387.648C170.771 387.384 171.557 387.251 172.425 387.251C173.128 387.251 173.774 387.338 174.361 387.512C174.956 387.677 175.486 387.946 175.949 388.318C176.412 388.682 176.805 389.17 177.127 389.782C177.458 390.386 177.711 391.126 177.884 392.003C178.058 392.88 178.145 393.909 178.145 395.092ZM175.837 398.219V394.708C175.837 393.897 175.788 393.186 175.688 392.574C175.597 391.953 175.461 391.424 175.279 390.986C175.097 390.547 174.865 390.192 174.584 389.919C174.311 389.646 173.993 389.447 173.629 389.323C173.273 389.191 172.872 389.125 172.425 389.125C171.879 389.125 171.396 389.228 170.974 389.435C170.552 389.633 170.196 389.952 169.907 390.39C169.626 390.828 169.411 391.403 169.262 392.115C169.113 392.826 169.038 393.69 169.038 394.708V398.219C169.038 399.029 169.084 399.745 169.175 400.365C169.274 400.985 169.419 401.523 169.609 401.978C169.799 402.425 170.031 402.793 170.304 403.082C170.577 403.372 170.891 403.587 171.247 403.727C171.611 403.86 172.012 403.926 172.45 403.926C173.013 403.926 173.505 403.818 173.927 403.603C174.348 403.388 174.7 403.053 174.981 402.598C175.271 402.135 175.486 401.544 175.626 400.824C175.767 400.096 175.837 399.228 175.837 398.219Z" fill="#606060"/>
<path d="M304.227 406.049V407.935H292.403V406.284L298.321 399.697C299.049 398.886 299.612 398.199 300.009 397.637C300.414 397.066 300.695 396.558 300.852 396.111C301.018 395.656 301.1 395.193 301.1 394.721C301.1 394.126 300.976 393.588 300.728 393.109C300.488 392.621 300.133 392.232 299.661 391.942C299.19 391.653 298.619 391.508 297.949 391.508C297.147 391.508 296.477 391.665 295.939 391.98C295.41 392.286 295.013 392.716 294.748 393.27C294.484 393.824 294.351 394.461 294.351 395.181H292.056C292.056 394.163 292.279 393.233 292.726 392.389C293.173 391.545 293.834 390.875 294.711 390.379C295.588 389.875 296.667 389.622 297.949 389.622C299.091 389.622 300.067 389.825 300.877 390.23C301.688 390.627 302.308 391.19 302.738 391.918C303.176 392.637 303.396 393.481 303.396 394.449C303.396 394.978 303.305 395.515 303.123 396.061C302.949 396.599 302.705 397.137 302.391 397.674C302.085 398.212 301.725 398.741 301.311 399.262C300.906 399.783 300.472 400.296 300.009 400.801L295.17 406.049H304.227ZM309.587 399.337L307.75 398.865L308.656 389.87H317.924V391.992H310.604L310.058 396.905C310.389 396.715 310.807 396.537 311.311 396.372C311.824 396.206 312.411 396.123 313.073 396.123C313.908 396.123 314.657 396.268 315.318 396.558C315.98 396.839 316.543 397.244 317.006 397.774C317.477 398.303 317.837 398.94 318.085 399.684C318.333 400.429 318.457 401.26 318.457 402.178C318.457 403.046 318.337 403.845 318.098 404.572C317.866 405.3 317.514 405.937 317.043 406.483C316.572 407.021 315.976 407.438 315.256 407.736C314.545 408.034 313.706 408.183 312.738 408.183C312.01 408.183 311.319 408.083 310.666 407.885C310.021 407.678 309.442 407.368 308.929 406.954C308.425 406.533 308.011 406.012 307.688 405.391C307.374 404.763 307.176 404.026 307.093 403.183H309.276C309.376 403.861 309.574 404.432 309.872 404.895C310.17 405.358 310.558 405.71 311.038 405.95C311.526 406.181 312.093 406.297 312.738 406.297C313.284 406.297 313.768 406.202 314.189 406.012C314.611 405.821 314.967 405.548 315.256 405.193C315.546 404.837 315.765 404.407 315.914 403.902C316.071 403.398 316.15 402.831 316.15 402.203C316.15 401.632 316.071 401.103 315.914 400.615C315.757 400.127 315.521 399.701 315.207 399.337C314.901 398.973 314.524 398.692 314.078 398.493C313.631 398.286 313.118 398.183 312.539 398.183C311.77 398.183 311.187 398.286 310.79 398.493C310.401 398.7 310 398.981 309.587 399.337Z" fill="#606060"/>
<path d="M426.47 399.337L424.634 398.865L425.539 389.87H434.807V391.992H427.487L426.941 396.905C427.272 396.715 427.69 396.537 428.194 396.372C428.707 396.206 429.294 396.123 429.956 396.123C430.792 396.123 431.54 396.268 432.202 396.558C432.863 396.839 433.426 397.244 433.889 397.774C434.361 398.303 434.72 398.94 434.968 399.684C435.217 400.429 435.341 401.26 435.341 402.178C435.341 403.046 435.221 403.845 434.981 404.572C434.749 405.3 434.398 405.937 433.926 406.483C433.455 407.021 432.859 407.438 432.14 407.736C431.428 408.034 430.589 408.183 429.621 408.183C428.893 408.183 428.203 408.083 427.549 407.885C426.904 407.678 426.325 407.368 425.812 406.954C425.308 406.533 424.894 406.012 424.572 405.391C424.257 404.763 424.059 404.026 423.976 403.183H426.16C426.259 403.861 426.457 404.432 426.755 404.895C427.053 405.358 427.442 405.71 427.921 405.95C428.409 406.181 428.976 406.297 429.621 406.297C430.167 406.297 430.651 406.202 431.073 406.012C431.495 405.821 431.85 405.548 432.14 405.193C432.429 404.837 432.648 404.407 432.797 403.902C432.954 403.398 433.033 402.831 433.033 402.203C433.033 401.632 432.954 401.103 432.797 400.615C432.64 400.127 432.404 399.701 432.09 399.337C431.784 398.973 431.408 398.692 430.961 398.493C430.514 398.286 430.002 398.183 429.423 398.183C428.653 398.183 428.07 398.286 427.673 398.493C427.285 398.7 426.883 398.981 426.47 399.337ZM449.199 397.463V400.218C449.199 401.698 449.067 402.947 448.802 403.964C448.537 404.982 448.157 405.801 447.66 406.421C447.164 407.041 446.565 407.492 445.862 407.773C445.167 408.046 444.381 408.183 443.504 408.183C442.809 408.183 442.168 408.096 441.581 407.922C440.994 407.748 440.465 407.471 439.993 407.091C439.53 406.702 439.133 406.198 438.802 405.577C438.471 404.957 438.219 404.204 438.045 403.319C437.872 402.434 437.785 401.4 437.785 400.218V397.463C437.785 395.983 437.917 394.742 438.182 393.741C438.455 392.741 438.839 391.938 439.336 391.334C439.832 390.722 440.427 390.284 441.122 390.019C441.825 389.755 442.611 389.622 443.479 389.622C444.182 389.622 444.828 389.709 445.415 389.883C446.01 390.048 446.54 390.317 447.003 390.689C447.466 391.053 447.859 391.541 448.182 392.153C448.512 392.757 448.765 393.497 448.938 394.374C449.112 395.251 449.199 396.281 449.199 397.463ZM446.891 400.59V397.079C446.891 396.268 446.842 395.557 446.742 394.945C446.651 394.324 446.515 393.795 446.333 393.357C446.151 392.918 445.919 392.563 445.638 392.29C445.365 392.017 445.047 391.818 444.683 391.694C444.327 391.562 443.926 391.496 443.479 391.496C442.934 391.496 442.45 391.599 442.028 391.806C441.606 392.004 441.25 392.323 440.961 392.761C440.68 393.2 440.465 393.774 440.316 394.486C440.167 395.197 440.092 396.061 440.092 397.079V400.59C440.092 401.4 440.138 402.116 440.229 402.736C440.328 403.357 440.473 403.894 440.663 404.349C440.853 404.796 441.085 405.164 441.358 405.453C441.631 405.743 441.945 405.958 442.301 406.098C442.665 406.231 443.066 406.297 443.504 406.297C444.067 406.297 444.559 406.189 444.981 405.974C445.402 405.759 445.754 405.424 446.035 404.969C446.325 404.506 446.54 403.915 446.68 403.195C446.821 402.467 446.891 401.599 446.891 400.59Z" fill="#606060"/>
<path d="M567.488 389.87V391.161L560.006 407.935H557.587L565.056 391.756H555.279V389.87H567.488ZM573.008 399.337L571.172 398.865L572.078 389.87H581.346V391.992H574.026L573.48 396.905C573.811 396.715 574.228 396.537 574.733 396.372C575.246 396.206 575.833 396.123 576.495 396.123C577.33 396.123 578.079 396.268 578.74 396.558C579.402 396.839 579.964 397.244 580.428 397.774C580.899 398.303 581.259 398.94 581.507 399.684C581.755 400.429 581.879 401.26 581.879 402.178C581.879 403.046 581.759 403.845 581.519 404.572C581.288 405.3 580.936 405.937 580.465 406.483C579.993 407.021 579.398 407.438 578.678 407.736C577.967 408.034 577.127 408.183 576.16 408.183C575.432 408.183 574.741 408.083 574.088 407.885C573.443 407.678 572.864 407.368 572.351 406.954C571.846 406.533 571.433 406.012 571.11 405.391C570.796 404.763 570.597 404.026 570.515 403.183H572.698C572.798 403.861 572.996 404.432 573.294 404.895C573.592 405.358 573.98 405.71 574.46 405.95C574.948 406.181 575.515 406.297 576.16 406.297C576.706 406.297 577.19 406.202 577.611 406.012C578.033 405.821 578.389 405.548 578.678 405.193C578.968 404.837 579.187 404.407 579.336 403.902C579.493 403.398 579.572 402.831 579.572 402.203C579.572 401.632 579.493 401.103 579.336 400.615C579.179 400.127 578.943 399.701 578.629 399.337C578.323 398.973 577.946 398.692 577.5 398.493C577.053 398.286 576.54 398.183 575.961 398.183C575.192 398.183 574.609 398.286 574.212 398.493C573.823 398.7 573.422 398.981 573.008 399.337Z" fill="#606060"/>
<path d="M686.312 389.771V407.935H684.017V392.637L679.389 394.324V392.253L685.952 389.771H686.312ZM704.401 397.463V400.218C704.401 401.698 704.269 402.947 704.004 403.964C703.739 404.982 703.359 405.801 702.862 406.421C702.366 407.041 701.767 407.492 701.064 407.773C700.369 408.046 699.583 408.183 698.706 408.183C698.011 408.183 697.37 408.096 696.783 407.922C696.196 407.748 695.667 407.471 695.195 407.091C694.732 406.702 694.335 406.198 694.004 405.577C693.673 404.957 693.421 404.204 693.247 403.319C693.074 402.434 692.987 401.4 692.987 400.218V397.463C692.987 395.983 693.119 394.742 693.384 393.741C693.657 392.741 694.041 391.938 694.538 391.334C695.034 390.722 695.629 390.284 696.324 390.019C697.027 389.755 697.813 389.622 698.681 389.622C699.384 389.622 700.03 389.709 700.617 389.883C701.212 390.048 701.742 390.317 702.205 390.689C702.668 391.053 703.061 391.541 703.384 392.153C703.714 392.757 703.967 393.497 704.14 394.374C704.314 395.251 704.401 396.281 704.401 397.463ZM702.093 400.59V397.079C702.093 396.268 702.044 395.557 701.944 394.945C701.853 394.324 701.717 393.795 701.535 393.357C701.353 392.918 701.121 392.563 700.84 392.29C700.567 392.017 700.249 391.818 699.885 391.694C699.529 391.562 699.128 391.496 698.681 391.496C698.136 391.496 697.652 391.599 697.23 391.806C696.808 392.004 696.452 392.323 696.163 392.761C695.882 393.2 695.667 393.774 695.518 394.486C695.369 395.197 695.294 396.061 695.294 397.079V400.59C695.294 401.4 695.34 402.116 695.431 402.736C695.53 403.357 695.675 403.894 695.865 404.349C696.055 404.796 696.287 405.164 696.56 405.453C696.833 405.743 697.147 405.958 697.503 406.098C697.867 406.231 698.268 406.297 698.706 406.297C699.269 406.297 699.761 406.189 700.183 405.974C700.604 405.759 700.956 405.424 701.237 404.969C701.527 404.506 701.742 403.915 701.882 403.195C702.023 402.467 702.093 401.599 702.093 400.59ZM718.693 397.463V400.218C718.693 401.698 718.561 402.947 718.296 403.964C718.032 404.982 717.651 405.801 717.155 406.421C716.659 407.041 716.059 407.492 715.356 407.773C714.661 408.046 713.875 408.183 712.999 408.183C712.304 408.183 711.663 408.096 711.076 407.922C710.488 407.748 709.959 407.471 709.488 407.091C709.024 406.702 708.627 406.198 708.297 405.577C707.966 404.957 707.713 404.204 707.54 403.319C707.366 402.434 707.279 401.4 707.279 400.218V397.463C707.279 395.983 707.412 394.742 707.676 393.741C707.949 392.741 708.334 391.938 708.83 391.334C709.326 390.722 709.922 390.284 710.617 390.019C711.32 389.755 712.105 389.622 712.974 389.622C713.677 389.622 714.322 389.709 714.909 389.883C715.505 390.048 716.034 390.317 716.497 390.689C716.961 391.053 717.353 391.541 717.676 392.153C718.007 392.757 718.259 393.497 718.433 394.374C718.607 395.251 718.693 396.281 718.693 397.463ZM716.386 400.59V397.079C716.386 396.268 716.336 395.557 716.237 394.945C716.146 394.324 716.009 393.795 715.827 393.357C715.645 392.918 715.414 392.563 715.133 392.29C714.86 392.017 714.541 391.818 714.177 391.694C713.822 391.562 713.421 391.496 712.974 391.496C712.428 391.496 711.944 391.599 711.522 391.806C711.101 392.004 710.745 392.323 710.455 392.761C710.174 393.2 709.959 393.774 709.81 394.486C709.661 395.197 709.587 396.061 709.587 397.079V400.59C709.587 401.4 709.632 402.116 709.723 402.736C709.823 403.357 709.967 403.894 710.158 404.349C710.348 404.796 710.579 405.164 710.852 405.453C711.125 405.743 711.44 405.958 711.795 406.098C712.159 406.231 712.56 406.297 712.999 406.297C713.561 406.297 714.053 406.189 714.475 405.974C714.897 405.759 715.248 405.424 715.53 404.969C715.819 404.506 716.034 403.915 716.175 403.195C716.315 402.467 716.386 401.599 716.386 400.59Z" fill="#606060"/>
<path d="M95.5526 217.59V219.538H86.5205V217.59H95.5526ZM86.9919 201.474V219.538H84.5975V201.474H86.9919ZM97.3391 212.975V212.69C97.3391 211.722 97.4797 210.824 97.7609 209.997C98.0422 209.162 98.4474 208.438 98.9768 207.826C99.5061 207.206 100.147 206.726 100.9 206.387C101.653 206.04 102.496 205.866 103.431 205.866C104.374 205.866 105.221 206.04 105.974 206.387C106.735 206.726 107.38 207.206 107.91 207.826C108.447 208.438 108.857 209.162 109.138 209.997C109.419 210.824 109.56 211.722 109.56 212.69V212.975C109.56 213.943 109.419 214.84 109.138 215.667C108.857 216.494 108.447 217.218 107.91 217.838C107.38 218.45 106.739 218.93 105.987 219.278C105.242 219.617 104.399 219.786 103.456 219.786C102.513 219.786 101.665 219.617 100.912 219.278C100.16 218.93 99.5144 218.45 98.9768 217.838C98.4474 217.218 98.0422 216.494 97.7609 215.667C97.4797 214.84 97.3391 213.943 97.3391 212.975ZM99.6343 212.69V212.975C99.6343 213.645 99.7129 214.278 99.8701 214.873C100.027 215.46 100.263 215.982 100.577 216.436C100.9 216.891 101.301 217.251 101.781 217.516C102.26 217.772 102.819 217.9 103.456 217.9C104.084 217.9 104.634 217.772 105.106 217.516C105.585 217.251 105.982 216.891 106.297 216.436C106.611 215.982 106.847 215.46 107.004 214.873C107.169 214.278 107.252 213.645 107.252 212.975V212.69C107.252 212.028 107.169 211.403 107.004 210.816C106.847 210.221 106.607 209.695 106.284 209.241C105.97 208.777 105.573 208.413 105.093 208.149C104.622 207.884 104.068 207.752 103.431 207.752C102.802 207.752 102.248 207.884 101.768 208.149C101.297 208.413 100.9 208.777 100.577 209.241C100.263 209.695 100.027 210.221 99.8701 210.816C99.7129 211.403 99.6343 212.028 99.6343 212.69ZM112.5 206.114H114.808V221.139C114.808 221.957 114.675 222.652 114.411 223.223C114.154 223.794 113.766 224.224 113.244 224.513C112.732 224.811 112.082 224.96 111.297 224.96C111.09 224.96 110.85 224.939 110.577 224.898C110.296 224.856 110.06 224.807 109.87 224.749L109.882 222.9C110.039 222.933 110.217 222.958 110.416 222.975C110.614 223 110.788 223.012 110.937 223.012C111.276 223.012 111.561 222.95 111.793 222.826C112.024 222.702 112.198 222.503 112.314 222.23C112.438 221.957 112.5 221.593 112.5 221.139V206.114ZM112.264 202.553C112.264 202.181 112.38 201.867 112.612 201.61C112.843 201.354 113.178 201.226 113.617 201.226C114.063 201.226 114.402 201.354 114.634 201.61C114.866 201.867 114.981 202.181 114.981 202.553C114.981 202.909 114.866 203.215 114.634 203.471C114.402 203.72 114.063 203.844 113.617 203.844C113.178 203.844 112.843 203.72 112.612 203.471C112.38 203.215 112.264 202.909 112.264 202.553ZM126.433 217.243V210.332C126.433 209.803 126.325 209.344 126.11 208.955C125.903 208.558 125.589 208.252 125.167 208.037C124.745 207.822 124.224 207.715 123.604 207.715C123.025 207.715 122.516 207.814 122.078 208.012C121.648 208.211 121.309 208.471 121.061 208.794C120.821 209.116 120.701 209.464 120.701 209.836H118.406C118.406 209.356 118.53 208.881 118.778 208.409C119.026 207.938 119.382 207.512 119.845 207.131C120.316 206.743 120.879 206.437 121.532 206.213C122.194 205.982 122.93 205.866 123.741 205.866C124.717 205.866 125.577 206.031 126.321 206.362C127.074 206.693 127.661 207.193 128.083 207.863C128.513 208.525 128.728 209.356 128.728 210.357V216.61C128.728 217.057 128.765 217.532 128.84 218.037C128.922 218.541 129.042 218.976 129.199 219.34V219.538H126.805C126.689 219.273 126.598 218.922 126.532 218.484C126.466 218.037 126.433 217.623 126.433 217.243ZM126.83 211.399L126.855 213.012H124.535C123.881 213.012 123.298 213.066 122.785 213.173C122.272 213.273 121.842 213.426 121.495 213.633C121.148 213.839 120.883 214.1 120.701 214.414C120.519 214.72 120.428 215.08 120.428 215.494C120.428 215.915 120.523 216.3 120.713 216.647C120.904 216.995 121.189 217.272 121.569 217.479C121.958 217.677 122.434 217.776 122.996 217.776C123.699 217.776 124.32 217.627 124.857 217.33C125.395 217.032 125.821 216.668 126.135 216.238C126.458 215.808 126.631 215.39 126.656 214.985L127.636 216.089C127.578 216.436 127.421 216.821 127.165 217.243C126.908 217.665 126.565 218.07 126.135 218.459C125.713 218.839 125.209 219.158 124.621 219.414C124.042 219.662 123.389 219.786 122.661 219.786C121.751 219.786 120.953 219.608 120.267 219.253C119.588 218.897 119.059 218.421 118.679 217.826C118.306 217.222 118.12 216.548 118.12 215.804C118.12 215.084 118.261 214.451 118.542 213.905C118.823 213.351 119.229 212.892 119.758 212.528C120.287 212.156 120.924 211.875 121.669 211.685C122.413 211.494 123.244 211.399 124.162 211.399H126.83ZM141.557 201.474V219.538H139.162V201.474H141.557ZM151.742 216.796L157.065 201.474H159.658L152.971 219.538H151.122L151.742 216.796ZM146.767 201.474L152.04 216.796L152.698 219.538H150.849L144.174 201.474H146.767Z" fill="#606060"/>
<path d="M102.475 255.706V257.654H93.4434V255.706H102.475ZM93.9149 239.59V257.654H91.5204V239.59H93.9149ZM104.262 251.091V250.806C104.262 249.838 104.403 248.941 104.684 248.114C104.965 247.278 105.37 246.554 105.9 245.942C106.429 245.322 107.07 244.842 107.823 244.503C108.575 244.156 109.419 243.982 110.354 243.982C111.297 243.982 112.144 244.156 112.897 244.503C113.658 244.842 114.303 245.322 114.833 245.942C115.37 246.554 115.78 247.278 116.061 248.114C116.342 248.941 116.483 249.838 116.483 250.806V251.091C116.483 252.059 116.342 252.956 116.061 253.783C115.78 254.611 115.37 255.334 114.833 255.955C114.303 256.567 113.662 257.046 112.909 257.394C112.165 257.733 111.321 257.902 110.379 257.902C109.436 257.902 108.588 257.733 107.835 257.394C107.082 257.046 106.437 256.567 105.9 255.955C105.37 255.334 104.965 254.611 104.684 253.783C104.403 252.956 104.262 252.059 104.262 251.091ZM106.557 250.806V251.091C106.557 251.761 106.636 252.394 106.793 252.989C106.95 253.577 107.186 254.098 107.5 254.553C107.823 255.008 108.224 255.367 108.704 255.632C109.183 255.888 109.742 256.017 110.379 256.017C111.007 256.017 111.557 255.888 112.029 255.632C112.508 255.367 112.905 255.008 113.22 254.553C113.534 254.098 113.77 253.577 113.927 252.989C114.092 252.394 114.175 251.761 114.175 251.091V250.806C114.175 250.144 114.092 249.52 113.927 248.932C113.77 248.337 113.53 247.812 113.207 247.357C112.893 246.894 112.496 246.53 112.016 246.265C111.545 246 110.991 245.868 110.354 245.868C109.725 245.868 109.171 246 108.691 246.265C108.22 246.53 107.823 246.894 107.5 247.357C107.186 247.812 106.95 248.337 106.793 248.932C106.636 249.52 106.557 250.144 106.557 250.806ZM119.423 244.23H121.731V259.255C121.731 260.074 121.598 260.768 121.334 261.339C121.077 261.91 120.688 262.34 120.167 262.629C119.655 262.927 119.005 263.076 118.22 263.076C118.013 263.076 117.773 263.055 117.5 263.014C117.219 262.973 116.983 262.923 116.793 262.865L116.805 261.017C116.962 261.05 117.14 261.074 117.339 261.091C117.537 261.116 117.711 261.128 117.86 261.128C118.199 261.128 118.484 261.066 118.716 260.942C118.947 260.818 119.121 260.619 119.237 260.347C119.361 260.074 119.423 259.71 119.423 259.255V244.23ZM119.187 240.67C119.187 240.297 119.303 239.983 119.535 239.727C119.766 239.47 120.101 239.342 120.54 239.342C120.986 239.342 121.325 239.47 121.557 239.727C121.789 239.983 121.904 240.297 121.904 240.67C121.904 241.025 121.789 241.331 121.557 241.588C121.325 241.836 120.986 241.96 120.54 241.96C120.101 241.96 119.766 241.836 119.535 241.588C119.303 241.331 119.187 241.025 119.187 240.67ZM133.356 255.359V248.449C133.356 247.919 133.248 247.46 133.033 247.071C132.826 246.674 132.512 246.368 132.09 246.153C131.668 245.938 131.147 245.831 130.527 245.831C129.948 245.831 129.439 245.93 129.001 246.128C128.571 246.327 128.232 246.588 127.984 246.91C127.744 247.233 127.624 247.58 127.624 247.952H125.329C125.329 247.473 125.453 246.997 125.701 246.526C125.949 246.054 126.305 245.628 126.768 245.248C127.239 244.859 127.802 244.553 128.455 244.33C129.117 244.098 129.853 243.982 130.663 243.982C131.639 243.982 132.5 244.148 133.244 244.478C133.997 244.809 134.584 245.31 135.006 245.98C135.436 246.641 135.651 247.473 135.651 248.473V254.726C135.651 255.173 135.688 255.649 135.763 256.153C135.845 256.658 135.965 257.092 136.122 257.456V257.654H133.728C133.612 257.39 133.521 257.038 133.455 256.6C133.389 256.153 133.356 255.74 133.356 255.359ZM133.753 249.516L133.778 251.128H131.457C130.804 251.128 130.221 251.182 129.708 251.29C129.195 251.389 128.765 251.542 128.418 251.749C128.07 251.955 127.806 252.216 127.624 252.53C127.442 252.836 127.351 253.196 127.351 253.61C127.351 254.032 127.446 254.416 127.636 254.764C127.826 255.111 128.112 255.388 128.492 255.595C128.881 255.793 129.357 255.893 129.919 255.893C130.622 255.893 131.242 255.744 131.78 255.446C132.318 255.148 132.744 254.784 133.058 254.354C133.381 253.924 133.554 253.506 133.579 253.101L134.559 254.205C134.501 254.553 134.344 254.937 134.088 255.359C133.831 255.781 133.488 256.186 133.058 256.575C132.636 256.955 132.132 257.274 131.544 257.53C130.965 257.778 130.312 257.902 129.584 257.902C128.674 257.902 127.876 257.725 127.19 257.369C126.511 257.013 125.982 256.538 125.602 255.942C125.229 255.338 125.043 254.664 125.043 253.92C125.043 253.2 125.184 252.568 125.465 252.022C125.746 251.468 126.152 251.008 126.681 250.645C127.21 250.272 127.847 249.991 128.592 249.801C129.336 249.611 130.167 249.516 131.085 249.516H133.753ZM151.742 254.912L157.065 239.59H159.658L152.971 257.654H151.122L151.742 254.912ZM146.767 239.59L152.04 254.912L152.698 257.654H150.849L144.174 239.59H146.767Z" fill="#606060"/>
<path d="M95.5526 293.824V295.771H86.5205V293.824H95.5526ZM86.9919 277.707V295.771H84.5975V277.707H86.9919ZM97.3391 289.208V288.923C97.3391 287.955 97.4797 287.058 97.7609 286.231C98.0422 285.395 98.4474 284.672 98.9768 284.06C99.5061 283.439 100.147 282.96 100.9 282.62C101.653 282.273 102.496 282.099 103.431 282.099C104.374 282.099 105.221 282.273 105.974 282.62C106.735 282.96 107.38 283.439 107.91 284.06C108.447 284.672 108.857 285.395 109.138 286.231C109.419 287.058 109.56 287.955 109.56 288.923V289.208C109.56 290.176 109.419 291.073 109.138 291.901C108.857 292.728 108.447 293.451 107.91 294.072C107.38 294.684 106.739 295.164 105.987 295.511C105.242 295.85 104.399 296.02 103.456 296.02C102.513 296.02 101.665 295.85 100.912 295.511C100.16 295.164 99.5144 294.684 98.9768 294.072C98.4474 293.451 98.0422 292.728 97.7609 291.901C97.4797 291.073 97.3391 290.176 97.3391 289.208ZM99.6343 288.923V289.208C99.6343 289.878 99.7129 290.511 99.8701 291.107C100.027 291.694 100.263 292.215 100.577 292.67C100.9 293.125 101.301 293.485 101.781 293.749C102.26 294.006 102.819 294.134 103.456 294.134C104.084 294.134 104.634 294.006 105.106 293.749C105.585 293.485 105.982 293.125 106.297 292.67C106.611 292.215 106.847 291.694 107.004 291.107C107.169 290.511 107.252 289.878 107.252 289.208V288.923C107.252 288.261 107.169 287.637 107.004 287.05C106.847 286.454 106.607 285.929 106.284 285.474C105.97 285.011 105.573 284.647 105.093 284.382C104.622 284.117 104.068 283.985 103.431 283.985C102.802 283.985 102.248 284.117 101.768 284.382C101.297 284.647 100.9 285.011 100.577 285.474C100.263 285.929 100.027 286.454 99.8701 287.05C99.7129 287.637 99.6343 288.261 99.6343 288.923ZM112.5 282.347H114.808V297.372C114.808 298.191 114.675 298.886 114.411 299.456C114.154 300.027 113.766 300.457 113.244 300.747C112.732 301.044 112.082 301.193 111.297 301.193C111.09 301.193 110.85 301.173 110.577 301.131C110.296 301.09 110.06 301.04 109.87 300.982L109.882 299.134C110.039 299.167 110.217 299.192 110.416 299.208C110.614 299.233 110.788 299.245 110.937 299.245C111.276 299.245 111.561 299.183 111.793 299.059C112.024 298.935 112.198 298.737 112.314 298.464C112.438 298.191 112.5 297.827 112.5 297.372V282.347ZM112.264 278.787C112.264 278.415 112.38 278.1 112.612 277.844C112.843 277.587 113.178 277.459 113.617 277.459C114.063 277.459 114.402 277.587 114.634 277.844C114.866 278.1 114.981 278.415 114.981 278.787C114.981 279.142 114.866 279.448 114.634 279.705C114.402 279.953 114.063 280.077 113.617 280.077C113.178 280.077 112.843 279.953 112.612 279.705C112.38 279.448 112.264 279.142 112.264 278.787ZM126.433 293.476V286.566C126.433 286.036 126.325 285.577 126.11 285.189C125.903 284.792 125.589 284.486 125.167 284.27C124.745 284.055 124.224 283.948 123.604 283.948C123.025 283.948 122.516 284.047 122.078 284.246C121.648 284.444 121.309 284.705 121.061 285.027C120.821 285.35 120.701 285.697 120.701 286.069H118.406C118.406 285.59 118.53 285.114 118.778 284.643C119.026 284.171 119.382 283.745 119.845 283.365C120.316 282.976 120.879 282.67 121.532 282.447C122.194 282.215 122.93 282.099 123.741 282.099C124.717 282.099 125.577 282.265 126.321 282.596C127.074 282.926 127.661 283.427 128.083 284.097C128.513 284.758 128.728 285.59 128.728 286.591V292.844C128.728 293.29 128.765 293.766 128.84 294.27C128.922 294.775 129.042 295.209 129.199 295.573V295.771H126.805C126.689 295.507 126.598 295.155 126.532 294.717C126.466 294.27 126.433 293.857 126.433 293.476ZM126.83 287.633L126.855 289.246H124.535C123.881 289.246 123.298 289.299 122.785 289.407C122.272 289.506 121.842 289.659 121.495 289.866C121.148 290.073 120.883 290.333 120.701 290.648C120.519 290.954 120.428 291.313 120.428 291.727C120.428 292.149 120.523 292.533 120.713 292.881C120.904 293.228 121.189 293.505 121.569 293.712C121.958 293.91 122.434 294.01 122.996 294.01C123.699 294.01 124.32 293.861 124.857 293.563C125.395 293.265 125.821 292.901 126.135 292.471C126.458 292.041 126.631 291.624 126.656 291.218L127.636 292.322C127.578 292.67 127.421 293.054 127.165 293.476C126.908 293.898 126.565 294.303 126.135 294.692C125.713 295.073 125.209 295.391 124.621 295.647C124.042 295.896 123.389 296.02 122.661 296.02C121.751 296.02 120.953 295.842 120.267 295.486C119.588 295.13 119.059 294.655 118.679 294.059C118.306 293.456 118.12 292.781 118.12 292.037C118.12 291.317 118.261 290.685 118.542 290.139C118.823 289.585 119.229 289.126 119.758 288.762C120.287 288.39 120.924 288.108 121.669 287.918C122.413 287.728 123.244 287.633 124.162 287.633H126.83ZM144.819 293.03L150.142 277.707H152.735L146.048 295.771H144.199L144.819 293.03ZM139.844 277.707L145.117 293.03L145.775 295.771H143.926L137.251 277.707H139.844ZM157.735 277.707V295.771H155.34V277.707H157.735Z" fill="#606060"/>
<path d="M88.6296 331.939V333.887H79.5976V331.939H88.6296ZM80.069 315.823V333.887H77.6745V315.823H80.069ZM90.4162 327.324V327.038C90.4162 326.071 90.5568 325.173 90.838 324.346C91.1192 323.511 91.5245 322.787 92.0539 322.175C92.5832 321.554 93.2242 321.075 93.9769 320.736C94.7296 320.388 95.5732 320.215 96.5079 320.215C97.4508 320.215 98.2986 320.388 99.0512 320.736C99.8122 321.075 100.457 321.554 100.987 322.175C101.524 322.787 101.934 323.511 102.215 324.346C102.496 325.173 102.637 326.071 102.637 327.038V327.324C102.637 328.291 102.496 329.189 102.215 330.016C101.934 330.843 101.524 331.567 100.987 332.187C100.457 332.799 99.8163 333.279 99.0636 333.626C98.3192 333.965 97.4756 334.135 96.5327 334.135C95.5898 334.135 94.742 333.965 93.9893 333.626C93.2366 333.279 92.5915 332.799 92.0539 332.187C91.5245 331.567 91.1192 330.843 90.838 330.016C90.5568 329.189 90.4162 328.291 90.4162 327.324ZM92.7114 327.038V327.324C92.7114 327.994 92.79 328.626 92.9471 329.222C93.1043 329.809 93.34 330.33 93.6543 330.785C93.9769 331.24 94.3781 331.6 94.8578 331.864C95.3375 332.121 95.8958 332.249 96.5327 332.249C97.1613 332.249 97.7113 332.121 98.1828 331.864C98.6625 331.6 99.0595 331.24 99.3738 330.785C99.6881 330.33 99.9238 329.809 100.081 329.222C100.246 328.626 100.329 327.994 100.329 327.324V327.038C100.329 326.377 100.246 325.752 100.081 325.165C99.9238 324.569 99.684 324.044 99.3614 323.589C99.0471 323.126 98.6501 322.762 98.1704 322.497C97.6989 322.233 97.1447 322.1 96.5079 322.1C95.8793 322.1 95.3251 322.233 94.8454 322.497C94.3739 322.762 93.9769 323.126 93.6543 323.589C93.34 324.044 93.1043 324.569 92.9471 325.165C92.79 325.752 92.7114 326.377 92.7114 327.038ZM105.577 320.463H107.885V335.487C107.885 336.306 107.752 337.001 107.488 337.572C107.231 338.142 106.843 338.572 106.322 338.862C105.809 339.16 105.159 339.308 104.374 339.308C104.167 339.308 103.927 339.288 103.654 339.246C103.373 339.205 103.137 339.155 102.947 339.098L102.959 337.249C103.116 337.282 103.294 337.307 103.493 337.323C103.691 337.348 103.865 337.361 104.014 337.361C104.353 337.361 104.638 337.299 104.87 337.174C105.102 337.05 105.275 336.852 105.391 336.579C105.515 336.306 105.577 335.942 105.577 335.487V320.463ZM105.341 316.902C105.341 316.53 105.457 316.215 105.689 315.959C105.92 315.703 106.255 315.574 106.694 315.574C107.14 315.574 107.48 315.703 107.711 315.959C107.943 316.215 108.058 316.53 108.058 316.902C108.058 317.258 107.943 317.564 107.711 317.82C107.48 318.068 107.14 318.192 106.694 318.192C106.255 318.192 105.92 318.068 105.689 317.82C105.457 317.564 105.341 317.258 105.341 316.902ZM119.51 331.591V324.681C119.51 324.152 119.402 323.693 119.187 323.304C118.98 322.907 118.666 322.601 118.244 322.386C117.823 322.171 117.301 322.063 116.681 322.063C116.102 322.063 115.593 322.162 115.155 322.361C114.725 322.559 114.386 322.82 114.138 323.143C113.898 323.465 113.778 323.812 113.778 324.185H111.483C111.483 323.705 111.607 323.229 111.855 322.758C112.103 322.286 112.459 321.861 112.922 321.48C113.393 321.091 113.956 320.785 114.609 320.562C115.271 320.33 116.007 320.215 116.818 320.215C117.794 320.215 118.654 320.38 119.398 320.711C120.151 321.042 120.738 321.542 121.16 322.212C121.59 322.874 121.805 323.705 121.805 324.706V330.959C121.805 331.405 121.842 331.881 121.917 332.386C121.999 332.89 122.119 333.324 122.277 333.688V333.887H119.882C119.766 333.622 119.675 333.271 119.609 332.832C119.543 332.386 119.51 331.972 119.51 331.591ZM119.907 325.748L119.932 327.361H117.612C116.958 327.361 116.375 327.415 115.862 327.522C115.349 327.621 114.919 327.774 114.572 327.981C114.225 328.188 113.96 328.448 113.778 328.763C113.596 329.069 113.505 329.429 113.505 329.842C113.505 330.264 113.6 330.649 113.79 330.996C113.981 331.343 114.266 331.62 114.646 331.827C115.035 332.026 115.511 332.125 116.073 332.125C116.776 332.125 117.397 331.976 117.934 331.678C118.472 331.381 118.898 331.017 119.212 330.587C119.535 330.156 119.708 329.739 119.733 329.333L120.713 330.438C120.655 330.785 120.498 331.17 120.242 331.591C119.985 332.013 119.642 332.419 119.212 332.807C118.79 333.188 118.286 333.506 117.698 333.763C117.119 334.011 116.466 334.135 115.738 334.135C114.828 334.135 114.03 333.957 113.344 333.601C112.665 333.246 112.136 332.77 111.756 332.175C111.383 331.571 111.197 330.897 111.197 330.152C111.197 329.433 111.338 328.8 111.619 328.254C111.9 327.7 112.306 327.241 112.835 326.877C113.364 326.505 114.001 326.224 114.746 326.033C115.49 325.843 116.321 325.748 117.239 325.748H119.907ZM137.897 331.145L143.219 315.823H145.812L139.125 333.887H137.276L137.897 331.145ZM132.921 315.823L138.194 331.145L138.852 333.887H137.003L130.328 315.823H132.921ZM150.812 315.823V333.887H148.417V315.823H150.812ZM157.735 315.823V333.887H155.34V315.823H157.735Z" fill="#606060"/>
<path d="M97.885 179.471V181.419H88.8529V179.471H97.885ZM89.3244 163.355V181.419H86.9299V163.355H89.3244ZM99.6716 174.856V174.57C99.6716 173.603 99.8122 172.705 100.093 171.878C100.375 171.043 100.78 170.319 101.309 169.707C101.839 169.087 102.48 168.607 103.232 168.268C103.985 167.92 104.829 167.747 105.763 167.747C106.706 167.747 107.554 167.92 108.307 168.268C109.068 168.607 109.713 169.087 110.242 169.707C110.78 170.319 111.189 171.043 111.47 171.878C111.752 172.705 111.892 173.603 111.892 174.57V174.856C111.892 175.824 111.752 176.721 111.47 177.548C111.189 178.375 110.78 179.099 110.242 179.719C109.713 180.331 109.072 180.811 108.319 181.158C107.575 181.498 106.731 181.667 105.788 181.667C104.845 181.667 103.997 181.498 103.245 181.158C102.492 180.811 101.847 180.331 101.309 179.719C100.78 179.099 100.375 178.375 100.093 177.548C99.8122 176.721 99.6716 175.824 99.6716 174.856ZM101.967 174.57V174.856C101.967 175.526 102.045 176.159 102.203 176.754C102.36 177.341 102.595 177.862 102.91 178.317C103.232 178.772 103.633 179.132 104.113 179.397C104.593 179.653 105.151 179.781 105.788 179.781C106.417 179.781 106.967 179.653 107.438 179.397C107.918 179.132 108.315 178.772 108.629 178.317C108.943 177.862 109.179 177.341 109.336 176.754C109.502 176.159 109.584 175.526 109.584 174.856V174.57C109.584 173.909 109.502 173.284 109.336 172.697C109.179 172.102 108.939 171.576 108.617 171.121C108.302 170.658 107.905 170.294 107.426 170.03C106.954 169.765 106.4 169.633 105.763 169.633C105.135 169.633 104.58 169.765 104.101 170.03C103.629 170.294 103.232 170.658 102.91 171.121C102.595 171.576 102.36 172.102 102.203 172.697C102.045 173.284 101.967 173.909 101.967 174.57ZM114.833 167.995H117.14V183.019C117.14 183.838 117.008 184.533 116.743 185.104C116.487 185.674 116.098 186.105 115.577 186.394C115.064 186.692 114.415 186.841 113.629 186.841C113.422 186.841 113.182 186.82 112.909 186.779C112.628 186.737 112.393 186.688 112.202 186.63L112.215 184.781C112.372 184.814 112.55 184.839 112.748 184.856C112.947 184.88 113.12 184.893 113.269 184.893C113.608 184.893 113.894 184.831 114.125 184.707C114.357 184.583 114.531 184.384 114.646 184.111C114.77 183.838 114.833 183.474 114.833 183.019V167.995ZM114.597 164.434C114.597 164.062 114.713 163.748 114.944 163.491C115.176 163.235 115.511 163.107 115.949 163.107C116.396 163.107 116.735 163.235 116.966 163.491C117.198 163.748 117.314 164.062 117.314 164.434C117.314 164.79 117.198 165.096 116.966 165.352C116.735 165.6 116.396 165.725 115.949 165.725C115.511 165.725 115.176 165.6 114.944 165.352C114.713 165.096 114.597 164.79 114.597 164.434ZM128.765 179.124V172.213C128.765 171.684 128.658 171.225 128.443 170.836C128.236 170.439 127.922 170.133 127.5 169.918C127.078 169.703 126.557 169.595 125.936 169.595C125.358 169.595 124.849 169.695 124.41 169.893C123.98 170.092 123.641 170.352 123.393 170.675C123.153 170.997 123.033 171.345 123.033 171.717H120.738C120.738 171.237 120.862 170.762 121.11 170.29C121.358 169.819 121.714 169.393 122.177 169.012C122.649 168.624 123.211 168.317 123.865 168.094C124.526 167.863 125.262 167.747 126.073 167.747C127.049 167.747 127.909 167.912 128.654 168.243C129.406 168.574 129.993 169.074 130.415 169.744C130.845 170.406 131.06 171.237 131.06 172.238V178.491C131.06 178.938 131.098 179.413 131.172 179.918C131.255 180.422 131.375 180.857 131.532 181.22V181.419H129.137C129.022 181.154 128.931 180.803 128.864 180.364C128.798 179.918 128.765 179.504 128.765 179.124ZM129.162 173.28L129.187 174.893H126.867C126.214 174.893 125.63 174.947 125.118 175.054C124.605 175.154 124.175 175.307 123.827 175.513C123.48 175.72 123.215 175.981 123.033 176.295C122.851 176.601 122.76 176.961 122.76 177.374C122.76 177.796 122.856 178.181 123.046 178.528C123.236 178.876 123.521 179.153 123.902 179.359C124.291 179.558 124.766 179.657 125.329 179.657C126.032 179.657 126.652 179.508 127.19 179.211C127.727 178.913 128.153 178.549 128.467 178.119C128.79 177.689 128.964 177.271 128.989 176.866L129.969 177.97C129.911 178.317 129.754 178.702 129.497 179.124C129.241 179.546 128.898 179.951 128.467 180.34C128.046 180.72 127.541 181.038 126.954 181.295C126.375 181.543 125.721 181.667 124.994 181.667C124.084 181.667 123.286 181.489 122.599 181.134C121.921 180.778 121.392 180.302 121.011 179.707C120.639 179.103 120.453 178.429 120.453 177.685C120.453 176.965 120.593 176.332 120.875 175.786C121.156 175.232 121.561 174.773 122.09 174.409C122.62 174.037 123.257 173.756 124.001 173.566C124.745 173.375 125.577 173.28 126.495 173.28H129.162ZM143.889 163.355V181.419H141.494V163.355H143.889ZM150.812 163.355V181.419H148.417V163.355H150.812ZM157.735 163.355V181.419H155.34V163.355H157.735Z" fill="#606060"/>
<path d="M104.808 141.356V143.304H95.7759V141.356H104.808ZM96.2473 125.24V143.304H93.8528V125.24H96.2473ZM106.594 136.741V136.455C106.594 135.488 106.735 134.59 107.016 133.763C107.298 132.928 107.703 132.204 108.232 131.592C108.762 130.971 109.403 130.492 110.155 130.153C110.908 129.805 111.752 129.632 112.686 129.632C113.629 129.632 114.477 129.805 115.23 130.153C115.99 130.492 116.636 130.971 117.165 131.592C117.703 132.204 118.112 132.928 118.393 133.763C118.674 134.59 118.815 135.488 118.815 136.455V136.741C118.815 137.708 118.674 138.606 118.393 139.433C118.112 140.26 117.703 140.984 117.165 141.604C116.636 142.216 115.995 142.696 115.242 143.043C114.498 143.382 113.654 143.552 112.711 143.552C111.768 143.552 110.92 143.382 110.168 143.043C109.415 142.696 108.77 142.216 108.232 141.604C107.703 140.984 107.298 140.26 107.016 139.433C106.735 138.606 106.594 137.708 106.594 136.741ZM108.89 136.455V136.741C108.89 137.411 108.968 138.043 109.125 138.639C109.283 139.226 109.518 139.747 109.833 140.202C110.155 140.657 110.556 141.017 111.036 141.281C111.516 141.538 112.074 141.666 112.711 141.666C113.34 141.666 113.89 141.538 114.361 141.281C114.841 141.017 115.238 140.657 115.552 140.202C115.866 139.747 116.102 139.226 116.259 138.639C116.425 138.043 116.507 137.411 116.507 136.741V136.455C116.507 135.794 116.425 135.169 116.259 134.582C116.102 133.986 115.862 133.461 115.54 133.006C115.225 132.543 114.828 132.179 114.349 131.914C113.877 131.65 113.323 131.517 112.686 131.517C112.058 131.517 111.503 131.65 111.024 131.914C110.552 132.179 110.155 132.543 109.833 133.006C109.518 133.461 109.283 133.986 109.125 134.582C108.968 135.169 108.89 135.794 108.89 136.455ZM121.755 129.88H124.063V144.904C124.063 145.723 123.931 146.418 123.666 146.988C123.41 147.559 123.021 147.989 122.5 148.279C121.987 148.577 121.338 148.725 120.552 148.725C120.345 148.725 120.105 148.705 119.832 148.663C119.551 148.622 119.315 148.572 119.125 148.515L119.138 146.666C119.295 146.699 119.473 146.724 119.671 146.74C119.87 146.765 120.043 146.778 120.192 146.778C120.531 146.778 120.817 146.716 121.048 146.591C121.28 146.467 121.454 146.269 121.569 145.996C121.693 145.723 121.755 145.359 121.755 144.904V129.88ZM121.52 126.319C121.52 125.947 121.636 125.632 121.867 125.376C122.099 125.12 122.434 124.991 122.872 124.991C123.319 124.991 123.658 125.12 123.889 125.376C124.121 125.632 124.237 125.947 124.237 126.319C124.237 126.675 124.121 126.981 123.889 127.237C123.658 127.485 123.319 127.609 122.872 127.609C122.434 127.609 122.099 127.485 121.867 127.237C121.636 126.981 121.52 126.675 121.52 126.319ZM135.688 141.008V134.098C135.688 133.569 135.581 133.11 135.366 132.721C135.159 132.324 134.844 132.018 134.423 131.803C134.001 131.588 133.48 131.48 132.859 131.48C132.28 131.48 131.772 131.579 131.333 131.778C130.903 131.976 130.564 132.237 130.316 132.56C130.076 132.882 129.956 133.229 129.956 133.602H127.661C127.661 133.122 127.785 132.646 128.033 132.175C128.281 131.703 128.637 131.278 129.1 130.897C129.572 130.508 130.134 130.202 130.788 129.979C131.449 129.747 132.185 129.632 132.996 129.632C133.972 129.632 134.832 129.797 135.576 130.128C136.329 130.459 136.916 130.959 137.338 131.629C137.768 132.291 137.983 133.122 137.983 134.123V140.376C137.983 140.822 138.021 141.298 138.095 141.803C138.178 142.307 138.298 142.741 138.455 143.105V143.304H136.06C135.945 143.039 135.854 142.688 135.787 142.249C135.721 141.803 135.688 141.389 135.688 141.008ZM136.085 135.165L136.11 136.778H133.79C133.137 136.778 132.553 136.832 132.041 136.939C131.528 137.038 131.098 137.191 130.75 137.398C130.403 137.605 130.138 137.865 129.956 138.18C129.774 138.486 129.683 138.846 129.683 139.259C129.683 139.681 129.778 140.066 129.969 140.413C130.159 140.76 130.444 141.037 130.825 141.244C131.213 141.443 131.689 141.542 132.251 141.542C132.955 141.542 133.575 141.393 134.112 141.095C134.65 140.798 135.076 140.434 135.39 140.004C135.713 139.573 135.887 139.156 135.911 138.75L136.892 139.855C136.834 140.202 136.677 140.587 136.42 141.008C136.164 141.43 135.82 141.836 135.39 142.224C134.969 142.605 134.464 142.923 133.877 143.18C133.298 143.428 132.644 143.552 131.917 143.552C131.007 143.552 130.209 143.374 129.522 143.018C128.844 142.663 128.314 142.187 127.934 141.592C127.562 140.988 127.376 140.314 127.376 139.569C127.376 138.85 127.516 138.217 127.798 137.671C128.079 137.117 128.484 136.658 129.013 136.294C129.543 135.922 130.18 135.641 130.924 135.45C131.668 135.26 132.5 135.165 133.418 135.165H136.085ZM150.812 125.24V143.304H148.417V125.24H150.812ZM157.735 125.24V143.304H155.34V125.24H157.735Z" fill="#606060"/>
<path d="M111.731 103.239V105.187H102.699V103.239H111.731ZM103.17 87.1224V105.187H100.776V87.1224H103.17ZM113.517 98.6234V98.338C113.517 97.3703 113.658 96.4729 113.939 95.6458C114.22 94.8104 114.626 94.0867 115.155 93.4746C115.684 92.8543 116.325 92.3746 117.078 92.0354C117.831 91.6881 118.674 91.5144 119.609 91.5144C120.552 91.5144 121.4 91.6881 122.152 92.0354C122.913 92.3746 123.559 92.8543 124.088 93.4746C124.626 94.0867 125.035 94.8104 125.316 95.6458C125.597 96.4729 125.738 97.3703 125.738 98.338V98.6234C125.738 99.5911 125.597 100.489 125.316 101.316C125.035 102.143 124.626 102.866 124.088 103.487C123.559 104.099 122.918 104.579 122.165 104.926C121.42 105.265 120.577 105.435 119.634 105.435C118.691 105.435 117.843 105.265 117.091 104.926C116.338 104.579 115.693 104.099 115.155 103.487C114.626 102.866 114.22 102.143 113.939 101.316C113.658 100.489 113.517 99.5911 113.517 98.6234ZM115.813 98.338V98.6234C115.813 99.2934 115.891 99.9261 116.048 100.522C116.206 101.109 116.441 101.63 116.756 102.085C117.078 102.54 117.479 102.9 117.959 103.164C118.439 103.421 118.997 103.549 119.634 103.549C120.263 103.549 120.813 103.421 121.284 103.164C121.764 102.9 122.161 102.54 122.475 102.085C122.789 101.63 123.025 101.109 123.182 100.522C123.348 99.9261 123.43 99.2934 123.43 98.6234V98.338C123.43 97.6763 123.348 97.0519 123.182 96.4646C123.025 95.8691 122.785 95.3439 122.463 94.889C122.148 94.4258 121.751 94.0619 121.272 93.7972C120.8 93.5325 120.246 93.4002 119.609 93.4002C118.98 93.4002 118.426 93.5325 117.947 93.7972C117.475 94.0619 117.078 94.4258 116.756 94.889C116.441 95.3439 116.206 95.8691 116.048 96.4646C115.891 97.0519 115.813 97.6763 115.813 98.338ZM128.678 91.7625H130.986V106.787C130.986 107.606 130.854 108.301 130.589 108.871C130.333 109.442 129.944 109.872 129.423 110.162C128.91 110.459 128.261 110.608 127.475 110.608C127.268 110.608 127.028 110.588 126.755 110.546C126.474 110.505 126.238 110.455 126.048 110.397L126.061 108.549C126.218 108.582 126.396 108.607 126.594 108.623C126.793 108.648 126.966 108.66 127.115 108.66C127.454 108.66 127.74 108.598 127.971 108.474C128.203 108.35 128.376 108.152 128.492 107.879C128.616 107.606 128.678 107.242 128.678 106.787V91.7625ZM128.443 88.2018C128.443 87.8296 128.558 87.5153 128.79 87.2589C129.022 87.0025 129.357 86.8743 129.795 86.8743C130.242 86.8743 130.581 87.0025 130.812 87.2589C131.044 87.5153 131.16 87.8296 131.16 88.2018C131.16 88.5574 131.044 88.8635 130.812 89.1199C130.581 89.368 130.242 89.4921 129.795 89.4921C129.357 89.4921 129.022 89.368 128.79 89.1199C128.558 88.8635 128.443 88.5574 128.443 88.2018ZM142.611 102.891V95.9808C142.611 95.4514 142.504 94.9924 142.289 94.6036C142.082 94.2066 141.767 93.9006 141.346 93.6855C140.924 93.4705 140.403 93.363 139.782 93.363C139.203 93.363 138.695 93.4622 138.256 93.6607C137.826 93.8592 137.487 94.1198 137.239 94.4423C136.999 94.7649 136.879 95.1123 136.879 95.4845H134.584C134.584 95.0048 134.708 94.5292 134.956 94.0577C135.204 93.5863 135.56 93.1603 136.023 92.7798C136.495 92.3911 137.057 92.0851 137.71 91.8618C138.372 91.6302 139.108 91.5144 139.919 91.5144C140.895 91.5144 141.755 91.6798 142.499 92.0106C143.252 92.3415 143.839 92.8419 144.261 93.5118C144.691 94.1735 144.906 95.0048 144.906 96.0056V102.259C144.906 102.705 144.944 103.181 145.018 103.685C145.101 104.19 145.221 104.624 145.378 104.988V105.187H142.983C142.867 104.922 142.776 104.57 142.71 104.132C142.644 103.685 142.611 103.272 142.611 102.891ZM143.008 97.0477L143.033 98.6606H140.713C140.059 98.6606 139.476 98.7144 138.964 98.8219C138.451 98.9212 138.021 99.0742 137.673 99.2809C137.326 99.4877 137.061 99.7483 136.879 100.063C136.697 100.369 136.606 100.728 136.606 101.142C136.606 101.564 136.701 101.948 136.892 102.296C137.082 102.643 137.367 102.92 137.748 103.127C138.136 103.326 138.612 103.425 139.174 103.425C139.877 103.425 140.498 103.276 141.035 102.978C141.573 102.68 141.999 102.316 142.313 101.886C142.636 101.456 142.81 101.039 142.834 100.633L143.815 101.737C143.757 102.085 143.599 102.469 143.343 102.891C143.087 103.313 142.743 103.718 142.313 104.107C141.891 104.488 141.387 104.806 140.8 105.062C140.221 105.311 139.567 105.435 138.839 105.435C137.93 105.435 137.131 105.257 136.445 104.901C135.767 104.546 135.237 104.07 134.857 103.474C134.485 102.871 134.299 102.197 134.299 101.452C134.299 100.733 134.439 100.1 134.72 99.5539C135.002 98.9997 135.407 98.5407 135.936 98.1768C136.466 97.8046 137.103 97.5233 137.847 97.3331C138.591 97.1429 139.423 97.0477 140.341 97.0477H143.008ZM157.735 87.1224V105.187H155.34V87.1224H157.735Z" fill="#606060"/>
<path d="M53.6365 241.702H57.3691V253.394H53.6365V241.702ZM34.1438 251.847H57.3691V256.632H34.1438V251.847ZM48.9149 239.979H48.5799C47.3144 239.979 46.15 239.798 45.0865 239.436C44.0125 239.075 43.082 238.548 42.295 237.857C41.5081 237.166 40.8966 236.315 40.4606 235.305C40.014 234.295 39.7907 233.136 39.7907 231.828C39.7907 230.52 40.014 229.355 40.4606 228.334C40.8966 227.313 41.5081 226.457 42.295 225.766C43.082 225.064 44.0125 224.532 45.0865 224.171C46.15 223.809 47.3144 223.629 48.5799 223.629H48.9149C50.1697 223.629 51.3342 223.809 52.4082 224.171C53.4717 224.532 54.4022 225.064 55.1997 225.766C55.9867 226.457 56.5982 227.308 57.0342 228.318C57.4702 229.329 57.6882 230.488 57.6882 231.796C57.6882 233.104 57.4702 234.268 57.0342 235.289C56.5982 236.299 55.9867 237.155 55.1997 237.857C54.4022 238.548 53.4717 239.075 52.4082 239.436C51.3342 239.798 50.1697 239.979 48.9149 239.979ZM48.5799 235.385H48.9149C49.638 235.385 50.3133 235.321 50.9407 235.193C51.5681 235.066 52.1211 234.864 52.5997 234.587C53.0676 234.3 53.4345 233.928 53.7003 233.471C53.9662 233.013 54.0991 232.455 54.0991 231.796C54.0991 231.158 53.9662 230.61 53.7003 230.153C53.4345 229.695 53.0676 229.329 52.5997 229.052C52.1211 228.776 51.5681 228.574 50.9407 228.446C50.3133 228.308 49.638 228.239 48.9149 228.239H48.5799C47.878 228.239 47.2187 228.308 46.6019 228.446C45.9745 228.574 45.4215 228.781 44.943 229.068C44.4538 229.345 44.071 229.711 43.7945 230.169C43.518 230.626 43.3797 231.179 43.3797 231.828C43.3797 232.476 43.518 233.029 43.7945 233.487C44.071 233.933 44.4538 234.3 44.943 234.587C45.4215 234.864 45.9745 235.066 46.6019 235.193C47.2187 235.321 47.878 235.385 48.5799 235.385ZM40.1097 220.55V215.94H58.406C59.6821 215.94 60.7615 216.174 61.6441 216.642C62.5268 217.11 63.1967 217.785 63.654 218.668C64.1113 219.55 64.3399 220.619 64.3399 221.874C64.3399 222.267 64.3187 222.65 64.2761 223.022C64.2336 223.405 64.1645 223.799 64.0687 224.203L60.5435 224.187C60.586 223.932 60.6179 223.682 60.6392 223.437C60.6711 223.203 60.687 222.964 60.687 222.719C60.687 222.241 60.6073 221.842 60.4478 221.523C60.2883 221.204 60.0383 220.965 59.6981 220.805C59.3684 220.635 58.9377 220.55 58.406 220.55H40.1097ZM35.6114 220.917C34.9414 220.917 34.3884 220.683 33.9524 220.215C33.5164 219.736 33.2984 219.109 33.2984 218.333C33.2984 217.546 33.5164 216.918 33.9524 216.45C34.3884 215.983 34.9414 215.749 35.6114 215.749C36.2813 215.749 36.8343 215.983 37.2703 216.45C37.7063 216.918 37.9243 217.546 37.9243 218.333C37.9243 219.109 37.7063 219.736 37.2703 220.215C36.8343 220.683 36.2813 220.917 35.6114 220.917ZM53.477 202.971H45.7884C45.2354 202.971 44.7622 203.062 44.3687 203.243C43.9646 203.423 43.6509 203.705 43.4276 204.088C43.2043 204.46 43.0926 204.944 43.0926 205.54C43.0926 206.05 43.183 206.491 43.3638 206.864C43.5339 207.236 43.7838 207.523 44.1135 207.725C44.4325 207.927 44.81 208.028 45.246 208.028V212.622C44.5123 212.622 43.8157 212.452 43.1564 212.112C42.4971 211.771 41.9175 211.277 41.4177 210.628C40.9073 209.979 40.5085 209.208 40.2213 208.315C39.9342 207.411 39.7907 206.401 39.7907 205.284C39.7907 203.945 40.014 202.753 40.4606 201.711C40.9073 200.669 41.5772 199.85 42.4705 199.255C43.3638 198.649 44.4804 198.346 45.8203 198.346H53.2058C54.1523 198.346 54.9286 198.287 55.5347 198.17C56.1302 198.053 56.6513 197.883 57.098 197.66H57.3691V202.302C56.9012 202.525 56.3163 202.695 55.6145 202.812C54.902 202.918 54.1895 202.971 53.477 202.971ZM46.8571 202.365L49.4572 202.333V204.902C49.4572 205.508 49.5263 206.034 49.6646 206.481C49.8028 206.927 49.9996 207.294 50.2548 207.581C50.4994 207.869 50.7865 208.081 51.1162 208.219C51.4458 208.347 51.8074 208.411 52.2009 208.411C52.5943 208.411 52.9506 208.321 53.2696 208.14C53.578 207.959 53.8226 207.698 54.0034 207.358C54.1735 207.018 54.2586 206.619 54.2586 206.162C54.2586 205.471 54.1204 204.87 53.8439 204.359C53.5674 203.849 53.2271 203.455 52.823 203.179C52.4189 202.892 52.036 202.743 51.6745 202.732L53.6206 201.52C54.0566 201.69 54.5085 201.924 54.9764 202.222C55.4443 202.509 55.8857 202.876 56.3004 203.322C56.7045 203.769 57.0395 204.306 57.3053 204.933C57.5606 205.561 57.6882 206.305 57.6882 207.167C57.6882 208.262 57.4702 209.256 57.0342 210.15C56.5875 211.032 55.976 211.734 55.1997 212.255C54.4128 212.766 53.5195 213.021 52.5199 213.021C51.616 213.021 50.8131 212.851 50.1112 212.51C49.4094 212.17 48.8192 211.67 48.3406 211.011C47.8514 210.341 47.4846 209.506 47.24 208.507C46.9848 207.507 46.8571 206.348 46.8571 205.029V202.365ZM52.5997 185.473C52.27 185.473 51.9722 185.568 51.7064 185.76C51.4405 185.951 51.1959 186.308 50.9726 186.829C50.7387 187.339 50.526 188.078 50.3346 189.046C50.1431 189.918 49.9039 190.731 49.6167 191.486C49.319 192.231 48.9627 192.88 48.548 193.433C48.1333 193.975 47.6441 194.4 47.0805 194.709C46.5062 195.017 45.8522 195.171 45.1184 195.171C44.3953 195.171 43.7147 195.017 43.0766 194.709C42.4386 194.39 41.875 193.938 41.3858 193.353C40.886 192.757 40.4978 192.034 40.2213 191.183C39.9342 190.322 39.7907 189.354 39.7907 188.28C39.7907 186.781 40.0299 185.494 40.5085 184.42C40.987 183.335 41.6463 182.506 42.4864 181.932C43.3159 181.347 44.2624 181.054 45.3258 181.054V185.648C44.8792 185.648 44.4804 185.744 44.1294 185.935C43.7679 186.116 43.4861 186.403 43.284 186.797C43.0713 187.18 42.965 187.679 42.965 188.296C42.965 188.807 43.0554 189.248 43.2362 189.62C43.4063 189.992 43.6403 190.279 43.938 190.481C44.2252 190.673 44.5442 190.769 44.8951 190.769C45.161 190.769 45.4002 190.715 45.6129 190.609C45.815 190.492 46.0011 190.306 46.1712 190.051C46.3414 189.796 46.5009 189.466 46.6498 189.062C46.788 188.647 46.9156 188.137 47.0326 187.53C47.2878 186.286 47.6228 185.175 48.0375 184.197C48.4417 183.218 48.9946 182.442 49.6965 181.868C50.3877 181.293 51.297 181.006 52.4242 181.006C53.1899 181.006 53.8917 181.176 54.5298 181.517C55.1678 181.857 55.7261 182.346 56.2047 182.984C56.6726 183.622 57.0395 184.388 57.3053 185.281C57.5606 186.164 57.6882 187.158 57.6882 188.264C57.6882 189.87 57.401 191.231 56.8268 192.348C56.2525 193.454 55.5241 194.294 54.6414 194.868C53.7482 195.432 52.8336 195.714 51.8978 195.714V191.359C52.5252 191.338 53.0303 191.178 53.4132 190.88C53.796 190.572 54.0725 190.184 54.2427 189.716C54.4128 189.237 54.4979 188.722 54.4979 188.169C54.4979 187.573 54.4181 187.079 54.2586 186.685C54.0885 186.292 53.8651 185.994 53.5886 185.792C53.3015 185.579 52.9719 185.473 52.5997 185.473Z" fill="#606060"/>
<path d="M405.254 454.929L410.725 436.553H416.053L407.965 459.778H404.456L405.254 454.929ZM400.213 436.553L405.668 454.929L406.498 459.778H402.957L394.917 436.553H400.213ZM425.177 460.097C423.837 460.097 422.635 459.885 421.572 459.459C420.509 459.023 419.605 458.422 418.86 457.657C418.127 456.891 417.563 456.003 417.169 454.993C416.776 453.972 416.579 452.887 416.579 451.739V451.101C416.579 449.793 416.765 448.596 417.138 447.512C417.51 446.427 418.041 445.486 418.733 444.688C419.435 443.891 420.285 443.279 421.285 442.854C422.285 442.418 423.412 442.2 424.667 442.2C425.89 442.2 426.974 442.402 427.921 442.806C428.867 443.21 429.659 443.784 430.297 444.529C430.946 445.273 431.435 446.166 431.765 447.209C432.095 448.24 432.259 449.389 432.259 450.654V452.568H418.541V449.506H427.745V449.155C427.745 448.517 427.628 447.948 427.394 447.448C427.171 446.937 426.831 446.533 426.373 446.236C425.916 445.938 425.331 445.789 424.619 445.789C424.013 445.789 423.492 445.922 423.055 446.188C422.619 446.454 422.263 446.826 421.987 447.304C421.721 447.783 421.519 448.346 421.381 448.995C421.253 449.633 421.189 450.335 421.189 451.101V451.739C421.189 452.43 421.285 453.068 421.476 453.653C421.678 454.238 421.96 454.743 422.322 455.168C422.694 455.594 423.141 455.923 423.662 456.157C424.193 456.391 424.794 456.508 425.464 456.508C426.294 456.508 427.065 456.349 427.777 456.03C428.5 455.7 429.122 455.206 429.643 454.546L431.877 456.971C431.515 457.492 431.021 457.992 430.393 458.47C429.776 458.949 429.032 459.342 428.16 459.651C427.288 459.948 426.294 460.097 425.177 460.097ZM439.374 446.204V459.778H434.78V442.519H439.087L439.374 446.204ZM438.704 450.542H437.46C437.46 449.266 437.624 448.118 437.954 447.097C438.284 446.065 438.746 445.188 439.342 444.465C439.937 443.731 440.645 443.173 441.463 442.79C442.293 442.397 443.218 442.2 444.239 442.2C445.047 442.2 445.786 442.317 446.456 442.551C447.126 442.785 447.7 443.157 448.179 443.667C448.668 444.178 449.04 444.853 449.296 445.693C449.561 446.533 449.694 447.56 449.694 448.772V459.778H445.068V448.756C445.068 447.99 444.962 447.395 444.749 446.969C444.537 446.544 444.223 446.246 443.808 446.076C443.404 445.895 442.904 445.805 442.309 445.805C441.692 445.805 441.155 445.927 440.698 446.172C440.251 446.416 439.879 446.757 439.581 447.193C439.294 447.618 439.076 448.118 438.927 448.692C438.778 449.266 438.704 449.883 438.704 450.542ZM463.381 456.014V435.277H468.007V459.778H463.843L463.381 456.014ZM452.47 451.356V451.021C452.47 449.702 452.619 448.506 452.917 447.432C453.214 446.347 453.65 445.417 454.225 444.64C454.799 443.864 455.506 443.263 456.346 442.838C457.186 442.413 458.143 442.2 459.217 442.2C460.228 442.2 461.11 442.413 461.865 442.838C462.631 443.263 463.28 443.869 463.811 444.656C464.354 445.433 464.79 446.353 465.119 447.416C465.449 448.469 465.688 449.623 465.837 450.877V451.611C465.688 452.813 465.449 453.929 465.119 454.961C464.79 455.993 464.354 456.896 463.811 457.673C463.28 458.438 462.631 459.034 461.865 459.459C461.1 459.885 460.206 460.097 459.186 460.097C458.111 460.097 457.154 459.879 456.314 459.443C455.485 459.007 454.783 458.396 454.209 457.609C453.645 456.822 453.214 455.897 452.917 454.833C452.619 453.77 452.47 452.611 452.47 451.356ZM457.064 451.021V451.356C457.064 452.068 457.117 452.733 457.223 453.35C457.34 453.967 457.527 454.514 457.782 454.993C458.048 455.461 458.388 455.828 458.803 456.094C459.228 456.349 459.744 456.476 460.35 456.476C461.137 456.476 461.786 456.301 462.296 455.95C462.806 455.588 463.195 455.094 463.461 454.466C463.737 453.839 463.897 453.116 463.939 452.297V450.207C463.907 449.537 463.811 448.937 463.652 448.405C463.503 447.863 463.28 447.4 462.982 447.017C462.695 446.634 462.333 446.337 461.897 446.124C461.472 445.911 460.967 445.805 460.382 445.805C459.786 445.805 459.276 445.943 458.851 446.22C458.425 446.485 458.08 446.852 457.814 447.32C457.558 447.788 457.367 448.341 457.239 448.979C457.122 449.607 457.064 450.287 457.064 451.021ZM480.911 455.886V448.198C480.911 447.645 480.821 447.171 480.64 446.778C480.459 446.374 480.178 446.06 479.795 445.837C479.423 445.613 478.939 445.502 478.343 445.502C477.833 445.502 477.391 445.592 477.019 445.773C476.647 445.943 476.36 446.193 476.158 446.523C475.956 446.842 475.855 447.219 475.855 447.655H471.261C471.261 446.921 471.431 446.225 471.771 445.566C472.111 444.906 472.606 444.327 473.255 443.827C473.903 443.316 474.674 442.918 475.568 442.631C476.472 442.343 477.482 442.2 478.598 442.2C479.938 442.2 481.129 442.423 482.172 442.87C483.214 443.316 484.033 443.986 484.628 444.88C485.234 445.773 485.537 446.89 485.537 448.229V455.615C485.537 456.561 485.596 457.338 485.713 457.944C485.83 458.539 486 459.061 486.223 459.507V459.778H481.581C481.358 459.31 481.188 458.726 481.071 458.024C480.965 457.311 480.911 456.599 480.911 455.886ZM481.518 449.266L481.549 451.866H478.981C478.375 451.866 477.849 451.936 477.402 452.074C476.955 452.212 476.589 452.409 476.301 452.664C476.014 452.909 475.802 453.196 475.663 453.525C475.536 453.855 475.472 454.217 475.472 454.61C475.472 455.004 475.562 455.36 475.743 455.679C475.924 455.987 476.184 456.232 476.525 456.413C476.865 456.583 477.264 456.668 477.721 456.668C478.412 456.668 479.013 456.53 479.524 456.253C480.034 455.977 480.428 455.636 480.704 455.232C480.991 454.828 481.14 454.445 481.151 454.084L482.363 456.03C482.193 456.466 481.959 456.918 481.661 457.386C481.374 457.854 481.007 458.295 480.56 458.71C480.114 459.114 479.577 459.449 478.949 459.715C478.322 459.97 477.578 460.097 476.716 460.097C475.621 460.097 474.627 459.879 473.733 459.443C472.851 458.997 472.149 458.385 471.628 457.609C471.117 456.822 470.862 455.929 470.862 454.929C470.862 454.025 471.032 453.222 471.372 452.52C471.713 451.819 472.213 451.228 472.872 450.75C473.542 450.261 474.377 449.894 475.376 449.649C476.376 449.394 477.535 449.266 478.854 449.266H481.518ZM498.41 455.009C498.41 454.679 498.314 454.381 498.123 454.116C497.932 453.85 497.575 453.605 497.054 453.382C496.544 453.148 495.805 452.935 494.837 452.744C493.965 452.552 493.151 452.313 492.396 452.026C491.652 451.728 491.003 451.372 490.45 450.957C489.908 450.542 489.483 450.053 489.174 449.49C488.866 448.915 488.712 448.261 488.712 447.528C488.712 446.804 488.866 446.124 489.174 445.486C489.493 444.848 489.945 444.284 490.53 443.795C491.126 443.295 491.849 442.907 492.699 442.631C493.561 442.343 494.529 442.2 495.603 442.2C497.102 442.2 498.389 442.439 499.463 442.918C500.548 443.396 501.377 444.056 501.951 444.896C502.536 445.725 502.829 446.672 502.829 447.735H498.235C498.235 447.288 498.139 446.89 497.948 446.539C497.767 446.177 497.48 445.895 497.086 445.693C496.703 445.481 496.203 445.374 495.587 445.374C495.076 445.374 494.635 445.465 494.263 445.645C493.891 445.815 493.603 446.049 493.401 446.347C493.21 446.634 493.114 446.953 493.114 447.304C493.114 447.57 493.167 447.809 493.274 448.022C493.391 448.224 493.577 448.41 493.832 448.58C494.087 448.751 494.417 448.91 494.821 449.059C495.236 449.197 495.746 449.325 496.352 449.442C497.597 449.697 498.708 450.032 499.686 450.447C500.665 450.851 501.441 451.404 502.015 452.106C502.589 452.797 502.877 453.706 502.877 454.833C502.877 455.599 502.706 456.301 502.366 456.939C502.026 457.577 501.537 458.135 500.899 458.614C500.26 459.082 499.495 459.449 498.602 459.715C497.719 459.97 496.725 460.097 495.619 460.097C494.013 460.097 492.652 459.81 491.535 459.236C490.429 458.662 489.589 457.933 489.015 457.051C488.451 456.157 488.169 455.243 488.169 454.307H492.524C492.545 454.934 492.705 455.44 493.003 455.822C493.311 456.205 493.699 456.482 494.167 456.652C494.646 456.822 495.161 456.907 495.714 456.907C496.31 456.907 496.804 456.827 497.198 456.668C497.591 456.498 497.889 456.274 498.091 455.998C498.304 455.711 498.41 455.381 498.41 455.009Z" fill="#606060"/>
<line x1="304.523" y1="386.647" x2="304.523" y2="67.9517" stroke="#CACACA" stroke-width="3.62984"/>
<line x1="435.72" y1="386.647" x2="435.72" y2="67.9517" stroke="#CACACA" stroke-width="3.62984"/>
<line x1="566.914" y1="386.647" x2="566.914" y2="67.9517" stroke="#CACACA" stroke-width="3.62984"/>
<line x1="698.115" y1="386.647" x2="698.115" y2="67.9517" stroke="#CACACA" stroke-width="3.62984"/>
<line x1="206.121" y1="382.394" x2="206.121" y2="366.059" stroke="#CACACA" stroke-width="3.62984"/>
<line x1="238.925" y1="382.394" x2="238.925" y2="366.059" stroke="#CACACA" stroke-width="3.62984"/>
<line x1="271.728" y1="382.394" x2="271.728" y2="366.059" stroke="#CACACA" stroke-width="3.62984"/>
<line x1="337.322" y1="381.268" x2="337.322" y2="364.933" stroke="#CACACA" stroke-width="3.62984"/>
<line x1="370.126" y1="381.268" x2="370.126" y2="364.933" stroke="#CACACA" stroke-width="3.62984"/>
<line x1="402.921" y1="381.268" x2="402.921" y2="364.933" stroke="#CACACA" stroke-width="3.62984"/>
<line x1="468.519" y1="382.394" x2="468.519" y2="366.059" stroke="#CACACA" stroke-width="3.62984"/>
<line x1="501.318" y1="382.394" x2="501.318" y2="366.059" stroke="#CACACA" stroke-width="3.62984"/>
<line x1="534.119" y1="382.394" x2="534.119" y2="366.059" stroke="#CACACA" stroke-width="3.62984"/>
<line x1="599.718" y1="382.394" x2="599.718" y2="366.059" stroke="#CACACA" stroke-width="3.62984"/>
<line x1="632.517" y1="382.394" x2="632.517" y2="366.059" stroke="#CACACA" stroke-width="3.62984"/>
<line x1="665.316" y1="382.394" x2="665.316" y2="366.059" stroke="#CACACA" stroke-width="3.62984"/>
<rect x="172.41" y="79.3926" width="415.684" height="30.8536" fill="#0567FF"/>
<rect x="172.41" y="117.756" width="467.381" height="30.8536" fill="#0567FF"/>
<rect x="172.41" y="156.118" width="293.3" height="30.8536" fill="#0567FF"/>
<rect x="172.41" y="194.481" width="182.345" height="30.8536" fill="#0567FF"/>
<rect x="172.41" y="232.846" width="307.305" height="30.8536" fill="#0567FF"/>
<rect x="172.41" y="309.572" width="399.463" height="30.8536" fill="#0567FF"/>
<path d="M81.7067 370.056V372.004H72.6746V370.056H81.7067ZM73.1461 353.94V372.004H70.7516V353.94H73.1461ZM83.4933 365.441V365.155C83.4933 364.188 83.6339 363.29 83.9151 362.463C84.1963 361.628 84.6016 360.904 85.1309 360.292C85.6603 359.672 86.3013 359.192 87.054 358.853C87.8066 358.505 88.6503 358.332 89.5849 358.332C90.5278 358.332 91.3756 358.505 92.1283 358.853C92.8893 359.192 93.5344 359.672 94.0637 360.292C94.6014 360.904 95.0108 361.628 95.292 362.463C95.5732 363.29 95.7138 364.188 95.7138 365.155V365.441C95.7138 366.408 95.5732 367.306 95.292 368.133C95.0108 368.96 94.6014 369.684 94.0637 370.304C93.5344 370.916 92.8934 371.396 92.1407 371.743C91.3963 372.082 90.5527 372.252 89.6098 372.252C88.6668 372.252 87.8191 372.082 87.0664 371.743C86.3137 371.396 85.6686 370.916 85.1309 370.304C84.6016 369.684 84.1963 368.96 83.9151 368.133C83.6339 367.306 83.4933 366.408 83.4933 365.441ZM85.7885 365.155V365.441C85.7885 366.111 85.8671 366.743 86.0242 367.339C86.1814 367.926 86.4171 368.447 86.7314 368.902C87.054 369.357 87.4551 369.717 87.9349 369.982C88.4146 370.238 88.9729 370.366 89.6098 370.366C90.2384 370.366 90.7884 370.238 91.2598 369.982C91.7396 369.717 92.1366 369.357 92.4509 368.902C92.7652 368.447 93.0009 367.926 93.1581 367.339C93.3235 366.743 93.4062 366.111 93.4062 365.441V365.155C93.4062 364.494 93.3235 363.869 93.1581 363.282C93.0009 362.686 92.761 362.161 92.4385 361.706C92.1242 361.243 91.7272 360.879 91.2474 360.615C90.776 360.35 90.2218 360.218 89.5849 360.218C88.9563 360.218 88.4022 360.35 87.9224 360.615C87.451 360.879 87.054 361.243 86.7314 361.706C86.4171 362.161 86.1814 362.686 86.0242 363.282C85.8671 363.869 85.7885 364.494 85.7885 365.155ZM98.6542 358.58H100.962V373.604C100.962 374.423 100.83 375.118 100.565 375.689C100.308 376.259 99.9197 376.689 99.3986 376.979C98.8858 377.277 98.2365 377.426 97.4508 377.426C97.244 377.426 97.0041 377.405 96.7312 377.364C96.45 377.322 96.2142 377.273 96.024 377.215L96.0364 375.366C96.1936 375.399 96.3714 375.424 96.5699 375.441C96.7684 375.465 96.9421 375.478 97.091 375.478C97.4301 375.478 97.7154 375.416 97.947 375.292C98.1786 375.168 98.3523 374.969 98.4681 374.696C98.5922 374.423 98.6542 374.059 98.6542 373.604V358.58ZM98.4185 355.019C98.4185 354.647 98.5343 354.333 98.7659 354.076C98.9975 353.82 99.3324 353.692 99.7708 353.692C100.217 353.692 100.557 353.82 100.788 354.076C101.02 354.333 101.136 354.647 101.136 355.019C101.136 355.375 101.02 355.681 100.788 355.937C100.557 356.185 100.217 356.309 99.7708 356.309C99.3324 356.309 98.9975 356.185 98.7659 355.937C98.5343 355.681 98.4185 355.375 98.4185 355.019ZM112.587 369.709V362.798C112.587 362.269 112.479 361.81 112.264 361.421C112.058 361.024 111.743 360.718 111.321 360.503C110.9 360.288 110.379 360.18 109.758 360.18C109.179 360.18 108.671 360.28 108.232 360.478C107.802 360.677 107.463 360.937 107.215 361.26C106.975 361.582 106.855 361.93 106.855 362.302H104.56C104.56 361.822 104.684 361.347 104.932 360.875C105.18 360.404 105.536 359.978 105.999 359.597C106.47 359.208 107.033 358.902 107.686 358.679C108.348 358.448 109.084 358.332 109.895 358.332C110.871 358.332 111.731 358.497 112.475 358.828C113.228 359.159 113.815 359.659 114.237 360.329C114.667 360.991 114.882 361.822 114.882 362.823V369.076C114.882 369.523 114.919 369.998 114.994 370.503C115.077 371.007 115.196 371.441 115.354 371.805V372.004H112.959C112.843 371.739 112.752 371.388 112.686 370.949C112.62 370.503 112.587 370.089 112.587 369.709ZM112.984 363.865L113.009 365.478H110.689C110.035 365.478 109.452 365.532 108.939 365.639C108.427 365.739 107.996 365.892 107.649 366.098C107.302 366.305 107.037 366.566 106.855 366.88C106.673 367.186 106.582 367.546 106.582 367.959C106.582 368.381 106.677 368.766 106.867 369.113C107.058 369.461 107.343 369.738 107.723 369.944C108.112 370.143 108.588 370.242 109.15 370.242C109.853 370.242 110.474 370.093 111.011 369.796C111.549 369.498 111.975 369.134 112.289 368.704C112.612 368.274 112.785 367.856 112.81 367.451L113.79 368.555C113.732 368.902 113.575 369.287 113.319 369.709C113.063 370.13 112.719 370.536 112.289 370.925C111.867 371.305 111.363 371.623 110.776 371.88C110.197 372.128 109.543 372.252 108.815 372.252C107.905 372.252 107.107 372.074 106.421 371.719C105.743 371.363 105.213 370.887 104.833 370.292C104.461 369.688 104.274 369.014 104.274 368.269C104.274 367.55 104.415 366.917 104.696 366.371C104.977 365.817 105.383 365.358 105.912 364.994C106.441 364.622 107.078 364.341 107.823 364.15C108.567 363.96 109.398 363.865 110.316 363.865H112.984ZM130.974 369.262L136.296 353.94H138.889L132.202 372.004H130.353L130.974 369.262ZM125.999 353.94L131.271 369.262L131.929 372.004H130.08L123.406 353.94H125.999ZM143.889 353.94V372.004H141.494V353.94H143.889ZM150.812 353.94V372.004H148.417V353.94H150.812ZM157.735 353.94V372.004H155.34V353.94H157.735Z" fill="#606060"/>
<rect x="172.41" y="347.937" width="447.241" height="30.8536" fill="#0567FF"/>
<rect x="172.41" y="271.208" width="245.606" height="30.8536" fill="#0567FF"/>
<rect x="2.38328" y="1.90769" width="769.375" height="513.049" stroke="#0567FF" stroke-width="3.62984"/>
</svg>
