<svg width="774" height="517" viewBox="0 0 774 517" fill="none" xmlns="http://www.w3.org/2000/svg">
<line x1="166.646" y1="380.382" x2="677.555" y2="380.382" stroke="#606060" stroke-width="3.62984"/>
<path d="M116.478 221.415L114.642 220.943L115.548 211.949H124.815V214.07H117.495L116.949 218.983C117.28 218.793 117.698 218.615 118.203 218.45C118.715 218.284 119.303 218.202 119.964 218.202C120.8 218.202 121.548 218.346 122.21 218.636C122.872 218.917 123.434 219.322 123.897 219.852C124.369 220.381 124.728 221.018 124.977 221.762C125.225 222.507 125.349 223.338 125.349 224.256C125.349 225.124 125.229 225.923 124.989 226.65C124.757 227.378 124.406 228.015 123.934 228.561C123.463 229.099 122.867 229.516 122.148 229.814C121.437 230.112 120.597 230.261 119.629 230.261C118.901 230.261 118.211 230.162 117.557 229.963C116.912 229.756 116.333 229.446 115.82 229.033C115.316 228.611 114.902 228.09 114.58 227.469C114.266 226.841 114.067 226.105 113.984 225.261H116.168C116.267 225.939 116.466 226.51 116.763 226.973C117.061 227.436 117.45 227.788 117.93 228.028C118.418 228.259 118.984 228.375 119.629 228.375C120.175 228.375 120.659 228.28 121.081 228.09C121.503 227.899 121.858 227.626 122.148 227.271C122.437 226.915 122.657 226.485 122.805 225.981C122.963 225.476 123.041 224.909 123.041 224.281C123.041 223.71 122.963 223.181 122.805 222.693C122.648 222.205 122.413 221.779 122.098 221.415C121.792 221.051 121.416 220.77 120.969 220.571C120.523 220.364 120.01 220.261 119.431 220.261C118.662 220.261 118.079 220.364 117.681 220.571C117.293 220.778 116.892 221.059 116.478 221.415ZM139.207 219.541V222.296C139.207 223.776 139.075 225.025 138.81 226.043C138.545 227.06 138.165 227.879 137.669 228.499C137.172 229.119 136.573 229.57 135.87 229.851C135.175 230.124 134.389 230.261 133.512 230.261C132.818 230.261 132.177 230.174 131.589 230C131.002 229.827 130.473 229.55 130.001 229.169C129.538 228.78 129.141 228.276 128.81 227.655C128.479 227.035 128.227 226.282 128.053 225.397C127.88 224.512 127.793 223.479 127.793 222.296V219.541C127.793 218.061 127.925 216.82 128.19 215.819C128.463 214.819 128.848 214.016 129.344 213.413C129.84 212.801 130.436 212.362 131.13 212.097C131.833 211.833 132.619 211.7 133.488 211.7C134.191 211.7 134.836 211.787 135.423 211.961C136.019 212.126 136.548 212.395 137.011 212.767C137.474 213.131 137.867 213.619 138.19 214.231C138.521 214.835 138.773 215.575 138.947 216.452C139.12 217.329 139.207 218.359 139.207 219.541ZM136.899 222.668V219.157C136.899 218.346 136.85 217.635 136.751 217.023C136.66 216.403 136.523 215.873 136.341 215.435C136.159 214.996 135.928 214.641 135.646 214.368C135.373 214.095 135.055 213.896 134.691 213.772C134.335 213.64 133.934 213.574 133.488 213.574C132.942 213.574 132.458 213.677 132.036 213.884C131.614 214.083 131.259 214.401 130.969 214.839C130.688 215.278 130.473 215.853 130.324 216.564C130.175 217.275 130.101 218.14 130.101 219.157V222.668C130.101 223.479 130.146 224.194 130.237 224.814C130.336 225.435 130.481 225.972 130.671 226.427C130.862 226.874 131.093 227.242 131.366 227.531C131.639 227.821 131.953 228.036 132.309 228.177C132.673 228.309 133.074 228.375 133.512 228.375C134.075 228.375 134.567 228.267 134.989 228.052C135.411 227.837 135.762 227.502 136.043 227.047C136.333 226.584 136.548 225.993 136.689 225.273C136.829 224.545 136.899 223.677 136.899 222.668ZM145.15 211.949V230.013H142.755V211.949H145.15ZM156.055 211.949L148.549 220.373L144.331 224.752L143.934 222.196L147.11 218.698L153.177 211.949H156.055ZM153.748 230.013L147.06 221.204L148.487 219.306L156.601 230.013H153.748Z" fill="#606060"/>
<path d="M125.411 307.572V309.458H113.587V307.808L119.505 301.22C120.233 300.409 120.796 299.723 121.193 299.16C121.598 298.59 121.879 298.081 122.036 297.634C122.202 297.18 122.284 296.716 122.284 296.245C122.284 295.649 122.16 295.112 121.912 294.632C121.672 294.144 121.317 293.755 120.845 293.466C120.374 293.176 119.803 293.032 119.133 293.032C118.331 293.032 117.661 293.189 117.123 293.503C116.594 293.809 116.197 294.239 115.932 294.793C115.667 295.347 115.535 295.984 115.535 296.704H113.24C113.24 295.687 113.463 294.756 113.91 293.912C114.357 293.069 115.018 292.399 115.895 291.903C116.772 291.398 117.851 291.146 119.133 291.146C120.274 291.146 121.25 291.348 122.061 291.754C122.872 292.151 123.492 292.713 123.922 293.441C124.36 294.161 124.58 295.004 124.58 295.972C124.58 296.501 124.489 297.039 124.307 297.585C124.133 298.122 123.889 298.66 123.575 299.198C123.269 299.735 122.909 300.265 122.495 300.786C122.09 301.307 121.656 301.82 121.193 302.324L116.354 307.572H125.411ZM130.771 300.86L128.934 300.389L129.84 291.394H139.108V293.515H131.788L131.242 298.428C131.573 298.238 131.991 298.06 132.495 297.895C133.008 297.73 133.595 297.647 134.257 297.647C135.092 297.647 135.841 297.792 136.502 298.081C137.164 298.362 137.727 298.768 138.19 299.297C138.661 299.826 139.021 300.463 139.269 301.208C139.517 301.952 139.641 302.783 139.641 303.701C139.641 304.57 139.521 305.368 139.282 306.096C139.05 306.824 138.698 307.461 138.227 308.006C137.755 308.544 137.16 308.962 136.44 309.26C135.729 309.557 134.89 309.706 133.922 309.706C133.194 309.706 132.503 309.607 131.85 309.408C131.205 309.202 130.626 308.891 130.113 308.478C129.608 308.056 129.195 307.535 128.872 306.915C128.558 306.286 128.36 305.55 128.277 304.706H130.46C130.56 305.384 130.758 305.955 131.056 306.418C131.354 306.882 131.742 307.233 132.222 307.473C132.71 307.705 133.277 307.82 133.922 307.82C134.468 307.82 134.952 307.725 135.373 307.535C135.795 307.345 136.151 307.072 136.44 306.716C136.73 306.36 136.949 305.93 137.098 305.426C137.255 304.921 137.334 304.355 137.334 303.726C137.334 303.155 137.255 302.626 137.098 302.138C136.941 301.65 136.705 301.224 136.391 300.86C136.085 300.496 135.708 300.215 135.262 300.017C134.815 299.81 134.302 299.706 133.723 299.706C132.954 299.706 132.371 299.81 131.974 300.017C131.585 300.223 131.184 300.505 130.771 300.86ZM145.15 291.394V309.458H142.755V291.394H145.15ZM156.055 291.394L148.549 299.818L144.331 304.198L143.934 301.642L147.11 298.143L153.177 291.394H156.055ZM153.748 309.458L147.06 300.649L148.487 298.751L156.601 309.458H153.748Z" fill="#606060"/>
<path d="M155.162 378.997V381.751C155.162 383.231 155.03 384.48 154.765 385.498C154.5 386.515 154.12 387.334 153.624 387.954C153.127 388.574 152.528 389.025 151.825 389.306C151.13 389.579 150.344 389.716 149.467 389.716C148.773 389.716 148.132 389.629 147.544 389.455C146.957 389.282 146.428 389.005 145.956 388.624C145.493 388.235 145.096 387.731 144.765 387.111C144.434 386.49 144.182 385.737 144.008 384.852C143.835 383.967 143.748 382.934 143.748 381.751V378.997C143.748 377.516 143.88 376.275 144.145 375.275C144.418 374.274 144.802 373.471 145.299 372.868C145.795 372.256 146.391 371.817 147.085 371.553C147.788 371.288 148.574 371.156 149.443 371.156C150.146 371.156 150.791 371.242 151.378 371.416C151.974 371.581 152.503 371.85 152.966 372.222C153.429 372.586 153.822 373.074 154.145 373.686C154.476 374.29 154.728 375.031 154.902 375.907C155.075 376.784 155.162 377.814 155.162 378.997ZM152.854 382.123V378.612C152.854 377.801 152.805 377.09 152.706 376.478C152.615 375.858 152.478 375.328 152.296 374.89C152.114 374.452 151.883 374.096 151.601 373.823C151.328 373.55 151.01 373.352 150.646 373.227C150.29 373.095 149.889 373.029 149.443 373.029C148.897 373.029 148.413 373.132 147.991 373.339C147.569 373.538 147.214 373.856 146.924 374.294C146.643 374.733 146.428 375.308 146.279 376.019C146.13 376.73 146.056 377.595 146.056 378.612V382.123C146.056 382.934 146.101 383.649 146.192 384.269C146.291 384.89 146.436 385.427 146.626 385.882C146.817 386.329 147.048 386.697 147.321 386.986C147.594 387.276 147.908 387.491 148.264 387.632C148.628 387.764 149.029 387.83 149.467 387.83C150.03 387.83 150.522 387.723 150.944 387.508C151.366 387.292 151.717 386.957 151.998 386.503C152.288 386.039 152.503 385.448 152.644 384.728C152.784 384.001 152.854 383.132 152.854 382.123Z" fill="#606060"/>
<path d="M125.25 131.6V132.89L117.768 149.664H115.349L122.818 133.486H113.041V131.6H125.25ZM130.771 141.066L128.934 140.595L129.84 131.6H139.108V133.721H131.788L131.242 138.635C131.573 138.444 131.991 138.266 132.495 138.101C133.008 137.936 133.595 137.853 134.257 137.853C135.092 137.853 135.841 137.998 136.502 138.287C137.164 138.568 137.727 138.974 138.19 139.503C138.661 140.032 139.021 140.669 139.269 141.414C139.517 142.158 139.641 142.989 139.641 143.907C139.641 144.776 139.521 145.574 139.282 146.302C139.05 147.03 138.698 147.667 138.227 148.212C137.755 148.75 137.16 149.168 136.44 149.466C135.729 149.763 134.89 149.912 133.922 149.912C133.194 149.912 132.503 149.813 131.85 149.614C131.205 149.408 130.626 149.097 130.113 148.684C129.608 148.262 129.195 147.741 128.872 147.121C128.558 146.492 128.36 145.756 128.277 144.912H130.46C130.56 145.591 130.758 146.161 131.056 146.624C131.354 147.088 131.742 147.439 132.222 147.679C132.71 147.911 133.277 148.026 133.922 148.026C134.468 148.026 134.952 147.931 135.373 147.741C135.795 147.551 136.151 147.278 136.44 146.922C136.73 146.567 136.949 146.136 137.098 145.632C137.255 145.127 137.334 144.561 137.334 143.932C137.334 143.361 137.255 142.832 137.098 142.344C136.941 141.856 136.705 141.43 136.391 141.066C136.085 140.702 135.708 140.421 135.262 140.223C134.815 140.016 134.302 139.912 133.723 139.912C132.954 139.912 132.371 140.016 131.974 140.223C131.585 140.429 131.184 140.711 130.771 141.066ZM145.15 131.6V149.664H142.755V131.6H145.15ZM156.055 131.6L148.549 140.024L144.331 144.404L143.934 141.848L147.11 138.349L153.177 131.6H156.055ZM153.748 149.664L147.06 140.855L148.487 138.957L156.601 149.664H153.748Z" fill="#606060"/>
<path d="M106.826 53.7937V71.957H104.53V56.6596L99.9027 58.3469V56.275L106.466 53.7937H106.826ZM124.915 61.4858V64.2401C124.915 65.7206 124.782 66.9695 124.518 67.9869C124.253 69.0042 123.872 69.8231 123.376 70.4434C122.88 71.0638 122.28 71.5145 121.577 71.7957C120.882 72.0687 120.097 72.2052 119.22 72.2052C118.525 72.2052 117.884 72.1183 117.297 71.9446C116.71 71.7709 116.18 71.4938 115.709 71.1134C115.246 70.7246 114.849 70.2201 114.518 69.5998C114.187 68.9794 113.935 68.2268 113.761 67.3417C113.587 66.4567 113.5 65.4228 113.5 64.2401V61.4858C113.5 60.0053 113.633 58.7646 113.897 57.7638C114.17 56.763 114.555 55.9607 115.051 55.3569C115.548 54.7448 116.143 54.3065 116.838 54.0418C117.541 53.7771 118.327 53.6448 119.195 53.6448C119.898 53.6448 120.543 53.7316 121.131 53.9053C121.726 54.0707 122.255 54.3396 122.719 54.7118C123.182 55.0757 123.575 55.5637 123.897 56.1757C124.228 56.7795 124.48 57.5198 124.654 58.3965C124.828 59.2733 124.915 60.303 124.915 61.4858ZM122.607 64.6123V61.1012C122.607 60.2906 122.557 59.5793 122.458 58.9672C122.367 58.3469 122.231 57.8176 122.049 57.3792C121.867 56.9408 121.635 56.5852 121.354 56.3122C121.081 56.0393 120.762 55.8408 120.399 55.7167C120.043 55.5844 119.642 55.5182 119.195 55.5182C118.649 55.5182 118.165 55.6216 117.744 55.8284C117.322 56.0269 116.966 56.3453 116.677 56.7837C116.395 57.222 116.18 57.7969 116.031 58.5082C115.883 59.2195 115.808 60.0838 115.808 61.1012V64.6123C115.808 65.4228 115.854 66.1383 115.945 66.7586C116.044 67.379 116.189 67.9166 116.379 68.3715C116.569 68.8181 116.801 69.1862 117.074 69.4757C117.347 69.7652 117.661 69.9802 118.016 70.1208C118.38 70.2532 118.782 70.3194 119.22 70.3194C119.782 70.3194 120.274 70.2118 120.696 69.9968C121.118 69.7817 121.47 69.4467 121.751 68.9918C122.04 68.5287 122.255 67.9373 122.396 67.2177C122.537 66.4898 122.607 65.6214 122.607 64.6123ZM139.207 61.4858V64.2401C139.207 65.7206 139.075 66.9695 138.81 67.9869C138.545 69.0042 138.165 69.8231 137.669 70.4434C137.172 71.0638 136.573 71.5145 135.87 71.7957C135.175 72.0687 134.389 72.2052 133.512 72.2052C132.818 72.2052 132.177 72.1183 131.589 71.9446C131.002 71.7709 130.473 71.4938 130.001 71.1134C129.538 70.7246 129.141 70.2201 128.81 69.5998C128.479 68.9794 128.227 68.2268 128.053 67.3417C127.88 66.4567 127.793 65.4228 127.793 64.2401V61.4858C127.793 60.0053 127.925 58.7646 128.19 57.7638C128.463 56.763 128.848 55.9607 129.344 55.3569C129.84 54.7448 130.436 54.3065 131.13 54.0418C131.833 53.7771 132.619 53.6448 133.488 53.6448C134.191 53.6448 134.836 53.7316 135.423 53.9053C136.019 54.0707 136.548 54.3396 137.011 54.7118C137.474 55.0757 137.867 55.5637 138.19 56.1757C138.521 56.7795 138.773 57.5198 138.947 58.3965C139.12 59.2733 139.207 60.303 139.207 61.4858ZM136.899 64.6123V61.1012C136.899 60.2906 136.85 59.5793 136.751 58.9672C136.66 58.3469 136.523 57.8176 136.341 57.3792C136.159 56.9408 135.928 56.5852 135.646 56.3122C135.373 56.0393 135.055 55.8408 134.691 55.7167C134.335 55.5844 133.934 55.5182 133.488 55.5182C132.942 55.5182 132.458 55.6216 132.036 55.8284C131.614 56.0269 131.259 56.3453 130.969 56.7837C130.688 57.222 130.473 57.7969 130.324 58.5082C130.175 59.2195 130.101 60.0838 130.101 61.1012V64.6123C130.101 65.4228 130.146 66.1383 130.237 66.7586C130.336 67.379 130.481 67.9166 130.671 68.3715C130.862 68.8181 131.093 69.1862 131.366 69.4757C131.639 69.7652 131.953 69.9802 132.309 70.1208C132.673 70.2532 133.074 70.3194 133.512 70.3194C134.075 70.3194 134.567 70.2118 134.989 69.9968C135.411 69.7817 135.762 69.4467 136.043 68.9918C136.333 68.5287 136.548 67.9373 136.689 67.2177C136.829 66.4898 136.899 65.6214 136.899 64.6123ZM145.15 53.8929V71.957H142.755V53.8929H145.15ZM156.055 53.8929L148.549 62.317L144.331 66.6966L143.934 64.1408L147.11 60.6421L153.177 53.8929H156.055ZM153.748 71.957L147.06 63.1483L148.487 61.2501L156.601 71.957H153.748Z" fill="#606060"/>
<path d="M52.0394 272.447L33.6634 266.976V261.648L56.8887 269.735V273.244L52.0394 272.447ZM33.6634 277.488L52.0394 272.032L56.8887 271.203V274.744L33.6634 282.783V277.488ZM57.2077 252.524C57.2077 253.863 56.995 255.065 56.5696 256.129C56.1336 257.192 55.5328 258.096 54.7671 258.84C54.0015 259.574 53.1135 260.138 52.1032 260.531C51.0823 260.925 49.9976 261.121 48.8491 261.121H48.2111C46.9031 261.121 45.7067 260.935 44.622 260.563C43.5373 260.191 42.5962 259.659 41.7986 258.968C41.001 258.266 40.3896 257.415 39.9642 256.416C39.5282 255.416 39.3102 254.289 39.3102 253.034C39.3102 251.811 39.5122 250.726 39.9163 249.78C40.3204 248.833 40.8947 248.041 41.6391 247.403C42.3835 246.754 43.2768 246.265 44.3189 245.936C45.3505 245.606 46.499 245.441 47.7644 245.441H49.6786V259.159H46.6159V249.955H46.265C45.627 249.955 45.058 250.072 44.5582 250.306C44.0478 250.53 43.6437 250.87 43.3459 251.327C43.0481 251.784 42.8993 252.369 42.8993 253.082C42.8993 253.688 43.0322 254.209 43.298 254.645C43.5639 255.081 43.9361 255.437 44.4146 255.714C44.8932 255.98 45.4568 256.182 46.1055 256.32C46.7436 256.448 47.4454 256.511 48.2111 256.511H48.8491C49.5404 256.511 50.1784 256.416 50.7633 256.224C51.3482 256.022 51.8533 255.74 52.2787 255.379C52.7041 255.007 53.0337 254.56 53.2677 254.039C53.5016 253.507 53.6186 252.906 53.6186 252.236C53.6186 251.407 53.4591 250.636 53.1401 249.923C52.8104 249.2 52.3159 248.578 51.6566 248.057L54.0812 245.824C54.6023 246.186 55.1021 246.68 55.5807 247.307C56.0592 247.924 56.4527 248.669 56.7611 249.541C57.0588 250.413 57.2077 251.407 57.2077 252.524ZM43.314 238.327H56.8887V242.921H39.6292V238.614L43.314 238.327ZM47.6528 238.997V240.241C46.3767 240.241 45.2282 240.076 44.2073 239.746C43.1757 239.417 42.2984 238.954 41.5753 238.359C40.8415 237.763 40.2832 237.056 39.9004 236.237C39.5069 235.408 39.3102 234.482 39.3102 233.462C39.3102 232.653 39.4272 231.914 39.6611 231.244C39.8951 230.574 40.2673 230 40.7777 229.522C41.2882 229.032 41.9634 228.66 42.8035 228.405C43.6437 228.139 44.6699 228.006 45.8822 228.006H56.8887V232.632H45.8662C45.1006 232.632 44.505 232.738 44.0797 232.951C43.6543 233.164 43.3565 233.478 43.1864 233.892C43.0056 234.296 42.9152 234.796 42.9152 235.392C42.9152 236.008 43.0375 236.546 43.2821 237.003C43.5267 237.449 43.867 237.822 44.303 238.119C44.7284 238.407 45.2282 238.625 45.8024 238.773C46.3767 238.922 46.9935 238.997 47.6528 238.997ZM53.1241 214.32H32.3873V209.694H56.8887V213.857L53.1241 214.32ZM48.4663 225.231H48.1313C46.8127 225.231 45.6163 225.082 44.5423 224.784C43.4576 224.486 42.5271 224.05 41.7508 223.476C40.9745 222.902 40.3736 222.195 39.9482 221.354C39.5229 220.514 39.3102 219.557 39.3102 218.483C39.3102 217.473 39.5229 216.59 39.9482 215.835C40.3736 215.07 40.9798 214.421 41.7667 213.889C42.543 213.347 43.4629 212.911 44.5263 212.581C45.5791 212.251 46.7329 212.012 47.9878 211.863H48.7215C49.9232 212.012 51.0398 212.251 52.0713 212.581C53.1029 212.911 54.0068 213.347 54.7831 213.889C55.5488 214.421 56.1443 215.07 56.5696 215.835C56.995 216.601 57.2077 217.494 57.2077 218.515C57.2077 219.589 56.9897 220.546 56.5537 221.386C56.1177 222.216 55.5062 222.918 54.7193 223.492C53.9323 224.056 53.0072 224.486 51.9437 224.784C50.8803 225.082 49.7212 225.231 48.4663 225.231ZM48.1313 220.637H48.4663C49.1788 220.637 49.8435 220.583 50.4602 220.477C51.077 220.36 51.6247 220.174 52.1032 219.919C52.5711 219.653 52.938 219.313 53.2039 218.898C53.4591 218.473 53.5867 217.957 53.5867 217.351C53.5867 216.564 53.4113 215.915 53.0603 215.405C52.6988 214.894 52.2043 214.506 51.5768 214.24C50.9494 213.964 50.2263 213.804 49.4074 213.762H47.3178C46.6478 213.793 46.047 213.889 45.5153 214.049C44.9729 214.198 44.5104 214.421 44.1275 214.719C43.7447 215.006 43.4469 215.367 43.2342 215.803C43.0216 216.229 42.9152 216.734 42.9152 217.319C42.9152 217.914 43.0535 218.425 43.3299 218.85C43.5958 219.275 43.9627 219.621 44.4306 219.887C44.8985 220.142 45.4515 220.334 46.0895 220.461C46.717 220.578 47.3976 220.637 48.1313 220.637ZM52.9965 196.789H45.3079C44.7549 196.789 44.2817 196.88 43.8882 197.06C43.4841 197.241 43.1704 197.523 42.9471 197.906C42.7238 198.278 42.6121 198.762 42.6121 199.357C42.6121 199.868 42.7025 200.309 42.8833 200.681C43.0535 201.054 43.3034 201.341 43.633 201.543C43.9521 201.745 44.3296 201.846 44.7656 201.846V206.44C44.0318 206.44 43.3353 206.27 42.6759 205.929C42.0166 205.589 41.437 205.095 40.9372 204.446C40.4268 203.797 40.028 203.026 39.7409 202.133C39.4537 201.229 39.3102 200.219 39.3102 199.102C39.3102 197.762 39.5335 196.571 39.9801 195.529C40.4268 194.487 41.0967 193.668 41.99 193.073C42.8833 192.466 43.9999 192.163 45.3398 192.163H52.7253C53.6718 192.163 54.4481 192.105 55.0543 191.988C55.6498 191.871 56.1709 191.701 56.6175 191.477H56.8887V196.119C56.4208 196.343 55.8359 196.513 55.134 196.63C54.4215 196.736 53.709 196.789 52.9965 196.789ZM46.3767 196.183L48.9768 196.151V198.719C48.9768 199.325 49.0459 199.852 49.1841 200.299C49.3224 200.745 49.5191 201.112 49.7743 201.399C50.0189 201.686 50.306 201.899 50.6357 202.037C50.9654 202.165 51.3269 202.229 51.7204 202.229C52.1139 202.229 52.4701 202.138 52.7892 201.957C53.0975 201.777 53.3421 201.516 53.5229 201.176C53.6931 200.836 53.7781 200.437 53.7781 199.98C53.7781 199.288 53.6399 198.687 53.3634 198.177C53.0869 197.667 52.7466 197.273 52.3425 196.997C51.9384 196.709 51.5556 196.561 51.194 196.55L53.1401 195.338C53.5761 195.508 54.028 195.742 54.496 196.039C54.9639 196.327 55.4052 196.694 55.8199 197.14C56.224 197.587 56.559 198.124 56.8249 198.751C57.0801 199.379 57.2077 200.123 57.2077 200.984C57.2077 202.08 56.9897 203.074 56.5537 203.967C56.1071 204.85 55.4956 205.552 54.7193 206.073C53.9323 206.583 53.0391 206.839 52.0394 206.839C51.1355 206.839 50.3326 206.668 49.6308 206.328C48.9289 205.988 48.3387 205.488 47.8602 204.829C47.371 204.159 47.0041 203.324 46.7595 202.324C46.5043 201.325 46.3767 200.166 46.3767 198.847V196.183ZM52.1192 179.29C51.7895 179.29 51.4918 179.386 51.2259 179.578C50.9601 179.769 50.7155 180.125 50.4921 180.646C50.2582 181.157 50.0455 181.896 49.8541 182.864C49.6627 183.736 49.4234 184.549 49.1363 185.304C48.8385 186.049 48.4823 186.697 48.0675 187.25C47.6528 187.793 47.1636 188.218 46.6 188.526C46.0257 188.835 45.3717 188.989 44.638 188.989C43.9148 188.989 43.2342 188.835 42.5962 188.526C41.9581 188.207 41.3945 187.755 40.9053 187.171C40.4055 186.575 40.0174 185.852 39.7409 185.001C39.4537 184.14 39.3102 183.172 39.3102 182.098C39.3102 180.599 39.5495 179.312 40.028 178.238C40.5065 177.153 41.1659 176.324 42.006 175.749C42.8355 175.164 43.7819 174.872 44.8453 174.872V179.466C44.3987 179.466 43.9999 179.562 43.649 179.753C43.2874 179.934 43.0056 180.221 42.8035 180.614C42.5909 180.997 42.4845 181.497 42.4845 182.114C42.4845 182.624 42.5749 183.066 42.7557 183.438C42.9258 183.81 43.1598 184.097 43.4576 184.299C43.7447 184.491 44.0637 184.586 44.4146 184.586C44.6805 184.586 44.9198 184.533 45.1325 184.427C45.3345 184.31 45.5206 184.124 45.6908 183.869C45.8609 183.613 46.0204 183.284 46.1693 182.88C46.3075 182.465 46.4352 181.954 46.5521 181.348C46.8074 180.104 47.1423 178.993 47.5571 178.014C47.9612 177.036 48.5142 176.26 49.216 175.685C49.9073 175.111 50.8165 174.824 51.9437 174.824C52.7094 174.824 53.4113 174.994 54.0493 175.335C54.6874 175.675 55.2457 176.164 55.7242 176.802C56.1921 177.44 56.559 178.206 56.8249 179.099C57.0801 179.982 57.2077 180.976 57.2077 182.082C57.2077 183.688 56.9206 185.049 56.3463 186.166C55.7721 187.272 55.0436 188.112 54.161 188.686C53.2677 189.25 52.3531 189.531 51.4173 189.531V185.177C52.0448 185.155 52.5499 184.996 52.9327 184.698C53.3155 184.39 53.592 184.001 53.7622 183.534C53.9323 183.055 54.0174 182.539 54.0174 181.986C54.0174 181.391 53.9377 180.896 53.7781 180.503C53.608 180.109 53.3847 179.812 53.1082 179.61C52.8211 179.397 52.4914 179.29 52.1192 179.29Z" fill="#606060"/>
<path d="M416.976 456.324V459.913H401.089V456.85L408.602 448.795C409.357 447.955 409.952 447.216 410.388 446.578C410.824 445.929 411.138 445.349 411.33 444.839C411.532 444.318 411.633 443.823 411.633 443.355C411.633 442.654 411.516 442.053 411.282 441.553C411.048 441.043 410.702 440.649 410.245 440.373C409.798 440.096 409.245 439.958 408.586 439.958C407.884 439.958 407.278 440.128 406.768 440.468C406.268 440.809 405.885 441.282 405.619 441.888C405.364 442.494 405.236 443.18 405.236 443.946H400.626C400.626 442.563 400.956 441.298 401.615 440.149C402.275 438.99 403.205 438.07 404.407 437.39C405.608 436.698 407.033 436.353 408.682 436.353C410.309 436.353 411.681 436.619 412.797 437.15C413.924 437.671 414.775 438.426 415.349 439.415C415.934 440.394 416.227 441.564 416.227 442.925C416.227 443.69 416.104 444.44 415.86 445.174C415.615 445.897 415.264 446.62 414.807 447.343C414.36 448.056 413.818 448.779 413.18 449.513C412.542 450.247 411.835 451.007 411.058 451.794L407.023 456.324H416.976ZM435.48 446.259V450.278C435.48 452.022 435.294 453.527 434.922 454.793C434.55 456.048 434.013 457.079 433.311 457.887C432.619 458.685 431.795 459.275 430.838 459.658C429.881 460.041 428.818 460.232 427.648 460.232C426.712 460.232 425.84 460.115 425.032 459.881C424.224 459.637 423.495 459.259 422.847 458.749C422.209 458.238 421.656 457.595 421.188 456.819C420.73 456.032 420.379 455.096 420.135 454.011C419.89 452.926 419.768 451.682 419.768 450.278V446.259C419.768 444.515 419.954 443.021 420.326 441.776C420.709 440.521 421.246 439.495 421.937 438.698C422.639 437.9 423.469 437.315 424.426 436.943C425.383 436.56 426.446 436.369 427.616 436.369C428.552 436.369 429.419 436.491 430.216 436.736C431.024 436.97 431.753 437.336 432.401 437.836C433.05 438.336 433.603 438.979 434.06 439.766C434.518 440.543 434.869 441.473 435.113 442.558C435.358 443.632 435.48 444.866 435.48 446.259ZM430.87 450.885V445.637C430.87 444.796 430.822 444.063 430.727 443.435C430.642 442.808 430.509 442.276 430.328 441.84C430.147 441.393 429.924 441.032 429.658 440.755C429.392 440.479 429.089 440.277 428.749 440.149C428.408 440.022 428.031 439.958 427.616 439.958C427.095 439.958 426.632 440.059 426.228 440.261C425.835 440.463 425.5 440.787 425.223 441.234C424.947 441.67 424.734 442.255 424.585 442.989C424.447 443.712 424.378 444.594 424.378 445.637V450.885C424.378 451.725 424.42 452.464 424.506 453.102C424.601 453.74 424.739 454.288 424.92 454.745C425.112 455.191 425.335 455.558 425.59 455.845C425.856 456.122 426.159 456.324 426.499 456.452C426.85 456.579 427.233 456.643 427.648 456.643C428.158 456.643 428.61 456.542 429.004 456.34C429.408 456.127 429.748 455.798 430.025 455.351C430.312 454.894 430.525 454.298 430.663 453.564C430.801 452.831 430.87 451.937 430.87 450.885ZM454.494 456.324V459.913H438.607V456.85L446.12 448.795C446.875 447.955 447.47 447.216 447.906 446.578C448.342 445.929 448.656 445.349 448.847 444.839C449.049 444.318 449.15 443.823 449.15 443.355C449.15 442.654 449.034 442.053 448.8 441.553C448.566 441.043 448.22 440.649 447.763 440.373C447.316 440.096 446.763 439.958 446.104 439.958C445.402 439.958 444.796 440.128 444.285 440.468C443.785 440.809 443.403 441.282 443.137 441.888C442.882 442.494 442.754 443.18 442.754 443.946H438.144C438.144 442.563 438.474 441.298 439.133 440.149C439.792 438.99 440.723 438.07 441.924 437.39C443.126 436.698 444.551 436.353 446.199 436.353C447.827 436.353 449.198 436.619 450.315 437.15C451.442 437.671 452.293 438.426 452.867 439.415C453.452 440.394 453.745 441.564 453.745 442.925C453.745 443.69 453.622 444.44 453.378 445.174C453.133 445.897 452.782 446.62 452.325 447.343C451.878 448.056 451.336 448.779 450.698 449.513C450.06 450.247 449.353 451.007 448.576 451.794L444.541 456.324H454.494ZM468.563 436.64V459.913H463.969V441.936L458.45 443.69V440.069L468.069 436.64H468.563Z" fill="#606060"/>
<line x1="166.646" y1="61.4058" x2="672.889" y2="61.4058" stroke="#CACACA" stroke-width="3.62984"/>
<line x1="166.646" y1="141.149" x2="672.889" y2="141.149" stroke="#CACACA" stroke-width="3.62984"/>
<line x1="166.646" y1="220.893" x2="672.889" y2="220.893" stroke="#CACACA" stroke-width="3.62984"/>
<line x1="166.646" y1="300.637" x2="666.808" y2="300.637" stroke="#CACACA" stroke-width="3.62984"/>
<rect x="1.90281" y="2.04051" width="769.375" height="513.049" stroke="#0567FF" stroke-width="3.62984"/>
<line x1="174.475" y1="268.74" x2="185.364" y2="268.74" stroke="#CACACA" stroke-width="3.62984"/>
<line x1="174.475" y1="236.843" x2="185.364" y2="236.843" stroke="#CACACA" stroke-width="3.62984"/>
<line x1="174.475" y1="188.996" x2="185.364" y2="188.996" stroke="#CACACA" stroke-width="3.62984"/>
<line x1="174.475" y1="157.096" x2="185.364" y2="157.096" stroke="#CACACA" stroke-width="3.62984"/>
<line x1="174.475" y1="284.689" x2="185.364" y2="284.689" stroke="#CACACA" stroke-width="3.62984"/>
<line x1="174.475" y1="252.792" x2="185.364" y2="252.792" stroke="#CACACA" stroke-width="3.62984"/>
<line x1="174.475" y1="348.485" x2="185.364" y2="348.485" stroke="#CACACA" stroke-width="3.62984"/>
<line x1="174.475" y1="316.586" x2="185.364" y2="316.586" stroke="#CACACA" stroke-width="3.62984"/>
<line x1="174.475" y1="364.433" x2="185.364" y2="364.433" stroke="#CACACA" stroke-width="3.62984"/>
<line x1="174.475" y1="332.535" x2="185.364" y2="332.535" stroke="#CACACA" stroke-width="3.62984"/>
<line x1="174.475" y1="204.943" x2="185.364" y2="204.943" stroke="#CACACA" stroke-width="3.62984"/>
<line x1="174.475" y1="173.046" x2="185.364" y2="173.046" stroke="#CACACA" stroke-width="3.62984"/>
<line x1="174.475" y1="125.199" x2="185.364" y2="125.199" stroke="#CACACA" stroke-width="3.62984"/>
<line x1="174.475" y1="109.251" x2="185.364" y2="109.251" stroke="#CACACA" stroke-width="3.62984"/>
<line x1="174.475" y1="77.353" x2="185.364" y2="77.3531" stroke="#CACACA" stroke-width="3.62984"/>
<line x1="174.475" y1="93.3023" x2="185.364" y2="93.3023" stroke="#CACACA" stroke-width="3.62984"/>
<line x1="172.873" y1="398.533" x2="172.873" y2="382.199" stroke="#CACACA" stroke-width="3.62984"/>
<line x1="218.537" y1="398.533" x2="218.537" y2="382.199" stroke="#CACACA" stroke-width="3.62984"/>
<line x1="264.209" y1="398.533" x2="264.209" y2="382.199" stroke="#CACACA" stroke-width="3.62984"/>
<line x1="309.88" y1="398.533" x2="309.88" y2="382.199" stroke="#CACACA" stroke-width="3.62984"/>
<line x1="355.552" y1="398.533" x2="355.552" y2="382.199" stroke="#CACACA" stroke-width="3.62984"/>
<line x1="401.22" y1="398.533" x2="401.22" y2="382.199" stroke="#CACACA" stroke-width="3.62984"/>
<line x1="446.892" y1="398.533" x2="446.892" y2="382.199" stroke="#CACACA" stroke-width="3.62984"/>
<line x1="492.562" y1="398.533" x2="492.562" y2="382.199" stroke="#CACACA" stroke-width="3.62984"/>
<line x1="538.23" y1="398.533" x2="538.23" y2="382.199" stroke="#CACACA" stroke-width="3.62984"/>
<line x1="583.902" y1="398.533" x2="583.902" y2="382.199" stroke="#CACACA" stroke-width="3.62984"/>
<line x1="629.57" y1="398.533" x2="629.57" y2="382.199" stroke="#CACACA" stroke-width="3.62984"/>
<line x1="675.248" y1="398.533" x2="675.248" y2="382.199" stroke="#CACACA" stroke-width="3.62984"/>
<path d="M173.83 416.315V403.524H176.212V416.315C176.212 417.506 175.968 418.511 175.48 419.33C174.992 420.149 174.318 420.773 173.458 421.203C172.606 421.625 171.626 421.836 170.517 421.836C169.409 421.836 168.425 421.646 167.564 421.265C166.704 420.885 166.03 420.306 165.542 419.528C165.054 418.751 164.81 417.771 164.81 416.588H167.205C167.205 417.349 167.345 417.973 167.626 418.461C167.908 418.949 168.296 419.309 168.793 419.541C169.297 419.772 169.872 419.888 170.517 419.888C171.146 419.888 171.708 419.756 172.205 419.491C172.709 419.218 173.106 418.817 173.396 418.288C173.685 417.75 173.83 417.093 173.83 416.315Z" fill="#606060"/>
<path d="M217.011 403.524V421.588H214.616V403.524H217.011ZM224.579 411.65V413.61H216.489V411.65H224.579ZM225.807 403.524V405.484H216.489V403.524H225.807Z" fill="#606060"/>
<path d="M257.739 403.524H260.06L265.977 418.25L271.883 403.524H274.216L266.871 421.588H265.059L257.739 403.524ZM256.983 403.524H259.03L259.365 414.541V421.588H256.983V403.524ZM272.913 403.524H274.96V421.588H272.578V414.541L272.913 403.524Z" fill="#606060"/>
<path d="M312.382 405.124L306.402 421.588H303.958L310.844 403.524H312.419L312.382 405.124ZM317.394 421.588L311.402 405.124L311.365 403.524H312.94L319.851 421.588H317.394ZM317.084 414.901V416.861H306.935V414.901H317.084Z" fill="#606060"/>
<path d="M348.585 403.524H350.905L356.823 418.25L362.729 403.524H365.061L357.716 421.588H355.905L348.585 403.524ZM347.828 403.524H349.875L350.21 414.541V421.588H347.828V403.524ZM363.759 403.524H365.806V421.588H363.424V414.541L363.759 403.524Z" fill="#606060"/>
<path d="M404.914 415.347V402.556H407.297V415.347C407.297 416.538 407.053 417.543 406.565 418.362C406.077 419.181 405.402 419.805 404.542 420.236C403.69 420.657 402.71 420.868 401.602 420.868C400.494 420.868 399.509 420.678 398.649 420.298C397.789 419.917 397.115 419.338 396.627 418.561C396.139 417.783 395.895 416.803 395.895 415.62H398.289C398.289 416.381 398.43 417.006 398.711 417.494C398.992 417.982 399.381 418.341 399.877 418.573C400.382 418.805 400.957 418.92 401.602 418.92C402.23 418.92 402.793 418.788 403.289 418.523C403.794 418.25 404.191 417.849 404.48 417.32C404.77 416.782 404.914 416.125 404.914 415.347Z" fill="#606060"/>
<path d="M449.856 415.347V402.556H452.238V415.347C452.238 416.538 451.994 417.543 451.506 418.362C451.018 419.181 450.344 419.805 449.484 420.236C448.632 420.657 447.652 420.868 446.543 420.868C445.435 420.868 444.451 420.678 443.59 420.298C442.73 419.917 442.056 419.338 441.568 418.561C441.08 417.783 440.836 416.803 440.836 415.62H443.231C443.231 416.381 443.371 417.006 443.653 417.494C443.934 417.982 444.322 418.341 444.819 418.573C445.323 418.805 445.898 418.92 446.543 418.92C447.172 418.92 447.734 418.788 448.231 418.523C448.735 418.25 449.132 417.849 449.422 417.32C449.711 416.782 449.856 416.125 449.856 415.347Z" fill="#606060"/>
<path d="M492.138 404.156L486.158 420.62H483.714L490.599 402.556H492.175L492.138 404.156ZM497.15 420.62L491.158 404.156L491.12 402.556H492.696L499.607 420.62H497.15ZM496.84 413.933V415.893H486.691V413.933H496.84Z" fill="#606060"/>
<path d="M543.186 416.054C543.186 415.633 543.12 415.26 542.987 414.938C542.863 414.607 542.64 414.309 542.317 414.045C542.003 413.78 541.565 413.528 541.002 413.288C540.448 413.048 539.745 412.804 538.893 412.556C538 412.291 537.193 411.997 536.474 411.675C535.754 411.344 535.138 410.968 534.625 410.546C534.112 410.124 533.72 409.64 533.447 409.094C533.174 408.548 533.037 407.924 533.037 407.221C533.037 406.518 533.182 405.869 533.471 405.273C533.761 404.678 534.175 404.161 534.712 403.722C535.258 403.276 535.907 402.928 536.66 402.68C537.413 402.432 538.252 402.308 539.179 402.308C540.535 402.308 541.685 402.568 542.628 403.089C543.579 403.602 544.302 404.276 544.799 405.112C545.295 405.939 545.543 406.824 545.543 407.767H543.161C543.161 407.089 543.016 406.489 542.727 405.968C542.437 405.438 541.999 405.025 541.412 404.727C540.824 404.421 540.08 404.268 539.179 404.268C538.327 404.268 537.624 404.396 537.069 404.653C536.515 404.909 536.102 405.257 535.829 405.695C535.564 406.133 535.432 406.634 535.432 407.196C535.432 407.577 535.51 407.924 535.667 408.238C535.833 408.544 536.085 408.83 536.424 409.094C536.772 409.359 537.21 409.603 537.739 409.826C538.277 410.05 538.918 410.265 539.662 410.471C540.688 410.761 541.573 411.084 542.317 411.439C543.062 411.795 543.674 412.196 544.154 412.643C544.642 413.081 545.001 413.581 545.233 414.144C545.473 414.698 545.593 415.327 545.593 416.03C545.593 416.766 545.444 417.432 545.146 418.027C544.848 418.623 544.422 419.131 543.868 419.553C543.314 419.975 542.648 420.302 541.871 420.533C541.102 420.757 540.241 420.868 539.29 420.868C538.455 420.868 537.632 420.752 536.821 420.521C536.019 420.289 535.287 419.942 534.625 419.479C533.972 419.016 533.447 418.445 533.05 417.767C532.661 417.08 532.467 416.286 532.467 415.384H534.849C534.849 416.005 534.969 416.538 535.208 416.985C535.448 417.423 535.775 417.787 536.189 418.077C536.61 418.366 537.086 418.581 537.615 418.722C538.153 418.854 538.711 418.92 539.29 418.92C540.126 418.92 540.833 418.805 541.412 418.573C541.991 418.341 542.429 418.011 542.727 417.58C543.033 417.15 543.186 416.642 543.186 416.054Z" fill="#606060"/>
<path d="M593.132 411.017V412.159C593.132 413.515 592.962 414.731 592.623 415.806C592.284 416.882 591.796 417.796 591.159 418.548C590.522 419.301 589.757 419.876 588.864 420.273C587.979 420.67 586.986 420.868 585.886 420.868C584.819 420.868 583.839 420.67 582.946 420.273C582.061 419.876 581.292 419.301 580.638 418.548C579.993 417.796 579.493 416.882 579.137 415.806C578.781 414.731 578.604 413.515 578.604 412.159V411.017C578.604 409.661 578.777 408.449 579.125 407.382C579.48 406.307 579.981 405.393 580.626 404.64C581.271 403.879 582.036 403.3 582.921 402.903C583.814 402.506 584.795 402.308 585.862 402.308C586.962 402.308 587.954 402.506 588.839 402.903C589.732 403.3 590.498 403.879 591.134 404.64C591.78 405.393 592.272 406.307 592.611 407.382C592.958 408.449 593.132 409.661 593.132 411.017ZM590.762 412.159V410.993C590.762 409.917 590.651 408.966 590.427 408.139C590.212 407.312 589.894 406.617 589.472 406.055C589.05 405.492 588.533 405.066 587.921 404.777C587.317 404.487 586.631 404.343 585.862 404.343C585.117 404.343 584.443 404.487 583.839 404.777C583.244 405.066 582.731 405.492 582.301 406.055C581.879 406.617 581.552 407.312 581.321 408.139C581.089 408.966 580.973 409.917 580.973 410.993V412.159C580.973 413.242 581.089 414.202 581.321 415.037C581.552 415.864 581.883 416.563 582.313 417.134C582.752 417.696 583.269 418.122 583.864 418.412C584.468 418.701 585.142 418.846 585.886 418.846C586.664 418.846 587.355 418.701 587.958 418.412C588.562 418.122 589.071 417.696 589.484 417.134C589.906 416.563 590.225 415.864 590.44 415.037C590.655 414.202 590.762 413.242 590.762 412.159Z" fill="#606060"/>
<path d="M638.219 402.556V420.62H635.812L626.718 406.687V420.62H624.323V402.556H626.718L635.849 416.526V402.556H638.219Z" fill="#606060"/>
<path d="M673.918 420.62H670.147L670.171 418.672H673.918C675.208 418.672 676.284 418.403 677.144 417.866C678.004 417.32 678.649 416.559 679.079 415.583C679.518 414.599 679.737 413.449 679.737 412.134V411.03C679.737 409.996 679.613 409.078 679.365 408.275C679.117 407.465 678.753 406.783 678.273 406.228C677.793 405.666 677.206 405.24 676.511 404.95C675.825 404.661 675.035 404.516 674.141 404.516H670.072V402.556H674.141C675.324 402.556 676.404 402.755 677.38 403.152C678.356 403.54 679.195 404.107 679.898 404.851C680.609 405.587 681.155 406.481 681.536 407.531C681.916 408.573 682.107 409.748 682.107 411.055V412.134C682.107 413.441 681.916 414.619 681.536 415.67C681.155 416.712 680.605 417.601 679.886 418.337C679.174 419.073 678.314 419.64 677.305 420.037C676.304 420.426 675.175 420.62 673.918 420.62ZM671.424 402.556V420.62H669.03V402.556H671.424Z" fill="#606060"/>
</svg>
