<svg width="774" height="517" viewBox="0 0 774 517" fill="none" xmlns="http://www.w3.org/2000/svg">
<line x1="167.535" y1="380.431" x2="678.444" y2="380.431" stroke="#606060" stroke-width="3.62984"/>
<path d="M117.365 221.463L115.529 220.991L116.434 211.996H125.702V214.118H118.382L117.836 219.031C118.167 218.841 118.585 218.663 119.089 218.498C119.602 218.332 120.189 218.249 120.851 218.249C121.686 218.249 122.435 218.394 123.097 218.684C123.758 218.965 124.321 219.37 124.784 219.899C125.255 220.429 125.615 221.066 125.863 221.81C126.111 222.555 126.236 223.386 126.236 224.304C126.236 225.172 126.116 225.97 125.876 226.698C125.644 227.426 125.293 228.063 124.821 228.609C124.35 229.147 123.754 229.564 123.035 229.862C122.323 230.16 121.484 230.309 120.516 230.309C119.788 230.309 119.098 230.209 118.444 230.011C117.799 229.804 117.22 229.494 116.707 229.08C116.203 228.659 115.789 228.138 115.467 227.517C115.152 226.889 114.954 226.152 114.871 225.309H117.055C117.154 225.987 117.352 226.558 117.65 227.021C117.948 227.484 118.337 227.836 118.816 228.075C119.304 228.307 119.871 228.423 120.516 228.423C121.062 228.423 121.546 228.328 121.968 228.138C122.389 227.947 122.745 227.674 123.035 227.319C123.324 226.963 123.543 226.533 123.692 226.028C123.849 225.524 123.928 224.957 123.928 224.329C123.928 223.758 123.849 223.229 123.692 222.741C123.535 222.253 123.299 221.827 122.985 221.463C122.679 221.099 122.303 220.818 121.856 220.619C121.409 220.412 120.897 220.309 120.318 220.309C119.548 220.309 118.965 220.412 118.568 220.619C118.179 220.826 117.778 221.107 117.365 221.463ZM140.094 219.589V222.344C140.094 223.824 139.961 225.073 139.697 226.09C139.432 227.108 139.052 227.927 138.555 228.547C138.059 229.167 137.459 229.618 136.756 229.899C136.062 230.172 135.276 230.309 134.399 230.309C133.704 230.309 133.063 230.222 132.476 230.048C131.889 229.874 131.359 229.597 130.888 229.217C130.425 228.828 130.028 228.324 129.697 227.703C129.366 227.083 129.114 226.33 128.94 225.445C128.766 224.56 128.68 223.526 128.68 222.344V219.589C128.68 218.109 128.812 216.868 129.077 215.867C129.35 214.867 129.734 214.064 130.23 213.46C130.727 212.848 131.322 212.41 132.017 212.145C132.72 211.881 133.506 211.748 134.374 211.748C135.077 211.748 135.723 211.835 136.31 212.009C136.905 212.174 137.435 212.443 137.898 212.815C138.361 213.179 138.754 213.667 139.076 214.279C139.407 214.883 139.66 215.623 139.833 216.5C140.007 217.377 140.094 218.407 140.094 219.589ZM137.786 222.716V219.205C137.786 218.394 137.737 217.683 137.637 217.071C137.546 216.45 137.41 215.921 137.228 215.483C137.046 215.044 136.814 214.689 136.533 214.416C136.26 214.143 135.942 213.944 135.578 213.82C135.222 213.688 134.821 213.622 134.374 213.622C133.828 213.622 133.345 213.725 132.923 213.932C132.501 214.13 132.145 214.449 131.856 214.887C131.575 215.326 131.359 215.9 131.211 216.612C131.062 217.323 130.987 218.187 130.987 219.205V222.716C130.987 223.526 131.033 224.242 131.124 224.862C131.223 225.482 131.368 226.02 131.558 226.475C131.748 226.922 131.98 227.29 132.253 227.579C132.526 227.869 132.84 228.084 133.196 228.224C133.56 228.357 133.961 228.423 134.399 228.423C134.962 228.423 135.454 228.315 135.876 228.1C136.297 227.885 136.649 227.55 136.93 227.095C137.22 226.632 137.435 226.041 137.575 225.321C137.716 224.593 137.786 223.725 137.786 222.716ZM146.037 211.996V230.061H143.642V211.996H146.037ZM156.942 211.996L149.436 220.421L145.218 224.8L144.821 222.244L147.997 218.746L154.064 211.996H156.942ZM154.634 230.061L147.947 221.252L149.374 219.354L157.488 230.061H154.634Z" fill="#606060"/>
<path d="M126.298 307.62V309.506H114.474V307.856L120.392 301.268C121.12 300.457 121.682 299.771 122.079 299.208C122.485 298.638 122.766 298.129 122.923 297.682C123.088 297.227 123.171 296.764 123.171 296.293C123.171 295.697 123.047 295.16 122.799 294.68C122.559 294.192 122.203 293.803 121.732 293.514C121.26 293.224 120.69 293.079 120.02 293.079C119.217 293.079 118.548 293.237 118.01 293.551C117.481 293.857 117.084 294.287 116.819 294.841C116.554 295.395 116.422 296.032 116.422 296.752H114.127C114.127 295.734 114.35 294.804 114.797 293.96C115.243 293.117 115.905 292.447 116.782 291.95C117.658 291.446 118.738 291.194 120.02 291.194C121.161 291.194 122.137 291.396 122.948 291.802C123.758 292.199 124.379 292.761 124.809 293.489C125.247 294.208 125.466 295.052 125.466 296.02C125.466 296.549 125.375 297.087 125.193 297.633C125.02 298.17 124.776 298.708 124.461 299.246C124.155 299.783 123.796 300.313 123.382 300.834C122.977 301.355 122.542 301.867 122.079 302.372L117.241 307.62H126.298ZM131.657 300.908L129.821 300.437L130.727 291.442H139.995V293.563H132.675L132.129 298.476C132.46 298.286 132.877 298.108 133.382 297.943C133.895 297.777 134.482 297.695 135.144 297.695C135.979 297.695 136.727 297.839 137.389 298.129C138.051 298.41 138.613 298.815 139.076 299.345C139.548 299.874 139.908 300.511 140.156 301.255C140.404 302 140.528 302.831 140.528 303.749C140.528 304.618 140.408 305.416 140.168 306.144C139.937 306.872 139.585 307.508 139.114 308.054C138.642 308.592 138.047 309.01 137.327 309.307C136.616 309.605 135.776 309.754 134.809 309.754C134.081 309.754 133.39 309.655 132.737 309.456C132.091 309.249 131.513 308.939 131 308.526C130.495 308.104 130.082 307.583 129.759 306.962C129.445 306.334 129.246 305.598 129.164 304.754H131.347C131.446 305.432 131.645 306.003 131.943 306.466C132.24 306.929 132.629 307.281 133.109 307.521C133.597 307.752 134.163 307.868 134.809 307.868C135.354 307.868 135.838 307.773 136.26 307.583C136.682 307.393 137.038 307.12 137.327 306.764C137.617 306.408 137.836 305.978 137.985 305.474C138.142 304.969 138.22 304.403 138.22 303.774C138.22 303.203 138.142 302.674 137.985 302.186C137.828 301.698 137.592 301.272 137.277 300.908C136.971 300.544 136.595 300.263 136.148 300.064C135.702 299.858 135.189 299.754 134.61 299.754C133.841 299.754 133.258 299.858 132.861 300.064C132.472 300.271 132.071 300.552 131.657 300.908ZM146.037 291.442V309.506H143.642V291.442H146.037ZM156.942 291.442L149.436 299.866L145.218 304.245L144.821 301.69L147.997 298.191L154.064 291.442H156.942ZM154.634 309.506L147.947 300.697L149.374 298.799L157.488 309.506H154.634Z" fill="#606060"/>
<path d="M156.049 379.044V381.799C156.049 383.279 155.916 384.528 155.652 385.545C155.387 386.563 155.007 387.382 154.51 388.002C154.014 388.622 153.414 389.073 152.711 389.354C152.017 389.627 151.231 389.764 150.354 389.764C149.659 389.764 149.018 389.677 148.431 389.503C147.844 389.33 147.314 389.052 146.843 388.672C146.38 388.283 145.983 387.779 145.652 387.158C145.321 386.538 145.069 385.785 144.895 384.9C144.721 384.015 144.635 382.981 144.635 381.799V379.044C144.635 377.564 144.767 376.323 145.032 375.322C145.305 374.322 145.689 373.519 146.185 372.915C146.682 372.303 147.277 371.865 147.972 371.6C148.675 371.336 149.461 371.203 150.329 371.203C151.032 371.203 151.677 371.29 152.265 371.464C152.86 371.629 153.39 371.898 153.853 372.27C154.316 372.634 154.709 373.122 155.031 373.734C155.362 374.338 155.615 375.078 155.788 375.955C155.962 376.832 156.049 377.862 156.049 379.044ZM153.741 382.171V378.66C153.741 377.849 153.692 377.138 153.592 376.526C153.501 375.906 153.365 375.376 153.183 374.938C153.001 374.499 152.769 374.144 152.488 373.871C152.215 373.598 151.897 373.399 151.533 373.275C151.177 373.143 150.776 373.077 150.329 373.077C149.783 373.077 149.3 373.18 148.878 373.387C148.456 373.585 148.1 373.904 147.811 374.342C147.53 374.781 147.314 375.355 147.166 376.067C147.017 376.778 146.942 377.642 146.942 378.66V382.171C146.942 382.981 146.988 383.697 147.079 384.317C147.178 384.938 147.323 385.475 147.513 385.93C147.703 386.377 147.935 386.745 148.208 387.034C148.481 387.324 148.795 387.539 149.151 387.679C149.515 387.812 149.916 387.878 150.354 387.878C150.917 387.878 151.409 387.77 151.831 387.555C152.252 387.34 152.604 387.005 152.885 386.55C153.175 386.087 153.39 385.496 153.53 384.776C153.671 384.048 153.741 383.18 153.741 382.171Z" fill="#606060"/>
<path d="M126.136 131.648V132.938L118.655 149.712H116.236L123.705 133.534H113.928V131.648H126.136ZM131.657 141.114L129.821 140.643L130.727 131.648H139.995V133.769H132.675L132.129 138.682C132.46 138.492 132.877 138.314 133.382 138.149C133.895 137.983 134.482 137.901 135.144 137.901C135.979 137.901 136.727 138.046 137.389 138.335C138.051 138.616 138.613 139.021 139.076 139.551C139.548 140.08 139.908 140.717 140.156 141.461C140.404 142.206 140.528 143.037 140.528 143.955C140.528 144.824 140.408 145.622 140.168 146.35C139.937 147.078 139.585 147.714 139.114 148.26C138.642 148.798 138.047 149.216 137.327 149.513C136.616 149.811 135.776 149.96 134.809 149.96C134.081 149.96 133.39 149.861 132.737 149.662C132.091 149.456 131.513 149.145 131 148.732C130.495 148.31 130.082 147.789 129.759 147.169C129.445 146.54 129.246 145.804 129.164 144.96H131.347C131.446 145.638 131.645 146.209 131.943 146.672C132.24 147.135 132.629 147.487 133.109 147.727C133.597 147.958 134.163 148.074 134.809 148.074C135.354 148.074 135.838 147.979 136.26 147.789C136.682 147.599 137.038 147.326 137.327 146.97C137.617 146.614 137.836 146.184 137.985 145.68C138.142 145.175 138.22 144.609 138.22 143.98C138.22 143.409 138.142 142.88 137.985 142.392C137.828 141.904 137.592 141.478 137.277 141.114C136.971 140.75 136.595 140.469 136.148 140.27C135.702 140.064 135.189 139.96 134.61 139.96C133.841 139.96 133.258 140.064 132.861 140.27C132.472 140.477 132.071 140.758 131.657 141.114ZM146.037 131.648V149.712H143.642V131.648H146.037ZM156.942 131.648L149.436 140.072L145.218 144.451L144.821 141.896L147.997 138.397L154.064 131.648H156.942ZM154.634 149.712L147.947 140.903L149.374 139.005L157.488 149.712H154.634Z" fill="#606060"/>
<path d="M107.712 53.8415V72.0049H105.417V56.7075L100.789 58.3948V56.3228L107.353 53.8415H107.712ZM125.801 61.5336V64.2879C125.801 65.7685 125.669 67.0174 125.404 68.0347C125.14 69.0521 124.759 69.8709 124.263 70.4913C123.767 71.1116 123.167 71.5624 122.464 71.8436C121.769 72.1165 120.983 72.253 120.107 72.253C119.412 72.253 118.771 72.1662 118.184 71.9925C117.596 71.8188 117.067 71.5417 116.596 71.1612C116.132 70.7725 115.735 70.2679 115.405 69.6476C115.074 69.0273 114.821 68.2746 114.648 67.3896C114.474 66.5046 114.387 65.4707 114.387 64.2879V61.5336C114.387 60.0531 114.519 58.8125 114.784 57.8116C115.057 56.8108 115.442 56.0085 115.938 55.4048C116.434 54.7927 117.03 54.3543 117.725 54.0896C118.428 53.825 119.213 53.6926 120.082 53.6926C120.785 53.6926 121.43 53.7795 122.017 53.9532C122.613 54.1186 123.142 54.3874 123.605 54.7596C124.069 55.1235 124.461 55.6115 124.784 56.2236C125.115 56.8274 125.367 57.5676 125.541 58.4444C125.714 59.3211 125.801 60.3509 125.801 61.5336ZM123.494 64.6601V61.149C123.494 60.3385 123.444 59.6272 123.345 59.0151C123.254 58.3948 123.117 57.8654 122.935 57.427C122.753 56.9887 122.522 56.633 122.241 56.3601C121.968 56.0871 121.649 55.8886 121.285 55.7645C120.93 55.6322 120.528 55.566 120.082 55.566C119.536 55.566 119.052 55.6694 118.63 55.8762C118.208 56.0747 117.853 56.3931 117.563 56.8315C117.282 57.2699 117.067 57.8447 116.918 58.556C116.769 59.2674 116.695 60.1317 116.695 61.149V64.6601C116.695 65.4707 116.74 66.1862 116.831 66.8065C116.931 67.4268 117.075 67.9644 117.266 68.4194C117.456 68.866 117.687 69.2341 117.96 69.5235C118.233 69.813 118.548 70.0281 118.903 70.1687C119.267 70.301 119.668 70.3672 120.107 70.3672C120.669 70.3672 121.161 70.2597 121.583 70.0446C122.005 69.8296 122.356 69.4946 122.638 69.0397C122.927 68.5765 123.142 67.9851 123.283 67.2655C123.423 66.5377 123.494 65.6692 123.494 64.6601ZM140.094 61.5336V64.2879C140.094 65.7685 139.961 67.0174 139.697 68.0347C139.432 69.0521 139.052 69.8709 138.555 70.4913C138.059 71.1116 137.459 71.5624 136.756 71.8436C136.062 72.1165 135.276 72.253 134.399 72.253C133.704 72.253 133.063 72.1662 132.476 71.9925C131.889 71.8188 131.359 71.5417 130.888 71.1612C130.425 70.7725 130.028 70.2679 129.697 69.6476C129.366 69.0273 129.114 68.2746 128.94 67.3896C128.766 66.5046 128.68 65.4707 128.68 64.2879V61.5336C128.68 60.0531 128.812 58.8125 129.077 57.8116C129.35 56.8108 129.734 56.0085 130.23 55.4048C130.727 54.7927 131.322 54.3543 132.017 54.0896C132.72 53.825 133.506 53.6926 134.374 53.6926C135.077 53.6926 135.723 53.7795 136.31 53.9532C136.905 54.1186 137.435 54.3874 137.898 54.7596C138.361 55.1235 138.754 55.6115 139.076 56.2236C139.407 56.8274 139.66 57.5676 139.833 58.4444C140.007 59.3211 140.094 60.3509 140.094 61.5336ZM137.786 64.6601V61.149C137.786 60.3385 137.737 59.6272 137.637 59.0151C137.546 58.3948 137.41 57.8654 137.228 57.427C137.046 56.9887 136.814 56.633 136.533 56.3601C136.26 56.0871 135.942 55.8886 135.578 55.7645C135.222 55.6322 134.821 55.566 134.374 55.566C133.828 55.566 133.345 55.6694 132.923 55.8762C132.501 56.0747 132.145 56.3931 131.856 56.8315C131.575 57.2699 131.359 57.8447 131.211 58.556C131.062 59.2674 130.987 60.1317 130.987 61.149V64.6601C130.987 65.4707 131.033 66.1862 131.124 66.8065C131.223 67.4268 131.368 67.9644 131.558 68.4194C131.748 68.866 131.98 69.2341 132.253 69.5235C132.526 69.813 132.84 70.0281 133.196 70.1687C133.56 70.301 133.961 70.3672 134.399 70.3672C134.962 70.3672 135.454 70.2597 135.876 70.0446C136.297 69.8296 136.649 69.4946 136.93 69.0397C137.22 68.5765 137.435 67.9851 137.575 67.2655C137.716 66.5377 137.786 65.6692 137.786 64.6601ZM146.037 53.9408V72.0049H143.642V53.9408H146.037ZM156.942 53.9408L149.436 62.3649L145.218 66.7445L144.821 64.1887L147.997 60.69L154.064 53.9408H156.942ZM154.634 72.0049L147.947 63.1961L149.374 61.2979L157.488 72.0049H154.634Z" fill="#606060"/>
<path d="M52.9262 260.328L34.5501 254.856V249.529L57.7754 257.616V261.125L52.9262 260.328ZM34.5501 265.368L52.9262 259.913L57.7754 259.083V262.625L34.5501 270.664V265.368ZM58.0944 240.404C58.0944 241.744 57.8817 242.946 57.4564 244.009C57.0204 245.073 56.4195 245.977 55.6538 246.721C54.8882 247.455 54.0002 248.019 52.99 248.412C51.9691 248.805 50.8844 249.002 49.7359 249.002H49.0978C47.7898 249.002 46.5934 248.816 45.5087 248.444C44.424 248.072 43.4829 247.54 42.6853 246.849C41.8878 246.147 41.2763 245.296 40.8509 244.297C40.4149 243.297 40.1969 242.17 40.1969 240.915C40.1969 239.692 40.399 238.607 40.8031 237.661C41.2072 236.714 41.7814 235.922 42.5258 235.284C43.2702 234.635 44.1635 234.146 45.2057 233.816C46.2372 233.487 47.3857 233.322 48.6512 233.322H50.5653V247.04H47.5027V237.836H47.1517C46.5137 237.836 45.9447 237.953 45.4449 238.187C44.9345 238.41 44.5304 238.751 44.2326 239.208C43.9349 239.665 43.786 240.25 43.786 240.963C43.786 241.569 43.9189 242.09 44.1848 242.526C44.4506 242.962 44.8228 243.318 45.3014 243.595C45.7799 243.861 46.3435 244.063 46.9922 244.201C47.6303 244.328 48.3321 244.392 49.0978 244.392H49.7359C50.4271 244.392 51.0652 244.297 51.65 244.105C52.2349 243.903 52.7401 243.621 53.1654 243.26C53.5908 242.887 53.9205 242.441 54.1544 241.92C54.3884 241.388 54.5053 240.787 54.5053 240.117C54.5053 239.288 54.3458 238.517 54.0268 237.804C53.6971 237.081 53.2026 236.459 52.5433 235.938L54.9679 233.705C55.489 234.066 55.9888 234.561 56.4674 235.188C56.9459 235.805 57.3394 236.549 57.6478 237.421C57.9455 238.293 58.0944 239.288 58.0944 240.404ZM44.2007 226.208H57.7754V230.802H40.5159V226.495L44.2007 226.208ZM48.5395 226.878V228.122C47.2634 228.122 46.1149 227.957 45.094 227.627C44.0625 227.298 43.1851 226.835 42.462 226.239C41.7282 225.644 41.1699 224.937 40.7871 224.118C40.3936 223.288 40.1969 222.363 40.1969 221.342C40.1969 220.534 40.3139 219.795 40.5478 219.125C40.7818 218.455 41.154 217.881 41.6644 217.402C42.1749 216.913 42.8502 216.541 43.6903 216.286C44.5304 216.02 45.5566 215.887 46.7689 215.887H57.7754V220.513H46.7529C45.9873 220.513 45.3918 220.619 44.9664 220.832C44.541 221.045 44.2433 221.358 44.0731 221.773C43.8923 222.177 43.8019 222.677 43.8019 223.273C43.8019 223.889 43.9242 224.426 44.1688 224.884C44.4134 225.33 44.7537 225.702 45.1897 226C45.6151 226.287 46.1149 226.505 46.6891 226.654C47.2634 226.803 47.8802 226.878 48.5395 226.878ZM54.0109 202.201H33.274V197.575H57.7754V201.738L54.0109 202.201ZM49.353 213.111H49.018C47.6994 213.111 46.503 212.963 45.429 212.665C44.3443 212.367 43.4138 211.931 42.6375 211.357C41.8612 210.783 41.2603 210.075 40.835 209.235C40.4096 208.395 40.1969 207.438 40.1969 206.364C40.1969 205.354 40.4096 204.471 40.835 203.716C41.2603 202.95 41.8665 202.302 42.6534 201.77C43.4297 201.228 44.3496 200.792 45.413 200.462C46.4658 200.132 47.6196 199.893 48.8745 199.744H49.6083C50.8099 199.893 51.9265 200.132 52.9581 200.462C53.9896 200.792 54.8935 201.228 55.6698 201.77C56.4355 202.302 57.031 202.95 57.4564 203.716C57.8817 204.482 58.0944 205.375 58.0944 206.396C58.0944 207.47 57.8764 208.427 57.4404 209.267C57.0044 210.097 56.3929 210.798 55.606 211.373C54.8191 211.936 53.8939 212.367 52.8304 212.665C51.767 212.963 50.6079 213.111 49.353 213.111ZM49.018 208.517H49.353C50.0655 208.517 50.7302 208.464 51.347 208.358C51.9637 208.241 52.5114 208.055 52.99 207.8C53.4579 207.534 53.8248 207.193 54.0906 206.779C54.3458 206.353 54.4734 205.838 54.4734 205.231C54.4734 204.444 54.298 203.796 53.947 203.285C53.5855 202.775 53.091 202.387 52.4636 202.121C51.8361 201.844 51.113 201.685 50.2942 201.642H48.2045C47.5346 201.674 46.9337 201.77 46.402 201.929C45.8597 202.078 45.3971 202.302 45.0142 202.599C44.6314 202.887 44.3336 203.248 44.121 203.684C43.9083 204.11 43.8019 204.615 43.8019 205.2C43.8019 205.795 43.9402 206.305 44.2167 206.731C44.4825 207.156 44.8494 207.502 45.3173 207.768C45.7852 208.023 46.3382 208.214 46.9763 208.342C47.6037 208.459 48.2843 208.517 49.018 208.517ZM53.8832 184.67H46.1946C45.6417 184.67 45.1684 184.76 44.775 184.941C44.3709 185.122 44.0572 185.404 43.8338 185.787C43.6105 186.159 43.4989 186.643 43.4989 187.238C43.4989 187.749 43.5892 188.19 43.77 188.562C43.9402 188.934 44.1901 189.222 44.5197 189.424C44.8388 189.626 45.2163 189.727 45.6523 189.727V194.321C44.9185 194.321 44.222 194.151 43.5627 193.81C42.9033 193.47 42.3238 192.975 41.8239 192.327C41.3135 191.678 40.9147 190.907 40.6276 190.014C40.3405 189.11 40.1969 188.1 40.1969 186.983C40.1969 185.643 40.4202 184.452 40.8669 183.41C41.3135 182.368 41.9835 181.549 42.8767 180.953C43.77 180.347 44.8866 180.044 46.2265 180.044H53.6121C54.5585 180.044 55.3348 179.986 55.941 179.869C56.5365 179.752 57.0576 179.582 57.5042 179.358H57.7754V184C57.3075 184.223 56.7226 184.394 56.0207 184.511C55.3082 184.617 54.5957 184.67 53.8832 184.67ZM47.2634 184.064L49.8635 184.032V186.6C49.8635 187.206 49.9326 187.733 50.0708 188.179C50.2091 188.626 50.4058 188.993 50.661 189.28C50.9056 189.567 51.1928 189.78 51.5224 189.918C51.8521 190.046 52.2137 190.109 52.6071 190.109C53.0006 190.109 53.3568 190.019 53.6759 189.838C53.9843 189.658 54.2289 189.397 54.4096 189.057C54.5798 188.716 54.6649 188.318 54.6649 187.86C54.6649 187.169 54.5266 186.568 54.2501 186.058C53.9736 185.547 53.6333 185.154 53.2292 184.877C52.8251 184.59 52.4423 184.441 52.0807 184.431L54.0268 183.218C54.4628 183.389 54.9148 183.623 55.3827 183.92C55.8506 184.207 56.2919 184.574 56.7066 185.021C57.1107 185.468 57.4457 186.005 57.7116 186.632C57.9668 187.259 58.0944 188.004 58.0944 188.865C58.0944 189.961 57.8764 190.955 57.4404 191.848C56.9938 192.731 56.3823 193.433 55.606 193.954C54.8191 194.464 53.9258 194.719 52.9262 194.719C52.0222 194.719 51.2193 194.549 50.5175 194.209C49.8156 193.869 49.2254 193.369 48.7469 192.71C48.2577 192.04 47.8908 191.205 47.6462 190.205C47.391 189.206 47.2634 188.046 47.2634 186.728V184.064ZM53.0059 167.171C52.6762 167.171 52.3785 167.267 52.1126 167.458C51.8468 167.65 51.6022 168.006 51.3789 168.527C51.1449 169.038 50.9322 169.777 50.7408 170.744C50.5494 171.616 50.3101 172.43 50.023 173.185C49.7252 173.929 49.369 174.578 48.9542 175.131C48.5395 175.673 48.0503 176.099 47.4867 176.407C46.9125 176.716 46.2584 176.87 45.5247 176.87C44.8016 176.87 44.121 176.716 43.4829 176.407C42.8448 176.088 42.2812 175.636 41.792 175.051C41.2922 174.456 40.9041 173.733 40.6276 172.882C40.3405 172.021 40.1969 171.053 40.1969 169.979C40.1969 168.479 40.4362 167.193 40.9147 166.118C41.3933 165.034 42.0526 164.204 42.8927 163.63C43.7222 163.045 44.6686 162.753 45.7321 162.753V167.347C45.2854 167.347 44.8866 167.442 44.5357 167.634C44.1741 167.815 43.8923 168.102 43.6903 168.495C43.4776 168.878 43.3712 169.378 43.3712 169.995C43.3712 170.505 43.4616 170.946 43.6424 171.319C43.8126 171.691 44.0465 171.978 44.3443 172.18C44.6314 172.371 44.9504 172.467 45.3014 172.467C45.5672 172.467 45.8065 172.414 46.0192 172.308C46.2212 172.191 46.4073 172.005 46.5775 171.749C46.7476 171.494 46.9071 171.164 47.056 170.76C47.1943 170.346 47.3219 169.835 47.4389 169.229C47.6941 167.985 48.0291 166.874 48.4438 165.895C48.8479 164.917 49.4009 164.141 50.1027 163.566C50.794 162.992 51.7032 162.705 52.8304 162.705C53.5961 162.705 54.298 162.875 54.936 163.215C55.5741 163.556 56.1324 164.045 56.6109 164.683C57.0788 165.321 57.4457 166.087 57.7116 166.98C57.9668 167.863 58.0944 168.857 58.0944 169.963C58.0944 171.569 57.8073 172.93 57.233 174.046C56.6588 175.152 55.9303 175.992 55.0477 176.567C54.1544 177.13 53.2399 177.412 52.304 177.412V173.057C52.9315 173.036 53.4366 172.877 53.8194 172.579C54.2023 172.27 54.4788 171.882 54.6489 171.414C54.8191 170.936 54.9041 170.42 54.9041 169.867C54.9041 169.272 54.8244 168.777 54.6649 168.384C54.4947 167.99 54.2714 167.692 53.9949 167.49C53.7078 167.278 53.3781 167.171 53.0059 167.171Z" fill="#606060"/>
<path d="M417.867 456.372V459.961H401.979V456.898L409.493 448.843C410.248 448.003 410.843 447.264 411.279 446.626C411.715 445.977 412.029 445.397 412.22 444.887C412.422 444.366 412.523 443.871 412.523 443.403C412.523 442.701 412.406 442.101 412.172 441.601C411.938 441.09 411.593 440.697 411.136 440.42C410.689 440.144 410.136 440.006 409.477 440.006C408.775 440.006 408.169 440.176 407.658 440.516C407.158 440.856 406.775 441.33 406.51 441.936C406.254 442.542 406.127 443.228 406.127 443.994H401.517C401.517 442.611 401.846 441.346 402.506 440.197C403.165 439.038 404.096 438.118 405.297 437.438C406.499 436.746 407.924 436.401 409.572 436.401C411.199 436.401 412.571 436.667 413.688 437.198C414.815 437.719 415.666 438.474 416.24 439.463C416.825 440.442 417.117 441.611 417.117 442.973C417.117 443.738 416.995 444.488 416.75 445.222C416.506 445.945 416.155 446.668 415.698 447.391C415.251 448.104 414.709 448.827 414.071 449.561C413.433 450.294 412.725 451.055 411.949 451.842L407.913 456.372H417.867ZM436.371 446.307V450.326C436.371 452.07 436.185 453.575 435.812 454.841C435.44 456.095 434.903 457.127 434.201 457.935C433.51 458.733 432.686 459.323 431.729 459.706C430.772 460.089 429.708 460.28 428.539 460.28C427.603 460.28 426.731 460.163 425.923 459.929C425.114 459.684 424.386 459.307 423.737 458.796C423.099 458.286 422.546 457.643 422.078 456.866C421.621 456.079 421.27 455.144 421.025 454.059C420.781 452.974 420.659 451.73 420.659 450.326V446.307C420.659 444.562 420.845 443.068 421.217 441.824C421.6 440.569 422.137 439.543 422.828 438.746C423.53 437.948 424.359 437.363 425.316 436.991C426.273 436.608 427.337 436.417 428.507 436.417C429.442 436.417 430.309 436.539 431.107 436.783C431.915 437.017 432.643 437.384 433.292 437.884C433.941 438.384 434.494 439.027 434.951 439.814C435.408 440.591 435.759 441.521 436.004 442.606C436.248 443.68 436.371 444.913 436.371 446.307ZM431.761 450.932V445.684C431.761 444.844 431.713 444.111 431.617 443.483C431.532 442.856 431.399 442.324 431.218 441.888C431.038 441.441 430.814 441.08 430.548 440.803C430.283 440.527 429.98 440.325 429.639 440.197C429.299 440.069 428.921 440.006 428.507 440.006C427.986 440.006 427.523 440.107 427.119 440.309C426.725 440.511 426.39 440.835 426.114 441.282C425.837 441.718 425.625 442.303 425.476 443.036C425.338 443.76 425.269 444.642 425.269 445.684V450.932C425.269 451.773 425.311 452.512 425.396 453.15C425.492 453.788 425.63 454.335 425.811 454.793C426.002 455.239 426.226 455.606 426.481 455.893C426.747 456.17 427.05 456.372 427.39 456.499C427.741 456.627 428.124 456.691 428.539 456.691C429.049 456.691 429.501 456.59 429.894 456.388C430.299 456.175 430.639 455.845 430.915 455.399C431.202 454.942 431.415 454.346 431.553 453.612C431.692 452.878 431.761 451.985 431.761 450.932ZM455.385 456.372V459.961H439.497V456.898L447.01 448.843C447.765 448.003 448.361 447.264 448.797 446.626C449.233 445.977 449.547 445.397 449.738 444.887C449.94 444.366 450.041 443.871 450.041 443.403C450.041 442.701 449.924 442.101 449.69 441.601C449.456 441.09 449.111 440.697 448.653 440.42C448.207 440.144 447.654 440.006 446.994 440.006C446.293 440.006 445.686 440.176 445.176 440.516C444.676 440.856 444.293 441.33 444.027 441.936C443.772 442.542 443.645 443.228 443.645 443.994H439.035C439.035 442.611 439.364 441.346 440.024 440.197C440.683 439.038 441.613 438.118 442.815 437.438C444.017 436.746 445.442 436.401 447.09 436.401C448.717 436.401 450.089 436.667 451.206 437.198C452.333 437.719 453.184 438.474 453.758 439.463C454.343 440.442 454.635 441.611 454.635 442.973C454.635 443.738 454.513 444.488 454.268 445.222C454.024 445.945 453.673 446.668 453.215 447.391C452.769 448.104 452.226 448.827 451.588 449.561C450.95 450.294 450.243 451.055 449.467 451.842L445.431 456.372H455.385ZM469.454 436.688V459.961H464.86V441.984L459.341 443.738V440.117L468.96 436.688H469.454Z" fill="#606060"/>
<line x1="167.535" y1="61.4536" x2="673.778" y2="61.4536" stroke="#CACACA" stroke-width="3.62984"/>
<line x1="167.535" y1="139.692" x2="673.778" y2="139.692" stroke="#CACACA" stroke-width="3.62984"/>
<line x1="167.535" y1="223.95" x2="673.778" y2="223.95" stroke="#CACACA" stroke-width="3.62984"/>
<line x1="167.535" y1="302.19" x2="667.696" y2="302.19" stroke="#CACACA" stroke-width="3.62984"/>
<rect x="2.78953" y="2.08836" width="769.375" height="513.049" stroke="#0567FF" stroke-width="3.62984"/>
<line x1="175.361" y1="272.097" x2="186.251" y2="272.097" stroke="#CACACA" stroke-width="3.62984"/>
<line x1="175.361" y1="235.987" x2="186.251" y2="235.987" stroke="#CACACA" stroke-width="3.62984"/>
<line x1="175.361" y1="193.858" x2="186.251" y2="193.858" stroke="#CACACA" stroke-width="3.62984"/>
<line x1="175.361" y1="151.73" x2="186.251" y2="151.73" stroke="#CACACA" stroke-width="3.62984"/>
<line x1="175.361" y1="296.171" x2="186.251" y2="296.171" stroke="#CACACA" stroke-width="3.62984"/>
<line x1="175.361" y1="248.024" x2="186.251" y2="248.024" stroke="#CACACA" stroke-width="3.62984"/>
<line x1="175.361" y1="260.061" x2="186.251" y2="260.061" stroke="#CACACA" stroke-width="3.62984"/>
<line x1="175.361" y1="229.968" x2="186.251" y2="229.968" stroke="#CACACA" stroke-width="3.62984"/>
<line x1="175.361" y1="284.135" x2="186.251" y2="284.135" stroke="#CACACA" stroke-width="3.62984"/>
<line x1="175.361" y1="266.079" x2="186.251" y2="266.079" stroke="#CACACA" stroke-width="3.62984"/>
<line x1="175.361" y1="290.153" x2="186.251" y2="290.153" stroke="#CACACA" stroke-width="3.62984"/>
<line x1="175.361" y1="254.043" x2="186.251" y2="254.042" stroke="#CACACA" stroke-width="3.62984"/>
<line x1="175.361" y1="278.117" x2="186.251" y2="278.117" stroke="#CACACA" stroke-width="3.62984"/>
<line x1="175.361" y1="242.004" x2="186.251" y2="242.004" stroke="#CACACA" stroke-width="3.62984"/>
<line x1="175.361" y1="350.338" x2="186.251" y2="350.338" stroke="#CACACA" stroke-width="3.62984"/>
<line x1="175.361" y1="314.227" x2="186.251" y2="314.227" stroke="#CACACA" stroke-width="3.62984"/>
<line x1="175.361" y1="374.413" x2="186.251" y2="374.413" stroke="#CACACA" stroke-width="3.62984"/>
<line x1="175.361" y1="326.264" x2="186.251" y2="326.264" stroke="#CACACA" stroke-width="3.62984"/>
<line x1="175.361" y1="338.301" x2="186.251" y2="338.301" stroke="#CACACA" stroke-width="3.62984"/>
<line x1="175.361" y1="308.209" x2="186.251" y2="308.21" stroke="#CACACA" stroke-width="3.62984"/>
<line x1="175.361" y1="362.375" x2="186.251" y2="362.375" stroke="#CACACA" stroke-width="3.62984"/>
<line x1="175.361" y1="344.32" x2="186.251" y2="344.32" stroke="#CACACA" stroke-width="3.62984"/>
<line x1="175.361" y1="368.394" x2="186.251" y2="368.394" stroke="#CACACA" stroke-width="3.62984"/>
<line x1="175.361" y1="332.283" x2="186.251" y2="332.283" stroke="#CACACA" stroke-width="3.62984"/>
<line x1="175.361" y1="356.357" x2="186.251" y2="356.357" stroke="#CACACA" stroke-width="3.62984"/>
<line x1="175.361" y1="320.246" x2="186.251" y2="320.246" stroke="#CACACA" stroke-width="3.62984"/>
<line x1="175.365" y1="217.931" x2="186.255" y2="217.931" stroke="#CACACA" stroke-width="3.62984"/>
<line x1="175.365" y1="169.785" x2="186.255" y2="169.785" stroke="#CACACA" stroke-width="3.62984"/>
<line x1="175.365" y1="181.82" x2="186.255" y2="181.82" stroke="#CACACA" stroke-width="3.62984"/>
<line x1="175.365" y1="145.709" x2="186.255" y2="145.709" stroke="#CACACA" stroke-width="3.62984"/>
<line x1="175.365" y1="205.895" x2="186.255" y2="205.895" stroke="#CACACA" stroke-width="3.62984"/>
<line x1="175.365" y1="187.839" x2="186.255" y2="187.839" stroke="#CACACA" stroke-width="3.62984"/>
<line x1="175.365" y1="211.913" x2="186.255" y2="211.913" stroke="#CACACA" stroke-width="3.62984"/>
<line x1="175.365" y1="163.764" x2="186.255" y2="163.764" stroke="#CACACA" stroke-width="3.62984"/>
<line x1="175.365" y1="175.802" x2="186.255" y2="175.802" stroke="#CACACA" stroke-width="3.62984"/>
<line x1="175.365" y1="199.876" x2="186.255" y2="199.876" stroke="#CACACA" stroke-width="3.62984"/>
<line x1="175.365" y1="157.747" x2="186.255" y2="157.747" stroke="#CACACA" stroke-width="3.62984"/>
<line x1="175.365" y1="121.636" x2="186.255" y2="121.636" stroke="#CACACA" stroke-width="3.62984"/>
<line x1="175.365" y1="97.5611" x2="186.255" y2="97.5611" stroke="#CACACA" stroke-width="3.62984"/>
<line x1="175.365" y1="67.4702" x2="186.255" y2="67.4702" stroke="#CACACA" stroke-width="3.62984"/>
<line x1="175.365" y1="79.5083" x2="186.255" y2="79.5083" stroke="#CACACA" stroke-width="3.62984"/>
<line x1="175.365" y1="133.673" x2="186.255" y2="133.673" stroke="#CACACA" stroke-width="3.62984"/>
<line x1="175.365" y1="109.599" x2="186.255" y2="109.599" stroke="#CACACA" stroke-width="3.62984"/>
<line x1="175.365" y1="115.617" x2="186.255" y2="115.617" stroke="#CACACA" stroke-width="3.62984"/>
<line x1="175.365" y1="91.5435" x2="186.255" y2="91.5435" stroke="#CACACA" stroke-width="3.62984"/>
<line x1="175.365" y1="127.654" x2="186.255" y2="127.654" stroke="#CACACA" stroke-width="3.62984"/>
<line x1="175.365" y1="103.581" x2="186.255" y2="103.581" stroke="#CACACA" stroke-width="3.62984"/>
<line x1="175.365" y1="73.4878" x2="186.255" y2="73.4878" stroke="#CACACA" stroke-width="3.62984"/>
<line x1="175.365" y1="85.5259" x2="186.255" y2="85.5259" stroke="#CACACA" stroke-width="3.62984"/>
<line x1="173.753" y1="398.579" x2="173.753" y2="382.245" stroke="#CACACA" stroke-width="3.62984"/>
<line x1="219.427" y1="398.579" x2="219.427" y2="382.245" stroke="#CACACA" stroke-width="3.62984"/>
<line x1="265.099" y1="398.579" x2="265.099" y2="382.245" stroke="#CACACA" stroke-width="3.62984"/>
<line x1="310.767" y1="398.579" x2="310.767" y2="382.245" stroke="#CACACA" stroke-width="3.62984"/>
<line x1="356.439" y1="398.58" x2="356.439" y2="382.246" stroke="#CACACA" stroke-width="3.62984"/>
<line x1="402.111" y1="398.579" x2="402.111" y2="382.245" stroke="#CACACA" stroke-width="3.62984"/>
<line x1="447.781" y1="398.579" x2="447.781" y2="382.245" stroke="#CACACA" stroke-width="3.62984"/>
<line x1="493.449" y1="398.579" x2="493.449" y2="382.245" stroke="#CACACA" stroke-width="3.62984"/>
<line x1="539.121" y1="398.58" x2="539.121" y2="382.246" stroke="#CACACA" stroke-width="3.62984"/>
<line x1="584.793" y1="398.579" x2="584.792" y2="382.245" stroke="#CACACA" stroke-width="3.62984"/>
<line x1="630.464" y1="398.579" x2="630.464" y2="382.245" stroke="#CACACA" stroke-width="3.62984"/>
<line x1="676.132" y1="398.579" x2="676.132" y2="382.245" stroke="#CACACA" stroke-width="3.62984"/>
<path d="M174.717 416.362V403.571H177.099V416.362C177.099 417.553 176.855 418.558 176.367 419.377C175.879 420.196 175.205 420.82 174.344 421.25C173.492 421.672 172.512 421.883 171.404 421.883C170.296 421.883 169.311 421.693 168.451 421.312C167.591 420.932 166.917 420.353 166.429 419.575C165.941 418.798 165.697 417.818 165.697 416.635H168.091C168.091 417.396 168.232 418.02 168.513 418.508C168.794 418.996 169.183 419.356 169.679 419.588C170.184 419.819 170.759 419.935 171.404 419.935C172.033 419.935 172.595 419.803 173.091 419.538C173.596 419.265 173.993 418.864 174.282 418.335C174.572 417.797 174.717 417.139 174.717 416.362Z" fill="#606060"/>
<path d="M217.905 403.57V421.634H215.511V403.57H217.905ZM225.473 411.696V413.656H217.384V411.696H225.473ZM226.701 403.57V405.53H217.384V403.57H226.701Z" fill="#606060"/>
<path d="M258.626 403.57H260.946L266.864 418.296L272.77 403.57H275.102L267.757 421.634H265.946L258.626 403.57ZM257.869 403.57H259.916L260.251 414.587V421.634H257.869V403.57ZM273.8 403.57H275.847V421.634H273.465V414.587L273.8 403.57Z" fill="#606060"/>
<path d="M313.265 405.17L307.285 421.634H304.841L311.726 403.57H313.302L313.265 405.17ZM318.277 421.634L312.285 405.17L312.247 403.57H313.823L320.734 421.634H318.277ZM317.967 414.947V416.907H307.818V414.947H317.967Z" fill="#606060"/>
<path d="M349.472 403.57H351.792L357.71 418.296L363.615 403.57H365.948L358.603 421.634H356.792L349.472 403.57ZM348.715 403.57H350.762L351.097 414.587V421.634H348.715V403.57ZM364.645 403.57H366.692V421.634H364.31V414.587L364.645 403.57Z" fill="#606060"/>
<path d="M405.801 415.396V402.605H408.183V415.396C408.183 416.587 407.939 417.592 407.451 418.411C406.963 419.23 406.289 419.854 405.429 420.284C404.577 420.706 403.597 420.917 402.489 420.917C401.38 420.917 400.396 420.727 399.536 420.346C398.676 419.966 398.002 419.387 397.514 418.609C397.026 417.832 396.782 416.852 396.782 415.669H399.176C399.176 416.43 399.317 417.054 399.598 417.542C399.879 418.03 400.268 418.39 400.764 418.622C401.269 418.853 401.843 418.969 402.489 418.969C403.117 418.969 403.68 418.837 404.176 418.572C404.68 418.299 405.077 417.898 405.367 417.369C405.656 416.831 405.801 416.174 405.801 415.396Z" fill="#606060"/>
<path d="M450.745 415.396V402.605H453.127V415.396C453.127 416.587 452.883 417.592 452.395 418.411C451.907 419.23 451.233 419.854 450.372 420.284C449.52 420.706 448.54 420.917 447.432 420.917C446.324 420.917 445.339 420.727 444.479 420.346C443.619 419.966 442.945 419.387 442.457 418.609C441.969 417.832 441.725 416.852 441.725 415.669H444.119C444.119 416.43 444.26 417.054 444.541 417.542C444.822 418.03 445.211 418.39 445.707 418.622C446.212 418.853 446.787 418.969 447.432 418.969C448.061 418.969 448.623 418.837 449.119 418.572C449.624 418.299 450.021 417.898 450.31 417.369C450.6 416.831 450.745 416.174 450.745 415.396Z" fill="#606060"/>
<path d="M493.028 404.205L487.048 420.669H484.604L491.49 402.605H493.066L493.028 404.205ZM498.041 420.669L492.048 404.205L492.011 402.605H493.587L500.497 420.669H498.041ZM497.731 413.982V415.942H487.582V413.982H497.731Z" fill="#606060"/>
<path d="M544.071 416.103C544.071 415.681 544.004 415.309 543.872 414.987C543.748 414.656 543.525 414.358 543.202 414.093C542.888 413.829 542.45 413.576 541.887 413.337C541.333 413.097 540.63 412.853 539.778 412.605C538.885 412.34 538.078 412.046 537.359 411.724C536.639 411.393 536.023 411.017 535.51 410.595C534.997 410.173 534.604 409.689 534.331 409.143C534.058 408.597 533.922 407.973 533.922 407.27C533.922 406.567 534.067 405.917 534.356 405.322C534.646 404.726 535.059 404.209 535.597 403.771C536.143 403.324 536.792 402.977 537.545 402.729C538.297 402.481 539.137 402.357 540.063 402.357C541.42 402.357 542.569 402.617 543.512 403.138C544.464 403.651 545.187 404.325 545.684 405.161C546.18 405.988 546.428 406.873 546.428 407.816H544.046C544.046 407.137 543.901 406.538 543.612 406.017C543.322 405.487 542.884 405.074 542.296 404.776C541.709 404.47 540.965 404.317 540.063 404.317C539.211 404.317 538.508 404.445 537.954 404.702C537.4 404.958 536.986 405.305 536.713 405.744C536.449 406.182 536.316 406.682 536.316 407.245C536.316 407.625 536.395 407.973 536.552 408.287C536.718 408.593 536.97 408.878 537.309 409.143C537.656 409.408 538.095 409.652 538.624 409.875C539.162 410.098 539.803 410.314 540.547 410.52C541.573 410.81 542.458 411.132 543.202 411.488C543.947 411.844 544.559 412.245 545.038 412.691C545.526 413.13 545.886 413.63 546.118 414.193C546.358 414.747 546.478 415.375 546.478 416.078C546.478 416.815 546.329 417.48 546.031 418.076C545.733 418.671 545.307 419.18 544.753 419.602C544.199 420.024 543.533 420.351 542.756 420.582C541.986 420.805 541.126 420.917 540.175 420.917C539.34 420.917 538.517 420.801 537.706 420.57C536.904 420.338 536.172 419.991 535.51 419.528C534.857 419.064 534.331 418.494 533.934 417.815C533.546 417.129 533.351 416.335 533.351 415.433H535.733C535.733 416.054 535.853 416.587 536.093 417.034C536.333 417.472 536.66 417.836 537.073 418.126C537.495 418.415 537.971 418.63 538.5 418.771C539.038 418.903 539.596 418.969 540.175 418.969C541.01 418.969 541.718 418.853 542.296 418.622C542.875 418.39 543.314 418.059 543.612 417.629C543.918 417.199 544.071 416.691 544.071 416.103Z" fill="#606060"/>
<path d="M594.019 411.066V412.208C594.019 413.564 593.849 414.78 593.51 415.855C593.171 416.93 592.683 417.844 592.046 418.597C591.409 419.35 590.644 419.925 589.751 420.322C588.866 420.719 587.873 420.917 586.773 420.917C585.706 420.917 584.726 420.719 583.833 420.322C582.948 419.925 582.178 419.35 581.525 418.597C580.88 417.844 580.38 416.93 580.024 415.855C579.668 414.78 579.49 413.564 579.49 412.208V411.066C579.49 409.71 579.664 408.498 580.011 407.431C580.367 406.356 580.868 405.442 581.513 404.689C582.158 403.928 582.923 403.349 583.808 402.952C584.701 402.555 585.681 402.357 586.748 402.357C587.848 402.357 588.841 402.555 589.726 402.952C590.619 403.349 591.384 403.928 592.021 404.689C592.666 405.442 593.158 406.356 593.498 407.431C593.845 408.498 594.019 409.71 594.019 411.066ZM591.649 412.208V411.041C591.649 409.966 591.537 409.015 591.314 408.188C591.099 407.361 590.78 406.666 590.359 406.104C589.937 405.541 589.42 405.115 588.808 404.826C588.204 404.536 587.518 404.391 586.748 404.391C586.004 404.391 585.33 404.536 584.726 404.826C584.13 405.115 583.618 405.541 583.188 406.104C582.766 406.666 582.439 407.361 582.207 408.188C581.976 409.015 581.86 409.966 581.86 411.041V412.208C581.86 413.291 581.976 414.251 582.207 415.086C582.439 415.913 582.77 416.612 583.2 417.183C583.638 417.745 584.155 418.171 584.751 418.461C585.355 418.75 586.029 418.895 586.773 418.895C587.551 418.895 588.241 418.75 588.845 418.461C589.449 418.171 589.957 417.745 590.371 417.183C590.793 416.612 591.111 415.913 591.326 415.086C591.541 414.251 591.649 413.291 591.649 412.208Z" fill="#606060"/>
<path d="M639.109 402.605V420.669H636.703L627.608 406.736V420.669H625.214V402.605H627.608L636.74 416.575V402.605H639.109Z" fill="#606060"/>
<path d="M674.803 420.669H671.031L671.056 418.721H674.803C676.093 418.721 677.168 418.452 678.029 417.915C678.889 417.369 679.534 416.608 679.964 415.632C680.402 414.648 680.622 413.498 680.622 412.183V411.079C680.622 410.045 680.498 409.127 680.249 408.324C680.001 407.514 679.637 406.831 679.158 406.277C678.678 405.715 678.091 405.289 677.396 404.999C676.709 404.71 675.92 404.565 675.026 404.565H670.957V402.605H675.026C676.209 402.605 677.288 402.803 678.264 403.2C679.24 403.589 680.08 404.156 680.783 404.9C681.494 405.636 682.04 406.529 682.421 407.58C682.801 408.622 682.991 409.797 682.991 411.103V412.183C682.991 413.49 682.801 414.668 682.421 415.719C682.04 416.761 681.49 417.65 680.771 418.386C680.059 419.122 679.199 419.689 678.19 420.086C677.189 420.475 676.06 420.669 674.803 420.669ZM672.309 402.605V420.669H669.915V402.605H672.309Z" fill="#606060"/>
</svg>
