<svg width="774" height="517" viewBox="0 0 774 517" fill="none" xmlns="http://www.w3.org/2000/svg">
<line x1="170.966" y1="382.036" x2="170.966" y2="64.5429" stroke="#606060" stroke-width="3.62984"/>
<path d="M177.664 395.063V397.817C177.664 399.298 177.532 400.547 177.267 401.564C177.003 402.581 176.622 403.4 176.126 404.021C175.63 404.641 175.03 405.092 174.327 405.373C173.632 405.646 172.846 405.782 171.97 405.782C171.275 405.782 170.634 405.695 170.047 405.522C169.459 405.348 168.93 405.071 168.459 404.691C167.995 404.302 167.598 403.797 167.268 403.177C166.937 402.557 166.684 401.804 166.511 400.919C166.337 400.034 166.25 399 166.25 397.817V395.063C166.25 393.582 166.383 392.342 166.647 391.341C166.92 390.34 167.305 389.538 167.801 388.934C168.297 388.322 168.893 387.884 169.588 387.619C170.291 387.354 171.076 387.222 171.945 387.222C172.648 387.222 173.293 387.309 173.88 387.482C174.476 387.648 175.005 387.917 175.468 388.289C175.932 388.653 176.324 389.141 176.647 389.753C176.978 390.357 177.23 391.097 177.404 391.974C177.578 392.85 177.664 393.88 177.664 395.063ZM175.357 398.189V394.678C175.357 393.868 175.307 393.156 175.208 392.544C175.117 391.924 174.98 391.395 174.798 390.956C174.616 390.518 174.385 390.162 174.104 389.889C173.831 389.616 173.512 389.418 173.148 389.294C172.793 389.162 172.392 389.095 171.945 389.095C171.399 389.095 170.915 389.199 170.493 389.406C170.071 389.604 169.716 389.922 169.426 390.361C169.145 390.799 168.93 391.374 168.781 392.085C168.632 392.797 168.558 393.661 168.558 394.678V398.189C168.558 399 168.603 399.715 168.694 400.336C168.794 400.956 168.938 401.494 169.129 401.949C169.319 402.395 169.55 402.763 169.823 403.053C170.096 403.342 170.411 403.557 170.766 403.698C171.13 403.83 171.531 403.896 171.97 403.896C172.532 403.896 173.024 403.789 173.446 403.574C173.868 403.359 174.219 403.024 174.501 402.569C174.79 402.106 175.005 401.514 175.146 400.795C175.286 400.067 175.357 399.199 175.357 398.189Z" fill="#606060"/>
<path d="M303.347 406.019V407.905H291.524V406.255L297.442 399.667C298.17 398.857 298.732 398.17 299.129 397.608C299.534 397.037 299.815 396.528 299.973 396.082C300.138 395.627 300.221 395.164 300.221 394.692C300.221 394.097 300.097 393.559 299.849 393.079C299.609 392.591 299.253 392.203 298.782 391.913C298.31 391.624 297.739 391.479 297.069 391.479C296.267 391.479 295.597 391.636 295.06 391.95C294.53 392.256 294.133 392.686 293.869 393.241C293.604 393.795 293.472 394.432 293.472 395.151H291.176C291.176 394.134 291.4 393.203 291.846 392.36C292.293 391.516 292.955 390.846 293.831 390.35C294.708 389.845 295.787 389.593 297.069 389.593C298.211 389.593 299.187 389.796 299.997 390.201C300.808 390.598 301.428 391.16 301.858 391.888C302.297 392.608 302.516 393.451 302.516 394.419C302.516 394.949 302.425 395.486 302.243 396.032C302.069 396.57 301.825 397.107 301.511 397.645C301.205 398.183 300.845 398.712 300.432 399.233C300.026 399.754 299.592 400.267 299.129 400.771L294.29 406.019H303.347ZM308.707 399.307L306.871 398.836L307.776 389.841H317.044V391.963H309.724L309.178 396.876C309.509 396.686 309.927 396.508 310.431 396.342C310.944 396.177 311.532 396.094 312.193 396.094C313.029 396.094 313.777 396.239 314.439 396.528C315.101 396.81 315.663 397.215 316.126 397.744C316.598 398.274 316.957 398.91 317.206 399.655C317.454 400.399 317.578 401.23 317.578 402.149C317.578 403.017 317.458 403.815 317.218 404.543C316.986 405.271 316.635 405.908 316.163 406.454C315.692 406.991 315.096 407.409 314.377 407.707C313.665 408.005 312.826 408.153 311.858 408.153C311.13 408.153 310.44 408.054 309.786 407.856C309.141 407.649 308.562 407.339 308.049 406.925C307.545 406.503 307.131 405.982 306.809 405.362C306.494 404.733 306.296 403.997 306.213 403.154H308.397C308.496 403.832 308.695 404.402 308.992 404.866C309.29 405.329 309.679 405.68 310.159 405.92C310.647 406.152 311.213 406.268 311.858 406.268C312.404 406.268 312.888 406.172 313.31 405.982C313.732 405.792 314.087 405.519 314.377 405.163C314.666 404.808 314.885 404.378 315.034 403.873C315.191 403.369 315.27 402.802 315.27 402.173C315.27 401.603 315.191 401.073 315.034 400.585C314.877 400.097 314.641 399.671 314.327 399.307C314.021 398.944 313.645 398.662 313.198 398.464C312.752 398.257 312.239 398.154 311.66 398.154C310.891 398.154 310.307 398.257 309.91 398.464C309.522 398.671 309.12 398.952 308.707 399.307ZM321.449 389.841H323.769L329.687 404.568L335.592 389.841H337.925L330.58 407.905H328.769L321.449 389.841ZM320.692 389.841H322.739L323.074 400.858V407.905H320.692V389.841ZM336.622 389.841H338.669V407.905H336.287V400.858L336.622 389.841Z" fill="#606060"/>
<path d="M418.526 399.307L416.69 398.836L417.596 389.841H426.864V391.963H419.544L418.998 396.876C419.329 396.686 419.746 396.508 420.251 396.342C420.764 396.177 421.351 396.094 422.013 396.094C422.848 396.094 423.597 396.239 424.258 396.528C424.92 396.81 425.482 397.215 425.946 397.744C426.417 398.274 426.777 398.91 427.025 399.655C427.273 400.399 427.397 401.23 427.397 402.149C427.397 403.017 427.277 403.815 427.037 404.543C426.806 405.271 426.454 405.908 425.983 406.454C425.511 406.991 424.916 407.409 424.196 407.707C423.485 408.005 422.645 408.153 421.678 408.153C420.95 408.153 420.259 408.054 419.606 407.856C418.961 407.649 418.382 407.339 417.869 406.925C417.364 406.503 416.951 405.982 416.628 405.362C416.314 404.733 416.115 403.997 416.033 403.154H418.216C418.316 403.832 418.514 404.402 418.812 404.866C419.11 405.329 419.498 405.68 419.978 405.92C420.466 406.152 421.033 406.268 421.678 406.268C422.224 406.268 422.708 406.172 423.129 405.982C423.551 405.792 423.907 405.519 424.196 405.163C424.486 404.808 424.705 404.378 424.854 403.873C425.011 403.369 425.09 402.802 425.09 402.173C425.09 401.603 425.011 401.073 424.854 400.585C424.697 400.097 424.461 399.671 424.147 399.307C423.841 398.944 423.464 398.662 423.018 398.464C422.571 398.257 422.058 398.154 421.479 398.154C420.71 398.154 420.127 398.257 419.73 398.464C419.341 398.671 418.94 398.952 418.526 399.307ZM441.255 397.434V400.188C441.255 401.669 441.123 402.918 440.858 403.935C440.594 404.952 440.213 405.771 439.717 406.392C439.221 407.012 438.621 407.463 437.918 407.744C437.223 408.017 436.438 408.153 435.561 408.153C434.866 408.153 434.225 408.067 433.638 407.893C433.051 407.719 432.521 407.442 432.05 407.062C431.587 406.673 431.19 406.168 430.859 405.548C430.528 404.928 430.276 404.175 430.102 403.29C429.928 402.405 429.841 401.371 429.841 400.188V397.434C429.841 395.954 429.974 394.713 430.238 393.712C430.511 392.711 430.896 391.909 431.392 391.305C431.888 390.693 432.484 390.255 433.179 389.99C433.882 389.725 434.668 389.593 435.536 389.593C436.239 389.593 436.884 389.68 437.471 389.854C438.067 390.019 438.596 390.288 439.06 390.66C439.523 391.024 439.916 391.512 440.238 392.124C440.569 392.728 440.821 393.468 440.995 394.345C441.169 395.222 441.255 396.251 441.255 397.434ZM438.948 400.561V397.049C438.948 396.239 438.898 395.528 438.799 394.915C438.708 394.295 438.572 393.766 438.39 393.327C438.208 392.889 437.976 392.533 437.695 392.26C437.422 391.988 437.103 391.789 436.739 391.665C436.384 391.533 435.983 391.466 435.536 391.466C434.99 391.466 434.506 391.57 434.084 391.777C433.663 391.975 433.307 392.294 433.017 392.732C432.736 393.17 432.521 393.745 432.372 394.456C432.223 395.168 432.149 396.032 432.149 397.049V400.561C432.149 401.371 432.194 402.087 432.285 402.707C432.385 403.327 432.529 403.865 432.72 404.32C432.91 404.766 433.142 405.134 433.414 405.424C433.687 405.713 434.002 405.928 434.357 406.069C434.721 406.201 435.122 406.268 435.561 406.268C436.123 406.268 436.615 406.16 437.037 405.945C437.459 405.73 437.811 405.395 438.092 404.94C438.381 404.477 438.596 403.886 438.737 403.166C438.878 402.438 438.948 401.57 438.948 400.561ZM445.561 389.841H447.881L453.799 404.568L459.704 389.841H462.037L454.692 407.905H452.881L445.561 389.841ZM444.804 389.841H446.851L447.186 400.858V407.905H444.804V389.841ZM460.734 389.841H462.781V407.905H460.399V400.858L460.734 389.841Z" fill="#606060"/>
<path d="M556.447 389.841V391.131L548.965 407.905H546.546L554.015 391.727H544.239V389.841H556.447ZM561.968 399.307L560.131 398.836L561.037 389.841H570.305V391.963H562.985L562.439 396.876C562.77 396.686 563.188 396.508 563.692 396.342C564.205 396.177 564.792 396.094 565.454 396.094C566.289 396.094 567.038 396.239 567.7 396.528C568.361 396.81 568.924 397.215 569.387 397.744C569.858 398.274 570.218 398.91 570.466 399.655C570.714 400.399 570.838 401.23 570.838 402.149C570.838 403.017 570.718 403.815 570.479 404.543C570.247 405.271 569.896 405.908 569.424 406.454C568.953 406.991 568.357 407.409 567.638 407.707C566.926 408.005 566.087 408.153 565.119 408.153C564.391 408.153 563.7 408.054 563.047 407.856C562.402 407.649 561.823 407.339 561.31 406.925C560.806 406.503 560.392 405.982 560.069 405.362C559.755 404.733 559.557 403.997 559.474 403.154H561.657C561.757 403.832 561.955 404.402 562.253 404.866C562.551 405.329 562.94 405.68 563.419 405.92C563.907 406.152 564.474 406.268 565.119 406.268C565.665 406.268 566.149 406.172 566.571 405.982C566.992 405.792 567.348 405.519 567.638 405.163C567.927 404.808 568.146 404.378 568.295 403.873C568.452 403.369 568.531 402.802 568.531 402.173C568.531 401.603 568.452 401.073 568.295 400.585C568.138 400.097 567.902 399.671 567.588 399.307C567.282 398.944 566.906 398.662 566.459 398.464C566.012 398.257 565.499 398.154 564.92 398.154C564.151 398.154 563.568 398.257 563.171 398.464C562.782 398.671 562.381 398.952 561.968 399.307ZM574.709 389.841H577.029L582.947 404.568L588.853 389.841H591.185L583.841 407.905H582.029L574.709 389.841ZM573.953 389.841H576L576.335 400.858V407.905H573.953V389.841ZM589.883 389.841H591.93V407.905H589.548V400.858L589.883 389.841Z" fill="#606060"/>
<path d="M681.556 389.742V407.905H679.261V392.608L674.633 394.295V392.223L681.196 389.742H681.556ZM699.645 397.434V400.188C699.645 401.669 699.513 402.918 699.248 403.935C698.983 404.952 698.603 405.771 698.107 406.392C697.61 407.012 697.011 407.463 696.308 407.744C695.613 408.017 694.827 408.153 693.95 408.153C693.256 408.153 692.615 408.067 692.027 407.893C691.44 407.719 690.911 407.442 690.439 407.062C689.976 406.673 689.579 406.168 689.248 405.548C688.917 404.928 688.665 404.175 688.491 403.29C688.318 402.405 688.231 401.371 688.231 400.188V397.434C688.231 395.954 688.363 394.713 688.628 393.712C688.901 392.711 689.285 391.909 689.782 391.305C690.278 390.693 690.874 390.255 691.568 389.99C692.271 389.725 693.057 389.593 693.926 389.593C694.629 389.593 695.274 389.68 695.861 389.854C696.457 390.019 696.986 390.288 697.449 390.66C697.912 391.024 698.305 391.512 698.628 392.124C698.959 392.728 699.211 393.468 699.385 394.345C699.558 395.222 699.645 396.251 699.645 397.434ZM697.337 400.561V397.049C697.337 396.239 697.288 395.528 697.189 394.915C697.098 394.295 696.961 393.766 696.779 393.327C696.597 392.889 696.366 392.533 696.084 392.26C695.811 391.988 695.493 391.789 695.129 391.665C694.773 391.533 694.372 391.466 693.926 391.466C693.38 391.466 692.896 391.57 692.474 391.777C692.052 391.975 691.697 392.294 691.407 392.732C691.126 393.17 690.911 393.745 690.762 394.456C690.613 395.168 690.539 396.032 690.539 397.049V400.561C690.539 401.371 690.584 402.087 690.675 402.707C690.774 403.327 690.919 403.865 691.109 404.32C691.299 404.766 691.531 405.134 691.804 405.424C692.077 405.713 692.391 405.928 692.747 406.069C693.111 406.201 693.512 406.268 693.95 406.268C694.513 406.268 695.005 406.16 695.427 405.945C695.849 405.73 696.2 405.395 696.481 404.94C696.771 404.477 696.986 403.886 697.126 403.166C697.267 402.438 697.337 401.57 697.337 400.561ZM713.938 397.434V400.188C713.938 401.669 713.805 402.918 713.541 403.935C713.276 404.952 712.895 405.771 712.399 406.392C711.903 407.012 711.303 407.463 710.6 407.744C709.905 408.017 709.12 408.153 708.243 408.153C707.548 408.153 706.907 408.067 706.32 407.893C705.733 407.719 705.203 407.442 704.732 407.062C704.269 406.673 703.872 406.168 703.541 405.548C703.21 404.928 702.958 404.175 702.784 403.29C702.61 402.405 702.523 401.371 702.523 400.188V397.434C702.523 395.954 702.656 394.713 702.92 393.712C703.193 392.711 703.578 391.909 704.074 391.305C704.57 390.693 705.166 390.255 705.861 389.99C706.564 389.725 707.35 389.593 708.218 389.593C708.921 389.593 709.566 389.68 710.154 389.854C710.749 390.019 711.278 390.288 711.742 390.66C712.205 391.024 712.598 391.512 712.92 392.124C713.251 392.728 713.503 393.468 713.677 394.345C713.851 395.222 713.938 396.251 713.938 397.434ZM711.63 400.561V397.049C711.63 396.239 711.58 395.528 711.481 394.915C711.39 394.295 711.254 393.766 711.072 393.327C710.89 392.889 710.658 392.533 710.377 392.26C710.104 391.988 709.785 391.789 709.422 391.665C709.066 391.533 708.665 391.466 708.218 391.466C707.672 391.466 707.188 391.57 706.766 391.777C706.345 391.975 705.989 392.294 705.7 392.732C705.418 393.17 705.203 393.745 705.054 394.456C704.905 395.168 704.831 396.032 704.831 397.049V400.561C704.831 401.371 704.877 402.087 704.968 402.707C705.067 403.327 705.212 403.865 705.402 404.32C705.592 404.766 705.824 405.134 706.097 405.424C706.369 405.713 706.684 405.928 707.039 406.069C707.403 406.201 707.805 406.268 708.243 406.268C708.805 406.268 709.297 406.16 709.719 405.945C710.141 405.73 710.493 405.395 710.774 404.94C711.063 404.477 711.278 403.886 711.419 403.166C711.56 402.438 711.63 401.57 711.63 400.561ZM718.243 389.841H720.563L726.481 404.568L732.386 389.841H734.719L727.374 407.905H725.563L718.243 389.841ZM717.486 389.841H719.533L719.868 400.858V407.905H717.486V389.841ZM733.416 389.841H735.463V407.905H733.081V400.858L733.416 389.841Z" fill="#606060"/>
<path d="M98.8579 296.607V298.555H89.8259V296.607H98.8579ZM90.2973 280.491V298.555H87.9028V280.491H90.2973ZM100.644 291.992V291.706C100.644 290.738 100.785 289.841 101.066 289.014C101.348 288.179 101.753 287.455 102.282 286.843C102.812 286.222 103.453 285.743 104.205 285.404C104.958 285.056 105.802 284.883 106.736 284.883C107.679 284.883 108.527 285.056 109.28 285.404C110.04 285.743 110.686 286.222 111.215 286.843C111.753 287.455 112.162 288.179 112.443 289.014C112.724 289.841 112.865 290.738 112.865 291.706V291.992C112.865 292.959 112.724 293.857 112.443 294.684C112.162 295.511 111.753 296.235 111.215 296.855C110.686 297.467 110.045 297.947 109.292 298.294C108.548 298.633 107.704 298.803 106.761 298.803C105.818 298.803 104.97 298.633 104.218 298.294C103.465 297.947 102.82 297.467 102.282 296.855C101.753 296.235 101.348 295.511 101.066 294.684C100.785 293.857 100.644 292.959 100.644 291.992ZM102.94 291.706V291.992C102.94 292.662 103.018 293.294 103.175 293.89C103.333 294.477 103.568 294.998 103.883 295.453C104.205 295.908 104.606 296.268 105.086 296.532C105.566 296.789 106.124 296.917 106.761 296.917C107.39 296.917 107.94 296.789 108.411 296.532C108.891 296.268 109.288 295.908 109.602 295.453C109.916 294.998 110.152 294.477 110.309 293.89C110.475 293.294 110.557 292.662 110.557 291.992V291.706C110.557 291.045 110.475 290.42 110.309 289.833C110.152 289.237 109.912 288.712 109.59 288.257C109.275 287.794 108.878 287.43 108.399 287.165C107.927 286.901 107.373 286.768 106.736 286.768C106.108 286.768 105.553 286.901 105.074 287.165C104.602 287.43 104.205 287.794 103.883 288.257C103.568 288.712 103.333 289.237 103.175 289.833C103.018 290.42 102.94 291.045 102.94 291.706ZM115.805 285.131H118.113V300.155C118.113 300.974 117.981 301.669 117.716 302.239C117.46 302.81 117.071 303.24 116.55 303.53C116.037 303.828 115.388 303.976 114.602 303.976C114.395 303.976 114.155 303.956 113.882 303.914C113.601 303.873 113.365 303.823 113.175 303.765L113.188 301.917C113.345 301.95 113.523 301.975 113.721 301.991C113.92 302.016 114.093 302.029 114.242 302.029C114.581 302.029 114.867 301.967 115.098 301.842C115.33 301.718 115.504 301.52 115.619 301.247C115.743 300.974 115.805 300.61 115.805 300.155V285.131ZM115.57 281.57C115.57 281.198 115.686 280.883 115.917 280.627C116.149 280.371 116.484 280.242 116.922 280.242C117.369 280.242 117.708 280.371 117.939 280.627C118.171 280.883 118.287 281.198 118.287 281.57C118.287 281.926 118.171 282.232 117.939 282.488C117.708 282.736 117.369 282.86 116.922 282.86C116.484 282.86 116.149 282.736 115.917 282.488C115.686 282.232 115.57 281.926 115.57 281.57ZM129.738 296.259V289.349C129.738 288.82 129.631 288.361 129.416 287.972C129.209 287.575 128.894 287.269 128.473 287.054C128.051 286.839 127.53 286.731 126.909 286.731C126.33 286.731 125.822 286.83 125.383 287.029C124.953 287.227 124.614 287.488 124.366 287.811C124.126 288.133 124.006 288.48 124.006 288.853H121.711C121.711 288.373 121.835 287.897 122.083 287.426C122.331 286.954 122.687 286.528 123.15 286.148C123.622 285.759 124.184 285.453 124.838 285.23C125.499 284.998 126.235 284.883 127.046 284.883C128.022 284.883 128.882 285.048 129.626 285.379C130.379 285.71 130.966 286.21 131.388 286.88C131.818 287.542 132.033 288.373 132.033 289.374V295.627C132.033 296.073 132.071 296.549 132.145 297.053C132.228 297.558 132.348 297.992 132.505 298.356V298.555H130.11C129.995 298.29 129.904 297.938 129.837 297.5C129.771 297.053 129.738 296.64 129.738 296.259ZM130.135 290.416L130.16 292.029H127.84C127.186 292.029 126.603 292.083 126.091 292.19C125.578 292.289 125.148 292.442 124.8 292.649C124.453 292.856 124.188 293.116 124.006 293.431C123.824 293.737 123.733 294.097 123.733 294.51C123.733 294.932 123.828 295.317 124.019 295.664C124.209 296.011 124.494 296.288 124.875 296.495C125.263 296.694 125.739 296.793 126.301 296.793C127.005 296.793 127.625 296.644 128.162 296.346C128.7 296.049 129.126 295.685 129.44 295.255C129.763 294.824 129.937 294.407 129.961 294.001L130.942 295.106C130.884 295.453 130.727 295.838 130.47 296.259C130.214 296.681 129.87 297.087 129.44 297.475C129.019 297.856 128.514 298.174 127.927 298.431C127.348 298.679 126.694 298.803 125.967 298.803C125.057 298.803 124.259 298.625 123.572 298.269C122.894 297.914 122.364 297.438 121.984 296.843C121.612 296.239 121.426 295.565 121.426 294.82C121.426 294.101 121.566 293.468 121.847 292.922C122.129 292.368 122.534 291.909 123.063 291.545C123.593 291.173 124.23 290.891 124.974 290.701C125.718 290.511 126.55 290.416 127.468 290.416H130.135ZM144.862 280.491V298.555H142.467V280.491H144.862ZM151.785 280.491V298.555H149.39V280.491H151.785ZM158.708 280.491V298.555H156.313V280.491H158.708Z" fill="#606060"/>
<path d="M102.319 197.828V199.775H93.2873V197.828H102.319ZM93.7588 181.711V199.775H91.3643V181.711H93.7588ZM104.106 193.212V192.927C104.106 191.959 104.247 191.062 104.528 190.235C104.809 189.399 105.214 188.676 105.744 188.063C106.273 187.443 106.914 186.963 107.667 186.624C108.419 186.277 109.263 186.103 110.198 186.103C111.141 186.103 111.988 186.277 112.741 186.624C113.502 186.963 114.147 187.443 114.676 188.063C115.214 188.676 115.623 189.399 115.905 190.235C116.186 191.062 116.327 191.959 116.327 192.927V193.212C116.327 194.18 116.186 195.077 115.905 195.905C115.623 196.732 115.214 197.455 114.676 198.076C114.147 198.688 113.506 199.167 112.753 199.515C112.009 199.854 111.165 200.024 110.222 200.024C109.28 200.024 108.432 199.854 107.679 199.515C106.926 199.167 106.281 198.688 105.744 198.076C105.214 197.455 104.809 196.732 104.528 195.905C104.247 195.077 104.106 194.18 104.106 193.212ZM106.401 192.927V193.212C106.401 193.882 106.48 194.515 106.637 195.11C106.794 195.698 107.03 196.219 107.344 196.674C107.667 197.129 108.068 197.488 108.548 197.753C109.027 198.01 109.586 198.138 110.222 198.138C110.851 198.138 111.401 198.01 111.873 197.753C112.352 197.488 112.749 197.129 113.064 196.674C113.378 196.219 113.614 195.698 113.771 195.11C113.936 194.515 114.019 193.882 114.019 193.212V192.927C114.019 192.265 113.936 191.641 113.771 191.053C113.614 190.458 113.374 189.933 113.051 189.478C112.737 189.015 112.34 188.651 111.86 188.386C111.389 188.121 110.835 187.989 110.198 187.989C109.569 187.989 109.015 188.121 108.535 188.386C108.064 188.651 107.667 189.015 107.344 189.478C107.03 189.933 106.794 190.458 106.637 191.053C106.48 191.641 106.401 192.265 106.401 192.927ZM119.267 186.351H121.575V201.376C121.575 202.195 121.442 202.889 121.178 203.46C120.921 204.031 120.532 204.461 120.011 204.75C119.498 205.048 118.849 205.197 118.063 205.197C117.857 205.197 117.617 205.176 117.344 205.135C117.063 205.094 116.827 205.044 116.637 204.986L116.649 203.138C116.806 203.171 116.984 203.195 117.183 203.212C117.381 203.237 117.555 203.249 117.704 203.249C118.043 203.249 118.328 203.187 118.56 203.063C118.791 202.939 118.965 202.741 119.081 202.468C119.205 202.195 119.267 201.831 119.267 201.376V186.351ZM119.031 182.791C119.031 182.418 119.147 182.104 119.379 181.848C119.61 181.591 119.945 181.463 120.384 181.463C120.83 181.463 121.169 181.591 121.401 181.848C121.632 182.104 121.748 182.418 121.748 182.791C121.748 183.146 121.632 183.452 121.401 183.709C121.169 183.957 120.83 184.081 120.384 184.081C119.945 184.081 119.61 183.957 119.379 183.709C119.147 183.452 119.031 183.146 119.031 182.791ZM133.2 197.48V190.57C133.2 190.04 133.092 189.581 132.877 189.192C132.67 188.795 132.356 188.489 131.934 188.274C131.512 188.059 130.991 187.952 130.371 187.952C129.792 187.952 129.283 188.051 128.845 188.25C128.415 188.448 128.076 188.709 127.828 189.031C127.588 189.354 127.468 189.701 127.468 190.073H125.172C125.172 189.594 125.297 189.118 125.545 188.647C125.793 188.175 126.148 187.749 126.612 187.369C127.083 186.98 127.646 186.674 128.299 186.451C128.961 186.219 129.697 186.103 130.507 186.103C131.483 186.103 132.344 186.269 133.088 186.6C133.841 186.93 134.428 187.431 134.85 188.101C135.28 188.762 135.495 189.594 135.495 190.594V196.847C135.495 197.294 135.532 197.77 135.606 198.274C135.689 198.779 135.809 199.213 135.966 199.577V199.775H133.572C133.456 199.511 133.365 199.159 133.299 198.721C133.233 198.274 133.2 197.861 133.2 197.48ZM133.597 191.637L133.621 193.249H131.301C130.648 193.249 130.065 193.303 129.552 193.411C129.039 193.51 128.609 193.663 128.262 193.87C127.914 194.077 127.65 194.337 127.468 194.651C127.286 194.957 127.195 195.317 127.195 195.731C127.195 196.153 127.29 196.537 127.48 196.885C127.67 197.232 127.956 197.509 128.336 197.716C128.725 197.914 129.201 198.014 129.763 198.014C130.466 198.014 131.086 197.865 131.624 197.567C132.162 197.269 132.588 196.905 132.902 196.475C133.224 196.045 133.398 195.627 133.423 195.222L134.403 196.326C134.345 196.674 134.188 197.058 133.932 197.48C133.675 197.902 133.332 198.307 132.902 198.696C132.48 199.076 131.975 199.395 131.388 199.651C130.809 199.899 130.156 200.024 129.428 200.024C128.518 200.024 127.72 199.846 127.033 199.49C126.355 199.134 125.826 198.659 125.445 198.063C125.073 197.459 124.887 196.785 124.887 196.041C124.887 195.321 125.028 194.689 125.309 194.143C125.59 193.589 125.995 193.13 126.525 192.766C127.054 192.393 127.691 192.112 128.435 191.922C129.18 191.732 130.011 191.637 130.929 191.637H133.597ZM148.323 181.711V199.775H145.929V181.711H148.323ZM155.246 181.711V199.775H152.852V181.711H155.246Z" fill="#606060"/>
<path d="M105.781 109.486V111.434H96.7488V109.486H105.781ZM97.2202 93.3695V111.434H94.8258V93.3695H97.2202ZM107.567 104.87V104.585C107.567 103.617 107.708 102.72 107.989 101.893C108.27 101.057 108.676 100.334 109.205 99.7217C109.734 99.1014 110.375 98.6216 111.128 98.2825C111.881 97.9351 112.724 97.7614 113.659 97.7614C114.602 97.7614 115.45 97.9351 116.202 98.2825C116.963 98.6216 117.609 99.1014 118.138 99.7217C118.676 100.334 119.085 101.057 119.366 101.893C119.647 102.72 119.788 103.617 119.788 104.585V104.87C119.788 105.838 119.647 106.736 119.366 107.563C119.085 108.39 118.676 109.114 118.138 109.734C117.609 110.346 116.968 110.826 116.215 111.173C115.47 111.512 114.627 111.682 113.684 111.682C112.741 111.682 111.893 111.512 111.141 111.173C110.388 110.826 109.743 110.346 109.205 109.734C108.676 109.114 108.27 108.39 107.989 107.563C107.708 106.736 107.567 105.838 107.567 104.87ZM109.863 104.585V104.87C109.863 105.54 109.941 106.173 110.098 106.769C110.256 107.356 110.491 107.877 110.806 108.332C111.128 108.787 111.529 109.147 112.009 109.411C112.489 109.668 113.047 109.796 113.684 109.796C114.313 109.796 114.863 109.668 115.334 109.411C115.814 109.147 116.211 108.787 116.525 108.332C116.839 107.877 117.075 107.356 117.232 106.769C117.398 106.173 117.48 105.54 117.48 104.87V104.585C117.48 103.923 117.398 103.299 117.232 102.712C117.075 102.116 116.835 101.591 116.513 101.136C116.198 100.673 115.801 100.309 115.322 100.044C114.85 99.7796 114.296 99.6473 113.659 99.6473C113.03 99.6473 112.476 99.7796 111.997 100.044C111.525 100.309 111.128 100.673 110.806 101.136C110.491 101.591 110.256 102.116 110.098 102.712C109.941 103.299 109.863 103.923 109.863 104.585ZM122.728 98.0096H125.036V113.034C125.036 113.853 124.904 114.548 124.639 115.118C124.383 115.689 123.994 116.119 123.473 116.409C122.96 116.706 122.311 116.855 121.525 116.855C121.318 116.855 121.078 116.835 120.805 116.793C120.524 116.752 120.288 116.702 120.098 116.644L120.111 114.796C120.268 114.829 120.446 114.854 120.644 114.87C120.843 114.895 121.016 114.907 121.165 114.907C121.504 114.907 121.79 114.845 122.021 114.721C122.253 114.597 122.426 114.399 122.542 114.126C122.666 113.853 122.728 113.489 122.728 113.034V98.0096ZM122.493 94.4489C122.493 94.0767 122.608 93.7624 122.84 93.5059C123.072 93.2495 123.407 93.1213 123.845 93.1213C124.292 93.1213 124.631 93.2495 124.862 93.5059C125.094 93.7624 125.21 94.0767 125.21 94.4489C125.21 94.8045 125.094 95.1105 124.862 95.3669C124.631 95.6151 124.292 95.7391 123.845 95.7391C123.407 95.7391 123.072 95.6151 122.84 95.3669C122.608 95.1105 122.493 94.8045 122.493 94.4489ZM136.661 109.138V102.228C136.661 101.698 136.554 101.239 136.338 100.851C136.132 100.454 135.817 100.148 135.396 99.9326C134.974 99.7176 134.453 99.61 133.832 99.61C133.253 99.61 132.745 99.7093 132.306 99.9078C131.876 100.106 131.537 100.367 131.289 100.689C131.049 101.012 130.929 101.359 130.929 101.732H128.634C128.634 101.252 128.758 100.776 129.006 100.305C129.254 99.8334 129.61 99.4074 130.073 99.0269C130.545 98.6382 131.107 98.3321 131.76 98.1088C132.422 97.8772 133.158 97.7614 133.969 97.7614C134.945 97.7614 135.805 97.9269 136.549 98.2577C137.302 98.5885 137.889 99.089 138.311 99.7589C138.741 100.421 138.956 101.252 138.956 102.253V108.506C138.956 108.952 138.994 109.428 139.068 109.932C139.151 110.437 139.271 110.871 139.428 111.235V111.434H137.033C136.917 111.169 136.826 110.817 136.76 110.379C136.694 109.932 136.661 109.519 136.661 109.138ZM137.058 103.295L137.083 104.908H134.763C134.109 104.908 133.526 104.961 133.013 105.069C132.501 105.168 132.071 105.321 131.723 105.528C131.376 105.735 131.111 105.995 130.929 106.31C130.747 106.616 130.656 106.975 130.656 107.389C130.656 107.811 130.751 108.195 130.942 108.543C131.132 108.89 131.417 109.167 131.798 109.374C132.186 109.573 132.662 109.672 133.224 109.672C133.927 109.672 134.548 109.523 135.085 109.225C135.623 108.927 136.049 108.564 136.363 108.133C136.686 107.703 136.86 107.286 136.884 106.88L137.865 107.985C137.807 108.332 137.649 108.717 137.393 109.138C137.137 109.56 136.793 109.965 136.363 110.354C135.941 110.735 135.437 111.053 134.85 111.31C134.271 111.558 133.617 111.682 132.889 111.682C131.98 111.682 131.181 111.504 130.495 111.148C129.817 110.793 129.287 110.317 128.907 109.721C128.535 109.118 128.349 108.444 128.349 107.699C128.349 106.98 128.489 106.347 128.77 105.801C129.052 105.247 129.457 104.788 129.986 104.424C130.516 104.052 131.152 103.77 131.897 103.58C132.641 103.39 133.473 103.295 134.391 103.295H137.058ZM151.785 93.3695V111.434H149.39V93.3695H151.785Z" fill="#606060"/>
<path d="M62.1814 212.082H65.9141V223.774H62.1814V212.082ZM42.6888 222.227H65.9141V227.012H42.6888V222.227ZM57.4598 210.359H57.1248C55.8593 210.359 54.6949 210.178 53.6315 209.817C52.5574 209.455 51.6269 208.929 50.84 208.237C50.053 207.546 49.4415 206.695 49.0055 205.685C48.5589 204.675 48.3356 203.516 48.3356 202.208C48.3356 200.9 48.5589 199.735 49.0055 198.714C49.4415 197.693 50.053 196.837 50.84 196.146C51.6269 195.444 52.5574 194.913 53.6315 194.551C54.6949 194.189 55.8593 194.009 57.1248 194.009H57.4598C58.7146 194.009 59.8791 194.189 60.9532 194.551C62.0166 194.913 62.9471 195.444 63.7447 196.146C64.5316 196.837 65.1431 197.688 65.5791 198.698C66.0151 199.709 66.2331 200.868 66.2331 202.176C66.2331 203.484 66.0151 204.648 65.5791 205.669C65.1431 206.679 64.5316 207.535 63.7447 208.237C62.9471 208.929 62.0166 209.455 60.9532 209.817C59.8791 210.178 58.7146 210.359 57.4598 210.359ZM57.1248 205.765H57.4598C58.1829 205.765 58.8582 205.701 59.4856 205.573C60.1131 205.446 60.666 205.244 61.1446 204.967C61.6125 204.68 61.9794 204.308 62.2452 203.851C62.5111 203.393 62.644 202.835 62.644 202.176C62.644 201.538 62.5111 200.99 62.2452 200.533C61.9794 200.076 61.6125 199.709 61.1446 199.432C60.666 199.156 60.1131 198.954 59.4856 198.826C58.8582 198.688 58.1829 198.619 57.4598 198.619H57.1248C56.423 198.619 55.7636 198.688 55.1468 198.826C54.5194 198.954 53.9664 199.161 53.4879 199.448C52.9987 199.725 52.6159 200.091 52.3394 200.549C52.0629 201.006 51.9246 201.559 51.9246 202.208C51.9246 202.856 52.0629 203.409 52.3394 203.867C52.6159 204.313 52.9987 204.68 53.4879 204.967C53.9664 205.244 54.5194 205.446 55.1468 205.573C55.7636 205.701 56.423 205.765 57.1248 205.765ZM48.6546 190.93V186.32H66.9509C68.227 186.32 69.3064 186.554 70.189 187.022C71.0717 187.49 71.7417 188.165 72.1989 189.048C72.6562 189.93 72.8848 190.999 72.8848 192.254C72.8848 192.647 72.8636 193.03 72.821 193.403C72.7785 193.785 72.7094 194.179 72.6137 194.583L69.0884 194.567C69.1309 194.312 69.1628 194.062 69.1841 193.817C69.216 193.583 69.232 193.344 69.232 193.099C69.232 192.621 69.1522 192.222 68.9927 191.903C68.8332 191.584 68.5833 191.345 68.243 191.185C67.9133 191.015 67.4826 190.93 66.9509 190.93H48.6546ZM44.1563 191.297C43.4863 191.297 42.9334 191.063 42.4973 190.595C42.0613 190.117 41.8433 189.489 41.8433 188.713C41.8433 187.926 42.0613 187.298 42.4973 186.831C42.9334 186.363 43.4863 186.129 44.1563 186.129C44.8263 186.129 45.3792 186.363 45.8152 186.831C46.2513 187.298 46.4693 187.926 46.4693 188.713C46.4693 189.489 46.2513 190.117 45.8152 190.595C45.3792 191.063 44.8263 191.297 44.1563 191.297ZM62.0219 173.352H54.3333C53.7803 173.352 53.3071 173.442 52.9136 173.623C52.5095 173.804 52.1958 174.085 51.9725 174.468C51.7492 174.84 51.6375 175.324 51.6375 175.92C51.6375 176.43 51.7279 176.871 51.9087 177.244C52.0788 177.616 52.3288 177.903 52.6584 178.105C52.9774 178.307 53.355 178.408 53.791 178.408V183.002C53.0572 183.002 52.3607 182.832 51.7013 182.492C51.042 182.151 50.4624 181.657 49.9626 181.008C49.4522 180.36 49.0534 179.589 48.7663 178.695C48.4791 177.791 48.3356 176.781 48.3356 175.665C48.3356 174.325 48.5589 173.134 49.0055 172.091C49.4522 171.049 50.1221 170.23 51.0154 169.635C51.9087 169.029 53.0253 168.726 54.3652 168.726H61.7507C62.6972 168.726 63.4735 168.667 64.0796 168.55C64.6752 168.433 65.1962 168.263 65.6429 168.04H65.9141V172.682C65.4462 172.905 64.8613 173.075 64.1594 173.192C63.4469 173.298 62.7344 173.352 62.0219 173.352ZM55.4021 172.745L58.0021 172.713V175.282C58.0021 175.888 58.0713 176.414 58.2095 176.861C58.3478 177.308 58.5445 177.674 58.7997 177.962C59.0443 178.249 59.3314 178.461 59.6611 178.6C59.9908 178.727 60.3523 178.791 60.7458 178.791C61.1393 178.791 61.4955 178.701 61.8145 178.52C62.1229 178.339 62.3675 178.078 62.5483 177.738C62.7185 177.398 62.8035 176.999 62.8035 176.542C62.8035 175.851 62.6653 175.25 62.3888 174.739C62.1123 174.229 61.772 173.835 61.3679 173.559C60.9638 173.272 60.581 173.123 60.2194 173.112L62.1655 171.9C62.6015 172.07 63.0534 172.304 63.5213 172.602C63.9893 172.889 64.4306 173.256 64.8453 173.702C65.2494 174.149 65.5844 174.686 65.8503 175.314C66.1055 175.941 66.2331 176.685 66.2331 177.547C66.2331 178.642 66.0151 179.636 65.5791 180.53C65.1324 181.412 64.521 182.114 63.7447 182.635C62.9577 183.146 62.0644 183.401 61.0648 183.401C60.1609 183.401 59.358 183.231 58.6562 182.891C57.9543 182.55 57.3641 182.05 56.8855 181.391C56.3964 180.721 56.0295 179.886 55.7849 178.887C55.5297 177.887 55.4021 176.728 55.4021 175.409V172.745ZM61.1446 155.853C60.8149 155.853 60.5172 155.949 60.2513 156.14C59.9854 156.331 59.7409 156.688 59.5175 157.209C59.2836 157.719 59.0709 158.458 58.8795 159.426C58.6881 160.298 58.4488 161.111 58.1617 161.867C57.8639 162.611 57.5077 163.26 57.0929 163.813C56.6782 164.355 56.189 164.78 55.6254 165.089C55.0511 165.397 54.3971 165.551 53.6634 165.551C52.9402 165.551 52.2596 165.397 51.6216 165.089C50.9835 164.77 50.4199 164.318 49.9307 163.733C49.4309 163.137 49.0428 162.414 48.7663 161.563C48.4791 160.702 48.3356 159.734 48.3356 158.66C48.3356 157.161 48.5748 155.874 49.0534 154.8C49.5319 153.715 50.1913 152.886 51.0314 152.312C51.8608 151.727 52.8073 151.434 53.8707 151.434V156.028C53.4241 156.028 53.0253 156.124 52.6744 156.315C52.3128 156.496 52.031 156.783 51.8289 157.177C51.6163 157.56 51.5099 158.059 51.5099 158.676C51.5099 159.187 51.6003 159.628 51.7811 160C51.9512 160.372 52.1852 160.66 52.4829 160.862C52.7701 161.053 53.0891 161.149 53.44 161.149C53.7059 161.149 53.9452 161.096 54.1579 160.989C54.3599 160.872 54.546 160.686 54.7162 160.431C54.8863 160.176 55.0458 159.846 55.1947 159.442C55.3329 159.027 55.4606 158.517 55.5775 157.911C55.8328 156.666 56.1677 155.555 56.5825 154.577C56.9866 153.598 57.5396 152.822 58.2414 152.248C58.9326 151.674 59.8419 151.386 60.9691 151.386C61.7348 151.386 62.4366 151.557 63.0747 151.897C63.7128 152.237 64.2711 152.726 64.7496 153.364C65.2175 154.002 65.5844 154.768 65.8503 155.661C66.1055 156.544 66.2331 157.538 66.2331 158.644C66.2331 160.25 65.946 161.611 65.3717 162.728C64.7975 163.834 64.069 164.674 63.1864 165.248C62.2931 165.812 61.3785 166.094 60.4427 166.094V161.739C61.0701 161.718 61.5753 161.558 61.9581 161.26C62.3409 160.952 62.6174 160.564 62.7876 160.096C62.9577 159.617 63.0428 159.102 63.0428 158.549C63.0428 157.953 62.963 157.459 62.8035 157.065C62.6334 156.672 62.4101 156.374 62.1336 156.172C61.8464 155.959 61.5168 155.853 61.1446 155.853Z" fill="#606060"/>
<path d="M408.472 454.903L413.943 436.527H419.271L411.184 459.752H407.674L408.472 454.903ZM403.431 436.527L408.887 454.903L409.716 459.752H406.175L398.135 436.527H403.431ZM428.395 460.071C427.055 460.071 425.854 459.858 424.79 459.433C423.727 458.997 422.823 458.396 422.078 457.63C421.345 456.865 420.781 455.977 420.388 454.967C419.994 453.946 419.797 452.861 419.797 451.712V451.074C419.797 449.766 419.983 448.57 420.356 447.485C420.728 446.401 421.26 445.459 421.951 444.662C422.653 443.864 423.503 443.253 424.503 442.827C425.503 442.391 426.63 442.173 427.885 442.173C429.108 442.173 430.192 442.376 431.139 442.78C432.085 443.184 432.878 443.758 433.516 444.502C434.164 445.247 434.653 446.14 434.983 447.182C435.313 448.214 435.478 449.362 435.478 450.628V452.542H421.759V449.479H430.963V449.128C430.963 448.49 430.846 447.921 430.612 447.421C430.389 446.911 430.049 446.507 429.592 446.209C429.134 445.911 428.549 445.763 427.837 445.763C427.231 445.763 426.71 445.895 426.274 446.161C425.838 446.427 425.481 446.799 425.205 447.278C424.939 447.756 424.737 448.32 424.599 448.969C424.471 449.607 424.407 450.309 424.407 451.074V451.712C424.407 452.404 424.503 453.042 424.694 453.627C424.896 454.211 425.178 454.717 425.54 455.142C425.912 455.567 426.359 455.897 426.88 456.131C427.411 456.365 428.012 456.482 428.682 456.482C429.512 456.482 430.283 456.322 430.995 456.003C431.718 455.674 432.34 455.179 432.862 454.52L435.095 456.944C434.733 457.466 434.239 457.965 433.611 458.444C432.994 458.922 432.25 459.316 431.378 459.624C430.506 459.922 429.512 460.071 428.395 460.071ZM442.592 446.177V459.752H437.998V442.492H442.305L442.592 446.177ZM441.922 450.516H440.678C440.678 449.24 440.843 448.091 441.172 447.071C441.502 446.039 441.965 445.162 442.56 444.439C443.156 443.705 443.863 443.147 444.682 442.764C445.511 442.37 446.436 442.173 447.457 442.173C448.265 442.173 449.004 442.29 449.674 442.524C450.344 442.758 450.919 443.131 451.397 443.641C451.886 444.151 452.259 444.827 452.514 445.667C452.78 446.507 452.913 447.533 452.913 448.745V459.752H448.287V448.73C448.287 447.964 448.18 447.368 447.968 446.943C447.755 446.518 447.441 446.22 447.026 446.05C446.622 445.869 446.123 445.778 445.527 445.778C444.91 445.778 444.373 445.901 443.916 446.145C443.469 446.39 443.097 446.73 442.799 447.166C442.512 447.592 442.294 448.091 442.145 448.666C441.996 449.24 441.922 449.857 441.922 450.516ZM466.599 455.987V435.251H471.225V459.752H467.061L466.599 455.987ZM455.688 451.33V450.995C455.688 449.676 455.837 448.48 456.135 447.406C456.432 446.321 456.868 445.39 457.443 444.614C458.017 443.838 458.724 443.237 459.564 442.812C460.404 442.386 461.361 442.173 462.436 442.173C463.446 442.173 464.328 442.386 465.083 442.812C465.849 443.237 466.498 443.843 467.03 444.63C467.572 445.406 468.008 446.326 468.338 447.39C468.667 448.442 468.906 449.596 469.055 450.851V451.585C468.906 452.786 468.667 453.903 468.338 454.935C468.008 455.966 467.572 456.87 467.03 457.646C466.498 458.412 465.849 459.008 465.083 459.433C464.318 459.858 463.425 460.071 462.404 460.071C461.33 460.071 460.372 459.853 459.532 459.417C458.703 458.981 458.001 458.369 457.427 457.583C456.863 456.796 456.432 455.87 456.135 454.807C455.837 453.744 455.688 452.584 455.688 451.33ZM460.282 450.995V451.33C460.282 452.042 460.335 452.707 460.442 453.324C460.559 453.94 460.745 454.488 461 454.967C461.266 455.434 461.606 455.801 462.021 456.067C462.446 456.322 462.962 456.45 463.568 456.45C464.355 456.45 465.004 456.275 465.514 455.924C466.025 455.562 466.413 455.068 466.679 454.44C466.955 453.813 467.115 453.09 467.157 452.271V450.181C467.125 449.511 467.03 448.91 466.87 448.379C466.721 447.836 466.498 447.374 466.2 446.991C465.913 446.608 465.551 446.31 465.115 446.098C464.69 445.885 464.185 445.778 463.6 445.778C463.004 445.778 462.494 445.917 462.069 446.193C461.643 446.459 461.298 446.826 461.032 447.294C460.777 447.762 460.585 448.315 460.458 448.953C460.341 449.58 460.282 450.261 460.282 450.995ZM484.129 455.86V448.171C484.129 447.618 484.039 447.145 483.858 446.752C483.678 446.347 483.396 446.034 483.013 445.81C482.641 445.587 482.157 445.475 481.561 445.475C481.051 445.475 480.61 445.566 480.237 445.747C479.865 445.917 479.578 446.167 479.376 446.496C479.174 446.815 479.073 447.193 479.073 447.629H474.479C474.479 446.895 474.649 446.199 474.989 445.539C475.33 444.88 475.824 444.3 476.473 443.801C477.121 443.29 477.892 442.891 478.786 442.604C479.69 442.317 480.7 442.173 481.817 442.173C483.156 442.173 484.347 442.397 485.39 442.843C486.432 443.29 487.251 443.96 487.846 444.853C488.452 445.747 488.755 446.863 488.755 448.203V455.589C488.755 456.535 488.814 457.311 488.931 457.918C489.048 458.513 489.218 459.034 489.441 459.481V459.752H484.799C484.576 459.284 484.406 458.699 484.289 457.997C484.183 457.285 484.129 456.572 484.129 455.86ZM484.736 449.24L484.768 451.84H482.199C481.593 451.84 481.067 451.909 480.62 452.047C480.174 452.186 479.807 452.382 479.52 452.638C479.232 452.882 479.02 453.169 478.881 453.499C478.754 453.829 478.69 454.19 478.69 454.584C478.69 454.977 478.78 455.333 478.961 455.652C479.142 455.961 479.403 456.205 479.743 456.386C480.083 456.556 480.482 456.641 480.939 456.641C481.63 456.641 482.231 456.503 482.742 456.227C483.252 455.95 483.646 455.61 483.922 455.206C484.209 454.802 484.358 454.419 484.369 454.057L485.581 456.003C485.411 456.439 485.177 456.891 484.879 457.359C484.592 457.827 484.225 458.268 483.779 458.683C483.332 459.087 482.795 459.422 482.167 459.688C481.54 459.943 480.796 460.071 479.934 460.071C478.839 460.071 477.845 459.853 476.951 459.417C476.069 458.97 475.367 458.359 474.846 457.583C474.335 456.796 474.08 455.902 474.08 454.903C474.08 453.999 474.25 453.196 474.591 452.494C474.931 451.792 475.431 451.202 476.09 450.723C476.76 450.234 477.595 449.867 478.594 449.623C479.594 449.368 480.753 449.24 482.072 449.24H484.736ZM501.628 454.982C501.628 454.653 501.533 454.355 501.341 454.089C501.15 453.823 500.793 453.579 500.272 453.355C499.762 453.121 499.023 452.909 498.055 452.717C497.183 452.526 496.37 452.287 495.615 452C494.87 451.702 494.221 451.346 493.668 450.931C493.126 450.516 492.701 450.027 492.392 449.463C492.084 448.889 491.93 448.235 491.93 447.501C491.93 446.778 492.084 446.098 492.392 445.459C492.711 444.821 493.163 444.258 493.748 443.769C494.344 443.269 495.067 442.881 495.918 442.604C496.779 442.317 497.747 442.173 498.821 442.173C500.32 442.173 501.607 442.413 502.681 442.891C503.766 443.37 504.595 444.029 505.169 444.869C505.754 445.699 506.047 446.645 506.047 447.709H501.453C501.453 447.262 501.357 446.863 501.166 446.512C500.985 446.151 500.698 445.869 500.304 445.667C499.921 445.454 499.422 445.348 498.805 445.348C498.294 445.348 497.853 445.438 497.481 445.619C497.109 445.789 496.822 446.023 496.619 446.321C496.428 446.608 496.332 446.927 496.332 447.278C496.332 447.544 496.386 447.783 496.492 447.996C496.609 448.198 496.795 448.384 497.05 448.554C497.305 448.724 497.635 448.884 498.039 449.033C498.454 449.171 498.964 449.298 499.57 449.415C500.815 449.671 501.926 450.006 502.904 450.42C503.883 450.824 504.659 451.377 505.233 452.079C505.807 452.771 506.095 453.68 506.095 454.807C506.095 455.573 505.924 456.275 505.584 456.913C505.244 457.551 504.755 458.109 504.117 458.587C503.479 459.055 502.713 459.422 501.82 459.688C500.937 459.943 499.943 460.071 498.837 460.071C497.231 460.071 495.87 459.784 494.753 459.21C493.647 458.635 492.807 457.907 492.233 457.024C491.669 456.131 491.387 455.216 491.387 454.281H495.742C495.763 454.908 495.923 455.413 496.221 455.796C496.529 456.179 496.917 456.455 497.385 456.625C497.864 456.796 498.379 456.881 498.932 456.881C499.528 456.881 500.022 456.801 500.416 456.641C500.809 456.471 501.107 456.248 501.309 455.971C501.522 455.684 501.628 455.355 501.628 454.982Z" fill="#606060"/>
<line x1="304.043" y1="386.619" x2="304.043" y2="67.9234" stroke="#CACACA" stroke-width="3.62984"/>
<line x1="435.24" y1="386.619" x2="435.24" y2="67.9234" stroke="#CACACA" stroke-width="3.62984"/>
<line x1="566.439" y1="386.619" x2="566.439" y2="67.9234" stroke="#CACACA" stroke-width="3.62984"/>
<line x1="697.64" y1="386.619" x2="697.64" y2="67.9234" stroke="#CACACA" stroke-width="3.62984"/>
<line x1="205.642" y1="382.366" x2="205.642" y2="366.032" stroke="#CACACA" stroke-width="3.62984"/>
<line x1="238.439" y1="382.366" x2="238.439" y2="366.032" stroke="#CACACA" stroke-width="3.62984"/>
<line x1="271.248" y1="382.366" x2="271.248" y2="366.032" stroke="#CACACA" stroke-width="3.62984"/>
<line x1="336.845" y1="381.239" x2="336.845" y2="364.905" stroke="#CACACA" stroke-width="3.62984"/>
<line x1="369.64" y1="381.239" x2="369.64" y2="364.905" stroke="#CACACA" stroke-width="3.62984"/>
<line x1="402.441" y1="381.239" x2="402.441" y2="364.905" stroke="#CACACA" stroke-width="3.62984"/>
<line x1="468.039" y1="382.366" x2="468.039" y2="366.032" stroke="#CACACA" stroke-width="3.62984"/>
<line x1="500.837" y1="382.366" x2="500.837" y2="366.032" stroke="#CACACA" stroke-width="3.62984"/>
<line x1="533.642" y1="382.366" x2="533.642" y2="366.032" stroke="#CACACA" stroke-width="3.62984"/>
<line x1="599.238" y1="382.366" x2="599.238" y2="366.032" stroke="#CACACA" stroke-width="3.62984"/>
<line x1="632.037" y1="382.366" x2="632.037" y2="366.032" stroke="#CACACA" stroke-width="3.62984"/>
<line x1="664.835" y1="382.366" x2="664.835" y2="366.032" stroke="#CACACA" stroke-width="3.62984"/>
<rect x="171.93" y="79.3633" width="415.684" height="45.3666" fill="#0567FF"/>
<rect x="171.93" y="164.821" width="467.381" height="45.3666" fill="#0567FF"/>
<rect x="171.93" y="261.885" width="293.3" height="45.3666" fill="#0567FF"/>
<rect x="1.90281" y="1.87937" width="769.375" height="513.049" stroke="#0567FF" stroke-width="3.62984"/>
</svg>
