<svg width="785" height="517" viewBox="0 0 785 517" fill="none" xmlns="http://www.w3.org/2000/svg">
<line x1="171.855" y1="382.038" x2="171.855" y2="64.5449" stroke="#606060" stroke-width="3.62984"/>
<path d="M178.553 395.066V397.82C178.553 399.301 178.421 400.55 178.156 401.567C177.891 402.584 177.511 403.403 177.015 404.023C176.518 404.644 175.919 405.095 175.216 405.376C174.521 405.649 173.735 405.785 172.858 405.785C172.164 405.785 171.523 405.698 170.935 405.525C170.348 405.351 169.819 405.074 169.347 404.693C168.884 404.305 168.487 403.8 168.156 403.18C167.825 402.56 167.573 401.807 167.399 400.922C167.226 400.037 167.139 399.003 167.139 397.82V395.066C167.139 393.585 167.271 392.345 167.536 391.344C167.809 390.343 168.193 389.541 168.69 388.937C169.186 388.325 169.781 387.887 170.476 387.622C171.179 387.357 171.965 387.225 172.834 387.225C173.537 387.225 174.182 387.312 174.769 387.485C175.365 387.651 175.894 387.92 176.357 388.292C176.82 388.656 177.213 389.144 177.536 389.756C177.867 390.36 178.119 391.1 178.292 391.977C178.466 392.853 178.553 393.883 178.553 395.066ZM176.245 398.192V394.681C176.245 393.871 176.196 393.159 176.096 392.547C176.006 391.927 175.869 391.398 175.687 390.959C175.505 390.521 175.274 390.165 174.992 389.892C174.719 389.619 174.401 389.421 174.037 389.297C173.681 389.164 173.28 389.098 172.834 389.098C172.288 389.098 171.804 389.202 171.382 389.408C170.96 389.607 170.604 389.925 170.315 390.364C170.034 390.802 169.819 391.377 169.67 392.088C169.521 392.8 169.447 393.664 169.447 394.681V398.192C169.447 399.003 169.492 399.718 169.583 400.339C169.682 400.959 169.827 401.497 170.017 401.952C170.207 402.398 170.439 402.766 170.712 403.056C170.985 403.345 171.299 403.56 171.655 403.701C172.019 403.833 172.42 403.899 172.858 403.899C173.421 403.899 173.913 403.792 174.335 403.577C174.757 403.362 175.108 403.027 175.389 402.572C175.679 402.109 175.894 401.517 176.034 400.798C176.175 400.07 176.245 399.201 176.245 398.192Z" fill="#606060"/>
<path d="M234.965 406.02V407.906H223.142V406.256L229.06 399.668C229.788 398.858 230.35 398.171 230.747 397.609C231.152 397.038 231.434 396.529 231.591 396.083C231.756 395.628 231.839 395.165 231.839 394.693C231.839 394.098 231.715 393.56 231.467 393.08C231.227 392.592 230.871 392.204 230.4 391.914C229.928 391.625 229.357 391.48 228.687 391.48C227.885 391.48 227.215 391.637 226.678 391.951C226.148 392.257 225.751 392.687 225.487 393.242C225.222 393.796 225.09 394.433 225.09 395.152H222.794C222.794 394.135 223.018 393.204 223.464 392.361C223.911 391.517 224.573 390.847 225.449 390.351C226.326 389.846 227.405 389.594 228.687 389.594C229.829 389.594 230.805 389.797 231.615 390.202C232.426 390.599 233.046 391.161 233.476 391.889C233.915 392.609 234.134 393.452 234.134 394.42C234.134 394.95 234.043 395.487 233.861 396.033C233.687 396.571 233.443 397.108 233.129 397.646C232.823 398.184 232.463 398.713 232.05 399.234C231.644 399.755 231.21 400.268 230.747 400.772L225.908 406.02H234.965ZM240.325 399.308L238.489 398.837L239.394 389.842H248.662V391.964H241.342L240.796 396.877C241.127 396.686 241.545 396.509 242.049 396.343C242.562 396.178 243.15 396.095 243.811 396.095C244.647 396.095 245.395 396.24 246.057 396.529C246.719 396.811 247.281 397.216 247.744 397.745C248.216 398.275 248.575 398.911 248.824 399.656C249.072 400.4 249.196 401.231 249.196 402.15C249.196 403.018 249.076 403.816 248.836 404.544C248.604 405.272 248.253 405.909 247.781 406.455C247.31 406.992 246.714 407.41 245.995 407.708C245.283 408.006 244.444 408.154 243.476 408.154C242.748 408.154 242.058 408.055 241.404 407.857C240.759 407.65 240.18 407.34 239.667 406.926C239.163 406.504 238.749 405.983 238.427 405.363C238.112 404.734 237.914 403.998 237.831 403.154H240.015C240.114 403.833 240.313 404.403 240.61 404.867C240.908 405.33 241.297 405.681 241.777 405.921C242.265 406.153 242.831 406.269 243.476 406.269C244.022 406.269 244.506 406.173 244.928 405.983C245.35 405.793 245.705 405.52 245.995 405.164C246.284 404.809 246.503 404.379 246.652 403.874C246.81 403.37 246.888 402.803 246.888 402.174C246.888 401.604 246.81 401.074 246.652 400.586C246.495 400.098 246.259 399.672 245.945 399.308C245.639 398.944 245.263 398.663 244.816 398.465C244.37 398.258 243.857 398.155 243.278 398.155C242.509 398.155 241.925 398.258 241.528 398.465C241.14 398.672 240.739 398.953 240.325 399.308ZM252 406.69C252 406.302 252.12 405.975 252.359 405.71C252.608 405.437 252.963 405.301 253.426 405.301C253.89 405.301 254.241 405.437 254.481 405.71C254.729 405.975 254.853 406.302 254.853 406.69C254.853 407.071 254.729 407.393 254.481 407.658C254.241 407.923 253.89 408.055 253.426 408.055C252.963 408.055 252.608 407.923 252.359 407.658C252.12 407.393 252 407.071 252 406.69ZM269.754 397.435V400.189C269.754 401.67 269.621 402.919 269.357 403.936C269.092 404.953 268.711 405.772 268.215 406.393C267.719 407.013 267.119 407.464 266.416 407.745C265.721 408.018 264.936 408.154 264.059 408.154C263.364 408.154 262.723 408.068 262.136 407.894C261.549 407.72 261.019 407.443 260.548 407.063C260.085 406.674 259.688 406.169 259.357 405.549C259.026 404.929 258.774 404.176 258.6 403.291C258.426 402.406 258.339 401.372 258.339 400.189V397.435C258.339 395.954 258.472 394.714 258.736 393.713C259.009 392.712 259.394 391.91 259.89 391.306C260.387 390.694 260.982 390.256 261.677 389.991C262.38 389.726 263.166 389.594 264.034 389.594C264.737 389.594 265.382 389.681 265.97 389.855C266.565 390.02 267.094 390.289 267.558 390.661C268.021 391.025 268.414 391.513 268.736 392.125C269.067 392.729 269.319 393.469 269.493 394.346C269.667 395.222 269.754 396.252 269.754 397.435ZM267.446 400.561V397.05C267.446 396.24 267.396 395.529 267.297 394.916C267.206 394.296 267.07 393.767 266.888 393.328C266.706 392.89 266.474 392.534 266.193 392.261C265.92 391.988 265.601 391.79 265.238 391.666C264.882 391.534 264.481 391.467 264.034 391.467C263.488 391.467 263.004 391.571 262.583 391.778C262.161 391.976 261.805 392.295 261.516 392.733C261.234 393.171 261.019 393.746 260.87 394.457C260.722 395.169 260.647 396.033 260.647 397.05V400.561C260.647 401.372 260.693 402.088 260.784 402.708C260.883 403.328 261.028 403.866 261.218 404.321C261.408 404.767 261.64 405.135 261.913 405.425C262.186 405.714 262.5 405.929 262.855 406.07C263.219 406.202 263.621 406.269 264.059 406.269C264.621 406.269 265.113 406.161 265.535 405.946C265.957 405.731 266.309 405.396 266.59 404.941C266.879 404.478 267.094 403.886 267.235 403.167C267.376 402.439 267.446 401.571 267.446 400.561ZM284.046 397.435V400.189C284.046 401.67 283.914 402.919 283.649 403.936C283.384 404.953 283.004 405.772 282.508 406.393C282.011 407.013 281.412 407.464 280.709 407.745C280.014 408.018 279.228 408.154 278.351 408.154C277.657 408.154 277.016 408.068 276.428 407.894C275.841 407.72 275.312 407.443 274.84 407.063C274.377 406.674 273.98 406.169 273.649 405.549C273.318 404.929 273.066 404.176 272.892 403.291C272.719 402.406 272.632 401.372 272.632 400.189V397.435C272.632 395.954 272.764 394.714 273.029 393.713C273.302 392.712 273.687 391.91 274.183 391.306C274.679 390.694 275.275 390.256 275.969 389.991C276.672 389.726 277.458 389.594 278.327 389.594C279.03 389.594 279.675 389.681 280.262 389.855C280.858 390.02 281.387 390.289 281.85 390.661C282.313 391.025 282.706 391.513 283.029 392.125C283.36 392.729 283.612 393.469 283.786 394.346C283.959 395.222 284.046 396.252 284.046 397.435ZM281.738 400.561V397.05C281.738 396.24 281.689 395.529 281.59 394.916C281.499 394.296 281.362 393.767 281.18 393.328C280.998 392.89 280.767 392.534 280.485 392.261C280.212 391.988 279.894 391.79 279.53 391.666C279.174 391.534 278.773 391.467 278.327 391.467C277.781 391.467 277.297 391.571 276.875 391.778C276.453 391.976 276.098 392.295 275.808 392.733C275.527 393.171 275.312 393.746 275.163 394.457C275.014 395.169 274.94 396.033 274.94 397.05V400.561C274.94 401.372 274.985 402.088 275.076 402.708C275.175 403.328 275.32 403.866 275.51 404.321C275.701 404.767 275.932 405.135 276.205 405.425C276.478 405.714 276.792 405.929 277.148 406.07C277.512 406.202 277.913 406.269 278.351 406.269C278.914 406.269 279.406 406.161 279.828 405.946C280.25 405.731 280.601 405.396 280.882 404.941C281.172 404.478 281.387 403.886 281.528 403.167C281.668 402.439 281.738 401.571 281.738 400.561ZM298.339 397.435V400.189C298.339 401.67 298.206 402.919 297.942 403.936C297.677 404.953 297.296 405.772 296.8 406.393C296.304 407.013 295.704 407.464 295.001 407.745C294.306 408.018 293.521 408.154 292.644 408.154C291.949 408.154 291.308 408.068 290.721 407.894C290.134 407.72 289.604 407.443 289.133 407.063C288.67 406.674 288.273 406.169 287.942 405.549C287.611 404.929 287.359 404.176 287.185 403.291C287.011 402.406 286.924 401.372 286.924 400.189V397.435C286.924 395.954 287.057 394.714 287.321 393.713C287.594 392.712 287.979 391.91 288.475 391.306C288.972 390.694 289.567 390.256 290.262 389.991C290.965 389.726 291.751 389.594 292.619 389.594C293.322 389.594 293.967 389.681 294.555 389.855C295.15 390.02 295.679 390.289 296.143 390.661C296.606 391.025 296.999 391.513 297.321 392.125C297.652 392.729 297.904 393.469 298.078 394.346C298.252 395.222 298.339 396.252 298.339 397.435ZM296.031 400.561V397.05C296.031 396.24 295.981 395.529 295.882 394.916C295.791 394.296 295.655 393.767 295.473 393.328C295.291 392.89 295.059 392.534 294.778 392.261C294.505 391.988 294.186 391.79 293.823 391.666C293.467 391.534 293.066 391.467 292.619 391.467C292.073 391.467 291.589 391.571 291.168 391.778C290.746 391.976 290.39 392.295 290.101 392.733C289.819 393.171 289.604 393.746 289.455 394.457C289.307 395.169 289.232 396.033 289.232 397.05V400.561C289.232 401.372 289.278 402.088 289.369 402.708C289.468 403.328 289.613 403.866 289.803 404.321C289.993 404.767 290.225 405.135 290.498 405.425C290.771 405.714 291.085 405.929 291.44 406.07C291.804 406.202 292.206 406.269 292.644 406.269C293.206 406.269 293.698 406.161 294.12 405.946C294.542 405.731 294.894 405.396 295.175 404.941C295.464 404.478 295.679 403.886 295.82 403.167C295.961 402.439 296.031 401.571 296.031 400.561ZM301.577 406.69C301.577 406.302 301.697 405.975 301.937 405.71C302.185 405.437 302.54 405.301 303.003 405.301C303.467 405.301 303.818 405.437 304.058 405.71C304.306 405.975 304.43 406.302 304.43 406.69C304.43 407.071 304.306 407.393 304.058 407.658C303.818 407.923 303.467 408.055 303.003 408.055C302.54 408.055 302.185 407.923 301.937 407.658C301.697 407.393 301.577 407.071 301.577 406.69ZM319.331 397.435V400.189C319.331 401.67 319.198 402.919 318.934 403.936C318.669 404.953 318.289 405.772 317.792 406.393C317.296 407.013 316.696 407.464 315.993 407.745C315.299 408.018 314.513 408.154 313.636 408.154C312.941 408.154 312.3 408.068 311.713 407.894C311.126 407.72 310.596 407.443 310.125 407.063C309.662 406.674 309.265 406.169 308.934 405.549C308.603 404.929 308.351 404.176 308.177 403.291C308.003 402.406 307.917 401.372 307.917 400.189V397.435C307.917 395.954 308.049 394.714 308.314 393.713C308.586 392.712 308.971 391.91 309.467 391.306C309.964 390.694 310.559 390.256 311.254 389.991C311.957 389.726 312.743 389.594 313.611 389.594C314.314 389.594 314.959 389.681 315.547 389.855C316.142 390.02 316.672 390.289 317.135 390.661C317.598 391.025 317.991 391.513 318.313 392.125C318.644 392.729 318.896 393.469 319.07 394.346C319.244 395.222 319.331 396.252 319.331 397.435ZM317.023 400.561V397.05C317.023 396.24 316.973 395.529 316.874 394.916C316.783 394.296 316.647 393.767 316.465 393.328C316.283 392.89 316.051 392.534 315.77 392.261C315.497 391.988 315.179 391.79 314.815 391.666C314.459 391.534 314.058 391.467 313.611 391.467C313.065 391.467 312.581 391.571 312.16 391.778C311.738 391.976 311.382 392.295 311.093 392.733C310.811 393.171 310.596 393.746 310.447 394.457C310.299 395.169 310.224 396.033 310.224 397.05V400.561C310.224 401.372 310.27 402.088 310.361 402.708C310.46 403.328 310.605 403.866 310.795 404.321C310.985 404.767 311.217 405.135 311.49 405.425C311.763 405.714 312.077 405.929 312.433 406.07C312.796 406.202 313.198 406.269 313.636 406.269C314.198 406.269 314.691 406.161 315.112 405.946C315.534 405.731 315.886 405.396 316.167 404.941C316.456 404.478 316.672 403.886 316.812 403.167C316.953 402.439 317.023 401.571 317.023 400.561ZM333.623 397.435V400.189C333.623 401.67 333.491 402.919 333.226 403.936C332.961 404.953 332.581 405.772 332.085 406.393C331.588 407.013 330.989 407.464 330.286 407.745C329.591 408.018 328.805 408.154 327.929 408.154C327.234 408.154 326.593 408.068 326.005 407.894C325.418 407.72 324.889 407.443 324.417 407.063C323.954 406.674 323.557 406.169 323.226 405.549C322.896 404.929 322.643 404.176 322.47 403.291C322.296 402.406 322.209 401.372 322.209 400.189V397.435C322.209 395.954 322.341 394.714 322.606 393.713C322.879 392.712 323.264 391.91 323.76 391.306C324.256 390.694 324.852 390.256 325.546 389.991C326.249 389.726 327.035 389.594 327.904 389.594C328.607 389.594 329.252 389.681 329.839 389.855C330.435 390.02 330.964 390.289 331.427 390.661C331.89 391.025 332.283 391.513 332.606 392.125C332.937 392.729 333.189 393.469 333.363 394.346C333.536 395.222 333.623 396.252 333.623 397.435ZM331.316 400.561V397.05C331.316 396.24 331.266 395.529 331.167 394.916C331.076 394.296 330.939 393.767 330.757 393.328C330.575 392.89 330.344 392.534 330.062 392.261C329.79 391.988 329.471 391.79 329.107 391.666C328.751 391.534 328.35 391.467 327.904 391.467C327.358 391.467 326.874 391.571 326.452 391.778C326.03 391.976 325.675 392.295 325.385 392.733C325.104 393.171 324.889 393.746 324.74 394.457C324.591 395.169 324.517 396.033 324.517 397.05V400.561C324.517 401.372 324.562 402.088 324.653 402.708C324.752 403.328 324.897 403.866 325.087 404.321C325.278 404.767 325.509 405.135 325.782 405.425C326.055 405.714 326.369 405.929 326.725 406.07C327.089 406.202 327.49 406.269 327.929 406.269C328.491 406.269 328.983 406.161 329.405 405.946C329.827 405.731 330.178 405.396 330.459 404.941C330.749 404.478 330.964 403.886 331.105 403.167C331.245 402.439 331.316 401.571 331.316 400.561ZM347.916 397.435V400.189C347.916 401.67 347.783 402.919 347.519 403.936C347.254 404.953 346.873 405.772 346.377 406.393C345.881 407.013 345.281 407.464 344.578 407.745C343.883 408.018 343.098 408.154 342.221 408.154C341.526 408.154 340.885 408.068 340.298 407.894C339.711 407.72 339.181 407.443 338.71 407.063C338.247 406.674 337.85 406.169 337.519 405.549C337.188 404.929 336.936 404.176 336.762 403.291C336.588 402.406 336.502 401.372 336.502 400.189V397.435C336.502 395.954 336.634 394.714 336.899 393.713C337.171 392.712 337.556 391.91 338.052 391.306C338.549 390.694 339.144 390.256 339.839 389.991C340.542 389.726 341.328 389.594 342.196 389.594C342.899 389.594 343.544 389.681 344.132 389.855C344.727 390.02 345.256 390.289 345.72 390.661C346.183 391.025 346.576 391.513 346.898 392.125C347.229 392.729 347.481 393.469 347.655 394.346C347.829 395.222 347.916 396.252 347.916 397.435ZM345.608 400.561V397.05C345.608 396.24 345.558 395.529 345.459 394.916C345.368 394.296 345.232 393.767 345.05 393.328C344.868 392.89 344.636 392.534 344.355 392.261C344.082 391.988 343.764 391.79 343.4 391.666C343.044 391.534 342.643 391.467 342.196 391.467C341.65 391.467 341.166 391.571 340.745 391.778C340.323 391.976 339.967 392.295 339.678 392.733C339.396 393.171 339.181 393.746 339.032 394.457C338.884 395.169 338.809 396.033 338.809 397.05V400.561C338.809 401.372 338.855 402.088 338.946 402.708C339.045 403.328 339.19 403.866 339.38 404.321C339.57 404.767 339.802 405.135 340.075 405.425C340.348 405.714 340.662 405.929 341.018 406.07C341.381 406.202 341.783 406.269 342.221 406.269C342.783 406.269 343.276 406.161 343.697 405.946C344.119 405.731 344.471 405.396 344.752 404.941C345.041 404.478 345.256 403.886 345.397 403.167C345.538 402.439 345.608 401.571 345.608 400.561Z" fill="#606060"/>
<path d="M360.903 399.308L359.067 398.837L359.973 389.842H369.241V391.964H361.921L361.375 396.877C361.706 396.686 362.123 396.509 362.628 396.343C363.141 396.178 363.728 396.095 364.39 396.095C365.225 396.095 365.974 396.24 366.635 396.529C367.297 396.811 367.859 397.216 368.323 397.745C368.794 398.275 369.154 398.911 369.402 399.656C369.65 400.4 369.774 401.231 369.774 402.15C369.774 403.018 369.654 403.816 369.414 404.544C369.183 405.272 368.831 405.909 368.36 406.455C367.888 406.992 367.293 407.41 366.573 407.708C365.862 408.006 365.022 408.154 364.055 408.154C363.327 408.154 362.636 408.055 361.983 407.857C361.338 407.65 360.759 407.34 360.246 406.926C359.741 406.504 359.328 405.983 359.005 405.363C358.691 404.734 358.492 403.998 358.41 403.154H360.593C360.692 403.833 360.891 404.403 361.189 404.867C361.486 405.33 361.875 405.681 362.355 405.921C362.843 406.153 363.409 406.269 364.055 406.269C364.601 406.269 365.084 406.173 365.506 405.983C365.928 405.793 366.284 405.52 366.573 405.164C366.863 404.809 367.082 404.379 367.231 403.874C367.388 403.37 367.466 402.803 367.466 402.174C367.466 401.604 367.388 401.074 367.231 400.586C367.074 400.098 366.838 399.672 366.524 399.308C366.218 398.944 365.841 398.663 365.395 398.465C364.948 398.258 364.435 398.155 363.856 398.155C363.087 398.155 362.504 398.258 362.107 398.465C361.718 398.672 361.317 398.953 360.903 399.308ZM383.632 397.435V400.189C383.632 401.67 383.5 402.919 383.235 403.936C382.971 404.953 382.59 405.772 382.094 406.393C381.598 407.013 380.998 407.464 380.295 407.745C379.6 408.018 378.814 408.154 377.938 408.154C377.243 408.154 376.602 408.068 376.015 407.894C375.427 407.72 374.898 407.443 374.427 407.063C373.963 406.674 373.566 406.169 373.236 405.549C372.905 404.929 372.652 404.176 372.479 403.291C372.305 402.406 372.218 401.372 372.218 400.189V397.435C372.218 395.954 372.351 394.714 372.615 393.713C372.888 392.712 373.273 391.91 373.769 391.306C374.265 390.694 374.861 390.256 375.556 389.991C376.259 389.726 377.044 389.594 377.913 389.594C378.616 389.594 379.261 389.681 379.848 389.855C380.444 390.02 380.973 390.289 381.436 390.661C381.9 391.025 382.292 391.513 382.615 392.125C382.946 392.729 383.198 393.469 383.372 394.346C383.546 395.222 383.632 396.252 383.632 397.435ZM381.325 400.561V397.05C381.325 396.24 381.275 395.529 381.176 394.916C381.085 394.296 380.948 393.767 380.766 393.328C380.584 392.89 380.353 392.534 380.072 392.261C379.799 391.988 379.48 391.79 379.116 391.666C378.761 391.534 378.36 391.467 377.913 391.467C377.367 391.467 376.883 391.571 376.461 391.778C376.039 391.976 375.684 392.295 375.394 392.733C375.113 393.171 374.898 393.746 374.749 394.457C374.6 395.169 374.526 396.033 374.526 397.05V400.561C374.526 401.372 374.571 402.088 374.662 402.708C374.762 403.328 374.906 403.866 375.097 404.321C375.287 404.767 375.518 405.135 375.791 405.425C376.064 405.714 376.379 405.929 376.734 406.07C377.098 406.202 377.499 406.269 377.938 406.269C378.5 406.269 378.992 406.161 379.414 405.946C379.836 405.731 380.187 405.396 380.469 404.941C380.758 404.478 380.973 403.886 381.114 403.167C381.254 402.439 381.325 401.571 381.325 400.561ZM386.871 406.69C386.871 406.302 386.99 405.975 387.23 405.71C387.478 405.437 387.834 405.301 388.297 405.301C388.76 405.301 389.112 405.437 389.352 405.71C389.6 405.975 389.724 406.302 389.724 406.69C389.724 407.071 389.6 407.393 389.352 407.658C389.112 407.923 388.76 408.055 388.297 408.055C387.834 408.055 387.478 407.923 387.23 407.658C386.99 407.393 386.871 407.071 386.871 406.69ZM404.624 397.435V400.189C404.624 401.67 404.492 402.919 404.227 403.936C403.963 404.953 403.582 405.772 403.086 406.393C402.59 407.013 401.99 407.464 401.287 407.745C400.592 408.018 399.807 408.154 398.93 408.154C398.235 408.154 397.594 408.068 397.007 407.894C396.42 407.72 395.89 407.443 395.419 407.063C394.956 406.674 394.559 406.169 394.228 405.549C393.897 404.929 393.645 404.176 393.471 403.291C393.297 402.406 393.21 401.372 393.21 400.189V397.435C393.21 395.954 393.343 394.714 393.607 393.713C393.88 392.712 394.265 391.91 394.761 391.306C395.257 390.694 395.853 390.256 396.548 389.991C397.251 389.726 398.037 389.594 398.905 389.594C399.608 389.594 400.253 389.681 400.84 389.855C401.436 390.02 401.965 390.289 402.428 390.661C402.892 391.025 403.285 391.513 403.607 392.125C403.938 392.729 404.19 393.469 404.364 394.346C404.538 395.222 404.624 396.252 404.624 397.435ZM402.317 400.561V397.05C402.317 396.24 402.267 395.529 402.168 394.916C402.077 394.296 401.94 393.767 401.759 393.328C401.577 392.89 401.345 392.534 401.064 392.261C400.791 391.988 400.472 391.79 400.108 391.666C399.753 391.534 399.352 391.467 398.905 391.467C398.359 391.467 397.875 391.571 397.453 391.778C397.032 391.976 396.676 392.295 396.386 392.733C396.105 393.171 395.89 393.746 395.741 394.457C395.592 395.169 395.518 396.033 395.518 397.05V400.561C395.518 401.372 395.563 402.088 395.654 402.708C395.754 403.328 395.898 403.866 396.089 404.321C396.279 404.767 396.511 405.135 396.783 405.425C397.056 405.714 397.371 405.929 397.726 406.07C398.09 406.202 398.491 406.269 398.93 406.269C399.492 406.269 399.984 406.161 400.406 405.946C400.828 405.731 401.18 405.396 401.461 404.941C401.75 404.478 401.965 403.886 402.106 403.167C402.247 402.439 402.317 401.571 402.317 400.561ZM418.917 397.435V400.189C418.917 401.67 418.785 402.919 418.52 403.936C418.255 404.953 417.875 405.772 417.379 406.393C416.882 407.013 416.283 407.464 415.58 407.745C414.885 408.018 414.099 408.154 413.222 408.154C412.528 408.154 411.887 408.068 411.299 407.894C410.712 407.72 410.183 407.443 409.711 407.063C409.248 406.674 408.851 406.169 408.52 405.549C408.189 404.929 407.937 404.176 407.763 403.291C407.59 402.406 407.503 401.372 407.503 400.189V397.435C407.503 395.954 407.635 394.714 407.9 393.713C408.173 392.712 408.557 391.91 409.054 391.306C409.55 390.694 410.145 390.256 410.84 389.991C411.543 389.726 412.329 389.594 413.197 389.594C413.901 389.594 414.546 389.681 415.133 389.855C415.728 390.02 416.258 390.289 416.721 390.661C417.184 391.025 417.577 391.513 417.9 392.125C418.23 392.729 418.483 393.469 418.656 394.346C418.83 395.222 418.917 396.252 418.917 397.435ZM416.609 400.561V397.05C416.609 396.24 416.56 395.529 416.46 394.916C416.369 394.296 416.233 393.767 416.051 393.328C415.869 392.89 415.637 392.534 415.356 392.261C415.083 391.988 414.765 391.79 414.401 391.666C414.045 391.534 413.644 391.467 413.197 391.467C412.652 391.467 412.168 391.571 411.746 391.778C411.324 391.976 410.968 392.295 410.679 392.733C410.398 393.171 410.183 393.746 410.034 394.457C409.885 395.169 409.81 396.033 409.81 397.05V400.561C409.81 401.372 409.856 402.088 409.947 402.708C410.046 403.328 410.191 403.866 410.381 404.321C410.571 404.767 410.803 405.135 411.076 405.425C411.349 405.714 411.663 405.929 412.019 406.07C412.383 406.202 412.784 406.269 413.222 406.269C413.785 406.269 414.277 406.161 414.699 405.946C415.121 405.731 415.472 405.396 415.753 404.941C416.043 404.478 416.258 403.886 416.398 403.167C416.539 402.439 416.609 401.571 416.609 400.561ZM433.209 397.435V400.189C433.209 401.67 433.077 402.919 432.812 403.936C432.548 404.953 432.167 405.772 431.671 406.393C431.175 407.013 430.575 407.464 429.872 407.745C429.177 408.018 428.392 408.154 427.515 408.154C426.82 408.154 426.179 408.068 425.592 407.894C425.004 407.72 424.475 407.443 424.004 407.063C423.541 406.674 423.143 406.169 422.813 405.549C422.482 404.929 422.23 404.176 422.056 403.291C421.882 402.406 421.795 401.372 421.795 400.189V397.435C421.795 395.954 421.928 394.714 422.192 393.713C422.465 392.712 422.85 391.91 423.346 391.306C423.842 390.694 424.438 390.256 425.133 389.991C425.836 389.726 426.622 389.594 427.49 389.594C428.193 389.594 428.838 389.681 429.425 389.855C430.021 390.02 430.55 390.289 431.013 390.661C431.477 391.025 431.87 391.513 432.192 392.125C432.523 392.729 432.775 393.469 432.949 394.346C433.123 395.222 433.209 396.252 433.209 397.435ZM430.902 400.561V397.05C430.902 396.24 430.852 395.529 430.753 394.916C430.662 394.296 430.525 393.767 430.344 393.328C430.162 392.89 429.93 392.534 429.649 392.261C429.376 391.988 429.057 391.79 428.693 391.666C428.338 391.534 427.937 391.467 427.49 391.467C426.944 391.467 426.46 391.571 426.038 391.778C425.617 391.976 425.261 392.295 424.971 392.733C424.69 393.171 424.475 393.746 424.326 394.457C424.177 395.169 424.103 396.033 424.103 397.05V400.561C424.103 401.372 424.148 402.088 424.239 402.708C424.339 403.328 424.483 403.866 424.674 404.321C424.864 404.767 425.095 405.135 425.368 405.425C425.641 405.714 425.956 405.929 426.311 406.07C426.675 406.202 427.076 406.269 427.515 406.269C428.077 406.269 428.569 406.161 428.991 405.946C429.413 405.731 429.765 405.396 430.046 404.941C430.335 404.478 430.55 403.886 430.691 403.167C430.832 402.439 430.902 401.571 430.902 400.561ZM436.448 406.69C436.448 406.302 436.568 405.975 436.807 405.71C437.056 405.437 437.411 405.301 437.874 405.301C438.338 405.301 438.689 405.437 438.929 405.71C439.177 405.975 439.301 406.302 439.301 406.69C439.301 407.071 439.177 407.393 438.929 407.658C438.689 407.923 438.338 408.055 437.874 408.055C437.411 408.055 437.056 407.923 436.807 407.658C436.568 407.393 436.448 407.071 436.448 406.69ZM454.202 397.435V400.189C454.202 401.67 454.069 402.919 453.805 403.936C453.54 404.953 453.159 405.772 452.663 406.393C452.167 407.013 451.567 407.464 450.864 407.745C450.169 408.018 449.384 408.154 448.507 408.154C447.812 408.154 447.171 408.068 446.584 407.894C445.997 407.72 445.467 407.443 444.996 407.063C444.533 406.674 444.136 406.169 443.805 405.549C443.474 404.929 443.222 404.176 443.048 403.291C442.874 402.406 442.787 401.372 442.787 400.189V397.435C442.787 395.954 442.92 394.714 443.184 393.713C443.457 392.712 443.842 391.91 444.338 391.306C444.835 390.694 445.43 390.256 446.125 389.991C446.828 389.726 447.614 389.594 448.482 389.594C449.185 389.594 449.83 389.681 450.418 389.855C451.013 390.02 451.542 390.289 452.006 390.661C452.469 391.025 452.862 391.513 453.184 392.125C453.515 392.729 453.767 393.469 453.941 394.346C454.115 395.222 454.202 396.252 454.202 397.435ZM451.894 400.561V397.05C451.894 396.24 451.844 395.529 451.745 394.916C451.654 394.296 451.518 393.767 451.336 393.328C451.154 392.89 450.922 392.534 450.641 392.261C450.368 391.988 450.049 391.79 449.686 391.666C449.33 391.534 448.929 391.467 448.482 391.467C447.936 391.467 447.452 391.571 447.03 391.778C446.609 391.976 446.253 392.295 445.964 392.733C445.682 393.171 445.467 393.746 445.318 394.457C445.169 395.169 445.095 396.033 445.095 397.05V400.561C445.095 401.372 445.141 402.088 445.232 402.708C445.331 403.328 445.476 403.866 445.666 404.321C445.856 404.767 446.088 405.135 446.361 405.425C446.633 405.714 446.948 405.929 447.303 406.07C447.667 406.202 448.069 406.269 448.507 406.269C449.069 406.269 449.561 406.161 449.983 405.946C450.405 405.731 450.757 405.396 451.038 404.941C451.327 404.478 451.542 403.886 451.683 403.167C451.824 402.439 451.894 401.571 451.894 400.561ZM468.494 397.435V400.189C468.494 401.67 468.362 402.919 468.097 403.936C467.832 404.953 467.452 405.772 466.956 406.393C466.459 407.013 465.86 407.464 465.157 407.745C464.462 408.018 463.676 408.154 462.799 408.154C462.105 408.154 461.464 408.068 460.876 407.894C460.289 407.72 459.76 407.443 459.288 407.063C458.825 406.674 458.428 406.169 458.097 405.549C457.766 404.929 457.514 404.176 457.34 403.291C457.167 402.406 457.08 401.372 457.08 400.189V397.435C457.08 395.954 457.212 394.714 457.477 393.713C457.75 392.712 458.134 391.91 458.631 391.306C459.127 390.694 459.723 390.256 460.417 389.991C461.12 389.726 461.906 389.594 462.775 389.594C463.478 389.594 464.123 389.681 464.71 389.855C465.306 390.02 465.835 390.289 466.298 390.661C466.761 391.025 467.154 391.513 467.477 392.125C467.808 392.729 468.06 393.469 468.233 394.346C468.407 395.222 468.494 396.252 468.494 397.435ZM466.186 400.561V397.05C466.186 396.24 466.137 395.529 466.038 394.916C465.947 394.296 465.81 393.767 465.628 393.328C465.446 392.89 465.215 392.534 464.933 392.261C464.66 391.988 464.342 391.79 463.978 391.666C463.622 391.534 463.221 391.467 462.775 391.467C462.229 391.467 461.745 391.571 461.323 391.778C460.901 391.976 460.545 392.295 460.256 392.733C459.975 393.171 459.76 393.746 459.611 394.457C459.462 395.169 459.388 396.033 459.388 397.05V400.561C459.388 401.372 459.433 402.088 459.524 402.708C459.623 403.328 459.768 403.866 459.958 404.321C460.148 404.767 460.38 405.135 460.653 405.425C460.926 405.714 461.24 405.929 461.596 406.07C461.96 406.202 462.361 406.269 462.799 406.269C463.362 406.269 463.854 406.161 464.276 405.946C464.698 405.731 465.049 405.396 465.33 404.941C465.62 404.478 465.835 403.886 465.975 403.167C466.116 402.439 466.186 401.571 466.186 400.561ZM482.787 397.435V400.189C482.787 401.67 482.654 402.919 482.39 403.936C482.125 404.953 481.744 405.772 481.248 406.393C480.752 407.013 480.152 407.464 479.449 407.745C478.754 408.018 477.969 408.154 477.092 408.154C476.397 408.154 475.756 408.068 475.169 407.894C474.582 407.72 474.052 407.443 473.581 407.063C473.118 406.674 472.721 406.169 472.39 405.549C472.059 404.929 471.807 404.176 471.633 403.291C471.459 402.406 471.372 401.372 471.372 400.189V397.435C471.372 395.954 471.505 394.714 471.769 393.713C472.042 392.712 472.427 391.91 472.923 391.306C473.419 390.694 474.015 390.256 474.71 389.991C475.413 389.726 476.199 389.594 477.067 389.594C477.77 389.594 478.415 389.681 479.002 389.855C479.598 390.02 480.127 390.289 480.591 390.661C481.054 391.025 481.447 391.513 481.769 392.125C482.1 392.729 482.352 393.469 482.526 394.346C482.7 395.222 482.787 396.252 482.787 397.435ZM480.479 400.561V397.05C480.479 396.24 480.429 395.529 480.33 394.916C480.239 394.296 480.103 393.767 479.921 393.328C479.739 392.89 479.507 392.534 479.226 392.261C478.953 391.988 478.634 391.79 478.27 391.666C477.915 391.534 477.514 391.467 477.067 391.467C476.521 391.467 476.037 391.571 475.615 391.778C475.194 391.976 474.838 392.295 474.548 392.733C474.267 393.171 474.052 393.746 473.903 394.457C473.754 395.169 473.68 396.033 473.68 397.05V400.561C473.68 401.372 473.726 402.088 473.817 402.708C473.916 403.328 474.06 403.866 474.251 404.321C474.441 404.767 474.673 405.135 474.946 405.425C475.218 405.714 475.533 405.929 475.888 406.07C476.252 406.202 476.653 406.269 477.092 406.269C477.654 406.269 478.146 406.161 478.568 405.946C478.99 405.731 479.342 405.396 479.623 404.941C479.912 404.478 480.127 403.886 480.268 403.167C480.409 402.439 480.479 401.571 480.479 400.561Z" fill="#606060"/>
<path d="M514.278 389.842V391.132L506.797 407.906H504.377L511.846 391.728H502.07V389.842H514.278ZM519.799 399.308L517.963 398.837L518.868 389.842H528.136V391.964H520.816L520.27 396.877C520.601 396.686 521.019 396.509 521.523 396.343C522.036 396.178 522.623 396.095 523.285 396.095C524.121 396.095 524.869 396.24 525.531 396.529C526.192 396.811 526.755 397.216 527.218 397.745C527.69 398.275 528.049 398.911 528.297 399.656C528.546 400.4 528.67 401.231 528.67 402.15C528.67 403.018 528.55 403.816 528.31 404.544C528.078 405.272 527.727 405.909 527.255 406.455C526.784 406.992 526.188 407.41 525.469 407.708C524.757 408.006 523.918 408.154 522.95 408.154C522.222 408.154 521.532 408.055 520.878 407.857C520.233 407.65 519.654 407.34 519.141 406.926C518.637 406.504 518.223 405.983 517.901 405.363C517.586 404.734 517.388 403.998 517.305 403.154H519.489C519.588 403.833 519.787 404.403 520.084 404.867C520.382 405.33 520.771 405.681 521.25 405.921C521.738 406.153 522.305 406.269 522.95 406.269C523.496 406.269 523.98 406.173 524.402 405.983C524.824 405.793 525.179 405.52 525.469 405.164C525.758 404.809 525.977 404.379 526.126 403.874C526.283 403.37 526.362 402.803 526.362 402.174C526.362 401.604 526.283 401.074 526.126 400.586C525.969 400.098 525.733 399.672 525.419 399.308C525.113 398.944 524.737 398.663 524.29 398.465C523.843 398.258 523.331 398.155 522.752 398.155C521.982 398.155 521.399 398.258 521.002 398.465C520.614 398.672 520.212 398.953 519.799 399.308ZM531.474 406.69C531.474 406.302 531.594 405.975 531.833 405.71C532.082 405.437 532.437 405.301 532.9 405.301C533.364 405.301 533.715 405.437 533.955 405.71C534.203 405.975 534.327 406.302 534.327 406.69C534.327 407.071 534.203 407.393 533.955 407.658C533.715 407.923 533.364 408.055 532.9 408.055C532.437 408.055 532.082 407.923 531.833 407.658C531.594 407.393 531.474 407.071 531.474 406.69ZM549.228 397.435V400.189C549.228 401.67 549.095 402.919 548.831 403.936C548.566 404.953 548.185 405.772 547.689 406.393C547.193 407.013 546.593 407.464 545.89 407.745C545.195 408.018 544.41 408.154 543.533 408.154C542.838 408.154 542.197 408.068 541.61 407.894C541.023 407.72 540.493 407.443 540.022 407.063C539.559 406.674 539.162 406.169 538.831 405.549C538.5 404.929 538.248 404.176 538.074 403.291C537.9 402.406 537.813 401.372 537.813 400.189V397.435C537.813 395.954 537.946 394.714 538.21 393.713C538.483 392.712 538.868 391.91 539.364 391.306C539.861 390.694 540.456 390.256 541.151 389.991C541.854 389.726 542.64 389.594 543.508 389.594C544.211 389.594 544.856 389.681 545.444 389.855C546.039 390.02 546.568 390.289 547.032 390.661C547.495 391.025 547.888 391.513 548.21 392.125C548.541 392.729 548.793 393.469 548.967 394.346C549.141 395.222 549.228 396.252 549.228 397.435ZM546.92 400.561V397.05C546.92 396.24 546.87 395.529 546.771 394.916C546.68 394.296 546.544 393.767 546.362 393.328C546.18 392.89 545.948 392.534 545.667 392.261C545.394 391.988 545.075 391.79 544.712 391.666C544.356 391.534 543.955 391.467 543.508 391.467C542.962 391.467 542.478 391.571 542.056 391.778C541.635 391.976 541.279 392.295 540.99 392.733C540.708 393.171 540.493 393.746 540.344 394.457C540.195 395.169 540.121 396.033 540.121 397.05V400.561C540.121 401.372 540.167 402.088 540.258 402.708C540.357 403.328 540.502 403.866 540.692 404.321C540.882 404.767 541.114 405.135 541.387 405.425C541.659 405.714 541.974 405.929 542.329 406.07C542.693 406.202 543.095 406.269 543.533 406.269C544.095 406.269 544.587 406.161 545.009 405.946C545.431 405.731 545.783 405.396 546.064 404.941C546.353 404.478 546.568 403.886 546.709 403.167C546.85 402.439 546.92 401.571 546.92 400.561ZM563.52 397.435V400.189C563.52 401.67 563.388 402.919 563.123 403.936C562.858 404.953 562.478 405.772 561.982 406.393C561.485 407.013 560.886 407.464 560.183 407.745C559.488 408.018 558.702 408.154 557.825 408.154C557.131 408.154 556.49 408.068 555.902 407.894C555.315 407.72 554.786 407.443 554.314 407.063C553.851 406.674 553.454 406.169 553.123 405.549C552.792 404.929 552.54 404.176 552.366 403.291C552.193 402.406 552.106 401.372 552.106 400.189V397.435C552.106 395.954 552.238 394.714 552.503 393.713C552.776 392.712 553.16 391.91 553.657 391.306C554.153 390.694 554.749 390.256 555.443 389.991C556.146 389.726 556.932 389.594 557.801 389.594C558.504 389.594 559.149 389.681 559.736 389.855C560.332 390.02 560.861 390.289 561.324 390.661C561.787 391.025 562.18 391.513 562.503 392.125C562.834 392.729 563.086 393.469 563.26 394.346C563.433 395.222 563.52 396.252 563.52 397.435ZM561.212 400.561V397.05C561.212 396.24 561.163 395.529 561.064 394.916C560.973 394.296 560.836 393.767 560.654 393.328C560.472 392.89 560.241 392.534 559.959 392.261C559.686 391.988 559.368 391.79 559.004 391.666C558.648 391.534 558.247 391.467 557.801 391.467C557.255 391.467 556.771 391.571 556.349 391.778C555.927 391.976 555.571 392.295 555.282 392.733C555.001 393.171 554.786 393.746 554.637 394.457C554.488 395.169 554.414 396.033 554.414 397.05V400.561C554.414 401.372 554.459 402.088 554.55 402.708C554.649 403.328 554.794 403.866 554.984 404.321C555.174 404.767 555.406 405.135 555.679 405.425C555.952 405.714 556.266 405.929 556.622 406.07C556.986 406.202 557.387 406.269 557.825 406.269C558.388 406.269 558.88 406.161 559.302 405.946C559.724 405.731 560.075 405.396 560.356 404.941C560.646 404.478 560.861 403.886 561.001 403.167C561.142 402.439 561.212 401.571 561.212 400.561ZM577.813 397.435V400.189C577.813 401.67 577.68 402.919 577.416 403.936C577.151 404.953 576.77 405.772 576.274 406.393C575.778 407.013 575.178 407.464 574.475 407.745C573.78 408.018 572.995 408.154 572.118 408.154C571.423 408.154 570.782 408.068 570.195 407.894C569.608 407.72 569.078 407.443 568.607 407.063C568.144 406.674 567.747 406.169 567.416 405.549C567.085 404.929 566.833 404.176 566.659 403.291C566.485 402.406 566.398 401.372 566.398 400.189V397.435C566.398 395.954 566.531 394.714 566.795 393.713C567.068 392.712 567.453 391.91 567.949 391.306C568.445 390.694 569.041 390.256 569.736 389.991C570.439 389.726 571.225 389.594 572.093 389.594C572.796 389.594 573.441 389.681 574.028 389.855C574.624 390.02 575.153 390.289 575.617 390.661C576.08 391.025 576.473 391.513 576.795 392.125C577.126 392.729 577.378 393.469 577.552 394.346C577.726 395.222 577.813 396.252 577.813 397.435ZM575.505 400.561V397.05C575.505 396.24 575.455 395.529 575.356 394.916C575.265 394.296 575.129 393.767 574.947 393.328C574.765 392.89 574.533 392.534 574.252 392.261C573.979 391.988 573.66 391.79 573.296 391.666C572.941 391.534 572.54 391.467 572.093 391.467C571.547 391.467 571.063 391.571 570.641 391.778C570.22 391.976 569.864 392.295 569.574 392.733C569.293 393.171 569.078 393.746 568.929 394.457C568.78 395.169 568.706 396.033 568.706 397.05V400.561C568.706 401.372 568.752 402.088 568.843 402.708C568.942 403.328 569.086 403.866 569.277 404.321C569.467 404.767 569.699 405.135 569.972 405.425C570.244 405.714 570.559 405.929 570.914 406.07C571.278 406.202 571.679 406.269 572.118 406.269C572.68 406.269 573.172 406.161 573.594 405.946C574.016 405.731 574.368 405.396 574.649 404.941C574.938 404.478 575.153 403.886 575.294 403.167C575.435 402.439 575.505 401.571 575.505 400.561ZM581.051 406.69C581.051 406.302 581.171 405.975 581.41 405.71C581.659 405.437 582.014 405.301 582.477 405.301C582.941 405.301 583.292 405.437 583.532 405.71C583.78 405.975 583.904 406.302 583.904 406.69C583.904 407.071 583.78 407.393 583.532 407.658C583.292 407.923 582.941 408.055 582.477 408.055C582.014 408.055 581.659 407.923 581.41 407.658C581.171 407.393 581.051 407.071 581.051 406.69ZM598.805 397.435V400.189C598.805 401.67 598.672 402.919 598.408 403.936C598.143 404.953 597.762 405.772 597.266 406.393C596.77 407.013 596.17 407.464 595.467 407.745C594.772 408.018 593.987 408.154 593.11 408.154C592.415 408.154 591.774 408.068 591.187 407.894C590.6 407.72 590.07 407.443 589.599 407.063C589.136 406.674 588.739 406.169 588.408 405.549C588.077 404.929 587.825 404.176 587.651 403.291C587.477 402.406 587.39 401.372 587.39 400.189V397.435C587.39 395.954 587.523 394.714 587.787 393.713C588.06 392.712 588.445 391.91 588.941 391.306C589.438 390.694 590.033 390.256 590.728 389.991C591.431 389.726 592.217 389.594 593.085 389.594C593.788 389.594 594.433 389.681 595.021 389.855C595.616 390.02 596.145 390.289 596.609 390.661C597.072 391.025 597.465 391.513 597.787 392.125C598.118 392.729 598.37 393.469 598.544 394.346C598.718 395.222 598.805 396.252 598.805 397.435ZM596.497 400.561V397.05C596.497 396.24 596.447 395.529 596.348 394.916C596.257 394.296 596.121 393.767 595.939 393.328C595.757 392.89 595.525 392.534 595.244 392.261C594.971 391.988 594.653 391.79 594.289 391.666C593.933 391.534 593.532 391.467 593.085 391.467C592.539 391.467 592.055 391.571 591.634 391.778C591.212 391.976 590.856 392.295 590.567 392.733C590.285 393.171 590.07 393.746 589.921 394.457C589.773 395.169 589.698 396.033 589.698 397.05V400.561C589.698 401.372 589.744 402.088 589.835 402.708C589.934 403.328 590.079 403.866 590.269 404.321C590.459 404.767 590.691 405.135 590.964 405.425C591.237 405.714 591.551 405.929 591.907 406.07C592.27 406.202 592.672 406.269 593.11 406.269C593.672 406.269 594.165 406.161 594.586 405.946C595.008 405.731 595.36 405.396 595.641 404.941C595.93 404.478 596.145 403.886 596.286 403.167C596.427 402.439 596.497 401.571 596.497 400.561ZM613.097 397.435V400.189C613.097 401.67 612.965 402.919 612.7 403.936C612.435 404.953 612.055 405.772 611.559 406.393C611.062 407.013 610.463 407.464 609.76 407.745C609.065 408.018 608.279 408.154 607.402 408.154C606.708 408.154 606.067 408.068 605.479 407.894C604.892 407.72 604.363 407.443 603.891 407.063C603.428 406.674 603.031 406.169 602.7 405.549C602.369 404.929 602.117 404.176 601.944 403.291C601.77 402.406 601.683 401.372 601.683 400.189V397.435C601.683 395.954 601.815 394.714 602.08 393.713C602.353 392.712 602.738 391.91 603.234 391.306C603.73 390.694 604.326 390.256 605.02 389.991C605.723 389.726 606.509 389.594 607.378 389.594C608.081 389.594 608.726 389.681 609.313 389.855C609.909 390.02 610.438 390.289 610.901 390.661C611.364 391.025 611.757 391.513 612.08 392.125C612.411 392.729 612.663 393.469 612.837 394.346C613.01 395.222 613.097 396.252 613.097 397.435ZM610.789 400.561V397.05C610.789 396.24 610.74 395.529 610.641 394.916C610.55 394.296 610.413 393.767 610.231 393.328C610.049 392.89 609.818 392.534 609.536 392.261C609.263 391.988 608.945 391.79 608.581 391.666C608.225 391.534 607.824 391.467 607.378 391.467C606.832 391.467 606.348 391.571 605.926 391.778C605.504 391.976 605.149 392.295 604.859 392.733C604.578 393.171 604.363 393.746 604.214 394.457C604.065 395.169 603.991 396.033 603.991 397.05V400.561C603.991 401.372 604.036 402.088 604.127 402.708C604.226 403.328 604.371 403.866 604.561 404.321C604.752 404.767 604.983 405.135 605.256 405.425C605.529 405.714 605.843 405.929 606.199 406.07C606.563 406.202 606.964 406.269 607.402 406.269C607.965 406.269 608.457 406.161 608.879 405.946C609.301 405.731 609.652 405.396 609.933 404.941C610.223 404.478 610.438 403.886 610.579 403.167C610.719 402.439 610.789 401.571 610.789 400.561ZM627.39 397.435V400.189C627.39 401.67 627.257 402.919 626.993 403.936C626.728 404.953 626.347 405.772 625.851 406.393C625.355 407.013 624.755 407.464 624.052 407.745C623.357 408.018 622.572 408.154 621.695 408.154C621 408.154 620.359 408.068 619.772 407.894C619.185 407.72 618.655 407.443 618.184 407.063C617.721 406.674 617.324 406.169 616.993 405.549C616.662 404.929 616.41 404.176 616.236 403.291C616.062 402.406 615.975 401.372 615.975 400.189V397.435C615.975 395.954 616.108 394.714 616.372 393.713C616.645 392.712 617.03 391.91 617.526 391.306C618.023 390.694 618.618 390.256 619.313 389.991C620.016 389.726 620.802 389.594 621.67 389.594C622.373 389.594 623.018 389.681 623.606 389.855C624.201 390.02 624.73 390.289 625.194 390.661C625.657 391.025 626.05 391.513 626.372 392.125C626.703 392.729 626.955 393.469 627.129 394.346C627.303 395.222 627.39 396.252 627.39 397.435ZM625.082 400.561V397.05C625.082 396.24 625.032 395.529 624.933 394.916C624.842 394.296 624.706 393.767 624.524 393.328C624.342 392.89 624.11 392.534 623.829 392.261C623.556 391.988 623.238 391.79 622.874 391.666C622.518 391.534 622.117 391.467 621.67 391.467C621.124 391.467 620.64 391.571 620.219 391.778C619.797 391.976 619.441 392.295 619.152 392.733C618.87 393.171 618.655 393.746 618.506 394.457C618.358 395.169 618.283 396.033 618.283 397.05V400.561C618.283 401.372 618.329 402.088 618.42 402.708C618.519 403.328 618.664 403.866 618.854 404.321C619.044 404.767 619.276 405.135 619.549 405.425C619.822 405.714 620.136 405.929 620.491 406.07C620.855 406.202 621.257 406.269 621.695 406.269C622.257 406.269 622.75 406.161 623.171 405.946C623.593 405.731 623.945 405.396 624.226 404.941C624.515 404.478 624.73 403.886 624.871 403.167C625.012 402.439 625.082 401.571 625.082 400.561Z" fill="#606060"/>
<path d="M645.671 389.743V407.906H643.376V392.609L638.748 394.296V392.224L645.311 389.743H645.671ZM663.76 397.435V400.189C663.76 401.67 663.627 402.919 663.363 403.936C663.098 404.953 662.718 405.772 662.221 406.393C661.725 407.013 661.125 407.464 660.422 407.745C659.728 408.018 658.942 408.154 658.065 408.154C657.37 408.154 656.729 408.068 656.142 407.894C655.555 407.72 655.026 407.443 654.554 407.063C654.091 406.674 653.694 406.169 653.363 405.549C653.032 404.929 652.78 404.176 652.606 403.291C652.433 402.406 652.346 401.372 652.346 400.189V397.435C652.346 395.954 652.478 394.714 652.743 393.713C653.016 392.712 653.4 391.91 653.897 391.306C654.393 390.694 654.988 390.256 655.683 389.991C656.386 389.726 657.172 389.594 658.04 389.594C658.743 389.594 659.389 389.681 659.976 389.855C660.571 390.02 661.101 390.289 661.564 390.661C662.027 391.025 662.42 391.513 662.742 392.125C663.073 392.729 663.326 393.469 663.499 394.346C663.673 395.222 663.76 396.252 663.76 397.435ZM661.452 400.561V397.05C661.452 396.24 661.403 395.529 661.303 394.916C661.212 394.296 661.076 393.767 660.894 393.328C660.712 392.89 660.48 392.534 660.199 392.261C659.926 391.988 659.608 391.79 659.244 391.666C658.888 391.534 658.487 391.467 658.04 391.467C657.494 391.467 657.011 391.571 656.589 391.778C656.167 391.976 655.811 392.295 655.522 392.733C655.241 393.171 655.026 393.746 654.877 394.457C654.728 395.169 654.653 396.033 654.653 397.05V400.561C654.653 401.372 654.699 402.088 654.79 402.708C654.889 403.328 655.034 403.866 655.224 404.321C655.414 404.767 655.646 405.135 655.919 405.425C656.192 405.714 656.506 405.929 656.862 406.07C657.226 406.202 657.627 406.269 658.065 406.269C658.628 406.269 659.12 406.161 659.542 405.946C659.963 405.731 660.315 405.396 660.596 404.941C660.886 404.478 661.101 403.886 661.241 403.167C661.382 402.439 661.452 401.571 661.452 400.561ZM678.052 397.435V400.189C678.052 401.67 677.92 402.919 677.655 403.936C677.391 404.953 677.01 405.772 676.514 406.393C676.018 407.013 675.418 407.464 674.715 407.745C674.02 408.018 673.234 408.154 672.358 408.154C671.663 408.154 671.022 408.068 670.435 407.894C669.847 407.72 669.318 407.443 668.847 407.063C668.383 406.674 667.986 406.169 667.656 405.549C667.325 404.929 667.072 404.176 666.899 403.291C666.725 402.406 666.638 401.372 666.638 400.189V397.435C666.638 395.954 666.771 394.714 667.035 393.713C667.308 392.712 667.693 391.91 668.189 391.306C668.685 390.694 669.281 390.256 669.976 389.991C670.679 389.726 671.464 389.594 672.333 389.594C673.036 389.594 673.681 389.681 674.268 389.855C674.864 390.02 675.393 390.289 675.856 390.661C676.32 391.025 676.712 391.513 677.035 392.125C677.366 392.729 677.618 393.469 677.792 394.346C677.965 395.222 678.052 396.252 678.052 397.435ZM675.745 400.561V397.05C675.745 396.24 675.695 395.529 675.596 394.916C675.505 394.296 675.368 393.767 675.186 393.328C675.004 392.89 674.773 392.534 674.492 392.261C674.219 391.988 673.9 391.79 673.536 391.666C673.181 391.534 672.779 391.467 672.333 391.467C671.787 391.467 671.303 391.571 670.881 391.778C670.459 391.976 670.104 392.295 669.814 392.733C669.533 393.171 669.318 393.746 669.169 394.457C669.02 395.169 668.946 396.033 668.946 397.05V400.561C668.946 401.372 668.991 402.088 669.082 402.708C669.182 403.328 669.326 403.866 669.517 404.321C669.707 404.767 669.938 405.135 670.211 405.425C670.484 405.714 670.799 405.929 671.154 406.07C671.518 406.202 671.919 406.269 672.358 406.269C672.92 406.269 673.412 406.161 673.834 405.946C674.256 405.731 674.607 405.396 674.889 404.941C675.178 404.478 675.393 403.886 675.534 403.167C675.674 402.439 675.745 401.571 675.745 400.561ZM681.29 406.69C681.29 406.302 681.41 405.975 681.65 405.71C681.898 405.437 682.254 405.301 682.717 405.301C683.18 405.301 683.532 405.437 683.772 405.71C684.02 405.975 684.144 406.302 684.144 406.69C684.144 407.071 684.02 407.393 683.772 407.658C683.532 407.923 683.18 408.055 682.717 408.055C682.254 408.055 681.898 407.923 681.65 407.658C681.41 407.393 681.29 407.071 681.29 406.69ZM699.044 397.435V400.189C699.044 401.67 698.912 402.919 698.647 403.936C698.383 404.953 698.002 405.772 697.506 406.393C697.01 407.013 696.41 407.464 695.707 407.745C695.012 408.018 694.226 408.154 693.35 408.154C692.655 408.154 692.014 408.068 691.427 407.894C690.839 407.72 690.31 407.443 689.839 407.063C689.375 406.674 688.978 406.169 688.648 405.549C688.317 404.929 688.064 404.176 687.891 403.291C687.717 402.406 687.63 401.372 687.63 400.189V397.435C687.63 395.954 687.763 394.714 688.027 393.713C688.3 392.712 688.685 391.91 689.181 391.306C689.677 390.694 690.273 390.256 690.968 389.991C691.671 389.726 692.456 389.594 693.325 389.594C694.028 389.594 694.673 389.681 695.26 389.855C695.856 390.02 696.385 390.289 696.848 390.661C697.312 391.025 697.704 391.513 698.027 392.125C698.358 392.729 698.61 393.469 698.784 394.346C698.958 395.222 699.044 396.252 699.044 397.435ZM696.737 400.561V397.05C696.737 396.24 696.687 395.529 696.588 394.916C696.497 394.296 696.36 393.767 696.178 393.328C695.996 392.89 695.765 392.534 695.484 392.261C695.211 391.988 694.892 391.79 694.528 391.666C694.173 391.534 693.772 391.467 693.325 391.467C692.779 391.467 692.295 391.571 691.873 391.778C691.452 391.976 691.096 392.295 690.806 392.733C690.525 393.171 690.31 393.746 690.161 394.457C690.012 395.169 689.938 396.033 689.938 397.05V400.561C689.938 401.372 689.983 402.088 690.074 402.708C690.174 403.328 690.318 403.866 690.509 404.321C690.699 404.767 690.93 405.135 691.203 405.425C691.476 405.714 691.791 405.929 692.146 406.07C692.51 406.202 692.911 406.269 693.35 406.269C693.912 406.269 694.404 406.161 694.826 405.946C695.248 405.731 695.599 405.396 695.881 404.941C696.17 404.478 696.385 403.886 696.526 403.167C696.666 402.439 696.737 401.571 696.737 400.561ZM713.337 397.435V400.189C713.337 401.67 713.205 402.919 712.94 403.936C712.675 404.953 712.295 405.772 711.798 406.393C711.302 407.013 710.703 407.464 709.999 407.745C709.305 408.018 708.519 408.154 707.642 408.154C706.947 408.154 706.306 408.068 705.719 407.894C705.132 407.72 704.603 407.443 704.131 407.063C703.668 406.674 703.271 406.169 702.94 405.549C702.609 404.929 702.357 404.176 702.183 403.291C702.01 402.406 701.923 401.372 701.923 400.189V397.435C701.923 395.954 702.055 394.714 702.32 393.713C702.593 392.712 702.977 391.91 703.474 391.306C703.97 390.694 704.565 390.256 705.26 389.991C705.963 389.726 706.749 389.594 707.617 389.594C708.32 389.594 708.966 389.681 709.553 389.855C710.148 390.02 710.678 390.289 711.141 390.661C711.604 391.025 711.997 391.513 712.32 392.125C712.65 392.729 712.903 393.469 713.076 394.346C713.25 395.222 713.337 396.252 713.337 397.435ZM711.029 400.561V397.05C711.029 396.24 710.98 395.529 710.88 394.916C710.789 394.296 710.653 393.767 710.471 393.328C710.289 392.89 710.057 392.534 709.776 392.261C709.503 391.988 709.185 391.79 708.821 391.666C708.465 391.534 708.064 391.467 707.617 391.467C707.072 391.467 706.588 391.571 706.166 391.778C705.744 391.976 705.388 392.295 705.099 392.733C704.818 393.171 704.603 393.746 704.454 394.457C704.305 395.169 704.23 396.033 704.23 397.05V400.561C704.23 401.372 704.276 402.088 704.367 402.708C704.466 403.328 704.611 403.866 704.801 404.321C704.991 404.767 705.223 405.135 705.496 405.425C705.769 405.714 706.083 405.929 706.439 406.07C706.803 406.202 707.204 406.269 707.642 406.269C708.205 406.269 708.697 406.161 709.119 405.946C709.54 405.731 709.892 405.396 710.173 404.941C710.463 404.478 710.678 403.886 710.818 403.167C710.959 402.439 711.029 401.571 711.029 400.561ZM727.629 397.435V400.189C727.629 401.67 727.497 402.919 727.232 403.936C726.968 404.953 726.587 405.772 726.091 406.393C725.595 407.013 724.995 407.464 724.292 407.745C723.597 408.018 722.811 408.154 721.935 408.154C721.24 408.154 720.599 408.068 720.012 407.894C719.424 407.72 718.895 407.443 718.424 407.063C717.96 406.674 717.563 406.169 717.233 405.549C716.902 404.929 716.649 404.176 716.476 403.291C716.302 402.406 716.215 401.372 716.215 400.189V397.435C716.215 395.954 716.348 394.714 716.612 393.713C716.885 392.712 717.27 391.91 717.766 391.306C718.262 390.694 718.858 390.256 719.553 389.991C720.256 389.726 721.041 389.594 721.91 389.594C722.613 389.594 723.258 389.681 723.845 389.855C724.441 390.02 724.97 390.289 725.433 390.661C725.897 391.025 726.289 391.513 726.612 392.125C726.943 392.729 727.195 393.469 727.369 394.346C727.543 395.222 727.629 396.252 727.629 397.435ZM725.322 400.561V397.05C725.322 396.24 725.272 395.529 725.173 394.916C725.082 394.296 724.945 393.767 724.763 393.328C724.581 392.89 724.35 392.534 724.069 392.261C723.796 391.988 723.477 391.79 723.113 391.666C722.758 391.534 722.357 391.467 721.91 391.467C721.364 391.467 720.88 391.571 720.458 391.778C720.036 391.976 719.681 392.295 719.391 392.733C719.11 393.171 718.895 393.746 718.746 394.457C718.597 395.169 718.523 396.033 718.523 397.05V400.561C718.523 401.372 718.568 402.088 718.659 402.708C718.759 403.328 718.903 403.866 719.094 404.321C719.284 404.767 719.515 405.135 719.788 405.425C720.061 405.714 720.376 405.929 720.731 406.07C721.095 406.202 721.496 406.269 721.935 406.269C722.497 406.269 722.989 406.161 723.411 405.946C723.833 405.731 724.184 405.396 724.466 404.941C724.755 404.478 724.97 403.886 725.111 403.167C725.251 402.439 725.322 401.571 725.322 400.561ZM730.868 406.69C730.868 406.302 730.987 405.975 731.227 405.71C731.475 405.437 731.831 405.301 732.294 405.301C732.757 405.301 733.109 405.437 733.349 405.71C733.597 405.975 733.721 406.302 733.721 406.69C733.721 407.071 733.597 407.393 733.349 407.658C733.109 407.923 732.757 408.055 732.294 408.055C731.831 408.055 731.475 407.923 731.227 407.658C730.987 407.393 730.868 407.071 730.868 406.69ZM748.621 397.435V400.189C748.621 401.67 748.489 402.919 748.224 403.936C747.96 404.953 747.579 405.772 747.083 406.393C746.587 407.013 745.987 407.464 745.284 407.745C744.589 408.018 743.804 408.154 742.927 408.154C742.232 408.154 741.591 408.068 741.004 407.894C740.417 407.72 739.887 407.443 739.416 407.063C738.953 406.674 738.556 406.169 738.225 405.549C737.894 404.929 737.642 404.176 737.468 403.291C737.294 402.406 737.207 401.372 737.207 400.189V397.435C737.207 395.954 737.34 394.714 737.604 393.713C737.877 392.712 738.262 391.91 738.758 391.306C739.254 390.694 739.85 390.256 740.545 389.991C741.248 389.726 742.034 389.594 742.902 389.594C743.605 389.594 744.25 389.681 744.837 389.855C745.433 390.02 745.962 390.289 746.425 390.661C746.889 391.025 747.282 391.513 747.604 392.125C747.935 392.729 748.187 393.469 748.361 394.346C748.535 395.222 748.621 396.252 748.621 397.435ZM746.314 400.561V397.05C746.314 396.24 746.264 395.529 746.165 394.916C746.074 394.296 745.938 393.767 745.756 393.328C745.574 392.89 745.342 392.534 745.061 392.261C744.788 391.988 744.469 391.79 744.105 391.666C743.75 391.534 743.349 391.467 742.902 391.467C742.356 391.467 741.872 391.571 741.45 391.778C741.029 391.976 740.673 392.295 740.383 392.733C740.102 393.171 739.887 393.746 739.738 394.457C739.589 395.169 739.515 396.033 739.515 397.05V400.561C739.515 401.372 739.56 402.088 739.651 402.708C739.751 403.328 739.895 403.866 740.086 404.321C740.276 404.767 740.508 405.135 740.78 405.425C741.053 405.714 741.368 405.929 741.723 406.07C742.087 406.202 742.488 406.269 742.927 406.269C743.489 406.269 743.981 406.161 744.403 405.946C744.825 405.731 745.177 405.396 745.458 404.941C745.747 404.478 745.962 403.886 746.103 403.167C746.244 402.439 746.314 401.571 746.314 400.561ZM762.914 397.435V400.189C762.914 401.67 762.782 402.919 762.517 403.936C762.252 404.953 761.872 405.772 761.376 406.393C760.879 407.013 760.28 407.464 759.577 407.745C758.882 408.018 758.096 408.154 757.219 408.154C756.525 408.154 755.884 408.068 755.296 407.894C754.709 407.72 754.18 407.443 753.708 407.063C753.245 406.674 752.848 406.169 752.517 405.549C752.186 404.929 751.934 404.176 751.76 403.291C751.587 402.406 751.5 401.372 751.5 400.189V397.435C751.5 395.954 751.632 394.714 751.897 393.713C752.17 392.712 752.554 391.91 753.051 391.306C753.547 390.694 754.142 390.256 754.837 389.991C755.54 389.726 756.326 389.594 757.194 389.594C757.898 389.594 758.543 389.681 759.13 389.855C759.725 390.02 760.255 390.289 760.718 390.661C761.181 391.025 761.574 391.513 761.897 392.125C762.227 392.729 762.48 393.469 762.653 394.346C762.827 395.222 762.914 396.252 762.914 397.435ZM760.606 400.561V397.05C760.606 396.24 760.557 395.529 760.457 394.916C760.366 394.296 760.23 393.767 760.048 393.328C759.866 392.89 759.634 392.534 759.353 392.261C759.08 391.988 758.762 391.79 758.398 391.666C758.042 391.534 757.641 391.467 757.194 391.467C756.649 391.467 756.165 391.571 755.743 391.778C755.321 391.976 754.965 392.295 754.676 392.733C754.395 393.171 754.18 393.746 754.031 394.457C753.882 395.169 753.807 396.033 753.807 397.05V400.561C753.807 401.372 753.853 402.088 753.944 402.708C754.043 403.328 754.188 403.866 754.378 404.321C754.568 404.767 754.8 405.135 755.073 405.425C755.346 405.714 755.66 405.929 756.016 406.07C756.38 406.202 756.781 406.269 757.219 406.269C757.782 406.269 758.274 406.161 758.696 405.946C759.118 405.731 759.469 405.396 759.75 404.941C760.04 404.478 760.255 403.886 760.395 403.167C760.536 402.439 760.606 401.571 760.606 400.561ZM777.206 397.435V400.189C777.206 401.67 777.074 402.919 776.809 403.936C776.545 404.953 776.164 405.772 775.668 406.393C775.172 407.013 774.572 407.464 773.869 407.745C773.174 408.018 772.389 408.154 771.512 408.154C770.817 408.154 770.176 408.068 769.589 407.894C769.002 407.72 768.472 407.443 768.001 407.063C767.538 406.674 767.14 406.169 766.81 405.549C766.479 404.929 766.227 404.176 766.053 403.291C765.879 402.406 765.792 401.372 765.792 400.189V397.435C765.792 395.954 765.925 394.714 766.189 393.713C766.462 392.712 766.847 391.91 767.343 391.306C767.839 390.694 768.435 390.256 769.13 389.991C769.833 389.726 770.619 389.594 771.487 389.594C772.19 389.594 772.835 389.681 773.422 389.855C774.018 390.02 774.547 390.289 775.01 390.661C775.474 391.025 775.867 391.513 776.189 392.125C776.52 392.729 776.772 393.469 776.946 394.346C777.12 395.222 777.206 396.252 777.206 397.435ZM774.899 400.561V397.05C774.899 396.24 774.849 395.529 774.75 394.916C774.659 394.296 774.522 393.767 774.341 393.328C774.159 392.89 773.927 392.534 773.646 392.261C773.373 391.988 773.054 391.79 772.69 391.666C772.335 391.534 771.934 391.467 771.487 391.467C770.941 391.467 770.457 391.571 770.035 391.778C769.614 391.976 769.258 392.295 768.968 392.733C768.687 393.171 768.472 393.746 768.323 394.457C768.174 395.169 768.1 396.033 768.1 397.05V400.561C768.1 401.372 768.145 402.088 768.236 402.708C768.336 403.328 768.48 403.866 768.671 404.321C768.861 404.767 769.092 405.135 769.365 405.425C769.638 405.714 769.953 405.929 770.308 406.07C770.672 406.202 771.073 406.269 771.512 406.269C772.074 406.269 772.566 406.161 772.988 405.946C773.41 405.731 773.762 405.396 774.043 404.941C774.332 404.478 774.547 403.886 774.688 403.167C774.829 402.439 774.899 401.571 774.899 400.561Z" fill="#606060"/>
<path d="M99.7466 296.609V298.557H90.7145V296.609H99.7466ZM91.186 280.493V298.557H88.7915V280.493H91.186ZM101.533 291.994V291.708C101.533 290.74 101.674 289.843 101.955 289.016C102.236 288.181 102.641 287.457 103.171 286.845C103.7 286.224 104.341 285.745 105.094 285.406C105.847 285.058 106.69 284.884 107.625 284.884C108.568 284.884 109.416 285.058 110.168 285.406C110.929 285.745 111.574 286.224 112.104 286.845C112.641 287.457 113.051 288.181 113.332 289.016C113.613 289.843 113.754 290.74 113.754 291.708V291.994C113.754 292.961 113.613 293.859 113.332 294.686C113.051 295.513 112.641 296.237 112.104 296.857C111.574 297.469 110.933 297.949 110.181 298.296C109.436 298.635 108.593 298.805 107.65 298.805C106.707 298.805 105.859 298.635 105.106 298.296C104.354 297.949 103.708 297.469 103.171 296.857C102.641 296.237 102.236 295.513 101.955 294.686C101.674 293.859 101.533 292.961 101.533 291.994ZM103.828 291.708V291.994C103.828 292.663 103.907 293.296 104.064 293.892C104.221 294.479 104.457 295 104.771 295.455C105.094 295.91 105.495 296.27 105.975 296.534C106.454 296.791 107.013 296.919 107.65 296.919C108.278 296.919 108.828 296.791 109.3 296.534C109.779 296.27 110.176 295.91 110.491 295.455C110.805 295 111.041 294.479 111.198 293.892C111.363 293.296 111.446 292.663 111.446 291.994V291.708C111.446 291.046 111.363 290.422 111.198 289.835C111.041 289.239 110.801 288.714 110.478 288.259C110.164 287.796 109.767 287.432 109.287 287.167C108.816 286.903 108.262 286.77 107.625 286.77C106.996 286.77 106.442 286.903 105.962 287.167C105.491 287.432 105.094 287.796 104.771 288.259C104.457 288.714 104.221 289.239 104.064 289.835C103.907 290.422 103.828 291.046 103.828 291.708ZM116.694 285.133H119.002V300.157C119.002 300.976 118.869 301.671 118.605 302.241C118.348 302.812 117.96 303.242 117.439 303.532C116.926 303.829 116.276 303.978 115.491 303.978C115.284 303.978 115.044 303.958 114.771 303.916C114.49 303.875 114.254 303.825 114.064 303.767L114.076 301.919C114.233 301.952 114.411 301.977 114.61 301.993C114.808 302.018 114.982 302.031 115.131 302.031C115.47 302.031 115.755 301.968 115.987 301.844C116.219 301.72 116.392 301.522 116.508 301.249C116.632 300.976 116.694 300.612 116.694 300.157V285.133ZM116.458 281.572C116.458 281.2 116.574 280.885 116.806 280.629C117.037 280.373 117.372 280.244 117.811 280.244C118.257 280.244 118.596 280.373 118.828 280.629C119.06 280.885 119.175 281.2 119.175 281.572C119.175 281.928 119.06 282.234 118.828 282.49C118.596 282.738 118.257 282.862 117.811 282.862C117.372 282.862 117.037 282.738 116.806 282.49C116.574 282.234 116.458 281.928 116.458 281.572ZM130.627 296.261V289.351C130.627 288.822 130.519 288.362 130.304 287.974C130.097 287.577 129.783 287.271 129.361 287.056C128.94 286.841 128.418 286.733 127.798 286.733C127.219 286.733 126.71 286.832 126.272 287.031C125.842 287.229 125.503 287.49 125.255 287.812C125.015 288.135 124.895 288.482 124.895 288.855H122.6C122.6 288.375 122.724 287.899 122.972 287.428C123.22 286.956 123.576 286.53 124.039 286.15C124.51 285.761 125.073 285.455 125.726 285.232C126.388 285 127.124 284.884 127.935 284.884C128.911 284.884 129.771 285.05 130.515 285.381C131.268 285.712 131.855 286.212 132.277 286.882C132.707 287.544 132.922 288.375 132.922 289.376V295.629C132.922 296.075 132.959 296.551 133.034 297.055C133.116 297.56 133.236 297.994 133.393 298.358V298.557H130.999C130.883 298.292 130.792 297.94 130.726 297.502C130.66 297.055 130.627 296.642 130.627 296.261ZM131.024 290.418L131.049 292.031H128.729C128.075 292.031 127.492 292.084 126.979 292.192C126.466 292.291 126.036 292.444 125.689 292.651C125.342 292.858 125.077 293.118 124.895 293.433C124.713 293.739 124.622 294.099 124.622 294.512C124.622 294.934 124.717 295.318 124.907 295.666C125.098 296.013 125.383 296.29 125.763 296.497C126.152 296.696 126.628 296.795 127.19 296.795C127.893 296.795 128.514 296.646 129.051 296.348C129.589 296.05 130.015 295.687 130.329 295.256C130.652 294.826 130.825 294.409 130.85 294.003L131.83 295.108C131.772 295.455 131.615 295.84 131.359 296.261C131.102 296.683 130.759 297.089 130.329 297.477C129.907 297.858 129.403 298.176 128.815 298.433C128.236 298.681 127.583 298.805 126.855 298.805C125.945 298.805 125.147 298.627 124.461 298.271C123.782 297.916 123.253 297.44 122.873 296.845C122.5 296.241 122.314 295.567 122.314 294.822C122.314 294.103 122.455 293.47 122.736 292.924C123.017 292.37 123.423 291.911 123.952 291.547C124.481 291.175 125.118 290.893 125.863 290.703C126.607 290.513 127.438 290.418 128.356 290.418H131.024ZM145.751 280.493V298.557H143.356V280.493H145.751ZM152.673 280.493V298.557H150.279V280.493H152.673ZM159.596 280.493V298.557H157.202V280.493H159.596Z" fill="#606060"/>
<path d="M103.208 197.829V199.777H94.176V197.829H103.208ZM94.6475 181.713V199.777H92.253V181.713H94.6475ZM104.995 193.214V192.929C104.995 191.961 105.135 191.064 105.416 190.237C105.698 189.401 106.103 188.678 106.632 188.065C107.162 187.445 107.803 186.965 108.555 186.626C109.308 186.279 110.152 186.105 111.086 186.105C112.029 186.105 112.877 186.279 113.63 186.626C114.391 186.965 115.036 187.445 115.565 188.065C116.103 188.678 116.512 189.401 116.793 190.237C117.075 191.064 117.215 191.961 117.215 192.929V193.214C117.215 194.182 117.075 195.079 116.793 195.906C116.512 196.734 116.103 197.457 115.565 198.078C115.036 198.69 114.395 199.169 113.642 199.517C112.898 199.856 112.054 200.025 111.111 200.025C110.168 200.025 109.32 199.856 108.568 199.517C107.815 199.169 107.17 198.69 106.632 198.078C106.103 197.457 105.698 196.734 105.416 195.906C105.135 195.079 104.995 194.182 104.995 193.214ZM107.29 192.929V193.214C107.29 193.884 107.368 194.517 107.526 195.112C107.683 195.7 107.918 196.221 108.233 196.676C108.555 197.131 108.956 197.49 109.436 197.755C109.916 198.011 110.474 198.14 111.111 198.14C111.74 198.14 112.29 198.011 112.761 197.755C113.241 197.49 113.638 197.131 113.952 196.676C114.267 196.221 114.502 195.7 114.659 195.112C114.825 194.517 114.908 193.884 114.908 193.214V192.929C114.908 192.267 114.825 191.643 114.659 191.055C114.502 190.46 114.262 189.935 113.94 189.48C113.626 189.017 113.229 188.653 112.749 188.388C112.277 188.123 111.723 187.991 111.086 187.991C110.458 187.991 109.904 188.123 109.424 188.388C108.952 188.653 108.555 189.017 108.233 189.48C107.918 189.935 107.683 190.46 107.526 191.055C107.368 191.643 107.29 192.267 107.29 192.929ZM120.156 186.353H122.463V201.378C122.463 202.197 122.331 202.891 122.066 203.462C121.81 204.033 121.421 204.463 120.9 204.752C120.387 205.05 119.738 205.199 118.952 205.199C118.745 205.199 118.505 205.178 118.233 205.137C117.951 205.096 117.716 205.046 117.525 204.988L117.538 203.14C117.695 203.173 117.873 203.197 118.071 203.214C118.27 203.239 118.443 203.251 118.592 203.251C118.931 203.251 119.217 203.189 119.448 203.065C119.68 202.941 119.854 202.743 119.969 202.47C120.094 202.197 120.156 201.833 120.156 201.378V186.353ZM119.92 182.793C119.92 182.42 120.036 182.106 120.267 181.85C120.499 181.593 120.834 181.465 121.272 181.465C121.719 181.465 122.058 181.593 122.29 181.85C122.521 182.106 122.637 182.42 122.637 182.793C122.637 183.148 122.521 183.454 122.29 183.711C122.058 183.959 121.719 184.083 121.272 184.083C120.834 184.083 120.499 183.959 120.267 183.711C120.036 183.454 119.92 183.148 119.92 182.793ZM134.088 197.482V190.572C134.088 190.042 133.981 189.583 133.766 189.194C133.559 188.797 133.245 188.491 132.823 188.276C132.401 188.061 131.88 187.954 131.26 187.954C130.681 187.954 130.172 188.053 129.734 188.252C129.303 188.45 128.964 188.711 128.716 189.033C128.476 189.356 128.356 189.703 128.356 190.075H126.061C126.061 189.596 126.185 189.12 126.433 188.649C126.681 188.177 127.037 187.751 127.5 187.371C127.972 186.982 128.534 186.676 129.188 186.453C129.849 186.221 130.585 186.105 131.396 186.105C132.372 186.105 133.232 186.271 133.977 186.601C134.729 186.932 135.317 187.433 135.738 188.103C136.168 188.764 136.384 189.596 136.384 190.596V196.849C136.384 197.296 136.421 197.772 136.495 198.276C136.578 198.781 136.698 199.215 136.855 199.579V199.777H134.46C134.345 199.513 134.254 199.161 134.188 198.723C134.121 198.276 134.088 197.863 134.088 197.482ZM134.485 191.639L134.51 193.251H132.19C131.537 193.251 130.954 193.305 130.441 193.413C129.928 193.512 129.498 193.665 129.15 193.872C128.803 194.079 128.538 194.339 128.356 194.653C128.174 194.959 128.083 195.319 128.083 195.733C128.083 196.155 128.179 196.539 128.369 196.887C128.559 197.234 128.844 197.511 129.225 197.718C129.614 197.916 130.089 198.016 130.652 198.016C131.355 198.016 131.975 197.867 132.513 197.569C133.05 197.271 133.476 196.907 133.791 196.477C134.113 196.047 134.287 195.629 134.312 195.224L135.292 196.328C135.234 196.676 135.077 197.06 134.82 197.482C134.564 197.904 134.221 198.309 133.791 198.698C133.369 199.078 132.864 199.397 132.277 199.653C131.698 199.901 131.045 200.025 130.317 200.025C129.407 200.025 128.609 199.848 127.922 199.492C127.244 199.136 126.715 198.661 126.334 198.065C125.962 197.461 125.776 196.787 125.776 196.043C125.776 195.323 125.916 194.691 126.198 194.145C126.479 193.591 126.884 193.132 127.413 192.768C127.943 192.395 128.58 192.114 129.324 191.924C130.069 191.734 130.9 191.639 131.818 191.639H134.485ZM149.212 181.713V199.777H146.818V181.713H149.212ZM156.135 181.713V199.777H153.74V181.713H156.135Z" fill="#606060"/>
<path d="M106.67 109.488V111.436H97.6375V109.488H106.67ZM98.1089 93.3714V111.436H95.7144V93.3714H98.1089ZM108.456 104.872V104.587C108.456 103.619 108.597 102.722 108.878 101.895C109.159 101.059 109.564 100.336 110.094 99.7236C110.623 99.1033 111.264 98.6236 112.017 98.2845C112.769 97.9371 113.613 97.7634 114.548 97.7634C115.491 97.7634 116.338 97.9371 117.091 98.2845C117.852 98.6236 118.497 99.1033 119.027 99.7236C119.564 100.336 119.974 101.059 120.255 101.895C120.536 102.722 120.677 103.619 120.677 104.587V104.872C120.677 105.84 120.536 106.738 120.255 107.565C119.974 108.392 119.564 109.115 119.027 109.736C118.497 110.348 117.856 110.828 117.104 111.175C116.359 111.514 115.515 111.684 114.573 111.684C113.63 111.684 112.782 111.514 112.029 111.175C111.277 110.828 110.631 110.348 110.094 109.736C109.564 109.115 109.159 108.392 108.878 107.565C108.597 106.738 108.456 105.84 108.456 104.872ZM110.751 104.587V104.872C110.751 105.542 110.83 106.175 110.987 106.771C111.144 107.358 111.38 107.879 111.694 108.334C112.017 108.789 112.418 109.149 112.898 109.413C113.377 109.67 113.936 109.798 114.573 109.798C115.201 109.798 115.751 109.67 116.223 109.413C116.702 109.149 117.099 108.789 117.414 108.334C117.728 107.879 117.964 107.358 118.121 106.771C118.286 106.175 118.369 105.542 118.369 104.872V104.587C118.369 103.925 118.286 103.301 118.121 102.714C117.964 102.118 117.724 101.593 117.401 101.138C117.087 100.675 116.69 100.311 116.21 100.046C115.739 99.7815 115.185 99.6492 114.548 99.6492C113.919 99.6492 113.365 99.7815 112.885 100.046C112.414 100.311 112.017 100.675 111.694 101.138C111.38 101.593 111.144 102.118 110.987 102.714C110.83 103.301 110.751 103.925 110.751 104.587ZM123.617 98.0115H125.925V113.036C125.925 113.855 125.792 114.55 125.528 115.12C125.271 115.691 124.883 116.121 124.361 116.411C123.849 116.708 123.199 116.857 122.414 116.857C122.207 116.857 121.967 116.837 121.694 116.795C121.413 116.754 121.177 116.704 120.987 116.646L120.999 114.798C121.156 114.831 121.334 114.856 121.533 114.872C121.731 114.897 121.905 114.909 122.054 114.909C122.393 114.909 122.678 114.847 122.91 114.723C123.141 114.599 123.315 114.401 123.431 114.128C123.555 113.855 123.617 113.491 123.617 113.036V98.0115ZM123.381 94.4508C123.381 94.0786 123.497 93.7643 123.729 93.5079C123.96 93.2515 124.295 93.1233 124.734 93.1233C125.18 93.1233 125.519 93.2515 125.751 93.5079C125.983 93.7643 126.098 94.0786 126.098 94.4508C126.098 94.8065 125.983 95.1125 125.751 95.3689C125.519 95.617 125.18 95.7411 124.734 95.7411C124.295 95.7411 123.96 95.617 123.729 95.3689C123.497 95.1125 123.381 94.8065 123.381 94.4508ZM137.55 109.14V102.23C137.55 101.7 137.442 101.241 137.227 100.853C137.02 100.456 136.706 100.15 136.284 99.9346C135.862 99.7195 135.341 99.612 134.721 99.612C134.142 99.612 133.633 99.7112 133.195 99.9097C132.765 100.108 132.426 100.369 132.178 100.691C131.938 101.014 131.818 101.361 131.818 101.734H129.523C129.523 101.254 129.647 100.778 129.895 100.307C130.143 99.8353 130.499 99.4093 130.962 99.0289C131.433 98.6401 131.996 98.3341 132.649 98.1108C133.311 97.8792 134.047 97.7634 134.857 97.7634C135.833 97.7634 136.694 97.9288 137.438 98.2597C138.191 98.5905 138.778 99.0909 139.2 99.7609C139.63 100.423 139.845 101.254 139.845 102.255V108.508C139.845 108.954 139.882 109.43 139.957 109.934C140.039 110.439 140.159 110.873 140.316 111.237V111.436H137.922C137.806 111.171 137.715 110.819 137.649 110.381C137.583 109.934 137.55 109.521 137.55 109.14ZM137.947 103.297L137.972 104.91H135.652C134.998 104.91 134.415 104.963 133.902 105.071C133.389 105.17 132.959 105.323 132.612 105.53C132.264 105.737 132 105.997 131.818 106.312C131.636 106.618 131.545 106.977 131.545 107.391C131.545 107.813 131.64 108.197 131.83 108.545C132.02 108.892 132.306 109.169 132.686 109.376C133.075 109.575 133.551 109.674 134.113 109.674C134.816 109.674 135.436 109.525 135.974 109.227C136.512 108.929 136.938 108.565 137.252 108.135C137.575 107.705 137.748 107.288 137.773 106.882L138.753 107.986C138.695 108.334 138.538 108.718 138.282 109.14C138.025 109.562 137.682 109.967 137.252 110.356C136.83 110.737 136.326 111.055 135.738 111.311C135.159 111.56 134.506 111.684 133.778 111.684C132.868 111.684 132.07 111.506 131.384 111.15C130.705 110.795 130.176 110.319 129.796 109.723C129.423 109.12 129.237 108.446 129.237 107.701C129.237 106.982 129.378 106.349 129.659 105.803C129.94 105.249 130.346 104.79 130.875 104.426C131.404 104.054 132.041 103.772 132.786 103.582C133.53 103.392 134.361 103.297 135.279 103.297H137.947ZM152.673 93.3714V111.436H150.279V93.3714H152.673Z" fill="#606060"/>
<path d="M63.0662 212.084H66.7988V223.776H63.0662V212.084ZM43.5735 222.229H66.7988V227.014H43.5735V222.229ZM58.3446 210.361H58.0096C56.7441 210.361 55.5796 210.18 54.5162 209.818C53.4422 209.457 52.5117 208.931 51.7247 208.239C50.9378 207.548 50.3263 206.697 49.8903 205.687C49.4437 204.677 49.2203 203.518 49.2203 202.21C49.2203 200.902 49.4437 199.737 49.8903 198.716C50.3263 197.695 50.9378 196.839 51.7247 196.148C52.5117 195.446 53.4422 194.915 54.5162 194.553C55.5796 194.191 56.7441 194.011 58.0096 194.011H58.3446C59.5994 194.011 60.7639 194.191 61.8379 194.553C62.9014 194.915 63.8319 195.446 64.6294 196.148C65.4164 196.839 66.0278 197.69 66.4638 198.7C66.8999 199.711 67.1179 200.87 67.1179 202.178C67.1179 203.486 66.8999 204.65 66.4638 205.671C66.0278 206.681 65.4164 207.537 64.6294 208.239C63.8319 208.931 62.9014 209.457 61.8379 209.818C60.7639 210.18 59.5994 210.361 58.3446 210.361ZM58.0096 205.767H58.3446C59.0677 205.767 59.743 205.703 60.3704 205.575C60.9978 205.448 61.5508 205.246 62.0293 204.969C62.4973 204.682 62.8641 204.31 63.13 203.853C63.3959 203.395 63.5288 202.837 63.5288 202.178C63.5288 201.54 63.3959 200.992 63.13 200.535C62.8641 200.077 62.4973 199.711 62.0293 199.434C61.5508 199.158 60.9978 198.956 60.3704 198.828C59.743 198.69 59.0677 198.621 58.3446 198.621H58.0096C57.3077 198.621 56.6484 198.69 56.0316 198.828C55.4042 198.956 54.8512 199.163 54.3727 199.45C53.8835 199.727 53.5006 200.093 53.2242 200.551C52.9477 201.008 52.8094 201.561 52.8094 202.21C52.8094 202.858 52.9477 203.411 53.2242 203.869C53.5006 204.315 53.8835 204.682 54.3727 204.969C54.8512 205.246 55.4042 205.448 56.0316 205.575C56.6484 205.703 57.3077 205.767 58.0096 205.767ZM49.5394 190.932V186.322H67.8357C69.1118 186.322 70.1912 186.556 71.0738 187.024C71.9565 187.492 72.6264 188.167 73.0837 189.05C73.541 189.932 73.7696 191.001 73.7696 192.256C73.7696 192.649 73.7483 193.032 73.7058 193.404C73.6633 193.787 73.5941 194.181 73.4984 194.585L69.9732 194.569C70.0157 194.314 70.0476 194.064 70.0689 193.819C70.1008 193.585 70.1167 193.346 70.1167 193.101C70.1167 192.623 70.037 192.224 69.8775 191.905C69.7179 191.586 69.468 191.347 69.1277 191.187C68.7981 191.017 68.3674 190.932 67.8357 190.932H49.5394ZM45.0411 191.299C44.3711 191.299 43.8181 191.065 43.3821 190.597C42.9461 190.118 42.7281 189.491 42.7281 188.715C42.7281 187.928 42.9461 187.3 43.3821 186.832C43.8181 186.365 44.3711 186.131 45.0411 186.131C45.711 186.131 46.264 186.365 46.7 186.832C47.136 187.3 47.354 187.928 47.354 188.715C47.354 189.491 47.136 190.118 46.7 190.597C46.264 191.065 45.711 191.299 45.0411 191.299ZM62.9067 173.354H55.2181C54.6651 173.354 54.1919 173.444 53.7984 173.625C53.3943 173.805 53.0806 174.087 52.8573 174.47C52.6339 174.842 52.5223 175.326 52.5223 175.922C52.5223 176.432 52.6127 176.873 52.7935 177.246C52.9636 177.618 53.2135 177.905 53.5432 178.107C53.8622 178.309 54.2397 178.41 54.6757 178.41V183.004C53.942 183.004 53.2454 182.834 52.5861 182.494C51.9268 182.153 51.3472 181.659 50.8474 181.01C50.3369 180.362 49.9382 179.591 49.651 178.697C49.3639 177.793 49.2203 176.783 49.2203 175.666C49.2203 174.327 49.4437 173.135 49.8903 172.093C50.3369 171.051 51.0069 170.232 51.9002 169.637C52.7935 169.031 53.9101 168.728 55.25 168.728H62.6355C63.582 168.728 64.3583 168.669 64.9644 168.552C65.5599 168.435 66.081 168.265 66.5277 168.042H66.7988V172.684C66.3309 172.907 65.746 173.077 65.0442 173.194C64.3317 173.3 63.6192 173.354 62.9067 173.354ZM56.2868 172.747L58.8869 172.715V175.284C58.8869 175.89 58.956 176.416 59.0943 176.863C59.2325 177.309 59.4293 177.676 59.6845 177.963C59.9291 178.251 60.2162 178.463 60.5459 178.602C60.8755 178.729 61.2371 178.793 61.6306 178.793C62.024 178.793 62.3803 178.703 62.6993 178.522C63.0077 178.341 63.2523 178.08 63.4331 177.74C63.6032 177.4 63.6883 177.001 63.6883 176.544C63.6883 175.853 63.5501 175.252 63.2736 174.741C62.9971 174.231 62.6568 173.837 62.2527 173.561C61.8486 173.274 61.4657 173.125 61.1042 173.114L63.0502 171.902C63.4862 172.072 63.9382 172.306 64.4061 172.604C64.874 172.891 65.3153 173.258 65.7301 173.704C66.1342 174.151 66.4692 174.688 66.735 175.316C66.9902 175.943 67.1179 176.687 67.1179 177.549C67.1179 178.644 66.8999 179.638 66.4638 180.532C66.0172 181.414 65.4057 182.116 64.6294 182.637C63.8425 183.148 62.9492 183.403 61.9496 183.403C61.0457 183.403 60.2428 183.233 59.5409 182.892C58.8391 182.552 58.2489 182.052 57.7703 181.393C57.2811 180.723 56.9143 179.888 56.6697 178.889C56.4144 177.889 56.2868 176.73 56.2868 175.411V172.747ZM62.0293 155.855C61.6997 155.855 61.4019 155.95 61.1361 156.142C60.8702 156.333 60.6256 156.69 60.4023 157.211C60.1683 157.721 59.9557 158.46 59.7642 159.428C59.5728 160.3 59.3336 161.113 59.0464 161.868C58.7487 162.613 58.3924 163.262 57.9777 163.815C57.5629 164.357 57.0738 164.782 56.5101 165.091C55.9359 165.399 55.2819 165.553 54.5481 165.553C53.825 165.553 53.1444 165.399 52.5063 165.091C51.8683 164.772 51.3047 164.32 50.8155 163.735C50.3157 163.139 49.9275 162.416 49.651 161.565C49.3639 160.704 49.2203 159.736 49.2203 158.662C49.2203 157.163 49.4596 155.876 49.9382 154.802C50.4167 153.717 51.076 152.888 51.9161 152.314C52.7456 151.729 53.6921 151.436 54.7555 151.436V156.03C54.3088 156.03 53.9101 156.126 53.5591 156.317C53.1976 156.498 52.9158 156.785 52.7137 157.179C52.501 157.562 52.3947 158.061 52.3947 158.678C52.3947 159.189 52.4851 159.63 52.6659 160.002C52.836 160.374 53.07 160.661 53.3677 160.864C53.6548 161.055 53.9739 161.151 54.3248 161.151C54.5907 161.151 54.8299 161.097 55.0426 160.991C55.2447 160.874 55.4308 160.688 55.6009 160.433C55.7711 160.178 55.9306 159.848 56.0795 159.444C56.2177 159.029 56.3453 158.519 56.4623 157.913C56.7175 156.668 57.0525 155.557 57.4672 154.579C57.8713 153.6 58.4243 152.824 59.1262 152.25C59.8174 151.675 60.7266 151.388 61.8539 151.388C62.6196 151.388 63.3214 151.559 63.9595 151.899C64.5975 152.239 65.1558 152.728 65.6344 153.366C66.1023 154.004 66.4692 154.77 66.735 155.663C66.9902 156.546 67.1179 157.54 67.1179 158.646C67.1179 160.252 66.8307 161.613 66.2565 162.73C65.6822 163.836 64.9538 164.676 64.0711 165.25C63.1779 165.814 62.2633 166.096 61.3275 166.096V161.741C61.9549 161.72 62.46 161.56 62.8429 161.262C63.2257 160.954 63.5022 160.566 63.6723 160.098C63.8425 159.619 63.9276 159.104 63.9276 158.551C63.9276 157.955 63.8478 157.461 63.6883 157.067C63.5181 156.674 63.2948 156.376 63.0183 156.174C62.7312 155.961 62.4015 155.855 62.0293 155.855Z" fill="#606060"/>
<path d="M410.437 454.903L415.908 436.527H421.236L413.149 459.752H409.639L410.437 454.903ZM405.396 436.527L410.852 454.903L411.681 459.752H408.14L400.1 436.527H405.396ZM430.36 460.071C429.02 460.071 427.819 459.858 426.755 459.433C425.692 458.997 424.788 458.396 424.043 457.63C423.31 456.865 422.746 455.977 422.353 454.967C421.959 453.946 421.762 452.861 421.762 451.712V451.074C421.762 449.766 421.948 448.57 422.321 447.485C422.693 446.401 423.225 445.459 423.916 444.662C424.618 443.864 425.468 443.253 426.468 442.827C427.468 442.391 428.595 442.173 429.85 442.173C431.073 442.173 432.157 442.376 433.104 442.78C434.05 443.184 434.842 443.758 435.481 444.502C436.129 445.247 436.618 446.14 436.948 447.182C437.278 448.214 437.443 449.362 437.443 450.628V452.542H423.724V449.479H432.928V449.128C432.928 448.49 432.811 447.921 432.577 447.421C432.354 446.911 432.014 446.507 431.556 446.209C431.099 445.911 430.514 445.763 429.802 445.763C429.196 445.763 428.675 445.895 428.239 446.161C427.803 446.427 427.446 446.799 427.17 447.278C426.904 447.756 426.702 448.32 426.564 448.969C426.436 449.607 426.372 450.309 426.372 451.074V451.712C426.372 452.404 426.468 453.042 426.659 453.627C426.861 454.211 427.143 454.717 427.505 455.142C427.877 455.567 428.324 455.897 428.845 456.131C429.376 456.365 429.977 456.482 430.647 456.482C431.477 456.482 432.248 456.322 432.96 456.003C433.683 455.674 434.305 455.179 434.827 454.52L437.06 456.944C436.698 457.466 436.204 457.965 435.576 458.444C434.959 458.922 434.215 459.316 433.343 459.624C432.471 459.922 431.477 460.071 430.36 460.071ZM444.557 446.177V459.752H439.963V442.492H444.27L444.557 446.177ZM443.887 450.516H442.643C442.643 449.24 442.808 448.091 443.137 447.071C443.467 446.039 443.929 445.162 444.525 444.439C445.121 443.705 445.828 443.147 446.647 442.764C447.476 442.37 448.401 442.173 449.422 442.173C450.23 442.173 450.969 442.29 451.639 442.524C452.309 442.758 452.884 443.131 453.362 443.641C453.851 444.151 454.223 444.827 454.479 445.667C454.745 446.507 454.877 447.533 454.877 448.745V459.752H450.252V448.73C450.252 447.964 450.145 447.368 449.933 446.943C449.72 446.518 449.406 446.22 448.991 446.05C448.587 445.869 448.088 445.778 447.492 445.778C446.875 445.778 446.338 445.901 445.881 446.145C445.434 446.39 445.062 446.73 444.764 447.166C444.477 447.592 444.259 448.091 444.11 448.666C443.961 449.24 443.887 449.857 443.887 450.516ZM468.564 455.987V435.251H473.19V459.752H469.026L468.564 455.987ZM457.653 451.33V450.995C457.653 449.676 457.802 448.48 458.1 447.406C458.397 446.321 458.833 445.39 459.408 444.614C459.982 443.838 460.689 443.237 461.529 442.812C462.369 442.386 463.326 442.173 464.401 442.173C465.411 442.173 466.293 442.386 467.048 442.812C467.814 443.237 468.463 443.843 468.995 444.63C469.537 445.406 469.973 446.326 470.303 447.39C470.632 448.442 470.871 449.596 471.02 450.851V451.585C470.871 452.786 470.632 453.903 470.303 454.935C469.973 455.966 469.537 456.87 468.995 457.646C468.463 458.412 467.814 459.008 467.048 459.433C466.283 459.858 465.39 460.071 464.369 460.071C463.295 460.071 462.337 459.853 461.497 459.417C460.668 458.981 459.966 458.369 459.392 457.583C458.828 456.796 458.397 455.87 458.1 454.807C457.802 453.744 457.653 452.584 457.653 451.33ZM462.247 450.995V451.33C462.247 452.042 462.3 452.707 462.407 453.324C462.524 453.94 462.71 454.488 462.965 454.967C463.231 455.434 463.571 455.801 463.986 456.067C464.411 456.322 464.927 456.45 465.533 456.45C466.32 456.45 466.969 456.275 467.479 455.924C467.99 455.562 468.378 455.068 468.644 454.44C468.92 453.813 469.08 453.09 469.122 452.271V450.181C469.09 449.511 468.995 448.91 468.835 448.379C468.686 447.836 468.463 447.374 468.165 446.991C467.878 446.608 467.516 446.31 467.08 446.098C466.655 445.885 466.15 445.778 465.565 445.778C464.969 445.778 464.459 445.917 464.034 446.193C463.608 446.459 463.263 446.826 462.997 447.294C462.742 447.762 462.55 448.315 462.423 448.953C462.306 449.58 462.247 450.261 462.247 450.995ZM486.094 455.86V448.171C486.094 447.618 486.004 447.145 485.823 446.752C485.643 446.347 485.361 446.034 484.978 445.81C484.606 445.587 484.122 445.475 483.526 445.475C483.016 445.475 482.575 445.566 482.202 445.747C481.83 445.917 481.543 446.167 481.341 446.496C481.139 446.815 481.038 447.193 481.038 447.629H476.444C476.444 446.895 476.614 446.199 476.954 445.539C477.295 444.88 477.789 444.3 478.438 443.801C479.086 443.29 479.857 442.891 480.751 442.604C481.655 442.317 482.665 442.173 483.782 442.173C485.121 442.173 486.312 442.397 487.355 442.843C488.397 443.29 489.216 443.96 489.811 444.853C490.417 445.747 490.72 446.863 490.72 448.203V455.589C490.72 456.535 490.779 457.311 490.896 457.918C491.013 458.513 491.183 459.034 491.406 459.481V459.752H486.764C486.541 459.284 486.371 458.699 486.254 457.997C486.148 457.285 486.094 456.572 486.094 455.86ZM486.701 449.24L486.733 451.84H484.164C483.558 451.84 483.032 451.909 482.585 452.047C482.139 452.186 481.772 452.382 481.485 452.638C481.197 452.882 480.985 453.169 480.846 453.499C480.719 453.829 480.655 454.19 480.655 454.584C480.655 454.977 480.745 455.333 480.926 455.652C481.107 455.961 481.368 456.205 481.708 456.386C482.048 456.556 482.447 456.641 482.904 456.641C483.595 456.641 484.196 456.503 484.707 456.227C485.217 455.95 485.611 455.61 485.887 455.206C486.174 454.802 486.323 454.419 486.334 454.057L487.546 456.003C487.376 456.439 487.142 456.891 486.844 457.359C486.557 457.827 486.19 458.268 485.744 458.683C485.297 459.087 484.76 459.422 484.132 459.688C483.505 459.943 482.761 460.071 481.899 460.071C480.804 460.071 479.81 459.853 478.916 459.417C478.034 458.97 477.332 458.359 476.811 457.583C476.3 456.796 476.045 455.902 476.045 454.903C476.045 453.999 476.215 453.196 476.556 452.494C476.896 451.792 477.396 451.202 478.055 450.723C478.725 450.234 479.56 449.867 480.559 449.623C481.559 449.368 482.718 449.24 484.037 449.24H486.701ZM503.593 454.982C503.593 454.653 503.497 454.355 503.306 454.089C503.115 453.823 502.758 453.579 502.237 453.355C501.727 453.121 500.988 452.909 500.02 452.717C499.148 452.526 498.335 452.287 497.58 452C496.835 451.702 496.186 451.346 495.633 450.931C495.091 450.516 494.666 450.027 494.357 449.463C494.049 448.889 493.895 448.235 493.895 447.501C493.895 446.778 494.049 446.098 494.357 445.459C494.676 444.821 495.128 444.258 495.713 443.769C496.309 443.269 497.032 442.881 497.883 442.604C498.744 442.317 499.712 442.173 500.786 442.173C502.285 442.173 503.572 442.413 504.646 442.891C505.731 443.37 506.56 444.029 507.134 444.869C507.719 445.699 508.012 446.645 508.012 447.709H503.418C503.418 447.262 503.322 446.863 503.131 446.512C502.95 446.151 502.663 445.869 502.269 445.667C501.886 445.454 501.387 445.348 500.77 445.348C500.259 445.348 499.818 445.438 499.446 445.619C499.074 445.789 498.787 446.023 498.584 446.321C498.393 446.608 498.297 446.927 498.297 447.278C498.297 447.544 498.35 447.783 498.457 447.996C498.574 448.198 498.76 448.384 499.015 448.554C499.27 448.724 499.6 448.884 500.004 449.033C500.419 449.171 500.929 449.298 501.535 449.415C502.78 449.671 503.891 450.006 504.869 450.42C505.848 450.824 506.624 451.377 507.198 452.079C507.772 452.771 508.06 453.68 508.06 454.807C508.06 455.573 507.889 456.275 507.549 456.913C507.209 457.551 506.72 458.109 506.082 458.587C505.444 459.055 504.678 459.422 503.785 459.688C502.902 459.943 501.908 460.071 500.802 460.071C499.196 460.071 497.835 459.784 496.718 459.21C495.612 458.635 494.772 457.907 494.198 457.024C493.634 456.131 493.352 455.216 493.352 454.281H497.707C497.728 454.908 497.888 455.413 498.186 455.796C498.494 456.179 498.882 456.455 499.35 456.625C499.829 456.796 500.344 456.881 500.897 456.881C501.493 456.881 501.987 456.801 502.381 456.641C502.774 456.471 503.072 456.248 503.274 455.971C503.487 455.684 503.593 455.355 503.593 454.982Z" fill="#606060"/>
<line x1="304.927" y1="386.621" x2="304.927" y2="67.9254" stroke="#CACACA" stroke-width="3.62984"/>
<line x1="436.125" y1="386.62" x2="436.125" y2="67.9244" stroke="#CACACA" stroke-width="3.62984"/>
<line x1="567.318" y1="386.621" x2="567.318" y2="67.9254" stroke="#CACACA" stroke-width="3.62984"/>
<line x1="698.519" y1="386.621" x2="698.519" y2="67.9254" stroke="#CACACA" stroke-width="3.62984"/>
<line x1="206.527" y1="382.367" x2="206.527" y2="366.033" stroke="#CACACA" stroke-width="3.62984"/>
<line x1="239.33" y1="382.367" x2="239.33" y2="366.033" stroke="#CACACA" stroke-width="3.62984"/>
<line x1="272.132" y1="382.367" x2="272.132" y2="366.033" stroke="#CACACA" stroke-width="3.62984"/>
<line x1="337.726" y1="381.242" x2="337.726" y2="364.908" stroke="#CACACA" stroke-width="3.62984"/>
<line x1="370.531" y1="381.242" x2="370.531" y2="364.908" stroke="#CACACA" stroke-width="3.62984"/>
<line x1="403.326" y1="381.24" x2="403.326" y2="364.906" stroke="#CACACA" stroke-width="3.62984"/>
<line x1="468.923" y1="382.367" x2="468.923" y2="366.033" stroke="#CACACA" stroke-width="3.62984"/>
<line x1="501.722" y1="382.367" x2="501.722" y2="366.033" stroke="#CACACA" stroke-width="3.62984"/>
<line x1="534.523" y1="382.367" x2="534.523" y2="366.033" stroke="#CACACA" stroke-width="3.62984"/>
<line x1="600.123" y1="382.367" x2="600.123" y2="366.033" stroke="#CACACA" stroke-width="3.62984"/>
<line x1="632.921" y1="382.367" x2="632.921" y2="366.033" stroke="#CACACA" stroke-width="3.62984"/>
<line x1="665.72" y1="382.367" x2="665.72" y2="366.033" stroke="#CACACA" stroke-width="3.62984"/>
<rect x="172.814" y="79.3643" width="415.684" height="45.3666" fill="#0567FF"/>
<rect x="172.814" y="164.822" width="467.381" height="45.3666" fill="#0567FF"/>
<rect x="172.814" y="261.886" width="293.3" height="45.3666" fill="#0567FF"/>
<rect x="2.78758" y="1.88035" width="769.375" height="513.049" stroke="#0567FF" stroke-width="3.62984"/>
</svg>
