<svg width="1220" height="171" viewBox="0 0 1220 171" fill="none" xmlns="http://www.w3.org/2000/svg">
<path d="M277.84 16.7948C277.131 17.5035 277.131 18.6527 277.84 19.3615L289.39 30.9115C290.099 31.6203 291.248 31.6203 291.957 30.9115C292.666 30.2028 292.666 29.0536 291.957 28.3449L281.69 18.0781L291.957 7.81139C292.666 7.10262 292.666 5.95347 291.957 5.2447C291.248 4.53593 290.099 4.53593 289.39 5.2447L277.84 16.7948ZM315.422 16.2632L279.123 16.2632L279.123 19.893L315.422 19.893L315.422 16.2632Z" fill="#0567FF"/>
<path d="M40.95 12.9363V14.6981H33.6921V12.9363H40.95ZM36.1487 9.67337H38.4439V23.0354C38.4439 23.4903 38.5142 23.8335 38.6548 24.0651C38.7954 24.2967 38.9774 24.4497 39.2007 24.5242C39.424 24.5986 39.6639 24.6358 39.9203 24.6358C40.1105 24.6358 40.309 24.6193 40.5158 24.5862C40.7309 24.5448 40.8921 24.5118 40.9997 24.4869L41.0121 26.3604C40.8301 26.4182 40.5902 26.472 40.2925 26.5216C40.003 26.5795 39.6515 26.6085 39.2379 26.6085C38.6755 26.6085 38.1585 26.4968 37.6871 26.2735C37.2156 26.0502 36.8393 25.678 36.5581 25.1569C36.2851 24.6276 36.1487 23.9162 36.1487 23.023V9.67337ZM46.1236 12.9363V26.3604H43.8284V12.9363H46.1236ZM43.7539 10.9761L46.1608 7.32851H48.9275L45.6025 10.9761H43.7539ZM55.5651 12.9363V14.6981H48.3072V12.9363H55.5651ZM50.7637 9.67337H53.059V23.0354C53.059 23.4903 53.1293 23.8335 53.2699 24.0651C53.4105 24.2967 53.5924 24.4497 53.8158 24.5242C54.0391 24.5986 54.2789 24.6358 54.5354 24.6358C54.7256 24.6358 54.9241 24.6193 55.1309 24.5862C55.3459 24.5448 55.5072 24.5118 55.6147 24.4869L55.6271 26.3604C55.4452 26.4182 55.2053 26.472 54.9076 26.5216C54.6181 26.5795 54.2665 26.6085 53.853 26.6085C53.2905 26.6085 52.7736 26.4968 52.3021 26.2735C51.8307 26.0502 51.4544 25.678 51.1731 25.1569C50.9002 24.6276 50.7637 23.9162 50.7637 23.023V9.67337ZM66.4706 23.2587V12.9363H68.7782V26.3604H66.5822L66.4706 23.2587ZM66.9048 20.43L67.8601 20.4051C67.8601 21.2984 67.765 22.1255 67.5748 22.8865C67.3928 23.6392 67.095 24.2926 66.6815 24.8467C66.2679 25.4009 65.7262 25.8351 65.0562 26.1494C64.3863 26.4555 63.5715 26.6085 62.6121 26.6085C61.9587 26.6085 61.359 26.5134 60.8131 26.3231C60.2755 26.1329 59.8123 25.8393 59.4236 25.4423C59.0348 25.0452 58.7329 24.5283 58.5179 23.8914C58.3111 23.2545 58.2077 22.4895 58.2077 21.5962V12.9363H60.503V21.621C60.503 22.2248 60.5691 22.7252 60.7015 23.1222C60.8421 23.511 61.0282 23.8211 61.2598 24.0527C61.4996 24.276 61.7643 24.4332 62.0538 24.5242C62.3516 24.6151 62.6576 24.6606 62.9719 24.6606C63.9479 24.6606 64.7212 24.4745 65.2919 24.1023C65.8626 23.7219 66.2721 23.2132 66.5202 22.5763C66.7766 21.9312 66.9048 21.2157 66.9048 20.43ZM74.7706 7.3037V26.3604H72.463V7.3037H74.7706ZM77.8475 19.7972V19.5119C77.8475 18.5441 77.9881 17.6467 78.2693 16.8196C78.5505 15.9842 78.9558 15.2605 79.4852 14.6484C80.0145 14.0281 80.6555 13.5484 81.4082 13.2093C82.1609 12.8619 83.0045 12.6882 83.9392 12.6882C84.8821 12.6882 85.7299 12.8619 86.4825 13.2093C87.2435 13.5484 87.8886 14.0281 88.418 14.6484C88.9556 15.2605 89.365 15.9842 89.6462 16.8196C89.9275 17.6467 90.0681 18.5441 90.0681 19.5119V19.7972C90.0681 20.7649 89.9275 21.6624 89.6462 22.4895C89.365 23.3166 88.9556 24.0403 88.418 24.6606C87.8886 25.2727 87.2476 25.7524 86.4949 26.0998C85.7505 26.4389 84.9069 26.6085 83.964 26.6085C83.0211 26.6085 82.1733 26.4389 81.4206 26.0998C80.6679 25.7524 80.0228 25.2727 79.4852 24.6606C78.9558 24.0403 78.5505 23.3166 78.2693 22.4895C77.9881 21.6624 77.8475 20.7649 77.8475 19.7972ZM80.1427 19.5119V19.7972C80.1427 20.4672 80.2213 21.0999 80.3785 21.6954C80.5356 22.2827 80.7713 22.8038 81.0856 23.2587C81.4082 23.7136 81.8094 24.0734 82.2891 24.3381C82.7688 24.5945 83.3271 24.7227 83.964 24.7227C84.5926 24.7227 85.1426 24.5945 85.6141 24.3381C86.0938 24.0734 86.4908 23.7136 86.8051 23.2587C87.1194 22.8038 87.3551 22.2827 87.5123 21.6954C87.6777 21.0999 87.7604 20.4672 87.7604 19.7972V19.5119C87.7604 18.8502 87.6777 18.2257 87.5123 17.6385C87.3551 17.0429 87.1153 16.5177 86.7927 16.0628C86.4784 15.5996 86.0814 15.2357 85.6017 14.971C85.1302 14.7063 84.576 14.574 83.9392 14.574C83.3106 14.574 82.7564 14.7063 82.2767 14.971C81.8052 15.2357 81.4082 15.5996 81.0856 16.0628C80.7713 16.5177 80.5356 17.0429 80.3785 17.6385C80.2213 18.2257 80.1427 18.8502 80.1427 19.5119ZM107.71 23.7549V7.3037H110.018V26.3604H107.909L107.71 23.7549ZM98.6783 19.7972V19.5367C98.6783 18.5111 98.8024 17.5806 99.0505 16.7452C99.3069 15.9015 99.6667 15.1778 100.13 14.574C100.601 13.9702 101.16 13.507 101.805 13.1845C102.458 12.8536 103.186 12.6882 103.988 12.6882C104.832 12.6882 105.568 12.8371 106.197 13.1348C106.834 13.4243 107.371 13.8503 107.81 14.4127C108.256 14.9669 108.608 15.6368 108.864 16.4226C109.121 17.2084 109.298 18.0975 109.398 19.09V20.2315C109.307 21.2157 109.129 22.1007 108.864 22.8865C108.608 23.6722 108.256 24.3422 107.81 24.8964C107.371 25.4505 106.834 25.8765 106.197 26.1743C105.56 26.4637 104.815 26.6085 103.964 26.6085C103.178 26.6085 102.458 26.4389 101.805 26.0998C101.16 25.7607 100.601 25.2851 100.13 24.673C99.6667 24.061 99.3069 23.3414 99.0505 22.5143C98.8024 21.6789 98.6783 20.7732 98.6783 19.7972ZM100.986 19.5367V19.7972C100.986 20.4672 101.052 21.0958 101.184 21.683C101.325 22.2703 101.54 22.7872 101.83 23.2339C102.119 23.6805 102.487 24.032 102.934 24.2884C103.38 24.5366 103.914 24.6606 104.534 24.6606C105.295 24.6606 105.92 24.4994 106.408 24.1768C106.904 23.8542 107.301 23.4282 107.599 22.8989C107.896 22.3695 108.128 21.7947 108.293 21.1744V18.1844C108.194 17.7294 108.049 17.2911 107.859 16.8692C107.677 16.4391 107.437 16.0587 107.14 15.7278C106.85 15.3887 106.49 15.1199 106.06 14.9214C105.638 14.7229 105.138 14.6236 104.559 14.6236C103.93 14.6236 103.389 14.756 102.934 15.0206C102.487 15.2771 102.119 15.6327 101.83 16.0876C101.54 16.5343 101.325 17.0553 101.184 17.6509C101.052 18.2381 100.986 18.8667 100.986 19.5367ZM121.507 24.0651V17.1546C121.507 16.6252 121.399 16.1662 121.184 15.7775C120.977 15.3804 120.663 15.0744 120.241 14.8594C119.819 14.6443 119.298 14.5368 118.678 14.5368C118.099 14.5368 117.59 14.636 117.152 14.8345C116.722 15.0331 116.383 15.2936 116.134 15.6162C115.895 15.9387 115.775 16.2861 115.775 16.6583H113.479C113.479 16.1786 113.604 15.703 113.852 15.2316C114.1 14.7601 114.455 14.3341 114.919 13.9537C115.39 13.5649 115.953 13.2589 116.606 13.0356C117.268 12.804 118.004 12.6882 118.814 12.6882C119.79 12.6882 120.651 12.8536 121.395 13.1845C122.148 13.5153 122.735 14.0157 123.157 14.6857C123.587 15.3474 123.802 16.1786 123.802 17.1794V23.4324C123.802 23.879 123.839 24.3546 123.913 24.8591C123.996 25.3637 124.116 25.7979 124.273 26.1618V26.3604H121.879C121.763 26.0957 121.672 25.7442 121.606 25.3058C121.54 24.8591 121.507 24.4456 121.507 24.0651ZM121.904 18.2216L121.928 19.8344H119.608C118.955 19.8344 118.372 19.8882 117.859 19.9957C117.346 20.095 116.916 20.248 116.569 20.4548C116.221 20.6616 115.957 20.9221 115.775 21.2364C115.593 21.5424 115.502 21.9022 115.502 22.3158C115.502 22.7376 115.597 23.1222 115.787 23.4696C115.977 23.817 116.263 24.0941 116.643 24.3008C117.032 24.4994 117.508 24.5986 118.07 24.5986C118.773 24.5986 119.393 24.4497 119.931 24.152C120.469 23.8542 120.895 23.4903 121.209 23.0602C121.531 22.6301 121.705 22.2124 121.73 21.8071L122.71 22.9113C122.652 23.2587 122.495 23.6433 122.239 24.0651C121.982 24.4869 121.639 24.8922 121.209 25.281C120.787 25.6614 120.282 25.9799 119.695 26.2363C119.116 26.4844 118.463 26.6085 117.735 26.6085C116.825 26.6085 116.027 26.4307 115.34 26.075C114.662 25.7193 114.133 25.2438 113.752 24.6482C113.38 24.0444 113.194 23.3703 113.194 22.6259C113.194 21.9064 113.335 21.2736 113.616 20.7277C113.897 20.1736 114.302 19.7145 114.832 19.3506C115.361 18.9784 115.998 18.6972 116.742 18.5069C117.487 18.3167 118.318 18.2216 119.236 18.2216H121.904ZM136.208 7.3037V26.3604H133.901V7.3037H136.208ZM145.464 26.6085C144.529 26.6085 143.681 26.4513 142.921 26.137C142.168 25.8145 141.519 25.3637 140.973 24.7847C140.435 24.2057 140.021 23.5192 139.732 22.7252C139.443 21.9312 139.298 21.0627 139.298 20.1198V19.5987C139.298 18.5069 139.459 17.5351 139.782 16.6831C140.104 15.8229 140.543 15.0951 141.097 14.4996C141.651 13.904 142.279 13.4533 142.983 13.1472C143.686 12.8412 144.413 12.6882 145.166 12.6882C146.126 12.6882 146.953 12.8536 147.647 13.1845C148.35 13.5153 148.925 13.9785 149.372 14.574C149.819 15.1613 150.149 15.856 150.365 16.6583C150.58 17.4524 150.687 18.3208 150.687 19.2637V20.2935H140.662V18.4201H148.392V18.2464C148.359 17.6509 148.235 17.0719 148.02 16.5095C147.813 15.947 147.482 15.4838 147.027 15.1199C146.572 14.756 145.952 14.574 145.166 14.574C144.645 14.574 144.165 14.6857 143.727 14.909C143.289 15.124 142.912 15.4466 142.598 15.8767C142.284 16.3068 142.04 16.832 141.866 17.4524C141.692 18.0727 141.605 18.7881 141.605 19.5987V20.1198C141.605 20.7567 141.692 21.3563 141.866 21.9188C142.048 22.4729 142.308 22.9609 142.648 23.3827C142.995 23.8046 143.413 24.1354 143.901 24.3753C144.397 24.6151 144.959 24.7351 145.588 24.7351C146.399 24.7351 147.085 24.5697 147.647 24.2388C148.21 23.908 148.702 23.4655 149.124 22.9113L150.513 24.0155C150.224 24.4539 149.856 24.8716 149.409 25.2686C148.963 25.6656 148.413 25.9882 147.759 26.2363C147.114 26.4844 146.349 26.6085 145.464 26.6085ZM162.064 12.9363H164.148V26.075C164.148 27.2578 163.908 28.2668 163.429 29.1022C162.949 29.9376 162.279 30.5704 161.419 31.0004C160.567 31.4388 159.583 31.658 158.466 31.658C158.003 31.658 157.457 31.5836 156.828 31.4347C156.208 31.2941 155.596 31.0501 154.992 30.7027C154.397 30.3636 153.896 29.9045 153.491 29.3255L154.694 27.9608C155.257 28.639 155.844 29.1105 156.456 29.3752C157.077 29.6398 157.689 29.7722 158.292 29.7722C159.02 29.7722 159.649 29.6357 160.178 29.3628C160.708 29.0898 161.117 28.6845 161.406 28.1469C161.704 27.6176 161.853 26.9641 161.853 26.1867V15.8891L162.064 12.9363ZM152.821 19.7972V19.5367C152.821 18.5111 152.941 17.5806 153.181 16.7452C153.429 15.9015 153.78 15.1778 154.235 14.574C154.699 13.9702 155.257 13.507 155.91 13.1845C156.564 12.8536 157.3 12.6882 158.119 12.6882C158.962 12.6882 159.698 12.8371 160.327 13.1348C160.964 13.4243 161.502 13.8503 161.94 14.4127C162.387 14.9669 162.738 15.6368 162.995 16.4226C163.251 17.2084 163.429 18.0975 163.528 19.09V20.2315C163.437 21.2157 163.259 22.1007 162.995 22.8865C162.738 23.6722 162.387 24.3422 161.94 24.8964C161.502 25.4505 160.964 25.8765 160.327 26.1743C159.69 26.4637 158.946 26.6085 158.094 26.6085C157.292 26.6085 156.564 26.4389 155.91 26.0998C155.265 25.7607 154.711 25.2851 154.248 24.673C153.785 24.061 153.429 23.3414 153.181 22.5143C152.941 21.6789 152.821 20.7732 152.821 19.7972ZM155.116 19.5367V19.7972C155.116 20.4672 155.182 21.0958 155.315 21.683C155.455 22.2703 155.666 22.7872 155.948 23.2339C156.237 23.6805 156.605 24.032 157.052 24.2884C157.498 24.5366 158.032 24.6606 158.652 24.6606C159.413 24.6606 160.042 24.4994 160.538 24.1768C161.034 23.8542 161.427 23.4282 161.717 22.8989C162.014 22.3695 162.246 21.7947 162.411 21.1744V18.1844C162.32 17.7294 162.18 17.2911 161.99 16.8692C161.808 16.4391 161.568 16.0587 161.27 15.7278C160.98 15.3887 160.621 15.1199 160.191 14.9214C159.761 14.7229 159.256 14.6236 158.677 14.6236C158.048 14.6236 157.507 14.756 157.052 15.0206C156.605 15.2771 156.237 15.6327 155.948 16.0876C155.666 16.5343 155.455 17.0553 155.315 17.6509C155.182 18.2381 155.116 18.8667 155.116 19.5367ZM173.205 26.6085C172.271 26.6085 171.423 26.4513 170.662 26.137C169.909 25.8145 169.26 25.3637 168.714 24.7847C168.176 24.2057 167.763 23.5192 167.473 22.7252C167.184 21.9312 167.039 21.0627 167.039 20.1198V19.5987C167.039 18.5069 167.2 17.5351 167.523 16.6831C167.846 15.8229 168.284 15.0951 168.838 14.4996C169.392 13.904 170.021 13.4533 170.724 13.1472C171.427 12.8412 172.155 12.6882 172.907 12.6882C173.867 12.6882 174.694 12.8536 175.389 13.1845C176.092 13.5153 176.667 13.9785 177.113 14.574C177.56 15.1613 177.891 15.856 178.106 16.6583C178.321 17.4524 178.428 18.3208 178.428 19.2637V20.2935H168.404V18.4201H176.133V18.2464C176.1 17.6509 175.976 17.0719 175.761 16.5095C175.554 15.947 175.223 15.4838 174.768 15.1199C174.314 14.756 173.693 14.574 172.907 14.574C172.386 14.574 171.907 14.6857 171.468 14.909C171.03 15.124 170.654 15.4466 170.339 15.8767C170.025 16.3068 169.781 16.832 169.607 17.4524C169.434 18.0727 169.347 18.7881 169.347 19.5987V20.1198C169.347 20.7567 169.434 21.3563 169.607 21.9188C169.789 22.4729 170.05 22.9609 170.389 23.3827C170.736 23.8046 171.154 24.1354 171.642 24.3753C172.138 24.6151 172.701 24.7351 173.329 24.7351C174.14 24.7351 174.826 24.5697 175.389 24.2388C175.951 23.908 176.443 23.4655 176.865 22.9113L178.255 24.0155C177.965 24.4539 177.597 24.8716 177.151 25.2686C176.704 25.6656 176.154 25.9882 175.5 26.2363C174.855 26.4844 174.09 26.6085 173.205 26.6085ZM183.403 15.8023V26.3604H181.108V12.9363H183.279L183.403 15.8023ZM182.858 19.1397L181.902 19.1024C181.911 18.1844 182.047 17.3366 182.312 16.5591C182.576 15.7733 182.949 15.091 183.428 14.512C183.908 13.933 184.479 13.4864 185.14 13.1721C185.81 12.8495 186.551 12.6882 187.361 12.6882C188.023 12.6882 188.618 12.7792 189.148 12.9611C189.677 13.1348 190.128 13.4161 190.5 13.8048C190.881 14.1935 191.17 14.6981 191.369 15.3184C191.567 15.9305 191.666 16.679 191.666 17.564V26.3604H189.359V17.5392C189.359 16.8362 189.255 16.2737 189.049 15.8519C188.842 15.4218 188.54 15.1116 188.143 14.9214C187.746 14.7229 187.258 14.6236 186.679 14.6236C186.108 14.6236 185.587 14.7436 185.116 14.9834C184.652 15.2233 184.251 15.5541 183.912 15.976C183.581 16.3978 183.321 16.8817 183.131 17.4275C182.949 17.9652 182.858 18.5359 182.858 19.1397ZM203.614 23.7549V7.3037H205.922V26.3604H203.812L203.614 23.7549ZM194.582 19.7972V19.5367C194.582 18.5111 194.706 17.5806 194.954 16.7452C195.211 15.9015 195.57 15.1778 196.033 14.574C196.505 13.9702 197.063 13.507 197.708 13.1845C198.362 12.8536 199.09 12.6882 199.892 12.6882C200.736 12.6882 201.472 12.8371 202.1 13.1348C202.737 13.4243 203.275 13.8503 203.713 14.4127C204.16 14.9669 204.511 15.6368 204.768 16.4226C205.024 17.2084 205.202 18.0975 205.301 19.09V20.2315C205.21 21.2157 205.032 22.1007 204.768 22.8865C204.511 23.6722 204.16 24.3422 203.713 24.8964C203.275 25.4505 202.737 25.8765 202.1 26.1743C201.463 26.4637 200.719 26.6085 199.867 26.6085C199.081 26.6085 198.362 26.4389 197.708 26.0998C197.063 25.7607 196.505 25.2851 196.033 24.673C195.57 24.061 195.211 23.3414 194.954 22.5143C194.706 21.6789 194.582 20.7732 194.582 19.7972ZM196.89 19.5367V19.7972C196.89 20.4672 196.956 21.0958 197.088 21.683C197.229 22.2703 197.444 22.7872 197.733 23.2339C198.023 23.6805 198.391 24.032 198.837 24.2884C199.284 24.5366 199.818 24.6606 200.438 24.6606C201.199 24.6606 201.823 24.4994 202.311 24.1768C202.808 23.8542 203.205 23.4282 203.502 22.8989C203.8 22.3695 204.032 21.7947 204.197 21.1744V18.1844C204.098 17.7294 203.953 17.2911 203.763 16.8692C203.581 16.4391 203.341 16.0587 203.043 15.7278C202.754 15.3887 202.394 15.1199 201.964 14.9214C201.542 14.7229 201.042 14.6236 200.463 14.6236C199.834 14.6236 199.292 14.756 198.837 15.0206C198.391 15.2771 198.023 15.6327 197.733 16.0876C197.444 16.5343 197.229 17.0553 197.088 17.6509C196.956 18.2381 196.89 18.8667 196.89 19.5367ZM217.41 24.0651V17.1546C217.41 16.6252 217.303 16.1662 217.088 15.7775C216.881 15.3804 216.567 15.0744 216.145 14.8594C215.723 14.6443 215.202 14.5368 214.581 14.5368C214.002 14.5368 213.494 14.636 213.055 14.8345C212.625 15.0331 212.286 15.2936 212.038 15.6162C211.798 15.9387 211.678 16.2861 211.678 16.6583H209.383C209.383 16.1786 209.507 15.703 209.755 15.2316C210.003 14.7601 210.359 14.3341 210.822 13.9537C211.294 13.5649 211.856 13.2589 212.51 13.0356C213.171 12.804 213.907 12.6882 214.718 12.6882C215.694 12.6882 216.554 12.8536 217.299 13.1845C218.051 13.5153 218.638 14.0157 219.06 14.6857C219.49 15.3474 219.705 16.1786 219.705 17.1794V23.4324C219.705 23.879 219.743 24.3546 219.817 24.8591C219.9 25.3637 220.02 25.7979 220.177 26.1618V26.3604H217.782C217.667 26.0957 217.576 25.7442 217.509 25.3058C217.443 24.8591 217.41 24.4456 217.41 24.0651ZM217.807 18.2216L217.832 19.8344H215.512C214.859 19.8344 214.275 19.8882 213.763 19.9957C213.25 20.095 212.82 20.248 212.472 20.4548C212.125 20.6616 211.86 20.9221 211.678 21.2364C211.496 21.5424 211.405 21.9022 211.405 22.3158C211.405 22.7376 211.5 23.1222 211.691 23.4696C211.881 23.817 212.166 24.0941 212.547 24.3008C212.936 24.4994 213.411 24.5986 213.974 24.5986C214.677 24.5986 215.297 24.4497 215.835 24.152C216.372 23.8542 216.798 23.4903 217.112 23.0602C217.435 22.6301 217.609 22.2124 217.634 21.8071L218.614 22.9113C218.556 23.2587 218.399 23.6433 218.142 24.0651C217.886 24.4869 217.543 24.8922 217.112 25.281C216.691 25.6614 216.186 25.9799 215.599 26.2363C215.02 26.4844 214.366 26.6085 213.639 26.6085C212.729 26.6085 211.931 26.4307 211.244 26.075C210.566 25.7193 210.036 25.2438 209.656 24.6482C209.284 24.0444 209.098 23.3703 209.098 22.6259C209.098 21.9064 209.238 21.2736 209.52 20.7277C209.801 20.1736 210.206 19.7145 210.735 19.3506C211.265 18.9784 211.902 18.6972 212.646 18.5069C213.39 18.3167 214.222 18.2216 215.14 18.2216H217.807Z" fill="#0567FF"/>
<path d="M277.84 151.509C277.131 152.217 277.131 153.367 277.84 154.075L289.39 165.625C290.099 166.334 291.248 166.334 291.957 165.625C292.666 164.917 292.666 163.767 291.957 163.059L281.69 152.792L291.957 142.525C292.666 141.816 292.666 140.667 291.957 139.959C291.248 139.25 290.099 139.25 289.39 139.959L277.84 151.509ZM315.422 150.977L279.123 150.977L279.123 154.607L315.422 154.607L315.422 150.977Z" fill="#0567FF"/>
<path d="M12.682 161.321C11.7473 161.321 10.8996 161.164 10.1386 160.85C9.38594 160.527 8.73665 160.077 8.19076 159.498C7.65314 158.919 7.23958 158.232 6.95009 157.438C6.6606 156.644 6.51586 155.776 6.51586 154.833V154.312C6.51586 153.22 6.67715 152.248 6.99972 151.396C7.32229 150.536 7.76066 149.808 8.31483 149.212C8.86899 148.617 9.4976 148.166 10.2006 147.86C10.9037 147.554 11.6315 147.401 12.3842 147.401C13.3437 147.401 14.1708 147.567 14.8656 147.897C15.5686 148.228 16.1434 148.691 16.5901 149.287C17.0367 149.874 17.3676 150.569 17.5826 151.371C17.7977 152.165 17.9052 153.034 17.9052 153.977V155.006H7.88059V153.133H15.61V152.959C15.5769 152.364 15.4528 151.785 15.2378 151.222C15.031 150.66 14.7001 150.197 14.2452 149.833C13.7903 149.469 13.17 149.287 12.3842 149.287C11.8631 149.287 11.3834 149.399 10.945 149.622C10.5067 149.837 10.1303 150.16 9.81603 150.59C9.50173 151.02 9.25773 151.545 9.08404 152.165C8.91035 152.786 8.8235 153.501 8.8235 154.312V154.833C8.8235 155.47 8.91035 156.069 9.08404 156.632C9.26601 157.186 9.52655 157.674 9.86566 158.096C10.213 158.517 10.6307 158.848 11.1187 159.088C11.615 159.328 12.1774 159.448 12.806 159.448C13.6166 159.448 14.3031 159.283 14.8656 158.952C15.428 158.621 15.9201 158.178 16.3419 157.624L17.7315 158.728C17.442 159.167 17.0739 159.584 16.6273 159.981C16.1807 160.378 15.6306 160.701 14.9772 160.949C14.3321 161.197 13.567 161.321 12.682 161.321ZM28.4012 157.513C28.4012 157.182 28.3268 156.876 28.1779 156.594C28.0373 156.305 27.7437 156.044 27.297 155.813C26.8587 155.573 26.197 155.366 25.312 155.192C24.5676 155.035 23.8935 154.849 23.2897 154.634C22.6942 154.419 22.1855 154.159 21.7637 153.853C21.3501 153.547 21.0317 153.187 20.8083 152.773C20.585 152.36 20.4734 151.876 20.4734 151.322C20.4734 150.792 20.5892 150.292 20.8208 149.82C21.0606 149.349 21.3956 148.931 21.8257 148.567C22.2641 148.203 22.7893 147.918 23.4013 147.711C24.0134 147.504 24.6958 147.401 25.4484 147.401C26.5237 147.401 27.4418 147.591 28.2027 147.972C28.9637 148.352 29.5468 148.861 29.9521 149.498C30.3574 150.126 30.56 150.825 30.56 151.595H28.2648C28.2648 151.222 28.1531 150.863 27.9298 150.515C27.7147 150.16 27.3963 149.866 26.9745 149.634C26.5609 149.403 26.0522 149.287 25.4484 149.287C24.8116 149.287 24.2946 149.386 23.8976 149.585C23.5089 149.775 23.2235 150.019 23.0416 150.317C22.8679 150.614 22.781 150.929 22.781 151.26C22.781 151.508 22.8224 151.731 22.9051 151.93C22.9961 152.12 23.1532 152.298 23.3765 152.463C23.5999 152.62 23.9142 152.769 24.3194 152.91C24.7247 153.05 25.2417 153.191 25.8703 153.331C26.9703 153.58 27.876 153.877 28.5873 154.225C29.2987 154.572 29.828 154.998 30.1754 155.503C30.5228 156.007 30.6965 156.619 30.6965 157.339C30.6965 157.926 30.5724 158.464 30.3243 158.952C30.0844 159.44 29.7329 159.862 29.2697 160.217C28.8148 160.565 28.2689 160.838 27.632 161.036C27.0034 161.226 26.2962 161.321 25.5105 161.321C24.3277 161.321 23.3269 161.11 22.5081 160.689C21.6892 160.267 21.0689 159.721 20.6471 159.051C20.2252 158.381 20.0143 157.674 20.0143 156.929H22.322C22.355 157.558 22.537 158.058 22.8679 158.431C23.1987 158.795 23.604 159.055 24.0837 159.212C24.5634 159.361 25.039 159.436 25.5105 159.436C26.1391 159.436 26.6643 159.353 27.0861 159.187C27.5162 159.022 27.8429 158.795 28.0663 158.505C28.2896 158.216 28.4012 157.885 28.4012 157.513ZM39.0834 159.436C39.6293 159.436 40.1338 159.324 40.597 159.101C41.0602 158.877 41.4407 158.571 41.7384 158.182C42.0362 157.785 42.2057 157.335 42.2471 156.83H44.4307C44.3893 157.624 44.1205 158.364 43.6242 159.051C43.1362 159.729 42.4952 160.279 41.7012 160.701C40.9072 161.115 40.0346 161.321 39.0834 161.321C38.0743 161.321 37.1934 161.144 36.4408 160.788C35.6964 160.432 35.076 159.944 34.5798 159.324C34.0918 158.704 33.7237 157.992 33.4756 157.19C33.2357 156.379 33.1158 155.523 33.1158 154.622V154.101C33.1158 153.199 33.2357 152.347 33.4756 151.545C33.7237 150.734 34.0918 150.019 34.5798 149.399C35.076 148.778 35.6964 148.29 36.4408 147.935C37.1934 147.579 38.0743 147.401 39.0834 147.401C40.1338 147.401 41.0519 147.616 41.8377 148.046C42.6234 148.468 43.2396 149.047 43.6863 149.783C44.1412 150.511 44.3893 151.338 44.4307 152.265H42.2471C42.2057 151.71 42.0486 151.21 41.7756 150.763C41.511 150.317 41.147 149.961 40.6838 149.696C40.2289 149.423 39.6954 149.287 39.0834 149.287C38.3803 149.287 37.789 149.428 37.3092 149.709C36.8378 149.982 36.4614 150.354 36.1802 150.825C35.9073 151.289 35.7088 151.805 35.5847 152.376C35.4689 152.939 35.411 153.513 35.411 154.101V154.622C35.411 155.209 35.4689 155.788 35.5847 156.359C35.7005 156.929 35.8949 157.446 36.1678 157.91C36.449 158.373 36.8254 158.745 37.2968 159.026C37.7765 159.299 38.3721 159.436 39.0834 159.436ZM54.9267 158.778V151.867C54.9267 151.338 54.8192 150.879 54.6041 150.49C54.3974 150.093 54.0831 149.787 53.6612 149.572C53.2394 149.357 52.7183 149.25 52.098 149.25C51.519 149.25 51.0103 149.349 50.572 149.547C50.1419 149.746 49.8028 150.006 49.5546 150.329C49.3148 150.652 49.1948 150.999 49.1948 151.371H46.8996C46.8996 150.891 47.0237 150.416 47.2718 149.944C47.5199 149.473 47.8756 149.047 48.3388 148.667C48.8102 148.278 49.3727 147.972 50.0261 147.748C50.6878 147.517 51.4239 147.401 52.2345 147.401C53.2105 147.401 54.0706 147.567 54.8151 147.897C55.5677 148.228 56.155 148.729 56.5768 149.399C57.0069 150.06 57.2219 150.891 57.2219 151.892V158.145C57.2219 158.592 57.2592 159.067 57.3336 159.572C57.4163 160.077 57.5362 160.511 57.6934 160.875V161.073H55.2989C55.1831 160.809 55.0921 160.457 55.026 160.019C54.9598 159.572 54.9267 159.158 54.9267 158.778ZM55.3237 152.934L55.3485 154.547H53.0285C52.3751 154.547 51.792 154.601 51.2791 154.709C50.7663 154.808 50.3362 154.961 49.9889 155.168C49.6415 155.374 49.3768 155.635 49.1948 155.949C49.0129 156.255 48.9219 156.615 48.9219 157.029C48.9219 157.45 49.017 157.835 49.2072 158.182C49.3975 158.53 49.6828 158.807 50.0633 159.014C50.452 159.212 50.9276 159.311 51.4901 159.311C52.1931 159.311 52.8134 159.163 53.3511 158.865C53.8887 158.567 54.3146 158.203 54.6289 157.773C54.9515 157.343 55.1252 156.925 55.15 156.52L56.1302 157.624C56.0723 157.972 55.9151 158.356 55.6587 158.778C55.4023 159.2 55.059 159.605 54.6289 159.994C54.2071 160.374 53.7026 160.693 53.1153 160.949C52.5364 161.197 51.8829 161.321 51.1551 161.321C50.2453 161.321 49.4471 161.144 48.7606 160.788C48.0824 160.432 47.553 159.957 47.1725 159.361C46.8003 158.757 46.6142 158.083 46.6142 157.339C46.6142 156.619 46.7548 155.987 47.0361 155.441C47.3173 154.886 47.7226 154.427 48.2519 154.063C48.7813 153.691 49.4181 153.41 50.1625 153.22C50.9069 153.03 51.7382 152.934 52.6563 152.934H55.3237ZM63.326 142.017V161.073H61.0184V142.017H63.326ZM74.9263 158.778V151.867C74.9263 151.338 74.8188 150.879 74.6037 150.49C74.3969 150.093 74.0826 149.787 73.6608 149.572C73.239 149.357 72.7179 149.25 72.0976 149.25C71.5186 149.25 71.0099 149.349 70.5715 149.547C70.1414 149.746 69.8023 150.006 69.5542 150.329C69.3143 150.652 69.1944 150.999 69.1944 151.371H66.8992C66.8992 150.891 67.0232 150.416 67.2714 149.944C67.5195 149.473 67.8751 149.047 68.3383 148.667C68.8098 148.278 69.3722 147.972 70.0256 147.748C70.6873 147.517 71.4235 147.401 72.234 147.401C73.21 147.401 74.0702 147.567 74.8146 147.897C75.5673 148.228 76.1545 148.729 76.5764 149.399C77.0065 150.06 77.2215 150.891 77.2215 151.892V158.145C77.2215 158.592 77.2587 159.067 77.3332 159.572C77.4159 160.077 77.5358 160.511 77.693 160.875V161.073H75.2985C75.1827 160.809 75.0917 160.457 75.0255 160.019C74.9594 159.572 74.9263 159.158 74.9263 158.778ZM75.3233 152.934L75.3481 154.547H73.0281C72.3746 154.547 71.7915 154.601 71.2787 154.709C70.7659 154.808 70.3358 154.961 69.9884 155.168C69.641 155.374 69.3764 155.635 69.1944 155.949C69.0124 156.255 68.9214 156.615 68.9214 157.029C68.9214 157.45 69.0166 157.835 69.2068 158.182C69.397 158.53 69.6824 158.807 70.0629 159.014C70.4516 159.212 70.9272 159.311 71.4896 159.311C72.1927 159.311 72.813 159.163 73.3506 158.865C73.8883 158.567 74.3142 158.203 74.6285 157.773C74.9511 157.343 75.1248 156.925 75.1496 156.52L76.1297 157.624C76.0718 157.972 75.9147 158.356 75.6583 158.778C75.4019 159.2 75.0586 159.605 74.6285 159.994C74.2067 160.374 73.7021 160.693 73.1149 160.949C72.5359 161.197 71.8825 161.321 71.1546 161.321C70.2448 161.321 69.4467 161.144 68.7602 160.788C68.0819 160.432 67.5526 159.957 67.1721 159.361C66.7999 158.757 66.6138 158.083 66.6138 157.339C66.6138 156.619 66.7544 155.987 67.0356 155.441C67.3168 154.886 67.7221 154.427 68.2515 154.063C68.7808 153.691 69.4177 153.41 70.1621 153.22C70.9065 153.03 71.7378 152.934 72.6559 152.934H75.3233ZM95.5958 158.468V142.017H97.9034V161.073H95.7943L95.5958 158.468ZM86.5637 154.51V154.25C86.5637 153.224 86.6878 152.293 86.9359 151.458C87.1923 150.614 87.5521 149.891 88.0153 149.287C88.4868 148.683 89.0451 148.22 89.6902 147.897C90.3436 147.567 91.0715 147.401 91.8738 147.401C92.7174 147.401 93.4536 147.55 94.0822 147.848C94.7191 148.137 95.2567 148.563 95.695 149.126C96.1417 149.68 96.4932 150.35 96.7496 151.135C97.006 151.921 97.1839 152.81 97.2831 153.803V154.944C97.1921 155.929 97.0143 156.814 96.7496 157.599C96.4932 158.385 96.1417 159.055 95.695 159.609C95.2567 160.163 94.7191 160.589 94.0822 160.887C93.4453 161.177 92.7009 161.321 91.849 161.321C91.0632 161.321 90.3436 161.152 89.6902 160.813C89.0451 160.474 88.4868 159.998 88.0153 159.386C87.5521 158.774 87.1923 158.054 86.9359 157.227C86.6878 156.392 86.5637 155.486 86.5637 154.51ZM88.8714 154.25V154.51C88.8714 155.18 88.9375 155.809 89.0699 156.396C89.2105 156.983 89.4255 157.5 89.715 157.947C90.0045 158.393 90.3726 158.745 90.8192 159.001C91.2659 159.249 91.7994 159.374 92.4197 159.374C93.1806 159.374 93.8051 159.212 94.2931 158.89C94.7894 158.567 95.1864 158.141 95.4841 157.612C95.7819 157.082 96.0135 156.508 96.1789 155.887V152.897C96.0797 152.442 95.9349 152.004 95.7447 151.582C95.5627 151.152 95.3228 150.772 95.0251 150.441C94.7356 150.102 94.3758 149.833 93.9457 149.634C93.5239 149.436 93.0235 149.337 92.4445 149.337C91.8159 149.337 91.2741 149.469 90.8192 149.734C90.3726 149.99 90.0045 150.346 89.715 150.801C89.4255 151.247 89.2105 151.768 89.0699 152.364C88.9375 152.951 88.8714 153.58 88.8714 154.25ZM107.047 161.321C106.113 161.321 105.265 161.164 104.504 160.85C103.751 160.527 103.102 160.077 102.556 159.498C102.018 158.919 101.605 158.232 101.315 157.438C101.026 156.644 100.881 155.776 100.881 154.833V154.312C100.881 153.22 101.042 152.248 101.365 151.396C101.687 150.536 102.126 149.808 102.68 149.212C103.234 148.617 103.863 148.166 104.566 147.86C105.269 147.554 105.997 147.401 106.749 147.401C107.709 147.401 108.536 147.567 109.231 147.897C109.934 148.228 110.509 148.691 110.955 149.287C111.402 149.874 111.733 150.569 111.948 151.371C112.163 152.165 112.27 153.034 112.27 153.977V155.006H102.246V153.133H109.975V152.959C109.942 152.364 109.818 151.785 109.603 151.222C109.396 150.66 109.065 150.197 108.61 149.833C108.155 149.469 107.535 149.287 106.749 149.287C106.228 149.287 105.749 149.399 105.31 149.622C104.872 149.837 104.496 150.16 104.181 150.59C103.867 151.02 103.623 151.545 103.449 152.165C103.276 152.786 103.189 153.501 103.189 154.312V154.833C103.189 155.47 103.276 156.069 103.449 156.632C103.631 157.186 103.892 157.674 104.231 158.096C104.578 158.517 104.996 158.848 105.484 159.088C105.98 159.328 106.543 159.448 107.171 159.448C107.982 159.448 108.668 159.283 109.231 158.952C109.793 158.621 110.285 158.178 110.707 157.624L112.097 158.728C111.807 159.167 111.439 159.584 110.992 159.981C110.546 160.378 109.996 160.701 109.342 160.949C108.697 161.197 107.932 161.321 107.047 161.321ZM126.873 147.649V149.411H119.615V147.649H126.873ZM122.072 144.386H124.367V157.748C124.367 158.203 124.437 158.546 124.578 158.778C124.718 159.01 124.9 159.163 125.124 159.237C125.347 159.311 125.587 159.349 125.843 159.349C126.034 159.349 126.232 159.332 126.439 159.299C126.654 159.258 126.815 159.225 126.923 159.2L126.935 161.073C126.753 161.131 126.513 161.185 126.215 161.235C125.926 161.292 125.574 161.321 125.161 161.321C124.598 161.321 124.082 161.21 123.61 160.986C123.139 160.763 122.762 160.391 122.481 159.87C122.208 159.34 122.072 158.629 122.072 157.736V144.386ZM137.481 158.778V151.867C137.481 151.338 137.373 150.879 137.158 150.49C136.951 150.093 136.637 149.787 136.215 149.572C135.793 149.357 135.272 149.25 134.652 149.25C134.073 149.25 133.564 149.349 133.126 149.547C132.696 149.746 132.357 150.006 132.109 150.329C131.869 150.652 131.749 150.999 131.749 151.371H129.454C129.454 150.891 129.578 150.416 129.826 149.944C130.074 149.473 130.43 149.047 130.893 148.667C131.364 148.278 131.927 147.972 132.58 147.748C133.242 147.517 133.978 147.401 134.788 147.401C135.764 147.401 136.625 147.567 137.369 147.897C138.122 148.228 138.709 148.729 139.131 149.399C139.561 150.06 139.776 150.891 139.776 151.892V158.145C139.776 158.592 139.813 159.067 139.888 159.572C139.97 160.077 140.09 160.511 140.247 160.875V161.073H137.853C137.737 160.809 137.646 160.457 137.58 160.019C137.514 159.572 137.481 159.158 137.481 158.778ZM137.878 152.934L137.903 154.547H135.583C134.929 154.547 134.346 154.601 133.833 154.709C133.32 154.808 132.89 154.961 132.543 155.168C132.195 155.374 131.931 155.635 131.749 155.949C131.567 156.255 131.476 156.615 131.476 157.029C131.476 157.45 131.571 157.835 131.761 158.182C131.951 158.53 132.237 158.807 132.617 159.014C133.006 159.212 133.482 159.311 134.044 159.311C134.747 159.311 135.367 159.163 135.905 158.865C136.443 158.567 136.869 158.203 137.183 157.773C137.506 157.343 137.679 156.925 137.704 156.52L138.684 157.624C138.626 157.972 138.469 158.356 138.213 158.778C137.956 159.2 137.613 159.605 137.183 159.994C136.761 160.374 136.257 160.693 135.669 160.949C135.09 161.197 134.437 161.321 133.709 161.321C132.799 161.321 132.001 161.144 131.315 160.788C130.636 160.432 130.107 159.957 129.727 159.361C129.354 158.757 129.168 158.083 129.168 157.339C129.168 156.619 129.309 155.987 129.59 155.441C129.871 154.886 130.277 154.427 130.806 154.063C131.335 153.691 131.972 153.41 132.717 153.22C133.461 153.03 134.292 152.934 135.21 152.934H137.878ZM145.669 150.317V161.073H143.361V147.649H145.545L145.669 150.317ZM145.198 153.853L144.131 153.815C144.139 152.897 144.259 152.049 144.49 151.272C144.722 150.486 145.065 149.804 145.52 149.225C145.975 148.646 146.542 148.199 147.22 147.885C147.898 147.562 148.684 147.401 149.577 147.401C150.206 147.401 150.785 147.492 151.314 147.674C151.844 147.848 152.303 148.125 152.691 148.505C153.08 148.886 153.382 149.374 153.597 149.969C153.812 150.565 153.92 151.284 153.92 152.128V161.073H151.624V152.24C151.624 151.537 151.504 150.974 151.265 150.552C151.033 150.131 150.702 149.825 150.272 149.634C149.842 149.436 149.337 149.337 148.758 149.337C148.08 149.337 147.514 149.456 147.059 149.696C146.604 149.936 146.24 150.267 145.967 150.689C145.694 151.111 145.495 151.595 145.371 152.14C145.256 152.678 145.198 153.249 145.198 153.853ZM153.895 152.587L152.356 153.059C152.365 152.322 152.485 151.615 152.716 150.937C152.956 150.259 153.299 149.655 153.746 149.126C154.201 148.596 154.759 148.179 155.421 147.873C156.082 147.558 156.839 147.401 157.691 147.401C158.411 147.401 159.048 147.496 159.602 147.686C160.164 147.877 160.636 148.17 161.016 148.567C161.405 148.956 161.699 149.456 161.897 150.069C162.096 150.681 162.195 151.408 162.195 152.252V161.073H159.887V152.227C159.887 151.475 159.767 150.891 159.527 150.478C159.296 150.056 158.965 149.762 158.535 149.597C158.113 149.423 157.608 149.337 157.021 149.337C156.517 149.337 156.07 149.423 155.681 149.597C155.293 149.771 154.966 150.011 154.701 150.317C154.437 150.614 154.234 150.958 154.093 151.346C153.961 151.735 153.895 152.149 153.895 152.587ZM173.584 158.778V151.867C173.584 151.338 173.477 150.879 173.262 150.49C173.055 150.093 172.741 149.787 172.319 149.572C171.897 149.357 171.376 149.25 170.755 149.25C170.176 149.25 169.668 149.349 169.229 149.547C168.799 149.746 168.46 150.006 168.212 150.329C167.972 150.652 167.852 150.999 167.852 151.371H165.557C165.557 150.891 165.681 150.416 165.929 149.944C166.177 149.473 166.533 149.047 166.996 148.667C167.468 148.278 168.03 147.972 168.684 147.748C169.345 147.517 170.081 147.401 170.892 147.401C171.868 147.401 172.728 147.567 173.473 147.897C174.225 148.228 174.812 148.729 175.234 149.399C175.664 150.06 175.879 150.891 175.879 151.892V158.145C175.879 158.592 175.917 159.067 175.991 159.572C176.074 160.077 176.194 160.511 176.351 160.875V161.073H173.956C173.841 160.809 173.75 160.457 173.683 160.019C173.617 159.572 173.584 159.158 173.584 158.778ZM173.981 152.934L174.006 154.547H171.686C171.033 154.547 170.449 154.601 169.937 154.709C169.424 154.808 168.994 154.961 168.646 155.168C168.299 155.374 168.034 155.635 167.852 155.949C167.67 156.255 167.579 156.615 167.579 157.029C167.579 157.45 167.674 157.835 167.865 158.182C168.055 158.53 168.34 158.807 168.721 159.014C169.109 159.212 169.585 159.311 170.148 159.311C170.851 159.311 171.471 159.163 172.009 158.865C172.546 158.567 172.972 158.203 173.286 157.773C173.609 157.343 173.783 156.925 173.807 156.52L174.788 157.624C174.73 157.972 174.573 158.356 174.316 158.778C174.06 159.2 173.717 159.605 173.286 159.994C172.865 160.374 172.36 160.693 171.773 160.949C171.194 161.197 170.54 161.321 169.813 161.321C168.903 161.321 168.105 161.144 167.418 160.788C166.74 160.432 166.21 159.957 165.83 159.361C165.458 158.757 165.272 158.083 165.272 157.339C165.272 156.619 165.412 155.987 165.694 155.441C165.975 154.886 166.38 154.427 166.909 154.063C167.439 153.691 168.076 153.41 168.82 153.22C169.564 153.03 170.396 152.934 171.314 152.934H173.981ZM181.785 150.515V161.073H179.49V147.649H181.661L181.785 150.515ZM181.239 153.853L180.284 153.815C180.292 152.897 180.429 152.049 180.693 151.272C180.958 150.486 181.33 149.804 181.81 149.225C182.29 148.646 182.86 148.199 183.522 147.885C184.192 147.562 184.932 147.401 185.743 147.401C186.404 147.401 187 147.492 187.529 147.674C188.059 147.848 188.509 148.129 188.882 148.518C189.262 148.906 189.552 149.411 189.75 150.031C189.949 150.643 190.048 151.392 190.048 152.277V161.073H187.74V152.252C187.74 151.549 187.637 150.987 187.43 150.565C187.223 150.135 186.921 149.825 186.524 149.634C186.127 149.436 185.639 149.337 185.06 149.337C184.49 149.337 183.969 149.456 183.497 149.696C183.034 149.936 182.633 150.267 182.294 150.689C181.963 151.111 181.702 151.595 181.512 152.14C181.33 152.678 181.239 153.249 181.239 153.853ZM195.829 142.017V161.073H193.534V142.017H195.829ZM195.283 153.853L194.328 153.815C194.336 152.897 194.473 152.049 194.738 151.272C195.002 150.486 195.374 149.804 195.854 149.225C196.334 148.646 196.905 148.199 197.566 147.885C198.236 147.562 198.976 147.401 199.787 147.401C200.449 147.401 201.044 147.492 201.574 147.674C202.103 147.848 202.554 148.129 202.926 148.518C203.306 148.906 203.596 149.411 203.794 150.031C203.993 150.643 204.092 151.392 204.092 152.277V161.073H201.785V152.252C201.785 151.549 201.681 150.987 201.474 150.565C201.268 150.135 200.966 149.825 200.569 149.634C200.172 149.436 199.684 149.337 199.105 149.337C198.534 149.337 198.013 149.456 197.541 149.696C197.078 149.936 196.677 150.267 196.338 150.689C196.007 151.111 195.747 151.595 195.556 152.14C195.374 152.678 195.283 153.249 195.283 153.853ZM206.921 154.51V154.225C206.921 153.257 207.062 152.36 207.343 151.533C207.624 150.697 208.029 149.973 208.559 149.361C209.088 148.741 209.729 148.261 210.482 147.922C211.234 147.575 212.078 147.401 213.013 147.401C213.955 147.401 214.803 147.575 215.556 147.922C216.317 148.261 216.962 148.741 217.491 149.361C218.029 149.973 218.438 150.697 218.72 151.533C219.001 152.36 219.141 153.257 219.141 154.225V154.51C219.141 155.478 219.001 156.375 218.72 157.202C218.438 158.029 218.029 158.753 217.491 159.374C216.962 159.986 216.321 160.465 215.568 160.813C214.824 161.152 213.98 161.321 213.037 161.321C212.094 161.321 211.247 161.152 210.494 160.813C209.741 160.465 209.096 159.986 208.559 159.374C208.029 158.753 207.624 158.029 207.343 157.202C207.062 156.375 206.921 155.478 206.921 154.51ZM209.216 154.225V154.51C209.216 155.18 209.295 155.813 209.452 156.408C209.609 156.996 209.845 157.517 210.159 157.972C210.482 158.426 210.883 158.786 211.362 159.051C211.842 159.307 212.401 159.436 213.037 159.436C213.666 159.436 214.216 159.307 214.687 159.051C215.167 158.786 215.564 158.426 215.879 157.972C216.193 157.517 216.429 156.996 216.586 156.408C216.751 155.813 216.834 155.18 216.834 154.51V154.225C216.834 153.563 216.751 152.939 216.586 152.351C216.429 151.756 216.189 151.231 215.866 150.776C215.552 150.313 215.155 149.949 214.675 149.684C214.204 149.419 213.649 149.287 213.013 149.287C212.384 149.287 211.83 149.419 211.35 149.684C210.879 149.949 210.482 150.313 210.159 150.776C209.845 151.231 209.609 151.756 209.452 152.351C209.295 152.939 209.216 153.563 209.216 154.225Z" fill="#0567FF"/>
<path d="M984.273 94.1161C984.982 94.8248 984.982 95.974 984.273 96.6828L972.723 108.233C972.014 108.942 970.865 108.942 970.156 108.233C969.448 107.524 969.448 106.375 970.156 105.666L980.423 95.3994L970.156 85.1327C969.448 84.4239 969.448 83.2748 970.156 82.566C970.865 81.8572 972.014 81.8572 972.723 82.566L984.273 94.1161ZM946.691 93.5845L982.99 93.5845L982.99 97.2143L946.691 97.2143L946.691 93.5845Z" fill="#0567FF"/>
<path d="M1073.44 85.4686H1075.52V98.6072C1075.52 99.79 1075.28 100.799 1074.8 101.634C1074.32 102.47 1073.65 103.103 1072.79 103.533C1071.94 103.971 1070.96 104.19 1069.84 104.19C1069.38 104.19 1068.83 104.116 1068.2 103.967C1067.58 103.826 1066.97 103.582 1066.37 103.235C1065.77 102.896 1065.27 102.437 1064.87 101.858L1066.07 100.493C1066.63 101.171 1067.22 101.643 1067.83 101.907C1068.45 102.172 1069.06 102.304 1069.67 102.304C1070.4 102.304 1071.02 102.168 1071.55 101.895C1072.08 101.622 1072.49 101.217 1072.78 100.679C1073.08 100.15 1073.23 99.4964 1073.23 98.7189V88.4213L1073.44 85.4686ZM1064.2 92.3294V92.0689C1064.2 91.0433 1064.32 90.1128 1064.56 89.2774C1064.8 88.4338 1065.16 87.71 1065.61 87.1062C1066.07 86.5024 1066.63 86.0393 1067.29 85.7167C1067.94 85.3858 1068.67 85.2204 1069.49 85.2204C1070.34 85.2204 1071.07 85.3693 1071.7 85.6671C1072.34 85.9566 1072.88 86.3825 1073.31 86.9449C1073.76 87.4991 1074.11 88.1691 1074.37 88.9548C1074.63 89.7406 1074.8 90.6297 1074.9 91.6223V92.7637C1074.81 93.7479 1074.63 94.633 1074.37 95.4187C1074.11 96.2045 1073.76 96.8744 1073.31 97.4286C1072.88 97.9828 1072.34 98.4087 1071.7 98.7065C1071.06 98.996 1070.32 99.1407 1069.47 99.1407C1068.67 99.1407 1067.94 98.9712 1067.29 98.632C1066.64 98.2929 1066.09 97.8173 1065.62 97.2053C1065.16 96.5932 1064.8 95.8736 1064.56 95.0465C1064.32 94.2111 1064.2 93.3054 1064.2 92.3294ZM1066.49 92.0689V92.3294C1066.49 92.9994 1066.56 93.628 1066.69 94.2153C1066.83 94.8025 1067.04 95.3195 1067.32 95.7661C1067.61 96.2127 1067.98 96.5643 1068.43 96.8207C1068.87 97.0688 1069.41 97.1929 1070.03 97.1929C1070.79 97.1929 1071.42 97.0316 1071.91 96.709C1072.41 96.3864 1072.8 95.9605 1073.09 95.4311C1073.39 94.9018 1073.62 94.3269 1073.79 93.7066V90.7166C1073.7 90.2617 1073.55 89.8233 1073.36 89.4015C1073.18 88.9714 1072.94 88.5909 1072.64 88.2601C1072.36 87.9209 1072 87.6521 1071.57 87.4536C1071.14 87.2551 1070.63 87.1559 1070.05 87.1559C1069.42 87.1559 1068.88 87.2882 1068.43 87.5529C1067.98 87.8093 1067.61 88.1649 1067.32 88.6199C1067.04 89.0665 1066.83 89.5876 1066.69 90.1831C1066.56 90.7703 1066.49 91.3989 1066.49 92.0689ZM1081.3 87.5777V98.8926H1079.01V85.4686H1081.24L1081.3 87.5777ZM1085.5 85.3941L1085.49 87.5281C1085.3 87.4867 1085.11 87.4619 1084.94 87.4536C1084.77 87.4371 1084.58 87.4288 1084.37 87.4288C1083.84 87.4288 1083.37 87.5115 1082.97 87.6769C1082.56 87.8424 1082.22 88.074 1081.94 88.3717C1081.66 88.6695 1081.43 89.0251 1081.27 89.4387C1081.11 89.844 1081.01 90.2906 1080.96 90.7786L1080.31 91.1508C1080.31 90.3402 1080.39 89.5793 1080.55 88.868C1080.71 88.1567 1080.97 87.5281 1081.3 86.9822C1081.64 86.428 1082.07 85.9979 1082.59 85.6919C1083.12 85.3776 1083.75 85.2204 1084.48 85.2204C1084.65 85.2204 1084.84 85.2411 1085.05 85.2825C1085.27 85.3155 1085.42 85.3528 1085.5 85.3941ZM1095.04 96.5973V89.6868C1095.04 89.1575 1094.93 88.6984 1094.72 88.3097C1094.51 87.9127 1094.2 87.6066 1093.77 87.3916C1093.35 87.1765 1092.83 87.069 1092.21 87.069C1091.63 87.069 1091.12 87.1683 1090.68 87.3668C1090.25 87.5653 1089.91 87.8258 1089.67 88.1484C1089.43 88.471 1089.31 88.8184 1089.31 89.1906H1087.01C1087.01 88.7108 1087.14 88.2352 1087.38 87.7638C1087.63 87.2923 1087.99 86.8664 1088.45 86.4859C1088.92 86.0972 1089.48 85.7911 1090.14 85.5678C1090.8 85.3362 1091.54 85.2204 1092.35 85.2204C1093.32 85.2204 1094.18 85.3858 1094.93 85.7167C1095.68 86.0475 1096.27 86.5479 1096.69 87.2179C1097.12 87.8796 1097.33 88.7108 1097.33 89.7116V95.9646C1097.33 96.4112 1097.37 96.8868 1097.45 97.3914C1097.53 97.8959 1097.65 98.3301 1097.81 98.6941V98.8926H1095.41C1095.3 98.6279 1095.2 98.2764 1095.14 97.838C1095.07 97.3914 1095.04 96.9778 1095.04 96.5973ZM1095.44 90.7538L1095.46 92.3667H1093.14C1092.49 92.3667 1091.9 92.4204 1091.39 92.528C1090.88 92.6272 1090.45 92.7802 1090.1 92.987C1089.75 93.1938 1089.49 93.4543 1089.31 93.7686C1089.12 94.0747 1089.03 94.4344 1089.03 94.848C1089.03 95.2698 1089.13 95.6544 1089.32 96.0018C1089.51 96.3492 1089.79 96.6263 1090.18 96.8331C1090.56 97.0316 1091.04 97.1308 1091.6 97.1308C1092.31 97.1308 1092.93 96.982 1093.46 96.6842C1094 96.3864 1094.43 96.0225 1094.74 95.5924C1095.06 95.1623 1095.24 94.7446 1095.26 94.3393L1096.24 95.4435C1096.18 95.7909 1096.03 96.1755 1095.77 96.5973C1095.51 97.0192 1095.17 97.4245 1094.74 97.8132C1094.32 98.1937 1093.81 98.5121 1093.23 98.7685C1092.65 99.0166 1092 99.1407 1091.27 99.1407C1090.36 99.1407 1089.56 98.9629 1088.87 98.6072C1088.19 98.2516 1087.67 97.776 1087.28 97.1805C1086.91 96.5767 1086.73 95.9026 1086.73 95.1582C1086.73 94.4386 1086.87 93.8058 1087.15 93.2599C1087.43 92.7058 1087.83 92.2467 1088.36 91.8828C1088.89 91.5106 1089.53 91.2294 1090.27 91.0392C1091.02 90.8489 1091.85 90.7538 1092.77 90.7538H1095.44ZM1103.24 88.3345V98.8926H1100.94V85.4686H1103.12L1103.24 88.3345ZM1102.69 91.6719L1101.74 91.6347C1101.75 90.7166 1101.88 89.8688 1102.15 89.0913C1102.41 88.3055 1102.78 87.6232 1103.26 87.0442C1103.74 86.4652 1104.31 86.0186 1104.98 85.7043C1105.65 85.3817 1106.39 85.2204 1107.2 85.2204C1107.86 85.2204 1108.45 85.3114 1108.98 85.4934C1109.51 85.6671 1109.96 85.9483 1110.34 86.337C1110.72 86.7258 1111.01 87.2303 1111.2 87.8506C1111.4 88.4627 1111.5 89.2112 1111.5 90.0962V98.8926H1109.19V90.0714C1109.19 89.3684 1109.09 88.806 1108.88 88.3841C1108.68 87.954 1108.38 87.6439 1107.98 87.4536C1107.58 87.2551 1107.09 87.1559 1106.51 87.1559C1105.94 87.1559 1105.42 87.2758 1104.95 87.5157C1104.49 87.7555 1104.09 88.0864 1103.75 88.5082C1103.42 88.93 1103.16 89.4139 1102.97 89.9598C1102.78 90.4974 1102.69 91.0681 1102.69 91.6719ZM1123.45 96.2872V79.8359H1125.76V98.8926H1123.65L1123.45 96.2872ZM1114.42 92.3294V92.0689C1114.42 91.0433 1114.54 90.1128 1114.79 89.2774C1115.05 88.4338 1115.41 87.71 1115.87 87.1062C1116.34 86.5024 1116.9 86.0393 1117.54 85.7167C1118.2 85.3858 1118.93 85.2204 1119.73 85.2204C1120.57 85.2204 1121.31 85.3693 1121.94 85.6671C1122.57 85.9566 1123.11 86.3825 1123.55 86.9449C1124 87.4991 1124.35 88.1691 1124.6 88.9548C1124.86 89.7406 1125.04 90.6297 1125.14 91.6223V92.7637C1125.05 93.7479 1124.87 94.633 1124.6 95.4187C1124.35 96.2045 1124 96.8744 1123.55 97.4286C1123.11 97.9828 1122.57 98.4087 1121.94 98.7065C1121.3 98.996 1120.56 99.1407 1119.7 99.1407C1118.92 99.1407 1118.2 98.9712 1117.54 98.632C1116.9 98.2929 1116.34 97.8173 1115.87 97.2053C1115.41 96.5932 1115.05 95.8736 1114.79 95.0465C1114.54 94.2111 1114.42 93.3054 1114.42 92.3294ZM1116.73 92.0689V92.3294C1116.73 92.9994 1116.79 93.628 1116.92 94.2153C1117.06 94.8025 1117.28 95.3195 1117.57 95.7661C1117.86 96.2127 1118.23 96.5643 1118.67 96.8207C1119.12 97.0688 1119.65 97.1929 1120.27 97.1929C1121.03 97.1929 1121.66 97.0316 1122.15 96.709C1122.64 96.3864 1123.04 95.9605 1123.34 95.4311C1123.64 94.9018 1123.87 94.3269 1124.03 93.7066V90.7166C1123.93 90.2617 1123.79 89.8233 1123.6 89.4015C1123.42 88.9714 1123.18 88.5909 1122.88 88.2601C1122.59 87.9209 1122.23 87.6521 1121.8 87.4536C1121.38 87.2551 1120.88 87.1559 1120.3 87.1559C1119.67 87.1559 1119.13 87.2882 1118.67 87.5529C1118.23 87.8093 1117.86 88.1649 1117.57 88.6199C1117.28 89.0665 1117.06 89.5876 1116.92 90.1831C1116.79 90.7703 1116.73 91.3989 1116.73 92.0689ZM1134.9 99.1407C1133.97 99.1407 1133.12 98.9836 1132.36 98.6693C1131.61 98.3467 1130.96 97.8959 1130.41 97.3169C1129.87 96.738 1129.46 96.0514 1129.17 95.2574C1128.88 94.4634 1128.74 93.5949 1128.74 92.652V92.1309C1128.74 91.0392 1128.9 90.0673 1129.22 89.2154C1129.54 88.3552 1129.98 87.6273 1130.53 87.0318C1131.09 86.4363 1131.72 85.9855 1132.42 85.6795C1133.12 85.3734 1133.85 85.2204 1134.6 85.2204C1135.56 85.2204 1136.39 85.3858 1137.09 85.7167C1137.79 86.0475 1138.36 86.5107 1138.81 87.1062C1139.26 87.6935 1139.59 88.3883 1139.8 89.1906C1140.02 89.9846 1140.12 90.8531 1140.12 91.796V92.8257H1130.1V90.9523H1137.83V90.7786C1137.8 90.1831 1137.67 89.6041 1137.46 89.0417C1137.25 88.4792 1136.92 88.0161 1136.46 87.6521C1136.01 87.2882 1135.39 87.1062 1134.6 87.1062C1134.08 87.1062 1133.6 87.2179 1133.16 87.4412C1132.73 87.6563 1132.35 87.9788 1132.04 88.4089C1131.72 88.839 1131.48 89.3643 1131.3 89.9846C1131.13 90.6049 1131.04 91.3204 1131.04 92.1309V92.652C1131.04 93.2889 1131.13 93.8886 1131.3 94.451C1131.49 95.0052 1131.75 95.4931 1132.09 95.915C1132.43 96.3368 1132.85 96.6676 1133.34 96.9075C1133.83 97.1474 1134.4 97.2673 1135.03 97.2673C1135.84 97.2673 1136.52 97.1019 1137.09 96.771C1137.65 96.4402 1138.14 95.9977 1138.56 95.4435L1139.95 96.5477C1139.66 96.9861 1139.29 97.4038 1138.85 97.8008C1138.4 98.1978 1137.85 98.5204 1137.2 98.7685C1136.55 99.0166 1135.79 99.1407 1134.9 99.1407ZM1152.8 97.0068V98.8926H1143.04V97.0068H1152.8ZM1152.44 87.0938L1143.56 98.8926H1142.16V97.2053L1150.98 85.4686H1152.44V87.0938ZM1151.43 85.4686V87.3668H1142.26V85.4686H1151.43ZM1163.33 96.5973V89.6868C1163.33 89.1575 1163.22 88.6984 1163 88.3097C1162.8 87.9127 1162.48 87.6066 1162.06 87.3916C1161.64 87.1765 1161.12 87.069 1160.5 87.069C1159.92 87.069 1159.41 87.1683 1158.97 87.3668C1158.54 87.5653 1158.2 87.8258 1157.95 88.1484C1157.71 88.471 1157.59 88.8184 1157.59 89.1906H1155.3C1155.3 88.7108 1155.42 88.2352 1155.67 87.7638C1155.92 87.2923 1156.27 86.8664 1156.74 86.4859C1157.21 86.0972 1157.77 85.7911 1158.42 85.5678C1159.09 85.3362 1159.82 85.2204 1160.63 85.2204C1161.61 85.2204 1162.47 85.3858 1163.21 85.7167C1163.97 86.0475 1164.55 86.5479 1164.98 87.2179C1165.41 87.8796 1165.62 88.7108 1165.62 89.7116V95.9646C1165.62 96.4112 1165.66 96.8868 1165.73 97.3914C1165.81 97.8959 1165.93 98.3301 1166.09 98.6941V98.8926H1163.7C1163.58 98.6279 1163.49 98.2764 1163.42 97.838C1163.36 97.3914 1163.33 96.9778 1163.33 96.5973ZM1163.72 90.7538L1163.75 92.3667H1161.43C1160.77 92.3667 1160.19 92.4204 1159.68 92.528C1159.16 92.6272 1158.73 92.7802 1158.39 92.987C1158.04 93.1938 1157.78 93.4543 1157.59 93.7686C1157.41 94.0747 1157.32 94.4344 1157.32 94.848C1157.32 95.2698 1157.42 95.6544 1157.61 96.0018C1157.8 96.3492 1158.08 96.6263 1158.46 96.8331C1158.85 97.0316 1159.33 97.1308 1159.89 97.1308C1160.59 97.1308 1161.21 96.982 1161.75 96.6842C1162.29 96.3864 1162.71 96.0225 1163.03 95.5924C1163.35 95.1623 1163.52 94.7446 1163.55 94.3393L1164.53 95.4435C1164.47 95.7909 1164.31 96.1755 1164.06 96.5973C1163.8 97.0192 1163.46 97.4245 1163.03 97.8132C1162.61 98.1937 1162.1 98.5121 1161.51 98.7685C1160.93 99.0166 1160.28 99.1407 1159.55 99.1407C1158.64 99.1407 1157.85 98.9629 1157.16 98.6072C1156.48 98.2516 1155.95 97.776 1155.57 97.1805C1155.2 96.5767 1155.01 95.9026 1155.01 95.1582C1155.01 94.4386 1155.15 93.8058 1155.43 93.2599C1155.72 92.7058 1156.12 92.2467 1156.65 91.8828C1157.18 91.5106 1157.82 91.2294 1158.56 91.0392C1159.31 90.8489 1160.14 90.7538 1161.05 90.7538H1163.72ZM1177.05 95.3319C1177.05 95.001 1176.97 94.695 1176.82 94.4138C1176.68 94.1243 1176.39 93.8637 1175.94 93.6321C1175.5 93.3923 1174.84 93.1855 1173.96 93.0118C1173.21 92.8547 1172.54 92.6686 1171.94 92.4535C1171.34 92.2385 1170.83 91.9779 1170.41 91.6719C1170 91.3659 1169.68 91.0061 1169.45 90.5925C1169.23 90.179 1169.12 89.6951 1169.12 89.1409C1169.12 88.6116 1169.23 88.1112 1169.47 87.6397C1169.71 87.1683 1170.04 86.7506 1170.47 86.3866C1170.91 86.0227 1171.43 85.7374 1172.05 85.5306C1172.66 85.3238 1173.34 85.2204 1174.09 85.2204C1175.17 85.2204 1176.09 85.4107 1176.85 85.7911C1177.61 86.1716 1178.19 86.6803 1178.6 87.3171C1179 87.9458 1179.21 88.6447 1179.21 89.4139H1176.91C1176.91 89.0417 1176.8 88.6819 1176.58 88.3345C1176.36 87.9788 1176.04 87.6852 1175.62 87.4536C1175.21 87.222 1174.7 87.1062 1174.09 87.1062C1173.46 87.1062 1172.94 87.2055 1172.54 87.404C1172.15 87.5942 1171.87 87.8382 1171.69 88.136C1171.51 88.4338 1171.43 88.7481 1171.43 89.0789C1171.43 89.327 1171.47 89.5504 1171.55 89.7489C1171.64 89.9391 1171.8 90.1169 1172.02 90.2823C1172.25 90.4395 1172.56 90.5884 1172.97 90.729C1173.37 90.8696 1173.89 91.0102 1174.52 91.1508C1175.62 91.3989 1176.52 91.6967 1177.23 92.0441C1177.94 92.3915 1178.47 92.8174 1178.82 93.322C1179.17 93.8265 1179.34 94.4386 1179.34 95.1582C1179.34 95.7454 1179.22 96.283 1178.97 96.771C1178.73 97.259 1178.38 97.6809 1177.92 98.0365C1177.46 98.3839 1176.91 98.6569 1176.28 98.8554C1175.65 99.0456 1174.94 99.1407 1174.16 99.1407C1172.97 99.1407 1171.97 98.9298 1171.15 98.508C1170.33 98.0861 1169.71 97.5403 1169.29 96.8703C1168.87 96.2003 1168.66 95.4931 1168.66 94.7487H1170.97C1171 95.3774 1171.18 95.8778 1171.51 96.25C1171.84 96.6139 1172.25 96.8744 1172.73 97.0316C1173.21 97.1805 1173.68 97.2549 1174.16 97.2549C1174.78 97.2549 1175.31 97.1722 1175.73 97.0068C1176.16 96.8413 1176.49 96.6139 1176.71 96.3244C1176.94 96.0349 1177.05 95.7041 1177.05 95.3319Z" fill="#0567FF"/>
<path d="M370.849 15.1434H378.548C380.127 15.1434 381.483 15.3797 382.618 15.8523C383.762 16.325 384.641 17.0245 385.255 17.9508C385.869 18.8772 386.177 20.0162 386.177 21.368C386.177 22.4739 385.988 23.4239 385.61 24.218C385.241 25.0025 384.716 25.6595 384.036 26.1889C383.365 26.7088 382.575 27.1247 381.668 27.4366L380.321 28.1456H373.628L373.6 24.8277H378.577C379.323 24.8277 379.943 24.6953 380.434 24.4307C380.926 24.166 381.294 23.7973 381.54 23.3247C381.795 22.8521 381.923 22.3038 381.923 21.6799C381.923 21.0182 381.8 20.4463 381.554 19.9643C381.309 19.4822 380.935 19.1135 380.434 18.8583C379.933 18.6031 379.305 18.4755 378.548 18.4755H375.103V35.7881H370.849V15.1434ZM382.391 35.7881L377.683 26.5859L382.178 26.5575L386.942 35.5896V35.7881H382.391ZM397.477 32.3284V25.4941C397.477 25.0025 397.397 24.5819 397.236 24.2322C397.076 23.8729 396.825 23.5941 396.485 23.3956C396.154 23.1971 395.724 23.0978 395.195 23.0978C394.741 23.0978 394.349 23.1782 394.018 23.3389C393.687 23.4901 393.432 23.7123 393.252 24.0053C393.072 24.2889 392.983 24.6244 392.983 25.012H388.899C388.899 24.3598 389.05 23.7406 389.353 23.1545C389.655 22.5685 390.095 22.0533 390.671 21.609C391.248 21.1553 391.933 20.8008 392.727 20.5456C393.531 20.2904 394.429 20.1628 395.421 20.1628C396.612 20.1628 397.671 20.3613 398.598 20.7583C399.524 21.1553 400.252 21.7508 400.781 22.5448C401.32 23.3389 401.589 24.3314 401.589 25.5224V32.0874C401.589 32.9286 401.641 33.6187 401.745 34.1575C401.849 34.6868 402.001 35.15 402.199 35.547V35.7881H398.073C397.874 35.3722 397.723 34.8523 397.619 34.2284C397.525 33.5951 397.477 32.9617 397.477 32.3284ZM398.016 26.4441L398.045 28.7553H395.762C395.223 28.7553 394.755 28.8167 394.358 28.9396C393.961 29.0625 393.635 29.2374 393.38 29.4642C393.124 29.6816 392.935 29.9369 392.813 30.2299C392.699 30.5229 392.642 30.8443 392.642 31.1941C392.642 31.5438 392.723 31.8605 392.883 32.1441C393.044 32.4182 393.276 32.6356 393.578 32.7963C393.881 32.9475 394.235 33.0232 394.642 33.0232C395.256 33.0232 395.79 32.9003 396.244 32.6545C396.698 32.4087 397.047 32.1063 397.293 31.7471C397.548 31.3879 397.681 31.0476 397.69 30.7262L398.768 32.456C398.616 32.8436 398.409 33.2453 398.144 33.6612C397.889 34.0771 397.562 34.4694 397.165 34.8381C396.768 35.1973 396.291 35.4951 395.733 35.7314C395.176 35.9582 394.514 36.0717 393.748 36.0717C392.775 36.0717 391.891 35.8779 391.097 35.4903C390.312 35.0933 389.688 34.5498 389.225 33.8597C388.771 33.1602 388.545 32.3662 388.545 31.4777C388.545 30.6742 388.696 29.9605 388.998 29.3366C389.301 28.7127 389.745 28.1881 390.331 27.7627C390.927 27.3279 391.669 27.0018 392.557 26.7844C393.446 26.5575 394.476 26.4441 395.648 26.4441H398.016ZM408.736 23.7217V35.7881H404.652V20.4463H408.48L408.736 23.7217ZM408.14 27.5784H407.034C407.034 26.4441 407.181 25.4232 407.474 24.5157C407.767 23.5988 408.178 22.819 408.707 22.1762C409.237 21.524 409.865 21.0277 410.593 20.6874C411.33 20.3376 412.153 20.1628 413.06 20.1628C413.779 20.1628 414.436 20.2667 415.031 20.4747C415.627 20.6827 416.137 21.0135 416.562 21.4672C416.997 21.921 417.328 22.5212 417.555 23.268C417.791 24.0147 417.909 24.9269 417.909 26.0045V35.7881H413.798V25.9904C413.798 25.3098 413.703 24.7804 413.514 24.4023C413.325 24.0242 413.046 23.7595 412.677 23.6083C412.318 23.4476 411.874 23.3672 411.345 23.3672C410.796 23.3672 410.319 23.4759 409.912 23.6933C409.515 23.9108 409.185 24.2132 408.92 24.6008C408.665 24.9789 408.471 25.4232 408.339 25.9336C408.206 26.4441 408.14 26.9923 408.14 27.5784ZM425.098 13.9949V35.7881H421.015V13.9949H425.098ZM434.768 20.4463L428.104 28.0463L424.531 31.662L423.042 28.7127L425.878 25.1113L429.862 20.4463H434.768ZM430.529 35.7881L425.991 28.6986L428.813 26.2314L435.236 35.7881H430.529ZM440.837 20.4463V35.7881H436.739V20.4463H440.837ZM436.484 16.4478C436.484 15.8523 436.692 15.3608 437.108 14.9732C437.524 14.5857 438.082 14.3919 438.781 14.3919C439.471 14.3919 440.024 14.5857 440.44 14.9732C440.865 15.3608 441.078 15.8523 441.078 16.4478C441.078 17.0434 440.865 17.5349 440.44 17.9225C440.024 18.31 439.471 18.5038 438.781 18.5038C438.082 18.5038 437.524 18.31 437.108 17.9225C436.692 17.5349 436.484 17.0434 436.484 16.4478ZM448.21 23.7217V35.7881H444.127V20.4463H447.955L448.21 23.7217ZM447.615 27.5784H446.509C446.509 26.4441 446.655 25.4232 446.948 24.5157C447.241 23.5988 447.652 22.819 448.182 22.1762C448.711 21.524 449.34 21.0277 450.068 20.6874C450.805 20.3376 451.627 20.1628 452.535 20.1628C453.253 20.1628 453.91 20.2667 454.506 20.4747C455.101 20.6827 455.612 21.0135 456.037 21.4672C456.472 21.921 456.803 22.5212 457.029 23.268C457.266 24.0147 457.384 24.9269 457.384 26.0045V35.7881H453.272V25.9904C453.272 25.3098 453.177 24.7804 452.988 24.4023C452.799 24.0242 452.521 23.7595 452.152 23.6083C451.793 23.4476 451.348 23.3672 450.819 23.3672C450.271 23.3672 449.793 23.4759 449.387 23.6933C448.99 23.9108 448.659 24.2132 448.394 24.6008C448.139 24.9789 447.945 25.4232 447.813 25.9336C447.681 26.4441 447.615 26.9923 447.615 27.5784ZM470.202 20.4463H473.903V35.2776C473.903 36.6766 473.591 37.863 472.967 38.8366C472.352 39.8197 471.492 40.5617 470.386 41.0627C469.28 41.5731 467.995 41.8284 466.529 41.8284C465.887 41.8284 465.206 41.7433 464.488 41.5731C463.779 41.403 463.098 41.1383 462.446 40.7791C461.803 40.4199 461.264 39.9662 460.829 39.4179L462.63 37.0075C463.103 37.5557 463.651 37.9811 464.275 38.2836C464.899 38.5955 465.589 38.7515 466.345 38.7515C467.082 38.7515 467.706 38.6144 468.217 38.3403C468.727 38.0756 469.119 37.6834 469.394 37.1635C469.668 36.653 469.805 36.0339 469.805 35.306V23.9911L470.202 20.4463ZM459.879 28.3015V28.0038C459.879 26.8316 460.021 25.7682 460.305 24.8135C460.598 23.8493 461.009 23.0222 461.538 22.3322C462.077 21.6421 462.729 21.108 463.495 20.7299C464.261 20.3518 465.126 20.1628 466.09 20.1628C467.111 20.1628 467.966 20.3518 468.656 20.7299C469.346 21.108 469.913 21.6468 470.358 22.3463C470.802 23.0364 471.147 23.854 471.393 24.7993C471.648 25.7351 471.847 26.7608 471.988 27.8762V28.5284C471.847 29.5966 471.634 30.5891 471.35 31.506C471.067 32.4229 470.693 33.2264 470.23 33.9165C469.767 34.597 469.19 35.1264 468.5 35.5045C467.82 35.8826 467.007 36.0717 466.062 36.0717C465.116 36.0717 464.261 35.8779 463.495 35.4903C462.739 35.1028 462.091 34.5592 461.553 33.8597C461.014 33.1602 460.598 32.3378 460.305 31.3926C460.021 30.4473 459.879 29.417 459.879 28.3015ZM463.963 28.0038V28.3015C463.963 28.9349 464.024 29.5257 464.147 30.0739C464.27 30.6222 464.459 31.109 464.715 31.5344C464.979 31.9503 465.305 32.2764 465.693 32.5127C466.09 32.7396 466.558 32.853 467.097 32.853C467.843 32.853 468.453 32.6971 468.926 32.3851C469.398 32.0637 469.753 31.6242 469.989 31.0665C470.225 30.5087 470.362 29.866 470.4 29.1381V27.2807C470.381 26.6851 470.301 26.1511 470.159 25.6784C470.017 25.1963 469.819 24.7851 469.564 24.4448C469.309 24.1045 468.978 23.8399 468.571 23.6508C468.165 23.4618 467.683 23.3672 467.125 23.3672C466.586 23.3672 466.118 23.4901 465.721 23.7359C465.334 23.9722 465.008 24.2983 464.743 24.7142C464.488 25.1302 464.294 25.6217 464.162 26.1889C464.029 26.7466 463.963 27.3515 463.963 28.0038Z" fill="#606060"/>
<circle cx="373.543" cy="106.791" r="4.5373" fill="#0567FF"/>
<circle cx="520.7" cy="102.254" r="9.0746" fill="#0567FF"/>
<circle cx="686.014" cy="97.7164" r="13.6119" fill="#0567FF"/>
<circle cx="869.473" cy="93.1795" r="18.1492" fill="#0567FF"/>
<path d="M374.715 136.326V149.282H373.66V137.664L370.151 138.967V137.966L374.537 136.326H374.715Z" fill="#2C2C2C"/>
<path d="M528.558 148.369V149.282H520.485V148.458L524.712 143.664C525.238 143.067 525.657 142.544 525.97 142.095C526.283 141.64 526.508 141.227 526.644 140.855C526.785 140.476 526.856 140.11 526.856 139.756C526.856 139.236 526.753 138.778 526.546 138.382C526.345 137.986 526.044 137.676 525.642 137.452C525.241 137.227 524.744 137.115 524.153 137.115C523.563 137.115 523.049 137.242 522.612 137.496C522.174 137.75 521.838 138.104 521.601 138.559C521.371 139.008 521.256 139.519 521.256 140.092H520.201C520.201 139.383 520.358 138.734 520.671 138.143C520.99 137.552 521.445 137.082 522.035 136.734C522.626 136.379 523.332 136.202 524.153 136.202C524.933 136.202 525.604 136.341 526.165 136.619C526.726 136.89 527.158 137.283 527.459 137.797C527.766 138.311 527.92 138.932 527.92 139.658C527.92 140.048 527.849 140.441 527.707 140.837C527.571 141.233 527.382 141.628 527.14 142.024C526.904 142.414 526.632 142.801 526.325 143.185C526.023 143.569 525.707 143.947 525.376 144.32L521.779 148.369H528.558Z" fill="#2C2C2C"/>
<path d="M689.686 142.246H690.767C691.429 142.246 691.981 142.134 692.424 141.909C692.873 141.679 693.21 141.374 693.434 140.996C693.665 140.618 693.78 140.199 693.78 139.738C693.78 139.218 693.682 138.763 693.487 138.373C693.292 137.977 692.994 137.67 692.592 137.452C692.197 137.227 691.688 137.115 691.068 137.115C690.525 137.115 690.04 137.221 689.615 137.434C689.189 137.647 688.853 137.951 688.605 138.347C688.356 138.742 688.232 139.215 688.232 139.765H687.178C687.178 139.061 687.346 138.444 687.683 137.912C688.02 137.375 688.483 136.955 689.074 136.654C689.665 136.353 690.33 136.202 691.068 136.202C691.83 136.202 692.492 136.341 693.053 136.619C693.62 136.896 694.058 137.301 694.365 137.833C694.678 138.364 694.834 139.011 694.834 139.773C694.834 140.163 694.749 140.547 694.577 140.925C694.412 141.304 694.164 141.646 693.833 141.953C693.502 142.255 693.092 142.497 692.601 142.68C692.111 142.863 691.541 142.955 690.891 142.955H689.686V142.246ZM689.686 143.159V142.459H690.891C691.629 142.459 692.262 142.544 692.787 142.716C693.313 142.881 693.744 143.117 694.081 143.425C694.424 143.726 694.675 144.077 694.834 144.479C694.994 144.881 695.074 145.312 695.074 145.773C695.074 146.364 694.976 146.887 694.781 147.341C694.586 147.796 694.309 148.183 693.948 148.502C693.594 148.815 693.174 149.055 692.69 149.22C692.211 149.38 691.686 149.459 691.112 149.459C690.593 149.459 690.084 149.383 689.588 149.229C689.098 149.075 688.655 148.848 688.259 148.547C687.869 148.239 687.559 147.855 687.328 147.395C687.098 146.928 686.983 146.39 686.983 145.782H688.037C688.037 146.325 688.167 146.807 688.427 147.226C688.687 147.64 689.048 147.965 689.508 148.201C689.975 148.431 690.51 148.547 691.112 148.547C691.721 148.547 692.241 148.443 692.672 148.237C693.109 148.024 693.443 147.714 693.674 147.306C693.904 146.898 694.019 146.399 694.019 145.808C694.019 145.188 693.88 144.683 693.603 144.293C693.331 143.903 692.95 143.617 692.459 143.433C691.975 143.25 691.411 143.159 690.767 143.159H689.686Z" fill="#2C2C2C"/>
<path d="M887.446 145.117V146.021H878.31V145.41L884.274 136.379H885.16L883.902 138.568L879.603 145.117H887.446ZM885.435 136.379V149.282H884.38V136.379H885.435Z" fill="#2C2C2C"/>
</svg>
