<svg width="1000" height="769" viewBox="0 0 1000 769" fill="none" xmlns="http://www.w3.org/2000/svg">
<rect x="2.69187" y="2.56199" width="994.576" height="763.776" stroke="#CACACA" stroke-width="3.62984"/>
<line x1="258.846" y1="176.057" x2="258.846" y2="610.985" stroke="#606060" stroke-width="3.62984"/>
<line x1="423.805" y1="176.057" x2="423.805" y2="610.985" stroke="#CACACA" stroke-width="3.62984"/>
<line x1="588.764" y1="176.057" x2="588.764" y2="610.985" stroke="#CACACA" stroke-width="3.62984"/>
<line x1="753.727" y1="176.057" x2="753.727" y2="610.985" stroke="#CACACA" stroke-width="3.62984"/>
<line x1="918.688" y1="176.057" x2="918.688" y2="610.985" stroke="#CACACA" stroke-width="3.62984"/>
<path d="M258.684 202.495H733.224V256.942H258.684V202.495Z" fill="#0567FF"/>
<path d="M258.684 346.647H899.831V401.094H258.684V346.647Z" fill="#0567FF"/>
<path d="M258.684 490.801H614.59V545.249H258.684V490.801Z" fill="#0567FF"/>
<path d="M126.181 217.29H132.161C133.517 217.29 134.663 217.497 135.597 217.91C136.54 218.324 137.256 218.936 137.744 219.746C138.24 220.549 138.488 221.537 138.488 222.712C138.488 223.539 138.319 224.296 137.98 224.982C137.649 225.66 137.169 226.239 136.54 226.719C135.92 227.19 135.176 227.542 134.307 227.774L133.637 228.034H128.017L127.992 226.086H132.235C133.095 226.086 133.811 225.937 134.382 225.64C134.952 225.334 135.382 224.924 135.672 224.411C135.961 223.899 136.106 223.332 136.106 222.712C136.106 222.017 135.97 221.409 135.697 220.888C135.424 220.367 134.994 219.966 134.406 219.684C133.827 219.395 133.079 219.25 132.161 219.25H128.575V235.354H126.181V217.29ZM136.739 235.354L132.347 227.166L134.841 227.153L139.295 235.205V235.354H136.739ZM147.061 235.602C146.127 235.602 145.279 235.445 144.518 235.131C143.765 234.808 143.116 234.357 142.57 233.778C142.032 233.199 141.619 232.513 141.329 231.719C141.04 230.925 140.895 230.056 140.895 229.113V228.592C140.895 227.501 141.056 226.529 141.379 225.677C141.702 224.817 142.14 224.089 142.694 223.493C143.248 222.898 143.877 222.447 144.58 222.141C145.283 221.835 146.011 221.682 146.763 221.682C147.723 221.682 148.55 221.847 149.245 222.178C149.948 222.509 150.523 222.972 150.969 223.568C151.416 224.155 151.747 224.85 151.962 225.652C152.177 226.446 152.284 227.314 152.284 228.257V229.287H142.26V227.414H149.989V227.24C149.956 226.645 149.832 226.066 149.617 225.503C149.41 224.941 149.079 224.477 148.624 224.114C148.17 223.75 147.549 223.568 146.763 223.568C146.242 223.568 145.763 223.679 145.324 223.903C144.886 224.118 144.51 224.44 144.195 224.87C143.881 225.3 143.637 225.826 143.463 226.446C143.29 227.066 143.203 227.782 143.203 228.592V229.113C143.203 229.75 143.29 230.35 143.463 230.912C143.645 231.467 143.906 231.955 144.245 232.376C144.592 232.798 145.01 233.129 145.498 233.369C145.994 233.609 146.557 233.729 147.185 233.729C147.996 233.729 148.682 233.563 149.245 233.232C149.807 232.902 150.299 232.459 150.721 231.905L152.111 233.009C151.821 233.448 151.453 233.865 151.007 234.262C150.56 234.659 150.01 234.982 149.356 235.23C148.711 235.478 147.946 235.602 147.061 235.602ZM163.661 221.93H165.746V235.069C165.746 236.251 165.506 237.26 165.026 238.096C164.546 238.931 163.876 239.564 163.016 239.994C162.164 240.432 161.18 240.652 160.063 240.652C159.6 240.652 159.054 240.577 158.426 240.428C157.805 240.288 157.193 240.044 156.59 239.696C155.994 239.357 155.494 238.898 155.088 238.319L156.292 236.954C156.854 237.633 157.442 238.104 158.054 238.369C158.674 238.634 159.286 238.766 159.89 238.766C160.618 238.766 161.246 238.629 161.776 238.356C162.305 238.083 162.714 237.678 163.004 237.141C163.302 236.611 163.45 235.958 163.45 235.18V224.883L163.661 221.93ZM154.418 228.791V228.53C154.418 227.505 154.538 226.574 154.778 225.739C155.026 224.895 155.378 224.171 155.833 223.568C156.296 222.964 156.854 222.501 157.508 222.178C158.161 221.847 158.897 221.682 159.716 221.682C160.56 221.682 161.296 221.831 161.924 222.128C162.561 222.418 163.099 222.844 163.537 223.406C163.984 223.961 164.335 224.631 164.592 225.416C164.848 226.202 165.026 227.091 165.125 228.084V229.225C165.034 230.209 164.857 231.094 164.592 231.88C164.335 232.666 163.984 233.336 163.537 233.89C163.099 234.444 162.561 234.87 161.924 235.168C161.288 235.457 160.543 235.602 159.691 235.602C158.889 235.602 158.161 235.433 157.508 235.093C156.863 234.754 156.308 234.279 155.845 233.667C155.382 233.055 155.026 232.335 154.778 231.508C154.538 230.673 154.418 229.767 154.418 228.791ZM156.714 228.53V228.791C156.714 229.461 156.78 230.089 156.912 230.677C157.053 231.264 157.264 231.781 157.545 232.228C157.834 232.674 158.202 233.026 158.649 233.282C159.096 233.53 159.629 233.654 160.25 233.654C161.01 233.654 161.639 233.493 162.135 233.17C162.632 232.848 163.025 232.422 163.314 231.893C163.612 231.363 163.843 230.788 164.009 230.168V227.178C163.918 226.723 163.777 226.285 163.587 225.863C163.405 225.433 163.165 225.052 162.867 224.721C162.578 224.382 162.218 224.114 161.788 223.915C161.358 223.717 160.853 223.617 160.274 223.617C159.646 223.617 159.104 223.75 158.649 224.014C158.202 224.271 157.834 224.626 157.545 225.081C157.264 225.528 157.053 226.049 156.912 226.645C156.78 227.232 156.714 227.86 156.714 228.53ZM171.726 221.93V235.354H169.418V221.93H171.726ZM169.244 218.369C169.244 217.997 169.356 217.683 169.579 217.426C169.811 217.17 170.15 217.042 170.597 217.042C171.035 217.042 171.37 217.17 171.602 217.426C171.842 217.683 171.961 217.997 171.961 218.369C171.961 218.725 171.842 219.031 171.602 219.287C171.37 219.535 171.035 219.66 170.597 219.66C170.15 219.66 169.811 219.535 169.579 219.287C169.356 219.031 169.244 218.725 169.244 218.369ZM174.803 228.791V228.506C174.803 227.538 174.943 226.64 175.224 225.813C175.506 224.978 175.911 224.254 176.44 223.642C176.97 223.022 177.611 222.542 178.363 222.203C179.116 221.856 179.96 221.682 180.894 221.682C181.837 221.682 182.685 221.856 183.438 222.203C184.199 222.542 184.844 223.022 185.373 223.642C185.911 224.254 186.32 224.978 186.601 225.813C186.883 226.64 187.023 227.538 187.023 228.506V228.791C187.023 229.759 186.883 230.656 186.601 231.483C186.32 232.31 185.911 233.034 185.373 233.654C184.844 234.266 184.203 234.746 183.45 235.093C182.706 235.433 181.862 235.602 180.919 235.602C179.976 235.602 179.128 235.433 178.376 235.093C177.623 234.746 176.978 234.266 176.44 233.654C175.911 233.034 175.506 232.31 175.224 231.483C174.943 230.656 174.803 229.759 174.803 228.791ZM177.098 228.506V228.791C177.098 229.461 177.176 230.094 177.334 230.689C177.491 231.276 177.726 231.797 178.041 232.252C178.363 232.707 178.764 233.067 179.244 233.332C179.724 233.588 180.282 233.716 180.919 233.716C181.548 233.716 182.098 233.588 182.569 233.332C183.049 233.067 183.446 232.707 183.76 232.252C184.075 231.797 184.31 231.276 184.467 230.689C184.633 230.094 184.716 229.461 184.716 228.791V228.506C184.716 227.844 184.633 227.219 184.467 226.632C184.31 226.037 184.07 225.511 183.748 225.056C183.433 224.593 183.036 224.229 182.557 223.965C182.085 223.7 181.531 223.568 180.894 223.568C180.266 223.568 179.711 223.7 179.232 223.965C178.76 224.229 178.363 224.593 178.041 225.056C177.726 225.511 177.491 226.037 177.334 226.632C177.176 227.219 177.098 227.844 177.098 228.506ZM192.197 224.796V235.354H189.902V221.93H192.073L192.197 224.796ZM191.651 228.133L190.696 228.096C190.704 227.178 190.84 226.33 191.105 225.553C191.37 224.767 191.742 224.085 192.222 223.506C192.701 222.927 193.272 222.48 193.934 222.166C194.604 221.843 195.344 221.682 196.154 221.682C196.816 221.682 197.412 221.773 197.941 221.955C198.47 222.128 198.921 222.41 199.293 222.798C199.674 223.187 199.963 223.692 200.162 224.312C200.36 224.924 200.46 225.673 200.46 226.558V235.354H198.152V226.533C198.152 225.83 198.049 225.267 197.842 224.846C197.635 224.415 197.333 224.105 196.936 223.915C196.539 223.717 196.051 223.617 195.472 223.617C194.901 223.617 194.38 223.737 193.909 223.977C193.446 224.217 193.045 224.548 192.705 224.97C192.375 225.391 192.114 225.875 191.924 226.421C191.742 226.959 191.651 227.53 191.651 228.133ZM211.861 233.059V226.148C211.861 225.619 211.754 225.16 211.539 224.771C211.332 224.374 211.018 224.068 210.596 223.853C210.174 223.638 209.653 223.53 209.033 223.53C208.454 223.53 207.945 223.63 207.507 223.828C207.076 224.027 206.737 224.287 206.489 224.61C206.249 224.932 206.129 225.28 206.129 225.652H203.834C203.834 225.172 203.958 224.697 204.206 224.225C204.455 223.754 204.81 223.328 205.273 222.947C205.745 222.559 206.307 222.253 206.961 222.029C207.622 221.798 208.359 221.682 209.169 221.682C210.145 221.682 211.005 221.847 211.75 222.178C212.502 222.509 213.09 223.009 213.511 223.679C213.942 224.341 214.157 225.172 214.157 226.173V232.426C214.157 232.873 214.194 233.348 214.268 233.853C214.351 234.357 214.471 234.792 214.628 235.155V235.354H212.234C212.118 235.089 212.027 234.738 211.961 234.299C211.894 233.853 211.861 233.439 211.861 233.059ZM212.258 227.215L212.283 228.828H209.963C209.31 228.828 208.727 228.882 208.214 228.989C207.701 229.089 207.271 229.242 206.923 229.448C206.576 229.655 206.311 229.916 206.129 230.23C205.947 230.536 205.856 230.896 205.856 231.309C205.856 231.731 205.952 232.116 206.142 232.463C206.332 232.811 206.617 233.088 206.998 233.294C207.387 233.493 207.862 233.592 208.425 233.592C209.128 233.592 209.748 233.443 210.286 233.146C210.823 232.848 211.249 232.484 211.564 232.054C211.886 231.624 212.06 231.206 212.085 230.801L213.065 231.905C213.007 232.252 212.85 232.637 212.593 233.059C212.337 233.481 211.994 233.886 211.564 234.275C211.142 234.655 210.637 234.974 210.05 235.23C209.471 235.478 208.818 235.602 208.09 235.602C207.18 235.602 206.382 235.424 205.695 235.069C205.017 234.713 204.488 234.237 204.107 233.642C203.735 233.038 203.549 232.364 203.549 231.62C203.549 230.9 203.689 230.267 203.971 229.721C204.252 229.167 204.657 228.708 205.187 228.344C205.716 227.972 206.353 227.691 207.097 227.501C207.842 227.31 208.673 227.215 209.591 227.215H212.258ZM220.261 216.297V235.354H217.953V216.297H220.261ZM233.164 217.29V235.354H230.769V217.29H233.164Z" fill="#606060"/>
<path d="M120.867 365.786H126.847C128.203 365.786 129.349 365.993 130.284 366.406C131.226 366.82 131.942 367.432 132.43 368.242C132.926 369.045 133.174 370.033 133.174 371.208C133.174 372.035 133.005 372.792 132.666 373.478C132.335 374.156 131.855 374.735 131.226 375.215C130.606 375.687 129.862 376.038 128.993 376.27L128.323 376.53H122.703L122.678 374.582H126.921C127.781 374.582 128.497 374.433 129.068 374.136C129.638 373.83 130.068 373.42 130.358 372.907C130.647 372.395 130.792 371.828 130.792 371.208C130.792 370.513 130.656 369.905 130.383 369.384C130.11 368.863 129.68 368.462 129.092 368.18C128.513 367.891 127.765 367.746 126.847 367.746H123.261V383.85H120.867V365.786ZM131.425 383.85L127.033 375.662L129.527 375.649L133.981 383.701V383.85H131.425ZM141.747 384.098C140.813 384.098 139.965 383.941 139.204 383.627C138.451 383.304 137.802 382.853 137.256 382.274C136.718 381.695 136.305 381.009 136.015 380.215C135.726 379.421 135.581 378.552 135.581 377.61V377.088C135.581 375.997 135.742 375.025 136.065 374.173C136.388 373.313 136.826 372.585 137.38 371.989C137.934 371.394 138.563 370.943 139.266 370.637C139.969 370.331 140.697 370.178 141.45 370.178C142.409 370.178 143.236 370.343 143.931 370.674C144.634 371.005 145.209 371.468 145.655 372.064C146.102 372.651 146.433 373.346 146.648 374.148C146.863 374.942 146.97 375.811 146.97 376.753V377.783H136.946V375.91H144.675V375.736C144.642 375.141 144.518 374.562 144.303 373.999C144.096 373.437 143.765 372.974 143.311 372.61C142.856 372.246 142.235 372.064 141.45 372.064C140.928 372.064 140.449 372.175 140.01 372.399C139.572 372.614 139.196 372.936 138.881 373.366C138.567 373.797 138.323 374.322 138.149 374.942C137.976 375.562 137.889 376.278 137.889 377.088V377.61C137.889 378.246 137.976 378.846 138.149 379.409C138.331 379.963 138.592 380.451 138.931 380.872C139.278 381.294 139.696 381.625 140.184 381.865C140.68 382.105 141.243 382.225 141.871 382.225C142.682 382.225 143.368 382.059 143.931 381.729C144.493 381.398 144.985 380.955 145.407 380.401L146.797 381.505C146.507 381.944 146.139 382.361 145.693 382.758C145.246 383.155 144.696 383.478 144.043 383.726C143.397 383.974 142.632 384.098 141.747 384.098ZM158.347 370.426H160.432V383.565C160.432 384.748 160.192 385.757 159.712 386.592C159.232 387.427 158.562 388.06 157.702 388.49C156.85 388.929 155.866 389.148 154.749 389.148C154.286 389.148 153.74 389.073 153.112 388.924C152.491 388.784 151.879 388.54 151.276 388.192C150.68 387.853 150.18 387.394 149.774 386.815L150.978 385.451C151.54 386.129 152.128 386.6 152.74 386.865C153.36 387.13 153.972 387.262 154.576 387.262C155.304 387.262 155.932 387.125 156.462 386.853C156.991 386.58 157.4 386.174 157.69 385.637C157.988 385.107 158.136 384.454 158.136 383.676V373.379L158.347 370.426ZM149.104 377.287V377.026C149.104 376.001 149.224 375.07 149.464 374.235C149.712 373.391 150.064 372.668 150.519 372.064C150.982 371.46 151.54 370.997 152.194 370.674C152.847 370.343 153.583 370.178 154.402 370.178C155.246 370.178 155.982 370.327 156.61 370.625C157.247 370.914 157.785 371.34 158.223 371.902C158.67 372.457 159.022 373.127 159.278 373.912C159.534 374.698 159.712 375.587 159.811 376.58V377.721C159.72 378.705 159.543 379.59 159.278 380.376C159.022 381.162 158.67 381.832 158.223 382.386C157.785 382.94 157.247 383.366 156.61 383.664C155.974 383.953 155.229 384.098 154.377 384.098C153.575 384.098 152.847 383.929 152.194 383.59C151.549 383.25 150.994 382.775 150.531 382.163C150.068 381.551 149.712 380.831 149.464 380.004C149.224 379.169 149.104 378.263 149.104 377.287ZM151.4 377.026V377.287C151.4 377.957 151.466 378.586 151.598 379.173C151.739 379.76 151.95 380.277 152.231 380.724C152.52 381.17 152.888 381.522 153.335 381.778C153.782 382.026 154.315 382.15 154.936 382.15C155.697 382.15 156.325 381.989 156.821 381.667C157.318 381.344 157.711 380.918 158 380.389C158.298 379.859 158.529 379.284 158.695 378.664V375.674C158.604 375.219 158.463 374.781 158.273 374.359C158.091 373.929 157.851 373.548 157.553 373.218C157.264 372.878 156.904 372.61 156.474 372.411C156.044 372.213 155.539 372.113 154.96 372.113C154.332 372.113 153.79 372.246 153.335 372.51C152.888 372.767 152.52 373.122 152.231 373.577C151.95 374.024 151.739 374.545 151.598 375.141C151.466 375.728 151.4 376.356 151.4 377.026ZM166.412 370.426V383.85H164.104V370.426H166.412ZM163.93 366.865C163.93 366.493 164.042 366.179 164.265 365.922C164.497 365.666 164.836 365.538 165.283 365.538C165.721 365.538 166.056 365.666 166.288 365.922C166.528 366.179 166.647 366.493 166.647 366.865C166.647 367.221 166.528 367.527 166.288 367.783C166.056 368.032 165.721 368.156 165.283 368.156C164.836 368.156 164.497 368.032 164.265 367.783C164.042 367.527 163.93 367.221 163.93 366.865ZM169.489 377.287V377.002C169.489 376.034 169.629 375.136 169.91 374.309C170.192 373.474 170.597 372.75 171.126 372.138C171.656 371.518 172.297 371.038 173.049 370.699C173.802 370.352 174.646 370.178 175.58 370.178C176.523 370.178 177.371 370.352 178.124 370.699C178.885 371.038 179.53 371.518 180.059 372.138C180.597 372.75 181.006 373.474 181.287 374.309C181.569 375.136 181.709 376.034 181.709 377.002V377.287C181.709 378.255 181.569 379.152 181.287 379.979C181.006 380.806 180.597 381.53 180.059 382.15C179.53 382.762 178.889 383.242 178.136 383.59C177.392 383.929 176.548 384.098 175.605 384.098C174.662 384.098 173.814 383.929 173.062 383.59C172.309 383.242 171.664 382.762 171.126 382.15C170.597 381.53 170.192 380.806 169.91 379.979C169.629 379.152 169.489 378.255 169.489 377.287ZM171.784 377.002V377.287C171.784 377.957 171.862 378.59 172.02 379.185C172.177 379.772 172.412 380.294 172.727 380.748C173.049 381.203 173.45 381.563 173.93 381.828C174.41 382.084 174.968 382.212 175.605 382.212C176.234 382.212 176.784 382.084 177.255 381.828C177.735 381.563 178.132 381.203 178.446 380.748C178.761 380.294 178.996 379.772 179.153 379.185C179.319 378.59 179.402 377.957 179.402 377.287V377.002C179.402 376.34 179.319 375.715 179.153 375.128C178.996 374.533 178.756 374.007 178.434 373.553C178.12 373.089 177.723 372.725 177.243 372.461C176.771 372.196 176.217 372.064 175.58 372.064C174.952 372.064 174.398 372.196 173.918 372.461C173.446 372.725 173.049 373.089 172.727 373.553C172.412 374.007 172.177 374.533 172.02 375.128C171.862 375.715 171.784 376.34 171.784 377.002ZM186.883 373.292V383.85H184.588V370.426H186.759L186.883 373.292ZM186.337 376.629L185.382 376.592C185.39 375.674 185.526 374.826 185.791 374.049C186.056 373.263 186.428 372.581 186.908 372.002C187.387 371.423 187.958 370.976 188.62 370.662C189.29 370.339 190.03 370.178 190.841 370.178C191.502 370.178 192.098 370.269 192.627 370.451C193.156 370.625 193.607 370.906 193.979 371.295C194.36 371.683 194.649 372.188 194.848 372.808C195.046 373.42 195.146 374.169 195.146 375.054V383.85H192.838V375.029C192.838 374.326 192.735 373.763 192.528 373.342C192.321 372.912 192.019 372.601 191.622 372.411C191.225 372.213 190.737 372.113 190.158 372.113C189.587 372.113 189.066 372.233 188.595 372.473C188.132 372.713 187.731 373.044 187.391 373.466C187.061 373.888 186.8 374.371 186.61 374.917C186.428 375.455 186.337 376.026 186.337 376.629ZM206.547 381.555V374.644C206.547 374.115 206.44 373.656 206.225 373.267C206.018 372.87 205.704 372.564 205.282 372.349C204.86 372.134 204.339 372.027 203.719 372.027C203.14 372.027 202.631 372.126 202.193 372.324C201.763 372.523 201.423 372.783 201.175 373.106C200.935 373.428 200.815 373.776 200.815 374.148H198.52C198.52 373.668 198.644 373.193 198.892 372.721C199.141 372.25 199.496 371.824 199.959 371.443C200.431 371.055 200.993 370.749 201.647 370.525C202.308 370.294 203.045 370.178 203.855 370.178C204.831 370.178 205.691 370.343 206.436 370.674C207.188 371.005 207.776 371.505 208.197 372.175C208.628 372.837 208.843 373.668 208.843 374.669V380.922C208.843 381.369 208.88 381.844 208.954 382.349C209.037 382.853 209.157 383.288 209.314 383.652V383.85H206.92C206.804 383.585 206.713 383.234 206.647 382.796C206.58 382.349 206.547 381.935 206.547 381.555ZM206.944 375.711L206.969 377.324H204.649C203.996 377.324 203.413 377.378 202.9 377.485C202.387 377.585 201.957 377.738 201.609 377.945C201.262 378.151 200.997 378.412 200.815 378.726C200.634 379.032 200.543 379.392 200.543 379.806C200.543 380.227 200.638 380.612 200.828 380.959C201.018 381.307 201.303 381.584 201.684 381.791C202.073 381.989 202.548 382.088 203.111 382.088C203.814 382.088 204.434 381.939 204.972 381.642C205.509 381.344 205.935 380.98 206.25 380.55C206.572 380.12 206.746 379.702 206.771 379.297L207.751 380.401C207.693 380.748 207.536 381.133 207.279 381.555C207.023 381.977 206.68 382.382 206.25 382.771C205.828 383.151 205.323 383.47 204.736 383.726C204.157 383.974 203.504 384.098 202.776 384.098C201.866 384.098 201.068 383.92 200.381 383.565C199.703 383.209 199.174 382.733 198.793 382.138C198.421 381.534 198.235 380.86 198.235 380.116C198.235 379.396 198.375 378.763 198.657 378.217C198.938 377.663 199.343 377.204 199.873 376.84C200.402 376.468 201.039 376.187 201.783 375.997C202.528 375.806 203.359 375.711 204.277 375.711H206.944ZM214.947 364.793V383.85H212.639V364.793H214.947ZM227.85 365.786V383.85H225.455V365.786H227.85ZM234.773 365.786V383.85H232.378V365.786H234.773Z" fill="#606060"/>
<path d="M112.126 512.741H118.106C119.462 512.741 120.608 512.948 121.542 513.361C122.485 513.775 123.201 514.387 123.689 515.198C124.185 516 124.433 516.988 124.433 518.163C124.433 518.99 124.264 519.747 123.925 520.433C123.594 521.111 123.114 521.69 122.485 522.17C121.865 522.642 121.121 522.993 120.252 523.225L119.582 523.485H113.962L113.937 521.537H118.18C119.04 521.537 119.756 521.389 120.327 521.091C120.897 520.785 121.327 520.375 121.617 519.862C121.906 519.35 122.051 518.783 122.051 518.163C122.051 517.468 121.915 516.86 121.642 516.339C121.369 515.818 120.939 515.417 120.351 515.136C119.772 514.846 119.024 514.701 118.106 514.701H114.52V530.805H112.126V512.741ZM122.684 530.805L118.292 522.617L120.786 522.604L125.24 530.656V530.805H122.684ZM133.006 531.053C132.072 531.053 131.224 530.896 130.463 530.582C129.71 530.259 129.061 529.809 128.515 529.23C127.977 528.651 127.564 527.964 127.274 527.17C126.985 526.376 126.84 525.508 126.84 524.565V524.044C126.84 522.952 127.001 521.98 127.324 521.128C127.647 520.268 128.085 519.54 128.639 518.944C129.193 518.349 129.822 517.898 130.525 517.592C131.228 517.286 131.956 517.133 132.708 517.133C133.668 517.133 134.495 517.298 135.19 517.629C135.893 517.96 136.468 518.423 136.914 519.019C137.361 519.606 137.692 520.301 137.907 521.103C138.122 521.897 138.229 522.766 138.229 523.709V524.738H128.205V522.865H135.934V522.691C135.901 522.096 135.777 521.517 135.562 520.954C135.355 520.392 135.024 519.929 134.569 519.565C134.115 519.201 133.494 519.019 132.708 519.019C132.187 519.019 131.708 519.13 131.269 519.354C130.831 519.569 130.455 519.891 130.14 520.322C129.826 520.752 129.582 521.277 129.408 521.897C129.235 522.518 129.148 523.233 129.148 524.044V524.565C129.148 525.201 129.235 525.801 129.408 526.364C129.59 526.918 129.851 527.406 130.19 527.828C130.537 528.249 130.955 528.58 131.443 528.82C131.939 529.06 132.502 529.18 133.13 529.18C133.941 529.18 134.627 529.014 135.19 528.684C135.752 528.353 136.244 527.91 136.666 527.356L138.056 528.46C137.766 528.899 137.398 529.316 136.952 529.713C136.505 530.11 135.955 530.433 135.301 530.681C134.656 530.929 133.891 531.053 133.006 531.053ZM149.606 517.381H151.691V530.52C151.691 531.703 151.451 532.712 150.971 533.547C150.491 534.382 149.821 535.015 148.961 535.445C148.109 535.884 147.125 536.103 146.008 536.103C145.545 536.103 144.999 536.028 144.371 535.88C143.75 535.739 143.138 535.495 142.535 535.148C141.939 534.808 141.439 534.349 141.033 533.77L142.237 532.406C142.799 533.084 143.387 533.555 143.999 533.82C144.619 534.085 145.231 534.217 145.835 534.217C146.563 534.217 147.191 534.081 147.721 533.808C148.25 533.535 148.659 533.129 148.949 532.592C149.247 532.062 149.395 531.409 149.395 530.631V520.334L149.606 517.381ZM140.363 524.242V523.982C140.363 522.956 140.483 522.025 140.723 521.19C140.971 520.346 141.323 519.623 141.778 519.019C142.241 518.415 142.799 517.952 143.453 517.629C144.106 517.298 144.842 517.133 145.661 517.133C146.505 517.133 147.241 517.282 147.869 517.58C148.506 517.869 149.044 518.295 149.482 518.858C149.929 519.412 150.28 520.082 150.537 520.867C150.793 521.653 150.971 522.542 151.07 523.535V524.676C150.979 525.661 150.802 526.546 150.537 527.331C150.28 528.117 149.929 528.787 149.482 529.341C149.044 529.895 148.506 530.321 147.869 530.619C147.233 530.909 146.488 531.053 145.636 531.053C144.834 531.053 144.106 530.884 143.453 530.545C142.808 530.206 142.253 529.73 141.79 529.118C141.327 528.506 140.971 527.786 140.723 526.959C140.483 526.124 140.363 525.218 140.363 524.242ZM142.659 523.982V524.242C142.659 524.912 142.725 525.541 142.857 526.128C142.998 526.715 143.209 527.232 143.49 527.679C143.779 528.125 144.147 528.477 144.594 528.733C145.041 528.981 145.574 529.105 146.195 529.105C146.955 529.105 147.584 528.944 148.08 528.622C148.577 528.299 148.97 527.873 149.259 527.344C149.557 526.814 149.788 526.24 149.954 525.619V522.629C149.863 522.174 149.722 521.736 149.532 521.314C149.35 520.884 149.11 520.503 148.812 520.173C148.523 519.834 148.163 519.565 147.733 519.366C147.303 519.168 146.798 519.068 146.219 519.068C145.591 519.068 145.049 519.201 144.594 519.465C144.147 519.722 143.779 520.078 143.49 520.532C143.209 520.979 142.998 521.5 142.857 522.096C142.725 522.683 142.659 523.312 142.659 523.982ZM157.671 517.381V530.805H155.363V517.381H157.671ZM155.189 513.82C155.189 513.448 155.301 513.134 155.524 512.878C155.756 512.621 156.095 512.493 156.542 512.493C156.98 512.493 157.315 512.621 157.547 512.878C157.787 513.134 157.906 513.448 157.906 513.82C157.906 514.176 157.787 514.482 157.547 514.739C157.315 514.987 156.98 515.111 156.542 515.111C156.095 515.111 155.756 514.987 155.524 514.739C155.301 514.482 155.189 514.176 155.189 513.82ZM160.748 524.242V523.957C160.748 522.989 160.888 522.092 161.169 521.264C161.451 520.429 161.856 519.705 162.385 519.093C162.915 518.473 163.556 517.993 164.308 517.654C165.061 517.307 165.905 517.133 166.839 517.133C167.782 517.133 168.63 517.307 169.383 517.654C170.144 517.993 170.789 518.473 171.318 519.093C171.856 519.705 172.265 520.429 172.546 521.264C172.828 522.092 172.968 522.989 172.968 523.957V524.242C172.968 525.21 172.828 526.107 172.546 526.934C172.265 527.761 171.856 528.485 171.318 529.105C170.789 529.718 170.148 530.197 169.395 530.545C168.651 530.884 167.807 531.053 166.864 531.053C165.921 531.053 165.073 530.884 164.321 530.545C163.568 530.197 162.923 529.718 162.385 529.105C161.856 528.485 161.451 527.761 161.169 526.934C160.888 526.107 160.748 525.21 160.748 524.242ZM163.043 523.957V524.242C163.043 524.912 163.121 525.545 163.279 526.14C163.436 526.728 163.671 527.249 163.986 527.704C164.308 528.158 164.709 528.518 165.189 528.783C165.669 529.039 166.227 529.167 166.864 529.167C167.493 529.167 168.043 529.039 168.514 528.783C168.994 528.518 169.391 528.158 169.705 527.704C170.02 527.249 170.255 526.728 170.412 526.14C170.578 525.545 170.661 524.912 170.661 524.242V523.957C170.661 523.295 170.578 522.671 170.412 522.083C170.255 521.488 170.015 520.963 169.693 520.508C169.378 520.044 168.981 519.681 168.502 519.416C168.03 519.151 167.476 519.019 166.839 519.019C166.211 519.019 165.656 519.151 165.177 519.416C164.705 519.681 164.308 520.044 163.986 520.508C163.671 520.963 163.436 521.488 163.279 522.083C163.121 522.671 163.043 523.295 163.043 523.957ZM178.142 520.247V530.805H175.847V517.381H178.018L178.142 520.247ZM177.596 523.584L176.641 523.547C176.649 522.629 176.785 521.781 177.05 521.004C177.315 520.218 177.687 519.536 178.167 518.957C178.646 518.378 179.217 517.931 179.879 517.617C180.549 517.294 181.289 517.133 182.099 517.133C182.761 517.133 183.357 517.224 183.886 517.406C184.415 517.58 184.866 517.861 185.238 518.25C185.619 518.638 185.908 519.143 186.107 519.763C186.305 520.375 186.405 521.124 186.405 522.009V530.805H184.097V521.984C184.097 521.281 183.994 520.719 183.787 520.297C183.58 519.867 183.278 519.556 182.881 519.366C182.484 519.168 181.996 519.068 181.417 519.068C180.846 519.068 180.325 519.188 179.854 519.428C179.391 519.668 178.99 519.999 178.65 520.421C178.32 520.843 178.059 521.326 177.869 521.872C177.687 522.41 177.596 522.981 177.596 523.584ZM197.806 528.51V521.599C197.806 521.07 197.699 520.611 197.484 520.222C197.277 519.825 196.963 519.519 196.541 519.304C196.119 519.089 195.598 518.982 194.978 518.982C194.399 518.982 193.89 519.081 193.452 519.279C193.021 519.478 192.682 519.738 192.434 520.061C192.194 520.384 192.074 520.731 192.074 521.103H189.779C189.779 520.623 189.903 520.148 190.151 519.676C190.4 519.205 190.755 518.779 191.218 518.398C191.69 518.01 192.252 517.704 192.906 517.48C193.567 517.249 194.304 517.133 195.114 517.133C196.09 517.133 196.95 517.298 197.695 517.629C198.447 517.96 199.035 518.461 199.456 519.13C199.887 519.792 200.102 520.623 200.102 521.624V527.877C200.102 528.324 200.139 528.799 200.213 529.304C200.296 529.809 200.416 530.243 200.573 530.607V530.805H198.179C198.063 530.541 197.972 530.189 197.906 529.751C197.839 529.304 197.806 528.89 197.806 528.51ZM198.203 522.666L198.228 524.279H195.908C195.255 524.279 194.672 524.333 194.159 524.441C193.646 524.54 193.216 524.693 192.868 524.9C192.521 525.106 192.256 525.367 192.074 525.681C191.892 525.987 191.801 526.347 191.801 526.761C191.801 527.182 191.897 527.567 192.087 527.914C192.277 528.262 192.562 528.539 192.943 528.746C193.332 528.944 193.807 529.043 194.37 529.043C195.073 529.043 195.693 528.895 196.231 528.597C196.768 528.299 197.194 527.935 197.509 527.505C197.831 527.075 198.005 526.657 198.03 526.252L199.01 527.356C198.952 527.704 198.795 528.088 198.538 528.51C198.282 528.932 197.939 529.337 197.509 529.726C197.087 530.106 196.582 530.425 195.995 530.681C195.416 530.929 194.763 531.053 194.035 531.053C193.125 531.053 192.327 530.875 191.64 530.52C190.962 530.164 190.433 529.689 190.052 529.093C189.68 528.489 189.494 527.815 189.494 527.071C189.494 526.351 189.634 525.718 189.916 525.173C190.197 524.618 190.602 524.159 191.132 523.795C191.661 523.423 192.298 523.142 193.042 522.952C193.787 522.762 194.618 522.666 195.536 522.666H198.203ZM206.206 511.749V530.805H203.898V511.749H206.206ZM219.109 512.741V530.805H216.714V512.741H219.109ZM226.032 512.741V530.805H223.637V512.741H226.032ZM232.954 512.741V530.805H230.56V512.741H232.954Z" fill="#606060"/>
<path d="M263.947 625.909V628.664C263.947 630.144 263.815 631.393 263.55 632.41C263.285 633.428 262.905 634.247 262.408 634.867C261.912 635.487 261.313 635.938 260.609 636.219C259.915 636.492 259.129 636.629 258.252 636.629C257.557 636.629 256.916 636.542 256.329 636.368C255.742 636.195 255.213 635.917 254.741 635.537C254.278 635.148 253.881 634.644 253.55 634.023C253.219 633.403 252.967 632.65 252.793 631.765C252.62 630.88 252.533 629.846 252.533 628.664V625.909C252.533 624.429 252.665 623.188 252.93 622.187C253.203 621.187 253.587 620.384 254.084 619.78C254.58 619.168 255.175 618.73 255.87 618.465C256.573 618.201 257.359 618.068 258.227 618.068C258.93 618.068 259.576 618.155 260.163 618.329C260.758 618.494 261.288 618.763 261.751 619.135C262.214 619.499 262.607 619.987 262.93 620.599C263.26 621.203 263.513 621.943 263.686 622.82C263.86 623.697 263.947 624.727 263.947 625.909ZM261.639 629.036V625.525C261.639 624.714 261.59 624.003 261.49 623.391C261.399 622.77 261.263 622.241 261.081 621.803C260.899 621.364 260.667 621.009 260.386 620.736C260.113 620.463 259.795 620.264 259.431 620.14C259.075 620.008 258.674 619.942 258.227 619.942C257.682 619.942 257.198 620.045 256.776 620.252C256.354 620.45 255.998 620.769 255.709 621.207C255.428 621.646 255.213 622.22 255.064 622.932C254.915 623.643 254.84 624.507 254.84 625.525V629.036C254.84 629.846 254.886 630.562 254.977 631.182C255.076 631.803 255.221 632.34 255.411 632.795C255.601 633.242 255.833 633.61 256.106 633.899C256.379 634.189 256.693 634.404 257.049 634.544C257.413 634.677 257.814 634.743 258.252 634.743C258.815 634.743 259.307 634.635 259.729 634.42C260.15 634.205 260.502 633.87 260.783 633.415C261.073 632.952 261.288 632.361 261.428 631.641C261.569 630.913 261.639 630.045 261.639 629.036Z" fill="#606060"/>
<path d="M414.045 634.495V636.381H402.222V634.731L408.14 628.143C408.867 627.332 409.43 626.646 409.827 626.083C410.232 625.512 410.513 625.004 410.671 624.557C410.836 624.102 410.919 623.639 410.919 623.168C410.919 622.572 410.795 622.034 410.546 621.555C410.307 621.067 409.951 620.678 409.48 620.388C409.008 620.099 408.437 619.954 407.767 619.954C406.965 619.954 406.295 620.111 405.758 620.426C405.228 620.732 404.831 621.162 404.566 621.716C404.302 622.27 404.169 622.907 404.169 623.627H401.874C401.874 622.609 402.098 621.679 402.544 620.835C402.991 619.991 403.653 619.321 404.529 618.825C405.406 618.321 406.485 618.068 407.767 618.068C408.909 618.068 409.885 618.271 410.695 618.676C411.506 619.073 412.126 619.636 412.556 620.364C412.995 621.083 413.214 621.927 413.214 622.895C413.214 623.424 413.123 623.962 412.941 624.507C412.767 625.045 412.523 625.583 412.209 626.12C411.903 626.658 411.543 627.187 411.13 627.708C410.724 628.229 410.29 628.742 409.827 629.247L404.988 634.495H414.045ZM419.405 627.783L417.569 627.311L418.474 618.316H427.742V620.438H420.422L419.876 625.351C420.207 625.161 420.625 624.983 421.129 624.818C421.642 624.652 422.229 624.569 422.891 624.569C423.727 624.569 424.475 624.714 425.137 625.004C425.798 625.285 426.361 625.69 426.824 626.22C427.296 626.749 427.655 627.386 427.903 628.13C428.152 628.875 428.276 629.706 428.276 630.624C428.276 631.492 428.156 632.291 427.916 633.018C427.684 633.746 427.333 634.383 426.861 634.929C426.39 635.467 425.794 635.884 425.075 636.182C424.363 636.48 423.524 636.629 422.556 636.629C421.828 636.629 421.138 636.529 420.484 636.331C419.839 636.124 419.26 635.814 418.747 635.4C418.243 634.979 417.829 634.458 417.507 633.837C417.192 633.209 416.994 632.473 416.911 631.629H419.095C419.194 632.307 419.392 632.878 419.69 633.341C419.988 633.804 420.377 634.156 420.856 634.396C421.344 634.627 421.911 634.743 422.556 634.743C423.102 634.743 423.586 634.648 424.008 634.458C424.43 634.267 424.785 633.994 425.075 633.639C425.364 633.283 425.583 632.853 425.732 632.348C425.889 631.844 425.968 631.277 425.968 630.649C425.968 630.078 425.889 629.549 425.732 629.061C425.575 628.573 425.339 628.147 425.025 627.783C424.719 627.419 424.343 627.138 423.896 626.939C423.449 626.732 422.937 626.629 422.358 626.629C421.588 626.629 421.005 626.732 420.608 626.939C420.22 627.146 419.818 627.427 419.405 627.783ZM433.784 618.316V636.381H431.39V618.316H433.784ZM444.69 618.316L437.184 626.741L432.965 631.12L432.568 628.564L435.744 625.066L441.811 618.316H444.69ZM442.382 636.381L435.695 627.572L437.122 625.674L445.236 636.381H442.382Z" fill="#606060"/>
<path d="M571.976 627.783L570.139 627.311L571.045 618.316H580.313V620.438H572.993L572.447 625.351C572.778 625.161 573.196 624.983 573.7 624.818C574.213 624.652 574.8 624.569 575.462 624.569C576.297 624.569 577.046 624.714 577.708 625.004C578.369 625.285 578.932 625.69 579.395 626.22C579.866 626.749 580.226 627.386 580.474 628.13C580.722 628.875 580.846 629.706 580.846 630.624C580.846 631.492 580.726 632.291 580.487 633.018C580.255 633.746 579.904 634.383 579.432 634.929C578.961 635.467 578.365 635.884 577.645 636.182C576.934 636.48 576.095 636.629 575.127 636.629C574.399 636.629 573.708 636.529 573.055 636.331C572.41 636.124 571.831 635.814 571.318 635.4C570.814 634.979 570.4 634.458 570.077 633.837C569.763 633.209 569.565 632.473 569.482 631.629H571.665C571.765 632.307 571.963 632.878 572.261 633.341C572.559 633.804 572.948 634.156 573.427 634.396C573.915 634.627 574.482 634.743 575.127 634.743C575.673 634.743 576.157 634.648 576.579 634.458C577 634.267 577.356 633.994 577.645 633.639C577.935 633.283 578.154 632.853 578.303 632.348C578.46 631.844 578.539 631.277 578.539 630.649C578.539 630.078 578.46 629.549 578.303 629.061C578.146 628.573 577.91 628.147 577.596 627.783C577.29 627.419 576.914 627.138 576.467 626.939C576.02 626.732 575.507 626.629 574.928 626.629C574.159 626.629 573.576 626.732 573.179 626.939C572.79 627.146 572.389 627.427 571.976 627.783ZM594.705 625.909V628.664C594.705 630.144 594.572 631.393 594.308 632.41C594.043 633.428 593.663 634.247 593.166 634.867C592.67 635.487 592.07 635.938 591.367 636.219C590.673 636.492 589.887 636.629 589.01 636.629C588.315 636.629 587.674 636.542 587.087 636.368C586.5 636.195 585.97 635.917 585.499 635.537C585.036 635.148 584.639 634.644 584.308 634.023C583.977 633.403 583.725 632.65 583.551 631.765C583.377 630.88 583.291 629.846 583.291 628.664V625.909C583.291 624.429 583.423 623.188 583.688 622.187C583.96 621.187 584.345 620.384 584.841 619.78C585.338 619.168 585.933 618.73 586.628 618.465C587.331 618.201 588.117 618.068 588.985 618.068C589.688 618.068 590.333 618.155 590.921 618.329C591.516 618.494 592.046 618.763 592.509 619.135C592.972 619.499 593.365 619.987 593.687 620.599C594.018 621.203 594.27 621.943 594.444 622.82C594.618 623.697 594.705 624.727 594.705 625.909ZM592.397 629.036V625.525C592.397 624.714 592.347 624.003 592.248 623.391C592.157 622.77 592.021 622.241 591.839 621.803C591.657 621.364 591.425 621.009 591.144 620.736C590.871 620.463 590.553 620.264 590.189 620.14C589.833 620.008 589.432 619.942 588.985 619.942C588.439 619.942 587.955 620.045 587.534 620.252C587.112 620.45 586.756 620.769 586.467 621.207C586.185 621.646 585.97 622.22 585.821 622.932C585.673 623.643 585.598 624.507 585.598 625.525V629.036C585.598 629.846 585.644 630.562 585.735 631.182C585.834 631.803 585.979 632.34 586.169 632.795C586.359 633.242 586.591 633.61 586.864 633.899C587.137 634.189 587.451 634.404 587.807 634.544C588.17 634.677 588.572 634.743 589.01 634.743C589.572 634.743 590.065 634.635 590.486 634.42C590.908 634.205 591.26 633.87 591.541 633.415C591.83 632.952 592.046 632.361 592.186 631.641C592.327 630.913 592.397 630.045 592.397 629.036ZM600.647 618.316V636.381H598.253V618.316H600.647ZM611.553 618.316L604.047 626.741L599.829 631.12L599.432 628.564L602.608 625.066L608.675 618.316H611.553ZM609.245 636.381L602.558 627.572L603.985 625.674L612.099 636.381H609.245Z" fill="#606060"/>
<path d="M744.985 618.316V619.607L737.504 636.381H735.085L742.554 620.202H732.777V618.316H744.985ZM750.506 627.783L748.67 627.311L749.576 618.316H758.844V620.438H751.524L750.978 625.351C751.309 625.161 751.726 624.983 752.231 624.818C752.744 624.652 753.331 624.569 753.993 624.569C754.828 624.569 755.577 624.714 756.238 625.004C756.9 625.285 757.462 625.69 757.926 626.22C758.397 626.749 758.757 627.386 759.005 628.13C759.253 628.875 759.377 629.706 759.377 630.624C759.377 631.492 759.257 632.291 759.017 633.018C758.786 633.746 758.434 634.383 757.963 634.929C757.491 635.467 756.896 635.884 756.176 636.182C755.465 636.48 754.625 636.629 753.658 636.629C752.93 636.629 752.239 636.529 751.586 636.331C750.941 636.124 750.362 635.814 749.849 635.4C749.344 634.979 748.931 634.458 748.608 633.837C748.294 633.209 748.095 632.473 748.013 631.629H750.196C750.296 632.307 750.494 632.878 750.792 633.341C751.09 633.804 751.478 634.156 751.958 634.396C752.446 634.627 753.013 634.743 753.658 634.743C754.204 634.743 754.687 634.648 755.109 634.458C755.531 634.267 755.887 633.994 756.176 633.639C756.466 633.283 756.685 632.853 756.834 632.348C756.991 631.844 757.07 631.277 757.07 630.649C757.07 630.078 756.991 629.549 756.834 629.061C756.677 628.573 756.441 628.147 756.127 627.783C755.821 627.419 755.444 627.138 754.998 626.939C754.551 626.732 754.038 626.629 753.459 626.629C752.69 626.629 752.107 626.732 751.71 626.939C751.321 627.146 750.92 627.427 750.506 627.783ZM764.886 618.316V636.381H762.491V618.316H764.886ZM775.791 618.316L768.285 626.741L764.067 631.12L763.67 628.564L766.846 625.066L772.913 618.316H775.791ZM773.484 636.381L766.796 627.572L768.223 625.674L776.337 636.381H773.484Z" fill="#606060"/>
<path d="M899.27 618.217V636.381H896.975V621.083L892.347 622.77V620.699L898.91 618.217H899.27ZM917.359 625.909V628.664C917.359 630.144 917.227 631.393 916.962 632.41C916.697 633.428 916.317 634.247 915.821 634.867C915.324 635.487 914.725 635.938 914.022 636.219C913.327 636.492 912.541 636.629 911.664 636.629C910.97 636.629 910.329 636.542 909.741 636.368C909.154 636.195 908.625 635.917 908.153 635.537C907.69 635.148 907.293 634.644 906.962 634.023C906.631 633.403 906.379 632.65 906.206 631.765C906.032 630.88 905.945 629.846 905.945 628.664V625.909C905.945 624.429 906.077 623.188 906.342 622.187C906.615 621.187 907 620.384 907.496 619.78C907.992 619.168 908.588 618.73 909.282 618.465C909.985 618.201 910.771 618.068 911.64 618.068C912.343 618.068 912.988 618.155 913.575 618.329C914.171 618.494 914.7 618.763 915.163 619.135C915.626 619.499 916.019 619.987 916.342 620.599C916.673 621.203 916.925 621.943 917.099 622.82C917.272 623.697 917.359 624.727 917.359 625.909ZM915.051 629.036V625.525C915.051 624.714 915.002 624.003 914.903 623.391C914.812 622.77 914.675 622.241 914.493 621.803C914.311 621.364 914.08 621.009 913.798 620.736C913.525 620.463 913.207 620.264 912.843 620.14C912.487 620.008 912.086 619.942 911.64 619.942C911.094 619.942 910.61 620.045 910.188 620.252C909.766 620.45 909.411 620.769 909.121 621.207C908.84 621.646 908.625 622.22 908.476 622.932C908.327 623.643 908.253 624.507 908.253 625.525V629.036C908.253 629.846 908.298 630.562 908.389 631.182C908.488 631.803 908.633 632.34 908.823 632.795C909.014 633.242 909.245 633.61 909.518 633.899C909.791 634.189 910.105 634.404 910.461 634.544C910.825 634.677 911.226 634.743 911.664 634.743C912.227 634.743 912.719 634.635 913.141 634.42C913.563 634.205 913.914 633.87 914.195 633.415C914.485 632.952 914.7 632.361 914.841 631.641C914.981 630.913 915.051 630.045 915.051 629.036ZM931.652 625.909V628.664C931.652 630.144 931.519 631.393 931.255 632.41C930.99 633.428 930.609 634.247 930.113 634.867C929.617 635.487 929.017 635.938 928.314 636.219C927.619 636.492 926.834 636.629 925.957 636.629C925.262 636.629 924.621 636.542 924.034 636.368C923.447 636.195 922.917 635.917 922.446 635.537C921.983 635.148 921.586 634.644 921.255 634.023C920.924 633.403 920.672 632.65 920.498 631.765C920.324 630.88 920.237 629.846 920.237 628.664V625.909C920.237 624.429 920.37 623.188 920.634 622.187C920.907 621.187 921.292 620.384 921.788 619.78C922.285 619.168 922.88 618.73 923.575 618.465C924.278 618.201 925.064 618.068 925.932 618.068C926.635 618.068 927.28 618.155 927.868 618.329C928.463 618.494 928.992 618.763 929.456 619.135C929.919 619.499 930.312 619.987 930.634 620.599C930.965 621.203 931.217 621.943 931.391 622.82C931.565 623.697 931.652 624.727 931.652 625.909ZM929.344 629.036V625.525C929.344 624.714 929.294 624.003 929.195 623.391C929.104 622.77 928.968 622.241 928.786 621.803C928.604 621.364 928.372 621.009 928.091 620.736C927.818 620.463 927.499 620.264 927.136 620.14C926.78 620.008 926.379 619.942 925.932 619.942C925.386 619.942 924.902 620.045 924.481 620.252C924.059 620.45 923.703 620.769 923.414 621.207C923.132 621.646 922.917 622.22 922.768 622.932C922.62 623.643 922.545 624.507 922.545 625.525V629.036C922.545 629.846 922.591 630.562 922.682 631.182C922.781 631.803 922.926 632.34 923.116 632.795C923.306 633.242 923.538 633.61 923.811 633.899C924.084 634.189 924.398 634.404 924.753 634.544C925.117 634.677 925.519 634.743 925.957 634.743C926.519 634.743 927.012 634.635 927.433 634.42C927.855 634.205 928.207 633.87 928.488 633.415C928.777 632.952 928.992 632.361 929.133 631.641C929.274 630.913 929.344 630.045 929.344 629.036ZM937.594 618.316V636.381H935.2V618.316H937.594ZM948.5 618.316L940.994 626.741L936.776 631.12L936.379 628.564L939.555 625.066L945.622 618.316H948.5ZM946.192 636.381L939.505 627.572L940.932 625.674L949.046 636.381H946.192Z" fill="#606060"/>
<path d="M50.4979 438.733V431.034C50.4979 429.455 50.7342 428.099 51.2068 426.965C51.6795 425.821 52.379 424.942 53.3053 424.327C54.2317 423.713 55.3707 423.406 56.7225 423.406C57.8284 423.406 58.7784 423.595 59.5725 423.973C60.357 424.342 61.014 424.866 61.5434 425.547C62.0633 426.218 62.4792 427.007 62.7911 427.915L63.5001 429.262V435.954L60.1822 435.983V431.006C60.1822 430.259 60.0498 429.64 59.7852 429.148C59.5205 428.657 59.1518 428.288 58.6792 428.042C58.2065 427.787 57.6583 427.659 57.0344 427.659C56.3727 427.659 55.8008 427.782 55.3187 428.028C54.8367 428.274 54.468 428.647 54.2128 429.148C53.9576 429.649 53.8299 430.278 53.8299 431.034V434.48H71.1426V438.733H50.4979ZM71.1426 427.192L61.9404 431.899L61.912 427.404L70.9441 422.64H71.1426V427.192ZM71.4262 413.324C71.4262 414.515 71.2371 415.584 70.859 416.529C70.4714 417.474 69.9374 418.278 69.2568 418.939C68.5762 419.592 67.7869 420.093 66.8889 420.442C65.9814 420.792 65.0172 420.967 63.9963 420.967H63.4292C62.2665 420.967 61.2031 420.801 60.2389 420.471C59.2747 420.14 58.4381 419.667 57.7292 419.053C57.0202 418.429 56.4767 417.673 56.0986 416.784C55.711 415.896 55.5173 414.894 55.5173 413.778C55.5173 412.691 55.6969 411.727 56.0561 410.886C56.4153 410.044 56.9257 409.34 57.5874 408.773C58.2491 408.196 59.0431 407.761 59.9695 407.468C60.8864 407.175 61.9073 407.029 63.0322 407.029H64.7336V419.223H62.0113V411.042H61.6993C61.1322 411.042 60.6264 411.146 60.1822 411.354C59.7284 411.552 59.3692 411.854 59.1046 412.261C58.8399 412.667 58.7075 413.187 58.7075 413.821C58.7075 414.359 58.8257 414.823 59.062 415.21C59.2983 415.598 59.6292 415.914 60.0546 416.16C60.4799 416.397 60.9809 416.576 61.5575 416.699C62.1247 416.812 62.7486 416.869 63.4292 416.869H63.9963C64.6108 416.869 65.1779 416.784 65.6978 416.614C66.2177 416.434 66.6667 416.184 67.0448 415.862C67.4229 415.532 67.716 415.135 67.9239 414.671C68.1319 414.199 68.2359 413.665 68.2359 413.069C68.2359 412.332 68.0941 411.647 67.8105 411.013C67.5175 410.37 67.0779 409.817 66.4918 409.354L68.6471 407.369C69.1102 407.691 69.5545 408.13 69.9799 408.688C70.4053 409.236 70.755 409.898 71.0291 410.673C71.2938 411.448 71.4262 412.332 71.4262 413.324ZM55.8008 394.991V391.29H70.6321C72.0311 391.29 73.2174 391.602 74.1911 392.226C75.1742 392.84 75.9162 393.701 76.4172 394.807C76.9276 395.913 77.1829 397.198 77.1829 398.663C77.1829 399.306 77.0978 399.987 76.9276 400.705C76.7575 401.414 76.4928 402.095 76.1336 402.747C75.7744 403.39 75.3207 403.928 74.7724 404.363L72.362 402.562C72.9102 402.09 73.3356 401.542 73.6381 400.918C73.95 400.294 74.106 399.604 74.106 398.848C74.106 398.11 73.9689 397.486 73.6948 396.976C73.4301 396.465 73.0378 396.073 72.5179 395.799C72.0075 395.525 71.3883 395.388 70.6605 395.388H59.3456L55.8008 394.991ZM63.656 405.313H63.3583C62.1861 405.313 61.1227 405.171 60.168 404.888C59.2038 404.595 58.3767 404.184 57.6867 403.654C56.9966 403.115 56.4625 402.463 56.0844 401.698C55.7063 400.932 55.5173 400.067 55.5173 399.103C55.5173 398.082 55.7063 397.226 56.0844 396.536C56.4625 395.846 57.0013 395.279 57.7008 394.835C58.3909 394.391 59.2085 394.046 60.1538 393.8C61.0896 393.545 62.1152 393.346 63.2307 393.204H63.8829C64.9511 393.346 65.9436 393.559 66.8605 393.842C67.7774 394.126 68.5809 394.499 69.2709 394.963C69.9515 395.426 70.4809 396.002 70.859 396.692C71.2371 397.373 71.4262 398.186 71.4262 399.131C71.4262 400.076 71.2324 400.932 70.8448 401.698C70.4573 402.454 69.9137 403.101 69.2142 403.64C68.5147 404.179 67.6923 404.595 66.7471 404.888C65.8018 405.171 64.7715 405.313 63.656 405.313ZM63.3583 401.23H63.656C64.2894 401.23 64.8802 401.168 65.4284 401.045C65.9767 400.922 66.4635 400.733 66.8889 400.478C67.3048 400.213 67.6309 399.887 67.8672 399.5C68.0941 399.103 68.2075 398.635 68.2075 398.096C68.2075 397.349 68.0515 396.74 67.7396 396.267C67.4182 395.794 66.9787 395.44 66.421 395.204C65.8632 394.967 65.2205 394.83 64.4926 394.792H62.6351C62.0396 394.811 61.5055 394.892 61.0329 395.033C60.5508 395.175 60.1396 395.374 59.7993 395.629C59.459 395.884 59.1944 396.215 59.0053 396.621C58.8162 397.028 58.7217 397.51 58.7217 398.068C58.7217 398.607 58.8446 399.074 59.0904 399.471C59.3267 399.859 59.6528 400.185 60.0687 400.45C60.4847 400.705 60.9762 400.899 61.5434 401.031C62.1011 401.163 62.706 401.23 63.3583 401.23ZM55.8008 383.804H71.1426V387.901H55.8008V383.804ZM51.8023 388.157C51.2068 388.157 50.7153 387.949 50.3277 387.533C49.9402 387.117 49.7464 386.559 49.7464 385.86C49.7464 385.17 49.9402 384.617 50.3277 384.201C50.7153 383.775 51.2068 383.563 51.8023 383.563C52.3979 383.563 52.8894 383.775 53.277 384.201C53.6645 384.617 53.8583 385.17 53.8583 385.86C53.8583 386.559 53.6645 387.117 53.277 387.533C52.8894 387.949 52.3979 388.157 51.8023 388.157ZM63.6277 381.081H63.3299C62.205 381.081 61.17 380.921 60.2247 380.599C59.27 380.278 58.4429 379.81 57.7434 379.195C57.0439 378.581 56.5003 377.825 56.1128 376.927C55.7158 376.029 55.5173 374.998 55.5173 373.836C55.5173 372.673 55.7158 371.638 56.1128 370.731C56.5003 369.823 57.0439 369.062 57.7434 368.448C58.4429 367.824 59.27 367.351 60.2247 367.03C61.17 366.708 62.205 366.548 63.3299 366.548H63.6277C64.7431 366.548 65.7782 366.708 66.7329 367.03C67.6782 367.351 68.5053 367.824 69.2142 368.448C69.9137 369.062 70.4573 369.818 70.8448 370.716C71.2324 371.614 71.4262 372.645 71.4262 373.807C71.4262 374.97 71.2324 376.005 70.8448 376.913C70.4573 377.811 69.9137 378.572 69.2142 379.195C68.5053 379.81 67.6782 380.278 66.7329 380.599C65.7782 380.921 64.7431 381.081 63.6277 381.081ZM63.3299 376.998H63.6277C64.2705 376.998 64.8707 376.941 65.4284 376.827C65.9861 376.714 66.4777 376.534 66.903 376.289C67.319 376.033 67.6451 375.703 67.8814 375.296C68.1177 374.89 68.2359 374.393 68.2359 373.807C68.2359 373.24 68.1177 372.753 67.8814 372.347C67.6451 371.94 67.319 371.614 66.903 371.369C66.4777 371.123 65.9861 370.943 65.4284 370.83C64.8707 370.707 64.2705 370.645 63.6277 370.645H63.3299C62.706 370.645 62.12 370.707 61.5717 370.83C61.014 370.943 60.5225 371.128 60.0971 371.383C59.6623 371.629 59.322 371.955 59.0762 372.361C58.8304 372.768 58.7075 373.259 58.7075 373.836C58.7075 374.412 58.8304 374.904 59.0762 375.31C59.322 375.707 59.6623 376.033 60.0971 376.289C60.5225 376.534 61.014 376.714 61.5717 376.827C62.12 376.941 62.706 376.998 63.3299 376.998ZM59.0762 360.039H71.1426V364.123H55.8008V360.295L59.0762 360.039ZM62.9329 360.635V361.741C61.7986 361.741 60.7777 361.594 59.8702 361.301C58.9533 361.008 58.1735 360.597 57.5307 360.068C56.8784 359.538 56.3822 358.91 56.0419 358.182C55.6921 357.445 55.5173 356.622 55.5173 355.715C55.5173 354.996 55.6212 354.34 55.8292 353.744C56.0372 353.148 56.368 352.638 56.8217 352.213C57.2755 351.778 57.8757 351.447 58.6225 351.22C59.3692 350.984 60.2814 350.866 61.359 350.866H71.1426V354.978H61.3448C60.6643 354.978 60.1349 355.072 59.7568 355.261C59.3787 355.45 59.114 355.729 58.9628 356.098C58.8021 356.457 58.7217 356.901 58.7217 357.431C58.7217 357.979 58.8304 358.456 59.0478 358.863C59.2653 359.26 59.5677 359.59 59.9553 359.855C60.3334 360.11 60.7777 360.304 61.2881 360.437C61.7986 360.569 62.3468 360.635 62.9329 360.635ZM67.6829 339.48H60.8486C60.357 339.48 59.9364 339.56 59.5866 339.721C59.2274 339.882 58.9486 340.132 58.7501 340.472C58.5516 340.803 58.4523 341.233 58.4523 341.763C58.4523 342.216 58.5327 342.609 58.6934 342.94C58.8446 343.27 59.0667 343.526 59.3598 343.705C59.6434 343.885 59.9789 343.975 60.3665 343.975V348.058C59.7143 348.058 59.0951 347.907 58.509 347.604C57.923 347.302 57.4078 346.862 56.9635 346.286C56.5098 345.709 56.1553 345.024 55.9001 344.23C55.6449 343.426 55.5173 342.528 55.5173 341.536C55.5173 340.345 55.7158 339.286 56.1128 338.36C56.5098 337.433 57.1053 336.705 57.8993 336.176C58.6934 335.637 59.6859 335.368 60.8769 335.368H67.4418C68.2831 335.368 68.9732 335.316 69.512 335.212C70.0413 335.108 70.5045 334.957 70.9015 334.758H71.1426V338.884C70.7267 339.083 70.2068 339.234 69.5829 339.338C68.9496 339.433 68.3162 339.48 67.6829 339.48ZM61.7986 338.941L64.1098 338.913V341.196C64.1098 341.734 64.1712 342.202 64.2941 342.599C64.417 342.996 64.5919 343.322 64.8187 343.578C65.0361 343.833 65.2914 344.022 65.5844 344.145C65.8774 344.258 66.1988 344.315 66.5486 344.315C66.8983 344.315 67.215 344.235 67.4986 344.074C67.7727 343.913 67.9901 343.682 68.1508 343.379C68.302 343.077 68.3777 342.722 68.3777 342.316C68.3777 341.701 68.2548 341.167 68.009 340.713C67.7632 340.26 67.4607 339.91 67.1015 339.664C66.7423 339.409 66.402 339.277 66.0807 339.267L67.8105 338.19C68.1981 338.341 68.5998 338.549 69.0157 338.813C69.4316 339.069 69.8239 339.395 70.1926 339.792C70.5518 340.189 70.8495 340.666 71.0859 341.224C71.3127 341.782 71.4262 342.443 71.4262 343.209C71.4262 344.183 71.2324 345.066 70.8448 345.86C70.4478 346.645 69.9043 347.269 69.2142 347.732C68.5147 348.186 67.7207 348.413 66.8321 348.413C66.0287 348.413 65.315 348.261 64.6911 347.959C64.0672 347.656 63.5426 347.212 63.1172 346.626C62.6824 346.031 62.3563 345.289 62.1389 344.4C61.912 343.511 61.7986 342.481 61.7986 341.309V338.941ZM55.8008 327.91H71.1426V332.007H55.8008V327.91ZM51.8023 332.263C51.2068 332.263 50.7153 332.055 50.3277 331.639C49.9402 331.223 49.7464 330.665 49.7464 329.966C49.7464 329.276 49.9402 328.723 50.3277 328.307C50.7153 327.881 51.2068 327.669 51.8023 327.669C52.3979 327.669 52.8894 327.881 53.277 328.307C53.6645 328.723 53.8583 329.276 53.8583 329.966C53.8583 330.665 53.6645 331.223 53.277 331.639C52.8894 332.055 52.3979 332.263 51.8023 332.263ZM66.903 316.24C66.61 316.24 66.3453 316.325 66.109 316.496C65.8727 316.666 65.6553 316.982 65.4568 317.446C65.2488 317.899 65.0598 318.556 64.8896 319.416C64.7195 320.192 64.5068 320.915 64.2516 321.586C63.9869 322.248 63.6702 322.824 63.3016 323.316C62.9329 323.798 62.4981 324.176 61.9971 324.45C61.4866 324.724 60.9053 324.861 60.2531 324.861C59.6103 324.861 59.0053 324.724 58.4381 324.45C57.871 324.166 57.37 323.765 56.9352 323.245C56.4909 322.715 56.1459 322.073 55.9001 321.316C55.6449 320.551 55.5173 319.691 55.5173 318.736C55.5173 317.403 55.7299 316.259 56.1553 315.305C56.5807 314.34 57.1668 313.603 57.9135 313.093C58.6508 312.573 59.4921 312.313 60.4374 312.313V316.396C60.0404 316.396 59.6859 316.481 59.374 316.652C59.0526 316.812 58.8021 317.067 58.6225 317.417C58.4334 317.758 58.3389 318.202 58.3389 318.75C58.3389 319.204 58.4192 319.596 58.5799 319.927C58.7312 320.258 58.9391 320.513 59.2038 320.693C59.459 320.863 59.7426 320.948 60.0546 320.948C60.2909 320.948 60.5036 320.901 60.6926 320.806C60.8722 320.702 61.0376 320.537 61.1889 320.31C61.3401 320.083 61.4819 319.79 61.6143 319.431C61.7371 319.062 61.8506 318.608 61.9545 318.069C62.1814 316.964 62.4792 315.976 62.8478 315.106C63.207 314.236 63.6986 313.546 64.3225 313.036C64.9369 312.525 65.7451 312.27 66.7471 312.27C67.4277 312.27 68.0515 312.421 68.6187 312.724C69.1859 313.026 69.6821 313.461 70.1075 314.028C70.5234 314.596 70.8495 315.276 71.0859 316.07C71.3127 316.855 71.4262 317.739 71.4262 318.722C71.4262 320.149 71.1709 321.359 70.6605 322.352C70.15 323.335 69.5025 324.081 68.718 324.592C67.9239 325.093 67.111 325.343 66.2792 325.343V321.472C66.8369 321.454 67.2859 321.312 67.6262 321.047C67.9665 320.773 68.2122 320.428 68.3635 320.012C68.5147 319.587 68.5903 319.128 68.5903 318.637C68.5903 318.107 68.5195 317.668 68.3777 317.318C68.2264 316.968 68.0279 316.704 67.7821 316.524C67.5269 316.335 67.2339 316.24 66.903 316.24Z" fill="#606060"/>
<path d="M551.907 695.271L556.771 678.936H561.507L554.318 699.581H551.198L551.907 695.271ZM547.427 678.936L552.276 695.271L553.013 699.581H549.866L542.719 678.936H547.427ZM569.617 699.865C568.426 699.865 567.358 699.676 566.413 699.297C565.467 698.91 564.664 698.376 564.002 697.695C563.35 697.015 562.849 696.225 562.499 695.327C562.149 694.42 561.975 693.456 561.975 692.435V691.868C561.975 690.705 562.14 689.642 562.471 688.677C562.802 687.713 563.274 686.877 563.889 686.168C564.513 685.459 565.269 684.915 566.157 684.537C567.046 684.15 568.048 683.956 569.163 683.956C570.25 683.956 571.215 684.135 572.056 684.495C572.897 684.854 573.601 685.364 574.169 686.026C574.745 686.688 575.18 687.482 575.473 688.408C575.766 689.325 575.913 690.346 575.913 691.471V693.172H563.719V690.45H571.9V690.138C571.9 689.571 571.796 689.065 571.588 688.621C571.389 688.167 571.087 687.808 570.68 687.543C570.274 687.278 569.754 687.146 569.121 687.146C568.582 687.146 568.119 687.264 567.731 687.5C567.344 687.737 567.027 688.068 566.781 688.493C566.545 688.918 566.365 689.419 566.242 689.996C566.129 690.563 566.072 691.187 566.072 691.868V692.435C566.072 693.049 566.157 693.616 566.327 694.136C566.507 694.656 566.758 695.105 567.079 695.483C567.41 695.861 567.807 696.154 568.27 696.362C568.743 696.57 569.277 696.674 569.872 696.674C570.61 696.674 571.295 696.533 571.928 696.249C572.571 695.956 573.124 695.516 573.587 694.93L575.572 697.086C575.251 697.549 574.811 697.993 574.254 698.418C573.705 698.844 573.044 699.193 572.269 699.468C571.493 699.732 570.61 699.865 569.617 699.865ZM582.236 687.515V699.581H578.153V684.239H581.981L582.236 687.515ZM581.641 691.371H580.535C580.535 690.237 580.681 689.216 580.974 688.309C581.267 687.392 581.679 686.612 582.208 685.969C582.737 685.317 583.366 684.821 584.094 684.48C584.831 684.131 585.654 683.956 586.561 683.956C587.279 683.956 587.936 684.06 588.532 684.268C589.127 684.476 589.638 684.806 590.063 685.26C590.498 685.714 590.829 686.314 591.056 687.061C591.292 687.808 591.41 688.72 591.41 689.798V699.581H587.298V689.783C587.298 689.103 587.204 688.573 587.015 688.195C586.826 687.817 586.547 687.552 586.178 687.401C585.819 687.241 585.375 687.16 584.845 687.16C584.297 687.16 583.82 687.269 583.413 687.486C583.016 687.704 582.685 688.006 582.421 688.394C582.166 688.772 581.972 689.216 581.839 689.727C581.707 690.237 581.641 690.785 581.641 691.371ZM603.576 696.235V677.802H607.688V699.581H603.987L603.576 696.235ZM593.877 692.095V691.797C593.877 690.625 594.01 689.561 594.274 688.606C594.539 687.642 594.927 686.815 595.437 686.125C595.948 685.435 596.576 684.901 597.323 684.523C598.07 684.145 598.92 683.956 599.875 683.956C600.773 683.956 601.558 684.145 602.229 684.523C602.909 684.901 603.486 685.44 603.959 686.139C604.441 686.829 604.828 687.647 605.121 688.592C605.414 689.528 605.627 690.554 605.759 691.669V692.321C605.627 693.39 605.414 694.382 605.121 695.299C604.828 696.216 604.441 697.019 603.959 697.709C603.486 698.39 602.909 698.919 602.229 699.297C601.548 699.676 600.754 699.865 599.847 699.865C598.892 699.865 598.041 699.671 597.295 699.283C596.557 698.896 595.933 698.352 595.423 697.653C594.922 696.953 594.539 696.131 594.274 695.186C594.01 694.24 593.877 693.21 593.877 692.095ZM597.961 691.797V692.095C597.961 692.728 598.008 693.319 598.103 693.867C598.207 694.415 598.372 694.902 598.599 695.327C598.835 695.743 599.138 696.069 599.506 696.306C599.885 696.533 600.343 696.646 600.882 696.646C601.581 696.646 602.158 696.49 602.612 696.178C603.065 695.857 603.41 695.417 603.647 694.859C603.893 694.302 604.034 693.659 604.072 692.931V691.074C604.044 690.478 603.959 689.944 603.817 689.471C603.685 688.989 603.486 688.578 603.221 688.238C602.966 687.898 602.645 687.633 602.257 687.444C601.879 687.255 601.43 687.16 600.91 687.16C600.381 687.16 599.927 687.283 599.549 687.529C599.171 687.765 598.864 688.091 598.627 688.507C598.401 688.923 598.23 689.415 598.117 689.982C598.013 690.54 597.961 691.145 597.961 691.797ZM619.159 696.121V689.287C619.159 688.796 619.078 688.375 618.918 688.025C618.757 687.666 618.506 687.387 618.166 687.189C617.835 686.99 617.405 686.891 616.876 686.891C616.422 686.891 616.03 686.971 615.699 687.132C615.368 687.283 615.113 687.505 614.933 687.798C614.754 688.082 614.664 688.417 614.664 688.805H610.58C610.58 688.153 610.732 687.534 611.034 686.948C611.337 686.361 611.776 685.846 612.353 685.402C612.929 684.948 613.615 684.594 614.409 684.339C615.212 684.083 616.11 683.956 617.103 683.956C618.294 683.956 619.352 684.154 620.279 684.551C621.205 684.948 621.933 685.544 622.462 686.338C623.001 687.132 623.271 688.124 623.271 689.315V695.88C623.271 696.722 623.323 697.412 623.427 697.95C623.531 698.48 623.682 698.943 623.88 699.34V699.581H619.754C619.556 699.165 619.404 698.645 619.3 698.021C619.206 697.388 619.159 696.755 619.159 696.121ZM619.697 690.237L619.726 692.548H617.443C616.904 692.548 616.436 692.61 616.039 692.733C615.642 692.855 615.316 693.03 615.061 693.257C614.806 693.475 614.617 693.73 614.494 694.023C614.38 694.316 614.324 694.637 614.324 694.987C614.324 695.337 614.404 695.653 614.565 695.937C614.725 696.211 614.957 696.429 615.259 696.589C615.562 696.741 615.916 696.816 616.323 696.816C616.937 696.816 617.471 696.693 617.925 696.447C618.379 696.202 618.729 695.899 618.974 695.54C619.23 695.181 619.362 694.841 619.371 694.519L620.449 696.249C620.298 696.637 620.09 697.038 619.825 697.454C619.57 697.87 619.244 698.262 618.847 698.631C618.45 698.99 617.972 699.288 617.415 699.524C616.857 699.751 616.195 699.865 615.43 699.865C614.456 699.865 613.572 699.671 612.778 699.283C611.994 698.886 611.37 698.343 610.906 697.653C610.453 696.953 610.226 696.159 610.226 695.271C610.226 694.467 610.377 693.753 610.68 693.13C610.982 692.506 611.426 691.981 612.012 691.556C612.608 691.121 613.35 690.795 614.239 690.577C615.127 690.35 616.157 690.237 617.33 690.237H619.697ZM634.713 695.342C634.713 695.048 634.628 694.784 634.458 694.547C634.288 694.311 633.971 694.094 633.508 693.895C633.054 693.687 632.397 693.498 631.537 693.328C630.762 693.158 630.039 692.945 629.368 692.69C628.706 692.425 628.129 692.109 627.638 691.74C627.156 691.371 626.778 690.937 626.503 690.436C626.229 689.925 626.092 689.344 626.092 688.692C626.092 688.049 626.229 687.444 626.503 686.877C626.787 686.309 627.189 685.808 627.709 685.374C628.238 684.929 628.881 684.584 629.637 684.339C630.403 684.083 631.263 683.956 632.218 683.956C633.55 683.956 634.694 684.168 635.649 684.594C636.613 685.019 637.35 685.605 637.861 686.352C638.381 687.089 638.641 687.931 638.641 688.876H634.557C634.557 688.479 634.472 688.124 634.302 687.812C634.141 687.491 633.886 687.241 633.536 687.061C633.196 686.872 632.752 686.777 632.203 686.777C631.75 686.777 631.357 686.858 631.027 687.018C630.696 687.17 630.44 687.378 630.261 687.642C630.091 687.898 630.006 688.181 630.006 688.493C630.006 688.729 630.053 688.942 630.147 689.131C630.251 689.311 630.417 689.476 630.644 689.627C630.871 689.779 631.164 689.92 631.523 690.053C631.891 690.176 632.345 690.289 632.884 690.393C633.99 690.62 634.978 690.918 635.847 691.286C636.717 691.646 637.407 692.137 637.918 692.761C638.428 693.375 638.683 694.184 638.683 695.186C638.683 695.866 638.532 696.49 638.23 697.057C637.927 697.624 637.492 698.121 636.925 698.546C636.358 698.962 635.677 699.288 634.883 699.524C634.099 699.751 633.215 699.865 632.232 699.865C630.804 699.865 629.594 699.609 628.602 699.099C627.619 698.589 626.872 697.941 626.362 697.156C625.861 696.362 625.61 695.549 625.61 694.718H629.481C629.5 695.275 629.642 695.724 629.906 696.065C630.181 696.405 630.526 696.651 630.941 696.802C631.367 696.953 631.825 697.029 632.317 697.029C632.846 697.029 633.286 696.958 633.635 696.816C633.985 696.665 634.25 696.466 634.43 696.221C634.619 695.965 634.713 695.672 634.713 695.342Z" fill="#606060"/>
<path d="M62.963 92.8555L54.5087 70.0804L52.311 69.7968V67.0496H61.6869V69.7968L59.3473 70.169L64.7177 85.89L65.1962 87.5738H65.3025L65.7988 85.9077L71.24 70.1512L68.5637 69.7968V67.0496H77.6561V69.7968L75.4229 70.0804L67.2876 92.8555H62.963ZM87.2978 93.2277C85.49 93.2277 83.9126 92.8259 82.5656 92.0224C81.2304 91.2072 80.1906 90.0846 79.4462 88.6549C78.7136 87.2252 78.3473 85.5887 78.3473 83.7454V83.001C78.3473 81.1341 78.7077 79.474 79.4284 78.0206C80.161 76.5555 81.1654 75.4093 82.4415 74.5822C83.7176 73.7433 85.171 73.3238 86.8015 73.3238C88.5385 73.3238 89.9918 73.6724 91.1616 74.3695C92.3432 75.0667 93.2353 76.0592 93.8379 77.3471C94.4405 78.6232 94.7418 80.1593 94.7418 81.9553V84.5075H82.9732L82.9378 84.5962C82.985 85.6005 83.1918 86.4926 83.5581 87.2725C83.9362 88.0523 84.4679 88.6667 85.1532 89.1157C85.8504 89.5647 86.6952 89.7892 87.6877 89.7892C88.7275 89.7892 89.6728 89.6475 90.5236 89.3639C91.3743 89.0803 92.1601 88.6786 92.8808 88.1587L94.281 90.959C93.5248 91.5971 92.5618 92.1347 91.392 92.5719C90.2222 93.0091 88.8575 93.2277 87.2978 93.2277ZM83.0441 81.3704H90.4704V80.9096C90.4704 80.0707 90.3404 79.3381 90.0805 78.7119C89.8323 78.0738 89.4365 77.5775 88.893 77.2231C88.3612 76.8686 87.6818 76.6913 86.8547 76.6913C86.134 76.6913 85.5018 76.8922 84.9583 77.294C84.4147 77.6957 83.9776 78.2451 83.6467 78.9423C83.3277 79.6276 83.1091 80.4074 82.9909 81.2818L83.0441 81.3704ZM97.1523 92.8555V90.126L99.8108 89.5943V76.9572L97.0105 76.4255V73.6783H103.923L104.153 76.4609C104.791 75.4684 105.583 74.7004 106.528 74.1568C107.485 73.6015 108.566 73.3238 109.772 73.3238C111.745 73.3238 113.281 73.9323 114.38 75.1494C115.479 76.3546 116.028 78.2451 116.028 80.821V89.5943L118.687 90.126V92.8555H109.063V90.126L111.562 89.5943V80.8564C111.562 79.4031 111.272 78.3751 110.693 77.7725C110.114 77.1581 109.252 76.8509 108.106 76.8509C107.243 76.8509 106.487 77.0458 105.837 77.4357C105.199 77.8138 104.679 78.3456 104.277 79.0309V89.5943L106.705 90.126V92.8555H97.1523ZM127.939 93.2277C126.391 93.2277 125.067 92.8377 123.968 92.0579C122.87 91.278 122.025 90.191 121.434 88.7967C120.855 87.3906 120.565 85.7541 120.565 83.8872V83.515C120.565 81.4709 120.855 79.6867 121.434 78.1624C122.025 76.6382 122.87 75.4507 123.968 74.5999C125.079 73.7492 126.397 73.3238 127.921 73.3238C129.02 73.3238 129.977 73.5365 130.792 73.9619C131.619 74.3754 132.328 74.9721 132.919 75.752V68.4852L130.101 67.9535V65.2063H132.919H137.385V89.5943L140.044 90.126V92.8555H133.522L133.167 90.5336C132.564 91.4198 131.826 92.0933 130.952 92.5542C130.089 93.0032 129.085 93.2277 127.939 93.2277ZM129.197 89.7006C130.048 89.7006 130.78 89.5175 131.395 89.1512C132.009 88.7731 132.517 88.2296 132.919 87.5206V79.0663C132.529 78.381 132.021 77.8434 131.395 77.4535C130.78 77.0517 130.059 76.8509 129.232 76.8509C128.263 76.8509 127.466 77.1344 126.84 77.7016C126.225 78.2569 125.77 79.0368 125.475 80.0411C125.18 81.0337 125.032 82.1916 125.032 83.515V83.8872C125.032 85.6596 125.357 87.0716 126.007 88.1232C126.668 89.1748 127.732 89.7006 129.197 89.7006ZM148.339 93.2277C146.389 93.2277 144.871 92.7255 143.784 91.7211C142.697 90.7168 142.153 89.3343 142.153 87.5738C142.153 86.3685 142.484 85.311 143.146 84.4012C143.807 83.4914 144.776 82.7824 146.052 82.2743C147.328 81.7544 148.876 81.4945 150.696 81.4945H153.62V79.8816C153.62 78.8655 153.313 78.0561 152.699 77.4535C152.096 76.8509 151.216 76.5495 150.058 76.5495C149.396 76.5495 148.811 76.6323 148.303 76.7977C147.795 76.9513 147.34 77.1758 146.938 77.4712L146.531 80.0589H143.252L143.216 75.3266C144.162 74.7122 145.213 74.2277 146.371 73.8733C147.529 73.507 148.817 73.3238 150.235 73.3238C152.669 73.3238 154.583 73.8969 155.978 75.043C157.384 76.1773 158.087 77.8079 158.087 79.9348V88.3891C158.087 88.649 158.087 88.9031 158.087 89.1512C158.099 89.3993 158.116 89.6415 158.14 89.8779L160.09 90.126V92.8555H154.258C154.14 92.4419 154.028 92.0402 153.922 91.6502C153.827 91.2603 153.756 90.8704 153.709 90.4805C153.071 91.284 152.297 91.9456 151.387 92.4655C150.489 92.9736 149.473 93.2277 148.339 93.2277ZM149.349 89.7715C150.247 89.7715 151.086 89.5647 151.866 89.1512C152.646 88.7258 153.23 88.1941 153.62 87.556V84.348H150.643C149.308 84.348 148.297 84.6612 147.612 85.2874C146.938 85.9018 146.602 86.6226 146.602 87.4497C146.602 88.1941 146.838 88.7672 147.311 89.1689C147.783 89.5707 148.463 89.7715 149.349 89.7715ZM170.316 93.2277C168.946 93.2277 167.664 93.0977 166.47 92.8377C165.289 92.566 164.101 92.1701 162.908 91.6502L162.854 86.5812H166.062L166.736 89.3462C167.244 89.5707 167.764 89.7479 168.296 89.8779C168.839 89.996 169.442 90.0551 170.104 90.0551C171.38 90.0551 172.278 89.8306 172.798 89.3816C173.329 88.9326 173.595 88.3772 173.595 87.7156C173.595 87.0775 173.317 86.534 172.762 86.085C172.219 85.6241 171.173 85.2283 169.625 84.8975C167.333 84.4012 165.643 83.6804 164.556 82.7352C163.481 81.7781 162.943 80.5374 162.943 79.0132C162.943 77.9615 163.221 77.0104 163.776 76.1596C164.343 75.3089 165.17 74.6295 166.257 74.1214C167.356 73.6015 168.703 73.3415 170.298 73.3415C171.752 73.3415 173.04 73.4951 174.162 73.8024C175.297 74.0978 176.26 74.4936 177.051 74.9899L177.158 79.8639H173.985L173.436 77.3294C173.069 77.0694 172.644 76.8686 172.159 76.7268C171.675 76.585 171.12 76.5141 170.493 76.5141C169.513 76.5141 168.739 76.7327 168.172 77.1699C167.604 77.5953 167.321 78.1329 167.321 78.7828C167.321 79.1609 167.41 79.5035 167.587 79.8107C167.776 80.1179 168.13 80.4015 168.65 80.6615C169.182 80.9096 169.956 81.1518 170.972 81.3882C173.465 81.9671 175.249 82.7233 176.325 83.6568C177.4 84.5903 177.937 85.825 177.937 87.3611C177.937 89.0744 177.311 90.4805 176.059 91.5794C174.806 92.6782 172.892 93.2277 170.316 93.2277ZM189.21 100.229V97.4814L191.797 96.9497V76.9572L188.979 76.4255V73.6783H195.803L196.087 75.9469C196.677 75.108 197.398 74.464 198.249 74.015C199.1 73.5542 200.104 73.3238 201.262 73.3238C202.822 73.3238 204.157 73.7492 205.268 74.5999C206.378 75.4507 207.223 76.6382 207.802 78.1624C208.393 79.6867 208.688 81.4709 208.688 83.515V83.8872C208.688 85.7541 208.393 87.3906 207.802 88.7967C207.211 90.191 206.361 91.278 205.25 92.0579C204.151 92.8377 202.822 93.2277 201.262 93.2277C200.163 93.2277 199.2 93.0386 198.373 92.6605C197.546 92.2706 196.837 91.7034 196.246 90.959V96.9497L198.976 97.4814V100.229H189.21ZM199.915 89.7892C201.38 89.7892 202.461 89.2516 203.158 88.1764C203.867 87.0893 204.222 85.6596 204.222 83.8872V83.515C204.222 82.1916 204.062 81.0337 203.743 80.0411C203.436 79.0368 202.958 78.2569 202.308 77.7016C201.67 77.1344 200.86 76.8509 199.88 76.8509C199.052 76.8509 198.332 77.0399 197.717 77.418C197.115 77.7843 196.624 78.3042 196.246 78.9777V87.7687C196.624 88.4186 197.115 88.9208 197.717 89.2753C198.32 89.6179 199.052 89.7892 199.915 89.7892ZM220.528 93.2277C218.685 93.2277 217.101 92.8141 215.778 91.987C214.454 91.1599 213.438 90.0137 212.729 88.5486C212.02 87.0716 211.666 85.376 211.666 83.4618V83.0896C211.666 81.1873 212.02 79.5035 212.729 78.0384C213.438 76.5732 214.454 75.4211 215.778 74.5822C217.101 73.7433 218.673 73.3238 220.492 73.3238C222.336 73.3238 223.919 73.7433 225.242 74.5822C226.566 75.4093 227.582 76.5555 228.291 78.0206C229 79.4858 229.354 81.1755 229.354 83.0896V83.4618C229.354 85.376 229 87.0716 228.291 88.5486C227.582 90.0137 226.566 91.1599 225.242 91.987C223.931 92.8141 222.359 93.2277 220.528 93.2277ZM220.528 89.7892C221.52 89.7892 222.336 89.5234 222.974 88.9917C223.624 88.4481 224.108 87.7037 224.427 86.7585C224.746 85.8014 224.906 84.7025 224.906 83.4618V83.0896C224.906 81.8608 224.746 80.7737 224.427 79.8285C224.108 78.8832 223.624 78.1388 222.974 77.5953C222.324 77.0517 221.497 76.78 220.492 76.78C219.512 76.78 218.696 77.0517 218.046 77.5953C217.397 78.1388 216.912 78.8832 216.593 79.8285C216.286 80.7737 216.132 81.8608 216.132 83.0896V83.4618C216.132 84.7025 216.286 85.8014 216.593 86.7585C216.912 87.7037 217.397 88.4481 218.046 88.9917C218.708 89.5234 219.535 89.7892 220.528 89.7892ZM232.031 92.8555V90.126L234.689 89.5943V76.9572L231.889 76.4255V73.6783H238.801L239.031 76.0887L239.067 76.4787C239.575 75.4625 240.195 74.6826 240.928 74.1391C241.672 73.5956 242.541 73.3238 243.533 73.3238C243.864 73.3238 244.213 73.3534 244.579 73.4124C244.957 73.4715 245.264 73.5365 245.501 73.6074L244.987 77.737L242.488 77.5953C241.672 77.548 240.999 77.7075 240.467 78.0738C239.947 78.4401 239.51 78.9482 239.156 79.598V89.5943L241.814 90.126V92.8555H232.031ZM256.489 92.8555V90.126L259.148 89.5943V76.9572L256.348 76.4255V73.6783H263.26L263.49 76.0887L263.526 76.4787C264.034 75.4625 264.654 74.6826 265.387 74.1391C266.131 73.5956 267 73.3238 267.992 73.3238C268.323 73.3238 268.672 73.3534 269.038 73.4124C269.416 73.4715 269.723 73.5365 269.96 73.6074L269.446 77.737L266.947 77.5953C266.131 77.548 265.458 77.7075 264.926 78.0738C264.406 78.4401 263.969 78.9482 263.614 79.598V89.5943L266.273 90.126V92.8555H256.489ZM280.417 93.2277C278.609 93.2277 277.031 92.8259 275.684 92.0224C274.349 91.2072 273.309 90.0846 272.565 88.6549C271.832 87.2252 271.466 85.5887 271.466 83.7454V83.001C271.466 81.1341 271.826 79.474 272.547 78.0206C273.28 76.5555 274.284 75.4093 275.56 74.5822C276.836 73.7433 278.29 73.3238 279.92 73.3238C281.657 73.3238 283.111 73.6724 284.28 74.3695C285.462 75.0667 286.354 76.0592 286.957 77.3471C287.559 78.6232 287.861 80.1593 287.861 81.9553V84.5075H276.092L276.057 84.5962C276.104 85.6005 276.311 86.4926 276.677 87.2725C277.055 88.0523 277.587 88.6667 278.272 89.1157C278.969 89.5647 279.814 89.7892 280.807 89.7892C281.846 89.7892 282.792 89.6475 283.642 89.3639C284.493 89.0803 285.279 88.6786 286 88.1587L287.4 90.959C286.644 91.5971 285.681 92.1347 284.511 92.5719C283.341 93.0091 281.976 93.2277 280.417 93.2277ZM276.163 81.3704H283.589V80.9096C283.589 80.0707 283.459 79.3381 283.199 78.7119C282.951 78.0738 282.555 77.5775 282.012 77.2231C281.48 76.8686 280.801 76.6913 279.974 76.6913C279.253 76.6913 278.621 76.8922 278.077 77.294C277.534 77.6957 277.096 78.2451 276.766 78.9423C276.446 79.6276 276.228 80.4074 276.11 81.2818L276.163 81.3704ZM299.115 100.601C298.17 100.601 297.118 100.471 295.96 100.211C294.814 99.9627 293.804 99.6142 292.93 99.1652L293.851 95.904C294.607 96.2466 295.441 96.5243 296.35 96.737C297.26 96.9497 298.123 97.056 298.938 97.056C300.403 97.056 301.473 96.6484 302.146 95.8331C302.831 95.0296 303.174 93.8894 303.174 92.4124V90.9058C302.583 91.6621 301.88 92.241 301.065 92.6428C300.25 93.0327 299.316 93.2277 298.264 93.2277C296.705 93.2277 295.358 92.8377 294.223 92.0579C293.101 91.278 292.238 90.1851 291.636 88.779C291.045 87.3729 290.75 85.7423 290.75 83.8872V83.515C290.75 81.4709 291.045 79.6867 291.636 78.1624C292.238 76.6382 293.095 75.4507 294.206 74.5999C295.328 73.7492 296.663 73.3238 298.211 73.3238C299.381 73.3238 300.397 73.566 301.26 74.0505C302.122 74.5231 302.855 75.2025 303.458 76.0887L303.794 73.6783H307.64V92.4301C307.64 94.0961 307.304 95.5377 306.63 96.7547C305.957 97.9836 304.982 98.9288 303.706 99.5905C302.43 100.264 300.899 100.601 299.115 100.601ZM299.47 89.7006C300.332 89.7006 301.065 89.5175 301.667 89.1512C302.282 88.7849 302.784 88.2532 303.174 87.556V79.0132C302.784 78.3397 302.282 77.8138 301.667 77.4357C301.053 77.0458 300.326 76.8509 299.487 76.8509C298.507 76.8509 297.697 77.1344 297.059 77.7016C296.433 78.2569 295.966 79.0368 295.659 80.0411C295.364 81.0337 295.216 82.1916 295.216 83.515V83.8872C295.216 85.6596 295.553 87.0716 296.226 88.1232C296.912 89.1748 297.993 89.7006 299.47 89.7006ZM307.038 77.0458L305.159 73.6783H309.944V76.4255L307.038 77.0458ZM311.486 92.8555V90.126L314.145 89.5943V76.9572L311.327 76.4255V73.6783H318.611V89.5943L321.252 90.126V92.8555H311.486ZM313.968 69.336V65.2063H318.611V69.336H313.968ZM332.223 93.2277C330.38 93.2277 328.797 92.8141 327.473 91.987C326.15 91.1599 325.134 90.0137 324.425 88.5486C323.716 87.0716 323.361 85.376 323.361 83.4618V83.0896C323.361 81.1873 323.716 79.5035 324.425 78.0384C325.134 76.5732 326.15 75.4211 327.473 74.5822C328.797 73.7433 330.368 73.3238 332.188 73.3238C334.031 73.3238 335.615 73.7433 336.938 74.5822C338.261 75.4093 339.277 76.5555 339.986 78.0206C340.695 79.4858 341.05 81.1755 341.05 83.0896V83.4618C341.05 85.376 340.695 87.0716 339.986 88.5486C339.277 90.0137 338.261 91.1599 336.938 91.987C335.626 92.8141 334.055 93.2277 332.223 93.2277ZM332.223 89.7892C333.216 89.7892 334.031 89.5234 334.669 88.9917C335.319 88.4481 335.804 87.7037 336.123 86.7585C336.442 85.8014 336.601 84.7025 336.601 83.4618V83.0896C336.601 81.8608 336.442 80.7737 336.123 79.8285C335.804 78.8832 335.319 78.1388 334.669 77.5953C334.019 77.0517 333.192 76.78 332.188 76.78C331.207 76.78 330.392 77.0517 329.742 77.5953C329.092 78.1388 328.608 78.8832 328.289 79.8285C327.981 80.7737 327.828 81.8608 327.828 83.0896V83.4618C327.828 84.7025 327.981 85.8014 328.289 86.7585C328.608 87.7037 329.092 88.4481 329.742 88.9917C330.404 89.5234 331.231 89.7892 332.223 89.7892ZM343.407 92.8555V90.126L346.066 89.5943V76.9572L343.265 76.4255V73.6783H350.178L350.408 76.4609C351.046 75.4684 351.838 74.7004 352.783 74.1568C353.74 73.6015 354.821 73.3238 356.026 73.3238C358 73.3238 359.536 73.9323 360.635 75.1494C361.734 76.3546 362.283 78.2451 362.283 80.821V89.5943L364.942 90.126V92.8555H355.317V90.126L357.817 89.5943V80.8564C357.817 79.4031 357.527 78.3751 356.948 77.7725C356.369 77.1581 355.507 76.8509 354.36 76.8509C353.498 76.8509 352.742 77.0458 352.092 77.4357C351.454 77.8138 350.934 78.3456 350.532 79.0309V89.5943L352.96 90.126V92.8555H343.407ZM373.289 93.2277C371.34 93.2277 369.821 92.7255 368.734 91.7211C367.647 90.7168 367.104 89.3343 367.104 87.5738C367.104 86.3685 367.435 85.311 368.096 84.4012C368.758 83.4914 369.727 82.7824 371.003 82.2743C372.279 81.7544 373.827 81.4945 375.647 81.4945H378.571V79.8816C378.571 78.8655 378.264 78.0561 377.65 77.4535C377.047 76.8509 376.167 76.5495 375.009 76.5495C374.347 76.5495 373.762 76.6323 373.254 76.7977C372.746 76.9513 372.291 77.1758 371.889 77.4712L371.482 80.0589H368.203L368.167 75.3266C369.113 74.7122 370.164 74.2277 371.322 73.8733C372.48 73.507 373.768 73.3238 375.186 73.3238C377.62 73.3238 379.534 73.8969 380.928 75.043C382.335 76.1773 383.038 77.8079 383.038 79.9348V88.3891C383.038 88.649 383.038 88.9031 383.038 89.1512C383.049 89.3993 383.067 89.6415 383.091 89.8779L385.04 90.126V92.8555H379.209C379.091 92.4419 378.979 92.0402 378.872 91.6502C378.778 91.2603 378.707 90.8704 378.66 90.4805C378.022 91.284 377.248 91.9456 376.338 92.4655C375.44 92.9736 374.424 93.2277 373.289 93.2277ZM374.3 89.7715C375.198 89.7715 376.037 89.5647 376.817 89.1512C377.596 88.7258 378.181 88.1941 378.571 87.556V84.348H375.594C374.258 84.348 373.248 84.6612 372.563 85.2874C371.889 85.9018 371.553 86.6226 371.553 87.4497C371.553 88.1941 371.789 88.7672 372.261 89.1689C372.734 89.5707 373.414 89.7715 374.3 89.7715ZM386.99 92.8555V90.126L389.666 89.5943V68.4852L386.83 67.9535V65.2063H394.115V89.5943L396.791 90.126V92.8555H386.99Z" fill="#2C2C2C"/>
<line x1="296.455" y1="607.092" x2="296.455" y2="590.758" stroke="#CACACA" stroke-width="3.62984"/>
<line x1="337.697" y1="607.092" x2="337.697" y2="590.758" stroke="#CACACA" stroke-width="3.62984"/>
<line x1="378.937" y1="607.092" x2="378.937" y2="590.758" stroke="#CACACA" stroke-width="3.62984"/>
<line x1="461.416" y1="607.092" x2="461.416" y2="590.758" stroke="#CACACA" stroke-width="3.62984"/>
<line x1="502.656" y1="607.092" x2="502.656" y2="590.758" stroke="#CACACA" stroke-width="3.62984"/>
<line x1="543.896" y1="607.092" x2="543.896" y2="590.758" stroke="#CACACA" stroke-width="3.62984"/>
<line x1="626.375" y1="607.092" x2="626.375" y2="590.758" stroke="#CACACA" stroke-width="3.62984"/>
<line x1="667.617" y1="607.092" x2="667.617" y2="590.758" stroke="#CACACA" stroke-width="3.62984"/>
<line x1="708.857" y1="607.092" x2="708.857" y2="590.758" stroke="#CACACA" stroke-width="3.62984"/>
<line x1="791.341" y1="607.092" x2="791.341" y2="590.758" stroke="#CACACA" stroke-width="3.62984"/>
<line x1="832.576" y1="607.092" x2="832.576" y2="590.758" stroke="#CACACA" stroke-width="3.62984"/>
<line x1="873.816" y1="607.092" x2="873.816" y2="590.758" stroke="#CACACA" stroke-width="3.62984"/>
</svg>
