<svg width="1000" height="722" viewBox="0 0 1000 722" fill="none" xmlns="http://www.w3.org/2000/svg">
<rect x="2.69187" y="2.59715" width="994.576" height="716.65" stroke="#CACACA" stroke-width="3.62984"/>
<line y1="-1.81492" x2="735.852" y2="-1.81492" transform="matrix(1 -0.000460047 0.00131689 0.999999 192.406 572.835)" stroke="#606060" stroke-width="3.62984"/>
<line y1="-1.81492" x2="735.852" y2="-1.81492" transform="matrix(1 -0.000460047 0.00131689 0.999999 192.406 481.75)" stroke="#CACACA" stroke-width="3.62984"/>
<line y1="-1.81492" x2="735.852" y2="-1.81492" transform="matrix(1 -0.000460047 0.00131689 0.999999 192.41 390.668)" stroke="#CACACA" stroke-width="3.62984"/>
<line y1="-1.81492" x2="735.852" y2="-1.81492" transform="matrix(1 -0.00046091 0.00131442 0.999999 192.41 299.581)" stroke="#CACACA" stroke-width="3.62984"/>
<line y1="-1.81492" x2="735.852" y2="-1.81492" transform="matrix(1 -0.000591904 0.00102353 0.999999 192.406 208.497)" stroke="#CACACA" stroke-width="3.62984"/>
<path d="M264.822 570.967V221.416H319.27V570.967H264.822Z" fill="#0567FF"/>
<path d="M537.01 570.967V274.191H591.457V570.967H537.01Z" fill="#0567FF"/>
<path d="M809.34 570.967L809.204 396.926L863.652 396.883L863.787 570.925L809.34 570.967Z" fill="#0567FF"/>
<path d="M242.636 578.367H248.616C249.972 578.367 251.118 578.574 252.053 578.988C252.995 579.401 253.711 580.013 254.199 580.824C254.695 581.626 254.943 582.615 254.943 583.789C254.943 584.616 254.774 585.373 254.435 586.06C254.104 586.738 253.624 587.317 252.995 587.796C252.375 588.268 251.631 588.619 250.762 588.851L250.092 589.112H244.472L244.447 587.164H248.69C249.551 587.164 250.266 587.015 250.837 586.717C251.407 586.411 251.838 586.002 252.127 585.489C252.416 584.976 252.561 584.409 252.561 583.789C252.561 583.094 252.425 582.486 252.152 581.965C251.879 581.444 251.449 581.043 250.862 580.762C250.283 580.472 249.534 580.328 248.616 580.328H245.03V596.432H242.636V578.367ZM253.194 596.432L248.802 588.243L251.296 588.231L255.75 596.283V596.432H253.194ZM263.516 596.68C262.582 596.68 261.734 596.523 260.973 596.208C260.22 595.886 259.571 595.435 259.025 594.856C258.487 594.277 258.074 593.59 257.784 592.796C257.495 592.002 257.35 591.134 257.35 590.191V589.67C257.35 588.578 257.512 587.606 257.834 586.754C258.157 585.894 258.595 585.166 259.149 584.571C259.703 583.975 260.332 583.524 261.035 583.218C261.738 582.912 262.466 582.759 263.219 582.759C264.178 582.759 265.005 582.925 265.7 583.256C266.403 583.586 266.978 584.05 267.424 584.645C267.871 585.232 268.202 585.927 268.417 586.729C268.632 587.524 268.74 588.392 268.74 589.335V590.365H258.715V588.491H266.444V588.318C266.411 587.722 266.287 587.143 266.072 586.581C265.865 586.018 265.534 585.555 265.08 585.191C264.625 584.827 264.004 584.645 263.219 584.645C262.697 584.645 262.218 584.757 261.779 584.98C261.341 585.195 260.965 585.518 260.65 585.948C260.336 586.378 260.092 586.903 259.918 587.524C259.745 588.144 259.658 588.859 259.658 589.67V590.191C259.658 590.828 259.745 591.427 259.918 591.99C260.1 592.544 260.361 593.032 260.7 593.454C261.047 593.876 261.465 594.207 261.953 594.446C262.449 594.686 263.012 594.806 263.64 594.806C264.451 594.806 265.137 594.641 265.7 594.31C266.262 593.979 266.754 593.537 267.176 592.982L268.566 594.087C268.276 594.525 267.908 594.943 267.462 595.34C267.015 595.737 266.465 596.059 265.812 596.307C265.166 596.556 264.401 596.68 263.516 596.68ZM280.116 583.007H282.201V596.146C282.201 597.329 281.961 598.338 281.481 599.173C281.001 600.009 280.332 600.642 279.471 601.072C278.619 601.51 277.635 601.729 276.519 601.729C276.055 601.729 275.509 601.655 274.881 601.506C274.261 601.365 273.648 601.121 273.045 600.774C272.449 600.435 271.949 599.976 271.543 599.397L272.747 598.032C273.309 598.71 273.897 599.182 274.509 599.446C275.129 599.711 275.741 599.843 276.345 599.843C277.073 599.843 277.701 599.707 278.231 599.434C278.76 599.161 279.169 598.756 279.459 598.218C279.757 597.689 279.906 597.035 279.906 596.258V585.96L280.116 583.007ZM270.873 589.868V589.608C270.873 588.582 270.993 587.652 271.233 586.816C271.481 585.973 271.833 585.249 272.288 584.645C272.751 584.041 273.309 583.578 273.963 583.256C274.616 582.925 275.352 582.759 276.171 582.759C277.015 582.759 277.751 582.908 278.38 583.206C279.016 583.495 279.554 583.921 279.992 584.484C280.439 585.038 280.791 585.708 281.047 586.494C281.303 587.28 281.481 588.169 281.58 589.161V590.303C281.489 591.287 281.312 592.172 281.047 592.958C280.791 593.743 280.439 594.413 279.992 594.968C279.554 595.522 279.016 595.948 278.38 596.245C277.743 596.535 276.998 596.68 276.146 596.68C275.344 596.68 274.616 596.51 273.963 596.171C273.318 595.832 272.763 595.356 272.3 594.744C271.837 594.132 271.481 593.413 271.233 592.585C270.993 591.75 270.873 590.844 270.873 589.868ZM273.169 589.608V589.868C273.169 590.538 273.235 591.167 273.367 591.754C273.508 592.341 273.719 592.858 274 593.305C274.289 593.752 274.658 594.103 275.104 594.36C275.551 594.608 276.084 594.732 276.705 594.732C277.466 594.732 278.094 594.571 278.59 594.248C279.087 593.925 279.48 593.499 279.769 592.97C280.067 592.441 280.298 591.866 280.464 591.246V588.256C280.373 587.801 280.232 587.362 280.042 586.94C279.86 586.51 279.62 586.13 279.322 585.799C279.033 585.46 278.673 585.191 278.243 584.993C277.813 584.794 277.308 584.695 276.729 584.695C276.101 584.695 275.559 584.827 275.104 585.092C274.658 585.348 274.289 585.704 274 586.159C273.719 586.605 273.508 587.127 273.367 587.722C273.235 588.309 273.169 588.938 273.169 589.608ZM288.181 583.007V596.432H285.873V583.007H288.181ZM285.699 579.447C285.699 579.075 285.811 578.76 286.034 578.504C286.266 578.247 286.605 578.119 287.052 578.119C287.49 578.119 287.825 578.247 288.057 578.504C288.297 578.76 288.417 579.075 288.417 579.447C288.417 579.802 288.297 580.108 288.057 580.365C287.825 580.613 287.49 580.737 287.052 580.737C286.605 580.737 286.266 580.613 286.034 580.365C285.811 580.108 285.699 579.802 285.699 579.447ZM291.258 589.868V589.583C291.258 588.615 291.398 587.718 291.679 586.891C291.961 586.055 292.366 585.332 292.895 584.72C293.425 584.099 294.066 583.62 294.818 583.28C295.571 582.933 296.415 582.759 297.349 582.759C298.292 582.759 299.14 582.933 299.893 583.28C300.654 583.62 301.299 584.099 301.828 584.72C302.366 585.332 302.775 586.055 303.056 586.891C303.338 587.718 303.478 588.615 303.478 589.583V589.868C303.478 590.836 303.338 591.734 303.056 592.561C302.775 593.388 302.366 594.111 301.828 594.732C301.299 595.344 300.658 595.824 299.905 596.171C299.161 596.51 298.317 596.68 297.374 596.68C296.431 596.68 295.583 596.51 294.831 596.171C294.078 595.824 293.433 595.344 292.895 594.732C292.366 594.111 291.961 593.388 291.679 592.561C291.398 591.734 291.258 590.836 291.258 589.868ZM293.553 589.583V589.868C293.553 590.538 293.631 591.171 293.789 591.767C293.946 592.354 294.181 592.875 294.496 593.33C294.818 593.785 295.22 594.145 295.699 594.409C296.179 594.666 296.737 594.794 297.374 594.794C298.003 594.794 298.553 594.666 299.024 594.409C299.504 594.145 299.901 593.785 300.215 593.33C300.53 592.875 300.765 592.354 300.922 591.767C301.088 591.171 301.171 590.538 301.171 589.868V589.583C301.171 588.921 301.088 588.297 300.922 587.71C300.765 587.114 300.525 586.589 300.203 586.134C299.889 585.671 299.492 585.307 299.012 585.042C298.54 584.778 297.986 584.645 297.349 584.645C296.721 584.645 296.167 584.778 295.687 585.042C295.215 585.307 294.818 585.671 294.496 586.134C294.181 586.589 293.946 587.114 293.789 587.71C293.631 588.297 293.553 588.921 293.553 589.583ZM308.652 585.873V596.432H306.357V583.007H308.528L308.652 585.873ZM308.106 589.211L307.151 589.174C307.159 588.256 307.295 587.408 307.56 586.63C307.825 585.844 308.197 585.162 308.677 584.583C309.156 584.004 309.727 583.558 310.389 583.243C311.059 582.921 311.799 582.759 312.61 582.759C313.271 582.759 313.867 582.85 314.396 583.032C314.925 583.206 315.376 583.487 315.748 583.876C316.129 584.265 316.418 584.769 316.617 585.39C316.815 586.002 316.915 586.75 316.915 587.635V596.432H314.607V587.61C314.607 586.907 314.504 586.345 314.297 585.923C314.09 585.493 313.788 585.183 313.391 584.993C312.994 584.794 312.506 584.695 311.927 584.695C311.356 584.695 310.835 584.815 310.364 585.055C309.901 585.294 309.5 585.625 309.16 586.047C308.83 586.469 308.569 586.953 308.379 587.499C308.197 588.036 308.106 588.607 308.106 589.211ZM328.316 594.136V587.226C328.316 586.696 328.209 586.237 327.994 585.849C327.787 585.452 327.473 585.146 327.051 584.931C326.629 584.715 326.108 584.608 325.488 584.608C324.909 584.608 324.4 584.707 323.962 584.906C323.532 585.104 323.192 585.365 322.944 585.687C322.704 586.01 322.585 586.357 322.585 586.729H320.289C320.289 586.25 320.413 585.774 320.661 585.303C320.91 584.831 321.265 584.405 321.728 584.025C322.2 583.636 322.762 583.33 323.416 583.107C324.077 582.875 324.814 582.759 325.624 582.759C326.6 582.759 327.46 582.925 328.205 583.256C328.957 583.586 329.545 584.087 329.966 584.757C330.397 585.419 330.612 586.25 330.612 587.251V593.504C330.612 593.95 330.649 594.426 330.723 594.93C330.806 595.435 330.926 595.869 331.083 596.233V596.432H328.689C328.573 596.167 328.482 595.815 328.416 595.377C328.349 594.93 328.316 594.517 328.316 594.136ZM328.713 588.293L328.738 589.906H326.418C325.765 589.906 325.182 589.959 324.669 590.067C324.156 590.166 323.726 590.319 323.379 590.526C323.031 590.733 322.766 590.993 322.585 591.308C322.403 591.614 322.312 591.973 322.312 592.387C322.312 592.809 322.407 593.193 322.597 593.541C322.787 593.888 323.073 594.165 323.453 594.372C323.842 594.571 324.317 594.67 324.88 594.67C325.583 594.67 326.203 594.521 326.741 594.223C327.278 593.925 327.704 593.561 328.019 593.131C328.341 592.701 328.515 592.284 328.54 591.878L329.52 592.982C329.462 593.33 329.305 593.714 329.048 594.136C328.792 594.558 328.449 594.963 328.019 595.352C327.597 595.733 327.092 596.051 326.505 596.307C325.926 596.556 325.273 596.68 324.545 596.68C323.635 596.68 322.837 596.502 322.15 596.146C321.472 595.791 320.943 595.315 320.562 594.719C320.19 594.116 320.004 593.442 320.004 592.697C320.004 591.978 320.145 591.345 320.426 590.799C320.707 590.245 321.112 589.786 321.642 589.422C322.171 589.05 322.808 588.768 323.552 588.578C324.297 588.388 325.128 588.293 326.046 588.293H328.713ZM336.716 577.375V596.432H334.408V577.375H336.716ZM349.619 578.367V596.432H347.224V578.367H349.619Z" fill="#606060"/>
<path d="M506.318 584.553H512.298C513.654 584.553 514.8 584.76 515.735 585.173C516.678 585.587 517.393 586.199 517.881 587.01C518.377 587.812 518.625 588.8 518.625 589.975C518.625 590.802 518.456 591.559 518.117 592.245C517.786 592.923 517.306 593.502 516.678 593.982C516.057 594.454 515.313 594.805 514.444 595.037L513.774 595.297H508.154L508.129 593.349H512.372C513.233 593.349 513.948 593.201 514.519 592.903C515.09 592.597 515.52 592.187 515.809 591.674C516.099 591.162 516.243 590.595 516.243 589.975C516.243 589.28 516.107 588.672 515.834 588.151C515.561 587.63 515.131 587.229 514.544 586.948C513.965 586.658 513.216 586.513 512.298 586.513H508.713V602.617H506.318V584.553ZM516.876 602.617L512.484 594.429L514.978 594.416L519.432 602.468V602.617H516.876ZM527.198 602.865C526.264 602.865 525.416 602.708 524.655 602.394C523.902 602.071 523.253 601.621 522.707 601.042C522.17 600.463 521.756 599.776 521.467 598.982C521.177 598.188 521.032 597.32 521.032 596.377V595.856C521.032 594.764 521.194 593.792 521.516 592.94C521.839 592.08 522.277 591.352 522.831 590.756C523.385 590.161 524.014 589.71 524.717 589.404C525.42 589.098 526.148 588.945 526.901 588.945C527.86 588.945 528.687 589.11 529.382 589.441C530.085 589.772 530.66 590.235 531.107 590.831C531.553 591.418 531.884 592.113 532.099 592.915C532.314 593.709 532.422 594.578 532.422 595.521V596.55H522.397V594.677H530.126V594.503C530.093 593.908 529.969 593.329 529.754 592.766C529.547 592.204 529.217 591.741 528.762 591.377C528.307 591.013 527.686 590.831 526.901 590.831C526.38 590.831 525.9 590.943 525.462 591.166C525.023 591.381 524.647 591.703 524.333 592.134C524.018 592.564 523.774 593.089 523.601 593.709C523.427 594.33 523.34 595.045 523.34 595.856V596.377C523.34 597.014 523.427 597.613 523.601 598.176C523.782 598.73 524.043 599.218 524.382 599.64C524.73 600.061 525.147 600.392 525.635 600.632C526.131 600.872 526.694 600.992 527.323 600.992C528.133 600.992 528.82 600.826 529.382 600.496C529.944 600.165 530.437 599.722 530.858 599.168L532.248 600.272C531.958 600.711 531.59 601.128 531.144 601.525C530.697 601.922 530.147 602.245 529.494 602.493C528.849 602.741 528.083 602.865 527.198 602.865ZM543.799 589.193H545.883V602.332C545.883 603.515 545.643 604.524 545.163 605.359C544.684 606.194 544.014 606.827 543.153 607.257C542.302 607.696 541.317 607.915 540.201 607.915C539.737 607.915 539.192 607.84 538.563 607.692C537.943 607.551 537.331 607.307 536.727 606.96C536.131 606.62 535.631 606.161 535.226 605.582L536.429 604.218C536.991 604.896 537.579 605.367 538.191 605.632C538.811 605.897 539.423 606.029 540.027 606.029C540.755 606.029 541.383 605.893 541.913 605.62C542.442 605.347 542.852 604.941 543.141 604.404C543.439 603.874 543.588 603.221 543.588 602.443V592.146L543.799 589.193ZM534.556 596.054V595.794C534.556 594.768 534.676 593.837 534.915 593.002C535.164 592.158 535.515 591.435 535.97 590.831C536.433 590.227 536.991 589.764 537.645 589.441C538.298 589.11 539.034 588.945 539.853 588.945C540.697 588.945 541.433 589.094 542.062 589.392C542.699 589.681 543.236 590.107 543.675 590.67C544.121 591.224 544.473 591.894 544.729 592.679C544.985 593.465 545.163 594.354 545.263 595.347V596.488C545.172 597.473 544.994 598.358 544.729 599.143C544.473 599.929 544.121 600.599 543.675 601.153C543.236 601.707 542.699 602.133 542.062 602.431C541.425 602.721 540.68 602.865 539.828 602.865C539.026 602.865 538.298 602.696 537.645 602.357C537 602.018 536.446 601.542 535.982 600.93C535.519 600.318 535.164 599.598 534.915 598.771C534.676 597.936 534.556 597.03 534.556 596.054ZM536.851 595.794V596.054C536.851 596.724 536.917 597.353 537.049 597.94C537.19 598.527 537.401 599.044 537.682 599.491C537.972 599.937 538.34 600.289 538.786 600.545C539.233 600.793 539.766 600.917 540.387 600.917C541.148 600.917 541.776 600.756 542.273 600.434C542.769 600.111 543.162 599.685 543.451 599.156C543.749 598.626 543.981 598.052 544.146 597.431V594.441C544.055 593.986 543.914 593.548 543.724 593.126C543.542 592.696 543.302 592.316 543.005 591.985C542.715 591.646 542.355 591.377 541.925 591.178C541.495 590.98 540.991 590.88 540.412 590.88C539.783 590.88 539.241 591.013 538.786 591.277C538.34 591.534 537.972 591.89 537.682 592.344C537.401 592.791 537.19 593.312 537.049 593.908C536.917 594.495 536.851 595.124 536.851 595.794ZM551.863 589.193V602.617H549.555V589.193H551.863ZM549.382 585.632C549.382 585.26 549.493 584.946 549.717 584.69C549.948 584.433 550.287 584.305 550.734 584.305C551.172 584.305 551.507 584.433 551.739 584.69C551.979 584.946 552.099 585.26 552.099 585.632C552.099 585.988 551.979 586.294 551.739 586.551C551.507 586.799 551.172 586.923 550.734 586.923C550.287 586.923 549.948 586.799 549.717 586.551C549.493 586.294 549.382 585.988 549.382 585.632ZM554.94 596.054V595.769C554.94 594.801 555.08 593.904 555.362 593.076C555.643 592.241 556.048 591.517 556.577 590.905C557.107 590.285 557.748 589.805 558.5 589.466C559.253 589.119 560.097 588.945 561.031 588.945C561.974 588.945 562.822 589.119 563.575 589.466C564.336 589.805 564.981 590.285 565.51 590.905C566.048 591.517 566.457 592.241 566.739 593.076C567.02 593.904 567.16 594.801 567.16 595.769V596.054C567.16 597.022 567.02 597.919 566.739 598.746C566.457 599.573 566.048 600.297 565.51 600.917C564.981 601.53 564.34 602.009 563.587 602.357C562.843 602.696 561.999 602.865 561.056 602.865C560.113 602.865 559.266 602.696 558.513 602.357C557.76 602.009 557.115 601.53 556.577 600.917C556.048 600.297 555.643 599.573 555.362 598.746C555.08 597.919 554.94 597.022 554.94 596.054ZM557.235 595.769V596.054C557.235 596.724 557.314 597.357 557.471 597.952C557.628 598.54 557.864 599.061 558.178 599.516C558.5 599.97 558.902 600.33 559.381 600.595C559.861 600.851 560.419 600.98 561.056 600.98C561.685 600.98 562.235 600.851 562.706 600.595C563.186 600.33 563.583 599.97 563.897 599.516C564.212 599.061 564.447 598.54 564.605 597.952C564.77 597.357 564.853 596.724 564.853 596.054V595.769C564.853 595.107 564.77 594.483 564.605 593.895C564.447 593.3 564.208 592.775 563.885 592.32C563.571 591.856 563.174 591.493 562.694 591.228C562.222 590.963 561.668 590.831 561.031 590.831C560.403 590.831 559.849 590.963 559.369 591.228C558.898 591.493 558.5 591.856 558.178 592.32C557.864 592.775 557.628 593.3 557.471 593.895C557.314 594.483 557.235 595.107 557.235 595.769ZM572.334 592.059V602.617H570.039V589.193H572.21L572.334 592.059ZM571.788 595.397L570.833 595.359C570.841 594.441 570.977 593.593 571.242 592.816C571.507 592.03 571.879 591.348 572.359 590.769C572.838 590.19 573.409 589.743 574.071 589.429C574.741 589.106 575.481 588.945 576.292 588.945C576.953 588.945 577.549 589.036 578.078 589.218C578.608 589.392 579.058 589.673 579.431 590.062C579.811 590.45 580.101 590.955 580.299 591.575C580.498 592.187 580.597 592.936 580.597 593.821V602.617H578.289V593.796C578.289 593.093 578.186 592.531 577.979 592.109C577.772 591.679 577.47 591.368 577.073 591.178C576.676 590.98 576.188 590.88 575.609 590.88C575.039 590.88 574.518 591 574.046 591.24C573.583 591.48 573.182 591.811 572.843 592.233C572.512 592.655 572.251 593.138 572.061 593.684C571.879 594.222 571.788 594.793 571.788 595.397ZM591.999 600.322V593.411C591.999 592.882 591.891 592.423 591.676 592.034C591.469 591.637 591.155 591.331 590.733 591.116C590.311 590.901 589.79 590.794 589.17 590.794C588.591 590.794 588.082 590.893 587.644 591.091C587.214 591.29 586.875 591.55 586.626 591.873C586.387 592.196 586.267 592.543 586.267 592.915H583.971C583.971 592.435 584.095 591.96 584.344 591.488C584.592 591.017 584.947 590.591 585.411 590.211C585.882 589.822 586.444 589.516 587.098 589.292C587.76 589.061 588.496 588.945 589.306 588.945C590.282 588.945 591.142 589.11 591.887 589.441C592.64 589.772 593.227 590.273 593.649 590.943C594.079 591.604 594.294 592.435 594.294 593.436V599.689C594.294 600.136 594.331 600.611 594.405 601.116C594.488 601.621 594.608 602.055 594.765 602.419V602.617H592.371C592.255 602.353 592.164 602.001 592.098 601.563C592.032 601.116 591.999 600.702 591.999 600.322ZM592.396 594.478L592.42 596.091H590.1C589.447 596.091 588.864 596.145 588.351 596.253C587.838 596.352 587.408 596.505 587.061 596.712C586.713 596.918 586.449 597.179 586.267 597.493C586.085 597.799 585.994 598.159 585.994 598.573C585.994 598.994 586.089 599.379 586.279 599.726C586.469 600.074 586.755 600.351 587.135 600.558C587.524 600.756 587.999 600.855 588.562 600.855C589.265 600.855 589.885 600.707 590.423 600.409C590.961 600.111 591.386 599.747 591.701 599.317C592.023 598.887 592.197 598.469 592.222 598.064L593.202 599.168C593.144 599.516 592.987 599.9 592.731 600.322C592.474 600.744 592.131 601.149 591.701 601.538C591.279 601.918 590.774 602.237 590.187 602.493C589.608 602.741 588.955 602.865 588.227 602.865C587.317 602.865 586.519 602.687 585.832 602.332C585.154 601.976 584.625 601.501 584.244 600.905C583.872 600.301 583.686 599.627 583.686 598.883C583.686 598.163 583.827 597.53 584.108 596.985C584.389 596.43 584.794 595.971 585.324 595.607C585.853 595.235 586.49 594.954 587.234 594.764C587.979 594.574 588.81 594.478 589.728 594.478H592.396ZM600.398 583.561V602.617H598.09V583.561H600.398ZM613.301 584.553V602.617H610.906V584.553H613.301ZM620.224 584.553V602.617H617.829V584.553H620.224Z" fill="#606060"/>
<path d="M778.831 584.391H784.811C786.167 584.391 787.313 584.598 788.248 585.011C789.19 585.425 789.906 586.037 790.394 586.847C790.89 587.65 791.138 588.638 791.138 589.813C791.138 590.64 790.969 591.397 790.63 592.083C790.299 592.761 789.819 593.34 789.19 593.82C788.57 594.291 787.826 594.643 786.957 594.875L786.287 595.135H780.667L780.642 593.187H784.885C785.746 593.187 786.461 593.038 787.032 592.741C787.602 592.435 788.033 592.025 788.322 591.512C788.611 591 788.756 590.433 788.756 589.813C788.756 589.118 788.62 588.51 788.347 587.989C788.074 587.468 787.644 587.067 787.057 586.785C786.478 586.496 785.729 586.351 784.811 586.351H781.225V602.455H778.831V584.391ZM789.389 602.455L784.997 594.267L787.491 594.254L791.945 602.306V602.455H789.389ZM799.711 602.703C798.777 602.703 797.929 602.546 797.168 602.232C796.415 601.909 795.766 601.458 795.22 600.879C794.682 600.3 794.269 599.614 793.979 598.82C793.69 598.026 793.545 597.157 793.545 596.215V595.693C793.545 594.602 793.707 593.63 794.029 592.778C794.352 591.918 794.79 591.19 795.344 590.594C795.898 589.999 796.527 589.548 797.23 589.242C797.933 588.936 798.661 588.783 799.414 588.783C800.373 588.783 801.2 588.948 801.895 589.279C802.598 589.61 803.173 590.073 803.619 590.669C804.066 591.256 804.397 591.951 804.612 592.753C804.827 593.547 804.935 594.416 804.935 595.358V596.388H794.91V594.515H802.639V594.341C802.606 593.746 802.482 593.167 802.267 592.604C802.06 592.042 801.729 591.579 801.275 591.215C800.82 590.851 800.199 590.669 799.414 590.669C798.892 590.669 798.413 590.78 797.974 591.004C797.536 591.219 797.16 591.541 796.845 591.971C796.531 592.402 796.287 592.927 796.113 593.547C795.94 594.167 795.853 594.883 795.853 595.693V596.215C795.853 596.851 795.94 597.451 796.113 598.013C796.295 598.568 796.556 599.056 796.895 599.477C797.242 599.899 797.66 600.23 798.148 600.47C798.644 600.71 799.207 600.83 799.835 600.83C800.646 600.83 801.332 600.664 801.895 600.334C802.457 600.003 802.949 599.56 803.371 599.006L804.761 600.11C804.471 600.549 804.103 600.966 803.657 601.363C803.21 601.76 802.66 602.083 802.007 602.331C801.361 602.579 800.596 602.703 799.711 602.703ZM816.311 589.031H818.396V602.17C818.396 603.352 818.156 604.362 817.676 605.197C817.196 606.032 816.527 606.665 815.666 607.095C814.814 607.534 813.83 607.753 812.714 607.753C812.25 607.753 811.704 607.678 811.076 607.529C810.456 607.389 809.843 607.145 809.24 606.797C808.644 606.458 808.144 605.999 807.738 605.42L808.942 604.056C809.504 604.734 810.092 605.205 810.704 605.47C811.324 605.735 811.936 605.867 812.54 605.867C813.268 605.867 813.896 605.73 814.426 605.457C814.955 605.185 815.364 604.779 815.654 604.242C815.952 603.712 816.101 603.059 816.101 602.281V591.984L816.311 589.031ZM807.068 595.892V595.631C807.068 594.606 807.188 593.675 807.428 592.84C807.676 591.996 808.028 591.273 808.483 590.669C808.946 590.065 809.504 589.602 810.158 589.279C810.811 588.948 811.547 588.783 812.366 588.783C813.21 588.783 813.946 588.932 814.575 589.23C815.211 589.519 815.749 589.945 816.187 590.507C816.634 591.062 816.986 591.732 817.242 592.517C817.498 593.303 817.676 594.192 817.775 595.185V596.326C817.684 597.31 817.507 598.195 817.242 598.981C816.986 599.767 816.634 600.437 816.187 600.991C815.749 601.545 815.211 601.971 814.575 602.269C813.938 602.558 813.193 602.703 812.341 602.703C811.539 602.703 810.811 602.534 810.158 602.195C809.513 601.855 808.958 601.38 808.495 600.768C808.032 600.156 807.676 599.436 807.428 598.609C807.188 597.774 807.068 596.868 807.068 595.892ZM809.364 595.631V595.892C809.364 596.562 809.43 597.191 809.562 597.778C809.703 598.365 809.914 598.882 810.195 599.329C810.484 599.775 810.853 600.127 811.299 600.383C811.746 600.631 812.279 600.755 812.9 600.755C813.661 600.755 814.289 600.594 814.785 600.272C815.282 599.949 815.675 599.523 815.964 598.994C816.262 598.464 816.493 597.889 816.659 597.269V594.279C816.568 593.824 816.427 593.386 816.237 592.964C816.055 592.534 815.815 592.153 815.517 591.823C815.228 591.483 814.868 591.215 814.438 591.016C814.008 590.818 813.503 590.718 812.924 590.718C812.296 590.718 811.754 590.851 811.299 591.115C810.853 591.372 810.484 591.727 810.195 592.182C809.914 592.629 809.703 593.15 809.562 593.746C809.43 594.333 809.364 594.961 809.364 595.631ZM824.376 589.031V602.455H822.068V589.031H824.376ZM821.894 585.47C821.894 585.098 822.006 584.784 822.229 584.527C822.461 584.271 822.8 584.143 823.247 584.143C823.685 584.143 824.02 584.271 824.252 584.527C824.492 584.784 824.612 585.098 824.612 585.47C824.612 585.826 824.492 586.132 824.252 586.388C824.02 586.637 823.685 586.761 823.247 586.761C822.8 586.761 822.461 586.637 822.229 586.388C822.006 586.132 821.894 585.826 821.894 585.47ZM827.453 595.892V595.607C827.453 594.639 827.593 593.741 827.874 592.914C828.156 592.079 828.561 591.355 829.09 590.743C829.62 590.123 830.261 589.643 831.013 589.304C831.766 588.957 832.61 588.783 833.544 588.783C834.487 588.783 835.335 588.957 836.088 589.304C836.849 589.643 837.494 590.123 838.023 590.743C838.561 591.355 838.97 592.079 839.251 592.914C839.533 593.741 839.673 594.639 839.673 595.607V595.892C839.673 596.86 839.533 597.757 839.251 598.584C838.97 599.411 838.561 600.135 838.023 600.755C837.494 601.367 836.853 601.847 836.1 602.195C835.356 602.534 834.512 602.703 833.569 602.703C832.626 602.703 831.778 602.534 831.026 602.195C830.273 601.847 829.628 601.367 829.09 600.755C828.561 600.135 828.156 599.411 827.874 598.584C827.593 597.757 827.453 596.86 827.453 595.892ZM829.748 595.607V595.892C829.748 596.562 829.826 597.195 829.984 597.79C830.141 598.377 830.376 598.898 830.691 599.353C831.013 599.808 831.415 600.168 831.894 600.433C832.374 600.689 832.932 600.817 833.569 600.817C834.198 600.817 834.748 600.689 835.219 600.433C835.699 600.168 836.096 599.808 836.41 599.353C836.725 598.898 836.96 598.377 837.117 597.79C837.283 597.195 837.366 596.562 837.366 595.892V595.607C837.366 594.945 837.283 594.32 837.117 593.733C836.96 593.138 836.72 592.612 836.398 592.158C836.084 591.694 835.687 591.33 835.207 591.066C834.735 590.801 834.181 590.669 833.544 590.669C832.916 590.669 832.362 590.801 831.882 591.066C831.41 591.33 831.013 591.694 830.691 592.158C830.376 592.612 830.141 593.138 829.984 593.733C829.826 594.32 829.748 594.945 829.748 595.607ZM844.847 591.897V602.455H842.552V589.031H844.723L844.847 591.897ZM844.301 595.234L843.346 595.197C843.354 594.279 843.49 593.431 843.755 592.654C844.02 591.868 844.392 591.186 844.872 590.607C845.351 590.028 845.922 589.581 846.584 589.267C847.254 588.944 847.994 588.783 848.805 588.783C849.466 588.783 850.062 588.874 850.591 589.056C851.12 589.23 851.571 589.511 851.943 589.9C852.324 590.288 852.613 590.793 852.812 591.413C853.01 592.025 853.11 592.774 853.11 593.659V602.455H850.802V593.634C850.802 592.931 850.699 592.368 850.492 591.947C850.285 591.517 849.983 591.206 849.586 591.016C849.189 590.818 848.701 590.718 848.122 590.718C847.551 590.718 847.03 590.838 846.559 591.078C846.096 591.318 845.695 591.649 845.355 592.071C845.025 592.493 844.764 592.976 844.574 593.522C844.392 594.06 844.301 594.631 844.301 595.234ZM864.511 600.16V593.249C864.511 592.72 864.404 592.261 864.189 591.872C863.982 591.475 863.668 591.169 863.246 590.954C862.824 590.739 862.303 590.632 861.683 590.632C861.104 590.632 860.595 590.731 860.157 590.929C859.727 591.128 859.387 591.388 859.139 591.711C858.899 592.033 858.78 592.381 858.78 592.753H856.484C856.484 592.273 856.608 591.798 856.856 591.326C857.105 590.855 857.46 590.429 857.923 590.048C858.395 589.66 858.957 589.354 859.611 589.13C860.272 588.899 861.009 588.783 861.819 588.783C862.795 588.783 863.655 588.948 864.4 589.279C865.152 589.61 865.74 590.11 866.161 590.78C866.592 591.442 866.807 592.273 866.807 593.274V599.527C866.807 599.974 866.844 600.449 866.918 600.954C867.001 601.458 867.121 601.893 867.278 602.257V602.455H864.884C864.768 602.19 864.677 601.839 864.611 601.401C864.544 600.954 864.511 600.54 864.511 600.16ZM864.908 594.316L864.933 595.929H862.613C861.96 595.929 861.377 595.983 860.864 596.09C860.351 596.19 859.921 596.343 859.574 596.55C859.226 596.756 858.961 597.017 858.78 597.331C858.598 597.637 858.507 597.997 858.507 598.411C858.507 598.832 858.602 599.217 858.792 599.564C858.982 599.912 859.268 600.189 859.648 600.396C860.037 600.594 860.512 600.693 861.075 600.693C861.778 600.693 862.398 600.544 862.936 600.247C863.473 599.949 863.899 599.585 864.214 599.155C864.536 598.725 864.71 598.307 864.735 597.902L865.715 599.006C865.657 599.353 865.5 599.738 865.243 600.16C864.987 600.582 864.644 600.987 864.214 601.376C863.792 601.756 863.287 602.075 862.7 602.331C862.121 602.579 861.468 602.703 860.74 602.703C859.83 602.703 859.032 602.525 858.345 602.17C857.667 601.814 857.138 601.338 856.757 600.743C856.385 600.139 856.199 599.465 856.199 598.721C856.199 598.001 856.34 597.368 856.621 596.822C856.902 596.268 857.307 595.809 857.837 595.445C858.366 595.073 859.003 594.792 859.747 594.602C860.492 594.411 861.323 594.316 862.241 594.316H864.908ZM872.911 583.398V602.455H870.603V583.398H872.911ZM885.814 584.391V602.455H883.419V584.391H885.814ZM892.737 584.391V602.455H890.342V584.391H892.737ZM899.66 584.391V602.455H897.265V584.391H899.66Z" fill="#606060"/>
<path d="M170.777 569.672V572.427C170.777 573.907 170.645 575.156 170.38 576.173C170.115 577.191 169.735 578.01 169.239 578.63C168.742 579.25 168.143 579.701 167.44 579.982C166.745 580.255 165.959 580.392 165.082 580.392C164.388 580.392 163.747 580.305 163.159 580.131C162.572 579.957 162.043 579.68 161.571 579.3C161.108 578.911 160.711 578.407 160.38 577.786C160.049 577.166 159.797 576.413 159.623 575.528C159.45 574.643 159.363 573.609 159.363 572.427V569.672C159.363 568.192 159.495 566.951 159.76 565.95C160.033 564.95 160.417 564.147 160.914 563.543C161.41 562.931 162.005 562.493 162.7 562.228C163.403 561.964 164.189 561.831 165.057 561.831C165.761 561.831 166.406 561.918 166.993 562.092C167.588 562.257 168.118 562.526 168.581 562.898C169.044 563.262 169.437 563.75 169.76 564.362C170.09 564.966 170.343 565.706 170.516 566.583C170.69 567.46 170.777 568.49 170.777 569.672ZM168.469 572.799V569.288C168.469 568.477 168.42 567.766 168.32 567.154C168.229 566.533 168.093 566.004 167.911 565.566C167.729 565.127 167.497 564.772 167.216 564.499C166.943 564.226 166.625 564.027 166.261 563.903C165.905 563.771 165.504 563.705 165.057 563.705C164.512 563.705 164.028 563.808 163.606 564.015C163.184 564.213 162.828 564.532 162.539 564.97C162.258 565.409 162.043 565.983 161.894 566.695C161.745 567.406 161.67 568.27 161.67 569.288V572.799C161.67 573.609 161.716 574.325 161.807 574.945C161.906 575.565 162.051 576.103 162.241 576.558C162.431 577.005 162.663 577.373 162.936 577.662C163.209 577.952 163.523 578.167 163.879 578.307C164.243 578.44 164.644 578.506 165.082 578.506C165.645 578.506 166.137 578.398 166.559 578.183C166.981 577.968 167.332 577.633 167.613 577.178C167.903 576.715 168.118 576.124 168.258 575.404C168.399 574.676 168.469 573.808 168.469 572.799Z" fill="#606060"/>
<path d="M145.99 487.871V489.757H134.167V488.107L140.085 481.519C140.813 480.708 141.375 480.022 141.772 479.46C142.178 478.889 142.459 478.38 142.616 477.934C142.781 477.479 142.864 477.015 142.864 476.544C142.864 475.948 142.74 475.411 142.492 474.931C142.252 474.443 141.896 474.054 141.425 473.765C140.953 473.475 140.383 473.331 139.713 473.331C138.91 473.331 138.24 473.488 137.703 473.802C137.173 474.108 136.776 474.538 136.512 475.092C136.247 475.647 136.115 476.283 136.115 477.003H133.82C133.82 475.986 134.043 475.055 134.489 474.212C134.936 473.368 135.598 472.698 136.475 472.202C137.351 471.697 138.431 471.445 139.713 471.445C140.854 471.445 141.83 471.647 142.641 472.053C143.451 472.45 144.072 473.012 144.502 473.74C144.94 474.46 145.159 475.303 145.159 476.271C145.159 476.8 145.068 477.338 144.886 477.884C144.713 478.422 144.469 478.959 144.154 479.497C143.848 480.034 143.488 480.564 143.075 481.085C142.67 481.606 142.235 482.119 141.772 482.623L136.934 487.871H145.99ZM151.35 481.159L149.514 480.688L150.42 471.693H159.687V473.815H152.368L151.822 478.728C152.152 478.537 152.57 478.359 153.075 478.194C153.588 478.029 154.175 477.946 154.836 477.946C155.672 477.946 156.42 478.091 157.082 478.38C157.744 478.661 158.306 479.067 158.769 479.596C159.241 480.125 159.601 480.762 159.849 481.507C160.097 482.251 160.221 483.082 160.221 484C160.221 484.869 160.101 485.667 159.861 486.395C159.63 487.123 159.278 487.76 158.807 488.305C158.335 488.843 157.74 489.261 157.02 489.559C156.309 489.856 155.469 490.005 154.501 490.005C153.774 490.005 153.083 489.906 152.43 489.707C151.784 489.501 151.205 489.191 150.693 488.777C150.188 488.355 149.775 487.834 149.452 487.214C149.138 486.585 148.939 485.849 148.856 485.005H151.04C151.139 485.684 151.338 486.254 151.636 486.717C151.933 487.181 152.322 487.532 152.802 487.772C153.29 488.004 153.856 488.119 154.501 488.119C155.047 488.119 155.531 488.024 155.953 487.834C156.375 487.644 156.731 487.371 157.02 487.015C157.31 486.66 157.529 486.229 157.678 485.725C157.835 485.22 157.913 484.654 157.913 484.025C157.913 483.454 157.835 482.925 157.678 482.437C157.52 481.949 157.285 481.523 156.97 481.159C156.664 480.795 156.288 480.514 155.841 480.316C155.395 480.109 154.882 480.005 154.303 480.005C153.534 480.005 152.951 480.109 152.554 480.316C152.165 480.522 151.764 480.804 151.35 481.159ZM165.73 471.693V489.757H163.335V471.693H165.73ZM176.635 471.693L169.129 480.117L164.911 484.497L164.514 481.941L167.69 478.442L173.757 471.693H176.635ZM174.327 489.757L167.64 480.948L169.067 479.05L177.181 489.757H174.327Z" fill="#606060"/>
<path d="M137.058 389.812L135.221 389.34L136.127 380.345H145.395V382.467H138.075L137.529 387.38C137.86 387.19 138.278 387.012 138.782 386.846C139.295 386.681 139.882 386.598 140.544 386.598C141.379 386.598 142.128 386.743 142.79 387.033C143.451 387.314 144.014 387.719 144.477 388.248C144.948 388.778 145.308 389.415 145.556 390.159C145.804 390.903 145.928 391.735 145.928 392.653C145.928 393.521 145.809 394.319 145.569 395.047C145.337 395.775 144.986 396.412 144.514 396.958C144.043 397.495 143.447 397.913 142.728 398.211C142.016 398.509 141.177 398.658 140.209 398.658C139.481 398.658 138.79 398.558 138.137 398.36C137.492 398.153 136.913 397.843 136.4 397.429C135.896 397.007 135.482 396.486 135.159 395.866C134.845 395.237 134.647 394.501 134.564 393.658H136.748C136.847 394.336 137.045 394.907 137.343 395.37C137.641 395.833 138.03 396.184 138.509 396.424C138.997 396.656 139.564 396.772 140.209 396.772C140.755 396.772 141.239 396.677 141.661 396.486C142.082 396.296 142.438 396.023 142.728 395.668C143.017 395.312 143.236 394.882 143.385 394.377C143.542 393.873 143.621 393.306 143.621 392.678C143.621 392.107 143.542 391.577 143.385 391.089C143.228 390.601 142.992 390.176 142.678 389.812C142.372 389.448 141.996 389.166 141.549 388.968C141.102 388.761 140.589 388.658 140.01 388.658C139.241 388.658 138.658 388.761 138.261 388.968C137.872 389.175 137.471 389.456 137.058 389.812ZM159.787 387.938V390.692C159.787 392.173 159.654 393.422 159.39 394.439C159.125 395.457 158.745 396.275 158.248 396.896C157.752 397.516 157.152 397.967 156.449 398.248C155.755 398.521 154.969 398.658 154.092 398.658C153.397 398.658 152.756 398.571 152.169 398.397C151.582 398.223 151.052 397.946 150.581 397.566C150.118 397.177 149.721 396.672 149.39 396.052C149.059 395.432 148.807 394.679 148.633 393.794C148.459 392.909 148.373 391.875 148.373 390.692V387.938C148.373 386.458 148.505 385.217 148.77 384.216C149.043 383.215 149.427 382.413 149.923 381.809C150.42 381.197 151.015 380.759 151.71 380.494C152.413 380.23 153.199 380.097 154.067 380.097C154.77 380.097 155.415 380.184 156.003 380.358C156.598 380.523 157.128 380.792 157.591 381.164C158.054 381.528 158.447 382.016 158.769 382.628C159.1 383.232 159.352 383.972 159.526 384.849C159.7 385.726 159.787 386.755 159.787 387.938ZM157.479 391.065V387.554C157.479 386.743 157.429 386.032 157.33 385.42C157.239 384.799 157.103 384.27 156.921 383.832C156.739 383.393 156.507 383.038 156.226 382.765C155.953 382.492 155.635 382.293 155.271 382.169C154.915 382.037 154.514 381.971 154.067 381.971C153.521 381.971 153.037 382.074 152.616 382.281C152.194 382.479 151.838 382.798 151.549 383.236C151.267 383.674 151.052 384.249 150.904 384.961C150.755 385.672 150.68 386.536 150.68 387.554V391.065C150.68 391.875 150.726 392.591 150.817 393.211C150.916 393.831 151.061 394.369 151.251 394.824C151.441 395.271 151.673 395.639 151.946 395.928C152.219 396.218 152.533 396.433 152.889 396.573C153.253 396.706 153.654 396.772 154.092 396.772C154.654 396.772 155.147 396.664 155.568 396.449C155.99 396.234 156.342 395.899 156.623 395.444C156.912 394.981 157.128 394.39 157.268 393.67C157.409 392.942 157.479 392.074 157.479 391.065ZM165.73 380.345V398.409H163.335V380.345H165.73ZM176.635 380.345L169.129 388.769L164.911 393.149L164.514 390.593L167.69 387.095L173.757 380.345H176.635ZM174.327 398.409L167.64 389.601L169.067 387.702L177.181 398.409H174.327Z" fill="#606060"/>
<path d="M145.829 291.883V293.173L138.348 309.947H135.929L143.397 293.768H133.621V291.883H145.829ZM151.35 301.349L149.514 300.877L150.42 291.883H159.687V294.004H152.368L151.822 298.917C152.152 298.727 152.57 298.549 153.075 298.384C153.588 298.218 154.175 298.136 154.836 298.136C155.672 298.136 156.42 298.28 157.082 298.57C157.744 298.851 158.306 299.256 158.769 299.786C159.241 300.315 159.601 300.952 159.849 301.696C160.097 302.441 160.221 303.272 160.221 304.19C160.221 305.059 160.101 305.857 159.861 306.585C159.63 307.312 159.278 307.949 158.807 308.495C158.335 309.033 157.74 309.451 157.02 309.748C156.309 310.046 155.469 310.195 154.501 310.195C153.774 310.195 153.083 310.096 152.43 309.897C151.784 309.69 151.205 309.38 150.693 308.967C150.188 308.545 149.775 308.024 149.452 307.403C149.138 306.775 148.939 306.039 148.856 305.195H151.04C151.139 305.873 151.338 306.444 151.636 306.907C151.933 307.37 152.322 307.722 152.802 307.962C153.29 308.193 153.856 308.309 154.501 308.309C155.047 308.309 155.531 308.214 155.953 308.024C156.375 307.834 156.731 307.561 157.02 307.205C157.31 306.849 157.529 306.419 157.678 305.915C157.835 305.41 157.913 304.843 157.913 304.215C157.913 303.644 157.835 303.115 157.678 302.627C157.52 302.139 157.285 301.713 156.97 301.349C156.664 300.985 156.288 300.704 155.841 300.505C155.395 300.299 154.882 300.195 154.303 300.195C153.534 300.195 152.951 300.299 152.554 300.505C152.165 300.712 151.764 300.993 151.35 301.349ZM165.73 291.883V309.947H163.335V291.883H165.73ZM176.635 291.883L169.129 300.307L164.911 304.686L164.514 302.131L167.69 298.632L173.757 291.883H176.635ZM174.327 309.947L167.64 301.138L169.067 299.24L177.181 309.947H174.327Z" fill="#606060"/>
<path d="M127.967 199.475V217.638H125.672V202.341L121.045 204.028V201.956L127.608 199.475H127.967ZM146.056 207.167V209.921C146.056 211.402 145.924 212.651 145.659 213.668C145.395 214.685 145.014 215.504 144.518 216.125C144.022 216.745 143.422 217.196 142.719 217.477C142.024 217.75 141.238 217.886 140.362 217.886C139.667 217.886 139.026 217.799 138.439 217.626C137.851 217.452 137.322 217.175 136.851 216.795C136.387 216.406 135.99 215.901 135.66 215.281C135.329 214.661 135.076 213.908 134.903 213.023C134.729 212.138 134.642 211.104 134.642 209.921V207.167C134.642 205.686 134.775 204.446 135.039 203.445C135.312 202.444 135.697 201.642 136.193 201.038C136.689 200.426 137.285 199.988 137.98 199.723C138.683 199.458 139.468 199.326 140.337 199.326C141.04 199.326 141.685 199.413 142.272 199.586C142.868 199.752 143.397 200.021 143.86 200.393C144.324 200.757 144.716 201.245 145.039 201.857C145.37 202.461 145.622 203.201 145.796 204.078C145.97 204.954 146.056 205.984 146.056 207.167ZM143.749 210.293V206.782C143.749 205.972 143.699 205.26 143.6 204.648C143.509 204.028 143.372 203.499 143.19 203.06C143.008 202.622 142.777 202.266 142.496 201.993C142.223 201.72 141.904 201.522 141.54 201.398C141.185 201.266 140.784 201.199 140.337 201.199C139.791 201.199 139.307 201.303 138.885 201.51C138.463 201.708 138.108 202.026 137.818 202.465C137.537 202.903 137.322 203.478 137.173 204.189C137.024 204.901 136.95 205.765 136.95 206.782V210.293C136.95 211.104 136.995 211.819 137.086 212.44C137.186 213.06 137.33 213.598 137.521 214.053C137.711 214.499 137.942 214.867 138.215 215.157C138.488 215.446 138.803 215.661 139.158 215.802C139.522 215.934 139.923 216.001 140.362 216.001C140.924 216.001 141.416 215.893 141.838 215.678C142.26 215.463 142.611 215.128 142.893 214.673C143.182 214.21 143.397 213.618 143.538 212.899C143.678 212.171 143.749 211.303 143.749 210.293ZM160.349 207.167V209.921C160.349 211.402 160.217 212.651 159.952 213.668C159.687 214.685 159.307 215.504 158.81 216.125C158.314 216.745 157.715 217.196 157.011 217.477C156.317 217.75 155.531 217.886 154.654 217.886C153.959 217.886 153.318 217.799 152.731 217.626C152.144 217.452 151.615 217.175 151.143 216.795C150.68 216.406 150.283 215.901 149.952 215.281C149.621 214.661 149.369 213.908 149.195 213.023C149.022 212.138 148.935 211.104 148.935 209.921V207.167C148.935 205.686 149.067 204.446 149.332 203.445C149.605 202.444 149.989 201.642 150.486 201.038C150.982 200.426 151.577 199.988 152.272 199.723C152.975 199.458 153.761 199.326 154.629 199.326C155.332 199.326 155.978 199.413 156.565 199.586C157.16 199.752 157.69 200.021 158.153 200.393C158.616 200.757 159.009 201.245 159.332 201.857C159.662 202.461 159.915 203.201 160.088 204.078C160.262 204.954 160.349 205.984 160.349 207.167ZM158.041 210.293V206.782C158.041 205.972 157.992 205.26 157.892 204.648C157.801 204.028 157.665 203.499 157.483 203.06C157.301 202.622 157.069 202.266 156.788 201.993C156.515 201.72 156.197 201.522 155.833 201.398C155.477 201.266 155.076 201.199 154.629 201.199C154.083 201.199 153.6 201.303 153.178 201.51C152.756 201.708 152.4 202.026 152.111 202.465C151.83 202.903 151.615 203.478 151.466 204.189C151.317 204.901 151.242 205.765 151.242 206.782V210.293C151.242 211.104 151.288 211.819 151.379 212.44C151.478 213.06 151.623 213.598 151.813 214.053C152.003 214.499 152.235 214.867 152.508 215.157C152.781 215.446 153.095 215.661 153.451 215.802C153.815 215.934 154.216 216.001 154.654 216.001C155.217 216.001 155.709 215.893 156.131 215.678C156.552 215.463 156.904 215.128 157.185 214.673C157.475 214.21 157.69 213.618 157.83 212.899C157.971 212.171 158.041 211.303 158.041 210.293ZM166.292 199.574V217.638H163.897V199.574H166.292ZM177.197 199.574L169.691 207.998L165.473 212.378L165.076 209.822L168.252 206.323L174.319 199.574H177.197ZM174.889 217.638L168.202 208.829L169.629 206.931L177.743 217.638H174.889Z" fill="#606060"/>
<path d="M500.064 643.59H508.725C510.501 643.59 512.027 643.856 513.304 644.388C514.59 644.92 515.579 645.707 516.27 646.749C516.962 647.791 517.307 649.072 517.307 650.593C517.307 651.837 517.095 652.906 516.669 653.799C516.255 654.682 515.664 655.421 514.899 656.017C514.144 656.601 513.256 657.069 512.235 657.42L510.719 658.218H503.19L503.158 654.485H508.757C509.597 654.485 510.294 654.336 510.847 654.039C511.4 653.741 511.815 653.326 512.091 652.794C512.378 652.263 512.522 651.646 512.522 650.944C512.522 650.2 512.384 649.556 512.107 649.014C511.831 648.472 511.411 648.057 510.847 647.77C510.283 647.483 509.576 647.339 508.725 647.339H504.849V666.816H500.064V643.59ZM513.048 666.816L507.752 656.463L512.809 656.431L518.169 666.592V666.816H513.048ZM528.649 667.135C527.309 667.135 526.107 666.922 525.044 666.497C523.98 666.061 523.076 665.46 522.332 664.694C521.598 663.928 521.035 663.04 520.641 662.03C520.248 661.009 520.051 659.925 520.051 658.776V658.138C520.051 656.83 520.237 655.634 520.609 654.549C520.981 653.464 521.513 652.523 522.204 651.726C522.906 650.928 523.757 650.317 524.757 649.891C525.756 649.455 526.884 649.237 528.138 649.237C529.361 649.237 530.446 649.439 531.392 649.843C532.339 650.247 533.131 650.822 533.769 651.566C534.418 652.31 534.907 653.204 535.237 654.246C535.566 655.277 535.731 656.426 535.731 657.691V659.606H522.013V656.543H531.217V656.192C531.217 655.554 531.1 654.985 530.866 654.485C530.643 653.975 530.302 653.571 529.845 653.273C529.388 652.975 528.803 652.826 528.091 652.826C527.484 652.826 526.963 652.959 526.527 653.225C526.091 653.491 525.735 653.863 525.459 654.342C525.193 654.82 524.991 655.384 524.852 656.032C524.725 656.671 524.661 657.372 524.661 658.138V658.776C524.661 659.467 524.757 660.105 524.948 660.69C525.15 661.275 525.432 661.78 525.794 662.206C526.166 662.631 526.612 662.961 527.133 663.195C527.665 663.429 528.266 663.546 528.936 663.546C529.765 663.546 530.536 663.386 531.249 663.067C531.972 662.737 532.594 662.243 533.115 661.584L535.348 664.008C534.987 664.529 534.492 665.029 533.865 665.508C533.248 665.986 532.504 666.38 531.632 666.688C530.76 666.986 529.765 667.135 528.649 667.135ZM549.274 649.556H553.437V666.241C553.437 667.815 553.086 669.15 552.385 670.245C551.693 671.351 550.726 672.186 549.481 672.75C548.237 673.324 546.791 673.611 545.143 673.611C544.419 673.611 543.654 673.515 542.846 673.324C542.048 673.132 541.282 672.835 540.549 672.431C539.825 672.026 539.219 671.516 538.73 670.899L540.756 668.187C541.288 668.804 541.904 669.283 542.606 669.623C543.308 669.974 544.084 670.15 544.935 670.15C545.765 670.15 546.467 669.995 547.041 669.687C547.615 669.389 548.056 668.948 548.365 668.363C548.673 667.789 548.827 667.092 548.827 666.273V653.544L549.274 649.556ZM537.661 658.393V658.058C537.661 656.74 537.821 655.543 538.14 654.469C538.47 653.385 538.932 652.454 539.528 651.678C540.134 650.901 540.868 650.301 541.729 649.875C542.59 649.45 543.563 649.237 544.648 649.237C545.797 649.237 546.759 649.45 547.535 649.875C548.312 650.301 548.95 650.907 549.449 651.694C549.949 652.47 550.337 653.39 550.614 654.453C550.901 655.506 551.124 656.66 551.284 657.915V658.649C551.124 659.85 550.885 660.967 550.566 661.998C550.247 663.03 549.827 663.934 549.306 664.71C548.785 665.476 548.136 666.071 547.36 666.497C546.594 666.922 545.68 667.135 544.616 667.135C543.553 667.135 542.59 666.917 541.729 666.481C540.878 666.045 540.15 665.433 539.544 664.646C538.937 663.859 538.47 662.934 538.14 661.871C537.821 660.807 537.661 659.648 537.661 658.393ZM542.255 658.058V658.393C542.255 659.106 542.325 659.77 542.463 660.387C542.601 661.004 542.814 661.552 543.101 662.03C543.399 662.498 543.765 662.865 544.201 663.131C544.648 663.386 545.175 663.514 545.781 663.514C546.621 663.514 547.307 663.338 547.838 662.987C548.37 662.626 548.769 662.131 549.035 661.504C549.301 660.876 549.455 660.153 549.497 659.334V657.245C549.476 656.575 549.386 655.974 549.226 655.442C549.067 654.9 548.843 654.437 548.556 654.055C548.269 653.672 547.897 653.374 547.44 653.161C546.982 652.949 546.44 652.842 545.813 652.842C545.206 652.842 544.68 652.98 544.233 653.257C543.797 653.523 543.43 653.89 543.133 654.358C542.846 654.826 542.628 655.378 542.479 656.017C542.33 656.644 542.255 657.325 542.255 658.058ZM561.86 649.556V666.816H557.25V649.556H561.86ZM556.963 645.058C556.963 644.388 557.197 643.835 557.664 643.399C558.132 642.963 558.76 642.745 559.547 642.745C560.323 642.745 560.945 642.963 561.413 643.399C561.892 643.835 562.131 644.388 562.131 645.058C562.131 645.728 561.892 646.281 561.413 646.717C560.945 647.153 560.323 647.371 559.547 647.371C558.76 647.371 558.132 647.153 557.664 646.717C557.197 646.281 556.963 645.728 556.963 645.058ZM564.922 658.361V658.026C564.922 656.761 565.103 655.596 565.465 654.533C565.826 653.459 566.353 652.528 567.044 651.742C567.735 650.955 568.586 650.343 569.596 649.907C570.606 649.461 571.766 649.237 573.074 649.237C574.382 649.237 575.546 649.461 576.567 649.907C577.588 650.343 578.444 650.955 579.135 651.742C579.837 652.528 580.369 653.459 580.73 654.533C581.092 655.596 581.273 656.761 581.273 658.026V658.361C581.273 659.616 581.092 660.781 580.73 661.855C580.369 662.918 579.837 663.849 579.135 664.646C578.444 665.433 577.593 666.045 576.583 666.481C575.573 666.917 574.414 667.135 573.105 667.135C571.797 667.135 570.633 666.917 569.612 666.481C568.602 666.045 567.746 665.433 567.044 664.646C566.353 663.849 565.826 662.918 565.465 661.855C565.103 660.781 564.922 659.616 564.922 658.361ZM569.516 658.026V658.361C569.516 659.085 569.58 659.76 569.708 660.387C569.835 661.015 570.037 661.568 570.314 662.046C570.601 662.514 570.973 662.881 571.431 663.147C571.888 663.413 572.446 663.546 573.105 663.546C573.744 663.546 574.291 663.413 574.748 663.147C575.206 662.881 575.573 662.514 575.849 662.046C576.126 661.568 576.328 661.015 576.455 660.387C576.594 659.76 576.663 659.085 576.663 658.361V658.026C576.663 657.325 576.594 656.665 576.455 656.048C576.328 655.421 576.12 654.868 575.833 654.39C575.557 653.9 575.19 653.517 574.733 653.241C574.275 652.965 573.722 652.826 573.074 652.826C572.425 652.826 571.872 652.965 571.415 653.241C570.968 653.517 570.601 653.9 570.314 654.39C570.037 654.868 569.835 655.421 569.708 656.048C569.58 656.665 569.516 657.325 569.516 658.026ZM588.594 653.241V666.816H584V649.556H588.307L588.594 653.241ZM587.924 657.58H586.68C586.68 656.304 586.845 655.155 587.175 654.134C587.504 653.103 587.967 652.225 588.562 651.502C589.158 650.769 589.865 650.21 590.684 649.827C591.513 649.434 592.439 649.237 593.46 649.237C594.268 649.237 595.007 649.354 595.677 649.588C596.347 649.822 596.921 650.194 597.4 650.705C597.889 651.215 598.261 651.89 598.516 652.731C598.782 653.571 598.915 654.597 598.915 655.809V666.816H594.289V655.793C594.289 655.028 594.183 654.432 593.97 654.007C593.757 653.581 593.444 653.284 593.029 653.113C592.625 652.933 592.125 652.842 591.529 652.842C590.913 652.842 590.376 652.965 589.918 653.209C589.472 653.454 589.099 653.794 588.802 654.23C588.515 654.655 588.297 655.155 588.148 655.729C587.999 656.304 587.924 656.92 587.924 657.58ZM611.724 662.924V655.235C611.724 654.682 611.634 654.209 611.453 653.815C611.272 653.411 610.99 653.097 610.607 652.874C610.235 652.651 609.751 652.539 609.156 652.539C608.645 652.539 608.204 652.63 607.832 652.81C607.46 652.98 607.172 653.23 606.97 653.56C606.768 653.879 606.667 654.257 606.667 654.693H602.073C602.073 653.959 602.243 653.262 602.584 652.603C602.924 651.944 603.419 651.364 604.067 650.864C604.716 650.354 605.487 649.955 606.38 649.668C607.284 649.381 608.294 649.237 609.411 649.237C610.751 649.237 611.942 649.461 612.984 649.907C614.026 650.354 614.845 651.024 615.441 651.917C616.047 652.81 616.35 653.927 616.35 655.267V662.652C616.35 663.599 616.408 664.375 616.525 664.981C616.642 665.577 616.812 666.098 617.036 666.544V666.816H612.394C612.171 666.348 612 665.763 611.883 665.061C611.777 664.349 611.724 663.636 611.724 662.924ZM612.33 656.304L612.362 658.904H609.794C609.188 658.904 608.661 658.973 608.215 659.111C607.768 659.249 607.401 659.446 607.114 659.701C606.827 659.946 606.614 660.233 606.476 660.563C606.348 660.892 606.284 661.254 606.284 661.647C606.284 662.041 606.375 662.397 606.556 662.716C606.736 663.025 606.997 663.269 607.337 663.45C607.678 663.62 608.076 663.705 608.534 663.705C609.225 663.705 609.826 663.567 610.336 663.29C610.847 663.014 611.24 662.674 611.517 662.27C611.804 661.865 611.953 661.483 611.963 661.121L613.176 663.067C613.005 663.503 612.771 663.955 612.474 664.423C612.187 664.891 611.82 665.332 611.373 665.747C610.926 666.151 610.389 666.486 609.762 666.752C609.134 667.007 608.39 667.135 607.529 667.135C606.433 667.135 605.439 666.917 604.546 666.481C603.663 666.034 602.961 665.423 602.44 664.646C601.93 663.859 601.675 662.966 601.675 661.966C601.675 661.063 601.845 660.26 602.185 659.558C602.525 658.856 603.025 658.266 603.684 657.787C604.354 657.298 605.189 656.931 606.189 656.687C607.188 656.431 608.348 656.304 609.666 656.304H612.33ZM624.74 649.556V666.816H620.13V649.556H624.74ZM619.843 645.058C619.843 644.388 620.077 643.835 620.545 643.399C621.013 642.963 621.64 642.745 622.427 642.745C623.204 642.745 623.826 642.963 624.294 643.399C624.772 643.835 625.011 644.388 625.011 645.058C625.011 645.728 624.772 646.281 624.294 646.717C623.826 647.153 623.204 647.371 622.427 647.371C621.64 647.371 621.013 647.153 620.545 646.717C620.077 646.281 619.843 645.728 619.843 645.058ZM637.868 662.046C637.868 661.717 637.773 661.419 637.581 661.153C637.39 660.887 637.034 660.642 636.512 660.419C636.002 660.185 635.263 659.973 634.295 659.781C633.423 659.59 632.61 659.35 631.855 659.063C631.11 658.766 630.462 658.409 629.909 657.995C629.366 657.58 628.941 657.091 628.632 656.527C628.324 655.953 628.17 655.299 628.17 654.565C628.17 653.842 628.324 653.161 628.632 652.523C628.951 651.885 629.403 651.322 629.988 650.832C630.584 650.333 631.307 649.944 632.158 649.668C633.019 649.381 633.987 649.237 635.061 649.237C636.56 649.237 637.847 649.476 638.921 649.955C640.006 650.434 640.835 651.093 641.41 651.933C641.994 652.762 642.287 653.709 642.287 654.772H637.693C637.693 654.326 637.597 653.927 637.406 653.576C637.225 653.214 636.938 652.933 636.544 652.731C636.162 652.518 635.662 652.412 635.045 652.412C634.534 652.412 634.093 652.502 633.721 652.683C633.349 652.853 633.062 653.087 632.86 653.385C632.668 653.672 632.572 653.991 632.572 654.342C632.572 654.608 632.626 654.847 632.732 655.059C632.849 655.262 633.035 655.448 633.29 655.618C633.545 655.788 633.875 655.947 634.279 656.096C634.694 656.235 635.204 656.362 635.811 656.479C637.055 656.734 638.166 657.069 639.144 657.484C640.123 657.888 640.899 658.441 641.473 659.143C642.048 659.834 642.335 660.743 642.335 661.871C642.335 662.636 642.165 663.338 641.824 663.976C641.484 664.614 640.995 665.173 640.357 665.651C639.719 666.119 638.953 666.486 638.06 666.752C637.177 667.007 636.183 667.135 635.077 667.135C633.471 667.135 632.11 666.848 630.993 666.273C629.887 665.699 629.047 664.971 628.473 664.088C627.909 663.195 627.628 662.28 627.628 661.344H631.982C632.004 661.972 632.163 662.477 632.461 662.86C632.769 663.243 633.157 663.519 633.625 663.689C634.104 663.859 634.62 663.944 635.173 663.944C635.768 663.944 636.263 663.865 636.656 663.705C637.049 663.535 637.347 663.312 637.549 663.035C637.762 662.748 637.868 662.418 637.868 662.046Z" fill="#606060"/>
<path d="M88.8558 401.473L70.4798 396.002V390.674L93.7051 398.762V402.271L88.8558 401.473ZM70.4798 406.514L88.8558 401.059L93.7051 400.229V403.77L70.4798 411.81V406.514ZM94.0241 381.55C94.0241 382.89 93.8114 384.091 93.386 385.155C92.95 386.218 92.3492 387.122 91.5835 387.867C90.8179 388.6 89.9299 389.164 88.9196 389.558C87.8988 389.951 86.8141 390.148 85.6656 390.148H85.0275C83.7195 390.148 82.5231 389.962 81.4384 389.589C80.3537 389.217 79.4126 388.686 78.615 387.994C77.8174 387.292 77.206 386.442 76.7806 385.442C76.3446 384.442 76.1266 383.315 76.1266 382.06C76.1266 380.837 76.3286 379.753 76.7327 378.806C77.1368 377.86 77.7111 377.068 78.4555 376.429C79.1999 375.781 80.0932 375.292 81.1353 374.962C82.1669 374.632 83.3154 374.467 84.5809 374.467H86.495V388.186H83.4323V378.982H83.0814C82.4434 378.982 81.8744 379.099 81.3746 379.333C80.8642 379.556 80.4601 379.896 80.1623 380.354C79.8645 380.811 79.7157 381.396 79.7157 382.108C79.7157 382.714 79.8486 383.235 80.1144 383.671C80.3803 384.107 80.7525 384.464 81.2311 384.74C81.7096 385.006 82.2732 385.208 82.9219 385.346C83.56 385.474 84.2618 385.538 85.0275 385.538H85.6656C86.3568 385.538 86.9948 385.442 87.5797 385.251C88.1646 385.049 88.6697 384.767 89.0951 384.405C89.5205 384.033 89.8501 383.586 90.0841 383.065C90.3181 382.534 90.435 381.933 90.435 381.263C90.435 380.433 90.2755 379.662 89.9565 378.95C89.6268 378.227 89.1323 377.605 88.473 377.083L90.8976 374.85C91.4187 375.212 91.9185 375.706 92.3971 376.334C92.8756 376.951 93.2691 377.695 93.5775 378.567C93.8752 379.439 94.0241 380.433 94.0241 381.55ZM80.1304 367.353H93.7051V371.947H76.4456V367.64L80.1304 367.353ZM84.4692 368.023V369.267C83.1931 369.267 82.0446 369.102 81.0237 368.773C79.9922 368.443 79.1148 367.981 78.3917 367.385C77.6579 366.789 77.0996 366.082 76.7168 365.263C76.3233 364.434 76.1266 363.509 76.1266 362.488C76.1266 361.68 76.2436 360.941 76.4775 360.271C76.7115 359.601 77.0837 359.026 77.5941 358.548C78.1046 358.059 78.7798 357.687 79.62 357.431C80.4601 357.165 81.4863 357.033 82.6986 357.033H93.7051L93.7051 361.658H82.6826C81.917 361.658 81.3214 361.765 80.8961 361.977C80.4707 362.19 80.1729 362.504 80.0028 362.919C79.822 363.323 79.7316 363.823 79.7316 364.418C79.7316 365.035 79.8539 365.572 80.0985 366.029C80.3431 366.476 80.6834 366.848 81.1194 367.146C81.5448 367.433 82.0446 367.651 82.6188 367.8C83.1931 367.949 83.8099 368.023 84.4692 368.023ZM89.9405 343.346H69.2037V338.72H93.7051V342.884L89.9405 343.346ZM85.2827 354.257H84.9477C83.6291 354.257 82.4327 354.108 81.3587 353.81C80.274 353.513 79.3435 353.077 78.5672 352.502C77.7909 351.928 77.19 351.221 76.7646 350.381C76.3393 349.541 76.1266 348.584 76.1266 347.51C76.1266 346.499 76.3393 345.617 76.7646 344.862C77.19 344.096 77.7962 343.447 78.5831 342.916C79.3594 342.373 80.2793 341.937 81.3427 341.607C82.3955 341.278 83.5493 341.039 84.8042 340.89H85.5379C86.7396 341.039 87.8562 341.278 88.8877 341.607C89.9193 341.937 90.8232 342.373 91.5995 342.916C92.3652 343.447 92.9607 344.096 93.386 344.862C93.8114 345.627 94.0241 346.521 94.0241 347.541C94.0241 348.615 93.8061 349.573 93.3701 350.413C92.9341 351.242 92.3226 351.944 91.5357 352.518C90.7487 353.082 89.8236 353.513 88.7601 353.81C87.6967 354.108 86.5376 354.257 85.2827 354.257ZM84.9477 349.663H85.2827C85.9952 349.663 86.6599 349.61 87.2766 349.503C87.8934 349.386 88.4411 349.2 88.9196 348.945C89.3876 348.679 89.7544 348.339 90.0203 347.924C90.2755 347.499 90.4031 346.983 90.4031 346.377C90.4031 345.59 90.2277 344.941 89.8767 344.431C89.5152 343.92 89.0207 343.532 88.3932 343.266C87.7658 342.99 87.0427 342.83 86.2239 342.788H84.1342C83.4643 342.82 82.8634 342.916 82.3317 343.075C81.7894 343.224 81.3268 343.447 80.9439 343.745C80.5611 344.032 80.2633 344.394 80.0506 344.83C79.838 345.255 79.7316 345.76 79.7316 346.345C79.7316 346.941 79.8699 347.451 80.1464 347.876C80.4122 348.302 80.7791 348.647 81.247 348.913C81.7149 349.168 82.2679 349.36 82.906 349.488C83.5334 349.604 84.214 349.663 84.9477 349.663ZM89.8129 325.816H82.1243C81.5713 325.816 81.0981 325.906 80.7047 326.087C80.3006 326.268 79.9868 326.549 79.7635 326.932C79.5402 327.304 79.4285 327.788 79.4285 328.384C79.4285 328.894 79.5189 329.336 79.6997 329.708C79.8699 330.08 80.1198 330.367 80.4494 330.569C80.7685 330.771 81.146 330.872 81.582 330.872V335.466C80.8482 335.466 80.1517 335.296 79.4923 334.956C78.833 334.615 78.2534 334.121 77.7536 333.472C77.2432 332.824 76.8444 332.053 76.5573 331.159C76.2702 330.255 76.1266 329.245 76.1266 328.129C76.1266 326.789 76.3499 325.598 76.7966 324.555C77.2432 323.513 77.9132 322.694 78.8064 322.099C79.6997 321.493 80.8163 321.19 82.1562 321.19H89.5418C90.4882 321.19 91.2645 321.131 91.8707 321.014C92.4662 320.897 92.9873 320.727 93.4339 320.504H93.7051V325.146C93.2372 325.369 92.6523 325.539 91.9504 325.656C91.2379 325.762 90.5254 325.816 89.8129 325.816ZM83.1931 325.209L85.7932 325.178V327.746C85.7932 328.352 85.8623 328.878 86.0005 329.325C86.1388 329.772 86.3355 330.138 86.5907 330.426C86.8353 330.713 87.1224 330.925 87.4521 331.064C87.7818 331.191 88.1433 331.255 88.5368 331.255C88.9303 331.255 89.2865 331.165 89.6056 330.984C89.914 330.803 90.1585 330.543 90.3393 330.202C90.5095 329.862 90.5945 329.463 90.5945 329.006C90.5945 328.315 90.4563 327.714 90.1798 327.203C89.9033 326.693 89.563 326.299 89.1589 326.023C88.7548 325.736 88.372 325.587 88.0104 325.576L89.9565 324.364C90.3925 324.534 90.8445 324.768 91.3124 325.066C91.7803 325.353 92.2216 325.72 92.6363 326.166C93.0404 326.613 93.3754 327.15 93.6413 327.778C93.8965 328.405 94.0241 329.149 94.0241 330.011C94.0241 331.106 93.8061 332.1 93.3701 332.994C92.9235 333.876 92.312 334.578 91.5357 335.099C90.7487 335.61 89.8555 335.865 88.8558 335.865C87.9519 335.865 87.149 335.695 86.4472 335.355C85.7453 335.014 85.1551 334.514 84.6766 333.855C84.1874 333.185 83.8205 332.35 83.5759 331.351C83.3207 330.351 83.1931 329.192 83.1931 327.873V325.209ZM88.9356 308.317C88.6059 308.317 88.3082 308.413 88.0423 308.604C87.7765 308.795 87.5319 309.152 87.3086 309.673C87.0746 310.183 86.8619 310.922 86.6705 311.89C86.4791 312.762 86.2398 313.575 85.9527 314.331C85.6549 315.075 85.2987 315.724 84.8839 316.277C84.4692 316.819 83.98 317.244 83.4164 317.553C82.8421 317.861 82.1881 318.015 81.4544 318.015C80.7312 318.015 80.0506 317.861 79.4126 317.553C78.7745 317.234 78.2109 316.782 77.7217 316.197C77.2219 315.601 76.8338 314.878 76.5573 314.027C76.2702 313.166 76.1266 312.198 76.1266 311.124C76.1266 309.625 76.3659 308.338 76.8444 307.264C77.3229 306.179 77.9823 305.35 78.8224 304.776C79.6519 304.191 80.5983 303.898 81.6617 303.898L81.6617 308.492C81.2151 308.492 80.8163 308.588 80.4654 308.779C80.1038 308.96 79.822 309.247 79.62 309.641C79.4073 310.024 79.3009 310.523 79.3009 311.14C79.3009 311.651 79.3913 312.092 79.5721 312.464C79.7422 312.836 79.9762 313.124 80.274 313.326C80.5611 313.517 80.8801 313.613 81.2311 313.613C81.4969 313.613 81.7362 313.56 81.9489 313.453C82.1509 313.336 82.337 313.15 82.5072 312.895C82.6773 312.64 82.8368 312.31 82.9857 311.906C83.124 311.491 83.2516 310.981 83.3685 310.375C83.6238 309.13 83.9587 308.019 84.3735 307.041C84.7776 306.062 85.3306 305.286 86.0324 304.712C86.7237 304.138 87.6329 303.85 88.7601 303.85C89.5258 303.85 90.2277 304.021 90.8657 304.361C91.5038 304.701 92.0621 305.19 92.5406 305.828C93.0085 306.466 93.3754 307.232 93.6413 308.125C93.8965 309.008 94.0241 310.002 94.0241 311.108C94.0241 312.714 93.737 314.075 93.1627 315.192C92.5885 316.298 91.86 317.138 90.9774 317.712C90.0841 318.276 89.1696 318.558 88.2337 318.558V314.203C88.8612 314.182 89.3663 314.022 89.7491 313.724C90.132 313.416 90.4084 313.028 90.5786 312.56C90.7487 312.081 90.8338 311.566 90.8338 311.013C90.8338 310.417 90.7541 309.923 90.5945 309.529C90.4244 309.136 90.2011 308.838 89.9246 308.636C89.6375 308.423 89.3078 308.317 88.9356 308.317Z" fill="#606060"/>
<path d="M84.5255 79.5659L76.0712 56.7908L73.8735 56.5072V53.76H83.2494V56.5072L80.9098 56.8794L86.2802 72.6005L86.7587 74.2842H86.865L87.3613 72.6182L92.8025 56.8617L90.1262 56.5072V53.76H99.2186V56.5072L96.9854 56.7908L88.8501 79.5659H84.5255ZM108.86 79.9381C107.052 79.9381 105.475 79.5364 104.128 78.7329C102.793 77.9176 101.753 76.7951 101.009 75.3654C100.276 73.9356 99.9098 72.2991 99.9098 70.4559V69.7115C99.9098 67.8446 100.27 66.1844 100.991 64.7311C101.724 63.2659 102.728 62.1198 104.004 61.2927C105.28 60.4537 106.733 60.0343 108.364 60.0343C110.101 60.0343 111.554 60.3828 112.724 61.08C113.906 61.7771 114.798 62.7696 115.4 64.0576C116.003 65.3337 116.304 66.8698 116.304 68.6658V71.218H104.536L104.5 71.3066C104.548 72.311 104.754 73.2031 105.121 73.9829C105.499 74.7628 106.03 75.3772 106.716 75.8262C107.413 76.2752 108.258 76.4997 109.25 76.4997C110.29 76.4997 111.235 76.3579 112.086 76.0743C112.937 75.7907 113.723 75.389 114.443 74.8691L115.844 77.6695C115.087 78.3075 114.124 78.8451 112.955 79.2823C111.785 79.7195 110.42 79.9381 108.86 79.9381ZM104.607 68.0809H112.033V67.6201C112.033 66.7811 111.903 66.0485 111.643 65.4223C111.395 64.7842 110.999 64.288 110.455 63.9335C109.924 63.579 109.244 63.4018 108.417 63.4018C107.696 63.4018 107.064 63.6027 106.521 64.0044C105.977 64.4061 105.54 64.9556 105.209 65.6527C104.89 66.338 104.672 67.1179 104.553 67.9923L104.607 68.0809ZM118.715 79.5659V76.8364L121.373 76.3047V63.6676L118.573 63.1359V60.3887H125.485L125.716 63.1714C126.354 62.1788 127.145 61.4108 128.091 60.8673C129.048 60.3119 130.129 60.0343 131.334 60.0343C133.307 60.0343 134.843 60.6428 135.942 61.8598C137.041 63.065 137.591 64.9556 137.591 67.5314V76.3047L140.249 76.8364V79.5659H130.625V76.8364L133.124 76.3047V67.5669C133.124 66.1135 132.835 65.0856 132.256 64.4829C131.677 63.8685 130.814 63.5613 129.668 63.5613C128.806 63.5613 128.049 63.7563 127.399 64.1462C126.761 64.5243 126.241 65.056 125.84 65.7413V76.3047L128.268 76.8364V79.5659H118.715ZM149.501 79.9381C147.953 79.9381 146.63 79.5482 145.531 78.7683C144.432 77.9885 143.587 76.9014 142.996 75.5072C142.417 74.1011 142.128 72.4646 142.128 70.5977V70.2255C142.128 68.1813 142.417 66.3971 142.996 64.8729C143.587 63.3486 144.432 62.1611 145.531 61.3104C146.642 60.4596 147.959 60.0343 149.483 60.0343C150.582 60.0343 151.539 60.2469 152.355 60.6723C153.182 61.0859 153.891 61.6826 154.481 62.4624V55.1957L151.663 54.6639V51.9168H154.481H158.948V76.3047L161.606 76.8364V79.5659H155.084L154.73 77.2441C154.127 78.1303 153.388 78.8038 152.514 79.2646C151.652 79.7136 150.647 79.9381 149.501 79.9381ZM150.759 76.4111C151.61 76.4111 152.343 76.2279 152.957 75.8616C153.572 75.4835 154.08 74.94 154.481 74.231V65.7768C154.092 65.0915 153.583 64.5538 152.957 64.1639C152.343 63.7622 151.622 63.5613 150.795 63.5613C149.826 63.5613 149.028 63.8449 148.402 64.412C147.788 64.9674 147.333 65.7472 147.037 66.7516C146.742 67.7441 146.594 68.9021 146.594 70.2255V70.5977C146.594 72.37 146.919 73.782 147.569 74.8337C148.231 75.8853 149.294 76.4111 150.759 76.4111ZM169.901 79.9381C167.952 79.9381 166.433 79.4359 165.346 78.4316C164.259 77.4272 163.716 76.0448 163.716 74.2842C163.716 73.079 164.046 72.0215 164.708 71.1117C165.37 70.2018 166.339 69.4929 167.615 68.9848C168.891 68.4649 170.439 68.2049 172.258 68.2049H175.183V66.5921C175.183 65.5759 174.876 64.7665 174.261 64.1639C173.659 63.5613 172.778 63.26 171.62 63.26C170.959 63.26 170.374 63.3427 169.866 63.5081C169.358 63.6617 168.903 63.8862 168.501 64.1816L168.093 66.7693H164.814L164.779 62.0371C165.724 61.4226 166.776 60.9382 167.934 60.5837C169.092 60.2174 170.38 60.0343 171.798 60.0343C174.232 60.0343 176.146 60.6073 177.54 61.7535C178.946 62.8878 179.649 64.5184 179.649 66.6452V75.0995C179.649 75.3595 179.649 75.6135 179.649 75.8616C179.661 76.1098 179.679 76.352 179.702 76.5883L181.652 76.8364V79.5659H175.821C175.703 79.1524 175.591 78.7506 175.484 78.3607C175.39 77.9708 175.319 77.5808 175.271 77.1909C174.633 77.9944 173.859 78.6561 172.95 79.176C172.052 79.6841 171.035 79.9381 169.901 79.9381ZM170.911 76.482C171.809 76.482 172.648 76.2752 173.428 75.8616C174.208 75.4363 174.793 74.9046 175.183 74.2665V71.0585H172.205C170.87 71.0585 169.86 71.3716 169.174 71.9978C168.501 72.6123 168.164 73.333 168.164 74.1602C168.164 74.9046 168.401 75.4776 168.873 75.8794C169.346 76.2811 170.025 76.482 170.911 76.482ZM191.879 79.9381C190.508 79.9381 189.226 79.8081 188.033 79.5482C186.851 79.2764 185.664 78.8806 184.47 78.3607L184.417 73.2917H187.625L188.299 76.0566C188.807 76.2811 189.326 76.4583 189.858 76.5883C190.402 76.7065 191.004 76.7656 191.666 76.7656C192.942 76.7656 193.84 76.5411 194.36 76.092C194.892 75.643 195.158 75.0877 195.158 74.426C195.158 73.788 194.88 73.2444 194.325 72.7954C193.781 72.3346 192.735 71.9388 191.187 71.6079C188.895 71.1117 187.206 70.3909 186.118 69.4456C185.043 68.4885 184.506 67.2479 184.506 65.7236C184.506 64.672 184.783 63.7208 185.339 62.8701C185.906 62.0193 186.733 61.3399 187.82 60.8318C188.919 60.3119 190.266 60.052 191.861 60.052C193.314 60.052 194.602 60.2056 195.725 60.5128C196.859 60.8082 197.822 61.204 198.614 61.7003L198.72 66.5744H195.548L194.998 64.0398C194.632 63.7799 194.206 63.579 193.722 63.4372C193.238 63.2954 192.682 63.2246 192.056 63.2246C191.075 63.2246 190.301 63.4431 189.734 63.8803C189.167 64.3057 188.883 64.8433 188.883 65.4932C188.883 65.8713 188.972 66.214 189.149 66.5212C189.338 66.8284 189.693 67.112 190.213 67.3719C190.744 67.6201 191.518 67.8623 192.534 68.0986C195.028 68.6776 196.812 69.4338 197.887 70.3673C198.962 71.3007 199.5 72.5355 199.5 74.0715C199.5 75.7848 198.874 77.1909 197.621 78.2898C196.369 79.3887 194.455 79.9381 191.879 79.9381ZM210.772 86.939V84.1918L213.36 83.6601V63.6676L210.542 63.1359V60.3887H217.366L217.649 62.6574C218.24 61.8185 218.961 61.1745 219.811 60.7255C220.662 60.2647 221.667 60.0343 222.825 60.0343C224.384 60.0343 225.719 60.4596 226.83 61.3104C227.941 62.1611 228.786 63.3486 229.365 64.8729C229.955 66.3971 230.251 68.1813 230.251 70.2255V70.5977C230.251 72.4646 229.955 74.1011 229.365 75.5072C228.774 76.9014 227.923 77.9885 226.812 78.7683C225.713 79.5482 224.384 79.9381 222.825 79.9381C221.726 79.9381 220.763 79.7491 219.936 79.371C219.108 78.981 218.399 78.4139 217.809 77.6695V83.6601L220.538 84.1918V86.939H210.772ZM221.477 76.4997C222.943 76.4997 224.024 75.9621 224.721 74.8868C225.43 73.7998 225.784 72.37 225.784 70.5977V70.2255C225.784 68.9021 225.625 67.7441 225.306 66.7516C224.999 65.7472 224.52 64.9674 223.87 64.412C223.232 63.8449 222.423 63.5613 221.442 63.5613C220.615 63.5613 219.894 63.7504 219.28 64.1285C218.677 64.4948 218.187 65.0147 217.809 65.6882V74.4792C218.187 75.1291 218.677 75.6312 219.28 75.9857C219.882 76.3284 220.615 76.4997 221.477 76.4997ZM242.09 79.9381C240.247 79.9381 238.664 79.5246 237.34 78.6975C236.017 77.8703 235.001 76.7242 234.292 75.259C233.583 73.782 233.228 72.0865 233.228 70.1723V69.8001C233.228 67.8977 233.583 66.214 234.292 64.7488C235.001 63.2836 236.017 62.1316 237.34 61.2927C238.664 60.4537 240.235 60.0343 242.055 60.0343C243.898 60.0343 245.481 60.4537 246.805 61.2927C248.128 62.1198 249.144 63.2659 249.853 64.7311C250.562 66.1962 250.917 67.8859 250.917 69.8001V70.1723C250.917 72.0865 250.562 73.782 249.853 75.259C249.144 76.7242 248.128 77.8703 246.805 78.6975C245.493 79.5246 243.922 79.9381 242.09 79.9381ZM242.09 76.4997C243.083 76.4997 243.898 76.2338 244.536 75.7021C245.186 75.1586 245.671 74.4142 245.99 73.4689C246.309 72.5118 246.468 71.413 246.468 70.1723V69.8001C246.468 68.5712 246.309 67.4842 245.99 66.5389C245.671 65.5936 245.186 64.8492 244.536 64.3057C243.886 63.7622 243.059 63.4904 242.055 63.4904C241.074 63.4904 240.259 63.7622 239.609 64.3057C238.959 64.8492 238.475 65.5936 238.156 66.5389C237.848 67.4842 237.695 68.5712 237.695 69.8001V70.1723C237.695 71.413 237.848 72.5118 238.156 73.4689C238.475 74.4142 238.959 75.1586 239.609 75.7021C240.271 76.2338 241.098 76.4997 242.09 76.4997ZM253.593 79.5659V76.8364L256.252 76.3047V63.6676L253.451 63.1359V60.3887H260.364L260.594 62.7992L260.629 63.1891C261.138 62.1729 261.758 61.3931 262.49 60.8496C263.235 60.306 264.103 60.0343 265.096 60.0343C265.427 60.0343 265.775 60.0638 266.142 60.1229C266.52 60.182 266.827 60.2469 267.063 60.3178L266.549 64.4475L264.05 64.3057C263.235 64.2584 262.561 64.418 262.03 64.7842C261.51 65.1505 261.073 65.6586 260.718 66.3085V76.3047L263.377 76.8364V79.5659H253.593ZM278.052 79.5659V76.8364L280.711 76.3047V63.6676L277.91 63.1359V60.3887H284.822L285.053 62.7992L285.088 63.1891C285.596 62.1729 286.217 61.3931 286.949 60.8496C287.694 60.306 288.562 60.0343 289.555 60.0343C289.886 60.0343 290.234 60.0638 290.6 60.1229C290.979 60.182 291.286 60.2469 291.522 60.3178L291.008 64.4475L288.509 64.3057C287.694 64.2584 287.02 64.418 286.488 64.7842C285.969 65.1505 285.531 65.6586 285.177 66.3085V76.3047L287.835 76.8364V79.5659H278.052ZM301.979 79.9381C300.171 79.9381 298.594 79.5364 297.247 78.7329C295.912 77.9176 294.872 76.7951 294.127 75.3654C293.395 73.9356 293.029 72.2991 293.029 70.4559V69.7115C293.029 67.8446 293.389 66.1844 294.11 64.7311C294.842 63.2659 295.847 62.1198 297.123 61.2927C298.399 60.4537 299.852 60.0343 301.483 60.0343C303.22 60.0343 304.673 60.3828 305.843 61.08C307.024 61.7771 307.917 62.7696 308.519 64.0576C309.122 65.3337 309.423 66.8698 309.423 68.6658V71.218H297.655L297.619 71.3066C297.666 72.311 297.873 73.2031 298.239 73.9829C298.617 74.7628 299.149 75.3772 299.835 75.8262C300.532 76.2752 301.377 76.4997 302.369 76.4997C303.409 76.4997 304.354 76.3579 305.205 76.0743C306.056 75.7907 306.841 75.389 307.562 74.8691L308.962 77.6695C308.206 78.3075 307.243 78.8451 306.073 79.2823C304.904 79.7195 303.539 79.9381 301.979 79.9381ZM297.725 68.0809H305.152V67.6201C305.152 66.7811 305.022 66.0485 304.762 65.4223C304.514 64.7842 304.118 64.288 303.574 63.9335C303.043 63.579 302.363 63.4018 301.536 63.4018C300.815 63.4018 300.183 63.6027 299.64 64.0044C299.096 64.4061 298.659 64.9556 298.328 65.6527C298.009 66.338 297.79 67.1179 297.672 67.9923L297.725 68.0809ZM320.678 87.3112C319.732 87.3112 318.681 87.1813 317.523 86.9213C316.377 86.6732 315.367 86.3246 314.492 85.8756L315.414 82.6144C316.17 82.9571 317.003 83.2347 317.913 83.4474C318.823 83.6601 319.685 83.7665 320.501 83.7665C321.966 83.7665 323.035 83.3588 323.709 82.5435C324.394 81.74 324.736 80.5998 324.736 79.1228V77.6163C324.146 78.3725 323.443 78.9515 322.627 79.3532C321.812 79.7432 320.879 79.9381 319.827 79.9381C318.267 79.9381 316.92 79.5482 315.786 78.7683C314.663 77.9885 313.801 76.8955 313.198 75.4894C312.607 74.0833 312.312 72.4528 312.312 70.5977V70.2255C312.312 68.1813 312.607 66.3971 313.198 64.8729C313.801 63.3486 314.658 62.1611 315.768 61.3104C316.891 60.4596 318.226 60.0343 319.774 60.0343C320.944 60.0343 321.96 60.2765 322.822 60.7609C323.685 61.2336 324.417 61.913 325.02 62.7992L325.357 60.3887H329.203V79.1405C329.203 80.8066 328.866 82.2481 328.193 83.4652C327.519 84.694 326.544 85.6393 325.268 86.301C323.992 86.9745 322.462 87.3112 320.678 87.3112ZM321.032 76.4111C321.895 76.4111 322.627 76.2279 323.23 75.8616C323.844 75.4953 324.347 74.9636 324.736 74.2665V65.7236C324.347 65.0501 323.844 64.5243 323.23 64.1462C322.616 63.7563 321.889 63.5613 321.05 63.5613C320.069 63.5613 319.26 63.8449 318.622 64.412C317.996 64.9674 317.529 65.7472 317.222 66.7516C316.926 67.7441 316.778 68.9021 316.778 70.2255V70.5977C316.778 72.37 317.115 73.782 317.789 74.8337C318.474 75.8853 319.555 76.4111 321.032 76.4111ZM328.6 63.7563L326.722 60.3887H331.507V63.1359L328.6 63.7563ZM333.049 79.5659V76.8364L335.708 76.3047V63.6676L332.889 63.1359V60.3887H340.174V76.3047L342.815 76.8364V79.5659H333.049ZM335.53 56.0464V51.9168H340.174V56.0464H335.53ZM353.786 79.9381C351.943 79.9381 350.359 79.5246 349.036 78.6975C347.712 77.8703 346.696 76.7242 345.987 75.259C345.278 73.782 344.924 72.0865 344.924 70.1723V69.8001C344.924 67.8977 345.278 66.214 345.987 64.7488C346.696 63.2836 347.712 62.1316 349.036 61.2927C350.359 60.4537 351.931 60.0343 353.75 60.0343C355.594 60.0343 357.177 60.4537 358.5 61.2927C359.824 62.1198 360.84 63.2659 361.549 64.7311C362.258 66.1962 362.612 67.8859 362.612 69.8001V70.1723C362.612 72.0865 362.258 73.782 361.549 75.259C360.84 76.7242 359.824 77.8703 358.5 78.6975C357.189 79.5246 355.617 79.9381 353.786 79.9381ZM353.786 76.4997C354.778 76.4997 355.594 76.2338 356.232 75.7021C356.882 75.1586 357.366 74.4142 357.685 73.4689C358.004 72.5118 358.164 71.413 358.164 70.1723V69.8001C358.164 68.5712 358.004 67.4842 357.685 66.5389C357.366 65.5936 356.882 64.8492 356.232 64.3057C355.582 63.7622 354.755 63.4904 353.75 63.4904C352.77 63.4904 351.954 63.7622 351.305 64.3057C350.655 64.8492 350.17 65.5936 349.851 66.5389C349.544 67.4842 349.39 68.5712 349.39 69.8001V70.1723C349.39 71.413 349.544 72.5118 349.851 73.4689C350.17 74.4142 350.655 75.1586 351.305 75.7021C351.966 76.2338 352.793 76.4997 353.786 76.4997ZM364.97 79.5659V76.8364L367.628 76.3047V63.6676L364.828 63.1359V60.3887H371.74L371.97 63.1714C372.609 62.1788 373.4 61.4108 374.345 60.8673C375.303 60.3119 376.384 60.0343 377.589 60.0343C379.562 60.0343 381.098 60.6428 382.197 61.8598C383.296 63.065 383.845 64.9556 383.845 67.5314V76.3047L386.504 76.8364V79.5659H376.88V76.8364L379.379 76.3047V67.5669C379.379 66.1135 379.09 65.0856 378.511 64.4829C377.932 63.8685 377.069 63.5613 375.923 63.5613C375.06 63.5613 374.304 63.7563 373.654 64.1462C373.016 64.5243 372.496 65.056 372.095 65.7413V76.3047L374.523 76.8364V79.5659H364.97ZM394.852 79.9381C392.902 79.9381 391.384 79.4359 390.297 78.4316C389.21 77.4272 388.666 76.0448 388.666 74.2842C388.666 73.079 388.997 72.0215 389.659 71.1117C390.321 70.2018 391.289 69.4929 392.566 68.9848C393.842 68.4649 395.39 68.2049 397.209 68.2049H400.134V66.5921C400.134 65.5759 399.826 64.7665 399.212 64.1639C398.609 63.5613 397.729 63.26 396.571 63.26C395.909 63.26 395.325 63.3427 394.817 63.5081C394.308 63.6617 393.854 63.8862 393.452 64.1816L393.044 66.7693H389.765L389.73 62.0371C390.675 61.4226 391.727 60.9382 392.885 60.5837C394.043 60.2174 395.331 60.0343 396.748 60.0343C399.182 60.0343 401.097 60.6073 402.491 61.7535C403.897 62.8878 404.6 64.5184 404.6 66.6452V75.0995C404.6 75.3595 404.6 75.6135 404.6 75.8616C404.612 76.1098 404.63 76.352 404.653 76.5883L406.603 76.8364V79.5659H400.772C400.654 79.1524 400.541 78.7506 400.435 78.3607C400.34 77.9708 400.27 77.5808 400.222 77.1909C399.584 77.9944 398.81 78.6561 397.9 79.176C397.002 79.6841 395.986 79.9381 394.852 79.9381ZM395.862 76.482C396.76 76.482 397.599 76.2752 398.379 75.8616C399.159 75.4363 399.744 74.9046 400.134 74.2665V71.0585H397.156C395.821 71.0585 394.811 71.3716 394.125 71.9978C393.452 72.6123 393.115 73.333 393.115 74.1602C393.115 74.9046 393.351 75.4776 393.824 75.8794C394.297 76.2811 394.976 76.482 395.862 76.482ZM408.552 79.5659V76.8364L411.229 76.3047V55.1957L408.393 54.6639V51.9168H415.677V76.3047L418.354 76.8364V79.5659H408.552Z" fill="#2C2C2C"/>
<line x1="208.74" y1="551.624" x2="192.406" y2="551.624" stroke="#CACACA" stroke-width="3.62984"/>
<line x1="208.74" y1="528.938" x2="192.406" y2="528.938" stroke="#CACACA" stroke-width="3.62984"/>
<line x1="208.74" y1="506.252" x2="192.406" y2="506.252" stroke="#CACACA" stroke-width="3.62984"/>
<line x1="208.74" y1="460.541" x2="192.406" y2="460.54" stroke="#CACACA" stroke-width="3.62984"/>
<line x1="208.74" y1="437.854" x2="192.406" y2="437.854" stroke="#CACACA" stroke-width="3.62984"/>
<line x1="208.74" y1="415.169" x2="192.406" y2="415.169" stroke="#CACACA" stroke-width="3.62984"/>
<line x1="208.74" y1="369.457" x2="192.406" y2="369.457" stroke="#CACACA" stroke-width="3.62984"/>
<line x1="208.74" y1="346.771" x2="192.406" y2="346.771" stroke="#CACACA" stroke-width="3.62984"/>
<line x1="208.74" y1="324.083" x2="192.406" y2="324.083" stroke="#CACACA" stroke-width="3.62984"/>
<line x1="208.74" y1="278.372" x2="192.406" y2="278.372" stroke="#CACACA" stroke-width="3.62984"/>
<line x1="208.74" y1="255.684" x2="192.406" y2="255.684" stroke="#CACACA" stroke-width="3.62984"/>
<line x1="208.74" y1="232.998" x2="192.406" y2="232.998" stroke="#CACACA" stroke-width="3.62984"/>
</svg>
