<svg width="1000" height="890" viewBox="0 0 1000 890" fill="none" xmlns="http://www.w3.org/2000/svg">
<rect x="2.69187" y="2.49851" width="994.576" height="885.681" stroke="#CACACA" stroke-width="3.62984"/>
<path d="M268.092 165.948L273.679 170.372L270.999 172.698L265.497 168.274L268.092 165.948ZM273.82 158.207V159.185C273.82 160.754 273.608 162.163 273.182 163.41C272.766 164.658 272.166 165.722 271.382 166.601C270.597 167.47 269.671 168.137 268.603 168.6C267.534 169.063 266.348 169.295 265.044 169.295C263.749 169.295 262.562 169.063 261.485 168.6C260.407 168.137 259.476 167.47 258.691 166.601C257.907 165.722 257.297 164.658 256.862 163.41C256.437 162.163 256.224 160.754 256.224 159.185V158.207C256.224 156.628 256.437 155.22 256.862 153.981C257.297 152.734 257.902 151.67 258.677 150.791C259.452 149.912 260.379 149.241 261.456 148.778C262.534 148.314 263.72 148.083 265.015 148.083C266.32 148.083 267.506 148.314 268.574 148.778C269.652 149.241 270.583 149.912 271.367 150.791C272.152 151.67 272.757 152.734 273.182 153.981C273.608 155.22 273.82 156.628 273.82 158.207ZM269.524 159.185V158.178C269.524 157.082 269.42 156.118 269.212 155.286C269.014 154.454 268.721 153.754 268.333 153.187C267.955 152.62 267.487 152.195 266.929 151.911C266.372 151.618 265.734 151.472 265.015 151.472C264.297 151.472 263.659 151.618 263.101 151.911C262.543 152.195 262.075 152.62 261.697 153.187C261.319 153.754 261.031 154.454 260.832 155.286C260.634 156.118 260.535 157.082 260.535 158.178V159.185C260.535 160.272 260.634 161.236 260.832 162.078C261.031 162.909 261.319 163.614 261.697 164.19C262.085 164.757 262.558 165.187 263.115 165.481C263.682 165.774 264.325 165.92 265.044 165.92C265.762 165.92 266.395 165.774 266.944 165.481C267.501 165.187 267.969 164.757 268.347 164.19C268.735 163.614 269.028 162.909 269.226 162.078C269.425 161.236 269.524 160.272 269.524 159.185ZM285.717 165.339V153.669H289.8V169.011H285.958L285.717 165.339ZM286.17 162.191L287.376 162.163C287.376 163.184 287.257 164.134 287.021 165.013C286.785 165.882 286.43 166.638 285.958 167.281C285.485 167.915 284.89 168.411 284.171 168.77C283.453 169.12 282.607 169.295 281.633 169.295C280.886 169.295 280.196 169.191 279.563 168.983C278.939 168.765 278.4 168.43 277.947 167.976C277.502 167.513 277.153 166.922 276.897 166.204C276.652 165.476 276.529 164.601 276.529 163.581V153.669H280.612V163.609C280.612 164.063 280.664 164.445 280.768 164.757C280.882 165.069 281.038 165.325 281.236 165.523C281.435 165.722 281.666 165.863 281.931 165.948C282.205 166.034 282.507 166.076 282.838 166.076C283.68 166.076 284.341 165.906 284.823 165.566C285.315 165.225 285.66 164.762 285.858 164.176C286.066 163.581 286.17 162.919 286.17 162.191ZM301.2 165.551V158.717C301.2 158.226 301.12 157.805 300.959 157.455C300.798 157.096 300.548 156.817 300.208 156.619C299.877 156.42 299.447 156.321 298.917 156.321C298.464 156.321 298.071 156.401 297.741 156.562C297.41 156.713 297.154 156.935 296.975 157.228C296.795 157.512 296.705 157.847 296.705 158.235H292.622C292.622 157.583 292.773 156.964 293.076 156.378C293.378 155.791 293.818 155.276 294.394 154.832C294.971 154.378 295.656 154.024 296.45 153.769C297.254 153.513 298.152 153.386 299.144 153.386C300.335 153.386 301.394 153.584 302.32 153.981C303.247 154.378 303.975 154.974 304.504 155.768C305.043 156.562 305.312 157.554 305.312 158.745V165.31C305.312 166.152 305.364 166.842 305.468 167.381C305.572 167.91 305.723 168.373 305.922 168.77V169.011H301.796C301.597 168.595 301.446 168.075 301.342 167.451C301.247 166.818 301.2 166.185 301.2 165.551ZM301.739 159.667L301.767 161.978H299.485C298.946 161.978 298.478 162.04 298.081 162.163C297.684 162.286 297.358 162.46 297.102 162.687C296.847 162.905 296.658 163.16 296.535 163.453C296.422 163.746 296.365 164.067 296.365 164.417C296.365 164.767 296.446 165.084 296.606 165.367C296.767 165.641 296.998 165.859 297.301 166.019C297.603 166.171 297.958 166.246 298.364 166.246C298.979 166.246 299.513 166.123 299.967 165.878C300.42 165.632 300.77 165.329 301.016 164.97C301.271 164.611 301.403 164.271 301.413 163.949L302.491 165.679C302.339 166.067 302.131 166.468 301.867 166.884C301.611 167.3 301.285 167.692 300.888 168.061C300.491 168.42 300.014 168.718 299.456 168.954C298.898 169.181 298.237 169.295 297.471 169.295C296.498 169.295 295.614 169.101 294.82 168.713C294.035 168.316 293.411 167.773 292.948 167.083C292.494 166.383 292.267 165.589 292.267 164.701C292.267 163.897 292.419 163.184 292.721 162.56C293.024 161.936 293.468 161.411 294.054 160.986C294.649 160.551 295.392 160.225 296.28 160.007C297.169 159.781 298.199 159.667 299.371 159.667H301.739ZM312.458 156.945V169.011H308.375V153.669H312.203L312.458 156.945ZM311.863 160.801H310.757C310.757 159.667 310.903 158.646 311.196 157.739C311.489 156.822 311.901 156.042 312.43 155.399C312.959 154.747 313.588 154.251 314.316 153.91C315.053 153.561 315.876 153.386 316.783 153.386C317.501 153.386 318.158 153.49 318.754 153.698C319.349 153.906 319.86 154.237 320.285 154.69C320.72 155.144 321.051 155.744 321.278 156.491C321.514 157.238 321.632 158.15 321.632 159.228V169.011H317.52V159.213C317.52 158.533 317.426 158.003 317.237 157.625C317.048 157.247 316.769 156.983 316.4 156.831C316.041 156.671 315.597 156.59 315.067 156.59C314.519 156.59 314.042 156.699 313.635 156.916C313.238 157.134 312.907 157.436 312.643 157.824C312.387 158.202 312.194 158.646 312.061 159.157C311.929 159.667 311.863 160.215 311.863 160.801ZM332.252 153.669V156.562H323.32V153.669H332.252ZM325.531 149.884H329.615V164.389C329.615 164.833 329.672 165.173 329.785 165.41C329.908 165.646 330.088 165.811 330.324 165.906C330.56 165.991 330.858 166.034 331.217 166.034C331.473 166.034 331.699 166.024 331.898 166.005C332.106 165.977 332.281 165.948 332.423 165.92L332.437 168.926C332.087 169.039 331.709 169.129 331.302 169.195C330.896 169.262 330.447 169.295 329.955 169.295C329.057 169.295 328.273 169.148 327.602 168.855C326.94 168.553 326.429 168.071 326.07 167.409C325.711 166.747 325.531 165.878 325.531 164.8V149.884ZM338.888 153.669V169.011H334.79V153.669H338.888ZM334.535 149.671C334.535 149.075 334.743 148.584 335.159 148.196C335.575 147.809 336.133 147.615 336.832 147.615C337.522 147.615 338.075 147.809 338.491 148.196C338.917 148.584 339.129 149.075 339.129 149.671C339.129 150.266 338.917 150.758 338.491 151.145C338.075 151.533 337.522 151.727 336.832 151.727C336.133 151.727 335.575 151.533 335.159 151.145C334.743 150.758 334.535 150.266 334.535 149.671ZM351.323 165.665V147.232H355.435V169.011H351.734L351.323 165.665ZM341.625 161.525V161.227C341.625 160.055 341.757 158.991 342.022 158.037C342.286 157.072 342.674 156.245 343.184 155.555C343.695 154.865 344.323 154.331 345.07 153.953C345.817 153.575 346.668 153.386 347.622 153.386C348.52 153.386 349.305 153.575 349.976 153.953C350.657 154.331 351.233 154.87 351.706 155.569C352.188 156.259 352.576 157.077 352.869 158.022C353.162 158.958 353.374 159.984 353.507 161.099V161.751C353.374 162.82 353.162 163.812 352.869 164.729C352.576 165.646 352.188 166.449 351.706 167.139C351.233 167.82 350.657 168.349 349.976 168.728C349.296 169.106 348.502 169.295 347.594 169.295C346.639 169.295 345.789 169.101 345.042 168.713C344.305 168.326 343.681 167.782 343.17 167.083C342.669 166.383 342.286 165.561 342.022 164.616C341.757 163.67 341.625 162.64 341.625 161.525ZM345.708 161.227V161.525C345.708 162.158 345.756 162.749 345.85 163.297C345.954 163.845 346.119 164.332 346.346 164.757C346.583 165.173 346.885 165.499 347.254 165.736C347.632 165.963 348.09 166.076 348.629 166.076C349.329 166.076 349.905 165.92 350.359 165.608C350.813 165.287 351.158 164.847 351.394 164.289C351.64 163.732 351.782 163.089 351.819 162.361V160.504C351.791 159.908 351.706 159.374 351.564 158.901C351.432 158.419 351.233 158.008 350.969 157.668C350.713 157.328 350.392 157.063 350.005 156.874C349.626 156.685 349.177 156.59 348.658 156.59C348.128 156.59 347.674 156.713 347.296 156.959C346.918 157.195 346.611 157.521 346.375 157.937C346.148 158.353 345.978 158.845 345.864 159.412C345.76 159.97 345.708 160.575 345.708 161.227ZM366.906 165.551V158.717C366.906 158.226 366.826 157.805 366.665 157.455C366.504 157.096 366.254 156.817 365.913 156.619C365.583 156.42 365.153 156.321 364.623 156.321C364.169 156.321 363.777 156.401 363.446 156.562C363.115 156.713 362.86 156.935 362.681 157.228C362.501 157.512 362.411 157.847 362.411 158.235H358.328C358.328 157.583 358.479 156.964 358.781 156.378C359.084 155.791 359.523 155.276 360.1 154.832C360.677 154.378 361.362 154.024 362.156 153.769C362.959 153.513 363.857 153.386 364.85 153.386C366.041 153.386 367.1 153.584 368.026 153.981C368.952 154.378 369.68 154.974 370.21 155.768C370.749 156.562 371.018 157.554 371.018 158.745V165.31C371.018 166.152 371.07 166.842 371.174 167.381C371.278 167.91 371.429 168.373 371.628 168.77V169.011H367.501C367.303 168.595 367.152 168.075 367.048 167.451C366.953 166.818 366.906 166.185 366.906 165.551ZM367.445 159.667L367.473 161.978H365.19C364.652 161.978 364.184 162.04 363.787 162.163C363.39 162.286 363.063 162.46 362.808 162.687C362.553 162.905 362.364 163.16 362.241 163.453C362.128 163.746 362.071 164.067 362.071 164.417C362.071 164.767 362.151 165.084 362.312 165.367C362.473 165.641 362.704 165.859 363.007 166.019C363.309 166.171 363.664 166.246 364.07 166.246C364.685 166.246 365.219 166.123 365.672 165.878C366.126 165.632 366.476 165.329 366.722 164.97C366.977 164.611 367.109 164.271 367.119 163.949L368.196 165.679C368.045 166.067 367.837 166.468 367.572 166.884C367.317 167.3 366.991 167.692 366.594 168.061C366.197 168.42 365.72 168.718 365.162 168.954C364.604 169.181 363.943 169.295 363.177 169.295C362.203 169.295 361.319 169.101 360.525 168.713C359.741 168.316 359.117 167.773 358.654 167.083C358.2 166.383 357.973 165.589 357.973 164.701C357.973 163.897 358.124 163.184 358.427 162.56C358.729 161.936 359.174 161.411 359.76 160.986C360.355 160.551 361.097 160.225 361.986 160.007C362.874 159.781 363.905 159.667 365.077 159.667H367.445ZM383.226 165.665V147.232H387.338V169.011H383.637L383.226 165.665ZM373.528 161.525V161.227C373.528 160.055 373.66 158.991 373.925 158.037C374.189 157.072 374.577 156.245 375.087 155.555C375.598 154.865 376.226 154.331 376.973 153.953C377.72 153.575 378.571 153.386 379.525 153.386C380.423 153.386 381.208 153.575 381.879 153.953C382.56 154.331 383.136 154.87 383.609 155.569C384.091 156.259 384.479 157.077 384.772 158.022C385.065 158.958 385.277 159.984 385.41 161.099V161.751C385.277 162.82 385.065 163.812 384.772 164.729C384.479 165.646 384.091 166.449 383.609 167.139C383.136 167.82 382.56 168.349 381.879 168.728C381.198 169.106 380.404 169.295 379.497 169.295C378.542 169.295 377.692 169.101 376.945 168.713C376.207 168.326 375.584 167.782 375.073 167.083C374.572 166.383 374.189 165.561 373.925 164.616C373.66 163.67 373.528 162.64 373.528 161.525ZM377.611 161.227V161.525C377.611 162.158 377.658 162.749 377.753 163.297C377.857 163.845 378.022 164.332 378.249 164.757C378.486 165.173 378.788 165.499 379.157 165.736C379.535 165.963 379.993 166.076 380.532 166.076C381.232 166.076 381.808 165.92 382.262 165.608C382.716 165.287 383.061 164.847 383.297 164.289C383.543 163.732 383.685 163.089 383.722 162.361V160.504C383.694 159.908 383.609 159.374 383.467 158.901C383.335 158.419 383.136 158.008 382.872 157.668C382.616 157.328 382.295 157.063 381.907 156.874C381.529 156.685 381.08 156.59 380.56 156.59C380.031 156.59 379.577 156.713 379.199 156.959C378.821 157.195 378.514 157.521 378.278 157.937C378.051 158.353 377.881 158.845 377.767 159.412C377.663 159.97 377.611 160.575 377.611 161.227ZM397.589 169.295C396.398 169.295 395.33 169.106 394.385 168.728C393.44 168.34 392.636 167.806 391.975 167.125C391.322 166.445 390.821 165.655 390.472 164.757C390.122 163.85 389.947 162.886 389.947 161.865V161.298C389.947 160.135 390.112 159.072 390.443 158.107C390.774 157.143 391.247 156.307 391.861 155.598C392.485 154.889 393.241 154.345 394.13 153.967C395.018 153.58 396.02 153.386 397.136 153.386C398.223 153.386 399.187 153.565 400.028 153.925C400.87 154.284 401.574 154.794 402.141 155.456C402.718 156.118 403.152 156.912 403.445 157.838C403.738 158.755 403.885 159.776 403.885 160.901V162.602H391.691V159.88H399.872V159.568C399.872 159.001 399.768 158.495 399.56 158.051C399.362 157.597 399.059 157.238 398.653 156.973C398.246 156.708 397.727 156.576 397.093 156.576C396.554 156.576 396.091 156.694 395.704 156.931C395.316 157.167 394.999 157.498 394.754 157.923C394.517 158.348 394.338 158.849 394.215 159.426C394.101 159.993 394.045 160.617 394.045 161.298V161.865C394.045 162.479 394.13 163.046 394.3 163.566C394.48 164.086 394.73 164.535 395.051 164.913C395.382 165.291 395.779 165.585 396.242 165.792C396.715 166 397.249 166.104 397.845 166.104C398.582 166.104 399.267 165.963 399.901 165.679C400.543 165.386 401.096 164.946 401.56 164.36L403.545 166.516C403.223 166.979 402.784 167.423 402.226 167.848C401.678 168.274 401.016 168.624 400.241 168.898C399.466 169.162 398.582 169.295 397.589 169.295ZM422.502 165.665V147.232H426.614V169.011H422.913L422.502 165.665ZM412.804 161.525V161.227C412.804 160.055 412.936 158.991 413.201 158.037C413.465 157.072 413.853 156.245 414.363 155.555C414.874 154.865 415.502 154.331 416.249 153.953C416.996 153.575 417.847 153.386 418.801 153.386C419.699 153.386 420.484 153.575 421.155 153.953C421.836 154.331 422.412 154.87 422.885 155.569C423.367 156.259 423.755 157.077 424.048 158.022C424.341 158.958 424.553 159.984 424.686 161.099V161.751C424.553 162.82 424.341 163.812 424.048 164.729C423.755 165.646 423.367 166.449 422.885 167.139C422.412 167.82 421.836 168.349 421.155 168.728C420.474 169.106 419.68 169.295 418.773 169.295C417.818 169.295 416.968 169.101 416.221 168.713C415.483 168.326 414.86 167.782 414.349 167.083C413.848 166.383 413.465 165.561 413.201 164.616C412.936 163.67 412.804 162.64 412.804 161.525ZM416.887 161.227V161.525C416.887 162.158 416.934 162.749 417.029 163.297C417.133 163.845 417.298 164.332 417.525 164.757C417.762 165.173 418.064 165.499 418.433 165.736C418.811 165.963 419.269 166.076 419.808 166.076C420.508 166.076 421.084 165.92 421.538 165.608C421.992 165.287 422.337 164.847 422.573 164.289C422.819 163.732 422.961 163.089 422.998 162.361V160.504C422.97 159.908 422.885 159.374 422.743 158.901C422.611 158.419 422.412 158.008 422.148 157.668C421.892 157.328 421.571 157.063 421.183 156.874C420.805 156.685 420.356 156.59 419.836 156.59C419.307 156.59 418.853 156.713 418.475 156.959C418.097 157.195 417.79 157.521 417.554 157.937C417.327 158.353 417.157 158.845 417.043 159.412C416.939 159.97 416.887 160.575 416.887 161.227ZM436.865 169.295C435.674 169.295 434.606 169.106 433.661 168.728C432.716 168.34 431.912 167.806 431.251 167.125C430.598 166.445 430.097 165.655 429.748 164.757C429.398 163.85 429.223 162.886 429.223 161.865V161.298C429.223 160.135 429.388 159.072 429.719 158.107C430.05 157.143 430.523 156.307 431.137 155.598C431.761 154.889 432.517 154.345 433.406 153.967C434.294 153.58 435.296 153.386 436.412 153.386C437.499 153.386 438.463 153.565 439.304 153.925C440.146 154.284 440.85 154.794 441.417 155.456C441.994 156.118 442.428 156.912 442.721 157.838C443.014 158.755 443.161 159.776 443.161 160.901V162.602H430.967V159.88H439.148V159.568C439.148 159.001 439.044 158.495 438.836 158.051C438.638 157.597 438.335 157.238 437.929 156.973C437.522 156.708 437.003 156.576 436.369 156.576C435.83 156.576 435.367 156.694 434.98 156.931C434.592 157.167 434.275 157.498 434.03 157.923C433.793 158.348 433.614 158.849 433.491 159.426C433.377 159.993 433.321 160.617 433.321 161.298V161.865C433.321 162.479 433.406 163.046 433.576 163.566C433.756 164.086 434.006 164.535 434.327 164.913C434.658 165.291 435.055 165.585 435.518 165.792C435.991 166 436.525 166.104 437.121 166.104C437.858 166.104 438.543 165.963 439.177 165.679C439.819 165.386 440.372 164.946 440.836 164.36L442.821 166.516C442.499 166.979 442.06 167.423 441.502 167.848C440.954 168.274 440.292 168.624 439.517 168.898C438.742 169.162 437.858 169.295 436.865 169.295ZM457.028 147.232V169.011H452.93V147.232H457.028ZM459.75 161.496V161.198C459.75 160.074 459.911 159.039 460.233 158.093C460.554 157.139 461.022 156.311 461.636 155.612C462.251 154.912 463.007 154.369 463.905 153.981C464.803 153.584 465.833 153.386 466.996 153.386C468.159 153.386 469.194 153.584 470.101 153.981C471.009 154.369 471.77 154.912 472.384 155.612C473.008 156.311 473.481 157.139 473.802 158.093C474.123 159.039 474.284 160.074 474.284 161.198V161.496C474.284 162.612 474.123 163.647 473.802 164.601C473.481 165.547 473.008 166.374 472.384 167.083C471.77 167.782 471.013 168.326 470.115 168.713C469.217 169.101 468.187 169.295 467.024 169.295C465.862 169.295 464.827 169.101 463.919 168.713C463.021 168.326 462.26 167.782 461.636 167.083C461.022 166.374 460.554 165.547 460.233 164.601C459.911 163.647 459.75 162.612 459.75 161.496ZM463.834 161.198V161.496C463.834 162.139 463.891 162.739 464.004 163.297C464.118 163.855 464.297 164.346 464.543 164.772C464.798 165.187 465.129 165.514 465.536 165.75C465.942 165.986 466.438 166.104 467.024 166.104C467.591 166.104 468.078 165.986 468.485 165.75C468.891 165.514 469.217 165.187 469.463 164.772C469.709 164.346 469.888 163.855 470.002 163.297C470.125 162.739 470.186 162.139 470.186 161.496V161.198C470.186 160.575 470.125 159.989 470.002 159.44C469.888 158.883 469.704 158.391 469.449 157.966C469.203 157.531 468.877 157.19 468.471 156.945C468.064 156.699 467.573 156.576 466.996 156.576C466.419 156.576 465.928 156.699 465.521 156.945C465.124 157.19 464.798 157.531 464.543 157.966C464.297 158.391 464.118 158.883 464.004 159.44C463.891 159.989 463.834 160.575 463.834 161.198ZM477.021 153.669H481.118V169.933C481.118 171.067 480.91 172.027 480.494 172.811C480.078 173.596 479.478 174.191 478.694 174.598C477.909 175.004 476.959 175.207 475.844 175.207C475.494 175.207 475.154 175.188 474.823 175.151C474.482 175.113 474.133 175.051 473.774 174.966L473.788 171.833C474.015 171.871 474.237 171.899 474.454 171.918C474.662 171.946 474.875 171.96 475.092 171.96C475.518 171.96 475.872 171.889 476.156 171.748C476.439 171.606 476.652 171.384 476.794 171.081C476.945 170.788 477.021 170.405 477.021 169.933V153.669ZM476.694 149.671C476.694 149.075 476.902 148.584 477.318 148.196C477.744 147.809 478.301 147.615 478.991 147.615C479.691 147.615 480.249 147.809 480.665 148.196C481.08 148.584 481.288 149.075 481.288 149.671C481.288 150.266 481.08 150.758 480.665 151.145C480.249 151.533 479.691 151.727 478.991 151.727C478.301 151.727 477.744 151.533 477.318 151.145C476.902 150.758 476.694 150.266 476.694 149.671ZM492.646 165.551V158.717C492.646 158.226 492.566 157.805 492.405 157.455C492.244 157.096 491.994 156.817 491.653 156.619C491.322 156.42 490.892 156.321 490.363 156.321C489.909 156.321 489.517 156.401 489.186 156.562C488.855 156.713 488.6 156.935 488.421 157.228C488.241 157.512 488.151 157.847 488.151 158.235H484.068C484.068 157.583 484.219 156.964 484.521 156.378C484.824 155.791 485.263 155.276 485.84 154.832C486.417 154.378 487.102 154.024 487.896 153.769C488.699 153.513 489.597 153.386 490.59 153.386C491.781 153.386 492.84 153.584 493.766 153.981C494.692 154.378 495.42 154.974 495.95 155.768C496.488 156.562 496.758 157.554 496.758 158.745V165.31C496.758 166.152 496.81 166.842 496.914 167.381C497.018 167.91 497.169 168.373 497.368 168.77V169.011H493.241C493.043 168.595 492.892 168.075 492.788 167.451C492.693 166.818 492.646 166.185 492.646 165.551ZM493.185 159.667L493.213 161.978H490.93C490.391 161.978 489.923 162.04 489.526 162.163C489.129 162.286 488.803 162.46 488.548 162.687C488.293 162.905 488.104 163.16 487.981 163.453C487.868 163.746 487.811 164.067 487.811 164.417C487.811 164.767 487.891 165.084 488.052 165.367C488.213 165.641 488.444 165.859 488.747 166.019C489.049 166.171 489.404 166.246 489.81 166.246C490.424 166.246 490.959 166.123 491.412 165.878C491.866 165.632 492.216 165.329 492.462 164.97C492.717 164.611 492.849 164.271 492.859 163.949L493.936 165.679C493.785 166.067 493.577 166.468 493.312 166.884C493.057 167.3 492.731 167.692 492.334 168.061C491.937 168.42 491.46 168.718 490.902 168.954C490.344 169.181 489.682 169.295 488.917 169.295C487.943 169.295 487.059 169.101 486.265 168.713C485.481 168.316 484.857 167.773 484.394 167.083C483.94 166.383 483.713 165.589 483.713 164.701C483.713 163.897 483.864 163.184 484.167 162.56C484.469 161.936 484.914 161.411 485.5 160.986C486.095 160.551 486.837 160.225 487.726 160.007C488.614 159.781 489.645 159.667 490.817 159.667H493.185ZM508.2 164.772C508.2 164.479 508.115 164.214 507.945 163.978C507.775 163.741 507.458 163.524 506.995 163.325C506.541 163.117 505.884 162.928 505.024 162.758C504.249 162.588 503.526 162.375 502.855 162.12C502.193 161.855 501.616 161.539 501.125 161.17C500.643 160.801 500.265 160.367 499.991 159.866C499.717 159.355 499.579 158.774 499.579 158.122C499.579 157.479 499.717 156.874 499.991 156.307C500.274 155.74 500.676 155.239 501.196 154.804C501.725 154.359 502.368 154.014 503.124 153.769C503.89 153.513 504.75 153.386 505.705 153.386C507.038 153.386 508.181 153.598 509.136 154.024C510.1 154.449 510.838 155.035 511.348 155.782C511.868 156.519 512.128 157.361 512.128 158.306H508.044C508.044 157.909 507.959 157.554 507.789 157.242C507.628 156.921 507.373 156.671 507.023 156.491C506.683 156.302 506.239 156.207 505.691 156.207C505.237 156.207 504.845 156.288 504.514 156.448C504.183 156.6 503.928 156.808 503.748 157.072C503.578 157.328 503.493 157.611 503.493 157.923C503.493 158.159 503.54 158.372 503.635 158.561C503.739 158.741 503.904 158.906 504.131 159.057C504.358 159.209 504.651 159.35 505.01 159.483C505.379 159.606 505.832 159.719 506.371 159.823C507.477 160.05 508.465 160.348 509.335 160.716C510.204 161.076 510.894 161.567 511.405 162.191C511.915 162.805 512.17 163.614 512.17 164.616C512.17 165.296 512.019 165.92 511.717 166.487C511.414 167.054 510.979 167.551 510.412 167.976C509.845 168.392 509.164 168.718 508.37 168.954C507.586 169.181 506.702 169.295 505.719 169.295C504.292 169.295 503.082 169.039 502.089 168.529C501.106 168.019 500.359 167.371 499.849 166.586C499.348 165.792 499.097 164.98 499.097 164.148H502.968C502.987 164.705 503.129 165.154 503.394 165.495C503.668 165.835 504.013 166.081 504.429 166.232C504.854 166.383 505.313 166.459 505.804 166.459C506.333 166.459 506.773 166.388 507.123 166.246C507.472 166.095 507.737 165.896 507.917 165.651C508.106 165.395 508.2 165.102 508.2 164.772Z" fill="#606060"/>
<line x1="250.041" y1="310.875" x2="250.041" y2="745.803" stroke="#CACACA" stroke-width="3.62984"/>
<line x1="415" y1="310.875" x2="415" y2="745.803" stroke="#CACACA" stroke-width="3.62984"/>
<line x1="579.959" y1="310.875" x2="579.959" y2="745.803" stroke="#606060" stroke-width="3.62984"/>
<line x1="744.922" y1="310.875" x2="744.922" y2="745.803" stroke="#CACACA" stroke-width="3.62984"/>
<line x1="909.883" y1="310.875" x2="909.883" y2="745.803" stroke="#CACACA" stroke-width="3.62984"/>
<path d="M117.376 352.108H123.356C124.713 352.108 125.858 352.314 126.793 352.728C127.736 353.142 128.451 353.754 128.939 354.564C129.435 355.367 129.684 356.355 129.684 357.529C129.684 358.357 129.514 359.113 129.175 359.8C128.844 360.478 128.364 361.057 127.736 361.537C127.115 362.008 126.371 362.36 125.503 362.591L124.833 362.852H119.212L119.188 360.904H123.431C124.291 360.904 125.006 360.755 125.577 360.457C126.148 360.151 126.578 359.742 126.867 359.229C127.157 358.716 127.301 358.15 127.301 357.529C127.301 356.835 127.165 356.227 126.892 355.706C126.619 355.185 126.189 354.783 125.602 354.502C125.023 354.213 124.274 354.068 123.356 354.068H119.771V370.172H117.376V352.108ZM127.934 370.172L123.542 361.983L126.036 361.971L130.49 370.023V370.172H127.934ZM138.257 370.42C137.322 370.42 136.474 370.263 135.713 369.948C134.961 369.626 134.311 369.175 133.765 368.596C133.228 368.017 132.814 367.331 132.525 366.537C132.235 365.743 132.09 364.874 132.09 363.931V363.41C132.09 362.318 132.252 361.347 132.574 360.495C132.897 359.634 133.335 358.907 133.889 358.311C134.444 357.716 135.072 357.265 135.775 356.959C136.478 356.653 137.206 356.5 137.959 356.5C138.918 356.5 139.745 356.665 140.44 356.996C141.143 357.327 141.718 357.79 142.165 358.385C142.611 358.973 142.942 359.667 143.157 360.47C143.372 361.264 143.48 362.132 143.48 363.075V364.105H133.455V362.232H141.185V362.058C141.151 361.462 141.027 360.883 140.812 360.321C140.606 359.758 140.275 359.295 139.82 358.931C139.365 358.567 138.745 358.385 137.959 358.385C137.438 358.385 136.958 358.497 136.52 358.72C136.081 358.936 135.705 359.258 135.391 359.688C135.076 360.118 134.832 360.643 134.659 361.264C134.485 361.884 134.398 362.6 134.398 363.41V363.931C134.398 364.568 134.485 365.168 134.659 365.73C134.841 366.284 135.101 366.772 135.44 367.194C135.788 367.616 136.205 367.947 136.693 368.187C137.19 368.427 137.752 368.547 138.381 368.547C139.191 368.547 139.878 368.381 140.44 368.05C141.003 367.719 141.495 367.277 141.917 366.723L143.306 367.827C143.017 368.265 142.649 368.683 142.202 369.08C141.755 369.477 141.205 369.8 140.552 370.048C139.907 370.296 139.142 370.42 138.257 370.42ZM154.857 356.748H156.941V369.886C156.941 371.069 156.701 372.078 156.221 372.914C155.742 373.749 155.072 374.382 154.212 374.812C153.36 375.25 152.375 375.469 151.259 375.469C150.796 375.469 150.25 375.395 149.621 375.246C149.001 375.106 148.389 374.862 147.785 374.514C147.189 374.175 146.689 373.716 146.284 373.137L147.487 371.772C148.05 372.451 148.637 372.922 149.249 373.187C149.869 373.451 150.481 373.584 151.085 373.584C151.813 373.584 152.442 373.447 152.971 373.174C153.5 372.901 153.91 372.496 154.199 371.958C154.497 371.429 154.646 370.776 154.646 369.998V359.701L154.857 356.748ZM145.614 363.609V363.348C145.614 362.323 145.734 361.392 145.974 360.557C146.222 359.713 146.573 358.989 147.028 358.385C147.491 357.782 148.05 357.318 148.703 356.996C149.356 356.665 150.093 356.5 150.911 356.5C151.755 356.5 152.491 356.649 153.12 356.946C153.757 357.236 154.294 357.662 154.733 358.224C155.179 358.778 155.531 359.448 155.787 360.234C156.044 361.02 156.221 361.909 156.321 362.902V364.043C156.23 365.027 156.052 365.912 155.787 366.698C155.531 367.484 155.179 368.154 154.733 368.708C154.294 369.262 153.757 369.688 153.12 369.986C152.483 370.275 151.738 370.42 150.887 370.42C150.084 370.42 149.356 370.25 148.703 369.911C148.058 369.572 147.504 369.097 147.04 368.485C146.577 367.872 146.222 367.153 145.974 366.326C145.734 365.49 145.614 364.585 145.614 363.609ZM147.909 363.348V363.609C147.909 364.279 147.975 364.907 148.107 365.494C148.248 366.082 148.459 366.599 148.74 367.045C149.03 367.492 149.398 367.843 149.844 368.1C150.291 368.348 150.825 368.472 151.445 368.472C152.206 368.472 152.834 368.311 153.331 367.988C153.827 367.666 154.22 367.24 154.509 366.71C154.807 366.181 155.039 365.606 155.204 364.986V361.996C155.113 361.541 154.972 361.103 154.782 360.681C154.6 360.251 154.36 359.87 154.063 359.539C153.773 359.2 153.413 358.931 152.983 358.733C152.553 358.534 152.049 358.435 151.47 358.435C150.841 358.435 150.299 358.567 149.844 358.832C149.398 359.089 149.03 359.444 148.74 359.899C148.459 360.346 148.248 360.867 148.107 361.462C147.975 362.05 147.909 362.678 147.909 363.348ZM162.921 356.748V370.172H160.613V356.748H162.921ZM160.44 353.187C160.44 352.815 160.551 352.501 160.775 352.244C161.006 351.988 161.345 351.86 161.792 351.86C162.23 351.86 162.565 351.988 162.797 352.244C163.037 352.501 163.157 352.815 163.157 353.187C163.157 353.543 163.037 353.849 162.797 354.105C162.565 354.353 162.23 354.477 161.792 354.477C161.345 354.477 161.006 354.353 160.775 354.105C160.551 353.849 160.44 353.543 160.44 353.187ZM165.998 363.609V363.323C165.998 362.356 166.139 361.458 166.42 360.631C166.701 359.796 167.106 359.072 167.636 358.46C168.165 357.84 168.806 357.36 169.559 357.021C170.311 356.673 171.155 356.5 172.09 356.5C173.032 356.5 173.88 356.673 174.633 357.021C175.394 357.36 176.039 357.84 176.568 358.46C177.106 359.072 177.515 359.796 177.797 360.631C178.078 361.458 178.218 362.356 178.218 363.323V363.609C178.218 364.576 178.078 365.474 177.797 366.301C177.515 367.128 177.106 367.852 176.568 368.472C176.039 369.084 175.398 369.564 174.645 369.911C173.901 370.25 173.057 370.42 172.114 370.42C171.171 370.42 170.324 370.25 169.571 369.911C168.818 369.564 168.173 369.084 167.636 368.472C167.106 367.852 166.701 367.128 166.42 366.301C166.139 365.474 165.998 364.576 165.998 363.609ZM168.293 363.323V363.609C168.293 364.279 168.372 364.911 168.529 365.507C168.686 366.094 168.922 366.615 169.236 367.07C169.559 367.525 169.96 367.885 170.439 368.15C170.919 368.406 171.478 368.534 172.114 368.534C172.743 368.534 173.293 368.406 173.764 368.15C174.244 367.885 174.641 367.525 174.956 367.07C175.27 366.615 175.506 366.094 175.663 365.507C175.828 364.911 175.911 364.279 175.911 363.609V363.323C175.911 362.662 175.828 362.037 175.663 361.45C175.506 360.854 175.266 360.329 174.943 359.874C174.629 359.411 174.232 359.047 173.752 358.782C173.281 358.518 172.726 358.385 172.09 358.385C171.461 358.385 170.907 358.518 170.427 358.782C169.956 359.047 169.559 359.411 169.236 359.874C168.922 360.329 168.686 360.854 168.529 361.45C168.372 362.037 168.293 362.662 168.293 363.323ZM183.392 359.614V370.172H181.097V356.748H183.268L183.392 359.614ZM182.846 362.951L181.891 362.914C181.899 361.996 182.036 361.148 182.3 360.371C182.565 359.585 182.937 358.902 183.417 358.323C183.897 357.744 184.467 357.298 185.129 356.984C185.799 356.661 186.539 356.5 187.35 356.5C188.011 356.5 188.607 356.591 189.136 356.773C189.666 356.946 190.116 357.228 190.489 357.616C190.869 358.005 191.159 358.51 191.357 359.13C191.556 359.742 191.655 360.49 191.655 361.375V370.172H189.347V361.351C189.347 360.648 189.244 360.085 189.037 359.663C188.83 359.233 188.528 358.923 188.131 358.733C187.734 358.534 187.246 358.435 186.667 358.435C186.097 358.435 185.576 358.555 185.104 358.795C184.641 359.035 184.24 359.366 183.901 359.787C183.57 360.209 183.309 360.693 183.119 361.239C182.937 361.777 182.846 362.347 182.846 362.951ZM203.057 367.877V360.966C203.057 360.437 202.949 359.978 202.734 359.589C202.527 359.192 202.213 358.886 201.791 358.671C201.369 358.456 200.848 358.348 200.228 358.348C199.649 358.348 199.14 358.448 198.702 358.646C198.272 358.845 197.933 359.105 197.685 359.428C197.445 359.75 197.325 360.098 197.325 360.47H195.03C195.03 359.99 195.154 359.514 195.402 359.043C195.65 358.572 196.006 358.146 196.469 357.765C196.94 357.376 197.503 357.07 198.156 356.847C198.818 356.615 199.554 356.5 200.364 356.5C201.34 356.5 202.201 356.665 202.945 356.996C203.698 357.327 204.285 357.827 204.707 358.497C205.137 359.159 205.352 359.99 205.352 360.991V367.244C205.352 367.69 205.389 368.166 205.464 368.671C205.546 369.175 205.666 369.609 205.823 369.973V370.172H203.429C203.313 369.907 203.222 369.556 203.156 369.117C203.09 368.671 203.057 368.257 203.057 367.877ZM203.454 362.033L203.478 363.646H201.158C200.505 363.646 199.922 363.7 199.409 363.807C198.896 363.906 198.466 364.059 198.119 364.266C197.771 364.473 197.507 364.734 197.325 365.048C197.143 365.354 197.052 365.714 197.052 366.127C197.052 366.549 197.147 366.934 197.337 367.281C197.527 367.628 197.813 367.906 198.193 368.112C198.582 368.311 199.058 368.41 199.62 368.41C200.323 368.41 200.943 368.261 201.481 367.963C202.019 367.666 202.445 367.302 202.759 366.872C203.081 366.442 203.255 366.024 203.28 365.619L204.26 366.723C204.202 367.07 204.045 367.455 203.789 367.877C203.532 368.298 203.189 368.704 202.759 369.092C202.337 369.473 201.833 369.791 201.245 370.048C200.666 370.296 200.013 370.42 199.285 370.42C198.375 370.42 197.577 370.242 196.891 369.886C196.212 369.531 195.683 369.055 195.302 368.46C194.93 367.856 194.744 367.182 194.744 366.437C194.744 365.718 194.885 365.085 195.166 364.539C195.447 363.985 195.852 363.526 196.382 363.162C196.911 362.79 197.548 362.509 198.292 362.318C199.037 362.128 199.868 362.033 200.786 362.033H203.454ZM211.456 351.115V370.172H209.148V351.115H211.456ZM224.359 352.108V370.172H221.964V352.108H224.359Z" fill="#606060"/>
<path d="M112.062 500.602H118.042C119.399 500.602 120.544 500.809 121.479 501.222C122.422 501.636 123.137 502.248 123.625 503.059C124.121 503.861 124.37 504.849 124.37 506.024C124.37 506.851 124.2 507.608 123.861 508.294C123.53 508.972 123.05 509.551 122.422 510.031C121.801 510.503 121.057 510.854 120.189 511.086L119.519 511.346H113.898L113.874 509.398H118.117C118.977 509.398 119.692 509.249 120.263 508.952C120.834 508.646 121.264 508.236 121.553 507.723C121.843 507.211 121.987 506.644 121.987 506.024C121.987 505.329 121.851 504.721 121.578 504.2C121.305 503.679 120.875 503.278 120.288 502.997C119.709 502.707 118.96 502.562 118.042 502.562H114.457V518.666H112.062V500.602ZM122.62 518.666L118.228 510.478L120.722 510.465L125.176 518.517V518.666H122.62ZM132.943 518.914C132.008 518.914 131.16 518.757 130.399 518.443C129.647 518.12 128.997 517.669 128.451 517.09C127.914 516.512 127.5 515.825 127.211 515.031C126.921 514.237 126.776 513.368 126.776 512.426V511.904C126.776 510.813 126.938 509.841 127.26 508.989C127.583 508.129 128.021 507.401 128.575 506.805C129.13 506.21 129.758 505.759 130.461 505.453C131.164 505.147 131.892 504.994 132.645 504.994C133.604 504.994 134.431 505.159 135.126 505.49C135.829 505.821 136.404 506.284 136.851 506.88C137.297 507.467 137.628 508.162 137.843 508.964C138.058 509.758 138.166 510.627 138.166 511.57V512.599H128.141V510.726H135.871V510.552C135.837 509.957 135.713 509.378 135.498 508.815C135.292 508.253 134.961 507.79 134.506 507.426C134.051 507.062 133.431 506.88 132.645 506.88C132.124 506.88 131.644 506.991 131.206 507.215C130.767 507.43 130.391 507.752 130.077 508.182C129.762 508.613 129.518 509.138 129.345 509.758C129.171 510.378 129.084 511.094 129.084 511.904V512.426C129.084 513.062 129.171 513.662 129.345 514.225C129.527 514.779 129.787 515.267 130.126 515.689C130.474 516.11 130.891 516.441 131.379 516.681C131.876 516.921 132.438 517.041 133.067 517.041C133.877 517.041 134.564 516.875 135.126 516.545C135.689 516.214 136.181 515.771 136.603 515.217L137.992 516.321C137.703 516.76 137.335 517.177 136.888 517.574C136.441 517.971 135.891 518.294 135.238 518.542C134.593 518.79 133.828 518.914 132.943 518.914ZM149.543 505.242H151.627V518.381C151.627 519.564 151.387 520.573 150.907 521.408C150.428 522.243 149.758 522.876 148.898 523.306C148.046 523.745 147.061 523.964 145.945 523.964C145.482 523.964 144.936 523.889 144.307 523.74C143.687 523.6 143.075 523.356 142.471 523.008C141.875 522.669 141.375 522.21 140.97 521.631L142.173 520.267C142.736 520.945 143.323 521.416 143.935 521.681C144.555 521.946 145.167 522.078 145.771 522.078C146.499 522.078 147.128 521.942 147.657 521.669C148.186 521.396 148.596 520.99 148.885 520.453C149.183 519.923 149.332 519.27 149.332 518.492V508.195L149.543 505.242ZM140.3 512.103V511.842C140.3 510.817 140.42 509.886 140.66 509.051C140.908 508.207 141.259 507.484 141.714 506.88C142.177 506.276 142.736 505.813 143.389 505.49C144.042 505.159 144.779 504.994 145.597 504.994C146.441 504.994 147.177 505.143 147.806 505.441C148.443 505.73 148.98 506.156 149.419 506.719C149.865 507.273 150.217 507.943 150.473 508.728C150.73 509.514 150.907 510.403 151.007 511.396V512.537C150.916 513.522 150.738 514.407 150.473 515.192C150.217 515.978 149.865 516.648 149.419 517.202C148.98 517.756 148.443 518.182 147.806 518.48C147.169 518.77 146.425 518.914 145.573 518.914C144.77 518.914 144.042 518.745 143.389 518.406C142.744 518.066 142.19 517.591 141.727 516.979C141.263 516.367 140.908 515.647 140.66 514.82C140.42 513.985 140.3 513.079 140.3 512.103ZM142.595 511.842V512.103C142.595 512.773 142.661 513.402 142.793 513.989C142.934 514.576 143.145 515.093 143.426 515.54C143.716 515.986 144.084 516.338 144.53 516.594C144.977 516.842 145.511 516.966 146.131 516.966C146.892 516.966 147.52 516.805 148.017 516.483C148.513 516.16 148.906 515.734 149.195 515.205C149.493 514.675 149.725 514.1 149.89 513.48V510.49C149.799 510.035 149.659 509.597 149.468 509.175C149.286 508.745 149.046 508.364 148.749 508.034C148.459 507.695 148.099 507.426 147.669 507.227C147.239 507.029 146.735 506.929 146.156 506.929C145.527 506.929 144.985 507.062 144.53 507.326C144.084 507.583 143.716 507.938 143.426 508.393C143.145 508.84 142.934 509.361 142.793 509.957C142.661 510.544 142.595 511.173 142.595 511.842ZM157.607 505.242V518.666H155.299V505.242H157.607ZM155.126 501.681C155.126 501.309 155.237 500.995 155.461 500.738C155.692 500.482 156.031 500.354 156.478 500.354C156.916 500.354 157.251 500.482 157.483 500.738C157.723 500.995 157.843 501.309 157.843 501.681C157.843 502.037 157.723 502.343 157.483 502.599C157.251 502.848 156.916 502.972 156.478 502.972C156.031 502.972 155.692 502.848 155.461 502.599C155.237 502.343 155.126 502.037 155.126 501.681ZM160.684 512.103V511.818C160.684 510.85 160.825 509.953 161.106 509.125C161.387 508.29 161.792 507.566 162.322 506.954C162.851 506.334 163.492 505.854 164.245 505.515C164.997 505.168 165.841 504.994 166.776 504.994C167.719 504.994 168.566 505.168 169.319 505.515C170.08 505.854 170.725 506.334 171.254 506.954C171.792 507.566 172.201 508.29 172.483 509.125C172.764 509.953 172.904 510.85 172.904 511.818V512.103C172.904 513.071 172.764 513.968 172.483 514.795C172.201 515.622 171.792 516.346 171.254 516.966C170.725 517.578 170.084 518.058 169.331 518.406C168.587 518.745 167.743 518.914 166.8 518.914C165.858 518.914 165.01 518.745 164.257 518.406C163.504 518.058 162.859 517.578 162.322 516.966C161.792 516.346 161.387 515.622 161.106 514.795C160.825 513.968 160.684 513.071 160.684 512.103ZM162.979 511.818V512.103C162.979 512.773 163.058 513.406 163.215 514.001C163.372 514.588 163.608 515.11 163.922 515.564C164.245 516.019 164.646 516.379 165.126 516.644C165.605 516.9 166.164 517.028 166.8 517.028C167.429 517.028 167.979 516.9 168.45 516.644C168.93 516.379 169.327 516.019 169.642 515.564C169.956 515.11 170.192 514.588 170.349 514.001C170.514 513.406 170.597 512.773 170.597 512.103V511.818C170.597 511.156 170.514 510.531 170.349 509.944C170.192 509.349 169.952 508.824 169.629 508.369C169.315 507.905 168.918 507.541 168.438 507.277C167.967 507.012 167.412 506.88 166.776 506.88C166.147 506.88 165.593 507.012 165.113 507.277C164.642 507.541 164.245 507.905 163.922 508.369C163.608 508.824 163.372 509.349 163.215 509.944C163.058 510.531 162.979 511.156 162.979 511.818ZM178.078 508.108V518.666H175.783V505.242H177.954L178.078 508.108ZM177.532 511.445L176.577 511.408C176.585 510.49 176.722 509.642 176.986 508.865C177.251 508.079 177.623 507.397 178.103 506.818C178.583 506.239 179.153 505.792 179.815 505.478C180.485 505.155 181.225 504.994 182.036 504.994C182.698 504.994 183.293 505.085 183.822 505.267C184.352 505.441 184.803 505.722 185.175 506.111C185.555 506.499 185.845 507.004 186.043 507.624C186.242 508.236 186.341 508.985 186.341 509.87V518.666H184.033V509.845C184.033 509.142 183.93 508.58 183.723 508.158C183.516 507.728 183.214 507.417 182.817 507.227C182.42 507.029 181.932 506.929 181.353 506.929C180.783 506.929 180.262 507.049 179.79 507.289C179.327 507.529 178.926 507.86 178.587 508.282C178.256 508.704 177.995 509.187 177.805 509.733C177.623 510.271 177.532 510.842 177.532 511.445ZM197.743 516.371V509.46C197.743 508.931 197.635 508.472 197.42 508.083C197.213 507.686 196.899 507.38 196.477 507.165C196.055 506.95 195.534 506.843 194.914 506.843C194.335 506.843 193.826 506.942 193.388 507.14C192.958 507.339 192.619 507.599 192.371 507.922C192.131 508.245 192.011 508.592 192.011 508.964H189.716C189.716 508.484 189.84 508.009 190.088 507.537C190.336 507.066 190.692 506.64 191.155 506.259C191.626 505.871 192.189 505.565 192.842 505.341C193.504 505.11 194.24 504.994 195.05 504.994C196.026 504.994 196.887 505.159 197.631 505.49C198.384 505.821 198.971 506.321 199.393 506.991C199.823 507.653 200.038 508.484 200.038 509.485V515.738C200.038 516.185 200.075 516.66 200.15 517.165C200.232 517.669 200.352 518.104 200.509 518.468V518.666H198.115C197.999 518.401 197.908 518.05 197.842 517.612C197.776 517.165 197.743 516.751 197.743 516.371ZM198.14 510.527L198.164 512.14H195.844C195.191 512.14 194.608 512.194 194.095 512.302C193.582 512.401 193.152 512.554 192.805 512.761C192.457 512.967 192.193 513.228 192.011 513.542C191.829 513.848 191.738 514.208 191.738 514.622C191.738 515.043 191.833 515.428 192.023 515.775C192.213 516.123 192.499 516.4 192.879 516.607C193.268 516.805 193.744 516.904 194.306 516.904C195.009 516.904 195.629 516.756 196.167 516.458C196.705 516.16 197.131 515.796 197.445 515.366C197.767 514.936 197.941 514.518 197.966 514.113L198.946 515.217C198.888 515.564 198.731 515.949 198.475 516.371C198.218 516.793 197.875 517.198 197.445 517.587C197.023 517.967 196.519 518.286 195.931 518.542C195.352 518.79 194.699 518.914 193.971 518.914C193.061 518.914 192.263 518.736 191.577 518.381C190.898 518.025 190.369 517.55 189.988 516.954C189.616 516.35 189.43 515.676 189.43 514.932C189.43 514.212 189.571 513.579 189.852 513.034C190.133 512.479 190.539 512.02 191.068 511.656C191.597 511.284 192.234 511.003 192.979 510.813C193.723 510.622 194.554 510.527 195.472 510.527H198.14ZM206.142 499.609V518.666H203.834V499.609H206.142ZM219.045 500.602V518.666H216.65V500.602H219.045ZM225.968 500.602V518.666H223.573V500.602H225.968Z" fill="#606060"/>
<path d="M103.321 647.559H109.301C110.658 647.559 111.803 647.766 112.738 648.179C113.681 648.593 114.396 649.205 114.884 650.015C115.38 650.818 115.629 651.806 115.629 652.981C115.629 653.808 115.459 654.565 115.12 655.251C114.789 655.929 114.309 656.508 113.681 656.988C113.06 657.459 112.316 657.811 111.448 658.043L110.778 658.303H105.157L105.133 656.355H109.376C110.236 656.355 110.951 656.206 111.522 655.909C112.093 655.603 112.523 655.193 112.812 654.68C113.102 654.168 113.246 653.601 113.246 652.981C113.246 652.286 113.11 651.678 112.837 651.157C112.564 650.636 112.134 650.235 111.547 649.953C110.968 649.664 110.219 649.519 109.301 649.519H105.716V665.623H103.321V647.559ZM113.879 665.623L109.487 657.435L111.981 657.422L116.435 665.474V665.623H113.879ZM124.202 665.871C123.267 665.871 122.419 665.714 121.658 665.4C120.906 665.077 120.256 664.626 119.71 664.047C119.173 663.468 118.759 662.782 118.47 661.988C118.18 661.194 118.035 660.325 118.035 659.382V658.861C118.035 657.77 118.197 656.798 118.519 655.946C118.842 655.086 119.28 654.358 119.834 653.762C120.389 653.167 121.017 652.716 121.72 652.41C122.423 652.104 123.151 651.951 123.904 651.951C124.863 651.951 125.69 652.116 126.385 652.447C127.088 652.778 127.663 653.241 128.11 653.837C128.556 654.424 128.887 655.119 129.102 655.921C129.317 656.715 129.425 657.584 129.425 658.526V659.556H119.4V657.683H127.13V657.509C127.096 656.914 126.972 656.335 126.757 655.772C126.551 655.21 126.22 654.747 125.765 654.383C125.31 654.019 124.69 653.837 123.904 653.837C123.383 653.837 122.903 653.948 122.465 654.172C122.026 654.387 121.65 654.709 121.336 655.139C121.021 655.57 120.777 656.095 120.604 656.715C120.43 657.335 120.343 658.051 120.343 658.861V659.382C120.343 660.019 120.43 660.619 120.604 661.181C120.786 661.736 121.046 662.224 121.385 662.645C121.733 663.067 122.15 663.398 122.638 663.638C123.135 663.878 123.697 663.998 124.326 663.998C125.136 663.998 125.823 663.832 126.385 663.502C126.948 663.171 127.44 662.728 127.862 662.174L129.251 663.278C128.962 663.717 128.594 664.134 128.147 664.531C127.7 664.928 127.15 665.251 126.497 665.499C125.852 665.747 125.087 665.871 124.202 665.871ZM140.802 652.199H142.886V665.338C142.886 666.52 142.646 667.53 142.166 668.365C141.687 669.2 141.017 669.833 140.157 670.263C139.305 670.702 138.32 670.921 137.204 670.921C136.741 670.921 136.195 670.846 135.566 670.697C134.946 670.557 134.334 670.313 133.73 669.965C133.134 669.626 132.634 669.167 132.229 668.588L133.432 667.224C133.995 667.902 134.582 668.373 135.194 668.638C135.814 668.903 136.426 669.035 137.03 669.035C137.758 669.035 138.387 668.898 138.916 668.625C139.445 668.353 139.855 667.947 140.144 667.41C140.442 666.88 140.591 666.227 140.591 665.449V655.152L140.802 652.199ZM131.559 659.06V658.799C131.559 657.774 131.679 656.843 131.919 656.008C132.167 655.164 132.518 654.44 132.973 653.837C133.436 653.233 133.995 652.77 134.648 652.447C135.301 652.116 136.038 651.951 136.856 651.951C137.7 651.951 138.436 652.1 139.065 652.398C139.702 652.687 140.239 653.113 140.678 653.675C141.124 654.23 141.476 654.9 141.732 655.685C141.989 656.471 142.166 657.36 142.266 658.353V659.494C142.175 660.478 141.997 661.363 141.732 662.149C141.476 662.935 141.124 663.605 140.678 664.159C140.239 664.713 139.702 665.139 139.065 665.437C138.428 665.726 137.683 665.871 136.832 665.871C136.029 665.871 135.301 665.702 134.648 665.363C134.003 665.023 133.449 664.548 132.985 663.936C132.522 663.324 132.167 662.604 131.919 661.777C131.679 660.942 131.559 660.036 131.559 659.06ZM133.854 658.799V659.06C133.854 659.73 133.92 660.358 134.052 660.946C134.193 661.533 134.404 662.05 134.685 662.497C134.975 662.943 135.343 663.295 135.789 663.551C136.236 663.799 136.77 663.923 137.39 663.923C138.151 663.923 138.779 663.762 139.276 663.439C139.772 663.117 140.165 662.691 140.454 662.162C140.752 661.632 140.984 661.057 141.149 660.437V657.447C141.058 656.992 140.917 656.554 140.727 656.132C140.545 655.702 140.305 655.321 140.008 654.991C139.718 654.651 139.358 654.383 138.928 654.184C138.498 653.986 137.994 653.886 137.415 653.886C136.786 653.886 136.244 654.019 135.789 654.283C135.343 654.54 134.975 654.895 134.685 655.35C134.404 655.797 134.193 656.318 134.052 656.914C133.92 657.501 133.854 658.129 133.854 658.799ZM148.866 652.199V665.623H146.558V652.199H148.866ZM146.385 648.638C146.385 648.266 146.496 647.952 146.72 647.695C146.951 647.439 147.29 647.311 147.737 647.311C148.175 647.311 148.51 647.439 148.742 647.695C148.982 647.952 149.102 648.266 149.102 648.638C149.102 648.994 148.982 649.3 148.742 649.556C148.51 649.805 148.175 649.929 147.737 649.929C147.29 649.929 146.951 649.805 146.72 649.556C146.496 649.3 146.385 648.994 146.385 648.638ZM151.943 659.06V658.775C151.943 657.807 152.084 656.909 152.365 656.082C152.646 655.247 153.051 654.523 153.581 653.911C154.11 653.291 154.751 652.811 155.504 652.472C156.256 652.125 157.1 651.951 158.035 651.951C158.977 651.951 159.825 652.125 160.578 652.472C161.339 652.811 161.984 653.291 162.513 653.911C163.051 654.523 163.46 655.247 163.742 656.082C164.023 656.909 164.163 657.807 164.163 658.775V659.06C164.163 660.028 164.023 660.925 163.742 661.752C163.46 662.579 163.051 663.303 162.513 663.923C161.984 664.535 161.343 665.015 160.59 665.363C159.846 665.702 159.002 665.871 158.059 665.871C157.116 665.871 156.269 665.702 155.516 665.363C154.763 665.015 154.118 664.535 153.581 663.923C153.051 663.303 152.646 662.579 152.365 661.752C152.084 660.925 151.943 660.028 151.943 659.06ZM154.238 658.775V659.06C154.238 659.73 154.317 660.363 154.474 660.958C154.631 661.545 154.867 662.066 155.181 662.521C155.504 662.976 155.905 663.336 156.384 663.601C156.864 663.857 157.423 663.985 158.059 663.985C158.688 663.985 159.238 663.857 159.709 663.601C160.189 663.336 160.586 662.976 160.901 662.521C161.215 662.066 161.451 661.545 161.608 660.958C161.773 660.363 161.856 659.73 161.856 659.06V658.775C161.856 658.113 161.773 657.488 161.608 656.901C161.451 656.306 161.211 655.78 160.888 655.326C160.574 654.862 160.177 654.498 159.697 654.234C159.226 653.969 158.671 653.837 158.035 653.837C157.406 653.837 156.852 653.969 156.372 654.234C155.901 654.498 155.504 654.862 155.181 655.326C154.867 655.78 154.631 656.306 154.474 656.901C154.317 657.488 154.238 658.113 154.238 658.775ZM169.337 655.065V665.623H167.042V652.199H169.213L169.337 655.065ZM168.791 658.402L167.836 658.365C167.844 657.447 167.981 656.599 168.245 655.822C168.51 655.036 168.882 654.354 169.362 653.775C169.842 653.196 170.412 652.749 171.074 652.435C171.744 652.112 172.484 651.951 173.295 651.951C173.956 651.951 174.552 652.042 175.081 652.224C175.611 652.398 176.061 652.679 176.434 653.067C176.814 653.456 177.104 653.961 177.302 654.581C177.501 655.193 177.6 655.942 177.6 656.827V665.623H175.292V656.802C175.292 656.099 175.189 655.536 174.982 655.115C174.775 654.684 174.473 654.374 174.076 654.184C173.679 653.986 173.191 653.886 172.612 653.886C172.042 653.886 171.521 654.006 171.049 654.246C170.586 654.486 170.185 654.817 169.846 655.239C169.515 655.66 169.254 656.144 169.064 656.69C168.882 657.228 168.791 657.799 168.791 658.402ZM189.002 663.328V656.417C189.002 655.888 188.894 655.429 188.679 655.04C188.472 654.643 188.158 654.337 187.736 654.122C187.314 653.907 186.793 653.799 186.173 653.799C185.594 653.799 185.085 653.899 184.647 654.097C184.217 654.296 183.878 654.556 183.63 654.879C183.39 655.201 183.27 655.549 183.27 655.921H180.975C180.975 655.441 181.099 654.966 181.347 654.494C181.595 654.023 181.951 653.597 182.414 653.216C182.885 652.828 183.448 652.522 184.101 652.298C184.763 652.067 185.499 651.951 186.309 651.951C187.285 651.951 188.146 652.116 188.89 652.447C189.643 652.778 190.23 653.278 190.652 653.948C191.082 654.61 191.297 655.441 191.297 656.442V662.695C191.297 663.142 191.334 663.617 191.409 664.122C191.491 664.626 191.611 665.061 191.768 665.425V665.623H189.374C189.258 665.358 189.167 665.007 189.101 664.568C189.035 664.122 189.002 663.708 189.002 663.328ZM189.399 657.484L189.423 659.097H187.103C186.45 659.097 185.867 659.151 185.354 659.258C184.841 659.358 184.411 659.511 184.064 659.717C183.716 659.924 183.452 660.185 183.27 660.499C183.088 660.805 182.997 661.165 182.997 661.578C182.997 662 183.092 662.385 183.282 662.732C183.472 663.08 183.758 663.357 184.138 663.564C184.527 663.762 185.003 663.861 185.565 663.861C186.268 663.861 186.888 663.712 187.426 663.415C187.964 663.117 188.39 662.753 188.704 662.323C189.026 661.893 189.2 661.475 189.225 661.07L190.205 662.174C190.147 662.521 189.99 662.906 189.734 663.328C189.477 663.75 189.134 664.155 188.704 664.544C188.282 664.924 187.778 665.243 187.19 665.499C186.611 665.747 185.958 665.871 185.23 665.871C184.32 665.871 183.522 665.693 182.836 665.338C182.157 664.982 181.628 664.506 181.247 663.911C180.875 663.307 180.689 662.633 180.689 661.889C180.689 661.169 180.83 660.536 181.111 659.99C181.392 659.436 181.797 658.977 182.327 658.613C182.856 658.241 183.493 657.96 184.237 657.77C184.982 657.579 185.813 657.484 186.731 657.484H189.399ZM197.401 646.566V665.623H195.093V646.566H197.401ZM210.304 647.559V665.623H207.909V647.559H210.304ZM217.227 647.559V665.623H214.832V647.559H217.227ZM224.15 647.559V665.623H221.755V647.559H224.15Z" fill="#606060"/>
<path d="M40.1126 567.426V558.765C40.1126 556.989 40.3784 555.463 40.9102 554.187C41.4419 552.9 42.2288 551.911 43.271 551.22C44.3131 550.528 45.5946 550.183 47.1153 550.183C48.3595 550.183 49.4282 550.396 50.3215 550.821C51.2042 551.236 51.9432 551.826 52.5388 552.592C53.1237 553.347 53.5916 554.235 53.9425 555.255L54.7401 556.771V564.3L51.0074 564.332V558.733C51.0074 557.893 50.8585 557.196 50.5608 556.643C50.263 556.09 49.8483 555.675 49.3166 555.399C48.7849 555.112 48.1681 554.968 47.4662 554.968C46.7218 554.968 46.0784 555.107 45.5361 555.383C44.9937 555.66 44.579 556.08 44.2919 556.643C44.0047 557.207 43.8612 557.914 43.8612 558.765V562.641H63.3379V567.426H40.1126ZM63.3379 554.442L52.9854 559.738L52.9535 554.681L63.1146 549.321H63.3379V554.442ZM63.6569 538.841C63.6569 540.181 63.4442 541.383 63.0189 542.446C62.5829 543.51 61.982 544.414 61.2163 545.158C60.4507 545.892 59.5627 546.456 58.5525 546.849C57.5316 547.242 56.4469 547.439 55.2984 547.439H54.6603C53.3523 547.439 52.1559 547.253 51.0712 546.881C49.9865 546.509 49.0454 545.977 48.2478 545.286C47.4503 544.584 46.8388 543.733 46.4134 542.734C45.9774 541.734 45.7594 540.607 45.7594 539.352C45.7594 538.129 45.9615 537.044 46.3656 536.098C46.7697 535.151 47.3439 534.359 48.0883 533.721C48.8327 533.072 49.726 532.583 50.7682 532.253C51.7997 531.924 52.9482 531.759 54.2137 531.759H56.1278V545.477H53.0652V536.273H52.7142C52.0762 536.273 51.5072 536.39 51.0074 536.624C50.497 536.847 50.0929 537.188 49.7951 537.645C49.4974 538.102 49.3485 538.687 49.3485 539.4C49.3485 540.006 49.4814 540.527 49.7473 540.963C50.0131 541.399 50.3853 541.755 50.8639 542.032C51.3424 542.298 51.906 542.5 52.5547 542.638C53.1928 542.765 53.8946 542.829 54.6603 542.829H55.2984C55.9896 542.829 56.6277 542.734 57.2125 542.542C57.7974 542.34 58.3026 542.058 58.7279 541.697C59.1533 541.324 59.483 540.878 59.7169 540.357C59.9509 539.825 60.0678 539.224 60.0678 538.554C60.0678 537.725 59.9083 536.954 59.5893 536.241C59.2596 535.518 58.7651 534.896 58.1058 534.375L60.5304 532.142C61.0515 532.503 61.5513 532.998 62.0299 533.625C62.5084 534.242 62.9019 534.986 63.2103 535.858C63.508 536.73 63.6569 537.725 63.6569 538.841ZM46.0784 518.216V514.053H62.7636C64.3375 514.053 65.6721 514.404 66.7675 515.106C67.8734 515.797 68.7082 516.765 69.2718 518.009C69.8461 519.253 70.1332 520.699 70.1332 522.348C70.1332 523.071 70.0375 523.836 69.8461 524.645C69.6547 525.442 69.3569 526.208 68.9528 526.942C68.5487 527.665 68.0382 528.271 67.4215 528.76L64.7097 526.734C65.3265 526.203 65.805 525.586 66.1453 524.884C66.4963 524.182 66.6717 523.406 66.6717 522.555C66.6717 521.725 66.5175 521.024 66.2092 520.449C65.9114 519.875 65.4701 519.434 64.8852 519.125C64.3109 518.817 63.6144 518.663 62.7955 518.663H50.0663L46.0784 518.216ZM54.9155 529.829H54.5805C53.2619 529.829 52.0655 529.669 50.9915 529.35C49.9068 529.021 48.9763 528.558 48.2 527.962C47.4237 527.356 46.8228 526.623 46.3975 525.761C45.9721 524.9 45.7594 523.927 45.7594 522.842C45.7594 521.694 45.9721 520.731 46.3975 519.955C46.8228 519.179 47.429 518.54 48.2159 518.041C48.9922 517.541 49.9121 517.153 50.9755 516.876C52.0283 516.589 53.1821 516.366 54.437 516.206H55.1708C56.3724 516.366 57.489 516.605 58.5206 516.924C59.5521 517.243 60.456 517.663 61.2323 518.184C61.998 518.705 62.5935 519.354 63.0189 520.13C63.4442 520.896 63.6569 521.811 63.6569 522.874C63.6569 523.937 63.4389 524.9 63.0029 525.761C62.5669 526.612 61.9554 527.34 61.1685 527.947C60.3816 528.553 59.4564 529.021 58.3929 529.35C57.3295 529.669 56.1704 529.829 54.9155 529.829ZM54.5805 525.235H54.9155C55.628 525.235 56.2927 525.166 56.9095 525.027C57.5262 524.889 58.0739 524.676 58.5525 524.389C59.0204 524.092 59.3873 523.725 59.6531 523.289C59.9083 522.842 60.0359 522.316 60.0359 521.71C60.0359 520.869 59.8605 520.183 59.5095 519.652C59.148 519.12 58.6535 518.721 58.0261 518.455C57.3986 518.19 56.6755 518.035 55.8567 517.993H53.767C53.0971 518.014 52.4962 518.104 51.9645 518.264C51.4222 518.424 50.9596 518.647 50.5767 518.934C50.1939 519.221 49.8961 519.593 49.6835 520.051C49.4708 520.508 49.3644 521.05 49.3644 521.678C49.3644 522.284 49.5027 522.81 49.7792 523.257C50.045 523.693 50.4119 524.06 50.8798 524.357C51.3477 524.645 51.9007 524.863 52.5388 525.011C53.1662 525.16 53.8468 525.235 54.5805 525.235ZM46.0784 505.63H63.3379V510.24H46.0784V505.63ZM41.5801 510.528C40.9102 510.528 40.3572 510.294 39.9212 509.826C39.4852 509.358 39.2672 508.73 39.2672 507.943C39.2672 507.167 39.4852 506.545 39.9212 506.077C40.3572 505.599 40.9102 505.359 41.5801 505.359C42.2501 505.359 42.8031 505.599 43.2391 506.077C43.6751 506.545 43.8931 507.167 43.8931 507.943C43.8931 508.73 43.6751 509.358 43.2391 509.826C42.8031 510.294 42.2501 510.528 41.5801 510.528ZM54.8836 502.568H54.5486C53.2832 502.568 52.1187 502.387 51.0553 502.025C49.9812 501.664 49.0507 501.137 48.2638 500.446C47.4768 499.755 46.8654 498.904 46.4294 497.894C45.9827 496.884 45.7594 495.725 45.7594 494.417C45.7594 493.109 45.9827 491.944 46.4294 490.923C46.8654 489.902 47.4768 489.046 48.2638 488.355C49.0507 487.653 49.9812 487.121 51.0553 486.76C52.1187 486.398 53.2832 486.218 54.5486 486.218H54.8836C56.1385 486.218 57.3029 486.398 58.377 486.76C59.4404 487.121 60.3709 487.653 61.1685 488.355C61.9554 489.046 62.5669 489.897 63.0029 490.907C63.4389 491.918 63.6569 493.077 63.6569 494.385C63.6569 495.693 63.4389 496.857 63.0029 497.878C62.5669 498.888 61.9554 499.744 61.1685 500.446C60.3709 501.137 59.4404 501.664 58.377 502.025C57.3029 502.387 56.1385 502.568 54.8836 502.568ZM54.5486 497.974H54.8836C55.6068 497.974 56.282 497.91 56.9095 497.782C57.5369 497.655 58.0899 497.453 58.5684 497.176C59.0363 496.889 59.4032 496.517 59.6691 496.06C59.9349 495.602 60.0678 495.044 60.0678 494.385C60.0678 493.747 59.9349 493.199 59.6691 492.742C59.4032 492.284 59.0363 491.918 58.5684 491.641C58.0899 491.365 57.5369 491.163 56.9095 491.035C56.282 490.897 55.6068 490.828 54.8836 490.828H54.5486C53.8468 490.828 53.1875 490.897 52.5707 491.035C51.9432 491.163 51.3903 491.37 50.9117 491.657C50.4225 491.933 50.0397 492.3 49.7632 492.758C49.4867 493.215 49.3485 493.768 49.3485 494.417C49.3485 495.065 49.4867 495.618 49.7632 496.076C50.0397 496.522 50.4225 496.889 50.9117 497.176C51.3903 497.453 51.9432 497.655 52.5707 497.782C53.1875 497.91 53.8468 497.974 54.5486 497.974ZM49.7632 478.896H63.3379V483.49H46.0784V479.183L49.7632 478.896ZM54.102 479.566V480.81C52.8259 480.81 51.6774 480.645 50.6565 480.316C49.625 479.986 48.7476 479.523 48.0245 478.928C47.2907 478.332 46.7324 477.625 46.3496 476.806C45.9561 475.977 45.7594 475.052 45.7594 474.031C45.7594 473.222 45.8764 472.483 46.1103 471.813C46.3443 471.143 46.7165 470.569 47.2269 470.091C47.7374 469.601 48.4127 469.229 49.2528 468.974C50.0929 468.708 51.1191 468.575 52.3314 468.575H63.3379V473.201H52.3154C51.5498 473.201 50.9543 473.308 50.5289 473.52C50.1035 473.733 49.8058 474.047 49.6356 474.461C49.4548 474.865 49.3644 475.365 49.3644 475.961C49.3644 476.578 49.4867 477.115 49.7313 477.572C49.9759 478.019 50.3162 478.391 50.7522 478.688C51.1776 478.976 51.6774 479.194 52.2516 479.342C52.8259 479.491 53.4427 479.566 54.102 479.566ZM59.4457 455.766H51.7571C51.2042 455.766 50.7309 455.857 50.3375 456.037C49.9334 456.218 49.6197 456.5 49.3963 456.883C49.173 457.255 49.0614 457.739 49.0614 458.334C49.0614 458.845 49.1517 459.286 49.3325 459.658C49.5027 460.031 49.7526 460.318 50.0822 460.52C50.4013 460.722 50.7788 460.823 51.2148 460.823V465.417C50.481 465.417 49.7845 465.247 49.1252 464.906C48.4658 464.566 47.8863 464.072 47.3864 463.423C46.876 462.774 46.4772 462.003 46.1901 461.11C45.903 460.206 45.7594 459.196 45.7594 458.079C45.7594 456.739 45.9827 455.548 46.4294 454.506C46.876 453.464 47.546 452.645 48.4392 452.05C49.3325 451.443 50.4491 451.14 51.789 451.14H59.1746C60.121 451.14 60.8973 451.082 61.5035 450.965C62.099 450.848 62.6201 450.678 63.0667 450.454H63.3379V455.096C62.87 455.32 62.2851 455.49 61.5832 455.607C60.8707 455.713 60.1582 455.766 59.4457 455.766ZM52.8259 455.16L55.426 455.128V457.696C55.426 458.303 55.4951 458.829 55.6333 459.276C55.7716 459.722 55.9683 460.089 56.2235 460.376C56.4681 460.663 56.7553 460.876 57.0849 461.014C57.4146 461.142 57.7762 461.206 58.1696 461.206C58.5631 461.206 58.9193 461.115 59.2384 460.935C59.5468 460.754 59.7914 460.493 59.9721 460.153C60.1423 459.813 60.2274 459.414 60.2274 458.957C60.2274 458.265 60.0891 457.664 59.8126 457.154C59.5361 456.644 59.1958 456.25 58.7917 455.974C58.3876 455.687 58.0048 455.538 57.6432 455.527L59.5893 454.315C60.0253 454.485 60.4773 454.719 60.9452 455.017C61.4131 455.304 61.8544 455.671 62.2691 456.117C62.6732 456.564 63.0082 457.101 63.2741 457.728C63.5293 458.356 63.6569 459.1 63.6569 459.961C63.6569 461.057 63.4389 462.051 63.0029 462.944C62.5563 463.827 61.9448 464.529 61.1685 465.05C60.3816 465.56 59.4883 465.816 58.4887 465.816C57.5847 465.816 56.7818 465.646 56.08 465.305C55.3781 464.965 54.7879 464.465 54.3094 463.806C53.8202 463.136 53.4533 462.301 53.2087 461.301C52.9535 460.302 52.8259 459.143 52.8259 457.824V455.16ZM46.0784 442.75H63.3379V447.36H46.0784V442.75ZM41.5801 447.647C40.9102 447.647 40.3572 447.413 39.9212 446.945C39.4852 446.477 39.2672 445.85 39.2672 445.063C39.2672 444.287 39.4852 443.664 39.9212 443.197C40.3572 442.718 40.9102 442.479 41.5801 442.479C42.2501 442.479 42.8031 442.718 43.2391 443.197C43.6751 443.664 43.8931 444.287 43.8931 445.063C43.8931 445.85 43.6751 446.477 43.2391 446.945C42.8031 447.413 42.2501 447.647 41.5801 447.647ZM58.5684 429.622C58.2387 429.622 57.941 429.718 57.6751 429.909C57.4093 430.1 57.1647 430.457 56.9414 430.978C56.7074 431.488 56.4947 432.227 56.3033 433.195C56.1119 434.067 55.8726 434.88 55.5855 435.636C55.2877 436.38 54.9315 437.029 54.5167 437.582C54.102 438.124 53.6128 438.549 53.0492 438.858C52.475 439.166 51.8209 439.32 51.0872 439.32C50.3641 439.32 49.6835 439.166 49.0454 438.858C48.4073 438.539 47.8437 438.087 47.3545 437.502C46.8547 436.906 46.4666 436.183 46.1901 435.332C45.903 434.471 45.7594 433.503 45.7594 432.429C45.7594 430.93 45.9987 429.643 46.4772 428.569C46.9558 427.484 47.6151 426.655 48.4552 426.081C49.2847 425.496 50.2311 425.203 51.2946 425.203V429.797C50.8479 429.797 50.4491 429.893 50.0982 430.084C49.7366 430.265 49.4548 430.552 49.2528 430.946C49.0401 431.329 48.9337 431.828 48.9337 432.445C48.9337 432.956 49.0241 433.397 49.2049 433.769C49.3751 434.141 49.609 434.429 49.9068 434.631C50.1939 434.822 50.5129 434.918 50.8639 434.918C51.1297 434.918 51.369 434.865 51.5817 434.758C51.7837 434.641 51.9698 434.455 52.14 434.2C52.3101 433.945 52.4696 433.615 52.6185 433.211C52.7568 432.796 52.8844 432.286 53.0014 431.68C53.2566 430.435 53.5916 429.324 54.0063 428.346C54.4104 427.367 54.9634 426.591 55.6652 426.017C56.3565 425.443 57.2657 425.155 58.3929 425.155C59.1586 425.155 59.8605 425.326 60.4985 425.666C61.1366 426.006 61.6949 426.495 62.1734 427.133C62.6413 427.771 63.0082 428.537 63.2741 429.43C63.5293 430.313 63.6569 431.307 63.6569 432.413C63.6569 434.019 63.3698 435.38 62.7955 436.497C62.2213 437.603 61.4928 438.443 60.6102 439.017C59.7169 439.581 58.8024 439.863 57.8665 439.863V435.508C58.494 435.487 58.9991 435.327 59.3819 435.029C59.7648 434.721 60.0413 434.333 60.2114 433.865C60.3816 433.386 60.4666 432.871 60.4666 432.318C60.4666 431.722 60.3869 431.228 60.2274 430.834C60.0572 430.441 59.8339 430.143 59.5574 429.941C59.2703 429.728 58.9406 429.622 58.5684 429.622Z" fill="#606060"/>
<path d="M70.6592 79.1309V76.4014L73.4773 75.8697V56.6039L70.6592 56.0722V53.325H73.4773H82.7646C84.6906 53.325 86.3389 53.6617 87.7095 54.3352C89.092 55.0087 90.1495 55.9481 90.8821 57.1533C91.6147 58.3467 91.981 59.7469 91.981 61.3539C91.981 62.9608 91.6147 64.3669 90.8821 65.5721C90.1495 66.7655 89.092 67.6931 87.7095 68.3548C86.3389 69.0165 84.6906 69.3473 82.7646 69.3473H77.9437V75.8697L80.7618 76.4014V79.1309H70.6592ZM77.9437 65.8912H82.7646C84.3479 65.8912 85.5354 65.4658 86.3271 64.615C87.1187 63.7643 87.5146 62.6891 87.5146 61.3893C87.5146 60.0659 87.1187 58.9671 86.3271 58.0927C85.5354 57.2183 84.3479 56.7811 82.7646 56.7811H77.9437V65.8912ZM94.1787 79.1309V76.4014L96.8373 75.8697V63.2326L94.0369 62.7009V59.9537H100.949L101.18 62.3641L101.215 62.754C101.723 61.7379 102.343 60.958 103.076 60.4145C103.82 59.871 104.689 59.5992 105.681 59.5992C106.012 59.5992 106.361 59.6287 106.727 59.6878C107.105 59.7469 107.413 59.8119 107.649 59.8828L107.135 64.0124L104.636 63.8706C103.82 63.8234 103.147 63.9829 102.615 64.3492C102.095 64.7155 101.658 65.2236 101.304 65.8734V75.8697L103.962 76.4014V79.1309H94.1787ZM118.053 79.5031C116.209 79.5031 114.626 79.0895 113.303 78.2624C111.979 77.4353 110.963 76.2891 110.254 74.824C109.545 73.347 109.191 71.6514 109.191 69.7372V69.365C109.191 67.4627 109.545 65.7789 110.254 64.3137C110.963 62.8486 111.979 61.6965 113.303 60.8576C114.626 60.0187 116.198 59.5992 118.017 59.5992C119.861 59.5992 121.444 60.0187 122.767 60.8576C124.091 61.6847 125.107 62.8308 125.816 64.296C126.525 65.7612 126.879 67.4509 126.879 69.365V69.7372C126.879 71.6514 126.525 73.347 125.816 74.824C125.107 76.2891 124.091 77.4353 122.767 78.2624C121.456 79.0895 119.884 79.5031 118.053 79.5031ZM118.053 76.0646C119.045 76.0646 119.861 75.7988 120.499 75.2671C121.148 74.7235 121.633 73.9791 121.952 73.0339C122.271 72.0768 122.43 70.9779 122.43 69.7372V69.365C122.43 68.1362 122.271 67.0491 121.952 66.1038C121.633 65.1586 121.148 64.4142 120.499 63.8706C119.849 63.3271 119.022 63.0554 118.017 63.0554C117.037 63.0554 116.221 63.3271 115.571 63.8706C114.921 64.4142 114.437 65.1586 114.118 66.1038C113.811 67.0491 113.657 68.1362 113.657 69.365V69.7372C113.657 70.9779 113.811 72.0768 114.118 73.0339C114.437 73.9791 114.921 74.7235 115.571 75.2671C116.233 75.7988 117.06 76.0646 118.053 76.0646ZM129.662 86.8762C129.213 86.8762 128.811 86.8525 128.457 86.8053C128.102 86.758 127.73 86.6812 127.34 86.5749L127.588 83.1896C127.801 83.2487 128.073 83.3019 128.403 83.3491C128.746 83.3964 129.053 83.42 129.325 83.42C130.01 83.42 130.548 83.1364 130.938 82.5693C131.328 82.0021 131.523 81.2164 131.523 80.212V63.2326L128.705 62.7009V59.9537H135.989V80.212C135.989 82.3389 135.428 83.9813 134.305 85.1392C133.195 86.2972 131.647 86.8762 129.662 86.8762ZM131.31 55.6113V51.4817H135.954V55.6113H131.31ZM148.449 79.5031C146.641 79.5031 145.064 79.1013 143.717 78.2978C142.382 77.4825 141.342 76.36 140.597 74.9303C139.865 73.5006 139.499 71.8641 139.499 70.0208V69.2764C139.499 67.4095 139.859 65.7494 140.58 64.296C141.312 62.8308 142.317 61.6847 143.593 60.8576C144.869 60.0187 146.322 59.5992 147.953 59.5992C149.69 59.5992 151.143 59.9478 152.313 60.6449C153.494 61.342 154.387 62.3346 154.989 63.6225C155.592 64.8986 155.893 66.4347 155.893 68.2307V70.7829H144.124L144.089 70.8716C144.136 71.8759 144.343 72.768 144.709 73.5479C145.087 74.3277 145.619 74.9421 146.304 75.3911C147.002 75.8401 147.846 76.0646 148.839 76.0646C149.879 76.0646 150.824 75.9228 151.675 75.6393C152.526 75.3557 153.311 74.9539 154.032 74.434L155.432 77.2344C154.676 77.8725 153.713 78.4101 152.543 78.8473C151.373 79.2845 150.009 79.5031 148.449 79.5031ZM144.195 67.6458H151.622V67.185C151.622 66.3461 151.492 65.6135 151.232 64.9872C150.984 64.3492 150.588 63.8529 150.044 63.4984C149.512 63.144 148.833 62.9667 148.006 62.9667C147.285 62.9667 146.653 63.1676 146.11 63.5693C145.566 63.9711 145.129 64.5205 144.798 65.2177C144.479 65.903 144.26 66.6828 144.142 67.5572L144.195 67.6458ZM167.573 79.5031C165.777 79.5031 164.217 79.0954 162.894 78.2801C161.582 77.453 160.566 76.3187 159.845 74.8771C159.137 73.4238 158.782 71.7518 158.782 69.8613V69.241C158.782 67.3859 159.137 65.7316 159.845 64.2783C160.554 62.8249 161.565 61.6847 162.876 60.8576C164.2 60.0187 165.759 59.5992 167.555 59.5992C169.198 59.5992 170.627 59.8651 171.845 60.3968C173.062 60.9167 174.06 61.5665 174.84 62.3464L174.858 67.4686H171.455L170.799 64.0833C170.468 63.7407 170.049 63.4689 169.54 63.268C169.032 63.0554 168.477 62.949 167.874 62.949C166.894 62.949 166.055 63.2149 165.358 63.7466C164.672 64.2783 164.146 65.0168 163.78 65.9621C163.426 66.8955 163.248 67.9885 163.248 69.241V69.8613C163.248 71.2083 163.432 72.3426 163.798 73.2643C164.164 74.1859 164.672 74.883 165.322 75.3557C165.984 75.8283 166.74 76.0646 167.591 76.0646C168.619 76.0646 169.452 75.787 170.09 75.2316C170.74 74.6763 171.165 73.9082 171.366 72.9275H175.23L175.283 73.0339C175.141 74.2863 174.769 75.4029 174.166 76.3837C173.576 77.3526 172.737 78.1147 171.65 78.67C170.574 79.2254 169.215 79.5031 167.573 79.5031ZM165.428 87.0889L165.304 84.643C166.072 84.643 166.687 84.513 167.148 84.253C167.609 84.0049 167.839 83.6268 167.839 83.1187C167.839 82.587 167.626 82.2207 167.201 82.0198C166.787 81.819 166.102 81.6831 165.145 81.6122L165.783 78.7055H169.062L168.761 80.1411C169.552 80.2711 170.208 80.5665 170.728 81.0273C171.248 81.4999 171.508 82.203 171.508 83.1364C171.508 84.3298 170.982 85.2869 169.93 86.0077C168.879 86.7285 167.378 87.0889 165.428 87.0889ZM184.251 79.5031C182.302 79.5031 180.783 79.0009 179.696 77.9965C178.609 76.9922 178.066 75.6097 178.066 73.8492C178.066 72.6439 178.396 71.5864 179.058 70.6766C179.72 69.7668 180.689 69.0578 181.965 68.5497C183.241 68.0298 184.789 67.7699 186.608 67.7699H189.533V66.157C189.533 65.1409 189.226 64.3315 188.611 63.7289C188.009 63.1262 187.128 62.8249 185.97 62.8249C185.309 62.8249 184.724 62.9077 184.216 63.0731C183.708 63.2267 183.253 63.4512 182.851 63.7466L182.443 66.3343H179.164L179.129 61.602C180.074 60.9876 181.126 60.5031 182.284 60.1486C183.442 59.7824 184.73 59.5992 186.148 59.5992C188.582 59.5992 190.496 60.1723 191.89 61.3184C193.296 62.4527 193.999 64.0833 193.999 66.2102V74.6645C193.999 74.9244 193.999 75.1784 193.999 75.4266C194.011 75.6747 194.029 75.9169 194.052 76.1533L196.002 76.4014V79.1309H190.171C190.053 78.7173 189.941 78.3156 189.834 77.9256C189.74 77.5357 189.669 77.1458 189.622 76.7559C188.983 77.5593 188.21 78.221 187.3 78.7409C186.402 79.249 185.386 79.5031 184.251 79.5031ZM185.261 76.0469C186.159 76.0469 186.998 75.8401 187.778 75.4266C188.558 75.0012 189.143 74.4695 189.533 73.8314V70.6234H186.555C185.22 70.6234 184.21 70.9365 183.525 71.5628C182.851 72.1772 182.514 72.898 182.514 73.7251C182.514 74.4695 182.751 75.0426 183.223 75.4443C183.696 75.846 184.375 76.0469 185.261 76.0469ZM182.231 56.214L179.873 55.6468C179.873 54.8669 180.051 54.1521 180.405 53.5022C180.76 52.8523 181.232 52.3265 181.823 51.9248C182.414 51.523 183.058 51.3222 183.755 51.3222C184.322 51.3222 184.907 51.4699 185.51 51.7653C186.124 52.0489 186.709 52.3383 187.264 52.6337C187.82 52.9173 188.298 53.0591 188.7 53.0591C189.184 53.0591 189.58 52.876 189.887 52.5097C190.206 52.1316 190.366 51.6648 190.366 51.1095L192.723 51.7476C192.723 52.5392 192.546 53.26 192.191 53.9099C191.849 54.5479 191.376 55.0619 190.774 55.4518C190.183 55.8299 189.533 56.019 188.824 56.019C188.221 56.019 187.613 55.8772 186.998 55.5936C186.396 55.2982 185.829 55.0087 185.297 54.7252C184.765 54.4298 184.298 54.2821 183.897 54.2821C183.4 54.2821 182.999 54.4711 182.691 54.8492C182.384 55.2273 182.231 55.6822 182.231 56.214ZM207.133 79.5031C205.289 79.5031 203.706 79.0895 202.383 78.2624C201.059 77.4353 200.043 76.2891 199.334 74.824C198.625 73.347 198.271 71.6514 198.271 69.7372V69.365C198.271 67.4627 198.625 65.7789 199.334 64.3137C200.043 62.8486 201.059 61.6965 202.383 60.8576C203.706 60.0187 205.278 59.5992 207.097 59.5992C208.94 59.5992 210.524 60.0187 211.847 60.8576C213.171 61.6847 214.187 62.8308 214.896 64.296C215.605 65.7612 215.959 67.4509 215.959 69.365V69.7372C215.959 71.6514 215.605 73.347 214.896 74.824C214.187 76.2891 213.171 77.4353 211.847 78.2624C210.536 79.0895 208.964 79.5031 207.133 79.5031ZM207.133 76.0646C208.125 76.0646 208.94 75.7988 209.579 75.2671C210.228 74.7235 210.713 73.9791 211.032 73.0339C211.351 72.0768 211.51 70.9779 211.51 69.7372V69.365C211.51 68.1362 211.351 67.0491 211.032 66.1038C210.713 65.1586 210.228 64.4142 209.579 63.8706C208.929 63.3271 208.102 63.0554 207.097 63.0554C206.116 63.0554 205.301 63.3271 204.651 63.8706C204.001 64.4142 203.517 65.1586 203.198 66.1038C202.891 67.0491 202.737 68.1362 202.737 69.365V69.7372C202.737 70.9779 202.891 72.0768 203.198 73.0339C203.517 73.9791 204.001 74.7235 204.651 75.2671C205.313 75.7988 206.14 76.0646 207.133 76.0646ZM234.853 79.5031C233.305 79.5031 231.981 79.1131 230.883 78.3333C229.784 77.5534 228.939 76.4664 228.348 75.0721C227.769 73.666 227.48 72.0295 227.48 70.1626V69.7904C227.48 67.7463 227.769 65.9621 228.348 64.4378C228.939 62.9136 229.784 61.7261 230.883 60.8753C231.993 60.0246 233.311 59.5992 234.835 59.5992C235.934 59.5992 236.891 59.8119 237.706 60.2373C238.533 60.6508 239.242 61.2475 239.833 62.0274V54.7606L237.015 54.2289V51.4817H239.833H244.3V75.8697L246.958 76.4014V79.1309H240.436L240.081 76.809C239.479 77.6952 238.74 78.3687 237.866 78.8296C237.003 79.2786 235.999 79.5031 234.853 79.5031ZM236.111 75.976C236.962 75.976 237.694 75.7929 238.309 75.4266C238.923 75.0485 239.431 74.5049 239.833 73.796V65.3417C239.443 64.6564 238.935 64.1188 238.309 63.7289C237.694 63.3271 236.974 63.1262 236.147 63.1262C235.178 63.1262 234.38 63.4098 233.754 63.977C233.139 64.5323 232.685 65.3122 232.389 66.3165C232.094 67.3091 231.946 68.467 231.946 69.7904V70.1626C231.946 71.935 232.271 73.347 232.921 74.3986C233.583 75.4502 234.646 75.976 236.111 75.976ZM257.841 79.5031C256.033 79.5031 254.455 79.1013 253.108 78.2978C251.773 77.4825 250.733 76.36 249.989 74.9303C249.256 73.5006 248.89 71.8641 248.89 70.0208V69.2764C248.89 67.4095 249.25 65.7494 249.971 64.296C250.704 62.8308 251.708 61.6847 252.984 60.8576C254.26 60.0187 255.714 59.5992 257.344 59.5992C259.081 59.5992 260.535 59.9478 261.704 60.6449C262.886 61.342 263.778 62.3346 264.381 63.6225C264.983 64.8986 265.285 66.4347 265.285 68.2307V70.7829H253.516L253.48 70.8716C253.528 71.8759 253.734 72.768 254.101 73.5479C254.479 74.3277 255.011 74.9421 255.696 75.3911C256.393 75.8401 257.238 76.0646 258.23 76.0646C259.27 76.0646 260.215 75.9228 261.066 75.6393C261.917 75.3557 262.703 74.9539 263.424 74.434L264.824 77.2344C264.067 77.8725 263.104 78.4101 261.935 78.8473C260.765 79.2845 259.4 79.5031 257.841 79.5031ZM253.587 67.6458H261.013V67.185C261.013 66.3461 260.883 65.6135 260.623 64.9872C260.375 64.3492 259.979 63.8529 259.436 63.4984C258.904 63.144 258.225 62.9667 257.397 62.9667C256.677 62.9667 256.044 63.1676 255.501 63.5693C254.957 63.9711 254.52 64.5205 254.189 65.2177C253.87 65.903 253.652 66.6828 253.534 67.5572L253.587 67.6458ZM276.663 79.1309V76.4014L279.34 75.8697V63.2326L276.521 62.7009V59.9537H283.434L283.646 62.4705C284.273 61.5606 285.052 60.8576 285.986 60.3613C286.931 59.8532 288.024 59.5992 289.265 59.5992C290.517 59.5992 291.587 59.8828 292.473 60.4499C293.371 61.0053 294.05 61.8501 294.511 62.9845C295.102 61.9328 295.876 61.1057 296.833 60.5031C297.802 59.9005 298.936 59.5992 300.236 59.5992C302.162 59.5992 303.674 60.255 304.773 61.5665C305.884 62.8781 306.439 64.8632 306.439 67.5218V75.8697L309.116 76.4014V79.1309H299.456V76.4014L301.973 75.8697V67.504C301.973 65.8853 301.701 64.7509 301.158 64.1011C300.614 63.4512 299.816 63.1262 298.765 63.1262C297.784 63.1262 296.975 63.4394 296.337 64.0656C295.71 64.6919 295.303 65.4894 295.114 66.4583V75.8697L297.542 76.4014V79.1309H288.237V76.4014L290.665 75.8697V67.504C290.665 65.9443 290.387 64.8277 289.832 64.1542C289.277 63.4689 288.473 63.1262 287.422 63.1262C286.547 63.1262 285.809 63.3035 285.206 63.658C284.615 64.0124 284.143 64.5146 283.788 65.1645V75.8697L286.287 76.4014V79.1309H276.663ZM319.945 79.5031C318.137 79.5031 316.56 79.1013 315.213 78.2978C313.877 77.4825 312.838 76.36 312.093 74.9303C311.361 73.5006 310.994 71.8641 310.994 70.0208V69.2764C310.994 67.4095 311.355 65.7494 312.075 64.296C312.808 62.8308 313.812 61.6847 315.088 60.8576C316.365 60.0187 317.818 59.5992 319.449 59.5992C321.185 59.5992 322.639 59.9478 323.809 60.6449C324.99 61.342 325.882 62.3346 326.485 63.6225C327.088 64.8986 327.389 66.4347 327.389 68.2307V70.7829H315.62L315.585 70.8716C315.632 71.8759 315.839 72.768 316.205 73.5479C316.583 74.3277 317.115 74.9421 317.8 75.3911C318.497 75.8401 319.342 76.0646 320.335 76.0646C321.375 76.0646 322.32 75.9228 323.171 75.6393C324.021 75.3557 324.807 74.9539 325.528 74.434L326.928 77.2344C326.172 77.8725 325.209 78.4101 324.039 78.8473C322.869 79.2845 321.504 79.5031 319.945 79.5031ZM315.691 67.6458H323.117V67.185C323.117 66.3461 322.987 65.6135 322.727 64.9872C322.479 64.3492 322.083 63.8529 321.54 63.4984C321.008 63.144 320.329 62.9667 319.502 62.9667C318.781 62.9667 318.149 63.1676 317.605 63.5693C317.062 63.9711 316.625 64.5205 316.294 65.2177C315.975 65.903 315.756 66.6828 315.638 67.5572L315.691 67.6458ZM337.137 79.4676C335.506 79.4676 334.236 79.0127 333.326 78.1029C332.416 77.1812 331.962 75.7161 331.962 73.7074V63.144H329.161V59.9537H331.962V55.2923H336.41V59.9537H340.203V63.144H336.41V73.7074C336.41 74.5227 336.576 75.1194 336.906 75.4975C337.249 75.8638 337.71 76.0469 338.289 76.0469C338.62 76.0469 338.986 76.0174 339.388 75.9583C339.801 75.8992 340.132 75.8401 340.38 75.7811L340.841 78.9182C340.321 79.0718 339.725 79.2018 339.051 79.3081C338.389 79.4144 337.751 79.4676 337.137 79.4676ZM349.26 79.5031C347.31 79.5031 345.792 79.0009 344.705 77.9965C343.618 76.9922 343.074 75.6097 343.074 73.8492C343.074 72.6439 343.405 71.5864 344.067 70.6766C344.729 69.7668 345.697 69.0578 346.974 68.5497C348.25 68.0298 349.798 67.7699 351.617 67.7699H354.542V66.157C354.542 65.1409 354.234 64.3315 353.62 63.7289C353.017 63.1262 352.137 62.8249 350.979 62.8249C350.318 62.8249 349.733 62.9077 349.225 63.0731C348.716 63.2267 348.262 63.4512 347.86 63.7466L347.452 66.3343H344.173L344.138 61.602C345.083 60.9876 346.135 60.5031 347.293 60.1486C348.451 59.7824 349.739 59.5992 351.156 59.5992C353.591 59.5992 355.505 60.1723 356.899 61.3184C358.305 62.4527 359.008 64.0833 359.008 66.2102V74.6645C359.008 74.9244 359.008 75.1784 359.008 75.4266C359.02 75.6747 359.038 75.9169 359.061 76.1533L361.011 76.4014V79.1309H355.18C355.062 78.7173 354.949 78.3156 354.843 77.9256C354.748 77.5357 354.678 77.1458 354.63 76.7559C353.992 77.5593 353.218 78.221 352.308 78.7409C351.41 79.249 350.394 79.5031 349.26 79.5031ZM350.27 76.0469C351.168 76.0469 352.007 75.8401 352.787 75.4266C353.567 75.0012 354.152 74.4695 354.542 73.8314V70.6234H351.564C350.229 70.6234 349.219 70.9365 348.533 71.5628C347.86 72.1772 347.523 72.898 347.523 73.7251C347.523 74.4695 347.759 75.0426 348.232 75.4443C348.705 75.846 349.384 76.0469 350.27 76.0469Z" fill="#2C2C2C"/>
<rect width="219.605" height="18.1492" transform="matrix(-1 0 0 1 469.68 187.205)" fill="#F45197"/>
<rect width="219.605" height="18.1492" transform="matrix(-1 0 0 1 689.285 187.204)" fill="#0567FF"/>
<rect width="219.605" height="18.1492" transform="matrix(-1 0 0 1 908.891 187.204)" fill="#3E9A00"/>
<line x1="252.071" y1="202.329" x2="252.071" y2="215.325" stroke="#CACACA" stroke-width="3.62984"/>
<line x1="582.227" y1="202.265" x2="582.227" y2="215.261" stroke="#CACACA" stroke-width="3.62984"/>
<line x1="908.258" y1="202.233" x2="908.258" y2="215.229" stroke="#CACACA" stroke-width="3.62984"/>
<path d="M559.356 239.6H556.432L556.449 238.67H559.356C560.283 238.67 561.081 238.463 561.749 238.05C562.422 237.63 562.942 237.051 563.308 236.313C563.675 235.574 563.858 234.717 563.858 233.743V232.537C563.858 231.793 563.751 231.119 563.539 230.517C563.332 229.914 563.034 229.4 562.644 228.975C562.254 228.544 561.787 228.213 561.244 227.982C560.706 227.752 560.103 227.637 559.436 227.637H556.378V226.697H559.436C560.239 226.697 560.975 226.836 561.642 227.114C562.316 227.386 562.898 227.782 563.388 228.301C563.884 228.815 564.265 229.433 564.531 230.154C564.803 230.874 564.939 231.678 564.939 232.564V233.743C564.939 234.629 564.803 235.432 564.531 236.153C564.265 236.874 563.884 237.491 563.388 238.005C562.892 238.519 562.304 238.915 561.625 239.193C560.945 239.464 560.189 239.6 559.356 239.6ZM556.919 226.697V239.6H555.829V226.697H556.919ZM571.178 239.778C570.551 239.778 569.975 239.662 569.45 239.432C568.93 239.202 568.475 238.877 568.085 238.457C567.701 238.038 567.403 237.541 567.19 236.968C566.983 236.389 566.88 235.757 566.88 235.072V234.691C566.88 233.952 566.989 233.285 567.208 232.688C567.426 232.091 567.728 231.58 568.112 231.155C568.496 230.73 568.933 230.405 569.423 230.18C569.919 229.95 570.439 229.835 570.983 229.835C571.591 229.835 572.132 229.944 572.605 230.162C573.077 230.375 573.473 230.679 573.792 231.075C574.117 231.465 574.362 231.929 574.528 232.467C574.693 232.998 574.776 233.586 574.776 234.23V234.877H567.518V233.973H573.721V233.849C573.709 233.311 573.6 232.809 573.393 232.342C573.192 231.87 572.891 231.486 572.489 231.19C572.088 230.895 571.585 230.747 570.983 230.747C570.534 230.747 570.12 230.842 569.742 231.031C569.37 231.22 569.048 231.492 568.776 231.846C568.51 232.195 568.304 232.611 568.156 233.096C568.014 233.574 567.943 234.106 567.943 234.691V235.072C567.943 235.604 568.02 236.1 568.174 236.561C568.333 237.016 568.558 237.417 568.847 237.766C569.142 238.114 569.491 238.386 569.893 238.581C570.295 238.776 570.738 238.874 571.222 238.874C571.789 238.874 572.291 238.77 572.729 238.563C573.166 238.351 573.559 238.017 573.907 237.562L574.572 238.076C574.365 238.383 574.105 238.667 573.792 238.927C573.485 239.187 573.116 239.394 572.684 239.547C572.253 239.701 571.751 239.778 571.178 239.778ZM577.922 232.059V239.6H576.867V230.012H577.877L577.922 232.059ZM577.682 234.212L577.213 233.946C577.248 233.379 577.363 232.848 577.558 232.351C577.753 231.855 578.016 231.418 578.347 231.04C578.684 230.662 579.077 230.366 579.526 230.154C579.981 229.941 580.483 229.835 581.032 229.835C581.511 229.835 581.939 229.9 582.317 230.029C582.695 230.159 583.017 230.366 583.283 230.65C583.549 230.933 583.75 231.297 583.886 231.74C584.028 232.183 584.098 232.723 584.098 233.362V239.6H583.035V233.353C583.035 232.691 582.943 232.174 582.76 231.802C582.577 231.424 582.317 231.155 581.98 230.995C581.644 230.836 581.245 230.756 580.784 230.756C580.276 230.756 579.83 230.868 579.446 231.093C579.068 231.311 578.749 231.598 578.489 231.953C578.235 232.301 578.04 232.676 577.904 233.078C577.768 233.474 577.694 233.852 577.682 234.212ZM590.47 230.012V230.88H585.667V230.012H590.47ZM587.43 227.548H588.485V237.27C588.485 237.713 588.544 238.047 588.662 238.271C588.78 238.496 588.934 238.646 589.123 238.723C589.312 238.8 589.516 238.838 589.735 238.838C589.894 238.838 590.048 238.829 590.195 238.812C590.343 238.788 590.476 238.764 590.594 238.741L590.638 239.636C590.509 239.677 590.34 239.71 590.133 239.733C589.927 239.763 589.72 239.778 589.513 239.778C589.105 239.778 588.745 239.704 588.432 239.556C588.119 239.402 587.874 239.142 587.696 238.776C587.519 238.404 587.43 237.899 587.43 237.261V227.548ZM593.749 231.598V239.6H592.694V230.012H593.722L593.749 231.598ZM597.143 229.941L597.117 230.916C596.998 230.898 596.883 230.883 596.771 230.871C596.659 230.86 596.538 230.854 596.408 230.854C595.947 230.854 595.542 230.939 595.194 231.111C594.851 231.276 594.561 231.509 594.325 231.811C594.089 232.106 593.909 232.455 593.784 232.856C593.66 233.252 593.59 233.678 593.572 234.133L593.182 234.283C593.182 233.657 593.247 233.075 593.377 232.537C593.507 232 593.705 231.53 593.971 231.128C594.242 230.721 594.582 230.405 594.99 230.18C595.403 229.95 595.888 229.835 596.443 229.835C596.579 229.835 596.712 229.846 596.842 229.87C596.978 229.888 597.078 229.911 597.143 229.941ZM598.047 234.957V234.664C598.047 233.967 598.147 233.323 598.348 232.732C598.549 232.142 598.836 231.631 599.208 231.199C599.586 230.768 600.038 230.434 600.564 230.198C601.09 229.956 601.675 229.835 602.318 229.835C602.968 229.835 603.556 229.956 604.082 230.198C604.608 230.434 605.06 230.768 605.438 231.199C605.816 231.631 606.105 232.142 606.306 232.732C606.507 233.323 606.608 233.967 606.608 234.664V234.957C606.608 235.654 606.507 236.298 606.306 236.889C606.105 237.473 605.816 237.982 605.438 238.413C605.066 238.844 604.617 239.181 604.091 239.423C603.565 239.659 602.98 239.778 602.336 239.778C601.686 239.778 601.099 239.659 600.573 239.423C600.047 239.181 599.595 238.844 599.217 238.413C598.839 237.982 598.549 237.473 598.348 236.889C598.147 236.298 598.047 235.654 598.047 234.957ZM599.102 234.664V234.957C599.102 235.483 599.173 235.982 599.314 236.454C599.456 236.921 599.663 237.338 599.935 237.704C600.206 238.064 600.543 238.348 600.945 238.555C601.347 238.761 601.81 238.865 602.336 238.865C602.856 238.865 603.314 238.761 603.71 238.555C604.112 238.348 604.448 238.064 604.72 237.704C604.992 237.338 605.196 236.921 605.332 236.454C605.473 235.982 605.544 235.483 605.544 234.957V234.664C605.544 234.144 605.473 233.651 605.332 233.184C605.196 232.718 604.989 232.301 604.711 231.935C604.439 231.568 604.103 231.279 603.701 231.066C603.299 230.854 602.838 230.747 602.318 230.747C601.799 230.747 601.338 230.854 600.936 231.066C600.54 231.279 600.203 231.568 599.926 231.935C599.654 232.301 599.447 232.718 599.305 233.184C599.17 233.651 599.102 234.144 599.102 234.664Z" fill="#2C2C2C"/>
<path d="M887.432 227.468L882.966 239.6H881.831L886.705 226.697H887.494L887.432 227.468ZM891.491 239.6L887.016 227.468L886.954 226.697H887.742L892.625 239.6H891.491ZM890.693 235.045V235.985H883.843V235.045H890.693ZM897.827 238.865C898.276 238.865 898.696 238.782 899.086 238.617C899.481 238.445 899.806 238.194 900.06 237.863C900.32 237.527 900.468 237.116 900.503 236.632H901.514C901.484 237.24 901.298 237.784 900.955 238.262C900.619 238.735 900.176 239.107 899.626 239.379C899.083 239.645 898.483 239.778 897.827 239.778C897.16 239.778 896.569 239.656 896.055 239.414C895.547 239.172 895.121 238.835 894.779 238.404C894.436 237.967 894.176 237.459 893.999 236.88C893.827 236.295 893.742 235.666 893.742 234.992V234.62C893.742 233.946 893.827 233.32 893.999 232.741C894.176 232.156 894.436 231.648 894.779 231.217C895.121 230.78 895.547 230.44 896.055 230.198C896.563 229.956 897.151 229.835 897.818 229.835C898.504 229.835 899.118 229.973 899.662 230.251C900.211 230.529 900.648 230.922 900.973 231.43C901.304 231.938 901.484 232.54 901.514 233.237H900.503C900.474 232.723 900.338 232.28 900.096 231.908C899.854 231.536 899.535 231.249 899.139 231.049C898.743 230.848 898.303 230.747 897.818 230.747C897.275 230.747 896.811 230.854 896.427 231.066C896.043 231.273 895.73 231.56 895.488 231.926C895.251 232.286 895.077 232.7 894.965 233.167C894.852 233.627 894.796 234.112 894.796 234.62V234.992C894.796 235.506 894.85 235.996 894.956 236.463C895.068 236.924 895.242 237.335 895.479 237.695C895.721 238.055 896.034 238.342 896.418 238.555C896.808 238.761 897.278 238.865 897.827 238.865ZM904.828 230.012V239.6H903.773V230.012H904.828ZM903.587 227.238C903.587 227.037 903.649 226.869 903.773 226.733C903.903 226.591 904.081 226.52 904.305 226.52C904.53 226.52 904.707 226.591 904.837 226.733C904.973 226.869 905.041 227.037 905.041 227.238C905.041 227.433 904.973 227.601 904.837 227.743C904.707 227.879 904.53 227.947 904.305 227.947C904.081 227.947 903.903 227.879 903.773 227.743C903.649 227.601 903.587 227.433 903.587 227.238ZM908.727 231.997V239.6H907.664V230.012H908.683L908.727 231.997ZM908.532 234.212L908.018 233.946C908.054 233.379 908.16 232.848 908.337 232.351C908.52 231.855 908.775 231.418 909.099 231.04C909.424 230.662 909.814 230.366 910.269 230.154C910.724 229.941 911.241 229.835 911.82 229.835C912.287 229.835 912.709 229.9 913.087 230.029C913.471 230.154 913.796 230.351 914.062 230.623C914.334 230.889 914.544 231.238 914.691 231.669C914.839 232.1 914.913 232.617 914.913 233.22V239.6H913.858V233.255C913.858 232.617 913.758 232.118 913.557 231.758C913.362 231.397 913.087 231.14 912.733 230.987C912.384 230.833 911.98 230.756 911.519 230.756C910.975 230.756 910.514 230.868 910.136 231.093C909.764 231.311 909.46 231.598 909.224 231.953C908.993 232.301 908.822 232.676 908.71 233.078C908.597 233.474 908.538 233.852 908.532 234.212ZM914.904 233.379L914.195 233.397C914.225 232.93 914.331 232.484 914.514 232.059C914.703 231.633 914.96 231.255 915.285 230.925C915.61 230.588 915.997 230.322 916.446 230.127C916.901 229.932 917.412 229.835 917.979 229.835C918.475 229.835 918.918 229.902 919.308 230.038C919.698 230.168 920.026 230.378 920.292 230.668C920.564 230.951 920.771 231.314 920.912 231.758C921.054 232.201 921.125 232.732 921.125 233.353V239.6H920.062V233.344C920.062 232.664 919.961 232.139 919.76 231.766C919.565 231.388 919.294 231.125 918.945 230.978C918.596 230.83 918.189 230.756 917.722 230.756C917.261 230.762 916.857 230.848 916.508 231.013C916.159 231.173 915.867 231.385 915.631 231.651C915.4 231.911 915.223 232.192 915.099 232.493C914.981 232.794 914.916 233.09 914.904 233.379ZM929.65 237.881V232.936C929.65 232.481 929.556 232.088 929.367 231.758C929.178 231.427 928.9 231.173 928.534 230.995C928.167 230.818 927.715 230.73 927.178 230.73C926.681 230.73 926.238 230.818 925.848 230.995C925.464 231.167 925.16 231.4 924.936 231.696C924.717 231.985 924.608 232.307 924.608 232.661L923.544 232.653C923.544 232.292 923.633 231.944 923.81 231.607C923.987 231.27 924.239 230.969 924.564 230.703C924.888 230.437 925.275 230.227 925.724 230.074C926.179 229.914 926.679 229.835 927.222 229.835C927.907 229.835 928.51 229.95 929.03 230.18C929.556 230.411 929.966 230.756 930.262 231.217C930.557 231.678 930.705 232.257 930.705 232.954V237.589C930.705 237.92 930.728 238.262 930.776 238.617C930.829 238.971 930.903 239.264 930.997 239.494V239.6H929.872C929.801 239.388 929.745 239.122 929.703 238.803C929.668 238.478 929.65 238.171 929.65 237.881ZM929.898 234.017L929.916 234.833H927.834C927.29 234.833 926.803 234.883 926.371 234.983C925.946 235.078 925.586 235.22 925.29 235.409C924.995 235.592 924.767 235.813 924.608 236.073C924.454 236.333 924.377 236.629 924.377 236.959C924.377 237.302 924.463 237.615 924.634 237.899C924.812 238.182 925.06 238.41 925.379 238.581C925.704 238.747 926.088 238.829 926.531 238.829C927.122 238.829 927.642 238.72 928.091 238.501C928.545 238.283 928.921 237.996 929.216 237.642C929.511 237.287 929.709 236.9 929.81 236.481L930.271 237.092C930.194 237.388 930.052 237.692 929.845 238.005C929.644 238.312 929.381 238.602 929.056 238.874C928.732 239.14 928.348 239.358 927.904 239.529C927.467 239.695 926.971 239.778 926.416 239.778C925.789 239.778 925.243 239.659 924.776 239.423C924.315 239.187 923.955 238.865 923.695 238.457C923.441 238.044 923.314 237.577 923.314 237.057C923.314 236.584 923.414 236.162 923.615 235.79C923.816 235.412 924.106 235.093 924.484 234.833C924.868 234.567 925.329 234.366 925.866 234.23C926.41 234.088 927.018 234.017 927.692 234.017H929.898Z" fill="#2C2C2C"/>
<path d="M232.647 227.468L228.181 239.6H227.046L231.92 226.697H232.709L232.647 227.468ZM236.706 239.6L232.23 227.468L232.168 226.697H232.957L237.84 239.6H236.706ZM235.908 235.045V235.985H229.058V235.045H235.908ZM239.488 225.988H240.552V237.739L240.481 239.6H239.488V225.988ZM247.225 234.717V234.904C247.225 235.618 247.142 236.274 246.977 236.871C246.811 237.468 246.572 237.985 246.259 238.422C245.946 238.853 245.562 239.187 245.107 239.423C244.658 239.659 244.141 239.778 243.556 239.778C242.983 239.778 242.475 239.689 242.032 239.512C241.589 239.329 241.21 239.072 240.897 238.741C240.584 238.404 240.333 238.011 240.144 237.562C239.955 237.107 239.822 236.608 239.745 236.064V233.698C239.834 233.119 239.976 232.594 240.171 232.121C240.366 231.648 240.617 231.241 240.924 230.898C241.237 230.555 241.609 230.292 242.041 230.109C242.478 229.926 242.977 229.835 243.538 229.835C244.123 229.835 244.643 229.95 245.098 230.18C245.559 230.405 245.946 230.733 246.259 231.164C246.572 231.589 246.811 232.103 246.977 232.706C247.142 233.302 247.225 233.973 247.225 234.717ZM246.152 234.904V234.717C246.152 234.156 246.099 233.636 245.993 233.158C245.887 232.679 245.718 232.263 245.488 231.908C245.263 231.548 244.974 231.267 244.619 231.066C244.265 230.865 243.84 230.765 243.343 230.765C242.835 230.765 242.401 230.851 242.041 231.022C241.686 231.187 241.391 231.409 241.154 231.687C240.924 231.958 240.741 232.257 240.605 232.582C240.469 232.907 240.369 233.226 240.304 233.539V236.295C240.404 236.738 240.578 237.154 240.826 237.544C241.075 237.934 241.408 238.25 241.828 238.493C242.247 238.729 242.758 238.847 243.361 238.847C243.845 238.847 244.262 238.747 244.611 238.546C244.965 238.345 245.254 238.067 245.479 237.713C245.709 237.358 245.878 236.942 245.984 236.463C246.096 235.985 246.152 235.465 246.152 234.904ZM255.404 237.881V232.936C255.404 232.481 255.31 232.088 255.121 231.758C254.932 231.427 254.654 231.173 254.288 230.995C253.921 230.818 253.469 230.73 252.932 230.73C252.436 230.73 251.992 230.818 251.603 230.995C251.219 231.167 250.914 231.4 250.69 231.696C250.471 231.985 250.362 232.307 250.362 232.661L249.298 232.653C249.298 232.292 249.387 231.944 249.564 231.607C249.742 231.27 249.993 230.969 250.318 230.703C250.643 230.437 251.029 230.227 251.478 230.074C251.933 229.914 252.433 229.835 252.976 229.835C253.661 229.835 254.264 229.95 254.784 230.18C255.31 230.411 255.72 230.756 256.016 231.217C256.311 231.678 256.459 232.257 256.459 232.954V237.589C256.459 237.92 256.483 238.262 256.53 238.617C256.583 238.971 256.657 239.264 256.751 239.494V239.6H255.626C255.555 239.388 255.499 239.122 255.457 238.803C255.422 238.478 255.404 238.171 255.404 237.881ZM255.652 234.017L255.67 234.833H253.588C253.044 234.833 252.557 234.883 252.125 234.983C251.7 235.078 251.34 235.22 251.044 235.409C250.749 235.592 250.521 235.813 250.362 236.073C250.208 236.333 250.131 236.629 250.131 236.959C250.131 237.302 250.217 237.615 250.388 237.899C250.566 238.182 250.814 238.41 251.133 238.581C251.458 238.747 251.842 238.829 252.285 238.829C252.876 238.829 253.396 238.72 253.845 238.501C254.3 238.283 254.675 237.996 254.97 237.642C255.265 237.287 255.463 236.9 255.564 236.481L256.025 237.092C255.948 237.388 255.806 237.692 255.599 238.005C255.398 238.312 255.136 238.602 254.811 238.874C254.486 239.14 254.102 239.358 253.659 239.529C253.221 239.695 252.725 239.778 252.17 239.778C251.543 239.778 250.997 239.659 250.53 239.423C250.069 239.187 249.709 238.865 249.449 238.457C249.195 238.044 249.068 237.577 249.068 237.057C249.068 236.584 249.168 236.162 249.369 235.79C249.57 235.412 249.86 235.093 250.238 234.833C250.622 234.567 251.083 234.366 251.62 234.23C252.164 234.088 252.772 234.017 253.446 234.017H255.652ZM260.482 230.012V239.6H259.428V230.012H260.482ZM259.242 227.238C259.242 227.037 259.304 226.869 259.428 226.733C259.558 226.591 259.735 226.52 259.959 226.52C260.184 226.52 260.361 226.591 260.491 226.733C260.627 226.869 260.695 227.037 260.695 227.238C260.695 227.433 260.627 227.601 260.491 227.743C260.361 227.879 260.184 227.947 259.959 227.947C259.735 227.947 259.558 227.879 259.428 227.743C259.304 227.601 259.242 227.433 259.242 227.238ZM263.797 230.012L266.384 233.884L268.981 230.012H270.239L266.987 234.709L270.372 239.6H269.131L266.393 235.55L263.664 239.6H262.423L265.808 234.709L262.556 230.012H263.797ZM271.462 234.957V234.664C271.462 233.967 271.563 233.323 271.763 232.732C271.964 232.142 272.251 231.631 272.623 231.199C273.001 230.768 273.453 230.434 273.979 230.198C274.505 229.956 275.09 229.835 275.734 229.835C276.383 229.835 276.971 229.956 277.497 230.198C278.023 230.434 278.475 230.768 278.853 231.199C279.231 231.631 279.521 232.142 279.721 232.732C279.922 233.323 280.023 233.967 280.023 234.664V234.957C280.023 235.654 279.922 236.298 279.721 236.889C279.521 237.473 279.231 237.982 278.853 238.413C278.481 238.844 278.032 239.181 277.506 239.423C276.98 239.659 276.395 239.778 275.751 239.778C275.101 239.778 274.514 239.659 273.988 239.423C273.462 239.181 273.01 238.844 272.632 238.413C272.254 237.982 271.964 237.473 271.763 236.889C271.563 236.298 271.462 235.654 271.462 234.957ZM272.517 234.664V234.957C272.517 235.483 272.588 235.982 272.729 236.454C272.871 236.921 273.078 237.338 273.35 237.704C273.621 238.064 273.958 238.348 274.36 238.555C274.762 238.761 275.225 238.865 275.751 238.865C276.271 238.865 276.729 238.761 277.125 238.555C277.527 238.348 277.863 238.064 278.135 237.704C278.407 237.338 278.611 236.921 278.747 236.454C278.888 235.982 278.959 235.483 278.959 234.957V234.664C278.959 234.144 278.888 233.651 278.747 233.184C278.611 232.718 278.404 232.301 278.126 231.935C277.855 231.568 277.518 231.279 277.116 231.066C276.714 230.854 276.253 230.747 275.734 230.747C275.214 230.747 274.753 230.854 274.351 231.066C273.955 231.279 273.619 231.568 273.341 231.935C273.069 232.301 272.862 232.718 272.721 233.184C272.585 233.651 272.517 234.144 272.517 234.664Z" fill="#2C2C2C"/>
<rect width="219.605" height="54.4476" transform="matrix(-1 0 0 1 469.68 335.785)" fill="#F45197"/>
<rect width="219.605" height="54.4476" transform="matrix(-1 0 0 1 689.285 335.785)" fill="#0567FF"/>
<rect width="219.605" height="54.4476" transform="matrix(-1 0 0 1 908.891 335.785)" fill="#3E9A00"/>
<rect width="139.266" height="54.4476" transform="matrix(-1 0 0 1 505.314 480.734)" fill="#F45197"/>
<rect width="139.266" height="54.4476" transform="matrix(-1 0 0 1 644.584 480.734)" fill="#0567FF"/>
<rect width="265.715" height="54.4476" transform="matrix(-1 0 0 1 908.891 480.734)" fill="#3E9A00"/>
<rect width="138.057" height="54.4476" transform="matrix(-1 0 0 1 450.654 625.683)" fill="#F45197"/>
<rect width="259.062" height="54.4476" transform="matrix(-1 0 0 1 710.717 625.683)" fill="#0567FF"/>
<rect width="139.103" height="54.4476" transform="matrix(-1 0 0 1 849.826 625.683)" fill="#3E9A00"/>
</svg>
