<svg width="1000" height="721" viewBox="0 0 1000 721" fill="none" xmlns="http://www.w3.org/2000/svg">
<rect x="2.69187" y="1.91453" width="994.576" height="716.65" stroke="#CACACA" stroke-width="3.62984"/>
<line y1="-1.81492" x2="735.852" y2="-1.81492" transform="matrix(1 -0.000460047 0.00131689 0.999999 192.406 572.152)" stroke="#606060" stroke-width="3.62984"/>
<line y1="-1.81492" x2="735.852" y2="-1.81492" transform="matrix(1 -0.000460047 0.00131689 0.999999 192.406 481.069)" stroke="#CACACA" stroke-width="3.62984"/>
<line y1="-1.81492" x2="735.852" y2="-1.81492" transform="matrix(1 -0.000460047 0.00131689 0.999999 192.41 389.984)" stroke="#CACACA" stroke-width="3.62984"/>
<line y1="-1.81492" x2="735.852" y2="-1.81492" transform="matrix(1 -0.00046091 0.00131442 0.999999 192.41 298.898)" stroke="#CACACA" stroke-width="3.62984"/>
<line y1="-1.81492" x2="735.852" y2="-1.81492" transform="matrix(1 -0.000591904 0.00102353 0.999999 192.406 207.815)" stroke="#CACACA" stroke-width="3.62984"/>
<path d="M170.777 568.99V571.744C170.777 573.225 170.645 574.474 170.38 575.491C170.115 576.508 169.735 577.327 169.239 577.948C168.742 578.568 168.143 579.019 167.44 579.3C166.745 579.573 165.959 579.709 165.082 579.709C164.388 579.709 163.747 579.622 163.159 579.449C162.572 579.275 162.043 578.998 161.571 578.618C161.108 578.229 160.711 577.724 160.38 577.104C160.049 576.484 159.797 575.731 159.623 574.846C159.45 573.961 159.363 572.927 159.363 571.744V568.99C159.363 567.509 159.495 566.269 159.76 565.268C160.033 564.267 160.417 563.465 160.914 562.861C161.41 562.249 162.005 561.811 162.7 561.546C163.403 561.281 164.189 561.149 165.057 561.149C165.761 561.149 166.406 561.236 166.993 561.409C167.588 561.575 168.118 561.844 168.581 562.216C169.044 562.58 169.437 563.068 169.76 563.68C170.09 564.284 170.343 565.024 170.516 565.901C170.69 566.777 170.777 567.807 170.777 568.99ZM168.469 572.116V568.605C168.469 567.795 168.42 567.083 168.32 566.471C168.229 565.851 168.093 565.322 167.911 564.883C167.729 564.445 167.497 564.089 167.216 563.816C166.943 563.543 166.625 563.345 166.261 563.221C165.905 563.089 165.504 563.022 165.057 563.022C164.512 563.022 164.028 563.126 163.606 563.333C163.184 563.531 162.828 563.849 162.539 564.288C162.258 564.726 162.043 565.301 161.894 566.012C161.745 566.724 161.67 567.588 161.67 568.605V572.116C161.67 572.927 161.716 573.642 161.807 574.263C161.906 574.883 162.051 575.421 162.241 575.876C162.431 576.322 162.663 576.69 162.936 576.98C163.209 577.269 163.523 577.484 163.879 577.625C164.243 577.757 164.644 577.824 165.082 577.824C165.645 577.824 166.137 577.716 166.559 577.501C166.981 577.286 167.332 576.951 167.613 576.496C167.903 576.033 168.118 575.441 168.258 574.722C168.399 573.994 168.469 573.126 168.469 572.116Z" fill="#606060"/>
<path d="M145.99 487.189V489.074H134.167V487.424L140.085 480.836C140.813 480.026 141.375 479.339 141.772 478.777C142.178 478.206 142.459 477.698 142.616 477.251C142.781 476.796 142.864 476.333 142.864 475.861C142.864 475.266 142.74 474.728 142.492 474.248C142.252 473.76 141.896 473.372 141.425 473.082C140.953 472.793 140.383 472.648 139.713 472.648C138.91 472.648 138.24 472.805 137.703 473.119C137.173 473.426 136.776 473.856 136.512 474.41C136.247 474.964 136.115 475.601 136.115 476.32H133.82C133.82 475.303 134.043 474.373 134.489 473.529C134.936 472.685 135.598 472.015 136.475 471.519C137.351 471.014 138.431 470.762 139.713 470.762C140.854 470.762 141.83 470.965 142.641 471.37C143.451 471.767 144.072 472.33 144.502 473.057C144.94 473.777 145.159 474.621 145.159 475.588C145.159 476.118 145.068 476.655 144.886 477.201C144.713 477.739 144.469 478.277 144.154 478.814C143.848 479.352 143.488 479.881 143.075 480.402C142.67 480.923 142.235 481.436 141.772 481.941L136.934 487.189H145.99ZM151.35 480.477L149.514 480.005L150.42 471.01H159.687V473.132H152.368L151.822 478.045C152.152 477.855 152.57 477.677 153.075 477.511C153.588 477.346 154.175 477.263 154.836 477.263C155.672 477.263 156.42 477.408 157.082 477.698C157.744 477.979 158.306 478.384 158.769 478.913C159.241 479.443 159.601 480.08 159.849 480.824C160.097 481.568 160.221 482.4 160.221 483.318C160.221 484.186 160.101 484.984 159.861 485.712C159.63 486.44 159.278 487.077 158.807 487.623C158.335 488.161 157.74 488.578 157.02 488.876C156.309 489.174 155.469 489.323 154.501 489.323C153.774 489.323 153.083 489.223 152.43 489.025C151.784 488.818 151.205 488.508 150.693 488.094C150.188 487.673 149.775 487.151 149.452 486.531C149.138 485.902 148.939 485.166 148.856 484.323H151.04C151.139 485.001 151.338 485.572 151.636 486.035C151.933 486.498 152.322 486.85 152.802 487.089C153.29 487.321 153.856 487.437 154.501 487.437C155.047 487.437 155.531 487.342 155.953 487.151C156.375 486.961 156.731 486.688 157.02 486.333C157.31 485.977 157.529 485.547 157.678 485.042C157.835 484.538 157.913 483.971 157.913 483.343C157.913 482.772 157.835 482.243 157.678 481.755C157.52 481.267 157.285 480.841 156.97 480.477C156.664 480.113 156.288 479.831 155.841 479.633C155.395 479.426 154.882 479.323 154.303 479.323C153.534 479.323 152.951 479.426 152.554 479.633C152.165 479.84 151.764 480.121 151.35 480.477ZM165.73 471.01V489.074H163.335V471.01H165.73ZM176.635 471.01L169.129 479.434L164.911 483.814L164.514 481.258L167.69 477.76L173.757 471.01H176.635ZM174.327 489.074L167.64 480.266L169.067 478.368L177.181 489.074H174.327Z" fill="#606060"/>
<path d="M137.058 389.129L135.221 388.658L136.127 379.663H145.395V381.784H138.075L137.529 386.698C137.86 386.507 138.278 386.329 138.782 386.164C139.295 385.999 139.882 385.916 140.544 385.916C141.379 385.916 142.128 386.061 142.79 386.35C143.451 386.631 144.014 387.037 144.477 387.566C144.948 388.095 145.308 388.732 145.556 389.477C145.804 390.221 145.928 391.052 145.928 391.97C145.928 392.839 145.809 393.637 145.569 394.365C145.337 395.093 144.986 395.73 144.514 396.275C144.043 396.813 143.447 397.231 142.728 397.529C142.016 397.826 141.177 397.975 140.209 397.975C139.481 397.975 138.79 397.876 138.137 397.677C137.492 397.471 136.913 397.16 136.4 396.747C135.896 396.325 135.482 395.804 135.159 395.184C134.845 394.555 134.647 393.819 134.564 392.975H136.748C136.847 393.654 137.045 394.224 137.343 394.687C137.641 395.151 138.03 395.502 138.509 395.742C138.997 395.974 139.564 396.089 140.209 396.089C140.755 396.089 141.239 395.994 141.661 395.804C142.082 395.614 142.438 395.341 142.728 394.985C143.017 394.63 143.236 394.199 143.385 393.695C143.542 393.19 143.621 392.624 143.621 391.995C143.621 391.424 143.542 390.895 143.385 390.407C143.228 389.919 142.992 389.493 142.678 389.129C142.372 388.765 141.996 388.484 141.549 388.286C141.102 388.079 140.589 387.975 140.01 387.975C139.241 387.975 138.658 388.079 138.261 388.286C137.872 388.492 137.471 388.774 137.058 389.129ZM159.787 387.256V390.01C159.787 391.491 159.654 392.74 159.39 393.757C159.125 394.774 158.745 395.593 158.248 396.213C157.752 396.834 157.152 397.285 156.449 397.566C155.755 397.839 154.969 397.975 154.092 397.975C153.397 397.975 152.756 397.888 152.169 397.715C151.582 397.541 151.052 397.264 150.581 396.883C150.118 396.495 149.721 395.99 149.39 395.37C149.059 394.749 148.807 393.997 148.633 393.112C148.459 392.227 148.373 391.193 148.373 390.01V387.256C148.373 385.775 148.505 384.535 148.77 383.534C149.043 382.533 149.427 381.731 149.923 381.127C150.42 380.515 151.015 380.076 151.71 379.812C152.413 379.547 153.199 379.415 154.067 379.415C154.77 379.415 155.415 379.502 156.003 379.675C156.598 379.841 157.128 380.11 157.591 380.482C158.054 380.846 158.447 381.334 158.769 381.946C159.1 382.55 159.352 383.29 159.526 384.167C159.7 385.043 159.787 386.073 159.787 387.256ZM157.479 390.382V386.871C157.479 386.061 157.429 385.349 157.33 384.737C157.239 384.117 157.103 383.588 156.921 383.149C156.739 382.711 156.507 382.355 156.226 382.082C155.953 381.809 155.635 381.611 155.271 381.487C154.915 381.354 154.514 381.288 154.067 381.288C153.521 381.288 153.037 381.392 152.616 381.598C152.194 381.797 151.838 382.115 151.549 382.554C151.267 382.992 151.052 383.567 150.904 384.278C150.755 384.99 150.68 385.854 150.68 386.871V390.382C150.68 391.193 150.726 391.908 150.817 392.529C150.916 393.149 151.061 393.687 151.251 394.142C151.441 394.588 151.673 394.956 151.946 395.246C152.219 395.535 152.533 395.75 152.889 395.891C153.253 396.023 153.654 396.089 154.092 396.089C154.654 396.089 155.147 395.982 155.568 395.767C155.99 395.552 156.342 395.217 156.623 394.762C156.912 394.299 157.128 393.707 157.268 392.988C157.409 392.26 157.479 391.391 157.479 390.382ZM165.73 379.663V397.727H163.335V379.663H165.73ZM176.635 379.663L169.129 388.087L164.911 392.467L164.514 389.911L167.69 386.412L173.757 379.663H176.635ZM174.327 397.727L167.64 388.918L169.067 387.02L177.181 397.727H174.327Z" fill="#606060"/>
<path d="M145.829 291.2V292.49L138.348 309.264H135.929L143.397 293.086H133.621V291.2H145.829ZM151.35 300.666L149.514 300.195L150.42 291.2H159.687V293.322H152.368L151.822 298.235C152.152 298.044 152.57 297.867 153.075 297.701C153.588 297.536 154.175 297.453 154.836 297.453C155.672 297.453 156.42 297.598 157.082 297.887C157.744 298.168 158.306 298.574 158.769 299.103C159.241 299.632 159.601 300.269 159.849 301.014C160.097 301.758 160.221 302.589 160.221 303.507C160.221 304.376 160.101 305.174 159.861 305.902C159.63 306.63 159.278 307.267 158.807 307.813C158.335 308.35 157.74 308.768 157.02 309.066C156.309 309.363 155.469 309.512 154.501 309.512C153.774 309.512 153.083 309.413 152.43 309.215C151.784 309.008 151.205 308.698 150.693 308.284C150.188 307.862 149.775 307.341 149.452 306.721C149.138 306.092 148.939 305.356 148.856 304.512H151.04C151.139 305.191 151.338 305.761 151.636 306.225C151.933 306.688 152.322 307.039 152.802 307.279C153.29 307.511 153.856 307.626 154.501 307.626C155.047 307.626 155.531 307.531 155.953 307.341C156.375 307.151 156.731 306.878 157.02 306.522C157.31 306.167 157.529 305.737 157.678 305.232C157.835 304.727 157.913 304.161 157.913 303.532C157.913 302.962 157.835 302.432 157.678 301.944C157.52 301.456 157.285 301.03 156.97 300.666C156.664 300.302 156.288 300.021 155.841 299.823C155.395 299.616 154.882 299.513 154.303 299.513C153.534 299.513 152.951 299.616 152.554 299.823C152.165 300.029 151.764 300.311 151.35 300.666ZM165.73 291.2V309.264H163.335V291.2H165.73ZM176.635 291.2L169.129 299.624L164.911 304.004L164.514 301.448L167.69 297.949L173.757 291.2H176.635ZM174.327 309.264L167.64 300.455L169.067 298.557L177.181 309.264H174.327Z" fill="#606060"/>
<path d="M127.967 198.794V216.958H125.672V201.66L121.045 203.347V201.275L127.608 198.794H127.967ZM146.056 206.486V209.241C146.056 210.721 145.924 211.97 145.659 212.987C145.395 214.005 145.014 214.824 144.518 215.444C144.022 216.064 143.422 216.515 142.719 216.796C142.024 217.069 141.238 217.206 140.362 217.206C139.667 217.206 139.026 217.119 138.439 216.945C137.851 216.771 137.322 216.494 136.851 216.114C136.387 215.725 135.99 215.221 135.66 214.6C135.329 213.98 135.076 213.227 134.903 212.342C134.729 211.457 134.642 210.423 134.642 209.241V206.486C134.642 205.006 134.775 203.765 135.039 202.764C135.312 201.763 135.697 200.961 136.193 200.357C136.689 199.745 137.285 199.307 137.98 199.042C138.683 198.778 139.468 198.645 140.337 198.645C141.04 198.645 141.685 198.732 142.272 198.906C142.868 199.071 143.397 199.34 143.86 199.712C144.324 200.076 144.716 200.564 145.039 201.176C145.37 201.78 145.622 202.52 145.796 203.397C145.97 204.274 146.056 205.304 146.056 206.486ZM143.749 209.613V206.102C143.749 205.291 143.699 204.58 143.6 203.968C143.509 203.347 143.372 202.818 143.19 202.38C143.008 201.941 142.777 201.586 142.496 201.313C142.223 201.04 141.904 200.841 141.54 200.717C141.185 200.585 140.784 200.519 140.337 200.519C139.791 200.519 139.307 200.622 138.885 200.829C138.463 201.027 138.108 201.346 137.818 201.784C137.537 202.223 137.322 202.797 137.173 203.509C137.024 204.22 136.95 205.084 136.95 206.102V209.613C136.95 210.423 136.995 211.139 137.086 211.759C137.186 212.379 137.33 212.917 137.521 213.372C137.711 213.819 137.942 214.187 138.215 214.476C138.488 214.766 138.803 214.981 139.158 215.121C139.522 215.254 139.923 215.32 140.362 215.32C140.924 215.32 141.416 215.212 141.838 214.997C142.26 214.782 142.611 214.447 142.893 213.992C143.182 213.529 143.397 212.938 143.538 212.218C143.678 211.49 143.749 210.622 143.749 209.613ZM160.349 206.486V209.241C160.349 210.721 160.217 211.97 159.952 212.987C159.687 214.005 159.307 214.824 158.81 215.444C158.314 216.064 157.715 216.515 157.011 216.796C156.317 217.069 155.531 217.206 154.654 217.206C153.959 217.206 153.318 217.119 152.731 216.945C152.144 216.771 151.615 216.494 151.143 216.114C150.68 215.725 150.283 215.221 149.952 214.6C149.621 213.98 149.369 213.227 149.195 212.342C149.022 211.457 148.935 210.423 148.935 209.241V206.486C148.935 205.006 149.067 203.765 149.332 202.764C149.605 201.763 149.989 200.961 150.486 200.357C150.982 199.745 151.577 199.307 152.272 199.042C152.975 198.778 153.761 198.645 154.629 198.645C155.332 198.645 155.978 198.732 156.565 198.906C157.16 199.071 157.69 199.34 158.153 199.712C158.616 200.076 159.009 200.564 159.332 201.176C159.662 201.78 159.915 202.52 160.088 203.397C160.262 204.274 160.349 205.304 160.349 206.486ZM158.041 209.613V206.102C158.041 205.291 157.992 204.58 157.892 203.968C157.801 203.347 157.665 202.818 157.483 202.38C157.301 201.941 157.069 201.586 156.788 201.313C156.515 201.04 156.197 200.841 155.833 200.717C155.477 200.585 155.076 200.519 154.629 200.519C154.083 200.519 153.6 200.622 153.178 200.829C152.756 201.027 152.4 201.346 152.111 201.784C151.83 202.223 151.615 202.797 151.466 203.509C151.317 204.22 151.242 205.084 151.242 206.102V209.613C151.242 210.423 151.288 211.139 151.379 211.759C151.478 212.379 151.623 212.917 151.813 213.372C152.003 213.819 152.235 214.187 152.508 214.476C152.781 214.766 153.095 214.981 153.451 215.121C153.815 215.254 154.216 215.32 154.654 215.32C155.217 215.32 155.709 215.212 156.131 214.997C156.552 214.782 156.904 214.447 157.185 213.992C157.475 213.529 157.69 212.938 157.83 212.218C157.971 211.49 158.041 210.622 158.041 209.613ZM166.292 198.893V216.958H163.897V198.893H166.292ZM177.197 198.893L169.691 207.318L165.473 211.697L165.076 209.141L168.252 205.643L174.319 198.893H177.197ZM174.889 216.958L168.202 208.149L169.629 206.251L177.743 216.958H174.889Z" fill="#606060"/>
<path d="M541.17 662.544V666.133H525.283V663.071L532.796 655.015C533.551 654.175 534.146 653.436 534.582 652.798C535.018 652.149 535.332 651.57 535.523 651.059C535.725 650.538 535.827 650.044 535.827 649.576C535.827 648.874 535.71 648.273 535.476 647.773C535.242 647.263 534.896 646.869 534.439 646.593C533.992 646.316 533.439 646.178 532.78 646.178C532.078 646.178 531.472 646.348 530.961 646.688C530.461 647.029 530.079 647.502 529.813 648.108C529.558 648.714 529.43 649.4 529.43 650.166H524.82C524.82 648.783 525.15 647.518 525.809 646.369C526.468 645.21 527.399 644.29 528.6 643.61C529.802 642.919 531.227 642.573 532.875 642.573C534.503 642.573 535.874 642.839 536.991 643.371C538.118 643.892 538.969 644.647 539.543 645.636C540.128 646.614 540.421 647.784 540.421 649.145C540.421 649.911 540.298 650.66 540.054 651.394C539.809 652.117 539.458 652.84 539.001 653.564C538.554 654.276 538.012 654.999 537.374 655.733C536.736 656.467 536.029 657.227 535.252 658.014L531.217 662.544H541.17ZM559.674 652.479V656.499C559.674 658.243 559.488 659.747 559.116 661.013C558.743 662.268 558.206 663.299 557.505 664.107C556.813 664.905 555.989 665.495 555.032 665.878C554.075 666.261 553.012 666.452 551.842 666.452C550.906 666.452 550.034 666.335 549.226 666.101C548.418 665.857 547.689 665.479 547.04 664.969C546.402 664.458 545.849 663.815 545.381 663.039C544.924 662.252 544.573 661.316 544.329 660.231C544.084 659.147 543.962 657.902 543.962 656.499V652.479C543.962 650.735 544.148 649.241 544.52 647.997C544.903 646.742 545.44 645.715 546.131 644.918C546.833 644.12 547.662 643.535 548.62 643.163C549.577 642.78 550.64 642.589 551.81 642.589C552.746 642.589 553.612 642.711 554.41 642.956C555.218 643.19 555.947 643.557 556.595 644.057C557.244 644.556 557.797 645.2 558.254 645.987C558.712 646.763 559.062 647.693 559.307 648.778C559.552 649.852 559.674 651.086 559.674 652.479ZM555.064 657.105V651.857C555.064 651.017 555.016 650.283 554.92 649.655C554.835 649.028 554.702 648.496 554.522 648.06C554.341 647.614 554.117 647.252 553.852 646.976C553.586 646.699 553.283 646.497 552.942 646.369C552.602 646.242 552.225 646.178 551.81 646.178C551.289 646.178 550.826 646.279 550.422 646.481C550.029 646.683 549.694 647.008 549.417 647.454C549.141 647.89 548.928 648.475 548.779 649.209C548.641 649.932 548.572 650.815 548.572 651.857V657.105C548.572 657.945 548.614 658.684 548.699 659.322C548.795 659.96 548.933 660.508 549.114 660.965C549.305 661.412 549.529 661.779 549.784 662.066C550.05 662.342 550.353 662.544 550.693 662.672C551.044 662.799 551.427 662.863 551.842 662.863C552.352 662.863 552.804 662.762 553.198 662.56C553.602 662.347 553.942 662.018 554.219 661.571C554.506 661.114 554.718 660.518 554.857 659.785C554.995 659.051 555.064 658.158 555.064 657.105ZM578.688 662.544V666.133H562.8V663.071L570.314 655.015C571.069 654.175 571.664 653.436 572.1 652.798C572.536 652.149 572.85 651.57 573.041 651.059C573.243 650.538 573.344 650.044 573.344 649.576C573.344 648.874 573.227 648.273 572.993 647.773C572.759 647.263 572.414 646.869 571.957 646.593C571.51 646.316 570.957 646.178 570.298 646.178C569.596 646.178 568.99 646.348 568.479 646.688C567.979 647.029 567.596 647.502 567.331 648.108C567.075 648.714 566.948 649.4 566.948 650.166H562.338C562.338 648.783 562.667 647.518 563.327 646.369C563.986 645.21 564.917 644.29 566.118 643.61C567.32 642.919 568.745 642.573 570.393 642.573C572.02 642.573 573.392 642.839 574.509 643.371C575.636 643.892 576.487 644.647 577.061 645.636C577.646 646.614 577.938 647.784 577.938 649.145C577.938 649.911 577.816 650.66 577.571 651.394C577.327 652.117 576.976 652.84 576.519 653.564C576.072 654.276 575.53 654.999 574.892 655.733C574.254 656.467 573.546 657.227 572.77 658.014L568.734 662.544H578.688ZM592.757 642.86V666.133H588.163V648.156L582.644 649.911V646.29L592.263 642.86H592.757Z" fill="#606060"/>
<path d="M88.8558 391.407L70.4798 385.936V380.608L93.7051 388.695L93.7051 392.204L88.8558 391.407ZM70.4798 396.448L88.8558 390.992L93.7051 390.163L93.7051 393.704L70.4798 401.743V396.448ZM94.0241 371.484C94.0241 372.823 93.8114 374.025 93.386 375.089C92.95 376.152 92.3492 377.056 91.5835 377.8C90.8179 378.534 89.9299 379.098 88.9196 379.491C87.8988 379.885 86.8141 380.081 85.6656 380.081H85.0275C83.7195 380.081 82.5231 379.895 81.4384 379.523C80.3537 379.151 79.4126 378.619 78.615 377.928C77.8174 377.226 77.206 376.375 76.7806 375.376C76.3446 374.376 76.1266 373.249 76.1266 371.994C76.1266 370.771 76.3286 369.686 76.7327 368.74C77.1368 367.793 77.7111 367.001 78.4555 366.363C79.1999 365.714 80.0932 365.225 81.1353 364.896C82.1669 364.566 83.3154 364.401 84.5809 364.401H86.495V378.119H83.4323V368.915H83.0814C82.4434 368.915 81.8744 369.032 81.3746 369.266C80.8642 369.49 80.4601 369.83 80.1623 370.287C79.8645 370.744 79.7157 371.329 79.7157 372.042C79.7157 372.648 79.8486 373.169 80.1144 373.605C80.3803 374.041 80.7525 374.397 81.2311 374.674C81.7096 374.94 82.2732 375.142 82.9219 375.28C83.56 375.408 84.2618 375.471 85.0275 375.471H85.6656C86.3568 375.471 86.9948 375.376 87.5797 375.184C88.1646 374.982 88.6697 374.7 89.0951 374.339C89.5205 373.967 89.8501 373.52 90.0841 372.999C90.3181 372.467 90.435 371.866 90.435 371.196C90.435 370.367 90.2755 369.596 89.9565 368.883C89.6268 368.16 89.1323 367.538 88.473 367.017L90.8976 364.784C91.4187 365.145 91.9185 365.64 92.3971 366.267C92.8756 366.884 93.2691 367.629 93.5775 368.501C93.8752 369.373 94.0241 370.367 94.0241 371.484ZM80.1304 357.287H93.7051L93.7051 361.881H76.4456V357.574L80.1304 357.287ZM84.4692 357.957V359.201C83.1931 359.201 82.0446 359.036 81.0237 358.706C79.9922 358.377 79.1148 357.914 78.3917 357.319C77.6579 356.723 77.0996 356.016 76.7168 355.197C76.3233 354.368 76.1266 353.442 76.1266 352.422C76.1266 351.613 76.2436 350.874 76.4775 350.204C76.7115 349.534 77.0837 348.96 77.5941 348.482C78.1046 347.992 78.7798 347.62 79.62 347.365C80.4601 347.099 81.4863 346.966 82.6986 346.966H93.7051V351.592H82.6826C81.917 351.592 81.3214 351.698 80.8961 351.911C80.4707 352.124 80.1729 352.437 80.0028 352.852C79.822 353.256 79.7316 353.756 79.7316 354.352C79.7316 354.968 79.8539 355.505 80.0985 355.963C80.3431 356.409 80.6834 356.782 81.1194 357.079C81.5448 357.366 82.0446 357.584 82.6188 357.733C83.1931 357.882 83.8099 357.957 84.4692 357.957ZM89.9405 333.28H69.2037V328.654H93.7051V332.817L89.9405 333.28ZM85.2827 344.191H84.9477C83.6291 344.191 82.4327 344.042 81.3587 343.744C80.274 343.446 79.3435 343.01 78.5672 342.436C77.7909 341.862 77.19 341.155 76.7646 340.314C76.3393 339.474 76.1266 338.517 76.1266 337.443C76.1266 336.433 76.3393 335.55 76.7646 334.795C77.19 334.03 77.7962 333.381 78.5831 332.849C79.3594 332.307 80.2793 331.871 81.3427 331.541C82.3955 331.211 83.5493 330.972 84.8042 330.823H85.5379C86.7396 330.972 87.8562 331.211 88.8877 331.541C89.9193 331.871 90.8232 332.307 91.5995 332.849C92.3652 333.381 92.9607 334.03 93.386 334.795C93.8114 335.561 94.0241 336.454 94.0241 337.475C94.0241 338.549 93.8061 339.506 93.3701 340.346C92.9341 341.176 92.3226 341.878 91.5357 342.452C90.7487 343.016 89.8236 343.446 88.7601 343.744C87.6967 344.042 86.5376 344.191 85.2827 344.191ZM84.9477 339.597H85.2827C85.9952 339.597 86.6599 339.543 87.2766 339.437C87.8934 339.32 88.4411 339.134 88.9196 338.879C89.3876 338.613 89.7544 338.273 90.0203 337.858C90.2755 337.432 90.4031 336.917 90.4031 336.311C90.4031 335.524 90.2277 334.875 89.8767 334.365C89.5152 333.854 89.0207 333.466 88.3932 333.2C87.7658 332.924 87.0427 332.764 86.2239 332.722H84.1342C83.4643 332.753 82.8634 332.849 82.3317 333.009C81.7894 333.158 81.3268 333.381 80.9439 333.679C80.5611 333.966 80.2633 334.327 80.0506 334.763C79.838 335.189 79.7316 335.694 79.7316 336.279C79.7316 336.874 79.8699 337.385 80.1464 337.81C80.4122 338.235 80.7791 338.581 81.247 338.847C81.7149 339.102 82.2679 339.293 82.906 339.421C83.5334 339.538 84.214 339.597 84.9477 339.597ZM89.8129 315.749H82.1243C81.5713 315.749 81.0981 315.84 80.7047 316.02C80.3006 316.201 79.9868 316.483 79.7635 316.866C79.5402 317.238 79.4285 317.722 79.4285 318.317C79.4285 318.828 79.5189 319.269 79.6997 319.641C79.8699 320.014 80.1198 320.301 80.4494 320.503C80.7685 320.705 81.146 320.806 81.582 320.806V325.4C80.8482 325.4 80.1517 325.23 79.4923 324.889C78.833 324.549 78.2534 324.055 77.7536 323.406C77.2432 322.757 76.8444 321.986 76.5573 321.093C76.2702 320.189 76.1266 319.179 76.1266 318.062C76.1266 316.722 76.3499 315.531 76.7966 314.489C77.2432 313.447 77.9132 312.628 78.8064 312.032C79.6997 311.426 80.8163 311.123 82.1562 311.123H89.5418C90.4882 311.123 91.2645 311.065 91.8707 310.948C92.4662 310.831 92.9873 310.661 93.4339 310.437H93.7051V315.079C93.2372 315.303 92.6523 315.473 91.9504 315.59C91.2379 315.696 90.5254 315.749 89.8129 315.749ZM83.1931 315.143L85.7932 315.111V317.679C85.7932 318.285 85.8623 318.812 86.0005 319.258C86.1388 319.705 86.3355 320.072 86.5907 320.359C86.8353 320.646 87.1224 320.859 87.4521 320.997C87.7818 321.125 88.1433 321.189 88.5368 321.189C88.9303 321.189 89.2865 321.098 89.6056 320.917C89.914 320.737 90.1585 320.476 90.3393 320.136C90.5095 319.796 90.5945 319.397 90.5945 318.939C90.5945 318.248 90.4563 317.647 90.1798 317.137C89.9033 316.627 89.563 316.233 89.1589 315.957C88.7548 315.669 88.372 315.521 88.0104 315.51L89.9565 314.298C90.3925 314.468 90.8445 314.702 91.3124 314.999C91.7803 315.287 92.2216 315.653 92.6363 316.1C93.0404 316.547 93.3754 317.084 93.6413 317.711C93.8965 318.339 94.0241 319.083 94.0241 319.944C94.0241 321.04 93.8061 322.034 93.3701 322.927C92.9235 323.81 92.312 324.512 91.5357 325.033C90.7487 325.543 89.8555 325.799 88.8558 325.799C87.9519 325.799 87.149 325.628 86.4472 325.288C85.7453 324.948 85.1551 324.448 84.6766 323.789C84.1874 323.119 83.8205 322.284 83.5759 321.284C83.3207 320.285 83.1931 319.126 83.1931 317.807V315.143ZM88.9356 298.25C88.6059 298.25 88.3082 298.346 88.0423 298.538C87.7765 298.729 87.5319 299.085 87.3086 299.606C87.0746 300.117 86.8619 300.856 86.6705 301.824C86.4791 302.696 86.2398 303.509 85.9527 304.264C85.6549 305.009 85.2987 305.657 84.8839 306.21C84.4692 306.753 83.98 307.178 83.4164 307.486C82.8421 307.795 82.1881 307.949 81.4544 307.949C80.7312 307.949 80.0506 307.795 79.4126 307.486C78.7745 307.167 78.2109 306.715 77.7217 306.13C77.2219 305.535 76.8338 304.812 76.5573 303.961C76.2702 303.1 76.1266 302.132 76.1266 301.058C76.1266 299.558 76.3659 298.272 76.8444 297.198C77.3229 296.113 77.9823 295.283 78.8224 294.709C79.6519 294.124 80.5983 293.832 81.6617 293.832V298.426C81.2151 298.426 80.8163 298.522 80.4654 298.713C80.1038 298.894 79.822 299.181 79.62 299.574C79.4073 299.957 79.3009 300.457 79.3009 301.074C79.3009 301.584 79.3913 302.026 79.5721 302.398C79.7422 302.77 79.9762 303.057 80.274 303.259C80.5611 303.451 80.8801 303.546 81.2311 303.546C81.4969 303.546 81.7362 303.493 81.9489 303.387C82.1509 303.27 82.337 303.084 82.5072 302.829C82.6773 302.573 82.8368 302.244 82.9857 301.84C83.124 301.425 83.2516 300.914 83.3685 300.308C83.6238 299.064 83.9587 297.953 84.3735 296.974C84.7776 295.996 85.3306 295.22 86.0324 294.645C86.7237 294.071 87.6329 293.784 88.7601 293.784C89.5258 293.784 90.2277 293.954 90.8657 294.294C91.5038 294.635 92.0621 295.124 92.5406 295.762C93.0085 296.4 93.3754 297.166 93.6413 298.059C93.8965 298.942 94.0241 299.936 94.0241 301.042C94.0241 302.648 93.737 304.009 93.1627 305.126C92.5885 306.231 91.86 307.072 90.9774 307.646C90.0841 308.209 89.1696 308.491 88.2337 308.491L88.2337 304.137C88.8612 304.115 89.3663 303.956 89.7491 303.658C90.132 303.35 90.4084 302.961 90.5786 302.494C90.7487 302.015 90.8338 301.499 90.8338 300.946C90.8338 300.351 90.7541 299.856 90.5945 299.463C90.4244 299.069 90.2011 298.772 89.9246 298.569C89.6375 298.357 89.3078 298.25 88.9356 298.25Z" fill="#606060"/>
<path d="M90.366 78.8833L81.9118 56.1082L79.714 55.8246V53.0774H89.0899V55.8246L86.7504 56.1968L92.1207 71.9178L92.5992 73.6016H92.7056L93.2018 71.9356L98.6431 56.1791L95.9668 55.8246V53.0774H105.059V55.8246L102.826 56.1082L94.6906 78.8833H90.366ZM114.701 79.2555C112.893 79.2555 111.316 78.8538 109.969 78.0503C108.633 77.235 107.594 76.1125 106.849 74.6828C106.117 73.253 105.75 71.6165 105.75 69.7733V69.0289C105.75 67.1619 106.111 65.5018 106.831 64.0485C107.564 62.5833 108.568 61.4371 109.845 60.61C111.121 59.7711 112.574 59.3516 114.205 59.3516C115.942 59.3516 117.395 59.7002 118.565 60.3974C119.746 61.0945 120.638 62.087 121.241 63.375C121.844 64.6511 122.145 66.1871 122.145 67.9831V70.5354H110.376L110.341 70.624C110.388 71.6283 110.595 72.5204 110.961 73.3003C111.339 74.0801 111.871 74.6946 112.556 75.1436C113.253 75.5926 114.098 75.8171 115.091 75.8171C116.131 75.8171 117.076 75.6753 117.927 75.3917C118.777 75.1081 119.563 74.7064 120.284 74.1865L121.684 76.9869C120.928 77.6249 119.965 78.1625 118.795 78.5997C117.625 79.0369 116.261 79.2555 114.701 79.2555ZM110.447 67.3983H117.873V66.9374C117.873 66.0985 117.743 65.3659 117.483 64.7397C117.235 64.1016 116.84 63.6054 116.296 63.2509C115.764 62.8964 115.085 62.7192 114.258 62.7192C113.537 62.7192 112.905 62.92 112.361 63.3218C111.818 63.7235 111.381 64.273 111.05 64.9701C110.731 65.6554 110.512 66.4353 110.394 67.3096L110.447 67.3983ZM124.555 78.8833V76.1538L127.214 75.6221V62.985L124.414 62.4533V59.7061H131.326L131.556 62.4888C132.194 61.4962 132.986 60.7282 133.931 60.1847C134.888 59.6293 135.969 59.3516 137.175 59.3516C139.148 59.3516 140.684 59.9602 141.783 61.1772C142.882 62.3824 143.431 64.273 143.431 66.8488V75.6221L146.09 76.1538V78.8833H136.466V76.1538L138.965 75.6221V66.8843C138.965 65.4309 138.675 64.4029 138.096 63.8003C137.517 63.1859 136.655 62.8787 135.509 62.8787C134.646 62.8787 133.89 63.0736 133.24 63.4636C132.602 63.8417 132.082 64.3734 131.68 65.0587V75.6221L134.108 76.1538V78.8833H124.555ZM155.342 79.2555C153.794 79.2555 152.47 78.8656 151.371 78.0857C150.273 77.3059 149.428 76.2188 148.837 74.8245C148.258 73.4185 147.968 71.782 147.968 69.915V69.5428C147.968 67.4987 148.258 65.7145 148.837 64.1902C149.428 62.666 150.273 61.4785 151.371 60.6278C152.482 59.777 153.8 59.3516 155.324 59.3516C156.423 59.3516 157.38 59.5643 158.195 59.9897C159.022 60.4033 159.731 61 160.322 61.7798V54.513L157.504 53.9813V51.2341H160.322H164.788V75.6221L167.447 76.1538V78.8833H160.925L160.57 76.5615C159.967 77.4477 159.229 78.1212 158.355 78.582C157.492 79.031 156.488 79.2555 155.342 79.2555ZM156.6 75.7285C157.451 75.7285 158.183 75.5453 158.798 75.179C159.412 74.8009 159.92 74.2574 160.322 73.5484V65.0942C159.932 64.4088 159.424 63.8712 158.798 63.4813C158.183 63.0796 157.463 62.8787 156.635 62.8787C155.667 62.8787 154.869 63.1623 154.243 63.7294C153.628 64.2848 153.173 65.0646 152.878 66.069C152.583 67.0615 152.435 68.2195 152.435 69.5428V69.915C152.435 71.6874 152.76 73.0994 153.41 74.151C154.071 75.2027 155.135 75.7285 156.6 75.7285ZM175.742 79.2555C173.792 79.2555 172.274 78.7533 171.187 77.749C170.1 76.7446 169.556 75.3622 169.556 73.6016C169.556 72.3964 169.887 71.3389 170.549 70.429C171.21 69.5192 172.179 68.8103 173.455 68.3022C174.731 67.7823 176.279 67.5223 178.099 67.5223H181.023V65.9095C181.023 64.8933 180.716 64.0839 180.102 63.4813C179.499 62.8787 178.619 62.5774 177.461 62.5774C176.799 62.5774 176.214 62.6601 175.706 62.8255C175.198 62.9791 174.743 63.2036 174.342 63.499L173.934 66.0867H170.655L170.62 61.3544C171.565 60.74 172.616 60.2556 173.774 59.9011C174.932 59.5348 176.22 59.3516 177.638 59.3516C180.072 59.3516 181.986 59.9247 183.381 61.0709C184.787 62.2052 185.49 63.8358 185.49 65.9626V74.4169C185.49 74.6768 185.49 74.9309 185.49 75.179C185.502 75.4272 185.519 75.6694 185.543 75.9057L187.493 76.1538V78.8833H181.661C181.543 78.4697 181.431 78.068 181.325 77.6781C181.23 77.2882 181.159 76.8982 181.112 76.5083C180.474 77.3118 179.7 77.9735 178.79 78.4934C177.892 79.0015 176.876 79.2555 175.742 79.2555ZM176.752 75.7994C177.65 75.7994 178.489 75.5926 179.269 75.179C180.049 74.7536 180.633 74.2219 181.023 73.5839V70.3759H178.046C176.711 70.3759 175.7 70.689 175.015 71.3152C174.342 71.9297 174.005 72.6504 174.005 73.4775C174.005 74.2219 174.241 74.795 174.714 75.1967C175.186 75.5985 175.866 75.7994 176.752 75.7994ZM197.719 79.2555C196.349 79.2555 195.067 79.1255 193.873 78.8656C192.692 78.5938 191.504 78.198 190.311 77.6781L190.258 72.6091H193.466L194.139 75.374C194.647 75.5985 195.167 75.7757 195.699 75.9057C196.242 76.0239 196.845 76.0829 197.507 76.0829C198.783 76.0829 199.681 75.8584 200.201 75.4094C200.732 74.9604 200.998 74.4051 200.998 73.7434C200.998 73.1053 200.72 72.5618 200.165 72.1128C199.622 71.652 198.576 71.2561 197.028 70.9253C194.736 70.429 193.046 69.7083 191.959 68.763C190.884 67.8059 190.346 66.5652 190.346 65.041C190.346 63.9894 190.624 63.0382 191.179 62.1875C191.746 61.3367 192.573 60.6573 193.66 60.1492C194.759 59.6293 196.106 59.3694 197.702 59.3694C199.155 59.3694 200.443 59.523 201.565 59.8302C202.7 60.1256 203.663 60.5214 204.454 61.0177L204.561 65.8917H201.388L200.839 63.3572C200.472 63.0973 200.047 62.8964 199.563 62.7546C199.078 62.6128 198.523 62.5419 197.896 62.5419C196.916 62.5419 196.142 62.7605 195.575 63.1977C195.007 63.6231 194.724 64.1607 194.724 64.8106C194.724 65.1887 194.813 65.5314 194.99 65.8386C195.179 66.1458 195.533 66.4294 196.053 66.6893C196.585 66.9374 197.359 67.1797 198.375 67.416C200.868 67.995 202.652 68.7512 203.728 69.6846C204.803 70.6181 205.34 71.8529 205.34 73.3889C205.34 75.1022 204.714 76.5083 203.462 77.6072C202.209 78.7061 200.295 79.2555 197.719 79.2555ZM216.79 78.8833V76.1538L219.449 75.6221V62.985L216.648 62.4533V59.7061H223.561L223.791 62.4888C224.429 61.4962 225.221 60.7282 226.166 60.1847C227.123 59.6293 228.204 59.3516 229.409 59.3516C231.383 59.3516 232.919 59.9602 234.018 61.1772C235.117 62.3824 235.666 64.273 235.666 66.8488V75.6221L238.325 76.1538V78.8833H228.7V76.1538L231.2 75.6221V66.8843C231.2 65.4309 230.91 64.4029 230.331 63.8003C229.752 63.1859 228.89 62.8787 227.743 62.8787C226.881 62.8787 226.125 63.0736 225.475 63.4636C224.837 63.8417 224.317 64.3734 223.915 65.0587V75.6221L226.343 76.1538V78.8833H216.79ZM249.03 79.2555C247.186 79.2555 245.603 78.8419 244.28 78.0148C242.956 77.1877 241.94 76.0416 241.231 74.5764C240.522 73.0994 240.168 71.4038 240.168 69.4897V69.1175C240.168 67.2151 240.522 65.5314 241.231 64.0662C241.94 62.601 242.956 61.449 244.28 60.61C245.603 59.7711 247.175 59.3516 248.994 59.3516C250.838 59.3516 252.421 59.7711 253.744 60.61C255.068 61.4371 256.084 62.5833 256.793 64.0485C257.502 65.5136 257.856 67.2033 257.856 69.1175V69.4897C257.856 71.4038 257.502 73.0994 256.793 74.5764C256.084 76.0416 255.068 77.1877 253.744 78.0148C252.433 78.8419 250.861 79.2555 249.03 79.2555ZM249.03 75.8171C250.022 75.8171 250.838 75.5512 251.476 75.0195C252.125 74.476 252.61 73.7316 252.929 72.7863C253.248 71.8292 253.408 70.7303 253.408 69.4897V69.1175C253.408 67.8886 253.248 66.8016 252.929 65.8563C252.61 64.911 252.125 64.1666 251.476 63.6231C250.826 63.0796 249.999 62.8078 248.994 62.8078C248.014 62.8078 247.198 63.0796 246.548 63.6231C245.899 64.1666 245.414 64.911 245.095 65.8563C244.788 66.8016 244.634 67.8886 244.634 69.1175V69.4897C244.634 70.7303 244.788 71.8292 245.095 72.7863C245.414 73.7316 245.899 74.476 246.548 75.0195C247.21 75.5512 248.037 75.8171 249.03 75.8171ZM275.633 79.2555C273.684 79.2555 272.165 78.7533 271.078 77.749C269.991 76.7446 269.448 75.3622 269.448 73.6016C269.448 72.3964 269.778 71.3389 270.44 70.429C271.102 69.5192 272.071 68.8103 273.347 68.3022C274.623 67.7823 276.171 67.5223 277.99 67.5223H280.915V65.9095C280.915 64.8933 280.608 64.0839 279.993 63.4813C279.391 62.8787 278.51 62.5774 277.352 62.5774C276.691 62.5774 276.106 62.6601 275.598 62.8255C275.09 62.9791 274.635 63.2036 274.233 63.499L273.825 66.0867H270.546L270.511 61.3544C271.456 60.74 272.508 60.2556 273.666 59.9011C274.824 59.5348 276.112 59.3516 277.53 59.3516C279.964 59.3516 281.878 59.9247 283.272 61.0709C284.678 62.2052 285.381 63.8358 285.381 65.9626V74.4169C285.381 74.6768 285.381 74.9309 285.381 75.179C285.393 75.4272 285.411 75.6694 285.434 75.9057L287.384 76.1538V78.8833H281.553C281.435 78.4697 281.323 78.068 281.216 77.6781C281.122 77.2882 281.051 76.8982 281.003 76.5083C280.365 77.3118 279.592 77.9735 278.682 78.4934C277.784 79.0015 276.768 79.2555 275.633 79.2555ZM276.643 75.7994C277.541 75.7994 278.38 75.5926 279.16 75.179C279.94 74.7536 280.525 74.2219 280.915 73.5839V70.3759H277.937C276.602 70.3759 275.592 70.689 274.907 71.3152C274.233 71.9297 273.896 72.6504 273.896 73.4775C273.896 74.2219 274.133 74.795 274.605 75.1967C275.078 75.5985 275.757 75.7994 276.643 75.7994ZM289.458 78.8833V76.1538L292.116 75.6221V62.985L289.316 62.4533V59.7061H296.228L296.459 62.4888C297.097 61.4962 297.888 60.7282 298.834 60.1847C299.791 59.6293 300.872 59.3516 302.077 59.3516C304.05 59.3516 305.586 59.9602 306.685 61.1772C307.784 62.3824 308.334 64.273 308.334 66.8488V75.6221L310.992 76.1538V78.8833H301.368V76.1538L303.867 75.6221V66.8843C303.867 65.4309 303.578 64.4029 302.999 63.8003C302.42 63.1859 301.557 62.8787 300.411 62.8787C299.549 62.8787 298.792 63.0736 298.142 63.4636C297.504 63.8417 296.984 64.3734 296.583 65.0587V75.6221L299.011 76.1538V78.8833H289.458ZM321.697 79.2555C319.854 79.2555 318.271 78.8419 316.947 78.0148C315.624 77.1877 314.608 76.0416 313.899 74.5764C313.19 73.0994 312.835 71.4038 312.835 69.4897V69.1175C312.835 67.2151 313.19 65.5314 313.899 64.0662C314.608 62.601 315.624 61.449 316.947 60.61C318.271 59.7711 319.842 59.3516 321.662 59.3516C323.505 59.3516 325.089 59.7711 326.412 60.61C327.735 61.4371 328.751 62.5833 329.46 64.0485C330.169 65.5136 330.524 67.2033 330.524 69.1175V69.4897C330.524 71.4038 330.169 73.0994 329.46 74.5764C328.751 76.0416 327.735 77.1877 326.412 78.0148C325.1 78.8419 323.529 79.2555 321.697 79.2555ZM321.697 75.8171C322.69 75.8171 323.505 75.5512 324.143 75.0195C324.793 74.476 325.278 73.7316 325.597 72.7863C325.916 71.8292 326.075 70.7303 326.075 69.4897V69.1175C326.075 67.8886 325.916 66.8016 325.597 65.8563C325.278 64.911 324.793 64.1666 324.143 63.6231C323.493 63.0796 322.666 62.8078 321.662 62.8078C320.681 62.8078 319.866 63.0796 319.216 63.6231C318.566 64.1666 318.082 64.911 317.763 65.8563C317.455 66.8016 317.302 67.8886 317.302 69.1175V69.4897C317.302 70.7303 317.455 71.8292 317.763 72.7863C318.082 73.7316 318.566 74.476 319.216 75.0195C319.878 75.5512 320.705 75.8171 321.697 75.8171Z" fill="#2C2C2C"/>
<line x1="208.74" y1="550.943" x2="192.406" y2="550.943" stroke="#CACACA" stroke-width="3.62984"/>
<line x1="208.74" y1="528.255" x2="192.406" y2="528.255" stroke="#CACACA" stroke-width="3.62984"/>
<line x1="208.74" y1="505.57" x2="192.406" y2="505.57" stroke="#CACACA" stroke-width="3.62984"/>
<line x1="208.74" y1="459.858" x2="192.406" y2="459.858" stroke="#CACACA" stroke-width="3.62984"/>
<line x1="208.74" y1="437.172" x2="192.406" y2="437.172" stroke="#CACACA" stroke-width="3.62984"/>
<line x1="208.74" y1="414.486" x2="192.406" y2="414.486" stroke="#CACACA" stroke-width="3.62984"/>
<line x1="208.74" y1="368.774" x2="192.406" y2="368.774" stroke="#CACACA" stroke-width="3.62984"/>
<line x1="208.74" y1="346.089" x2="192.406" y2="346.089" stroke="#CACACA" stroke-width="3.62984"/>
<line x1="208.74" y1="323.401" x2="192.406" y2="323.401" stroke="#CACACA" stroke-width="3.62984"/>
<line x1="208.74" y1="277.689" x2="192.406" y2="277.689" stroke="#CACACA" stroke-width="3.62984"/>
<line x1="208.74" y1="255.001" x2="192.406" y2="255.001" stroke="#CACACA" stroke-width="3.62984"/>
<line x1="208.74" y1="232.315" x2="192.406" y2="232.315" stroke="#CACACA" stroke-width="3.62984"/>
<line x1="207.705" y1="588.354" x2="207.705" y2="572.019" stroke="#CACACA" stroke-width="3.62984"/>
<line x1="273.033" y1="588.354" x2="273.033" y2="572.019" stroke="#CACACA" stroke-width="3.62984"/>
<line x1="338.363" y1="588.354" x2="338.363" y2="572.02" stroke="#CACACA" stroke-width="3.62984"/>
<line x1="403.693" y1="588.354" x2="403.693" y2="572.019" stroke="#CACACA" stroke-width="3.62984"/>
<line x1="469.025" y1="588.354" x2="469.025" y2="572.019" stroke="#CACACA" stroke-width="3.62984"/>
<line x1="534.355" y1="588.354" x2="534.355" y2="572.019" stroke="#CACACA" stroke-width="3.62984"/>
<line x1="599.681" y1="588.354" x2="599.681" y2="572.019" stroke="#CACACA" stroke-width="3.62984"/>
<line x1="665.009" y1="588.354" x2="665.009" y2="572.019" stroke="#CACACA" stroke-width="3.62984"/>
<line x1="730.339" y1="588.354" x2="730.339" y2="572.019" stroke="#CACACA" stroke-width="3.62984"/>
<line x1="795.668" y1="588.354" x2="795.667" y2="572.019" stroke="#CACACA" stroke-width="3.62984"/>
<line x1="860.998" y1="588.354" x2="860.998" y2="572.02" stroke="#CACACA" stroke-width="3.62984"/>
<line x1="926.328" y1="588.354" x2="926.328" y2="572.019" stroke="#CACACA" stroke-width="3.62984"/>
<path d="M208.668 606.136V593.345H211.05V606.136C211.05 607.327 210.806 608.332 210.318 609.151C209.83 609.97 209.156 610.594 208.296 611.024C207.444 611.446 206.463 611.657 205.355 611.657C204.247 611.657 203.263 611.467 202.402 611.086C201.542 610.706 200.868 610.127 200.38 609.349C199.892 608.572 199.648 607.592 199.648 606.409H202.043C202.043 607.17 202.183 607.794 202.464 608.282C202.746 608.77 203.134 609.13 203.631 609.362C204.135 609.593 204.71 609.709 205.355 609.709C205.984 609.709 206.546 609.577 207.042 609.312C207.547 609.039 207.944 608.638 208.233 608.109C208.523 607.571 208.668 606.914 208.668 606.136Z" fill="#606060"/>
<path d="M272.483 593.345V611.409H270.089V593.345H272.483ZM280.051 601.471V603.431H271.962V601.471H280.051ZM281.28 593.345V595.305H271.962V593.345H281.28Z" fill="#606060"/>
<path d="M329.411 593.345H331.731L337.649 608.071L343.555 593.345H345.887L338.543 611.409H336.731L329.411 593.345ZM328.655 593.345H330.702L331.037 604.362V611.409H328.655V593.345ZM344.585 593.345H346.632V611.409H344.25V604.362L344.585 593.345Z" fill="#606060"/>
<path d="M404.691 594.945L398.711 611.409H396.266L403.152 593.345H404.728L404.691 594.945ZM409.703 611.409L403.71 594.945L403.673 593.345H405.249L412.159 611.409H409.703ZM409.393 604.721V606.682H399.244V604.721H409.393Z" fill="#606060"/>
<path d="M461.042 593.345H463.362L469.28 608.071L475.186 593.345H477.518L470.174 611.409H468.362L461.042 593.345ZM460.285 593.345H462.332L462.667 604.362V611.409H460.285V593.345ZM476.216 593.345H478.263V611.409H475.881V604.362L476.216 593.345Z" fill="#606060"/>
<path d="M538.487 605.168V592.377H540.869V605.168C540.869 606.359 540.625 607.364 540.137 608.183C539.649 609.002 538.975 609.626 538.115 610.056C537.263 610.478 536.282 610.689 535.174 610.689C534.066 610.689 533.082 610.499 532.221 610.118C531.361 609.738 530.687 609.159 530.199 608.381C529.711 607.604 529.467 606.624 529.467 605.441H531.862C531.862 606.202 532.002 606.826 532.283 607.314C532.565 607.802 532.953 608.162 533.45 608.394C533.954 608.625 534.529 608.741 535.174 608.741C535.803 608.741 536.365 608.609 536.861 608.344C537.366 608.071 537.763 607.67 538.052 607.141C538.342 606.603 538.487 605.946 538.487 605.168Z" fill="#606060"/>
<path d="M605.028 605.169V592.377H607.41V605.169C607.41 606.36 607.166 607.365 606.678 608.183C606.19 609.002 605.516 609.627 604.656 610.057C603.804 610.479 602.823 610.69 601.715 610.69C600.607 610.69 599.623 610.499 598.762 610.119C597.902 609.738 597.228 609.159 596.74 608.382C596.252 607.604 596.008 606.624 596.008 605.442H598.403C598.403 606.202 598.543 606.827 598.824 607.315C599.106 607.803 599.494 608.163 599.991 608.394C600.495 608.626 601.07 608.742 601.715 608.742C602.344 608.742 602.906 608.609 603.402 608.345C603.907 608.072 604.304 607.671 604.594 607.141C604.883 606.604 605.028 605.946 605.028 605.169Z" fill="#606060"/>
<path d="M665.769 593.978L659.789 610.441H657.345L664.23 592.377H665.806L665.769 593.978ZM670.781 610.441L664.789 593.978L664.751 592.377H666.327L673.238 610.441H670.781ZM670.471 603.754V605.714H660.322V603.754H670.471Z" fill="#606060"/>
<path d="M735.993 605.876C735.993 605.454 735.926 605.082 735.794 604.759C735.67 604.428 735.447 604.131 735.124 603.866C734.81 603.601 734.371 603.349 733.809 603.109C733.255 602.869 732.552 602.625 731.7 602.377C730.807 602.112 730 601.819 729.281 601.496C728.561 601.165 727.945 600.789 727.432 600.367C726.919 599.945 726.526 599.461 726.253 598.916C725.98 598.37 725.844 597.745 725.844 597.042C725.844 596.339 725.989 595.69 726.278 595.094C726.568 594.499 726.981 593.982 727.519 593.544C728.065 593.097 728.714 592.749 729.467 592.501C730.219 592.253 731.059 592.129 731.985 592.129C733.342 592.129 734.491 592.39 735.434 592.911C736.385 593.424 737.109 594.098 737.605 594.933C738.102 595.76 738.35 596.645 738.35 597.588H735.968C735.968 596.91 735.823 596.31 735.533 595.789C735.244 595.26 734.806 594.846 734.218 594.548C733.631 594.242 732.887 594.089 731.985 594.089C731.133 594.089 730.43 594.218 729.876 594.474C729.322 594.73 728.908 595.078 728.635 595.516C728.371 595.955 728.238 596.455 728.238 597.017C728.238 597.398 728.317 597.745 728.474 598.06C728.64 598.366 728.892 598.651 729.231 598.916C729.578 599.18 730.017 599.424 730.546 599.648C731.084 599.871 731.725 600.086 732.469 600.293C733.495 600.582 734.38 600.905 735.124 601.26C735.868 601.616 736.481 602.017 736.96 602.464C737.448 602.902 737.808 603.403 738.04 603.965C738.279 604.519 738.399 605.148 738.399 605.851C738.399 606.587 738.251 607.253 737.953 607.848C737.655 608.444 737.229 608.953 736.675 609.374C736.121 609.796 735.455 610.123 734.677 610.355C733.908 610.578 733.048 610.69 732.097 610.69C731.261 610.69 730.438 610.574 729.628 610.342C728.826 610.111 728.094 609.763 727.432 609.3C726.779 608.837 726.253 608.266 725.856 607.588C725.468 606.901 725.273 606.107 725.273 605.206H727.655C727.655 605.826 727.775 606.36 728.015 606.806C728.255 607.245 728.582 607.609 728.995 607.898C729.417 608.188 729.893 608.403 730.422 608.543C730.96 608.676 731.518 608.742 732.097 608.742C732.932 608.742 733.639 608.626 734.218 608.394C734.797 608.163 735.236 607.832 735.533 607.402C735.84 606.972 735.993 606.463 735.993 605.876Z" fill="#606060"/>
<path d="M803.433 600.839V601.98C803.433 603.337 803.263 604.552 802.924 605.628C802.585 606.703 802.097 607.617 801.46 608.369C800.823 609.122 800.058 609.697 799.165 610.094C798.28 610.491 797.287 610.69 796.187 610.69C795.12 610.69 794.14 610.491 793.247 610.094C792.362 609.697 791.593 609.122 790.939 608.369C790.294 607.617 789.794 606.703 789.438 605.628C789.082 604.552 788.904 603.337 788.904 601.98V600.839C788.904 599.482 789.078 598.27 789.426 597.203C789.781 596.128 790.282 595.214 790.927 594.462C791.572 593.701 792.337 593.122 793.222 592.725C794.115 592.328 795.095 592.129 796.162 592.129C797.262 592.129 798.255 592.328 799.14 592.725C800.033 593.122 800.798 593.701 801.435 594.462C802.08 595.214 802.572 596.128 802.912 597.203C803.259 598.27 803.433 599.482 803.433 600.839ZM801.063 601.98V600.814C801.063 599.739 800.951 598.787 800.728 597.96C800.513 597.133 800.195 596.438 799.773 595.876C799.351 595.314 798.834 594.888 798.222 594.598C797.618 594.309 796.932 594.164 796.162 594.164C795.418 594.164 794.744 594.309 794.14 594.598C793.545 594.888 793.032 595.314 792.602 595.876C792.18 596.438 791.853 597.133 791.622 597.96C791.39 598.787 791.274 599.739 791.274 600.814V601.98C791.274 603.064 791.39 604.023 791.622 604.858C791.853 605.686 792.184 606.384 792.614 606.955C793.052 607.518 793.569 607.944 794.165 608.233C794.769 608.523 795.443 608.667 796.187 608.667C796.965 608.667 797.655 608.523 798.259 608.233C798.863 607.944 799.372 607.518 799.785 606.955C800.207 606.384 800.525 605.686 800.74 604.858C800.955 604.023 801.063 603.064 801.063 601.98Z" fill="#606060"/>
<path d="M870.365 592.377V610.441H867.958L858.864 596.509V610.441H856.47V592.377H858.864L867.996 606.347V592.377H870.365Z" fill="#606060"/>
<path d="M925.002 610.441H921.23L921.255 608.494H925.002C926.292 608.494 927.368 608.225 928.228 607.687C929.088 607.141 929.733 606.38 930.163 605.404C930.602 604.42 930.821 603.27 930.821 601.955V600.851C930.821 599.817 930.697 598.899 930.449 598.097C930.201 597.286 929.837 596.604 929.357 596.05C928.877 595.487 928.29 595.061 927.595 594.772C926.909 594.482 926.119 594.338 925.225 594.338H921.156V592.377H925.225C926.408 592.377 927.488 592.576 928.464 592.973C929.44 593.362 930.279 593.928 930.982 594.673C931.693 595.409 932.239 596.302 932.62 597.352C933 598.395 933.191 599.569 933.191 600.876V601.955C933.191 603.262 933 604.441 932.62 605.491C932.239 606.533 931.689 607.422 930.97 608.159C930.258 608.895 929.398 609.461 928.389 609.858C927.388 610.247 926.259 610.441 925.002 610.441ZM922.508 592.377V610.441H920.114V592.377H922.508Z" fill="#606060"/>
<path d="M578.425 145.813H582.617C583.509 145.813 584.283 145.957 584.939 146.247C585.595 146.536 586.1 146.965 586.454 147.532C586.815 148.093 586.995 148.784 586.995 149.606C586.995 150.214 586.865 150.766 586.605 151.263C586.351 151.759 585.999 152.175 585.55 152.512C585.101 152.843 584.581 153.071 583.991 153.195L583.61 153.336H579.134L579.117 152.406H582.865C583.539 152.406 584.1 152.276 584.549 152.016C584.998 151.756 585.335 151.413 585.559 150.988C585.79 150.557 585.905 150.096 585.905 149.606C585.905 149.021 585.778 148.516 585.524 148.09C585.276 147.659 584.906 147.328 584.416 147.098C583.926 146.867 583.326 146.752 582.617 146.752H579.515V158.716H578.425V145.813ZM586.392 158.716L583.051 152.946L584.221 152.938L587.553 158.6V158.716H586.392ZM593.446 158.893C592.82 158.893 592.244 158.778 591.718 158.547C591.198 158.317 590.743 157.992 590.354 157.572C589.969 157.153 589.671 156.657 589.458 156.084C589.252 155.505 589.148 154.872 589.148 154.187V153.806C589.148 153.068 589.258 152.4 589.476 151.803C589.695 151.207 589.996 150.696 590.38 150.27C590.764 149.845 591.201 149.52 591.692 149.295C592.188 149.065 592.708 148.95 593.251 148.95C593.86 148.95 594.4 149.059 594.873 149.278C595.346 149.49 595.742 149.795 596.061 150.19C596.386 150.58 596.631 151.044 596.796 151.582C596.962 152.113 597.044 152.701 597.044 153.345V153.992H589.786V153.088H595.99V152.964C595.978 152.427 595.869 151.924 595.662 151.458C595.461 150.985 595.16 150.601 594.758 150.306C594.356 150.01 593.854 149.863 593.251 149.863C592.802 149.863 592.389 149.957 592.011 150.146C591.638 150.335 591.316 150.607 591.045 150.961C590.779 151.31 590.572 151.726 590.424 152.211C590.283 152.689 590.212 153.221 590.212 153.806V154.187C590.212 154.719 590.289 155.215 590.442 155.676C590.602 156.131 590.826 156.533 591.116 156.881C591.411 157.23 591.76 157.501 592.161 157.696C592.563 157.891 593.006 157.989 593.491 157.989C594.058 157.989 594.56 157.886 594.997 157.679C595.434 157.466 595.827 157.132 596.176 156.677L596.84 157.191C596.634 157.499 596.374 157.782 596.061 158.042C595.753 158.302 595.384 158.509 594.953 158.662C594.522 158.816 594.019 158.893 593.446 158.893ZM605.445 149.127H606.429V158.547C606.429 159.38 606.269 160.095 605.95 160.692C605.637 161.288 605.191 161.746 604.612 162.065C604.039 162.384 603.363 162.544 602.583 162.544C602.187 162.544 601.779 162.482 601.36 162.358C600.946 162.24 600.554 162.057 600.181 161.808C599.815 161.566 599.502 161.265 599.242 160.904L599.836 160.258C600.226 160.73 600.642 161.076 601.085 161.294C601.528 161.519 602.007 161.631 602.521 161.631C603.129 161.631 603.643 161.51 604.063 161.268C604.488 161.026 604.81 160.677 605.029 160.222C605.253 159.767 605.366 159.221 605.366 158.583V151.236L605.445 149.127ZM598.71 154.019V153.833C598.71 153.088 598.793 152.418 598.958 151.821C599.13 151.218 599.375 150.704 599.694 150.279C600.013 149.848 600.4 149.52 600.855 149.295C601.316 149.065 601.836 148.95 602.415 148.95C602.97 148.95 603.463 149.041 603.895 149.224C604.326 149.408 604.698 149.671 605.011 150.013C605.324 150.356 605.575 150.763 605.764 151.236C605.959 151.709 606.101 152.235 606.19 152.814V155.18C606.119 155.723 605.989 156.222 605.8 156.677C605.611 157.126 605.36 157.519 605.047 157.856C604.733 158.187 604.355 158.444 603.912 158.627C603.475 158.804 602.97 158.893 602.397 158.893C601.824 158.893 601.31 158.775 600.855 158.538C600.4 158.302 600.013 157.968 599.694 157.537C599.375 157.1 599.13 156.583 598.958 155.986C598.793 155.389 598.71 154.734 598.71 154.019ZM599.774 153.833V154.019C599.774 154.58 599.83 155.1 599.942 155.578C600.054 156.057 600.226 156.474 600.456 156.828C600.686 157.182 600.979 157.46 601.333 157.661C601.688 157.862 602.104 157.962 602.583 157.962C603.191 157.962 603.702 157.847 604.116 157.617C604.53 157.38 604.857 157.07 605.1 156.686C605.342 156.296 605.519 155.871 605.631 155.41V152.654C605.566 152.341 605.466 152.022 605.33 151.697C605.2 151.372 605.017 151.074 604.781 150.802C604.55 150.524 604.255 150.303 603.895 150.137C603.54 149.966 603.109 149.88 602.601 149.88C602.116 149.88 601.694 149.981 601.333 150.182C600.979 150.382 600.686 150.663 600.456 151.023C600.226 151.378 600.054 151.794 599.942 152.273C599.83 152.752 599.774 153.271 599.774 153.833ZM610.381 149.127V158.716H609.327V149.127H610.381ZM609.141 146.353C609.141 146.152 609.203 145.984 609.327 145.848C609.457 145.706 609.634 145.635 609.859 145.635C610.083 145.635 610.26 145.706 610.39 145.848C610.526 145.984 610.594 146.152 610.594 146.353C610.594 146.548 610.526 146.717 610.39 146.858C610.26 146.994 610.083 147.062 609.859 147.062C609.634 147.062 609.457 146.994 609.327 146.858C609.203 146.717 609.141 146.548 609.141 146.353ZM612.694 154.072V153.779C612.694 153.082 612.795 152.438 612.996 151.848C613.197 151.257 613.483 150.746 613.855 150.314C614.233 149.883 614.685 149.549 615.211 149.313C615.737 149.071 616.322 148.95 616.966 148.95C617.616 148.95 618.204 149.071 618.729 149.313C619.255 149.549 619.707 149.883 620.085 150.314C620.463 150.746 620.753 151.257 620.954 151.848C621.155 152.438 621.255 153.082 621.255 153.779V154.072C621.255 154.769 621.155 155.413 620.954 156.004C620.753 156.589 620.463 157.097 620.085 157.528C619.713 157.959 619.264 158.296 618.738 158.538C618.212 158.775 617.628 158.893 616.984 158.893C616.334 158.893 615.746 158.775 615.22 158.538C614.694 158.296 614.242 157.959 613.864 157.528C613.486 157.097 613.197 156.589 612.996 156.004C612.795 155.413 612.694 154.769 612.694 154.072ZM613.749 153.779V154.072C613.749 154.598 613.82 155.097 613.962 155.57C614.103 156.036 614.31 156.453 614.582 156.819C614.854 157.18 615.19 157.463 615.592 157.67C615.994 157.877 616.458 157.98 616.984 157.98C617.503 157.98 617.961 157.877 618.357 157.67C618.759 157.463 619.096 157.18 619.367 156.819C619.639 156.453 619.843 156.036 619.979 155.57C620.121 155.097 620.192 154.598 620.192 154.072V153.779C620.192 153.26 620.121 152.766 619.979 152.3C619.843 151.833 619.636 151.416 619.359 151.05C619.087 150.684 618.75 150.394 618.348 150.182C617.947 149.969 617.486 149.863 616.966 149.863C616.446 149.863 615.985 149.969 615.583 150.182C615.188 150.394 614.851 150.684 614.573 151.05C614.301 151.416 614.095 151.833 613.953 152.3C613.817 152.766 613.749 153.26 613.749 153.779ZM624.507 151.174V158.716H623.453V149.127H624.463L624.507 151.174ZM624.268 153.328L623.798 153.062C623.834 152.495 623.949 151.963 624.144 151.467C624.339 150.97 624.602 150.533 624.933 150.155C625.269 149.777 625.662 149.481 626.111 149.269C626.566 149.056 627.068 148.95 627.618 148.95C628.096 148.95 628.525 149.015 628.903 149.145C629.281 149.275 629.603 149.481 629.869 149.765C630.135 150.049 630.335 150.412 630.471 150.855C630.613 151.298 630.684 151.839 630.684 152.477V158.716H629.621V152.468C629.621 151.806 629.529 151.289 629.346 150.917C629.163 150.539 628.903 150.27 628.566 150.111C628.229 149.951 627.831 149.871 627.37 149.871C626.862 149.871 626.416 149.984 626.032 150.208C625.653 150.427 625.334 150.713 625.074 151.068C624.82 151.416 624.625 151.791 624.49 152.193C624.354 152.589 624.28 152.967 624.268 153.328ZM639.262 156.996V152.051C639.262 151.597 639.168 151.204 638.979 150.873C638.79 150.542 638.512 150.288 638.146 150.111C637.78 149.933 637.328 149.845 636.79 149.845C636.294 149.845 635.851 149.933 635.461 150.111C635.077 150.282 634.772 150.515 634.548 150.811C634.329 151.1 634.22 151.422 634.22 151.777L633.157 151.768C633.157 151.407 633.245 151.059 633.422 150.722C633.6 150.385 633.851 150.084 634.176 149.818C634.501 149.552 634.888 149.343 635.337 149.189C635.791 149.03 636.291 148.95 636.834 148.95C637.52 148.95 638.122 149.065 638.642 149.295C639.168 149.526 639.578 149.871 639.874 150.332C640.169 150.793 640.317 151.372 640.317 152.069V156.704C640.317 157.035 640.341 157.377 640.388 157.732C640.441 158.086 640.515 158.379 640.609 158.609V158.716H639.484C639.413 158.503 639.357 158.237 639.316 157.918C639.28 157.593 639.262 157.286 639.262 156.996ZM639.511 153.133L639.528 153.948H637.446C636.902 153.948 636.415 153.998 635.983 154.099C635.558 154.193 635.198 154.335 634.902 154.524C634.607 154.707 634.379 154.929 634.22 155.189C634.066 155.448 633.99 155.744 633.99 156.075C633.99 156.417 634.075 156.731 634.247 157.014C634.424 157.298 634.672 157.525 634.991 157.696C635.316 157.862 635.7 157.945 636.143 157.945C636.734 157.945 637.254 157.835 637.703 157.617C638.158 157.398 638.533 157.112 638.828 156.757C639.124 156.403 639.321 156.016 639.422 155.596L639.883 156.208C639.806 156.503 639.664 156.807 639.457 157.12C639.256 157.428 638.994 157.717 638.669 157.989C638.344 158.255 637.96 158.473 637.517 158.645C637.079 158.81 636.583 158.893 636.028 158.893C635.402 158.893 634.855 158.775 634.388 158.538C633.928 158.302 633.567 157.98 633.307 157.572C633.053 157.159 632.926 156.692 632.926 156.172C632.926 155.7 633.027 155.277 633.227 154.905C633.428 154.527 633.718 154.208 634.096 153.948C634.48 153.682 634.941 153.481 635.478 153.345C636.022 153.203 636.63 153.133 637.304 153.133H639.511ZM644.34 145.104V158.716H643.286V145.104H644.34ZM653.246 145.813V158.716H652.156V145.813H653.246Z" fill="#2C2C2C"/>
<path d="M797.373 145.812H801.564C802.456 145.812 803.23 145.957 803.886 146.247C804.542 146.536 805.047 146.964 805.402 147.532C805.762 148.093 805.942 148.784 805.942 149.605C805.942 150.214 805.812 150.766 805.552 151.262C805.298 151.759 804.947 152.175 804.498 152.512C804.049 152.843 803.529 153.07 802.938 153.194L802.557 153.336H798.082L798.064 152.406H801.812C802.486 152.406 803.047 152.276 803.496 152.016C803.945 151.756 804.282 151.413 804.506 150.988C804.737 150.556 804.852 150.096 804.852 149.605C804.852 149.02 804.725 148.515 804.471 148.09C804.223 147.659 803.854 147.328 803.363 147.097C802.873 146.867 802.273 146.752 801.564 146.752H798.463V158.715H797.373V145.812ZM805.339 158.715L801.999 152.946L803.168 152.937L806.5 158.6V158.715H805.339ZM812.394 158.893C811.767 158.893 811.191 158.777 810.666 158.547C810.146 158.317 809.691 157.992 809.301 157.572C808.917 157.153 808.618 156.656 808.406 156.083C808.199 155.504 808.096 154.872 808.096 154.187V153.806C808.096 153.067 808.205 152.4 808.423 151.803C808.642 151.206 808.943 150.695 809.327 150.27C809.711 149.845 810.149 149.52 810.639 149.295C811.135 149.065 811.655 148.95 812.199 148.95C812.807 148.95 813.348 149.059 813.82 149.277C814.293 149.49 814.689 149.794 815.008 150.19C815.333 150.58 815.578 151.044 815.743 151.581C815.909 152.113 815.992 152.701 815.992 153.345V153.992H808.734V153.088H814.937V152.964C814.925 152.426 814.816 151.924 814.609 151.457C814.408 150.985 814.107 150.601 813.705 150.305C813.303 150.01 812.801 149.862 812.199 149.862C811.75 149.862 811.336 149.957 810.958 150.146C810.586 150.335 810.264 150.607 809.992 150.961C809.726 151.31 809.519 151.726 809.372 152.211C809.23 152.689 809.159 153.221 809.159 153.806V154.187C809.159 154.719 809.236 155.215 809.389 155.676C809.549 156.131 809.773 156.532 810.063 156.881C810.358 157.229 810.707 157.501 811.109 157.696C811.51 157.891 811.953 157.989 812.438 157.989C813.005 157.989 813.507 157.885 813.944 157.678C814.382 157.466 814.774 157.132 815.123 156.677L815.788 157.191C815.581 157.498 815.321 157.782 815.008 158.042C814.701 158.302 814.331 158.509 813.9 158.662C813.469 158.816 812.967 158.893 812.394 158.893ZM824.393 149.127H825.376V158.547C825.376 159.38 825.217 160.095 824.898 160.692C824.585 161.288 824.139 161.746 823.56 162.065C822.987 162.384 822.31 162.544 821.53 162.544C821.134 162.544 820.727 162.482 820.307 162.358C819.894 162.239 819.501 162.056 819.129 161.808C818.762 161.566 818.449 161.265 818.189 160.904L818.783 160.257C819.173 160.73 819.589 161.076 820.033 161.294C820.476 161.519 820.954 161.631 821.468 161.631C822.077 161.631 822.591 161.51 823.01 161.268C823.436 161.025 823.758 160.677 823.976 160.222C824.201 159.767 824.313 159.22 824.313 158.582V151.236L824.393 149.127ZM817.658 154.019V153.832C817.658 153.088 817.74 152.417 817.906 151.821C818.077 151.218 818.322 150.704 818.641 150.279C818.96 149.848 819.347 149.52 819.802 149.295C820.263 149.065 820.783 148.95 821.362 148.95C821.917 148.95 822.41 149.041 822.842 149.224C823.273 149.407 823.645 149.67 823.958 150.013C824.271 150.356 824.523 150.763 824.712 151.236C824.907 151.709 825.048 152.234 825.137 152.813V155.179C825.066 155.723 824.936 156.222 824.747 156.677C824.558 157.126 824.307 157.519 823.994 157.856C823.681 158.187 823.303 158.444 822.859 158.627C822.422 158.804 821.917 158.893 821.344 158.893C820.771 158.893 820.257 158.774 819.802 158.538C819.347 158.302 818.96 157.968 818.641 157.537C818.322 157.1 818.077 156.583 817.906 155.986C817.74 155.389 817.658 154.733 817.658 154.019ZM818.721 153.832V154.019C818.721 154.58 818.777 155.1 818.889 155.578C819.002 156.057 819.173 156.473 819.403 156.828C819.634 157.182 819.926 157.46 820.281 157.661C820.635 157.862 821.052 157.962 821.53 157.962C822.139 157.962 822.65 157.847 823.063 157.616C823.477 157.38 823.805 157.07 824.047 156.686C824.289 156.296 824.466 155.871 824.579 155.41V152.654C824.514 152.341 824.413 152.022 824.277 151.697C824.147 151.372 823.964 151.073 823.728 150.802C823.498 150.524 823.202 150.302 822.842 150.137C822.487 149.966 822.056 149.88 821.548 149.88C821.063 149.88 820.641 149.98 820.281 150.181C819.926 150.382 819.634 150.663 819.403 151.023C819.173 151.378 819.002 151.794 818.889 152.273C818.777 152.751 818.721 153.271 818.721 153.832ZM829.329 149.127V158.715H828.274V149.127H829.329ZM828.088 146.353C828.088 146.152 828.15 145.984 828.274 145.848C828.404 145.706 828.581 145.635 828.806 145.635C829.03 145.635 829.208 145.706 829.338 145.848C829.473 145.984 829.541 146.152 829.541 146.353C829.541 146.548 829.473 146.716 829.338 146.858C829.208 146.994 829.03 147.062 828.806 147.062C828.581 147.062 828.404 146.994 828.274 146.858C828.15 146.716 828.088 146.548 828.088 146.353ZM831.642 154.072V153.779C831.642 153.082 831.742 152.438 831.943 151.847C832.144 151.257 832.43 150.746 832.803 150.314C833.181 149.883 833.633 149.549 834.158 149.313C834.684 149.071 835.269 148.95 835.913 148.95C836.563 148.95 837.151 149.071 837.677 149.313C838.202 149.549 838.654 149.883 839.032 150.314C839.411 150.746 839.7 151.257 839.901 151.847C840.102 152.438 840.202 153.082 840.202 153.779V154.072C840.202 154.769 840.102 155.413 839.901 156.004C839.7 156.588 839.411 157.097 839.032 157.528C838.66 157.959 838.211 158.296 837.685 158.538C837.16 158.774 836.575 158.893 835.931 158.893C835.281 158.893 834.693 158.774 834.167 158.538C833.641 158.296 833.19 157.959 832.811 157.528C832.433 157.097 832.144 156.588 831.943 156.004C831.742 155.413 831.642 154.769 831.642 154.072ZM832.696 153.779V154.072C832.696 154.597 832.767 155.097 832.909 155.569C833.051 156.036 833.257 156.453 833.529 156.819C833.801 157.179 834.138 157.463 834.539 157.67C834.941 157.876 835.405 157.98 835.931 157.98C836.451 157.98 836.909 157.876 837.304 157.67C837.706 157.463 838.043 157.179 838.315 156.819C838.586 156.453 838.79 156.036 838.926 155.569C839.068 155.097 839.139 154.597 839.139 154.072V153.779C839.139 153.259 839.068 152.766 838.926 152.299C838.79 151.833 838.583 151.416 838.306 151.05C838.034 150.683 837.697 150.394 837.296 150.181C836.894 149.969 836.433 149.862 835.913 149.862C835.393 149.862 834.932 149.969 834.531 150.181C834.135 150.394 833.798 150.683 833.52 151.05C833.249 151.416 833.042 151.833 832.9 152.299C832.764 152.766 832.696 153.259 832.696 153.779ZM843.455 151.174V158.715H842.4V149.127H843.41L843.455 151.174ZM843.215 153.327L842.746 153.061C842.781 152.494 842.896 151.963 843.091 151.466C843.286 150.97 843.549 150.533 843.88 150.155C844.217 149.777 844.61 149.481 845.059 149.269C845.513 149.056 846.016 148.95 846.565 148.95C847.044 148.95 847.472 149.014 847.85 149.144C848.228 149.274 848.55 149.481 848.816 149.765C849.082 150.048 849.283 150.412 849.419 150.855C849.56 151.298 849.631 151.838 849.631 152.477V158.715H848.568V152.468C848.568 151.806 848.476 151.289 848.293 150.917C848.11 150.539 847.85 150.27 847.513 150.11C847.177 149.951 846.778 149.871 846.317 149.871C845.809 149.871 845.363 149.983 844.979 150.208C844.601 150.426 844.282 150.713 844.022 151.068C843.768 151.416 843.573 151.791 843.437 152.193C843.301 152.589 843.227 152.967 843.215 153.327ZM858.21 156.996V152.051C858.21 151.596 858.115 151.203 857.926 150.873C857.737 150.542 857.459 150.288 857.093 150.11C856.727 149.933 856.275 149.845 855.737 149.845C855.241 149.845 854.798 149.933 854.408 150.11C854.024 150.282 853.72 150.515 853.495 150.811C853.277 151.1 853.167 151.422 853.167 151.776L852.104 151.768C852.104 151.407 852.192 151.059 852.37 150.722C852.547 150.385 852.798 150.084 853.123 149.818C853.448 149.552 853.835 149.342 854.284 149.189C854.739 149.029 855.238 148.95 855.782 148.95C856.467 148.95 857.069 149.065 857.589 149.295C858.115 149.526 858.526 149.871 858.821 150.332C859.117 150.793 859.264 151.372 859.264 152.069V156.704C859.264 157.035 859.288 157.377 859.335 157.732C859.388 158.086 859.462 158.379 859.557 158.609V158.715H858.431C858.36 158.503 858.304 158.237 858.263 157.918C858.227 157.593 858.21 157.286 858.21 156.996ZM858.458 153.132L858.476 153.948H856.393C855.849 153.948 855.362 153.998 854.931 154.098C854.505 154.193 854.145 154.335 853.85 154.524C853.554 154.707 853.327 154.928 853.167 155.188C853.014 155.448 852.937 155.744 852.937 156.074C852.937 156.417 853.022 156.73 853.194 157.014C853.371 157.297 853.619 157.525 853.938 157.696C854.263 157.862 854.647 157.944 855.09 157.944C855.681 157.944 856.201 157.835 856.65 157.616C857.105 157.398 857.48 157.111 857.775 156.757C858.071 156.402 858.269 156.015 858.369 155.596L858.83 156.207C858.753 156.503 858.611 156.807 858.405 157.12C858.204 157.427 857.941 157.717 857.616 157.989C857.291 158.255 856.907 158.473 856.464 158.644C856.027 158.81 855.53 158.893 854.975 158.893C854.349 158.893 853.802 158.774 853.336 158.538C852.875 158.302 852.514 157.98 852.254 157.572C852 157.159 851.873 156.692 851.873 156.172C851.873 155.699 851.974 155.277 852.175 154.905C852.376 154.527 852.665 154.208 853.043 153.948C853.427 153.682 853.888 153.481 854.426 153.345C854.969 153.203 855.578 153.132 856.251 153.132H858.458ZM863.288 145.103V158.715H862.233V145.103H863.288ZM872.194 145.812V158.715H871.104V145.812H872.194ZM877.032 145.812V158.715H875.942V145.812H877.032Z" fill="#2C2C2C"/>
<path d="M529.005 87.9952H536.705C538.283 87.9952 539.64 88.2315 540.774 88.7041C541.918 89.1768 542.797 89.8763 543.411 90.8026C544.026 91.729 544.333 92.8681 544.333 94.2198C544.333 95.3258 544.144 96.2758 543.766 97.0698C543.397 97.8544 542.873 98.5113 542.192 99.0407C541.521 99.5606 540.731 99.9765 539.824 100.288L538.477 100.997H531.784L531.756 97.6795H536.733C537.48 97.6795 538.099 97.5471 538.59 97.2825C539.082 97.0178 539.451 96.6491 539.696 96.1765C539.952 95.7039 540.079 95.1556 540.079 94.5317C540.079 93.87 539.956 93.2982 539.711 92.8161C539.465 92.334 539.091 91.9653 538.59 91.7101C538.089 91.4549 537.461 91.3273 536.705 91.3273H533.259V108.64H529.005V87.9952ZM540.547 108.64L535.84 99.4377L540.334 99.4093L545.099 108.441V108.64H540.547ZM554.414 108.923C553.223 108.923 552.155 108.734 551.21 108.356C550.265 107.969 549.461 107.435 548.799 106.754C548.147 106.073 547.646 105.284 547.296 104.386C546.947 103.479 546.772 102.515 546.772 101.494V100.926C546.772 99.7638 546.937 98.7004 547.268 97.7362C547.599 96.772 548.071 95.9355 548.686 95.2265C549.31 94.5175 550.066 93.974 550.955 93.5959C551.843 93.2083 552.845 93.0146 553.961 93.0146C555.048 93.0146 556.012 93.1942 556.853 93.5534C557.694 93.9126 558.399 94.423 558.966 95.0847C559.542 95.7464 559.977 96.5404 560.27 97.4668C560.563 98.3837 560.71 99.4046 560.71 100.529V102.231H548.516V99.5086H556.697V99.1966C556.697 98.6295 556.593 98.1238 556.385 97.6795C556.187 97.2257 555.884 96.8665 555.478 96.6019C555.071 96.3372 554.551 96.2049 553.918 96.2049C553.379 96.2049 552.916 96.323 552.528 96.5593C552.141 96.7957 551.824 97.1265 551.578 97.5519C551.342 97.9772 551.163 98.4782 551.04 99.0548C550.926 99.622 550.869 100.246 550.869 100.926V101.494C550.869 102.108 550.955 102.675 551.125 103.195C551.304 103.715 551.555 104.164 551.876 104.542C552.207 104.92 552.604 105.213 553.067 105.421C553.54 105.629 554.074 105.733 554.669 105.733C555.407 105.733 556.092 105.591 556.725 105.308C557.368 105.015 557.921 104.575 558.384 103.989L560.369 106.144C560.048 106.608 559.609 107.052 559.051 107.477C558.503 107.903 557.841 108.252 557.066 108.526C556.291 108.791 555.407 108.923 554.414 108.923ZM572.748 93.2982H576.449V108.129C576.449 109.528 576.137 110.715 575.513 111.688C574.898 112.671 574.038 113.414 572.932 113.915C571.826 114.425 570.541 114.68 569.075 114.68C568.433 114.68 567.752 114.595 567.034 114.425C566.325 114.255 565.644 113.99 564.992 113.631C564.349 113.272 563.81 112.818 563.375 112.27L565.176 109.859C565.649 110.408 566.197 110.833 566.821 111.135C567.445 111.447 568.135 111.603 568.891 111.603C569.628 111.603 570.252 111.466 570.763 111.192C571.273 110.927 571.665 110.535 571.94 110.015C572.214 109.505 572.351 108.886 572.351 108.158V96.8429L572.748 93.2982ZM562.425 101.153V100.856C562.425 99.6835 562.567 98.62 562.851 97.6653C563.144 96.7011 563.555 95.874 564.084 95.184C564.623 94.4939 565.275 93.9598 566.041 93.5817C566.807 93.2036 567.672 93.0146 568.636 93.0146C569.657 93.0146 570.512 93.2036 571.202 93.5817C571.892 93.9598 572.459 94.4986 572.904 95.1981C573.348 95.8882 573.693 96.7059 573.939 97.6511C574.194 98.5869 574.393 99.6126 574.534 100.728V101.38C574.393 102.448 574.18 103.441 573.896 104.358C573.613 105.275 573.239 106.078 572.776 106.768C572.313 107.449 571.736 107.978 571.046 108.356C570.366 108.734 569.553 108.923 568.607 108.923C567.662 108.923 566.807 108.73 566.041 108.342C565.285 107.955 564.637 107.411 564.099 106.712C563.56 106.012 563.144 105.19 562.851 104.244C562.567 103.299 562.425 102.269 562.425 101.153ZM566.509 100.856V101.153C566.509 101.787 566.57 102.377 566.693 102.926C566.816 103.474 567.005 103.961 567.26 104.386C567.525 104.802 567.851 105.128 568.239 105.365C568.636 105.591 569.104 105.705 569.643 105.705C570.389 105.705 570.999 105.549 571.472 105.237C571.944 104.916 572.299 104.476 572.535 103.918C572.771 103.361 572.908 102.718 572.946 101.99V100.132C572.927 99.5369 572.847 99.0029 572.705 98.5302C572.563 98.0481 572.365 97.6369 572.11 97.2966C571.855 96.9563 571.524 96.6917 571.117 96.5026C570.711 96.3136 570.229 96.219 569.671 96.219C569.132 96.219 568.664 96.3419 568.267 96.5877C567.88 96.824 567.554 97.1501 567.289 97.566C567.034 97.982 566.84 98.4735 566.708 99.0407C566.575 99.5984 566.509 100.203 566.509 100.856ZM583.935 93.2982V108.64H579.837V93.2982H583.935ZM579.582 89.2997C579.582 88.7041 579.79 88.2126 580.206 87.825C580.622 87.4375 581.18 87.2437 581.879 87.2437C582.569 87.2437 583.122 87.4375 583.538 87.825C583.963 88.2126 584.176 88.7041 584.176 89.2997C584.176 89.8952 583.963 90.3867 583.538 90.7743C583.122 91.1618 582.569 91.3556 581.879 91.3556C581.18 91.3556 580.622 91.1618 580.206 90.7743C579.79 90.3867 579.582 89.8952 579.582 89.2997ZM586.657 101.125V100.827C586.657 99.7024 586.818 98.6673 587.14 97.722C587.461 96.7673 587.929 95.9402 588.543 95.2407C589.158 94.5412 589.914 93.9977 590.812 93.6101C591.71 93.2131 592.74 93.0146 593.903 93.0146C595.066 93.0146 596.101 93.2131 597.008 93.6101C597.916 93.9977 598.677 94.5412 599.291 95.2407C599.915 95.9402 600.387 96.7673 600.709 97.722C601.03 98.6673 601.191 99.7024 601.191 100.827V101.125C601.191 102.24 601.03 103.275 600.709 104.23C600.387 105.175 599.915 106.003 599.291 106.712C598.677 107.411 597.92 107.955 597.022 108.342C596.124 108.73 595.094 108.923 593.931 108.923C592.769 108.923 591.734 108.73 590.826 108.342C589.928 107.955 589.167 107.411 588.543 106.712C587.929 106.003 587.461 105.175 587.14 104.23C586.818 103.275 586.657 102.24 586.657 101.125ZM590.741 100.827V101.125C590.741 101.768 590.798 102.368 590.911 102.926C591.025 103.483 591.204 103.975 591.45 104.4C591.705 104.816 592.036 105.142 592.442 105.379C592.849 105.615 593.345 105.733 593.931 105.733C594.498 105.733 594.985 105.615 595.392 105.379C595.798 105.142 596.124 104.816 596.37 104.4C596.616 103.975 596.795 103.483 596.909 102.926C597.032 102.368 597.093 101.768 597.093 101.125V100.827C597.093 100.203 597.032 99.6173 596.909 99.069C596.795 98.5113 596.611 98.0198 596.356 97.5944C596.11 97.1596 595.784 96.8193 595.378 96.5735C594.971 96.3277 594.48 96.2049 593.903 96.2049C593.326 96.2049 592.835 96.3277 592.428 96.5735C592.031 96.8193 591.705 97.1596 591.45 97.5944C591.204 98.0198 591.025 98.5113 590.911 99.069C590.798 99.6173 590.741 100.203 590.741 100.827ZM607.699 96.5735V108.64H603.616V93.2982H607.444L607.699 96.5735ZM607.104 100.43H605.998C605.998 99.2959 606.144 98.275 606.437 97.3675C606.73 96.4506 607.141 95.6708 607.671 95.028C608.2 94.3758 608.829 93.8795 609.557 93.5392C610.294 93.1894 611.116 93.0146 612.024 93.0146C612.742 93.0146 613.399 93.1185 613.995 93.3265C614.59 93.5345 615.101 93.8653 615.526 94.319C615.961 94.7728 616.292 95.373 616.519 96.1198C616.755 96.8665 616.873 97.7787 616.873 98.8563V108.64H612.761V98.8422C612.761 98.1616 612.667 97.6322 612.478 97.2541C612.288 96.876 612.01 96.6113 611.641 96.4601C611.282 96.2994 610.837 96.219 610.308 96.219C609.76 96.219 609.282 96.3277 608.876 96.5452C608.479 96.7626 608.148 97.0651 607.883 97.4526C607.628 97.8307 607.434 98.275 607.302 98.7854C607.17 99.2959 607.104 99.8441 607.104 100.43ZM628.259 105.18V98.3459C628.259 97.8544 628.178 97.4337 628.018 97.084C627.857 96.7248 627.607 96.4459 627.266 96.2474C626.935 96.0489 626.505 95.9496 625.976 95.9496C625.522 95.9496 625.13 96.03 624.799 96.1907C624.468 96.3419 624.213 96.5641 624.033 96.8571C623.854 97.1407 623.764 97.4762 623.764 97.8638H619.68C619.68 97.2116 619.832 96.5924 620.134 96.0064C620.437 95.4203 620.876 94.9051 621.453 94.4608C622.029 94.0071 622.715 93.6526 623.509 93.3974C624.312 93.1422 625.21 93.0146 626.203 93.0146C627.394 93.0146 628.453 93.2131 629.379 93.6101C630.305 94.0071 631.033 94.6026 631.563 95.3967C632.101 96.1907 632.371 97.1832 632.371 98.3743V104.939C632.371 105.78 632.423 106.47 632.527 107.009C632.631 107.539 632.782 108.002 632.98 108.399V108.64H628.854C628.656 108.224 628.505 107.704 628.401 107.08C628.306 106.447 628.259 105.814 628.259 105.18ZM628.798 99.2959L628.826 101.607H626.543C626.004 101.607 625.536 101.669 625.139 101.791C624.742 101.914 624.416 102.089 624.161 102.316C623.906 102.533 623.717 102.789 623.594 103.082C623.48 103.375 623.424 103.696 623.424 104.046C623.424 104.396 623.504 104.712 623.665 104.996C623.825 105.27 624.057 105.487 624.36 105.648C624.662 105.799 625.017 105.875 625.423 105.875C626.037 105.875 626.571 105.752 627.025 105.506C627.479 105.261 627.829 104.958 628.074 104.599C628.33 104.24 628.462 103.899 628.471 103.578L629.549 105.308C629.398 105.695 629.19 106.097 628.925 106.513C628.67 106.929 628.344 107.321 627.947 107.69C627.55 108.049 627.072 108.347 626.515 108.583C625.957 108.81 625.295 108.923 624.53 108.923C623.556 108.923 622.672 108.73 621.878 108.342C621.094 107.945 620.47 107.402 620.007 106.712C619.553 106.012 619.326 105.218 619.326 104.329C619.326 103.526 619.477 102.812 619.78 102.188C620.082 101.565 620.526 101.04 621.113 100.615C621.708 100.18 622.45 99.8536 623.339 99.6362C624.227 99.4093 625.258 99.2959 626.43 99.2959H628.798ZM639.829 93.2982V108.64H635.731V93.2982H639.829ZM635.476 89.2997C635.476 88.7041 635.684 88.2126 636.1 87.825C636.516 87.4375 637.073 87.2437 637.773 87.2437C638.463 87.2437 639.016 87.4375 639.432 87.825C639.857 88.2126 640.07 88.7041 640.07 89.2997C640.07 89.8952 639.857 90.3867 639.432 90.7743C639.016 91.1618 638.463 91.3556 637.773 91.3556C637.073 91.3556 636.516 91.1618 636.1 90.7743C635.684 90.3867 635.476 89.8952 635.476 89.2997ZM651.498 104.4C651.498 104.107 651.413 103.843 651.243 103.606C651.073 103.37 650.756 103.153 650.293 102.954C649.839 102.746 649.182 102.557 648.322 102.387C647.547 102.217 646.824 102.004 646.153 101.749C645.491 101.484 644.914 101.168 644.423 100.799C643.941 100.43 643.563 99.9954 643.289 99.4944C643.014 98.984 642.877 98.4026 642.877 97.7504C642.877 97.1076 643.014 96.5026 643.289 95.9355C643.572 95.3683 643.974 94.8673 644.494 94.4325C645.023 93.9882 645.666 93.6432 646.422 93.3974C647.188 93.1422 648.048 93.0146 649.003 93.0146C650.336 93.0146 651.479 93.2273 652.434 93.6526C653.398 94.078 654.136 94.6641 654.646 95.4108C655.166 96.1481 655.426 96.9894 655.426 97.9347H651.342C651.342 97.5377 651.257 97.1832 651.087 96.8713C650.926 96.5499 650.671 96.2994 650.321 96.1198C649.981 95.9307 649.537 95.8362 648.989 95.8362C648.535 95.8362 648.143 95.9166 647.812 96.0772C647.481 96.2285 647.226 96.4364 647.046 96.7011C646.876 96.9563 646.791 97.2399 646.791 97.5519C646.791 97.7882 646.838 98.0009 646.933 98.1899C647.037 98.3695 647.202 98.5349 647.429 98.6862C647.656 98.8374 647.949 98.9792 648.308 99.1116C648.677 99.2344 649.13 99.3479 649.669 99.4519C650.775 99.6787 651.763 99.9765 652.633 100.345C653.502 100.704 654.192 101.196 654.703 101.82C655.213 102.434 655.468 103.242 655.468 104.244C655.468 104.925 655.317 105.549 655.015 106.116C654.712 106.683 654.277 107.179 653.71 107.605C653.143 108.021 652.462 108.347 651.668 108.583C650.884 108.81 650 108.923 649.017 108.923C647.59 108.923 646.38 108.668 645.387 108.158C644.404 107.647 643.657 107 643.147 106.215C642.646 105.421 642.395 104.608 642.395 103.776H646.266C646.285 104.334 646.427 104.783 646.692 105.123C646.966 105.464 647.311 105.71 647.727 105.861C648.152 106.012 648.61 106.088 649.102 106.088C649.631 106.088 650.071 106.017 650.421 105.875C650.77 105.724 651.035 105.525 651.215 105.279C651.404 105.024 651.498 104.731 651.498 104.4Z" fill="#606060"/>
<path d="M209.736 393.334L295.073 303.123L350.686 392.353H413.969H479.17L545.33 303.122L600.942 389.411H670.938H738.056L806.134 302.141L857.911 393.334L926.947 338.423" stroke="#F45197" stroke-width="3.62984"/>
<path d="M209.736 409.443L290.032 365.76L359.224 372.607L413.969 408.463H479.17L546.714 358.341L614.79 376.031L670.937 405.52H738.056L804.512 362.904L857.911 409.443L928.389 305.272" stroke="#0567FF" stroke-width="3.62984"/>
<path d="M529.412 152.063H565.711" stroke="#0567FF" stroke-width="3.62984"/>
<path d="M749.527 152.063H785.826" stroke="#F45197" stroke-width="3.62984"/>
</svg>
