<svg width="795" height="611" viewBox="0 0 795 611" fill="none" xmlns="http://www.w3.org/2000/svg">
<rect x="2.13384" y="1.99907" width="790.452" height="607.021" stroke="#CACACA" stroke-width="2.88486"/>
<line x1="205.714" y1="139.889" x2="205.714" y2="485.553" stroke="#606060" stroke-width="2.88486"/>
<line x1="336.815" y1="139.889" x2="336.815" y2="485.553" stroke="#CACACA" stroke-width="2.88486"/>
<line x1="467.917" y1="139.889" x2="467.917" y2="485.553" stroke="#CACACA" stroke-width="2.88486"/>
<line x1="599.023" y1="139.889" x2="599.023" y2="485.553" stroke="#CACACA" stroke-width="2.88486"/>
<line x1="730.128" y1="139.889" x2="730.128" y2="485.553" stroke="#CACACA" stroke-width="2.88486"/>
<path d="M205.576 160.901H582.723V204.174H205.576V160.901Z" fill="#C1D9FF"/>
<path d="M205.576 275.466H715.136V318.739H205.576V275.466Z" fill="#0567FF"/>
<path d="M205.576 390.034H488.437V433.307H205.576V390.034Z" fill="#C1D9FF"/>
<path d="M100.271 172.38H105.024C106.102 172.38 107.012 172.544 107.755 172.873C108.505 173.201 109.073 173.688 109.461 174.332C109.855 174.97 110.053 175.755 110.053 176.689C110.053 177.346 109.918 177.947 109.648 178.493C109.385 179.032 109.004 179.492 108.505 179.874C108.012 180.248 107.42 180.528 106.73 180.712L106.197 180.919H101.73L101.711 179.371H105.083C105.767 179.371 106.335 179.252 106.789 179.016C107.242 178.772 107.584 178.447 107.814 178.039C108.044 177.632 108.159 177.182 108.159 176.689C108.159 176.136 108.051 175.653 107.834 175.239C107.617 174.825 107.275 174.506 106.809 174.283C106.348 174.053 105.754 173.938 105.024 173.938H102.174V186.736H100.271V172.38ZM108.662 186.736L105.172 180.228L107.154 180.219L110.694 186.618V186.736H108.662ZM116.866 186.934C116.123 186.934 115.45 186.809 114.845 186.559C114.247 186.302 113.731 185.944 113.297 185.484C112.869 185.024 112.541 184.478 112.311 183.847C112.081 183.216 111.966 182.526 111.966 181.777V181.362C111.966 180.495 112.094 179.722 112.35 179.045C112.606 178.362 112.955 177.783 113.395 177.31C113.836 176.837 114.335 176.478 114.894 176.235C115.453 175.992 116.031 175.87 116.63 175.87C117.392 175.87 118.049 176.002 118.602 176.265C119.16 176.528 119.617 176.896 119.972 177.369C120.327 177.836 120.59 178.388 120.761 179.026C120.932 179.657 121.017 180.347 121.017 181.096V181.915H113.05V180.426H119.193V180.288C119.167 179.814 119.068 179.354 118.897 178.907C118.733 178.46 118.47 178.092 118.109 177.803C117.747 177.514 117.254 177.369 116.63 177.369C116.215 177.369 115.834 177.458 115.486 177.635C115.137 177.806 114.838 178.062 114.588 178.404C114.339 178.746 114.145 179.164 114.007 179.657C113.869 180.15 113.8 180.718 113.8 181.362V181.777C113.8 182.283 113.869 182.759 114.007 183.206C114.151 183.647 114.358 184.035 114.628 184.37C114.904 184.705 115.236 184.968 115.624 185.159C116.018 185.349 116.465 185.445 116.965 185.445C117.609 185.445 118.155 185.313 118.602 185.05C119.049 184.787 119.44 184.436 119.775 183.995L120.879 184.873C120.649 185.221 120.357 185.553 120.002 185.869C119.647 186.184 119.21 186.441 118.69 186.638C118.178 186.835 117.57 186.934 116.866 186.934ZM130.059 176.067H131.716V186.51C131.716 187.45 131.525 188.252 131.144 188.915C130.763 189.579 130.23 190.082 129.547 190.424C128.869 190.773 128.087 190.947 127.2 190.947C126.832 190.947 126.398 190.888 125.898 190.769C125.405 190.657 124.919 190.464 124.439 190.187C123.966 189.918 123.568 189.553 123.246 189.093L124.202 188.008C124.649 188.547 125.116 188.922 125.602 189.132C126.095 189.343 126.582 189.448 127.062 189.448C127.64 189.448 128.14 189.339 128.561 189.123C128.981 188.906 129.307 188.584 129.537 188.156C129.773 187.736 129.892 187.216 129.892 186.598V178.414L130.059 176.067ZM122.713 181.52V181.313C122.713 180.498 122.809 179.758 122.999 179.095C123.197 178.424 123.476 177.849 123.837 177.369C124.206 176.889 124.649 176.521 125.169 176.265C125.688 176.002 126.273 175.87 126.924 175.87C127.594 175.87 128.179 175.989 128.679 176.225C129.185 176.455 129.612 176.794 129.961 177.241C130.316 177.681 130.595 178.214 130.799 178.838C131.003 179.463 131.144 180.169 131.223 180.958V181.865C131.151 182.648 131.009 183.351 130.799 183.975C130.595 184.6 130.316 185.132 129.961 185.573C129.612 186.013 129.185 186.352 128.679 186.588C128.173 186.818 127.581 186.934 126.904 186.934C126.266 186.934 125.688 186.799 125.169 186.529C124.656 186.26 124.215 185.882 123.847 185.395C123.479 184.909 123.197 184.337 122.999 183.68C122.809 183.016 122.713 182.296 122.713 181.52ZM124.538 181.313V181.52C124.538 182.053 124.59 182.552 124.695 183.019C124.807 183.486 124.975 183.897 125.198 184.252C125.428 184.606 125.721 184.886 126.076 185.09C126.431 185.287 126.855 185.385 127.348 185.385C127.952 185.385 128.452 185.257 128.846 185.001C129.241 184.745 129.553 184.406 129.783 183.985C130.02 183.565 130.204 183.108 130.335 182.615V180.238C130.263 179.877 130.151 179.528 130 179.193C129.856 178.851 129.665 178.549 129.428 178.286C129.198 178.016 128.912 177.803 128.57 177.645C128.229 177.487 127.828 177.408 127.367 177.408C126.868 177.408 126.437 177.514 126.076 177.724C125.721 177.928 125.428 178.21 125.198 178.572C124.975 178.927 124.807 179.341 124.695 179.814C124.59 180.281 124.538 180.781 124.538 181.313ZM136.469 176.067V186.736H134.635V176.067H136.469ZM134.496 173.237C134.496 172.942 134.585 172.692 134.763 172.488C134.947 172.284 135.216 172.182 135.571 172.182C135.92 172.182 136.186 172.284 136.37 172.488C136.561 172.692 136.656 172.942 136.656 173.237C136.656 173.52 136.561 173.763 136.37 173.967C136.186 174.164 135.92 174.263 135.571 174.263C135.216 174.263 134.947 174.164 134.763 173.967C134.585 173.763 134.496 173.52 134.496 173.237ZM138.914 181.52V181.293C138.914 180.524 139.026 179.811 139.249 179.154C139.473 178.49 139.795 177.915 140.215 177.428C140.636 176.935 141.146 176.554 141.744 176.284C142.342 176.008 143.013 175.87 143.755 175.87C144.505 175.87 145.179 176.008 145.777 176.284C146.382 176.554 146.894 176.935 147.315 177.428C147.742 177.915 148.068 178.49 148.291 179.154C148.515 179.811 148.626 180.524 148.626 181.293V181.52C148.626 182.289 148.515 183.003 148.291 183.66C148.068 184.317 147.742 184.892 147.315 185.385C146.894 185.872 146.385 186.253 145.787 186.529C145.195 186.799 144.524 186.934 143.775 186.934C143.026 186.934 142.352 186.799 141.754 186.529C141.156 186.253 140.643 185.872 140.215 185.385C139.795 184.892 139.473 184.317 139.249 183.66C139.026 183.003 138.914 182.289 138.914 181.52ZM140.738 181.293V181.52C140.738 182.053 140.801 182.556 140.925 183.029C141.05 183.496 141.238 183.91 141.487 184.271C141.744 184.633 142.063 184.919 142.444 185.129C142.825 185.333 143.269 185.435 143.775 185.435C144.275 185.435 144.712 185.333 145.087 185.129C145.468 184.919 145.783 184.633 146.033 184.271C146.283 183.91 146.47 183.496 146.595 183.029C146.727 182.556 146.792 182.053 146.792 181.52V181.293C146.792 180.768 146.727 180.271 146.595 179.804C146.47 179.331 146.28 178.914 146.023 178.552C145.773 178.184 145.458 177.895 145.077 177.685C144.702 177.474 144.262 177.369 143.755 177.369C143.256 177.369 142.815 177.474 142.434 177.685C142.059 177.895 141.744 178.184 141.487 178.552C141.238 178.914 141.05 179.331 140.925 179.804C140.801 180.271 140.738 180.768 140.738 181.293ZM152.738 178.345V186.736H150.914V176.067H152.64L152.738 178.345ZM152.304 180.998L151.545 180.968C151.552 180.238 151.66 179.565 151.87 178.947C152.081 178.322 152.377 177.78 152.758 177.32C153.139 176.86 153.593 176.505 154.119 176.255C154.651 175.998 155.239 175.87 155.884 175.87C156.409 175.87 156.883 175.943 157.303 176.087C157.724 176.225 158.082 176.449 158.378 176.758C158.681 177.067 158.911 177.468 159.068 177.961C159.226 178.447 159.305 179.042 159.305 179.745V186.736H157.471V179.726C157.471 179.167 157.389 178.72 157.225 178.385C157.06 178.043 156.82 177.796 156.505 177.645C156.189 177.487 155.801 177.408 155.341 177.408C154.888 177.408 154.474 177.504 154.099 177.694C153.731 177.885 153.412 178.148 153.142 178.483C152.879 178.818 152.672 179.203 152.521 179.637C152.377 180.064 152.304 180.518 152.304 180.998ZM168.367 184.912V179.42C168.367 178.999 168.281 178.634 168.11 178.325C167.946 178.01 167.696 177.767 167.361 177.596C167.026 177.425 166.612 177.339 166.119 177.339C165.659 177.339 165.254 177.418 164.906 177.576C164.564 177.734 164.294 177.941 164.097 178.197C163.907 178.454 163.811 178.73 163.811 179.026H161.987C161.987 178.644 162.086 178.266 162.283 177.892C162.48 177.517 162.763 177.178 163.131 176.876C163.506 176.567 163.953 176.324 164.472 176.146C164.998 175.962 165.583 175.87 166.227 175.87C167.003 175.87 167.686 176.002 168.278 176.265C168.876 176.528 169.343 176.925 169.678 177.458C170.02 177.984 170.191 178.644 170.191 179.44V184.409C170.191 184.764 170.221 185.142 170.28 185.543C170.345 185.944 170.441 186.289 170.566 186.579V186.736H168.663C168.571 186.526 168.498 186.247 168.446 185.898C168.393 185.543 168.367 185.215 168.367 184.912ZM168.682 180.268L168.702 181.55H166.858C166.339 181.55 165.875 181.593 165.468 181.678C165.06 181.757 164.718 181.878 164.442 182.043C164.166 182.207 163.956 182.414 163.811 182.664C163.667 182.907 163.594 183.193 163.594 183.522C163.594 183.857 163.67 184.163 163.821 184.439C163.972 184.715 164.199 184.935 164.502 185.1C164.811 185.257 165.188 185.336 165.635 185.336C166.194 185.336 166.687 185.218 167.115 184.981C167.542 184.745 167.88 184.455 168.13 184.113C168.387 183.772 168.525 183.44 168.544 183.118L169.323 183.995C169.277 184.271 169.152 184.577 168.949 184.912C168.745 185.247 168.472 185.57 168.13 185.878C167.795 186.181 167.394 186.434 166.927 186.638C166.467 186.835 165.948 186.934 165.369 186.934C164.646 186.934 164.012 186.792 163.466 186.51C162.927 186.227 162.506 185.849 162.204 185.376C161.908 184.896 161.76 184.36 161.76 183.768C161.76 183.196 161.872 182.694 162.096 182.26C162.319 181.819 162.641 181.454 163.062 181.165C163.483 180.869 163.989 180.646 164.58 180.495C165.172 180.344 165.833 180.268 166.562 180.268H168.682ZM175.042 171.591V186.736H173.208V171.591H175.042ZM185.297 172.38V186.736H183.394V172.38H185.297Z" fill="#606060"/>
<path d="M96.0487 290.398H100.801C101.879 290.398 102.79 290.563 103.533 290.891C104.282 291.22 104.851 291.706 105.239 292.351C105.633 292.988 105.83 293.774 105.83 294.707C105.83 295.365 105.695 295.966 105.426 296.512C105.163 297.051 104.782 297.511 104.282 297.892C103.789 298.267 103.197 298.546 102.507 298.73L101.975 298.937H97.508L97.4883 297.389H100.861C101.544 297.389 102.113 297.271 102.566 297.034C103.02 296.791 103.362 296.466 103.592 296.058C103.822 295.65 103.937 295.2 103.937 294.707C103.937 294.155 103.829 293.672 103.612 293.258C103.395 292.844 103.053 292.525 102.586 292.301C102.126 292.071 101.531 291.956 100.801 291.956H97.9518V304.755H96.0487V290.398ZM104.44 304.755L100.949 298.247L102.931 298.237L106.471 304.637V304.755H104.44ZM112.644 304.952C111.901 304.952 111.227 304.827 110.622 304.577C110.024 304.321 109.508 303.963 109.074 303.503C108.647 303.042 108.318 302.497 108.088 301.866C107.858 301.235 107.743 300.545 107.743 299.795V299.381C107.743 298.513 107.871 297.741 108.128 297.064C108.384 296.38 108.732 295.802 109.173 295.328C109.613 294.855 110.113 294.497 110.672 294.254C111.23 294.01 111.809 293.889 112.407 293.889C113.17 293.889 113.827 294.02 114.379 294.283C114.938 294.546 115.395 294.914 115.75 295.388C116.105 295.854 116.368 296.406 116.539 297.044C116.709 297.675 116.795 298.365 116.795 299.115V299.933H108.828V298.444H114.971V298.306C114.944 297.833 114.846 297.373 114.675 296.926C114.511 296.479 114.248 296.111 113.886 295.821C113.525 295.532 113.032 295.388 112.407 295.388C111.993 295.388 111.612 295.476 111.263 295.654C110.915 295.825 110.616 296.081 110.366 296.423C110.116 296.765 109.922 297.182 109.784 297.675C109.646 298.168 109.577 298.737 109.577 299.381V299.795C109.577 300.301 109.646 300.778 109.784 301.225C109.929 301.665 110.136 302.053 110.405 302.388C110.681 302.724 111.013 302.987 111.401 303.177C111.796 303.368 112.243 303.463 112.742 303.463C113.387 303.463 113.932 303.332 114.379 303.069C114.826 302.806 115.217 302.454 115.553 302.014L116.657 302.891C116.427 303.24 116.134 303.572 115.779 303.887C115.424 304.203 114.987 304.459 114.468 304.656C113.955 304.853 113.347 304.952 112.644 304.952ZM125.837 294.086H127.493V304.528C127.493 305.468 127.303 306.27 126.922 306.934C126.54 307.598 126.008 308.101 125.324 308.443C124.647 308.791 123.865 308.965 122.977 308.965C122.609 308.965 122.175 308.906 121.676 308.788C121.183 308.676 120.696 308.482 120.216 308.206C119.743 307.936 119.345 307.572 119.023 307.112L119.98 306.027C120.427 306.566 120.894 306.941 121.38 307.151C121.873 307.361 122.359 307.466 122.839 307.466C123.418 307.466 123.917 307.358 124.338 307.141C124.759 306.924 125.084 306.602 125.314 306.175C125.551 305.754 125.669 305.235 125.669 304.617V296.433L125.837 294.086ZM118.491 299.539V299.332C118.491 298.517 118.586 297.777 118.777 297.113C118.974 296.443 119.253 295.867 119.615 295.388C119.983 294.908 120.427 294.54 120.946 294.283C121.465 294.02 122.05 293.889 122.701 293.889C123.372 293.889 123.957 294.007 124.456 294.244C124.963 294.474 125.39 294.812 125.738 295.259C126.093 295.7 126.373 296.232 126.576 296.857C126.78 297.481 126.922 298.188 127 298.977V299.884C126.928 300.666 126.787 301.369 126.576 301.994C126.373 302.618 126.093 303.151 125.738 303.591C125.39 304.032 124.963 304.37 124.456 304.607C123.95 304.837 123.359 304.952 122.682 304.952C122.044 304.952 121.465 304.817 120.946 304.548C120.433 304.278 119.993 303.9 119.625 303.414C119.257 302.927 118.974 302.356 118.777 301.698C118.586 301.034 118.491 300.314 118.491 299.539ZM120.315 299.332V299.539C120.315 300.071 120.368 300.571 120.473 301.038C120.585 301.504 120.752 301.915 120.976 302.27C121.206 302.625 121.498 302.904 121.853 303.108C122.208 303.305 122.632 303.404 123.125 303.404C123.73 303.404 124.23 303.276 124.624 303.019C125.018 302.763 125.331 302.425 125.561 302.004C125.797 301.583 125.981 301.126 126.113 300.633V298.257C126.041 297.895 125.929 297.547 125.778 297.212C125.633 296.87 125.442 296.567 125.206 296.305C124.976 296.035 124.69 295.821 124.348 295.664C124.006 295.506 123.605 295.427 123.145 295.427C122.645 295.427 122.215 295.532 121.853 295.743C121.498 295.946 121.206 296.229 120.976 296.591C120.752 296.945 120.585 297.36 120.473 297.833C120.368 298.3 120.315 298.799 120.315 299.332ZM132.246 294.086V304.755H130.412V294.086H132.246ZM130.274 291.256C130.274 290.96 130.363 290.71 130.54 290.507C130.724 290.303 130.994 290.201 131.349 290.201C131.697 290.201 131.963 290.303 132.147 290.507C132.338 290.71 132.433 290.96 132.433 291.256C132.433 291.539 132.338 291.782 132.147 291.986C131.963 292.183 131.697 292.282 131.349 292.282C130.994 292.282 130.724 292.183 130.54 291.986C130.363 291.782 130.274 291.539 130.274 291.256ZM134.691 299.539V299.312C134.691 298.543 134.803 297.83 135.027 297.172C135.25 296.508 135.572 295.933 135.993 295.447C136.414 294.954 136.923 294.572 137.521 294.303C138.12 294.027 138.79 293.889 139.533 293.889C140.282 293.889 140.956 294.027 141.554 294.303C142.159 294.572 142.672 294.954 143.092 295.447C143.52 295.933 143.845 296.508 144.069 297.172C144.292 297.83 144.404 298.543 144.404 299.312V299.539C144.404 300.308 144.292 301.021 144.069 301.678C143.845 302.336 143.52 302.911 143.092 303.404C142.672 303.89 142.162 304.272 141.564 304.548C140.973 304.817 140.302 304.952 139.553 304.952C138.803 304.952 138.129 304.817 137.531 304.548C136.933 304.272 136.42 303.89 135.993 303.404C135.572 302.911 135.25 302.336 135.027 301.678C134.803 301.021 134.691 300.308 134.691 299.539ZM136.516 299.312V299.539C136.516 300.071 136.578 300.574 136.703 301.047C136.828 301.514 137.015 301.928 137.265 302.29C137.521 302.651 137.84 302.937 138.221 303.148C138.603 303.351 139.046 303.453 139.553 303.453C140.052 303.453 140.489 303.351 140.864 303.148C141.245 302.937 141.561 302.651 141.811 302.29C142.06 301.928 142.248 301.514 142.373 301.047C142.504 300.574 142.57 300.071 142.57 299.539V299.312C142.57 298.786 142.504 298.29 142.373 297.823C142.248 297.35 142.057 296.932 141.801 296.571C141.551 296.203 141.235 295.913 140.854 295.703C140.48 295.493 140.039 295.388 139.533 295.388C139.033 295.388 138.593 295.493 138.212 295.703C137.837 295.913 137.521 296.203 137.265 296.571C137.015 296.932 136.828 297.35 136.703 297.823C136.578 298.29 136.516 298.786 136.516 299.312ZM148.516 296.364V304.755H146.692V294.086H148.417L148.516 296.364ZM148.082 299.016L147.323 298.987C147.329 298.257 147.438 297.583 147.648 296.965C147.858 296.341 148.154 295.798 148.535 295.338C148.917 294.878 149.37 294.523 149.896 294.273C150.429 294.017 151.017 293.889 151.661 293.889C152.187 293.889 152.66 293.961 153.081 294.106C153.502 294.244 153.86 294.467 154.156 294.776C154.458 295.085 154.688 295.486 154.846 295.979C155.004 296.466 155.083 297.061 155.083 297.764V304.755H153.249V297.744C153.249 297.185 153.166 296.738 153.002 296.403C152.838 296.061 152.598 295.815 152.282 295.664C151.967 295.506 151.579 295.427 151.119 295.427C150.665 295.427 150.251 295.522 149.876 295.713C149.508 295.904 149.189 296.167 148.92 296.502C148.657 296.837 148.45 297.222 148.299 297.655C148.154 298.083 148.082 298.536 148.082 299.016ZM164.144 302.931V297.438C164.144 297.018 164.059 296.653 163.888 296.344C163.724 296.028 163.474 295.785 163.139 295.614C162.803 295.443 162.389 295.358 161.896 295.358C161.436 295.358 161.032 295.437 160.683 295.595C160.342 295.752 160.072 295.959 159.875 296.216C159.684 296.472 159.589 296.748 159.589 297.044H157.765C157.765 296.663 157.863 296.285 158.061 295.91C158.258 295.535 158.54 295.197 158.909 294.895C159.283 294.586 159.73 294.342 160.25 294.165C160.775 293.981 161.36 293.889 162.005 293.889C162.78 293.889 163.464 294.02 164.056 294.283C164.654 294.546 165.121 294.944 165.456 295.476C165.798 296.002 165.969 296.663 165.969 297.458V302.428C165.969 302.783 165.998 303.161 166.057 303.562C166.123 303.963 166.218 304.308 166.343 304.597V304.755H164.44C164.348 304.545 164.276 304.265 164.223 303.917C164.171 303.562 164.144 303.233 164.144 302.931ZM164.46 298.286L164.48 299.568H162.636C162.116 299.568 161.653 299.611 161.245 299.697C160.838 299.775 160.496 299.897 160.22 300.061C159.944 300.226 159.733 300.433 159.589 300.683C159.444 300.926 159.372 301.212 159.372 301.54C159.372 301.876 159.448 302.181 159.599 302.457C159.75 302.734 159.977 302.954 160.279 303.118C160.588 303.276 160.966 303.355 161.413 303.355C161.972 303.355 162.465 303.236 162.892 303C163.319 302.763 163.658 302.474 163.908 302.132C164.164 301.79 164.302 301.458 164.322 301.136L165.101 302.014C165.055 302.29 164.93 302.595 164.726 302.931C164.522 303.266 164.25 303.588 163.908 303.897C163.572 304.199 163.171 304.452 162.705 304.656C162.245 304.853 161.725 304.952 161.147 304.952C160.424 304.952 159.789 304.811 159.244 304.528C158.705 304.245 158.284 303.867 157.982 303.394C157.686 302.914 157.538 302.379 157.538 301.787C157.538 301.215 157.65 300.712 157.873 300.278C158.097 299.838 158.419 299.473 158.839 299.184C159.26 298.888 159.766 298.664 160.358 298.513C160.95 298.362 161.61 298.286 162.34 298.286H164.46ZM170.82 289.609V304.755H168.986V289.609H170.82ZM181.075 290.398V304.755H179.172V290.398H181.075ZM186.577 290.398V304.755H184.674V290.398H186.577Z" fill="#606060"/>
<path d="M89.1085 407.191H93.8612C94.9392 407.191 95.8497 407.355 96.5925 407.684C97.3419 408.012 97.9105 408.499 98.2983 409.143C98.6928 409.781 98.89 410.566 98.89 411.5C98.89 412.157 98.7552 412.758 98.4857 413.304C98.2227 413.843 97.8415 414.303 97.3419 414.685C96.8489 415.059 96.2572 415.339 95.567 415.523L95.0346 415.73H90.5678L90.5481 414.182H93.9203C94.604 414.182 95.1726 414.063 95.6262 413.827C96.0798 413.583 96.4216 413.258 96.6517 412.851C96.8817 412.443 96.9968 411.993 96.9968 411.5C96.9968 410.947 96.8883 410.464 96.6714 410.05C96.4545 409.636 96.1126 409.317 95.6459 409.094C95.1858 408.864 94.5908 408.749 93.8612 408.749H91.0115V421.547H89.1085V407.191ZM97.4997 421.547L94.0091 415.04L95.991 415.03L99.5309 421.429V421.547H97.4997ZM105.703 421.745C104.961 421.745 104.287 421.62 103.682 421.37C103.084 421.114 102.568 420.755 102.134 420.295C101.707 419.835 101.378 419.289 101.148 418.658C100.918 418.027 100.803 417.337 100.803 416.588V416.173C100.803 415.306 100.931 414.533 101.187 413.856C101.444 413.173 101.792 412.594 102.233 412.121C102.673 411.648 103.173 411.289 103.731 411.046C104.29 410.803 104.869 410.681 105.467 410.681C106.229 410.681 106.887 410.813 107.439 411.076C107.998 411.339 108.455 411.707 108.809 412.18C109.164 412.647 109.427 413.199 109.598 413.837C109.769 414.468 109.855 415.158 109.855 415.907V416.726H101.888V415.237H108.031V415.099C108.004 414.625 107.906 414.165 107.735 413.718C107.57 413.271 107.307 412.903 106.946 412.614C106.584 412.325 106.091 412.18 105.467 412.18C105.053 412.18 104.671 412.269 104.323 412.446C103.975 412.617 103.676 412.874 103.426 413.215C103.176 413.557 102.982 413.975 102.844 414.468C102.706 414.961 102.637 415.529 102.637 416.173V416.588C102.637 417.094 102.706 417.57 102.844 418.017C102.989 418.458 103.196 418.846 103.465 419.181C103.741 419.516 104.073 419.779 104.461 419.97C104.855 420.16 105.302 420.256 105.802 420.256C106.446 420.256 106.992 420.124 107.439 419.861C107.886 419.598 108.277 419.247 108.612 418.806L109.717 419.684C109.487 420.032 109.194 420.364 108.839 420.68C108.484 420.995 108.047 421.252 107.528 421.449C107.015 421.646 106.407 421.745 105.703 421.745ZM118.897 410.878H120.553V421.321C120.553 422.261 120.363 423.063 119.981 423.727C119.6 424.39 119.068 424.893 118.384 425.235C117.707 425.584 116.925 425.758 116.037 425.758C115.669 425.758 115.235 425.699 114.736 425.58C114.243 425.469 113.756 425.275 113.276 424.998C112.803 424.729 112.405 424.364 112.083 423.904L113.04 422.819C113.487 423.358 113.953 423.733 114.44 423.943C114.933 424.154 115.419 424.259 115.899 424.259C116.478 424.259 116.977 424.15 117.398 423.934C117.819 423.717 118.144 423.395 118.374 422.967C118.611 422.547 118.729 422.027 118.729 421.409V413.225L118.897 410.878ZM111.551 416.331V416.124C111.551 415.309 111.646 414.57 111.837 413.906C112.034 413.235 112.313 412.66 112.675 412.18C113.043 411.7 113.487 411.332 114.006 411.076C114.525 410.813 115.11 410.681 115.761 410.681C116.432 410.681 117.017 410.8 117.516 411.036C118.022 411.266 118.45 411.605 118.798 412.052C119.153 412.492 119.432 413.025 119.636 413.649C119.84 414.274 119.981 414.98 120.06 415.769V416.676C119.988 417.459 119.847 418.162 119.636 418.786C119.432 419.411 119.153 419.943 118.798 420.384C118.45 420.824 118.022 421.163 117.516 421.399C117.01 421.63 116.418 421.745 115.741 421.745C115.104 421.745 114.525 421.61 114.006 421.34C113.493 421.071 113.053 420.693 112.685 420.206C112.316 419.72 112.034 419.148 111.837 418.491C111.646 417.827 111.551 417.107 111.551 416.331ZM113.375 416.124V416.331C113.375 416.864 113.427 417.363 113.533 417.83C113.644 418.297 113.812 418.708 114.035 419.063C114.266 419.418 114.558 419.697 114.913 419.901C115.268 420.098 115.692 420.196 116.185 420.196C116.79 420.196 117.289 420.068 117.684 419.812C118.078 419.556 118.39 419.217 118.621 418.796C118.857 418.376 119.041 417.919 119.173 417.426V415.049C119.1 414.688 118.989 414.339 118.837 414.004C118.693 413.662 118.502 413.36 118.266 413.097C118.035 412.828 117.75 412.614 117.408 412.456C117.066 412.298 116.665 412.219 116.205 412.219C115.705 412.219 115.275 412.325 114.913 412.535C114.558 412.739 114.266 413.021 114.035 413.383C113.812 413.738 113.644 414.152 113.533 414.625C113.427 415.092 113.375 415.592 113.375 416.124ZM125.306 410.878V421.547H123.472V410.878H125.306ZM123.334 408.049C123.334 407.753 123.423 407.503 123.6 407.299C123.784 407.095 124.054 406.993 124.409 406.993C124.757 406.993 125.023 407.095 125.207 407.299C125.398 407.503 125.493 407.753 125.493 408.049C125.493 408.331 125.398 408.574 125.207 408.778C125.023 408.975 124.757 409.074 124.409 409.074C124.054 409.074 123.784 408.975 123.6 408.778C123.423 408.574 123.334 408.331 123.334 408.049ZM127.751 416.331V416.104C127.751 415.335 127.863 414.622 128.086 413.965C128.31 413.301 128.632 412.726 129.053 412.239C129.474 411.746 129.983 411.365 130.581 411.095C131.179 410.819 131.85 410.681 132.593 410.681C133.342 410.681 134.016 410.819 134.614 411.095C135.219 411.365 135.732 411.746 136.152 412.239C136.58 412.726 136.905 413.301 137.128 413.965C137.352 414.622 137.464 415.335 137.464 416.104V416.331C137.464 417.1 137.352 417.814 137.128 418.471C136.905 419.128 136.58 419.703 136.152 420.196C135.732 420.683 135.222 421.064 134.624 421.34C134.032 421.61 133.362 421.745 132.612 421.745C131.863 421.745 131.189 421.61 130.591 421.34C129.993 421.064 129.48 420.683 129.053 420.196C128.632 419.703 128.31 419.128 128.086 418.471C127.863 417.814 127.751 417.1 127.751 416.331ZM129.575 416.104V416.331C129.575 416.864 129.638 417.367 129.763 417.84C129.888 418.307 130.075 418.721 130.325 419.082C130.581 419.444 130.9 419.73 131.281 419.94C131.663 420.144 132.106 420.246 132.612 420.246C133.112 420.246 133.549 420.144 133.924 419.94C134.305 419.73 134.621 419.444 134.87 419.082C135.12 418.721 135.308 418.307 135.432 417.84C135.564 417.367 135.63 416.864 135.63 416.331V416.104C135.63 415.579 135.564 415.082 135.432 414.616C135.308 414.142 135.117 413.725 134.861 413.363C134.611 412.995 134.295 412.706 133.914 412.496C133.539 412.285 133.099 412.18 132.593 412.18C132.093 412.18 131.653 412.285 131.271 412.496C130.897 412.706 130.581 412.995 130.325 413.363C130.075 413.725 129.888 414.142 129.763 414.616C129.638 415.082 129.575 415.579 129.575 416.104ZM141.575 413.156V421.547H139.751V410.878H141.477L141.575 413.156ZM141.142 415.809L140.382 415.779C140.389 415.049 140.497 414.376 140.708 413.758C140.918 413.133 141.214 412.591 141.595 412.131C141.976 411.671 142.43 411.316 142.956 411.066C143.488 410.809 144.077 410.681 144.721 410.681C145.247 410.681 145.72 410.754 146.141 410.898C146.562 411.036 146.92 411.26 147.216 411.569C147.518 411.878 147.748 412.279 147.906 412.772C148.064 413.258 148.142 413.853 148.142 414.556V421.547H146.308V414.537C146.308 413.978 146.226 413.531 146.062 413.196C145.898 412.854 145.658 412.607 145.342 412.456C145.027 412.298 144.639 412.219 144.179 412.219C143.725 412.219 143.311 412.315 142.936 412.505C142.568 412.696 142.249 412.959 141.98 413.294C141.717 413.629 141.51 414.014 141.359 414.448C141.214 414.875 141.142 415.329 141.142 415.809ZM157.204 419.723V414.231C157.204 413.81 157.119 413.445 156.948 413.136C156.783 412.821 156.534 412.578 156.198 412.407C155.863 412.236 155.449 412.15 154.956 412.15C154.496 412.15 154.092 412.229 153.743 412.387C153.401 412.545 153.132 412.752 152.935 413.008C152.744 413.265 152.649 413.541 152.649 413.837H150.824C150.824 413.455 150.923 413.077 151.12 412.703C151.318 412.328 151.6 411.989 151.968 411.687C152.343 411.378 152.79 411.135 153.309 410.957C153.835 410.773 154.42 410.681 155.064 410.681C155.84 410.681 156.524 410.813 157.115 411.076C157.714 411.339 158.18 411.736 158.516 412.269C158.857 412.795 159.028 413.455 159.028 414.251V419.22C159.028 419.575 159.058 419.953 159.117 420.354C159.183 420.755 159.278 421.1 159.403 421.39V421.547H157.5C157.408 421.337 157.336 421.058 157.283 420.709C157.23 420.354 157.204 420.026 157.204 419.723ZM157.52 415.079L157.539 416.361H155.696C155.176 416.361 154.713 416.404 154.305 416.489C153.898 416.568 153.556 416.689 153.28 416.854C153.004 417.018 152.793 417.225 152.649 417.475C152.504 417.718 152.432 418.004 152.432 418.333C152.432 418.668 152.507 418.974 152.659 419.25C152.81 419.526 153.036 419.746 153.339 419.911C153.648 420.068 154.026 420.147 154.473 420.147C155.032 420.147 155.525 420.029 155.952 419.792C156.379 419.556 156.718 419.266 156.967 418.925C157.224 418.583 157.362 418.251 157.382 417.929L158.161 418.806C158.115 419.082 157.99 419.388 157.786 419.723C157.582 420.058 157.309 420.381 156.967 420.69C156.632 420.992 156.231 421.245 155.765 421.449C155.304 421.646 154.785 421.745 154.207 421.745C153.483 421.745 152.849 421.603 152.304 421.321C151.765 421.038 151.344 420.66 151.041 420.187C150.746 419.707 150.598 419.171 150.598 418.579C150.598 418.007 150.709 417.505 150.933 417.071C151.156 416.63 151.479 416.265 151.899 415.976C152.32 415.68 152.826 415.457 153.418 415.306C154.009 415.155 154.67 415.079 155.4 415.079H157.52ZM163.88 406.402V421.547H162.046V406.402H163.88ZM174.134 407.191V421.547H172.231V407.191H174.134ZM179.636 407.191V421.547H177.733V407.191H179.636ZM185.139 407.191V421.547H183.235V407.191H185.139Z" fill="#606060"/>
<path d="M209.767 497.133V499.322C209.767 500.499 209.662 501.492 209.451 502.3C209.241 503.109 208.938 503.76 208.544 504.253C208.15 504.746 207.673 505.104 207.114 505.327C206.562 505.544 205.938 505.653 205.241 505.653C204.689 505.653 204.179 505.584 203.712 505.446C203.246 505.308 202.825 505.087 202.45 504.785C202.082 504.476 201.767 504.075 201.504 503.582C201.241 503.089 201.04 502.491 200.902 501.788C200.764 501.084 200.695 500.262 200.695 499.322V497.133C200.695 495.957 200.8 494.971 201.011 494.175C201.228 493.38 201.533 492.742 201.928 492.262C202.322 491.776 202.795 491.428 203.348 491.217C203.906 491.007 204.531 490.902 205.221 490.902C205.78 490.902 206.293 490.971 206.759 491.109C207.233 491.24 207.653 491.454 208.021 491.75C208.39 492.039 208.702 492.427 208.958 492.913C209.221 493.393 209.422 493.981 209.56 494.678C209.698 495.375 209.767 496.193 209.767 497.133ZM207.933 499.618V496.828C207.933 496.184 207.893 495.618 207.814 495.132C207.742 494.639 207.634 494.218 207.489 493.87C207.344 493.521 207.16 493.239 206.937 493.022C206.72 492.805 206.467 492.647 206.178 492.548C205.895 492.443 205.576 492.391 205.221 492.391C204.787 492.391 204.403 492.473 204.067 492.637C203.732 492.795 203.449 493.048 203.219 493.396C202.996 493.745 202.825 494.202 202.707 494.767C202.588 495.332 202.529 496.019 202.529 496.828V499.618C202.529 500.262 202.565 500.831 202.638 501.324C202.717 501.817 202.832 502.244 202.983 502.606C203.134 502.961 203.318 503.253 203.535 503.483C203.752 503.714 204.002 503.884 204.284 503.996C204.574 504.101 204.892 504.154 205.241 504.154C205.688 504.154 206.079 504.069 206.414 503.898C206.749 503.727 207.029 503.46 207.252 503.099C207.482 502.731 207.653 502.261 207.765 501.689C207.877 501.11 207.933 500.42 207.933 499.618Z" fill="#606060"/>
<path d="M329.059 503.957V505.456H319.662V504.144L324.365 498.908C324.944 498.264 325.391 497.718 325.706 497.271C326.029 496.818 326.252 496.414 326.377 496.059C326.508 495.697 326.574 495.329 326.574 494.954C326.574 494.481 326.476 494.054 326.278 493.672C326.088 493.285 325.805 492.976 325.43 492.746C325.056 492.515 324.602 492.4 324.07 492.4C323.432 492.4 322.9 492.525 322.472 492.775C322.052 493.018 321.736 493.36 321.526 493.801C321.315 494.241 321.21 494.747 321.21 495.319H319.386C319.386 494.511 319.563 493.771 319.918 493.101C320.273 492.43 320.799 491.898 321.496 491.503C322.193 491.102 323.051 490.902 324.07 490.902C324.977 490.902 325.752 491.063 326.397 491.385C327.041 491.7 327.534 492.147 327.876 492.726C328.224 493.298 328.398 493.968 328.398 494.737C328.398 495.158 328.326 495.585 328.181 496.019C328.043 496.446 327.849 496.874 327.6 497.301C327.356 497.728 327.07 498.149 326.742 498.563C326.42 498.977 326.075 499.385 325.706 499.786L321.861 503.957H329.059ZM333.319 498.622L331.859 498.248L332.579 491.099H339.945V492.785H334.127L333.693 496.69C333.956 496.539 334.288 496.397 334.689 496.266C335.097 496.134 335.563 496.069 336.089 496.069C336.753 496.069 337.348 496.184 337.874 496.414C338.4 496.637 338.847 496.959 339.215 497.38C339.59 497.801 339.876 498.307 340.073 498.898C340.27 499.49 340.369 500.151 340.369 500.88C340.369 501.571 340.273 502.205 340.083 502.783C339.899 503.362 339.619 503.868 339.245 504.302C338.87 504.729 338.397 505.061 337.825 505.298C337.259 505.534 336.592 505.653 335.823 505.653C335.245 505.653 334.696 505.574 334.176 505.416C333.664 505.252 333.204 505.005 332.796 504.677C332.395 504.341 332.066 503.927 331.81 503.434C331.56 502.935 331.402 502.35 331.337 501.679H333.072C333.151 502.218 333.309 502.672 333.545 503.04C333.782 503.408 334.091 503.687 334.472 503.878C334.86 504.062 335.31 504.154 335.823 504.154C336.257 504.154 336.642 504.078 336.977 503.927C337.312 503.776 337.595 503.559 337.825 503.276C338.055 502.994 338.229 502.652 338.347 502.251C338.472 501.85 338.535 501.4 338.535 500.9C338.535 500.447 338.472 500.026 338.347 499.638C338.223 499.25 338.035 498.912 337.785 498.622C337.542 498.333 337.243 498.11 336.888 497.952C336.533 497.787 336.126 497.705 335.665 497.705C335.054 497.705 334.591 497.787 334.275 497.952C333.966 498.116 333.647 498.34 333.319 498.622ZM344.747 491.099V505.456H342.844V491.099H344.747ZM353.414 491.099L347.449 497.794L344.096 501.275L343.78 499.244L346.305 496.463L351.126 491.099H353.414ZM351.58 505.456L346.265 498.455L347.399 496.946L353.848 505.456H351.58Z" fill="#606060"/>
<path d="M454.575 498.622L453.115 498.248L453.835 491.099H461.201V492.785H455.383L454.949 496.69C455.212 496.539 455.544 496.397 455.945 496.266C456.353 496.134 456.82 496.069 457.345 496.069C458.009 496.069 458.604 496.184 459.13 496.414C459.656 496.637 460.103 496.959 460.471 497.38C460.846 497.801 461.132 498.307 461.329 498.898C461.526 499.49 461.625 500.151 461.625 500.88C461.625 501.571 461.53 502.205 461.339 502.783C461.155 503.362 460.875 503.868 460.501 504.302C460.126 504.729 459.653 505.061 459.081 505.298C458.516 505.534 457.848 505.653 457.079 505.653C456.501 505.653 455.952 505.574 455.433 505.416C454.92 505.252 454.46 505.005 454.052 504.677C453.651 504.341 453.322 503.927 453.066 503.434C452.816 502.935 452.659 502.35 452.593 501.679H454.328C454.407 502.218 454.565 502.672 454.802 503.04C455.038 503.408 455.347 503.687 455.728 503.878C456.116 504.062 456.567 504.154 457.079 504.154C457.513 504.154 457.898 504.078 458.233 503.927C458.568 503.776 458.851 503.559 459.081 503.276C459.311 502.994 459.485 502.652 459.604 502.251C459.728 501.85 459.791 501.4 459.791 500.9C459.791 500.447 459.728 500.026 459.604 499.638C459.479 499.25 459.291 498.912 459.041 498.622C458.798 498.333 458.499 498.11 458.144 497.952C457.789 497.787 457.382 497.705 456.921 497.705C456.31 497.705 455.847 497.787 455.531 497.952C455.222 498.116 454.903 498.34 454.575 498.622ZM472.639 497.133V499.322C472.639 500.499 472.534 501.492 472.323 502.3C472.113 503.109 471.811 503.76 471.416 504.253C471.022 504.746 470.545 505.104 469.986 505.327C469.434 505.544 468.81 505.653 468.113 505.653C467.561 505.653 467.051 505.584 466.585 505.446C466.118 505.308 465.697 505.087 465.323 504.785C464.954 504.476 464.639 504.075 464.376 503.582C464.113 503.089 463.912 502.491 463.774 501.788C463.636 501.084 463.567 500.262 463.567 499.322V497.133C463.567 495.957 463.673 494.971 463.883 494.175C464.1 493.38 464.405 492.742 464.8 492.262C465.194 491.776 465.668 491.428 466.22 491.217C466.779 491.007 467.403 490.902 468.093 490.902C468.652 490.902 469.165 490.971 469.631 491.109C470.105 491.24 470.525 491.454 470.894 491.75C471.262 492.039 471.574 492.427 471.83 492.913C472.093 493.393 472.294 493.981 472.432 494.678C472.57 495.375 472.639 496.193 472.639 497.133ZM470.805 499.618V496.828C470.805 496.184 470.765 495.618 470.687 495.132C470.614 494.639 470.506 494.218 470.361 493.87C470.217 493.521 470.032 493.239 469.809 493.022C469.592 492.805 469.339 492.647 469.05 492.548C468.767 492.443 468.448 492.391 468.093 492.391C467.659 492.391 467.275 492.473 466.94 492.637C466.604 492.795 466.322 493.048 466.092 493.396C465.868 493.745 465.697 494.202 465.579 494.767C465.461 495.332 465.401 496.019 465.401 496.828V499.618C465.401 500.262 465.438 500.831 465.51 501.324C465.589 501.817 465.704 502.244 465.855 502.606C466.006 502.961 466.19 503.253 466.407 503.483C466.624 503.714 466.874 503.884 467.157 503.996C467.446 504.101 467.765 504.154 468.113 504.154C468.56 504.154 468.951 504.069 469.286 503.898C469.622 503.727 469.901 503.46 470.125 503.099C470.355 502.731 470.525 502.261 470.637 501.689C470.749 501.11 470.805 500.42 470.805 499.618ZM477.362 491.099V505.456H475.459V491.099H477.362ZM486.029 491.099L480.064 497.794L476.711 501.275L476.396 499.244L478.92 496.463L483.742 491.099H486.029ZM484.195 505.456L478.881 498.455L480.014 496.946L486.463 505.456H484.195Z" fill="#606060"/>
<path d="M592.077 491.099V492.124L586.131 505.456H584.209L590.145 492.598H582.375V491.099H592.077ZM596.465 498.622L595.006 498.248L595.726 491.099H603.091V492.785H597.274L596.84 496.69C597.103 496.539 597.435 496.397 597.836 496.266C598.243 496.134 598.71 496.069 599.236 496.069C599.9 496.069 600.495 496.184 601.021 496.414C601.546 496.637 601.993 496.959 602.362 497.38C602.736 497.801 603.022 498.307 603.219 498.898C603.417 499.49 603.515 500.151 603.515 500.88C603.515 501.571 603.42 502.205 603.229 502.783C603.045 503.362 602.766 503.868 602.391 504.302C602.016 504.729 601.543 505.061 600.971 505.298C600.406 505.534 599.739 505.653 598.97 505.653C598.391 505.653 597.842 505.574 597.323 505.416C596.81 505.252 596.35 505.005 595.943 504.677C595.542 504.341 595.213 503.927 594.956 503.434C594.707 502.935 594.549 502.35 594.483 501.679H596.219C596.297 502.218 596.455 502.672 596.692 503.04C596.929 503.408 597.237 503.687 597.619 503.878C598.007 504.062 598.457 504.154 598.97 504.154C599.403 504.154 599.788 504.078 600.123 503.927C600.459 503.776 600.741 503.559 600.971 503.276C601.201 502.994 601.376 502.652 601.494 502.251C601.619 501.85 601.681 501.4 601.681 500.9C601.681 500.447 601.619 500.026 601.494 499.638C601.369 499.25 601.182 498.912 600.932 498.622C600.689 498.333 600.39 498.11 600.035 497.952C599.68 497.787 599.272 497.705 598.812 497.705C598.201 497.705 597.737 497.787 597.422 497.952C597.113 498.116 596.794 498.34 596.465 498.622ZM607.893 491.099V505.456H605.99V491.099H607.893ZM616.561 491.099L610.595 497.794L607.242 501.275L606.927 499.244L609.451 496.463L614.273 491.099H616.561ZM614.726 505.456L609.412 498.455L610.546 496.946L616.994 505.456H614.726Z" fill="#606060"/>
<path d="M714.7 491.02V505.456H712.876V493.298L709.198 494.639V492.992L714.414 491.02H714.7ZM729.077 497.133V499.322C729.077 500.499 728.972 501.492 728.761 502.3C728.551 503.109 728.248 503.76 727.854 504.253C727.46 504.746 726.983 505.104 726.424 505.327C725.872 505.544 725.248 505.653 724.551 505.653C723.999 505.653 723.489 505.584 723.022 505.446C722.556 505.308 722.135 505.087 721.76 504.785C721.392 504.476 721.077 504.075 720.814 503.582C720.551 503.089 720.35 502.491 720.212 501.788C720.074 501.084 720.005 500.262 720.005 499.322V497.133C720.005 495.957 720.11 494.971 720.321 494.175C720.538 493.38 720.843 492.742 721.238 492.262C721.632 491.776 722.105 491.428 722.658 491.217C723.216 491.007 723.841 490.902 724.531 490.902C725.09 490.902 725.603 490.971 726.069 491.109C726.543 491.24 726.963 491.454 727.331 491.75C727.7 492.039 728.012 492.427 728.268 492.913C728.531 493.393 728.732 493.981 728.87 494.678C729.008 495.375 729.077 496.193 729.077 497.133ZM727.243 499.618V496.828C727.243 496.184 727.203 495.618 727.124 495.132C727.052 494.639 726.944 494.218 726.799 493.87C726.654 493.521 726.47 493.239 726.247 493.022C726.03 492.805 725.777 492.647 725.488 492.548C725.205 492.443 724.886 492.391 724.531 492.391C724.097 492.391 723.713 492.473 723.377 492.637C723.042 492.795 722.76 493.048 722.529 493.396C722.306 493.745 722.135 494.202 722.017 494.767C721.898 495.332 721.839 496.019 721.839 496.828V499.618C721.839 500.262 721.875 500.831 721.948 501.324C722.027 501.817 722.142 502.244 722.293 502.606C722.444 502.961 722.628 503.253 722.845 503.483C723.062 503.714 723.312 503.884 723.594 503.996C723.884 504.101 724.202 504.154 724.551 504.154C724.998 504.154 725.389 504.069 725.724 503.898C726.059 503.727 726.339 503.46 726.562 503.099C726.792 502.731 726.963 502.261 727.075 501.689C727.187 501.11 727.243 500.42 727.243 499.618ZM740.436 497.133V499.322C740.436 500.499 740.331 501.492 740.12 502.3C739.91 503.109 739.608 503.76 739.213 504.253C738.819 504.746 738.342 505.104 737.783 505.327C737.231 505.544 736.607 505.653 735.91 505.653C735.358 505.653 734.848 505.584 734.382 505.446C733.915 505.308 733.494 505.087 733.119 504.785C732.751 504.476 732.436 504.075 732.173 503.582C731.91 503.089 731.709 502.491 731.571 501.788C731.433 501.084 731.364 500.262 731.364 499.322V497.133C731.364 495.957 731.469 494.971 731.68 494.175C731.897 493.38 732.202 492.742 732.597 492.262C732.991 491.776 733.465 491.428 734.017 491.217C734.576 491.007 735.2 490.902 735.89 490.902C736.449 490.902 736.962 490.971 737.428 491.109C737.902 491.24 738.322 491.454 738.691 491.75C739.059 492.039 739.371 492.427 739.627 492.913C739.89 493.393 740.091 493.981 740.229 494.678C740.367 495.375 740.436 496.193 740.436 497.133ZM738.602 499.618V496.828C738.602 496.184 738.562 495.618 738.484 495.132C738.411 494.639 738.303 494.218 738.158 493.87C738.013 493.521 737.829 493.239 737.606 493.022C737.389 492.805 737.136 492.647 736.847 492.548C736.564 492.443 736.245 492.391 735.89 492.391C735.456 492.391 735.072 492.473 734.737 492.637C734.401 492.795 734.119 493.048 733.889 493.396C733.665 493.745 733.494 494.202 733.376 494.767C733.258 495.332 733.198 496.019 733.198 496.828V499.618C733.198 500.262 733.235 500.831 733.307 501.324C733.386 501.817 733.501 502.244 733.652 502.606C733.803 502.961 733.987 503.253 734.204 503.483C734.421 503.714 734.671 503.884 734.953 503.996C735.243 504.101 735.562 504.154 735.91 504.154C736.357 504.154 736.748 504.069 737.083 503.898C737.419 503.727 737.698 503.46 737.921 503.099C738.152 502.731 738.322 502.261 738.434 501.689C738.546 501.11 738.602 500.42 738.602 499.618ZM745.159 491.099V505.456H743.256V491.099H745.159ZM753.826 491.099L747.861 497.794L744.508 501.275L744.193 499.244L746.717 496.463L751.539 491.099H753.826ZM751.992 505.456L746.677 498.455L747.811 496.946L754.26 505.456H751.992Z" fill="#606060"/>
<path d="M39.3832 340.353V333.469C39.3832 332.057 39.5945 330.845 40.0171 329.83C40.4397 328.808 41.0651 328.022 41.8934 327.472C42.7216 326.923 43.7401 326.648 44.9487 326.648C45.9375 326.648 46.7869 326.817 47.4969 327.155C48.1984 327.485 48.7858 327.954 49.2591 328.563C49.7239 329.163 50.0958 329.868 50.3747 330.68L51.0086 331.884V337.868L48.042 337.893V333.444C48.042 332.776 47.9237 332.222 47.687 331.783C47.4504 331.343 47.1208 331.014 46.6982 330.794C46.2756 330.566 45.7854 330.452 45.2276 330.452C44.636 330.452 44.1246 330.562 43.6936 330.781C43.2625 331.001 42.9329 331.335 42.7047 331.783C42.4765 332.231 42.3624 332.793 42.3624 333.469V336.55H57.8418V340.353H39.3832ZM57.8418 330.033L49.614 334.242L49.5887 330.223L57.6643 325.964H57.8418V330.033ZM58.0953 317.635C58.0953 318.7 57.9263 319.655 57.5882 320.5C57.2417 321.345 56.7642 322.063 56.1557 322.655C55.5471 323.238 54.8414 323.686 54.0385 323.999C53.2271 324.311 52.3651 324.468 51.4523 324.468H50.9452C49.9056 324.468 48.9548 324.32 48.0927 324.024C47.2306 323.728 46.4827 323.306 45.8488 322.756C45.2149 322.199 44.7289 321.522 44.3909 320.728C44.0443 319.933 43.8711 319.038 43.8711 318.04C43.8711 317.068 44.0317 316.206 44.3528 315.454C44.674 314.702 45.1304 314.072 45.722 313.565C46.3136 313.05 47.0236 312.661 47.8518 312.399C48.6717 312.137 49.5844 312.006 50.5902 312.006H52.1115V322.908H49.6774V315.594H49.3985C48.8914 315.594 48.4392 315.686 48.042 315.872C47.6363 316.05 47.3152 316.32 47.0785 316.684C46.8419 317.047 46.7235 317.512 46.7235 318.078C46.7235 318.56 46.8292 318.974 47.0405 319.321C47.2518 319.667 47.5476 319.95 47.9279 320.17C48.3082 320.381 48.7562 320.542 49.2717 320.652C49.7788 320.753 50.3367 320.804 50.9452 320.804H51.4523C52.0016 320.804 52.5088 320.728 52.9736 320.576C53.4384 320.415 53.8399 320.191 54.178 319.904C54.516 319.608 54.778 319.253 54.964 318.839C55.1499 318.416 55.2429 317.939 55.2429 317.406C55.2429 316.747 55.1161 316.134 54.8626 315.568C54.6006 314.993 54.2075 314.499 53.6835 314.085L55.6105 312.31C56.0247 312.597 56.4219 312.99 56.8022 313.489C57.1826 313.979 57.4953 314.571 57.7404 315.264C57.977 315.957 58.0953 316.747 58.0953 317.635ZM44.1246 301.242V297.934H57.3854C58.6363 297.934 59.697 298.213 60.5675 298.77C61.4465 299.32 62.1099 300.089 62.5579 301.078C63.0143 302.067 63.2425 303.216 63.2425 304.526C63.2425 305.101 63.1664 305.709 63.0143 306.352C62.8621 306.985 62.6255 307.594 62.3043 308.177C61.9831 308.752 61.5775 309.234 61.0873 309.622L58.9321 308.012C59.4223 307.59 59.8026 307.1 60.0731 306.542C60.352 305.984 60.4914 305.367 60.4914 304.691C60.4914 304.032 60.3689 303.474 60.1238 303.017C59.8871 302.561 59.5364 302.21 59.0715 301.965C58.6151 301.72 58.0615 301.597 57.4108 301.597H47.294L44.1246 301.242ZM51.148 310.472H50.8818C49.8338 310.472 48.883 310.345 48.0293 310.091C47.1673 309.829 46.4277 309.462 45.8107 308.988C45.1938 308.507 44.7162 307.924 44.3782 307.239C44.0401 306.554 43.8711 305.781 43.8711 304.919C43.8711 304.006 44.0401 303.241 44.3782 302.624C44.7162 302.007 45.198 301.5 45.8234 301.103C46.4404 300.706 47.1715 300.397 48.0167 300.178C48.8534 299.949 49.7704 299.772 50.7677 299.645H51.3509C52.3059 299.772 53.1933 299.962 54.0132 300.216C54.833 300.469 55.5514 300.803 56.1684 301.217C56.7769 301.631 57.2502 302.147 57.5882 302.764C57.9263 303.372 58.0953 304.099 58.0953 304.944C58.0953 305.789 57.9221 306.554 57.5756 307.239C57.229 307.915 56.7431 308.494 56.1176 308.976C55.4922 309.458 54.7569 309.829 53.9117 310.091C53.0666 310.345 52.1453 310.472 51.148 310.472ZM50.8818 306.821H51.148C51.7143 306.821 52.2425 306.766 52.7327 306.656C53.2229 306.546 53.6582 306.377 54.0385 306.149C54.4104 305.912 54.702 305.62 54.9133 305.274C55.1161 304.919 55.2175 304.501 55.2175 304.019C55.2175 303.351 55.0781 302.806 54.7992 302.383C54.5118 301.961 54.1188 301.644 53.6202 301.433C53.1215 301.221 52.5468 301.099 51.896 301.065H50.2352C49.7028 301.082 49.2252 301.154 48.8027 301.28C48.3716 301.407 48.004 301.585 47.6997 301.813C47.3954 302.041 47.1588 302.337 46.9898 302.7C46.8207 303.064 46.7362 303.495 46.7362 303.994C46.7362 304.475 46.8461 304.894 47.0658 305.249C47.2771 305.595 47.5687 305.887 47.9406 306.123C48.3125 306.352 48.752 306.525 49.2591 306.643C49.7577 306.761 50.2986 306.821 50.8818 306.821ZM44.1246 291.24H57.8418V294.904H44.1246V291.24ZM40.5495 295.132C40.0171 295.132 39.5776 294.946 39.2311 294.574C38.8845 294.202 38.7113 293.704 38.7113 293.078C38.7113 292.461 38.8845 291.967 39.2311 291.595C39.5776 291.214 40.0171 291.024 40.5495 291.024C41.082 291.024 41.5215 291.214 41.868 291.595C42.2145 291.967 42.3878 292.461 42.3878 293.078C42.3878 293.704 42.2145 294.202 41.868 294.574C41.5215 294.946 41.082 295.132 40.5495 295.132ZM51.1227 288.806H50.8564C49.8507 288.806 48.9252 288.662 48.08 288.375C47.2264 288.087 46.4869 287.669 45.8615 287.12C45.236 286.57 44.7501 285.894 44.4035 285.091C44.0486 284.288 43.8711 283.367 43.8711 282.327C43.8711 281.288 44.0486 280.362 44.4035 279.551C44.7501 278.74 45.236 278.059 45.8615 277.51C46.4869 276.952 47.2264 276.53 48.08 276.242C48.9252 275.955 49.8507 275.811 50.8564 275.811H51.1227C52.12 275.811 53.0454 275.955 53.8991 276.242C54.7442 276.53 55.4838 276.952 56.1176 277.51C56.7431 278.059 57.229 278.735 57.5756 279.538C57.9221 280.341 58.0953 281.263 58.0953 282.302C58.0953 283.342 57.9221 284.267 57.5756 285.079C57.229 285.881 56.7431 286.562 56.1176 287.12C55.4838 287.669 54.7442 288.087 53.8991 288.375C53.0454 288.662 52.12 288.806 51.1227 288.806ZM50.8564 285.155H51.1227C51.6974 285.155 52.2341 285.104 52.7327 285.002C53.2314 284.901 53.6709 284.74 54.0512 284.521C54.4231 284.293 54.7147 283.997 54.9259 283.633C55.1372 283.27 55.2429 282.826 55.2429 282.302C55.2429 281.795 55.1372 281.36 54.9259 280.996C54.7147 280.633 54.4231 280.341 54.0512 280.122C53.6709 279.902 53.2314 279.741 52.7327 279.64C52.2341 279.53 51.6974 279.475 51.1227 279.475H50.8564C50.2986 279.475 49.7746 279.53 49.2844 279.64C48.7858 279.741 48.3463 279.906 47.9659 280.134C47.5772 280.354 47.2729 280.646 47.0532 281.009C46.8334 281.372 46.7235 281.812 46.7235 282.327C46.7235 282.843 46.8334 283.283 47.0532 283.646C47.2729 284.001 47.5772 284.293 47.9659 284.521C48.3463 284.74 48.7858 284.901 49.2844 285.002C49.7746 285.104 50.2986 285.155 50.8564 285.155ZM47.0532 269.992H57.8418V273.643H44.1246V270.22L47.0532 269.992ZM50.5015 270.525V271.513C49.4873 271.513 48.5745 271.382 47.7631 271.12C46.9433 270.858 46.246 270.491 45.6713 270.018C45.0881 269.544 44.6444 268.982 44.3401 268.331C44.0274 267.672 43.8711 266.937 43.8711 266.125C43.8711 265.483 43.964 264.896 44.15 264.363C44.3359 263.831 44.6317 263.374 45.0374 262.994C45.4431 262.605 45.9798 262.31 46.6475 262.107C47.3152 261.895 48.1307 261.79 49.0942 261.79H57.8418L57.8418 265.466H49.0816C48.473 265.466 47.9997 265.551 47.6617 265.72C47.3236 265.889 47.087 266.138 46.9517 266.468C46.8081 266.789 46.7362 267.186 46.7362 267.659C46.7362 268.15 46.8334 268.576 47.0278 268.94C47.2222 269.295 47.4926 269.591 47.8392 269.827C48.1772 270.056 48.5745 270.229 49.0309 270.347C49.4873 270.465 49.9775 270.525 50.5015 270.525ZM54.7485 251.61H48.6379C48.1984 251.61 47.8223 251.681 47.5095 251.825C47.1884 251.969 46.9391 252.193 46.7616 252.497C46.5841 252.793 46.4953 253.177 46.4953 253.651C46.4953 254.056 46.5672 254.407 46.7109 254.703C46.8461 254.999 47.0447 255.227 47.3067 255.388C47.5603 255.548 47.8603 255.628 48.2068 255.628V259.28C47.6236 259.28 47.0701 259.144 46.546 258.874C46.022 258.603 45.5614 258.21 45.1642 257.695C44.7585 257.179 44.4416 256.567 44.2134 255.857C43.9852 255.138 43.8711 254.335 43.8711 253.448C43.8711 252.383 44.0486 251.436 44.4035 250.608C44.7585 249.78 45.291 249.129 46.0009 248.656C46.7109 248.174 47.5983 247.933 48.6632 247.933H54.5329C55.2851 247.933 55.9021 247.887 56.3839 247.794C56.8572 247.701 57.2713 247.565 57.6263 247.388H57.8418V251.077C57.4699 251.255 57.0051 251.39 56.4473 251.483C55.881 251.567 55.3147 251.61 54.7485 251.61ZM49.4873 251.128L51.5537 251.103V253.144C51.5537 253.625 51.6086 254.044 51.7185 254.399C51.8284 254.754 51.9847 255.045 52.1876 255.273C52.382 255.502 52.6102 255.671 52.8722 255.781C53.1342 255.882 53.4215 255.933 53.7343 255.933C54.047 255.933 54.3301 255.861 54.5837 255.717C54.8288 255.573 55.0231 255.366 55.1668 255.096C55.302 254.826 55.3697 254.509 55.3697 254.145C55.3697 253.596 55.2598 253.118 55.04 252.713C54.8203 252.307 54.5498 251.994 54.2287 251.774C53.9075 251.546 53.6033 251.428 53.3159 251.419L54.8626 250.456C55.2091 250.591 55.5683 250.777 55.9402 251.014C56.312 251.242 56.6628 251.534 56.9924 251.889C57.3136 252.244 57.5798 252.67 57.7911 253.169C57.9939 253.668 58.0953 254.259 58.0953 254.944C58.0953 255.814 57.9221 256.605 57.5756 257.315C57.2206 258.016 56.7346 258.574 56.1176 258.988C55.4922 259.394 54.7823 259.597 53.9878 259.597C53.2694 259.597 52.6313 259.461 52.0735 259.191C51.5157 258.92 51.0466 258.523 50.6663 257.999C50.2775 257.467 49.9859 256.803 49.7915 256.009C49.5887 255.214 49.4873 254.293 49.4873 253.245V251.128ZM44.1246 241.265H57.8418V244.929H44.1246V241.265ZM40.5495 245.157C40.0171 245.157 39.5776 244.971 39.2311 244.599C38.8845 244.227 38.7113 243.728 38.7113 243.103C38.7113 242.486 38.8845 241.992 39.2311 241.62C39.5776 241.239 40.0171 241.049 40.5495 241.049C41.082 241.049 41.5215 241.239 41.868 241.62C42.2145 241.992 42.3878 242.486 42.3878 243.103C42.3878 243.728 42.2145 244.227 41.868 244.599C41.5215 244.971 41.082 245.157 40.5495 245.157ZM54.0512 230.831C53.7892 230.831 53.5525 230.907 53.3412 231.059C53.13 231.211 52.9356 231.494 52.7581 231.909C52.5721 232.314 52.4031 232.902 52.251 233.671C52.0988 234.364 51.9087 235.01 51.6805 235.61C51.4438 236.202 51.1607 236.718 50.8311 237.157C50.5015 237.588 50.1127 237.926 49.6647 238.171C49.2083 238.416 48.6886 238.539 48.1054 238.539C47.5307 238.539 46.9898 238.416 46.4827 238.171C45.9756 237.918 45.5276 237.559 45.1388 237.094C44.7416 236.62 44.4331 236.046 44.2134 235.37C43.9852 234.685 43.8711 233.916 43.8711 233.062C43.8711 231.871 44.0612 230.848 44.4416 229.994C44.8219 229.132 45.3459 228.473 46.0136 228.017C46.6728 227.552 47.425 227.319 48.2702 227.319V230.97C47.9152 230.97 47.5983 231.047 47.3194 231.199C47.032 231.342 46.8081 231.571 46.6475 231.883C46.4784 232.188 46.3939 232.585 46.3939 233.075C46.3939 233.481 46.4658 233.831 46.6094 234.127C46.7447 234.423 46.9306 234.651 47.1673 234.812C47.3954 234.964 47.649 235.04 47.9279 235.04C48.1392 235.04 48.3294 234.998 48.4984 234.913C48.659 234.82 48.8069 234.672 48.9421 234.47C49.0773 234.267 49.2041 234.005 49.3224 233.683C49.4323 233.354 49.5337 232.948 49.6267 232.466C49.8295 231.478 50.0958 230.594 50.4254 229.817C50.7466 229.039 51.1861 228.422 51.7439 227.966C52.2932 227.51 53.0159 227.281 53.9117 227.281C54.5203 227.281 55.0781 227.417 55.5852 227.687C56.0923 227.957 56.536 228.346 56.9163 228.853C57.2882 229.36 57.5798 229.969 57.7911 230.679C57.9939 231.38 58.0953 232.171 58.0953 233.05C58.0953 234.326 57.8672 235.408 57.4108 236.295C56.9544 237.174 56.3754 237.842 55.6739 238.298C54.964 238.746 54.2371 238.97 53.4934 238.97V235.509C53.992 235.492 54.3935 235.365 54.6978 235.129C55.002 234.884 55.2218 234.575 55.357 234.203C55.4922 233.823 55.5598 233.413 55.5598 232.974C55.5598 232.5 55.4964 232.107 55.3697 231.795C55.2344 231.482 55.0569 231.245 54.8372 231.085C54.609 230.916 54.347 230.831 54.0512 230.831Z" fill="#606060"/>
<path d="M445.3 553.419L449.649 538.815H453.883L447.455 557.273H444.666L445.3 553.419ZM441.294 538.815L445.63 553.419L446.289 557.273H443.475L437.085 538.815H441.294ZM461.135 557.527C460.07 557.527 459.115 557.358 458.269 557.02C457.424 556.673 456.706 556.196 456.114 555.587C455.531 554.979 455.083 554.273 454.77 553.47C454.458 552.659 454.301 551.797 454.301 550.884V550.377C454.301 549.337 454.449 548.386 454.745 547.524C455.041 546.662 455.463 545.914 456.013 545.28C456.571 544.647 457.247 544.161 458.041 543.822C458.836 543.476 459.732 543.303 460.729 543.303C461.701 543.303 462.563 543.463 463.315 543.784C464.067 544.106 464.697 544.562 465.204 545.154C465.72 545.745 466.108 546.455 466.37 547.283C466.632 548.103 466.763 549.016 466.763 550.022V551.543H455.861V549.109H463.176V548.83C463.176 548.323 463.083 547.871 462.897 547.474C462.719 547.068 462.449 546.747 462.085 546.51C461.722 546.274 461.257 546.155 460.691 546.155C460.209 546.155 459.795 546.261 459.448 546.472C459.102 546.683 458.819 546.979 458.599 547.36C458.388 547.74 458.227 548.188 458.117 548.703C458.016 549.21 457.965 549.768 457.965 550.377V550.884C457.965 551.433 458.041 551.94 458.193 552.405C458.354 552.87 458.578 553.272 458.865 553.61C459.161 553.948 459.516 554.21 459.93 554.396C460.353 554.582 460.83 554.675 461.363 554.675C462.022 554.675 462.635 554.548 463.201 554.294C463.776 554.032 464.27 553.639 464.684 553.115L466.459 555.042C466.172 555.456 465.779 555.854 465.28 556.234C464.79 556.614 464.198 556.927 463.505 557.172C462.812 557.409 462.022 557.527 461.135 557.527ZM472.418 546.485V557.273H468.766V543.556H472.189L472.418 546.485ZM471.885 549.933H470.896C470.896 548.919 471.027 548.006 471.289 547.195C471.551 546.375 471.919 545.678 472.392 545.103C472.866 544.52 473.428 544.076 474.078 543.772C474.738 543.459 475.473 543.303 476.284 543.303C476.927 543.303 477.514 543.396 478.047 543.582C478.579 543.768 479.035 544.063 479.416 544.469C479.804 544.875 480.1 545.411 480.303 546.079C480.514 546.747 480.62 547.562 480.62 548.526V557.273H476.944V548.513C476.944 547.905 476.859 547.431 476.69 547.093C476.521 546.755 476.272 546.519 475.942 546.383C475.621 546.24 475.224 546.168 474.75 546.168C474.26 546.168 473.833 546.265 473.47 546.459C473.115 546.654 472.819 546.924 472.582 547.271C472.354 547.609 472.181 548.006 472.063 548.463C471.944 548.919 471.885 549.409 471.885 549.933ZM491.497 554.282V537.801H495.174V557.273H491.865L491.497 554.282ZM482.826 550.58V550.313C482.826 549.265 482.944 548.315 483.181 547.461C483.418 546.599 483.764 545.859 484.22 545.242C484.677 544.625 485.239 544.148 485.907 543.81C486.574 543.472 487.335 543.303 488.189 543.303C488.992 543.303 489.693 543.472 490.293 543.81C490.902 544.148 491.417 544.63 491.84 545.255C492.271 545.872 492.617 546.603 492.879 547.448C493.141 548.285 493.331 549.202 493.45 550.199V550.783C493.331 551.738 493.141 552.625 492.879 553.445C492.617 554.265 492.271 554.983 491.84 555.6C491.417 556.209 490.902 556.682 490.293 557.02C489.685 557.358 488.975 557.527 488.163 557.527C487.31 557.527 486.549 557.354 485.881 557.007C485.222 556.661 484.664 556.175 484.208 555.549C483.76 554.924 483.418 554.189 483.181 553.343C482.944 552.498 482.826 551.577 482.826 550.58ZM486.477 550.313V550.58C486.477 551.146 486.519 551.674 486.604 552.164C486.697 552.655 486.845 553.09 487.048 553.47C487.259 553.842 487.529 554.134 487.859 554.345C488.197 554.548 488.607 554.649 489.089 554.649C489.714 554.649 490.23 554.51 490.635 554.231C491.041 553.943 491.35 553.55 491.561 553.052C491.781 552.553 491.907 551.978 491.941 551.328V549.667C491.916 549.134 491.84 548.657 491.713 548.234C491.595 547.803 491.417 547.436 491.181 547.131C490.952 546.827 490.665 546.59 490.318 546.421C489.98 546.252 489.579 546.168 489.114 546.168C488.641 546.168 488.235 546.278 487.897 546.497C487.559 546.709 487.284 547 487.073 547.372C486.87 547.744 486.718 548.184 486.617 548.691C486.524 549.189 486.477 549.73 486.477 550.313ZM505.43 554.18V548.069C505.43 547.63 505.358 547.254 505.215 546.941C505.071 546.62 504.847 546.371 504.543 546.193C504.247 546.016 503.862 545.927 503.389 545.927C502.983 545.927 502.633 545.999 502.337 546.142C502.041 546.278 501.813 546.476 501.652 546.738C501.492 546.992 501.411 547.292 501.411 547.638H497.76C497.76 547.055 497.895 546.502 498.166 545.978C498.436 545.454 498.829 544.993 499.345 544.596C499.86 544.19 500.473 543.873 501.183 543.645C501.902 543.417 502.704 543.303 503.592 543.303C504.657 543.303 505.603 543.48 506.432 543.835C507.26 544.19 507.911 544.723 508.384 545.433C508.866 546.142 509.107 547.03 509.107 548.095V553.965C509.107 554.717 509.153 555.334 509.246 555.816C509.339 556.289 509.474 556.703 509.652 557.058V557.273H505.963C505.785 556.902 505.65 556.437 505.557 555.879C505.472 555.313 505.43 554.746 505.43 554.18ZM505.912 548.919L505.937 550.985H503.896C503.414 550.985 502.996 551.04 502.641 551.15C502.286 551.26 501.995 551.416 501.766 551.619C501.538 551.814 501.369 552.042 501.259 552.304C501.158 552.566 501.107 552.853 501.107 553.166C501.107 553.479 501.179 553.762 501.323 554.015C501.466 554.26 501.673 554.455 501.944 554.598C502.214 554.734 502.531 554.801 502.895 554.801C503.444 554.801 503.922 554.691 504.327 554.472C504.733 554.252 505.046 553.981 505.265 553.66C505.494 553.339 505.612 553.035 505.62 552.748L506.584 554.294C506.449 554.641 506.263 555 506.026 555.372C505.798 555.744 505.506 556.094 505.151 556.424C504.796 556.745 504.369 557.011 503.871 557.223C503.372 557.426 502.781 557.527 502.096 557.527C501.225 557.527 500.435 557.354 499.725 557.007C499.024 556.652 498.466 556.166 498.052 555.549C497.646 554.924 497.443 554.214 497.443 553.419C497.443 552.701 497.578 552.063 497.849 551.505C498.119 550.947 498.517 550.478 499.041 550.098C499.573 549.709 500.237 549.418 501.031 549.223C501.825 549.02 502.747 548.919 503.795 548.919H505.912ZM519.337 553.483C519.337 553.221 519.261 552.984 519.109 552.773C518.957 552.562 518.674 552.367 518.26 552.19C517.854 552.004 517.267 551.835 516.498 551.683C515.805 551.53 515.158 551.34 514.558 551.112C513.966 550.875 513.451 550.592 513.011 550.263C512.58 549.933 512.242 549.544 511.997 549.096C511.752 548.64 511.629 548.12 511.629 547.537C511.629 546.962 511.752 546.421 511.997 545.914C512.251 545.407 512.61 544.959 513.075 544.57C513.548 544.173 514.123 543.865 514.799 543.645C515.483 543.417 516.253 543.303 517.106 543.303C518.298 543.303 519.321 543.493 520.174 543.873C521.036 544.254 521.696 544.778 522.152 545.445C522.617 546.104 522.849 546.857 522.849 547.702H519.198C519.198 547.347 519.122 547.03 518.97 546.751C518.826 546.464 518.598 546.24 518.285 546.079C517.981 545.91 517.584 545.826 517.094 545.826C516.688 545.826 516.337 545.897 516.041 546.041C515.745 546.176 515.517 546.362 515.357 546.599C515.205 546.827 515.129 547.081 515.129 547.36C515.129 547.571 515.171 547.761 515.255 547.93C515.348 548.091 515.496 548.239 515.699 548.374C515.902 548.509 516.164 548.636 516.485 548.754C516.815 548.864 517.22 548.965 517.702 549.058C518.691 549.261 519.574 549.527 520.352 549.857C521.129 550.178 521.746 550.618 522.203 551.176C522.659 551.725 522.887 552.447 522.887 553.343C522.887 553.952 522.752 554.51 522.482 555.017C522.211 555.524 521.822 555.968 521.315 556.348C520.808 556.72 520.2 557.011 519.49 557.223C518.788 557.426 517.998 557.527 517.119 557.527C515.843 557.527 514.761 557.299 513.873 556.842C512.994 556.386 512.327 555.807 511.87 555.106C511.422 554.396 511.198 553.669 511.198 552.925H514.659C514.676 553.424 514.803 553.825 515.04 554.129C515.285 554.434 515.593 554.653 515.965 554.789C516.346 554.924 516.755 554.991 517.195 554.991C517.668 554.991 518.061 554.928 518.374 554.801C518.687 554.666 518.923 554.489 519.084 554.269C519.253 554.041 519.337 553.779 519.337 553.483Z" fill="#606060"/>
<path d="M50.031 73.894L43.3119 55.7932L41.5652 55.5679V53.3845H49.0168V55.5679L47.1574 55.8637L51.4255 68.3582L51.8059 69.6963H51.8904L52.2848 68.3722L56.6093 55.8496L54.4822 55.5679V53.3845H61.7085V55.5679L59.9336 55.7932L53.468 73.894H50.031ZM69.3714 74.1899C67.9346 74.1899 66.6809 73.8706 65.6104 73.232C64.5492 72.584 63.7228 71.6919 63.1312 70.5556C62.549 69.4193 62.2578 68.1187 62.2578 66.6537V66.0621C62.2578 64.5783 62.5443 63.2589 63.1171 62.1039C63.6993 60.9394 64.4976 60.0285 65.5118 59.3711C66.526 58.7044 67.681 58.371 68.977 58.371C70.3574 58.371 71.5125 58.648 72.4422 59.2021C73.3813 59.7562 74.0903 60.545 74.5692 61.5686C75.0481 62.5828 75.2876 63.8036 75.2876 65.231V67.2594H65.9344L65.9062 67.3299C65.9437 68.1281 66.1081 68.8371 66.3992 69.4569C66.6997 70.0767 67.1223 70.565 67.667 70.9218C68.221 71.2787 68.8925 71.4571 69.6813 71.4571C70.5077 71.4571 71.2589 71.3444 71.9351 71.1191C72.6112 70.8937 73.2357 70.5744 73.8086 70.1612L74.9214 72.3868C74.3204 72.8939 73.555 73.3212 72.6253 73.6687C71.6956 74.0161 70.611 74.1899 69.3714 74.1899ZM65.9907 64.7662H71.8928V64.3999C71.8928 63.7332 71.7895 63.1509 71.5829 62.6532C71.3857 62.1461 71.0711 61.7517 70.6392 61.47C70.2166 61.1883 69.6766 61.0474 69.0192 61.0474C68.4464 61.0474 67.944 61.207 67.512 61.5263C67.08 61.8456 66.7326 62.2823 66.4696 62.8364C66.2161 63.381 66.0423 64.0008 65.9484 64.6957L65.9907 64.7662ZM77.2033 73.894V71.7248L79.3163 71.3022V61.2587L77.0906 60.8361V58.6527H82.5843L82.7674 60.8643C83.2745 60.0755 83.9037 59.465 84.655 59.0331C85.4156 58.5917 86.2749 58.371 87.2327 58.371C88.801 58.371 90.0218 58.8546 90.8952 59.8219C91.7685 60.7798 92.2052 62.2823 92.2052 64.3295V71.3022L94.3181 71.7248V73.894H86.6693V71.7248L88.6554 71.3022V64.3577C88.6554 63.2026 88.4254 62.3856 87.9652 61.9067C87.5051 61.4183 86.8195 61.1742 85.9086 61.1742C85.2231 61.1742 84.6221 61.3291 84.1056 61.639C83.5985 61.9395 83.1853 62.3621 82.866 62.9068V71.3022L84.7958 71.7248V73.894H77.2033ZM101.671 74.1899C100.441 74.1899 99.3892 73.88 98.5158 73.2602C97.6425 72.6404 96.971 71.7764 96.5015 70.6683C96.0413 69.5508 95.8112 68.2502 95.8112 66.7664V66.4706C95.8112 64.846 96.0413 63.428 96.5015 62.2166C96.971 61.0051 97.6425 60.0614 98.5158 59.3852C99.3985 58.7091 100.446 58.371 101.657 58.371C102.53 58.371 103.291 58.5401 103.939 58.8781C104.596 59.2068 105.16 59.681 105.629 60.3008V54.5255L103.39 54.1029V51.9195H105.629H109.179V71.3022L111.292 71.7248V73.894H106.108L105.827 72.0487C105.348 72.7531 104.761 73.2883 104.066 73.6546C103.38 74.0114 102.582 74.1899 101.671 74.1899ZM102.671 71.3867C103.347 71.3867 103.93 71.2411 104.418 70.95C104.906 70.6495 105.31 70.2175 105.629 69.6541V62.935C105.319 62.3903 104.916 61.963 104.418 61.6531C103.93 61.3338 103.357 61.1742 102.699 61.1742C101.929 61.1742 101.295 61.3996 100.798 61.8503C100.309 62.2917 99.9479 62.9115 99.7131 63.7097C99.4784 64.4985 99.361 65.4188 99.361 66.4706V66.7664C99.361 68.175 99.6192 69.2972 100.136 70.133C100.662 70.9688 101.507 71.3867 102.671 71.3867ZM117.884 74.1899C116.335 74.1899 115.128 73.7907 114.264 72.9925C113.4 72.1943 112.968 71.0956 112.968 69.6963C112.968 68.7385 113.231 67.898 113.757 67.1749C114.283 66.4518 115.053 65.8884 116.067 65.4846C117.081 65.0714 118.312 64.8648 119.758 64.8648H122.082V63.5829C122.082 62.7753 121.838 62.132 121.35 61.6531C120.871 61.1742 120.171 60.9347 119.251 60.9347C118.725 60.9347 118.26 61.0004 117.856 61.1319C117.452 61.254 117.091 61.4324 116.772 61.6672L116.448 63.7238H113.842L113.813 59.9628C114.565 59.4744 115.4 59.0894 116.321 58.8077C117.241 58.5166 118.265 58.371 119.392 58.371C121.326 58.371 122.847 58.8265 123.956 59.7374C125.073 60.6389 125.632 61.9348 125.632 63.6252V70.3443C125.632 70.5509 125.632 70.7528 125.632 70.95C125.641 71.1472 125.655 71.3397 125.674 71.5276L127.224 71.7248V73.894H122.589C122.495 73.5654 122.406 73.2461 122.322 72.9362C122.246 72.6263 122.19 72.3164 122.152 72.0065C121.645 72.6451 121.03 73.1709 120.307 73.5841C119.593 73.988 118.786 74.1899 117.884 74.1899ZM118.687 71.443C119.401 71.443 120.068 71.2787 120.688 70.95C121.307 70.612 121.772 70.1894 122.082 69.6823V67.1327H119.716C118.654 67.1327 117.852 67.3815 117.307 67.8792C116.772 68.3675 116.504 68.9404 116.504 69.5977C116.504 70.1894 116.692 70.6448 117.067 70.9641C117.443 71.2834 117.983 71.443 118.687 71.443ZM135.351 74.1899C134.262 74.1899 133.243 74.0866 132.295 73.88C131.356 73.664 130.412 73.3494 129.463 72.9362L129.421 68.9075H131.971L132.506 71.105C132.91 71.2834 133.323 71.4243 133.745 71.5276C134.177 71.6215 134.656 71.6684 135.182 71.6684C136.196 71.6684 136.91 71.49 137.323 71.1331C137.746 70.7763 137.957 70.3349 137.957 69.809C137.957 69.3019 137.737 68.87 137.295 68.5131C136.863 68.1469 136.032 67.8323 134.802 67.5693C132.98 67.1749 131.637 66.6021 130.773 65.8508C129.919 65.0901 129.491 64.1041 129.491 62.8927C129.491 62.0569 129.712 61.301 130.153 60.6248C130.604 59.9487 131.262 59.4087 132.126 59.0049C132.999 58.5917 134.069 58.3851 135.337 58.3851C136.492 58.3851 137.516 58.5072 138.408 58.7513C139.31 58.9861 140.075 59.3007 140.704 59.6951L140.789 63.5688H138.267L137.83 61.5545C137.539 61.3479 137.201 61.1883 136.816 61.0756C136.431 60.9629 135.99 60.9065 135.492 60.9065C134.713 60.9065 134.098 61.0803 133.647 61.4277C133.196 61.7658 132.971 62.1931 132.971 62.7096C132.971 63.0101 133.041 63.2824 133.182 63.5266C133.332 63.7707 133.614 63.9961 134.027 64.2027C134.45 64.3999 135.065 64.5924 135.872 64.7803C137.854 65.2404 139.272 65.8414 140.127 66.5833C140.981 67.3252 141.408 68.3065 141.408 69.5273C141.408 70.889 140.911 72.0065 139.915 72.8798C138.92 73.7532 137.398 74.1899 135.351 74.1899ZM150.367 79.7539V77.5705L152.424 77.148V61.2587L150.184 60.8361V58.6527H155.607L155.833 60.4558C156.302 59.789 156.875 59.2772 157.551 58.9204C158.227 58.5541 159.026 58.371 159.946 58.371C161.185 58.371 162.247 58.7091 163.129 59.3852C164.012 60.0614 164.684 61.0051 165.144 62.2166C165.613 63.428 165.848 64.846 165.848 66.4706V66.7664C165.848 68.2502 165.613 69.5508 165.144 70.6683C164.674 71.7764 163.998 72.6404 163.115 73.2602C162.242 73.88 161.185 74.1899 159.946 74.1899C159.073 74.1899 158.307 74.0396 157.65 73.7391C156.992 73.4292 156.429 72.9784 155.959 72.3868V77.148L158.129 77.5705V79.7539H150.367ZM158.875 71.4571C160.04 71.4571 160.899 71.0298 161.453 70.1753C162.017 69.3113 162.298 68.175 162.298 66.7664V66.4706C162.298 65.4188 162.171 64.4985 161.918 63.7097C161.674 62.9115 161.293 62.2917 160.777 61.8503C160.27 61.3996 159.627 61.1742 158.847 61.1742C158.19 61.1742 157.617 61.3244 157.129 61.6249C156.65 61.9161 156.26 62.3292 155.959 62.8645V69.8513C156.26 70.3678 156.65 70.7669 157.129 71.0486C157.608 71.321 158.19 71.4571 158.875 71.4571ZM175.258 74.1899C173.793 74.1899 172.534 73.8612 171.482 73.2038C170.431 72.5465 169.623 71.6356 169.06 70.4711C168.496 69.2972 168.214 67.9497 168.214 66.4283V66.1325C168.214 64.6206 168.496 63.2824 169.06 62.118C169.623 60.9535 170.431 60.0379 171.482 59.3711C172.534 58.7044 173.783 58.371 175.229 58.371C176.694 58.371 177.953 58.7044 179.005 59.3711C180.056 60.0285 180.864 60.9394 181.427 62.1039C181.991 63.2683 182.273 64.6112 182.273 66.1325V66.4283C182.273 67.9497 181.991 69.2972 181.427 70.4711C180.864 71.6356 180.056 72.5465 179.005 73.2038C177.962 73.8612 176.713 74.1899 175.258 74.1899ZM175.258 71.4571C176.046 71.4571 176.694 71.2458 177.201 70.8232C177.718 70.3913 178.103 69.7996 178.357 69.0484C178.61 68.2877 178.737 67.4144 178.737 66.4283V66.1325C178.737 65.1559 178.61 64.2919 178.357 63.5407C178.103 62.7894 177.718 62.1978 177.201 61.7658C176.685 61.3338 176.028 61.1178 175.229 61.1178C174.45 61.1178 173.802 61.3338 173.286 61.7658C172.769 62.1978 172.384 62.7894 172.13 63.5407C171.886 64.2919 171.764 65.1559 171.764 66.1325V66.4283C171.764 67.4144 171.886 68.2877 172.13 69.0484C172.384 69.7996 172.769 70.3913 173.286 70.8232C173.811 71.2458 174.469 71.4571 175.258 71.4571ZM184.4 73.894V71.7248L186.512 71.3022V61.2587L184.287 60.8361V58.6527H189.78L189.964 60.5685L189.992 60.8784C190.396 60.0708 190.889 59.451 191.471 59.019C192.062 58.587 192.753 58.371 193.542 58.371C193.804 58.371 194.081 58.3945 194.373 58.4414C194.673 58.4884 194.917 58.5401 195.105 58.5964L194.697 61.8785L192.71 61.7658C192.062 61.7282 191.527 61.855 191.105 62.1461C190.691 62.4372 190.344 62.841 190.062 63.3575V71.3022L192.175 71.7248V73.894H184.4ZM203.839 73.894V71.7248L205.951 71.3022V61.2587L203.726 60.8361V58.6527H209.219L209.403 60.5685L209.431 60.8784C209.835 60.0708 210.328 59.451 210.91 59.019C211.501 58.587 212.192 58.371 212.981 58.371C213.243 58.371 213.52 58.3945 213.812 58.4414C214.112 58.4884 214.356 58.5401 214.544 58.5964L214.136 61.8785L212.149 61.7658C211.501 61.7282 210.966 61.855 210.544 62.1461C210.13 62.4372 209.783 62.841 209.501 63.3575V71.3022L211.614 71.7248V73.894H203.839ZM222.855 74.1899C221.418 74.1899 220.164 73.8706 219.094 73.232C218.033 72.584 217.206 71.6919 216.615 70.5556C216.033 69.4193 215.741 68.1187 215.741 66.6537V66.0621C215.741 64.5783 216.028 63.2589 216.601 62.1039C217.183 60.9394 217.981 60.0285 218.995 59.3711C220.01 58.7044 221.165 58.371 222.461 58.371C223.841 58.371 224.996 58.648 225.926 59.2021C226.865 59.7562 227.574 60.545 228.053 61.5686C228.532 62.5828 228.771 63.8036 228.771 65.231V67.2594H219.418L219.39 67.3299C219.427 68.1281 219.592 68.8371 219.883 69.4569C220.183 70.0767 220.606 70.565 221.151 70.9218C221.705 71.2787 222.376 71.4571 223.165 71.4571C223.991 71.4571 224.743 71.3444 225.419 71.1191C226.095 70.8937 226.719 70.5744 227.292 70.1612L228.405 72.3868C227.804 72.8939 227.039 73.3212 226.109 73.6687C225.179 74.0161 224.095 74.1899 222.855 74.1899ZM219.474 64.7662H225.376V64.3999C225.376 63.7332 225.273 63.1509 225.067 62.6532C224.869 62.1461 224.555 61.7517 224.123 61.47C223.7 61.1883 223.16 61.0474 222.503 61.0474C221.93 61.0474 221.428 61.207 220.996 61.5263C220.564 61.8456 220.216 62.2823 219.953 62.8364C219.7 63.381 219.526 64.0008 219.432 64.6957L219.474 64.7662ZM237.716 80.0497C236.965 80.0497 236.129 79.9464 235.209 79.7398C234.298 79.5426 233.495 79.2656 232.8 78.9087L233.532 76.3169C234.133 76.5892 234.795 76.8099 235.518 76.9789C236.242 77.148 236.927 77.2325 237.575 77.2325C238.74 77.2325 239.589 76.9085 240.125 76.2605C240.669 75.622 240.942 74.7157 240.942 73.5419V72.3446C240.472 72.9456 239.913 73.4057 239.265 73.725C238.617 74.0349 237.876 74.1899 237.04 74.1899C235.8 74.1899 234.73 73.88 233.828 73.2602C232.936 72.6404 232.25 71.7717 231.772 70.6542C231.302 69.5367 231.067 68.2408 231.067 66.7664V66.4706C231.067 64.846 231.302 63.428 231.772 62.2166C232.25 61.0051 232.931 60.0614 233.814 59.3852C234.706 58.7091 235.767 58.371 236.998 58.371C237.927 58.371 238.735 58.5635 239.42 58.9486C240.106 59.3242 240.688 59.8642 241.167 60.5685L241.435 58.6527H244.491V73.556C244.491 74.8801 244.224 76.0258 243.688 76.993C243.153 77.9697 242.378 78.7209 241.364 79.2468C240.35 79.7821 239.134 80.0497 237.716 80.0497ZM237.998 71.3867C238.683 71.3867 239.265 71.2411 239.744 70.95C240.233 70.6589 240.632 70.2363 240.942 69.6823V62.8927C240.632 62.3574 240.233 61.9395 239.744 61.639C239.256 61.3291 238.678 61.1742 238.012 61.1742C237.232 61.1742 236.589 61.3996 236.082 61.8503C235.584 62.2917 235.213 62.9115 234.969 63.7097C234.734 64.4985 234.617 65.4188 234.617 66.4706V66.7664C234.617 68.175 234.885 69.2972 235.42 70.133C235.965 70.9688 236.824 71.3867 237.998 71.3867ZM244.012 61.3291L242.519 58.6527H246.323V60.8361L244.012 61.3291ZM247.548 73.894V71.7248L249.661 71.3022V61.2587L247.421 60.8361V58.6527H253.211V71.3022L255.31 71.7248V73.894H247.548ZM249.52 55.2016V51.9195H253.211V55.2016H249.52ZM264.029 74.1899C262.564 74.1899 261.306 73.8612 260.254 73.2038C259.202 72.5465 258.395 71.6356 257.831 70.4711C257.268 69.2972 256.986 67.9497 256.986 66.4283V66.1325C256.986 64.6206 257.268 63.2824 257.831 62.118C258.395 60.9535 259.202 60.0379 260.254 59.3711C261.306 58.7044 262.555 58.371 264.001 58.371C265.466 58.371 266.724 58.7044 267.776 59.3711C268.828 60.0285 269.635 60.9394 270.199 62.1039C270.762 63.2683 271.044 64.6112 271.044 66.1325V66.4283C271.044 67.9497 270.762 69.2972 270.199 70.4711C269.635 71.6356 268.828 72.5465 267.776 73.2038C266.734 73.8612 265.485 74.1899 264.029 74.1899ZM264.029 71.4571C264.818 71.4571 265.466 71.2458 265.973 70.8232C266.489 70.3913 266.874 69.7996 267.128 69.0484C267.382 68.2877 267.508 67.4144 267.508 66.4283V66.1325C267.508 65.1559 267.382 64.2919 267.128 63.5407C266.874 62.7894 266.489 62.1978 265.973 61.7658C265.456 61.3338 264.799 61.1178 264.001 61.1178C263.221 61.1178 262.573 61.3338 262.057 61.7658C261.54 62.1978 261.155 62.7894 260.902 63.5407C260.658 64.2919 260.536 65.1559 260.536 66.1325V66.4283C260.536 67.4144 260.658 68.2877 260.902 69.0484C261.155 69.7996 261.54 70.3913 262.057 70.8232C262.583 71.2458 263.24 71.4571 264.029 71.4571ZM272.917 73.894V71.7248L275.03 71.3022V61.2587L272.805 60.8361V58.6527H278.298L278.481 60.8643C278.989 60.0755 279.618 59.465 280.369 59.0331C281.13 58.5917 281.989 58.371 282.947 58.371C284.515 58.371 285.736 58.8546 286.609 59.8219C287.483 60.7798 287.919 62.2823 287.919 64.3295V71.3022L290.032 71.7248V73.894H282.383V71.7248L284.37 71.3022V64.3577C284.37 63.2026 284.139 62.3856 283.679 61.9067C283.219 61.4183 282.534 61.1742 281.623 61.1742C280.937 61.1742 280.336 61.3291 279.82 61.639C279.313 61.9395 278.899 62.3621 278.58 62.9068V71.3022L280.51 71.7248V73.894H272.917ZM296.667 74.1899C295.117 74.1899 293.911 73.7907 293.047 72.9925C292.183 72.1943 291.751 71.0956 291.751 69.6963C291.751 68.7385 292.014 67.898 292.54 67.1749C293.065 66.4518 293.835 65.8884 294.85 65.4846C295.864 65.0714 297.094 64.8648 298.54 64.8648H300.865V63.5829C300.865 62.7753 300.62 62.132 300.132 61.6531C299.653 61.1742 298.953 60.9347 298.033 60.9347C297.507 60.9347 297.042 61.0004 296.639 61.1319C296.235 61.254 295.873 61.4324 295.554 61.6672L295.23 63.7238H292.624L292.596 59.9628C293.347 59.4744 294.183 59.0894 295.103 58.8077C296.024 58.5166 297.047 58.371 298.174 58.371C300.109 58.371 301.63 58.8265 302.738 59.7374C303.855 60.6389 304.414 61.9348 304.414 63.6252V70.3443C304.414 70.5509 304.414 70.7528 304.414 70.95C304.424 71.1472 304.438 71.3397 304.456 71.5276L306.006 71.7248V73.894H301.372C301.278 73.5654 301.188 73.2461 301.104 72.9362C301.029 72.6263 300.972 72.3164 300.935 72.0065C300.428 72.6451 299.813 73.1709 299.09 73.5841C298.376 73.988 297.568 74.1899 296.667 74.1899ZM297.47 71.443C298.183 71.443 298.85 71.2787 299.47 70.95C300.09 70.612 300.555 70.1894 300.865 69.6823V67.1327H298.498C297.437 67.1327 296.634 67.3815 296.089 67.8792C295.554 68.3675 295.286 68.9404 295.286 69.5977C295.286 70.1894 295.474 70.6448 295.85 70.9641C296.225 71.2834 296.765 71.443 297.47 71.443ZM307.555 73.894V71.7248L309.682 71.3022V54.5255L307.429 54.1029V51.9195H313.218V71.3022L315.345 71.7248V73.894H307.555Z" fill="#2C2C2C"/>
<line x1="235.601" y1="482.459" x2="235.601" y2="469.477" stroke="#CACACA" stroke-width="2.88486"/>
<line x1="268.38" y1="482.459" x2="268.38" y2="469.477" stroke="#CACACA" stroke-width="2.88486"/>
<line x1="301.155" y1="482.459" x2="301.155" y2="469.477" stroke="#CACACA" stroke-width="2.88486"/>
<line x1="366.706" y1="482.459" x2="366.706" y2="469.477" stroke="#CACACA" stroke-width="2.88486"/>
<line x1="399.481" y1="482.459" x2="399.481" y2="469.477" stroke="#CACACA" stroke-width="2.88486"/>
<line x1="432.261" y1="482.459" x2="432.261" y2="469.477" stroke="#CACACA" stroke-width="2.88486"/>
<line x1="497.808" y1="482.459" x2="497.808" y2="469.477" stroke="#CACACA" stroke-width="2.88486"/>
<line x1="530.587" y1="482.459" x2="530.587" y2="469.477" stroke="#CACACA" stroke-width="2.88486"/>
<line x1="563.358" y1="482.459" x2="563.358" y2="469.477" stroke="#CACACA" stroke-width="2.88486"/>
<line x1="628.917" y1="482.459" x2="628.917" y2="469.477" stroke="#CACACA" stroke-width="2.88486"/>
<line x1="661.692" y1="482.459" x2="661.692" y2="469.477" stroke="#CACACA" stroke-width="2.88486"/>
<line x1="694.462" y1="482.459" x2="694.462" y2="469.477" stroke="#CACACA" stroke-width="2.88486"/>
<path d="M665.1 273.537L659.345 270.752L637.548 270.75C632.769 270.749 628.895 266.875 628.895 262.095V230.78C628.895 226 632.769 222.125 637.549 222.125H692.331C697.111 222.125 700.986 226 700.986 230.78V262.134C700.986 266.898 697.135 270.766 692.371 270.788L670.854 270.886L665.1 273.537Z" fill="#606060"/>
<path d="M639.547 252.125H639.707C640.609 252.125 641.341 251.998 641.905 251.744C642.468 251.491 642.902 251.15 643.206 250.722C643.51 250.293 643.719 249.812 643.832 249.276C643.944 248.735 644.001 248.18 644.001 247.611V245.727C644.001 245.169 643.936 244.673 643.806 244.239C643.682 243.805 643.508 243.442 643.282 243.149C643.062 242.856 642.812 242.633 642.53 242.481C642.248 242.329 641.95 242.253 641.634 242.253C641.274 242.253 640.95 242.326 640.662 242.473C640.38 242.614 640.141 242.814 639.944 243.073C639.752 243.332 639.606 243.636 639.504 243.986C639.403 244.335 639.352 244.715 639.352 245.127C639.352 245.493 639.397 245.848 639.487 246.191C639.578 246.535 639.716 246.845 639.902 247.121C640.087 247.397 640.318 247.617 640.595 247.78C640.876 247.938 641.206 248.017 641.583 248.017C641.933 248.017 642.26 247.949 642.564 247.814C642.874 247.673 643.147 247.485 643.384 247.248C643.626 247.006 643.817 246.732 643.958 246.428C644.105 246.124 644.189 245.805 644.212 245.473H644.956C644.956 245.941 644.863 246.403 644.677 246.859C644.496 247.31 644.243 247.721 643.916 248.093C643.589 248.465 643.206 248.764 642.767 248.989C642.327 249.209 641.848 249.319 641.33 249.319C640.721 249.319 640.194 249.2 639.749 248.964C639.304 248.727 638.938 248.411 638.651 248.017C638.369 247.623 638.158 247.183 638.017 246.699C637.882 246.208 637.814 245.712 637.814 245.211C637.814 244.625 637.896 244.076 638.059 243.563C638.222 243.05 638.465 242.599 638.786 242.211C639.107 241.816 639.504 241.509 639.978 241.289C640.457 241.07 641.009 240.96 641.634 240.96C642.338 240.96 642.938 241.101 643.434 241.382C643.93 241.664 644.333 242.042 644.643 242.515C644.958 242.988 645.189 243.521 645.336 244.112C645.482 244.704 645.556 245.312 645.556 245.938V246.504C645.556 247.141 645.513 247.789 645.429 248.448C645.35 249.102 645.195 249.727 644.964 250.324C644.739 250.922 644.409 251.457 643.975 251.93C643.541 252.398 642.975 252.77 642.276 253.046C641.583 253.316 640.727 253.451 639.707 253.451H639.547V252.125ZM655.487 250.105C655.487 250.854 655.312 251.491 654.963 252.015C654.619 252.533 654.151 252.927 653.56 253.198C652.974 253.468 652.311 253.604 651.573 253.604C650.835 253.604 650.17 253.468 649.579 253.198C648.987 252.927 648.519 252.533 648.176 252.015C647.832 251.491 647.66 250.854 647.66 250.105C647.66 249.614 647.753 249.166 647.939 248.761C648.131 248.349 648.398 247.992 648.742 247.687C649.091 247.383 649.503 247.149 649.976 246.986C650.455 246.817 650.982 246.732 651.556 246.732C652.311 246.732 652.985 246.879 653.576 247.172C654.168 247.459 654.633 247.856 654.971 248.364C655.315 248.871 655.487 249.451 655.487 250.105ZM653.914 250.071C653.914 249.614 653.816 249.212 653.619 248.862C653.421 248.507 653.145 248.231 652.79 248.034C652.435 247.837 652.024 247.738 651.556 247.738C651.078 247.738 650.663 247.837 650.314 248.034C649.97 248.231 649.703 248.507 649.511 248.862C649.32 249.212 649.224 249.614 649.224 250.071C649.224 250.544 649.317 250.95 649.503 251.288C649.694 251.62 649.965 251.877 650.314 252.057C650.669 252.232 651.089 252.319 651.573 252.319C652.058 252.319 652.475 252.232 652.824 252.057C653.174 251.877 653.441 251.62 653.627 251.288C653.819 250.95 653.914 250.544 653.914 250.071ZM655.199 244.332C655.199 244.929 655.041 245.467 654.726 245.946C654.41 246.425 653.979 246.803 653.433 247.079C652.886 247.355 652.266 247.493 651.573 247.493C650.869 247.493 650.241 247.355 649.689 247.079C649.142 246.803 648.714 246.425 648.404 245.946C648.094 245.467 647.939 244.929 647.939 244.332C647.939 243.616 648.094 243.008 648.404 242.506C648.719 242.005 649.151 241.622 649.697 241.357C650.244 241.092 650.866 240.96 651.565 240.96C652.269 240.96 652.895 241.092 653.441 241.357C653.988 241.622 654.416 242.005 654.726 242.506C655.041 243.008 655.199 243.616 655.199 244.332ZM653.636 244.357C653.636 243.946 653.548 243.583 653.374 243.267C653.199 242.952 652.957 242.704 652.647 242.523C652.337 242.337 651.976 242.244 651.565 242.244C651.154 242.244 650.793 242.332 650.483 242.506C650.179 242.676 649.939 242.918 649.765 243.233C649.596 243.549 649.511 243.924 649.511 244.357C649.511 244.78 649.596 245.149 649.765 245.465C649.939 245.78 650.182 246.025 650.492 246.2C650.801 246.375 651.162 246.462 651.573 246.462C651.985 246.462 652.342 246.375 652.647 246.2C652.957 246.025 653.199 245.78 653.374 245.465C653.548 245.149 653.636 244.78 653.636 244.357ZM657.659 252.606C657.659 252.341 657.74 252.119 657.904 251.939C658.073 251.753 658.315 251.66 658.631 251.66C658.946 251.66 659.186 251.753 659.349 251.939C659.518 252.119 659.603 252.341 659.603 252.606C659.603 252.865 659.518 253.085 659.349 253.266C659.186 253.446 658.946 253.536 658.631 253.536C658.315 253.536 658.073 253.446 657.904 253.266C657.74 253.085 657.659 252.865 657.659 252.606ZM669.753 246.301V248.178C669.753 249.186 669.663 250.037 669.483 250.73C669.302 251.423 669.043 251.981 668.705 252.403C668.367 252.826 667.958 253.133 667.48 253.325C667.006 253.511 666.471 253.604 665.874 253.604C665.4 253.604 664.964 253.544 664.564 253.426C664.164 253.308 663.803 253.119 663.482 252.86C663.166 252.595 662.896 252.251 662.67 251.829C662.445 251.406 662.273 250.893 662.155 250.291C662.037 249.688 661.977 248.983 661.977 248.178V246.301C661.977 245.293 662.068 244.448 662.248 243.766C662.434 243.084 662.696 242.537 663.034 242.126C663.372 241.709 663.778 241.411 664.251 241.23C664.73 241.05 665.265 240.96 665.857 240.96C666.336 240.96 666.775 241.019 667.175 241.137C667.581 241.25 667.942 241.433 668.257 241.687C668.573 241.935 668.84 242.267 669.06 242.684C669.285 243.095 669.457 243.6 669.576 244.197C669.694 244.794 669.753 245.496 669.753 246.301ZM668.181 248.431V246.039C668.181 245.487 668.147 245.003 668.08 244.586C668.018 244.163 667.925 243.802 667.801 243.504C667.677 243.205 667.519 242.963 667.327 242.777C667.141 242.591 666.925 242.456 666.677 242.371C666.434 242.281 666.161 242.236 665.857 242.236C665.485 242.236 665.155 242.306 664.868 242.447C664.581 242.583 664.338 242.799 664.141 243.098C663.95 243.397 663.803 243.788 663.702 244.273C663.6 244.757 663.549 245.346 663.549 246.039V248.431C663.549 248.983 663.58 249.471 663.642 249.893C663.71 250.316 663.809 250.682 663.938 250.992C664.068 251.296 664.226 251.547 664.412 251.744C664.597 251.941 664.812 252.088 665.054 252.184C665.302 252.274 665.575 252.319 665.874 252.319C666.257 252.319 666.592 252.246 666.879 252.099C667.167 251.953 667.406 251.725 667.598 251.415C667.795 251.099 667.942 250.696 668.037 250.206C668.133 249.71 668.181 249.119 668.181 248.431ZM679.489 246.301V248.178C679.489 249.186 679.399 250.037 679.219 250.73C679.039 251.423 678.78 251.981 678.441 252.403C678.103 252.826 677.695 253.133 677.216 253.325C676.743 253.511 676.207 253.604 675.61 253.604C675.137 253.604 674.7 253.544 674.3 253.426C673.9 253.308 673.539 253.119 673.218 252.86C672.903 252.595 672.632 252.251 672.407 251.829C672.182 251.406 672.01 250.893 671.891 250.291C671.773 249.688 671.714 248.983 671.714 248.178V246.301C671.714 245.293 671.804 244.448 671.984 243.766C672.17 243.084 672.432 242.537 672.77 242.126C673.108 241.709 673.514 241.411 673.987 241.23C674.466 241.05 675.002 240.96 675.593 240.96C676.072 240.96 676.512 241.019 676.912 241.137C677.317 241.25 677.678 241.433 677.993 241.687C678.309 241.935 678.577 242.267 678.796 242.684C679.022 243.095 679.194 243.6 679.312 244.197C679.43 244.794 679.489 245.496 679.489 246.301ZM677.917 248.431V246.039C677.917 245.487 677.884 245.003 677.816 244.586C677.754 244.163 677.661 243.802 677.537 243.504C677.413 243.205 677.255 242.963 677.064 242.777C676.878 242.591 676.661 242.456 676.413 242.371C676.171 242.281 675.897 242.236 675.593 242.236C675.221 242.236 674.892 242.306 674.604 242.447C674.317 242.583 674.075 242.799 673.877 243.098C673.686 243.397 673.539 243.788 673.438 244.273C673.337 244.757 673.286 245.346 673.286 246.039V248.431C673.286 248.983 673.317 249.471 673.379 249.893C673.446 250.316 673.545 250.682 673.675 250.992C673.804 251.296 673.962 251.547 674.148 251.744C674.334 251.941 674.548 252.088 674.79 252.184C675.038 252.274 675.311 252.319 675.61 252.319C675.993 252.319 676.328 252.246 676.616 252.099C676.903 251.953 677.143 251.725 677.334 251.415C677.531 251.099 677.678 250.696 677.774 250.206C677.87 249.71 677.917 249.119 677.917 248.431ZM689.226 246.301V248.178C689.226 249.186 689.136 250.037 688.955 250.73C688.775 251.423 688.516 251.981 688.178 252.403C687.84 252.826 687.431 253.133 686.952 253.325C686.479 253.511 685.944 253.604 685.346 253.604C684.873 253.604 684.437 253.544 684.036 253.426C683.636 253.308 683.276 253.119 682.955 252.86C682.639 252.595 682.369 252.251 682.143 251.829C681.918 251.406 681.746 250.893 681.628 250.291C681.509 249.688 681.45 248.983 681.45 248.178V246.301C681.45 245.293 681.54 244.448 681.721 243.766C681.907 243.084 682.169 242.537 682.507 242.126C682.845 241.709 683.25 241.411 683.724 241.23C684.203 241.05 684.738 240.96 685.33 240.96C685.809 240.96 686.248 241.019 686.648 241.137C687.054 241.25 687.414 241.433 687.73 241.687C688.045 241.935 688.313 242.267 688.533 242.684C688.758 243.095 688.93 243.6 689.048 244.197C689.167 244.794 689.226 245.496 689.226 246.301ZM687.654 248.431V246.039C687.654 245.487 687.62 245.003 687.552 244.586C687.49 244.163 687.397 243.802 687.273 243.504C687.15 243.205 686.992 242.963 686.8 242.777C686.614 242.591 686.397 242.456 686.149 242.371C685.907 242.281 685.634 242.236 685.33 242.236C684.958 242.236 684.628 242.306 684.341 242.447C684.053 242.583 683.811 242.799 683.614 243.098C683.422 243.397 683.276 243.788 683.174 244.273C683.073 244.757 683.022 245.346 683.022 246.039V248.431C683.022 248.983 683.053 249.471 683.115 249.893C683.183 250.316 683.281 250.682 683.411 250.992C683.541 251.296 683.698 251.547 683.884 251.744C684.07 251.941 684.284 252.088 684.527 252.184C684.775 252.274 685.048 252.319 685.346 252.319C685.73 252.319 686.065 252.246 686.352 252.099C686.64 251.953 686.879 251.725 687.071 251.415C687.268 251.099 687.414 250.696 687.51 250.206C687.606 249.71 687.654 249.119 687.654 248.431Z" fill="#FDFBF9"/>
</svg>
