<svg width="893" height="686" viewBox="0 0 893 686" fill="none" xmlns="http://www.w3.org/2000/svg">
<rect x="2.0979" y="2.06274" width="888.492" height="682.31" stroke="#CACACA" stroke-width="3.24267"/>
<line x1="158.453" y1="189.194" x2="158.453" y2="577.732" stroke="#606060" stroke-width="3.24267"/>
<line x1="305.815" y1="189.194" x2="305.815" y2="577.732" stroke="#CACACA" stroke-width="3.24267"/>
<line x1="453.186" y1="189.194" x2="453.186" y2="577.732" stroke="#CACACA" stroke-width="3.24267"/>
<line x1="600.547" y1="189.194" x2="600.547" y2="577.732" stroke="#CACACA" stroke-width="3.24267"/>
<line x1="747.914" y1="189.194" x2="747.914" y2="577.732" stroke="#CACACA" stroke-width="3.24267"/>
<path d="M158.305 212.812H582.23V261.452H158.305V212.812Z" fill="#959595"/>
<path d="M158.305 341.589H731.066V390.229H158.305V341.589Z" fill="#959595"/>
<path d="M158.305 470.369H476.249V519.009H158.305V470.369Z" fill="#959595"/>
<line x1="192.054" y1="574.252" x2="192.054" y2="559.66" stroke="#CACACA" stroke-width="3.24267"/>
<line x1="228.894" y1="574.252" x2="228.894" y2="559.66" stroke="#CACACA" stroke-width="3.24267"/>
<line x1="265.736" y1="574.252" x2="265.736" y2="559.66" stroke="#CACACA" stroke-width="3.24267"/>
<line x1="339.416" y1="574.252" x2="339.416" y2="559.66" stroke="#CACACA" stroke-width="3.24267"/>
<line x1="376.263" y1="574.252" x2="376.263" y2="559.66" stroke="#CACACA" stroke-width="3.24267"/>
<line x1="413.097" y1="574.252" x2="413.097" y2="559.66" stroke="#CACACA" stroke-width="3.24267"/>
<line x1="486.785" y1="574.252" x2="486.785" y2="559.66" stroke="#CACACA" stroke-width="3.24267"/>
<line x1="523.625" y1="574.252" x2="523.625" y2="559.66" stroke="#CACACA" stroke-width="3.24267"/>
<line x1="560.469" y1="574.252" x2="560.469" y2="559.66" stroke="#CACACA" stroke-width="3.24267"/>
<line x1="634.146" y1="574.252" x2="634.146" y2="559.66" stroke="#CACACA" stroke-width="3.24267"/>
<line x1="670.994" y1="574.252" x2="670.994" y2="559.66" stroke="#CACACA" stroke-width="3.24267"/>
<line x1="707.834" y1="574.252" x2="707.834" y2="559.66" stroke="#CACACA" stroke-width="3.24267"/>
<path d="M160.969 132.038C158.7 132.038 156.758 131.558 155.143 130.597C153.538 129.626 152.308 128.275 151.453 126.544C150.609 124.802 150.187 122.781 150.187 120.48V119.894C150.187 117.646 150.609 115.656 151.453 113.925C152.298 112.183 153.506 110.816 155.079 109.824C156.652 108.821 158.531 108.32 160.716 108.32C162.246 108.32 163.666 108.547 164.975 109.001C166.284 109.454 167.424 110.093 168.395 110.916V116.236H165.355L164.943 112.674C164.595 112.421 164.21 112.204 163.788 112.025C163.365 111.845 162.901 111.708 162.394 111.613C161.898 111.518 161.354 111.471 160.763 111.471C159.381 111.471 158.193 111.819 157.201 112.516C156.219 113.212 155.47 114.189 154.953 115.445C154.435 116.701 154.177 118.173 154.177 119.862V120.48C154.177 122.232 154.451 123.741 155 125.008C155.549 126.264 156.335 127.23 157.359 127.906C158.394 128.581 159.629 128.919 161.064 128.919C161.761 128.919 162.447 128.84 163.123 128.681C163.809 128.513 164.41 128.296 164.928 128.032L165.355 124.802H168.363V130.091C167.477 130.671 166.389 131.141 165.102 131.5C163.824 131.859 162.447 132.038 160.969 132.038ZM176.613 132.038C174.871 132.038 173.514 131.589 172.543 130.692C171.572 129.795 171.087 128.56 171.087 126.987C171.087 125.911 171.382 124.966 171.973 124.153C172.564 123.34 173.43 122.707 174.57 122.253C175.71 121.789 177.093 121.556 178.718 121.556H181.331V120.116C181.331 119.208 181.056 118.485 180.508 117.946C179.969 117.408 179.183 117.139 178.148 117.139C177.557 117.139 177.035 117.213 176.581 117.361C176.127 117.498 175.721 117.698 175.362 117.962L174.998 120.274H172.068L172.037 116.046C172.881 115.497 173.821 115.065 174.855 114.748C175.889 114.421 177.04 114.257 178.307 114.257C180.481 114.257 182.191 114.769 183.437 115.793C184.693 116.806 185.321 118.263 185.321 120.163V127.716C185.321 127.948 185.321 128.175 185.321 128.396C185.331 128.618 185.347 128.834 185.368 129.046L187.11 129.267V131.706H181.901C181.795 131.336 181.695 130.977 181.6 130.629C181.516 130.281 181.452 129.932 181.41 129.584C180.84 130.302 180.149 130.893 179.336 131.357C178.534 131.811 177.626 132.038 176.613 132.038ZM177.515 128.951C178.317 128.951 179.067 128.766 179.763 128.396C180.46 128.016 180.983 127.541 181.331 126.971V124.106H178.671C177.478 124.106 176.576 124.385 175.963 124.945C175.362 125.494 175.061 126.138 175.061 126.876C175.061 127.541 175.272 128.053 175.694 128.412C176.116 128.771 176.723 128.951 177.515 128.951ZM189.248 131.706V129.267L191.623 128.792V117.503L189.121 117.028V114.574H195.296L195.502 116.727L195.533 117.076C195.987 116.168 196.541 115.471 197.196 114.986C197.861 114.5 198.637 114.257 199.523 114.257C199.819 114.257 200.13 114.284 200.458 114.336C200.795 114.389 201.07 114.447 201.281 114.511L200.822 118.2L198.589 118.073C197.861 118.031 197.259 118.173 196.784 118.501C196.32 118.828 195.929 119.282 195.613 119.862V128.792L197.988 129.267V131.706H189.248ZM203.086 131.706V129.267L205.461 128.792V117.503L202.959 117.028V114.574H209.134L209.34 116.727L209.372 117.076C209.826 116.168 210.38 115.471 211.034 114.986C211.699 114.5 212.475 114.257 213.362 114.257C213.657 114.257 213.969 114.284 214.296 114.336C214.634 114.389 214.908 114.447 215.119 114.511L214.66 118.2L212.428 118.073C211.699 118.031 211.098 118.173 210.623 118.501C210.158 118.828 209.768 119.282 209.451 119.862V128.792L211.826 129.267V131.706H203.086ZM224.461 132.038C222.846 132.038 221.437 131.679 220.233 130.961C219.041 130.233 218.112 129.23 217.447 127.953C216.792 126.676 216.465 125.214 216.465 123.567V122.902C216.465 121.234 216.787 119.751 217.431 118.453C218.085 117.144 218.983 116.12 220.123 115.381C221.263 114.632 222.561 114.257 224.018 114.257C225.569 114.257 226.868 114.569 227.913 115.191C228.968 115.814 229.765 116.701 230.303 117.851C230.842 118.991 231.111 120.364 231.111 121.968V124.248H220.598L220.566 124.327C220.608 125.224 220.793 126.021 221.12 126.718C221.458 127.415 221.933 127.964 222.545 128.365C223.168 128.766 223.923 128.966 224.809 128.966C225.738 128.966 226.583 128.84 227.343 128.586C228.103 128.333 228.805 127.974 229.448 127.51L230.699 130.011C230.024 130.581 229.163 131.062 228.118 131.452C227.073 131.843 225.854 132.038 224.461 132.038ZM220.661 121.446H227.295V121.034C227.295 120.284 227.179 119.63 226.947 119.071C226.725 118.501 226.372 118.057 225.886 117.741C225.411 117.424 224.804 117.266 224.065 117.266C223.421 117.266 222.857 117.445 222.371 117.804C221.885 118.163 221.495 118.654 221.199 119.276C220.914 119.889 220.719 120.585 220.613 121.366L220.661 121.446ZM241.165 138.625C240.321 138.625 239.381 138.509 238.347 138.276C237.323 138.055 236.42 137.743 235.639 137.342L236.463 134.429C237.138 134.735 237.882 134.983 238.695 135.173C239.508 135.363 240.278 135.458 241.007 135.458C242.316 135.458 243.271 135.094 243.873 134.366C244.485 133.648 244.791 132.629 244.791 131.31V129.964C244.263 130.639 243.635 131.157 242.907 131.516C242.179 131.864 241.345 132.038 240.405 132.038C239.012 132.038 237.808 131.69 236.795 130.993C235.792 130.296 235.022 129.32 234.483 128.064C233.956 126.808 233.692 125.351 233.692 123.694V123.361C233.692 121.535 233.956 119.941 234.483 118.58C235.022 117.218 235.787 116.157 236.779 115.397C237.782 114.637 238.975 114.257 240.358 114.257C241.403 114.257 242.31 114.474 243.081 114.906C243.852 115.329 244.506 115.936 245.044 116.727L245.345 114.574H248.781V131.326C248.781 132.814 248.48 134.102 247.879 135.189C247.277 136.287 246.406 137.131 245.266 137.722C244.126 138.324 242.759 138.625 241.165 138.625ZM241.482 128.887C242.252 128.887 242.907 128.724 243.445 128.396C243.994 128.069 244.443 127.594 244.791 126.971V119.34C244.443 118.738 243.994 118.268 243.445 117.931C242.896 117.582 242.247 117.408 241.498 117.408C240.622 117.408 239.898 117.661 239.328 118.168C238.769 118.664 238.352 119.361 238.078 120.258C237.814 121.145 237.682 122.179 237.682 123.361V123.694C237.682 125.277 237.983 126.539 238.584 127.478C239.197 128.418 240.162 128.887 241.482 128.887ZM248.243 117.582L246.564 114.574H250.839V117.028L248.243 117.582ZM257.996 132.038C256.254 132.038 254.898 131.589 253.927 130.692C252.956 129.795 252.47 128.56 252.47 126.987C252.47 125.911 252.766 124.966 253.357 124.153C253.948 123.34 254.814 122.707 255.954 122.253C257.094 121.789 258.476 121.556 260.102 121.556H262.714V120.116C262.714 119.208 262.44 118.485 261.891 117.946C261.353 117.408 260.566 117.139 259.532 117.139C258.941 117.139 258.418 117.213 257.964 117.361C257.51 117.498 257.104 117.698 256.745 117.962L256.381 120.274H253.452L253.42 116.046C254.265 115.497 255.204 115.065 256.239 114.748C257.273 114.421 258.424 114.257 259.69 114.257C261.865 114.257 263.575 114.769 264.82 115.793C266.076 116.806 266.704 118.263 266.704 120.163V127.716C266.704 127.948 266.704 128.175 266.704 128.396C266.715 128.618 266.731 128.834 266.752 129.046L268.494 129.267V131.706H263.284C263.179 131.336 263.079 130.977 262.984 130.629C262.899 130.281 262.836 129.932 262.794 129.584C262.224 130.302 261.532 130.893 260.719 131.357C259.917 131.811 259.009 132.038 257.996 132.038ZM258.899 128.951C259.701 128.951 260.45 128.766 261.147 128.396C261.844 128.016 262.366 127.541 262.714 126.971V124.106H260.054C258.862 124.106 257.959 124.385 257.347 124.945C256.745 125.494 256.444 126.138 256.444 126.876C256.444 127.541 256.655 128.053 257.078 128.412C257.5 128.771 258.107 128.951 258.899 128.951ZM270.346 131.706V129.267L272.721 128.792V117.503L270.219 117.028V114.574H276.394L276.6 117.06C277.17 116.173 277.877 115.487 278.722 115.001C279.577 114.505 280.543 114.257 281.619 114.257C283.382 114.257 284.754 114.801 285.736 115.888C286.718 116.965 287.209 118.654 287.209 120.955V128.792L289.584 129.267V131.706H280.986V129.267L283.219 128.792V120.986C283.219 119.688 282.96 118.77 282.443 118.231C281.926 117.682 281.155 117.408 280.131 117.408C279.361 117.408 278.685 117.582 278.104 117.931C277.534 118.268 277.07 118.743 276.711 119.356V128.792L278.88 129.267V131.706H270.346ZM297.849 132.038C296.466 132.038 295.284 131.69 294.302 130.993C293.32 130.296 292.566 129.325 292.038 128.08C291.521 126.824 291.262 125.362 291.262 123.694V123.361C291.262 121.535 291.521 119.941 292.038 118.58C292.566 117.218 293.32 116.157 294.302 115.397C295.294 114.637 296.471 114.257 297.833 114.257C298.814 114.257 299.669 114.447 300.398 114.827C301.137 115.197 301.77 115.73 302.298 116.426V109.935L299.78 109.46V107.006H302.298H306.288V128.792L308.663 129.267V131.706H302.836L302.519 129.631C301.981 130.423 301.321 131.025 300.54 131.436C299.77 131.838 298.872 132.038 297.849 132.038ZM298.973 128.887C299.733 128.887 300.387 128.724 300.936 128.396C301.485 128.059 301.939 127.573 302.298 126.94V119.387C301.949 118.775 301.496 118.295 300.936 117.946C300.387 117.587 299.743 117.408 299.004 117.408C298.139 117.408 297.426 117.661 296.867 118.168C296.318 118.664 295.912 119.361 295.648 120.258C295.384 121.145 295.252 122.179 295.252 123.361V123.694C295.252 125.277 295.542 126.539 296.123 127.478C296.714 128.418 297.664 128.887 298.973 128.887ZM318.337 132.038C316.69 132.038 315.276 131.669 314.094 130.93C312.911 130.191 312.004 129.167 311.37 127.858C310.737 126.539 310.42 125.024 310.42 123.314V122.981C310.42 121.282 310.737 119.778 311.37 118.469C312.004 117.16 312.911 116.131 314.094 115.381C315.276 114.632 316.68 114.257 318.305 114.257C319.952 114.257 321.366 114.632 322.549 115.381C323.731 116.12 324.639 117.144 325.272 118.453C325.905 119.762 326.222 121.271 326.222 122.981V123.314C326.222 125.024 325.905 126.539 325.272 127.858C324.639 129.167 323.731 130.191 322.549 130.93C321.377 131.669 319.973 132.038 318.337 132.038ZM318.337 128.966C319.224 128.966 319.952 128.729 320.522 128.254C321.103 127.768 321.535 127.103 321.82 126.259C322.105 125.404 322.248 124.422 322.248 123.314V122.981C322.248 121.884 322.105 120.912 321.82 120.068C321.535 119.224 321.103 118.559 320.522 118.073C319.941 117.587 319.203 117.345 318.305 117.345C317.429 117.345 316.701 117.587 316.12 118.073C315.54 118.559 315.107 119.224 314.822 120.068C314.548 120.912 314.41 121.884 314.41 122.981V123.314C314.41 124.422 314.548 125.404 314.822 126.259C315.107 127.103 315.54 127.768 316.12 128.254C316.711 128.729 317.45 128.966 318.337 128.966Z" fill="#2C2C2C"/>
</svg>
