<svg width="21" height="20" viewBox="0 0 21 20" fill="none" xmlns="http://www.w3.org/2000/svg">
<path d="M2.46876 16.0984L9.66876 3.19844C9.86876 2.79844 10.5688 2.79844 10.7688 3.19844L18.1688 15.9984C18.3688 16.3984 18.0688 16.9984 17.6688 16.9984H2.96876C2.56876 16.9984 2.16876 16.4984 2.46876 16.0984Z" stroke="#2C2C2C" stroke-width="2" stroke-miterlimit="10" stroke-linecap="round" stroke-linejoin="round"/>
<path d="M9.36877 14.2969C9.36877 13.9969 9.46877 13.7969 9.66877 13.5969C9.86877 13.3969 10.0688 13.2969 10.3688 13.2969C10.6688 13.2969 10.8688 13.3969 11.0688 13.5969C11.2688 13.7969 11.3688 13.9969 11.3688 14.2969C11.3688 14.5969 11.2688 14.7969 11.0688 14.9969C10.8688 15.1969 10.6688 15.2969 10.3688 15.2969C10.0688 15.2969 9.76877 15.0969 9.56877 14.9969C9.46877 14.7969 9.36877 14.5969 9.36877 14.2969ZM11.0688 12.5969H9.56877L9.36877 7.29688H11.2688L11.0688 12.5969Z" fill="#2C2C2C"/>
</svg>
