<svg width="21" height="20" viewBox="0 0 21 20" fill="none" xmlns="http://www.w3.org/2000/svg">
<path d="M13.6687 15.1016C13.6687 16.7016 12.3687 18.0016 10.7687 18.0016C9.16865 18.0016 7.86865 16.7016 7.86865 15.1016" fill="#2C2C2C"/>
<path d="M13.6687 15.1016C13.6687 16.7016 12.3687 18.0016 10.7687 18.0016C9.16865 18.0016 7.86865 16.7016 7.86865 15.1016" stroke="#2C2C2C" stroke-width="2" stroke-miterlimit="10"/>
<path d="M15.5687 15.1H5.56868C4.56868 15.1 3.76868 14.3 3.76868 13.3L4.56868 8.2C4.56868 8 4.56868 7.8 4.66868 7.6C4.76868 4.5 7.36868 2 10.5687 2C13.7687 2 16.4687 4.6 16.4687 7.8C16.4687 7.9 16.4687 7.9 16.4687 8L17.2687 13.3C17.3687 14.3 16.5687 15.1 15.5687 15.1Z" stroke="#2C2C2C" stroke-width="2" stroke-miterlimit="10"/>
</svg>
