<svg width="21" height="20" viewBox="0 0 21 20" fill="none" xmlns="http://www.w3.org/2000/svg">
<path d="M15.9687 9V10V16.3C15.9687 17.2 15.1687 18 14.2687 18H5.06865C4.06865 18 3.36865 17.2 3.36865 16.3V3.7C3.36865 2.8 4.06865 2 5.06865 2H9.36865H11.3687" stroke="#2C2C2C" stroke-width="2" stroke-miterlimit="10" stroke-linecap="round" stroke-linejoin="round"/>
<path d="M8.76875 9.00133L7.96875 11.4013C7.96875 11.5013 7.96875 11.5013 8.06875 11.5013L10.4688 10.7013C10.5688 10.7013 10.7688 10.6013 10.8688 10.5013L17.3687 4.10133C17.7687 3.70133 17.7687 3.10133 17.3687 2.70133L16.8687 2.20133C16.4687 1.80133 15.8687 1.90133 15.5687 2.20133L9.06875 8.60133C8.96875 8.80133 8.86875 8.90133 8.76875 9.00133Z" stroke="#2C2C2C" stroke-width="1.5" stroke-miterlimit="10"/>
<path d="M13.6687 3.20312L15.4687 5.00312" stroke="#2C2C2C" stroke-width="1.5" stroke-miterlimit="10"/>
</svg>
