<svg width="21" height="20" viewBox="0 0 21 20" fill="none" xmlns="http://www.w3.org/2000/svg">
<path d="M10.3687 18C14.7869 18 18.3687 14.4183 18.3687 10C18.3687 5.58172 14.7869 2 10.3687 2C5.95037 2 2.36865 5.58172 2.36865 10C2.36865 14.4183 5.95037 18 10.3687 18Z" stroke="#2C2C2C" stroke-width="2" stroke-miterlimit="10"/>
<path d="M9.2687 12.2984C9.2687 11.5984 9.3687 11.0984 9.4687 10.6984C9.5687 10.2984 9.9687 9.89844 10.3687 9.49844C10.7687 9.09844 11.0687 8.79844 11.2687 8.59844C11.3687 8.39844 11.4687 8.09844 11.4687 7.79844C11.4687 6.99844 11.0687 6.59844 10.3687 6.59844C9.9687 6.59844 9.7687 6.69844 9.4687 6.89844C9.3687 7.09844 9.2687 7.39844 9.1687 7.79844H7.1687C7.1687 6.89844 7.4687 6.19844 8.0687 5.59844C8.5687 5.09844 9.3687 4.89844 10.3687 4.89844C11.3687 4.89844 12.1687 5.09844 12.7687 5.59844C13.3687 6.09844 13.5687 6.79844 13.5687 7.69844C13.5687 8.09844 13.4687 8.49844 13.2687 8.89844C13.0687 9.29844 12.7687 9.69844 12.2687 10.0984L11.6687 10.6984C11.2687 11.0984 11.0687 11.4984 11.0687 11.8984V12.2984H9.2687V12.2984ZM9.0687 14.4984C9.0687 14.1984 9.1687 13.8984 9.3687 13.6984C9.5687 13.4984 9.8687 13.3984 10.1687 13.3984C10.4687 13.3984 10.7687 13.4984 10.9687 13.6984C11.1687 13.8984 11.2687 14.1984 11.2687 14.4984C11.2687 14.7984 11.1687 15.0984 10.9687 15.2984C10.7687 15.4984 10.4687 15.5984 10.1687 15.5984C9.8687 15.5984 9.6687 15.4984 9.3687 15.2984C9.0687 15.0984 9.0687 14.7984 9.0687 14.4984Z" fill="#2C2C2C"/>
</svg>
