<svg width="25" height="25" viewBox="0 0 25 25" fill="none" xmlns="http://www.w3.org/2000/svg">
<path d="M4.75703 7.1C5.75114 7.1 6.55703 6.29411 6.55703 5.3C6.55703 4.30589 5.75114 3.5 4.75703 3.5C3.76292 3.5 2.95703 4.30589 2.95703 5.3C2.95703 6.29411 3.76292 7.1 4.75703 7.1Z" fill="#2C2C2C"/>
<path d="M4.75703 14.2973C5.75114 14.2973 6.55703 13.4914 6.55703 12.4973C6.55703 11.5032 5.75114 10.6973 4.75703 10.6973C3.76292 10.6973 2.95703 11.5032 2.95703 12.4973C2.95703 13.4914 3.76292 14.2973 4.75703 14.2973Z" fill="#2C2C2C"/>
<path d="M4.75703 21.4984C5.75114 21.4984 6.55703 20.6926 6.55703 19.6984C6.55703 18.7043 5.75114 17.8984 4.75703 17.8984C3.76292 17.8984 2.95703 18.7043 2.95703 19.6984C2.95703 20.6926 3.76292 21.4984 4.75703 21.4984Z" fill="#2C2C2C"/>
<path d="M21.1555 7.1C22.1496 7.1 22.9555 6.29411 22.9555 5.3C22.9555 4.30589 22.1496 3.5 21.1555 3.5C20.1614 3.5 19.3555 4.30589 19.3555 5.3C19.3555 6.29411 20.1614 7.1 21.1555 7.1Z" fill="#2C2C2C"/>
<path d="M21.1555 14.2973C22.1496 14.2973 22.9555 13.4914 22.9555 12.4973C22.9555 11.5032 22.1496 10.6973 21.1555 10.6973C20.1614 10.6973 19.3555 11.5032 19.3555 12.4973C19.3555 13.4914 20.1614 14.2973 21.1555 14.2973Z" fill="#2C2C2C"/>
<path d="M21.1555 21.4984C22.1496 21.4984 22.9555 20.6926 22.9555 19.6984C22.9555 18.7043 22.1496 17.8984 21.1555 17.8984C20.1614 17.8984 19.3555 18.7043 19.3555 19.6984C19.3555 20.6926 20.1614 21.4984 21.1555 21.4984Z" fill="#2C2C2C"/>
<path d="M12.9563 7.1C13.9504 7.1 14.7563 6.29411 14.7563 5.3C14.7563 4.30589 13.9504 3.5 12.9563 3.5C11.9621 3.5 11.1562 4.30589 11.1562 5.3C11.1562 6.29411 11.9621 7.1 12.9563 7.1Z" fill="#2C2C2C"/>
<path d="M12.9563 14.2973C13.9504 14.2973 14.7563 13.4914 14.7563 12.4973C14.7563 11.5032 13.9504 10.6973 12.9563 10.6973C11.9621 10.6973 11.1562 11.5032 11.1562 12.4973C11.1562 13.4914 11.9621 14.2973 12.9563 14.2973Z" fill="#2C2C2C"/>
<path d="M12.9563 21.4984C13.9504 21.4984 14.7563 20.6926 14.7563 19.6984C14.7563 18.7043 13.9504 17.8984 12.9563 17.8984C11.9621 17.8984 11.1562 18.7043 11.1562 19.6984C11.1562 20.6926 11.9621 21.4984 12.9563 21.4984Z" fill="#2C2C2C"/>
</svg>
