<svg width="21" height="20" viewBox="0 0 21 20" fill="none" xmlns="http://www.w3.org/2000/svg">
<path d="M10.3687 18C14.7869 18 18.3687 14.4183 18.3687 10C18.3687 5.58172 14.7869 2 10.3687 2C5.95037 2 2.36865 5.58172 2.36865 10C2.36865 14.4183 5.95037 18 10.3687 18Z" stroke="#2C2C2C" stroke-width="1.5" stroke-miterlimit="10"/>
<path d="M10.3687 2.10156V18.0016" stroke="#2C2C2C" stroke-miterlimit="10"/>
<path d="M2.46863 10.1016H18.3686" stroke="#2C2C2C" stroke-miterlimit="10"/>
<path d="M4.36865 4.59844C4.36865 4.59844 10.5687 8.49844 16.1687 4.39844" stroke="#2C2C2C" stroke-miterlimit="10"/>
<path d="M16.1687 15.4021C16.1687 15.4021 9.96865 11.5021 4.36865 15.6021" stroke="#2C2C2C" stroke-miterlimit="10"/>
<path d="M8.86863 2.29688C8.86863 2.29688 2.36863 8.99687 8.86863 17.9969" stroke="#2C2C2C" stroke-miterlimit="10"/>
<path d="M11.9686 17.9969C11.9686 17.9969 18.4686 11.2969 11.9686 2.29688" stroke="#2C2C2C" stroke-miterlimit="10"/>
</svg>
