<svg width="498" height="201" viewBox="0 0 498 201" fill="none" xmlns="http://www.w3.org/2000/svg">
<path d="M497.568 23H416.769V201H497.568V23Z" fill="#0764F4"/>
<path d="M421.129 26.3175L420.634 26.8125L425.654 31.8329L426.149 31.3379L421.129 26.3175Z" fill="#ECECEC"/>
<path d="M425.603 26.4171L420.583 31.4375L421.078 31.9325L426.098 26.9121L425.603 26.4171Z" fill="#ECECEC"/>
<path d="M487.949 28.6299L487.455 29.125L490.425 32.094L490.92 31.5989L487.949 28.6299Z" fill="#ECECEC"/>
<path d="M490.535 26.1787L487.565 29.1484L488.06 29.6434L491.03 26.6736L490.535 26.1787Z" fill="#ECECEC"/>
<path d="M491.282 28.6535L490.787 29.1484L493.757 32.1183L494.252 31.6233L491.282 28.6535Z" fill="#ECECEC"/>
<path d="M493.755 26.2255L490.786 29.1953L491.281 29.6903L494.25 26.7205L493.755 26.2255Z" fill="#ECECEC"/>
<path d="M439.069 73.6L435.569 65.2L429.369 70V43L448.269 62L440.369 63.2L443.869 71.6L439.069 73.6ZM436.169 63.1L439.769 71.9L442.069 70.9L438.469 62.2L445.469 61.2L430.669 46.3V67.4L436.169 63.1Z" fill="#ECECEC"/>
<path d="M482.169 62.7031L485.669 71.3031L482.169 72.7031L478.568 64.1031L472.769 68.7031V44.7031L489.568 61.6031L482.169 62.7031Z" fill="#ECECEC"/>
<path d="M445.952 95.7333L429.544 116.797L431.122 118.026L447.529 96.9623L445.952 95.7333Z" fill="#ECECEC"/>
<path d="M436.968 98.3984L432.868 99.0984L432.068 103.298L431.168 99.0984L427.068 98.3984L431.068 97.3984L432.068 93.3984L432.968 97.3984L436.968 98.3984Z" fill="#ECECEC"/>
<path d="M445.868 91.6969L443.468 92.0969L442.968 94.5969L442.468 92.0969L440.068 91.6969L442.368 91.0969L442.968 88.7969L443.468 91.0969L445.868 91.6969Z" fill="#ECECEC"/>
<path d="M448.568 104.997L447.268 105.297L446.968 106.697L446.668 105.297L445.368 104.997L446.668 104.697L446.968 103.297L447.268 104.697L448.568 104.997Z" fill="#ECECEC"/>
<path d="M484.895 171.038L468.488 192.102L470.066 193.331L486.473 172.267L484.895 171.038Z" fill="#ECECEC"/>
<path d="M482.169 110.6L485.669 119.1L482.169 120.5L478.568 112L472.769 116.5V92.5L489.568 109.5L482.169 110.6Z" fill="#ECECEC"/>
<path d="M471.169 107.297C467.669 107.297 464.969 106.097 464.069 104.297C462.669 101.597 463.769 95.7974 472.369 91.0974C479.169 87.3974 486.069 88.8974 487.669 91.5974C488.369 92.7974 488.469 94.3974 487.969 96.1974C487.069 99.1974 484.069 103.297 478.569 105.697C475.869 106.797 473.369 107.297 471.169 107.297ZM480.669 90.0974C478.369 90.0974 475.669 90.6974 472.869 92.1974C465.169 96.3974 464.069 101.397 465.169 103.597C466.269 105.797 471.669 107.097 477.869 104.397C483.069 102.097 485.769 98.2974 486.569 95.6974C486.969 94.2974 486.969 92.9974 486.469 92.1974C485.769 90.9974 483.569 90.0974 480.669 90.0974Z" fill="#ECECEC"/>
<path d="M467.369 108.995C466.469 108.995 465.469 108.595 464.869 107.695C464.169 106.695 463.969 105.595 464.469 104.695C465.069 103.495 466.469 102.695 467.869 102.695C469.069 102.695 470.069 103.195 470.569 104.295C471.469 106.095 470.669 107.695 469.369 108.495C468.869 108.795 468.069 108.995 467.369 108.995ZM465.869 106.895C466.569 107.895 467.869 107.795 468.669 107.195C469.369 106.695 469.969 105.795 469.369 104.695C468.969 103.995 468.269 103.795 467.769 103.795C466.869 103.795 465.869 104.395 465.469 105.095C465.369 105.795 465.469 106.395 465.869 106.895Z" fill="#ECECEC"/>
<path d="M471.068 112.494L470.269 111.394C470.669 111.094 471.168 110.694 471.068 110.194C470.968 109.394 469.469 108.594 468.769 108.294L469.269 107.094C469.569 107.194 472.069 108.294 472.369 109.994C472.569 110.994 472.068 111.794 471.068 112.494Z" fill="#ECECEC"/>
<path d="M430.068 141.798C430.068 141.798 434.768 137.198 443.068 134.898L447.268 139.098C444.968 147.398 440.368 152.098 440.368 152.098C433.668 150.198 428.169 155.498 428.169 155.498L427.768 155.098L436.268 146.598C436.968 146.998 437.968 146.998 438.568 146.298C439.268 145.598 439.268 144.398 438.568 143.698C437.868 142.998 436.668 142.998 435.968 143.698C435.368 144.298 435.269 145.298 435.669 145.998L427.169 154.498L426.768 154.098C426.668 153.998 431.968 148.498 430.068 141.798Z" fill="#ECECEC"/>
<path d="M441.523 134.387L447.746 140.609L450.362 137.993L444.139 131.771L441.523 134.387Z" fill="#ECECEC"/>
<path d="M492.269 127.703H459.869V157.903H492.269V127.703Z" fill="#074BAD"/>
<path d="M471.569 141.798C471.569 141.798 476.269 137.198 484.569 134.898L488.769 139.098C486.469 147.398 481.869 152.098 481.869 152.098C475.169 150.198 469.669 155.498 469.669 155.498L469.269 155.098L477.769 146.598C478.469 146.998 479.469 146.998 480.069 146.298C480.769 145.598 480.769 144.398 480.069 143.698C479.369 142.998 478.169 142.998 477.469 143.698C476.869 144.298 476.769 145.298 477.169 145.998L468.669 154.498L468.269 154.098C468.169 153.998 473.469 148.498 471.569 141.798Z" fill="#ECECEC"/>
<path d="M483.048 134.402L489.27 140.625L491.886 138.009L485.664 131.786L483.048 134.402Z" fill="#ECECEC"/>
<path d="M468.569 155.105C466.569 155.105 464.969 154.305 464.069 152.905C463.169 151.405 462.569 148.605 465.069 143.405C465.969 141.505 466.069 140.005 465.469 138.905C464.369 136.905 461.369 136.605 461.369 136.605L461.469 135.305C461.569 135.305 465.169 135.705 466.569 138.305C467.469 139.805 467.269 141.805 466.269 144.005C464.069 148.705 464.469 151.105 465.169 152.205C466.069 153.605 467.669 153.805 468.569 153.805V155.105V155.105Z" fill="#ECECEC"/>
<path d="M446.369 169.898V175.298H446.269H445.869H444.569C444.169 175.298 443.869 175.098 443.769 174.698C443.769 174.498 443.669 174.098 443.569 173.398H438.969V189.598C439.369 189.698 439.669 189.698 439.869 189.798C440.069 189.798 440.269 189.898 440.369 189.898C440.469 189.898 440.569 189.898 440.569 189.898C441.069 189.998 441.369 190.298 441.369 190.898V192.798H438.969H434.669H432.269V190.898C432.269 190.398 432.569 189.998 433.069 189.898C433.069 189.898 433.169 189.898 433.269 189.898C433.369 189.898 433.569 189.798 433.769 189.798C433.969 189.798 434.269 189.698 434.669 189.598V173.398H430.069C429.969 174.098 429.969 174.498 429.869 174.698C429.769 175.098 429.569 175.298 429.169 175.298H427.869H427.469H427.369V169.898H427.869H445.769H446.369Z" fill="#ECECEC"/>
<path d="M242.969 76.5L177.769 106.1L139.869 22.4L188.269 0.5L212.269 8.8L242.969 76.5Z" fill="#F0F0F0"/>
<path d="M231.863 52.0857L166.734 81.5938L177.836 106.097L242.965 76.5889L231.863 52.0857Z" fill="#ECECEC"/>
<path d="M166.669 81.6L178.369 52.5L205.969 63.8L166.669 81.6Z" fill="#0764F4"/>
<path d="M193.169 69.6016L203.669 27.6016L225.969 39.1016L231.869 52.1016L193.169 69.6016Z" fill="#0764F4"/>
<path d="M173.169 39.2027C174.969 43.2027 173.169 48.0027 169.169 49.8027C165.169 51.6027 160.369 49.8027 158.569 45.8027C156.769 41.8027 158.569 37.0027 162.569 35.2027C166.669 33.3027 171.369 35.1027 173.169 39.2027Z" fill="#458AED"/>
<path d="M188.269 0.5L212.269 8.8L195.469 16.4L188.269 0.5Z" fill="#ECECEC"/>
<path d="M194.369 92.4992C193.469 92.8992 192.669 93.1992 191.769 93.2992C190.969 93.3992 190.069 93.3992 189.169 93.1992L187.869 90.2992L189.769 89.4992L190.769 91.0992C191.069 91.1992 191.569 91.1992 192.069 91.0992C192.569 90.9992 193.069 90.8992 193.569 90.6992C193.969 90.4992 194.369 90.2992 194.569 89.9992C194.769 89.6992 194.969 89.4992 195.069 89.1992C195.169 88.8992 195.068 88.5992 194.968 88.2992C194.868 87.9992 194.669 87.7992 194.369 87.5992C194.169 87.3992 193.769 87.2992 193.369 87.2992C192.969 87.2992 192.469 87.2992 191.769 87.3992C190.669 87.4992 189.768 87.5992 188.968 87.4992C188.168 87.3992 187.569 87.2992 187.069 86.8992C186.569 86.5992 186.169 86.0992 185.869 85.3992C185.569 84.7992 185.469 84.0992 185.669 83.3992C185.769 82.6992 186.169 82.0992 186.669 81.4992C187.169 80.8992 187.869 80.3992 188.669 80.0992C189.569 79.6992 190.469 79.3992 191.269 79.2992C192.069 79.1992 192.869 79.2992 193.569 79.3992L194.769 82.0992L192.968 82.8992L191.869 81.3992C191.569 81.3992 191.269 81.3992 190.869 81.3992C190.469 81.3992 190.069 81.5992 189.569 81.7992C189.169 81.9992 188.869 82.1992 188.669 82.3992C188.469 82.5992 188.269 82.8992 188.169 83.1992C188.069 83.4992 188.169 83.7992 188.269 84.0992C188.369 84.3992 188.569 84.5992 188.769 84.6992C188.969 84.7992 189.369 84.8992 189.769 84.8992C190.169 84.8992 190.768 84.8992 191.468 84.7992C192.968 84.5992 194.169 84.5992 195.169 84.8992C196.169 85.1992 196.869 85.7992 197.269 86.7992C197.569 87.4992 197.668 88.1992 197.468 88.7992C197.268 89.3992 196.968 90.0992 196.468 90.6992C195.968 91.5992 195.269 92.0992 194.369 92.4992Z" fill="#0764F4"/>
<path d="M206.269 86.9016L197.669 78.2016L196.569 78.6016L195.869 77.1016L200.669 74.9016L201.369 76.4016L200.369 77.1016L205.969 83.1016L206.469 83.7016L206.369 83.0016L205.469 74.8016L204.169 75.2016L203.469 73.7016L208.069 71.6016L208.769 73.1016L207.769 73.7016L208.869 85.8016L206.269 86.9016Z" fill="#0764F4"/>
<path d="M221.568 80.2017C220.368 80.7017 219.268 81.0017 218.168 80.8017C217.068 80.7017 216.168 80.3017 215.268 79.6017C214.468 78.9017 213.768 78.0017 213.168 76.8017L212.968 76.4017C212.468 75.2017 212.168 74.0017 212.168 72.9017C212.168 71.8017 212.468 70.8017 213.068 69.9017C213.668 69.0017 214.468 68.3017 215.668 67.8017C216.568 67.4017 217.368 67.2017 218.268 67.1017C219.168 67.0017 219.968 67.1017 220.768 67.3017L221.968 70.0017L220.168 70.8017L219.068 69.3017C218.768 69.2017 218.368 69.2017 217.968 69.2017C217.568 69.2017 217.068 69.4017 216.668 69.6017C215.968 69.9017 215.468 70.3017 215.168 70.9017C214.868 71.5017 214.668 72.1017 214.668 72.9017C214.668 73.7017 214.868 74.4017 215.268 75.3017L215.468 75.7017C215.868 76.5017 216.268 77.2017 216.768 77.7017C217.268 78.2017 217.868 78.5017 218.568 78.6017C219.168 78.7017 219.868 78.6017 220.568 78.3017C220.968 78.1017 221.368 77.9017 221.668 77.7017C221.968 77.5017 222.268 77.2017 222.368 77.0017L221.468 75.0017L219.668 75.6017L218.868 73.9017L222.968 72.0017L225.168 76.9017C224.768 77.5017 224.268 78.1017 223.668 78.7017C223.368 79.2017 222.568 79.7017 221.568 80.2017Z" fill="#0764F4"/>
<path d="M354.368 182.597L351.868 181.997L352.368 180.397L353.168 180.597L353.368 179.797L354.968 180.197L354.368 182.597Z" fill="#0764F4"/>
<path d="M348.668 181.102L345.468 180.202L345.868 178.602L349.068 179.502L348.668 181.102ZM342.168 179.402L338.968 178.502L339.368 176.902L342.568 177.802L342.168 179.402ZM335.668 177.702L332.468 176.802L332.868 175.202L336.068 176.102L335.668 177.702ZM329.168 176.002L325.968 175.102L326.368 173.502L329.568 174.402L329.168 176.002ZM322.768 174.302L319.568 173.402L319.968 171.802L323.168 172.702L322.768 174.302ZM316.268 172.602L313.068 171.702L313.468 170.102L316.668 171.002L316.268 172.602ZM309.768 170.902L306.568 170.002L306.968 168.402L310.168 169.302L309.768 170.902ZM303.268 169.202L300.068 168.302L300.468 166.702L303.668 167.602L303.268 169.202ZM296.768 167.502L293.568 166.602L293.968 165.002L297.168 165.902L296.768 167.502ZM290.268 165.802L287.068 164.902L287.468 163.302L290.668 164.202L290.268 165.802ZM283.768 164.002L280.568 163.102L280.968 161.502L284.168 162.402L283.768 164.002ZM277.268 162.302L274.068 161.402L274.468 159.802L277.668 160.702L277.268 162.302ZM270.868 160.602L267.668 159.702L268.068 158.102L271.268 159.002L270.868 160.602Z" fill="#0764F4"/>
<path d="M264.368 158.898L261.968 158.298L262.568 155.898L264.168 156.298L263.968 157.098L264.768 157.298L264.368 158.898Z" fill="#0764F4"/>
<path d="M265.068 153.102L263.468 152.702L264.368 149.502L265.968 149.902L265.068 153.102ZM266.768 146.602L265.168 146.202L266.068 143.002L267.668 143.402L266.768 146.602ZM268.468 140.102L266.868 139.702L267.768 136.502L269.368 136.902L268.468 140.102ZM270.168 133.602L268.568 133.202L269.468 130.002L271.068 130.402L270.168 133.602ZM271.868 127.102L270.268 126.702L271.168 123.502L272.768 123.902L271.868 127.102ZM273.568 120.602L271.968 120.202L272.868 117.002L274.468 117.402L273.568 120.602ZM275.268 114.102L273.668 113.702L274.568 110.502L276.168 110.902L275.268 114.102ZM276.968 107.702L275.368 107.302L276.268 104.102L277.868 104.502L276.968 107.702ZM278.668 101.202L277.068 100.802L277.968 97.6016L279.568 98.0016L278.668 101.202ZM280.368 94.7016L278.768 94.3016L279.668 91.1016L281.268 91.5016L280.368 94.7016ZM282.068 88.2016L280.468 87.8016L281.368 84.6016L282.968 85.0016L282.068 88.2016ZM283.768 81.7016L282.168 81.3016L283.068 78.1016L284.668 78.5016L283.768 81.7016ZM285.468 75.2016L283.868 74.8016L284.768 71.6016L286.368 72.0016L285.468 75.2016Z" fill="#0764F4"/>
<path d="M287.168 68.6984L285.568 68.2984L286.268 65.8984L288.668 66.4984L288.168 68.0984L287.368 67.8984L287.168 68.6984Z" fill="#0764F4"/>
<path d="M372.568 90.2969L369.368 89.3969L369.768 87.7969L372.968 88.6969L372.568 90.2969ZM366.068 88.5969L362.868 87.6969L363.268 86.0969L366.468 86.9969L366.068 88.5969ZM359.568 86.8969L356.368 85.9969L356.768 84.3969L359.968 85.2969L359.568 86.8969ZM353.068 85.1969L349.868 84.2969L350.268 82.6969L353.468 83.5969L353.068 85.1969ZM346.568 83.4969L343.368 82.5969L343.768 80.9969L346.968 81.8969L346.568 83.4969ZM340.068 81.7969L336.868 80.8969L337.268 79.2969L340.468 80.1969L340.068 81.7969ZM333.668 80.0969L330.468 79.1969L330.868 77.5969L334.068 78.4969L333.668 80.0969ZM327.168 78.3969L323.968 77.4969L324.368 75.8969L327.568 76.7969L327.168 78.3969ZM320.668 76.6969L317.468 75.7969L317.868 74.1969L321.068 75.0969L320.668 76.6969ZM314.168 74.9969L310.968 74.0969L311.368 72.4969L314.568 73.3969L314.168 74.9969ZM307.668 73.2969L304.468 72.3969L304.868 70.7969L308.068 71.6969L307.668 73.2969ZM301.168 71.5969L297.968 70.6969L298.368 69.0969L301.568 69.9969L301.168 71.5969ZM294.668 69.7969L291.468 68.8969L291.868 67.2969L295.068 68.1969L294.668 69.7969Z" fill="#0764F4"/>
<path d="M377.968 92.6016L376.368 92.2016L376.568 91.4016L375.768 91.2016L376.168 89.6016L378.668 90.2016L377.968 92.6016Z" fill="#0764F4"/>
<path d="M355.768 176.9L354.168 176.5L355.068 173.3L356.668 173.7L355.768 176.9ZM357.468 170.5L355.868 170.1L356.768 166.9L358.368 167.3L357.468 170.5ZM359.168 164L357.568 163.6L358.468 160.4L360.068 160.8L359.168 164ZM360.968 157.5L359.368 157.1L360.268 153.9L361.868 154.3L360.968 157.5ZM362.668 151L361.068 150.6L361.968 147.4L363.568 147.8L362.668 151ZM364.368 144.5L362.768 144.1L363.668 140.9L365.268 141.3L364.368 144.5ZM366.068 138L364.468 137.6L365.368 134.4L366.968 134.8L366.068 138ZM367.768 131.5L366.168 131.1L367.068 127.9L368.668 128.3L367.768 131.5ZM369.468 125L367.868 124.6L368.768 121.4L370.368 121.8L369.468 125ZM371.168 118.6L369.568 118.2L370.468 115L372.068 115.4L371.168 118.6ZM372.868 112.1L371.268 111.7L372.168 108.5L373.768 108.9L372.868 112.1ZM374.568 105.6L372.968 105.2L373.868 102L375.468 102.4L374.568 105.6ZM376.268 99.1L374.668 98.7L375.568 95.5L377.168 95.9L376.268 99.1Z" fill="#0764F4"/>
<path d="M270.031 153.609L258.716 150.633L255.74 161.948L267.055 164.924L270.031 153.609Z" fill="#F0F0F0"/>
<path d="M267.669 165.894L254.769 162.494L258.169 149.594L271.068 152.994L267.669 165.894ZM256.769 161.294L266.469 163.894L269.068 154.194L259.369 151.594L256.769 161.294Z" fill="#0764F4"/>
<path d="M282.033 108.226L270.718 105.25L267.741 116.565L279.056 119.542L282.033 108.226Z" fill="#F0F0F0"/>
<path d="M279.669 120.495L266.769 117.095L270.169 104.195L283.068 107.595L279.669 120.495ZM268.769 115.895L278.469 118.495L281.068 108.795L271.369 106.195L268.769 115.895Z" fill="#0764F4"/>
<path d="M293.938 62.8202L282.623 59.8438L279.646 71.1588L290.961 74.1353L293.938 62.8202Z" fill="#F0F0F0"/>
<path d="M291.568 75.0969L278.668 71.6969L282.068 58.7969L294.968 62.1969L291.568 75.0969ZM280.668 70.4969L290.368 73.0969L292.968 63.3969L283.268 60.7969L280.668 70.4969Z" fill="#0764F4"/>
<path d="M360.849 177.422L349.534 174.445L346.557 185.76L357.872 188.737L360.849 177.422Z" fill="#F0F0F0"/>
<path d="M358.468 189.698L345.568 186.298L348.968 173.398L361.868 176.798L358.468 189.698ZM347.568 185.198L357.268 187.798L359.868 178.098L350.168 175.498L347.568 185.198Z" fill="#0764F4"/>
<path d="M372.85 132.039L361.535 129.062L358.559 140.378L369.874 143.354L372.85 132.039Z" fill="#F0F0F0"/>
<path d="M370.468 144.3L357.568 140.9L360.968 128L373.868 131.4L370.468 144.3ZM359.568 139.8L369.268 142.4L371.868 132.7L362.168 130.1L359.568 139.8Z" fill="#0764F4"/>
<path d="M384.755 86.6327L373.44 83.6562L370.463 94.9713L381.778 97.9478L384.755 86.6327Z" fill="#F0F0F0"/>
<path d="M382.368 98.9953L369.468 95.5953L372.868 82.6953L385.768 86.0953L382.368 98.9953ZM371.468 94.3953L381.168 96.9953L383.768 87.2953L374.068 84.6953L371.468 94.3953Z" fill="#0764F4"/>
<path d="M339.346 74.7265L328.031 71.75L325.055 83.0651L336.37 86.0415L339.346 74.7265Z" fill="#F0F0F0"/>
<path d="M336.968 86.9953L324.068 83.5953L327.468 70.6953L340.368 74.0953L336.968 86.9953ZM326.068 82.3953L335.768 84.9953L338.368 75.2953L328.668 72.6953L326.068 82.3953Z" fill="#0764F4"/>
<path d="M315.44 165.523L304.125 162.547L301.149 173.862L312.464 176.838L315.44 165.523Z" fill="#F0F0F0"/>
<path d="M313.068 177.8L300.168 174.4L303.568 161.5L316.468 164.9L313.068 177.8ZM302.168 173.2L311.868 175.8L314.468 166.1L304.768 163.5L302.168 173.2Z" fill="#0764F4"/>
<path d="M318.568 135.298L300.468 130.498L288.268 148.398L295.168 150.198L294.668 151.898L280.668 148.198L281.168 146.498L285.468 147.598L325.368 90.8984L332.868 92.8984L339.368 161.798L343.568 162.898L343.068 164.598L313.168 156.698L313.668 154.998L320.168 156.698L318.568 135.298ZM301.768 128.798L318.368 133.198L316.668 107.098L301.768 128.798Z" fill="#F0F0F0"/>
<path d="M66.8685 57C103.269 57 132.769 86.5 132.769 122.9C132.769 135.3 129.369 146.9 123.369 156.8C124.969 165.1 129.369 177.9 142.069 183.2C142.069 183.2 118.069 185.8 102.469 178.3C92.1685 184.9 79.9685 188.8 66.8685 188.8C30.4685 188.8 0.968514 159.3 0.968514 122.9C0.868514 86.5 30.4685 57 66.8685 57Z" fill="#0764F4"/>
<path d="M57.3683 133.7L55.4683 80H75.7683L73.8683 133.7H57.3683ZM57.3683 162V147.6H73.7683V162H57.3683Z" fill="#F0F0F0"/>
</svg>
