<svg width="403" height="205" viewBox="0 0 403 205" fill="none" xmlns="http://www.w3.org/2000/svg">
<path d="M270.568 78.1984L267.869 62.1984L252.969 61.6984C250.069 55.2984 246.369 49.1984 241.769 43.6984L247.869 30.0984L221.369 11.3984L210.469 21.5984C207.769 20.4984 204.969 19.6984 202.169 18.9984L195.469 55.0984C199.269 56.2984 202.869 58.0984 206.269 60.5984C219.269 69.7984 225.069 85.4984 222.369 100.198L257.969 108.998C258.669 105.898 259.069 102.798 259.369 99.5984L273.269 94.2984L270.568 78.1984ZM150.869 69.8984C153.969 65.5984 157.769 61.9984 161.969 59.2984L143.769 27.4984C140.369 29.4984 137.169 31.8984 134.069 34.3984L120.469 28.2984L111.069 41.4984L101.669 54.6984L111.869 65.5984C109.269 72.2984 107.769 79.2984 107.169 86.1984L93.2686 91.4984L95.9685 107.498L98.6685 123.498L113.569 123.998C116.469 130.398 120.169 136.498 124.769 141.998L118.669 155.598L131.869 164.998L145.069 174.398L155.969 164.198C159.069 165.398 162.268 166.398 165.568 167.098L172.369 131.098C168.069 129.898 163.969 127.998 160.169 125.198C142.269 112.598 138.169 87.7984 150.869 69.8984Z" fill="#FAF6F0"/>
<path d="M179.569 160.202V158.402C198.769 158.402 215.769 146.902 222.969 129.102L224.669 129.802C217.269 148.202 199.569 160.202 179.569 160.202Z" fill="#FAF6F0"/>
<path d="M183.269 166.597V164.997C195.169 164.997 206.368 161.097 215.568 153.797L216.568 154.997C206.968 162.597 195.469 166.597 183.269 166.597Z" fill="#FAF6F0"/>
<path d="M221.269 169.202L220.369 167.902C230.769 160.902 238.969 151.102 244.069 139.602L245.469 140.202C240.269 152.002 231.869 162.002 221.269 169.202Z" fill="#FAF6F0"/>
<path d="M338.234 93.0482L336.901 94.2578L369.359 130.029L370.692 128.819L338.234 93.0482Z" fill="#98A6B1"/>
<path d="M145.169 175.503L117.769 156.003L123.869 142.303C119.469 137.103 115.869 131.203 113.069 125.003L97.9686 124.503L92.3687 91.3031L106.469 85.9031C107.069 79.1031 108.669 72.4031 111.069 66.0031L100.769 55.0031L120.269 27.6031L133.969 33.7031C139.169 29.3031 145.069 25.7031 151.269 22.9031L151.769 7.80313L184.969 2.20312L190.369 16.3031C197.169 16.9031 203.869 18.5031 210.269 20.9031L221.269 10.6031L248.669 30.1031L242.569 43.9031C246.969 49.2031 250.569 55.0031 253.369 61.2031L268.469 61.7031L274.069 94.9031L259.969 100.303C259.669 103.303 259.269 106.303 258.569 109.303L258.369 110.103L221.369 101.003L221.469 100.303C224.169 85.5031 217.969 70.2031 205.769 61.5031C188.269 49.0031 163.869 53.1031 151.469 70.7031C138.969 88.2031 143.169 112.603 160.669 125.003C164.369 127.603 168.369 129.503 172.569 130.703L173.269 130.903L166.169 168.403L165.369 168.203C162.269 167.503 159.169 166.503 156.169 165.403L145.169 175.503ZM119.669 155.403L145.069 173.503L155.869 163.403L156.369 163.603C159.169 164.703 162.169 165.603 165.069 166.303L171.569 131.803C167.369 130.503 163.469 128.603 159.869 126.003C141.669 113.003 137.369 87.7031 150.369 69.5031C163.369 51.3031 188.669 47.0031 206.869 60.0031C219.469 68.9031 225.869 84.4031 223.369 99.6031L257.469 108.003C258.069 105.203 258.469 102.303 258.669 99.5031V99.0031L272.469 93.7031L267.269 63.0031L252.469 62.5031L252.269 62.1031C249.369 55.7031 245.669 49.7031 241.169 44.3031L240.869 43.9031L246.869 30.4031L221.469 12.3031L210.669 22.4031L210.169 22.2031C203.669 19.7031 196.769 18.1031 189.769 17.5031H189.269L183.969 3.70312L153.269 8.90313L152.769 23.7031L152.369 24.0031C145.969 26.9031 139.969 30.6031 134.569 35.1031L134.169 35.4031L120.669 29.4031L102.569 54.8031L112.669 65.6031L112.469 66.1031C109.969 72.6031 108.369 79.5031 107.769 86.5031V87.0031L93.9686 92.3031L99.1686 123.003L113.969 123.503L114.169 123.903C117.069 130.303 120.769 136.303 125.269 141.703L125.569 142.103L119.669 155.403Z" fill="#FAF6F0"/>
<path d="M78.8687 173.702C80.1687 170.402 80.8686 167.002 81.1686 163.602L87.9686 161.002L86.6686 153.202L85.3687 145.402L78.0687 145.202C76.6687 142.102 74.8687 139.102 72.5687 136.502L75.5687 129.902L69.1686 125.302L62.7687 120.702L57.4686 125.702C54.1686 124.402 50.7687 123.702 47.3687 123.402L44.7687 116.602L36.9686 117.902L29.1686 119.202L28.9686 126.502C25.8686 127.902 22.8687 129.702 20.2687 132.002L13.6686 129.002L9.06866 135.402L4.46863 141.802L9.46863 147.102C8.16863 150.402 7.46864 153.802 7.16864 157.202L0.368652 159.802L1.66864 167.602L2.96863 175.402L10.2687 175.602C11.6687 178.702 13.4687 181.702 15.7687 184.302L12.7687 190.902L19.1686 195.502L25.5687 200.102L30.8687 195.102C34.1687 196.402 37.5686 197.102 40.9686 197.402L43.5687 204.202L51.3687 202.902L59.1686 201.602L59.3687 194.302C62.4687 192.902 65.4687 191.102 68.0687 188.802L74.6686 191.802L79.2687 185.402L83.8687 179.002L78.8687 173.702ZM32.8687 176.202C24.1687 170.002 22.1687 157.902 28.3687 149.202C34.5687 140.502 46.6687 138.502 55.3687 144.702C64.0687 150.902 66.0686 163.002 59.8687 171.702C53.6687 180.402 41.5687 182.402 32.8687 176.202Z" fill="#FAF6F0"/>
<path d="M337.469 94.8C340.069 94.8 342.169 92.7 342.169 90.1H341.069C341.069 92.1 339.469 93.7 337.469 93.7C335.469 93.7 333.869 92.1 333.869 90.1C333.869 88.1 335.469 86.5 337.469 86.5H338.069V0H336.969V85.4C334.669 85.7 332.769 87.7 332.769 90.1C332.769 92.7 334.869 94.8 337.469 94.8Z" fill="#385369"/>
<path d="M336.165 85.0938H338.865V57.9938H336.165V85.0938Z" fill="#98A6B1"/>
<path d="M305.769 130.097L304.469 128.797L337.569 92.2969L338.769 93.6969L305.769 130.097Z" fill="#98A6B1"/>
<path d="M392.269 165.2C396.069 162.4 399.569 159.2 402.869 155.9L372.469 124.4C367.869 129.4 362.269 133.4 355.569 136.2C336.469 144.1 315.169 138.6 302.169 124L272.269 156.1C275.469 159.3 278.769 162.3 282.369 165L278.869 182.5L296.769 190L314.669 197.5L324.669 182.7C332.969 183.9 341.469 183.9 349.969 182.8L359.869 197.6L377.769 190.2L395.669 182.8L392.269 165.2Z" fill="#FAF6F0"/>
</svg>
