<svg width="112" height="120" viewBox="0 0 112 120" fill="none" xmlns="http://www.w3.org/2000/svg">
<g clip-path="url(#clip0_598_2404)">
<path d="M2.63322 78.559C4.46339 83.0619 7.96357 86.6962 12.4017 88.6847L11.8298 96.7304C11.7383 98.0562 11.7383 99.3819 11.8069 100.73L12.7678 116.685C12.8135 117.576 13.2024 118.445 13.8659 119.062C14.5293 119.679 15.3986 120.022 16.2908 120.022H16.3823L26.86 119.77C26.9286 119.77 27.0201 119.77 27.0888 119.748L43.1942 117.485L54.4726 119.45C54.6556 119.473 54.8386 119.496 55.0216 119.473L59.2081 119.039C60.3749 118.925 61.4272 118.239 61.9763 117.21C62.5482 116.182 62.5711 114.925 62.0449 113.873C61.5187 112.822 60.5121 112.09 59.3454 111.93L52.2306 110.902L47.884 109.279C46.6029 108.822 45.276 108.57 43.9034 108.548L24.5494 107.542L24.3893 101.942C24.435 98.9247 25.0298 95.9304 26.1051 93.119C26.4253 96.2504 28.0496 99.0847 30.6118 100.913C33.4257 102.239 36.6514 102.49 39.6483 101.576L41.4556 102.605C42.3478 103.108 43.4459 102.879 44.0635 102.056L46.2369 99.0847C48.5246 97.6904 50.6979 96.1133 52.7111 94.3304C53.649 93.3933 54.3582 92.2733 54.8386 91.039C54.8615 90.9933 54.8844 90.9476 54.9073 90.9019V90.8562C55.5478 89.2562 55.7766 87.519 55.5707 85.8276C54.9301 81.5076 52.5052 77.6676 48.8906 75.2219C48.9135 75.0619 48.9364 74.9019 48.9364 74.719C48.8448 72.0904 47.4036 69.7133 45.1159 68.4333C42.8282 67.1533 40.0372 67.1533 37.7495 68.4333C35.4618 69.7133 34.0205 72.1133 33.929 74.719C33.929 75.0162 33.9748 75.3133 33.9976 75.6104C33.2885 76.0447 32.625 76.5247 31.9845 77.0733L31.9616 75.8162C32.1904 73.6447 31.8243 71.4504 30.8635 69.4847L26.1737 59.8847C25.4416 58.3533 25.2129 56.6162 25.5789 54.9476C25.9449 53.279 26.8371 51.7704 28.1411 50.6962L32.8767 46.719C36.171 43.9533 38.3672 40.0904 39.0763 35.839C39.3966 33.8962 40.3803 32.1133 41.8216 30.7647L54.6327 18.9933L57.1035 20.7076C64.3097 25.7362 72.6598 28.8676 81.3989 29.8276L83.2977 30.0333L85.0592 32.8676C85.7226 33.9419 86.7292 34.7647 87.9188 35.2219C89.1084 35.6562 90.4124 35.7019 91.6249 35.3133L98.0991 33.3019L107.89 32.3647C109.332 32.2276 110.613 31.4047 111.345 30.1476C112.077 28.8904 112.146 27.359 111.551 26.0562C110.956 24.7304 109.766 23.7704 108.348 23.4733L93.7525 20.5019L76.1372 12.7304L59.0251 1.30187C56.6917 -0.229554 53.7405 -0.435268 51.2241 0.77616C47.6552 2.5133 40.998 5.80473 36.2854 8.41045C31.6871 10.9704 22.8336 19.3133 16.1993 25.8733C15.5359 26.5362 14.9182 27.2219 14.3234 27.9304C14.3005 27.9533 14.3005 27.9533 14.3005 27.9762C11.7612 30.9019 9.72511 34.2619 8.28385 37.8733L6.81972 41.5762C6.79685 41.6447 4.23462 48.9819 1.58088 55.839C-0.615315 61.5533 0.642922 70.4219 1.60376 75.199C1.8554 76.319 2.19856 77.4619 2.63322 78.559ZM20.7061 112.936C20.7061 113.462 20.9349 113.965 21.3238 114.33C21.7127 114.696 22.2388 114.879 22.765 114.856C23.8631 114.833 24.7324 113.896 24.7096 112.799L24.6638 111.519L43.8119 112.502C44.727 112.525 45.6192 112.685 46.4656 112.982L51.0182 114.696C51.1554 114.742 51.2927 114.788 51.43 114.81L55.4334 115.382L54.8844 115.45L43.5831 113.462C43.3772 113.439 43.1713 113.439 42.9654 113.462L26.677 115.748L16.7484 115.999L15.8104 100.502C15.7418 99.359 15.7418 98.1933 15.8333 97.0276L16.817 83.4962C16.8627 82.9704 16.8399 82.4219 16.7712 81.8961L16.3594 78.3533C16.1764 76.799 16.817 75.2676 18.0295 74.3076C19.242 73.3247 20.8891 73.0504 22.3532 73.5533L23.6801 74.0104C24.6638 74.3533 25.5103 75.0162 26.0593 75.9076C27.0201 77.4619 27.2032 79.4047 26.5169 81.119L22.4905 91.3362C21.1636 94.719 20.4316 98.3304 20.3858 101.988L20.7061 112.936ZM43.8119 95.8847C43.5831 96.0219 43.4001 96.2047 43.24 96.4104L41.8902 98.2619L40.9065 97.6904C40.4261 97.4162 39.8313 97.3476 39.3051 97.5304C38.1841 97.8962 34.5696 98.6504 32.7165 97.5076C30.8406 96.0447 29.8111 93.7819 29.9484 91.4047L29.9255 90.4447C29.8798 89.8733 29.8798 89.3019 29.9027 88.7304C29.9942 87.9304 30.1543 87.1304 30.406 86.3762C34.684 87.2904 44.1551 89.9419 49.8514 91.5876C47.9526 93.1419 45.9395 94.6047 43.8119 95.8847ZM41.4098 71.2447C42.119 71.2447 42.8282 71.4733 43.4001 71.8847C43.9949 72.2962 44.4296 72.8676 44.6812 73.5304C42.485 73.0733 40.1973 73.1876 38.0469 73.8276C38.2528 73.0962 38.6874 72.4333 39.2822 71.9762C39.8999 71.4962 40.632 71.2447 41.4098 71.2447ZM46.6944 78.5819C49.3481 80.3876 51.1325 83.2447 51.613 86.4219C51.6816 86.9019 51.6587 87.3819 51.5901 87.8619C47.4265 86.6504 37.658 83.9076 32.2819 82.6504C32.5335 82.2847 32.7852 81.919 33.0826 81.5762C36.2854 77.8733 42.0046 75.6562 46.6944 78.5819ZM38.207 11.9304C42.8282 9.37045 49.4396 6.10187 52.9627 4.41045C54.1981 3.81616 55.6622 3.90759 56.8061 4.66187L74.0782 16.1362C74.1697 16.2047 74.2841 16.2504 74.3756 16.2962L92.357 24.2276C92.4942 24.2962 92.6086 24.319 92.7688 24.3647L107.593 27.3819C107.753 27.4047 107.868 27.519 107.936 27.6562C108.005 27.7933 108.005 27.9533 107.936 28.0904C107.868 28.2504 107.707 28.3419 107.524 28.3647L97.5043 29.3247C97.367 29.3476 97.2298 29.3704 97.0925 29.4162L90.4124 31.4962C89.6575 31.7247 88.8568 31.4276 88.445 30.7647L86.1573 27.0847C85.837 26.559 85.288 26.2162 84.6703 26.1476L81.8107 25.8276C73.7579 24.9362 66.0484 22.0333 59.3912 17.4162L53.283 13.1647C52.8483 12.8447 52.2993 12.7304 51.7731 12.8219C51.2469 12.9133 50.7894 13.2104 50.4691 13.6447C50.1717 14.079 50.0345 14.6276 50.1488 15.1533C50.2632 15.679 50.5377 16.1362 50.9953 16.4562L51.2698 16.639L39.0992 27.8162C38.5731 28.2962 38.0926 28.8219 37.658 29.3933L19.8825 27.839C28.5758 19.3133 35.0729 13.6676 38.207 11.9304ZM5.33272 57.2562C8.00933 50.3304 10.5944 42.9704 10.5944 42.9704L12.0357 39.3362C13.1338 36.5476 14.6665 33.919 16.5425 31.5647L35.6677 33.2562C35.4618 33.8962 35.2788 34.5362 35.1644 35.199C34.6153 38.5133 32.8995 41.5076 30.3144 43.679L25.5789 47.6562C23.5886 49.3247 22.216 51.6104 21.6669 54.1476C21.1179 56.6847 21.4382 59.3362 22.5591 61.6676L27.226 71.3133C27.2718 71.3819 27.2947 71.4733 27.3176 71.5419C26.6084 70.9933 25.8305 70.5819 24.9841 70.2847L23.6572 69.8276C20.8891 68.8676 17.8236 69.3933 15.5359 71.2219C13.2482 73.0504 12.0586 75.9304 12.4017 78.8562L12.8135 82.399C12.8364 82.6733 12.8593 82.9704 12.8364 83.2447L12.7449 84.4333C9.86237 82.7876 7.62042 80.2047 6.36218 77.119C6.01903 76.2504 5.7445 75.359 5.56149 74.4447C4.98956 71.6562 3.36529 62.3533 5.33272 57.2562Z" fill="#0567FF"/>
</g>
<defs>
<clipPath id="clip0_598_2404">
<rect width="111.594" height="120" fill="white" transform="translate(0.368652)"/>
</clipPath>
</defs>
</svg>
