<svg width="97" height="120" viewBox="0 0 97 120" fill="none" xmlns="http://www.w3.org/2000/svg">
<g clip-path="url(#clip0_598_2353)">
<path d="M35.6018 31.8233C35.6018 33.9887 33.8424 35.7481 31.677 35.7481C29.5116 35.7481 27.7522 33.9887 27.7522 31.8233C27.7522 29.6578 29.5116 27.8984 31.677 27.8984C33.865 27.921 35.6018 29.6804 35.6018 31.8233Z" fill="#0567FF"/>
<path d="M52.0227 31.8233C52.0227 33.9887 50.2633 35.7481 48.0979 35.7481C45.9325 35.7481 44.1731 33.9887 44.1731 31.8233C44.1731 29.6578 45.9325 27.8984 48.0979 27.8984C50.2859 27.921 52.0227 29.6804 52.0227 31.8233Z" fill="#0567FF"/>
<path d="M49.4965 42.8341C49.6318 41.9544 49.0002 41.1875 48.098 41.1875H31.6769C30.7972 41.1875 30.1656 42.0672 30.2784 42.8341C31.2935 47.2552 35.1957 50.5484 39.8874 50.5484C44.7145 50.5258 48.6168 47.2552 49.4965 42.8341Z" fill="#0567FF"/>
<path d="M88.6544 78.2046H79.316C78.1882 70.1294 71.2408 63.9264 62.895 63.9264H53.5566L52.5416 60.2723C62.1506 57.8813 63.4138 51.9264 64.4062 42.2046C64.4062 41.7083 64.5416 41.0768 64.6544 40.558C66.7972 40.1745 70.2032 38.6632 70.2032 32.979C70.2032 28.6933 68.1732 26.0317 64.3837 25.4001C64.3837 23.1219 64.3837 20.4828 64.1356 17.3249C63.2559 5.46023 56.1732 2.93391 46.5867 2.30233C38.6243 1.80609 24.6168 2.30233 18.4138 0.159473C17.0153 -0.336767 15.7521 0.655714 16.519 2.30233C17.0153 3.31737 17.2859 4.33241 17.5341 5.2121C17.1506 5.07677 16.7671 4.96398 16.4062 4.82865C15.6393 4.58053 14.895 5.32489 15.1431 6.0918C16.1581 9.49782 15.5265 21.1144 15.2784 25.4226C11.6243 26.0542 9.59422 28.7159 9.59422 33.0016C9.59422 38.6858 13.0002 40.1971 15.2784 40.5805C15.2784 41.0768 15.4138 41.7083 15.5265 42.2271C16.5416 51.9489 17.6694 58.0166 27.3912 60.2948L26.3762 63.9489H17.0378C7.81226 63.9264 0.368652 71.37 0.368652 80.5956V89.573C0.368652 92.8662 3.03031 95.6407 6.43632 95.6407H53.1732V103.22C53.1732 107.393 56.5792 110.934 60.7521 110.934C60.6168 111.949 60.504 113.077 60.1205 114.34C59.6243 116.099 60.2559 117.994 61.7672 119.144C62.5341 119.641 63.4138 120.024 64.2935 120.024C65.1732 120.024 65.9401 119.776 66.6844 119.257C70.2258 116.866 73.1356 113.573 75.1431 110.911H88.6544C92.9401 110.911 96.3687 107.505 96.3687 103.197V85.8963C96.3687 81.6106 92.9626 78.2046 88.6544 78.2046ZM19.9476 41.6858C19.8123 40.8061 19.6995 39.6557 19.5641 38.6632C19.4288 37.2647 18.4363 36.2723 17.0378 36.1369C15.0078 36.0016 14.1281 35.6407 14.1281 32.8437C14.1281 30.0692 15.1431 29.5504 17.2859 29.5504C17.9175 29.5504 18.1656 29.7986 18.301 30.182C18.6844 31.3098 19.9476 31.9414 21.0754 31.5805C22.2032 31.1971 22.8348 29.9339 22.4739 28.8061C22.0905 27.791 21.4589 26.9114 20.7145 26.2798C21.2108 22.8738 21.5942 19.8286 22.3611 17.3023C25.3837 19.1971 30.707 20.3249 39.91 20.3249C49.2484 20.3249 54.5717 19.0617 57.4589 17.167C58.3386 19.6933 58.722 22.6031 59.1055 26.1444C58.2258 26.776 57.5942 27.6557 57.2108 28.6707C56.8273 29.7986 57.4589 31.0617 58.6093 31.4452C59.7371 31.8286 61.0002 31.3098 61.519 30.0467C61.6544 29.5504 61.9025 29.4151 62.5341 29.4151C64.6769 29.4151 65.692 29.9114 65.692 32.7083C65.692 35.4828 64.925 35.8662 62.7822 36.0016C61.3837 36.1369 60.3912 37.1294 60.2559 38.3926C60.1205 39.4076 60.0077 40.4226 59.8724 41.4151C58.7446 52.7835 58.2258 56.7083 39.91 56.7083C21.5942 56.979 21.0754 53.1895 19.9476 41.6858ZM48.2333 71.1219L42.301 75.5429C40.9025 76.558 38.895 76.558 37.4965 75.5429L31.5641 71.1219C30.301 70.1068 29.6694 68.4602 30.1656 66.9489L31.6769 61.0166C34.0679 61.2647 36.7296 61.4001 39.8875 61.4001C43.0453 61.4001 45.707 61.2647 48.098 61.0166L49.6093 66.9489C50.1281 68.4602 49.4965 70.1068 48.2333 71.1219ZM53.1732 85.8963V91.1971H6.43632C5.55662 91.1971 4.92504 90.4302 4.92504 89.6858V80.7083C4.92504 74.0091 10.3611 68.4602 17.1732 68.4602H25.6318C25.7671 70.8512 26.895 73.2647 29.0378 74.776L34.9702 79.1971C36.4814 80.3249 38.2634 80.8437 40.0228 80.8437C41.7822 80.8437 43.5641 80.3474 45.0754 79.1971L51.0078 74.776C53.0378 73.2647 54.301 70.8512 54.4138 68.4602H63.0078C68.9401 68.4602 73.8799 72.6332 75.0078 78.182H61.113C56.5792 78.2046 53.1732 81.6106 53.1732 85.8963ZM91.9476 103.197C91.9476 104.956 90.4363 106.49 88.6544 106.49H73.9927C73.2258 106.49 72.5942 106.874 72.2333 107.37C70.722 109.4 67.6769 113.054 64.4062 115.581C65.2859 112.806 65.2859 110.28 65.2859 108.633C65.2859 107.505 64.2709 106.49 63.0078 106.49H60.8649C59.1055 106.49 57.5717 104.979 57.5717 103.197V85.8963C57.5717 84.1369 59.0829 82.6031 60.8649 82.6031H88.6544C90.4138 82.6031 91.9476 84.1144 91.9476 85.8963V103.197Z" fill="#0567FF"/>
<path d="M84.2334 92.3452H70.5868L72.4815 90.4505C73.3612 89.5708 73.3612 88.1723 72.4815 87.2926C71.6018 86.4129 70.2033 86.4129 69.3236 87.2926L63.6394 92.9768C63.2559 93.3603 63.0078 93.9918 63.0078 94.4881C63.0078 94.9843 63.2559 95.6159 63.6394 95.9994L69.3236 101.684C69.7071 102.067 70.3386 102.315 70.8349 102.315C71.4665 102.315 71.9627 102.067 72.3462 101.684C73.2259 100.804 73.2259 99.4054 72.3462 98.5257L70.4514 96.6309H83.9627C85.2259 96.6309 86.2409 95.6159 86.2409 94.3527C86.2635 93.0896 85.4965 92.3452 84.2334 92.3452Z" fill="#0567FF"/>
</g>
<defs>
<clipPath id="clip0_598_2353">
<rect width="96" height="120" fill="white" transform="translate(0.368652)"/>
</clipPath>
</defs>
</svg>
