<svg width="121" height="120" viewBox="0 0 121 120" fill="none" xmlns="http://www.w3.org/2000/svg">
<g clip-path="url(#clip0_598_2360)">
<path d="M50.2596 22.0078H56.2338V26.0078H50.2368V22.0078H50.2596Z" fill="#FAF6F0"/>
<path d="M64.2144 22.0078H70.2113V26.0078H64.2144V22.0078Z" fill="#FAF6F0"/>
<path d="M108.017 91.2457L105.03 90.24L101.587 87.7714C95.3849 83.3143 90.7789 77.1886 88.2706 69.9886C89.3195 69.9429 90.1632 69.0743 90.1632 68V57.9886C90.1632 48.0686 82.1141 39.9771 72.1952 39.9771H71.8988C76.1628 36.7314 79.1498 31.7714 79.9479 26.0343C80.0163 26.0343 80.1075 26.08 80.1759 26.08C80.4951 26.08 80.8144 26.0114 81.1108 25.8514C81.7949 25.4857 82.2053 24.7543 82.1825 23.9771L82.0229 20.8457C81.4756 9.16571 71.876 0 60.1785 0C48.5494 0 38.9498 9.12 38.3341 20.7771L38.2657 21.9657C38.2201 22.6514 38.5393 23.3143 39.1094 23.7029C39.4742 23.9543 39.8847 24.0686 40.2951 24.0457C40.5915 30.6057 43.761 36.3657 48.5266 40H48.2302C38.3341 40 30.2622 48.0686 30.2622 58.0114V68.0229C30.2622 68.8457 30.7638 69.5314 31.4479 69.8514C28.438 77.6 23.832 84.2057 18.8384 87.7943L15.4181 90.24L12.431 91.2457C11.1997 91.6571 10.1964 92.5943 9.69473 93.7829C9.19309 94.9943 9.23869 96.3429 9.83155 97.5086C10.584 99.04 12.1574 100 13.8447 100C13.8903 100 13.9359 100 13.9815 100L17.0142 99.9086C16.1933 102.217 16.2845 104.937 16.3985 108.114L16.4441 109.6C16.6266 115.337 21.5062 119.977 27.3435 120H28.2784H28.3012C28.4152 120 28.5292 120 28.6204 119.977L40.5915 117.966L40.4547 117.166C41.5264 117.691 42.7121 117.989 43.9662 117.989H52.2434C52.2434 118.514 52.4486 119.04 52.8362 119.406C53.2011 119.771 53.7255 120 54.25 120H93.1959C99.056 120 103.936 115.337 104.118 109.6L104.164 108.114C104.278 104.937 104.369 102.217 103.548 99.9086L106.467 100C106.512 100 106.558 100 106.604 100C108.291 100 109.864 99.04 110.617 97.5086C111.21 96.3429 111.255 94.9714 110.753 93.7829C110.229 92.5714 109.249 91.6571 108.017 91.2457ZM60.1785 4C69.3449 4 76.938 10.9029 77.9413 19.9086L65.423 10.4C65.0581 10.1257 64.6477 9.98857 64.2145 9.98857C63.9636 9.98857 63.69 10.0343 63.4392 10.1486L42.5525 18.9486C43.9662 10.4229 51.3541 4 60.1785 4ZM44.2627 23.0629C44.2627 22.9029 44.2855 22.72 44.2855 22.56L63.918 14.3086L76.1628 23.5886C75.9119 32.6857 68.8661 40.0229 60.2241 40.0229C51.4225 40 44.2627 32.3886 44.2627 23.0629ZM66.107 43.0629C65.6054 45.8514 63.1656 48 60.2241 48C57.2826 48 54.8428 45.8743 54.3412 43.0629C56.2109 43.6571 58.1719 44 60.2241 44C62.2763 44 64.2373 43.68 66.107 43.0629ZM34.2982 58.0114C34.2982 50.2857 40.5687 44 48.2758 44H50.4648C51.3997 48.5486 55.4129 52 60.2469 52C65.0581 52 69.0941 48.5486 70.029 44H72.218C79.9251 44 86.1957 50.2857 86.1957 58.0114V66.0114H80.1759V56H76.1855V88H44.2627V56H40.2723V66.0114H34.2754L34.2982 58.0114ZM80.1759 86.0343L82.5701 89.2343C82.6157 89.3029 82.6613 89.3486 82.7069 89.3943L80.1759 88.5486V86.0343ZM16.9686 95.9086L13.8675 96C13.6623 96.0457 13.5027 95.9086 13.4115 95.7257C13.3203 95.5657 13.3659 95.4057 13.3887 95.3143C13.4343 95.2229 13.5027 95.0857 13.6851 95.04L16.9458 93.9429C17.1282 93.8743 17.3106 93.7829 17.4702 93.6686L21.1642 91.0171C27.0699 86.7886 32.4056 79.0171 35.6663 70.0343H36.2591V69.9886H40.2723V79.36L34.777 86.72C29.8974 91.5886 23.7408 94.7429 16.9686 95.9086ZM40.2723 86.0343V88.5943L37.6957 89.4629C37.7641 89.3943 37.8325 89.3257 37.8781 89.2571L40.2723 86.0343ZM52.2434 114.011H43.9662C42.4385 114.011 41.0704 113.166 40.3863 111.794C40.1127 111.246 40.3407 110.766 40.4319 110.583C40.5459 110.4 40.8652 109.989 41.4808 109.989H52.2206L52.2434 114.011ZM100.173 107.977L100.128 109.486C100.014 113.074 96.9126 116 93.1959 116H56.2337V107.726L82.4561 103.977L81.8861 100.023L53.9535 104.023C52.9731 104.16 52.2434 105.006 52.2434 106.011H41.5036C39.6794 106.011 38.0149 106.949 37.0572 108.503C36.0995 110.057 36.0083 111.954 36.8292 113.6C36.9888 113.897 37.1712 114.194 37.3536 114.491L28.1416 116.023H27.3891C23.6724 116.023 20.5713 113.097 20.4573 109.509L20.4117 108C20.1837 101.463 20.1153 99.7029 25.0861 97.92L42.7349 92.0229H77.8957L95.4989 97.8971C100.47 99.68 100.401 101.44 100.173 107.977ZM107.037 95.7257C106.946 95.9086 106.786 95.9771 106.581 96L103.48 95.9086C96.7074 94.7429 90.5508 91.5886 85.6712 86.72L80.1759 79.3829V70.0114H84.1663V70.0571C84.1663 70.2629 84.1891 70.4914 84.2575 70.6971C86.9937 78.9486 92.1926 85.9886 99.2384 91.04L102.932 93.6914C103.092 93.8057 103.274 93.8971 103.457 93.9657L106.718 95.0629C106.9 95.1314 106.968 95.2457 107.014 95.3371C107.082 95.4057 107.128 95.5657 107.037 95.7257Z" fill="#FAF6F0"/>
<path d="M56.2336 35.9994H64.2144C65.3089 35.9994 66.2209 35.108 66.2209 33.988C66.2209 32.868 65.3317 31.9766 64.2144 31.9766H56.2336C55.1391 31.9766 54.2271 32.868 54.2271 33.988C54.2271 35.108 55.1391 35.9994 56.2336 35.9994Z" fill="#FAF6F0"/>
<path d="M112.099 0H116.089V4H112.099V0Z" fill="#FAF6F0"/>
<path d="M112.099 8H116.089V12H112.099V8Z" fill="#FAF6F0"/>
<path d="M116.089 4H120.079V8H116.089V4Z" fill="#FAF6F0"/>
<path d="M108.108 4H112.099V8H108.108V4Z" fill="#FAF6F0"/>
<path d="M4.35913 0H8.34949V4H4.35913V0Z" fill="#FAF6F0"/>
<path d="M4.35913 8H8.34949V12H4.35913V8Z" fill="#FAF6F0"/>
<path d="M8.34937 4H12.3397V8H8.34937V4Z" fill="#FAF6F0"/>
<path d="M0.368652 4H4.35901V8H0.368652V4Z" fill="#FAF6F0"/>
</g>
<defs>
<clipPath id="clip0_598_2360">
<rect width="119.711" height="120" fill="white" transform="translate(0.368652)"/>
</clipPath>
</defs>
</svg>
