<svg width="589" height="482" viewBox="0 0 589 482" fill="none" xmlns="http://www.w3.org/2000/svg">
<path d="M552.538 25.296C552.538 25.296 551.838 23.796 551.138 22.396C550.738 21.696 550.438 20.896 550.138 20.396C549.938 19.896 549.738 19.496 549.738 19.496C549.738 19.496 551.338 19.596 553.838 19.696C556.238 19.796 559.538 19.896 562.738 19.896C565.938 19.896 569.138 19.896 571.538 19.896C573.938 19.796 575.538 19.696 575.538 19.696C575.538 19.696 576.238 20.996 576.838 22.296C577.538 23.596 578.238 24.796 578.238 24.796C578.238 24.796 576.638 24.996 574.238 25.096C571.838 25.196 568.638 25.396 565.438 25.496C562.238 25.596 558.938 25.596 556.538 25.496C554.138 25.296 552.538 25.296 552.538 25.296Z" fill="#FAF6F0"/>
<path d="M557.339 112.096L551.938 108.096C551.938 108.096 558.139 105.096 564.239 102.096C570.339 99.096 576.339 95.896 576.339 95.896L581.538 99.796C581.538 99.796 575.538 102.996 569.538 106.096C563.538 108.996 557.339 112.096 557.339 112.096Z" fill="#FAF6F0"/>
<path d="M540.439 98.396C540.439 98.396 539.139 96.996 537.739 95.696C537.139 94.996 536.539 94.296 536.039 93.696C535.639 93.196 535.339 92.796 535.339 92.796C535.339 92.796 537.039 92.496 539.639 91.996C542.139 91.496 545.639 90.596 548.839 89.596C550.439 89.096 552.039 88.496 553.539 87.996C555.039 87.496 556.439 86.996 557.339 86.296C558.439 85.796 559.039 84.996 559.739 84.696C560.439 84.396 560.839 84.196 560.839 84.196L566.039 88.096C566.039 88.096 559.939 91.196 553.739 94.096C552.939 94.496 552.139 94.796 551.439 95.196C550.639 95.496 549.739 95.896 549.039 96.096C547.439 96.496 546.039 96.996 544.739 97.396C542.239 97.996 540.439 98.396 540.439 98.396Z" fill="#FAF6F0"/>
<path d="M526.638 80.996C526.638 80.996 526.338 80.596 526.038 79.996C525.738 79.396 525.239 78.696 524.739 77.896C523.839 76.396 522.938 74.796 522.938 74.796C522.938 74.796 529.938 74.596 536.638 73.996C543.538 73.296 550.038 71.896 550.038 71.896C550.038 71.896 550.238 72.196 550.538 72.696C550.838 73.196 551.239 73.696 551.739 74.296C552.639 75.396 553.538 76.496 553.538 76.496C553.538 76.496 551.938 76.996 549.538 77.596C547.138 78.196 543.738 78.996 540.438 79.496C533.738 80.496 526.638 80.996 526.638 80.996Z" fill="#FAF6F0"/>
<path d="M516.438 62.4959C516.438 62.4959 515.738 60.8959 514.938 59.3959C514.538 58.5959 514.238 57.7959 513.938 57.2959C513.638 56.6959 513.538 56.2959 513.538 56.2959C513.538 56.2959 515.238 56.3959 517.838 56.4959C520.438 56.5959 523.838 56.6959 527.238 56.6959C530.638 56.6959 534.038 56.6959 536.538 56.5959C539.038 56.4959 540.738 56.3959 540.738 56.3959C540.738 56.3959 541.438 57.7959 542.138 59.0959C542.838 60.4959 543.638 61.6959 543.638 61.6959C543.638 61.6959 541.938 61.8959 539.438 62.0959C536.938 62.1959 533.538 62.3959 530.138 62.4959C526.738 62.5959 523.238 62.5959 520.638 62.4959C518.138 62.4959 516.438 62.4959 516.438 62.4959Z" fill="#FAF6F0"/>
<path d="M508.038 43.8959L505.438 37.7959C505.438 37.7959 512.238 38.1959 519.038 38.5959C522.438 38.7959 525.838 38.9959 528.438 39.0959C531.038 39.1959 532.638 39.2959 532.638 39.2959L535.239 45.0959C535.239 45.0959 528.438 44.9959 521.638 44.5959C514.838 44.2959 508.038 43.8959 508.038 43.8959Z" fill="#FAF6F0"/>
<path d="M500.138 25.896C500.138 25.896 499.938 25.496 499.738 24.996C499.538 24.496 499.138 23.696 498.838 22.996C498.138 21.596 497.538 20.0959 497.538 20.0959C497.538 20.0959 504.338 20.096 511.138 20.396C517.938 20.696 524.838 21.0959 524.838 21.0959L527.438 27.196C527.438 27.196 520.638 26.796 513.838 26.396C506.938 26.096 500.138 25.896 500.138 25.896Z" fill="#FAF6F0"/>
<path d="M557.639 176.296L551.839 172.296C551.839 172.296 558.139 168.796 564.439 165.396C570.739 161.896 577.039 158.396 577.039 158.396L582.739 162.296C582.739 162.296 576.439 165.796 570.139 169.296C563.939 172.796 557.639 176.296 557.639 176.296Z" fill="#FAF6F0"/>
<path d="M540.439 164.296C540.439 164.296 539.039 163.296 537.539 162.296C536.839 161.796 536.139 161.296 535.539 160.896C535.039 160.496 534.639 160.196 534.639 160.196C534.639 160.196 536.239 159.396 538.639 158.196C541.039 156.896 544.239 155.196 547.439 153.496C553.739 150.096 560.139 146.596 560.139 146.596L565.739 150.496C565.739 150.496 559.439 153.996 553.139 157.396C546.739 160.896 540.439 164.296 540.439 164.296Z" fill="#FAF6F0"/>
<path d="M523.339 151.796L517.639 147.596C517.639 147.596 524.239 144.496 530.639 141.196C537.139 137.996 543.439 134.696 543.439 134.696L548.839 138.796C548.839 138.796 542.539 142.096 536.139 145.396C529.839 148.596 523.339 151.796 523.339 151.796Z" fill="#FAF6F0"/>
<path d="M505.639 137.496C505.639 137.496 504.239 136.096 502.839 134.596C502.139 133.896 501.539 133.096 501.139 132.496C500.639 131.896 500.339 131.496 500.339 131.496C500.339 131.496 502.139 131.196 504.839 130.596C507.439 130.096 511.139 129.096 514.539 127.996C516.239 127.496 517.939 126.896 519.539 126.296C521.039 125.696 522.539 125.196 523.539 124.496C524.639 123.896 525.339 123.096 526.039 122.796C526.739 122.496 527.139 122.296 527.139 122.296L532.539 126.396C532.539 126.396 526.139 129.596 519.539 132.796C518.739 133.196 517.939 133.596 517.139 133.996C516.339 134.396 515.439 134.696 514.539 134.896C512.839 135.396 511.339 135.796 510.039 136.196C507.439 136.996 505.639 137.496 505.639 137.496Z" fill="#FAF6F0"/>
<path d="M491.139 119.096C491.139 119.096 490.839 118.696 490.539 118.096C490.139 117.496 489.739 116.696 489.239 115.896C488.239 114.296 487.339 112.696 487.339 112.696C487.339 112.696 494.739 112.496 501.839 111.796C509.139 110.996 515.939 109.596 515.939 109.596C515.939 109.596 516.139 109.896 516.439 110.396C516.739 110.896 517.239 111.496 517.739 111.996C518.639 113.196 519.639 114.296 519.639 114.296C519.639 114.296 517.939 114.796 515.439 115.496C512.839 116.096 509.239 116.996 505.839 117.496C498.639 118.596 491.139 119.096 491.139 119.096Z" fill="#FAF6F0"/>
<path d="M480.339 99.5958C480.339 99.5958 479.539 97.9958 478.739 96.2958C478.339 95.4958 477.939 94.6958 477.639 93.9958C477.339 93.3958 477.139 92.9958 477.139 92.9958C477.139 92.9958 478.939 93.0958 481.639 93.1958C484.339 93.2958 488.039 93.3958 491.639 93.3958C495.239 93.3958 498.739 93.3958 501.539 93.2958C504.239 93.1958 506.039 93.0958 506.039 93.0958C506.039 93.0958 506.839 94.4958 507.539 95.9958C508.239 97.4958 509.139 98.7958 509.139 98.7958C509.139 98.7958 507.339 98.9958 504.639 99.1958C502.039 99.3958 498.439 99.4958 494.839 99.5958C491.239 99.6958 487.539 99.6958 484.839 99.5958C482.139 99.6958 480.339 99.5958 480.339 99.5958Z" fill="#FAF6F0"/>
<path d="M471.538 80.096L468.738 73.696C468.738 73.696 475.938 74.096 483.138 74.496C486.738 74.696 490.338 74.896 493.038 74.996C495.738 75.096 497.538 75.196 497.538 75.196L500.338 81.296C500.338 81.296 493.238 81.196 486.038 80.796C478.738 80.496 471.538 80.096 471.538 80.096Z" fill="#FAF6F0"/>
<path d="M463.338 61.196C463.338 61.196 463.138 60.796 462.938 60.196C462.638 59.596 462.338 58.8959 461.938 58.0959C461.238 56.5959 460.538 55.0959 460.538 55.0959C460.538 55.0959 467.638 55.096 474.938 55.396C482.138 55.696 489.338 56.196 489.338 56.196L492.138 62.5959C492.138 62.5959 484.938 62.196 477.738 61.796C470.438 61.396 463.338 61.196 463.338 61.196Z" fill="#FAF6F0"/>
<path d="M454.638 43.396C454.638 43.396 453.838 41.996 453.038 40.596C452.638 39.896 452.238 39.196 451.938 38.696C451.638 38.196 451.438 37.896 451.438 37.896C451.438 37.896 451.838 37.796 452.638 37.696C453.438 37.596 454.539 37.496 455.839 37.396C458.439 37.196 462.038 36.896 465.638 36.696C467.438 36.596 469.238 36.596 470.938 36.496C472.638 36.496 474.238 36.496 475.538 36.496C478.238 36.496 480.038 36.496 480.038 36.496C480.038 36.496 480.839 38.096 481.739 39.796C482.139 40.596 482.539 41.396 482.839 42.096C483.139 42.696 483.339 43.096 483.339 43.096C483.339 43.096 481.539 42.996 478.839 42.896C476.139 42.796 472.439 42.796 468.839 42.796C465.239 42.796 461.638 42.896 459.038 42.996C456.438 43.196 454.638 43.396 454.638 43.396Z" fill="#FAF6F0"/>
<path d="M444.539 27.7959C444.539 27.7959 444.339 27.4959 443.939 27.0959C443.639 26.6959 443.139 25.9959 442.639 25.4959C441.639 24.3959 440.639 23.3959 440.639 23.3959C440.639 23.3959 442.239 22.7959 444.739 21.8959C446.039 21.4959 447.539 20.9959 449.139 20.5959C450.739 20.0959 452.439 19.7959 454.239 19.3959C457.739 18.6959 461.339 18.0959 464.139 17.6959C465.539 17.4959 466.639 17.3959 467.539 17.2959C468.339 17.1959 468.739 17.1959 468.739 17.1959L472.939 23.6959C472.939 23.6959 465.439 23.9959 458.439 24.9959C454.939 25.4959 451.339 26.1959 448.739 26.7959C446.239 27.2959 444.539 27.7959 444.539 27.7959Z" fill="#FAF6F0"/>
<path d="M561.339 241.796L555.438 237.696C555.438 237.696 562.038 233.996 568.638 230.296C575.338 226.696 581.938 222.996 581.938 222.996L588.038 227.196C588.038 227.196 581.338 230.796 574.638 234.396C568.038 238.196 561.339 241.796 561.339 241.796Z" fill="#FAF6F0"/>
<path d="M543.439 229.596L537.339 225.496L563.839 210.596L569.939 214.696L543.439 229.596Z" fill="#FAF6F0"/>
<path d="M525.338 217.196L519.238 212.996C519.238 212.996 525.938 209.396 532.538 205.696C539.138 201.996 545.738 198.396 545.738 198.396L551.738 202.496C551.738 202.496 545.138 206.196 538.438 209.896C531.938 213.596 525.338 217.196 525.338 217.196Z" fill="#FAF6F0"/>
<path d="M507.238 204.596C507.238 204.596 505.738 203.496 504.238 202.496C503.438 201.996 502.738 201.396 502.138 200.996C501.538 200.596 501.238 200.296 501.238 200.296C501.238 200.296 502.938 199.396 505.438 198.096C507.938 196.796 511.338 194.996 514.738 193.196C521.438 189.596 528.138 185.996 528.138 185.996L534.038 190.096C534.038 190.096 527.338 193.696 520.738 197.396C513.938 200.996 507.238 204.596 507.238 204.596Z" fill="#FAF6F0"/>
<path d="M489.339 191.496L483.339 186.996C483.339 186.996 490.239 183.696 497.039 180.296C503.839 176.896 510.539 173.396 510.539 173.396L516.239 177.696C516.239 177.696 509.639 181.196 502.839 184.596C496.239 188.096 489.339 191.496 489.339 191.496Z" fill="#FAF6F0"/>
<path d="M470.838 176.496C470.838 176.496 469.338 174.996 467.838 173.496C467.138 172.696 466.538 171.896 466.038 171.296C465.538 170.696 465.238 170.296 465.238 170.296C465.238 170.296 467.138 169.996 469.938 169.396C472.638 168.896 476.538 167.796 480.138 166.696C481.938 166.096 483.738 165.496 485.338 164.896C486.938 164.296 488.538 163.796 489.638 162.996C490.838 162.396 491.538 161.496 492.238 161.196C492.938 160.796 493.438 160.596 493.438 160.596L499.138 164.896C499.138 164.896 492.338 168.296 485.438 171.596C484.538 171.996 483.738 172.396 482.838 172.796C481.938 173.196 481.038 173.496 480.138 173.796C478.338 174.296 476.738 174.796 475.438 175.196C472.738 175.996 470.838 176.496 470.838 176.496Z" fill="#FAF6F0"/>
<path d="M455.638 157.196C455.638 157.196 455.338 156.796 454.938 156.096C454.538 155.496 454.038 154.596 453.538 153.696C452.538 151.996 451.538 150.296 451.538 150.296C451.538 150.296 459.338 150.096 466.738 149.396C474.438 148.596 481.638 147.096 481.638 147.096C481.638 147.096 481.838 147.396 482.238 147.896C482.538 148.396 483.038 148.996 483.538 149.596C484.538 150.796 485.538 151.996 485.538 151.996C485.538 151.996 483.838 152.496 481.038 153.196C478.338 153.896 474.538 154.796 470.938 155.296C463.438 156.696 455.638 157.196 455.638 157.196Z" fill="#FAF6F0"/>
<path d="M444.239 136.796C444.239 136.796 443.438 135.096 442.538 133.396C442.138 132.496 441.738 131.696 441.438 130.996C441.138 130.396 440.938 129.896 440.938 129.896C440.938 129.896 442.839 129.996 445.739 130.096C448.639 130.196 452.439 130.296 456.239 130.396C460.039 130.396 463.738 130.396 466.638 130.296C469.438 130.196 471.339 130.096 471.339 130.096C471.339 130.096 472.138 131.596 472.938 133.096C473.738 134.596 474.638 135.996 474.638 135.996C474.638 135.996 472.738 136.196 469.938 136.396C467.138 136.596 463.438 136.696 459.638 136.796C455.838 136.896 452.038 136.896 449.138 136.796C446.138 136.796 444.239 136.796 444.239 136.796Z" fill="#FAF6F0"/>
<path d="M435.039 116.296L432.139 109.596C432.139 109.596 439.739 109.996 447.239 110.496C451.039 110.696 454.839 110.896 457.639 110.996C460.439 111.096 462.339 111.196 462.339 111.196L465.239 117.696C465.239 117.696 457.739 117.496 450.139 117.196C442.539 116.696 435.039 116.296 435.039 116.296Z" fill="#FAF6F0"/>
<path d="M426.438 96.4959C426.438 96.4959 426.238 96.0959 425.938 95.4959C425.638 94.8959 425.338 94.0959 424.938 93.2959C424.238 91.6959 423.438 90.0959 423.438 90.0959C423.438 90.0959 430.938 90.0959 438.538 90.4959C446.138 90.7959 453.739 91.2959 453.739 91.2959L456.638 98.0959C456.638 98.0959 449.038 97.6959 441.538 97.1959C433.938 96.6959 426.438 96.4959 426.438 96.4959Z" fill="#FAF6F0"/>
<path d="M417.339 77.796C417.339 77.796 416.539 76.296 415.739 74.896C415.339 74.196 414.939 73.396 414.639 72.896C414.339 72.296 414.139 71.996 414.139 71.996C414.139 71.996 414.639 71.896 415.439 71.796C416.239 71.696 417.439 71.596 418.739 71.496C421.539 71.196 425.239 70.996 429.039 70.796C430.939 70.696 432.839 70.6959 434.639 70.5959C436.439 70.5959 438.039 70.5959 439.539 70.5959C442.439 70.5959 444.339 70.5959 444.339 70.5959C444.339 70.5959 445.239 72.2959 446.039 74.0959C446.539 74.9959 446.839 75.796 447.139 76.496C447.439 77.096 447.639 77.596 447.639 77.596C447.639 77.596 445.739 77.496 442.839 77.396C440.039 77.296 436.139 77.196 432.339 77.296C428.539 77.296 424.839 77.396 422.039 77.496C419.139 77.696 417.339 77.796 417.339 77.796Z" fill="#FAF6F0"/>
<path d="M406.739 61.496C406.739 61.496 406.539 61.196 406.139 60.696C405.839 60.196 405.339 59.596 404.739 59.096C403.739 57.996 402.639 56.896 402.639 56.896C402.639 56.896 404.339 56.196 407.039 55.396C408.339 54.996 409.939 54.496 411.639 53.996C413.339 53.496 415.139 53.096 416.939 52.696C420.639 51.896 424.439 51.296 427.339 50.896C428.839 50.696 430.039 50.596 430.839 50.496C431.639 50.396 432.139 50.396 432.139 50.396L436.539 57.196C436.539 57.196 428.639 57.496 421.239 58.596C417.539 59.096 413.739 59.896 411.039 60.496C408.439 60.996 406.739 61.496 406.739 61.496Z" fill="#FAF6F0"/>
<path d="M393.038 47.596C393.038 47.596 391.738 46.396 390.438 45.296C389.838 44.696 389.138 44.096 388.638 43.696C388.138 43.296 387.738 42.996 387.738 42.996C387.738 42.996 389.438 42.196 392.038 41.096C394.638 39.996 398.038 38.596 401.638 37.196C408.638 34.396 415.938 31.896 415.938 31.896C415.938 31.896 417.338 33.196 418.738 34.496C419.438 35.196 420.238 35.996 420.738 36.596C421.238 37.196 421.638 37.596 421.638 37.596C421.638 37.596 419.738 37.996 416.938 38.796C414.138 39.496 410.538 40.896 406.938 42.196C399.938 44.696 393.038 47.596 393.038 47.596Z" fill="#FAF6F0"/>
<path d="M376.939 33.996C376.939 33.996 375.639 32.896 374.139 31.796C372.739 30.696 371.339 29.596 371.339 29.596C371.339 29.596 373.039 28.796 375.639 27.496C378.239 26.296 381.639 24.596 385.039 22.996C391.839 19.796 398.939 16.896 398.939 16.896L404.739 21.696C404.739 21.696 397.639 24.596 390.639 27.696C383.739 30.696 376.939 33.996 376.939 33.996Z" fill="#FAF6F0"/>
<path d="M360.038 20.896L354.238 16.5959C354.238 16.5959 361.038 13.196 367.738 9.79596C374.538 6.39596 381.338 3.09595 381.338 3.09595L387.238 7.59595C387.238 7.59595 380.338 10.796 373.538 14.196C366.838 17.396 360.038 20.896 360.038 20.896Z" fill="#FAF6F0"/>
<path d="M549.138 296.696L542.938 292.396C542.938 292.396 549.938 288.596 557.038 284.796C558.838 283.896 560.539 282.896 562.239 281.996C563.839 281.096 565.238 280.096 566.438 279.296C567.638 278.496 568.539 277.796 569.239 277.296C569.939 276.796 570.239 276.496 570.239 276.496C570.239 276.496 571.439 277.196 572.739 277.896C574.039 278.496 575.339 279.096 575.339 279.096C575.339 279.096 574.038 280.496 571.938 282.396C569.738 284.396 566.838 286.796 563.438 288.996C560.138 291.196 556.538 292.996 553.638 294.296C552.238 294.996 551.138 295.596 550.438 295.996C549.638 296.496 549.138 296.696 549.138 296.696Z" fill="#FAF6F0"/>
<path d="M530.738 283.896L524.538 279.596C524.538 279.596 531.438 275.696 538.438 271.896C545.438 268.096 552.438 264.296 552.438 264.296L558.838 268.696C558.838 268.696 551.838 272.496 544.738 276.296C537.638 279.996 530.738 283.896 530.738 283.896Z" fill="#FAF6F0"/>
<path d="M511.938 270.996L505.538 266.696L533.438 251.196L539.738 255.496L511.938 270.996Z" fill="#FAF6F0"/>
<path d="M493.039 258.096L486.639 253.696C486.639 253.696 493.639 249.896 500.639 246.096C507.539 242.196 514.539 238.396 514.539 238.396L520.839 242.696C520.839 242.696 513.839 246.596 506.939 250.496C499.939 254.296 493.039 258.096 493.039 258.096Z" fill="#FAF6F0"/>
<path d="M474.138 244.896C474.138 244.896 472.538 243.796 470.938 242.696C470.138 242.196 469.338 241.596 468.738 241.096C468.138 240.696 467.738 240.396 467.738 240.396C467.738 240.396 469.538 239.496 472.138 238.096C474.838 236.696 478.338 234.796 481.838 232.896C488.838 229.096 495.838 225.296 495.838 225.296L502.038 229.596C502.038 229.596 495.038 233.396 488.038 237.196C481.138 241.196 474.138 244.896 474.138 244.896Z" fill="#FAF6F0"/>
<path d="M455.439 231.196L449.139 226.496C449.139 226.496 456.339 222.996 463.539 219.496C470.639 215.896 477.739 212.296 477.739 212.296L483.739 216.796C483.739 216.796 476.739 220.496 469.739 224.096C462.539 227.696 455.439 231.196 455.439 231.196Z" fill="#FAF6F0"/>
<path d="M435.938 215.496C435.938 215.496 434.338 213.896 432.838 212.296C432.038 211.496 431.438 210.596 430.938 209.996C430.438 209.396 430.038 208.896 430.038 208.896C430.038 208.896 432.038 208.596 435.038 207.896C437.938 207.296 442.038 206.196 445.738 205.096C447.638 204.496 449.538 203.896 451.238 203.196C452.938 202.596 454.538 201.996 455.738 201.196C456.938 200.596 457.738 199.596 458.538 199.296C459.338 198.896 459.738 198.696 459.738 198.696L465.738 203.196C465.738 203.196 458.638 206.796 451.338 210.196C450.438 210.596 449.538 211.096 448.638 211.496C447.738 211.896 446.738 212.296 445.838 212.496C444.038 212.996 442.338 213.496 440.838 213.996C437.938 214.996 435.938 215.496 435.938 215.496Z" fill="#FAF6F0"/>
<path d="M420.038 195.296C420.038 195.296 419.738 194.896 419.338 194.196C418.938 193.496 418.438 192.596 417.838 191.696C416.738 189.896 415.738 188.096 415.738 188.096C415.738 188.096 423.938 187.896 431.738 187.096C439.838 186.296 447.338 184.696 447.338 184.696C447.338 184.696 447.538 185.096 447.938 185.596C448.238 186.196 448.838 186.796 449.338 187.396C450.338 188.696 451.438 189.996 451.438 189.996C451.438 189.996 449.638 190.596 446.738 191.296C443.938 191.996 439.938 192.896 436.038 193.496C428.338 194.796 420.038 195.296 420.038 195.296Z" fill="#FAF6F0"/>
<path d="M408.239 173.896C408.239 173.896 407.339 172.096 406.539 170.296C406.139 169.396 405.639 168.496 405.339 167.796C405.039 167.096 404.839 166.696 404.839 166.696C404.839 166.696 406.839 166.796 409.839 166.896C412.839 166.996 416.839 167.096 420.839 167.196C424.839 167.196 428.739 167.196 431.739 167.096C434.739 166.996 436.639 166.896 436.639 166.896C436.639 166.896 437.439 168.496 438.339 170.096C439.139 171.696 440.039 173.196 440.039 173.196C440.039 173.196 438.039 173.396 435.139 173.596C432.239 173.796 428.239 173.996 424.339 173.996C420.339 174.096 416.339 174.096 413.339 173.996C410.239 173.996 408.239 173.896 408.239 173.896Z" fill="#FAF6F0"/>
<path d="M398.538 152.596L395.538 145.496C395.538 145.496 403.538 145.996 411.438 146.396C415.438 146.596 419.338 146.796 422.338 146.996C425.338 147.096 427.338 147.196 427.338 147.196L430.338 153.996C430.338 153.996 422.438 153.796 414.438 153.496C406.438 152.996 398.538 152.596 398.538 152.596Z" fill="#FAF6F0"/>
<path d="M389.538 131.796C389.538 131.796 389.338 131.396 389.038 130.696C388.738 130.096 388.338 129.196 387.938 128.396C387.138 126.696 386.438 125.096 386.438 125.096C386.438 125.096 394.339 125.096 402.339 125.496C410.239 125.796 418.239 126.296 418.239 126.296L421.339 133.396C421.339 133.396 413.338 132.896 405.438 132.496C397.438 131.996 389.538 131.796 389.538 131.796Z" fill="#FAF6F0"/>
<path d="M380.038 112.296C380.038 112.296 379.138 110.796 378.338 109.296C377.938 108.496 377.438 107.796 377.138 107.196C376.838 106.596 376.538 106.296 376.538 106.296C376.538 106.296 377.038 106.196 377.838 106.096C378.638 105.996 379.938 105.896 381.338 105.796C384.238 105.496 388.138 105.196 392.138 105.096C394.138 104.996 396.138 104.996 398.038 104.896C399.938 104.896 401.638 104.896 403.138 104.896C406.138 104.896 408.138 104.996 408.138 104.996C408.138 104.996 409.038 106.796 409.938 108.596C410.438 109.496 410.838 110.396 411.138 111.096C411.438 111.796 411.638 112.196 411.638 112.196C411.638 112.196 409.638 112.096 406.638 111.996C403.638 111.896 399.538 111.796 395.638 111.896C391.638 111.896 387.738 111.996 384.738 112.096C381.938 112.096 380.038 112.296 380.038 112.296Z" fill="#FAF6F0"/>
<path d="M368.938 95.1958C368.938 95.1958 368.738 94.8958 368.338 94.3958C367.938 93.8958 367.438 93.1958 366.938 92.6958C365.838 91.4958 364.738 90.3958 364.738 90.3958C364.738 90.3958 366.538 89.6958 369.338 88.7958C370.738 88.2958 372.338 87.7958 374.238 87.2958C376.038 86.7958 377.938 86.3958 379.838 85.9958C383.738 85.1958 387.638 84.4958 390.738 84.0958C392.238 83.8958 393.538 83.7958 394.438 83.5958C395.338 83.4958 395.838 83.4958 395.838 83.4958L400.438 90.5958C400.438 90.5958 392.138 90.9958 384.438 92.0958C380.538 92.5958 376.538 93.4958 373.738 94.0958C370.738 94.6958 368.938 95.1958 368.938 95.1958Z" fill="#FAF6F0"/>
<path d="M354.538 80.696C354.538 80.696 353.238 79.496 351.838 78.196C351.138 77.596 350.538 76.996 349.938 76.496C349.438 76.096 349.038 75.796 349.038 75.796C349.038 75.796 350.838 74.996 353.538 73.796C356.238 72.696 359.838 71.196 363.538 69.696C370.938 66.796 378.538 64.0959 378.538 64.0959C378.538 64.0959 380.038 65.496 381.538 66.796C382.338 67.496 383.038 68.396 383.638 68.996C384.238 69.596 384.638 69.996 384.638 69.996C384.638 69.996 382.638 70.396 379.738 71.196C376.838 71.896 373.038 73.396 369.238 74.696C361.838 77.596 354.538 80.696 354.538 80.696Z" fill="#FAF6F0"/>
<path d="M337.839 66.396C337.839 66.396 336.438 65.196 334.938 64.096C333.438 62.996 331.938 61.796 331.938 61.796C331.938 61.796 333.738 60.896 336.438 59.596C339.138 58.296 342.739 56.596 346.339 54.896C353.539 51.596 360.938 48.396 360.938 48.396L367.038 53.396C367.038 53.396 359.539 56.496 352.239 59.696C344.939 62.996 337.839 66.396 337.839 66.396Z" fill="#FAF6F0"/>
<path d="M320.138 52.696L314.038 48.196C314.038 48.196 321.138 44.596 328.238 40.996C335.338 37.396 342.538 33.996 342.538 33.996L348.738 38.796C348.738 38.796 341.438 42.196 334.338 45.696C327.238 49.096 320.138 52.696 320.138 52.696Z" fill="#FAF6F0"/>
<path d="M301.839 39.1959L295.639 34.5959L324.039 20.1959L330.239 24.7959L301.839 39.1959Z" fill="#FAF6F0"/>
<path d="M283.339 25.296C283.339 25.296 281.739 24.096 280.239 22.896C278.639 21.696 277.139 20.496 277.139 20.496C277.139 20.496 278.939 19.696 281.639 18.396C284.339 17.096 287.939 15.396 291.539 13.596C298.639 10.096 305.839 6.49597 305.839 6.49597L311.839 11.096C311.839 11.096 304.739 14.696 297.639 18.296C290.539 21.796 283.339 25.296 283.339 25.296Z" fill="#FAF6F0"/>
<path d="M545.138 351.896C545.138 351.896 544.539 351.696 543.739 351.496C542.839 351.196 541.738 350.896 540.538 350.496C539.338 350.096 538.239 349.596 537.339 349.296C536.439 348.996 535.938 348.696 535.938 348.696C535.938 348.696 536.338 348.396 537.138 347.796C537.938 347.196 538.939 346.396 540.239 345.296C541.539 344.296 542.939 343.096 544.339 341.696C545.839 340.296 547.239 338.796 548.739 337.296C551.539 334.296 554.138 330.996 555.938 328.596C557.738 326.196 558.839 324.496 558.839 324.496C558.839 324.496 560.539 324.796 562.239 325.096C563.939 325.296 565.638 325.596 565.638 325.596C565.638 325.596 564.638 327.296 562.938 329.896C561.238 332.496 558.938 335.896 556.438 339.196C553.938 342.596 551.138 345.696 548.938 347.996C547.838 349.196 546.839 350.096 546.239 350.796C545.539 351.596 545.138 351.896 545.138 351.896Z" fill="#FAF6F0"/>
<path d="M519.339 339.296L512.839 334.796C512.839 334.796 520.239 330.796 527.539 326.896C529.439 325.896 531.239 324.896 532.939 323.996C534.639 322.996 536.139 321.996 537.339 321.196C538.539 320.296 539.539 319.596 540.239 319.096C540.939 318.596 541.339 318.196 541.339 318.196C541.339 318.196 542.639 318.896 543.939 319.596C545.339 320.196 546.739 320.796 546.739 320.796C546.739 320.796 545.439 322.196 543.139 324.296C540.839 326.396 537.739 328.896 534.239 331.296C530.739 333.696 527.039 335.496 523.939 336.896C522.439 337.596 521.339 338.196 520.539 338.696C519.739 339.096 519.339 339.296 519.339 339.296Z" fill="#FAF6F0"/>
<path d="M500.038 325.896L493.538 321.396C493.538 321.396 500.838 317.396 508.038 313.296C515.338 309.296 522.738 305.296 522.738 305.296L529.438 309.896C529.438 309.896 522.038 313.896 514.738 317.796C507.338 321.896 500.038 325.896 500.038 325.896Z" fill="#FAF6F0"/>
<path d="M480.438 312.496L473.738 307.996L502.938 291.696L509.538 296.196L480.438 312.496Z" fill="#FAF6F0"/>
<path d="M460.638 298.996L453.938 294.396C453.938 294.396 461.238 290.396 468.538 286.396C475.838 282.396 483.038 278.296 483.038 278.296L489.638 282.796C489.638 282.796 482.338 286.896 475.038 290.896C467.938 294.996 460.638 298.996 460.638 298.996Z" fill="#FAF6F0"/>
<path d="M440.939 285.196C440.939 285.196 439.239 283.996 437.639 282.896C436.839 282.296 435.939 281.696 435.339 281.296C434.739 280.796 434.339 280.496 434.339 280.496C434.339 280.496 436.139 279.596 438.939 278.096C441.739 276.596 445.439 274.696 449.139 272.696C456.539 268.696 463.839 264.796 463.839 264.796L470.339 269.296C470.339 269.296 463.039 273.296 455.739 277.296C448.339 281.296 440.939 285.196 440.939 285.196Z" fill="#FAF6F0"/>
<path d="M421.439 270.896L414.839 265.996C414.839 265.996 422.439 262.396 429.939 258.596C437.439 254.896 444.739 251.096 444.739 251.096L451.039 255.796C451.039 255.796 443.739 259.696 436.339 263.396C428.939 267.196 421.439 270.896 421.439 270.896Z" fill="#FAF6F0"/>
<path d="M401.138 254.496C401.138 254.496 399.539 252.796 397.839 251.196C397.039 250.396 396.339 249.396 395.839 248.796C395.339 248.096 394.938 247.696 394.938 247.696C394.938 247.696 397.038 247.296 400.138 246.696C403.138 246.096 407.438 244.996 411.438 243.696C413.438 243.096 415.338 242.396 417.138 241.696C418.938 240.996 420.639 240.396 421.839 239.696C423.139 238.996 423.939 238.096 424.739 237.696C425.539 237.296 426.038 237.096 426.038 237.096L432.339 241.796C432.339 241.796 424.839 245.496 417.239 249.196C416.339 249.696 415.338 250.096 414.438 250.596C413.438 250.996 412.438 251.396 411.438 251.696C409.538 252.196 407.739 252.796 406.239 253.196C403.239 253.996 401.138 254.496 401.138 254.496Z" fill="#FAF6F0"/>
<path d="M384.539 233.496C384.539 233.496 384.239 232.996 383.839 232.296C383.439 231.596 382.839 230.696 382.339 229.696C381.239 227.796 380.139 225.896 380.139 225.896C380.139 225.896 388.739 225.696 396.939 224.896C405.339 223.996 413.239 222.396 413.239 222.396C413.239 222.396 413.439 222.796 413.839 223.296C414.239 223.896 414.739 224.496 415.339 225.196C416.439 226.496 417.539 227.896 417.539 227.896C417.539 227.896 415.639 228.496 412.639 229.196C409.639 229.896 405.539 230.896 401.439 231.496C393.139 232.896 384.539 233.496 384.539 233.496Z" fill="#FAF6F0"/>
<path d="M372.138 211.096C372.138 211.096 371.238 209.196 370.338 207.296C369.838 206.396 369.438 205.396 369.038 204.696C368.738 203.996 368.538 203.496 368.538 203.496C368.538 203.496 370.638 203.596 373.838 203.696C377.038 203.796 381.238 203.896 385.338 203.996C389.538 203.996 393.638 203.996 396.738 203.896C399.838 203.796 401.938 203.696 401.938 203.696C401.938 203.696 402.838 205.396 403.638 206.996C404.438 208.696 405.438 210.196 405.438 210.196C405.438 210.196 403.338 210.396 400.238 210.596C397.138 210.796 393.038 210.996 388.838 211.096C384.638 211.196 380.438 211.196 377.238 211.096C374.238 211.196 372.138 211.096 372.138 211.096Z" fill="#FAF6F0"/>
<path d="M362.039 188.796L358.839 181.396C358.839 181.396 367.139 181.896 375.539 182.396C379.739 182.596 383.839 182.796 386.939 182.996C390.039 183.096 392.139 183.196 392.139 183.196L395.339 190.296C395.339 190.296 387.039 190.096 378.739 189.696C370.339 189.196 362.039 188.796 362.039 188.796Z" fill="#FAF6F0"/>
<path d="M352.638 167.096C352.638 167.096 352.438 166.596 352.138 165.996C351.838 165.296 351.438 164.496 351.038 163.596C350.238 161.896 349.438 160.096 349.438 160.096C349.438 160.096 357.738 160.096 366.038 160.496C374.338 160.896 382.739 161.396 382.739 161.396L385.938 168.796C385.938 168.796 377.639 168.296 369.239 167.796C360.839 167.396 352.638 167.096 352.638 167.096Z" fill="#FAF6F0"/>
<path d="M342.638 146.696C342.638 146.696 341.738 145.096 340.838 143.496C340.338 142.696 339.938 141.896 339.638 141.296C339.338 140.696 339.038 140.296 339.038 140.296C339.038 140.296 339.538 140.196 340.438 140.096C341.338 139.996 342.638 139.896 344.138 139.696C347.238 139.396 351.338 139.096 355.538 138.896C357.638 138.796 359.738 138.696 361.738 138.696C363.738 138.696 365.538 138.696 367.038 138.696C370.238 138.696 372.338 138.796 372.338 138.796C372.338 138.796 373.338 140.696 374.238 142.596C374.738 143.496 375.138 144.496 375.438 145.196C375.738 145.896 375.938 146.396 375.938 146.396C375.938 146.396 373.838 146.296 370.738 146.196C367.638 146.096 363.338 145.996 359.238 146.096C355.038 146.096 350.938 146.196 347.838 146.296C344.738 146.596 342.638 146.696 342.638 146.696Z" fill="#FAF6F0"/>
<path d="M331.139 128.896C331.139 128.896 330.839 128.596 330.439 127.996C330.039 127.496 329.539 126.796 328.939 126.196C327.839 124.996 326.639 123.796 326.639 123.796C326.639 123.796 328.539 123.096 331.439 122.096C332.939 121.596 334.639 121.096 336.539 120.496C338.439 119.996 340.339 119.496 342.439 119.096C346.439 118.196 350.639 117.596 353.839 117.096C355.439 116.896 356.739 116.696 357.739 116.596C358.639 116.496 359.139 116.496 359.139 116.496L364.039 123.996C364.039 123.996 355.439 124.396 347.239 125.496C343.139 125.996 338.939 126.896 336.039 127.596C333.039 128.396 331.139 128.896 331.139 128.896Z" fill="#FAF6F0"/>
<path d="M316.138 113.696C316.138 113.696 314.738 112.396 313.338 111.096C312.638 110.496 311.938 109.796 311.438 109.296C310.838 108.796 310.538 108.496 310.538 108.496C310.538 108.496 312.438 107.696 315.338 106.396C318.138 105.196 321.938 103.596 325.838 102.096C333.538 98.9959 341.538 96.2959 341.538 96.2959C341.538 96.2959 343.138 97.6959 344.638 99.0959C345.438 99.8959 346.238 100.796 346.838 101.396C347.438 101.996 347.838 102.496 347.838 102.496C347.838 102.496 345.738 102.996 342.638 103.796C339.638 104.596 335.638 106.096 331.638 107.496C323.738 110.596 316.138 113.696 316.138 113.696Z" fill="#FAF6F0"/>
<path d="M298.638 98.8959C298.638 98.8959 297.138 97.6959 295.538 96.4959C293.938 95.2959 292.438 94.0959 292.438 94.0959C292.438 94.0959 294.338 93.1959 297.138 91.7959C299.938 90.4959 303.738 88.5959 307.538 86.8959C315.038 83.3959 322.839 80.0959 322.839 80.0959L329.239 85.3959C329.239 85.3959 321.439 88.5959 313.739 91.9959C306.039 95.2959 298.638 98.8959 298.638 98.8959Z" fill="#FAF6F0"/>
<path d="M280.138 84.596L273.738 79.796C273.738 79.796 281.138 75.996 288.638 72.296C296.138 68.496 303.638 64.896 303.638 64.896L310.138 69.896C310.138 69.896 302.538 73.496 295.038 77.096C287.638 80.796 280.138 84.596 280.138 84.596Z" fill="#FAF6F0"/>
<path d="M261.039 70.396L254.639 65.596L284.339 50.496L290.839 55.296L261.039 70.396Z" fill="#FAF6F0"/>
<path d="M241.839 55.996C241.839 55.996 240.239 54.796 238.539 53.496C236.939 52.296 235.339 50.996 235.339 50.996C235.339 50.996 237.239 50.096 240.039 48.796C242.839 47.396 246.639 45.596 250.439 43.796C257.939 40.096 265.339 36.396 265.339 36.396L271.639 41.196C271.639 41.196 264.239 44.896 256.739 48.696C249.339 52.296 241.839 55.996 241.839 55.996Z" fill="#FAF6F0"/>
<path d="M222.639 40.896C222.639 40.896 221.039 39.596 219.439 38.196C217.839 36.796 216.339 35.496 216.339 35.496C216.339 35.496 218.239 34.696 221.139 33.496C224.039 32.296 227.839 30.696 231.639 28.996C239.339 25.596 246.839 21.996 246.839 21.996L252.939 26.896C252.939 26.896 245.539 30.496 237.939 33.996C230.439 37.496 222.639 40.896 222.639 40.896Z" fill="#FAF6F0"/>
<path d="M202.839 22.896C202.839 22.896 201.638 21.496 200.438 19.996C199.838 19.296 199.238 18.596 198.738 17.996C198.238 17.496 197.938 17.096 197.938 17.096C197.938 17.096 199.938 16.496 202.938 15.696C205.938 14.896 209.938 13.896 214.038 12.996C216.038 12.496 218.238 12.196 219.738 11.296C220.538 10.896 221.438 10.496 222.138 9.99597C222.938 9.59597 223.738 9.29597 224.438 8.99597C227.338 7.79597 229.238 6.99597 229.238 6.99597L235.038 12.096C235.038 12.096 227.438 15.396 219.638 18.496C217.738 19.296 215.738 19.996 213.938 20.796C213.038 21.096 212.138 21.496 211.238 21.796C210.238 21.996 209.338 22.196 208.438 22.296C206.638 22.296 204.838 21.996 204.138 22.396C203.338 22.696 202.839 22.896 202.839 22.896Z" fill="#FAF6F0"/>
<path d="M544.338 399.496C544.338 399.496 542.038 399.396 539.738 399.196C537.438 398.996 535.038 398.696 535.038 398.696C535.038 398.696 536.338 396.896 538.238 394.096C540.138 391.396 542.438 387.696 544.638 383.896C546.838 380.196 548.938 376.296 550.338 373.396C551.838 370.496 552.738 368.596 552.738 368.596C552.738 368.596 554.738 368.596 556.638 368.696C558.638 368.696 560.638 368.696 560.638 368.696C560.638 368.696 557.038 376.496 553.038 384.296C551.038 388.196 548.838 391.996 547.138 394.796C545.538 397.696 544.338 399.496 544.338 399.496Z" fill="#FAF6F0"/>
<path d="M516.439 395.096C516.439 395.096 515.839 394.896 514.939 394.596C514.039 394.296 512.839 393.996 511.639 393.496C510.439 393.096 509.239 392.596 508.339 392.296C507.439 391.996 506.839 391.696 506.839 391.696C506.839 391.696 507.339 391.396 508.139 390.796C508.939 390.196 510.039 389.296 511.339 388.196C512.639 387.096 514.139 385.796 515.639 384.496C517.139 383.096 518.739 381.496 520.239 379.896C523.239 376.796 525.939 373.296 527.839 370.796C529.739 368.296 530.939 366.496 530.939 366.496C530.939 366.496 532.639 366.796 534.439 367.096C536.239 367.396 538.039 367.596 538.039 367.596C538.039 367.596 536.939 369.396 535.239 372.096C533.539 374.796 531.139 378.396 528.439 381.796C525.739 385.296 522.939 388.596 520.539 390.996C519.339 392.196 518.339 393.196 517.639 393.896C516.839 394.696 516.439 395.096 516.439 395.096Z" fill="#FAF6F0"/>
<path d="M489.439 381.896L482.639 377.196C482.639 377.196 490.339 373.096 498.039 368.896C499.939 367.896 501.939 366.796 503.739 365.896C505.539 364.896 507.039 363.796 508.339 362.896C509.639 361.996 510.639 361.196 511.339 360.696C512.039 360.096 512.439 359.796 512.439 359.796C512.439 359.796 513.739 360.496 515.139 361.296C516.539 361.996 518.039 362.596 518.039 362.596C518.039 362.596 516.639 364.096 514.339 366.296C511.939 368.496 508.739 371.096 505.039 373.596C501.339 376.096 497.439 377.996 494.239 379.496C492.739 380.196 491.539 380.896 490.739 381.296C489.939 381.696 489.439 381.896 489.439 381.896Z" fill="#FAF6F0"/>
<path d="M469.338 367.896L462.538 363.196C462.538 363.196 470.138 358.996 477.738 354.696C485.438 350.496 493.038 346.396 493.038 346.396L500.038 351.296C500.038 351.296 492.338 355.396 484.638 359.596C477.038 363.696 469.338 367.896 469.338 367.896Z" fill="#FAF6F0"/>
<path d="M448.938 353.896L441.938 349.196L472.438 332.196L479.438 336.896L448.938 353.896Z" fill="#FAF6F0"/>
<path d="M428.339 339.896L421.339 335.096C421.339 335.096 429.039 330.896 436.639 326.696C444.239 322.496 451.839 318.196 451.839 318.196L458.739 322.896C458.739 322.896 451.139 327.196 443.539 331.396C435.939 335.696 428.339 339.896 428.339 339.896Z" fill="#FAF6F0"/>
<path d="M407.738 325.596C407.738 325.596 406.038 324.396 404.238 323.196C403.338 322.596 402.538 321.996 401.838 321.496C401.238 320.996 400.738 320.696 400.738 320.696C400.738 320.696 402.638 319.696 405.538 318.196C408.438 316.696 412.338 314.596 416.138 312.496C423.838 308.296 431.538 304.196 431.538 304.196L438.338 308.896C438.338 308.896 430.638 313.096 423.038 317.296C415.538 321.396 407.738 325.596 407.738 325.596Z" fill="#FAF6F0"/>
<path d="M387.438 310.596L380.538 305.496C380.538 305.496 388.438 301.696 396.238 297.796C404.038 293.896 411.738 289.896 411.738 289.896L418.338 294.796C418.338 294.796 410.738 298.796 402.938 302.796C395.338 306.696 387.438 310.596 387.438 310.596Z" fill="#FAF6F0"/>
<path d="M366.239 293.496C366.239 293.496 364.539 291.796 362.839 289.996C362.039 289.096 361.339 288.196 360.739 287.496C360.139 286.796 359.839 286.296 359.839 286.296C359.839 286.296 362.039 285.896 365.239 285.296C368.439 284.696 372.839 283.496 377.039 282.196C379.139 281.496 381.139 280.796 383.039 280.096C384.939 279.396 386.639 278.796 387.939 277.996C389.339 277.296 390.139 276.296 390.939 275.896C391.839 275.496 392.339 275.196 392.339 275.196L398.939 280.096C398.939 280.096 391.139 283.996 383.239 287.796C382.239 288.296 381.239 288.696 380.239 289.196C379.239 289.596 378.139 290.096 377.139 290.296C375.139 290.896 373.239 291.396 371.739 291.896C368.439 292.996 366.239 293.496 366.239 293.496Z" fill="#FAF6F0"/>
<path d="M348.938 271.596C348.938 271.596 348.638 271.096 348.138 270.396C347.738 269.696 347.138 268.696 346.538 267.696C345.338 265.696 344.238 263.796 344.238 263.796C344.238 263.796 353.238 263.596 361.738 262.696C370.538 261.796 378.838 259.996 378.838 259.996C378.838 259.996 379.138 260.396 379.538 260.996C379.938 261.596 380.538 262.296 381.038 262.996C382.138 264.396 383.338 265.796 383.338 265.796C383.338 265.796 381.338 266.396 378.238 267.196C375.138 267.996 370.738 268.996 366.538 269.596C358.038 270.996 348.938 271.596 348.938 271.596Z" fill="#FAF6F0"/>
<path d="M336.038 248.296C336.038 248.296 335.038 246.296 334.138 244.296C333.638 243.296 333.238 242.296 332.838 241.596C332.538 240.896 332.238 240.396 332.238 240.396C332.238 240.396 334.438 240.496 337.738 240.596C341.038 240.696 345.438 240.796 349.738 240.896C354.038 240.896 358.438 240.896 361.638 240.796C364.838 240.696 367.038 240.596 367.038 240.596C367.038 240.596 367.938 242.296 368.838 244.096C369.738 245.896 370.738 247.496 370.738 247.496C370.738 247.496 368.638 247.696 365.338 247.996C362.138 248.196 357.838 248.396 353.438 248.496C349.038 248.596 344.638 248.596 341.338 248.496C338.238 248.296 336.038 248.296 336.038 248.296Z" fill="#FAF6F0"/>
<path d="M325.538 224.996L322.238 217.296C322.238 217.296 330.938 217.796 339.638 218.296C343.938 218.496 348.338 218.796 351.638 218.896C354.938 218.996 357.038 219.096 357.038 219.096L360.338 226.496C360.338 226.496 351.738 226.296 342.938 225.896C334.238 225.496 325.538 224.996 325.538 224.996Z" fill="#FAF6F0"/>
<path d="M315.739 202.396C315.739 202.396 315.539 201.896 315.239 201.196C314.939 200.496 314.539 199.596 314.039 198.696C313.239 196.896 312.339 194.996 312.339 194.996C312.339 194.996 320.939 194.996 329.739 195.396C338.439 195.796 347.139 196.296 347.139 196.296L350.539 204.096C350.539 204.096 341.839 203.596 333.139 203.096C324.339 202.696 315.739 202.396 315.739 202.396Z" fill="#FAF6F0"/>
<path d="M305.338 181.196C305.338 181.196 304.438 179.496 303.438 177.896C302.938 177.096 302.538 176.196 302.138 175.596C301.838 174.996 301.538 174.596 301.538 174.596C301.538 174.596 302.038 174.496 303.038 174.396C303.938 174.296 305.338 174.196 306.838 173.996C310.038 173.696 314.338 173.396 318.738 173.196C320.938 173.096 323.138 172.996 325.238 172.996C327.238 172.996 329.238 172.996 330.838 172.996C334.138 172.996 336.338 173.096 336.338 173.096C336.338 173.096 337.338 175.096 338.338 177.096C338.838 178.096 339.338 179.096 339.638 179.796C339.938 180.496 340.238 180.996 340.238 180.996C340.238 180.996 338.038 180.896 334.738 180.796C331.438 180.696 327.038 180.596 322.638 180.596C318.238 180.596 313.938 180.696 310.738 180.796C307.538 180.996 305.338 181.196 305.338 181.196Z" fill="#FAF6F0"/>
<path d="M293.339 162.596C293.339 162.596 293.039 162.196 292.639 161.696C292.239 161.196 291.739 160.396 291.039 159.796C289.839 158.496 288.639 157.296 288.639 157.296C288.639 157.296 290.539 156.496 293.639 155.496C295.139 154.996 296.939 154.396 298.939 153.896C300.939 153.296 302.939 152.896 305.039 152.396C309.239 151.496 313.639 150.796 316.939 150.296C318.639 150.096 320.039 149.896 321.039 149.796C322.039 149.696 322.539 149.596 322.539 149.596L327.639 157.396C327.639 157.396 318.639 157.796 310.039 158.996C305.739 159.496 301.439 160.496 298.339 161.196C295.339 162.096 293.339 162.596 293.339 162.596Z" fill="#FAF6F0"/>
<path d="M277.738 146.796C277.738 146.796 276.238 145.396 274.738 144.096C274.038 143.396 273.238 142.696 272.738 142.196C272.138 141.696 271.738 141.396 271.738 141.396C271.738 141.396 273.738 140.496 276.738 139.196C279.738 137.896 283.638 136.296 287.738 134.696C295.838 131.496 304.238 128.596 304.238 128.596C304.238 128.596 305.838 130.096 307.438 131.596C308.238 132.396 309.138 133.396 309.738 133.996C310.338 134.696 310.738 135.096 310.738 135.096C310.738 135.096 308.538 135.596 305.338 136.496C302.138 137.296 298.038 138.896 293.838 140.396C285.638 143.496 277.738 146.796 277.738 146.796Z" fill="#FAF6F0"/>
<path d="M259.538 131.296C259.538 131.296 258.038 129.996 256.338 128.796C254.738 127.496 253.038 126.296 253.038 126.296C253.038 126.296 255.038 125.296 257.938 123.896C260.838 122.496 264.838 120.596 268.738 118.796C276.638 115.196 284.738 111.696 284.738 111.696L291.438 117.196C291.438 117.196 283.238 120.496 275.238 124.096C267.238 127.596 259.538 131.296 259.538 131.296Z" fill="#FAF6F0"/>
<path d="M240.238 116.396L233.538 111.396C233.538 111.396 241.338 107.496 249.138 103.496C256.938 99.4959 264.838 95.7959 264.838 95.7959L271.638 100.996C271.638 100.996 263.638 104.696 255.838 108.496C247.938 112.496 240.238 116.396 240.238 116.396Z" fill="#FAF6F0"/>
<path d="M220.338 101.696L213.538 96.6959L244.638 80.7959L251.438 85.8959L220.338 101.696Z" fill="#FAF6F0"/>
<path d="M200.238 86.596C200.238 86.596 198.539 85.296 196.839 83.996C195.139 82.696 193.438 81.396 193.438 81.396C193.438 81.396 195.439 80.496 198.339 79.096C201.339 77.696 205.238 75.796 209.138 73.896C216.938 69.996 224.738 66.0959 224.738 66.0959L231.339 71.0959C231.339 71.0959 223.539 74.996 215.839 78.896C208.139 82.796 200.238 86.596 200.238 86.596Z" fill="#FAF6F0"/>
<path d="M180.338 70.896C180.338 70.896 178.638 69.5959 177.038 68.0959C175.438 66.6959 173.738 65.196 173.738 65.196C173.738 65.196 175.738 64.3959 178.838 63.0959C181.838 61.7959 185.838 60.196 189.838 58.396C197.838 54.796 205.738 51.0959 205.738 51.0959L212.138 56.196C212.138 56.196 204.338 59.9959 196.438 63.5959C188.438 67.3959 180.338 70.896 180.338 70.896Z" fill="#FAF6F0"/>
<path d="M159.639 52.0959C159.639 52.0959 158.439 50.5959 157.139 49.0959C156.539 48.2959 155.839 47.5959 155.439 46.9959C154.939 46.3959 154.639 46.0959 154.639 46.0959C154.639 46.0959 156.739 45.4959 159.839 44.6959C162.939 43.8959 167.139 42.7959 171.439 41.7959C173.539 41.2959 175.839 40.9959 177.439 40.0959C178.339 39.6959 179.139 39.1959 179.939 38.7959C180.739 38.3959 181.639 38.0959 182.339 37.7959C185.339 36.5959 187.339 35.6959 187.339 35.6959L193.439 40.9959C193.439 40.9959 185.539 44.4959 177.439 47.6959C175.439 48.4959 173.339 49.2959 171.439 50.0959C170.439 50.4959 169.539 50.7959 168.639 51.0959C167.639 51.2959 166.639 51.4959 165.739 51.6959C163.839 51.6959 161.939 51.3959 161.239 51.7959C160.139 51.9959 159.639 52.0959 159.639 52.0959Z" fill="#FAF6F0"/>
<path d="M144.038 34.5959C144.038 34.5959 143.738 34.1959 143.138 33.6959C142.638 33.1959 141.838 32.3959 141.138 31.6959C139.738 30.2959 138.238 28.7959 138.238 28.7959C138.238 28.7959 146.338 25.8959 154.738 23.1959C163.038 20.5959 171.538 18.1959 171.538 18.1959C171.538 18.1959 171.938 18.5959 172.438 19.1959C173.038 19.7959 173.738 20.5959 174.438 21.4959C175.938 23.1959 177.438 24.7959 177.438 24.7959C177.438 24.7959 168.838 26.7959 160.438 29.2959C152.138 31.8959 144.038 34.5959 144.038 34.5959Z" fill="#FAF6F0"/>
<path d="M126.739 17.796L120.639 12.0959C120.639 12.0959 128.839 8.99596 136.939 5.99596C145.139 2.99596 153.439 0.0959473 153.439 0.0959473C153.439 0.0959473 155.039 1.59595 156.539 3.09595C158.139 4.59595 159.639 6.09595 159.639 6.09595C159.639 6.09595 157.539 6.79596 154.439 7.79596C151.339 8.89596 147.239 10.296 143.039 11.796C134.939 14.696 126.739 17.796 126.739 17.796Z" fill="#FAF6F0"/>
<path d="M544.038 442.996C544.038 442.996 541.738 443.096 539.538 443.096C537.238 443.196 534.938 443.196 534.938 443.196C534.938 443.196 536.038 441.196 537.538 438.096C539.038 434.996 541.038 430.896 542.938 426.796C546.738 418.496 550.339 410.196 550.339 410.196L559.038 409.796C559.038 409.796 555.338 418.096 551.638 426.396C548.038 434.796 544.038 442.996 544.038 442.996Z" fill="#FAF6F0"/>
<path d="M516.638 442.796C516.638 442.796 514.239 442.696 511.839 442.396C509.439 442.096 506.938 441.896 506.938 441.896C506.938 441.896 508.339 439.996 510.239 437.096C512.239 434.196 514.638 430.396 516.938 426.396C519.238 422.496 521.338 418.496 522.938 415.496C524.438 412.496 525.438 410.496 525.438 410.496C525.438 410.496 527.438 410.496 529.538 410.596C531.638 410.596 533.638 410.596 533.638 410.596C533.638 410.596 529.938 418.796 525.638 426.796C523.538 430.796 521.238 434.796 519.538 437.796C517.938 440.896 516.638 442.796 516.638 442.796Z" fill="#FAF6F0"/>
<path d="M487.738 438.196C487.738 438.196 487.138 437.996 486.138 437.696C485.238 437.396 483.938 437.096 482.638 436.596C481.338 436.096 480.138 435.696 479.138 435.296C478.238 434.996 477.538 434.696 477.538 434.696C477.538 434.696 478.038 434.396 478.838 433.696C479.638 433.096 480.838 432.096 482.238 430.996C483.638 429.896 485.138 428.496 486.738 427.096C488.338 425.596 489.938 423.996 491.538 422.296C494.638 418.996 497.438 415.396 499.438 412.796C501.438 410.196 502.638 408.296 502.638 408.296C502.638 408.296 504.438 408.696 506.338 408.996C508.238 409.296 510.138 409.496 510.138 409.496C510.138 409.496 509.038 411.396 507.238 414.196C505.438 417.096 502.938 420.796 500.138 424.396C497.338 428.096 494.338 431.496 491.938 433.996C490.738 435.296 489.638 436.296 488.938 436.996C488.138 437.796 487.738 438.196 487.738 438.196Z" fill="#FAF6F0"/>
<path d="M459.638 424.496L452.538 419.596C452.538 419.596 460.538 415.296 468.638 410.996C470.638 409.896 472.638 408.896 474.538 407.796C476.338 406.696 478.038 405.596 479.338 404.696C480.638 403.796 481.738 402.896 482.438 402.396C483.138 401.796 483.638 401.496 483.638 401.496C483.638 401.496 485.038 402.296 486.438 402.996C487.938 403.696 489.438 404.396 489.438 404.396C489.438 404.396 488.038 405.996 485.538 408.196C483.038 410.496 479.738 413.296 475.838 415.796C472.038 418.396 467.938 420.396 464.638 421.896C463.038 422.696 461.838 423.396 460.938 423.796C460.138 424.296 459.638 424.496 459.638 424.496Z" fill="#FAF6F0"/>
<path d="M438.739 409.896L431.639 404.996C431.639 404.996 439.539 400.596 447.539 396.196C455.539 391.796 463.539 387.496 463.539 387.496L470.839 392.596C470.839 392.596 462.839 396.896 454.739 401.196C446.639 405.596 438.739 409.896 438.739 409.896Z" fill="#FAF6F0"/>
<path d="M417.439 395.396L410.139 390.496L441.939 372.696L449.239 377.596L417.439 395.396Z" fill="#FAF6F0"/>
<path d="M396.038 380.796L388.738 375.696C388.738 375.696 396.738 371.296 404.738 366.996C412.638 362.596 420.638 358.196 420.638 358.196L427.838 363.096C427.838 363.096 419.938 367.496 411.938 371.996C404.038 376.396 396.038 380.796 396.038 380.796Z" fill="#FAF6F0"/>
<path d="M374.638 365.896C374.638 365.896 372.838 364.596 371.038 363.396C370.138 362.796 369.238 362.096 368.538 361.596C367.838 361.096 367.438 360.796 367.438 360.796C367.438 360.796 369.438 359.796 372.438 358.196C375.438 356.596 379.538 354.496 383.538 352.296C391.538 347.996 399.538 343.596 399.538 343.596L406.638 348.596C406.638 348.596 398.638 352.996 390.638 357.296C382.638 361.596 374.638 365.896 374.638 365.896Z" fill="#FAF6F0"/>
<path d="M353.438 350.296L346.238 344.896C346.238 344.896 354.538 340.896 362.638 336.896C370.838 332.796 378.838 328.696 378.838 328.696L385.738 333.896C385.738 333.896 377.838 338.096 369.738 342.196C361.638 346.296 353.438 350.296 353.438 350.296Z" fill="#FAF6F0"/>
<path d="M331.439 332.496C331.439 332.496 329.639 330.696 327.839 328.896C326.939 327.996 326.239 326.996 325.639 326.296C325.039 325.596 324.639 325.096 324.639 325.096C324.639 325.096 326.939 324.696 330.339 323.996C333.639 323.296 338.339 322.096 342.639 320.696C344.839 319.996 346.939 319.296 348.939 318.596C350.939 317.896 352.739 317.196 354.039 316.396C355.439 315.696 356.339 314.596 357.239 314.196C358.139 313.796 358.639 313.496 358.639 313.496L365.539 318.596C365.539 318.596 357.439 322.696 349.139 326.596C348.139 327.096 347.039 327.596 346.039 328.096C345.039 328.496 343.839 328.996 342.839 329.296C340.739 329.896 338.839 330.496 337.139 330.996C333.739 331.896 331.439 332.496 331.439 332.496Z" fill="#FAF6F0"/>
<path d="M313.438 309.696C313.438 309.696 313.038 309.196 312.638 308.396C312.138 307.596 311.538 306.596 310.938 305.596C309.738 303.496 308.538 301.496 308.538 301.496C308.538 301.496 317.838 301.296 326.838 300.396C336.038 299.396 344.638 297.596 344.638 297.596C344.638 297.596 344.938 297.996 345.338 298.596C345.738 299.196 346.338 299.996 346.938 300.696C348.138 302.196 349.338 303.596 349.338 303.596C349.338 303.596 347.238 304.196 343.938 305.096C340.738 305.896 336.138 306.996 331.738 307.596C322.838 309.096 313.438 309.696 313.438 309.696Z" fill="#FAF6F0"/>
<path d="M300.038 285.396C300.038 285.396 299.038 283.296 298.038 281.296C297.538 280.296 297.038 279.196 296.638 278.496C296.238 277.696 296.038 277.196 296.038 277.196C296.038 277.196 298.338 277.296 301.738 277.396C305.138 277.496 309.738 277.696 314.338 277.696C318.838 277.696 323.338 277.696 326.838 277.596C330.238 277.496 332.438 277.396 332.438 277.396C332.438 277.396 333.338 279.196 334.338 280.996C335.238 282.796 336.338 284.496 336.338 284.496C336.338 284.496 334.138 284.696 330.738 284.996C327.438 285.196 322.938 285.396 318.338 285.496C313.838 285.596 309.138 285.596 305.738 285.496C302.238 285.496 300.038 285.396 300.038 285.396Z" fill="#FAF6F0"/>
<path d="M289.038 261.196L285.538 253.096C285.538 253.096 294.638 253.596 303.738 254.096C308.238 254.296 312.838 254.596 316.238 254.796C319.638 254.896 321.938 254.996 321.938 254.996L325.438 262.796C325.438 262.796 316.438 262.596 307.338 262.196C298.138 261.696 289.038 261.196 289.038 261.196Z" fill="#FAF6F0"/>
<path d="M278.839 237.696C278.839 237.696 278.639 237.196 278.339 236.496C278.039 235.796 277.539 234.796 277.139 233.896C276.239 231.996 275.339 230.096 275.339 230.096C275.339 230.096 284.339 230.096 293.439 230.496C302.539 230.896 311.639 231.496 311.639 231.496L315.139 239.596C315.139 239.596 306.039 239.096 296.939 238.596C287.839 237.996 278.839 237.696 278.839 237.696Z" fill="#FAF6F0"/>
<path d="M268.038 215.696C268.038 215.696 267.038 213.996 266.038 212.196C265.538 211.296 265.038 210.496 264.638 209.796C264.238 209.096 264.038 208.696 264.038 208.696C264.038 208.696 264.638 208.596 265.538 208.496C266.538 208.396 267.938 208.296 269.538 208.096C272.838 207.796 277.338 207.496 281.938 207.296C284.238 207.196 286.538 207.096 288.638 207.096C290.738 207.096 292.738 207.096 294.438 207.096C297.838 207.096 300.138 207.196 300.138 207.196C300.138 207.196 301.138 209.296 302.238 211.396C302.738 212.396 303.238 213.496 303.638 214.196C304.038 214.996 304.238 215.496 304.238 215.496C304.238 215.496 301.938 215.396 298.538 215.296C295.138 215.196 290.438 215.096 285.938 215.096C281.338 215.096 276.838 215.196 273.538 215.396C270.338 215.496 268.038 215.696 268.038 215.696Z" fill="#FAF6F0"/>
<path d="M255.538 196.296C255.538 196.296 255.238 195.896 254.838 195.396C254.438 194.796 253.838 194.096 253.238 193.396C252.038 192.096 250.738 190.696 250.738 190.696C250.738 190.696 252.738 189.896 255.938 188.796C257.538 188.296 259.438 187.696 261.438 187.096C263.538 186.496 265.638 186.096 267.838 185.596C272.238 184.696 276.838 183.896 280.338 183.496C282.138 183.296 283.538 183.096 284.538 182.996C285.538 182.896 286.138 182.796 286.138 182.796L291.438 190.996C291.438 190.996 282.038 191.396 273.138 192.696C268.738 193.296 264.138 194.196 260.938 194.996C257.638 195.796 255.538 196.296 255.538 196.296Z" fill="#FAF6F0"/>
<path d="M239.339 179.896C239.339 179.896 237.839 178.496 236.239 177.096C235.439 176.396 234.739 175.696 234.139 175.196C233.539 174.696 233.139 174.396 233.139 174.396C233.139 174.396 235.239 173.496 238.339 172.196C241.439 170.896 245.539 169.196 249.839 167.496C258.239 164.196 267.039 161.096 267.039 161.096C267.039 161.096 268.739 162.596 270.439 164.196C271.339 165.096 272.239 165.996 272.839 166.696C273.539 167.396 273.939 167.896 273.939 167.896C273.939 167.896 271.639 168.396 268.339 169.296C265.039 170.096 260.639 171.796 256.339 173.396C247.639 176.396 239.339 179.896 239.339 179.896Z" fill="#FAF6F0"/>
<path d="M220.339 163.696C220.339 163.696 218.739 162.296 217.039 160.996C215.339 159.696 213.639 158.396 213.639 158.396C213.639 158.396 215.639 157.396 218.739 155.896C221.839 154.396 225.939 152.396 230.039 150.496C238.239 146.696 246.639 143.096 246.639 143.096L253.639 148.896C253.639 148.896 245.039 152.396 236.739 156.096C228.439 159.896 220.339 163.696 220.339 163.696Z" fill="#FAF6F0"/>
<path d="M200.238 148.296L193.238 143.096C193.238 143.096 201.338 138.996 209.438 134.896C217.538 130.796 225.738 126.896 225.738 126.896L232.838 132.396C232.838 132.396 224.538 136.296 216.338 140.296C208.338 144.096 200.238 148.296 200.238 148.296Z" fill="#FAF6F0"/>
<path d="M179.638 132.896L172.538 127.696L204.938 111.196L212.038 116.496L179.638 132.896Z" fill="#FAF6F0"/>
<path d="M158.738 117.296C158.738 117.296 156.938 115.996 155.238 114.596C153.438 113.296 151.738 111.896 151.738 111.896C151.738 111.896 153.838 110.896 156.938 109.496C160.038 107.996 164.138 105.996 168.238 103.996C176.338 99.996 184.538 95.896 184.538 95.896L191.438 101.096C191.438 101.096 183.338 105.196 175.238 109.296C166.838 113.296 158.738 117.296 158.738 117.296Z" fill="#FAF6F0"/>
<path d="M137.938 100.896C137.938 100.896 136.138 99.496 134.438 97.996C132.738 96.496 131.038 94.996 131.038 94.996C131.038 94.996 133.138 94.096 136.338 92.896C139.538 91.596 143.638 89.896 147.838 87.996C156.238 84.296 164.438 80.396 164.438 80.396L171.038 85.696C171.038 85.696 162.938 89.596 154.638 93.396C146.438 97.196 137.938 100.896 137.938 100.896Z" fill="#FAF6F0"/>
<path d="M116.439 81.2958C116.439 81.2958 115.139 79.6958 113.839 78.1958C113.139 77.3958 112.539 76.5958 112.039 75.9958C111.539 75.3958 111.139 74.9958 111.139 74.9958C111.139 74.9958 113.339 74.3958 116.539 73.4958C119.739 72.5958 124.139 71.4958 128.639 70.4958C130.839 69.9958 133.239 69.6958 134.839 68.6958C135.739 68.1958 136.639 67.7959 137.439 67.2959C138.239 66.8959 139.239 66.5958 139.939 66.1958C143.139 64.8958 145.239 63.9958 145.239 63.9958L151.539 69.4958C151.539 69.4958 143.339 73.0958 134.839 76.4958C132.739 77.2958 130.539 78.1958 128.539 78.9958C127.539 79.3958 126.539 79.7958 125.639 80.0958C124.639 80.2958 123.539 80.4958 122.539 80.6958C120.539 80.6958 118.639 80.2958 117.839 80.7958C116.939 81.1958 116.439 81.2958 116.439 81.2958Z" fill="#FAF6F0"/>
<path d="M100.138 63.1959C100.138 63.1959 99.7383 62.7959 99.2383 62.2959C98.6383 61.6959 97.9383 60.9959 97.2383 60.2959C95.7383 58.7959 94.2383 57.2959 94.2383 57.2959C94.2383 57.2959 102.738 54.2959 111.438 51.4959C120.038 48.7959 128.938 46.2959 128.938 46.2959C128.938 46.2959 129.338 46.6959 129.938 47.3959C130.538 47.9959 131.238 48.8959 132.038 49.7959C133.538 51.4959 135.138 53.2959 135.138 53.2959C135.138 53.2959 126.138 55.3959 117.438 57.8959C108.738 60.2959 100.138 63.1959 100.138 63.1959Z" fill="#FAF6F0"/>
<path d="M82.2385 45.5959L75.9385 39.696C75.9385 39.696 84.4385 36.496 92.9385 33.296C101.438 30.096 110.138 27.0959 110.138 27.0959C110.138 27.0959 111.739 28.696 113.339 30.196C114.939 31.696 116.538 33.396 116.538 33.396C116.538 33.396 114.338 34.096 111.138 35.196C107.938 36.296 103.638 37.796 99.2385 39.296C90.7385 42.396 82.2385 45.5959 82.2385 45.5959Z" fill="#FAF6F0"/>
<path d="M63.3389 28.0959L56.8389 21.9959C56.8389 21.9959 65.3388 18.7959 73.9388 15.6959C82.4388 12.4959 90.9388 9.2959 90.9388 9.2959L97.4388 15.2959L63.3389 28.0959Z" fill="#FAF6F0"/>
<path d="M458.938 481.296C458.938 481.296 458.238 481.096 457.338 480.796C456.338 480.496 455.038 480.196 453.738 479.596C452.438 479.096 451.138 478.596 450.138 478.296C449.138 477.896 448.538 477.696 448.538 477.696C448.538 477.696 449.038 477.396 449.938 476.696C450.838 475.996 452.038 475.096 453.438 473.896C454.838 472.696 456.438 471.296 458.138 469.796C459.838 468.196 461.438 466.496 463.138 464.796C466.338 461.396 469.338 457.696 471.338 454.896C473.338 452.096 474.638 450.196 474.638 450.196C474.638 450.196 476.538 450.596 478.438 450.896C480.438 451.196 482.338 451.496 482.338 451.496C482.338 451.496 481.238 453.496 479.338 456.396C477.438 459.396 474.838 463.196 471.938 466.996C469.038 470.796 465.938 474.396 463.338 476.996C462.038 478.296 461.038 479.396 460.238 480.196C459.438 480.896 458.938 481.296 458.938 481.296Z" fill="#FAF6F0"/>
<path d="M429.739 467.096L422.339 461.896C422.339 461.896 430.739 457.396 439.039 452.896C441.139 451.796 443.239 450.696 445.239 449.596C447.139 448.496 448.839 447.396 450.239 446.396C451.639 445.396 452.739 444.596 453.539 443.996C454.339 443.396 454.739 442.996 454.739 442.996C454.739 442.996 456.239 443.796 457.639 444.596C459.239 445.296 460.739 445.996 460.739 445.996C460.739 445.996 459.239 447.596 456.739 449.996C454.139 452.396 450.639 455.296 446.639 457.896C442.639 460.596 438.439 462.696 434.939 464.296C433.239 465.096 432.039 465.796 431.039 466.296C430.339 466.796 429.739 467.096 429.739 467.096Z" fill="#FAF6F0"/>
<path d="M408.039 451.996L400.639 446.896C400.639 446.896 408.939 442.296 417.139 437.696C425.439 433.196 433.839 428.596 433.839 428.596L441.439 433.896C441.439 433.896 433.039 438.396 424.739 442.896C416.339 447.396 408.039 451.996 408.039 451.996Z" fill="#FAF6F0"/>
<path d="M385.938 436.896L378.438 431.696L411.538 413.196L419.038 418.296L385.938 436.896Z" fill="#FAF6F0"/>
<path d="M363.739 421.696L356.139 416.396C356.139 416.396 364.439 411.896 372.739 407.296C381.039 402.696 389.239 398.096 389.239 398.096L396.739 403.196C396.739 403.196 388.439 407.796 380.139 412.496C372.039 417.096 363.739 421.696 363.739 421.696Z" fill="#FAF6F0"/>
<path d="M341.439 406.196C341.439 406.196 339.539 404.896 337.639 403.596C336.739 402.996 335.739 402.296 335.039 401.696C334.339 401.196 333.839 400.796 333.839 400.796C333.839 400.796 335.939 399.696 339.039 398.096C342.239 396.396 346.439 394.196 350.639 391.996C359.039 387.496 367.339 382.996 367.339 382.996L374.739 388.196C374.739 388.196 366.439 392.696 358.139 397.296C349.839 401.696 341.439 406.196 341.439 406.196Z" fill="#FAF6F0"/>
<path d="M319.438 389.996L312.038 384.396C312.038 384.396 320.638 380.296 329.138 375.996C337.638 371.796 345.938 367.396 345.938 367.396L353.138 372.796C353.138 372.796 344.838 377.196 336.438 381.496C328.038 385.796 319.438 389.996 319.438 389.996Z" fill="#FAF6F0"/>
<path d="M296.639 371.496C296.639 371.496 294.739 369.596 292.939 367.696C292.039 366.696 291.239 365.696 290.639 364.996C290.039 364.196 289.639 363.696 289.639 363.696C289.639 363.696 292.039 363.296 295.539 362.596C298.939 361.896 303.839 360.596 308.339 359.196C310.639 358.496 312.839 357.696 314.839 356.996C316.839 356.196 318.839 355.596 320.139 354.696C321.639 353.896 322.439 352.896 323.439 352.396C324.339 351.896 324.939 351.696 324.939 351.696L332.139 357.096C332.139 357.096 323.639 361.296 315.039 365.496C313.939 365.996 312.839 366.496 311.839 366.996C310.739 367.496 309.539 367.896 308.439 368.196C306.239 368.796 304.239 369.396 302.539 369.896C299.039 370.896 296.639 371.496 296.639 371.496Z" fill="#FAF6F0"/>
<path d="M277.839 347.796C277.839 347.796 277.439 347.296 277.039 346.496C276.539 345.696 275.939 344.596 275.339 343.596C274.039 341.496 272.839 339.296 272.839 339.296C272.839 339.296 282.539 339.096 291.839 338.096C301.439 337.096 310.439 335.196 310.439 335.196C310.439 335.196 310.739 335.596 311.139 336.196C311.539 336.896 312.139 337.596 312.839 338.396C314.039 339.896 315.339 341.396 315.339 341.396C315.339 341.396 313.139 342.096 309.739 342.896C306.339 343.696 301.639 344.896 297.039 345.496C287.639 347.196 277.839 347.796 277.839 347.796Z" fill="#FAF6F0"/>
<path d="M263.939 322.596C263.939 322.596 262.939 320.396 261.839 318.296C261.339 317.196 260.839 316.096 260.439 315.296C260.039 314.496 259.839 313.996 259.839 313.996C259.839 313.996 262.239 314.096 265.839 314.296C269.439 314.396 274.239 314.596 278.939 314.596C283.639 314.696 288.339 314.696 291.939 314.496C295.439 314.396 297.839 314.296 297.839 314.296C297.839 314.296 298.839 316.196 299.839 318.096C300.839 319.996 301.939 321.796 301.939 321.796C301.939 321.796 299.639 321.996 296.039 322.296C292.539 322.496 287.839 322.696 283.139 322.796C278.439 322.896 273.539 322.896 270.039 322.796C266.339 322.696 263.939 322.596 263.939 322.596Z" fill="#FAF6F0"/>
<path d="M252.538 297.396L248.938 288.996C248.938 288.996 258.439 289.496 267.839 290.096C272.539 290.296 277.339 290.596 280.839 290.796C284.339 290.996 286.738 291.096 286.738 291.096L290.339 299.196C290.339 299.196 280.938 298.996 271.438 298.496C261.938 297.896 252.538 297.396 252.538 297.396Z" fill="#FAF6F0"/>
<path d="M241.938 272.996C241.938 272.996 241.738 272.496 241.338 271.696C241.038 270.996 240.538 269.996 240.038 268.996C239.138 266.996 238.238 264.996 238.238 264.996C238.238 264.996 247.638 264.996 257.138 265.496C266.538 265.896 276.138 266.496 276.138 266.496L279.738 274.896C279.738 274.896 270.238 274.396 260.838 273.796C251.338 273.296 241.938 272.996 241.938 272.996Z" fill="#FAF6F0"/>
<path d="M230.738 250.096C230.738 250.096 229.738 248.296 228.638 246.496C228.138 245.596 227.638 244.696 227.238 243.996C226.838 243.296 226.538 242.896 226.538 242.896C226.538 242.896 227.138 242.796 228.138 242.696C229.138 242.596 230.538 242.496 232.338 242.296C235.838 241.996 240.538 241.596 245.238 241.396C247.638 241.296 250.038 241.196 252.238 241.196C254.438 241.196 256.538 241.196 258.338 241.196C261.938 241.196 264.338 241.296 264.338 241.296C264.338 241.296 265.438 243.496 266.538 245.596C267.138 246.696 267.538 247.796 267.938 248.596C268.338 249.396 268.538 249.896 268.538 249.896C268.538 249.896 266.138 249.796 262.638 249.696C259.038 249.596 254.238 249.496 249.538 249.496C244.838 249.496 240.138 249.596 236.638 249.796C233.038 249.896 230.738 250.096 230.738 250.096Z" fill="#FAF6F0"/>
<path d="M217.738 230.096C217.738 230.096 217.438 229.696 217.038 229.096C216.638 228.496 216.038 227.696 215.338 227.096C214.038 225.696 212.738 224.296 212.738 224.296C212.738 224.296 214.838 223.496 218.138 222.396C219.838 221.896 221.738 221.196 223.938 220.596C226.138 219.996 228.338 219.496 230.638 218.996C235.238 217.996 239.938 217.196 243.638 216.796C245.438 216.596 247.038 216.396 248.038 216.296C249.038 216.196 249.638 216.096 249.638 216.096L255.138 224.596C255.138 224.596 245.338 224.996 236.038 226.296C231.438 226.896 226.638 227.896 223.338 228.696C219.938 229.396 217.738 230.096 217.738 230.096Z" fill="#FAF6F0"/>
<path d="M200.839 212.996C200.839 212.996 199.239 211.496 197.639 210.096C196.839 209.396 196.039 208.596 195.439 208.096C194.839 207.596 194.339 207.196 194.339 207.196C194.339 207.196 196.539 206.296 199.739 204.896C202.939 203.496 207.339 201.696 211.739 199.996C220.539 196.496 229.639 193.396 229.639 193.396C229.639 193.396 231.439 194.996 233.139 196.596C234.039 197.496 234.939 198.496 235.639 199.196C236.339 199.896 236.739 200.396 236.739 200.396C236.739 200.396 234.339 200.896 230.839 201.896C227.339 202.796 222.839 204.496 218.339 206.096C209.539 209.396 200.839 212.996 200.839 212.996Z" fill="#FAF6F0"/>
<path d="M181.139 196.196C181.139 196.196 179.439 194.796 177.639 193.396C175.839 191.996 174.139 190.696 174.139 190.696C174.139 190.696 176.239 189.696 179.439 188.096C182.639 186.596 186.939 184.496 191.239 182.496C199.739 178.596 208.539 174.796 208.539 174.796L215.839 180.796C215.839 180.796 206.939 184.396 198.239 188.296C189.639 192.196 181.139 196.196 181.139 196.196Z" fill="#FAF6F0"/>
<path d="M160.338 180.096L153.038 174.696C153.038 174.696 161.538 170.396 169.938 166.096C178.438 161.796 186.938 157.696 186.938 157.696L194.338 163.396C194.338 163.396 185.738 167.396 177.238 171.596C168.738 175.796 160.338 180.096 160.338 180.096Z" fill="#FAF6F0"/>
<path d="M138.839 164.196L131.438 158.696L165.339 141.496L172.638 146.996L138.839 164.196Z" fill="#FAF6F0"/>
<path d="M117.138 147.896C117.138 147.896 115.338 146.496 113.438 145.096C111.638 143.696 109.738 142.196 109.738 142.196C109.738 142.196 111.938 141.196 115.138 139.696C118.338 138.096 122.638 136.096 126.938 133.996C135.438 129.796 143.938 125.596 143.938 125.596L151.138 130.996C151.138 130.996 142.638 135.296 134.238 139.496C125.638 143.696 117.138 147.896 117.138 147.896Z" fill="#FAF6F0"/>
<path d="M95.5388 130.896C95.5388 130.896 93.7388 129.496 91.9388 127.896C90.1388 126.296 88.3389 124.796 88.3389 124.796C88.3389 124.796 90.5389 123.896 93.8389 122.596C97.1389 121.196 101.439 119.496 105.839 117.496C114.539 113.596 123.139 109.596 123.139 109.596L130.039 115.096C130.039 115.096 121.639 119.196 112.939 123.196C104.339 127.096 95.5388 130.896 95.5388 130.896Z" fill="#FAF6F0"/>
<path d="M73.2383 110.596C73.2383 110.596 71.8383 108.996 70.5383 107.296C69.8383 106.496 69.1383 105.696 68.6383 105.096C68.1383 104.496 67.7383 104.096 67.7383 104.096C67.7383 104.096 70.0383 103.496 73.4383 102.496C76.8383 101.596 81.3383 100.496 86.0383 99.396C88.3383 98.796 90.8383 98.496 92.5383 97.496C93.4383 96.996 94.4383 96.596 95.2383 96.096C96.1383 95.696 97.0383 95.296 97.8383 94.996C101.138 93.596 103.338 92.696 103.338 92.696L109.938 98.496C109.938 98.496 101.338 102.296 92.5383 105.796C90.3383 106.696 88.1383 107.496 86.0383 108.396C84.9383 108.796 84.0383 109.196 83.0383 109.496C81.9383 109.796 80.8383 109.996 79.8383 110.096C77.8383 110.196 75.7383 109.696 74.9383 110.196C73.7383 110.396 73.2383 110.596 73.2383 110.596Z" fill="#FAF6F0"/>
<path d="M56.3383 91.696C56.3383 91.696 55.9383 91.296 55.4383 90.696C54.8383 90.096 54.0383 89.296 53.3383 88.596C51.7383 86.996 50.2383 85.496 50.2383 85.496C50.2383 85.496 59.1383 82.296 68.1383 79.496C77.1383 76.596 86.4383 74.0959 86.4383 74.0959C86.4383 74.0959 86.8383 74.496 87.4383 75.196C88.0383 75.896 88.8383 76.796 89.6383 77.696C91.2383 79.496 92.8383 81.296 92.8383 81.296C92.8383 81.296 83.4383 83.496 74.4383 86.096C65.2383 88.696 56.3383 91.696 56.3383 91.696Z" fill="#FAF6F0"/>
<path d="M37.7386 73.4959L31.1387 67.3959C31.1387 67.3959 40.0387 64.0959 48.8387 60.6959C57.7387 57.3959 66.7386 54.2959 66.7386 54.2959C66.7386 54.2959 68.4387 55.8959 70.1387 57.5959C71.8387 59.1959 73.5386 60.8959 73.5386 60.8959C73.5386 60.8959 71.2387 61.5959 67.9387 62.7959C64.5387 63.9959 60.0386 65.4959 55.5386 67.0959C46.5386 70.0959 37.7386 73.4959 37.7386 73.4959Z" fill="#FAF6F0"/>
<path d="M18.1389 55.2959L11.3389 48.9959C11.3389 48.9959 20.2389 45.6959 29.1389 42.3959C38.0389 38.9959 46.8389 35.6959 46.8389 35.6959L53.5388 41.8959L18.1389 55.2959Z" fill="#FAF6F0"/>
<path d="M331.339 462.596L323.438 457.096C323.438 457.096 332.139 452.396 340.739 447.696C349.339 442.896 357.938 438.096 357.938 438.096L365.839 443.396C365.839 443.396 357.238 448.196 348.638 452.996C340.038 457.796 331.339 462.596 331.339 462.596Z" fill="#FAF6F0"/>
<path d="M308.338 446.496C308.338 446.496 306.338 445.096 304.438 443.796C303.438 443.096 302.438 442.396 301.738 441.896C301.038 441.396 300.538 440.996 300.538 440.996C300.538 440.996 302.738 439.896 306.038 438.196C309.338 436.496 313.738 434.096 318.038 431.796C326.738 427.096 335.438 422.396 335.438 422.396L343.138 427.796C343.138 427.796 334.438 432.496 325.838 437.196C317.038 441.796 308.338 446.496 308.338 446.496Z" fill="#FAF6F0"/>
<path d="M285.539 429.696L277.839 423.896C277.839 423.896 286.839 419.596 295.639 415.196C304.439 410.796 313.139 406.296 313.139 406.296L320.539 411.896C320.539 411.896 311.939 416.496 303.139 420.896C294.439 425.396 285.539 429.696 285.539 429.696Z" fill="#FAF6F0"/>
<path d="M261.738 410.496C261.738 410.496 259.838 408.496 257.938 406.596C257.038 405.596 256.238 404.496 255.538 403.696C254.938 402.896 254.438 402.396 254.438 402.396C254.438 402.396 256.938 401.996 260.538 401.196C264.138 400.496 269.139 399.196 273.839 397.696C276.239 396.996 278.538 396.196 280.638 395.396C282.738 394.596 284.738 393.896 286.138 392.996C287.638 392.196 288.538 391.096 289.538 390.596C290.538 390.096 291.038 389.896 291.038 389.896L298.438 395.496C298.438 395.496 289.638 399.896 280.638 404.196C279.538 404.696 278.439 405.296 277.339 405.796C276.239 406.296 274.939 406.796 273.839 407.096C271.539 407.696 269.438 408.396 267.738 408.896C264.238 409.896 261.738 410.496 261.738 410.496Z" fill="#FAF6F0"/>
<path d="M242.338 385.896C242.338 385.896 241.938 385.396 241.438 384.496C240.938 383.696 240.238 382.596 239.638 381.496C238.338 379.296 237.038 377.096 237.038 377.096C237.038 377.096 247.138 376.896 256.838 375.896C266.838 374.896 276.138 372.896 276.138 372.896C276.138 372.896 276.438 373.296 276.838 373.996C277.238 374.696 277.938 375.496 278.538 376.296C279.838 377.896 281.138 379.496 281.138 379.496C281.138 379.496 278.838 380.196 275.338 381.096C271.838 381.996 266.938 383.096 262.138 383.796C252.538 385.196 242.338 385.896 242.338 385.896Z" fill="#FAF6F0"/>
<path d="M227.838 359.796C227.838 359.796 226.738 357.596 225.638 355.296C225.138 354.196 224.538 353.096 224.138 352.196C223.738 351.396 223.538 350.796 223.538 350.796C223.538 350.796 226.038 350.896 229.738 351.096C233.438 351.196 238.438 351.396 243.338 351.396C248.238 351.496 253.138 351.496 256.838 351.296C260.538 351.196 262.938 351.096 262.938 351.096C262.938 351.096 263.938 353.096 265.038 354.996C266.038 356.996 267.138 358.796 267.138 358.796C267.138 358.796 264.738 359.096 261.038 359.296C257.438 359.496 252.538 359.696 247.638 359.796C242.738 359.896 237.738 359.896 233.938 359.796C230.338 359.796 227.838 359.796 227.838 359.796Z" fill="#FAF6F0"/>
<path d="M216.038 333.596L212.238 324.796C212.238 324.796 222.038 325.396 231.938 325.896C236.838 326.196 241.738 326.396 245.438 326.596C249.138 326.796 251.538 326.896 251.538 326.896L255.338 335.296C255.338 335.296 245.538 335.096 235.738 334.596C225.838 334.196 216.038 333.596 216.038 333.596Z" fill="#FAF6F0"/>
<path d="M205.038 308.296C205.038 308.296 204.838 307.796 204.438 306.996C204.038 306.196 203.638 305.196 203.138 304.196C202.138 302.096 201.238 300.096 201.238 300.096C201.238 300.096 211.038 300.096 220.838 300.596C230.638 300.996 240.538 301.596 240.538 301.596L244.338 310.396C244.338 310.396 234.538 309.796 224.638 309.296C214.838 308.596 205.038 308.296 205.038 308.296Z" fill="#FAF6F0"/>
<path d="M193.439 284.596C193.439 284.596 192.339 282.696 191.339 280.796C190.839 279.896 190.239 278.896 189.839 278.196C189.439 277.496 189.139 277.096 189.139 277.096C189.139 277.096 189.739 276.996 190.839 276.896C191.839 276.796 193.339 276.596 195.139 276.496C198.739 276.196 203.639 275.796 208.539 275.596C211.039 275.496 213.539 275.396 215.839 275.396C218.139 275.396 220.339 275.396 222.139 275.396C225.839 275.396 228.339 275.496 228.339 275.496C228.339 275.496 229.439 277.796 230.639 279.996C231.239 281.096 231.739 282.196 232.139 283.096C232.539 283.896 232.839 284.496 232.839 284.496C232.839 284.496 230.339 284.396 226.639 284.296C222.939 284.196 217.939 284.096 213.039 284.096C208.139 284.096 203.239 284.196 199.639 284.396C195.839 284.396 193.439 284.596 193.439 284.596Z" fill="#FAF6F0"/>
<path d="M179.939 263.796C179.939 263.796 179.639 263.396 179.139 262.796C178.639 262.196 178.039 261.396 177.339 260.696C176.039 259.296 174.639 257.796 174.639 257.796C174.639 257.796 176.839 256.896 180.339 255.796C182.039 255.196 184.139 254.596 186.339 253.996C188.539 253.396 190.839 252.896 193.239 252.296C198.039 251.296 202.939 250.496 206.739 249.996C208.639 249.796 210.239 249.596 211.339 249.396C212.439 249.296 213.039 249.196 213.039 249.196L218.839 257.996C218.839 257.996 208.639 258.396 198.939 259.796C194.139 260.396 189.139 261.496 185.639 262.296C182.239 263.096 179.939 263.796 179.939 263.796Z" fill="#FAF6F0"/>
<path d="M162.438 245.996C162.438 245.996 160.738 244.496 159.138 242.996C158.338 242.196 157.438 241.496 156.838 240.896C156.138 240.296 155.738 239.996 155.738 239.996C155.738 239.996 157.938 238.996 161.338 237.596C164.638 236.196 169.238 234.296 173.738 232.496C182.838 228.896 192.338 225.596 192.338 225.596C192.338 225.596 194.138 227.296 196.038 228.996C196.938 229.896 197.938 230.996 198.638 231.696C199.338 232.496 199.838 232.996 199.838 232.996C199.838 232.996 197.338 233.596 193.738 234.496C190.138 235.396 185.438 237.196 180.738 238.896C171.438 242.296 162.438 245.996 162.438 245.996Z" fill="#FAF6F0"/>
<path d="M142.038 228.596C142.038 228.596 140.238 227.096 138.438 225.696C136.638 224.296 134.738 222.896 134.738 222.896C134.738 222.896 136.938 221.796 140.238 220.196C143.538 218.596 148.038 216.396 152.538 214.396C161.438 210.296 170.538 206.396 170.538 206.396L178.138 212.696C178.138 212.696 168.838 216.496 159.838 220.496C150.738 224.496 142.038 228.596 142.038 228.596Z" fill="#FAF6F0"/>
<path d="M120.338 211.996L112.738 206.396C112.738 206.396 121.538 201.996 130.338 197.496C139.138 192.996 148.038 188.796 148.038 188.796L155.738 194.696C155.738 194.696 146.738 198.896 137.938 203.196C129.138 207.496 120.338 211.996 120.338 211.996Z" fill="#FAF6F0"/>
<path d="M98.1385 195.396L90.4385 189.796L125.638 171.896L133.238 177.596L98.1385 195.396Z" fill="#FAF6F0"/>
<path d="M75.5385 178.596C75.5385 178.596 73.6385 177.096 71.7385 175.696C69.8385 174.296 67.9385 172.696 67.9385 172.696C67.9385 172.696 70.1385 171.696 73.5385 170.096C76.8385 168.496 81.3385 166.296 85.8385 164.196C94.6385 159.796 103.438 155.396 103.438 155.396L110.938 160.996C110.938 160.996 102.139 165.396 93.3385 169.896C84.4385 174.196 75.5385 178.596 75.5385 178.596Z" fill="#FAF6F0"/>
<path d="M53.2383 160.896C53.2383 160.896 51.3383 159.396 49.4383 157.696C47.5383 156.096 45.7383 154.496 45.7383 154.496C45.7383 154.496 48.0383 153.596 51.4383 152.196C54.8383 150.796 59.3383 148.896 63.9383 146.896C73.0383 142.896 81.8383 138.696 81.8383 138.696L89.0383 144.496C89.0383 144.496 80.2383 148.796 71.3383 152.896C62.3383 156.896 53.2383 160.896 53.2383 160.896Z" fill="#FAF6F0"/>
<path d="M30.0385 139.796C30.0385 139.796 28.6385 138.096 27.2385 136.396C26.5385 135.596 25.8385 134.696 25.3385 134.096C24.7385 133.496 24.4385 133.096 24.4385 133.096C24.4385 133.096 26.8385 132.396 30.3385 131.496C33.8385 130.596 38.6385 129.396 43.4385 128.296C45.8385 127.696 48.4385 127.396 50.2385 126.296C51.2385 125.796 52.2385 125.296 53.0385 124.796C53.9385 124.296 54.9385 123.996 55.7385 123.596C59.1385 122.196 61.4385 121.296 61.4385 121.296L68.3385 127.296C68.3385 127.296 59.4385 131.196 50.2385 134.896C47.9385 135.796 45.6385 136.696 43.4385 137.596C42.3385 137.996 41.3385 138.396 40.2385 138.796C39.1385 139.096 37.9385 139.296 36.9385 139.496C34.8385 139.596 32.6385 139.096 31.8385 139.596C30.6385 139.696 30.0385 139.796 30.0385 139.796Z" fill="#FAF6F0"/>
<path d="M12.5386 120.196C12.5386 120.196 12.1386 119.796 11.5386 119.196C10.9386 118.596 10.1387 117.796 9.33868 116.996C7.73868 115.396 6.13867 113.796 6.13867 113.796C6.13867 113.796 15.3386 110.496 24.7386 107.496C34.0386 104.496 43.7386 101.896 43.7386 101.896C43.7386 101.896 44.1387 102.296 44.8387 102.996C45.4387 103.696 46.3387 104.596 47.1387 105.596C48.8387 107.496 50.4387 109.296 50.4387 109.296C50.4387 109.296 40.6386 111.596 31.2386 114.296C21.7386 117.096 12.5386 120.196 12.5386 120.196Z" fill="#FAF6F0"/>
<path d="M251.538 469.396L243.538 463.396C243.538 463.396 252.838 458.896 262.038 454.396C271.238 449.796 280.238 445.096 280.238 445.096L287.938 450.896C287.938 450.896 279.038 455.596 269.938 460.296C260.738 464.896 251.538 469.396 251.538 469.396Z" fill="#FAF6F0"/>
<path d="M226.939 449.496C226.939 449.496 224.939 447.496 222.939 445.396C221.939 444.396 221.139 443.196 220.439 442.396C219.739 441.596 219.339 440.996 219.339 440.996C219.339 440.996 221.939 440.596 225.739 439.796C229.439 439.096 234.739 437.696 239.539 436.096C241.939 435.296 244.339 434.496 246.539 433.696C248.739 432.896 250.839 432.096 252.239 431.196C253.839 430.396 254.739 429.196 255.839 428.796C256.839 428.296 257.439 427.996 257.439 427.996L265.139 433.796C265.139 433.796 255.939 438.396 246.639 442.796C245.439 443.396 244.339 443.896 243.139 444.496C241.939 444.996 240.639 445.496 239.539 445.796C237.139 446.396 235.039 447.096 233.139 447.696C229.539 448.896 226.939 449.496 226.939 449.496Z" fill="#FAF6F0"/>
<path d="M206.738 423.996C206.738 423.996 206.338 423.396 205.838 422.596C205.338 421.696 204.638 420.596 203.938 419.396C202.538 417.096 201.238 414.796 201.238 414.796C201.238 414.796 211.738 414.596 221.838 413.496C232.138 412.396 241.938 410.396 241.938 410.396C241.938 410.396 242.238 410.896 242.738 411.496C243.138 412.196 243.838 412.996 244.538 413.796C245.838 415.396 247.238 417.096 247.238 417.096C247.238 417.096 244.838 417.796 241.238 418.696C237.638 419.596 232.438 420.796 227.538 421.496C217.338 423.296 206.738 423.996 206.738 423.996Z" fill="#FAF6F0"/>
<path d="M191.739 396.896C191.739 396.896 190.639 394.596 189.539 392.196C188.939 390.996 188.439 389.896 188.039 388.996C187.639 388.096 187.339 387.596 187.339 387.596C187.339 387.596 189.939 387.696 193.739 387.896C197.639 387.996 202.739 388.196 207.839 388.196C212.939 388.296 218.039 388.296 221.839 388.096C225.639 387.996 228.139 387.896 228.139 387.896C228.139 387.896 229.239 389.896 230.239 391.996C231.239 394.096 232.439 395.996 232.439 395.996C232.439 395.996 229.939 396.296 226.139 396.496C222.339 396.696 217.339 396.996 212.239 397.096C207.139 397.196 201.939 397.196 198.039 397.096C194.339 396.996 191.739 396.896 191.739 396.896Z" fill="#FAF6F0"/>
<path d="M179.539 369.896L175.639 360.796C175.639 360.796 185.839 361.396 196.039 361.996C201.139 362.296 206.239 362.496 210.039 362.696C213.839 362.896 216.439 362.996 216.439 362.996L220.339 371.696C220.339 371.696 210.239 371.496 199.939 370.996C189.739 370.396 179.539 369.896 179.539 369.896Z" fill="#FAF6F0"/>
<path d="M168.139 343.596C168.139 343.596 167.939 342.996 167.539 342.196C167.139 341.396 166.639 340.296 166.139 339.296C165.139 337.196 164.139 334.996 164.139 334.996C164.139 334.996 174.239 335.096 184.539 335.496C194.739 335.896 205.039 336.596 205.039 336.596L208.939 345.696C208.939 345.696 198.739 345.096 188.539 344.496C178.239 343.996 168.139 343.596 168.139 343.596Z" fill="#FAF6F0"/>
<path d="M156.138 318.996C156.138 318.996 155.038 316.996 153.938 315.096C153.338 314.096 152.838 313.096 152.438 312.396C152.038 311.596 151.738 311.196 151.738 311.196C151.738 311.196 152.338 311.096 153.438 310.996C154.538 310.896 156.038 310.696 157.938 310.596C161.638 310.296 166.738 309.896 171.838 309.696C174.438 309.596 177.038 309.496 179.438 309.496C181.838 309.496 184.038 309.496 186.038 309.496C189.938 309.496 192.538 309.596 192.538 309.596C192.538 309.596 193.738 311.896 194.938 314.296C195.538 315.496 196.038 316.596 196.438 317.496C196.838 318.396 197.138 318.996 197.138 318.996C197.138 318.996 194.538 318.896 190.738 318.796C186.938 318.696 181.638 318.596 176.538 318.596C171.438 318.596 166.338 318.696 162.538 318.896C158.638 318.796 156.138 318.996 156.138 318.996Z" fill="#FAF6F0"/>
<path d="M142.138 297.496C142.138 297.496 141.838 297.096 141.338 296.396C140.838 295.796 140.238 294.896 139.538 294.196C138.138 292.696 136.738 291.196 136.738 291.196C136.738 291.196 139.038 290.296 142.638 289.096C144.438 288.496 146.538 287.796 148.838 287.196C151.138 286.496 153.538 285.996 156.038 285.496C161.038 284.396 166.138 283.596 170.038 283.096C172.038 282.896 173.638 282.696 174.838 282.496C175.938 282.396 176.638 282.296 176.638 282.296L182.638 291.496C182.638 291.496 172.038 291.996 162.038 293.396C157.038 293.996 151.938 295.096 148.238 295.996C144.538 296.796 142.138 297.496 142.138 297.496Z" fill="#FAF6F0"/>
<path d="M124.038 279.096C124.038 279.096 122.338 277.496 120.538 275.896C119.638 275.096 118.838 274.296 118.138 273.696C117.438 273.096 117.038 272.796 117.038 272.796C117.038 272.796 119.338 271.796 122.838 270.296C126.338 268.796 131.038 266.896 135.738 264.996C145.238 261.296 155.038 257.796 155.038 257.796C155.038 257.796 156.938 259.496 158.838 261.296C159.838 262.296 160.838 263.396 161.538 264.096C162.238 264.896 162.738 265.396 162.738 265.396C162.738 265.396 160.138 265.996 156.438 266.996C152.738 267.896 147.838 269.796 142.938 271.596C133.338 275.196 124.038 279.096 124.038 279.096Z" fill="#FAF6F0"/>
<path d="M102.838 261.096C102.838 261.096 101.038 259.596 99.0383 258.096C97.1383 256.596 95.2383 255.196 95.2383 255.196C95.2383 255.196 97.5383 254.096 100.938 252.396C104.338 250.696 109.038 248.496 113.638 246.396C122.838 242.096 132.338 238.096 132.338 238.096L140.238 244.596C140.238 244.596 130.638 248.496 121.238 252.696C111.938 256.796 102.838 261.096 102.838 261.096Z" fill="#FAF6F0"/>
<path d="M80.4387 243.796L72.6387 237.996C72.6387 237.996 81.7387 233.396 90.9387 228.796C100.139 224.196 109.339 219.696 109.339 219.696L117.339 225.796C117.339 225.796 108.039 230.196 98.8387 234.696C89.5387 239.196 80.4387 243.796 80.4387 243.796Z" fill="#FAF6F0"/>
<path d="M57.3385 226.696L49.4385 220.796L85.9385 202.196L93.8385 208.196L57.3385 226.696Z" fill="#FAF6F0"/>
<path d="M34.0381 209.196C34.0381 209.196 32.0381 207.696 30.0381 206.196C28.0381 204.696 26.0381 203.096 26.0381 203.096C26.0381 203.096 28.3381 201.996 31.8381 200.396C35.3381 198.696 39.9381 196.496 44.5381 194.296C53.7381 189.696 62.8381 185.196 62.8381 185.196L70.6381 190.996C70.6381 190.996 61.5381 195.596 52.3381 200.196C43.2381 204.696 34.0381 209.196 34.0381 209.196Z" fill="#FAF6F0"/>
<path d="M10.8381 190.896C10.8381 190.896 8.83811 189.296 6.93811 187.596C5.03811 185.896 3.03809 184.196 3.03809 184.196C3.03809 184.196 5.43811 183.196 8.93811 181.796C12.5381 180.296 17.1381 178.396 21.8381 176.296C31.2381 172.096 40.4381 167.796 40.4381 167.796L47.9381 173.796C47.9381 173.796 38.8381 178.196 29.5381 182.496C20.3381 186.796 10.8381 190.896 10.8381 190.896Z" fill="#FAF6F0"/>
<path d="M171.238 462.096C171.238 462.096 170.838 461.496 170.338 460.596C169.838 459.696 169.138 458.496 168.338 457.296C166.938 454.896 165.538 452.496 165.538 452.496C165.538 452.496 176.438 452.296 186.838 451.196C197.538 450.096 207.638 447.996 207.638 447.996C207.638 447.996 207.938 448.496 208.438 449.196C208.938 449.896 209.638 450.796 210.338 451.596C211.738 453.296 213.138 454.996 213.138 454.996C213.138 454.996 210.638 455.696 206.838 456.696C203.038 457.596 197.738 458.896 192.638 459.696C182.238 461.396 171.238 462.096 171.238 462.096Z" fill="#FAF6F0"/>
<path d="M155.739 434.096C155.739 434.096 154.539 431.696 153.439 429.296C152.839 428.096 152.239 426.896 151.839 425.996C151.439 425.096 151.139 424.496 151.139 424.496C151.139 424.496 153.839 424.596 157.839 424.796C161.839 424.996 167.239 425.096 172.539 425.196C177.839 425.296 183.039 425.296 187.039 425.096C190.939 424.996 193.639 424.896 193.639 424.896C193.639 424.896 194.739 426.996 195.839 429.096C196.939 431.296 198.139 433.196 198.139 433.196C198.139 433.196 195.539 433.496 191.539 433.796C187.639 433.996 182.439 434.296 177.039 434.396C171.739 434.496 166.339 434.496 162.339 434.396C158.339 434.196 155.739 434.096 155.739 434.096Z" fill="#FAF6F0"/>
<path d="M143.038 406.096L138.938 396.696C138.938 396.696 149.538 397.296 160.138 397.896C165.438 398.196 170.738 398.496 174.738 398.696C178.738 398.896 181.339 398.996 181.339 398.996L185.438 408.096C185.438 408.096 174.939 407.896 164.339 407.396C153.639 406.696 143.038 406.096 143.038 406.096Z" fill="#FAF6F0"/>
<path d="M131.239 378.896C131.239 378.896 130.939 378.296 130.639 377.496C130.239 376.696 129.739 375.596 129.239 374.396C128.239 372.196 127.139 369.996 127.139 369.996C127.139 369.996 137.639 370.096 148.339 370.496C158.939 370.896 169.539 371.596 169.539 371.596L173.639 381.096C173.639 381.096 163.039 380.496 152.439 379.896C141.739 379.296 131.239 378.896 131.239 378.896Z" fill="#FAF6F0"/>
<path d="M118.839 353.496C118.839 353.496 117.739 351.496 116.539 349.396C115.939 348.396 115.339 347.396 114.939 346.596C114.539 345.796 114.139 345.396 114.139 345.396C114.139 345.396 114.839 345.296 115.939 345.196C117.039 345.096 118.639 344.896 120.639 344.696C124.539 344.396 129.739 343.996 135.139 343.696C137.839 343.596 140.539 343.496 143.039 343.496C145.539 343.496 147.839 343.496 149.839 343.496C153.839 343.496 156.539 343.596 156.539 343.596C156.539 343.596 157.739 345.996 158.939 348.396C159.539 349.596 160.139 350.796 160.539 351.696C160.939 352.596 161.239 353.196 161.239 353.196C161.239 353.196 158.539 353.096 154.539 352.996C150.539 352.896 145.139 352.796 139.839 352.796C134.539 352.796 129.239 352.896 125.339 353.096C121.439 353.196 118.839 353.496 118.839 353.496Z" fill="#FAF6F0"/>
<path d="M104.338 331.196C104.338 331.196 104.038 330.796 103.538 330.096C103.038 329.396 102.438 328.496 101.638 327.796C100.238 326.296 98.7383 324.696 98.7383 324.696C98.7383 324.696 101.138 323.796 104.838 322.496C106.738 321.896 108.938 321.196 111.338 320.496C113.738 319.796 116.238 319.296 118.838 318.696C123.938 317.596 129.338 316.696 133.338 316.196C135.438 315.996 137.138 315.696 138.338 315.596C139.538 315.496 140.138 315.396 140.138 315.396L146.338 324.896C146.338 324.896 135.338 325.396 124.938 326.796C119.738 327.496 114.438 328.596 110.638 329.496C106.838 330.496 104.338 331.196 104.338 331.196Z" fill="#FAF6F0"/>
<path d="M85.5383 312.196C85.5383 312.196 83.7383 310.596 81.9383 308.896C81.0383 308.096 80.1383 307.296 79.4383 306.596C78.7383 305.996 78.2383 305.596 78.2383 305.596C78.2383 305.596 80.6383 304.596 84.2383 302.996C87.8383 301.496 92.7383 299.496 97.6383 297.496C107.438 293.596 117.638 290.096 117.638 290.096C117.638 290.096 119.638 291.896 121.638 293.696C122.638 294.696 123.638 295.896 124.438 296.596C125.238 297.396 125.738 297.996 125.738 297.996C125.738 297.996 123.038 298.596 119.138 299.696C115.238 300.696 110.238 302.596 105.138 304.396C95.2383 308.096 85.5383 312.196 85.5383 312.196Z" fill="#FAF6F0"/>
<path d="M63.6383 293.496C63.6383 293.496 61.7383 291.896 59.7383 290.396C57.7383 288.896 55.7383 287.396 55.7383 287.396C55.7383 287.396 58.1383 286.196 61.7383 284.496C65.3383 282.796 70.1383 280.396 74.9383 278.296C84.5383 273.896 94.3383 269.696 94.3383 269.696L102.438 276.396C102.438 276.396 92.4383 280.496 82.7383 284.796C73.1383 288.996 63.6383 293.496 63.6383 293.496Z" fill="#FAF6F0"/>
<path d="M40.5385 275.696L32.4385 269.696C32.4385 269.696 41.9385 264.896 51.4385 260.096C60.9385 255.296 70.5385 250.696 70.5385 250.696L78.8385 257.096C78.8385 257.096 69.1385 261.596 59.6385 266.296C49.9385 270.796 40.5385 275.696 40.5385 275.696Z" fill="#FAF6F0"/>
<path d="M16.6389 257.896L8.33887 251.796L46.2388 232.596L54.5388 238.696L16.6389 257.896Z" fill="#FAF6F0"/>
<path d="M106.539 442.296L102.339 432.496C102.339 432.496 113.339 433.096 124.339 433.796C129.839 434.096 135.339 434.396 139.439 434.596C143.539 434.796 146.239 434.896 146.239 434.896L150.439 444.296C150.439 444.296 139.539 444.096 128.539 443.496C117.539 442.896 106.539 442.296 106.539 442.296Z" fill="#FAF6F0"/>
<path d="M94.3381 414.196C94.3381 414.196 94.0381 413.596 93.6381 412.696C93.2381 411.796 92.7381 410.696 92.1381 409.496C91.0381 407.196 90.0381 404.896 90.0381 404.896C90.0381 404.896 100.938 404.996 111.938 405.396C122.938 405.896 133.938 406.596 133.938 406.596L138.138 416.396C138.138 416.396 127.138 415.796 116.138 415.096C105.238 414.596 94.3381 414.196 94.3381 414.196Z" fill="#FAF6F0"/>
<path d="M81.4387 387.896C81.4387 387.896 80.2386 385.796 79.0386 383.696C78.4386 382.596 77.8387 381.596 77.4387 380.796C77.0387 379.996 76.6387 379.496 76.6387 379.496C76.6387 379.496 77.3386 379.396 78.5386 379.296C79.7386 379.196 81.3387 378.996 83.3387 378.796C87.3387 378.396 92.8387 377.996 98.3387 377.796C101.139 377.696 103.839 377.596 106.539 377.496C109.139 377.496 111.539 377.496 113.539 377.496C117.739 377.496 120.439 377.596 120.439 377.596C120.439 377.596 121.739 380.096 122.939 382.596C123.639 383.896 124.139 385.096 124.539 385.996C124.939 386.896 125.239 387.596 125.239 387.596C125.239 387.596 122.439 387.496 118.339 387.396C114.239 387.296 108.639 387.196 103.139 387.196C97.6387 387.196 92.2387 387.396 88.1387 387.496C84.2387 387.696 81.4387 387.896 81.4387 387.896Z" fill="#FAF6F0"/>
<path d="M66.5386 364.896C66.5386 364.896 66.2387 364.396 65.6387 363.796C65.1387 363.096 64.4387 362.196 63.6387 361.396C62.1387 359.796 60.6387 358.196 60.6387 358.196C60.6387 358.196 63.1387 357.196 66.9387 355.996C68.8387 355.396 71.1387 354.696 73.6387 353.896C76.1387 353.196 78.7387 352.596 81.3387 351.996C86.6387 350.896 92.1387 349.996 96.3387 349.396C98.4387 349.096 100.239 348.896 101.439 348.796C102.639 348.696 103.339 348.596 103.339 348.596L109.739 358.496C109.739 358.496 98.3386 358.996 87.5386 360.496C82.1386 361.196 76.6386 362.396 72.7386 363.296C69.0386 364.196 66.5386 364.896 66.5386 364.896Z" fill="#FAF6F0"/>
<path d="M47.1387 345.196C47.1387 345.196 45.2387 343.496 43.4387 341.796C42.5387 340.996 41.5387 340.096 40.8387 339.496C40.1387 338.896 39.6387 338.496 39.6387 338.496C39.6387 338.496 42.1387 337.396 45.9387 335.796C49.6387 334.196 54.7387 332.096 59.8387 330.096C70.0387 326.096 80.6387 322.396 80.6387 322.396C80.6387 322.396 82.6386 324.296 84.7386 326.096C85.7386 327.096 86.8387 328.296 87.6387 329.196C88.4387 330.096 88.9387 330.596 88.9387 330.596C88.9387 330.596 86.1387 331.196 82.1387 332.296C78.1387 333.296 72.8387 335.296 67.6387 337.196C57.1387 341.096 47.1387 345.196 47.1387 345.196Z" fill="#FAF6F0"/>
<path d="M24.5385 325.996C24.5385 325.996 22.6385 324.396 20.5385 322.796C18.5385 321.196 16.4385 319.596 16.4385 319.596C16.4385 319.596 18.9385 318.396 22.6385 316.596C26.3385 314.796 31.3385 312.396 36.3385 310.096C46.2385 305.496 56.4385 301.196 56.4385 301.196L64.8385 308.196C64.8385 308.196 54.5385 312.396 44.4385 316.896C34.3385 321.296 24.5385 325.996 24.5385 325.996Z" fill="#FAF6F0"/>
<path d="M57.4381 449.496C57.4381 449.496 57.1381 448.896 56.7381 447.996C56.3381 447.096 55.7381 445.896 55.2381 444.696C54.1381 442.296 53.0381 439.896 53.0381 439.896C53.0381 439.896 64.3381 439.996 75.7381 440.496C87.0381 440.996 98.5381 441.696 98.5381 441.696L102.938 451.796C102.938 451.796 91.5381 451.096 80.2381 450.496C68.7381 449.896 57.4381 449.496 57.4381 449.496Z" fill="#FAF6F0"/>
<path d="M44.1387 422.396C44.1387 422.396 42.9387 420.196 41.6387 417.996C41.0387 416.896 40.4387 415.796 39.9387 414.996C39.4387 414.196 39.1387 413.696 39.1387 413.696C39.1387 413.696 39.8386 413.596 41.0386 413.396C42.2386 413.296 43.9386 413.096 46.0386 412.896C50.2386 412.496 55.8386 412.096 61.5386 411.896C64.4386 411.796 67.2387 411.696 69.9387 411.596C72.6387 411.596 75.1386 411.596 77.2386 411.596C81.5386 411.596 84.4387 411.696 84.4387 411.696C84.4387 411.696 85.7386 414.296 87.0386 416.896C87.7386 418.196 88.2386 419.496 88.7386 420.496C89.1386 421.496 89.4387 422.096 89.4387 422.096C89.4387 422.096 86.6387 421.996 82.3387 421.796C78.0387 421.696 72.2387 421.596 66.6387 421.596C60.9387 421.596 55.3387 421.796 51.1387 421.896C46.9387 422.096 44.1387 422.396 44.1387 422.396Z" fill="#FAF6F0"/>
<path d="M28.7383 398.596C28.7383 398.596 28.3383 398.096 27.8383 397.396C27.3383 396.696 26.6383 395.696 25.8383 394.996C24.2383 393.296 22.7383 391.696 22.7383 391.696C22.7383 391.696 25.2383 390.696 29.2383 389.396C31.2383 388.696 33.6383 387.996 36.1383 387.296C38.7383 386.596 41.3383 385.996 44.1383 385.396C49.6383 384.196 55.3383 383.296 59.7383 382.696C61.9383 382.396 63.7383 382.196 65.0383 382.096C66.3383 381.996 67.0383 381.896 67.0383 381.896L73.6383 392.096C73.6383 392.096 61.8383 392.596 50.7383 394.196C45.2383 394.896 39.4383 396.096 35.4383 397.096C31.3383 397.796 28.7383 398.596 28.7383 398.596Z" fill="#FAF6F0"/>
<path d="M8.73846 378.296C8.73846 378.296 6.83848 376.496 4.93848 374.796C3.93848 373.896 3.03846 372.996 2.23846 372.396C1.43846 371.796 0.938477 371.396 0.938477 371.396C0.938477 371.396 3.53848 370.296 7.43848 368.596C11.3385 366.996 16.5385 364.796 21.7385 362.696C32.2385 358.496 43.2385 354.696 43.2385 354.696C43.2385 354.696 45.3385 356.596 47.4385 358.596C48.5385 359.696 49.6385 360.896 50.4385 361.796C51.2385 362.696 51.8385 363.296 51.8385 363.296C51.8385 363.296 48.9385 363.896 44.8385 365.096C40.7385 366.096 35.2385 368.196 29.9385 370.196C19.1385 373.996 8.73846 378.296 8.73846 378.296Z" fill="#FAF6F0"/>
<path d="M6.83832 456.796C6.83832 456.796 5.53832 454.496 4.33832 452.296C3.73832 451.196 3.03827 449.996 2.53827 449.196C2.03827 448.296 1.73828 447.796 1.73828 447.796C1.73828 447.796 2.43828 447.696 3.73828 447.496C5.03828 447.396 6.73829 447.196 8.93829 446.996C13.2383 446.596 19.0383 446.196 24.9383 445.896C27.8383 445.796 30.8383 445.696 33.6383 445.596C36.4383 445.596 38.9383 445.596 41.1383 445.596C45.5383 445.596 48.5383 445.696 48.5383 445.696C48.5383 445.696 49.9383 448.396 51.2383 451.096C51.9383 452.396 52.5383 453.796 53.0383 454.796C53.5383 455.796 53.8383 456.496 53.8383 456.496C53.8383 456.496 50.9383 456.396 46.4383 456.196C42.0383 456.096 36.0383 455.996 30.1383 455.996C24.2383 455.996 18.4383 456.196 14.1383 456.296C9.73831 456.596 6.83832 456.796 6.83832 456.796Z" fill="#FAF6F0"/>
</svg>
