<svg width="1049" height="212" viewBox="0 0 1049 212" fill="none" xmlns="http://www.w3.org/2000/svg">
<g opacity="0.3">
<path d="M0.368652 1V1.9" stroke="#FAF6F0" stroke-width="0.1784" stroke-miterlimit="10"/>
<path d="M0.368652 3.70312V209.203" stroke="#FAF6F0" stroke-width="0.1784" stroke-miterlimit="10" stroke-dasharray="1.78 1.78"/>
<path d="M0.368652 210.102V211.002" stroke="#FAF6F0" stroke-width="0.1784" stroke-miterlimit="10"/>
<path d="M419.569 1V211" stroke="#FAF6F0" stroke-width="0.1784" stroke-miterlimit="10" stroke-dasharray="1.78 1.78"/>
<path d="M978.469 1V211" stroke="#FAF6F0" stroke-width="0.1784" stroke-miterlimit="10" stroke-dasharray="1.78 1.78"/>
<path d="M1048.37 1V211" stroke="#FAF6F0" stroke-width="0.1784" stroke-miterlimit="10" stroke-dasharray="1.78 1.78"/>
<path d="M908.668 1V211" stroke="#FAF6F0" stroke-width="0.1784" stroke-miterlimit="10" stroke-dasharray="1.78 1.78"/>
<path d="M768.869 1V211" stroke="#FAF6F0" stroke-width="0.1784" stroke-miterlimit="10" stroke-dasharray="1.78 1.78"/>
<path d="M629.169 1V211" stroke="#FAF6F0" stroke-width="0.1784" stroke-miterlimit="10" stroke-dasharray="1.78 1.78"/>
<path d="M489.469 1V211" stroke="#FAF6F0" stroke-width="0.1784" stroke-miterlimit="10" stroke-dasharray="1.78 1.78"/>
<path d="M349.669 1V211" stroke="#FAF6F0" stroke-width="0.1784" stroke-miterlimit="10" stroke-dasharray="1.78 1.78"/>
<path d="M209.969 1V211" stroke="#FAF6F0" stroke-width="0.1784" stroke-miterlimit="10" stroke-dasharray="1.78 1.78"/>
<path d="M70.2686 1V211" stroke="#FAF6F0" stroke-width="0.1784" stroke-miterlimit="10" stroke-dasharray="1.78 1.78"/>
<path d="M699.069 1V211" stroke="#FAF6F0" stroke-width="0.1784" stroke-miterlimit="10" stroke-dasharray="1.78 1.78"/>
<path d="M559.269 1V211" stroke="#FAF6F0" stroke-width="0.1784" stroke-miterlimit="10" stroke-dasharray="1.78 1.78"/>
<path d="M838.769 1V211" stroke="#FAF6F0" stroke-width="0.1784" stroke-miterlimit="10" stroke-dasharray="1.78 1.78"/>
<path d="M279.869 1V211" stroke="#FAF6F0" stroke-width="0.1784" stroke-miterlimit="10" stroke-dasharray="1.78 1.78"/>
<path d="M140.069 1V211" stroke="#FAF6F0" stroke-width="0.1784" stroke-miterlimit="10" stroke-dasharray="1.78 1.78"/>
<path d="M1048.37 1H1046.97" stroke="#FAF6F0" stroke-width="0.2821" stroke-miterlimit="10"/>
<path d="M1044.17 1H3.16846" stroke="#FAF6F0" stroke-width="0.2821" stroke-miterlimit="10" stroke-dasharray="2.82 2.82"/>
<path d="M1.76865 1H0.368652" stroke="#FAF6F0" stroke-width="0.2821" stroke-miterlimit="10"/>
<path d="M1048.37 141H0.368652" stroke="#FAF6F0" stroke-width="0.2821" stroke-miterlimit="10" stroke-dasharray="2.82 2.82"/>
<path d="M1048.37 71H0.368652" stroke="#FAF6F0" stroke-width="0.2821" stroke-miterlimit="10" stroke-dasharray="2.82 2.82"/>
<path d="M1048.37 211H0.368652" stroke="#FAF6F0" stroke-width="0.2821" stroke-miterlimit="10" stroke-dasharray="2.82 2.82"/>
</g>
</svg>
