<svg width="134" height="42" viewBox="0 0 134 42" fill="none" xmlns="http://www.w3.org/2000/svg">
<path d="M11.8538 19.1016C11.1538 19.1016 10.6538 19.4016 10.2538 19.9016C9.85381 20.4016 9.65381 21.2016 9.65381 22.2016C9.65381 23.2016 9.85381 24.0016 10.2538 24.5016C10.6538 25.0016 11.1538 25.3016 11.8538 25.3016C12.6538 25.3016 13.1538 25.1016 13.5538 24.7016C13.9538 24.3016 14.1538 23.6016 14.1538 22.5016V22.2016C14.1538 21.1016 13.9538 20.3016 13.6538 19.8016C13.2538 19.4016 12.6538 19.1016 11.8538 19.1016Z" fill="#2C2C2C"/>
<path d="M41.5534 16.5C39.8534 10.4 36.8534 7.5 33.9534 4.8C28.6534 -9.53674e-07 22.6534 0 19.2534 0C14.2534 0 10.2534 1.6 6.65342 5.2C3.35342 8.7 0.753418 15.7 0.753418 20.9C0.753418 25.8 1.15342 31.8 5.75342 35.7C12.8534 41.8 17.4534 41.8 22.4534 41.8C27.4534 41.8 31.6534 40.1 37.5534 34C40.8534 30.5 42.4534 27 42.5534 23.5C42.7534 21.8 41.8534 17.9 41.5534 16.5ZM37.0534 27.4H34.0534V21.3C34.0534 20.5 33.9534 20 33.6534 19.6C33.3534 19.2 32.9534 19 32.3534 19C31.6534 19 31.0534 19.3 30.6534 19.7C30.2534 20.2 30.0534 21 30.0534 22.1V27.3H27.0534V21.2C27.0534 20.4 26.9534 19.9 26.6534 19.5C26.3534 19.1 25.9534 18.9 25.3534 18.9C24.5534 18.9 24.0534 19.2 23.6534 19.7C23.2534 20.2 23.1534 21.1 23.1534 22.3V27.2H20.1534V21.6L17.3534 27.2H16.9534H14.5534L13.9534 26H13.8534C13.1534 27 12.1534 27.5 10.7534 27.5C9.45342 27.5 8.35342 27 7.65342 26.1C6.85342 25.1 6.55342 23.8 6.55342 22.1C6.55342 20.4 6.95342 19.1 7.75342 18.1C8.55342 17.1 9.55342 16.7 10.9534 16.7C12.3534 16.7 13.2534 17.2 14.0534 18.2H14.1534C13.9534 17.4 13.9534 16.7 13.9534 16.1V12.8H17.1534V23.3L20.3534 16.9H22.7534L23.0534 18.2H23.2534C23.5534 17.7 23.9534 17.3 24.5534 17.1C25.1534 16.8 25.7534 16.7 26.4534 16.7C28.1534 16.7 29.2534 17.2 29.8534 18.2H30.1534C30.4534 17.7 30.8534 17.3 31.4534 17.1C32.0534 16.8 32.6534 16.7 33.4534 16.7C34.7534 16.7 35.6534 17 36.3534 17.6C36.9534 18.2 37.3534 19.2 37.3534 20.5V27.4H37.0534Z" fill="#2C2C2C"/>
<path d="M68.2534 25.6969C67.6534 25.0969 66.6534 24.7969 65.3534 24.7969C64.6534 24.7969 63.9534 24.8969 63.3534 25.1969C62.7534 25.4969 62.3534 25.7969 62.0534 26.2969H61.7534C61.1534 25.2969 60.0534 24.7969 58.3534 24.7969C57.6534 24.7969 56.9534 24.8969 56.4534 25.1969C55.8534 25.4969 55.4534 25.7969 55.1534 26.2969H54.9534L54.7534 24.9969H52.3534L50.7534 28.1969L52.3534 28.9969V35.3969H55.3534V30.4969C55.3534 29.2969 55.5534 28.3969 55.8534 27.8969C56.2534 27.3969 56.7534 27.0969 57.5534 27.0969C58.1534 27.0969 58.5534 27.2969 58.8534 27.6969C59.1534 28.0969 59.2534 28.5969 59.2534 29.3969V35.4969H62.2534V30.2969C62.2534 29.1969 62.4534 28.3969 62.8534 27.8969C63.2534 27.3969 63.7534 27.1969 64.5534 27.1969C65.1534 27.1969 65.5534 27.3969 65.8534 27.7969C66.1534 28.1969 66.2534 28.6969 66.2534 29.4969V35.5969H69.2534V28.7969C69.2534 27.2969 68.9534 26.2969 68.2534 25.6969ZM78.6534 35.3969L78.1534 33.9969H78.0534C77.5534 34.5969 77.0534 34.9969 76.5534 35.2969C76.0534 35.4969 75.3534 35.6969 74.5534 35.6969C73.5534 35.6969 72.7534 35.3969 72.1534 34.7969C71.5534 34.1969 71.2534 33.3969 71.2534 32.2969C71.2534 31.1969 71.6534 30.3969 72.4534 29.7969C73.2534 29.2969 74.3534 28.9969 75.9534 28.8969L77.7534 28.7969V28.2969C77.7534 27.1969 77.2534 26.6969 76.1534 26.6969C75.3534 26.6969 74.3534 26.9969 73.2534 27.4969L72.3534 25.5969C73.5534 24.9969 74.8534 24.6969 76.3534 24.6969C77.7534 24.6969 78.8534 24.9969 79.5534 25.5969C80.2534 26.1969 80.6534 27.0969 80.6534 28.3969V35.3969H78.6534ZM77.8534 30.5969H76.7534C75.9534 30.5969 75.3534 30.7969 74.8534 30.9969C74.4534 31.2969 74.2534 31.6969 74.2534 32.2969C74.2534 33.0969 74.7534 33.4969 75.6534 33.4969C76.3534 33.4969 76.8534 33.2969 77.2534 32.8969C77.6534 32.4969 77.8534 31.9969 77.8534 31.3969V30.5969ZM87.9534 35.5969C84.6534 35.5969 83.0534 33.7969 83.0534 30.1969C83.0534 28.3969 83.4534 27.0969 84.3534 26.0969C85.2534 25.1969 86.5534 24.6969 88.1534 24.6969C89.3534 24.6969 90.4534 24.8969 91.4534 25.3969L90.6534 27.5969C90.2534 27.3969 89.7534 27.2969 89.3534 27.1969C88.9534 27.0969 88.5534 26.9969 88.1534 26.9969C86.6534 26.9969 85.9534 28.0969 85.9534 30.1969C85.9534 32.1969 86.6534 33.2969 88.1534 33.2969C88.6534 33.2969 89.2534 33.1969 89.6534 33.0969C90.1534 32.9969 90.5534 32.6969 91.0534 32.3969V34.7969C90.5534 35.0969 90.1534 35.2969 89.6534 35.3969C89.2534 35.4969 88.6534 35.5969 87.9534 35.5969ZM103.353 35.3969H100.453V29.2969C100.453 27.7969 99.8534 26.9969 98.7534 26.9969C97.9534 26.9969 97.3534 27.2969 97.0534 27.7969C96.6534 28.2969 96.5534 29.1969 96.5534 30.3969V35.2969H93.6534V20.7969H96.5534V23.7969C96.5534 23.9969 96.5534 24.5969 96.4534 25.3969L96.3534 26.1969H96.5534C97.1534 25.1969 98.1534 24.6969 99.5534 24.6969C100.753 24.6969 101.753 24.9969 102.353 25.6969C102.953 26.3969 103.353 27.2969 103.353 28.4969V35.3969ZM106.253 22.1969C106.253 21.2969 106.753 20.7969 107.853 20.7969C108.953 20.7969 109.453 21.2969 109.453 22.1969C109.453 22.5969 109.353 22.9969 109.053 23.1969C108.753 23.3969 108.453 23.5969 107.853 23.5969C106.753 23.5969 106.253 23.1969 106.253 22.1969ZM109.253 35.3969H106.353V24.8969H109.253V35.3969ZM121.953 35.3969H119.053V29.2969C119.053 28.4969 118.953 27.9969 118.653 27.5969C118.353 27.1969 117.953 26.9969 117.353 26.9969C116.553 26.9969 115.953 27.2969 115.653 27.7969C115.253 28.2969 115.153 29.1969 115.153 30.4969V35.3969H112.253V24.8969H114.453L114.853 26.1969H115.053C115.353 25.6969 115.853 25.2969 116.353 25.0969C116.953 24.7969 117.553 24.6969 118.253 24.6969C119.453 24.6969 120.353 24.9969 121.053 25.6969C121.653 26.3969 121.953 27.2969 121.953 28.5969V35.3969ZM131.653 35.3969L131.053 33.9969H130.953C130.453 34.5969 129.953 34.9969 129.453 35.2969C128.953 35.4969 128.253 35.6969 127.453 35.6969C126.453 35.6969 125.653 35.3969 125.053 34.7969C124.453 34.1969 124.153 33.3969 124.153 32.2969C124.153 31.1969 124.553 30.3969 125.353 29.7969C126.153 29.2969 127.253 28.9969 128.853 28.8969L130.653 28.7969V28.2969C130.653 27.1969 130.153 26.6969 129.053 26.6969C128.253 26.6969 127.253 26.9969 126.153 27.4969L125.253 25.5969C126.453 24.9969 127.753 24.6969 129.253 24.6969C130.653 24.6969 131.753 24.9969 132.453 25.5969C133.153 26.1969 133.553 27.0969 133.553 28.3969V35.3969H131.653ZM130.853 30.5969H129.753C128.953 30.5969 128.353 30.7969 127.853 30.9969C127.453 31.2969 127.253 31.6969 127.253 32.2969C127.253 33.0969 127.753 33.4969 128.653 33.4969C129.353 33.4969 129.853 33.2969 130.253 32.8969C130.653 32.4969 130.853 31.9969 130.853 31.3969V30.5969ZM70.1534 19.2969L69.6534 17.8969H69.5534C69.0534 18.4969 68.5534 18.8969 68.0534 19.1969C67.5534 19.3969 66.8534 19.5969 66.0534 19.5969C65.0534 19.5969 64.2534 19.2969 63.6534 18.6969C63.0534 18.0969 62.7534 17.2969 62.7534 16.1969C62.7534 15.0969 63.1534 14.2969 63.9534 13.6969C64.7534 13.1969 65.8534 12.8969 67.4534 12.7969L69.2534 12.6969V12.1969C69.2534 11.0969 68.7534 10.5969 67.6534 10.5969C66.8534 10.5969 65.8534 10.8969 64.7534 11.3969L63.8534 9.49688C65.0534 8.89688 66.3534 8.59688 67.8534 8.59688C69.2534 8.59688 70.3534 8.89688 71.0534 9.49688C71.7534 10.0969 72.1534 10.9969 72.1534 12.2969V19.2969H70.1534ZM69.3534 14.4969H68.2534C67.4534 14.4969 66.8534 14.6969 66.3534 14.8969C65.9534 15.1969 65.7534 15.5969 65.7534 16.1969C65.7534 16.9969 66.2534 17.3969 67.1534 17.3969C67.8534 17.3969 68.3534 17.1969 68.7534 16.7969C69.1534 16.3969 69.3534 15.8969 69.3534 15.2969V14.4969ZM79.1534 17.1969C79.6534 17.1969 80.2534 17.0969 80.9534 16.8969V18.9969C80.2534 19.2969 79.3534 19.4969 78.3534 19.4969C77.2534 19.4969 76.3534 19.1969 75.8534 18.5969C75.3534 17.9969 75.0534 17.1969 75.0534 15.9969V10.9969H73.6534V9.79688L75.2534 8.79688L76.0534 6.59688H77.8534V8.79688H80.7534V10.9969H77.8534V15.9969C77.8534 16.3969 77.9534 16.6969 78.1534 16.8969C78.4534 17.0969 78.7534 17.1969 79.1534 17.1969ZM89.7534 19.2969L89.1534 17.8969H89.0534C88.5534 18.4969 88.0534 18.8969 87.5534 19.1969C87.0534 19.3969 86.3534 19.5969 85.5534 19.5969C84.5534 19.5969 83.7534 19.2969 83.1534 18.6969C82.5534 18.0969 82.2534 17.2969 82.2534 16.1969C82.2534 15.0969 82.6534 14.2969 83.4534 13.6969C84.2534 13.1969 85.3534 12.8969 86.9534 12.7969L88.7534 12.6969V12.1969C88.7534 11.0969 88.2534 10.5969 87.1534 10.5969C86.3534 10.5969 85.3534 10.8969 84.2534 11.3969L83.3534 9.49688C84.5534 8.89688 85.8534 8.59688 87.3534 8.59688C88.7534 8.59688 89.8534 8.89688 90.5534 9.49688C91.2534 10.0969 91.6534 10.9969 91.6534 12.2969V19.2969H89.7534ZM88.9534 14.4969H87.8534C87.0534 14.4969 86.4534 14.6969 85.9534 14.8969C85.5534 15.1969 85.3534 15.5969 85.3534 16.1969C85.3534 16.9969 85.8534 17.3969 86.7534 17.3969C87.4534 17.3969 87.9534 17.1969 88.3534 16.7969C88.7534 16.3969 88.9534 15.8969 88.9534 15.2969V14.4969ZM54.9534 19.4969C53.6534 19.4969 52.5534 18.9969 51.8534 18.0969C51.0534 17.0969 50.7534 15.7969 50.7534 14.0969C50.7534 12.3969 51.1534 11.0969 51.9534 10.0969C52.7534 9.09688 53.7534 8.69688 55.1534 8.69688C56.5534 8.69688 57.4534 9.19688 58.2534 10.1969H58.3534C58.1534 9.39688 58.1534 8.69688 58.1534 8.09688V4.79688H61.3534V19.2969H58.9534L58.2534 17.9969H58.1534C57.3534 18.9969 56.4534 19.4969 54.9534 19.4969ZM56.1534 17.2969C56.9534 17.2969 57.4534 17.0969 57.8534 16.6969C58.2534 16.2969 58.4534 15.5969 58.4534 14.4969V14.1969C58.4534 13.0969 58.2534 12.2969 57.9534 11.7969C57.5534 11.2969 56.9534 11.0969 56.1534 11.0969C55.4534 11.0969 54.9534 11.3969 54.5534 11.8969C54.1534 12.3969 53.9534 13.1969 53.9534 14.1969C53.9534 15.1969 54.1534 15.9969 54.5534 16.4969C54.9534 16.9969 55.4534 17.2969 56.1534 17.2969Z" fill="#2C2C2C"/>
</svg>
