<svg width="162" height="104" viewBox="0 0 162 104" fill="none" xmlns="http://www.w3.org/2000/svg">
<g clip-path="url(#clip0_598_2374)">
<path d="M157.905 103.133C155.988 103.133 154.442 101.588 154.442 99.6724V79.5597C154.535 75.8832 152.742 72.4229 149.742 70.322C148.66 69.7659 147.485 69.3643 146.279 69.2098C145.012 68.9935 143.775 68.6846 142.569 68.283C139.353 66.8927 136.849 64.2666 135.643 60.9917C134.189 57.6242 134.251 53.8241 135.828 50.5183C136.477 49.3134 137.189 48.1394 138.024 47.058C141.703 42.3002 143.589 36.3992 143.311 30.4056C143.311 28.4901 144.857 26.9453 146.774 26.9453C148.691 26.9453 150.237 28.4901 150.237 30.4056C150.515 37.8822 148.165 45.2352 143.558 51.1671C142.94 51.9704 142.414 52.8045 141.92 53.7005C141.239 55.2143 141.239 56.9754 141.92 58.5201C142.414 59.9722 143.435 61.208 144.764 61.9804C145.661 62.2584 146.589 62.5056 147.547 62.6601C149.681 62.9072 151.721 63.556 153.577 64.6064C158.524 67.974 161.461 73.6278 161.369 79.6215V99.7342C161.369 100.661 160.998 101.526 160.348 102.175C159.699 102.762 158.833 103.133 157.905 103.133Z" fill="#FAF6F0"/>
<path d="M129.149 61.3927C124.078 61.3927 118.76 57.747 115.853 52.3095L115.699 51.9696C115.142 50.8265 114.493 49.7143 113.751 48.6948C109.886 43.3808 107.876 36.9237 108.031 30.3431C108.031 28.4276 109.577 26.8828 111.494 26.8828C112.421 26.8828 113.287 27.2536 113.936 27.9024C114.586 28.5511 114.957 29.4162 114.957 30.3431C114.771 35.5952 116.41 40.7547 119.533 44.9873C120.492 46.3467 121.357 47.7988 122.038 49.3436C123.769 52.3404 126.737 54.5339 129.118 54.5339C132.21 54.225 134.931 52.3095 136.261 49.5289C137.158 47.8297 139.26 47.1809 140.93 48.0769C142.6 48.9728 143.28 51.0737 142.383 52.742C141.146 55.2445 139.26 57.3454 136.941 58.8593C134.622 60.404 131.932 61.2691 129.149 61.3927Z" fill="#FAF6F0"/>
<path d="M146.774 33.8326C144.857 33.8326 143.311 32.2878 143.311 30.3723C143.28 26.4795 141.765 22.7412 139.044 19.9298C136.323 17.1183 132.643 15.45 128.747 15.2955C121.265 15.2955 114.895 22.216 114.895 30.3723C114.895 32.2878 113.349 33.8326 111.432 33.8326C109.515 33.8326 107.969 32.2878 107.969 30.3723C107.969 18.4468 117.461 8.375 128.747 8.375C140.033 8.375 150.206 18.5704 150.206 30.3723C150.206 31.2992 149.835 32.1642 149.186 32.813C148.567 33.4618 147.702 33.8326 146.774 33.8326Z" fill="#FAF6F0"/>
<path d="M128.809 81.443C127.913 81.443 127.047 81.1032 126.397 80.4544L120.306 74.4916C119.038 73.1323 119.069 71.0314 120.368 69.7029C121.667 68.3744 123.769 68.3126 125.13 69.5175L128.84 73.1323L139.662 62.7515C141.054 61.423 143.249 61.4848 144.548 62.8442C145.877 64.2345 145.816 66.428 144.455 67.7256L131.221 80.4853C130.572 81.1341 129.706 81.443 128.809 81.443Z" fill="#FAF6F0"/>
<path d="M61.3714 103.127C59.4544 103.127 57.9083 101.583 57.9083 99.6672V79.5545C57.9702 75.878 56.2077 72.4177 53.1775 70.3168C52.0952 69.7607 50.9203 69.3591 49.7144 69.2046C48.4466 68.9884 47.2098 68.6794 46.0039 68.2778C44.4579 67.6908 43.0974 66.6712 42.077 65.3736C40.8711 63.8907 41.0875 61.728 42.5717 60.5231C44.0559 59.3182 46.2203 59.5345 47.4262 60.9865C47.6736 61.3264 47.9519 61.5735 48.3229 61.7898C49.2196 62.0678 50.1473 62.315 51.1058 62.4695C53.2393 62.7784 55.2801 63.489 57.1353 64.6012C62.0826 67.9688 65.0201 73.6226 64.9273 79.6163V99.729C64.9273 100.656 64.5563 101.552 63.9069 102.201C63.1648 102.757 62.299 103.127 61.3714 103.127Z" fill="#FAF6F0"/>
<path d="M43.252 53.3294C42.0151 53.2985 40.902 52.6497 40.2836 51.5684C39.6652 50.487 39.6961 49.1894 40.2836 48.139C40.7783 47.3357 41.3349 46.5942 41.9224 45.791C44.1796 42.7324 46.746 39.303 46.746 30.3743C46.746 28.4588 48.292 26.9141 50.2091 26.9141C52.1262 26.9141 53.6722 28.4588 53.6722 30.3743C53.6722 41.5892 49.9617 46.5942 47.4881 49.9C46.9934 50.5488 46.5605 51.1358 46.1894 51.7228C45.571 52.7424 44.4579 53.3294 43.252 53.3294Z" fill="#FAF6F0"/>
<path d="M22.3805 54.1635C21.1128 54.1635 19.9069 53.453 19.3194 52.3407C18.9174 51.5684 18.3608 50.7033 17.8043 49.8073C13.7846 44.1226 11.5892 37.3566 11.4965 30.3743C11.4965 28.4588 13.0425 26.9141 14.9596 26.9141C15.8872 26.9141 16.753 27.2848 17.4023 27.9336C18.0516 28.5824 18.4227 29.4475 18.4227 30.3743C18.4845 36.0899 20.2779 41.6201 23.6173 46.2544C24.2667 47.2739 24.8542 48.2317 25.3489 49.2203C25.9055 50.3017 25.8745 51.5684 25.2561 52.6188C24.6377 53.6692 23.4937 54.2871 22.2878 54.2871L22.3805 54.1635Z" fill="#FAF6F0"/>
<path d="M3.79722 103.127C1.88014 103.127 0.334112 101.551 0.334112 99.6667V79.4922C0.24135 74.9506 1.91106 70.5635 5.00312 67.2269C7.53861 64.8788 10.6616 63.2723 14.0629 62.6235C14.9596 62.3763 15.7944 62.1292 16.7839 61.7893C18.4845 59.9974 19.8759 57.9274 20.9272 55.6721C21.6384 53.9111 23.6792 53.046 25.4416 53.7566C27.2041 54.4672 28.0699 56.5062 27.3587 58.2673C26.9568 59.3177 23.0608 66.9179 19.3194 68.2155C18.1444 68.6171 17.0312 68.957 15.8563 69.2659C13.7227 69.6367 11.7129 70.5326 10.0432 71.892C8.15702 73.962 7.16757 76.6808 7.26033 79.4613V99.6667C7.26033 100.594 6.88928 101.459 6.23995 102.107C5.59061 102.756 4.72484 103.127 3.79722 103.127Z" fill="#FAF6F0"/>
<path d="M99.8985 103.034C97.9814 103.034 96.4354 101.49 96.4354 99.574V79.3995C96.3735 74.7035 98.1978 70.1928 101.475 66.8252C104.753 63.4576 109.236 61.5422 113.936 61.5113C115.204 59.9356 116.194 58.1437 116.75 56.1973L116.967 55.6721C117.678 53.9111 119.719 53.046 121.481 53.7566C123.244 54.4672 124.109 56.5062 123.398 58.2673L123.213 58.7616C121.852 62.2218 119.348 68.4318 114.277 68.4318H113.936C111.092 68.4935 108.371 69.6676 106.392 71.7066C104.413 73.7457 103.331 76.5263 103.392 79.3686V99.574C103.392 100.501 103.021 101.366 102.372 102.015C101.692 102.664 100.826 103.034 99.8985 103.034Z" fill="#FAF6F0"/>
<path d="M32.3679 61.5165C27.2969 61.5165 22.4423 58.0562 19.3503 52.3097C18.701 50.6723 19.3812 48.7877 20.9272 47.9535C22.5042 47.1193 24.4213 47.6137 25.4107 49.0657C27.1423 52.526 29.8633 54.596 32.3369 54.596C34.8106 54.596 38.0263 52.3406 39.7579 49.0657C40.6546 47.3665 42.7572 46.7177 44.4269 47.6137C46.1275 48.5096 46.7769 50.6105 45.8802 52.2788C42.9118 57.9017 37.5625 61.5165 32.3679 61.5165Z" fill="#FAF6F0"/>
<path d="M50.209 33.8326C48.2919 33.8326 46.7459 32.2878 46.7459 30.3723C46.7459 22.3396 40.0052 15.2955 32.306 15.2955C24.6068 15.2955 18.4536 22.1851 18.4536 30.3723C18.4536 32.2878 16.9075 33.8326 14.9905 33.8326C13.0734 33.8326 11.5273 32.2878 11.5273 30.3723C11.5273 18.4468 21.0818 8.375 32.306 8.375C43.9012 8.375 53.6721 18.4468 53.6721 30.3723C53.6721 31.2992 53.3011 32.1642 52.6518 32.813C52.0333 33.4618 51.1366 33.8326 50.209 33.8326Z" fill="#FAF6F0"/>
<path d="M32.3678 77.737C31.5948 77.7679 30.8527 77.5208 30.2343 77.0882L18.1134 67.7888C17.3404 67.2636 16.7838 66.4294 16.6602 65.4717C16.5056 64.5448 16.7529 63.5871 17.3404 62.8147C17.9279 62.0732 18.7937 61.5789 19.7213 61.4862C20.6798 61.3935 21.6075 61.6716 22.3186 62.2895L32.306 69.9515L35.7691 67.1709C36.4803 66.5839 37.4079 66.3058 38.3046 66.3985C39.2322 66.4912 40.0671 66.9237 40.6545 67.6343C41.242 68.3449 41.5203 69.2718 41.4276 70.1677C41.3348 71.0946 40.871 71.9287 40.1598 72.5157L34.625 77.0573C33.9757 77.5208 33.1718 77.7679 32.3678 77.737Z" fill="#FAF6F0"/>
<path d="M24.3903 35.5608C22.4732 35.6226 20.8653 34.1088 20.8035 32.2242C20.7417 30.3087 22.2258 28.7021 24.1429 28.6403C28.3172 28.3932 32.1823 26.385 34.7796 23.1101C35.4599 22.2759 36.4802 21.8125 37.5625 21.8125C38.6447 21.8125 39.6651 22.3068 40.3453 23.1101C42.0769 25.3963 45.54 28.5167 47.4261 28.3932C49.3432 28.3005 50.9511 29.7525 51.0748 31.668C51.1675 33.5835 49.7143 35.1901 47.7972 35.3137C43.6847 35.5608 39.9434 32.7185 37.5934 30.3704C33.9757 33.4291 29.4613 35.2519 24.7304 35.5608H24.3903Z" fill="#FAF6F0"/>
<path d="M64.5562 61.0195C62.8555 61.0195 61.4023 59.8146 61.124 58.1462C60.8457 56.4779 61.8042 54.8405 63.4121 54.2843C64.7417 53.512 65.7621 52.2762 66.2568 50.8241C66.9371 49.3102 66.9371 47.5492 66.2568 46.0045C65.8239 45.1703 65.3292 44.367 64.8035 43.5637C60.4128 37.2302 58.1865 29.6609 58.372 21.9681C58.372 20.0526 59.9181 18.5078 61.8352 18.5078C63.7522 18.5078 65.2983 20.0526 65.2983 21.9681C65.1127 28.3942 67.0298 34.6968 70.7094 39.949C71.3896 40.9377 71.9771 41.9881 72.5337 43.0694C74.1106 46.3752 74.1725 50.1753 72.7192 53.5429C71.5133 56.8177 69.0087 59.4438 65.793 60.8341C65.391 60.9577 64.9581 61.0504 64.5562 61.0195Z" fill="#FAF6F0"/>
<path d="M100.919 62.8459C100.393 62.8459 99.8675 62.7223 99.3728 62.4751C97.6722 61.6101 95.8169 61.1157 93.9308 60.9922C89.8493 60.745 85.7059 54.6587 84.6546 52.1562C83.9125 50.3951 84.7474 48.3561 86.5098 47.6146C88.2723 46.8731 90.3131 47.7073 91.0552 49.4683C91.9209 51.2602 93.1887 52.8359 94.7347 54.1026C97.4248 54.3188 100.053 55.0603 102.465 56.2961C103.887 57.0067 104.66 58.6132 104.289 60.1889C103.918 61.7645 102.527 62.8768 100.919 62.8459Z" fill="#FAF6F0"/>
<path d="M79.3672 54.0997C76.4916 53.9761 73.7087 53.0801 71.3279 51.5354C68.916 49.9597 66.999 47.7971 65.7003 45.2328C64.8036 43.5336 65.4529 41.4327 67.1536 40.5676C68.8542 39.6717 70.9568 40.3205 71.8226 42.0197C73.2449 44.9547 76.1205 46.9011 79.3672 47.2101C82.8303 47.2101 84.8092 46.1596 86.1697 43.7498C86.7882 42.3595 87.4993 41.0002 88.2723 39.6717C91.6118 34.3886 93.4361 28.2714 93.5598 22.0306C93.5598 20.1151 95.1058 18.5703 97.0229 18.5703C97.9505 18.5703 98.8163 18.9411 99.4656 19.5899C100.115 20.2386 100.486 21.1037 100.486 22.0306C100.362 29.4145 98.2597 36.644 94.3328 42.9157C93.6834 44.0279 93.1269 45.2019 92.6012 46.3759L92.4466 46.7158C89.7874 51.6281 85.4276 54.0997 79.3672 54.0997Z" fill="#FAF6F0"/>
<path d="M79.3672 67.1034C73.245 66.9489 67.6483 63.6432 64.5872 58.3601C64.0306 57.5568 63.8451 56.5682 64.0615 55.6413C64.278 54.7145 64.8655 53.8803 65.7003 53.4169C66.5352 52.9226 67.5246 52.8299 68.4523 53.1079C69.3799 53.386 70.122 54.0348 70.5549 54.9307C72.4101 58.082 75.7186 60.0902 79.3672 60.2756C83.0159 60.0593 86.3244 58.0512 88.1796 54.8999C89.2309 53.4787 91.1789 53.0461 92.7249 53.9421C94.271 54.8381 94.8585 56.7536 94.1473 58.3601C91.0552 63.5814 85.4895 66.8872 79.3672 67.1034Z" fill="#FAF6F0"/>
<path d="M97.0538 25.4286C95.1367 25.4286 93.5907 23.8839 93.5907 21.9684C93.5907 16.9016 90.8697 12.2055 86.4789 9.67212C82.0882 7.13872 76.6771 7.13872 72.2864 9.67212C67.8956 12.2055 65.1746 16.9016 65.1746 21.9684C65.1746 23.8839 63.6286 25.4286 61.7115 25.4286C59.7944 25.4286 58.2484 23.8839 58.2484 21.9684C58.2484 14.43 62.2681 7.44767 68.8233 3.67846C75.3475 -0.0907384 83.4178 -0.0907384 89.942 3.67846C96.4663 7.47856 100.517 14.43 100.517 21.9684C100.517 22.8952 100.146 23.7603 99.4965 24.4091C98.8472 25.0579 97.9505 25.4286 97.0538 25.4286Z" fill="#FAF6F0"/>
<path d="M141.456 35.8688C134.53 35.6217 127.82 33.3663 122.13 29.35C120.523 28.2995 120.09 26.1369 121.141 24.5612C122.192 22.9547 124.357 22.5222 125.934 23.5726C132.643 27.9906 139.786 29.8443 145.197 28.454C147.052 27.9906 148.939 29.1028 149.433 30.9565C149.928 32.8102 148.784 34.6948 146.929 35.1892C145.166 35.6526 143.311 35.8688 141.456 35.8688Z" fill="#FAF6F0"/>
<path d="M142.816 66.703C141.208 66.6412 139.848 65.4981 139.539 63.9533C139.229 62.3777 140.002 60.802 141.456 60.1223C144.115 59.041 146.248 57.0019 147.485 54.4067C148.691 51.8115 148.908 48.8765 148.042 46.1268L143.435 31.3281C143.156 30.4321 143.249 29.4744 143.682 28.6711C144.115 27.8678 144.857 27.2499 145.754 26.9719C147.609 26.4158 149.557 27.4353 150.114 29.289L154.721 44.0878C156.112 48.4749 155.803 53.2327 153.855 57.4036C151.907 61.5744 148.444 64.8493 144.146 66.5794C143.713 66.703 143.28 66.7339 142.816 66.703Z" fill="#FAF6F0"/>
<path d="M109.762 58.5809H109.515C107.598 58.4573 106.175 56.7889 106.299 54.9043L108.031 30.0956C108.154 28.1801 109.824 26.7589 111.741 26.8825C113.658 27.0061 115.111 28.6744 114.957 30.5899L113.225 55.3987C113.102 57.1906 111.586 58.5809 109.762 58.5809Z" fill="#FAF6F0"/>
<path d="M70.9567 28.3926C69.0396 28.4853 67.4008 27.0023 67.3081 25.1177C67.2153 23.2022 68.6995 21.5957 70.5857 21.4721C72.8429 21.2558 73.7086 19.8346 75.2856 16.4671C75.533 15.9418 75.7803 15.4166 76.0277 14.9532C76.8935 13.254 78.9651 12.5434 80.6658 13.4084C82.3664 14.2735 83.0776 16.3435 82.2118 18.0427C81.9954 18.4752 81.7789 18.9387 81.5625 19.4021C80.0164 22.7388 77.6974 27.7129 71.2968 28.3617L70.9567 28.3926Z" fill="#FAF6F0"/>
<path d="M96.4354 28.6401C82.3665 28.6401 78.656 23.4497 76.3061 18.6301L76.0278 18.074C75.162 16.3747 75.8732 14.2739 77.5738 13.4397C79.2744 12.5746 81.377 13.2852 82.2119 14.9845L82.5211 15.6024C83.9125 18.4756 85.4895 21.7196 96.3735 21.7196C98.2906 21.7196 99.8366 23.2643 99.8366 25.1798C99.8366 27.0953 98.2906 28.6401 96.3735 28.6401H96.4354Z" fill="#FAF6F0"/>
<path d="M32.3678 103.038C30.9764 103.038 29.7086 102.204 29.183 100.906C28.6573 99.6086 28.9356 98.1256 29.9251 97.137C31.2856 95.8085 33.45 95.8085 34.8105 97.137C36.1401 98.4964 36.1401 100.659 34.8105 102.018C34.6559 102.173 34.4704 102.327 34.2849 102.451C34.0994 102.575 33.8829 102.698 33.6665 102.791C33.45 102.883 33.2336 102.945 33.0171 102.976C32.8316 103.007 32.5842 103.038 32.3678 103.038Z" fill="#FAF6F0"/>
<path d="M32.3679 94.6364C30.4508 94.6364 28.9048 93.0917 28.9048 91.1762V90.929C28.9048 89.0135 30.4508 87.4688 32.3679 87.4688C34.285 87.4688 35.831 89.0135 35.831 90.929V91.1762C35.831 92.103 35.46 92.9681 34.8106 93.6169C34.1613 94.2657 33.2955 94.6364 32.3679 94.6364Z" fill="#FAF6F0"/>
<path d="M32.3678 85.7374C30.9764 85.7374 29.7086 84.9032 29.183 83.6056C28.6573 82.308 28.9356 80.8251 29.9251 79.8364C30.9145 78.8478 32.3987 78.5388 33.6974 79.0949C34.9961 79.6202 35.8309 80.8869 35.8309 82.2771C35.8309 83.204 35.4599 84.069 34.8105 84.7178C34.1612 85.3666 33.2954 85.7374 32.3678 85.7374Z" fill="#FAF6F0"/>
<path d="M113.751 101.305C111.834 101.305 110.288 99.7601 110.288 97.8446V85.7337C110.288 83.8182 111.834 82.2734 113.751 82.2734C115.668 82.2734 117.214 83.8182 117.214 85.7337V97.8446C117.214 98.7714 116.843 99.6365 116.194 100.285C115.544 100.934 114.679 101.305 113.751 101.305Z" fill="#FAF6F0"/>
</g>
<defs>
<clipPath id="clip0_598_2374">
<rect width="161.035" height="102.263" fill="white" transform="translate(0.334106 0.867188)"/>
</clipPath>
</defs>
</svg>
