<svg width="172" height="76" viewBox="0 0 172 76" fill="none" xmlns="http://www.w3.org/2000/svg">
<rect x="0.496094" y="0.242188" width="171" height="75" fill="#2C2C2C"/>
<path d="M23.4961 37.2402C23.4961 41.7328 23.8627 47.1078 28.0572 50.7021C34.4919 56.21 38.6944 56.2422 43.2536 56.2422C47.8127 56.2422 51.6123 54.6588 56.9309 49.1185C59.9488 45.9675 61.3671 42.7684 61.4879 39.6174C61.5526 38.0097 60.7467 34.4922 60.4001 33.223C58.8811 27.6828 56.1008 25.0678 53.4576 22.626C48.7071 18.2422 43.2536 18.2422 40.2136 18.2422C35.6545 18.2422 32.022 19.6484 28.8167 22.9927C25.7766 26.1597 23.4961 32.4897 23.4961 37.2402Z" fill="#FDFBF9"/>
<path d="M55.4987 34.251C54.9104 33.699 54.0442 33.421 52.8997 33.421C52.239 33.421 51.6427 33.5458 51.1149 33.7875C50.5871 34.0294 50.188 34.3719 49.918 34.815H49.6744C49.1363 33.8882 48.113 33.421 46.5999 33.421C45.937 33.421 45.3528 33.5498 44.837 33.7917C44.3273 34.0374 43.9367 34.3799 43.6645 34.8152H43.5114L43.2275 33.6024H43.2195L43.2275 33.5862H41.0335L38.1082 39.4367V29.9316H35.187V32.9294C35.187 33.4814 35.2556 34.11 35.3967 34.8191H35.308C34.6312 33.8922 33.8192 33.4289 32.5359 33.4289C31.315 33.4289 30.354 33.86 29.655 34.7303C28.958 35.5966 28.6094 36.8094 28.6094 38.3647C28.6094 39.8958 28.9519 41.0964 29.6368 41.9628C30.3218 42.829 31.2666 43.2601 32.4633 43.2601C33.7608 43.2601 34.627 42.7929 35.2595 41.862H35.3804L35.9163 43.0868H38.1082H38.475L41.0335 37.9698V43.0868H43.7896V38.6224C43.7896 37.5103 43.9508 36.7086 44.269 36.2252C44.5873 35.7336 45.1011 35.4919 45.8041 35.4919C46.3319 35.4919 46.7148 35.6652 46.9585 36.0077C47.2023 36.3502 47.323 36.8619 47.323 37.5469V43.087H50.0791V38.3286C50.0791 37.3454 50.2485 36.6242 50.5828 36.1729C50.9173 35.7174 51.421 35.4919 52.0958 35.4919C52.6217 35.4919 53.0045 35.6652 53.2462 36.0077C53.492 36.3502 53.6128 36.8619 53.6128 37.5469V43.087H56.3809V36.9021C56.381 35.6855 56.0869 34.803 55.4987 34.251ZM35.5497 38.7275C35.5215 39.6464 35.3422 40.299 35.0178 40.6857C34.6956 41.0687 34.1859 41.2619 33.4907 41.2619C32.8643 41.2619 32.3786 41.0283 32.0403 40.5609C31.7017 40.0975 31.5325 39.3964 31.5325 38.4616C31.5325 37.5309 31.7017 36.8217 32.0362 36.3342C32.3706 35.8427 32.8422 35.5968 33.4465 35.5968C34.1877 35.5968 34.7258 35.8184 35.0542 36.2575C35.3846 36.6968 35.5497 37.4301 35.5497 38.4454V38.7275Z" fill="#2C2C2C"/>
<path d="M84.7286 41.5564C84.1425 41.0044 83.278 40.7305 82.1318 40.7305C81.4709 40.7305 80.8747 40.8554 80.3469 41.0971C79.8191 41.3428 79.42 41.6814 79.15 42.1246H78.9043C78.3683 41.1978 77.345 40.7305 75.8339 40.7305C75.1691 40.7305 74.5808 40.8554 74.069 41.0971C73.5574 41.3471 73.1665 41.6856 72.8965 42.1246H72.7434L72.4573 40.9118L70.2675 40.8995L68.8027 43.8208L70.2675 44.5502V50.3967H73.0214V45.9322C73.0214 44.8161 73.1827 44.0185 73.5029 43.5307C73.8193 43.0432 74.335 42.8015 75.036 42.8015C75.5638 42.8015 75.9466 42.9747 76.1925 43.3171C76.4343 43.6596 76.5552 44.1672 76.5552 44.8563V50.3965H79.3111V45.6339C79.3111 44.6507 79.4803 43.9335 79.8148 43.4783C80.1492 43.027 80.6529 42.8015 81.3277 42.8015C81.8516 42.8015 82.2364 42.9747 82.4802 43.3171C82.7238 43.6596 82.8467 44.1672 82.8467 44.8563V50.3965H85.6088V44.2116C85.6089 42.9949 85.3168 42.1086 84.7286 41.5564ZM94.163 50.3967L93.6614 49.1031H93.5949C93.1557 49.6552 92.7066 50.0341 92.2452 50.2476C91.7857 50.457 91.1834 50.5699 90.442 50.5699C89.5293 50.5699 88.8121 50.3082 88.2882 49.7842C87.7643 49.2643 87.5025 48.5192 87.5025 47.5561C87.5025 46.5488 87.8571 45.8072 88.5583 45.3278C89.2673 44.8484 90.329 44.5864 91.7495 44.534L93.3973 44.4816V44.0666C93.3973 43.1037 92.9036 42.6202 91.9185 42.6202C91.161 42.6202 90.2665 42.8498 89.2451 43.3091L88.3849 41.5603C89.4768 40.9883 90.6896 40.698 92.0192 40.698C93.2966 40.698 94.2716 40.9801 94.9506 41.5364C95.6334 42.0882 95.9719 42.9345 95.9719 44.0666V50.3967H94.163ZM93.3975 45.9925L92.3942 46.029C91.6408 46.0532 91.0806 46.1861 90.712 46.4358C90.3475 46.6859 90.1619 47.0645 90.1619 47.576C90.1619 48.3055 90.5791 48.6721 91.4193 48.6721C92.0155 48.6721 92.499 48.4989 92.8576 48.1565C93.2161 47.81 93.3975 47.3505 93.3975 46.7743V45.9925ZM102.58 50.5699C99.6268 50.5699 98.1481 48.942 98.1481 45.6985C98.1481 44.083 98.551 42.85 99.3528 41.9957C100.159 41.1456 101.311 40.7185 102.81 40.7185C103.91 40.7185 104.895 40.9361 105.767 41.3633L105.002 43.3697C104.595 43.2005 104.216 43.0714 103.866 42.9668C103.515 42.8579 103.164 42.8097 102.81 42.8097C101.464 42.8097 100.787 43.7685 100.787 45.6786C100.787 47.5401 101.464 48.4669 102.81 48.4669C103.31 48.4669 103.771 48.4023 104.196 48.2694C104.619 48.1364 105.046 47.9269 105.469 47.6409V49.8611C105.05 50.127 104.627 50.3083 104.202 50.413C103.773 50.5135 103.233 50.5699 102.58 50.5699ZM116.558 50.3967H113.969V44.8484C113.969 43.4784 113.459 42.7934 112.44 42.7934C111.715 42.7934 111.189 43.0393 110.868 43.5307C110.546 44.0223 110.385 44.8202 110.385 45.9241V50.3965H107.79V37.1726H110.385V39.8681C110.385 40.0777 110.363 40.5693 110.322 41.3471L110.264 42.1086H110.401C110.977 41.1817 111.896 40.7185 113.151 40.7185C114.267 40.7185 115.115 41.0166 115.691 41.6211C116.268 42.2216 116.558 43.0798 116.558 44.1998V50.3967H116.558ZM119.201 38.4421C119.201 37.5959 119.672 37.1726 120.611 37.1726C121.554 37.1726 122.021 37.5959 122.021 38.4421C122.021 38.8448 121.904 39.159 121.669 39.3807C121.435 39.6023 121.082 39.7153 120.611 39.7153C119.672 39.7152 119.201 39.2881 119.201 38.4421ZM121.904 50.3967H119.314V40.8996H121.904V50.3967ZM133.475 50.3967H130.886V44.8484C130.886 44.1634 130.761 43.6475 130.519 43.3052C130.273 42.9587 129.886 42.7934 129.355 42.7934C128.629 42.7934 128.106 43.0351 127.783 43.5187C127.461 44.0021 127.3 44.8081 127.3 45.9241V50.3965H124.709V40.8995H126.687L127.034 42.1084H127.181C127.469 41.6531 127.866 41.3067 128.371 41.069C128.883 40.8393 129.455 40.7184 130.104 40.7184C131.206 40.7184 132.046 41.0165 132.616 41.6169C133.191 42.2091 133.475 43.0712 133.475 44.1995V50.3967H133.475ZM142.26 50.3967L141.761 49.1031H141.69C141.253 49.6552 140.806 50.0341 140.347 50.2476C139.883 50.457 139.279 50.5699 138.538 50.5699C137.627 50.5699 136.91 50.3082 136.386 49.7842C135.86 49.2643 135.6 48.5192 135.6 47.5561C135.6 46.5488 135.953 45.8072 136.656 45.3278C137.363 44.8484 138.425 44.5864 139.849 44.534L141.495 44.4816V44.0666C141.495 43.1037 141.004 42.6202 140.016 42.6202C139.259 42.6202 138.364 42.8498 137.341 43.3091L136.482 41.5603C137.578 40.9883 138.789 40.698 140.121 40.698C141.394 40.698 142.369 40.9801 143.05 41.5364C143.729 42.0882 144.07 42.9345 144.07 44.0666V50.3967H142.26ZM141.495 45.9925L140.496 46.029C139.74 46.0532 139.18 46.1861 138.811 46.4358C138.445 46.6859 138.259 47.0645 138.259 47.576C138.259 48.3055 138.678 48.6721 139.516 48.6721C140.117 48.6721 140.596 48.4989 140.957 48.1565C141.315 47.81 141.495 47.3505 141.495 46.7743V45.9925H141.495ZM86.4147 35.7826L85.9152 34.4891H85.8467C85.4116 35.0371 84.9644 35.4199 84.501 35.6335C84.0377 35.847 83.4373 35.9518 82.6959 35.9518C81.7853 35.9518 81.0681 35.6899 80.5442 35.1661C80.0205 34.6464 79.7587 33.9089 79.7587 32.942C79.7587 31.9345 80.1091 31.1892 80.8163 30.7137C81.5194 30.2342 82.583 29.9683 84.0054 29.9159L85.6534 29.8675V29.4525C85.6534 28.4895 85.1599 28.0061 84.1747 28.0061C83.415 28.0061 82.5225 28.2357 81.4991 28.6951L80.6409 26.9463C81.7349 26.3743 82.9456 26.0841 84.2754 26.0841C85.5486 26.0841 86.5277 26.3661 87.2065 26.9181C87.8854 27.4743 88.2258 28.3163 88.2258 29.4525V35.7824H86.4147V35.7826ZM85.6533 31.3826L84.65 31.4149C83.8964 31.4351 83.3365 31.5761 82.9677 31.8218C82.5991 32.0717 82.4178 32.4544 82.4178 32.9621C82.4178 33.6913 82.8368 34.058 83.6749 34.058C84.2732 34.058 84.7548 33.8848 85.1114 33.5382C85.472 33.1917 85.6533 32.7364 85.6533 32.1642V31.3826ZM94.578 33.8848C95.0336 33.8848 95.5773 33.788 96.2099 33.5866V35.5167C95.5612 35.8068 94.7695 35.9518 93.8327 35.9518C92.797 35.9518 92.0397 35.6899 91.5683 35.1661C91.0968 34.6423 90.8591 33.8565 90.8591 32.809V28.2277H89.6181V27.1318L91.0444 26.2655L91.7938 24.259H93.4499V26.2816H96.1052V28.2278H93.4499V32.8091C93.4499 33.1757 93.5506 33.4457 93.7601 33.6231C93.9656 33.7961 94.2396 33.8848 94.578 33.8848ZM104.228 35.7826L103.729 34.4891H103.656C103.221 35.0371 102.776 35.4199 102.314 35.6335C101.851 35.847 101.251 35.9518 100.509 35.9518C99.5966 35.9518 98.8774 35.6899 98.3555 35.1661C97.8296 34.6464 97.5677 33.9089 97.5677 32.942C97.5677 31.9345 97.9224 31.1892 98.6255 30.7137C99.3326 30.2342 100.394 29.9683 101.815 29.9159L103.462 29.8675V29.4525C103.462 28.4895 102.969 28.0061 101.984 28.0061C101.226 28.0061 100.336 28.2357 99.3103 28.6951L98.4541 26.9463C99.5459 26.3743 100.755 26.0841 102.089 26.0841C103.362 26.0841 104.337 26.3661 105.018 26.9181C105.695 27.4743 106.035 28.3163 106.035 29.4525V35.7824H104.228V35.7826ZM103.463 31.3826L102.463 31.4149C101.708 31.4351 101.146 31.5761 100.779 31.8218C100.41 32.0717 100.227 32.4544 100.227 32.9621C100.227 33.6913 100.646 34.058 101.484 34.058C102.084 34.058 102.564 33.8848 102.923 33.5382C103.281 33.1917 103.462 32.7364 103.462 32.1642V31.3826H103.463ZM72.6568 35.9518C71.4581 35.9518 70.5154 35.5167 69.8342 34.6544C69.1454 33.788 68.8027 32.5873 68.8027 31.0561C68.8027 29.5008 69.1534 28.288 69.8504 27.4217C70.5476 26.5514 71.5086 26.1163 72.7293 26.1163C74.0166 26.1163 74.8226 26.5796 75.5015 27.5063H75.5882C75.451 26.8012 75.3786 26.1687 75.3786 25.6167V22.627H78.3039V35.7824H76.112L75.5719 34.5494H75.4552C74.8226 35.4844 73.9523 35.9518 72.6568 35.9518ZM73.6864 33.9533C74.3793 33.9533 74.889 33.7599 75.2093 33.3731C75.5358 32.9904 75.711 32.3376 75.7413 31.4149V31.1368C75.7413 30.1215 75.5762 29.3922 75.2457 28.9489C74.9195 28.5098 74.3836 28.2883 73.642 28.2883C73.0376 28.2883 72.5662 28.534 72.2319 29.0175C71.8934 29.5091 71.7282 30.2223 71.7282 31.153C71.7282 32.0837 71.8974 32.7848 72.2358 33.2523C72.5744 33.7155 73.0577 33.9533 73.6864 33.9533Z" fill="#FDFBF9"/>
</svg>
