<svg width="26" height="26" viewBox="0 0 26 26" fill="none" xmlns="http://www.w3.org/2000/svg">
<path d="M13.2109 22.7012C18.7338 22.7012 23.2109 18.224 23.2109 12.7012C23.2109 7.17832 18.7338 2.70117 13.2109 2.70117C7.68809 2.70117 3.21094 7.17832 3.21094 12.7012C3.21094 18.224 7.68809 22.7012 13.2109 22.7012Z" stroke="#FDFBF9" stroke-width="2.50038" stroke-miterlimit="10"/>
<path d="M11.8398 15.5762C11.8398 14.7012 11.9648 14.0762 12.0898 13.5762C12.2148 13.0762 12.7148 12.5762 13.2148 12.0762C13.7148 11.5762 14.0898 11.2012 14.3398 10.9512C14.4648 10.7012 14.5898 10.3262 14.5898 9.95117C14.5898 8.95117 14.0898 8.45117 13.2148 8.45117C12.7148 8.45117 12.4648 8.57617 12.0898 8.82617C11.9648 9.07617 11.8398 9.45117 11.7148 9.95117H9.21484C9.21484 8.82617 9.58984 7.95117 10.3398 7.20117C10.9648 6.57617 11.9648 6.32617 13.2148 6.32617C14.4648 6.32617 15.4648 6.57617 16.2148 7.20117C16.9648 7.82617 17.2148 8.70117 17.2148 9.82617C17.2148 10.3262 17.0898 10.8262 16.8398 11.3262C16.5898 11.8262 16.2148 12.3262 15.5898 12.8262L14.8398 13.5762C14.3398 14.0762 14.0898 14.5762 14.0898 15.0762V15.5762H11.8398ZM11.5898 18.3262C11.5898 17.9512 11.7148 17.5762 11.9648 17.3262C12.2148 17.0762 12.5898 16.9512 12.9648 16.9512C13.3398 16.9512 13.7148 17.0762 13.9648 17.3262C14.2148 17.5762 14.3398 17.9512 14.3398 18.3262C14.3398 18.7012 14.2148 19.0762 13.9648 19.3262C13.7148 19.5762 13.3398 19.7012 12.9648 19.7012C12.5898 19.7012 12.3398 19.5762 11.9648 19.3262C11.5898 19.0762 11.5898 18.7012 11.5898 18.3262Z" fill="#FDFBF9"/>
</svg>
