<svg width="26" height="26" viewBox="0 0 26 26" fill="none" xmlns="http://www.w3.org/2000/svg">
<path d="M13.457 22.75C18.9799 22.75 23.457 18.2728 23.457 12.75C23.457 7.22715 18.9799 2.75 13.457 2.75C7.93418 2.75 3.45703 7.22715 3.45703 12.75C3.45703 18.2728 7.93418 22.75 13.457 22.75Z" stroke="#FDFBF9" stroke-width="2.50038" stroke-miterlimit="10"/>
<path d="M12.0859 15.625C12.0859 14.75 12.2109 14.125 12.3359 13.625C12.4609 13.125 12.9609 12.625 13.4609 12.125C13.9609 11.625 14.3359 11.25 14.5859 11C14.7109 10.75 14.8359 10.375 14.8359 10C14.8359 9 14.3359 8.5 13.4609 8.5C12.9609 8.5 12.7109 8.625 12.3359 8.875C12.2109 9.125 12.0859 9.5 11.9609 10H9.46094C9.46094 8.875 9.83594 8 10.5859 7.25C11.2109 6.625 12.2109 6.375 13.4609 6.375C14.7109 6.375 15.7109 6.625 16.4609 7.25C17.2109 7.875 17.4609 8.75 17.4609 9.875C17.4609 10.375 17.3359 10.875 17.0859 11.375C16.8359 11.875 16.4609 12.375 15.8359 12.875L15.0859 13.625C14.5859 14.125 14.3359 14.625 14.3359 15.125V15.625H12.0859ZM11.8359 18.375C11.8359 18 11.9609 17.625 12.2109 17.375C12.4609 17.125 12.8359 17 13.2109 17C13.5859 17 13.9609 17.125 14.2109 17.375C14.4609 17.625 14.5859 18 14.5859 18.375C14.5859 18.75 14.4609 19.125 14.2109 19.375C13.9609 19.625 13.5859 19.75 13.2109 19.75C12.8359 19.75 12.5859 19.625 12.2109 19.375C11.8359 19.125 11.8359 18.75 11.8359 18.375Z" fill="#FDFBF9"/>
</svg>
