<svg width="210" height="250" viewBox="0 0 210 250" fill="none" xmlns="http://www.w3.org/2000/svg">
<g filter="url(#filter0_f_2061_9464)">
<ellipse cx="89.4842" cy="216.833" rx="69.3436" ry="13.1145" fill="#2C2C2C" fill-opacity="0.35"/>
</g>
<path d="M171.716 87.3077C171.716 119.798 150.741 150.439 129.059 173.326C118.292 184.691 107.513 193.974 99.4217 200.417C95.3788 203.637 92.0143 206.141 89.6675 207.836C89.0556 208.278 88.5131 208.665 88.0459 208.995C87.5788 208.665 87.0362 208.278 86.4243 207.836C84.0776 206.141 80.7131 203.637 76.6702 200.417C68.5788 193.974 57.7997 184.691 47.033 173.326C25.3508 150.439 4.3761 119.798 4.3761 87.3077C4.3761 65.117 13.1913 43.8353 28.8824 28.1441C44.5736 12.453 65.8553 3.63782 88.0459 3.63782C110.237 3.63782 131.518 12.453 147.209 28.1441C162.901 43.8353 171.716 65.117 171.716 87.3077Z" fill="#FFA400"/>
<path d="M171.716 87.3077C171.716 119.798 150.741 150.439 129.059 173.326C118.292 184.691 107.513 193.974 99.4217 200.417C95.3788 203.637 92.0143 206.141 89.6675 207.836C89.0556 208.278 88.5131 208.665 88.0459 208.995C87.5788 208.665 87.0362 208.278 86.4243 207.836C84.0776 206.141 80.7131 203.637 76.6702 200.417C68.5788 193.974 57.7997 184.691 47.033 173.326C25.3508 150.439 4.3761 119.798 4.3761 87.3077C4.3761 65.117 13.1913 43.8353 28.8824 28.1441C44.5736 12.453 65.8553 3.63782 88.0459 3.63782C110.237 3.63782 131.518 12.453 147.209 28.1441C162.901 43.8353 171.716 65.117 171.716 87.3077Z" stroke="#FFA400" stroke-width="7.27564" stroke-linecap="round" stroke-linejoin="round"/>
<path d="M171.716 87.3077C171.716 119.798 150.741 150.439 129.059 173.326C118.292 184.691 107.513 193.974 99.4217 200.417C95.3788 203.637 92.0143 206.141 89.6675 207.836C89.0556 208.278 88.5131 208.665 88.0459 208.995C87.5788 208.665 87.0362 208.278 86.4243 207.836C84.0776 206.141 80.7131 203.637 76.6702 200.417C68.5788 193.974 57.7997 184.691 47.033 173.326C25.3508 150.439 4.3761 119.798 4.3761 87.3077C4.3761 65.117 13.1913 43.8353 28.8824 28.1441C44.5736 12.453 65.8553 3.63782 88.0459 3.63782C110.237 3.63782 131.518 12.453 147.209 28.1441C162.901 43.8353 171.716 65.117 171.716 87.3077Z" stroke="#2C2C2C" stroke-opacity="0.5" stroke-width="7.27564" stroke-linecap="round" stroke-linejoin="round"/>
<path d="M47.5863 54.9088L47.5865 54.909L65.8479 70.9772C66.5666 71.6095 67.6669 71.5174 68.2704 70.7743L84.5873 50.6838C85.0185 50.1537 85.5637 49.7278 86.1824 49.4376C86.8011 49.1475 87.4773 49.0007 88.1606 49.0081C88.8439 49.0155 89.5167 49.177 90.1289 49.4805C90.7412 49.784 91.2771 50.2217 91.6967 50.7611L91.6967 50.7612L107.243 70.7335C107.836 71.4952 108.946 71.6046 109.676 70.9733L128.539 54.6651C128.539 54.665 128.539 54.665 128.539 54.6649C129.24 54.0604 130.109 53.6844 131.029 53.587C131.949 53.4897 132.878 53.6758 133.689 54.1204C134.501 54.565 135.157 55.247 135.571 56.075C135.984 56.903 136.135 57.8376 136.003 58.7536L136.002 58.7623L136.001 58.7711L130.057 113.593C129.548 118.285 125.587 121.84 120.868 121.84H56.495C51.858 121.84 47.9387 118.404 47.3315 113.807L40.0919 58.9965L40.092 58.9965L40.0908 58.9882C39.9533 58.0671 40.1023 57.126 40.5175 56.2924C40.9328 55.4588 41.5942 54.773 42.4122 54.3278C43.2302 53.8826 44.1653 53.6996 45.0908 53.8035C46.0162 53.9074 46.8874 54.2933 47.5863 54.9088Z" fill="#FDFBF9" stroke="#959595"/>
<rect x="138.976" y="2.42521" width="67.906" height="67.906" rx="33.953" fill="#3E9A00"/>
<path fill-rule="evenodd" clip-rule="evenodd" d="M172.926 16.0312L199.259 44.7591L191.054 52.2807L172.926 32.5043L154.797 52.2807L146.592 44.7591L172.926 16.0312Z" fill="#FDFBF9"/>
<rect x="138.976" y="2.42521" width="67.906" height="67.906" rx="33.953" stroke="#3E9A00" stroke-width="4.85043"/>
<rect x="138.976" y="2.42521" width="67.906" height="67.906" rx="33.953" stroke="black" stroke-opacity="0.25" stroke-width="4.85043"/>
<defs>
<filter id="filter0_f_2061_9464" x="0.738922" y="184.317" width="177.491" height="65.03" filterUnits="userSpaceOnUse" color-interpolation-filters="sRGB">
<feFlood flood-opacity="0" result="BackgroundImageFix"/>
<feBlend mode="normal" in="SourceGraphic" in2="BackgroundImageFix" result="shape"/>
<feGaussianBlur stdDeviation="9.70085" result="effect1_foregroundBlur_2061_9464"/>
</filter>
</defs>
</svg>
