<svg width="178" height="250" viewBox="0 0 178 250" fill="none" xmlns="http://www.w3.org/2000/svg">
<g filter="url(#filter0_f_2044_10156)">
<ellipse cx="88.7459" cy="216.833" rx="69.3436" ry="13.1145" fill="#2C2C2C" fill-opacity="0.35"/>
</g>
<path d="M170.978 87.3077C170.978 119.798 150.003 150.439 128.321 173.326C117.554 184.691 106.775 193.974 98.6834 200.417C94.6405 203.637 91.276 206.141 88.9293 207.836C88.3174 208.278 87.7748 208.665 87.3077 208.995C86.8405 208.665 86.298 208.278 85.6861 207.836C83.3393 206.141 79.9748 203.637 75.9319 200.417C67.8405 193.974 57.0614 184.691 46.2947 173.326C24.6125 150.439 3.63782 119.798 3.63782 87.3077C3.63782 65.117 12.453 43.8353 28.1441 28.1441C43.8353 12.453 65.117 3.63782 87.3077 3.63782C109.498 3.63782 130.78 12.453 146.471 28.1441C162.162 43.8353 170.978 65.117 170.978 87.3077Z" fill="#FFA400"/>
<path d="M170.978 87.3077C170.978 119.798 150.003 150.439 128.321 173.326C117.554 184.691 106.775 193.974 98.6834 200.417C94.6405 203.637 91.276 206.141 88.9293 207.836C88.3174 208.278 87.7748 208.665 87.3077 208.995C86.8405 208.665 86.298 208.278 85.6861 207.836C83.3393 206.141 79.9748 203.637 75.9319 200.417C67.8405 193.974 57.0614 184.691 46.2947 173.326C24.6125 150.439 3.63782 119.798 3.63782 87.3077C3.63782 65.117 12.453 43.8353 28.1441 28.1441C43.8353 12.453 65.117 3.63782 87.3077 3.63782C109.498 3.63782 130.78 12.453 146.471 28.1441C162.162 43.8353 170.978 65.117 170.978 87.3077Z" stroke="#FFA400" stroke-width="7.27564" stroke-linecap="round" stroke-linejoin="round"/>
<path d="M170.978 87.3077C170.978 119.798 150.003 150.439 128.321 173.326C117.554 184.691 106.775 193.974 98.6834 200.417C94.6405 203.637 91.276 206.141 88.9293 207.836C88.3174 208.278 87.7748 208.665 87.3077 208.995C86.8405 208.665 86.298 208.278 85.6861 207.836C83.3393 206.141 79.9748 203.637 75.9319 200.417C67.8405 193.974 57.0614 184.691 46.2947 173.326C24.6125 150.439 3.63782 119.798 3.63782 87.3077C3.63782 65.117 12.453 43.8353 28.1441 28.1441C43.8353 12.453 65.117 3.63782 87.3077 3.63782C109.498 3.63782 130.78 12.453 146.471 28.1441C162.162 43.8353 170.978 65.117 170.978 87.3077Z" stroke="#2C2C2C" stroke-opacity="0.5" stroke-width="7.27564" stroke-linecap="round" stroke-linejoin="round"/>
<path d="M46.848 54.9088L46.8482 54.909L65.1096 70.9772C65.8283 71.6095 66.9286 71.5174 67.5321 70.7743L83.849 50.6838C84.2802 50.1537 84.8255 49.7278 85.4441 49.4376C86.0628 49.1475 86.739 49.0007 87.4223 49.0081C88.1056 49.0155 88.7784 49.177 89.3907 49.4805C90.0029 49.784 90.5388 50.2217 90.9584 50.7611L90.9585 50.7612L106.505 70.7335C107.098 71.4952 108.208 71.6046 108.938 70.9733L127.801 54.6651C127.801 54.665 127.801 54.665 127.801 54.6649C128.502 54.0604 129.37 53.6844 130.291 53.587C131.211 53.4897 132.139 53.6758 132.951 54.1204C133.763 54.565 134.419 55.247 134.833 56.075C135.246 56.903 135.397 57.8376 135.265 58.7536L135.263 58.7623L135.262 58.7711L129.319 113.593C128.81 118.285 124.849 121.84 120.129 121.84H55.7567C51.1197 121.84 47.2004 118.404 46.5932 113.807L39.3536 58.9965L39.3537 58.9965L39.3525 58.9882C39.215 58.0671 39.364 57.126 39.7793 56.2924C40.1945 55.4588 40.8559 54.773 41.6739 54.3278C42.4919 53.8826 43.427 53.6996 44.3525 53.8035C45.278 53.9074 46.1491 54.2933 46.848 54.9088Z" fill="#FDFBF9" stroke="#959595"/>
<defs>
<filter id="filter0_f_2044_10156" x="0.000640869" y="184.317" width="177.491" height="65.03" filterUnits="userSpaceOnUse" color-interpolation-filters="sRGB">
<feFlood flood-opacity="0" result="BackgroundImageFix"/>
<feBlend mode="normal" in="SourceGraphic" in2="BackgroundImageFix" result="shape"/>
<feGaussianBlur stdDeviation="9.70085" result="effect1_foregroundBlur_2044_10156"/>
</filter>
</defs>
</svg>
