<svg width="210" height="250" viewBox="0 0 210 250" fill="none" xmlns="http://www.w3.org/2000/svg">
<g filter="url(#filter0_f_2042_10029)">
<ellipse cx="89.5897" cy="216.833" rx="69.3436" ry="13.1145" fill="#2C2C2C" fill-opacity="0.35"/>
</g>
<path d="M171.821 87.3077C171.821 119.798 150.847 150.439 129.164 173.326C118.398 184.691 107.619 193.974 99.5271 200.417C95.4843 203.637 92.1198 206.141 89.773 207.836C89.1611 208.278 88.6186 208.665 88.1514 208.995C87.6842 208.665 87.1417 208.278 86.5298 207.836C84.1831 206.141 80.8185 203.637 76.7757 200.417C68.6842 193.974 57.9052 184.691 47.1385 173.326C25.4563 150.439 4.48157 119.798 4.48157 87.3077C4.48157 65.117 13.2968 43.8353 28.9879 28.1441C44.679 12.453 65.9608 3.63782 88.1514 3.63782C110.342 3.63782 131.624 12.453 147.315 28.1441C163.006 43.8353 171.821 65.117 171.821 87.3077Z" fill="#FFA400"/>
<path d="M171.821 87.3077C171.821 119.798 150.847 150.439 129.164 173.326C118.398 184.691 107.619 193.974 99.5271 200.417C95.4843 203.637 92.1198 206.141 89.773 207.836C89.1611 208.278 88.6186 208.665 88.1514 208.995C87.6842 208.665 87.1417 208.278 86.5298 207.836C84.1831 206.141 80.8185 203.637 76.7757 200.417C68.6842 193.974 57.9052 184.691 47.1385 173.326C25.4563 150.439 4.48157 119.798 4.48157 87.3077C4.48157 65.117 13.2968 43.8353 28.9879 28.1441C44.679 12.453 65.9608 3.63782 88.1514 3.63782C110.342 3.63782 131.624 12.453 147.315 28.1441C163.006 43.8353 171.821 65.117 171.821 87.3077Z" stroke="#FFA400" stroke-width="7.27564" stroke-linecap="round" stroke-linejoin="round"/>
<path d="M171.821 87.3077C171.821 119.798 150.847 150.439 129.164 173.326C118.398 184.691 107.619 193.974 99.5271 200.417C95.4843 203.637 92.1198 206.141 89.773 207.836C89.1611 208.278 88.6186 208.665 88.1514 208.995C87.6842 208.665 87.1417 208.278 86.5298 207.836C84.1831 206.141 80.8185 203.637 76.7757 200.417C68.6842 193.974 57.9052 184.691 47.1385 173.326C25.4563 150.439 4.48157 119.798 4.48157 87.3077C4.48157 65.117 13.2968 43.8353 28.9879 28.1441C44.679 12.453 65.9608 3.63782 88.1514 3.63782C110.342 3.63782 131.624 12.453 147.315 28.1441C163.006 43.8353 171.821 65.117 171.821 87.3077Z" stroke="#2C2C2C" stroke-opacity="0.5" stroke-width="7.27564" stroke-linecap="round" stroke-linejoin="round"/>
<path d="M94.0766 43.2442L102.781 62.7715C103.896 65.2734 106.26 66.9912 108.985 67.2787L130.246 69.5227C135.83 70.1121 138.08 77.0354 133.908 80.7944L118.027 95.107C115.992 96.9408 115.089 99.7202 115.657 102.4L120.093 123.314C121.258 128.807 115.369 133.086 110.505 130.28L91.9848 119.599C89.612 118.23 86.6895 118.23 84.3167 119.599L65.7969 130.28C60.9328 133.086 55.0435 128.807 56.2086 123.314L60.6445 102.4C61.2128 99.7202 60.3098 96.9408 58.2749 95.107L42.3931 80.7945C38.2219 77.0354 40.4714 70.1121 46.0555 69.5227L67.3169 67.2787C70.041 66.9912 72.4053 65.2734 73.5205 62.7715L82.2248 43.2442C84.5109 38.1155 91.7905 38.1155 94.0766 43.2442Z" fill="#FDFBF9" stroke="#959595" stroke-width="1.18597"/>
<rect x="139.081" y="2.42521" width="67.906" height="67.906" rx="33.953" fill="#F25900"/>
<path fill-rule="evenodd" clip-rule="evenodd" d="M173.037 56.7266L146.703 27.9987L154.909 20.4771L173.037 40.2535L191.166 20.4771L199.371 27.9987L173.037 56.7266Z" fill="#FDFBF9"/>
<rect x="139.081" y="2.42521" width="67.906" height="67.906" rx="33.953" stroke="#F25900" stroke-width="4.85043"/>
<rect x="139.081" y="2.42521" width="67.906" height="67.906" rx="33.953" stroke="black" stroke-opacity="0.25" stroke-width="4.85043"/>
<defs>
<filter id="filter0_f_2042_10029" x="0.844391" y="184.317" width="177.491" height="65.03" filterUnits="userSpaceOnUse" color-interpolation-filters="sRGB">
<feFlood flood-opacity="0" result="BackgroundImageFix"/>
<feBlend mode="normal" in="SourceGraphic" in2="BackgroundImageFix" result="shape"/>
<feGaussianBlur stdDeviation="9.70085" result="effect1_foregroundBlur_2042_10029"/>
</filter>
</defs>
</svg>
