<svg width="209" height="250" viewBox="0 0 209 250" fill="none" xmlns="http://www.w3.org/2000/svg">
<g filter="url(#filter0_f_2042_10028)">
<ellipse cx="88.7674" cy="216.833" rx="69.3436" ry="13.1145" fill="#2C2C2C" fill-opacity="0.35"/>
</g>
<path d="M170.999 87.3077C170.999 119.798 150.024 150.439 128.342 173.326C117.575 184.691 106.796 193.974 98.7049 200.417C94.662 203.637 91.2975 206.141 88.9507 207.836C88.3389 208.278 87.7963 208.665 87.3291 208.995C86.862 208.665 86.3194 208.278 85.7076 207.836C83.3608 206.141 79.9963 203.637 75.9534 200.417C67.862 193.974 57.0829 184.691 46.3162 173.326C24.634 150.439 3.6593 119.798 3.6593 87.3077C3.6593 65.117 12.4745 43.8353 28.1656 28.1441C43.8568 12.453 65.1385 3.63782 87.3291 3.63782C109.52 3.63782 130.802 12.453 146.493 28.1441C162.184 43.8353 170.999 65.117 170.999 87.3077Z" fill="#FFA400"/>
<path d="M170.999 87.3077C170.999 119.798 150.024 150.439 128.342 173.326C117.575 184.691 106.796 193.974 98.7049 200.417C94.662 203.637 91.2975 206.141 88.9507 207.836C88.3389 208.278 87.7963 208.665 87.3291 208.995C86.862 208.665 86.3194 208.278 85.7076 207.836C83.3608 206.141 79.9963 203.637 75.9534 200.417C67.862 193.974 57.0829 184.691 46.3162 173.326C24.634 150.439 3.6593 119.798 3.6593 87.3077C3.6593 65.117 12.4745 43.8353 28.1656 28.1441C43.8568 12.453 65.1385 3.63782 87.3291 3.63782C109.52 3.63782 130.802 12.453 146.493 28.1441C162.184 43.8353 170.999 65.117 170.999 87.3077Z" stroke="#FFA400" stroke-width="7.27564" stroke-linecap="round" stroke-linejoin="round"/>
<path d="M170.999 87.3077C170.999 119.798 150.024 150.439 128.342 173.326C117.575 184.691 106.796 193.974 98.7049 200.417C94.662 203.637 91.2975 206.141 88.9507 207.836C88.3389 208.278 87.7963 208.665 87.3291 208.995C86.862 208.665 86.3194 208.278 85.7076 207.836C83.3608 206.141 79.9963 203.637 75.9534 200.417C67.862 193.974 57.0829 184.691 46.3162 173.326C24.634 150.439 3.6593 119.798 3.6593 87.3077C3.6593 65.117 12.4745 43.8353 28.1656 28.1441C43.8568 12.453 65.1385 3.63782 87.3291 3.63782C109.52 3.63782 130.802 12.453 146.493 28.1441C162.184 43.8353 170.999 65.117 170.999 87.3077Z" stroke="#2C2C2C" stroke-opacity="0.5" stroke-width="7.27564" stroke-linecap="round" stroke-linejoin="round"/>
<path d="M93.2544 43.2442L101.959 62.7715C103.074 65.2734 105.438 66.9912 108.162 67.2787L129.424 69.5227C135.008 70.1121 137.257 77.0354 133.086 80.7944L117.204 95.107C115.169 96.9408 114.266 99.7202 114.835 102.4L119.271 123.314C120.436 128.807 114.546 133.086 109.682 130.28L91.1626 119.599C88.7897 118.23 85.8673 118.23 83.4944 119.599L64.9746 130.28C60.1106 133.086 54.2212 128.807 55.3863 123.314L59.8222 102.4C60.3906 99.7202 59.4875 96.9408 57.4526 95.107L41.5709 80.7945C37.3996 77.0354 39.6492 70.1121 45.2333 69.5227L66.4946 67.2787C69.2187 66.9912 71.583 65.2734 72.6983 62.7715L81.4026 43.2442C83.6887 38.1155 90.9683 38.1155 93.2544 43.2442Z" fill="#FDFBF9" stroke="#959595" stroke-width="1.18597"/>
<rect x="138.259" y="2.42521" width="67.906" height="67.906" rx="33.953" fill="#3E9A00"/>
<path fill-rule="evenodd" clip-rule="evenodd" d="M172.209 16.0312L198.543 44.7591L190.337 52.2807L172.209 32.5043L154.08 52.2807L145.875 44.7591L172.209 16.0312Z" fill="#FDFBF9"/>
<rect x="138.259" y="2.42521" width="67.906" height="67.906" rx="33.953" stroke="#3E9A00" stroke-width="4.85043"/>
<rect x="138.259" y="2.42521" width="67.906" height="67.906" rx="33.953" stroke="black" stroke-opacity="0.25" stroke-width="4.85043"/>
<defs>
<filter id="filter0_f_2042_10028" x="0.0221252" y="184.317" width="177.491" height="65.03" filterUnits="userSpaceOnUse" color-interpolation-filters="sRGB">
<feFlood flood-opacity="0" result="BackgroundImageFix"/>
<feBlend mode="normal" in="SourceGraphic" in2="BackgroundImageFix" result="shape"/>
<feGaussianBlur stdDeviation="9.70085" result="effect1_foregroundBlur_2042_10028"/>
</filter>
</defs>
</svg>
