<svg width="387" height="96" viewBox="0 0 387 96" fill="none" xmlns="http://www.w3.org/2000/svg">
<rect x="36.5148" y="44.5539" width="304.556" height="49.7968" rx="9.44422" fill="#FDFBF9" stroke="#959595" stroke-width="1.71713"/>
<path d="M58.7845 76.722V78.8281H49.0184V76.722H58.7845ZM49.5281 59.2958V78.8281H46.939V59.2958H49.5281ZM60.7163 71.7315V71.423C60.7163 70.3766 60.8683 69.4063 61.1724 68.5119C61.4765 67.6086 61.9147 66.8261 62.4871 66.1643C63.0595 65.4935 63.7526 64.9748 64.5664 64.6081C65.3803 64.2325 66.2925 64.0447 67.3031 64.0447C68.3227 64.0447 69.2394 64.2325 70.0532 64.6081C70.876 64.9748 71.5736 65.4935 72.146 66.1643C72.7273 66.8261 73.17 67.6086 73.4741 68.5119C73.7781 69.4063 73.9302 70.3766 73.9302 71.423V71.7315C73.9302 72.7779 73.7781 73.7483 73.4741 74.6426C73.17 75.537 72.7273 76.3195 72.146 76.9903C71.5736 77.6521 70.8805 78.1708 70.0666 78.5464C69.2617 78.9131 68.3495 79.0964 67.3299 79.0964C66.3104 79.0964 65.3937 78.9131 64.5799 78.5464C63.766 78.1708 63.0684 77.6521 62.4871 76.9903C61.9147 76.3195 61.4765 75.537 61.1724 74.6426C60.8683 73.7483 60.7163 72.7779 60.7163 71.7315ZM63.1981 71.423V71.7315C63.1981 72.456 63.2831 73.1401 63.453 73.7841C63.6229 74.419 63.8778 74.9825 64.2176 75.4744C64.5664 75.9662 65.0002 76.3553 65.5189 76.6415C66.0376 76.9187 66.6413 77.0573 67.3299 77.0573C68.0096 77.0573 68.6044 76.9187 69.1141 76.6415C69.6329 76.3553 70.0621 75.9662 70.402 75.4744C70.7418 74.9825 70.9967 74.419 71.1667 73.7841C71.3455 73.1401 71.435 72.456 71.435 71.7315V71.423C71.435 70.7075 71.3455 70.0323 71.1667 69.3973C70.9967 68.7534 70.7374 68.1855 70.3886 67.6936C70.0487 67.1928 69.6195 66.7993 69.1007 66.5131C68.591 66.2269 67.9918 66.0838 67.3031 66.0838C66.6234 66.0838 66.0242 66.2269 65.5055 66.5131C64.9957 66.7993 64.5664 67.1928 64.2176 67.6936C63.8778 68.1855 63.6229 68.7534 63.453 69.3973C63.2831 70.0323 63.1981 70.7075 63.1981 71.423ZM77.1095 64.313H79.6047V80.5587C79.6047 81.4441 79.4616 82.1953 79.1755 82.8124C78.8982 83.4295 78.4779 83.8946 77.9144 84.2076C77.36 84.5295 76.6579 84.6905 75.8083 84.6905C75.5847 84.6905 75.3253 84.6682 75.0302 84.6234C74.7261 84.5787 74.4712 84.5251 74.2655 84.4625L74.279 82.4636C74.4489 82.4994 74.6412 82.5262 74.8558 82.5441C75.0704 82.5709 75.2583 82.5843 75.4192 82.5843C75.7859 82.5843 76.0945 82.5173 76.3449 82.3831C76.5953 82.249 76.7831 82.0343 76.9083 81.7392C77.0425 81.4441 77.1095 81.0506 77.1095 80.5587V64.313ZM76.8547 60.4629C76.8547 60.0604 76.9799 59.7206 77.2303 59.4433C77.4807 59.1661 77.8429 59.0275 78.3169 59.0275C78.7998 59.0275 79.1665 59.1661 79.4169 59.4433C79.6673 59.7206 79.7926 60.0604 79.7926 60.4629C79.7926 60.8474 79.6673 61.1784 79.4169 61.4556C79.1665 61.7239 78.7998 61.858 78.3169 61.858C77.8429 61.858 77.4807 61.7239 77.2303 61.4556C76.9799 61.1784 76.8547 60.8474 76.8547 60.4629ZM92.1747 76.3463V68.8741C92.1747 68.3018 92.0584 67.8054 91.8259 67.3851C91.6023 66.9558 91.2624 66.6249 90.8063 66.3923C90.3502 66.1598 89.7868 66.0436 89.116 66.0436C88.49 66.0436 87.94 66.1509 87.466 66.3655C87.0009 66.5802 86.6342 66.8619 86.3659 67.2107C86.1066 67.5595 85.9769 67.9351 85.9769 68.3375H83.4951C83.4951 67.8188 83.6293 67.3046 83.8976 66.7948C84.1659 66.285 84.5504 65.8244 85.0513 65.413C85.561 64.9927 86.1692 64.6618 86.8757 64.4203C87.5912 64.1699 88.3871 64.0447 89.2636 64.0447C90.3189 64.0447 91.249 64.2236 92.0539 64.5813C92.8678 64.939 93.5028 65.4801 93.9589 66.2045C94.4239 66.92 94.6565 67.8188 94.6565 68.901V75.6622C94.6565 76.1451 94.6967 76.6594 94.7772 77.2049C94.8666 77.7504 94.9963 78.22 95.1662 78.6135V78.8281H92.5771C92.4519 78.5419 92.3535 78.1618 92.282 77.6878C92.2104 77.2049 92.1747 76.7577 92.1747 76.3463ZM92.604 70.0278L92.6308 71.7718H90.1222C89.4156 71.7718 88.7851 71.8299 88.2306 71.9462C87.6761 72.0535 87.2111 72.219 86.8355 72.4425C86.4598 72.6661 86.1737 72.9478 85.9769 73.2877C85.7801 73.6186 85.6818 74.0076 85.6818 74.4548C85.6818 74.9109 85.7846 75.3268 85.9903 75.7024C86.196 76.078 86.5046 76.3776 86.916 76.6012C87.3363 76.8159 87.8505 76.9232 88.4587 76.9232C89.2189 76.9232 89.8896 76.7622 90.471 76.4402C91.0523 76.1183 91.5129 75.7248 91.8527 75.2597C92.2015 74.7947 92.3893 74.343 92.4161 73.9048L93.4759 75.0987C93.4133 75.4744 93.2434 75.8902 92.9662 76.3463C92.6889 76.8024 92.3178 77.2407 91.8527 77.661C91.3966 78.0724 90.851 78.4167 90.2161 78.694C89.59 78.9623 88.8835 79.0964 88.0965 79.0964C87.1127 79.0964 86.2497 78.9041 85.5074 78.5196C84.774 78.135 84.2016 77.6208 83.7902 76.9768C83.3878 76.324 83.1866 75.5951 83.1866 74.7902C83.1866 74.0121 83.3386 73.3279 83.6427 72.7377C83.9468 72.1385 84.385 71.6421 84.9574 71.2486C85.5297 70.8462 86.2184 70.5421 87.0233 70.3364C87.8282 70.1307 88.727 70.0278 89.7197 70.0278H92.604ZM114.524 76.011V58.2226H117.019V78.8281H114.739L114.524 76.011ZM104.758 71.7315V71.4498C104.758 70.3409 104.892 69.3347 105.16 68.4314C105.438 67.5192 105.827 66.7367 106.328 66.0838C106.837 65.4309 107.441 64.9301 108.139 64.5813C108.845 64.2236 109.632 64.0447 110.5 64.0447C111.412 64.0447 112.208 64.2057 112.888 64.5277C113.576 64.8407 114.158 65.3013 114.632 65.9094C115.114 66.5086 115.495 67.233 115.772 68.0826C116.049 68.9323 116.241 69.8937 116.349 70.9669V72.2011C116.25 73.2653 116.058 74.2223 115.772 75.0719C115.495 75.9215 115.114 76.6459 114.632 77.2451C114.158 77.8444 113.576 78.3049 112.888 78.6269C112.199 78.9399 111.394 79.0964 110.473 79.0964C109.623 79.0964 108.845 78.9131 108.139 78.5464C107.441 78.1797 106.837 77.6655 106.328 77.0037C105.827 76.3419 105.438 75.5638 105.16 74.6695C104.892 73.7662 104.758 72.7869 104.758 71.7315ZM107.253 71.4498V71.7315C107.253 72.456 107.325 73.1357 107.468 73.7706C107.62 74.4056 107.852 74.9646 108.165 75.4475C108.478 75.9305 108.876 76.3106 109.359 76.5878C109.842 76.8561 110.419 76.9903 111.09 76.9903C111.913 76.9903 112.588 76.8159 113.116 76.4671C113.652 76.1183 114.081 75.6577 114.403 75.0853C114.725 74.5129 114.976 73.8914 115.155 73.2206V69.9876C115.047 69.4957 114.891 69.0217 114.685 68.5656C114.488 68.1005 114.229 67.6891 113.907 67.3314C113.594 66.9647 113.205 66.6741 112.74 66.4594C112.284 66.2448 111.743 66.1375 111.117 66.1375C110.437 66.1375 109.851 66.2806 109.359 66.5667C108.876 66.844 108.478 67.2286 108.165 67.7204C107.852 68.2034 107.62 68.7668 107.468 69.4107C107.325 70.0457 107.253 70.7254 107.253 71.4498ZM126.906 79.0964C125.896 79.0964 124.979 78.9265 124.156 78.5867C123.342 78.2379 122.64 77.7504 122.05 77.1244C121.469 76.4984 121.022 75.7561 120.709 74.8975C120.396 74.0389 120.239 73.0999 120.239 72.0803V71.5169C120.239 70.3364 120.413 69.2855 120.762 68.3644C121.111 67.4343 121.585 66.6472 122.184 66.0033C122.783 65.3594 123.463 64.872 124.223 64.5411C124.983 64.2102 125.771 64.0447 126.584 64.0447C127.622 64.0447 128.516 64.2236 129.267 64.5813C130.028 64.939 130.649 65.4399 131.132 66.0838C131.615 66.7188 131.973 67.47 132.205 68.3375C132.438 69.1961 132.554 70.1352 132.554 71.1547V72.2682H121.715V70.2425H130.072V70.0547C130.036 69.4107 129.902 68.7847 129.67 68.1766C129.446 67.5684 129.089 67.0676 128.597 66.6741C128.105 66.2806 127.434 66.0838 126.584 66.0838C126.021 66.0838 125.502 66.2045 125.028 66.446C124.554 66.6785 124.147 67.0273 123.807 67.4924C123.468 67.9574 123.204 68.5253 123.016 69.1961C122.828 69.8669 122.734 70.6405 122.734 71.5169V72.0803C122.734 72.769 122.828 73.4174 123.016 74.0255C123.213 74.6247 123.494 75.1524 123.861 75.6085C124.237 76.0646 124.688 76.4224 125.216 76.6817C125.753 76.9411 126.361 77.0707 127.04 77.0707C127.917 77.0707 128.659 76.8919 129.267 76.5341C129.876 76.1764 130.408 75.6979 130.864 75.0987L132.366 76.2927C132.053 76.7667 131.655 77.2183 131.172 77.6476C130.689 78.0769 130.095 78.4257 129.388 78.694C128.691 78.9623 127.863 79.0964 126.906 79.0964ZM153.052 73.8914C153.052 73.4353 152.981 73.0328 152.838 72.684C152.704 72.3263 152.462 72.0043 152.113 71.7181C151.773 71.4319 151.299 71.1592 150.691 70.8998C150.092 70.6405 149.332 70.3766 148.411 70.1083C147.445 69.8221 146.573 69.5046 145.795 69.1559C145.017 68.7981 144.35 68.3912 143.796 67.9351C143.241 67.479 142.817 66.9558 142.521 66.3655C142.226 65.7753 142.079 65.1 142.079 64.3398C142.079 63.5797 142.235 62.8776 142.548 62.2337C142.861 61.5897 143.308 61.0308 143.89 60.5568C144.48 60.0738 145.182 59.6982 145.996 59.4299C146.81 59.1616 147.718 59.0275 148.719 59.0275C150.186 59.0275 151.429 59.3092 152.449 59.8726C153.477 60.4271 154.26 61.156 154.796 62.0593C155.333 62.9536 155.601 63.9106 155.601 64.9301H153.025C153.025 64.1967 152.869 63.5483 152.556 62.9849C152.243 62.4125 151.769 61.9654 151.134 61.6434C150.499 61.3125 149.694 61.1471 148.719 61.1471C147.798 61.1471 147.038 61.2857 146.439 61.5629C145.839 61.8402 145.392 62.2158 145.097 62.6898C144.811 63.1638 144.668 63.7049 144.668 64.313C144.668 64.7244 144.753 65.1 144.923 65.4399C145.102 65.7708 145.374 66.0793 145.741 66.3655C146.117 66.6517 146.591 66.9155 147.163 67.157C147.744 67.3985 148.438 67.631 149.242 67.8546C150.351 68.1676 151.308 68.5164 152.113 68.901C152.918 69.2855 153.58 69.7193 154.099 70.2022C154.626 70.6762 155.015 71.2173 155.266 71.8255C155.525 72.4247 155.655 73.1044 155.655 73.8645C155.655 74.6605 155.494 75.3804 155.172 76.0244C154.85 76.6683 154.389 77.2183 153.79 77.6744C153.191 78.1305 152.471 78.4838 151.63 78.7342C150.799 78.9757 149.868 79.0964 148.84 79.0964C147.937 79.0964 147.047 78.9712 146.17 78.7208C145.303 78.4704 144.511 78.0948 143.796 77.5939C143.089 77.0931 142.521 76.476 142.092 75.7427C141.672 75.0004 141.462 74.1418 141.462 73.167H144.037C144.037 73.8377 144.167 74.4146 144.426 74.8975C144.686 75.3715 145.039 75.765 145.486 76.078C145.942 76.3911 146.457 76.6236 147.029 76.7756C147.61 76.9187 148.214 76.9903 148.84 76.9903C149.743 76.9903 150.508 76.8651 151.134 76.6146C151.76 76.3642 152.234 76.0065 152.556 75.5414C152.887 75.0764 153.052 74.5264 153.052 73.8914ZM167.138 76.3463V68.8741C167.138 68.3018 167.022 67.8054 166.789 67.3851C166.566 66.9558 166.226 66.6249 165.77 66.3923C165.314 66.1598 164.75 66.0436 164.079 66.0436C163.453 66.0436 162.903 66.1509 162.429 66.3655C161.964 66.5802 161.598 66.8619 161.329 67.2107C161.07 67.5595 160.94 67.9351 160.94 68.3375H158.459C158.459 67.8188 158.593 67.3046 158.861 66.7948C159.129 66.285 159.514 65.8244 160.015 65.413C160.525 64.9927 161.133 64.6618 161.839 64.4203C162.555 64.1699 163.351 64.0447 164.227 64.0447C165.282 64.0447 166.212 64.2236 167.017 64.5813C167.831 64.939 168.466 65.4801 168.922 66.2045C169.387 66.92 169.62 67.8188 169.62 68.901V75.6622C169.62 76.1451 169.66 76.6594 169.741 77.2049C169.83 77.7504 169.96 78.22 170.13 78.6135V78.8281H167.541C167.415 78.5419 167.317 78.1618 167.245 77.6878C167.174 77.2049 167.138 76.7577 167.138 76.3463ZM167.567 70.0278L167.594 71.7718H165.086C164.379 71.7718 163.749 71.8299 163.194 71.9462C162.64 72.0535 162.175 72.219 161.799 72.4425C161.423 72.6661 161.137 72.9478 160.94 73.2877C160.744 73.6186 160.645 74.0076 160.645 74.4548C160.645 74.9109 160.748 75.3268 160.954 75.7024C161.159 76.078 161.468 76.3776 161.879 76.6012C162.3 76.8159 162.814 76.9232 163.422 76.9232C164.182 76.9232 164.853 76.7622 165.434 76.4402C166.016 76.1183 166.476 75.7248 166.816 75.2597C167.165 74.7947 167.353 74.343 167.38 73.9048L168.439 75.0987C168.377 75.4744 168.207 75.8902 167.93 76.3463C167.652 76.8024 167.281 77.2407 166.816 77.661C166.36 78.0724 165.815 78.4167 165.18 78.694C164.553 78.9623 163.847 79.0964 163.06 79.0964C162.076 79.0964 161.213 78.9041 160.471 78.5196C159.737 78.135 159.165 77.6208 158.754 76.9768C158.351 76.324 158.15 75.5951 158.15 74.7902C158.15 74.0121 158.302 73.3279 158.606 72.7377C158.91 72.1385 159.348 71.6421 159.921 71.2486C160.493 70.8462 161.182 70.5421 161.987 70.3364C162.792 70.1307 163.69 70.0278 164.683 70.0278H167.567ZM167.581 58.4909L169.258 58.6384C169.258 59.2913 169.128 59.8637 168.869 60.3556C168.609 60.8474 168.261 61.2275 167.822 61.4958C167.393 61.7641 166.906 61.8983 166.36 61.8983C165.904 61.8983 165.528 61.8357 165.233 61.7105C164.938 61.5763 164.674 61.4288 164.442 61.2678C164.209 61.0979 163.963 60.9503 163.704 60.8251C163.453 60.6909 163.14 60.6239 162.765 60.6239C162.389 60.6239 162.072 60.767 161.812 61.0531C161.562 61.3393 161.437 61.6926 161.437 62.1129L159.76 62.0324C159.76 61.3796 159.885 60.8072 160.135 60.3153C160.395 59.8145 160.744 59.4254 161.182 59.1482C161.62 58.862 162.107 58.7189 162.644 58.7189C163.029 58.7189 163.364 58.786 163.65 58.9201C163.945 59.0454 164.223 59.1929 164.482 59.3628C164.741 59.5238 165.01 59.6714 165.287 59.8055C165.564 59.9307 165.882 59.9934 166.239 59.9934C166.615 59.9934 166.932 59.8503 167.192 59.5641C167.451 59.2689 167.581 58.9112 167.581 58.4909ZM172.866 71.7315V71.423C172.866 70.3766 173.018 69.4063 173.322 68.5119C173.627 67.6086 174.065 66.8261 174.637 66.1643C175.21 65.4935 175.903 64.9748 176.717 64.6081C177.53 64.2325 178.443 64.0447 179.453 64.0447C180.473 64.0447 181.389 64.2325 182.203 64.6081C183.026 64.9748 183.724 65.4935 184.296 66.1643C184.877 66.8261 185.32 67.6086 185.624 68.5119C185.928 69.4063 186.08 70.3766 186.08 71.423V71.7315C186.08 72.7779 185.928 73.7483 185.624 74.6426C185.32 75.537 184.877 76.3195 184.296 76.9903C183.724 77.6521 183.031 78.1708 182.217 78.5464C181.412 78.9131 180.5 79.0964 179.48 79.0964C178.46 79.0964 177.544 78.9131 176.73 78.5464C175.916 78.1708 175.218 77.6521 174.637 76.9903C174.065 76.3195 173.627 75.537 173.322 74.6426C173.018 73.7483 172.866 72.7779 172.866 71.7315ZM175.348 71.423V71.7315C175.348 72.456 175.433 73.1401 175.603 73.7841C175.773 74.419 176.028 74.9825 176.368 75.4744C176.717 75.9662 177.15 76.3553 177.669 76.6415C178.188 76.9187 178.791 77.0573 179.48 77.0573C180.16 77.0573 180.754 76.9187 181.264 76.6415C181.783 76.3553 182.212 75.9662 182.552 75.4744C182.892 74.9825 183.147 74.419 183.317 73.7841C183.496 73.1401 183.585 72.456 183.585 71.7315V71.423C183.585 70.7075 183.496 70.0323 183.317 69.3973C183.147 68.7534 182.887 68.1855 182.539 67.6936C182.199 67.1928 181.77 66.7993 181.251 66.5131C180.741 66.2269 180.142 66.0838 179.453 66.0838C178.773 66.0838 178.174 66.2269 177.656 66.5131C177.146 66.7993 176.717 67.1928 176.368 67.6936C176.028 68.1855 175.773 68.7534 175.603 69.3973C175.433 70.0323 175.348 70.7075 175.348 71.423ZM206.793 73.8914C206.793 73.4353 206.722 73.0328 206.578 72.684C206.444 72.3263 206.203 72.0043 205.854 71.7181C205.514 71.4319 205.04 71.1592 204.432 70.8998C203.833 70.6405 203.073 70.3766 202.151 70.1083C201.186 69.8221 200.314 69.5046 199.536 69.1559C198.757 68.7981 198.091 68.3912 197.537 67.9351C196.982 67.479 196.557 66.9558 196.262 66.3655C195.967 65.7753 195.82 65.1 195.82 64.3398C195.82 63.5797 195.976 62.8776 196.289 62.2337C196.602 61.5897 197.049 61.0308 197.631 60.5568C198.221 60.0738 198.923 59.6982 199.737 59.4299C200.551 59.1616 201.458 59.0275 202.46 59.0275C203.927 59.0275 205.17 59.3092 206.189 59.8726C207.218 60.4271 208 61.156 208.537 62.0593C209.074 62.9536 209.342 63.9106 209.342 64.9301H206.766C206.766 64.1967 206.61 63.5483 206.297 62.9849C205.984 62.4125 205.51 61.9654 204.875 61.6434C204.24 61.3125 203.435 61.1471 202.46 61.1471C201.539 61.1471 200.779 61.2857 200.179 61.5629C199.58 61.8402 199.133 62.2158 198.838 62.6898C198.552 63.1638 198.409 63.7049 198.409 64.313C198.409 64.7244 198.494 65.1 198.664 65.4399C198.842 65.7708 199.115 66.0793 199.482 66.3655C199.858 66.6517 200.332 66.9155 200.904 67.157C201.485 67.3985 202.178 67.631 202.983 67.8546C204.092 68.1676 205.049 68.5164 205.854 68.901C206.659 69.2855 207.321 69.7193 207.839 70.2022C208.367 70.6762 208.756 71.2173 209.007 71.8255C209.266 72.4247 209.396 73.1044 209.396 73.8645C209.396 74.6605 209.235 75.3804 208.913 76.0244C208.591 76.6683 208.13 77.2183 207.531 77.6744C206.932 78.1305 206.212 78.4838 205.371 78.7342C204.539 78.9757 203.609 79.0964 202.581 79.0964C201.677 79.0964 200.788 78.9712 199.911 78.7208C199.044 78.4704 198.252 78.0948 197.537 77.5939C196.83 77.0931 196.262 76.476 195.833 75.7427C195.413 75.0004 195.202 74.1418 195.202 73.167H197.778C197.778 73.8377 197.908 74.4146 198.167 74.8975C198.427 75.3715 198.78 75.765 199.227 76.078C199.683 76.3911 200.197 76.6236 200.77 76.7756C201.351 76.9187 201.955 76.9903 202.581 76.9903C203.484 76.9903 204.249 76.8651 204.875 76.6146C205.501 76.3642 205.975 76.0065 206.297 75.5414C206.628 75.0764 206.793 74.5264 206.793 73.8914ZM218.343 79.0964C217.333 79.0964 216.416 78.9265 215.593 78.5867C214.78 78.2379 214.077 77.7504 213.487 77.1244C212.906 76.4984 212.459 75.7561 212.146 74.8975C211.833 74.0389 211.676 73.0999 211.676 72.0803V71.5169C211.676 70.3364 211.851 69.2855 212.199 68.3644C212.548 67.4343 213.022 66.6472 213.621 66.0033C214.221 65.3594 214.9 64.872 215.66 64.5411C216.421 64.2102 217.208 64.0447 218.022 64.0447C219.059 64.0447 219.953 64.2236 220.705 64.5813C221.465 64.939 222.086 65.4399 222.569 66.0838C223.052 66.7188 223.41 67.47 223.642 68.3375C223.875 69.1961 223.991 70.1352 223.991 71.1547V72.2682H213.152V70.2425H221.509V70.0547C221.474 69.4107 221.34 68.7847 221.107 68.1766C220.883 67.5684 220.526 67.0676 220.034 66.6741C219.542 66.2806 218.871 66.0838 218.022 66.0838C217.458 66.0838 216.939 66.2045 216.465 66.446C215.991 66.6785 215.584 67.0273 215.245 67.4924C214.905 67.9574 214.641 68.5253 214.453 69.1961C214.265 69.8669 214.171 70.6405 214.171 71.5169V72.0803C214.171 72.769 214.265 73.4174 214.453 74.0255C214.65 74.6247 214.932 75.1524 215.298 75.6085C215.674 76.0646 216.126 76.4224 216.653 76.6817C217.19 76.9411 217.798 77.0707 218.478 77.0707C219.354 77.0707 220.096 76.8919 220.705 76.5341C221.313 76.1764 221.845 75.6979 222.301 75.0987L223.803 76.2927C223.49 76.7667 223.092 77.2183 222.609 77.6476C222.127 78.0769 221.532 78.4257 220.825 78.694C220.128 78.9623 219.3 79.0964 218.343 79.0964ZM231.115 76.5878L235.086 64.313H237.621L232.402 78.8281H230.739L231.115 76.5878ZM227.801 64.313L231.893 76.6549L232.174 78.8281H230.511L225.252 64.313H227.801ZM245.844 79.0964C244.834 79.0964 243.917 78.9265 243.094 78.5867C242.28 78.2379 241.578 77.7504 240.988 77.1244C240.407 76.4984 239.96 75.7561 239.647 74.8975C239.334 74.0389 239.177 73.0999 239.177 72.0803V71.5169C239.177 70.3364 239.352 69.2855 239.7 68.3644C240.049 67.4343 240.523 66.6472 241.122 66.0033C241.722 65.3594 242.401 64.872 243.161 64.5411C243.922 64.2102 244.709 64.0447 245.522 64.0447C246.56 64.0447 247.454 64.2236 248.205 64.5813C248.966 64.939 249.587 65.4399 250.07 66.0838C250.553 66.7188 250.911 67.47 251.143 68.3375C251.376 69.1961 251.492 70.1352 251.492 71.1547V72.2682H240.653V70.2425H249.01V70.0547C248.975 69.4107 248.84 68.7847 248.608 68.1766C248.384 67.5684 248.027 67.0676 247.535 66.6741C247.043 66.2806 246.372 66.0838 245.522 66.0838C244.959 66.0838 244.44 66.2045 243.966 66.446C243.492 66.6785 243.085 67.0273 242.746 67.4924C242.406 67.9574 242.142 68.5253 241.954 69.1961C241.766 69.8669 241.672 70.6405 241.672 71.5169V72.0803C241.672 72.769 241.766 73.4174 241.954 74.0255C242.151 74.6247 242.432 75.1524 242.799 75.6085C243.175 76.0646 243.626 76.4224 244.154 76.6817C244.691 76.9411 245.299 77.0707 245.979 77.0707C246.855 77.0707 247.597 76.8919 248.205 76.5341C248.814 76.1764 249.346 75.6979 249.802 75.0987L251.304 76.2927C250.991 76.7667 250.593 77.2183 250.11 77.6476C249.627 78.0769 249.033 78.4257 248.326 78.694C247.629 78.9623 246.801 79.0964 245.844 79.0964ZM256.872 66.5936V78.8281H254.39V64.313H256.805L256.872 66.5936ZM261.406 64.2325L261.392 66.5399C261.187 66.4952 260.99 66.4684 260.802 66.4594C260.623 66.4415 260.418 66.4326 260.185 66.4326C259.613 66.4326 259.107 66.522 258.669 66.7009C258.231 66.8798 257.86 67.1302 257.556 67.4521C257.252 67.7741 257.01 68.1587 256.831 68.6058C256.661 69.0441 256.55 69.527 256.496 70.0547L255.798 70.4571C255.798 69.5807 255.883 68.7579 256.053 67.9887C256.232 67.2196 256.505 66.5399 256.872 65.9496C257.238 65.3504 257.703 64.8854 258.267 64.5545C258.839 64.2146 259.519 64.0447 260.306 64.0447C260.485 64.0447 260.69 64.0671 260.923 64.1118C261.155 64.1476 261.316 64.1878 261.406 64.2325ZM266.396 64.313V78.8281H263.901V64.313H266.396ZM263.713 60.4629C263.713 60.0604 263.834 59.7206 264.075 59.4433C264.326 59.1661 264.693 59.0275 265.176 59.0275C265.65 59.0275 266.012 59.1661 266.262 59.4433C266.522 59.7206 266.651 60.0604 266.651 60.4629C266.651 60.8474 266.522 61.1784 266.262 61.4556C266.012 61.7239 265.65 61.858 265.176 61.858C264.693 61.858 264.326 61.7239 264.075 61.4556C263.834 61.1784 263.713 60.8474 263.713 60.4629ZM272.862 67.4119V78.8281H270.381V64.313H272.728L272.862 67.4119ZM272.272 71.0205L271.239 70.9803C271.248 69.9876 271.396 69.0709 271.682 68.2302C271.968 67.3806 272.37 66.6428 272.889 66.0167C273.408 65.3907 274.025 64.9077 274.74 64.5679C275.465 64.2191 276.265 64.0447 277.142 64.0447C277.857 64.0447 278.501 64.1431 279.074 64.3398C279.646 64.5277 280.133 64.8317 280.536 65.2521C280.947 65.6724 281.26 66.218 281.475 66.8887C281.689 67.5505 281.797 68.3599 281.797 69.3168V78.8281H279.302V69.29C279.302 68.5298 279.19 67.9217 278.966 67.4656C278.743 67.0005 278.416 66.6651 277.987 66.4594C277.558 66.2448 277.03 66.1375 276.404 66.1375C275.787 66.1375 275.223 66.2671 274.714 66.5265C274.213 66.7859 273.779 67.1436 273.412 67.5997C273.055 68.0558 272.773 68.579 272.567 69.1693C272.37 69.7506 272.272 70.3677 272.272 71.0205ZM284.909 71.7315V71.423C284.909 70.3766 285.061 69.4063 285.365 68.5119C285.669 67.6086 286.108 66.8261 286.68 66.1643C287.252 65.4935 287.945 64.9748 288.759 64.6081C289.573 64.2325 290.485 64.0447 291.496 64.0447C292.515 64.0447 293.432 64.2325 294.246 64.6081C295.069 64.9748 295.766 65.4935 296.339 66.1643C296.92 66.8261 297.363 67.6086 297.667 68.5119C297.971 69.4063 298.123 70.3766 298.123 71.423V71.7315C298.123 72.7779 297.971 73.7483 297.667 74.6426C297.363 75.537 296.92 76.3195 296.339 76.9903C295.766 77.6521 295.073 78.1708 294.259 78.5464C293.455 78.9131 292.542 79.0964 291.523 79.0964C290.503 79.0964 289.587 78.9131 288.773 78.5464C287.959 78.1708 287.261 77.6521 286.68 76.9903C286.108 76.3195 285.669 75.537 285.365 74.6426C285.061 73.7483 284.909 72.7779 284.909 71.7315ZM287.391 71.423V71.7315C287.391 72.456 287.476 73.1401 287.646 73.7841C287.816 74.419 288.071 74.9825 288.41 75.4744C288.759 75.9662 289.193 76.3553 289.712 76.6415C290.23 76.9187 290.834 77.0573 291.523 77.0573C292.202 77.0573 292.797 76.9187 293.307 76.6415C293.826 76.3553 294.255 75.9662 294.595 75.4744C294.935 74.9825 295.19 74.419 295.359 73.7841C295.538 73.1401 295.628 72.456 295.628 71.7315V71.423C295.628 70.7075 295.538 70.0323 295.359 69.3973C295.19 68.7534 294.93 68.1855 294.581 67.6936C294.242 67.1928 293.812 66.7993 293.294 66.5131C292.784 66.2269 292.185 66.0838 291.496 66.0838C290.816 66.0838 290.217 66.2269 289.698 66.5131C289.189 66.7993 288.759 67.1928 288.41 67.6936C288.071 68.1855 287.816 68.7534 287.646 69.3973C287.476 70.0323 287.391 70.7075 287.391 71.423ZM308.09 77.5134C308.09 77.0931 308.22 76.7398 308.479 76.4537C308.748 76.1585 309.132 76.011 309.633 76.011C310.134 76.011 310.514 76.1585 310.773 76.4537C311.042 76.7398 311.176 77.0931 311.176 77.5134C311.176 77.9248 311.042 78.2736 310.773 78.5598C310.514 78.846 310.134 78.9891 309.633 78.9891C309.132 78.9891 308.748 78.846 308.479 78.5598C308.22 78.2736 308.09 77.9248 308.09 77.5134ZM315.335 77.5134C315.335 77.0931 315.464 76.7398 315.724 76.4537C315.992 76.1585 316.376 76.011 316.877 76.011C317.378 76.011 317.758 76.1585 318.018 76.4537C318.286 76.7398 318.42 77.0931 318.42 77.5134C318.42 77.9248 318.286 78.2736 318.018 78.5598C317.758 78.846 317.378 78.9891 316.877 78.9891C316.376 78.9891 315.992 78.846 315.724 78.5598C315.464 78.2736 315.335 77.9248 315.335 77.5134ZM322.579 77.5134C322.579 77.0931 322.708 76.7398 322.968 76.4537C323.236 76.1585 323.621 76.011 324.121 76.011C324.622 76.011 325.002 76.1585 325.262 76.4537C325.53 76.7398 325.664 77.0931 325.664 77.5134C325.664 77.9248 325.53 78.2736 325.262 78.5598C325.002 78.846 324.622 78.9891 324.121 78.9891C323.621 78.9891 323.236 78.846 322.968 78.5598C322.708 78.2736 322.579 77.9248 322.579 77.5134Z" fill="#959595"/>
<path d="M101.934 7.16673H106.446V21.6852C106.446 23.3755 106.084 24.7992 105.36 25.9562C104.645 27.1133 103.654 27.9836 102.387 28.5671C101.129 29.1507 99.6801 29.4425 98.0401 29.4425C96.4001 29.4425 94.9412 29.1507 93.6634 28.5671C92.3957 27.9836 91.3996 27.1133 90.6752 25.9562C89.9608 24.7992 89.6037 23.3755 89.6037 21.6852V7.16673H94.1312V21.6852C94.1312 22.6712 94.2872 23.4761 94.5991 24.0999C94.911 24.7237 95.3587 25.1815 95.9423 25.4733C96.5359 25.7651 97.2352 25.9109 98.0401 25.9109C98.8651 25.9109 99.5643 25.7651 100.138 25.4733C100.721 25.1815 101.164 24.7237 101.466 24.0999C101.778 23.4761 101.934 22.6712 101.934 21.6852V7.16673ZM114.702 7.16673V29.1406H110.174V7.16673H114.702ZM123.455 16.5539V20.0854H113.464V16.5539H123.455ZM124.511 7.16673V10.7133H113.464V7.16673H124.511ZM134.774 18.697L138.079 14.5769L133.28 13.2186L134.185 10.5624L138.894 12.4338L138.607 7.16673H141.535L141.218 12.5395L145.836 10.6832L146.727 13.3846L141.852 14.7429L145.052 18.7724L142.682 20.4326L139.905 16.0257L137.143 20.2967L134.774 18.697Z" fill="#2C2C2C"/>
<rect x="45.7354" y="2.90625" width="34.3426" height="34.3426" fill="#D9D9D9"/>
<path d="M370.451 46.3534L192.73 46.4837C191.446 46.4846 190.19 46.8518 189.108 47.5421C186.897 48.9532 184.067 48.9532 181.855 47.542C180.774 46.8518 179.517 46.4846 178.234 46.4836L10.9823 46.3538C5.29534 46.3494 0.6875 41.738 0.6875 36.051V10.4747C0.6875 4.78459 5.30022 0.171875 10.9903 0.171875H370.443C376.133 0.171875 380.746 4.78459 380.746 10.4747V36.0506C380.746 41.7377 376.138 46.3492 370.451 46.3534Z" fill="#606060"/>
<path d="M26.3656 29.4798V31.5859H16.5994V29.4798H26.3656ZM17.1092 12.0536V31.5859H14.5201V12.0536H17.1092ZM28.2974 24.4894V24.1808C28.2974 23.1344 28.4494 22.1641 28.7535 21.2697C29.0576 20.3665 29.4958 19.5839 30.0682 18.9221C30.6405 18.2513 31.3336 17.7326 32.1475 17.366C32.9613 16.9903 33.8736 16.8025 34.8842 16.8025C35.9037 16.8025 36.8204 16.9903 37.6343 17.366C38.4571 17.7326 39.1546 18.2513 39.727 18.9221C40.3083 19.5839 40.751 20.3665 41.0551 21.2697C41.3592 22.1641 41.5112 23.1344 41.5112 24.1808V24.4894C41.5112 25.5357 41.3592 26.5061 41.0551 27.4004C40.751 28.2948 40.3083 29.0773 39.727 29.7481C39.1546 30.4099 38.4615 30.9286 37.6477 31.3042C36.8428 31.6709 35.9305 31.8542 34.911 31.8542C33.8915 31.8542 32.9748 31.6709 32.1609 31.3042C31.3471 30.9286 30.6495 30.4099 30.0682 29.7481C29.4958 29.0773 29.0576 28.2948 28.7535 27.4004C28.4494 26.5061 28.2974 25.5357 28.2974 24.4894ZM30.7792 24.1808V24.4894C30.7792 25.2138 30.8641 25.8979 31.034 26.5419C31.204 27.1768 31.4589 27.7403 31.7987 28.2322C32.1475 28.7241 32.5812 29.1131 33.1 29.3993C33.6187 29.6765 34.2224 29.8151 34.911 29.8151C35.5907 29.8151 36.1854 29.6765 36.6952 29.3993C37.2139 29.1131 37.6432 28.7241 37.9831 28.2322C38.3229 27.7403 38.5778 27.1768 38.7477 26.5419C38.9266 25.8979 39.016 25.2138 39.016 24.4894V24.1808C39.016 23.4653 38.9266 22.7901 38.7477 22.1551C38.5778 21.5112 38.3184 20.9433 37.9696 20.4514C37.6298 19.9506 37.2005 19.5571 36.6818 19.2709C36.172 18.9847 35.5728 18.8416 34.8842 18.8416C34.2045 18.8416 33.6053 18.9847 33.0865 19.2709C32.5768 19.5571 32.1475 19.9506 31.7987 20.4514C31.4589 20.9433 31.204 21.5112 31.034 22.1551C30.8641 22.7901 30.7792 23.4653 30.7792 24.1808ZM44.6906 17.0708H47.1858V33.3165C47.1858 34.2019 47.0427 34.9531 46.7565 35.5702C46.4793 36.1873 46.0589 36.6524 45.4955 36.9654C44.941 37.2873 44.239 37.4483 43.3893 37.4483C43.1657 37.4483 42.9064 37.426 42.6113 37.3813C42.3072 37.3365 42.0523 37.2829 41.8466 37.2203L41.86 35.2214C42.0299 35.2572 42.2222 35.284 42.4369 35.3019C42.6515 35.3287 42.8393 35.3422 43.0003 35.3422C43.367 35.3422 43.6755 35.2751 43.9259 35.1409C44.1763 35.0068 44.3642 34.7921 44.4894 34.497C44.6235 34.2019 44.6906 33.8084 44.6906 33.3165V17.0708ZM44.4357 13.2207C44.4357 12.8182 44.5609 12.4784 44.8113 12.2011C45.0617 11.9239 45.424 11.7853 45.8979 11.7853C46.3809 11.7853 46.7476 11.9239 46.998 12.2011C47.2484 12.4784 47.3736 12.8182 47.3736 13.2207C47.3736 13.6053 47.2484 13.9362 46.998 14.2134C46.7476 14.4817 46.3809 14.6159 45.8979 14.6159C45.424 14.6159 45.0617 14.4817 44.8113 14.2134C44.5609 13.9362 44.4357 13.6053 44.4357 13.2207ZM59.7557 29.1041V21.6319C59.7557 21.0596 59.6395 20.5632 59.4069 20.1429C59.1833 19.7136 58.8435 19.3827 58.3874 19.1502C57.9313 18.9176 57.3678 18.8014 56.6971 18.8014C56.071 18.8014 55.521 18.9087 55.047 19.1233C54.582 19.338 54.2153 19.6197 53.947 19.9685C53.6876 20.3173 53.558 20.6929 53.558 21.0953H51.0762C51.0762 20.5766 51.2103 20.0624 51.4786 19.5526C51.7469 19.0428 52.1315 18.5823 52.6323 18.1709C53.1421 17.7505 53.7502 17.4196 54.4568 17.1781C55.1722 16.9277 55.9682 16.8025 56.8447 16.8025C57.9 16.8025 58.8301 16.9814 59.635 17.3391C60.4488 17.6969 61.0838 18.2379 61.5399 18.9623C62.005 19.6778 62.2375 20.5766 62.2375 21.6588V28.42C62.2375 28.9029 62.2778 29.4172 62.3583 29.9627C62.4477 30.5083 62.5774 30.9778 62.7473 31.3713V31.5859H60.1582C60.033 31.2997 59.9346 30.9197 59.863 30.4457C59.7915 29.9627 59.7557 29.5155 59.7557 29.1041ZM60.185 22.7856L60.2118 24.5296H57.7032C56.9967 24.5296 56.3662 24.5877 55.8117 24.704C55.2572 24.8113 54.7921 24.9768 54.4165 25.2004C54.0409 25.4239 53.7547 25.7057 53.558 26.0455C53.3612 26.3764 53.2628 26.7655 53.2628 27.2126C53.2628 27.6687 53.3657 28.0846 53.5714 28.4602C53.7771 28.8358 54.0856 29.1354 54.497 29.359C54.9174 29.5737 55.4316 29.681 56.0397 29.681C56.7999 29.681 57.4707 29.52 58.052 29.1981C58.6333 28.8761 59.0939 28.4826 59.4338 28.0175C59.7826 27.5525 59.9704 27.1008 59.9972 26.6626L61.057 27.8565C60.9944 28.2322 60.8245 28.648 60.5472 29.1041C60.27 29.5603 59.8988 29.9985 59.4338 30.4188C58.9777 30.8302 58.4321 31.1745 57.7971 31.4518C57.1711 31.7201 56.4646 31.8542 55.6775 31.8542C54.6938 31.8542 53.8307 31.662 53.0884 31.2774C52.3551 30.8928 51.7827 30.3786 51.3713 29.7347C50.9688 29.0818 50.7676 28.3529 50.7676 27.548C50.7676 26.7699 50.9197 26.0858 51.2237 25.4955C51.5278 24.8963 51.966 24.3999 52.5384 24.0064C53.1108 23.604 53.7994 23.2999 54.6043 23.0942C55.4092 22.8885 56.308 22.7856 57.3008 22.7856H60.185ZM82.1052 28.7688V10.9804H84.6005V31.5859H82.3199L82.1052 28.7688ZM72.3391 24.4894V24.2076C72.3391 23.0987 72.4732 22.0925 72.7415 21.1893C73.0188 20.277 73.4078 19.4945 73.9086 18.8416C74.4184 18.1887 75.0221 17.6879 75.7197 17.3391C76.4262 16.9814 77.2132 16.8025 78.0807 16.8025C78.9929 16.8025 79.7889 16.9635 80.4686 17.2855C81.1572 17.5985 81.7386 18.0591 82.2126 18.6672C82.6955 19.2664 83.0756 19.9908 83.3528 20.8405C83.6301 21.6901 83.8224 22.6515 83.9297 23.7247V24.9589C83.8313 26.0232 83.639 26.9801 83.3528 27.8297C83.0756 28.6793 82.6955 29.4038 82.2126 30.003C81.7386 30.6022 81.1572 31.0627 80.4686 31.3847C79.78 31.6977 78.9751 31.8542 78.0539 31.8542C77.2043 31.8542 76.4262 31.6709 75.7197 31.3042C75.0221 30.9375 74.4184 30.4233 73.9086 29.7615C73.4078 29.0997 73.0188 28.3216 72.7415 27.4273C72.4732 26.524 72.3391 25.5447 72.3391 24.4894ZM74.8343 24.2076V24.4894C74.8343 25.2138 74.9058 25.8935 75.0489 26.5285C75.201 27.1634 75.4335 27.7224 75.7465 28.2053C76.0595 28.6883 76.4575 29.0684 76.9404 29.3456C77.4234 29.6139 78.0002 29.7481 78.671 29.7481C79.4938 29.7481 80.169 29.5737 80.6967 29.2249C81.2333 28.8761 81.6625 28.4155 81.9845 27.8431C82.3065 27.2708 82.5569 26.6492 82.7358 25.9784V22.7454C82.6284 22.2535 82.4719 21.7795 82.2662 21.3234C82.0695 20.8583 81.8101 20.4469 81.4882 20.0892C81.1751 19.7225 80.7861 19.4319 80.321 19.2172C79.8649 19.0026 79.3239 18.8953 78.6978 18.8953C78.0181 18.8953 77.4323 19.0384 76.9404 19.3246C76.4575 19.6018 76.0595 19.9864 75.7465 20.4783C75.4335 20.9612 75.201 21.5246 75.0489 22.1686C74.9058 22.8035 74.8343 23.4832 74.8343 24.2076ZM94.4874 31.8542C93.4768 31.8542 92.5601 31.6843 91.7373 31.3445C90.9234 30.9957 90.2214 30.5083 89.6311 29.8822C89.0498 29.2562 88.6026 28.5139 88.2896 27.6553C87.9766 26.7968 87.8201 25.8577 87.8201 24.8382V24.2747C87.8201 23.0942 87.9945 22.0433 88.3433 21.1222C88.6921 20.1921 89.1661 19.405 89.7653 18.7611C90.3645 18.1172 91.0442 17.6298 91.8044 17.2989C92.5645 16.968 93.3516 16.8025 94.1654 16.8025C95.2028 16.8025 96.0972 16.9814 96.8484 17.3391C97.6086 17.6969 98.2302 18.1977 98.7131 18.8416C99.1961 19.4766 99.5538 20.2278 99.7863 21.0953C100.019 21.9539 100.135 22.893 100.135 23.9125V25.026H89.2957V23.0003H97.6533V22.8125C97.6176 22.1686 97.4834 21.5425 97.2509 20.9344C97.0273 20.3262 96.6696 19.8254 96.1777 19.4319C95.6858 19.0384 95.015 18.8416 94.1654 18.8416C93.602 18.8416 93.0833 18.9623 92.6093 19.2038C92.1353 19.4363 91.7283 19.7851 91.3885 20.2502C91.0486 20.7153 90.7848 21.2832 90.597 21.9539C90.4092 22.6247 90.3153 23.3983 90.3153 24.2747V24.8382C90.3153 25.5268 90.4092 26.1752 90.597 26.7833C90.7937 27.3825 91.0755 27.9102 91.4421 28.3663C91.8178 28.8224 92.2694 29.1802 92.7971 29.4395C93.3337 29.6989 93.9418 29.8286 94.6215 29.8286C95.498 29.8286 96.2403 29.6497 96.8484 29.292C97.4566 28.9342 97.9887 28.4558 98.4448 27.8565L99.9473 29.0505C99.6343 29.5245 99.2363 29.9761 98.7534 30.4054C98.2704 30.8347 97.6757 31.1835 96.9692 31.4518C96.2716 31.7201 95.4443 31.8542 94.4874 31.8542ZM120.633 26.6492C120.633 26.1931 120.562 25.7906 120.419 25.4418C120.285 25.0841 120.043 24.7621 119.694 24.4759C119.354 24.1898 118.88 23.917 118.272 23.6576C117.673 23.3983 116.913 23.1344 115.992 22.8661C115.026 22.5799 114.154 22.2625 113.376 21.9137C112.598 21.5559 111.931 21.149 111.377 20.6929C110.822 20.2368 110.398 19.7136 110.103 19.1233C109.807 18.5331 109.66 17.8578 109.66 17.0977C109.66 16.3375 109.816 15.6354 110.129 14.9915C110.442 14.3476 110.89 13.7886 111.471 13.3146C112.061 12.8317 112.763 12.456 113.577 12.1877C114.391 11.9194 115.299 11.7853 116.3 11.7853C117.767 11.7853 119.01 12.067 120.03 12.6304C121.058 13.1849 121.841 13.9138 122.377 14.8171C122.914 15.7114 123.182 16.6684 123.182 17.6879H120.607C120.607 16.9546 120.45 16.3062 120.137 15.7427C119.824 15.1704 119.35 14.7232 118.715 14.4012C118.08 14.0703 117.275 13.9049 116.3 13.9049C115.379 13.9049 114.619 14.0435 114.02 14.3207C113.421 14.598 112.973 14.9736 112.678 15.4476C112.392 15.9216 112.249 16.4627 112.249 17.0708C112.249 17.4822 112.334 17.8578 112.504 18.1977C112.683 18.5286 112.955 18.8371 113.322 19.1233C113.698 19.4095 114.172 19.6733 114.744 19.9148C115.325 20.1563 116.019 20.3888 116.823 20.6124C117.932 20.9254 118.889 21.2742 119.694 21.6588C120.499 22.0433 121.161 22.4771 121.68 22.96C122.207 23.434 122.596 23.9751 122.847 24.5833C123.106 25.1825 123.236 25.8622 123.236 26.6224C123.236 27.4183 123.075 28.1383 122.753 28.7822C122.431 29.4261 121.97 29.9761 121.371 30.4322C120.772 30.8884 120.052 31.2416 119.211 31.492C118.38 31.7335 117.45 31.8542 116.421 31.8542C115.518 31.8542 114.628 31.729 113.751 31.4786C112.884 31.2282 112.092 30.8526 111.377 30.3518C110.67 29.8509 110.103 29.2338 109.673 28.5005C109.253 27.7582 109.043 26.8996 109.043 25.9248H111.618C111.618 26.5955 111.748 27.1724 112.007 27.6553C112.267 28.1293 112.62 28.5228 113.067 28.8358C113.523 29.1489 114.038 29.3814 114.61 29.5334C115.191 29.6765 115.795 29.7481 116.421 29.7481C117.324 29.7481 118.089 29.6229 118.715 29.3724C119.341 29.122 119.815 28.7643 120.137 28.2992C120.468 27.8342 120.633 27.2842 120.633 26.6492ZM134.719 29.1041V21.6319C134.719 21.0596 134.603 20.5632 134.37 20.1429C134.147 19.7136 133.807 19.3827 133.351 19.1502C132.895 18.9176 132.331 18.8014 131.661 18.8014C131.035 18.8014 130.484 18.9087 130.01 19.1233C129.545 19.338 129.179 19.6197 128.91 19.9685C128.651 20.3173 128.521 20.6929 128.521 21.0953H126.04C126.04 20.5766 126.174 20.0624 126.442 19.5526C126.71 19.0428 127.095 18.5823 127.596 18.1709C128.106 17.7505 128.714 17.4196 129.42 17.1781C130.136 16.9277 130.932 16.8025 131.808 16.8025C132.863 16.8025 133.794 16.9814 134.598 17.3391C135.412 17.6969 136.047 18.2379 136.503 18.9623C136.968 19.6778 137.201 20.5766 137.201 21.6588V28.42C137.201 28.9029 137.241 29.4172 137.322 29.9627C137.411 30.5083 137.541 30.9778 137.711 31.3713V31.5859H135.122C134.996 31.2997 134.898 30.9197 134.827 30.4457C134.755 29.9627 134.719 29.5155 134.719 29.1041ZM135.148 22.7856L135.175 24.5296H132.667C131.96 24.5296 131.33 24.5877 130.775 24.704C130.221 24.8113 129.756 24.9768 129.38 25.2004C129.004 25.4239 128.718 25.7057 128.521 26.0455C128.325 26.3764 128.226 26.7655 128.226 27.2126C128.226 27.6687 128.329 28.0846 128.535 28.4602C128.741 28.8358 129.049 29.1354 129.46 29.359C129.881 29.5737 130.395 29.681 131.003 29.681C131.763 29.681 132.434 29.52 133.015 29.1981C133.597 28.8761 134.057 28.4826 134.397 28.0175C134.746 27.5525 134.934 27.1008 134.961 26.6626L136.02 27.8565C135.958 28.2322 135.788 28.648 135.511 29.1041C135.233 29.5603 134.862 29.9985 134.397 30.4188C133.941 30.8302 133.396 31.1745 132.761 31.4518C132.135 31.7201 131.428 31.8542 130.641 31.8542C129.657 31.8542 128.794 31.662 128.052 31.2774C127.319 30.8928 126.746 30.3786 126.335 29.7347C125.932 29.0818 125.731 28.3529 125.731 27.548C125.731 26.7699 125.883 26.0858 126.187 25.4955C126.491 24.8963 126.93 24.3999 127.502 24.0064C128.074 23.604 128.763 23.2999 129.568 23.0942C130.373 22.8885 131.272 22.7856 132.264 22.7856H135.148ZM135.162 11.2487L136.839 11.3962C136.839 12.0491 136.709 12.6215 136.45 13.1134C136.19 13.6053 135.842 13.9854 135.403 14.2537C134.974 14.522 134.487 14.6561 133.941 14.6561C133.485 14.6561 133.109 14.5935 132.814 14.4683C132.519 14.3341 132.255 14.1866 132.023 14.0256C131.79 13.8557 131.544 13.7081 131.285 13.5829C131.035 13.4487 130.721 13.3817 130.346 13.3817C129.97 13.3817 129.653 13.5248 129.393 13.811C129.143 14.0971 129.018 14.4504 129.018 14.8707L127.341 14.7903C127.341 14.1374 127.466 13.565 127.717 13.0731C127.976 12.5723 128.325 12.1833 128.763 11.906C129.201 11.6198 129.689 11.4767 130.225 11.4767C130.61 11.4767 130.945 11.5438 131.231 11.678C131.526 11.8032 131.804 11.9507 132.063 12.1207C132.322 12.2816 132.591 12.4292 132.868 12.5634C133.145 12.6886 133.463 12.7512 133.82 12.7512C134.196 12.7512 134.513 12.6081 134.773 12.3219C135.032 12.0268 135.162 11.669 135.162 11.2487ZM140.447 24.4894V24.1808C140.447 23.1344 140.599 22.1641 140.904 21.2697C141.208 20.3665 141.646 19.5839 142.218 18.9221C142.791 18.2513 143.484 17.7326 144.298 17.366C145.111 16.9903 146.024 16.8025 147.034 16.8025C148.054 16.8025 148.97 16.9903 149.784 17.366C150.607 17.7326 151.305 18.2513 151.877 18.9221C152.458 19.5839 152.901 20.3665 153.205 21.2697C153.509 22.1641 153.661 23.1344 153.661 24.1808V24.4894C153.661 25.5357 153.509 26.5061 153.205 27.4004C152.901 28.2948 152.458 29.0773 151.877 29.7481C151.305 30.4099 150.612 30.9286 149.798 31.3042C148.993 31.6709 148.081 31.8542 147.061 31.8542C146.042 31.8542 145.125 31.6709 144.311 31.3042C143.497 30.9286 142.8 30.4099 142.218 29.7481C141.646 29.0773 141.208 28.2948 140.904 27.4004C140.599 26.5061 140.447 25.5357 140.447 24.4894ZM142.929 24.1808V24.4894C142.929 25.2138 143.014 25.8979 143.184 26.5419C143.354 27.1768 143.609 27.7403 143.949 28.2322C144.298 28.7241 144.731 29.1131 145.25 29.3993C145.769 29.6765 146.372 29.8151 147.061 29.8151C147.741 29.8151 148.335 29.6765 148.845 29.3993C149.364 29.1131 149.793 28.7241 150.133 28.2322C150.473 27.7403 150.728 27.1768 150.898 26.5419C151.077 25.8979 151.166 25.2138 151.166 24.4894V24.1808C151.166 23.4653 151.077 22.7901 150.898 22.1551C150.728 21.5112 150.468 20.9433 150.12 20.4514C149.78 19.9506 149.351 19.5571 148.832 19.2709C148.322 18.9847 147.723 18.8416 147.034 18.8416C146.355 18.8416 145.755 18.9847 145.237 19.2709C144.727 19.5571 144.298 19.9506 143.949 20.4514C143.609 20.9433 143.354 21.5112 143.184 22.1551C143.014 22.7901 142.929 23.4653 142.929 24.1808ZM174.374 26.6492C174.374 26.1931 174.303 25.7906 174.16 25.4418C174.025 25.0841 173.784 24.7621 173.435 24.4759C173.095 24.1898 172.621 23.917 172.013 23.6576C171.414 23.3983 170.654 23.1344 169.733 22.8661C168.767 22.5799 167.895 22.2625 167.117 21.9137C166.339 21.5559 165.672 21.149 165.118 20.6929C164.563 20.2368 164.138 19.7136 163.843 19.1233C163.548 18.5331 163.401 17.8578 163.401 17.0977C163.401 16.3375 163.557 15.6354 163.87 14.9915C164.183 14.3476 164.63 13.7886 165.212 13.3146C165.802 12.8317 166.504 12.456 167.318 12.1877C168.132 11.9194 169.039 11.7853 170.041 11.7853C171.508 11.7853 172.751 12.067 173.77 12.6304C174.799 13.1849 175.582 13.9138 176.118 14.8171C176.655 15.7114 176.923 16.6684 176.923 17.6879H174.347C174.347 16.9546 174.191 16.3062 173.878 15.7427C173.565 15.1704 173.091 14.7232 172.456 14.4012C171.821 14.0703 171.016 13.9049 170.041 13.9049C169.12 13.9049 168.36 14.0435 167.761 14.3207C167.161 14.598 166.714 14.9736 166.419 15.4476C166.133 15.9216 165.99 16.4627 165.99 17.0708C165.99 17.4822 166.075 17.8578 166.245 18.1977C166.423 18.5286 166.696 18.8371 167.063 19.1233C167.439 19.4095 167.913 19.6733 168.485 19.9148C169.066 20.1563 169.759 20.3888 170.564 20.6124C171.673 20.9254 172.63 21.2742 173.435 21.6588C174.24 22.0433 174.902 22.4771 175.421 22.96C175.948 23.434 176.337 23.9751 176.588 24.5833C176.847 25.1825 176.977 25.8622 176.977 26.6224C176.977 27.4183 176.816 28.1383 176.494 28.7822C176.172 29.4261 175.711 29.9761 175.112 30.4322C174.513 30.8884 173.793 31.2416 172.952 31.492C172.12 31.7335 171.19 31.8542 170.162 31.8542C169.259 31.8542 168.369 31.729 167.492 31.4786C166.625 31.2282 165.833 30.8526 165.118 30.3518C164.411 29.8509 163.843 29.2338 163.414 28.5005C162.994 27.7582 162.784 26.8996 162.784 25.9248H165.359C165.359 26.5955 165.489 27.1724 165.748 27.6553C166.008 28.1293 166.361 28.5228 166.808 28.8358C167.264 29.1489 167.778 29.3814 168.351 29.5334C168.932 29.6765 169.536 29.7481 170.162 29.7481C171.065 29.7481 171.83 29.6229 172.456 29.3724C173.082 29.122 173.556 28.7643 173.878 28.2992C174.209 27.8342 174.374 27.2842 174.374 26.6492ZM185.925 31.8542C184.914 31.8542 183.997 31.6843 183.174 31.3445C182.361 30.9957 181.659 30.5083 181.068 29.8822C180.487 29.2562 180.04 28.5139 179.727 27.6553C179.414 26.7968 179.257 25.8577 179.257 24.8382V24.2747C179.257 23.0942 179.432 22.0433 179.78 21.1222C180.129 20.1921 180.603 19.405 181.202 18.7611C181.802 18.1172 182.481 17.6298 183.242 17.2989C184.002 16.968 184.789 16.8025 185.603 16.8025C186.64 16.8025 187.534 16.9814 188.286 17.3391C189.046 17.6969 189.667 18.1977 190.15 18.8416C190.633 19.4766 190.991 20.2278 191.223 21.0953C191.456 21.9539 191.572 22.893 191.572 23.9125V25.026H180.733V23.0003H189.09V22.8125C189.055 22.1686 188.921 21.5425 188.688 20.9344C188.464 20.3262 188.107 19.8254 187.615 19.4319C187.123 19.0384 186.452 18.8416 185.603 18.8416C185.039 18.8416 184.52 18.9623 184.046 19.2038C183.572 19.4363 183.166 19.7851 182.826 20.2502C182.486 20.7153 182.222 21.2832 182.034 21.9539C181.846 22.6247 181.752 23.3983 181.752 24.2747V24.8382C181.752 25.5268 181.846 26.1752 182.034 26.7833C182.231 27.3825 182.513 27.9102 182.879 28.3663C183.255 28.8224 183.707 29.1802 184.234 29.4395C184.771 29.6989 185.379 29.8286 186.059 29.8286C186.935 29.8286 187.677 29.6497 188.286 29.292C188.894 28.9342 189.426 28.4558 189.882 27.8565L191.384 29.0505C191.071 29.5245 190.673 29.9761 190.191 30.4054C189.708 30.8347 189.113 31.1835 188.406 31.4518C187.709 31.7201 186.881 31.8542 185.925 31.8542ZM198.696 29.3456L202.667 17.0708H205.202L199.984 31.5859H198.32L198.696 29.3456ZM195.382 17.0708L199.474 29.4127L199.755 31.5859H198.092L192.833 17.0708H195.382ZM213.425 31.8542C212.415 31.8542 211.498 31.6843 210.675 31.3445C209.862 30.9957 209.159 30.5083 208.569 29.8822C207.988 29.2562 207.541 28.5139 207.228 27.6553C206.915 26.7968 206.758 25.8577 206.758 24.8382V24.2747C206.758 23.0942 206.933 22.0433 207.281 21.1222C207.63 20.1921 208.104 19.405 208.703 18.7611C209.303 18.1172 209.982 17.6298 210.742 17.2989C211.503 16.968 212.29 16.8025 213.103 16.8025C214.141 16.8025 215.035 16.9814 215.787 17.3391C216.547 17.6969 217.168 18.1977 217.651 18.8416C218.134 19.4766 218.492 20.2278 218.724 21.0953C218.957 21.9539 219.073 22.893 219.073 23.9125V25.026H208.234V23.0003H216.591V22.8125C216.556 22.1686 216.421 21.5425 216.189 20.9344C215.965 20.3262 215.608 19.8254 215.116 19.4319C214.624 19.0384 213.953 18.8416 213.103 18.8416C212.54 18.8416 212.021 18.9623 211.547 19.2038C211.073 19.4363 210.666 19.7851 210.327 20.2502C209.987 20.7153 209.723 21.2832 209.535 21.9539C209.347 22.6247 209.253 23.3983 209.253 24.2747V24.8382C209.253 25.5268 209.347 26.1752 209.535 26.7833C209.732 27.3825 210.014 27.9102 210.38 28.3663C210.756 28.8224 211.207 29.1802 211.735 29.4395C212.272 29.6989 212.88 29.8286 213.56 29.8286C214.436 29.8286 215.178 29.6497 215.787 29.292C216.395 28.9342 216.927 28.4558 217.383 27.8565L218.885 29.0505C218.572 29.5245 218.174 29.9761 217.691 30.4054C217.209 30.8347 216.614 31.1835 215.907 31.4518C215.21 31.7201 214.382 31.8542 213.425 31.8542ZM224.453 19.3514V31.5859H221.971V17.0708H224.386L224.453 19.3514ZM228.987 16.9903L228.974 19.2977C228.768 19.253 228.571 19.2262 228.383 19.2172C228.204 19.1993 227.999 19.1904 227.766 19.1904C227.194 19.1904 226.689 19.2798 226.25 19.4587C225.812 19.6376 225.441 19.888 225.137 20.21C224.833 20.5319 224.591 20.9165 224.412 21.3636C224.242 21.8019 224.131 22.2848 224.077 22.8125L223.379 23.2149C223.379 22.3385 223.464 21.5157 223.634 20.7466C223.813 19.9774 224.086 19.2977 224.453 18.7075C224.819 18.1083 225.284 17.6432 225.848 17.3123C226.42 16.9724 227.1 16.8025 227.887 16.8025C228.066 16.8025 228.271 16.8249 228.504 16.8696C228.737 16.9054 228.898 16.9456 228.987 16.9903ZM233.977 17.0708V31.5859H231.482V17.0708H233.977ZM231.294 13.2207C231.294 12.8182 231.415 12.4784 231.657 12.2011C231.907 11.9239 232.274 11.7853 232.757 11.7853C233.231 11.7853 233.593 11.9239 233.843 12.2011C234.103 12.4784 234.232 12.8182 234.232 13.2207C234.232 13.6053 234.103 13.9362 233.843 14.2134C233.593 14.4817 233.231 14.6159 232.757 14.6159C232.274 14.6159 231.907 14.4817 231.657 14.2134C231.415 13.9362 231.294 13.6053 231.294 13.2207ZM240.443 20.1697V31.5859H237.962V17.0708H240.309L240.443 20.1697ZM239.853 23.7784L238.82 23.7381C238.829 22.7454 238.977 21.8287 239.263 20.988C239.549 20.1384 239.952 19.4006 240.47 18.7745C240.989 18.1485 241.606 17.6656 242.322 17.3257C243.046 16.9769 243.846 16.8025 244.723 16.8025C245.438 16.8025 246.082 16.9009 246.655 17.0977C247.227 17.2855 247.714 17.5895 248.117 18.0099C248.528 18.4302 248.841 18.9758 249.056 19.6465C249.271 20.3083 249.378 21.1177 249.378 22.0746V31.5859H246.883V22.0478C246.883 21.2876 246.771 20.6795 246.547 20.2234C246.324 19.7583 245.997 19.4229 245.568 19.2172C245.139 19.0026 244.611 18.8953 243.985 18.8953C243.368 18.8953 242.804 19.025 242.295 19.2843C241.794 19.5437 241.36 19.9014 240.993 20.3575C240.636 20.8136 240.354 21.3368 240.148 21.9271C239.952 22.5084 239.853 23.1255 239.853 23.7784ZM252.49 24.4894V24.1808C252.49 23.1344 252.642 22.1641 252.946 21.2697C253.25 20.3665 253.689 19.5839 254.261 18.9221C254.833 18.2513 255.526 17.7326 256.34 17.366C257.154 16.9903 258.066 16.8025 259.077 16.8025C260.097 16.8025 261.013 16.9903 261.827 17.366C262.65 17.7326 263.347 18.2513 263.92 18.9221C264.501 19.5839 264.944 20.3665 265.248 21.2697C265.552 22.1641 265.704 23.1344 265.704 24.1808V24.4894C265.704 25.5357 265.552 26.5061 265.248 27.4004C264.944 28.2948 264.501 29.0773 263.92 29.7481C263.347 30.4099 262.654 30.9286 261.84 31.3042C261.036 31.6709 260.123 31.8542 259.104 31.8542C258.084 31.8542 257.168 31.6709 256.354 31.3042C255.54 30.9286 254.842 30.4099 254.261 29.7481C253.689 29.0773 253.25 28.2948 252.946 27.4004C252.642 26.5061 252.49 25.5357 252.49 24.4894ZM254.972 24.1808V24.4894C254.972 25.2138 255.057 25.8979 255.227 26.5419C255.397 27.1768 255.652 27.7403 255.992 28.2322C256.34 28.7241 256.774 29.1131 257.293 29.3993C257.811 29.6765 258.415 29.8151 259.104 29.8151C259.784 29.8151 260.378 29.6765 260.888 29.3993C261.407 29.1131 261.836 28.7241 262.176 28.2322C262.516 27.7403 262.771 27.1768 262.941 26.5419C263.119 25.8979 263.209 25.2138 263.209 24.4894V24.1808C263.209 23.4653 263.119 22.7901 262.941 22.1551C262.771 21.5112 262.511 20.9433 262.162 20.4514C261.823 19.9506 261.393 19.5571 260.875 19.2709C260.365 18.9847 259.766 18.8416 259.077 18.8416C258.397 18.8416 257.798 18.9847 257.279 19.2709C256.77 19.5571 256.34 19.9506 255.992 20.4514C255.652 20.9433 255.397 21.5112 255.227 22.1551C255.057 22.7901 254.972 23.4653 254.972 24.1808ZM284.78 28.7688V10.9804H287.275V31.5859H284.995L284.78 28.7688ZM275.014 24.4894V24.2076C275.014 23.0987 275.148 22.0925 275.417 21.1893C275.694 20.277 276.083 19.4945 276.584 18.8416C277.093 18.1887 277.697 17.6879 278.395 17.3391C279.101 16.9814 279.888 16.8025 280.756 16.8025C281.668 16.8025 282.464 16.9635 283.144 17.2855C283.832 17.5985 284.414 18.0591 284.888 18.6672C285.371 19.2664 285.751 19.9908 286.028 20.8405C286.305 21.6901 286.497 22.6515 286.605 23.7247V24.9589C286.506 26.0232 286.314 26.9801 286.028 27.8297C285.751 28.6793 285.371 29.4038 284.888 30.003C284.414 30.6022 283.832 31.0627 283.144 31.3847C282.455 31.6977 281.65 31.8542 280.729 31.8542C279.879 31.8542 279.101 31.6709 278.395 31.3042C277.697 30.9375 277.093 30.4233 276.584 29.7615C276.083 29.0997 275.694 28.3216 275.417 27.4273C275.148 26.524 275.014 25.5447 275.014 24.4894ZM277.509 24.2076V24.4894C277.509 25.2138 277.581 25.8935 277.724 26.5285C277.876 27.1634 278.108 27.7224 278.422 28.2053C278.735 28.6883 279.133 29.0684 279.615 29.3456C280.098 29.6139 280.675 29.7481 281.346 29.7481C282.169 29.7481 282.844 29.5737 283.372 29.2249C283.908 28.8761 284.338 28.4155 284.66 27.8431C284.981 27.2708 285.232 26.6492 285.411 25.9784V22.7454C285.303 22.2535 285.147 21.7795 284.941 21.3234C284.744 20.8583 284.485 20.4469 284.163 20.0892C283.85 19.7225 283.461 19.4319 282.996 19.2172C282.54 19.0026 281.999 18.8953 281.373 18.8953C280.693 18.8953 280.107 19.0384 279.615 19.3246C279.133 19.6018 278.735 19.9864 278.422 20.4783C278.108 20.9612 277.876 21.5246 277.724 22.1686C277.581 22.8035 277.509 23.4832 277.509 24.2076ZM299.698 29.1041V21.6319C299.698 21.0596 299.582 20.5632 299.349 20.1429C299.125 19.7136 298.786 19.3827 298.33 19.1502C297.873 18.9176 297.31 18.8014 296.639 18.8014C296.013 18.8014 295.463 18.9087 294.989 19.1233C294.524 19.338 294.157 19.6197 293.889 19.9685C293.63 20.3173 293.5 20.6929 293.5 21.0953H291.018C291.018 20.5766 291.152 20.0624 291.421 19.5526C291.689 19.0428 292.074 18.5823 292.574 18.1709C293.084 17.7505 293.692 17.4196 294.399 17.1781C295.114 16.9277 295.91 16.8025 296.787 16.8025C297.842 16.8025 298.772 16.9814 299.577 17.3391C300.391 17.6969 301.026 18.2379 301.482 18.9623C301.947 19.6778 302.18 20.5766 302.18 21.6588V28.42C302.18 28.9029 302.22 29.4172 302.3 29.9627C302.39 30.5083 302.519 30.9778 302.689 31.3713V31.5859H300.1C299.975 31.2997 299.877 30.9197 299.805 30.4457C299.734 29.9627 299.698 29.5155 299.698 29.1041ZM300.127 22.7856L300.154 24.5296H297.645C296.939 24.5296 296.308 24.5877 295.754 24.704C295.199 24.8113 294.734 24.9768 294.359 25.2004C293.983 25.4239 293.697 25.7057 293.5 26.0455C293.303 26.3764 293.205 26.7655 293.205 27.2126C293.205 27.6687 293.308 28.0846 293.513 28.4602C293.719 28.8358 294.028 29.1354 294.439 29.359C294.859 29.5737 295.374 29.681 295.982 29.681C296.742 29.681 297.413 29.52 297.994 29.1981C298.575 28.8761 299.036 28.4826 299.376 28.0175C299.725 27.5525 299.912 27.1008 299.939 26.6626L300.999 27.8565C300.937 28.2322 300.767 28.648 300.489 29.1041C300.212 29.5603 299.841 29.9985 299.376 30.4188C298.92 30.8302 298.374 31.1745 297.739 31.4518C297.113 31.7201 296.407 31.8542 295.62 31.8542C294.636 31.8542 293.773 31.662 293.031 31.2774C292.297 30.8928 291.725 30.3786 291.313 29.7347C290.911 29.0818 290.71 28.3529 290.71 27.548C290.71 26.7699 290.862 26.0858 291.166 25.4955C291.47 24.8963 291.908 24.3999 292.481 24.0064C293.053 23.604 293.742 23.2999 294.546 23.0942C295.351 22.8885 296.25 22.7856 297.243 22.7856H300.127ZM314.092 12.0536H316.601L323 27.9773L329.385 12.0536H331.907L323.966 31.5859H322.007L314.092 12.0536ZM313.274 12.0536H315.487L315.85 23.9662V31.5859H313.274V12.0536ZM330.499 12.0536H332.712V31.5859H330.137V23.9662L330.499 12.0536ZM345.443 29.1041V21.6319C345.443 21.0596 345.327 20.5632 345.094 20.1429C344.871 19.7136 344.531 19.3827 344.075 19.1502C343.619 18.9176 343.055 18.8014 342.385 18.8014C341.759 18.8014 341.209 18.9087 340.735 19.1233C340.27 19.338 339.903 19.6197 339.635 19.9685C339.375 20.3173 339.246 20.6929 339.246 21.0953H336.764C336.764 20.5766 336.898 20.0624 337.166 19.5526C337.434 19.0428 337.819 18.5823 338.32 18.1709C338.83 17.7505 339.438 17.4196 340.144 17.1781C340.86 16.9277 341.656 16.8025 342.532 16.8025C343.588 16.8025 344.518 16.9814 345.323 17.3391C346.136 17.6969 346.771 18.2379 347.227 18.9623C347.693 19.6778 347.925 20.5766 347.925 21.6588V28.42C347.925 28.9029 347.965 29.4172 348.046 29.9627C348.135 30.5083 348.265 30.9778 348.435 31.3713V31.5859H345.846C345.721 31.2997 345.622 30.9197 345.551 30.4457C345.479 29.9627 345.443 29.5155 345.443 29.1041ZM345.873 22.7856L345.899 24.5296H343.391C342.684 24.5296 342.054 24.5877 341.499 24.704C340.945 24.8113 340.48 24.9768 340.104 25.2004C339.728 25.4239 339.442 25.7057 339.246 26.0455C339.049 26.3764 338.95 26.7655 338.95 27.2126C338.95 27.6687 339.053 28.0846 339.259 28.4602C339.465 28.8358 339.773 29.1354 340.185 29.359C340.605 29.5737 341.119 29.681 341.727 29.681C342.487 29.681 343.158 29.52 343.74 29.1981C344.321 28.8761 344.781 28.4826 345.121 28.0175C345.47 27.5525 345.658 27.1008 345.685 26.6626L346.745 27.8565C346.682 28.2322 346.512 28.648 346.235 29.1041C345.958 29.5603 345.586 29.9985 345.121 30.4188C344.665 30.8302 344.12 31.1745 343.485 31.4518C342.859 31.7201 342.152 31.8542 341.365 31.8542C340.381 31.8542 339.518 31.662 338.776 31.2774C338.043 30.8928 337.47 30.3786 337.059 29.7347C336.656 29.0818 336.455 28.3529 336.455 27.548C336.455 26.7699 336.607 26.0858 336.911 25.4955C337.215 24.8963 337.654 24.3999 338.226 24.0064C338.798 23.604 339.487 23.2999 340.292 23.0942C341.097 22.8885 341.996 22.7856 342.988 22.7856H345.873ZM357.906 17.0708V18.9758H350.058V17.0708H357.906ZM352.714 13.5427H355.196V27.9907C355.196 28.4826 355.272 28.8537 355.424 29.1041C355.576 29.3546 355.773 29.52 356.014 29.6005C356.256 29.681 356.515 29.7212 356.792 29.7212C356.998 29.7212 357.213 29.7034 357.436 29.6676C357.669 29.6229 357.843 29.5871 357.96 29.5603L357.973 31.5859C357.776 31.6485 357.517 31.7067 357.195 31.7603C356.882 31.8229 356.502 31.8542 356.055 31.8542C355.446 31.8542 354.887 31.7335 354.378 31.492C353.868 31.2506 353.461 30.8481 353.157 30.2847C352.862 29.7123 352.714 28.9432 352.714 27.9773V13.5427ZM369.376 29.1041V21.6319C369.376 21.0596 369.259 20.5632 369.027 20.1429C368.803 19.7136 368.464 19.3827 368.007 19.1502C367.551 18.9176 366.988 18.8014 366.317 18.8014C365.691 18.8014 365.141 18.9087 364.667 19.1233C364.202 19.338 363.835 19.6197 363.567 19.9685C363.308 20.3173 363.178 20.6929 363.178 21.0953H360.696C360.696 20.5766 360.83 20.0624 361.099 19.5526C361.367 19.0428 361.752 18.5823 362.252 18.1709C362.762 17.7505 363.37 17.4196 364.077 17.1781C364.792 16.9277 365.588 16.8025 366.465 16.8025C367.52 16.8025 368.45 16.9814 369.255 17.3391C370.069 17.6969 370.704 18.2379 371.16 18.9623C371.625 19.6778 371.858 20.5766 371.858 21.6588V28.42C371.858 28.9029 371.898 29.4172 371.978 29.9627C372.068 30.5083 372.197 30.9778 372.367 31.3713V31.5859H369.778C369.653 31.2997 369.555 30.9197 369.483 30.4457C369.412 29.9627 369.376 29.5155 369.376 29.1041ZM369.805 22.7856L369.832 24.5296H367.323C366.617 24.5296 365.986 24.5877 365.432 24.704C364.877 24.8113 364.412 24.9768 364.037 25.2004C363.661 25.4239 363.375 25.7057 363.178 26.0455C362.981 26.3764 362.883 26.7655 362.883 27.2126C362.883 27.6687 362.986 28.0846 363.191 28.4602C363.397 28.8358 363.706 29.1354 364.117 29.359C364.537 29.5737 365.052 29.681 365.66 29.681C366.42 29.681 367.091 29.52 367.672 29.1981C368.253 28.8761 368.714 28.4826 369.054 28.0175C369.403 27.5525 369.59 27.1008 369.617 26.6626L370.677 27.8565C370.614 28.2322 370.444 28.648 370.167 29.1041C369.89 29.5603 369.519 29.9985 369.054 30.4188C368.598 30.8302 368.052 31.1745 367.417 31.4518C366.791 31.7201 366.085 31.8542 365.298 31.8542C364.314 31.8542 363.451 31.662 362.708 31.2774C361.975 30.8928 361.403 30.3786 360.991 29.7347C360.589 29.0818 360.388 28.3529 360.388 27.548C360.388 26.7699 360.54 26.0858 360.844 25.4955C361.148 24.8963 361.586 24.3999 362.158 24.0064C362.731 23.604 363.419 23.2999 364.224 23.0942C365.029 22.8885 365.928 22.7856 366.921 22.7856H369.805Z" fill="#FDFBF9"/>
</svg>
