<svg width="307" height="146" viewBox="0 0 307 146" fill="none" xmlns="http://www.w3.org/2000/svg">
<rect x="1.3308" y="41.8894" width="304.405" height="49.7722" rx="9.43956" fill="#FDFBF9" stroke="#959595" stroke-width="1.71628"/>
<path d="M23.5881 74.0589V76.1641H13.8268V74.0589H23.5881ZM14.3363 56.6413V76.1641H11.7485V56.6413H14.3363ZM25.5189 69.071V68.7626C25.5189 67.7167 25.6709 66.7469 25.9748 65.853C26.2788 64.9501 26.7168 64.168 27.2889 63.5065C27.861 62.8361 28.5537 62.3176 29.3672 61.9511C30.1806 61.5757 31.0924 61.3879 32.1025 61.3879C33.1215 61.3879 34.0378 61.5757 34.8512 61.9511C35.6736 62.3176 36.3709 62.8361 36.943 63.5065C37.524 64.168 37.9665 64.9501 38.2704 65.853C38.5743 66.7469 38.7263 67.7167 38.7263 68.7626V69.071C38.7263 70.1168 38.5743 71.0867 38.2704 71.9806C37.9665 72.8745 37.524 73.6567 36.943 74.3271C36.3709 74.9886 35.6781 75.507 34.8646 75.8825C34.0601 76.249 33.1484 76.4322 32.1293 76.4322C31.1103 76.4322 30.194 76.249 29.3806 75.8825C28.5671 75.507 27.8699 74.9886 27.2889 74.3271C26.7168 73.6567 26.2788 72.8745 25.9748 71.9806C25.6709 71.0867 25.5189 70.1168 25.5189 69.071ZM27.9995 68.7626V69.071C27.9995 69.795 28.0844 70.4789 28.2543 71.1225C28.4241 71.7571 28.6789 72.3203 29.0186 72.8119C29.3672 73.3036 29.8007 73.6924 30.3192 73.9785C30.8376 74.2556 31.441 74.3941 32.1293 74.3941C32.8087 74.3941 33.4031 74.2556 33.9126 73.9785C34.4311 73.6924 34.8602 73.3036 35.1999 72.8119C35.5395 72.3203 35.7943 71.7571 35.9641 71.1225C36.1429 70.4789 36.2323 69.795 36.2323 69.071V68.7626C36.2323 68.0475 36.1429 67.3726 35.9641 66.7379C35.7943 66.0943 35.5351 65.5267 35.1864 65.035C34.8468 64.5345 34.4177 64.1411 33.8992 63.8551C33.3897 63.569 32.7908 63.426 32.1025 63.426C31.4231 63.426 30.8242 63.569 30.3058 63.8551C29.7962 64.1411 29.3672 64.5345 29.0186 65.035C28.6789 65.5267 28.4241 66.0943 28.2543 66.7379C28.0844 67.3726 27.9995 68.0475 27.9995 68.7626ZM41.9041 61.6561H44.3981V77.8938C44.3981 78.7787 44.255 79.5296 43.969 80.1464C43.6919 80.7632 43.2717 81.228 42.7086 81.5409C42.1544 81.8627 41.4527 82.0236 40.6035 82.0236C40.38 82.0236 40.1208 82.0012 39.8258 81.9565C39.5218 81.9118 39.2671 81.8582 39.0615 81.7956L39.0749 79.7978C39.2447 79.8335 39.4369 79.8603 39.6515 79.8782C39.866 79.905 40.0537 79.9184 40.2146 79.9184C40.5811 79.9184 40.8895 79.8514 41.1398 79.7173C41.3901 79.5832 41.5778 79.3687 41.703 79.0737C41.837 78.7787 41.9041 78.3854 41.9041 77.8938V61.6561ZM41.6493 57.8079C41.6493 57.4056 41.7745 57.0659 42.0248 56.7888C42.275 56.5117 42.6371 56.3732 43.1108 56.3732C43.5935 56.3732 43.96 56.5117 44.2103 56.7888C44.4606 57.0659 44.5858 57.4056 44.5858 57.8079C44.5858 58.1923 44.4606 58.523 44.2103 58.8001C43.96 59.0683 43.5935 59.2024 43.1108 59.2024C42.6371 59.2024 42.275 59.0683 42.0248 58.8001C41.7745 58.523 41.6493 58.1923 41.6493 57.8079ZM56.9618 73.6835V66.215C56.9618 65.6429 56.8456 65.1468 56.6132 64.7266C56.3897 64.2976 56.05 63.9668 55.5941 63.7344C55.1382 63.502 54.5751 63.3858 53.9047 63.3858C53.2789 63.3858 52.7292 63.4931 52.2554 63.7076C51.7906 63.9221 51.4241 64.2037 51.1559 64.5523C50.8967 64.901 50.7671 65.2764 50.7671 65.6786H48.2865C48.2865 65.1602 48.4206 64.6462 48.6888 64.1367C48.9569 63.6272 49.3413 63.1668 49.8419 62.7556C50.3514 62.3355 50.9593 62.0047 51.6654 61.7634C52.3806 61.5131 53.1761 61.3879 54.0521 61.3879C55.1069 61.3879 56.0366 61.5667 56.8411 61.9243C57.6546 62.2818 58.2892 62.8226 58.7451 63.5467C59.2099 64.2618 59.4424 65.1602 59.4424 66.2418V72.9997C59.4424 73.4824 59.4826 73.9964 59.563 74.5416C59.6524 75.0869 59.782 75.5562 59.9519 75.9495V76.1641H57.364C57.2389 75.878 57.1406 75.4981 57.0691 75.0243C56.9975 74.5416 56.9618 74.0947 56.9618 73.6835ZM57.3909 67.3681L57.4177 69.1112H54.9103C54.2041 69.1112 53.5739 69.1693 53.0197 69.2855C52.4655 69.3928 52.0007 69.5582 51.6252 69.7816C51.2498 70.0051 50.9637 70.2867 50.7671 70.6264C50.5704 70.9571 50.4721 71.346 50.4721 71.7929C50.4721 72.2488 50.5749 72.6645 50.7805 73.0399C50.9861 73.4153 51.2945 73.7148 51.7057 73.9383C52.1258 74.1528 52.6398 74.2601 53.2476 74.2601C54.0075 74.2601 54.6779 74.0992 55.2589 73.7774C55.8399 73.4556 56.3003 73.0622 56.64 72.5974C56.9886 72.1326 57.1763 71.6812 57.2031 71.2432L58.2624 72.4365C58.1998 72.8119 58.03 73.2276 57.7529 73.6835C57.4758 74.1394 57.1048 74.5774 56.64 74.9975C56.1841 75.4087 55.6388 75.7529 55.0042 76.03C54.3784 76.2981 53.6722 76.4322 52.8856 76.4322C51.9023 76.4322 51.0397 76.24 50.2978 75.8557C49.5648 75.4713 48.9927 74.9573 48.5815 74.3137C48.1792 73.6611 47.9781 72.9326 47.9781 72.1281C47.9781 71.3504 48.1301 70.6666 48.434 70.0766C48.7379 69.4777 49.1759 68.9816 49.748 68.5883C50.3201 68.186 51.0084 67.8821 51.8129 67.6765C52.6174 67.4709 53.5158 67.3681 54.508 67.3681H57.3909ZM73.3067 56.6413V76.1641H70.7189V56.6413H73.3067Z" fill="#2C2C2C"/>
<path d="M62.0148 16.9398H57.0001L56.9732 14.1777H61.1835C61.9254 14.1777 62.5333 14.0838 63.0071 13.8961C63.4808 13.6994 63.8339 13.4178 64.0663 13.0514C64.3077 12.6759 64.4284 12.22 64.4284 11.6837C64.4284 11.0758 64.3121 10.5842 64.0797 10.2088C63.8563 9.83332 63.5032 9.56068 63.0205 9.39084C62.5467 9.221 61.9344 9.13608 61.1835 9.13608H58.3945V25.5078H54.372V5.98509H61.1835C62.3188 5.98509 63.3333 6.09236 64.2272 6.3069C65.1301 6.52143 65.8943 6.8477 66.5201 7.28571C67.1458 7.72372 67.624 8.27794 67.9548 8.94836C68.2855 9.60985 68.4509 10.3965 68.4509 11.3083C68.4509 12.1128 68.2676 12.8547 67.9011 13.5341C67.5436 14.2134 66.976 14.7676 66.1983 15.1967C65.4295 15.6258 64.4239 15.8627 63.1814 15.9074L62.0148 16.9398ZM61.8405 25.5078H55.9006L57.4694 22.3702H61.8405C62.5467 22.3702 63.1233 22.2585 63.5702 22.035C64.0172 21.8026 64.3479 21.4897 64.5624 21.0964C64.777 20.7031 64.8842 20.2517 64.8842 19.7422C64.8842 19.1701 64.7859 18.674 64.5893 18.2538C64.4015 17.8337 64.0976 17.5119 63.6775 17.2884C63.2573 17.056 62.7031 16.9398 62.0148 16.9398H58.1398L58.1666 14.1777H62.9936L63.9188 15.2637C65.1077 15.2459 66.0642 15.4559 66.7882 15.8939C67.5212 16.323 68.0531 16.8817 68.3838 17.57C68.7235 18.2583 68.8934 18.9958 68.8934 19.7824C68.8934 21.0339 68.6207 22.0887 68.0755 22.9468C67.5302 23.796 66.7301 24.4351 65.6753 24.8642C64.6295 25.2933 63.3512 25.5078 61.8405 25.5078ZM80.2503 22.035V10.9999H84.112V25.5078H80.4783L80.2503 22.035ZM80.6794 19.0583L81.8191 19.0315C81.8191 19.9969 81.7074 20.8953 81.4839 21.7266C81.2604 22.549 80.9252 23.2641 80.4783 23.872C80.0313 24.4709 79.4682 24.9402 78.7888 25.2799C78.1095 25.6106 77.3094 25.776 76.3887 25.776C75.6825 25.776 75.03 25.6777 74.4311 25.481C73.8411 25.2754 73.3316 24.9581 72.9025 24.529C72.4824 24.091 72.1516 23.5323 71.9103 22.8529C71.6779 22.1646 71.5617 21.3378 71.5617 20.3724V10.9999H75.4233V20.3992C75.4233 20.8283 75.4725 21.1903 75.5708 21.4853C75.6781 21.7803 75.8255 22.0216 76.0133 22.2093C76.201 22.397 76.42 22.5311 76.6703 22.6116C76.9295 22.692 77.2156 22.7323 77.5284 22.7323C78.324 22.7323 78.9497 22.5714 79.4056 22.2496C79.8704 21.9278 80.1967 21.4897 80.3844 20.9355C80.5811 20.3724 80.6794 19.7466 80.6794 19.0583ZM94.9058 21.4987C94.9058 21.2216 94.8253 20.9713 94.6644 20.7478C94.5035 20.5243 94.2041 20.3187 93.7661 20.131C93.337 19.9344 92.7157 19.7556 91.9023 19.5947C91.1693 19.4338 90.4855 19.2327 89.8508 18.9913C89.2251 18.741 88.6798 18.4416 88.215 18.0929C87.7591 17.7443 87.4015 17.3331 87.1423 16.8594C86.8831 16.3767 86.7534 15.8269 86.7534 15.2101C86.7534 14.6023 86.8831 14.0302 87.1423 13.4938C87.4105 12.9575 87.7904 12.4837 88.282 12.0725C88.7826 11.6524 89.3904 11.3261 90.1056 11.0937C90.8296 10.8524 91.6431 10.7317 92.5459 10.7317C93.8063 10.7317 94.8879 10.9328 95.7907 11.3351C96.7025 11.7373 97.3998 12.2915 97.8825 12.9977C98.3741 13.695 98.6199 14.4905 98.6199 15.3844H94.7583C94.7583 15.009 94.6778 14.6738 94.5169 14.3788C94.365 14.0749 94.1236 13.838 93.7929 13.6681C93.4711 13.4894 93.0509 13.4 92.5325 13.4C92.1034 13.4 91.7325 13.476 91.4196 13.6279C91.1067 13.7709 90.8654 13.9676 90.6955 14.2179C90.5346 14.4592 90.4542 14.7274 90.4542 15.0224C90.4542 15.2459 90.4989 15.447 90.5883 15.6258C90.6866 15.7956 90.843 15.952 91.0576 16.0951C91.2721 16.2381 91.5492 16.3722 91.8889 16.4973C92.2375 16.6135 92.6666 16.7208 93.1761 16.8191C94.222 17.0337 95.1561 17.3152 95.9785 17.6639C96.8008 18.0035 97.4534 18.4684 97.9361 19.0583C98.4188 19.6394 98.6602 20.4037 98.6602 21.3512C98.6602 21.9948 98.5171 22.5848 98.2311 23.1211C97.945 23.6574 97.5338 24.1267 96.9975 24.529C96.4612 24.9223 95.8176 25.2307 95.0667 25.4542C94.3248 25.6687 93.489 25.776 92.5593 25.776C91.2095 25.776 90.0653 25.5346 89.1267 25.0519C88.1971 24.5692 87.4909 23.9569 87.0082 23.215C86.5344 22.4641 86.2976 21.6953 86.2976 20.9087H89.9581C89.9759 21.4361 90.11 21.8607 90.3603 22.1825C90.6195 22.5043 90.9458 22.7367 91.3391 22.8798C91.7414 23.0228 92.1749 23.0943 92.6398 23.0943C93.1403 23.0943 93.556 23.0272 93.8867 22.8932C94.2175 22.7501 94.4678 22.5624 94.6376 22.33C94.8164 22.0887 94.9058 21.8115 94.9058 21.4987ZM107.161 22.7591C107.635 22.7591 108.055 22.6697 108.422 22.4909C108.788 22.3032 109.074 22.044 109.28 21.7132C109.494 21.3735 109.606 20.9758 109.615 20.5199H113.249C113.24 21.5389 112.967 22.4462 112.431 23.2418C111.894 24.0284 111.175 24.6497 110.272 25.1056C109.369 25.5525 108.359 25.776 107.242 25.776C106.115 25.776 105.132 25.5883 104.292 25.2128C103.46 24.8374 102.768 24.3189 102.213 23.6574C101.659 22.987 101.244 22.2093 100.966 21.3244C100.689 20.4305 100.551 19.474 100.551 18.455V18.0661C100.551 17.0381 100.689 16.0817 100.966 15.1967C101.244 14.3028 101.659 13.5251 102.213 12.8636C102.768 12.1932 103.46 11.6703 104.292 11.2948C105.123 10.9194 106.097 10.7317 107.215 10.7317C108.404 10.7317 109.445 10.9596 110.339 11.4155C111.242 11.8714 111.948 12.524 112.457 13.3732C112.976 14.2134 113.24 15.2101 113.249 16.3632H109.615C109.606 15.8805 109.503 15.4425 109.306 15.0492C109.119 14.6559 108.842 14.343 108.475 14.1106C108.118 13.8693 107.675 13.7486 107.148 13.7486C106.585 13.7486 106.124 13.8693 105.767 14.1106C105.409 14.343 105.132 14.6648 104.935 15.076C104.739 15.4783 104.6 15.9386 104.52 16.4571C104.448 16.9666 104.412 17.503 104.412 18.0661V18.455C104.412 19.0181 104.448 19.5589 104.52 20.0774C104.591 20.5958 104.725 21.0562 104.922 21.4585C105.128 21.8607 105.409 22.178 105.767 22.4105C106.124 22.6429 106.589 22.7591 107.161 22.7591ZM123.318 22.2361V15.7733C123.318 15.3084 123.242 14.9107 123.09 14.5799C122.938 14.2402 122.702 13.9765 122.38 13.7888C122.067 13.6011 121.66 13.5072 121.16 13.5072C120.73 13.5072 120.36 13.5832 120.047 13.7352C119.734 13.8782 119.492 14.0883 119.323 14.3654C119.153 14.6336 119.068 14.9509 119.068 15.3174H115.206C115.206 14.7006 115.349 14.1151 115.635 13.5609C115.921 13.0067 116.337 12.5195 116.882 12.0994C117.428 11.6703 118.076 11.3351 118.826 11.0937C119.586 10.8524 120.435 10.7317 121.374 10.7317C122.5 10.7317 123.502 10.9194 124.378 11.2948C125.254 11.6703 125.942 12.2334 126.442 12.9843C126.952 13.7352 127.207 14.6738 127.207 15.8001V22.0082C127.207 22.8038 127.256 23.4563 127.354 23.9658C127.453 24.4664 127.596 24.9044 127.783 25.2799V25.5078H123.881C123.694 25.1145 123.551 24.6229 123.452 24.0329C123.363 23.434 123.318 22.8351 123.318 22.2361ZM123.828 16.6716L123.855 18.8572H121.696C121.186 18.8572 120.744 18.9153 120.368 19.0315C119.993 19.1477 119.685 19.3131 119.443 19.5276C119.202 19.7332 119.023 19.9746 118.907 20.2517C118.8 20.5288 118.746 20.8327 118.746 21.1635C118.746 21.4942 118.822 21.7937 118.974 22.0618C119.126 22.3211 119.345 22.5267 119.631 22.6786C119.917 22.8217 120.252 22.8932 120.637 22.8932C121.218 22.8932 121.723 22.777 122.152 22.5445C122.581 22.3121 122.912 22.0261 123.144 21.6864C123.385 21.3467 123.511 21.0249 123.519 20.721L124.538 22.3568C124.395 22.7233 124.199 23.1032 123.949 23.4965C123.707 23.8899 123.399 24.2608 123.023 24.6094C122.648 24.9491 122.196 25.2307 121.669 25.4542C121.142 25.6687 120.516 25.776 119.792 25.776C118.871 25.776 118.035 25.5927 117.285 25.2262C116.543 24.8508 115.953 24.3368 115.515 23.6843C115.086 23.0228 114.871 22.2719 114.871 21.4316C114.871 20.6718 115.014 19.9969 115.3 19.407C115.586 18.817 116.006 18.3209 116.56 17.9186C117.124 17.5074 117.825 17.199 118.666 16.9934C119.506 16.7789 120.48 16.6716 121.589 16.6716H123.828Z" fill="#2C2C2C"/>
<rect x="10.5459" y="0.273438" width="34.3257" height="34.3257" fill="#D9D9D9"/>
<path d="M15.4054 115.859H11.5337L11.5572 114.627H15.4054C16.6334 114.627 17.6893 114.354 18.5732 113.806C19.4648 113.251 20.1531 112.484 20.6381 111.507C21.123 110.529 21.3655 109.395 21.3655 108.104V106.509C21.3655 105.523 21.2247 104.631 20.9431 103.834C20.6694 103.036 20.2744 102.355 19.7581 101.792C19.2419 101.221 18.624 100.783 17.9044 100.478C17.1927 100.173 16.3949 100.021 15.511 100.021H11.4633V98.777H15.511C16.5748 98.777 17.5485 98.9608 18.4324 99.3284C19.324 99.6882 20.0945 100.212 20.7437 100.901C21.4007 101.581 21.9052 102.398 22.2571 103.353C22.6169 104.307 22.7968 105.371 22.7968 106.544V108.104C22.7968 109.277 22.6169 110.341 22.2571 111.295C21.9052 112.25 21.4007 113.067 20.7437 113.748C20.0867 114.428 19.3084 114.952 18.4089 115.32C17.5094 115.679 16.5083 115.859 15.4054 115.859ZM12.179 98.777V115.859H10.7359V98.777H12.179ZM27.7127 103.165V115.859H26.3166V103.165H27.7127ZM26.0702 99.4927C26.0702 99.2267 26.1523 99.0038 26.3166 98.8239C26.4886 98.6362 26.7233 98.5423 27.0205 98.5423C27.3177 98.5423 27.5524 98.6362 27.7244 98.8239C27.9043 99.0038 27.9943 99.2267 27.9943 99.4927C27.9943 99.7508 27.9043 99.9737 27.7244 100.161C27.5524 100.341 27.3177 100.431 27.0205 100.431C26.7233 100.431 26.4886 100.341 26.3166 100.161C26.1523 99.9737 26.0702 99.7508 26.0702 99.4927ZM39.9027 103.165H41.205V115.636C41.205 116.739 40.9938 117.686 40.5714 118.476C40.1569 119.266 39.5664 119.872 38.7998 120.294C38.0411 120.717 37.1456 120.928 36.1131 120.928C35.5891 120.928 35.0494 120.846 34.494 120.681C33.9465 120.525 33.4264 120.282 32.9336 119.954C32.4487 119.633 32.0342 119.234 31.69 118.757L32.4761 117.901C32.9923 118.527 33.5437 118.984 34.1303 119.274C34.717 119.571 35.3505 119.719 36.031 119.719C36.8366 119.719 37.5171 119.559 38.0724 119.238C38.6356 118.918 39.0619 118.456 39.3513 117.854C39.6485 117.252 39.7971 116.528 39.7971 115.683V105.957L39.9027 103.165ZM30.9861 109.641V109.395C30.9861 108.409 31.0956 107.522 31.3146 106.732C31.5414 105.934 31.866 105.253 32.2884 104.69C32.7107 104.119 33.223 103.685 33.8253 103.388C34.4354 103.083 35.1237 102.93 35.8902 102.93C36.6254 102.93 37.2785 103.051 37.8495 103.294C38.4205 103.536 38.9133 103.885 39.3278 104.338C39.7423 104.792 40.0748 105.331 40.3251 105.957C40.5832 106.583 40.7709 107.279 40.8882 108.046V111.178C40.7943 111.898 40.6223 112.559 40.372 113.161C40.1217 113.755 39.7893 114.276 39.3747 114.721C38.9602 115.159 38.4596 115.5 37.873 115.742C37.2942 115.977 36.6254 116.094 35.8667 116.094C35.108 116.094 34.4276 115.938 33.8253 115.625C33.223 115.312 32.7107 114.87 32.2884 114.299C31.866 113.72 31.5414 113.036 31.3146 112.246C31.0956 111.456 30.9861 110.588 30.9861 109.641ZM32.3939 109.395V109.641C32.3939 110.384 32.4682 111.073 32.6169 111.706C32.7655 112.34 32.9923 112.891 33.2973 113.36C33.6024 113.83 33.9896 114.197 34.4588 114.463C34.9281 114.729 35.4796 114.862 36.1131 114.862C36.9187 114.862 37.5953 114.71 38.1428 114.405C38.6903 114.092 39.1244 113.681 39.4451 113.173C39.7658 112.656 40.0005 112.093 40.1491 111.483V107.834C40.063 107.42 39.9301 106.997 39.7502 106.567C39.5781 106.137 39.3356 105.742 39.0228 105.382C38.7177 105.015 38.3266 104.721 37.8495 104.502C37.3802 104.276 36.8092 104.162 36.1366 104.162C35.4952 104.162 34.936 104.295 34.4588 104.561C33.9896 104.827 33.6024 105.199 33.2973 105.676C32.9923 106.145 32.7655 106.696 32.6169 107.33C32.4682 107.963 32.3939 108.652 32.3939 109.395ZM46.4376 103.165V115.859H45.0415V103.165H46.4376ZM44.7951 99.4927C44.7951 99.2267 44.8772 99.0038 45.0415 98.8239C45.2136 98.6362 45.4482 98.5423 45.7454 98.5423C46.0426 98.5423 46.2773 98.6362 46.4494 98.8239C46.6293 99.0038 46.7192 99.2267 46.7192 99.4927C46.7192 99.7508 46.6293 99.9737 46.4494 100.161C46.2773 100.341 46.0426 100.431 45.7454 100.431C45.4482 100.431 45.2136 100.341 45.0415 100.161C44.8772 99.9737 44.7951 99.7508 44.7951 99.4927ZM55.0727 103.165V104.315H48.7137V103.165H55.0727ZM51.0485 99.9033H52.4446V112.774C52.4446 113.36 52.5228 113.802 52.6793 114.1C52.8357 114.397 53.0391 114.596 53.2894 114.698C53.5397 114.8 53.8095 114.85 54.0989 114.85C54.3101 114.85 54.5134 114.839 54.709 114.815C54.9045 114.784 55.0805 114.753 55.2369 114.721L55.2956 115.906C55.1235 115.961 54.9006 116.004 54.6269 116.035C54.3531 116.074 54.0793 116.094 53.8056 116.094C53.2659 116.094 52.7888 115.996 52.3742 115.801C51.9597 115.597 51.6351 115.253 51.4004 114.768C51.1658 114.276 51.0485 113.607 51.0485 112.762V99.9033ZM62.9217 116.094C62.0926 116.094 61.33 115.942 60.6338 115.636C59.9455 115.331 59.3433 114.901 58.8271 114.346C58.3186 113.791 57.9237 113.134 57.6421 112.375C57.3683 111.608 57.2314 110.771 57.2314 109.864V109.36C57.2314 108.382 57.3761 107.498 57.6655 106.708C57.9549 105.918 58.3538 105.242 58.8623 104.678C59.3707 104.115 59.9495 103.685 60.5986 103.388C61.2557 103.083 61.944 102.93 62.6635 102.93C63.4692 102.93 64.1849 103.075 64.8106 103.364C65.4363 103.646 65.9604 104.049 66.3827 104.573C66.8129 105.089 67.1375 105.703 67.3565 106.415C67.5755 107.119 67.685 107.897 67.685 108.75V109.606H58.0762V108.409H66.2889V108.245C66.2732 107.533 66.1285 106.868 65.8548 106.251C65.5888 105.625 65.1899 105.116 64.6581 104.725C64.1262 104.334 63.4614 104.139 62.6635 104.139C62.0691 104.139 61.5216 104.264 61.021 104.514C60.5283 104.764 60.102 105.124 59.7422 105.594C59.3902 106.055 59.1165 106.606 58.9209 107.248C58.7332 107.881 58.6393 108.585 58.6393 109.36V109.864C58.6393 110.568 58.741 111.225 58.9444 111.835C59.1556 112.437 59.4528 112.969 59.836 113.431C60.2271 113.892 60.6886 114.252 61.2205 114.51C61.7523 114.768 62.339 114.897 62.9803 114.897C63.7312 114.897 64.396 114.76 64.9748 114.487C65.5536 114.205 66.0738 113.763 66.5352 113.161L67.4152 113.841C67.1414 114.248 66.7973 114.624 66.3827 114.968C65.976 115.312 65.4871 115.586 64.9162 115.789C64.3452 115.992 63.6804 116.094 62.9217 116.094ZM84.4506 112.926V103.165H85.8585V115.859H84.5093L84.4506 112.926ZM84.7087 110.58L85.4361 110.556C85.4361 111.354 85.3423 112.089 85.1546 112.762C84.9669 113.435 84.6735 114.021 84.2746 114.522C83.8757 115.022 83.3595 115.41 82.726 115.683C82.0924 115.957 81.3298 116.094 80.4381 116.094C79.8202 116.094 79.2532 116.008 78.7369 115.836C78.2285 115.656 77.7905 115.374 77.4229 114.991C77.0553 114.608 76.7698 114.111 76.5664 113.501C76.3709 112.891 76.2731 112.152 76.2731 111.284V103.165H77.6693V111.307C77.6693 111.988 77.7436 112.555 77.8922 113.008C78.0486 113.462 78.2598 113.826 78.5258 114.1C78.7995 114.373 79.1124 114.569 79.4644 114.686C79.8163 114.803 80.1957 114.862 80.6024 114.862C81.6348 114.862 82.4483 114.663 83.0427 114.264C83.645 113.865 84.0713 113.341 84.3216 112.692C84.5797 112.035 84.7087 111.331 84.7087 110.58ZM90.8565 105.793V115.859H89.4486V103.165H90.7979L90.8565 105.793ZM90.5984 108.726L89.9179 108.374C89.9649 107.623 90.1056 106.919 90.3403 106.262C90.5828 105.605 90.9191 105.026 91.3493 104.526C91.7795 104.025 92.2957 103.634 92.898 103.353C93.5002 103.071 94.1846 102.93 94.9511 102.93C95.569 102.93 96.1283 103.016 96.6289 103.188C97.1373 103.353 97.5675 103.615 97.9194 103.974C98.2792 104.326 98.5569 104.788 98.7524 105.359C98.948 105.93 99.0457 106.614 99.0457 107.412V115.859H97.6496V107.459C97.6496 106.614 97.5166 105.953 97.2507 105.476C96.9926 104.999 96.6289 104.659 96.1596 104.455C95.6981 104.252 95.1623 104.15 94.5522 104.15C93.8326 104.15 93.2226 104.299 92.722 104.596C92.2292 104.886 91.8264 105.265 91.5135 105.734C91.2085 106.196 90.9817 106.692 90.8331 107.224C90.6844 107.748 90.6062 108.249 90.5984 108.726ZM99.034 107.623L98.0954 107.647C98.1345 107.029 98.2753 106.438 98.5178 105.875C98.7681 105.312 99.1083 104.811 99.5385 104.373C99.9687 103.928 100.481 103.576 101.075 103.317C101.678 103.059 102.354 102.93 103.105 102.93C103.762 102.93 104.349 103.02 104.865 103.2C105.381 103.372 105.815 103.65 106.167 104.033C106.527 104.409 106.801 104.89 106.989 105.476C107.176 106.063 107.27 106.767 107.27 107.588V115.859H105.862V107.576C105.862 106.677 105.729 105.981 105.463 105.488C105.205 104.987 104.845 104.639 104.384 104.444C103.923 104.248 103.383 104.15 102.765 104.15C102.155 104.158 101.619 104.272 101.158 104.491C100.696 104.702 100.309 104.983 99.9961 105.335C99.691 105.68 99.4564 106.051 99.2921 106.45C99.1357 106.849 99.0496 107.24 99.034 107.623ZM118.557 113.583V107.037C118.557 106.434 118.432 105.914 118.181 105.476C117.931 105.038 117.563 104.702 117.078 104.467C116.593 104.233 115.995 104.115 115.283 104.115C114.626 104.115 114.04 104.233 113.524 104.467C113.015 104.694 112.612 105.003 112.315 105.394C112.026 105.777 111.881 106.204 111.881 106.673L110.473 106.661C110.473 106.184 110.59 105.723 110.825 105.277C111.06 104.831 111.392 104.432 111.822 104.08C112.253 103.728 112.765 103.45 113.359 103.247C113.962 103.036 114.622 102.93 115.342 102.93C116.249 102.93 117.047 103.083 117.735 103.388C118.432 103.693 118.975 104.15 119.366 104.761C119.757 105.371 119.953 106.137 119.953 107.06V113.196C119.953 113.634 119.984 114.088 120.047 114.557C120.117 115.026 120.215 115.414 120.34 115.719V115.859H118.85C118.756 115.578 118.682 115.226 118.627 114.803C118.58 114.373 118.557 113.967 118.557 113.583ZM118.885 108.468L118.909 109.547H116.152C115.432 109.547 114.787 109.614 114.216 109.747C113.653 109.872 113.175 110.06 112.784 110.31C112.393 110.552 112.092 110.846 111.881 111.19C111.678 111.534 111.576 111.925 111.576 112.363C111.576 112.817 111.689 113.231 111.916 113.607C112.151 113.982 112.479 114.283 112.902 114.51C113.332 114.729 113.84 114.839 114.427 114.839C115.209 114.839 115.897 114.694 116.492 114.405C117.094 114.115 117.591 113.736 117.982 113.267C118.373 112.797 118.635 112.285 118.768 111.73L119.378 112.539C119.276 112.93 119.089 113.333 118.815 113.748C118.549 114.154 118.201 114.538 117.771 114.897C117.34 115.249 116.832 115.539 116.245 115.766C115.667 115.985 115.01 116.094 114.274 116.094C113.445 116.094 112.722 115.938 112.104 115.625C111.494 115.312 111.017 114.886 110.673 114.346C110.336 113.798 110.168 113.18 110.168 112.492C110.168 111.866 110.301 111.307 110.567 110.814C110.833 110.314 111.216 109.891 111.717 109.547C112.225 109.195 112.835 108.929 113.547 108.75C114.267 108.562 115.072 108.468 115.964 108.468H118.885ZM131.146 97.8384V115.859H129.749V97.8384H131.146ZM134.208 109.712V109.324C134.208 108.401 134.341 107.549 134.607 106.767C134.873 105.985 135.252 105.308 135.745 104.737C136.245 104.166 136.844 103.724 137.54 103.411C138.236 103.091 139.01 102.93 139.863 102.93C140.723 102.93 141.501 103.091 142.198 103.411C142.894 103.724 143.492 104.166 143.993 104.737C144.493 105.308 144.876 105.985 145.142 106.767C145.408 107.549 145.541 108.401 145.541 109.324V109.712C145.541 110.635 145.408 111.487 145.142 112.269C144.876 113.044 144.493 113.716 143.993 114.287C143.5 114.858 142.905 115.304 142.209 115.625C141.513 115.938 140.739 116.094 139.886 116.094C139.026 116.094 138.248 115.938 137.551 115.625C136.855 115.304 136.257 114.858 135.756 114.287C135.256 113.716 134.873 113.044 134.607 112.269C134.341 111.487 134.208 110.635 134.208 109.712ZM135.604 109.324V109.712C135.604 110.408 135.698 111.069 135.885 111.694C136.073 112.312 136.347 112.864 136.707 113.349C137.067 113.826 137.512 114.201 138.044 114.475C138.576 114.749 139.19 114.886 139.886 114.886C140.575 114.886 141.181 114.749 141.705 114.475C142.237 114.201 142.682 113.826 143.042 113.349C143.402 112.864 143.672 112.312 143.852 111.694C144.04 111.069 144.133 110.408 144.133 109.712V109.324C144.133 108.636 144.04 107.983 143.852 107.365C143.672 106.747 143.398 106.196 143.031 105.711C142.671 105.226 142.225 104.843 141.693 104.561C141.161 104.279 140.551 104.139 139.863 104.139C139.174 104.139 138.564 104.279 138.033 104.561C137.508 104.843 137.063 105.226 136.695 105.711C136.335 106.196 136.061 106.747 135.874 107.365C135.694 107.983 135.604 108.636 135.604 109.324ZM148.556 103.165H149.964V117.373C149.964 118.147 149.835 118.804 149.577 119.344C149.319 119.884 148.944 120.29 148.451 120.564C147.958 120.846 147.352 120.986 146.632 120.986C146.437 120.986 146.226 120.967 145.999 120.928C145.772 120.889 145.565 120.834 145.377 120.764L145.4 119.59C145.541 119.629 145.709 119.665 145.905 119.696C146.093 119.735 146.276 119.755 146.456 119.755C146.91 119.755 147.293 119.665 147.606 119.485C147.919 119.313 148.154 119.051 148.31 118.699C148.474 118.347 148.556 117.905 148.556 117.373V103.165ZM148.31 99.4927C148.31 99.2267 148.396 99.0038 148.568 98.8239C148.74 98.6362 148.975 98.5423 149.272 98.5423C149.569 98.5423 149.804 98.6362 149.976 98.8239C150.156 99.0038 150.246 99.2267 150.246 99.4927C150.246 99.7508 150.156 99.9737 149.976 100.161C149.804 100.341 149.569 100.431 149.272 100.431C148.975 100.431 148.74 100.341 148.568 100.161C148.396 99.9737 148.31 99.7508 148.31 99.4927ZM161.662 113.583V107.037C161.662 106.434 161.536 105.914 161.286 105.476C161.036 105.038 160.668 104.702 160.183 104.467C159.698 104.233 159.1 104.115 158.388 104.115C157.731 104.115 157.145 104.233 156.628 104.467C156.12 104.694 155.717 105.003 155.42 105.394C155.131 105.777 154.986 106.204 154.986 106.673L153.578 106.661C153.578 106.184 153.695 105.723 153.93 105.277C154.165 104.831 154.497 104.432 154.927 104.08C155.357 103.728 155.87 103.45 156.464 103.247C157.066 103.036 157.727 102.93 158.447 102.93C159.354 102.93 160.152 103.083 160.84 103.388C161.536 103.693 162.08 104.15 162.471 104.761C162.862 105.371 163.058 106.137 163.058 107.06V113.196C163.058 113.634 163.089 114.088 163.152 114.557C163.222 115.026 163.32 115.414 163.445 115.719V115.859H161.955C161.861 115.578 161.787 115.226 161.732 114.803C161.685 114.373 161.662 113.967 161.662 113.583ZM161.99 108.468L162.014 109.547H159.256C158.537 109.547 157.892 109.614 157.321 109.747C156.757 109.872 156.28 110.06 155.889 110.31C155.498 110.552 155.197 110.846 154.986 111.19C154.782 111.534 154.681 111.925 154.681 112.363C154.681 112.817 154.794 113.231 155.021 113.607C155.256 113.982 155.584 114.283 156.007 114.51C156.437 114.729 156.945 114.839 157.532 114.839C158.314 114.839 159.002 114.694 159.597 114.405C160.199 114.115 160.696 113.736 161.087 113.267C161.478 112.797 161.74 112.285 161.873 111.73L162.483 112.539C162.381 112.93 162.193 113.333 161.92 113.748C161.654 114.154 161.306 114.538 160.876 114.897C160.445 115.249 159.937 115.539 159.35 115.766C158.771 115.985 158.114 116.094 157.379 116.094C156.55 116.094 155.827 115.938 155.209 115.625C154.599 115.312 154.122 114.886 153.777 114.346C153.441 113.798 153.273 113.18 153.273 112.492C153.273 111.866 153.406 111.307 153.672 110.814C153.938 110.314 154.321 109.891 154.822 109.547C155.33 109.195 155.94 108.929 156.652 108.75C157.371 108.562 158.177 108.468 159.069 108.468H161.99ZM168.173 113.642V115.284C168.173 116.004 168.024 116.696 167.727 117.361C167.43 118.034 167.027 118.601 166.519 119.062L165.698 118.452C165.94 118.124 166.143 117.795 166.308 117.467C166.472 117.146 166.593 116.81 166.671 116.458C166.757 116.106 166.8 115.726 166.8 115.32V113.642H168.173ZM178.709 105.265V115.859H177.313V103.165H178.674L178.709 105.265ZM183.202 103.071L183.167 104.362C183.011 104.338 182.858 104.319 182.71 104.303C182.561 104.287 182.401 104.279 182.228 104.279C181.618 104.279 181.083 104.393 180.621 104.62C180.167 104.839 179.784 105.148 179.471 105.547C179.159 105.938 178.92 106.399 178.756 106.931C178.591 107.455 178.498 108.018 178.474 108.62L177.958 108.82C177.958 107.991 178.044 107.22 178.216 106.509C178.388 105.797 178.65 105.175 179.002 104.643C179.362 104.104 179.812 103.685 180.351 103.388C180.899 103.083 181.54 102.93 182.275 102.93C182.455 102.93 182.631 102.946 182.803 102.977C182.983 103.001 183.116 103.032 183.202 103.071ZM190.077 116.094C189.248 116.094 188.486 115.942 187.79 115.636C187.101 115.331 186.499 114.901 185.983 114.346C185.474 113.791 185.079 113.134 184.798 112.375C184.524 111.608 184.387 110.771 184.387 109.864V109.36C184.387 108.382 184.532 107.498 184.821 106.708C185.111 105.918 185.51 105.242 186.018 104.678C186.526 104.115 187.105 103.685 187.754 103.388C188.411 103.083 189.1 102.93 189.819 102.93C190.625 102.93 191.341 103.075 191.966 103.364C192.592 103.646 193.116 104.049 193.539 104.573C193.969 105.089 194.293 105.703 194.512 106.415C194.731 107.119 194.841 107.897 194.841 108.75V109.606H185.232V108.409H193.445V108.245C193.429 107.533 193.284 106.868 193.011 106.251C192.745 105.625 192.346 105.116 191.814 104.725C191.282 104.334 190.617 104.139 189.819 104.139C189.225 104.139 188.677 104.264 188.177 104.514C187.684 104.764 187.258 105.124 186.898 105.594C186.546 106.055 186.272 106.606 186.077 107.248C185.889 107.881 185.795 108.585 185.795 109.36V109.864C185.795 110.568 185.897 111.225 186.1 111.835C186.311 112.437 186.609 112.969 186.992 113.431C187.383 113.892 187.844 114.252 188.376 114.51C188.908 114.768 189.495 114.897 190.136 114.897C190.887 114.897 191.552 114.76 192.131 114.487C192.709 114.205 193.23 113.763 193.691 113.161L194.571 113.841C194.297 114.248 193.953 114.624 193.539 114.968C193.132 115.312 192.643 115.586 192.072 115.789C191.501 115.992 190.836 116.094 190.077 116.094ZM205.963 103.165H207.265V115.636C207.265 116.739 207.054 117.686 206.632 118.476C206.217 119.266 205.627 119.872 204.86 120.294C204.102 120.717 203.206 120.928 202.174 120.928C201.65 120.928 201.11 120.846 200.555 120.681C200.007 120.525 199.487 120.282 198.994 119.954C198.509 119.633 198.095 119.234 197.75 118.757L198.537 117.901C199.053 118.527 199.604 118.984 200.191 119.274C200.777 119.571 201.411 119.719 202.091 119.719C202.897 119.719 203.578 119.559 204.133 119.238C204.696 118.918 205.122 118.456 205.412 117.854C205.709 117.252 205.858 116.528 205.858 115.683V105.957L205.963 103.165ZM197.047 109.641V109.395C197.047 108.409 197.156 107.522 197.375 106.732C197.602 105.934 197.926 105.253 198.349 104.69C198.771 104.119 199.283 103.685 199.886 103.388C200.496 103.083 201.184 102.93 201.951 102.93C202.686 102.93 203.339 103.051 203.91 103.294C204.481 103.536 204.974 103.885 205.388 104.338C205.803 104.792 206.135 105.331 206.386 105.957C206.644 106.583 206.831 107.279 206.949 108.046V111.178C206.855 111.898 206.683 112.559 206.432 113.161C206.182 113.755 205.85 114.276 205.435 114.721C205.021 115.159 204.52 115.5 203.933 115.742C203.355 115.977 202.686 116.094 201.927 116.094C201.169 116.094 200.488 115.938 199.886 115.625C199.283 115.312 198.771 114.87 198.349 114.299C197.926 113.72 197.602 113.036 197.375 112.246C197.156 111.456 197.047 110.588 197.047 109.641ZM198.454 109.395V109.641C198.454 110.384 198.529 111.073 198.677 111.706C198.826 112.34 199.053 112.891 199.358 113.36C199.663 113.83 200.05 114.197 200.519 114.463C200.989 114.729 201.54 114.862 202.174 114.862C202.979 114.862 203.656 114.71 204.203 114.405C204.751 114.092 205.185 113.681 205.506 113.173C205.826 112.656 206.061 112.093 206.21 111.483V107.834C206.123 107.42 205.991 106.997 205.811 106.567C205.639 106.137 205.396 105.742 205.083 105.382C204.778 105.015 204.387 104.721 203.91 104.502C203.441 104.276 202.87 104.162 202.197 104.162C201.556 104.162 200.996 104.295 200.519 104.561C200.05 104.827 199.663 105.199 199.358 105.676C199.053 106.145 198.826 106.696 198.677 107.33C198.529 107.963 198.454 108.652 198.454 109.395ZM212.498 103.165V115.859H211.102V103.165H212.498ZM210.856 99.4927C210.856 99.2267 210.938 99.0038 211.102 98.8239C211.274 98.6362 211.509 98.5423 211.806 98.5423C212.103 98.5423 212.338 98.6362 212.51 98.8239C212.69 99.0038 212.78 99.2267 212.78 99.4927C212.78 99.7508 212.69 99.9737 212.51 100.161C212.338 100.341 212.103 100.431 211.806 100.431C211.509 100.431 211.274 100.341 211.102 100.161C210.938 99.9737 210.856 99.7508 210.856 99.4927ZM215.56 109.712V109.324C215.56 108.401 215.693 107.549 215.959 106.767C216.225 105.985 216.604 105.308 217.097 104.737C217.598 104.166 218.196 103.724 218.892 103.411C219.588 103.091 220.363 102.93 221.215 102.93C222.076 102.93 222.854 103.091 223.55 103.411C224.246 103.724 224.844 104.166 225.345 104.737C225.846 105.308 226.229 105.985 226.495 106.767C226.761 107.549 226.894 108.401 226.894 109.324V109.712C226.894 110.635 226.761 111.487 226.495 112.269C226.229 113.044 225.846 113.716 225.345 114.287C224.852 114.858 224.258 115.304 223.562 115.625C222.866 115.938 222.091 116.094 221.239 116.094C220.378 116.094 219.6 115.938 218.904 115.625C218.208 115.304 217.61 114.858 217.109 114.287C216.608 113.716 216.225 113.044 215.959 112.269C215.693 111.487 215.56 110.635 215.56 109.712ZM216.956 109.324V109.712C216.956 110.408 217.05 111.069 217.238 111.694C217.426 112.312 217.699 112.864 218.059 113.349C218.419 113.826 218.865 114.201 219.397 114.475C219.929 114.749 220.543 114.886 221.239 114.886C221.927 114.886 222.533 114.749 223.057 114.475C223.589 114.201 224.035 113.826 224.395 113.349C224.755 112.864 225.024 112.312 225.204 111.694C225.392 111.069 225.486 110.408 225.486 109.712V109.324C225.486 108.636 225.392 107.983 225.204 107.365C225.024 106.747 224.751 106.196 224.383 105.711C224.023 105.226 223.577 104.843 223.046 104.561C222.514 104.279 221.904 104.139 221.215 104.139C220.527 104.139 219.917 104.279 219.385 104.561C218.861 104.843 218.415 105.226 218.048 105.711C217.688 106.196 217.414 106.747 217.226 107.365C217.046 107.983 216.956 108.636 216.956 109.324ZM231.2 105.875V115.859H229.803V103.165H231.141L231.2 105.875ZM230.883 108.726L230.261 108.374C230.308 107.623 230.46 106.919 230.719 106.262C230.977 105.605 231.325 105.026 231.763 104.526C232.209 104.025 232.729 103.634 233.323 103.353C233.925 103.071 234.59 102.93 235.318 102.93C235.951 102.93 236.518 103.016 237.019 103.188C237.519 103.36 237.946 103.634 238.298 104.01C238.65 104.385 238.916 104.866 239.095 105.453C239.283 106.039 239.377 106.755 239.377 107.6V115.859H237.969V107.588C237.969 106.712 237.848 106.028 237.605 105.535C237.363 105.034 237.019 104.678 236.573 104.467C236.127 104.256 235.599 104.15 234.989 104.15C234.316 104.15 233.726 104.299 233.218 104.596C232.717 104.886 232.295 105.265 231.95 105.734C231.614 106.196 231.356 106.692 231.176 107.224C230.996 107.748 230.898 108.249 230.883 108.726ZM250.734 113.583V107.037C250.734 106.434 250.609 105.914 250.359 105.476C250.108 105.038 249.741 104.702 249.256 104.467C248.771 104.233 248.172 104.115 247.461 104.115C246.804 104.115 246.217 104.233 245.701 104.467C245.192 104.694 244.79 105.003 244.492 105.394C244.203 105.777 244.058 106.204 244.058 106.673L242.65 106.661C242.65 106.184 242.768 105.723 243.002 105.277C243.237 104.831 243.569 104.432 244 104.08C244.43 103.728 244.942 103.45 245.537 103.247C246.139 103.036 246.8 102.93 247.519 102.93C248.427 102.93 249.224 103.083 249.913 103.388C250.609 103.693 251.152 104.15 251.544 104.761C251.935 105.371 252.13 106.137 252.13 107.06V113.196C252.13 113.634 252.161 114.088 252.224 114.557C252.294 115.026 252.392 115.414 252.517 115.719V115.859H251.027C250.933 115.578 250.859 115.226 250.804 114.803C250.757 114.373 250.734 113.967 250.734 113.583ZM251.063 108.468L251.086 109.547H248.329C247.609 109.547 246.964 109.614 246.393 109.747C245.83 109.872 245.353 110.06 244.962 110.31C244.571 110.552 244.269 110.846 244.058 111.19C243.855 111.534 243.753 111.925 243.753 112.363C243.753 112.817 243.867 113.231 244.093 113.607C244.328 113.982 244.657 114.283 245.079 114.51C245.509 114.729 246.018 114.839 246.604 114.839C247.386 114.839 248.075 114.694 248.669 114.405C249.271 114.115 249.768 113.736 250.159 113.267C250.55 112.797 250.812 112.285 250.945 111.73L251.555 112.539C251.454 112.93 251.266 113.333 250.992 113.748C250.726 114.154 250.378 114.538 249.948 114.897C249.518 115.249 249.009 115.539 248.423 115.766C247.844 115.985 247.187 116.094 246.452 116.094C245.623 116.094 244.899 115.938 244.281 115.625C243.671 115.312 243.194 114.886 242.85 114.346C242.513 113.798 242.345 113.18 242.345 112.492C242.345 111.866 242.478 111.307 242.744 110.814C243.01 110.314 243.393 109.891 243.894 109.547C244.402 109.195 245.012 108.929 245.724 108.75C246.444 108.562 247.249 108.468 248.141 108.468H251.063ZM257.457 97.8384V115.859H256.061V97.8384H257.457ZM9.63308 137.712V137.324C9.63308 136.401 9.76605 135.549 10.032 134.767C10.2979 133.985 10.6773 133.308 11.17 132.737C11.6706 132.166 12.269 131.724 12.9651 131.411C13.6612 131.091 14.4355 130.93 15.2881 130.93C16.1485 130.93 16.9267 131.091 17.6228 131.411C18.319 131.724 18.9173 132.166 19.4179 132.737C19.9185 133.308 20.3017 133.985 20.5677 134.767C20.8336 135.549 20.9666 136.401 20.9666 137.324V137.712C20.9666 138.635 20.8336 139.487 20.5677 140.269C20.3017 141.044 19.9185 141.716 19.4179 142.287C18.9251 142.858 18.3307 143.304 17.6346 143.625C16.9385 143.938 16.1641 144.094 15.3116 144.094C14.4512 144.094 13.6729 143.938 12.9768 143.625C12.2807 143.304 11.6823 142.858 11.1818 142.287C10.6812 141.716 10.2979 141.044 10.032 140.269C9.76605 139.487 9.63308 138.635 9.63308 137.712ZM11.0292 137.324V137.712C11.0292 138.408 11.1231 139.069 11.3108 139.694C11.4985 140.312 11.7723 140.864 12.1321 141.349C12.4919 141.826 12.9377 142.201 13.4696 142.475C14.0014 142.749 14.6154 142.886 15.3116 142.886C15.9999 142.886 16.606 142.749 17.1301 142.475C17.662 142.201 18.1078 141.826 18.4676 141.349C18.8274 140.864 19.0972 140.312 19.2771 139.694C19.4648 139.069 19.5587 138.408 19.5587 137.712V137.324C19.5587 136.636 19.4648 135.983 19.2771 135.365C19.0972 134.747 18.8235 134.196 18.4558 133.711C18.0961 133.226 17.6502 132.843 17.1184 132.561C16.5865 132.279 15.9764 132.139 15.2881 132.139C14.5998 132.139 13.9897 132.279 13.4578 132.561C12.9338 132.843 12.488 133.226 12.1203 133.711C11.7606 134.196 11.4868 134.747 11.2991 135.365C11.1192 135.983 11.0292 136.636 11.0292 137.324ZM32.0068 140.926V131.165H33.4147V143.859H32.0654L32.0068 140.926ZM32.2649 138.58L32.9923 138.556C32.9923 139.354 32.8984 140.089 32.7107 140.762C32.523 141.435 32.2297 142.021 31.8308 142.522C31.4319 143.022 30.9157 143.41 30.2821 143.683C29.6486 143.957 28.886 144.094 27.9943 144.094C27.3764 144.094 26.8093 144.008 26.2931 143.836C25.7847 143.656 25.3467 143.374 24.9791 142.991C24.6114 142.608 24.326 142.111 24.1226 141.501C23.9271 140.891 23.8293 140.152 23.8293 139.284V131.165H25.2254V139.307C25.2254 139.988 25.2997 140.555 25.4484 141.008C25.6048 141.462 25.816 141.826 26.0819 142.1C26.3557 142.373 26.6685 142.569 27.0205 142.686C27.3725 142.803 27.7518 142.862 28.1585 142.862C29.191 142.862 30.0044 142.663 30.5989 142.264C31.2011 141.865 31.6274 141.341 31.8777 140.692C32.1358 140.035 32.2649 139.331 32.2649 138.58ZM47.6343 142.886C48.2288 142.886 48.7841 142.776 49.3003 142.557C49.8244 142.33 50.2546 141.998 50.5909 141.56C50.9351 141.114 51.1306 140.57 51.1775 139.929H52.515C52.4759 140.735 52.2295 141.454 51.7759 142.088C51.33 142.714 50.7434 143.206 50.016 143.566C49.2964 143.918 48.5025 144.094 47.6343 144.094C46.7505 144.094 45.9683 143.934 45.2879 143.613C44.6152 143.292 44.052 142.846 43.5984 142.276C43.1447 141.697 42.8006 141.024 42.5659 140.258C42.3391 139.483 42.2257 138.65 42.2257 137.759V137.266C42.2257 136.374 42.3391 135.545 42.5659 134.778C42.8006 134.004 43.1447 133.331 43.5984 132.761C44.052 132.182 44.6152 131.732 45.2879 131.411C45.9605 131.091 46.7388 130.93 47.6226 130.93C48.5299 130.93 49.3434 131.114 50.0629 131.482C50.7904 131.849 51.3692 132.369 51.7993 133.042C52.2374 133.715 52.4759 134.513 52.515 135.436H51.1775C51.1384 134.755 50.9585 134.168 50.6378 133.676C50.3171 133.183 49.8948 132.804 49.3707 132.538C48.8467 132.272 48.264 132.139 47.6226 132.139C46.903 132.139 46.289 132.279 45.7806 132.561C45.2722 132.835 44.8577 133.214 44.537 133.699C44.2241 134.176 43.9934 134.724 43.8448 135.342C43.6962 135.952 43.6219 136.593 43.6219 137.266V137.759C43.6219 138.439 43.6923 139.088 43.833 139.706C43.9817 140.316 44.2124 140.86 44.5253 141.337C44.8459 141.814 45.2605 142.193 45.7689 142.475C46.2851 142.749 46.9069 142.886 47.6343 142.886ZM56.9029 125.838V143.859H55.5068V125.838H56.9029ZM68.87 140.926V131.165H70.2779V143.859H68.9287L68.87 140.926ZM69.1281 138.58L69.8555 138.556C69.8555 139.354 69.7617 140.089 69.5739 140.762C69.3862 141.435 69.0929 142.021 68.694 142.522C68.2951 143.022 67.7789 143.41 67.1453 143.683C66.5118 143.957 65.7492 144.094 64.8575 144.094C64.2396 144.094 63.6725 144.008 63.1563 143.836C62.6479 143.656 62.2099 143.374 61.8423 142.991C61.4747 142.608 61.1892 142.111 60.9858 141.501C60.7903 140.891 60.6925 140.152 60.6925 139.284V131.165H62.0887V139.307C62.0887 139.988 62.163 140.555 62.3116 141.008C62.468 141.462 62.6792 141.826 62.9451 142.1C63.2189 142.373 63.5317 142.569 63.8837 142.686C64.2357 142.803 64.615 142.862 65.0218 142.862C66.0542 142.862 66.8677 142.663 67.4621 142.264C68.0644 141.865 68.4906 141.341 68.7409 140.692C68.999 140.035 69.1281 139.331 69.1281 138.58ZM81.5527 140.621C81.5527 140.277 81.4667 139.937 81.2946 139.601C81.1225 139.264 80.7901 138.955 80.2974 138.674C79.8124 138.392 79.0967 138.154 78.1503 137.958C77.4464 137.802 76.8167 137.626 76.2614 137.43C75.7139 137.234 75.2524 137 74.877 136.726C74.5015 136.452 74.2161 136.124 74.0205 135.741C73.825 135.357 73.7272 134.904 73.7272 134.38C73.7272 133.91 73.8289 133.468 74.0322 133.054C74.2434 132.631 74.5407 132.264 74.9239 131.951C75.315 131.63 75.7843 131.38 76.3318 131.2C76.8871 131.02 77.509 130.93 78.1973 130.93C79.175 130.93 80.0119 131.098 80.708 131.435C81.4119 131.763 81.9477 132.213 82.3153 132.784C82.6908 133.355 82.8785 134 82.8785 134.72H81.4823C81.4823 134.282 81.3533 133.867 81.0952 133.476C80.8449 133.085 80.4733 132.764 79.9806 132.514C79.4956 132.264 78.9012 132.139 78.1973 132.139C77.4698 132.139 76.8793 132.248 76.4257 132.467C75.972 132.686 75.6396 132.964 75.4284 133.3C75.225 133.637 75.1234 133.985 75.1234 134.344C75.1234 134.626 75.1664 134.884 75.2524 135.119C75.3463 135.346 75.5105 135.557 75.7452 135.752C75.9877 135.948 76.3318 136.132 76.7776 136.304C77.2235 136.476 77.8023 136.644 78.514 136.808C79.5387 137.035 80.3756 137.313 81.0248 137.641C81.6818 137.962 82.1667 138.361 82.4796 138.838C82.7924 139.307 82.9489 139.878 82.9489 140.551C82.9489 141.075 82.8394 141.556 82.6204 141.994C82.4014 142.424 82.0846 142.796 81.67 143.109C81.2633 143.421 80.7706 143.664 80.1918 143.836C79.6208 144.008 78.9794 144.094 78.2676 144.094C77.1961 144.094 76.2888 143.918 75.5457 143.566C74.8105 143.206 74.2513 142.737 73.868 142.158C73.4926 141.572 73.3048 140.95 73.3048 140.293H74.701C74.7479 140.95 74.9552 141.47 75.3228 141.853C75.6904 142.229 76.1402 142.495 76.672 142.651C77.2117 142.807 77.7436 142.886 78.2676 142.886C78.9872 142.886 79.5895 142.78 80.0744 142.569C80.5594 142.358 80.927 142.08 81.1773 141.736C81.4276 141.392 81.5527 141.02 81.5527 140.621ZM90.9269 131.165V132.315H84.5679V131.165H90.9269ZM86.9027 127.903H88.2989V140.774C88.2989 141.36 88.3771 141.802 88.5335 142.1C88.6899 142.397 88.8933 142.596 89.1436 142.698C89.3939 142.8 89.6637 142.85 89.9531 142.85C90.1643 142.85 90.3677 142.839 90.5632 142.815C90.7587 142.784 90.9347 142.753 91.0912 142.721L91.1498 143.906C90.9778 143.961 90.7548 144.004 90.4811 144.035C90.2073 144.074 89.9336 144.094 89.6598 144.094C89.1201 144.094 88.643 143.996 88.2285 143.801C87.8139 143.597 87.4893 143.253 87.2547 142.768C87.02 142.276 86.9027 141.607 86.9027 140.762V127.903ZM98.7759 144.094C97.9468 144.094 97.1842 143.942 96.4881 143.636C95.7998 143.331 95.1975 142.901 94.6813 142.346C94.1729 141.791 93.7779 141.134 93.4963 140.375C93.2225 139.608 93.0857 138.771 93.0857 137.864V137.36C93.0857 136.382 93.2304 135.498 93.5198 134.708C93.8092 133.918 94.2081 133.242 94.7165 132.678C95.2249 132.115 95.8037 131.685 96.4529 131.388C97.1099 131.083 97.7982 130.93 98.5178 130.93C99.3234 130.93 100.039 131.075 100.665 131.364C101.291 131.646 101.815 132.049 102.237 132.573C102.667 133.089 102.992 133.703 103.211 134.415C103.43 135.119 103.539 135.897 103.539 136.75V137.606H93.9304V136.409H102.143V136.245C102.127 135.533 101.983 134.868 101.709 134.251C101.443 133.625 101.044 133.116 100.512 132.725C99.9804 132.334 99.3156 132.139 98.5178 132.139C97.9233 132.139 97.3758 132.264 96.8752 132.514C96.3825 132.764 95.9562 133.124 95.5964 133.594C95.2444 134.055 94.9707 134.606 94.7751 135.248C94.5874 135.881 94.4936 136.585 94.4936 137.36V137.864C94.4936 138.568 94.5952 139.225 94.7986 139.835C95.0098 140.437 95.307 140.969 95.6903 141.431C96.0813 141.892 96.5428 142.252 97.0747 142.51C97.6066 142.768 98.1932 142.897 98.8345 142.897C99.5854 142.897 100.25 142.76 100.829 142.487C101.408 142.205 101.928 141.763 102.389 141.161L103.269 141.841C102.996 142.248 102.651 142.624 102.237 142.968C101.83 143.312 101.341 143.586 100.77 143.789C100.199 143.992 99.5346 144.094 98.7759 144.094ZM107.704 133.265V143.859H106.308V131.165H107.669L107.704 133.265ZM112.198 131.071L112.163 132.362C112.006 132.338 111.854 132.319 111.705 132.303C111.556 132.287 111.396 132.279 111.224 132.279C110.614 132.279 110.078 132.393 109.617 132.62C109.163 132.839 108.78 133.148 108.467 133.547C108.154 133.938 107.915 134.399 107.751 134.931C107.587 135.455 107.493 136.018 107.47 136.62L106.953 136.82C106.953 135.991 107.039 135.22 107.211 134.509C107.384 133.797 107.646 133.175 107.998 132.643C108.357 132.104 108.807 131.685 109.347 131.388C109.894 131.083 110.536 130.93 111.271 130.93C111.451 130.93 111.627 130.946 111.799 130.977C111.979 131.001 112.112 131.032 112.198 131.071Z" fill="#959595"/>
</svg>
