<svg width="333" height="95" viewBox="0 0 333 95" fill="none" xmlns="http://www.w3.org/2000/svg">
<rect x="0.811544" y="38.2256" width="331.11" height="55.185" rx="8.92699" fill="#FDFBF9" stroke="#959595" stroke-width="1.62309"/>
<path d="M15.6605 74.8516H11.8057L11.8311 72.8607H15.6605C16.9793 72.8607 18.0783 72.586 18.9574 72.0365C19.8366 71.4786 20.496 70.7009 20.9356 69.7033C21.3836 68.6974 21.6076 67.5223 21.6076 66.1782V65.0496C21.6076 63.9929 21.4808 63.0546 21.2272 62.2346C20.9736 61.4061 20.6017 60.7087 20.1114 60.1423C19.621 59.5675 19.0208 59.1321 18.3107 58.8362C17.6091 58.5404 16.8018 58.3924 15.8888 58.3924H11.7296V56.3889H15.8888C17.0976 56.3889 18.2008 56.5918 19.1984 56.9976C20.1959 57.3949 21.0539 57.974 21.7725 58.7348C22.4995 59.4872 23.0574 60.4002 23.4463 61.4738C23.8352 62.5389 24.0296 63.7393 24.0296 65.075V66.1782C24.0296 67.5138 23.8352 68.7185 23.4463 69.7921C23.0574 70.8572 22.4953 71.766 21.7598 72.5184C21.0328 73.2707 20.1536 73.8498 19.1223 74.2556C18.0994 74.6529 16.9455 74.8516 15.6605 74.8516ZM13.1118 56.3889V74.8516H10.6645V56.3889H13.1118ZM29.9006 61.1314V74.8516H27.5421V61.1314H29.9006ZM27.3645 57.4921C27.3645 57.1117 27.4787 56.7905 27.7069 56.5284C27.9436 56.2663 28.2902 56.1353 28.7467 56.1353C29.1947 56.1353 29.5371 56.2663 29.7738 56.5284C30.019 56.7905 30.1415 57.1117 30.1415 57.4921C30.1415 57.8556 30.019 58.1684 29.7738 58.4305C29.5371 58.6841 29.1947 58.8109 28.7467 58.8109C28.2902 58.8109 27.9436 58.6841 27.7069 58.4305C27.4787 58.1684 27.3645 57.8556 27.3645 57.4921ZM42.5556 61.1314H44.6859V74.5599C44.6859 75.7688 44.4408 76.8001 43.9505 77.6539C43.4602 78.5077 42.7754 79.1544 41.8963 79.594C41.0255 80.0421 40.0196 80.2661 38.8783 80.2661C38.4049 80.2661 37.847 80.19 37.2045 80.0378C36.5705 79.8941 35.9449 79.6447 35.3278 79.2897C34.7192 78.9431 34.2077 78.4739 33.7935 77.8822L35.0235 76.4873C35.5983 77.1805 36.1985 77.6624 36.8241 77.9329C37.4581 78.2034 38.0837 78.3387 38.7008 78.3387C39.4447 78.3387 40.0872 78.1992 40.6282 77.9202C41.1692 77.6412 41.5877 77.227 41.8836 76.6775C42.1879 76.1365 42.3401 75.4687 42.3401 74.674V64.1493L42.5556 61.1314ZM33.1087 68.1436V67.8774C33.1087 66.8291 33.2313 65.8781 33.4765 65.0243C33.7301 64.162 34.0894 63.4223 34.5543 62.8052C35.0277 62.1881 35.5983 61.7147 36.2662 61.385C36.934 61.0469 37.6864 60.8778 38.5233 60.8778C39.3855 60.8778 40.1379 61.0299 40.7804 61.3343C41.4313 61.6302 41.9808 62.0655 42.4288 62.6404C42.8853 63.2067 43.2446 63.8915 43.5067 64.6946C43.7687 65.4977 43.9505 66.4064 44.0519 67.4209V68.5875C43.9589 69.5934 43.7772 70.498 43.5067 71.3011C43.2446 72.1041 42.8853 72.7889 42.4288 73.3553C41.9808 73.9217 41.4313 74.357 40.7804 74.6614C40.1295 74.9572 39.3686 75.1052 38.4979 75.1052C37.6779 75.1052 36.934 74.9319 36.2662 74.5853C35.6068 74.2387 35.0404 73.7526 34.567 73.127C34.0936 72.5015 33.7301 71.766 33.4765 70.9206C33.2313 70.0668 33.1087 69.1412 33.1087 68.1436ZM35.4546 67.8774V68.1436C35.4546 68.8284 35.5222 69.4709 35.6575 70.0711C35.8012 70.6713 36.0168 71.1996 36.3042 71.6561C36.6001 72.1126 36.9763 72.4719 37.4328 72.7339C37.8893 72.9875 38.4345 73.1144 39.0685 73.1144C39.8463 73.1144 40.4887 72.9495 40.9959 72.6198C41.5032 72.2901 41.9047 71.8548 42.2006 71.3137C42.5049 70.7727 42.7416 70.1852 42.9107 69.5512V66.4952C42.8177 66.0302 42.674 65.5822 42.4795 65.1511C42.2936 64.7115 42.0484 64.3226 41.7441 63.9845C41.4482 63.6379 41.0805 63.3631 40.6409 63.1602C40.2013 62.9574 39.6856 62.8559 39.0939 62.8559C38.4514 62.8559 37.8977 62.9912 37.4328 63.2617C36.9763 63.5238 36.6001 63.8873 36.3042 64.3522C36.0168 64.8087 35.8012 65.3413 35.6575 65.9499C35.5222 66.5501 35.4546 67.1926 35.4546 67.8774ZM50.7979 61.1314V74.8516H48.4393V61.1314H50.7979ZM48.2618 57.4921C48.2618 57.1117 48.3759 56.7905 48.6042 56.5284C48.8409 56.2663 49.1875 56.1353 49.644 56.1353C50.092 56.1353 50.4344 56.2663 50.6711 56.5284C50.9162 56.7905 51.0388 57.1117 51.0388 57.4921C51.0388 57.8556 50.9162 58.1684 50.6711 58.4305C50.4344 58.6841 50.092 58.8109 49.644 58.8109C49.1875 58.8109 48.8409 58.6841 48.6042 58.4305C48.3759 58.1684 48.2618 57.8556 48.2618 57.4921ZM60.3082 61.1314V62.932H52.8901V61.1314H60.3082ZM55.4009 57.7964H57.7467V71.4532C57.7467 71.9182 57.8186 72.269 57.9623 72.5057C58.106 72.7424 58.292 72.8988 58.5202 72.9749C58.7485 73.0509 58.9936 73.089 59.2557 73.089C59.4501 73.089 59.653 73.0721 59.8644 73.0383C60.0841 72.996 60.249 72.9622 60.3589 72.9368L60.3716 74.8516C60.1856 74.9107 59.9404 74.9657 59.6361 75.0164C59.3402 75.0756 58.981 75.1052 58.5583 75.1052C57.9834 75.1052 57.4551 74.991 56.9732 74.7628C56.4914 74.5346 56.1067 74.1541 55.8193 73.6216C55.5403 73.0805 55.4009 72.3535 55.4009 71.4405V57.7964ZM68.7533 75.1052C67.798 75.1052 66.9316 74.9446 66.1538 74.6233C65.3845 74.2936 64.7209 73.8329 64.163 73.2412C63.6135 72.6494 63.1908 71.9478 62.895 71.1362C62.5991 70.3247 62.4511 69.437 62.4511 68.4733V67.9408C62.4511 66.8249 62.616 65.8316 62.9457 64.9609C63.2754 64.0817 63.7234 63.3378 64.2898 62.7291C64.8562 62.1205 65.4987 61.6597 66.2172 61.347C66.9358 61.0342 67.6797 60.8778 68.449 60.8778C69.4296 60.8778 70.2749 61.0469 70.985 61.385C71.7036 61.7231 72.2911 62.1965 72.7476 62.8052C73.2041 63.4054 73.5423 64.1155 73.7621 64.9355C73.9818 65.747 74.0917 66.6347 74.0917 67.5984V68.6509H63.846V66.7361H71.7459V66.5586C71.7121 65.9499 71.5853 65.3582 71.3655 64.7833C71.1541 64.2085 70.816 63.7351 70.351 63.3631C69.8861 62.9912 69.2521 62.8052 68.449 62.8052C67.9164 62.8052 67.4261 62.9193 66.978 63.1476C66.53 63.3674 66.1454 63.6971 65.8241 64.1366C65.5029 64.5762 65.2535 65.113 65.076 65.747C64.8985 66.3811 64.8097 67.1123 64.8097 67.9408V68.4733C64.8097 69.1243 64.8985 69.7371 65.076 70.312C65.262 70.8784 65.5283 71.3771 65.8749 71.8083C66.2299 72.2394 66.6568 72.5775 67.1556 72.8227C67.6628 73.0679 68.2376 73.1904 68.8801 73.1904C69.7086 73.1904 70.4102 73.0214 70.985 72.6832C71.5599 72.3451 72.0629 71.8928 72.494 71.3264L73.9142 72.455C73.6183 72.903 73.2422 73.3299 72.7857 73.7357C72.3292 74.1415 71.767 74.4712 71.0992 74.7248C70.4398 74.9784 69.6578 75.1052 68.7533 75.1052Z" fill="#959595"/>
<path d="M14.0372 21.1265V24.0938H4.20989V21.1265H14.0372ZM5.45256 5.63111V24.0938H1.64845V5.63111H5.45256ZM12.7565 13.1506V16.0417H4.20989V13.1506H12.7565ZM14.0245 5.63111V8.611H4.20989V5.63111H14.0245ZM19.68 13.214V24.0938H16.0153V10.3736H19.4517L19.68 13.214ZM19.1727 16.7518H18.1583C18.1583 15.7966 18.2724 14.9174 18.5007 14.1143C18.7374 13.3027 19.0797 12.6011 19.5278 12.0093C19.9843 11.4091 20.5464 10.9442 21.2143 10.6145C21.8821 10.2848 22.6556 10.12 23.5348 10.12C24.1434 10.12 24.7014 10.213 25.2086 10.3989C25.7158 10.5765 26.1512 10.8597 26.5147 11.2485C26.8866 11.6289 27.1741 12.1277 27.3769 12.7448C27.5798 13.3535 27.6813 14.0847 27.6813 14.9385V24.0938H24.0293V15.3443C24.0293 14.7187 23.9448 14.2369 23.7757 13.8987C23.6066 13.5606 23.3657 13.3239 23.0529 13.1886C22.7486 13.0534 22.3809 12.9857 21.9497 12.9857C21.4763 12.9857 21.0621 13.083 20.7071 13.2774C20.3605 13.4718 20.073 13.7423 19.8448 14.0889C19.6166 14.4271 19.4475 14.8244 19.3376 15.2809C19.2277 15.7374 19.1727 16.2277 19.1727 16.7518ZM27.3389 16.3334L26.0328 16.4982C26.0328 15.6021 26.1427 14.7694 26.3625 14.0002C26.5908 13.2309 26.9247 12.5546 27.3643 11.9713C27.8123 11.388 28.366 10.9357 29.0254 10.6145C29.6848 10.2848 30.4456 10.12 31.3079 10.12C31.9672 10.12 32.5674 10.2172 33.1085 10.4116C33.6495 10.5976 34.1102 10.8977 34.4906 11.3119C34.8795 11.7177 35.1754 12.2503 35.3783 12.9097C35.5896 13.569 35.6953 14.3764 35.6953 15.3316V24.0938H32.0306V15.3316C32.0306 14.6976 31.9461 14.2157 31.777 13.886C31.6164 13.5479 31.3797 13.3154 31.0669 13.1886C30.7626 13.0534 30.3991 12.9857 29.9764 12.9857C29.5368 12.9857 29.1522 13.0745 28.8225 13.252C28.4928 13.4211 28.2181 13.6578 27.9983 13.9621C27.7785 14.2665 27.6136 14.6215 27.5037 15.0273C27.3939 15.4246 27.3389 15.86 27.3389 16.3334ZM45.9283 20.9997V14.8878C45.9283 14.4482 45.8565 14.072 45.7128 13.7592C45.5691 13.438 45.345 13.1886 45.0407 13.0111C44.7448 12.8336 44.3602 12.7448 43.8868 12.7448C43.481 12.7448 43.1302 12.8167 42.8343 12.9604C42.5385 13.0956 42.3102 13.2943 42.1496 13.5564C41.989 13.81 41.9087 14.1101 41.9087 14.4567H38.2567C38.2567 13.8734 38.392 13.3197 38.6625 12.7955C38.933 12.2714 39.3261 11.8107 39.8418 11.4134C40.3574 11.0076 40.9703 10.6906 41.6804 10.4623C42.399 10.2341 43.2021 10.12 44.0897 10.12C45.1548 10.12 46.1016 10.2975 46.9301 10.6525C47.7585 11.0076 48.4095 11.5402 48.8829 12.2503C49.3647 12.9604 49.6057 13.848 49.6057 14.9132V20.7842C49.6057 21.5365 49.6522 22.1537 49.7451 22.6355C49.8381 23.1089 49.9734 23.5231 50.1509 23.8782V24.0938H46.4609C46.2834 23.7218 46.1481 23.2568 46.0551 22.6989C45.9706 22.1325 45.9283 21.5661 45.9283 20.9997ZM46.4102 15.7374L46.4356 17.8043H44.394C43.9122 17.8043 43.4937 17.8592 43.1387 17.9691C42.7836 18.079 42.492 18.2354 42.2637 18.4383C42.0355 18.6327 41.8664 18.861 41.7565 19.123C41.6551 19.3851 41.6043 19.6725 41.6043 19.9853C41.6043 20.2981 41.6762 20.5813 41.8199 20.8349C41.9636 21.08 42.1707 21.2745 42.4412 21.4182C42.7118 21.5534 43.0288 21.6211 43.3923 21.6211C43.9418 21.6211 44.4194 21.5112 44.8252 21.2914C45.2309 21.0716 45.5437 20.8011 45.7635 20.4798C45.9917 20.1586 46.1101 19.8543 46.1186 19.5669L47.0823 21.1139C46.947 21.4605 46.761 21.8197 46.5243 22.1917C46.2961 22.5637 46.0044 22.9145 45.6494 23.2442C45.2943 23.5654 44.8674 23.8317 44.3687 24.043C43.8699 24.2459 43.2781 24.3474 42.5934 24.3474C41.7227 24.3474 40.9323 24.1741 40.2222 23.8275C39.5205 23.4724 38.9626 22.9863 38.5484 22.3692C38.1426 21.7437 37.9397 21.0336 37.9397 20.2389C37.9397 19.5204 38.075 18.8821 38.3455 18.3242C38.616 17.7662 39.0133 17.2971 39.5374 16.9167C40.07 16.5278 40.7336 16.2361 41.5283 16.0417C42.3229 15.8388 43.2443 15.7374 44.2926 15.7374H46.4102ZM56.2755 10.3736V24.0938H52.6109V10.3736H56.2755ZM52.3827 6.79771C52.3827 6.26513 52.5686 5.82555 52.9406 5.47895C53.3126 5.13235 53.8113 4.95905 54.4369 4.95905C55.054 4.95905 55.5485 5.13235 55.9205 5.47895C56.3009 5.82555 56.4911 6.26513 56.4911 6.79771C56.4911 7.33028 56.3009 7.76987 55.9205 8.11647C55.5485 8.46307 55.054 8.63636 54.4369 8.63636C53.8113 8.63636 53.3126 8.46307 52.9406 8.11647C52.5686 7.76987 52.3827 7.33028 52.3827 6.79771ZM63.1483 4.61668V24.0938H59.4837V4.61668H63.1483Z" fill="#2C2C2C"/>
<path d="M75.6969 9.85929L77.3859 7.78224L74.9437 7.0975L75.4154 5.7128L77.8196 6.68666L77.6522 4.01617H79.1967L79.0217 6.73231L81.3727 5.78128L81.8368 7.1888L79.3565 7.87354L80.9922 9.89733L79.7445 10.7647L78.3446 8.53546L76.9447 10.6962L75.6969 9.85929Z" fill="#2C2C2C"/>
</svg>
