<svg width="334" height="94" viewBox="0 0 334 94" fill="none" xmlns="http://www.w3.org/2000/svg">
<path d="M12.8175 18.2738H16.6089C16.5328 19.5165 16.1905 20.6197 15.5818 21.5834C14.9816 22.5471 14.1405 23.2995 13.0584 23.8405C11.9848 24.3815 10.6914 24.652 9.17822 24.652C7.99472 24.652 6.93379 24.4492 5.99544 24.0434C5.0571 23.6292 4.254 23.0374 3.58617 22.2681C2.92679 21.4989 2.4238 20.569 2.07721 19.4784C1.73061 18.3879 1.55731 17.1664 1.55731 15.8138V14.5331C1.55731 13.1805 1.73484 11.959 2.08989 10.8685C2.45339 9.7695 2.96906 8.83538 3.63689 8.0661C4.31318 7.29683 5.1205 6.70508 6.05885 6.29085C6.99719 5.87663 8.04544 5.66951 9.20358 5.66951C10.7421 5.66951 12.0398 5.94848 13.0965 6.50642C14.1616 7.06435 14.9858 7.83363 15.5691 8.81425C16.1609 9.79486 16.5159 10.9107 16.6343 12.1619H12.8302C12.7879 11.418 12.64 10.7882 12.3864 10.2725C12.1327 9.74837 11.7481 9.35528 11.2324 9.09322C10.7252 8.8227 10.0489 8.68744 9.20358 8.68744C8.56956 8.68744 8.01585 8.80579 7.54245 9.04249C7.06905 9.27919 6.67173 9.63847 6.35049 10.1203C6.02926 10.6022 5.78833 11.2108 5.62771 11.9463C5.47555 12.6733 5.39947 13.5271 5.39947 14.5077V15.8138C5.39947 16.7691 5.47132 17.6102 5.61503 18.3372C5.75874 19.0558 5.97854 19.6644 6.27441 20.1632C6.57874 20.6535 6.96761 21.0255 7.44101 21.2791C7.92286 21.5242 8.50193 21.6468 9.17822 21.6468C9.97286 21.6468 10.628 21.52 11.1437 21.2664C11.6593 21.0128 12.0524 20.6366 12.323 20.1378C12.6019 19.6391 12.7668 19.0177 12.8175 18.2738ZM26.2967 17.8173H21.5923V14.8501H26.2967C27.0237 14.8501 27.6155 14.7318 28.072 14.4951C28.5285 14.2499 28.8624 13.9118 29.0737 13.4806C29.2851 13.0495 29.3907 12.5634 29.3907 12.0224C29.3907 11.4729 29.2851 10.9615 29.0737 10.4881C28.8624 10.0147 28.5285 9.63425 28.072 9.34682C27.6155 9.0594 27.0237 8.91569 26.2967 8.91569H22.9111V24.3984H19.107V5.9358H26.2967C27.7423 5.9358 28.9808 6.19786 30.0121 6.72198C31.0519 7.23765 31.8465 7.95198 32.396 8.86497C32.9455 9.77796 33.2202 10.822 33.2202 11.997C33.2202 13.189 32.9455 14.2203 32.396 15.091C31.8465 15.9618 31.0519 16.6338 30.0121 17.1072C28.9808 17.5806 27.7423 17.8173 26.2967 17.8173ZM39.6492 5.9358V24.3984H35.8451V5.9358H39.6492ZM47.0038 13.823V16.7902H38.6094V13.823H47.0038ZM47.8914 5.9358V8.91569H38.6094V5.9358H47.8914Z" fill="#2C2C2C"/>
<path d="M59.1637 10.164L60.8527 8.08693L58.4105 7.40219L58.8822 6.01749L61.2864 6.99134L61.119 4.32085H62.6635L62.4885 7.03699L64.8395 6.08596L65.3036 7.49349L62.8233 8.17823L64.459 10.202L63.2113 11.0694L61.8114 8.84014L60.4115 11.0009L59.1637 10.164Z" fill="#2C2C2C"/>
<rect x="1.27834" y="39.3272" width="331.11" height="53.5619" rx="8.92699" fill="#CACACA"/>
<path d="M27.0834 75.1094H23.2286L23.2539 73.1186H27.0834C28.4022 73.1186 29.5011 72.8438 30.3803 72.2943C31.2595 71.7364 31.9188 70.9587 32.3584 69.9611C32.8065 68.9552 33.0305 67.7801 33.0305 66.436V65.3074C33.0305 64.2507 32.9037 63.3124 32.6501 62.4924C32.3965 61.6639 32.0245 60.9665 31.5342 60.4001C31.0439 59.8253 30.4437 59.3899 29.7336 59.0941C29.0319 58.7982 28.2246 58.6502 27.3116 58.6502H23.1525V56.6467H27.3116C28.5205 56.6467 29.6237 56.8496 30.6212 57.2554C31.6187 57.6527 32.4768 58.2318 33.1953 58.9926C33.9223 59.745 34.4803 60.658 34.8691 61.7316C35.258 62.7967 35.4524 63.9971 35.4524 65.3328V66.436C35.4524 67.7717 35.258 68.9763 34.8691 70.0499C34.4803 71.1151 33.9181 72.0238 33.1827 72.7762C32.4556 73.5286 31.5765 74.1076 30.5451 74.5134C29.5223 74.9107 28.3683 75.1094 27.0834 75.1094ZM24.5346 56.6467V75.1094H22.0873V56.6467H24.5346ZM44.4682 75.363C43.5129 75.363 42.6464 75.2024 41.8687 74.8811C41.0994 74.5514 40.4358 74.0907 39.8779 73.499C39.3284 72.9072 38.9057 72.2056 38.6099 71.394C38.314 70.5825 38.166 69.6949 38.166 68.7311V68.1986C38.166 67.0827 38.3309 66.0894 38.6606 65.2187C38.9903 64.3395 39.4383 63.5956 40.0047 62.9869C40.5711 62.3783 41.2136 61.9176 41.9321 61.6048C42.6507 61.292 43.3946 61.1356 44.1639 61.1356C45.1445 61.1356 45.9898 61.3047 46.6999 61.6428C47.4185 61.981 48.006 62.4544 48.4625 63.063C48.919 63.6632 49.2572 64.3733 49.4769 65.1933C49.6967 66.0049 49.8066 66.8925 49.8066 67.8562V68.9087H39.5609V66.9939H47.4608V66.8164C47.427 66.2077 47.3001 65.616 47.0804 65.0412C46.869 64.4663 46.5309 63.9929 46.0659 63.6209C45.601 63.249 44.967 63.063 44.1639 63.063C43.6313 63.063 43.141 63.1771 42.6929 63.4054C42.2449 63.6252 41.8603 63.9549 41.539 64.3945C41.2178 64.834 40.9684 65.3708 40.7909 66.0049C40.6134 66.6389 40.5246 67.3701 40.5246 68.1986V68.7311C40.5246 69.3821 40.6134 69.995 40.7909 70.5698C40.9769 71.1362 41.2432 71.635 41.5897 72.0661C41.9448 72.4972 42.3717 72.8354 42.8705 73.0805C43.3777 73.3257 43.9525 73.4482 44.595 73.4482C45.4235 73.4482 46.1251 73.2792 46.6999 72.941C47.2748 72.6029 47.7778 72.1506 48.2089 71.5842L49.6291 72.7128C49.3332 73.1608 48.9571 73.5877 48.5006 73.9935C48.0441 74.3993 47.4819 74.729 46.8141 74.9826C46.1547 75.2362 45.3727 75.363 44.4682 75.363ZM60.5342 71.4701C60.5342 71.132 60.4582 70.8192 60.306 70.5318C60.1623 70.2359 59.8622 69.9696 59.4057 69.7329C58.9576 69.4877 58.2814 69.2764 57.3768 69.0989C56.616 68.9383 55.927 68.748 55.3099 68.5283C54.7013 68.3085 54.1814 68.0422 53.7502 67.7294C53.3276 67.4166 53.0021 67.0489 52.7738 66.6262C52.5456 66.2035 52.4315 65.709 52.4315 65.1426C52.4315 64.6016 52.5498 64.0901 52.7865 63.6083C53.0317 63.1264 53.3741 62.6995 53.8136 62.3275C54.2617 61.9556 54.7985 61.6639 55.424 61.4526C56.0496 61.2413 56.747 61.1356 57.5163 61.1356C58.6153 61.1356 59.5536 61.33 60.3314 61.7189C61.1091 62.1078 61.7051 62.6277 62.1193 63.2786C62.5335 63.9211 62.7406 64.6354 62.7406 65.4216H60.3948C60.3948 65.0412 60.2806 64.6734 60.0524 64.3184C59.8326 63.9549 59.5071 63.6548 59.076 63.4181C58.6533 63.1814 58.1334 63.063 57.5163 63.063C56.8654 63.063 56.337 63.1645 55.9313 63.3673C55.5339 63.5618 55.2423 63.8112 55.0563 64.1155C54.8788 64.4198 54.79 64.741 54.79 65.0792C54.79 65.3328 54.8323 65.561 54.9168 65.7639C55.0098 65.9584 55.1704 66.1401 55.3987 66.3092C55.6269 66.4698 55.9482 66.622 56.3624 66.7657C56.7766 66.9094 57.305 67.0531 57.9474 67.1968C59.0718 67.4504 59.9974 67.7548 60.7244 68.1098C61.4515 68.4649 61.9925 68.9002 62.3475 69.4159C62.7026 69.9316 62.8801 70.5571 62.8801 71.2926C62.8801 71.8928 62.7533 72.4423 62.4997 72.941C62.2545 73.4398 61.8953 73.8709 61.4219 74.2344C60.9569 74.5895 60.399 74.8684 59.7481 75.0713C59.1056 75.2658 58.3828 75.363 57.5797 75.363C56.3708 75.363 55.348 75.1474 54.5111 74.7163C53.6742 74.2852 53.0401 73.7272 52.609 73.0425C52.1779 72.3577 51.9623 71.635 51.9623 70.8741H54.3209C54.3547 71.5166 54.5406 72.028 54.8788 72.4085C55.2169 72.7804 55.6312 73.0467 56.1215 73.2073C56.6118 73.3595 57.0979 73.4356 57.5797 73.4356C58.2222 73.4356 58.759 73.351 59.1901 73.182C59.6297 73.0129 59.9636 72.7804 60.1919 72.4845C60.4201 72.1887 60.5342 71.8505 60.5342 71.4701ZM74.0515 72.7635V65.7005C74.0515 65.1595 73.9416 64.6903 73.7218 64.293C73.5105 63.8872 73.1893 63.5745 72.7581 63.3547C72.327 63.1349 71.7944 63.025 71.1604 63.025C70.5687 63.025 70.0488 63.1264 69.6007 63.3293C69.1611 63.5322 68.8145 63.7985 68.5609 64.1282C68.3158 64.4579 68.1932 64.8129 68.1932 65.1933H65.8473C65.8473 64.703 65.9741 64.2169 66.2277 63.7351C66.4813 63.2532 66.8448 62.8179 67.3182 62.429C67.8001 62.0317 68.3749 61.7189 69.0428 61.4906C69.7191 61.2539 70.4714 61.1356 71.2999 61.1356C72.2974 61.1356 73.1766 61.3047 73.9374 61.6428C74.7067 61.981 75.3069 62.4924 75.738 63.1771C76.1776 63.8534 76.3974 64.703 76.3974 65.7259V72.1168C76.3974 72.5733 76.4354 73.0594 76.5115 73.575C76.5961 74.0907 76.7186 74.5345 76.8793 74.9065V75.1094H74.4319C74.3136 74.8389 74.2206 74.4796 74.153 74.0315C74.0853 73.575 74.0515 73.1524 74.0515 72.7635ZM74.4573 66.791L74.4827 68.4395H72.1114C71.4436 68.4395 70.8476 68.4944 70.3235 68.6043C69.7994 68.7058 69.3598 68.8622 69.0047 69.0735C68.6497 69.2849 68.3792 69.5511 68.1932 69.8724C68.0072 70.1852 67.9142 70.5529 67.9142 70.9756C67.9142 71.4067 68.0114 71.7998 68.2059 72.1548C68.4003 72.5099 68.692 72.7931 69.0808 73.0044C69.4781 73.2073 69.9642 73.3088 70.5391 73.3088C71.2576 73.3088 71.8916 73.1566 72.4411 72.8523C72.9906 72.5479 73.426 72.176 73.7472 71.7364C74.0769 71.2968 74.2544 70.8699 74.2798 70.4557L75.2815 71.5842C75.2224 71.9393 75.0617 72.3324 74.7997 72.7635C74.5376 73.1946 74.1868 73.6089 73.7472 74.0062C73.3161 74.395 72.8004 74.7205 72.2002 74.9826C71.6084 75.2362 70.9406 75.363 70.1967 75.363C69.2668 75.363 68.451 75.1812 67.7494 74.8177C67.0562 74.4542 66.5152 73.9681 66.1263 73.3595C65.7459 72.7424 65.5557 72.0534 65.5557 71.2926C65.5557 70.5571 65.6994 69.9104 65.9868 69.3525C66.2742 68.7861 66.6885 68.3169 67.2295 67.945C67.7705 67.5645 68.4214 67.2771 69.1823 67.0827C69.9431 66.8883 70.7927 66.791 71.731 66.791H74.4573ZM80.0747 55.6323H82.4333V72.4465L82.2304 75.1094H80.0747V55.6323ZM91.7026 68.1352V68.4015C91.7026 69.399 91.5843 70.3246 91.3476 71.1785C91.1109 72.0238 90.7643 72.7593 90.3078 73.3848C89.8513 74.0104 89.2933 74.4965 88.634 74.8431C87.9746 75.1897 87.218 75.363 86.3642 75.363C85.4935 75.363 84.7284 75.215 84.069 74.9192C83.4181 74.6148 82.8686 74.1795 82.4206 73.6131C81.9725 73.0467 81.6133 72.362 81.3427 71.5589C81.0807 70.7558 80.8989 69.8512 80.7975 68.8453V67.6787C80.8989 66.6642 81.0807 65.7555 81.3427 64.9524C81.6133 64.1493 81.9725 63.4646 82.4206 62.8982C82.8686 62.3233 83.4181 61.888 84.069 61.5921C84.72 61.2878 85.4766 61.1356 86.3388 61.1356C87.2011 61.1356 87.9661 61.3047 88.634 61.6428C89.3018 61.9725 89.8597 62.4459 90.3078 63.063C90.7643 63.6801 91.1109 64.4198 91.3476 65.2821C91.5843 66.1359 91.7026 67.0869 91.7026 68.1352ZM89.3441 68.4015V68.1352C89.3441 67.4504 89.2807 66.808 89.1539 66.2077C89.0271 65.5991 88.8242 65.0665 88.5452 64.61C88.2662 64.1451 87.8985 63.7816 87.442 63.5195C86.9855 63.249 86.4234 63.1137 85.7555 63.1137C85.1638 63.1137 84.6481 63.2152 84.2085 63.4181C83.7774 63.6209 83.4097 63.8957 83.1053 64.2423C82.801 64.5804 82.5516 64.9693 82.3572 65.4089C82.1712 65.84 82.0317 66.2881 81.9387 66.753V69.809C82.074 70.4007 82.2938 70.9713 82.5981 71.5208C82.9109 72.0619 83.3251 72.5057 83.8408 72.8523C84.3649 73.1989 85.0116 73.3722 85.7809 73.3722C86.4149 73.3722 86.9559 73.2454 87.404 72.9918C87.8605 72.7297 88.2282 72.3704 88.5072 71.9139C88.7946 71.4574 89.0059 70.9291 89.1412 70.3289C89.2764 69.7287 89.3441 69.0862 89.3441 68.4015ZM97.2186 61.3892V75.1094H94.86V61.3892H97.2186ZM94.6825 57.7499C94.6825 57.3695 94.7966 57.0483 95.0249 56.7862C95.2616 56.5242 95.6082 56.3931 96.0647 56.3931C96.5127 56.3931 96.8551 56.5242 97.0918 56.7862C97.3369 57.0483 97.4595 57.3695 97.4595 57.7499C97.4595 58.1134 97.3369 58.4262 97.0918 58.6883C96.8551 58.9419 96.5127 59.0687 96.0647 59.0687C95.6082 59.0687 95.2616 58.9419 95.0249 58.6883C94.7966 58.4262 94.6825 58.1134 94.6825 57.7499ZM103.533 55.6323V75.1094H101.175V55.6323H103.533ZM109.848 61.3892V75.1094H107.49V61.3892H109.848ZM107.312 57.7499C107.312 57.3695 107.426 57.0483 107.655 56.7862C107.891 56.5242 108.238 56.3931 108.694 56.3931C109.142 56.3931 109.485 56.5242 109.721 56.7862C109.967 57.0483 110.089 57.3695 110.089 57.7499C110.089 58.1134 109.967 58.4262 109.721 58.6883C109.485 58.9419 109.142 59.0687 108.694 59.0687C108.238 59.0687 107.891 58.9419 107.655 58.6883C107.426 58.4262 107.312 58.1134 107.312 57.7499ZM119.359 61.3892V63.1898H111.941V61.3892H119.359ZM114.451 58.0543H116.797V71.711C116.797 72.176 116.869 72.5268 117.013 72.7635C117.156 73.0002 117.342 73.1566 117.571 73.2327C117.799 73.3088 118.044 73.3468 118.306 73.3468C118.5 73.3468 118.703 73.3299 118.915 73.2961C119.135 73.2538 119.299 73.22 119.409 73.1946L119.422 75.1094C119.236 75.1686 118.991 75.2235 118.686 75.2742C118.391 75.3334 118.031 75.363 117.609 75.363C117.034 75.363 116.505 75.2489 116.024 75.0206C115.542 74.7924 115.157 74.412 114.87 73.8794C114.591 73.3383 114.451 72.6113 114.451 71.6984V58.0543ZM130.2 72.7635V65.7005C130.2 65.1595 130.09 64.6903 129.871 64.293C129.659 63.8872 129.338 63.5745 128.907 63.3547C128.476 63.1349 127.943 63.025 127.309 63.025C126.717 63.025 126.197 63.1264 125.749 63.3293C125.31 63.5322 124.963 63.7985 124.71 64.1282C124.465 64.4579 124.342 64.8129 124.342 65.1933H121.996C121.996 64.703 122.123 64.2169 122.376 63.7351C122.63 63.2532 122.994 62.8179 123.467 62.429C123.949 62.0317 124.524 61.7189 125.192 61.4906C125.868 61.2539 126.62 61.1356 127.449 61.1356C128.446 61.1356 129.325 61.3047 130.086 61.6428C130.855 61.981 131.456 62.4924 131.887 63.1771C132.326 63.8534 132.546 64.703 132.546 65.7259V72.1168C132.546 72.5733 132.584 73.0594 132.66 73.575C132.745 74.0907 132.867 74.5345 133.028 74.9065V75.1094H130.581C130.462 74.8389 130.369 74.4796 130.302 74.0315C130.234 73.575 130.2 73.1524 130.2 72.7635ZM130.606 66.791L130.631 68.4395H128.26C127.592 68.4395 126.996 68.4944 126.472 68.6043C125.948 68.7058 125.509 68.8622 125.153 69.0735C124.798 69.2849 124.528 69.5511 124.342 69.8724C124.156 70.1852 124.063 70.5529 124.063 70.9756C124.063 71.4067 124.16 71.7998 124.355 72.1548C124.549 72.5099 124.841 72.7931 125.23 73.0044C125.627 73.2073 126.113 73.3088 126.688 73.3088C127.406 73.3088 128.04 73.1566 128.59 72.8523C129.139 72.5479 129.575 72.176 129.896 71.7364C130.226 71.2968 130.403 70.8699 130.429 70.4557L131.43 71.5842C131.371 71.9393 131.21 72.3324 130.948 72.7635C130.686 73.1946 130.336 73.6089 129.896 74.0062C129.465 74.395 128.949 74.7205 128.349 74.9826C127.757 75.2362 127.089 75.363 126.345 75.363C125.416 75.363 124.6 75.1812 123.898 74.8177C123.205 74.4542 122.664 73.9681 122.275 73.3595C121.895 72.7424 121.704 72.0534 121.704 71.2926C121.704 70.5571 121.848 69.9104 122.136 69.3525C122.423 68.7861 122.837 68.3169 123.378 67.945C123.919 67.5645 124.57 67.2771 125.331 67.0827C126.092 66.8883 126.941 66.791 127.88 66.791H130.606ZM144.884 72.4465V55.6323H147.243V75.1094H145.087L144.884 72.4465ZM135.653 68.4015V68.1352C135.653 67.0869 135.78 66.1359 136.033 65.2821C136.295 64.4198 136.663 63.6801 137.136 63.063C137.618 62.4459 138.189 61.9725 138.848 61.6428C139.516 61.3047 140.26 61.1356 141.08 61.1356C141.942 61.1356 142.695 61.2878 143.337 61.5921C143.988 61.888 144.538 62.3233 144.986 62.8982C145.442 63.4646 145.801 64.1493 146.063 64.9524C146.325 65.7555 146.507 66.6642 146.609 67.6787V68.8453C146.516 69.8512 146.334 70.7558 146.063 71.5589C145.801 72.362 145.442 73.0467 144.986 73.6131C144.538 74.1795 143.988 74.6148 143.337 74.9192C142.686 75.215 141.925 75.363 141.055 75.363C140.252 75.363 139.516 75.1897 138.848 74.8431C138.189 74.4965 137.618 74.0104 137.136 73.3848C136.663 72.7593 136.295 72.0238 136.033 71.1785C135.78 70.3246 135.653 69.399 135.653 68.4015ZM138.011 68.1352V68.4015C138.011 69.0862 138.079 69.7287 138.214 70.3289C138.358 70.9291 138.578 71.4574 138.874 71.9139C139.17 72.3704 139.546 72.7297 140.002 72.9918C140.459 73.2454 141.004 73.3722 141.638 73.3722C142.416 73.3722 143.054 73.2073 143.553 72.8776C144.06 72.5479 144.466 72.1126 144.77 71.5715C145.074 71.0305 145.311 70.443 145.48 69.809V66.753C145.379 66.2881 145.231 65.84 145.036 65.4089C144.85 64.9693 144.605 64.5804 144.301 64.2423C144.005 63.8957 143.637 63.6209 143.198 63.4181C142.767 63.2152 142.255 63.1137 141.663 63.1137C141.021 63.1137 140.467 63.249 140.002 63.5195C139.546 63.7816 139.17 64.1451 138.874 64.61C138.578 65.0665 138.358 65.5991 138.214 66.2077C138.079 66.808 138.011 67.4504 138.011 68.1352ZM150.273 68.4015V68.1098C150.273 67.1207 150.417 66.2035 150.704 65.3582C150.992 64.5043 151.406 63.7647 151.947 63.1391C152.488 62.5051 153.143 62.0148 153.913 61.6682C154.682 61.3131 155.544 61.1356 156.499 61.1356C157.463 61.1356 158.33 61.3131 159.099 61.6682C159.877 62.0148 160.536 62.5051 161.077 63.1391C161.626 63.7647 162.045 64.5043 162.332 65.3582C162.62 66.2035 162.763 67.1207 162.763 68.1098V68.4015C162.763 69.3905 162.62 70.3077 162.332 71.1531C162.045 71.9985 161.626 72.7381 161.077 73.3722C160.536 73.9977 159.881 74.488 159.112 74.8431C158.351 75.1897 157.488 75.363 156.525 75.363C155.561 75.363 154.695 75.1897 153.925 74.8431C153.156 74.488 152.497 73.9977 151.947 73.3722C151.406 72.7381 150.992 71.9985 150.704 71.1531C150.417 70.3077 150.273 69.3905 150.273 68.4015ZM152.619 68.1098V68.4015C152.619 69.0862 152.699 69.7329 152.86 70.3416C153.021 70.9418 153.262 71.4743 153.583 71.9393C153.913 72.4042 154.323 72.772 154.813 73.0425C155.303 73.3045 155.874 73.4356 156.525 73.4356C157.167 73.4356 157.729 73.3045 158.211 73.0425C158.702 72.772 159.107 72.4042 159.429 71.9393C159.75 71.4743 159.991 70.9418 160.151 70.3416C160.32 69.7329 160.405 69.0862 160.405 68.4015V68.1098C160.405 67.4335 160.32 66.7953 160.151 66.1951C159.991 65.5864 159.746 65.0496 159.416 64.5847C159.095 64.1113 158.689 63.7393 158.199 63.4688C157.717 63.1983 157.15 63.063 156.499 63.063C155.857 63.063 155.291 63.1983 154.8 63.4688C154.318 63.7393 153.913 64.1113 153.583 64.5847C153.262 65.0496 153.021 65.5864 152.86 66.1951C152.699 66.7953 152.619 67.4335 152.619 68.1098Z" fill="#606060"/>
<rect x="1.27834" y="39.3272" width="331.11" height="53.5619" rx="8.92699" stroke="#606060" stroke-width="1.62309"/>
</svg>
