<svg width="266" height="68" viewBox="0 0 266 68" fill="none" xmlns="http://www.w3.org/2000/svg">
<path d="M10.3971 14.5675H13.4215C13.3608 15.5588 13.0877 16.4388 12.6022 17.2076C12.1234 17.9763 11.4524 18.5765 10.5892 19.0081C9.73283 19.4396 8.70109 19.6554 7.49402 19.6554C6.54994 19.6554 5.70364 19.4936 4.95512 19.1699C4.2066 18.8395 3.56597 18.3674 3.03324 17.7538C2.50726 17.1401 2.10602 16.3984 1.82954 15.5285C1.55306 14.6586 1.41482 13.6841 1.41482 12.6052V11.5836C1.41482 10.5046 1.55644 9.53018 1.83966 8.66028C2.12963 7.78363 2.54097 7.03849 3.07371 6.42483C3.61318 5.81118 4.25718 5.33914 5.0057 5.00872C5.75422 4.67829 6.5904 4.51307 7.51425 4.51307C8.74155 4.51307 9.77667 4.73561 10.6196 5.18067C11.4693 5.62574 12.1267 6.23939 12.592 7.02163C13.0641 7.80386 13.3473 8.694 13.4417 9.69202H10.4072C10.3735 9.0986 10.2554 8.59622 10.0531 8.18487C9.85084 7.76678 9.54402 7.45321 9.13267 7.24416C8.72806 7.02837 8.18859 6.92048 7.51425 6.92048C7.00849 6.92048 6.5668 7.01488 6.18917 7.2037C5.81153 7.39252 5.49459 7.67911 5.23834 8.06349C4.98209 8.44786 4.78991 8.93339 4.66178 9.52006C4.5404 10.1 4.47971 10.7811 4.47971 11.5633V12.6052C4.47971 13.3672 4.53703 14.0382 4.65167 14.6181C4.7663 15.1913 4.94163 15.6768 5.17765 16.0747C5.42042 16.4658 5.73061 16.7625 6.10824 16.9648C6.49262 17.1604 6.95454 17.2581 7.49402 17.2581C8.1279 17.2581 8.65051 17.157 9.06186 16.9547C9.47321 16.7524 9.78678 16.4523 10.0026 16.0544C10.2251 15.6566 10.3566 15.1609 10.3971 14.5675ZM21.1494 14.2034H17.3967V11.8364H21.1494C21.7294 11.8364 22.2014 11.742 22.5656 11.5532C22.9297 11.3576 23.1961 11.0879 23.3647 10.744C23.5332 10.4001 23.6175 10.0123 23.6175 9.58076C23.6175 9.14243 23.5332 8.73446 23.3647 8.35682C23.1961 7.97919 22.9297 7.67574 22.5656 7.44646C22.2014 7.21719 21.7294 7.10255 21.1494 7.10255H18.4487V19.4531H15.4142V4.72549H21.1494C22.3026 4.72549 23.2905 4.93454 24.1132 5.35263C24.9426 5.76398 25.5765 6.3338 26.0148 7.06209C26.4531 7.79038 26.6723 8.62319 26.6723 9.56053C26.6723 10.5113 26.4531 11.334 26.0148 12.0286C25.5765 12.7232 24.9426 13.2593 24.1132 13.6369C23.2905 14.0146 22.3026 14.2034 21.1494 14.2034ZM31.8007 4.72549V19.4531H28.7661V4.72549H31.8007ZM37.6675 11.0171V13.384H30.9712V11.0171H37.6675ZM38.3755 4.72549V7.10255H30.9712V4.72549H38.3755Z" fill="#2C2C2C"/>
<path d="M48.0782 8.2776L49.4255 6.62074L47.4773 6.07452L47.8536 4.96995L49.7715 5.74679L49.6379 3.61654H50.87L50.7304 5.78321L52.6057 5.02457L52.9759 6.14735L50.9974 6.69357L52.3023 8.30794L51.3069 8.99982L50.1902 7.22158L49.0735 8.9452L48.0782 8.2776Z" fill="#2C2C2C"/>
<path d="M23.456 41.5977V56.4062H21.5847V43.9343L17.8117 45.3099V43.6207L23.1626 41.5977H23.456ZM38.6084 54.8687V56.4062H28.9687V55.0609L33.7936 49.6898C34.387 49.0289 34.8456 48.4692 35.1693 48.0107C35.4997 47.5454 35.729 47.1307 35.8571 46.7665C35.992 46.3956 36.0594 46.018 36.0594 45.6336C36.0594 45.1481 35.9583 44.7098 35.756 44.3187C35.5604 43.9208 35.2704 43.6039 34.8861 43.3678C34.5017 43.1318 34.0364 43.0138 33.4902 43.0138C32.8361 43.0138 32.2898 43.1419 31.8515 43.3982C31.4199 43.6477 31.0963 43.9984 30.8805 44.4502C30.6647 44.902 30.5568 45.4212 30.5568 46.0079H28.6855C28.6855 45.1785 28.8676 44.4198 29.2317 43.732C29.5958 43.0442 30.1353 42.4979 30.8501 42.0933C31.5649 41.682 32.4449 41.4763 33.4902 41.4763C34.4208 41.4763 35.2165 41.6415 35.8773 41.972C36.5382 42.2956 37.044 42.7542 37.3946 43.3476C37.752 43.9343 37.9307 44.6221 37.9307 45.4111C37.9307 45.8427 37.8565 46.281 37.7082 46.7261C37.5666 47.1644 37.3676 47.6027 37.1114 48.041C36.8619 48.4794 36.5685 48.9109 36.2314 49.3358C35.9009 49.7606 35.5469 50.1787 35.1693 50.59L31.2244 54.8687H38.6084ZM43.3423 48.122H44.6775C45.3316 48.122 45.8711 48.0141 46.2959 47.7983C46.7275 47.5757 47.0478 47.2757 47.2569 46.898C47.4727 46.5137 47.5806 46.0821 47.5806 45.6033C47.5806 45.0368 47.4861 44.5614 47.2973 44.1771C47.1085 43.7927 46.8253 43.5027 46.4477 43.3072C46.07 43.1116 45.5912 43.0138 45.0113 43.0138C44.4853 43.0138 44.02 43.1183 43.6154 43.3274C43.2176 43.5297 42.904 43.8197 42.6747 44.1973C42.4522 44.5749 42.3409 45.02 42.3409 45.5325H40.4696C40.4696 44.784 40.6584 44.1029 41.0361 43.4892C41.4137 42.8756 41.9431 42.3867 42.6241 42.0225C43.312 41.6584 44.1077 41.4763 45.0113 41.4763C45.9014 41.4763 46.6803 41.6348 47.3479 41.9517C48.0155 42.2619 48.5347 42.7272 48.9056 43.3476C49.2765 43.9613 49.462 44.7266 49.462 45.6437C49.462 46.0146 49.3743 46.4125 49.199 46.8373C49.0304 47.2554 48.764 47.6465 48.3999 48.0107C48.0425 48.3748 47.5772 48.6749 47.004 48.9109C46.4308 49.1402 45.743 49.2549 44.9405 49.2549H43.3423V48.122ZM43.3423 49.6595V48.5367H44.9405C45.8778 48.5367 46.6533 48.6479 47.267 48.8705C47.8806 49.093 48.3628 49.3897 48.7134 49.7606C49.0709 50.1315 49.3204 50.5395 49.462 50.9845C49.6103 51.4229 49.6845 51.8612 49.6845 52.2995C49.6845 52.9873 49.5665 53.5976 49.3305 54.1303C49.1012 54.6631 48.7741 55.1149 48.3493 55.4858C47.9312 55.8567 47.4389 56.1365 46.8725 56.3253C46.306 56.5141 45.689 56.6086 45.0214 56.6086C44.3808 56.6086 43.7773 56.5175 43.2108 56.3354C42.6511 56.1534 42.1555 55.8904 41.7239 55.5465C41.2923 55.1958 40.9551 54.7676 40.7124 54.2618C40.4696 53.7493 40.3482 53.166 40.3482 52.5119H42.2195C42.2195 53.0244 42.3308 53.4729 42.5533 53.8572C42.7826 54.2416 43.1063 54.5417 43.5244 54.7575C43.9492 54.9665 44.4482 55.0711 45.0214 55.0711C45.5946 55.0711 46.0869 54.9733 46.4982 54.7777C46.9163 54.5754 47.2366 54.272 47.4592 53.8674C47.6884 53.4627 47.8031 52.9536 47.8031 52.34C47.8031 51.7263 47.675 51.2239 47.4187 50.8328C47.1625 50.435 46.7983 50.1416 46.3263 49.9528C45.861 49.7572 45.3114 49.6595 44.6775 49.6595H43.3423ZM52.4965 55.415C52.4965 55.098 52.5943 54.8317 52.7898 54.6159C52.9921 54.3933 53.2821 54.2821 53.6597 54.2821C54.0374 54.2821 54.324 54.3933 54.5195 54.6159C54.7218 54.8317 54.823 55.098 54.823 55.415C54.823 55.7252 54.7218 55.9882 54.5195 56.2039C54.324 56.4197 54.0374 56.5276 53.6597 56.5276C53.2821 56.5276 52.9921 56.4197 52.7898 56.2039C52.5943 55.9882 52.4965 55.7252 52.4965 55.415ZM67.6793 51.4498V52.9873H57.0382V51.8848L63.6333 41.6786H65.1607L63.522 44.6322L59.1624 51.4498H67.6793ZM65.626 41.6786V56.4062H63.7547V41.6786H65.626ZM71.7456 49.3965L70.2486 49.0121L70.987 41.6786H78.543V43.4083H72.575L72.13 47.4139C72.3997 47.2588 72.7403 47.1138 73.1516 46.9789C73.5697 46.8441 74.0485 46.7766 74.588 46.7766C75.269 46.7766 75.8793 46.8947 76.4188 47.1307C76.9583 47.3599 77.4168 47.6904 77.7945 48.122C78.1788 48.5535 78.4722 49.0728 78.6745 49.6797C78.8768 50.2866 78.9779 50.9643 78.9779 51.7128C78.9779 52.4209 78.8801 53.0716 78.6846 53.665C78.4958 54.2585 78.2092 54.7777 77.8248 55.2228C77.4404 55.6611 76.9549 56.0016 76.3682 56.2444C75.7883 56.4872 75.1038 56.6086 74.3148 56.6086C73.7214 56.6086 73.1584 56.5276 72.6256 56.3658C72.0996 56.1972 71.6276 55.9443 71.2095 55.6072C70.7982 55.2632 70.461 54.8384 70.198 54.3326C69.9417 53.8201 69.7799 53.22 69.7125 52.5322H71.4927C71.5736 53.0851 71.7355 53.5504 71.9783 53.928C72.221 54.3057 72.538 54.5923 72.9291 54.7878C73.3269 54.9766 73.7889 55.0711 74.3148 55.0711C74.7599 55.0711 75.1544 54.9935 75.4983 54.8384C75.8422 54.6833 76.1322 54.4608 76.3682 54.1708C76.6042 53.8808 76.7829 53.5302 76.9043 53.1188C77.0324 52.7075 77.0965 52.2456 77.0965 51.7331C77.0965 51.2678 77.0324 50.8362 76.9043 50.4383C76.7762 50.0405 76.584 49.6932 76.3278 49.3965C76.0783 49.0998 75.7714 48.8705 75.4073 48.7086C75.0431 48.54 74.625 48.4558 74.153 48.4558C73.5259 48.4558 73.0505 48.54 72.7268 48.7086C72.4098 48.8772 72.0828 49.1065 71.7456 49.3965ZM88.213 41.6584H88.3749V43.2465H88.213C87.2218 43.2465 86.3923 43.4083 85.7247 43.732C85.0571 44.0489 84.5278 44.4771 84.1366 45.0166C83.7455 45.5493 83.4623 46.1495 83.287 46.8171C83.1184 47.4847 83.0341 48.1624 83.0341 48.8502V51.0149C83.0341 51.669 83.1116 52.2489 83.2667 52.7547C83.4218 53.2537 83.6343 53.6752 83.904 54.0191C84.1737 54.363 84.4772 54.6226 84.8144 54.7979C85.1583 54.9733 85.5157 55.0609 85.8866 55.0609C86.3181 55.0609 86.7025 54.98 87.0397 54.8182C87.3769 54.6496 87.6601 54.4169 87.8894 54.1202C88.1254 53.8168 88.3041 53.4594 88.4255 53.048C88.5468 52.6367 88.6075 52.1849 88.6075 51.6926C88.6075 51.2543 88.5536 50.8328 88.4457 50.4282C88.3378 50.0169 88.1726 49.6527 87.95 49.3358C87.7275 49.0121 87.4477 48.7592 87.1105 48.5771C86.7801 48.3883 86.3856 48.2939 85.927 48.2939C85.4078 48.2939 84.9223 48.422 84.4704 48.6783C84.0254 48.9278 83.6579 49.2582 83.3679 49.6696C83.0847 50.0742 82.9228 50.5159 82.8824 50.9947L81.8911 50.9845C81.9855 50.2293 82.1608 49.5853 82.4171 49.0525C82.6801 48.5131 83.0037 48.0748 83.3881 47.7376C83.7792 47.3937 84.2142 47.1442 84.693 46.9891C85.1785 46.8272 85.691 46.7463 86.2305 46.7463C86.9655 46.7463 87.5994 46.8845 88.1321 47.161C88.6648 47.4375 89.1032 47.8084 89.4471 48.2737C89.791 48.7322 90.0439 49.2515 90.2057 49.8314C90.3743 50.4046 90.4586 50.9947 90.4586 51.6016C90.4586 52.2961 90.3608 52.9469 90.1653 53.5538C89.9697 54.1607 89.6764 54.6934 89.2852 55.152C88.9009 55.6105 88.4255 55.9679 87.859 56.2242C87.2926 56.4804 86.6351 56.6086 85.8866 56.6086C85.0908 56.6086 84.3963 56.4467 83.8028 56.123C83.2094 55.7926 82.7172 55.3543 82.326 54.8081C81.9349 54.2618 81.6416 53.6549 81.446 52.9873C81.2505 52.3197 81.1527 51.642 81.1527 50.9542V50.0742C81.1527 49.0357 81.2572 48.0174 81.4662 47.0194C81.6753 46.0214 82.0361 45.1178 82.5486 44.3086C83.0678 43.4993 83.786 42.8553 84.7031 42.3766C85.6202 41.8978 86.7902 41.6584 88.213 41.6584ZM92.9166 55.415C92.9166 55.098 93.0144 54.8317 93.2099 54.6159C93.4122 54.3933 93.7022 54.2821 94.0798 54.2821C94.4575 54.2821 94.744 54.3933 94.9396 54.6159C95.1419 54.8317 95.2431 55.098 95.2431 55.415C95.2431 55.7252 95.1419 55.9882 94.9396 56.2039C94.744 56.4197 94.4575 56.5276 94.0798 56.5276C93.7022 56.5276 93.4122 56.4197 93.2099 56.2039C93.0144 55.9882 92.9166 55.7252 92.9166 55.415ZM107.664 41.6786V42.7306L101.565 56.4062H99.5926L105.682 43.2161H97.7112V41.6786H107.664ZM119.084 52.4209C119.084 53.3178 118.875 54.0798 118.457 54.7069C118.046 55.3273 117.486 55.7993 116.778 56.123C116.077 56.4467 115.285 56.6086 114.401 56.6086C113.518 56.6086 112.722 56.4467 112.014 56.123C111.306 55.7993 110.746 55.3273 110.335 54.7069C109.923 54.0798 109.718 53.3178 109.718 52.4209C109.718 51.8342 109.829 51.2981 110.052 50.8126C110.281 50.3203 110.601 49.8921 111.013 49.528C111.431 49.1638 111.923 48.884 112.489 48.6884C113.063 48.4861 113.693 48.3849 114.381 48.3849C115.285 48.3849 116.09 48.5603 116.798 48.9109C117.506 49.2549 118.063 49.7303 118.467 50.3372C118.879 50.9441 119.084 51.6387 119.084 52.4209ZM117.203 52.3804C117.203 51.8342 117.085 51.3521 116.849 50.934C116.613 50.5091 116.283 50.1787 115.858 49.9427C115.433 49.7067 114.941 49.5887 114.381 49.5887C113.808 49.5887 113.312 49.7067 112.894 49.9427C112.483 50.1787 112.162 50.5091 111.933 50.934C111.704 51.3521 111.589 51.8342 111.589 52.3804C111.589 52.9469 111.7 53.4324 111.923 53.837C112.152 54.2349 112.476 54.5417 112.894 54.7575C113.319 54.9665 113.821 55.0711 114.401 55.0711C114.981 55.0711 115.48 54.9665 115.898 54.7575C116.316 54.5417 116.637 54.2349 116.859 53.837C117.088 53.4324 117.203 52.9469 117.203 52.3804ZM118.741 45.5123C118.741 46.2271 118.552 46.8711 118.174 47.4442C117.796 48.0174 117.281 48.4692 116.626 48.7997C115.972 49.1301 115.231 49.2953 114.401 49.2953C113.558 49.2953 112.806 49.1301 112.145 48.7997C111.491 48.4692 110.979 48.0174 110.608 47.4442C110.237 46.8711 110.052 46.2271 110.052 45.5123C110.052 44.6558 110.237 43.9275 110.608 43.3274C110.986 42.7272 111.501 42.2687 112.156 41.9517C112.81 41.6348 113.555 41.4763 114.391 41.4763C115.234 41.4763 115.982 41.6348 116.637 41.9517C117.291 42.2687 117.803 42.7272 118.174 43.3274C118.552 43.9275 118.741 44.6558 118.741 45.5123ZM116.869 45.5426C116.869 45.0503 116.765 44.6154 116.556 44.2377C116.347 43.8601 116.057 43.5634 115.686 43.3476C115.315 43.1251 114.883 43.0138 114.391 43.0138C113.899 43.0138 113.467 43.1183 113.096 43.3274C112.732 43.5297 112.446 43.8197 112.236 44.1973C112.034 44.5749 111.933 45.0234 111.933 45.5426C111.933 46.0484 112.034 46.49 112.236 46.8677C112.446 47.2453 112.735 47.5387 113.106 47.7477C113.477 47.9567 113.909 48.0613 114.401 48.0613C114.893 48.0613 115.322 47.9567 115.686 47.7477C116.057 47.5387 116.347 47.2453 116.556 46.8677C116.765 46.49 116.869 46.0484 116.869 45.5426ZM123.313 54.8384H123.505C124.584 54.8384 125.46 54.6867 126.135 54.3832C126.809 54.0798 127.328 53.6718 127.692 53.1593C128.057 52.6468 128.306 52.0702 128.441 51.4296C128.576 50.7822 128.643 50.118 128.643 49.4369V47.1812C128.643 46.5137 128.566 45.9202 128.411 45.401C128.262 44.8817 128.053 44.4468 127.783 44.0961C127.52 43.7455 127.22 43.4791 126.883 43.297C126.546 43.115 126.189 43.0239 125.811 43.0239C125.379 43.0239 124.992 43.1116 124.648 43.2869C124.311 43.4555 124.024 43.6949 123.788 44.0051C123.559 44.3153 123.383 44.6794 123.262 45.0975C123.141 45.5156 123.08 45.9708 123.08 46.4631C123.08 46.9014 123.134 47.3262 123.242 47.7376C123.35 48.1489 123.515 48.5198 123.737 48.8502C123.96 49.1807 124.236 49.4437 124.567 49.6392C124.904 49.828 125.298 49.9224 125.75 49.9224C126.168 49.9224 126.56 49.8415 126.924 49.6797C127.295 49.5111 127.622 49.2852 127.905 49.002C128.195 48.712 128.424 48.3849 128.593 48.0208C128.768 47.6567 128.869 47.2757 128.896 46.8778H129.786C129.786 47.4375 129.675 47.9905 129.452 48.5367C129.237 49.0762 128.933 49.5684 128.542 50.0135C128.151 50.4586 127.692 50.816 127.166 51.0857C126.64 51.3487 126.067 51.4802 125.447 51.4802C124.719 51.4802 124.088 51.3386 123.555 51.0553C123.023 50.7721 122.584 50.3945 122.24 49.9224C121.903 49.4504 121.65 48.9244 121.482 48.3445C121.32 47.7578 121.239 47.1644 121.239 46.5642C121.239 45.8629 121.337 45.2054 121.532 44.5918C121.728 43.9781 122.018 43.4386 122.402 42.9734C122.787 42.5013 123.262 42.1338 123.828 41.8708C124.402 41.6078 125.062 41.4763 125.811 41.4763C126.654 41.4763 127.372 41.6449 127.966 41.9821C128.559 42.3192 129.041 42.7711 129.412 43.3375C129.79 43.9039 130.066 44.5412 130.241 45.2493C130.417 45.9573 130.504 46.6856 130.504 47.4341V48.1118C130.504 48.8738 130.454 49.6493 130.353 50.4383C130.258 51.2206 130.073 51.9691 129.796 52.6839C129.527 53.3987 129.132 54.0393 128.613 54.6058C128.094 55.1655 127.416 55.6105 126.58 55.941C125.75 56.2646 124.725 56.4265 123.505 56.4265H123.313V54.8384ZM137.201 49.3762V50.9137H132.264V49.3762H137.201ZM148.074 47.8691V50.1146C148.074 51.3217 147.966 52.34 147.751 53.1694C147.535 53.9988 147.225 54.6664 146.82 55.1722C146.416 55.678 145.927 56.0455 145.353 56.2748C144.787 56.4973 144.146 56.6086 143.432 56.6086C142.865 56.6086 142.342 56.5377 141.864 56.3961C141.385 56.2545 140.953 56.0286 140.569 55.7184C140.191 55.4015 139.868 54.9901 139.598 54.4844C139.328 53.9786 139.123 53.365 138.981 52.6434C138.839 51.9219 138.768 51.0789 138.768 50.1146V47.8691C138.768 46.662 138.876 45.6505 139.092 44.8345C139.315 44.0186 139.628 43.3645 140.033 42.8722C140.437 42.3732 140.923 42.0158 141.489 41.8C142.063 41.5842 142.703 41.4763 143.411 41.4763C143.985 41.4763 144.51 41.5471 144.989 41.6887C145.475 41.8236 145.906 42.0428 146.284 42.3462C146.662 42.6429 146.982 43.0408 147.245 43.5398C147.515 44.0321 147.72 44.6356 147.862 45.3504C148.004 46.0652 148.074 46.9048 148.074 47.8691ZM146.193 50.4181V47.5555C146.193 46.8947 146.153 46.3147 146.072 45.8157C145.997 45.3099 145.886 44.8784 145.738 44.521C145.589 44.1636 145.401 43.8736 145.171 43.6511C144.949 43.4285 144.689 43.2667 144.392 43.1655C144.103 43.0576 143.775 43.0037 143.411 43.0037C142.966 43.0037 142.572 43.088 142.228 43.2566C141.884 43.4184 141.594 43.678 141.358 44.0354C141.129 44.3928 140.953 44.8615 140.832 45.4414C140.711 46.0214 140.65 46.7261 140.65 47.5555V50.4181C140.65 51.0789 140.687 51.6623 140.761 52.168C140.842 52.6738 140.96 53.1121 141.115 53.483C141.27 53.8471 141.459 54.1472 141.682 54.3832C141.904 54.6192 142.16 54.7946 142.45 54.9092C142.747 55.0171 143.074 55.0711 143.432 55.0711C143.89 55.0711 144.291 54.9834 144.635 54.8081C144.979 54.6327 145.266 54.3596 145.495 53.9887C145.731 53.6111 145.906 53.1289 146.021 52.5423C146.136 51.9488 146.193 51.2408 146.193 50.4181ZM159.727 47.8691V50.1146C159.727 51.3217 159.619 52.34 159.403 53.1694C159.188 53.9988 158.877 54.6664 158.473 55.1722C158.068 55.678 157.579 56.0455 157.006 56.2748C156.44 56.4973 155.799 56.6086 155.084 56.6086C154.518 56.6086 153.995 56.5377 153.516 56.3961C153.038 56.2545 152.606 56.0286 152.222 55.7184C151.844 55.4015 151.52 54.9901 151.251 54.4844C150.981 53.9786 150.775 53.365 150.634 52.6434C150.492 51.9219 150.421 51.0789 150.421 50.1146V47.8691C150.421 46.662 150.529 45.6505 150.745 44.8345C150.967 44.0186 151.281 43.3645 151.686 42.8722C152.09 42.3732 152.576 42.0158 153.142 41.8C153.715 41.5842 154.356 41.4763 155.064 41.4763C155.637 41.4763 156.163 41.5471 156.642 41.6887C157.127 41.8236 157.559 42.0428 157.937 42.3462C158.314 42.6429 158.635 43.0408 158.898 43.5398C159.167 44.0321 159.373 44.6356 159.515 45.3504C159.656 46.0652 159.727 46.9048 159.727 47.8691ZM157.846 50.4181V47.5555C157.846 46.8947 157.805 46.3147 157.724 45.8157C157.65 45.3099 157.539 44.8784 157.39 44.521C157.242 44.1636 157.053 43.8736 156.824 43.6511C156.601 43.4285 156.342 43.2667 156.045 43.1655C155.755 43.0576 155.428 43.0037 155.064 43.0037C154.619 43.0037 154.224 43.088 153.88 43.2566C153.537 43.4184 153.247 43.678 153.011 44.0354C152.781 44.3928 152.606 44.8615 152.485 45.4414C152.363 46.0214 152.303 46.7261 152.303 47.5555V50.4181C152.303 51.0789 152.34 51.6623 152.414 52.168C152.495 52.6738 152.613 53.1121 152.768 53.483C152.923 53.8471 153.112 54.1472 153.334 54.3832C153.557 54.6192 153.813 54.7946 154.103 54.9092C154.4 55.0171 154.727 55.0711 155.084 55.0711C155.543 55.0711 155.944 54.9834 156.288 54.8081C156.632 54.6327 156.918 54.3596 157.148 53.9887C157.384 53.6111 157.559 53.1289 157.674 52.5423C157.788 51.9488 157.846 51.2408 157.846 50.4181Z" fill="#2C2C2C"/>
<path d="M265.966 66.5823H0.544922V69.1718H265.966V66.5823Z" fill="#606060" mask="url(#path-3-inside-1_2109_9717)"/>
</svg>
