<svg width="333" height="95" viewBox="0 0 333 95" fill="none" xmlns="http://www.w3.org/2000/svg">
<path d="M12.3507 18.7582H16.1421C16.066 20.0009 15.7237 21.1041 15.115 22.0678C14.5148 23.0315 13.6737 23.7838 12.5916 24.3249C11.518 24.8659 10.2246 25.1364 8.71142 25.1364C7.52792 25.1364 6.467 24.9335 5.52865 24.5278C4.5903 24.1135 3.78721 23.5218 3.11937 22.7525C2.45999 21.9832 1.95701 21.0533 1.61041 19.9628C1.26381 18.8723 1.09051 17.6508 1.09051 16.2982V15.0175C1.09051 13.6649 1.26804 12.4434 1.62309 11.3528C1.98659 10.2539 2.50226 9.31976 3.1701 8.55048C3.84638 7.7812 4.6537 7.18945 5.59205 6.77523C6.5304 6.361 7.57864 6.15389 8.73678 6.15389C10.2753 6.15389 11.573 6.43286 12.6297 6.99079C13.6948 7.54873 14.519 8.31801 15.1023 9.29862C15.6941 10.2792 16.0491 11.3951 16.1675 12.6462H12.3634C12.3211 11.9023 12.1732 11.2725 11.9196 10.7569C11.666 10.2327 11.2813 9.83965 10.7656 9.57759C10.2584 9.30708 9.58214 9.17182 8.73678 9.17182C8.10276 9.17182 7.54905 9.29017 7.07565 9.52687C6.60225 9.76357 6.20493 10.1228 5.8837 10.6047C5.56246 11.0866 5.32153 11.6952 5.16092 12.4307C5.00875 13.1577 4.93267 14.0115 4.93267 14.9921V16.2982C4.93267 17.2534 5.00452 18.0946 5.14824 18.8216C5.29195 19.5401 5.51174 20.1488 5.80762 20.6476C6.11194 21.1379 6.50081 21.5098 6.97421 21.7634C7.45606 22.0086 8.03514 22.1312 8.71142 22.1312C9.50606 22.1312 10.1612 22.0044 10.6769 21.7508C11.1926 21.4972 11.5856 21.121 11.8562 20.6222C12.1351 20.1234 12.3 19.5021 12.3507 18.7582ZM25.8299 18.3017H21.1255V15.3345H25.8299C26.5569 15.3345 27.1487 15.2161 27.6052 14.9794C28.0617 14.7343 28.3956 14.3961 28.6069 13.965C28.8183 13.5339 28.924 13.0478 28.924 12.5068C28.924 11.9573 28.8183 11.4458 28.6069 10.9724C28.3956 10.499 28.0617 10.1186 27.6052 9.8312C27.1487 9.54378 26.5569 9.40007 25.8299 9.40007H22.4443V24.8828H18.6402V6.42018H25.8299C27.2755 6.42018 28.514 6.68224 29.5453 7.20636C30.5851 7.72203 31.3797 8.43636 31.9292 9.34934C32.4787 10.2623 32.7534 11.3063 32.7534 12.4814C32.7534 13.6734 32.4787 14.7047 31.9292 15.5754C31.3797 16.4461 30.5851 17.1182 29.5453 17.5916C28.514 18.065 27.2755 18.3017 25.8299 18.3017ZM39.1824 6.42018V24.8828H35.3783V6.42018H39.1824ZM46.537 14.3074V17.2746H38.1426V14.3074H46.537ZM47.4246 6.42018V9.40007H38.1426V6.42018H47.4246Z" fill="#2C2C2C"/>
<path d="M58.6969 10.6484L60.3859 8.5713L57.9437 7.88656L58.4154 6.50187L60.8196 7.47572L60.6522 4.80523H62.1967L62.0217 7.52137L64.3727 6.57034L64.8368 7.97786L62.3565 8.6626L63.9922 10.6864L62.7445 11.5537L61.3446 9.32452L59.9447 11.4853L58.6969 10.6484Z" fill="#2C2C2C"/>
<rect x="0.811544" y="39.8115" width="331.11" height="53.5619" rx="8.92699" fill="#FDFBF9"/>
<path d="M23.5987 57.1311V79.0175H21.7093V57.1311H23.5987Z" fill="#2C2C2C"/>
<rect x="0.811544" y="39.8115" width="331.11" height="53.5619" rx="8.92699" stroke="#0567FF" stroke-width="1.62309"/>
</svg>
