<svg width="162" height="47" viewBox="0 0 162 47" fill="none" xmlns="http://www.w3.org/2000/svg">
<path d="M6.31975 9.75203H8.16597C8.12892 10.3571 7.9622 10.8943 7.66582 11.3636C7.37356 11.8329 6.96397 12.1992 6.43707 12.4627C5.91429 12.7261 5.28447 12.8579 4.54763 12.8579C3.97134 12.8579 3.45472 12.7591 2.9978 12.5615C2.54088 12.3598 2.14982 12.0716 1.82462 11.697C1.50354 11.3224 1.25862 10.8696 1.08984 10.3386C0.921069 9.8076 0.836682 9.21278 0.836682 8.55415V7.93051C0.836682 7.27189 0.923127 6.67706 1.09602 6.14605C1.27302 5.61091 1.52412 5.15605 1.84932 4.78145C2.17863 4.40686 2.57175 4.11871 3.02868 3.917C3.4856 3.7153 3.99603 3.61445 4.55998 3.61445C5.30917 3.61445 5.94104 3.75029 6.45559 4.02197C6.97426 4.29366 7.37561 4.66825 7.65965 5.14576C7.9478 5.62326 8.12069 6.16663 8.17832 6.77586H6.32593C6.30535 6.41361 6.23331 6.10694 6.10982 5.85584C5.98632 5.60062 5.79903 5.40921 5.54792 5.2816C5.30094 5.14987 4.97163 5.08401 4.55998 5.08401C4.25125 5.08401 3.98163 5.14164 3.75111 5.2569C3.52059 5.37216 3.32712 5.54711 3.17069 5.78174C3.01427 6.01638 2.89695 6.31276 2.81874 6.67089C2.74464 7.0249 2.70759 7.44066 2.70759 7.91816V8.55415C2.70759 9.01931 2.74258 9.42889 2.81256 9.7829C2.88254 10.1328 2.98957 10.4292 3.13364 10.672C3.28184 10.9108 3.47119 11.0919 3.70171 11.2154C3.93635 11.3348 4.21832 11.3945 4.54763 11.3945C4.93458 11.3945 5.2536 11.3327 5.5047 11.2092C5.7558 11.0857 5.94722 10.9026 6.07894 10.6597C6.21478 10.4168 6.29505 10.1143 6.31975 9.75203ZM12.8834 9.52974H10.5926V8.08488H12.8834C13.2374 8.08488 13.5255 8.02725 13.7478 7.91199C13.9701 7.79261 14.1327 7.62796 14.2356 7.41802C14.3385 7.20808 14.39 6.97139 14.39 6.70794C14.39 6.44037 14.3385 6.19133 14.2356 5.96081C14.1327 5.73029 13.9701 5.54505 13.7478 5.40509C13.5255 5.26513 13.2374 5.19515 12.8834 5.19515H11.2348V12.7344H9.38237V3.74412H12.8834C13.5873 3.74412 14.1903 3.87172 14.6925 4.12694C15.1989 4.37804 15.5858 4.72588 15.8534 5.17045C16.1209 5.61503 16.2547 6.12341 16.2547 6.69559C16.2547 7.276 16.1209 7.77821 15.8534 8.2022C15.5858 8.62619 15.1989 8.95344 14.6925 9.18396C14.1903 9.41448 13.5873 9.52974 12.8834 9.52974ZM19.3853 3.74412V12.7344H17.5329V3.74412H19.3853ZM22.9666 7.58473V9.0296H18.8789V7.58473H22.9666ZM23.3988 3.74412V5.19515H18.8789V3.74412H23.3988Z" fill="#2C2C2C"/>
<path d="M29.5147 6.18549L30.3371 5.17408L29.1479 4.84065L29.3776 4.16638L30.5483 4.6406L30.4668 3.34022H31.2189L31.1336 4.66282L32.2784 4.19973L32.5044 4.88511L31.2967 5.21854L32.0932 6.20401L31.4856 6.62636L30.8039 5.54086L30.1222 6.59301L29.5147 6.18549Z" fill="#2C2C2C"/>
<rect x="0.395176" y="20.3952" width="161.21" height="26.2096" rx="4.34694" fill="#FDFBF9"/>
<path d="M13.9857 28.9603V38H12.8434V30.3867L10.5402 31.2264V30.1953L13.8066 28.9603H13.9857ZM23.2353 37.0615V38H17.3509V37.1788L20.2962 33.9C20.6584 33.4966 20.9383 33.155 21.1359 32.8751C21.3376 32.591 21.4776 32.3379 21.5558 32.1156C21.6381 31.8892 21.6793 31.6587 21.6793 31.424C21.6793 31.1276 21.6175 30.8601 21.494 30.6213C21.3747 30.3784 21.1976 30.185 20.963 30.0409C20.7284 29.8968 20.4443 29.8248 20.1109 29.8248C19.7116 29.8248 19.3782 29.903 19.1106 30.0594C18.8472 30.2117 18.6496 30.4258 18.5179 30.7016C18.3861 30.9774 18.3203 31.2944 18.3203 31.6525H17.178C17.178 31.1462 17.2891 30.6831 17.5114 30.2632C17.7337 29.8433 18.063 29.5099 18.4993 29.2629C18.9357 29.0118 19.4729 28.8862 20.1109 28.8862C20.679 28.8862 21.1647 28.9871 21.5681 29.1888C21.9715 29.3864 22.2803 29.6663 22.4943 30.0286C22.7125 30.3867 22.8216 30.8066 22.8216 31.2882C22.8216 31.5516 22.7763 31.8192 22.6857 32.0909C22.5993 32.3584 22.4779 32.626 22.3214 32.8936C22.1691 33.1611 21.9901 33.4246 21.7842 33.6839C21.5825 33.9433 21.3664 34.1985 21.1359 34.4496L18.7278 37.0615H23.2353ZM26.125 32.943H26.9401C27.3393 32.943 27.6687 32.8771 27.928 32.7454C28.1914 32.6095 28.387 32.4264 28.5146 32.1958C28.6463 31.9612 28.7122 31.6978 28.7122 31.4055C28.7122 31.0597 28.6545 30.7695 28.5393 30.5349C28.424 30.3002 28.2511 30.1232 28.0206 30.0039C27.7901 29.8845 27.4978 29.8248 27.1438 29.8248C26.8227 29.8248 26.5387 29.8886 26.2917 30.0162C26.0488 30.1397 25.8574 30.3167 25.7175 30.5472C25.5816 30.7777 25.5137 31.0494 25.5137 31.3623H24.3714C24.3714 30.9054 24.4867 30.4896 24.7172 30.115C24.9477 29.7404 25.2708 29.442 25.6866 29.2197C26.1065 28.9974 26.5922 28.8862 27.1438 28.8862C27.6872 28.8862 28.1626 28.983 28.5702 29.1765C28.9777 29.3658 29.2946 29.6498 29.521 30.0286C29.7474 30.4031 29.8607 30.8704 29.8607 31.4302C29.8607 31.6566 29.8071 31.8995 29.7001 32.1588C29.5972 32.414 29.4346 32.6528 29.2123 32.8751C28.9941 33.0973 28.7101 33.2805 28.3602 33.4246C28.0103 33.5646 27.5904 33.6345 27.1006 33.6345H26.125V32.943ZM26.125 33.8815V33.1961H27.1006C27.6728 33.1961 28.1462 33.2641 28.5208 33.3999C28.8954 33.5357 29.1897 33.7169 29.4037 33.9433C29.6219 34.1697 29.7742 34.4187 29.8607 34.6904C29.9512 34.958 29.9965 35.2255 29.9965 35.4931C29.9965 35.913 29.9245 36.2855 29.7804 36.6107C29.6404 36.9359 29.4408 37.2117 29.1814 37.4381C28.9262 37.6645 28.6257 37.8353 28.2799 37.9506C27.9342 38.0659 27.5575 38.1235 27.15 38.1235C26.7589 38.1235 26.3905 38.0679 26.0447 37.9568C25.7031 37.8456 25.4005 37.6851 25.1371 37.4752C24.8736 37.2611 24.6678 36.9997 24.5196 36.691C24.3714 36.3781 24.2973 36.0221 24.2973 35.6228H25.4396C25.4396 35.9356 25.5075 36.2094 25.6434 36.444C25.7833 36.6786 25.9809 36.8618 26.2361 36.9935C26.4955 37.1211 26.8001 37.1849 27.15 37.1849C27.4999 37.1849 27.8004 37.1253 28.0515 37.0059C28.3067 36.8824 28.5022 36.6972 28.6381 36.4502C28.778 36.2032 28.848 35.8924 28.848 35.5178C28.848 35.1432 28.7698 34.8365 28.6134 34.5978C28.457 34.3549 28.2347 34.1758 27.9465 34.0606C27.6625 33.9412 27.327 33.8815 26.9401 33.8815H26.125ZM31.713 37.3949C31.713 37.2014 31.7727 37.0388 31.8921 36.9071C32.0156 36.7712 32.1926 36.7033 32.4231 36.7033C32.6536 36.7033 32.8286 36.7712 32.948 36.9071C33.0715 37.0388 33.1332 37.2014 33.1332 37.3949C33.1332 37.5842 33.0715 37.7448 32.948 37.8765C32.8286 38.0082 32.6536 38.0741 32.4231 38.0741C32.1926 38.0741 32.0156 38.0082 31.8921 37.8765C31.7727 37.7448 31.713 37.5842 31.713 37.3949ZM40.9812 34.9744V35.913H34.4854V35.2399L38.5113 29.0097H39.4437L38.4434 30.8127L35.7821 34.9744H40.9812ZM39.7277 29.0097V38H38.5854V29.0097H39.7277ZM43.4634 33.721L42.5495 33.4863L43.0003 29.0097H47.6127V30.0656H43.9697L43.698 32.5108C43.8627 32.4161 44.0705 32.3276 44.3216 32.2452C44.5768 32.1629 44.8691 32.1218 45.1984 32.1218C45.6142 32.1218 45.9867 32.1938 46.316 32.3379C46.6453 32.4778 46.9253 32.6795 47.1558 32.943C47.3904 33.2064 47.5695 33.5234 47.693 33.8939C47.8165 34.2643 47.8782 34.678 47.8782 35.135C47.8782 35.5672 47.8185 35.9644 47.6992 36.3267C47.5839 36.6889 47.4089 37.0059 47.1743 37.2776C46.9397 37.5451 46.6433 37.753 46.2852 37.9012C45.9312 38.0494 45.5133 38.1235 45.0317 38.1235C44.6695 38.1235 44.3257 38.0741 44.0006 37.9753C43.6795 37.8724 43.3913 37.718 43.1361 37.5122C42.885 37.3023 42.6792 37.0429 42.5186 36.7342C42.3622 36.4214 42.2634 36.055 42.2223 35.6351H43.309C43.3584 35.9727 43.4572 36.2567 43.6054 36.4872C43.7536 36.7177 43.947 36.8927 44.1858 37.0121C44.4287 37.1273 44.7106 37.1849 45.0317 37.1849C45.3034 37.1849 45.5442 37.1376 45.7541 37.0429C45.9641 36.9483 46.1411 36.8124 46.2852 36.6354C46.4292 36.4584 46.5383 36.2443 46.6124 35.9932C46.6906 35.7421 46.7297 35.4602 46.7297 35.1473C46.7297 34.8633 46.6906 34.5998 46.6124 34.357C46.5342 34.1141 46.4169 33.9021 46.2605 33.721C46.1082 33.5399 45.9209 33.3999 45.6986 33.3011C45.4763 33.1982 45.2211 33.1467 44.9329 33.1467C44.5501 33.1467 44.2599 33.1982 44.0623 33.3011C43.8688 33.404 43.6692 33.544 43.4634 33.721ZM53.5157 28.9974H53.6144V29.9668H53.5157C52.9105 29.9668 52.4042 30.0656 51.9967 30.2632C51.5892 30.4567 51.266 30.7181 51.0273 31.0474C50.7885 31.3726 50.6156 31.7389 50.5086 32.1465C50.4057 32.554 50.3542 32.9677 50.3542 33.3876V34.7089C50.3542 35.1082 50.4016 35.4622 50.4963 35.771C50.5909 36.0756 50.7206 36.3329 50.8853 36.5428C51.0499 36.7527 51.2352 36.9112 51.441 37.0182C51.6509 37.1253 51.8691 37.1788 52.0955 37.1788C52.3589 37.1788 52.5936 37.1294 52.7994 37.0306C53.0052 36.9277 53.1781 36.7857 53.3181 36.6045C53.4621 36.4193 53.5712 36.2011 53.6453 35.95C53.7194 35.6989 53.7565 35.4231 53.7565 35.1226C53.7565 34.8551 53.7235 34.5978 53.6577 34.3508C53.5918 34.0997 53.491 33.8774 53.3551 33.6839C53.2193 33.4863 53.0484 33.332 52.8426 33.2208C52.6409 33.1056 52.4001 33.0479 52.1202 33.0479C51.8032 33.0479 51.5068 33.1262 51.231 33.2826C50.9594 33.4349 50.735 33.6366 50.558 33.8877C50.3851 34.1347 50.2863 34.4043 50.2616 34.6966L49.6565 34.6904C49.7141 34.2294 49.8212 33.8362 49.9776 33.511C50.1381 33.1817 50.3357 32.9142 50.5704 32.7083C50.8091 32.4984 51.0746 32.3461 51.3669 32.2514C51.6633 32.1526 51.9761 32.1032 52.3054 32.1032C52.7541 32.1032 53.1411 32.1876 53.4663 32.3564C53.7915 32.5252 54.059 32.7516 54.269 33.0356C54.4789 33.3155 54.6333 33.6325 54.7321 33.9865C54.835 34.3364 54.8864 34.6966 54.8864 35.0671C54.8864 35.491 54.8267 35.8883 54.7074 36.2588C54.588 36.6292 54.4089 36.9544 54.1702 37.2343C53.9355 37.5143 53.6453 37.7324 53.2995 37.8889C52.9538 38.0453 52.5524 38.1235 52.0955 38.1235C51.6098 38.1235 51.1858 38.0247 50.8235 37.8271C50.4613 37.6254 50.1608 37.3578 49.922 37.0244C49.6833 36.691 49.5042 36.3205 49.3848 35.913C49.2655 35.5054 49.2058 35.0917 49.2058 34.6719V34.1347C49.2058 33.5008 49.2696 32.8792 49.3972 32.2699C49.5248 31.6607 49.745 31.1091 50.0579 30.6151C50.3748 30.1212 50.8132 29.7281 51.3731 29.4358C51.9329 29.1435 52.6471 28.9974 53.5157 28.9974ZM56.3869 37.3949C56.3869 37.2014 56.4465 37.0388 56.5659 36.9071C56.6894 36.7712 56.8664 36.7033 57.0969 36.7033C57.3275 36.7033 57.5024 36.7712 57.6218 36.9071C57.7453 37.0388 57.807 37.2014 57.807 37.3949C57.807 37.5842 57.7453 37.7448 57.6218 37.8765C57.5024 38.0082 57.3275 38.0741 57.0969 38.0741C56.8664 38.0741 56.6894 38.0082 56.5659 37.8765C56.4465 37.7448 56.3869 37.5842 56.3869 37.3949ZM65.3895 29.0097V29.6519L61.6662 38H60.4621L64.1792 29.9483H59.3136V29.0097H65.3895ZM72.3606 35.5672C72.3606 36.1147 72.233 36.5798 71.9778 36.9627C71.7267 37.3414 71.385 37.6295 70.9528 37.8271C70.5247 38.0247 70.041 38.1235 69.5018 38.1235C68.9625 38.1235 68.4768 38.0247 68.0446 37.8271C67.6123 37.6295 67.2707 37.3414 67.0196 36.9627C66.7685 36.5798 66.6429 36.1147 66.6429 35.5672C66.6429 35.2091 66.7108 34.8818 66.8467 34.5854C66.9866 34.2849 67.1822 34.0235 67.4333 33.8013C67.6885 33.579 67.989 33.4081 68.3348 33.2888C68.6847 33.1653 69.0695 33.1035 69.4894 33.1035C70.041 33.1035 70.5329 33.2105 70.9652 33.4246C71.3974 33.6345 71.737 33.9247 71.984 34.2952C72.2351 34.6657 72.3606 35.0897 72.3606 35.5672ZM71.2121 35.5425C71.2121 35.2091 71.1401 34.9147 70.996 34.6595C70.852 34.4002 70.6503 34.1985 70.3909 34.0544C70.1316 33.9103 69.8311 33.8383 69.4894 33.8383C69.1395 33.8383 68.837 33.9103 68.5817 34.0544C68.3306 34.1985 68.1351 34.4002 67.9952 34.6595C67.8552 34.9147 67.7852 35.2091 67.7852 35.5425C67.7852 35.8883 67.8531 36.1847 67.989 36.4316C68.1289 36.6745 68.3265 36.8618 68.5817 36.9935C68.8411 37.1211 69.1478 37.1849 69.5018 37.1849C69.8558 37.1849 70.1604 37.1211 70.4156 36.9935C70.6708 36.8618 70.8664 36.6745 71.0022 36.4316C71.1422 36.1847 71.2121 35.8883 71.2121 35.5425ZM72.1507 31.3499C72.1507 31.7863 72.0354 32.1794 71.8049 32.5293C71.5744 32.8792 71.2595 33.155 70.8602 33.3567C70.4609 33.5584 70.0081 33.6592 69.5018 33.6592C68.9872 33.6592 68.5282 33.5584 68.1248 33.3567C67.7255 33.155 67.4127 32.8792 67.1863 32.5293C66.9599 32.1794 66.8467 31.7863 66.8467 31.3499C66.8467 30.8271 66.9599 30.3826 67.1863 30.0162C67.4168 29.6498 67.7317 29.3699 68.131 29.1765C68.5303 28.983 68.9852 28.8862 69.4956 28.8862C70.0101 28.8862 70.4671 28.983 70.8664 29.1765C71.2657 29.3699 71.5785 29.6498 71.8049 30.0162C72.0354 30.3826 72.1507 30.8271 72.1507 31.3499ZM71.0084 31.3684C71.0084 31.0679 70.9446 30.8024 70.817 30.5719C70.6894 30.3414 70.5124 30.1603 70.2859 30.0286C70.0595 29.8927 69.7961 29.8248 69.4956 29.8248C69.1951 29.8248 68.9316 29.8886 68.7052 30.0162C68.483 30.1397 68.308 30.3167 68.1804 30.5472C68.0569 30.7777 67.9952 31.0515 67.9952 31.3684C67.9952 31.6772 68.0569 31.9468 68.1804 32.1773C68.308 32.4078 68.485 32.5869 68.7114 32.7145C68.9378 32.8421 69.2013 32.9059 69.5018 32.9059C69.8023 32.9059 70.0637 32.8421 70.2859 32.7145C70.5124 32.5869 70.6894 32.4078 70.817 32.1773C70.9446 31.9468 71.0084 31.6772 71.0084 31.3684ZM74.9416 37.0429H75.0589C75.7176 37.0429 76.2527 36.9503 76.6643 36.7651C77.076 36.5798 77.3929 36.3308 77.6152 36.0179C77.8375 35.7051 77.9898 35.3531 78.0722 34.9621C78.1545 34.5669 78.1956 34.1614 78.1956 33.7457V32.3687C78.1956 31.9612 78.1483 31.599 78.0536 31.282C77.9631 30.965 77.8355 30.6995 77.6708 30.4855C77.5103 30.2714 77.3271 30.1088 77.1213 29.9977C76.9154 29.8865 76.6973 29.831 76.4667 29.831C76.2033 29.831 75.9666 29.8845 75.7567 29.9915C75.5508 30.0944 75.3759 30.2405 75.2318 30.4299C75.0919 30.6193 74.9848 30.8415 74.9107 31.0968C74.8366 31.352 74.7996 31.6298 74.7996 31.9303C74.7996 32.1979 74.8325 32.4572 74.8984 32.7083C74.9643 32.9594 75.0651 33.1858 75.2009 33.3876C75.3368 33.5893 75.5056 33.7498 75.7073 33.8692C75.9131 33.9844 76.1539 34.0421 76.4297 34.0421C76.6849 34.0421 76.9237 33.9927 77.146 33.8939C77.3724 33.791 77.572 33.6531 77.7449 33.4802C77.9219 33.3032 78.0619 33.1035 78.1648 32.8812C78.2718 32.6589 78.3335 32.4264 78.35 32.1835H78.8934C78.8934 32.5252 78.8255 32.8627 78.6896 33.1961C78.5579 33.5255 78.3727 33.826 78.1339 34.0976C77.8951 34.3693 77.6152 34.5875 77.2941 34.7521C76.9731 34.9127 76.6232 34.993 76.2445 34.993C75.7999 34.993 75.415 34.9065 75.0898 34.7336C74.7646 34.5607 74.497 34.3302 74.2871 34.0421C74.0813 33.7539 73.9269 33.4328 73.824 33.0788C73.7252 32.7207 73.6758 32.3584 73.6758 31.9921C73.6758 31.564 73.7355 31.1626 73.8549 30.788C73.9743 30.4134 74.1513 30.0841 74.3859 29.8001C74.6205 29.5119 74.9107 29.2876 75.2565 29.1271C75.6064 28.9665 76.0098 28.8862 76.4667 28.8862C76.9813 28.8862 77.4197 28.9892 77.7819 29.195C78.1442 29.4008 78.4385 29.6766 78.6649 30.0224C78.8954 30.3682 79.0642 30.7572 79.1712 31.1894C79.2783 31.6216 79.3318 32.0662 79.3318 32.5231V32.9368C79.3318 33.402 79.3009 33.8753 79.2392 34.357C79.1815 34.8345 79.0683 35.2914 78.8996 35.7277C78.7349 36.1641 78.4941 36.5551 78.1771 36.9009C77.8602 37.2426 77.4465 37.5143 76.936 37.716C76.4297 37.9136 75.804 38.0123 75.0589 38.0123H74.9416V37.0429ZM83.4194 33.7086V34.6472H80.4062V33.7086H83.4194ZM90.0571 32.7886V34.1594C90.0571 34.8962 89.9912 35.5178 89.8595 36.0241C89.7278 36.5304 89.5384 36.938 89.2915 37.2467C89.0445 37.5554 88.746 37.7798 88.3961 37.9197C88.0504 38.0556 87.6593 38.1235 87.223 38.1235C86.8772 38.1235 86.5582 38.0803 86.2659 37.9938C85.9736 37.9074 85.7102 37.7695 85.4755 37.5801C85.245 37.3867 85.0474 37.1356 84.8828 36.8268C84.7181 36.5181 84.5926 36.1435 84.5061 35.703C84.4197 35.2626 84.3764 34.748 84.3764 34.1594V32.7886C84.3764 32.0518 84.4423 31.4343 84.574 30.9362C84.7099 30.4381 84.9013 30.0388 85.1483 29.7383C85.3953 29.4337 85.6916 29.2156 86.0374 29.0838C86.3873 28.9521 86.7784 28.8862 87.2106 28.8862C87.5605 28.8862 87.8816 28.9295 88.1738 29.0159C88.4702 29.0982 88.7337 29.232 88.9642 29.4173C89.1947 29.5984 89.3902 29.8413 89.5508 30.1459C89.7154 30.4464 89.841 30.8148 89.9274 31.2511C90.0139 31.6875 90.0571 32.2 90.0571 32.7886ZM88.9086 34.3446V32.5972C88.9086 32.1938 88.8839 31.8398 88.8345 31.5352C88.7893 31.2264 88.7213 30.963 88.6308 30.7448C88.5402 30.5266 88.4249 30.3496 88.285 30.2138C88.1491 30.078 87.9907 29.9792 87.8095 29.9174C87.6325 29.8515 87.4329 29.8186 87.2106 29.8186C86.9389 29.8186 86.6981 29.8701 86.4882 29.973C86.2782 30.0718 86.1012 30.2303 85.9572 30.4484C85.8172 30.6666 85.7102 30.9527 85.6361 31.3067C85.562 31.6607 85.5249 32.0909 85.5249 32.5972V34.3446C85.5249 34.748 85.5476 35.1041 85.5929 35.4128C85.6422 35.7216 85.7143 35.9891 85.809 36.2155C85.9036 36.4378 86.0189 36.621 86.1547 36.7651C86.2906 36.9091 86.447 37.0162 86.624 37.0862C86.8051 37.152 87.0048 37.1849 87.223 37.1849C87.5029 37.1849 87.7478 37.1314 87.9577 37.0244C88.1677 36.9174 88.3426 36.7507 88.4826 36.5243C88.6267 36.2937 88.7337 35.9994 88.8037 35.6413C88.8736 35.279 88.9086 34.8468 88.9086 34.3446ZM97.1703 32.7886V34.1594C97.1703 34.8962 97.1044 35.5178 96.9727 36.0241C96.841 36.5304 96.6516 36.938 96.4046 37.2467C96.1576 37.5554 95.8592 37.7798 95.5093 37.9197C95.1635 38.0556 94.7725 38.1235 94.3361 38.1235C93.9903 38.1235 93.6713 38.0803 93.3791 37.9938C93.0868 37.9074 92.8233 37.7695 92.5887 37.5801C92.3582 37.3867 92.1606 37.1356 91.9959 36.8268C91.8313 36.5181 91.7057 36.1435 91.6193 35.703C91.5328 35.2626 91.4896 34.748 91.4896 34.1594V32.7886C91.4896 32.0518 91.5555 31.4343 91.6872 30.9362C91.8231 30.4381 92.0145 30.0388 92.2615 29.7383C92.5084 29.4337 92.8048 29.2156 93.1506 29.0838C93.5005 28.9521 93.8916 28.8862 94.3238 28.8862C94.6737 28.8862 94.9948 28.9295 95.287 29.0159C95.5834 29.0982 95.8469 29.232 96.0774 29.4173C96.3079 29.5984 96.5034 29.8413 96.664 30.1459C96.8286 30.4464 96.9542 30.8148 97.0406 31.2511C97.1271 31.6875 97.1703 32.2 97.1703 32.7886ZM96.0218 34.3446V32.5972C96.0218 32.1938 95.9971 31.8398 95.9477 31.5352C95.9024 31.2264 95.8345 30.963 95.7439 30.7448C95.6534 30.5266 95.5381 30.3496 95.3982 30.2138C95.2623 30.078 95.1038 29.9792 94.9227 29.9174C94.7457 29.8515 94.5461 29.8186 94.3238 29.8186C94.0521 29.8186 93.8113 29.8701 93.6013 29.973C93.3914 30.0718 93.2144 30.2303 93.0703 30.4484C92.9304 30.6666 92.8233 30.9527 92.7492 31.3067C92.6752 31.6607 92.6381 32.0909 92.6381 32.5972V34.3446C92.6381 34.748 92.6607 35.1041 92.706 35.4128C92.7554 35.7216 92.8275 35.9891 92.9221 36.2155C93.0168 36.4378 93.1321 36.621 93.2679 36.7651C93.4038 36.9091 93.5602 37.0162 93.7372 37.0862C93.9183 37.152 94.118 37.1849 94.3361 37.1849C94.616 37.1849 94.861 37.1314 95.0709 37.0244C95.2808 36.9174 95.4558 36.7507 95.5958 36.5243C95.7398 36.2937 95.8469 35.9994 95.9168 35.6413C95.9868 35.279 96.0218 34.8468 96.0218 34.3446Z" fill="#2C2C2C"/>
<path d="M143.479 33.3412L145.772 35.6333L149.486 31.5234" stroke="#3E9A00" stroke-width="1.58071" stroke-miterlimit="10" stroke-linecap="round" stroke-linejoin="round"/>
<path d="M146.562 39.8175C150.054 39.8175 152.885 36.9867 152.885 33.4947C152.885 30.0027 150.054 27.1719 146.562 27.1719C143.07 27.1719 140.239 30.0027 140.239 33.4947C140.239 36.9867 143.07 39.8175 146.562 39.8175Z" stroke="#3E9A00" stroke-width="1.58071" stroke-miterlimit="10"/>
<rect x="0.395176" y="20.3952" width="161.21" height="26.2096" rx="4.34694" stroke="#959595" stroke-width="0.790353"/>
</svg>
