<svg width="307" height="92" viewBox="0 0 307 92" fill="none" xmlns="http://www.w3.org/2000/svg">
<rect x="1.51482" y="41.2101" width="304.556" height="49.7968" rx="9.44422" fill="#FDFBF9" stroke="#959595" stroke-width="1.71713"/>
<path d="M23.7845 73.3782V75.4844H14.0184V73.3782H23.7845ZM14.5281 55.952V75.4844H11.939V55.952H14.5281ZM25.7163 68.3878V68.0793C25.7163 67.0329 25.8683 66.0625 26.1724 65.1682C26.4765 64.2649 26.9147 63.4824 27.4871 62.8205C28.0595 62.1498 28.7526 61.6311 29.5664 61.2644C30.3803 60.8888 31.2925 60.701 32.3031 60.701C33.3227 60.701 34.2394 60.8888 35.0532 61.2644C35.876 61.6311 36.5736 62.1498 37.146 62.8205C37.7273 63.4824 38.17 64.2649 38.4741 65.1682C38.7781 66.0625 38.9302 67.0329 38.9302 68.0793V68.3878C38.9302 69.4342 38.7781 70.4045 38.4741 71.2989C38.17 72.1932 37.7273 72.9758 37.146 73.6465C36.5736 74.3083 35.8805 74.827 35.0666 75.2027C34.2617 75.5693 33.3495 75.7527 32.3299 75.7527C31.3104 75.7527 30.3937 75.5693 29.5799 75.2027C28.766 74.827 28.0684 74.3083 27.4871 73.6465C26.9147 72.9758 26.4765 72.1932 26.1724 71.2989C25.8683 70.4045 25.7163 69.4342 25.7163 68.3878ZM28.1981 68.0793V68.3878C28.1981 69.1122 28.2831 69.7964 28.453 70.4403C28.6229 71.0753 28.8778 71.6387 29.2176 72.1306C29.5664 72.6225 30.0002 73.0115 30.5189 73.2977C31.0376 73.575 31.6413 73.7136 32.3299 73.7136C33.0096 73.7136 33.6044 73.575 34.1141 73.2977C34.6329 73.0115 35.0621 72.6225 35.402 72.1306C35.7418 71.6387 35.9967 71.0753 36.1667 70.4403C36.3455 69.7964 36.435 69.1122 36.435 68.3878V68.0793C36.435 67.3638 36.3455 66.6886 36.1667 66.0536C35.9967 65.4097 35.7374 64.8417 35.3886 64.3499C35.0487 63.849 34.6195 63.4555 34.1007 63.1693C33.591 62.8831 32.9918 62.74 32.3031 62.74C31.6234 62.74 31.0242 62.8831 30.5055 63.1693C29.9957 63.4555 29.5664 63.849 29.2176 64.3499C28.8778 64.8417 28.6229 65.4097 28.453 66.0536C28.2831 66.6886 28.1981 67.3638 28.1981 68.0793ZM42.1095 60.9693H44.6047V77.2149C44.6047 78.1003 44.4616 78.8516 44.1755 79.4687C43.8982 80.0857 43.4779 80.5508 42.9144 80.8638C42.36 81.1858 41.6579 81.3468 40.8083 81.3468C40.5847 81.3468 40.3253 81.3244 40.0302 81.2797C39.7261 81.235 39.4712 81.1813 39.2655 81.1187L39.279 79.1199C39.4489 79.1556 39.6412 79.1825 39.8558 79.2004C40.0704 79.2272 40.2583 79.2406 40.4192 79.2406C40.7859 79.2406 41.0945 79.1735 41.3449 79.0394C41.5953 78.9052 41.7831 78.6906 41.9083 78.3954C42.0425 78.1003 42.1095 77.7068 42.1095 77.2149V60.9693ZM41.8547 57.1191C41.8547 56.7167 41.9799 56.3768 42.2303 56.0996C42.4807 55.8223 42.8429 55.6837 43.3169 55.6837C43.7998 55.6837 44.1665 55.8223 44.4169 56.0996C44.6673 56.3768 44.7926 56.7167 44.7926 57.1191C44.7926 57.5037 44.6673 57.8346 44.4169 58.1118C44.1665 58.3801 43.7998 58.5143 43.3169 58.5143C42.8429 58.5143 42.4807 58.3801 42.2303 58.1118C41.9799 57.8346 41.8547 57.5037 41.8547 57.1191ZM57.1747 73.0026V65.5304C57.1747 64.958 57.0584 64.4617 56.8259 64.0413C56.6023 63.612 56.2624 63.2811 55.8063 63.0486C55.3502 62.8161 54.7868 62.6998 54.116 62.6998C53.49 62.6998 52.94 62.8071 52.466 63.0218C52.0009 63.2364 51.6342 63.5181 51.3659 63.8669C51.1066 64.2157 50.9769 64.5913 50.9769 64.9938H48.4951C48.4951 64.4751 48.6293 63.9608 48.8976 63.451C49.1659 62.9413 49.5504 62.4807 50.0513 62.0693C50.561 61.649 51.1692 61.3181 51.8757 61.0766C52.5912 60.8262 53.3871 60.701 54.2636 60.701C55.3189 60.701 56.249 60.8798 57.0539 61.2376C57.8678 61.5953 58.5028 62.1364 58.9589 62.8608C59.4239 63.5763 59.6565 64.4751 59.6565 65.5572V72.3184C59.6565 72.8014 59.6967 73.3156 59.7772 73.8612C59.8666 74.4067 59.9963 74.8762 60.1662 75.2697V75.4844H57.5771C57.4519 75.1982 57.3535 74.8181 57.282 74.3441C57.2104 73.8612 57.1747 73.414 57.1747 73.0026ZM57.604 66.6841L57.6308 68.428H55.1222C54.4156 68.428 53.7851 68.4862 53.2306 68.6024C52.6761 68.7098 52.2111 68.8752 51.8355 69.0988C51.4598 69.3224 51.1737 69.6041 50.9769 69.9439C50.7801 70.2749 50.6818 70.6639 50.6818 71.1111C50.6818 71.5672 50.7846 71.983 50.9903 72.3587C51.196 72.7343 51.5046 73.0339 51.916 73.2575C52.3363 73.4721 52.8505 73.5794 53.4587 73.5794C54.2189 73.5794 54.8896 73.4185 55.471 73.0965C56.0523 72.7745 56.5129 72.381 56.8527 71.916C57.2015 71.4509 57.3893 70.9993 57.4161 70.561L58.4759 71.755C58.4133 72.1306 58.2434 72.5465 57.9662 73.0026C57.6889 73.4587 57.3178 73.8969 56.8527 74.3173C56.3966 74.7287 55.851 75.073 55.2161 75.3502C54.59 75.6185 53.8835 75.7527 53.0965 75.7527C52.1127 75.7527 51.2497 75.5604 50.5074 75.1758C49.774 74.7913 49.2016 74.277 48.7902 73.6331C48.3878 72.9802 48.1866 72.2513 48.1866 71.4464C48.1866 70.6684 48.3386 69.9842 48.6427 69.3939C48.9468 68.7947 49.385 68.2984 49.9574 67.9049C50.5297 67.5024 51.2184 67.1983 52.0233 66.9926C52.8282 66.7869 53.727 66.6841 54.7197 66.6841H57.604ZM79.5242 72.6672V54.8788H82.0194V75.4844H79.7388L79.5242 72.6672ZM69.758 68.3878V68.1061C69.758 66.9971 69.8922 65.991 70.1605 65.0877C70.4377 64.1755 70.8267 63.3929 71.3276 62.74C71.8374 62.0872 72.441 61.5864 73.1386 61.2376C73.8451 60.8798 74.6322 60.701 75.4997 60.701C76.4119 60.701 77.2079 60.8619 77.8876 61.1839C78.5762 61.4969 79.1575 61.9575 79.6315 62.5657C80.1145 63.1649 80.4945 63.8893 80.7718 64.7389C81.049 65.5885 81.2413 66.5499 81.3486 67.6231V68.8573C81.2503 69.9216 81.058 70.8785 80.7718 71.7282C80.4945 72.5778 80.1145 73.3022 79.6315 73.9014C79.1575 74.5006 78.5762 74.9612 77.8876 75.2831C77.1989 75.5962 76.394 75.7527 75.4728 75.7527C74.6232 75.7527 73.8451 75.5693 73.1386 75.2027C72.441 74.836 71.8374 74.3217 71.3276 73.6599C70.8267 72.9981 70.4377 72.22 70.1605 71.3257C69.8922 70.4224 69.758 69.4431 69.758 68.3878ZM72.2532 68.1061V68.3878C72.2532 69.1122 72.3248 69.7919 72.4679 70.4269C72.6199 71.0619 72.8524 71.6208 73.1654 72.1038C73.4785 72.5867 73.8764 72.9668 74.3594 73.2441C74.8423 73.5124 75.4192 73.6465 76.0899 73.6465C76.9127 73.6465 77.5879 73.4721 78.1156 73.1233C78.6522 72.7745 79.0815 72.3139 79.4035 71.7416C79.7254 71.1692 79.9758 70.5476 80.1547 69.8769V66.6438C80.0474 66.152 79.8909 65.678 79.6852 65.2218C79.4884 64.7568 79.2291 64.3454 78.9071 63.9877C78.5941 63.621 78.205 63.3303 77.74 63.1157C77.2839 62.901 76.7428 62.7937 76.1168 62.7937C75.4371 62.7937 74.8513 62.9368 74.3594 63.223C73.8764 63.5002 73.4785 63.8848 73.1654 64.3767C72.8524 64.8596 72.6199 65.4231 72.4679 66.067C72.3248 66.702 72.2532 67.3817 72.2532 68.1061ZM91.9063 75.7527C90.8957 75.7527 89.979 75.5828 89.1562 75.2429C88.3424 74.8941 87.6403 74.4067 87.0501 73.7807C86.4687 73.1546 86.0216 72.4123 85.7085 71.5538C85.3955 70.6952 85.239 69.7561 85.239 68.7366V68.1732C85.239 66.9926 85.4134 65.9418 85.7622 65.0206C86.111 64.0905 86.585 63.3035 87.1842 62.6596C87.7834 62.0156 88.4631 61.5282 89.2233 61.1973C89.9835 60.8664 90.7705 60.701 91.5844 60.701C92.6218 60.701 93.5161 60.8798 94.2674 61.2376C95.0276 61.5953 95.6491 62.0961 96.1321 62.74C96.615 63.375 96.9727 64.1263 97.2053 64.9938C97.4378 65.8523 97.5541 66.7914 97.5541 67.8109V68.9244H86.7147V66.8987H95.0723V66.7109C95.0365 66.067 94.9023 65.441 94.6698 64.8328C94.4462 64.2247 94.0885 63.7238 93.5966 63.3303C93.1047 62.9368 92.434 62.74 91.5844 62.74C91.0209 62.74 90.5022 62.8608 90.0282 63.1023C89.5542 63.3348 89.1473 63.6836 88.8074 64.1486C88.4676 64.6137 88.2038 65.1816 88.0159 65.8523C87.8281 66.5231 87.7342 67.2967 87.7342 68.1732V68.7366C87.7342 69.4252 87.8281 70.0736 88.0159 70.6818C88.2127 71.281 88.4944 71.8086 88.8611 72.2648C89.2367 72.7209 89.6884 73.0786 90.216 73.338C90.7526 73.5973 91.3608 73.727 92.0405 73.727C92.9169 73.727 93.6592 73.5481 94.2674 73.1904C94.8755 72.8327 95.4076 72.3542 95.8638 71.755L97.3663 72.9489C97.0532 73.4229 96.6553 73.8746 96.1723 74.3038C95.6894 74.7331 95.0946 75.0819 94.3881 75.3502C93.6905 75.6185 92.8633 75.7527 91.9063 75.7527ZM118.052 70.5476C118.052 70.0915 117.981 69.6891 117.838 69.3403C117.704 68.9825 117.462 68.6606 117.113 68.3744C116.773 68.0882 116.299 67.8154 115.691 67.5561C115.092 67.2967 114.332 67.0329 113.411 66.7646C112.445 66.4784 111.573 66.1609 110.795 65.8121C110.017 65.4544 109.35 65.0474 108.796 64.5913C108.241 64.1352 107.817 63.612 107.521 63.0218C107.226 62.4315 107.079 61.7563 107.079 60.9961C107.079 60.2359 107.235 59.5338 107.548 58.8899C107.861 58.246 108.308 57.687 108.89 57.213C109.48 56.7301 110.182 56.3545 110.996 56.0862C111.81 55.8179 112.718 55.6837 113.719 55.6837C115.186 55.6837 116.429 55.9654 117.449 56.5289C118.477 57.0834 119.26 57.8122 119.796 58.7155C120.333 59.6099 120.601 60.5668 120.601 61.5864H118.025C118.025 60.853 117.869 60.2046 117.556 59.6412C117.243 59.0688 116.769 58.6216 116.134 58.2997C115.499 57.9688 114.694 57.8033 113.719 57.8033C112.798 57.8033 112.038 57.9419 111.439 58.2192C110.839 58.4964 110.392 58.872 110.097 59.346C109.811 59.82 109.668 60.3611 109.668 60.9693C109.668 61.3807 109.753 61.7563 109.923 62.0961C110.102 62.427 110.374 62.7356 110.741 63.0218C111.117 63.308 111.591 63.5718 112.163 63.8133C112.744 64.0547 113.438 64.2873 114.242 64.5108C115.351 64.8239 116.308 65.1727 117.113 65.5572C117.918 65.9418 118.58 66.3755 119.099 66.8585C119.626 67.3325 120.015 67.8736 120.266 68.4817C120.525 69.0809 120.655 69.7606 120.655 70.5208C120.655 71.3168 120.494 72.0367 120.172 72.6806C119.85 73.3245 119.389 73.8746 118.79 74.3307C118.191 74.7868 117.471 75.1401 116.63 75.3905C115.799 75.6319 114.868 75.7527 113.84 75.7527C112.937 75.7527 112.047 75.6275 111.17 75.3771C110.303 75.1266 109.511 74.751 108.796 74.2502C108.089 73.7494 107.521 73.1323 107.092 72.3989C106.672 71.6566 106.462 70.798 106.462 69.8232H109.037C109.037 70.494 109.167 71.0708 109.426 71.5538C109.686 72.0278 110.039 72.4213 110.486 72.7343C110.942 73.0473 111.457 73.2798 112.029 73.4319C112.61 73.575 113.214 73.6465 113.84 73.6465C114.743 73.6465 115.508 73.5213 116.134 73.2709C116.76 73.0205 117.234 72.6627 117.556 72.1977C117.887 71.7326 118.052 71.1826 118.052 70.5476ZM132.138 73.0026V65.5304C132.138 64.958 132.022 64.4617 131.789 64.0413C131.566 63.612 131.226 63.2811 130.77 63.0486C130.314 62.8161 129.75 62.6998 129.079 62.6998C128.453 62.6998 127.903 62.8071 127.429 63.0218C126.964 63.2364 126.598 63.5181 126.329 63.8669C126.07 64.2157 125.94 64.5913 125.94 64.9938H123.459C123.459 64.4751 123.593 63.9608 123.861 63.451C124.129 62.9413 124.514 62.4807 125.015 62.0693C125.525 61.649 126.133 61.3181 126.839 61.0766C127.555 60.8262 128.351 60.701 129.227 60.701C130.282 60.701 131.212 60.8798 132.017 61.2376C132.831 61.5953 133.466 62.1364 133.922 62.8608C134.387 63.5763 134.62 64.4751 134.62 65.5572V72.3184C134.62 72.8014 134.66 73.3156 134.741 73.8612C134.83 74.4067 134.96 74.8762 135.13 75.2697V75.4844H132.541C132.415 75.1982 132.317 74.8181 132.245 74.3441C132.174 73.8612 132.138 73.414 132.138 73.0026ZM132.567 66.6841L132.594 68.428H130.086C129.379 68.428 128.749 68.4862 128.194 68.6024C127.64 68.7098 127.175 68.8752 126.799 69.0988C126.423 69.3224 126.137 69.6041 125.94 69.9439C125.744 70.2749 125.645 70.6639 125.645 71.1111C125.645 71.5672 125.748 71.983 125.954 72.3587C126.159 72.7343 126.468 73.0339 126.879 73.2575C127.3 73.4721 127.814 73.5794 128.422 73.5794C129.182 73.5794 129.853 73.4185 130.434 73.0965C131.016 72.7745 131.476 72.381 131.816 71.916C132.165 71.4509 132.353 70.9993 132.38 70.561L133.439 71.755C133.377 72.1306 133.207 72.5465 132.93 73.0026C132.652 73.4587 132.281 73.8969 131.816 74.3173C131.36 74.7287 130.815 75.073 130.18 75.3502C129.553 75.6185 128.847 75.7527 128.06 75.7527C127.076 75.7527 126.213 75.5604 125.471 75.1758C124.737 74.7913 124.165 74.277 123.754 73.6331C123.351 72.9802 123.15 72.2513 123.15 71.4464C123.15 70.6684 123.302 69.9842 123.606 69.3939C123.91 68.7947 124.348 68.2984 124.921 67.9049C125.493 67.5024 126.182 67.1983 126.987 66.9926C127.792 66.7869 128.69 66.6841 129.683 66.6841H132.567ZM132.581 55.1471L134.258 55.2947C134.258 55.9475 134.128 56.5199 133.869 57.0118C133.609 57.5037 133.261 57.8838 132.822 58.1521C132.393 58.4204 131.906 58.5545 131.36 58.5545C130.904 58.5545 130.528 58.4919 130.233 58.3667C129.938 58.2326 129.674 58.085 129.442 57.924C129.209 57.7541 128.963 57.6065 128.704 57.4813C128.453 57.3472 128.14 57.2801 127.765 57.2801C127.389 57.2801 127.072 57.4232 126.812 57.7094C126.562 57.9956 126.437 58.3488 126.437 58.7692L124.76 58.6887C124.76 58.0358 124.885 57.4635 125.135 56.9716C125.395 56.4707 125.744 56.0817 126.182 55.8045C126.62 55.5183 127.107 55.3752 127.644 55.3752C128.029 55.3752 128.364 55.4422 128.65 55.5764C128.945 55.7016 129.223 55.8492 129.482 56.0191C129.741 56.1801 130.01 56.3276 130.287 56.4618C130.564 56.587 130.882 56.6496 131.239 56.6496C131.615 56.6496 131.932 56.5065 132.192 56.2203C132.451 55.9252 132.581 55.5675 132.581 55.1471ZM137.866 68.3878V68.0793C137.866 67.0329 138.018 66.0625 138.322 65.1682C138.627 64.2649 139.065 63.4824 139.637 62.8205C140.21 62.1498 140.903 61.6311 141.717 61.2644C142.53 60.8888 143.443 60.701 144.453 60.701C145.473 60.701 146.389 60.8888 147.203 61.2644C148.026 61.6311 148.724 62.1498 149.296 62.8205C149.877 63.4824 150.32 64.2649 150.624 65.1682C150.928 66.0625 151.08 67.0329 151.08 68.0793V68.3878C151.08 69.4342 150.928 70.4045 150.624 71.2989C150.32 72.1932 149.877 72.9758 149.296 73.6465C148.724 74.3083 148.031 74.827 147.217 75.2027C146.412 75.5693 145.5 75.7527 144.48 75.7527C143.46 75.7527 142.544 75.5693 141.73 75.2027C140.916 74.827 140.218 74.3083 139.637 73.6465C139.065 72.9758 138.627 72.1932 138.322 71.2989C138.018 70.4045 137.866 69.4342 137.866 68.3878ZM140.348 68.0793V68.3878C140.348 69.1122 140.433 69.7964 140.603 70.4403C140.773 71.0753 141.028 71.6387 141.368 72.1306C141.717 72.6225 142.15 73.0115 142.669 73.2977C143.188 73.575 143.791 73.7136 144.48 73.7136C145.16 73.7136 145.754 73.575 146.264 73.2977C146.783 73.0115 147.212 72.6225 147.552 72.1306C147.892 71.6387 148.147 71.0753 148.317 70.4403C148.496 69.7964 148.585 69.1122 148.585 68.3878V68.0793C148.585 67.3638 148.496 66.6886 148.317 66.0536C148.147 65.4097 147.887 64.8417 147.539 64.3499C147.199 63.849 146.77 63.4555 146.251 63.1693C145.741 62.8831 145.142 62.74 144.453 62.74C143.773 62.74 143.174 62.8831 142.656 63.1693C142.146 63.4555 141.717 63.849 141.368 64.3499C141.028 64.8417 140.773 65.4097 140.603 66.0536C140.433 66.6886 140.348 67.3638 140.348 68.0793ZM171.793 70.5476C171.793 70.0915 171.722 69.6891 171.578 69.3403C171.444 68.9825 171.203 68.6606 170.854 68.3744C170.514 68.0882 170.04 67.8154 169.432 67.5561C168.833 67.2967 168.073 67.0329 167.151 66.7646C166.186 66.4784 165.314 66.1609 164.536 65.8121C163.757 65.4544 163.091 65.0474 162.537 64.5913C161.982 64.1352 161.557 63.612 161.262 63.0218C160.967 62.4315 160.82 61.7563 160.82 60.9961C160.82 60.2359 160.976 59.5338 161.289 58.8899C161.602 58.246 162.049 57.687 162.631 57.213C163.221 56.7301 163.923 56.3545 164.737 56.0862C165.551 55.8179 166.458 55.6837 167.46 55.6837C168.927 55.6837 170.17 55.9654 171.189 56.5289C172.218 57.0834 173 57.8122 173.537 58.7155C174.074 59.6099 174.342 60.5668 174.342 61.5864H171.766C171.766 60.853 171.61 60.2046 171.297 59.6412C170.984 59.0688 170.51 58.6216 169.875 58.2997C169.24 57.9688 168.435 57.8033 167.46 57.8033C166.539 57.8033 165.779 57.9419 165.179 58.2192C164.58 58.4964 164.133 58.872 163.838 59.346C163.552 59.82 163.409 60.3611 163.409 60.9693C163.409 61.3807 163.494 61.7563 163.664 62.0961C163.842 62.427 164.115 62.7356 164.482 63.0218C164.858 63.308 165.332 63.5718 165.904 63.8133C166.485 64.0547 167.178 64.2873 167.983 64.5108C169.092 64.8239 170.049 65.1727 170.854 65.5572C171.659 65.9418 172.321 66.3755 172.839 66.8585C173.367 67.3325 173.756 67.8736 174.007 68.4817C174.266 69.0809 174.396 69.7606 174.396 70.5208C174.396 71.3168 174.235 72.0367 173.913 72.6806C173.591 73.3245 173.13 73.8746 172.531 74.3307C171.932 74.7868 171.212 75.1401 170.371 75.3905C169.539 75.6319 168.609 75.7527 167.581 75.7527C166.677 75.7527 165.788 75.6275 164.911 75.3771C164.044 75.1266 163.252 74.751 162.537 74.2502C161.83 73.7494 161.262 73.1323 160.833 72.3989C160.413 71.6566 160.202 70.798 160.202 69.8232H162.778C162.778 70.494 162.908 71.0708 163.167 71.5538C163.427 72.0278 163.78 72.4213 164.227 72.7343C164.683 73.0473 165.197 73.2798 165.77 73.4319C166.351 73.575 166.955 73.6465 167.581 73.6465C168.484 73.6465 169.249 73.5213 169.875 73.2709C170.501 73.0205 170.975 72.6627 171.297 72.1977C171.628 71.7326 171.793 71.1826 171.793 70.5476ZM183.343 75.7527C182.333 75.7527 181.416 75.5828 180.593 75.2429C179.78 74.8941 179.077 74.4067 178.487 73.7807C177.906 73.1546 177.459 72.4123 177.146 71.5538C176.833 70.6952 176.676 69.7561 176.676 68.7366V68.1732C176.676 66.9926 176.851 65.9418 177.199 65.0206C177.548 64.0905 178.022 63.3035 178.621 62.6596C179.221 62.0156 179.9 61.5282 180.66 61.1973C181.421 60.8664 182.208 60.701 183.022 60.701C184.059 60.701 184.953 60.8798 185.705 61.2376C186.465 61.5953 187.086 62.0961 187.569 62.74C188.052 63.375 188.41 64.1263 188.642 64.9938C188.875 65.8523 188.991 66.7914 188.991 67.8109V68.9244H178.152V66.8987H186.509V66.7109C186.474 66.067 186.34 65.441 186.107 64.8328C185.883 64.2247 185.526 63.7238 185.034 63.3303C184.542 62.9368 183.871 62.74 183.022 62.74C182.458 62.74 181.939 62.8608 181.465 63.1023C180.991 63.3348 180.584 63.6836 180.245 64.1486C179.905 64.6137 179.641 65.1816 179.453 65.8523C179.265 66.5231 179.171 67.2967 179.171 68.1732V68.7366C179.171 69.4252 179.265 70.0736 179.453 70.6818C179.65 71.281 179.932 71.8086 180.298 72.2648C180.674 72.7209 181.126 73.0786 181.653 73.338C182.19 73.5973 182.798 73.727 183.478 73.727C184.354 73.727 185.096 73.5481 185.705 73.1904C186.313 72.8327 186.845 72.3542 187.301 71.755L188.803 72.9489C188.49 73.4229 188.092 73.8746 187.609 74.3038C187.127 74.7331 186.532 75.0819 185.825 75.3502C185.128 75.6185 184.3 75.7527 183.343 75.7527ZM196.115 73.2441L200.086 60.9693H202.621L197.402 75.4844H195.739L196.115 73.2441ZM192.801 60.9693L196.893 73.3111L197.174 75.4844H195.511L190.252 60.9693H192.801ZM210.844 75.7527C209.834 75.7527 208.917 75.5828 208.094 75.2429C207.28 74.8941 206.578 74.4067 205.988 73.7807C205.407 73.1546 204.96 72.4123 204.647 71.5538C204.334 70.6952 204.177 69.7561 204.177 68.7366V68.1732C204.177 66.9926 204.352 65.9418 204.7 65.0206C205.049 64.0905 205.523 63.3035 206.122 62.6596C206.722 62.0156 207.401 61.5282 208.161 61.1973C208.922 60.8664 209.709 60.701 210.522 60.701C211.56 60.701 212.454 60.8798 213.205 61.2376C213.966 61.5953 214.587 62.0961 215.07 62.74C215.553 63.375 215.911 64.1263 216.143 64.9938C216.376 65.8523 216.492 66.7914 216.492 67.8109V68.9244H205.653V66.8987H214.01V66.7109C213.975 66.067 213.84 65.441 213.608 64.8328C213.384 64.2247 213.027 63.7238 212.535 63.3303C212.043 62.9368 211.372 62.74 210.522 62.74C209.959 62.74 209.44 62.8608 208.966 63.1023C208.492 63.3348 208.085 63.6836 207.746 64.1486C207.406 64.6137 207.142 65.1816 206.954 65.8523C206.766 66.5231 206.672 67.2967 206.672 68.1732V68.7366C206.672 69.4252 206.766 70.0736 206.954 70.6818C207.151 71.281 207.432 71.8086 207.799 72.2648C208.175 72.7209 208.626 73.0786 209.154 73.338C209.691 73.5973 210.299 73.727 210.979 73.727C211.855 73.727 212.597 73.5481 213.205 73.1904C213.814 72.8327 214.346 72.3542 214.802 71.755L216.304 72.9489C215.991 73.4229 215.593 73.8746 215.11 74.3038C214.627 74.7331 214.033 75.0819 213.326 75.3502C212.629 75.6185 211.801 75.7527 210.844 75.7527ZM221.872 63.2498V75.4844H219.39V60.9693H221.805L221.872 63.2498ZM226.406 60.8888L226.392 63.1962C226.187 63.1514 225.99 63.1246 225.802 63.1157C225.623 63.0978 225.418 63.0888 225.185 63.0888C224.613 63.0888 224.107 63.1783 223.669 63.3571C223.231 63.536 222.86 63.7864 222.556 64.1084C222.252 64.4303 222.01 64.8149 221.831 65.2621C221.661 65.7003 221.55 66.1833 221.496 66.7109L220.798 67.1134C220.798 66.2369 220.883 65.4141 221.053 64.645C221.232 63.8759 221.505 63.1962 221.872 62.6059C222.238 62.0067 222.703 61.5416 223.267 61.2107C223.839 60.8709 224.519 60.701 225.306 60.701C225.485 60.701 225.69 60.7233 225.923 60.768C226.155 60.8038 226.316 60.8441 226.406 60.8888ZM231.396 60.9693V75.4844H228.901V60.9693H231.396ZM228.713 57.1191C228.713 56.7167 228.834 56.3768 229.075 56.0996C229.326 55.8223 229.693 55.6837 230.176 55.6837C230.65 55.6837 231.012 55.8223 231.262 56.0996C231.522 56.3768 231.651 56.7167 231.651 57.1191C231.651 57.5037 231.522 57.8346 231.262 58.1118C231.012 58.3801 230.65 58.5143 230.176 58.5143C229.693 58.5143 229.326 58.3801 229.075 58.1118C228.834 57.8346 228.713 57.5037 228.713 57.1191ZM237.862 64.0681V75.4844H235.381V60.9693H237.728L237.862 64.0681ZM237.272 67.6768L236.239 67.6366C236.248 66.6438 236.396 65.7271 236.682 64.8865C236.968 64.0368 237.37 63.299 237.889 62.673C238.408 62.0469 239.025 61.564 239.74 61.2241C240.465 60.8754 241.265 60.701 242.142 60.701C242.857 60.701 243.501 60.7993 244.074 60.9961C244.646 61.1839 245.133 61.488 245.536 61.9083C245.947 62.3287 246.26 62.8742 246.475 63.545C246.689 64.2068 246.797 65.0161 246.797 65.9731V75.4844H244.302V65.9463C244.302 65.1861 244.19 64.5779 243.966 64.1218C243.743 63.6567 243.416 63.3214 242.987 63.1157C242.558 62.901 242.03 62.7937 241.404 62.7937C240.787 62.7937 240.223 62.9234 239.714 63.1827C239.213 63.4421 238.779 63.7998 238.412 64.256C238.055 64.7121 237.773 65.2353 237.567 65.8255C237.37 66.4068 237.272 67.0239 237.272 67.6768ZM249.909 68.3878V68.0793C249.909 67.0329 250.061 66.0625 250.365 65.1682C250.669 64.2649 251.108 63.4824 251.68 62.8205C252.252 62.1498 252.945 61.6311 253.759 61.2644C254.573 60.8888 255.485 60.701 256.496 60.701C257.515 60.701 258.432 60.8888 259.246 61.2644C260.069 61.6311 260.766 62.1498 261.339 62.8205C261.92 63.4824 262.363 64.2649 262.667 65.1682C262.971 66.0625 263.123 67.0329 263.123 68.0793V68.3878C263.123 69.4342 262.971 70.4045 262.667 71.2989C262.363 72.1932 261.92 72.9758 261.339 73.6465C260.766 74.3083 260.073 74.827 259.259 75.2027C258.455 75.5693 257.542 75.7527 256.523 75.7527C255.503 75.7527 254.587 75.5693 253.773 75.2027C252.959 74.827 252.261 74.3083 251.68 73.6465C251.108 72.9758 250.669 72.1932 250.365 71.2989C250.061 70.4045 249.909 69.4342 249.909 68.3878ZM252.391 68.0793V68.3878C252.391 69.1122 252.476 69.7964 252.646 70.4403C252.816 71.0753 253.071 71.6387 253.41 72.1306C253.759 72.6225 254.193 73.0115 254.712 73.2977C255.23 73.575 255.834 73.7136 256.523 73.7136C257.202 73.7136 257.797 73.575 258.307 73.2977C258.826 73.0115 259.255 72.6225 259.595 72.1306C259.935 71.6387 260.19 71.0753 260.359 70.4403C260.538 69.7964 260.628 69.1122 260.628 68.3878V68.0793C260.628 67.3638 260.538 66.6886 260.359 66.0536C260.19 65.4097 259.93 64.8417 259.581 64.3499C259.242 63.849 258.812 63.4555 258.294 63.1693C257.784 62.8831 257.185 62.74 256.496 62.74C255.816 62.74 255.217 62.8831 254.698 63.1693C254.189 63.4555 253.759 63.849 253.41 64.3499C253.071 64.8417 252.816 65.4097 252.646 66.0536C252.476 66.6886 252.391 67.3638 252.391 68.0793ZM273.09 74.1697C273.09 73.7494 273.22 73.3961 273.479 73.1099C273.748 72.8148 274.132 72.6672 274.633 72.6672C275.134 72.6672 275.514 72.8148 275.773 73.1099C276.042 73.3961 276.176 73.7494 276.176 74.1697C276.176 74.5811 276.042 74.9299 275.773 75.2161C275.514 75.5023 275.134 75.6454 274.633 75.6454C274.132 75.6454 273.748 75.5023 273.479 75.2161C273.22 74.9299 273.09 74.5811 273.09 74.1697ZM280.335 74.1697C280.335 73.7494 280.464 73.3961 280.724 73.1099C280.992 72.8148 281.376 72.6672 281.877 72.6672C282.378 72.6672 282.758 72.8148 283.018 73.1099C283.286 73.3961 283.42 73.7494 283.42 74.1697C283.42 74.5811 283.286 74.9299 283.018 75.2161C282.758 75.5023 282.378 75.6454 281.877 75.6454C281.376 75.6454 280.992 75.5023 280.724 75.2161C280.464 74.9299 280.335 74.5811 280.335 74.1697ZM287.579 74.1697C287.579 73.7494 287.708 73.3961 287.968 73.1099C288.236 72.8148 288.621 72.6672 289.121 72.6672C289.622 72.6672 290.002 72.8148 290.262 73.1099C290.53 73.3961 290.664 73.7494 290.664 74.1697C290.664 74.5811 290.53 74.9299 290.262 75.2161C290.002 75.5023 289.622 75.6454 289.121 75.6454C288.621 75.6454 288.236 75.5023 287.968 75.2161C287.708 74.9299 287.579 74.5811 287.579 74.1697Z" fill="#959595"/>
<path d="M24.1765 21.6577V24.7969H14.3432V21.6577H24.1765ZM15.6445 5.26452V24.7969H11.6199V5.26452H15.6445ZM25.6253 17.6869V17.4052C25.6253 16.3409 25.7773 15.3616 26.0814 14.4673C26.3855 13.564 26.8282 12.7814 27.4095 12.1196C27.9908 11.4578 28.7063 10.9436 29.5559 10.5769C30.4055 10.2013 31.3803 10.0135 32.4804 10.0135C33.5804 10.0135 34.5597 10.2013 35.4183 10.5769C36.2769 10.9436 36.9968 11.4578 37.5781 12.1196C38.1684 12.7814 38.6155 13.564 38.9196 14.4673C39.2237 15.3616 39.3757 16.3409 39.3757 17.4052V17.6869C39.3757 18.7422 39.2237 19.7215 38.9196 20.6248C38.6155 21.5191 38.1684 22.3017 37.5781 22.9724C36.9968 23.6342 36.2813 24.1485 35.4317 24.5152C34.5821 24.8818 33.6073 25.0652 32.5072 25.0652C31.4072 25.0652 30.4279 24.8818 29.5693 24.5152C28.7197 24.1485 27.9997 23.6342 27.4095 22.9724C26.8282 22.3017 26.3855 21.5191 26.0814 20.6248C25.7773 19.7215 25.6253 18.7422 25.6253 17.6869ZM29.4888 17.4052V17.6869C29.4888 18.295 29.5425 18.8629 29.6498 19.3906C29.7571 19.9183 29.927 20.3833 30.1596 20.7858C30.401 21.1793 30.7141 21.4878 31.0986 21.7114C31.4832 21.935 31.9527 22.0468 32.5072 22.0468C33.0438 22.0468 33.5044 21.935 33.889 21.7114C34.2735 21.4878 34.5821 21.1793 34.8146 20.7858C35.0471 20.3833 35.2171 19.9183 35.3244 19.3906C35.4406 18.8629 35.4988 18.295 35.4988 17.6869V17.4052C35.4988 16.8149 35.4406 16.2604 35.3244 15.7417C35.2171 15.214 35.0427 14.749 34.8012 14.3465C34.5687 13.9351 34.2601 13.6132 33.8756 13.3806C33.491 13.1481 33.0259 13.0319 32.4804 13.0319C31.9348 13.0319 31.4698 13.1481 31.0852 13.3806C30.7096 13.6132 30.401 13.9351 30.1596 14.3465C29.927 14.749 29.7571 15.214 29.6498 15.7417C29.5425 16.2604 29.4888 16.8149 29.4888 17.4052ZM41.9648 10.2818H45.8418V25.6689C45.8418 26.7421 45.645 27.6498 45.2515 28.3921C44.858 29.1344 44.2901 29.6979 43.5478 30.0824C42.8055 30.467 41.9067 30.6593 40.8514 30.6593C40.5205 30.6593 40.1985 30.6414 39.8855 30.6056C39.5635 30.5698 39.2326 30.5117 38.8928 30.4312L38.9062 27.4665C39.1208 27.5022 39.331 27.5291 39.5367 27.547C39.7335 27.5738 39.9347 27.5872 40.1404 27.5872C40.5428 27.5872 40.8782 27.5201 41.1465 27.386C41.4148 27.2518 41.6161 27.0417 41.7502 26.7555C41.8933 26.4782 41.9648 26.116 41.9648 25.6689V10.2818ZM41.6563 6.49871C41.6563 5.93527 41.8531 5.47022 42.2466 5.10354C42.649 4.73686 43.1767 4.55352 43.8295 4.55352C44.4914 4.55352 45.019 4.73686 45.4125 5.10354C45.806 5.47022 46.0028 5.93527 46.0028 6.49871C46.0028 7.06214 45.806 7.5272 45.4125 7.89387C45.019 8.26055 44.4914 8.44389 43.8295 8.44389C43.1767 8.44389 42.649 8.26055 42.2466 7.89387C41.8531 7.5272 41.6563 7.06214 41.6563 6.49871ZM56.7483 21.5236V15.0575C56.7483 14.5925 56.6722 14.1945 56.5202 13.8636C56.3682 13.5237 56.1312 13.2599 55.8092 13.0721C55.4962 12.8843 55.0893 12.7904 54.5884 12.7904C54.1592 12.7904 53.788 12.8664 53.475 13.0184C53.162 13.1615 52.9205 13.3717 52.7506 13.6489C52.5806 13.9172 52.4957 14.2347 52.4957 14.6014H48.6321C48.6321 13.9843 48.7752 13.3985 49.0614 12.844C49.3476 12.2895 49.7635 11.8021 50.309 11.3818C50.8546 10.9525 51.503 10.6171 52.2542 10.3757C53.0144 10.1342 53.864 10.0135 54.8031 10.0135C55.9299 10.0135 56.9316 10.2013 57.8081 10.5769C58.6845 10.9525 59.3731 11.5159 59.874 12.2672C60.3838 13.0184 60.6386 13.9575 60.6386 15.0844V21.2955C60.6386 22.0915 60.6878 22.7444 60.7862 23.2541C60.8846 23.755 61.0277 24.1932 61.2155 24.5688V24.7969H57.3117C57.1239 24.4034 56.9808 23.9115 56.8824 23.3212C56.793 22.722 56.7483 22.1228 56.7483 21.5236ZM57.258 15.9563L57.2849 18.143H55.125C54.6153 18.143 54.1726 18.2011 53.7969 18.3174C53.4213 18.4337 53.1128 18.5991 52.8713 18.8137C52.6298 19.0194 52.451 19.2609 52.3347 19.5382C52.2274 19.8154 52.1737 20.1195 52.1737 20.4504C52.1737 20.7813 52.2497 21.0809 52.4018 21.3492C52.5538 21.6086 52.7729 21.8143 53.0591 21.9663C53.3453 22.1094 53.6807 22.1809 54.0652 22.1809C54.6466 22.1809 55.1519 22.0647 55.5812 21.8321C56.0104 21.5996 56.3413 21.3134 56.5739 20.9736C56.8153 20.6337 56.9405 20.3118 56.9495 20.0077L57.969 21.6443C57.8259 22.011 57.6292 22.3911 57.3788 22.7846C57.1373 23.1781 56.8288 23.5493 56.4531 23.8981C56.0775 24.2379 55.6259 24.5196 55.0982 24.7432C54.5706 24.9579 53.9445 25.0652 53.2201 25.0652C52.2989 25.0652 51.4627 24.8818 50.7115 24.5152C49.9692 24.1395 49.3789 23.6253 48.9407 22.9724C48.5114 22.3106 48.2968 21.5594 48.2968 20.7187C48.2968 19.9585 48.4399 19.2833 48.726 18.693C49.0122 18.1028 49.4326 17.6064 49.9871 17.2039C50.5505 16.7925 51.2526 16.484 52.0932 16.2783C52.9339 16.0637 53.9087 15.9563 55.0177 15.9563H57.258Z" fill="#2C2C2C"/>
</svg>
