<svg width="210" height="250" viewBox="0 0 210 250" fill="none" xmlns="http://www.w3.org/2000/svg">
<g filter="url(#filter0_f_2054_9414)">
<ellipse cx="89.5917" cy="217.318" rx="69.3436" ry="13.1145" fill="#2C2C2C" fill-opacity="0.35"/>
</g>
<path d="M171.823 87.792C171.823 120.283 150.848 150.924 129.166 173.81C118.4 185.175 107.621 194.459 99.5291 200.902C95.4862 204.121 92.1217 206.625 89.775 208.32C89.1631 208.762 88.6205 209.149 88.1534 209.479C87.6862 209.149 87.1437 208.762 86.5318 208.32C84.185 206.625 80.8205 204.121 76.7776 200.902C68.6862 194.459 57.9071 185.175 47.1404 173.81C25.4582 150.924 4.48352 120.283 4.48352 87.792C4.48352 65.6014 13.2987 44.3197 28.9898 28.6285C44.681 12.9374 65.9627 4.12219 88.1534 4.12219C110.344 4.12219 131.626 12.9374 147.317 28.6285C163.008 44.3197 171.823 65.6014 171.823 87.792Z" fill="#F45197"/>
<path d="M171.823 87.792C171.823 120.283 150.848 150.924 129.166 173.81C118.4 185.175 107.621 194.459 99.5291 200.902C95.4862 204.121 92.1217 206.625 89.775 208.32C89.1631 208.762 88.6205 209.149 88.1534 209.479C87.6862 209.149 87.1437 208.762 86.5318 208.32C84.185 206.625 80.8205 204.121 76.7776 200.902C68.6862 194.459 57.9071 185.175 47.1404 173.81C25.4582 150.924 4.48352 120.283 4.48352 87.792C4.48352 65.6014 13.2987 44.3197 28.9898 28.6285C44.681 12.9374 65.9627 4.12219 88.1534 4.12219C110.344 4.12219 131.626 12.9374 147.317 28.6285C163.008 44.3197 171.823 65.6014 171.823 87.792Z" stroke="#F45197" stroke-width="7.27564" stroke-linecap="round" stroke-linejoin="round"/>
<path d="M171.823 87.792C171.823 120.283 150.848 150.924 129.166 173.81C118.4 185.175 107.621 194.459 99.5291 200.902C95.4862 204.121 92.1217 206.625 89.775 208.32C89.1631 208.762 88.6205 209.149 88.1534 209.479C87.6862 209.149 87.1437 208.762 86.5318 208.32C84.185 206.625 80.8205 204.121 76.7776 200.902C68.6862 194.459 57.9071 185.175 47.1404 173.81C25.4582 150.924 4.48352 120.283 4.48352 87.792C4.48352 65.6014 13.2987 44.3197 28.9898 28.6285C44.681 12.9374 65.9627 4.12219 88.1534 4.12219C110.344 4.12219 131.626 12.9374 147.317 28.6285C163.008 44.3197 171.823 65.6014 171.823 87.792Z" stroke="#2C2C2C" stroke-opacity="0.5" stroke-width="7.27564" stroke-linecap="round" stroke-linejoin="round"/>
<path d="M47.6937 55.3932L47.6939 55.3934L65.9554 71.4615C66.674 72.0939 67.7743 72.0017 68.3778 71.2587L84.6947 51.1682C85.1259 50.6381 85.6712 50.2121 86.2899 49.922C86.9085 49.6319 87.5847 49.485 88.268 49.4925C88.9513 49.4999 89.6241 49.6614 90.2364 49.9649C90.8486 50.2684 91.3845 50.7061 91.8041 51.2454L91.8042 51.2455L107.351 71.2179C107.943 71.9796 109.053 72.089 109.784 71.4577L128.647 55.1495C128.647 55.1494 128.647 55.1494 128.647 55.1493C129.347 54.5448 130.216 54.1687 131.136 54.0714C132.057 53.9741 132.985 54.1602 133.797 54.6048C134.608 55.0494 135.265 55.7314 135.678 56.5594C136.092 57.3874 136.243 58.3219 136.11 59.2379L136.109 59.2467L136.108 59.2555L130.164 114.077C129.656 118.769 125.694 122.324 120.975 122.324H56.6024C51.9654 122.324 48.0461 118.889 47.4389 114.291L40.1993 59.4809L40.1994 59.4809L40.1982 59.4726C40.0607 58.5515 40.2097 57.6104 40.625 56.7768C41.0402 55.9432 41.7016 55.2573 42.5196 54.8121C43.3376 54.367 44.2727 54.1839 45.1982 54.2879C46.1237 54.3918 46.9948 54.7777 47.6937 55.3932Z" fill="#FDFBF9" stroke="#959595"/>
<rect x="139.083" y="2.90959" width="67.906" height="67.906" rx="33.953" fill="#959595"/>
<path fill-rule="evenodd" clip-rule="evenodd" d="M194.844 31.5641L194.844 42.6953L150.381 42.6953L150.382 31.5641L194.844 31.5641Z" fill="#FDFBF9"/>
<rect x="139.083" y="2.90959" width="67.906" height="67.906" rx="33.953" stroke="#808080" stroke-width="4.85043"/>
<defs>
<filter id="filter0_f_2054_9414" x="0.846344" y="184.801" width="177.491" height="65.03" filterUnits="userSpaceOnUse" color-interpolation-filters="sRGB">
<feFlood flood-opacity="0" result="BackgroundImageFix"/>
<feBlend mode="normal" in="SourceGraphic" in2="BackgroundImageFix" result="shape"/>
<feGaussianBlur stdDeviation="9.70085" result="effect1_foregroundBlur_2054_9414"/>
</filter>
</defs>
</svg>
