<svg width="209" height="250" viewBox="0 0 209 250" fill="none" xmlns="http://www.w3.org/2000/svg">
<g filter="url(#filter0_f_2042_9732)">
<ellipse cx="88.7459" cy="217.318" rx="69.3436" ry="13.1145" fill="#2C2C2C" fill-opacity="0.35"/>
</g>
<path d="M170.978 87.792C170.978 120.283 150.003 150.924 128.321 173.81C117.554 185.175 106.775 194.459 98.6834 200.902C94.6405 204.121 91.276 206.625 88.9293 208.32C88.3174 208.762 87.7748 209.149 87.3077 209.479C86.8405 209.149 86.298 208.762 85.6861 208.32C83.3393 206.625 79.9748 204.121 75.9319 200.902C67.8405 194.459 57.0614 185.175 46.2947 173.81C24.6125 150.924 3.63782 120.283 3.63782 87.792C3.63782 65.6014 12.453 44.3197 28.1441 28.6285C43.8353 12.9374 65.117 4.12219 87.3077 4.12219C109.498 4.12219 130.78 12.9374 146.471 28.6285C162.162 44.3197 170.978 65.6014 170.978 87.792Z" fill="#F45197"/>
<path d="M170.978 87.792C170.978 120.283 150.003 150.924 128.321 173.81C117.554 185.175 106.775 194.459 98.6834 200.902C94.6405 204.121 91.276 206.625 88.9293 208.32C88.3174 208.762 87.7748 209.149 87.3077 209.479C86.8405 209.149 86.298 208.762 85.6861 208.32C83.3393 206.625 79.9748 204.121 75.9319 200.902C67.8405 194.459 57.0614 185.175 46.2947 173.81C24.6125 150.924 3.63782 120.283 3.63782 87.792C3.63782 65.6014 12.453 44.3197 28.1441 28.6285C43.8353 12.9374 65.117 4.12219 87.3077 4.12219C109.498 4.12219 130.78 12.9374 146.471 28.6285C162.162 44.3197 170.978 65.6014 170.978 87.792Z" stroke="#F45197" stroke-width="7.27564" stroke-linecap="round" stroke-linejoin="round"/>
<path d="M170.978 87.792C170.978 120.283 150.003 150.924 128.321 173.81C117.554 185.175 106.775 194.459 98.6834 200.902C94.6405 204.121 91.276 206.625 88.9293 208.32C88.3174 208.762 87.7748 209.149 87.3077 209.479C86.8405 209.149 86.298 208.762 85.6861 208.32C83.3393 206.625 79.9748 204.121 75.9319 200.902C67.8405 194.459 57.0614 185.175 46.2947 173.81C24.6125 150.924 3.63782 120.283 3.63782 87.792C3.63782 65.6014 12.453 44.3197 28.1441 28.6285C43.8353 12.9374 65.117 4.12219 87.3077 4.12219C109.498 4.12219 130.78 12.9374 146.471 28.6285C162.162 44.3197 170.978 65.6014 170.978 87.792Z" stroke="#2C2C2C" stroke-opacity="0.5" stroke-width="7.27564" stroke-linecap="round" stroke-linejoin="round"/>
<path d="M93.2329 43.7285L101.937 63.2558C103.052 65.7578 105.417 67.4756 108.141 67.7631L129.402 70.0071C134.986 70.5964 137.236 77.5198 133.065 81.2788L117.183 95.5914C115.148 97.4252 114.245 100.205 114.813 102.884L119.249 123.798C120.414 129.291 114.525 133.57 109.661 130.765L91.1411 120.083C88.7682 118.714 85.8458 118.714 83.4729 120.083L64.9531 130.765C60.0891 133.57 54.1998 129.291 55.3648 123.798L59.8007 102.884C60.3691 100.205 59.466 97.4252 57.4312 95.5914L41.5494 81.2788C37.3782 77.5198 39.6277 70.5964 45.2118 70.0071L66.4731 67.7631C69.1972 67.4756 71.5615 65.7578 72.6768 63.2558L81.3811 43.7285C83.6672 38.5999 90.9468 38.5999 93.2329 43.7285Z" fill="#FDFBF9" stroke="#959595" stroke-width="1.18597"/>
<rect x="138.238" y="2.90959" width="67.906" height="67.906" rx="33.953" fill="#959595"/>
<path fill-rule="evenodd" clip-rule="evenodd" d="M193.998 31.5641L193.998 42.6953L149.536 42.6953L149.536 31.5641L193.998 31.5641Z" fill="#FDFBF9"/>
<rect x="138.238" y="2.90959" width="67.906" height="67.906" rx="33.953" stroke="#808080" stroke-width="4.85043"/>
<defs>
<filter id="filter0_f_2042_9732" x="0.000640869" y="184.801" width="177.491" height="65.03" filterUnits="userSpaceOnUse" color-interpolation-filters="sRGB">
<feFlood flood-opacity="0" result="BackgroundImageFix"/>
<feBlend mode="normal" in="SourceGraphic" in2="BackgroundImageFix" result="shape"/>
<feGaussianBlur stdDeviation="9.70085" result="effect1_foregroundBlur_2042_9732"/>
</filter>
</defs>
</svg>
