<svg width="210" height="250" viewBox="0 0 210 250" fill="none" xmlns="http://www.w3.org/2000/svg">
<g filter="url(#filter0_f_2054_9428)">
<ellipse cx="89.2069" cy="217.318" rx="69.3436" ry="13.1145" fill="#2C2C2C" fill-opacity="0.35"/>
</g>
<path d="M171.438 87.792C171.438 120.283 150.464 150.924 128.782 173.81C118.015 185.175 107.236 194.459 99.1443 200.902C95.1015 204.121 91.7369 206.625 89.3902 208.32C88.7783 208.762 88.2358 209.149 87.7686 209.479C87.3014 209.149 86.7589 208.762 86.147 208.32C83.8003 206.625 80.4357 204.121 76.3929 200.902C68.3014 194.459 57.5224 185.175 46.7557 173.81C25.0735 150.924 4.09876 120.283 4.09876 87.792C4.09876 65.6014 12.9139 44.3197 28.6051 28.6285C44.2962 12.9374 65.578 4.12219 87.7686 4.12219C109.959 4.12219 131.241 12.9374 146.932 28.6285C162.623 44.3197 171.438 65.6014 171.438 87.792Z" fill="#F45197"/>
<path d="M171.438 87.792C171.438 120.283 150.464 150.924 128.782 173.81C118.015 185.175 107.236 194.459 99.1443 200.902C95.1015 204.121 91.7369 206.625 89.3902 208.32C88.7783 208.762 88.2358 209.149 87.7686 209.479C87.3014 209.149 86.7589 208.762 86.147 208.32C83.8003 206.625 80.4357 204.121 76.3929 200.902C68.3014 194.459 57.5224 185.175 46.7557 173.81C25.0735 150.924 4.09876 120.283 4.09876 87.792C4.09876 65.6014 12.9139 44.3197 28.6051 28.6285C44.2962 12.9374 65.578 4.12219 87.7686 4.12219C109.959 4.12219 131.241 12.9374 146.932 28.6285C162.623 44.3197 171.438 65.6014 171.438 87.792Z" stroke="#F45197" stroke-width="7.27564" stroke-linecap="round" stroke-linejoin="round"/>
<path d="M171.438 87.792C171.438 120.283 150.464 150.924 128.782 173.81C118.015 185.175 107.236 194.459 99.1443 200.902C95.1015 204.121 91.7369 206.625 89.3902 208.32C88.7783 208.762 88.2358 209.149 87.7686 209.479C87.3014 209.149 86.7589 208.762 86.147 208.32C83.8003 206.625 80.4357 204.121 76.3929 200.902C68.3014 194.459 57.5224 185.175 46.7557 173.81C25.0735 150.924 4.09876 120.283 4.09876 87.792C4.09876 65.6014 12.9139 44.3197 28.6051 28.6285C44.2962 12.9374 65.578 4.12219 87.7686 4.12219C109.959 4.12219 131.241 12.9374 146.932 28.6285C162.623 44.3197 171.438 65.6014 171.438 87.792Z" stroke="#2C2C2C" stroke-opacity="0.5" stroke-width="7.27564" stroke-linecap="round" stroke-linejoin="round"/>
<path d="M47.309 55.3932L47.3091 55.3934L65.5706 71.4615C66.2892 72.0939 67.3895 72.0017 67.993 71.2587L84.3099 51.1682C84.7411 50.6381 85.2864 50.2121 85.9051 49.922C86.5238 49.6319 87.1999 49.485 87.8832 49.4925C88.5665 49.4999 89.2394 49.6614 89.8516 49.9649C90.4638 50.2684 90.9997 50.7061 91.4193 51.2454L91.4194 51.2455L106.966 71.2179C107.559 71.9796 108.669 72.089 109.399 71.4577L128.262 55.1495C128.262 55.1494 128.262 55.1494 128.262 55.1493C128.963 54.5448 129.831 54.1687 130.752 54.0714C131.672 53.9741 132.6 54.1602 133.412 54.6048C134.224 55.0494 134.88 55.7314 135.294 56.5594C135.707 57.3874 135.858 58.3219 135.726 59.2379L135.724 59.2467L135.723 59.2555L129.78 114.077C129.271 118.769 125.309 122.324 120.59 122.324H56.2176C51.5806 122.324 47.6613 118.889 47.0541 114.291L39.8146 59.4809L39.8146 59.4809L39.8134 59.4726C39.676 58.5515 39.825 57.6104 40.2402 56.7768C40.6554 55.9432 41.3168 55.2573 42.1349 54.8121C42.9529 54.367 43.8879 54.1839 44.8134 54.2879C45.7389 54.3918 46.6101 54.7777 47.309 55.3932Z" fill="#FDFBF9" stroke="#959595"/>
<rect x="138.699" y="2.90959" width="67.906" height="67.906" rx="33.953" fill="#F25900"/>
<path fill-rule="evenodd" clip-rule="evenodd" d="M172.654 57.2109L146.321 28.4831L154.526 20.9615L172.654 40.7379L190.783 20.9615L198.988 28.4831L172.654 57.2109Z" fill="#FDFBF9"/>
<rect x="138.699" y="2.90959" width="67.906" height="67.906" rx="33.953" stroke="#F25900" stroke-width="4.85043"/>
<rect x="138.699" y="2.90959" width="67.906" height="67.906" rx="33.953" stroke="black" stroke-opacity="0.25" stroke-width="4.85043"/>
<defs>
<filter id="filter0_f_2054_9428" x="0.461578" y="184.801" width="177.491" height="65.03" filterUnits="userSpaceOnUse" color-interpolation-filters="sRGB">
<feFlood flood-opacity="0" result="BackgroundImageFix"/>
<feBlend mode="normal" in="SourceGraphic" in2="BackgroundImageFix" result="shape"/>
<feGaussianBlur stdDeviation="9.70085" result="effect1_foregroundBlur_2054_9428"/>
</filter>
</defs>
</svg>
