<svg width="179" height="250" viewBox="0 0 179 250" fill="none" xmlns="http://www.w3.org/2000/svg">
<g filter="url(#filter0_f_2042_9852)">
<ellipse cx="89.5272" cy="217.318" rx="69.3436" ry="13.1145" fill="#2C2C2C" fill-opacity="0.35"/>
</g>
<path d="M171.759 87.792C171.759 120.283 150.784 150.924 129.102 173.81C118.335 185.175 107.556 194.459 99.4646 200.902C95.4218 204.121 92.0573 206.625 89.7105 208.32C89.0986 208.762 88.5561 209.149 88.0889 209.479C87.6217 209.149 87.0792 208.762 86.4673 208.32C84.1206 206.625 80.756 204.121 76.7132 200.902C68.6217 194.459 57.8427 185.175 47.076 173.81C25.3938 150.924 4.41907 120.283 4.41907 87.792C4.41907 65.6014 13.2343 44.3197 28.9254 28.6285C44.6165 12.9374 65.8983 4.12219 88.0889 4.12219C110.28 4.12219 131.561 12.9374 147.252 28.6285C162.944 44.3197 171.759 65.6014 171.759 87.792Z" fill="#F45197"/>
<path d="M171.759 87.792C171.759 120.283 150.784 150.924 129.102 173.81C118.335 185.175 107.556 194.459 99.4646 200.902C95.4218 204.121 92.0573 206.625 89.7105 208.32C89.0986 208.762 88.5561 209.149 88.0889 209.479C87.6217 209.149 87.0792 208.762 86.4673 208.32C84.1206 206.625 80.756 204.121 76.7132 200.902C68.6217 194.459 57.8427 185.175 47.076 173.81C25.3938 150.924 4.41907 120.283 4.41907 87.792C4.41907 65.6014 13.2343 44.3197 28.9254 28.6285C44.6165 12.9374 65.8983 4.12219 88.0889 4.12219C110.28 4.12219 131.561 12.9374 147.252 28.6285C162.944 44.3197 171.759 65.6014 171.759 87.792Z" stroke="#F45197" stroke-width="7.27564" stroke-linecap="round" stroke-linejoin="round"/>
<path d="M171.759 87.792C171.759 120.283 150.784 150.924 129.102 173.81C118.335 185.175 107.556 194.459 99.4646 200.902C95.4218 204.121 92.0573 206.625 89.7105 208.32C89.0986 208.762 88.5561 209.149 88.0889 209.479C87.6217 209.149 87.0792 208.762 86.4673 208.32C84.1206 206.625 80.756 204.121 76.7132 200.902C68.6217 194.459 57.8427 185.175 47.076 173.81C25.3938 150.924 4.41907 120.283 4.41907 87.792C4.41907 65.6014 13.2343 44.3197 28.9254 28.6285C44.6165 12.9374 65.8983 4.12219 88.0889 4.12219C110.28 4.12219 131.561 12.9374 147.252 28.6285C162.944 44.3197 171.759 65.6014 171.759 87.792Z" stroke="#2C2C2C" stroke-opacity="0.5" stroke-width="7.27564" stroke-linecap="round" stroke-linejoin="round"/>
<path d="M94.0141 43.7285L102.718 63.2558C103.834 65.7578 106.198 67.4756 108.922 67.7631L130.183 70.0071C135.768 70.5964 138.017 77.5198 133.846 81.2788L117.964 95.5914C115.929 97.4252 115.026 100.205 115.594 102.884L120.03 123.798C121.195 129.291 115.306 133.57 110.442 130.765L91.9223 120.083C89.5495 118.714 86.627 118.714 84.2542 120.083L65.7344 130.765C60.8703 133.57 54.981 129.291 56.1461 123.798L60.582 102.884C61.1503 100.205 60.2473 97.4252 58.2124 95.5914L42.3306 81.2788C38.1594 77.5198 40.4089 70.5964 45.993 70.0071L67.2544 67.7631C69.9785 67.4756 72.3428 65.7578 73.458 63.2558L82.1623 43.7285C84.4484 38.5999 91.728 38.5999 94.0141 43.7285Z" fill="#FDFBF9" stroke="#959595" stroke-width="1.18597"/>
<defs>
<filter id="filter0_f_2042_9852" x="0.781891" y="184.801" width="177.491" height="65.03" filterUnits="userSpaceOnUse" color-interpolation-filters="sRGB">
<feFlood flood-opacity="0" result="BackgroundImageFix"/>
<feBlend mode="normal" in="SourceGraphic" in2="BackgroundImageFix" result="shape"/>
<feGaussianBlur stdDeviation="9.70085" result="effect1_foregroundBlur_2042_9852"/>
</filter>
</defs>
</svg>
