<svg width="39" height="39" viewBox="0 0 39 39" fill="none" xmlns="http://www.w3.org/2000/svg">
<path d="M0.177734 19.2402C0.177734 23.7328 0.544303 29.1078 4.73882 32.7021C11.1735 38.21 15.3761 38.2422 19.9352 38.2422C24.4943 38.2422 28.294 36.6588 33.6125 31.1185C36.6305 27.9675 38.0487 24.7684 38.1696 21.6174C38.2343 20.0097 37.4283 16.4922 37.0818 15.223C35.5627 9.6828 32.7825 7.06777 30.1392 4.62601C25.3887 0.242186 19.9352 0.242188 16.8952 0.242188C12.3361 0.242188 8.70367 1.64842 5.49836 4.9927C2.45828 8.15972 0.177734 14.4897 0.177734 19.2402Z" fill="#2C2C2C"/>
<path d="M32.1803 16.251C31.592 15.699 30.7258 15.421 29.5814 15.421C28.9207 15.421 28.3243 15.5458 27.7965 15.7875C27.2687 16.0294 26.8697 16.3719 26.5996 16.815H26.356C25.818 15.8882 24.7946 15.421 23.2815 15.421C22.6186 15.421 22.0344 15.5498 21.5187 15.7917C21.009 16.0374 20.6183 16.3799 20.3461 16.8152H20.193L19.9091 15.6024H19.9011L19.9091 15.5862H17.7152L14.7899 21.4367V11.9316H11.8687V14.9294C11.8687 15.4814 11.9373 16.11 12.0783 16.8191H11.9897C11.3128 15.8922 10.5009 15.4289 9.21756 15.4289C7.99661 15.4289 7.03562 15.86 6.33664 16.7303C5.6396 17.5966 5.29102 18.8094 5.29102 20.3647C5.29102 21.8958 5.63352 23.0964 6.31839 23.9628C7.0034 24.829 7.94822 25.2601 9.14497 25.2601C10.4424 25.2601 11.3087 24.7929 11.9411 23.862H12.062L12.5979 25.0868H14.7899H15.1567L17.7152 19.9698V25.0868H20.4712V20.6224C20.4712 19.5103 20.6324 18.7086 20.9506 18.2252C21.2689 17.7336 21.7827 17.4919 22.4857 17.4919C23.0135 17.4919 23.3964 17.6652 23.6402 18.0077C23.8839 18.3502 24.0047 18.8619 24.0047 19.5469V25.087H26.7607V20.3286C26.7607 19.3454 26.9301 18.6242 27.2645 18.1729C27.5989 17.7174 28.1027 17.4919 28.7774 17.4919C29.3033 17.4919 29.6862 17.6652 29.9279 18.0077C30.1736 18.3502 30.2944 18.8619 30.2944 19.5469V25.087H33.0625V18.9021C33.0627 17.6855 32.7686 16.803 32.1803 16.251ZM12.2314 20.7275C12.2032 21.6464 12.0238 22.299 11.6994 22.6857C11.3773 23.0687 10.8676 23.2619 10.1723 23.2619C9.54596 23.2619 9.06022 23.0283 8.72199 22.5609C8.38337 22.0975 8.21412 21.3964 8.21412 20.4616C8.21412 19.5309 8.38337 18.8217 8.71785 18.3342C9.0522 17.8427 9.52383 17.5968 10.1281 17.5968C10.8694 17.5968 11.4074 17.8184 11.7358 18.2575C12.0663 18.6968 12.2314 19.4301 12.2314 20.4454V20.7275V20.7275Z" fill="#FDFBF9"/>
</svg>
