<svg width="66" height="66" viewBox="0 0 66 66" fill="none" xmlns="http://www.w3.org/2000/svg">
<path d="M36.911 3.54384L42.7684 16.6844C43.5084 18.3444 45.077 19.4841 46.8844 19.6748L61.1918 21.1849C65.0121 21.5881 66.5511 26.3245 63.6974 28.8962L53.01 38.5276C51.66 39.7443 51.0608 41.5883 51.4379 43.3662L54.423 57.44C55.22 61.1979 51.191 64.1252 47.8633 62.2059L35.4007 55.0179C33.8264 54.1098 31.8875 54.1098 30.3132 55.0179L17.8506 62.2059C14.5229 64.1252 10.4939 61.1979 11.2909 57.44L14.276 43.3662C14.6531 41.5883 14.0539 39.7443 12.7039 38.5276L2.01647 28.8962C-0.837172 26.3245 0.70179 21.5881 4.52203 21.1849L18.8295 19.6748C20.6369 19.4841 22.2055 18.3444 22.9454 16.6844L28.8029 3.54384C30.3668 0.0351744 35.347 0.0351699 36.911 3.54384Z" fill="#FDFBF9" stroke="#959595" stroke-width="0.652803"/>
</svg>
