<svg width="1194" height="507" viewBox="0 0 1194 507" fill="none" xmlns="http://www.w3.org/2000/svg">
<g filter="url(#filter0_f_1995_9197)">
<ellipse cx="591.046" cy="482.558" rx="50.7429" ry="9.59668" fill="#2C2C2C" fill-opacity="0.35"/>
</g>
<path d="M651.22 387.779C651.22 411.554 635.872 433.976 620.005 450.724C612.127 459.04 604.239 465.833 598.318 470.548C595.36 472.904 592.898 474.737 591.18 475.977C590.733 476.3 590.336 476.583 589.994 476.825C589.652 476.583 589.255 476.3 588.807 475.977C587.09 474.737 584.628 472.904 581.669 470.548C575.748 465.833 567.861 459.04 559.982 450.724C544.116 433.976 528.767 411.554 528.767 387.779C528.767 371.541 535.218 355.968 546.7 344.485C558.182 333.003 573.756 326.553 589.994 326.553C606.232 326.553 621.805 333.003 633.287 344.485C644.769 355.968 651.22 371.541 651.22 387.779Z" fill="#0567FF"/>
<path d="M651.22 387.779C651.22 411.554 635.872 433.976 620.005 450.724C612.127 459.04 604.239 465.833 598.318 470.548C595.36 472.904 592.898 474.737 591.18 475.977C590.733 476.3 590.336 476.583 589.994 476.825C589.652 476.583 589.255 476.3 588.807 475.977C587.09 474.737 584.628 472.904 581.669 470.548C575.748 465.833 567.861 459.04 559.982 450.724C544.116 433.976 528.767 411.554 528.767 387.779C528.767 371.541 535.218 355.968 546.7 344.485C558.182 333.003 573.756 326.553 589.994 326.553C606.232 326.553 621.805 333.003 633.287 344.485C644.769 355.968 651.22 371.541 651.22 387.779Z" stroke="#0567FF" stroke-width="5.32402" stroke-linecap="round" stroke-linejoin="round"/>
<path d="M651.22 387.779C651.22 411.554 635.872 433.976 620.005 450.724C612.127 459.04 604.239 465.833 598.318 470.548C595.36 472.904 592.898 474.737 591.18 475.977C590.733 476.3 590.336 476.583 589.994 476.825C589.652 476.583 589.255 476.3 588.807 475.977C587.09 474.737 584.628 472.904 581.669 470.548C575.748 465.833 567.861 459.04 559.982 450.724C544.116 433.976 528.767 411.554 528.767 387.779C528.767 371.541 535.218 355.968 546.7 344.485C558.182 333.003 573.756 326.553 589.994 326.553C606.232 326.553 621.805 333.003 633.287 344.485C644.769 355.968 651.22 371.541 651.22 387.779Z" stroke="#2C2C2C" stroke-opacity="0.5" stroke-width="5.32402" stroke-linecap="round" stroke-linejoin="round"/>
<circle cx="589.994" cy="387.778" r="27.9609" fill="#FDFBF9" stroke="#959595" stroke-width="0.867847"/>
<g filter="url(#filter1_d_1995_9197)">
<path d="M15 28.6555C15 16.894 24.5346 7.35938 36.2961 7.35938H1143.69C1155.45 7.35938 1164.99 16.894 1164.99 28.6555V246.445H15V28.6555Z" fill="#FAF6F0"/>
<path d="M59.8795 110.758V105.42L65.3907 104.38V66.7029L59.8795 65.6631V60.2905H79.6019V65.6631L74.1254 66.7029V104.38L79.6019 105.42V110.758H59.8795ZM84.0386 110.758V105.42L89.2378 104.38V79.6663L83.7613 78.6265V73.254H97.2793L97.7299 78.6958C98.9778 76.7548 100.526 75.2528 102.375 74.1898C104.246 73.1038 106.361 72.5607 108.718 72.5607C112.577 72.5607 115.581 73.7508 117.73 76.1309C119.879 78.4879 120.953 82.1851 120.953 87.2226V104.38L126.152 105.42V110.758H107.331V105.42L112.218 104.38V87.2919C112.218 84.4497 111.652 82.4393 110.52 81.2608C109.388 80.0592 107.701 79.4584 105.459 79.4584C103.773 79.4584 102.294 79.8397 101.023 80.6022C99.775 81.3417 98.7582 82.3815 97.9726 83.7218V104.38L102.721 105.42V110.758H84.0386ZM130.347 110.758V105.42L135.58 104.38V79.493H129.861V73.254H135.58V68.8519C135.58 64.7387 136.713 61.5614 138.977 59.32C141.265 57.0785 144.454 55.9578 148.544 55.9578C149.491 55.9578 150.508 56.0387 151.594 56.2004C152.68 56.3391 153.674 56.5239 154.575 56.755L153.708 63.3061C153.223 63.1905 152.622 63.0981 151.906 63.0288C151.19 62.9363 150.485 62.8901 149.792 62.8901C147.943 62.8901 146.557 63.3985 145.632 64.4152C144.731 65.432 144.28 66.9109 144.28 68.8519V73.254H152.669V79.493H144.28V104.38L150.832 105.42V110.758H130.347ZM174.055 111.486C170.45 111.486 167.354 110.677 164.765 109.059C162.177 107.442 160.19 105.2 158.804 102.335C157.417 99.4466 156.724 96.1306 156.724 92.3872V91.6593C156.724 87.9389 157.417 84.6461 158.804 81.7807C160.19 78.9153 162.177 76.6623 164.765 75.0217C167.354 73.381 170.427 72.5607 173.985 72.5607C177.59 72.5607 180.687 73.381 183.275 75.0217C185.863 76.6392 187.85 78.8807 189.237 81.746C190.623 84.6114 191.316 87.9158 191.316 91.6593V92.3872C191.316 96.1306 190.623 99.4466 189.237 102.335C187.85 105.2 185.863 107.442 183.275 109.059C180.71 110.677 177.637 111.486 174.055 111.486ZM174.055 104.761C175.996 104.761 177.59 104.241 178.838 103.202C180.109 102.139 181.056 100.683 181.68 98.8342C182.304 96.9625 182.616 94.8135 182.616 92.3872V91.6593C182.616 89.2561 182.304 87.1301 181.68 85.2815C181.056 83.4329 180.109 81.9771 178.838 80.9142C177.567 79.8512 175.95 79.3197 173.985 79.3197C172.068 79.3197 170.473 79.8512 169.202 80.9142C167.931 81.9771 166.984 83.4329 166.36 85.2815C165.759 87.1301 165.459 89.2561 165.459 91.6593V92.3872C165.459 94.8135 165.759 96.9625 166.36 98.8342C166.984 100.683 167.931 102.139 169.202 103.202C170.496 104.241 172.114 104.761 174.055 104.761ZM196.55 110.758V105.42L201.749 104.38V79.6663L196.273 78.6265V73.254H209.791L210.242 77.9679L210.311 78.7305C211.304 76.7432 212.518 75.2181 213.95 74.1552C215.406 73.0922 217.105 72.5607 219.046 72.5607C219.693 72.5607 220.374 72.6185 221.091 72.734C221.83 72.8496 222.431 72.9767 222.893 73.1153L221.888 81.1915L217.001 80.9142C215.406 80.8217 214.089 81.1337 213.049 81.85C212.032 82.5664 211.177 83.56 210.484 84.8309V104.38L215.683 105.42V110.758H196.55ZM226.359 110.758V105.42L231.593 104.38V79.6663L226.082 78.6265V73.254H239.6L240.016 78.1759C241.241 76.3966 242.766 75.0217 244.591 74.0512C246.44 73.0575 248.577 72.5607 251.004 72.5607C253.453 72.5607 255.544 73.1153 257.277 74.2245C259.034 75.3105 260.362 76.9627 261.263 79.1811C262.419 77.1245 263.932 75.507 265.804 74.3285C267.699 73.15 269.917 72.5607 272.459 72.5607C276.226 72.5607 279.183 73.8432 281.332 76.4082C283.505 78.9731 284.591 82.8552 284.591 88.0545V104.38L289.825 105.42V110.758H270.934V105.42L275.856 104.38V88.0198C275.856 84.854 275.324 82.6357 274.262 81.3648C273.199 80.0938 271.639 79.4584 269.582 79.4584C267.664 79.4584 266.081 80.0707 264.834 81.2954C263.609 82.5202 262.812 84.0799 262.442 85.9748V104.38L267.191 105.42V110.758H248.993V105.42L253.742 104.38V88.0198C253.742 84.9696 253.199 82.7859 252.113 81.4688C251.027 80.1285 249.455 79.4584 247.399 79.4584C245.689 79.4584 244.245 79.805 243.066 80.4982C241.911 81.1915 240.986 82.1735 240.293 83.4445V104.38L245.18 105.42V110.758H226.359ZM306.289 111.486C302.476 111.486 299.507 110.504 297.381 108.539C295.255 106.575 294.192 103.872 294.192 100.429C294.192 98.0717 294.839 96.0035 296.133 94.2242C297.427 92.4449 299.322 91.0585 301.817 90.0648C304.313 89.0481 307.34 88.5397 310.899 88.5397H316.618V85.3855C316.618 83.3982 316.017 81.8154 314.816 80.6369C313.637 79.4584 311.916 78.8691 309.651 78.8691C308.357 78.8691 307.213 79.0309 306.22 79.3544C305.226 79.6548 304.336 80.0938 303.551 80.6715L302.753 85.7321H296.341L296.272 76.4775C298.12 75.2759 300.177 74.3285 302.441 73.6352C304.706 72.9189 307.225 72.5607 309.998 72.5607C314.758 72.5607 318.501 73.6814 321.228 75.9229C323.978 78.1412 325.353 81.3301 325.353 85.4895V102.023C325.353 102.531 325.353 103.028 325.353 103.514C325.376 103.999 325.411 104.473 325.457 104.935L329.269 105.42V110.758H317.866C317.635 109.949 317.415 109.163 317.207 108.401C317.022 107.638 316.884 106.876 316.791 106.113C315.543 107.684 314.03 108.979 312.251 109.995C310.494 110.989 308.507 111.486 306.289 111.486ZM308.265 104.727C310.021 104.727 311.661 104.322 313.187 103.514C314.712 102.682 315.855 101.642 316.618 100.394V94.1202H310.795C308.184 94.1202 306.208 94.7326 304.868 95.9573C303.551 97.1589 302.892 98.5685 302.892 100.186C302.892 101.642 303.354 102.763 304.278 103.548C305.203 104.334 306.531 104.727 308.265 104.727ZM350.898 111.486C347.386 111.486 344.336 110.688 341.748 109.094C339.183 107.477 337.195 105.258 335.786 102.439C334.399 99.5968 333.706 96.327 333.706 92.6298V91.4166C333.706 87.7887 334.399 84.5536 335.786 81.7114C337.172 78.8691 339.148 76.6392 341.713 75.0217C344.301 73.381 347.351 72.5607 350.864 72.5607C354.076 72.5607 356.872 73.0806 359.252 74.1205C361.632 75.1372 363.584 76.4082 365.11 77.9333L365.144 87.9505H358.489L357.207 81.3301C356.56 80.66 355.739 80.1285 354.746 79.7357C353.752 79.3197 352.666 79.1118 351.488 79.1118C349.57 79.1118 347.929 79.6317 346.566 80.6715C345.225 81.7114 344.197 83.1556 343.481 85.0042C342.788 86.8297 342.441 88.9672 342.441 91.4166V92.6298C342.441 95.2641 342.799 97.4824 343.515 99.2848C344.232 101.087 345.225 102.451 346.496 103.375C347.79 104.299 349.269 104.761 350.933 104.761C352.943 104.761 354.572 104.218 355.82 103.132C357.091 102.046 357.923 100.544 358.316 98.6262H365.872L365.976 98.8342C365.699 101.284 364.971 103.467 363.792 105.385C362.637 107.28 360.996 108.771 358.871 109.857C356.768 110.943 354.11 111.486 350.898 111.486ZM346.704 126.321L346.462 121.538C347.964 121.538 349.165 121.283 350.066 120.775C350.968 120.29 351.418 119.55 351.418 118.557C351.418 117.517 351.002 116.8 350.17 116.408C349.362 116.015 348.021 115.749 346.15 115.61L347.398 109.926H353.81L353.221 112.734C354.769 112.988 356.051 113.565 357.068 114.467C358.085 115.391 358.593 116.766 358.593 118.591C358.593 120.925 357.565 122.797 355.508 124.207C353.452 125.616 350.517 126.321 346.704 126.321ZM383.515 111.486C379.702 111.486 376.733 110.504 374.607 108.539C372.481 106.575 371.418 103.872 371.418 100.429C371.418 98.0717 372.065 96.0035 373.359 94.2242C374.653 92.4449 376.548 91.0585 379.044 90.0648C381.539 89.0481 384.566 88.5397 388.125 88.5397H393.844V85.3855C393.844 83.3982 393.243 81.8154 392.042 80.6369C390.863 79.4584 389.142 78.8691 386.877 78.8691C385.583 78.8691 384.439 79.0309 383.446 79.3544C382.452 79.6548 381.562 80.0938 380.777 80.6715L379.979 85.7321H373.567L373.498 76.4775C375.346 75.2759 377.403 74.3285 379.667 73.6352C381.932 72.9189 384.451 72.5607 387.224 72.5607C391.984 72.5607 395.727 73.6814 398.454 75.9229C401.204 78.1412 402.579 81.3301 402.579 85.4895V102.023C402.579 102.531 402.579 103.028 402.579 103.514C402.602 103.999 402.637 104.473 402.683 104.935L406.496 105.42V110.758H395.092C394.861 109.949 394.641 109.163 394.433 108.401C394.248 107.638 394.11 106.876 394.017 106.113C392.77 107.684 391.256 108.979 389.477 109.995C387.721 110.989 385.733 111.486 383.515 111.486ZM385.491 104.727C387.247 104.727 388.887 104.322 390.413 103.514C391.938 102.682 393.082 101.642 393.844 100.394V94.1202H388.021C385.41 94.1202 383.434 94.7326 382.094 95.9573C380.777 97.1589 380.118 98.5685 380.118 100.186C380.118 101.642 380.58 102.763 381.505 103.548C382.429 104.334 383.758 104.727 385.491 104.727ZM379.563 65.9404L374.953 64.8312C374.953 63.3061 375.3 61.9081 375.993 60.6371C376.687 59.3662 377.611 58.3379 378.766 57.5522C379.922 56.7666 381.181 56.3737 382.544 56.3737C383.654 56.3737 384.797 56.6626 385.976 57.2403C387.177 57.7949 388.321 58.361 389.407 58.9387C390.493 59.4933 391.429 59.7706 392.215 59.7706C393.162 59.7706 393.936 59.4124 394.537 58.6961C395.161 57.9566 395.473 57.0439 395.473 55.9578L400.083 57.2056C400.083 58.7538 399.737 60.1634 399.043 61.4343C398.373 62.6822 397.449 63.6873 396.27 64.4499C395.115 65.1893 393.844 65.5591 392.458 65.5591C391.279 65.5591 390.089 65.2818 388.887 64.7272C387.709 64.1495 386.6 63.5834 385.56 63.0288C384.52 62.4511 383.607 62.1622 382.822 62.1622C381.851 62.1622 381.065 62.532 380.465 63.2714C379.864 64.0109 379.563 64.9005 379.563 65.9404ZM428.263 111.486C424.658 111.486 421.562 110.677 418.974 109.059C416.386 107.442 414.398 105.2 413.012 102.335C411.625 99.4466 410.932 96.1306 410.932 92.3872V91.6593C410.932 87.9389 411.625 84.6461 413.012 81.7807C414.398 78.9153 416.386 76.6623 418.974 75.0217C421.562 73.381 424.635 72.5607 428.194 72.5607C431.799 72.5607 434.895 73.381 437.483 75.0217C440.071 76.6392 442.058 78.8807 443.445 81.746C444.831 84.6114 445.525 87.9158 445.525 91.6593V92.3872C445.525 96.1306 444.831 99.4466 443.445 102.335C442.058 105.2 440.071 107.442 437.483 109.059C434.918 110.677 431.845 111.486 428.263 111.486ZM428.263 104.761C430.204 104.761 431.799 104.241 433.046 103.202C434.317 102.139 435.265 100.683 435.889 98.8342C436.513 96.9625 436.824 94.8135 436.824 92.3872V91.6593C436.824 89.2561 436.513 87.1301 435.889 85.2815C435.265 83.4329 434.317 81.9771 433.046 80.9142C431.775 79.8512 430.158 79.3197 428.194 79.3197C426.276 79.3197 424.681 79.8512 423.41 80.9142C422.14 81.9771 421.192 83.4329 420.568 85.2815C419.967 87.1301 419.667 89.2561 419.667 91.6593V92.3872C419.667 94.8135 419.967 96.9625 420.568 98.8342C421.192 100.683 422.14 102.139 423.41 103.202C424.704 104.241 426.322 104.761 428.263 104.761ZM467.327 125.177V119.804L472.387 118.765V79.6663L466.876 78.6265V73.254H480.221L480.775 77.6906C481.931 76.05 483.34 74.7906 485.004 73.9125C486.668 73.0113 488.632 72.5607 490.897 72.5607C493.947 72.5607 496.558 73.3926 498.73 75.0564C500.902 76.7201 502.554 79.0424 503.687 82.0233C504.842 85.0042 505.42 88.4935 505.42 92.4911V93.219C505.42 96.8701 504.842 100.07 503.687 102.82C502.531 105.547 500.868 107.673 498.695 109.198C496.546 110.723 493.947 111.486 490.897 111.486C488.748 111.486 486.864 111.116 485.247 110.377C483.629 109.614 482.243 108.505 481.087 107.049V118.765L486.425 119.804V125.177H467.327ZM488.262 104.761C491.128 104.761 493.242 103.71 494.605 101.607C495.992 99.4812 496.685 96.6852 496.685 93.219V92.4911C496.685 89.9031 496.373 87.6385 495.749 85.6975C495.148 83.7333 494.213 82.2082 492.942 81.1221C491.694 80.013 490.111 79.4584 488.193 79.4584C486.575 79.4584 485.166 79.8281 483.964 80.5676C482.786 81.2839 481.827 82.3006 481.087 83.6178V100.81C481.827 102.081 482.786 103.063 483.964 103.756C485.143 104.426 486.575 104.761 488.262 104.761ZM510.654 110.758V105.42L515.853 104.38V79.6663L510.376 78.6265V73.254H523.894L524.345 77.9679L524.414 78.7305C525.408 76.7432 526.621 75.2181 528.054 74.1552C529.51 73.0922 531.208 72.5607 533.149 72.5607C533.796 72.5607 534.478 72.6185 535.194 72.734C535.934 72.8496 536.534 72.9767 536.997 73.1153L535.991 81.1915L531.104 80.9142C529.51 80.8217 528.192 81.1337 527.153 81.85C526.136 82.5664 525.281 83.56 524.588 84.8309V104.38L529.787 105.42V110.758H510.654ZM540.567 110.758V105.42L545.766 104.38V79.6663L540.255 78.6265V73.254H554.501V104.38L559.665 105.42V110.758H540.567ZM545.419 64.7619V56.6857H554.501V64.7619H545.419ZM563.409 110.758V105.42L568.643 104.38V79.6663L563.131 78.6265V73.254H576.649L577.065 78.1759C578.29 76.3966 579.815 75.0217 581.641 74.0512C583.489 73.0575 585.627 72.5607 588.053 72.5607C590.502 72.5607 592.594 73.1153 594.327 74.2245C596.083 75.3105 597.412 76.9627 598.313 79.1811C599.468 77.1245 600.982 75.507 602.854 74.3285C604.748 73.15 606.967 72.5607 609.509 72.5607C613.275 72.5607 616.233 73.8432 618.382 76.4082C620.554 78.9731 621.64 82.8552 621.64 88.0545V104.38L626.874 105.42V110.758H607.983V105.42L612.905 104.38V88.0198C612.905 84.854 612.374 82.6357 611.311 81.3648C610.248 80.0938 608.688 79.4584 606.632 79.4584C604.714 79.4584 603.131 80.0707 601.883 81.2954C600.658 82.5202 599.861 84.0799 599.491 85.9748V104.38L604.24 105.42V110.758H586.043V105.42L590.791 104.38V88.0198C590.791 84.9696 590.248 82.7859 589.162 81.4688C588.076 80.1285 586.505 79.4584 584.448 79.4584C582.738 79.4584 581.294 79.805 580.116 80.4982C578.96 81.1915 578.036 82.1735 577.343 83.4445V104.38L582.23 105.42V110.758H563.409ZM643.338 111.486C639.526 111.486 636.556 110.504 634.43 108.539C632.304 106.575 631.241 103.872 631.241 100.429C631.241 98.0717 631.888 96.0035 633.183 94.2242C634.477 92.4449 636.371 91.0585 638.867 90.0648C641.363 89.0481 644.39 88.5397 647.948 88.5397H653.668V85.3855C653.668 83.3982 653.067 81.8154 651.865 80.6369C650.687 79.4584 648.965 78.8691 646.701 78.8691C645.407 78.8691 644.263 79.0309 643.269 79.3544C642.275 79.6548 641.386 80.0938 640.6 80.6715L639.803 85.7321H633.39L633.321 76.4775C635.17 75.2759 637.226 74.3285 639.491 73.6352C641.755 72.9189 644.274 72.5607 647.047 72.5607C651.807 72.5607 655.551 73.6814 658.278 75.9229C661.027 78.1412 662.402 81.3301 662.402 85.4895V102.023C662.402 102.531 662.402 103.028 662.402 103.514C662.425 103.999 662.46 104.473 662.506 104.935L666.319 105.42V110.758H654.915C654.684 109.949 654.465 109.163 654.257 108.401C654.072 107.638 653.933 106.876 653.841 106.113C652.593 107.684 651.079 108.979 649.3 109.995C647.544 110.989 645.557 111.486 643.338 111.486ZM645.314 104.727C647.07 104.727 648.711 104.322 650.236 103.514C651.761 102.682 652.905 101.642 653.668 100.394V94.1202H647.844C645.233 94.1202 643.257 94.7326 641.917 95.9573C640.6 97.1589 639.942 98.5685 639.942 100.186C639.942 101.642 640.404 102.763 641.328 103.548C642.252 104.334 643.581 104.727 645.314 104.727ZM642.091 66.1137L648.78 56.6857H658.312L658.382 56.8937L648.919 66.1137H642.368H642.091ZM670.998 110.758V105.42L676.198 104.38V79.6663L670.721 78.6265V73.254H684.239L684.69 77.9679L684.759 78.7305C685.753 76.7432 686.966 75.2181 688.398 74.1552C689.854 73.0922 691.553 72.5607 693.494 72.5607C694.141 72.5607 694.822 72.6185 695.539 72.734C696.278 72.8496 696.879 72.9767 697.341 73.1153L696.336 81.1915L691.449 80.9142C689.854 80.8217 688.537 81.1337 687.497 81.85C686.48 82.5664 685.625 83.56 684.932 84.8309V104.38L690.131 105.42V110.758H670.998ZM700.911 110.758V105.42L706.11 104.38V79.6663L700.599 78.6265V73.254H714.845V104.38L720.01 105.42V110.758H700.911ZM705.764 64.7619V56.6857H714.845V64.7619H705.764ZM736.37 111.486C732.557 111.486 729.588 110.504 727.462 108.539C725.336 106.575 724.273 103.872 724.273 100.429C724.273 98.0717 724.92 96.0035 726.214 94.2242C727.508 92.4449 729.403 91.0585 731.899 90.0648C734.394 89.0481 737.422 88.5397 740.98 88.5397H746.699V85.3855C746.699 83.3982 746.098 81.8154 744.897 80.6369C743.718 79.4584 741.997 78.8691 739.732 78.8691C738.438 78.8691 737.294 79.0309 736.301 79.3544C735.307 79.6548 734.417 80.0938 733.632 80.6715L732.835 85.7321H726.422L726.353 76.4775C728.202 75.2759 730.258 74.3285 732.523 73.6352C734.787 72.9189 737.306 72.5607 740.079 72.5607C744.839 72.5607 748.583 73.6814 751.309 75.9229C754.059 78.1412 755.434 81.3301 755.434 85.4895V102.023C755.434 102.531 755.434 103.028 755.434 103.514C755.457 103.999 755.492 104.473 755.538 104.935L759.351 105.42V110.758H747.947C747.716 109.949 747.496 109.163 747.289 108.401C747.104 107.638 746.965 106.876 746.873 106.113C745.625 107.684 744.111 108.979 742.332 109.995C740.576 110.989 738.588 111.486 736.37 111.486ZM738.346 104.727C740.102 104.727 741.743 104.322 743.268 103.514C744.793 102.682 745.937 101.642 746.699 100.394V94.1202H740.876C738.265 94.1202 736.289 94.7326 734.949 95.9573C733.632 97.1589 732.973 98.5685 732.973 100.186C732.973 101.642 733.435 102.763 734.36 103.548C735.284 104.334 736.613 104.727 738.346 104.727Z" fill="#2C2C2C"/>
<path d="M68.018 163.673V204.047H62.6663V163.673H68.018ZM82.1045 180.449V204.047H76.9746V174.044H81.8272L82.1045 180.449ZM80.8844 187.908L78.7492 187.825C78.7677 185.773 79.0728 183.878 79.6643 182.141C80.2559 180.385 81.0877 178.859 82.1599 177.565C83.2321 176.271 84.5077 175.273 85.9866 174.571C87.484 173.85 89.1385 173.489 90.9501 173.489C92.429 173.489 93.76 173.693 94.9431 174.099C96.1263 174.487 97.1338 175.116 97.9656 175.985C98.816 176.854 99.463 177.981 99.9067 179.368C100.35 180.736 100.572 182.409 100.572 184.387V204.047H95.4145V184.331C95.4145 182.76 95.1835 181.503 94.7213 180.56C94.2592 179.599 93.5844 178.906 92.6971 178.48C91.8097 178.037 90.7191 177.815 89.425 177.815C88.1495 177.815 86.9848 178.083 85.9311 178.619C84.8959 179.155 83.9993 179.895 83.2414 180.837C82.5019 181.78 81.9196 182.862 81.4944 184.082C81.0877 185.283 80.8844 186.559 80.8844 187.908ZM116.017 204.047H110.887V170.883C110.887 168.72 111.276 166.899 112.052 165.42C112.847 163.923 113.984 162.795 115.463 162.037C116.942 161.261 118.698 160.872 120.731 160.872C121.323 160.872 121.915 160.909 122.506 160.983C123.116 161.057 123.708 161.168 124.281 161.316L124.003 165.503C123.615 165.411 123.172 165.346 122.672 165.309C122.192 165.272 121.711 165.254 121.231 165.254C120.14 165.254 119.197 165.475 118.402 165.919C117.626 166.344 117.034 166.973 116.627 167.805C116.221 168.637 116.017 169.663 116.017 170.883V204.047ZM122.395 174.044V177.981H106.146V174.044H122.395ZM126.749 189.378V188.74C126.749 186.577 127.063 184.572 127.691 182.723C128.32 180.856 129.226 179.238 130.409 177.87C131.592 176.484 133.025 175.412 134.707 174.654C136.389 173.877 138.275 173.489 140.364 173.489C142.471 173.489 144.366 173.877 146.048 174.654C147.749 175.412 149.191 176.484 150.374 177.87C151.576 179.238 152.491 180.856 153.119 182.723C153.748 184.572 154.062 186.577 154.062 188.74V189.378C154.062 191.541 153.748 193.547 153.119 195.395C152.491 197.244 151.576 198.861 150.374 200.248C149.191 201.616 147.758 202.688 146.076 203.465C144.412 204.222 142.527 204.601 140.419 204.601C138.312 204.601 136.417 204.222 134.735 203.465C133.052 202.688 131.611 201.616 130.409 200.248C129.226 198.861 128.32 197.244 127.691 195.395C127.063 193.547 126.749 191.541 126.749 189.378ZM131.879 188.74V189.378C131.879 190.875 132.054 192.29 132.405 193.621C132.757 194.933 133.284 196.098 133.986 197.115C134.707 198.131 135.604 198.935 136.676 199.527C137.748 200.1 138.996 200.387 140.419 200.387C141.824 200.387 143.053 200.1 144.107 199.527C145.179 198.935 146.067 198.131 146.769 197.115C147.472 196.098 147.999 194.933 148.35 193.621C148.719 192.29 148.904 190.875 148.904 189.378V188.74C148.904 187.261 148.719 185.866 148.35 184.553C147.999 183.222 147.462 182.048 146.741 181.032C146.039 179.996 145.152 179.183 144.079 178.591C143.026 178 141.787 177.704 140.364 177.704C138.959 177.704 137.72 178 136.648 178.591C135.594 179.183 134.707 179.996 133.986 181.032C133.284 182.048 132.757 183.222 132.405 184.553C132.054 185.866 131.879 187.261 131.879 188.74ZM165.625 178.758V204.047H160.495V174.044H165.486L165.625 178.758ZM174.998 173.877L174.97 178.647C174.545 178.554 174.138 178.499 173.75 178.48C173.38 178.443 172.955 178.425 172.474 178.425C171.291 178.425 170.247 178.61 169.341 178.98C168.435 179.349 167.668 179.867 167.039 180.532C166.411 181.198 165.912 181.993 165.542 182.917C165.191 183.823 164.96 184.821 164.849 185.912L163.407 186.744C163.407 184.932 163.582 183.231 163.934 181.642C164.303 180.052 164.867 178.647 165.625 177.427C166.383 176.188 167.344 175.227 168.509 174.543C169.692 173.84 171.097 173.489 172.724 173.489C173.094 173.489 173.519 173.535 173.999 173.628C174.48 173.702 174.813 173.785 174.998 173.877ZM184.842 180.006V204.047H179.684V174.044H184.564L184.842 180.006ZM183.788 187.908L181.403 187.825C181.422 185.773 181.69 183.878 182.207 182.141C182.725 180.385 183.492 178.859 184.509 177.565C185.525 176.271 186.792 175.273 188.308 174.571C189.824 173.85 191.58 173.489 193.576 173.489C194.981 173.489 196.275 173.693 197.458 174.099C198.641 174.487 199.667 175.107 200.536 175.957C201.405 176.807 202.08 177.898 202.561 179.229C203.041 180.56 203.281 182.168 203.281 184.054V204.047H198.152V184.304C198.152 182.732 197.884 181.475 197.347 180.532C196.83 179.59 196.09 178.906 195.129 178.48C194.168 178.037 193.04 177.815 191.746 177.815C190.23 177.815 188.964 178.083 187.947 178.619C186.93 179.155 186.117 179.895 185.507 180.837C184.897 181.78 184.453 182.862 184.176 184.082C183.917 185.283 183.788 186.559 183.788 187.908ZM203.226 185.08L199.788 186.134C199.806 184.488 200.074 182.908 200.592 181.392C201.128 179.876 201.895 178.527 202.893 177.344C203.91 176.16 205.158 175.227 206.637 174.543C208.116 173.84 209.807 173.489 211.711 173.489C213.319 173.489 214.743 173.702 215.981 174.127C217.239 174.552 218.292 175.208 219.143 176.096C220.011 176.965 220.668 178.083 221.111 179.451C221.555 180.819 221.777 182.446 221.777 184.331V204.047H216.619V184.276C216.619 182.594 216.351 181.29 215.815 180.366C215.298 179.423 214.558 178.767 213.597 178.397C212.654 178.009 211.526 177.815 210.214 177.815C209.086 177.815 208.088 178.009 207.219 178.397C206.35 178.785 205.62 179.322 205.028 180.006C204.437 180.671 203.984 181.438 203.67 182.307C203.374 183.176 203.226 184.1 203.226 185.08ZM247.232 198.917V183.472C247.232 182.289 246.992 181.263 246.511 180.394C246.049 179.506 245.347 178.822 244.404 178.342C243.461 177.861 242.297 177.621 240.91 177.621C239.616 177.621 238.479 177.843 237.499 178.286C236.538 178.73 235.78 179.312 235.226 180.033C234.69 180.754 234.421 181.531 234.421 182.363H229.292C229.292 181.29 229.569 180.227 230.123 179.174C230.678 178.12 231.473 177.168 232.508 176.318C233.562 175.449 234.819 174.765 236.279 174.266C237.758 173.748 239.403 173.489 241.215 173.489C243.397 173.489 245.319 173.859 246.983 174.598C248.665 175.338 249.978 176.456 250.92 177.954C251.882 179.433 252.362 181.29 252.362 183.527V197.503C252.362 198.501 252.446 199.564 252.612 200.692C252.797 201.819 253.065 202.79 253.416 203.603V204.047H248.064C247.805 203.455 247.602 202.67 247.454 201.69C247.306 200.692 247.232 199.767 247.232 198.917ZM248.12 185.856L248.175 189.461H242.99C241.529 189.461 240.226 189.581 239.08 189.822C237.934 190.044 236.973 190.386 236.196 190.848C235.42 191.31 234.828 191.892 234.421 192.595C234.015 193.279 233.811 194.083 233.811 195.007C233.811 195.95 234.024 196.81 234.449 197.586C234.874 198.362 235.512 198.982 236.363 199.444C237.231 199.887 238.294 200.109 239.551 200.109C241.123 200.109 242.509 199.777 243.711 199.111C244.912 198.446 245.864 197.632 246.567 196.671C247.288 195.71 247.676 194.776 247.732 193.87L249.922 196.338C249.793 197.115 249.442 197.974 248.868 198.917C248.295 199.86 247.528 200.766 246.567 201.634C245.624 202.485 244.496 203.197 243.184 203.77C241.89 204.324 240.429 204.601 238.803 204.601C236.769 204.601 234.985 204.204 233.451 203.409C231.935 202.614 230.752 201.551 229.902 200.22C229.07 198.871 228.654 197.364 228.654 195.7C228.654 194.092 228.968 192.678 229.597 191.458C230.225 190.219 231.131 189.193 232.314 188.38C233.497 187.548 234.921 186.919 236.584 186.494C238.248 186.069 240.106 185.856 242.158 185.856H248.12ZM272.438 200.387C273.658 200.387 274.786 200.137 275.821 199.638C276.857 199.139 277.707 198.455 278.372 197.586C279.038 196.699 279.417 195.691 279.509 194.563H284.39C284.297 196.338 283.696 197.993 282.587 199.527C281.497 201.043 280.064 202.272 278.289 203.215C276.515 204.139 274.564 204.601 272.438 204.601C270.183 204.601 268.214 204.204 266.532 203.409C264.868 202.614 263.482 201.524 262.373 200.137C261.282 198.751 260.459 197.161 259.905 195.368C259.369 193.556 259.101 191.643 259.101 189.628V188.463C259.101 186.448 259.369 184.544 259.905 182.751C260.459 180.939 261.282 179.34 262.373 177.954C263.482 176.567 264.868 175.476 266.532 174.682C268.214 173.887 270.183 173.489 272.438 173.489C274.786 173.489 276.838 173.97 278.594 174.931C280.35 175.874 281.728 177.168 282.726 178.813C283.743 180.44 284.297 182.289 284.39 184.359H279.509C279.417 183.121 279.066 182.002 278.456 181.004C277.864 180.006 277.051 179.211 276.015 178.619C274.999 178.009 273.806 177.704 272.438 177.704C270.867 177.704 269.545 178.018 268.473 178.647C267.419 179.257 266.578 180.089 265.95 181.142C265.34 182.178 264.896 183.333 264.619 184.609C264.36 185.866 264.23 187.15 264.23 188.463V189.628C264.23 190.94 264.36 192.234 264.619 193.51C264.877 194.785 265.312 195.941 265.922 196.976C266.55 198.011 267.392 198.843 268.445 199.472C269.518 200.082 270.849 200.387 272.438 200.387ZM269.61 204.324H273.298L272.965 205.794C274.037 205.979 275.008 206.422 275.877 207.125C276.764 207.827 277.208 208.983 277.208 210.591C277.208 211.46 277.023 212.246 276.653 212.948C276.302 213.669 275.775 214.279 275.073 214.778C274.37 215.296 273.492 215.693 272.438 215.97C271.403 216.248 270.192 216.386 268.806 216.386L268.612 213.419C269.462 213.419 270.229 213.327 270.913 213.142C271.616 212.957 272.17 212.661 272.577 212.255C273.002 211.848 273.215 211.321 273.215 210.674C273.215 210.064 273.058 209.583 272.743 209.232C272.429 208.881 271.939 208.613 271.274 208.428C270.627 208.262 269.786 208.142 268.75 208.068L269.61 204.324ZM307.849 198.917V183.472C307.849 182.289 307.608 181.263 307.128 180.394C306.665 179.506 305.963 178.822 305.02 178.342C304.077 177.861 302.913 177.621 301.526 177.621C300.232 177.621 299.095 177.843 298.116 178.286C297.154 178.73 296.396 179.312 295.842 180.033C295.306 180.754 295.038 181.531 295.038 182.363H289.908C289.908 181.29 290.185 180.227 290.74 179.174C291.294 178.12 292.089 177.168 293.124 176.318C294.178 175.449 295.435 174.765 296.896 174.266C298.374 173.748 300.02 173.489 301.831 173.489C304.013 173.489 305.935 173.859 307.599 174.598C309.281 175.338 310.594 176.456 311.537 177.954C312.498 179.433 312.979 181.29 312.979 183.527V197.503C312.979 198.501 313.062 199.564 313.228 200.692C313.413 201.819 313.681 202.79 314.032 203.603V204.047H308.68C308.422 203.455 308.218 202.67 308.07 201.69C307.923 200.692 307.849 199.767 307.849 198.917ZM308.736 185.856L308.791 189.461H303.606C302.146 189.461 300.842 189.581 299.696 189.822C298.55 190.044 297.589 190.386 296.812 190.848C296.036 191.31 295.444 191.892 295.038 192.595C294.631 193.279 294.428 194.083 294.428 195.007C294.428 195.95 294.64 196.81 295.065 197.586C295.491 198.362 296.128 198.982 296.979 199.444C297.848 199.887 298.911 200.109 300.168 200.109C301.739 200.109 303.125 199.777 304.327 199.111C305.529 198.446 306.481 197.632 307.183 196.671C307.904 195.71 308.292 194.776 308.348 193.87L310.538 196.338C310.409 197.115 310.058 197.974 309.485 198.917C308.912 199.86 308.144 200.766 307.183 201.634C306.24 202.485 305.113 203.197 303.8 203.77C302.506 204.324 301.046 204.601 299.419 204.601C297.385 204.601 295.602 204.204 294.067 203.409C292.551 202.614 291.368 201.551 290.518 200.22C289.686 198.871 289.27 197.364 289.27 195.7C289.27 194.092 289.584 192.678 290.213 191.458C290.841 190.219 291.747 189.193 292.93 188.38C294.113 187.548 295.537 186.919 297.201 186.494C298.864 186.069 300.722 185.856 302.774 185.856H308.736ZM308.764 162.009L312.23 162.314C312.23 163.664 311.962 164.847 311.426 165.864C310.89 166.88 310.169 167.666 309.263 168.221C308.375 168.775 307.368 169.053 306.24 169.053C305.298 169.053 304.521 168.923 303.911 168.664C303.301 168.387 302.756 168.082 302.275 167.749C301.794 167.398 301.286 167.093 300.75 166.834C300.232 166.557 299.585 166.418 298.809 166.418C298.032 166.418 297.376 166.714 296.84 167.306C296.322 167.897 296.064 168.627 296.064 169.496L292.598 169.33C292.598 167.98 292.856 166.797 293.374 165.78C293.91 164.745 294.631 163.941 295.537 163.368C296.443 162.776 297.45 162.481 298.559 162.481C299.354 162.481 300.047 162.619 300.639 162.897C301.249 163.155 301.822 163.46 302.358 163.812C302.894 164.144 303.449 164.449 304.022 164.727C304.595 164.986 305.251 165.115 305.991 165.115C306.767 165.115 307.423 164.819 307.96 164.228C308.496 163.618 308.764 162.878 308.764 162.009ZM319.689 189.378V188.74C319.689 186.577 320.003 184.572 320.632 182.723C321.26 180.856 322.166 179.238 323.349 177.87C324.532 176.484 325.965 175.412 327.647 174.654C329.33 173.877 331.215 173.489 333.304 173.489C335.412 173.489 337.306 173.877 338.989 174.654C340.689 175.412 342.131 176.484 343.314 177.87C344.516 179.238 345.431 180.856 346.06 182.723C346.688 184.572 347.002 186.577 347.002 188.74V189.378C347.002 191.541 346.688 193.547 346.06 195.395C345.431 197.244 344.516 198.861 343.314 200.248C342.131 201.616 340.699 202.688 339.016 203.465C337.353 204.222 335.467 204.601 333.36 204.601C331.252 204.601 329.357 204.222 327.675 203.465C325.993 202.688 324.551 201.616 323.349 200.248C322.166 198.861 321.26 197.244 320.632 195.395C320.003 193.547 319.689 191.541 319.689 189.378ZM324.819 188.74V189.378C324.819 190.875 324.995 192.29 325.346 193.621C325.697 194.933 326.224 196.098 326.926 197.115C327.647 198.131 328.544 198.935 329.616 199.527C330.688 200.1 331.936 200.387 333.36 200.387C334.765 200.387 335.994 200.1 337.048 199.527C338.12 198.935 339.007 198.131 339.71 197.115C340.412 196.098 340.939 194.933 341.29 193.621C341.66 192.29 341.845 190.875 341.845 189.378V188.74C341.845 187.261 341.66 185.866 341.29 184.553C340.939 183.222 340.403 182.048 339.682 181.032C338.979 179.996 338.092 179.183 337.02 178.591C335.966 178 334.728 177.704 333.304 177.704C331.899 177.704 330.661 178 329.588 178.591C328.535 179.183 327.647 179.996 326.926 181.032C326.224 182.048 325.697 183.222 325.346 184.553C324.995 185.866 324.819 187.261 324.819 188.74ZM384.991 196.089C384.991 195.349 384.825 194.665 384.492 194.037C384.178 193.39 383.522 192.807 382.524 192.29C381.544 191.754 380.065 191.291 378.087 190.903C376.423 190.552 374.917 190.136 373.567 189.655C372.236 189.175 371.099 188.592 370.156 187.908C369.232 187.224 368.52 186.42 368.021 185.496C367.522 184.572 367.272 183.49 367.272 182.252C367.272 181.069 367.531 179.95 368.049 178.896C368.585 177.843 369.334 176.909 370.295 176.096C371.275 175.282 372.449 174.645 373.817 174.182C375.185 173.72 376.71 173.489 378.392 173.489C380.795 173.489 382.847 173.914 384.548 174.765C386.249 175.615 387.552 176.752 388.458 178.175C389.363 179.58 389.816 181.142 389.816 182.862H384.686C384.686 182.03 384.437 181.226 383.938 180.449C383.457 179.654 382.745 178.998 381.803 178.48C380.878 177.963 379.741 177.704 378.392 177.704C376.968 177.704 375.813 177.926 374.926 178.37C374.057 178.795 373.419 179.34 373.012 180.006C372.624 180.671 372.43 181.374 372.43 182.113C372.43 182.668 372.523 183.167 372.707 183.61C372.911 184.036 373.262 184.433 373.761 184.803C374.26 185.154 374.963 185.487 375.869 185.801C376.774 186.115 377.93 186.43 379.335 186.744C381.793 187.298 383.818 187.964 385.407 188.74C386.997 189.517 388.18 190.469 388.957 191.596C389.733 192.724 390.121 194.092 390.121 195.7C390.121 197.013 389.844 198.214 389.29 199.305C388.753 200.396 387.968 201.339 386.933 202.134C385.916 202.91 384.696 203.52 383.272 203.964C381.867 204.389 380.287 204.601 378.531 204.601C375.887 204.601 373.65 204.13 371.82 203.187C369.99 202.244 368.603 201.024 367.661 199.527C366.718 198.03 366.246 196.449 366.246 194.785H371.404C371.478 196.19 371.885 197.309 372.624 198.141C373.364 198.954 374.27 199.536 375.342 199.887C376.414 200.22 377.477 200.387 378.531 200.387C379.936 200.387 381.109 200.202 382.052 199.832C383.013 199.462 383.744 198.954 384.243 198.307C384.742 197.66 384.991 196.92 384.991 196.089ZM409.31 204.601C407.221 204.601 405.326 204.25 403.626 203.548C401.943 202.827 400.492 201.819 399.272 200.525C398.07 199.231 397.146 197.697 396.499 195.922C395.852 194.148 395.529 192.206 395.529 190.099V188.934C395.529 186.494 395.889 184.322 396.61 182.418C397.331 180.495 398.311 178.869 399.549 177.538C400.788 176.207 402.193 175.199 403.764 174.515C405.336 173.831 406.962 173.489 408.645 173.489C410.789 173.489 412.638 173.859 414.19 174.598C415.762 175.338 417.047 176.373 418.045 177.704C419.043 179.017 419.783 180.569 420.263 182.363C420.744 184.137 420.984 186.078 420.984 188.186V190.487H398.579V186.3H415.854V185.912C415.78 184.581 415.503 183.287 415.022 182.03C414.56 180.773 413.821 179.738 412.804 178.924C411.787 178.111 410.401 177.704 408.645 177.704C407.48 177.704 406.408 177.954 405.428 178.453C404.448 178.933 403.607 179.654 402.905 180.616C402.202 181.577 401.657 182.751 401.269 184.137C400.88 185.524 400.686 187.123 400.686 188.934V190.099C400.686 191.522 400.88 192.863 401.269 194.12C401.675 195.358 402.258 196.449 403.016 197.392C403.792 198.335 404.726 199.074 405.816 199.61C406.925 200.146 408.182 200.414 409.587 200.414C411.399 200.414 412.933 200.045 414.19 199.305C415.447 198.566 416.547 197.577 417.49 196.338L420.596 198.806C419.949 199.786 419.126 200.719 418.128 201.607C417.13 202.494 415.9 203.215 414.44 203.77C412.998 204.324 411.288 204.601 409.31 204.601ZM438.98 200.387C440.201 200.387 441.328 200.137 442.363 199.638C443.399 199.139 444.249 198.455 444.914 197.586C445.58 196.699 445.959 195.691 446.051 194.563H450.932C450.839 196.338 450.239 197.993 449.129 199.527C448.039 201.043 446.606 202.272 444.831 203.215C443.057 204.139 441.106 204.601 438.98 204.601C436.725 204.601 434.756 204.204 433.074 203.409C431.41 202.614 430.024 201.524 428.915 200.137C427.824 198.751 427.001 197.161 426.447 195.368C425.911 193.556 425.643 191.643 425.643 189.628V188.463C425.643 186.448 425.911 184.544 426.447 182.751C427.001 180.939 427.824 179.34 428.915 177.954C430.024 176.567 431.41 175.476 433.074 174.682C434.756 173.887 436.725 173.489 438.98 173.489C441.328 173.489 443.38 173.97 445.136 174.931C446.893 175.874 448.27 177.168 449.268 178.813C450.285 180.44 450.839 182.289 450.932 184.359H446.051C445.959 183.121 445.608 182.002 444.998 181.004C444.406 180.006 443.593 179.211 442.558 178.619C441.541 178.009 440.348 177.704 438.98 177.704C437.409 177.704 436.087 178.018 435.015 178.647C433.961 179.257 433.12 180.089 432.492 181.142C431.882 182.178 431.438 183.333 431.161 184.609C430.902 185.866 430.773 187.15 430.773 188.463V189.628C430.773 190.94 430.902 192.234 431.161 193.51C431.42 194.785 431.854 195.941 432.464 196.976C433.093 198.011 433.934 198.843 434.987 199.472C436.06 200.082 437.391 200.387 438.98 200.387ZM475.056 197.115V174.044H480.214V204.047H475.306L475.056 197.115ZM476.027 190.792L478.162 190.737C478.162 192.733 477.949 194.582 477.524 196.283C477.117 197.965 476.452 199.425 475.528 200.664C474.603 201.902 473.392 202.873 471.895 203.575C470.398 204.259 468.577 204.601 466.432 204.601C464.972 204.601 463.632 204.389 462.412 203.964C461.21 203.539 460.175 202.882 459.306 201.995C458.437 201.108 457.762 199.952 457.282 198.529C456.82 197.105 456.589 195.395 456.589 193.399V174.044H461.718V193.454C461.718 194.804 461.866 195.922 462.162 196.81C462.476 197.678 462.892 198.372 463.41 198.889C463.946 199.388 464.538 199.74 465.185 199.943C465.85 200.146 466.534 200.248 467.237 200.248C469.418 200.248 471.146 199.832 472.422 199C473.697 198.15 474.613 197.013 475.167 195.589C475.74 194.148 476.027 192.548 476.027 190.792ZM493.163 180.449V204.047H488.034V174.044H492.886L493.163 180.449ZM491.943 187.908L489.808 187.825C489.827 185.773 490.132 183.878 490.723 182.141C491.315 180.385 492.147 178.859 493.219 177.565C494.291 176.271 495.567 175.273 497.046 174.571C498.543 173.85 500.197 173.489 502.009 173.489C503.488 173.489 504.819 173.693 506.002 174.099C507.185 174.487 508.193 175.116 509.025 175.985C509.875 176.854 510.522 177.981 510.966 179.368C511.409 180.736 511.631 182.409 511.631 184.387V204.047H506.473V184.331C506.473 182.76 506.242 181.503 505.78 180.56C505.318 179.599 504.643 178.906 503.756 178.48C502.869 178.037 501.778 177.815 500.484 177.815C499.208 177.815 498.044 178.083 496.99 178.619C495.955 179.155 495.058 179.895 494.3 180.837C493.561 181.78 492.979 182.862 492.553 184.082C492.147 185.283 491.943 186.559 491.943 187.908ZM538.334 198.224V161.455H543.492V204.047H538.778L538.334 198.224ZM518.148 189.378V188.796C518.148 186.503 518.425 184.424 518.979 182.557C519.552 180.671 520.357 179.054 521.392 177.704C522.446 176.355 523.693 175.319 525.135 174.598C526.596 173.859 528.223 173.489 530.016 173.489C531.901 173.489 533.547 173.822 534.951 174.487C536.375 175.134 537.577 176.087 538.556 177.344C539.555 178.582 540.34 180.08 540.913 181.836C541.486 183.592 541.884 185.579 542.106 187.798V190.349C541.902 192.548 541.505 194.526 540.913 196.283C540.34 198.039 539.555 199.536 538.556 200.775C537.577 202.013 536.375 202.965 534.951 203.631C533.528 204.278 531.864 204.601 529.96 204.601C528.204 204.601 526.596 204.222 525.135 203.465C523.693 202.707 522.446 201.644 521.392 200.276C520.357 198.908 519.552 197.299 518.979 195.451C518.425 193.584 518.148 191.559 518.148 189.378ZM523.305 188.796V189.378C523.305 190.875 523.453 192.28 523.749 193.593C524.063 194.905 524.544 196.061 525.191 197.059C525.838 198.057 526.66 198.843 527.659 199.416C528.657 199.971 529.849 200.248 531.236 200.248C532.936 200.248 534.332 199.887 535.423 199.167C536.532 198.446 537.419 197.494 538.085 196.31C538.75 195.127 539.268 193.842 539.638 192.456V185.773C539.416 184.757 539.092 183.777 538.667 182.834C538.261 181.873 537.724 181.022 537.059 180.283C536.412 179.525 535.608 178.924 534.646 178.48C533.704 178.037 532.585 177.815 531.291 177.815C529.886 177.815 528.675 178.111 527.659 178.702C526.66 179.275 525.838 180.07 525.191 181.087C524.544 182.085 524.063 183.25 523.749 184.581C523.453 185.893 523.305 187.298 523.305 188.796ZM569.169 198.917V183.472C569.169 182.289 568.929 181.263 568.448 180.394C567.986 179.506 567.284 178.822 566.341 178.342C565.398 177.861 564.234 177.621 562.847 177.621C561.553 177.621 560.416 177.843 559.436 178.286C558.475 178.73 557.717 179.312 557.163 180.033C556.627 180.754 556.358 181.531 556.358 182.363H551.229C551.229 181.29 551.506 180.227 552.06 179.174C552.615 178.12 553.41 177.168 554.445 176.318C555.499 175.449 556.756 174.765 558.216 174.266C559.695 173.748 561.341 173.489 563.152 173.489C565.334 173.489 567.256 173.859 568.92 174.598C570.602 175.338 571.915 176.456 572.857 177.954C573.819 179.433 574.299 181.29 574.299 183.527V197.503C574.299 198.501 574.383 199.564 574.549 200.692C574.734 201.819 575.002 202.79 575.353 203.603V204.047H570.001C569.742 203.455 569.539 202.67 569.391 201.69C569.243 200.692 569.169 199.767 569.169 198.917ZM570.057 185.856L570.112 189.461H564.927C563.466 189.461 562.163 189.581 561.017 189.822C559.871 190.044 558.91 190.386 558.133 190.848C557.357 191.31 556.765 191.892 556.358 192.595C555.952 193.279 555.748 194.083 555.748 195.007C555.748 195.95 555.961 196.81 556.386 197.586C556.811 198.362 557.449 198.982 558.3 199.444C559.168 199.887 560.231 200.109 561.488 200.109C563.06 200.109 564.446 199.777 565.648 199.111C566.849 198.446 567.801 197.632 568.504 196.671C569.225 195.71 569.613 194.776 569.669 193.87L571.859 196.338C571.73 197.115 571.379 197.974 570.805 198.917C570.232 199.86 569.465 200.766 568.504 201.634C567.561 202.485 566.433 203.197 565.121 203.77C563.827 204.324 562.366 204.601 560.74 204.601C558.706 204.601 556.922 204.204 555.388 203.409C553.872 202.614 552.689 201.551 551.839 200.22C551.007 198.871 550.591 197.364 550.591 195.7C550.591 194.092 550.905 192.678 551.534 191.458C552.162 190.219 553.068 189.193 554.251 188.38C555.434 187.548 556.858 186.919 558.521 186.494C560.185 186.069 562.043 185.856 564.095 185.856H570.057ZM560.878 169.607L566.258 161.455H572.441L565.01 169.607H560.878ZM587.498 178.758V204.047H582.369V174.044H587.36L587.498 178.758ZM596.871 173.877L596.843 178.647C596.418 178.554 596.011 178.499 595.623 178.48C595.253 178.443 594.828 178.425 594.348 178.425C593.165 178.425 592.12 178.61 591.214 178.98C590.308 179.349 589.541 179.867 588.913 180.532C588.284 181.198 587.785 181.993 587.415 182.917C587.064 183.823 586.833 184.821 586.722 185.912L585.28 186.744C585.28 184.932 585.456 183.231 585.807 181.642C586.177 180.052 586.741 178.647 587.498 177.427C588.256 176.188 589.218 175.227 590.382 174.543C591.565 173.84 592.97 173.489 594.597 173.489C594.967 173.489 595.392 173.535 595.873 173.628C596.353 173.702 596.686 173.785 596.871 173.877ZM607.186 174.044V204.047H602.029V174.044H607.186ZM601.64 166.085C601.64 165.254 601.89 164.551 602.389 163.978C602.907 163.405 603.665 163.118 604.663 163.118C605.643 163.118 606.391 163.405 606.909 163.978C607.445 164.551 607.713 165.254 607.713 166.085C607.713 166.88 607.445 167.564 606.909 168.137C606.391 168.692 605.643 168.969 604.663 168.969C603.665 168.969 602.907 168.692 602.389 168.137C601.89 167.564 601.64 166.88 601.64 166.085ZM633.113 198.917V183.472C633.113 182.289 632.873 181.263 632.392 180.394C631.93 179.506 631.228 178.822 630.285 178.342C629.342 177.861 628.177 177.621 626.791 177.621C625.497 177.621 624.36 177.843 623.38 178.286C622.419 178.73 621.661 179.312 621.106 180.033C620.57 180.754 620.302 181.531 620.302 182.363H615.172C615.172 181.29 615.45 180.227 616.004 179.174C616.559 178.12 617.354 177.168 618.389 176.318C619.443 175.449 620.7 174.765 622.16 174.266C623.639 173.748 625.284 173.489 627.096 173.489C629.277 173.489 631.2 173.859 632.864 174.598C634.546 175.338 635.858 176.456 636.801 177.954C637.762 179.433 638.243 181.29 638.243 183.527V197.503C638.243 198.501 638.326 199.564 638.493 200.692C638.677 201.819 638.946 202.79 639.297 203.603V204.047H633.945C633.686 203.455 633.483 202.67 633.335 201.69C633.187 200.692 633.113 199.767 633.113 198.917ZM634 185.856L634.056 189.461H628.871C627.41 189.461 626.107 189.581 624.961 189.822C623.815 190.044 622.853 190.386 622.077 190.848C621.3 191.31 620.709 191.892 620.302 192.595C619.896 193.279 619.692 194.083 619.692 195.007C619.692 195.95 619.905 196.81 620.33 197.586C620.755 198.362 621.393 198.982 622.243 199.444C623.112 199.887 624.175 200.109 625.432 200.109C627.003 200.109 628.39 199.777 629.592 199.111C630.793 198.446 631.745 197.632 632.448 196.671C633.169 195.71 633.557 194.776 633.612 193.87L635.803 196.338C635.673 197.115 635.322 197.974 634.749 198.917C634.176 199.86 633.409 200.766 632.448 201.634C631.505 202.485 630.377 203.197 629.065 203.77C627.771 204.324 626.31 204.601 624.683 204.601C622.65 204.601 620.866 204.204 619.332 203.409C617.816 202.614 616.633 201.551 615.782 200.22C614.95 198.871 614.535 197.364 614.535 195.7C614.535 194.092 614.849 192.678 615.477 191.458C616.106 190.219 617.012 189.193 618.195 188.38C619.378 187.548 620.801 186.919 622.465 186.494C624.129 186.069 625.987 185.856 628.039 185.856H634Z" fill="#2C2C2C"/>
<path d="M15 231.609H1164.99V244.032C1164.99 255.794 1155.45 265.328 1143.69 265.328H616.615L589.638 295.498L562.661 265.328H36.2961C24.5346 265.328 15 255.794 15 244.032V231.609Z" fill="#0567FF"/>
</g>
<defs>
<filter id="filter0_f_1995_9197" x="526.105" y="458.764" width="129.881" height="47.5901" filterUnits="userSpaceOnUse" color-interpolation-filters="sRGB">
<feFlood flood-opacity="0" result="BackgroundImageFix"/>
<feBlend mode="normal" in="SourceGraphic" in2="BackgroundImageFix" result="shape"/>
<feGaussianBlur stdDeviation="7.0987" result="effect1_foregroundBlur_1995_9197"/>
</filter>
<filter id="filter1_d_1995_9197" x="0.802605" y="0.260677" width="1192.58" height="330.733" filterUnits="userSpaceOnUse" color-interpolation-filters="sRGB">
<feFlood flood-opacity="0" result="BackgroundImageFix"/>
<feColorMatrix in="SourceAlpha" type="matrix" values="0 0 0 0 0 0 0 0 0 0 0 0 0 0 0 0 0 0 127 0" result="hardAlpha"/>
<feOffset dx="7.0987" dy="14.1974"/>
<feGaussianBlur stdDeviation="10.648"/>
<feComposite in2="hardAlpha" operator="out"/>
<feColorMatrix type="matrix" values="0 0 0 0 0.172549 0 0 0 0 0.172549 0 0 0 0 0.172549 0 0 0 0.25 0"/>
<feBlend mode="normal" in2="BackgroundImageFix" result="effect1_dropShadow_1995_9197"/>
<feBlend mode="normal" in="SourceGraphic" in2="effect1_dropShadow_1995_9197" result="shape"/>
</filter>
</defs>
</svg>
