<svg width="66" height="66" viewBox="0 0 66 66" fill="none" xmlns="http://www.w3.org/2000/svg">
<path d="M6.08466 11.4171L6.08478 11.4172L18.487 22.3298C18.9044 22.6971 19.5434 22.6436 19.8939 22.212L30.9694 8.57515C30.9694 8.5751 30.9695 8.57505 30.9695 8.575C31.2606 8.21718 31.6287 7.92963 32.0464 7.73378C32.4641 7.53789 32.9206 7.43876 33.3819 7.44377C33.8432 7.44878 34.2975 7.5578 34.7109 7.76272C35.1242 7.96763 35.486 8.26316 35.7693 8.62729L35.7693 8.62736L46.325 22.1881C46.6693 22.6305 47.314 22.694 47.7381 22.3274L60.5474 11.253C61.0205 10.8448 61.6069 10.5909 62.2283 10.5251C62.8497 10.4594 63.4764 10.5851 64.0244 10.8853C64.5724 11.1855 65.0157 11.6459 65.2948 12.2049C65.574 12.7639 65.6758 13.3949 65.5865 14.0133L65.5863 14.0133L65.585 14.0248L61.4698 51.9812C61.1926 54.5377 59.0341 56.4749 56.4626 56.4749H11.0267C8.50004 56.4749 6.3644 54.6028 6.03354 52.0978L1.02481 14.1767L1.02485 14.1767L1.02405 14.1713C0.931259 13.5494 1.03185 12.914 1.31219 12.3512C1.59254 11.7884 2.03909 11.3254 2.59136 11.0248C3.14364 10.7242 3.77495 10.6007 4.39979 10.6708C5.02463 10.741 5.61281 11.0015 6.08466 11.4171Z" fill="#FDFBF9" stroke="#959595" stroke-width="0.652803"/>
</svg>
