<svg width="85" height="103" viewBox="0 0 85 103" fill="none" xmlns="http://www.w3.org/2000/svg">
<path d="M43.0558 99.9397C42.8739 100.071 42.7049 100.192 42.5495 100.303C42.394 100.192 42.225 100.071 42.0431 99.9397C40.9223 99.1302 39.3138 97.9329 37.3804 96.3933C33.5099 93.3113 28.3552 88.8717 23.2079 83.4385C12.823 72.4766 2.86778 57.8879 2.86778 42.485C2.86778 31.9608 7.04852 21.8676 14.4903 14.4258C21.932 6.98406 32.0252 2.80333 42.5495 2.80333C53.0737 2.80333 63.1669 6.98406 70.6086 14.4258C78.0504 21.8676 82.2311 31.9608 82.2311 42.485C82.2311 57.8879 72.2759 72.4766 61.891 83.4385C56.7438 88.8717 51.589 93.3113 47.7186 96.3933C45.7851 97.9329 44.1766 99.1302 43.0558 99.9397ZM42.5621 61.4619C53.0479 61.4619 61.5484 52.9615 61.5484 42.4757C61.5484 31.9899 53.0479 23.4894 42.5621 23.4894C32.0763 23.4894 23.5758 31.9899 23.5758 42.4757C23.5758 52.9615 32.0763 61.4619 42.5621 61.4619Z" fill="#3E9A00"/>
<path d="M43.0558 99.9397C42.8739 100.071 42.7049 100.192 42.5495 100.303C42.394 100.192 42.225 100.071 42.0431 99.9397C40.9223 99.1302 39.3138 97.9329 37.3804 96.3933C33.5099 93.3113 28.3552 88.8717 23.2079 83.4385C12.823 72.4766 2.86778 57.8879 2.86778 42.485C2.86778 31.9608 7.04852 21.8676 14.4903 14.4258C21.932 6.98406 32.0252 2.80333 42.5495 2.80333C53.0737 2.80333 63.1669 6.98406 70.6086 14.4258C78.0504 21.8676 82.2311 31.9608 82.2311 42.485C82.2311 57.8879 72.2759 72.4766 61.891 83.4385C56.7438 88.8717 51.589 93.3113 47.7186 96.3933C45.7851 97.9329 44.1766 99.1302 43.0558 99.9397ZM42.5621 61.4619C53.0479 61.4619 61.5484 52.9615 61.5484 42.4757C61.5484 31.9899 53.0479 23.4894 42.5621 23.4894C32.0763 23.4894 23.5758 31.9899 23.5758 42.4757C23.5758 52.9615 32.0763 61.4619 42.5621 61.4619Z" stroke="#3E9A00" stroke-width="4.41916" stroke-linecap="round" stroke-linejoin="round"/>
<path d="M43.0558 99.9397C42.8739 100.071 42.7049 100.192 42.5495 100.303C42.394 100.192 42.225 100.071 42.0431 99.9397C40.9223 99.1302 39.3138 97.9329 37.3804 96.3933C33.5099 93.3113 28.3552 88.8717 23.2079 83.4385C12.823 72.4766 2.86778 57.8879 2.86778 42.485C2.86778 31.9608 7.04852 21.8676 14.4903 14.4258C21.932 6.98406 32.0252 2.80333 42.5495 2.80333C53.0737 2.80333 63.1669 6.98406 70.6086 14.4258C78.0504 21.8676 82.2311 31.9608 82.2311 42.485C82.2311 57.8879 72.2759 72.4766 61.891 83.4385C56.7438 88.8717 51.589 93.3113 47.7186 96.3933C45.7851 97.9329 44.1766 99.1302 43.0558 99.9397ZM42.5621 61.4619C53.0479 61.4619 61.5484 52.9615 61.5484 42.4757C61.5484 31.9899 53.0479 23.4894 42.5621 23.4894C32.0763 23.4894 23.5758 31.9899 23.5758 42.4757C23.5758 52.9615 32.0763 61.4619 42.5621 61.4619Z" stroke="#2C2C2C" stroke-opacity="0.5" stroke-width="4.41916" stroke-linecap="round" stroke-linejoin="round"/>
</svg>
