<svg width="44" height="52" viewBox="0 0 44 52" fill="none" xmlns="http://www.w3.org/2000/svg">
<g filter="url(#filter0_f_601_47110)">
<ellipse cx="18.6655" cy="44.7038" rx="14.2964" ry="2.70379" fill="#2C2C2C" fill-opacity="0.35"/>
</g>
<path d="M35.6191 18C35.6191 24.6985 31.2948 31.0157 26.8247 35.7342C24.6049 38.0773 22.3826 39.9912 20.7144 41.3195C19.8809 41.9833 19.1873 42.4996 18.7035 42.849C18.5773 42.9401 18.4655 43.0199 18.3691 43.0879C18.2728 43.0199 18.161 42.9401 18.0348 42.849C17.551 42.4996 16.8573 41.9833 16.0238 41.3195C14.3556 39.9912 12.1333 38.0773 9.9136 35.7342C5.44344 31.0157 1.11914 24.6985 1.11914 18C1.11914 13.425 2.93655 9.03741 6.17155 5.80241C9.40655 2.56741 13.7942 0.75 18.3691 0.75C22.9441 0.75 27.3317 2.56741 30.5667 5.80241C33.8017 9.03741 35.6191 13.425 35.6191 18Z" fill="#0567FF"/>
<path d="M35.6191 18C35.6191 24.6985 31.2948 31.0157 26.8247 35.7342C24.6049 38.0773 22.3826 39.9912 20.7144 41.3195C19.8809 41.9833 19.1873 42.4996 18.7035 42.849C18.5773 42.9401 18.4655 43.0199 18.3691 43.0879C18.2728 43.0199 18.161 42.9401 18.0348 42.849C17.551 42.4996 16.8573 41.9833 16.0238 41.3195C14.3556 39.9912 12.1333 38.0773 9.9136 35.7342C5.44344 31.0157 1.11914 24.6985 1.11914 18C1.11914 13.425 2.93655 9.03741 6.17155 5.80241C9.40655 2.56741 13.7942 0.75 18.3691 0.75C22.9441 0.75 27.3317 2.56741 30.5667 5.80241C33.8017 9.03741 35.6191 13.425 35.6191 18Z" stroke="#0567FF" stroke-width="1.5" stroke-linecap="round" stroke-linejoin="round"/>
<path d="M35.6191 18C35.6191 24.6985 31.2948 31.0157 26.8247 35.7342C24.6049 38.0773 22.3826 39.9912 20.7144 41.3195C19.8809 41.9833 19.1873 42.4996 18.7035 42.849C18.5773 42.9401 18.4655 43.0199 18.3691 43.0879C18.2728 43.0199 18.161 42.9401 18.0348 42.849C17.551 42.4996 16.8573 41.9833 16.0238 41.3195C14.3556 39.9912 12.1333 38.0773 9.9136 35.7342C5.44344 31.0157 1.11914 24.6985 1.11914 18C1.11914 13.425 2.93655 9.03741 6.17155 5.80241C9.40655 2.56741 13.7942 0.75 18.3691 0.75C22.9441 0.75 27.3317 2.56741 30.5667 5.80241C33.8017 9.03741 35.6191 13.425 35.6191 18Z" stroke="#2C2C2C" stroke-opacity="0.5" stroke-width="1.5" stroke-linecap="round" stroke-linejoin="round"/>
<path d="M10.0151 11.3341L10.0152 11.3341L13.7801 14.6468C13.9364 14.7844 14.1758 14.7644 14.3071 14.6027L17.6711 10.4607C17.7582 10.3537 17.8683 10.2676 17.9932 10.2091C18.1182 10.1505 18.2547 10.1208 18.3927 10.1223C18.5307 10.1238 18.6666 10.1564 18.7902 10.2177C18.9139 10.279 19.0221 10.3674 19.1068 10.4763L19.1068 10.4763L22.312 14.594C22.441 14.7597 22.6824 14.7835 22.8413 14.6462L26.7302 11.2839C26.8717 11.1618 27.0471 11.0859 27.233 11.0662C27.4189 11.0466 27.6063 11.0842 27.7702 11.1739C27.9342 11.2637 28.0667 11.4015 28.1502 11.5687C28.2337 11.7359 28.2642 11.9246 28.2375 12.1096L28.2374 12.1096L28.2369 12.1139L27.0115 23.4164C26.9077 24.3739 26.0992 25.0995 25.136 25.0995H11.8645C10.9181 25.0995 10.1182 24.3983 9.99428 23.4601L8.50173 12.1599L8.50174 12.1599L8.50144 12.1579C8.47369 11.9719 8.50377 11.7818 8.58763 11.6135C8.67148 11.4451 8.80505 11.3066 8.97025 11.2167C9.13544 11.1268 9.32428 11.0899 9.51118 11.1108C9.69808 11.1318 9.87401 11.2098 10.0151 11.3341Z" fill="#FDFBF9" stroke="#959595" stroke-width="0.244509"/>
<rect x="28.8691" y="0.5" width="14" height="14" rx="7" fill="#3E9A00"/>
<path fill-rule="evenodd" clip-rule="evenodd" d="M35.8686 3.30469L41.2978 9.22743L39.6061 10.7781L35.8686 6.70089L32.1311 10.7781L30.4395 9.22743L35.8686 3.30469Z" fill="#FDFBF9"/>
<rect x="28.8691" y="0.5" width="14" height="14" rx="7" stroke="#3E9A00"/>
<rect x="28.8691" y="0.5" width="14" height="14" rx="7" stroke="black" stroke-opacity="0.25"/>
<defs>
<filter id="filter0_f_601_47110" x="0.369141" y="38" width="36.5938" height="13.4062" filterUnits="userSpaceOnUse" color-interpolation-filters="sRGB">
<feFlood flood-opacity="0" result="BackgroundImageFix"/>
<feBlend mode="normal" in="SourceGraphic" in2="BackgroundImageFix" result="shape"/>
<feGaussianBlur stdDeviation="2" result="effect1_foregroundBlur_601_47110"/>
</filter>
</defs>
</svg>
