<svg width="368" height="191" viewBox="0 0 368 191" fill="none" xmlns="http://www.w3.org/2000/svg">
<rect x="0.368652" width="367" height="91" rx="11" fill="#0567FF"/>
<path d="M64.8685 44.7991C71.2226 44.7991 76.3735 39.6481 76.3735 33.2941C76.3735 26.94 71.2226 21.7891 64.8685 21.7891C58.5145 21.7891 53.3635 26.94 53.3635 33.2941C53.3635 39.6481 58.5145 44.7991 64.8685 44.7991Z" stroke="#FAF6F0" stroke-width="6.3" stroke-miterlimit="10"/>
<path d="M74.6038 50.3906C72.5388 53.6356 68.9988 55.7006 64.8688 55.7006C60.7388 55.7006 57.1988 53.6356 55.1338 50.3906H53.3638C46.5788 50.3906 41.2688 55.7006 41.2688 62.4856V65.1406C41.2688 66.6156 42.4488 68.0906 43.9238 68.0906H85.5188C86.9938 68.0906 88.1738 66.9106 88.1738 65.4356V62.7806C88.1738 55.9956 82.8638 50.6856 76.0788 50.6856L74.6038 50.3906Z" stroke="#FAF6F0" stroke-width="6.3" stroke-miterlimit="10"/>
<path d="M179.868 68.0984C192.902 68.0984 203.468 57.5324 203.468 44.4984C203.468 31.4645 192.902 20.8984 179.868 20.8984C166.834 20.8984 156.268 31.4645 156.268 44.4984C156.268 57.5324 166.834 68.0984 179.868 68.0984Z" stroke="#FAF6F0" stroke-width="5.3" stroke-miterlimit="10"/>
<path d="M176.624 51.2831C176.624 49.2181 176.919 47.7431 177.214 46.5631C177.509 45.3831 178.689 44.2031 179.869 43.0231C181.049 41.8431 181.934 40.9581 182.524 40.3681C182.819 39.7781 183.114 38.8931 183.114 38.0081C183.114 35.6481 181.934 34.4681 179.869 34.4681C178.689 34.4681 178.099 34.7631 177.214 35.3531C176.919 35.9431 176.624 36.8281 176.329 38.0081H170.429C170.429 35.3531 171.314 33.2881 173.084 31.5181C174.559 30.0431 176.919 29.4531 179.869 29.4531C182.819 29.4531 185.179 30.0431 186.949 31.5181C188.719 32.9931 189.309 35.0581 189.309 37.7131C189.309 38.8931 189.014 40.0731 188.424 41.2531C187.834 42.4331 186.949 43.6131 185.474 44.7931L183.704 46.5631C182.524 47.7431 181.934 48.9231 181.934 50.1031V51.2831H176.624V51.2831ZM176.034 57.7731C176.034 56.8881 176.329 56.0031 176.919 55.4131C177.509 54.8231 178.394 54.5281 179.279 54.5281C180.164 54.5281 181.049 54.8231 181.639 55.4131C182.229 56.0031 182.524 56.8881 182.524 57.7731C182.524 58.6581 182.229 59.5431 181.639 60.1331C181.049 60.7231 180.164 61.0181 179.279 61.0181C178.394 61.0181 177.804 60.7231 176.919 60.1331C176.034 59.5431 176.034 58.6581 176.034 57.7731Z" fill="#FAF6F0"/>
<rect x="0.368652" y="100" width="367" height="91" rx="11" fill="#2C2C2C"/>
<path d="M304.604 59.5469C304.604 64.2669 300.769 68.1019 296.049 68.1019C291.329 68.1019 287.494 64.2669 287.494 59.5469" fill="#FAF6F0"/>
<path d="M304.604 59.5469C304.604 64.2669 300.769 68.1019 296.049 68.1019C291.329 68.1019 287.494 64.2669 287.494 59.5469" stroke="#FAF6F0" stroke-width="5.9" stroke-miterlimit="10"/>
<path d="M310.208 59.5434H280.708C277.758 59.5434 275.398 57.1834 275.398 54.2334L277.758 39.1884C277.758 38.5984 277.758 38.0084 278.053 37.4184C278.348 28.2734 286.018 20.8984 295.458 20.8984C304.898 20.8984 312.863 28.5684 312.863 38.0084C312.863 38.3034 312.863 38.3034 312.863 38.5984L315.223 54.2334C315.518 57.1834 313.158 59.5434 310.208 59.5434Z" stroke="#FAF6F0" stroke-width="5.9" stroke-miterlimit="10"/>
<path d="M64.8685 145.799C71.2226 145.799 76.3735 140.648 76.3735 134.294C76.3735 127.94 71.2226 122.789 64.8685 122.789C58.5145 122.789 53.3635 127.94 53.3635 134.294C53.3635 140.648 58.5145 145.799 64.8685 145.799Z" stroke="#FAF6F0" stroke-width="6.3" stroke-miterlimit="10"/>
<path d="M74.6038 151.391C72.5388 154.636 68.9988 156.701 64.8688 156.701C60.7388 156.701 57.1988 154.636 55.1338 151.391H53.3638C46.5788 151.391 41.2688 156.701 41.2688 163.486V166.141C41.2688 167.616 42.4488 169.091 43.9238 169.091H85.5188C86.9938 169.091 88.1738 167.911 88.1738 166.436V163.781C88.1738 156.996 82.8638 151.686 76.0788 151.686L74.6038 151.391Z" stroke="#FAF6F0" stroke-width="6.3" stroke-miterlimit="10"/>
<path d="M179.868 169.098C192.902 169.098 203.468 158.532 203.468 145.498C203.468 132.465 192.902 121.898 179.868 121.898C166.834 121.898 156.268 132.465 156.268 145.498C156.268 158.532 166.834 169.098 179.868 169.098Z" stroke="#FAF6F0" stroke-width="5.3" stroke-miterlimit="10"/>
<path d="M176.624 152.283C176.624 150.218 176.919 148.743 177.214 147.563C177.509 146.383 178.689 145.203 179.869 144.023C181.049 142.843 181.934 141.958 182.524 141.368C182.819 140.778 183.114 139.893 183.114 139.008C183.114 136.648 181.934 135.468 179.869 135.468C178.689 135.468 178.099 135.763 177.214 136.353C176.919 136.943 176.624 137.828 176.329 139.008H170.429C170.429 136.353 171.314 134.288 173.084 132.518C174.559 131.043 176.919 130.453 179.869 130.453C182.819 130.453 185.179 131.043 186.949 132.518C188.719 133.993 189.309 136.058 189.309 138.713C189.309 139.893 189.014 141.073 188.424 142.253C187.834 143.433 186.949 144.613 185.474 145.793L183.704 147.563C182.524 148.743 181.934 149.923 181.934 151.103V152.283H176.624V152.283ZM176.034 158.773C176.034 157.888 176.329 157.003 176.919 156.413C177.509 155.823 178.394 155.528 179.279 155.528C180.164 155.528 181.049 155.823 181.639 156.413C182.229 157.003 182.524 157.888 182.524 158.773C182.524 159.658 182.229 160.543 181.639 161.133C181.049 161.723 180.164 162.018 179.279 162.018C178.394 162.018 177.804 161.723 176.919 161.133C176.034 160.543 176.034 159.658 176.034 158.773Z" fill="#FAF6F0"/>
<path d="M304.604 160.547C304.604 165.267 300.769 169.102 296.049 169.102C291.329 169.102 287.494 165.267 287.494 160.547" fill="#FAF6F0"/>
<path d="M304.604 160.547C304.604 165.267 300.769 169.102 296.049 169.102C291.329 169.102 287.494 165.267 287.494 160.547" stroke="#FAF6F0" stroke-width="5.9" stroke-miterlimit="10"/>
<path d="M310.208 160.543H280.708C277.758 160.543 275.398 158.183 275.398 155.233L277.758 140.188C277.758 139.598 277.758 139.008 278.053 138.418C278.348 129.273 286.018 121.898 295.458 121.898C304.898 121.898 312.863 129.568 312.863 139.008C312.863 139.303 312.863 139.303 312.863 139.598L315.223 155.233C315.518 158.183 313.158 160.543 310.208 160.543Z" stroke="#FAF6F0" stroke-width="5.9" stroke-miterlimit="10"/>
</svg>
