<svg width="316" height="226" viewBox="0 0 316 226" fill="none" xmlns="http://www.w3.org/2000/svg">
<rect x="0.368652" width="315" height="108" rx="11" fill="#FAF4F0"/>
<rect x="0.368652" y="118" width="315" height="108" rx="11" fill="#FAF4F0"/>
<path d="M245.368 36.7422H251.128C251.448 36.7422 251.448 36.7422 251.768 36.7422" stroke="#0567FF" stroke-width="7.3" stroke-linecap="round" stroke-linejoin="round"/>
<path d="M254.968 47.1484V73.9234C254.968 76.1284 253.368 77.7034 251.128 77.7034H217.848" stroke="#0567FF" stroke-width="7.3" stroke-linecap="round" stroke-linejoin="round" stroke-dasharray="13.78 13.78"/>
<path d="M213.369 74.55C213.369 74.235 213.369 74.235 213.369 73.92V68.25" stroke="#0567FF" stroke-width="7.3" stroke-linecap="round" stroke-linejoin="round"/>
<path d="M241.529 68.2547H207.609C205.369 68.2547 203.769 66.6797 203.769 64.4747V31.0847C203.769 28.8797 205.369 27.3047 207.609 27.3047H241.529C243.769 27.3047 245.369 28.8797 245.369 31.0847V64.4747C245.369 66.6797 243.769 68.2547 241.529 68.2547Z" stroke="#0567FF" stroke-width="7.3" stroke-miterlimit="10" stroke-linecap="round" stroke-linejoin="round"/>
<path d="M245.368 154H251.128C251.448 154 251.448 154 251.768 154" stroke="#2C2C2C" stroke-width="7.3" stroke-linecap="round" stroke-linejoin="round"/>
<path d="M254.968 164.547V191.747C254.968 193.987 253.368 195.587 251.128 195.587H217.848" stroke="#2C2C2C" stroke-width="7.3" stroke-linecap="round" stroke-linejoin="round" stroke-dasharray="13.78 13.78"/>
<path d="M213.369 192.392C213.369 192.072 213.369 192.072 213.369 191.752V185.992" stroke="#2C2C2C" stroke-width="7.3" stroke-linecap="round" stroke-linejoin="round"/>
<path d="M241.529 185.991H207.609C205.369 185.991 203.769 184.391 203.769 182.151V148.231C203.769 145.991 205.369 144.391 207.609 144.391H241.529C243.769 144.391 245.369 145.991 245.369 148.231V182.151C245.369 184.391 243.769 185.991 241.529 185.991Z" stroke="#2C2C2C" stroke-width="7.3" stroke-miterlimit="10" stroke-linecap="round" stroke-linejoin="round"/>
<path d="M61.7287 27.6328H85.7287C86.6887 27.6328 87.6487 28.5778 87.6487 29.5228V36.4528C87.6487 37.7128 88.9287 38.9728 90.2087 38.9728H95.6487C96.6087 38.9728 97.5687 39.9178 97.5687 40.8628V75.1978C97.5687 76.4578 96.2887 77.7178 95.0087 77.7178H61.7287C60.4487 77.7178 59.1687 76.4578 59.1687 75.1978V30.1528C59.1687 28.5778 60.4487 27.6328 61.7287 27.6328Z" stroke="#0567FF" stroke-width="8.2" stroke-miterlimit="10" stroke-linecap="round" stroke-linejoin="round"/>
<path d="M78.6887 63.52V45.25" stroke="#0567FF" stroke-width="8.2" stroke-miterlimit="10" stroke-linecap="round" stroke-linejoin="round"/>
<path d="M69.4087 54.375H87.9687" stroke="#0567FF" stroke-width="8.2" stroke-miterlimit="10" stroke-linecap="round" stroke-linejoin="round"/>
<path d="M61.7287 144.727H85.7287C86.6887 144.727 87.6487 145.687 87.6487 146.647V153.687C87.6487 154.967 88.9287 156.247 90.2087 156.247H95.6487C96.6087 156.247 97.5687 157.207 97.5687 158.167V193.047C97.5687 194.327 96.2887 195.607 95.0087 195.607H61.7287C60.4487 195.607 59.1687 194.327 59.1687 193.047V147.287C59.1687 145.687 60.4487 144.727 61.7287 144.727Z" stroke="#2C2C2C" stroke-width="8.2" stroke-miterlimit="10" stroke-linecap="round" stroke-linejoin="round"/>
<path d="M78.6887 181.193V162.633" stroke="#2C2C2C" stroke-width="8.2" stroke-miterlimit="10" stroke-linecap="round" stroke-linejoin="round"/>
<path d="M69.4087 171.922H87.9687" stroke="#2C2C2C" stroke-width="8.2" stroke-miterlimit="10" stroke-linecap="round" stroke-linejoin="round"/>
</svg>
