<svg width="317" height="91" viewBox="0 0 317 91" fill="none" xmlns="http://www.w3.org/2000/svg">
<rect x="164.369" width="152" height="91" rx="11" fill="#0567FF"/>
<rect x="0.368652" width="152" height="91" rx="11" fill="#82B3FF"/>
<path d="M269.497 46.4643C269.497 58.2204 251.863 67.4048 240.106 67.4048C228.35 67.4048 210.716 58.2204 210.716 46.4643C210.716 34.7082 228.35 24.7891 240.106 24.7891C251.863 24.7891 269.497 34.7082 269.497 46.4643Z" stroke="#FAF6F0" stroke-width="7.34754" stroke-miterlimit="10"/>
<path d="M240.473 57.1371C246.966 57.1371 252.229 51.8738 252.229 45.3811C252.229 38.8884 246.966 33.625 240.473 33.625C233.981 33.625 228.717 38.8884 228.717 45.3811C228.717 51.8738 233.981 57.1371 240.473 57.1371Z" stroke="#FAF6F0" stroke-width="7.34754" stroke-miterlimit="10"/>
<path d="M106.231 46.1053C106.231 58.2288 88.2299 67.4132 76.1065 67.4132C63.983 67.4132 45.9816 58.2288 45.9816 46.1053C45.9816 33.9819 63.983 23.6953 76.1065 23.6953C88.2299 23.6953 106.231 33.9819 106.231 46.1053Z" stroke="#FAF6F0" stroke-width="7.34754" stroke-miterlimit="10"/>
<path d="M86.7605 51.6248C84.5562 54.9312 80.8824 57.1354 76.4739 57.1354C69.8611 57.1354 64.3505 51.6248 64.3505 45.012C64.3505 42.073 65.4526 39.1339 67.2895 36.9297" stroke="#FAF6F0" stroke-width="7.34754" stroke-miterlimit="10"/>
<path d="M65.4524 39.4794C67.6567 36.173 71.3304 33.9688 75.7389 33.9688C82.3517 33.9688 87.8624 39.4794 87.8624 46.0922C87.8624 49.0312 86.7603 51.9702 84.9234 54.1745" stroke="#FAF6F0" stroke-width="7.34754" stroke-miterlimit="10"/>
<path d="M51.4923 20.7656L102.19 71.4637" stroke="#FAF6F0" stroke-width="7.34754" stroke-miterlimit="10" stroke-linecap="round" stroke-linejoin="round"/>
</svg>
